<svg width="151" height="100" viewBox="0 0 151 100" fill="none" xmlns="http://www.w3.org/2000/svg">
<path opacity="0.3" d="M18.0849 82.3097L17.7994 81.8796L17.9305 81.2555L17.8225 80.6853L17.6062 80.132L17.346 79.598L17.4118 78.9924L17.1309 78.4367L17.1313 77.8496L17.1748 77.2641L17.0023 76.6915L16.9374 76.1229L17.0024 75.5382L16.9382 74.9487L16.7219 74.3954L16.7661 73.789L16.7873 73.2236L16.7232 72.6341L16.5507 72.0615L16.5941 71.476L16.4647 70.905L16.4005 70.3154L16.5085 69.7323L16.5082 69.1662L16.3795 68.5742L16.4875 67.9911L16.2935 67.4177L16.423 66.8355L16.3374 66.2451L16.4669 65.6628L16.3805 65.0935L16.5535 63.9257L16.6607 63.3635L16.6396 62.7756L16.554 62.1853L16.7266 61.6046L16.8983 61.0449L16.8988 60.4578L17.006 59.8956L17.114 59.3126L16.9646 58.6989L17.0718 58.1367L17.4365 57.6052L17.4585 57.0189L17.3951 56.4084L17.4593 55.8447L17.8025 55.3123L17.6538 54.6777L18.0392 54.1679L17.9759 53.5574L18.2114 53.0211L18.2127 52.413L18.4267 51.8759L18.7476 51.3636L18.7918 50.7572L19.0489 50.2216L18.964 49.6104L19.3076 48.4909L19.7137 48.0029L19.8425 47.4415L19.8652 46.8343L20.1646 46.3213L20.2726 45.7382L20.6357 45.2485L20.935 44.7355L21.0646 44.1532L21.3209 43.6386L21.5349 43.1014L21.5584 42.4732L21.9215 41.9836L22.008 41.3997L22.3496 40.9092L22.7757 40.4639L23.2468 39.3911L23.4194 38.8105L23.6542 38.295L23.8052 37.7136L24.2521 37.2899L24.4669 36.7318L24.8507 36.2639L25.0018 35.6824L25.4478 35.2798L25.7679 34.7885L26.025 34.2529L26.3235 33.7608L26.4754 33.1584L26.7739 32.6664L27.2415 32.2645L27.5616 31.7732L27.8394 31.2594L28.0965 30.7238L28.501 30.2777L28.8211 29.7864L29.1834 29.3177L29.4828 28.8046L29.928 28.4229L30.3119 27.955L30.6104 27.4629L31.1195 27.1045L31.5233 26.6793L31.8011 26.1655L32.0797 25.6307L32.4835 25.2055L33.034 24.8906L33.3748 24.4211L33.8416 24.0401L34.1624 23.5279L34.441 22.9932L35.0529 22.7644L35.3315 22.2297L35.7361 21.7835L36.1399 21.3583L36.6482 21.0208L37.1556 20.7043L37.5387 20.2573L37.9425 19.8321L38.2633 19.3199L38.8745 19.1121L39.2169 18.6007L39.5792 18.132L40.1903 17.9242L40.677 17.586L41.0808 17.1607L41.5676 16.8225L42.0344 16.4415L42.4589 16.0381L42.9041 15.6563L43.3287 15.2528L43.8577 14.9371L44.3444 14.5989L44.8096 14.2598L45.2971 13.9006L45.8445 13.6695L46.3312 13.3312L46.8594 13.0365L47.3246 12.6974L47.7101 12.1876L48.3388 12.0853L48.8463 11.7688L49.333 11.4306L49.7998 11.0497L50.3472 10.8185L50.8139 10.4376L51.3605 10.2274L51.8488 9.84725L52.4161 9.6588L52.9627 9.4486L53.4311 9.02578L54.0583 8.96538L54.6064 8.7133L55.1338 8.43948L55.6006 8.05855L56.1887 7.89184L56.7744 7.78795L57.3018 7.51412L57.83 7.21936L58.3175 6.86017L58.9455 6.77883L59.4529 6.46232L60.0003 6.23118L60.6451 6.27628L61.2124 6.08783L61.7007 5.7077L62.3087 5.58368L62.8745 5.4371L63.4426 5.22771L64.0291 5.10288L64.5948 4.9563L65.1829 4.78959L66.3159 4.45456L66.9024 4.32973L67.413 3.92947L67.998 3.84652L68.6021 3.82719L69.1878 3.7233L69.795 3.62021L70.3431 3.36813L70.9105 3.17968L71.5345 3.20304L72.0834 2.93002L72.6691 2.82613L73.2908 2.9123L73.8965 2.8511L74.4998 2.85271L75.0519 2.49593L75.636 2.43392L76.2577 2.52009L76.8426 2.43714L77.4267 2.37513L78.0316 2.33486L78.6165 2.25191L79.223 2.16977L79.811 2.00306L80.4136 2.02561L80.9977 1.9636L81.6147 2.17541L82.2051 1.94588L82.7884 1.90481L83.3878 2.01112L83.9919 1.99179L85.1938 2.12065L85.778 2.05863L86.386 1.93461L86.9861 2.01998L87.591 1.97971L88.165 2.18991L88.7698 2.14964L89.3755 2.08844L89.9494 2.29864L90.5512 2.34213L91.1584 2.23904L91.7316 2.47018L92.3333 2.51367L92.9374 2.49435L93.5407 2.49596L94.1162 2.66428L94.6886 2.91636L95.3189 2.7722L95.8698 3.02347L96.4692 3.12978L97.0971 3.04844L97.6726 3.21676L98.2243 3.4471L98.7982 3.6573L99.4008 3.67985L100.004 3.68146L100.578 3.89166L101.178 3.97703L101.729 4.2283L102.257 4.52065L102.906 4.44011L103.458 4.67045L103.986 4.9628L104.634 4.9032L105.163 5.17461L105.785 5.23984L106.289 5.61514L106.866 5.74159L107.369 6.11689L107.944 6.28521L108.568 6.3295L109.12 6.5389L109.696 6.70722L110.247 6.93755L110.775 7.2299L111.374 7.35715L111.809 7.81379L112.408 7.94104L112.888 8.33647L113.488 8.44278L114.063 8.6111L114.498 9.08868L115.05 9.29808L115.694 9.36412L116.176 9.73861L116.682 10.0302L117.28 10.1783L117.74 10.552L118.199 10.9676L118.796 11.1367L119.21 11.5926L119.76 11.8438L120.289 12.1152L120.841 12.3246L121.278 12.7603L121.739 13.1131L122.403 13.2218L122.795 13.6768L123.369 13.887L123.806 14.3018L124.311 14.6143L124.749 15.0081L125.321 15.2602L125.782 15.6339L126.152 16.109L126.544 16.5641L127.14 16.7751L127.51 17.2502L128.038 17.5217L128.408 17.9968L129.003 18.2288L129.328 18.7442L129.743 19.1791L130.36 19.3909L130.619 19.9667L131.101 20.3203L131.472 20.7745L131.954 21.1281L132.548 21.381L132.919 21.8352L133.2 22.3909L133.794 22.6438L134.031 23.2188L134.558 23.5321L134.906 24.0274L135.41 24.3608L135.758 24.8561L136.085 25.3296L136.589 25.684L136.827 26.2381L137.286 26.6327L137.569 27.1465L137.962 27.5806L138.332 28.0558L138.636 28.5704L139.162 28.9047L139.312 29.5183L139.86 29.8324L140.23 30.3076L140.402 30.9012L140.839 31.3159L141.012 31.8885L141.448 32.3242L141.73 32.8381L142.123 33.2721L142.493 33.7473L142.578 34.3795L143.036 34.7951L143.253 35.3274L143.667 35.7833L143.994 36.2568L144.144 36.8496L144.405 37.3835L144.599 37.936L145.102 38.3322L145.34 38.8654L145.667 39.3599L145.751 39.9712L146.055 40.4858L146.448 40.9408L146.577 41.5118L146.967 42.6168L147.315 43.1121L147.51 43.6645L147.551 44.2742L147.855 44.7888L148.225 45.264L148.442 45.8173L148.397 46.4447L148.635 46.9778L148.809 47.5295L149.221 48.0272L149.177 48.6336L149.393 49.1869L149.632 49.7201L149.761 50.2911L150.043 50.8258L149.977 51.4315L150.367 51.9493L150.497 52.5203L150.476 53.0647L149.913 53.1485L149.362 53.4634L148.777 53.5673L148.209 53.7557L147.604 53.796L147.04 53.9007L146.452 54.0674L145.847 54.1077L145.32 54.3815L144.677 54.2945L144.128 54.5466L143.544 54.6296L142.958 54.7334L142.389 54.9638L141.824 55.0894L141.18 55.0234L140.653 55.2972L140.066 55.422L139.517 55.695L138.876 55.5452L138.366 55.9455L137.741 55.9431L137.155 56.047L136.589 56.1936L136.003 56.3184L135.4 56.3168L134.871 56.6325L134.247 56.6091L133.66 56.7339L133.074 56.8378L132.564 57.2381L131.959 57.2784L131.373 57.3823L130.825 57.6343L130.22 57.6746L129.617 57.673L129.049 57.8824L128.464 57.9653L127.86 57.9847L126.762 58.5307L126.157 58.571L125.572 58.6539L124.967 58.6942L124.399 58.9036L123.85 59.1766L123.248 59.154L122.699 59.4271L122.094 59.4673L121.528 59.6139L120.942 59.7387L120.356 59.8426L119.789 60.0311L119.201 60.1769L118.636 60.3234L118.049 60.4483L117.407 60.3194L116.841 60.4869L116.293 60.739L115.725 60.9274L115.083 60.8195L114.552 61.1771L113.97 61.1972L113.381 61.3849L112.795 61.4888L112.192 61.4872L111.661 61.8448L111.058 61.8431L110.472 61.947L109.299 62.1967L108.733 62.3642L108.13 62.3626L107.598 62.762L106.994 62.7604L106.37 62.7371L105.803 62.9255L105.237 63.0721L104.631 63.1333L104.102 63.47L103.48 63.3838L102.913 63.5513L102.307 63.6334L101.778 63.9491L101.173 63.9894L100.645 64.2842L100.022 64.2399L99.472 64.5338L98.2638 64.5725L97.6789 64.6554L97.1291 64.9494L96.5427 65.0742L95.9745 65.2836L95.372 65.2611L94.7672 65.3013L94.2358 65.6799L93.5942 65.551L93.0276 65.7185L92.4803 65.9497L91.8738 66.0318L91.3065 66.2203L90.7591 66.4514L90.1374 66.3652L89.5686 66.5956L89.002 66.7631L88.3788 66.7188L87.8114 66.9072L87.2433 67.1166L86.66 67.1577L86.0528 67.2608L84.958 67.7231L84.3516 67.8052L83.785 67.9727L83.161 67.9494L82.5945 68.1169L81.9904 68.1362L81.4039 68.261L80.8749 68.5767L80.3068 68.7861L79.6644 68.6782L79.1346 69.0149L78.5497 69.0978L77.9831 69.2653L77.3783 69.3056L76.8094 69.5359L76.1677 69.4071L75.602 69.5536L75.053 69.8266L74.4865 69.9942L73.9192 70.1826L73.3327 70.3074L72.727 70.3687L72.1237 70.367L71.5556 70.5764L70.9691 70.7013L70.4034 70.8478L69.8169 70.9727L69.268 71.2457L68.6631 71.286L68.059 71.3053L67.53 71.621L66.8876 71.5131L66.3027 71.596L65.7338 71.8264L65.1688 71.952L64.5807 72.1187L64.015 72.2653L63.4277 72.411L62.8236 72.4304L62.2931 72.788L61.689 72.8073L61.1424 73.0175L60.5184 72.9941L59.9127 73.0553L59.3645 73.3074L58.7788 73.4113L58.1924 73.5361L57.6458 73.7463L57.0585 73.8921L56.4345 73.8687L55.9055 74.1844L55.2646 74.0346L54.7165 74.2867L54.1491 74.4752L53.5243 74.4728L52.9762 74.7248L52.3721 74.7442L51.8055 74.9117L51.2558 75.2056L50.6134 75.0977L50.0844 75.4134L49.5171 75.6019L48.9306 75.7267L48.3081 75.6615L47.7032 75.7017L47.1375 75.8483L46.5694 76.0577L46.0404 76.3734L45.4355 76.4137L44.869 76.5812L44.3017 76.7696L43.6776 76.7463L43.0735 76.7656L42.5238 77.0596L41.8998 77.0362L41.3708 77.3519L40.7491 77.2657L40.1626 77.3906L39.5937 77.6209L39.0464 77.852L38.4782 78.0614L37.8358 77.9535L37.2877 78.2056L36.7203 78.394L36.1362 78.4561L35.5122 78.4327L34.9249 78.5785L34.3951 78.9151L33.7711 78.8918L33.2437 79.1656L32.6188 79.1632L32.014 79.2034L30.8793 79.5803L30.3312 79.8324L29.688 79.7454L29.1789 80.1038L28.5717 80.2069L27.9876 80.2689L27.4195 80.4783L26.797 80.4131L26.268 80.7288L25.6248 80.6418L25.0399 80.7248L24.4901 81.0187L23.9213 81.249L23.3555 81.3956L22.7506 81.4359L22.1266 81.4125L21.5792 81.6437L20.9736 81.7049L20.407 81.8724L19.8014 81.9336L18.6652 82.3524L18.0849 82.3097Z" fill="url(#paint0_linear_979_26578)"/>
<path d="M134.869 15.2319V15.2539L134.863 15.2752L134.867 15.2972L134.868 15.3193L134.859 15.3414L134.865 15.3635L134.856 15.3847L134.858 15.4068V15.4288L134.851 15.4501L134.852 15.4721L134.847 15.4942L134.84 15.5154L134.839 15.5375L134.833 15.5587L134.834 15.5808L134.83 15.6029L134.819 15.6224L134.814 15.6445V15.6666L134.804 15.6869L134.8 15.709L134.792 15.7294L134.791 15.7523L134.778 15.771L134.776 15.7939L134.767 15.8135L134.758 15.8338L134.752 15.8551L134.742 15.8754L134.731 15.895L134.729 15.9179L134.713 15.9349L134.704 15.9552L134.698 15.9765L134.69 15.9968L134.675 16.0155L134.666 16.035L134.656 16.0554L134.644 16.0741L134.64 16.097L134.627 16.1157L134.611 16.1318L134.604 16.1539L134.59 16.1709L134.578 16.1896L134.566 16.2091L134.555 16.2278L134.541 16.2456L134.525 16.2617L134.519 16.2847L134.499 16.2982L134.49 16.3195L134.477 16.3373L134.459 16.3517L134.447 16.3713L134.431 16.3874L134.418 16.4061L134.402 16.4213L134.383 16.4349L134.371 16.4545L134.357 16.4723L134.338 16.4859L134.326 16.5054L134.309 16.5198L134.289 16.5326L134.277 16.5521L134.254 16.5614L134.24 16.5793L134.222 16.5929L134.204 16.6073L134.19 16.626L134.168 16.6362L134.153 16.6523L134.135 16.6667L134.115 16.6786L134.096 16.6913L134.077 16.7032L134.06 16.7185L134.043 16.7346L134.02 16.7414L134.003 16.7576L133.983 16.7677L133.963 16.7796L133.946 16.7949L133.923 16.8026L133.906 16.8187L133.885 16.828L133.863 16.8374L133.844 16.8493L133.825 16.8628L133.804 16.8705L133.783 16.8824L133.758 16.8858L133.74 16.9002L133.717 16.9053L133.698 16.918L133.675 16.924L133.653 16.9333L133.631 16.9393L133.609 16.9469L133.588 16.9562L133.565 16.9613L133.544 16.9698L133.524 16.9826L133.499 16.9842L133.479 16.9936L133.456 16.9995L133.432 17.0038L133.412 17.014L133.389 17.0208L133.365 17.0233L133.343 17.0284L133.32 17.0352L133.298 17.0403L133.275 17.0437L133.251 17.0488L133.228 17.0471L133.205 17.0539L133.183 17.0573L133.158 17.0581L133.136 17.0641L133.112 17.0649L133.089 17.0666L133.066 17.07L133.042 17.0717L133.019 17.0683L132.996 17.0759L132.973 17.0751L132.949 17.07L132.926 17.0776L132.902 17.07L132.879 17.0751L132.856 17.0725L132.832 17.0692L132.809 17.0725L132.785 17.0666L132.763 17.0649L132.739 17.0658L132.716 17.0649L132.693 17.0615L132.669 17.0564L132.645 17.0624L132.623 17.0547L132.6 17.0522L132.577 17.0462L132.554 17.0428L132.531 17.0403L132.507 17.0411L132.486 17.0292L132.461 17.0301L132.439 17.0242L132.417 17.014H132.393L132.373 17.0021L132.35 16.9961L132.326 16.9919L132.304 16.9868L132.283 16.9766L132.261 16.9698L132.239 16.9622L132.217 16.9562L132.194 16.9494L132.171 16.9452L132.149 16.9367L132.129 16.9257L132.107 16.9197L132.087 16.9078L132.064 16.901L132.045 16.8875L132.024 16.8781L132.002 16.8688L131.981 16.8603L131.96 16.851L131.939 16.8408L131.921 16.8255L131.9 16.8161L131.879 16.806L131.859 16.7941L131.839 16.7847L131.82 16.7711L131.802 16.7559L131.783 16.7431L131.763 16.7338L131.744 16.7202L131.725 16.7066L131.707 16.693L131.688 16.6795L131.668 16.6676L131.651 16.6531L131.634 16.6387L131.619 16.6217L131.601 16.6073L131.583 16.5929L131.566 16.5784L131.544 16.5674L131.531 16.5496L131.512 16.536L131.499 16.5173L131.484 16.5003L131.465 16.4876L131.446 16.4731L131.431 16.4562L131.421 16.4358L131.405 16.4197L131.388 16.4044L131.37 16.3899L131.362 16.3679L131.346 16.3517L131.333 16.3339L131.314 16.3195L131.306 16.2982L131.287 16.2838L131.277 16.2643L131.262 16.2465L131.251 16.2269L131.238 16.2091L131.229 16.1887L131.211 16.1734L131.202 16.1522L131.186 16.1361L131.178 16.1149L131.169 16.0945L131.16 16.0741L131.146 16.0563L131.137 16.0359L131.122 16.0189L131.114 15.9977L131.108 15.9765L131.096 15.9569L131.088 15.9366L131.077 15.917L131.073 15.895L131.066 15.8737L131.054 15.8551L131.042 15.8355L131.039 15.8135L131.028 15.7939L131.027 15.771L131.02 15.7506L131.01 15.7302L131.005 15.7082L130.998 15.6878L130.996 15.6657L130.991 15.6445L130.98 15.6241L130.978 15.602L130.974 15.58L130.972 15.5579L130.967 15.5367L130.966 15.5146L130.958 15.4942L130.956 15.4721L130.953 15.4501L130.952 15.4288L130.944 15.4068L130.946 15.3847L130.939 15.3635L130.942 15.3414L130.936 15.3193L130.944 15.2972V15.2752L130.938 15.2539L130.943 15.2319L130.941 15.2098L130.939 15.1877L130.942 15.1657L130.938 15.1436L130.945 15.1224L130.947 15.1003L130.944 15.0782L130.952 15.057L130.945 15.0341L130.953 15.0128L130.953 14.9908L130.961 14.9695V14.9475L130.968 14.9262L130.973 14.905L130.97 14.8821L130.981 14.8617L130.984 14.8405L130.986 14.8184L130.991 14.7963L131.002 14.7768L131.007 14.7547L131.009 14.7327L131.016 14.7123L131.025 14.6919L131.032 14.6707L131.043 14.6511L131.047 14.6291L131.051 14.607L131.063 14.5883L131.069 14.5671L131.076 14.5459L131.087 14.5263L131.1 14.5077L131.105 14.4856L131.113 14.4652L131.128 14.4474L131.134 14.4253L131.144 14.4058L131.16 14.3888L131.168 14.3684L131.177 14.348L131.192 14.3311L131.199 14.309L131.217 14.2937L131.224 14.2716L131.237 14.2538L131.249 14.2351L131.267 14.2198L131.274 14.1978L131.291 14.1825L131.303 14.1638L131.316 14.1451L131.332 14.1282L131.346 14.1112L131.355 14.0908L131.375 14.0772L131.387 14.0577L131.406 14.0441L131.421 14.0271L131.435 14.0101L131.45 13.9932L131.467 13.9779L131.478 13.9583L131.5 13.9473L131.513 13.9278L131.529 13.9117L131.544 13.8955L131.566 13.8853L131.579 13.8667L131.602 13.8565L131.614 13.8369L131.633 13.8242L131.649 13.8081L131.671 13.7979L131.689 13.7851L131.708 13.7716L131.725 13.7563L131.743 13.7418L131.765 13.7334L131.783 13.7189L131.802 13.707L131.82 13.6926L131.841 13.6824L131.859 13.668L131.88 13.6578L131.9 13.6468L131.922 13.6383L131.942 13.6272L131.96 13.6128L131.983 13.6069L132.004 13.5967L132.023 13.5839L132.045 13.5754L132.068 13.5686L132.087 13.5568L132.108 13.5474L132.128 13.5355L132.15 13.527L132.172 13.5203L132.193 13.5092L132.215 13.5033L132.238 13.4965L132.26 13.4905L132.282 13.4829L132.305 13.477L132.326 13.4659L132.349 13.4634L132.372 13.4591L132.393 13.4489L132.417 13.4472L132.439 13.4404L132.461 13.4345L132.485 13.4311L132.508 13.4303L132.531 13.4252L132.554 13.4209L132.576 13.4141L132.599 13.409L132.622 13.4039L132.646 13.4073L132.669 13.4005L132.692 13.3988L132.716 13.3963L132.739 13.398L132.762 13.3921L132.785 13.3954L132.809 13.3929L132.832 13.3912L132.855 13.3861L132.879 13.3895L132.902 13.3929L132.926 13.3904L132.949 13.3921L132.973 13.3904H132.996L133.02 13.3895L133.042 13.3921L133.066 13.3937L133.089 13.3997L133.112 13.4031L133.136 13.3997L133.159 13.4039L133.182 13.4073L133.205 13.409L133.229 13.4107L133.251 13.4209L133.274 13.4243L133.297 13.4286L133.319 13.4328L133.342 13.4387L133.365 13.443L133.388 13.4455L133.411 13.4532L133.433 13.4574L133.455 13.4651L133.479 13.4676L133.5 13.4761L133.523 13.4812L133.545 13.4922L133.566 13.499L133.589 13.5041L133.611 13.5126L133.632 13.5236L133.653 13.5304L133.676 13.5364L133.696 13.5483L133.719 13.5542L133.74 13.5627L133.758 13.578L133.78 13.5873L133.803 13.5933L133.823 13.6026L133.842 13.6179L133.866 13.6221L133.886 13.634L133.902 13.651L133.927 13.6552L133.945 13.6697L133.964 13.6824L133.983 13.696L134.003 13.7062L134.023 13.7181L134.043 13.7283L134.06 13.7452L134.079 13.758L134.099 13.7699L134.117 13.7834L134.137 13.7945L134.151 13.8132L134.172 13.8242L134.189 13.8386L134.207 13.8531L134.221 13.8709L134.24 13.8845L134.257 13.8989L134.276 13.9125L134.291 13.9286L134.309 13.9431L134.326 13.9583L134.342 13.9745L134.357 13.9915L134.369 14.0101L134.388 14.0246L134.398 14.0449L134.419 14.0568L134.428 14.0789L134.443 14.095L134.46 14.1112L134.477 14.1265L134.487 14.146L134.501 14.1638L134.517 14.1808L134.529 14.1986L134.543 14.2164L134.552 14.2368L134.569 14.253L134.579 14.2733L134.592 14.292L134.601 14.3115L134.616 14.3294L134.626 14.3489L134.636 14.3684L134.645 14.3888L134.66 14.4066L134.671 14.4253L134.676 14.4482L134.693 14.4644L134.698 14.4864L134.711 14.5051L134.713 14.528L134.728 14.5459L134.733 14.5679L134.743 14.5875L134.748 14.6095L134.761 14.6282L134.763 14.6503L134.773 14.6707L134.784 14.6902L134.787 14.7123L134.792 14.7343L134.802 14.7547L134.807 14.776L134.808 14.798L134.819 14.8184L134.825 14.8396L134.829 14.8609L134.828 14.8838L134.839 14.9042L134.836 14.9262L134.844 14.9475L134.843 14.9695L134.846 14.9916L134.853 15.0128L134.855 15.0349L134.858 15.0561L134.864 15.0782L134.863 15.1003L134.864 15.1224L134.866 15.1436L134.863 15.1657L134.862 15.1877L134.864 15.2098L134.869 15.2319Z" fill="#E1FCEE"/>
<path d="M24.1709 97.4792V97.5009L24.1659 97.5218L24.1692 97.5435L24.1701 97.5651L24.1617 97.5868L24.1676 97.6085L24.1592 97.6293L24.1609 97.651V97.6727L24.1542 97.6935L24.1559 97.7152L24.1509 97.7369L24.1442 97.7578L24.1434 97.7794L24.1375 97.8003L24.1392 97.822L24.135 97.8436L24.125 97.8628L24.1208 97.8845V97.9062L24.1108 97.9262L24.1075 97.9479L24.1 97.9679L24.0991 97.9904L24.0875 98.0087L24.0858 98.0313L24.0766 98.0504L24.0691 98.0704L24.0633 98.0913L24.0541 98.1113L24.0441 98.1305L24.0424 98.153L24.0274 98.1697L24.019 98.1897L24.0132 98.2105L24.0057 98.2305L23.9923 98.2489L23.984 98.2681L23.9748 98.2881L23.964 98.3064L23.9598 98.3289L23.9481 98.3473L23.9331 98.3631L23.9272 98.3848L23.9139 98.4015L23.903 98.4198L23.8922 98.439L23.8814 98.4573L23.8688 98.4749L23.8538 98.4907L23.848 98.5132L23.8296 98.5266L23.8221 98.5474L23.8096 98.5649L23.7929 98.5791L23.7821 98.5983L23.767 98.6141L23.7554 98.6325L23.7403 98.6475L23.7228 98.6608L23.712 98.68L23.6995 98.6975L23.6811 98.7108L23.6702 98.73L23.6544 98.7442L23.636 98.7567L23.6252 98.7759L23.6043 98.785L23.591 98.8026L23.5743 98.8159L23.5576 98.8301L23.5451 98.8484L23.5251 98.8584L23.5109 98.8743L23.4942 98.8884L23.4758 98.9001L23.4583 98.9126L23.4408 98.9243L23.4249 98.9393L23.4099 98.9551L23.3882 98.9618L23.3724 98.9777L23.354 98.9877L23.3356 98.9993L23.3198 99.0144L23.2989 99.0219L23.2831 99.0377L23.2639 99.0469L23.2439 99.056L23.2263 99.0677L23.2088 99.0811L23.1888 99.0886L23.1696 99.1002L23.1471 99.1036L23.1304 99.1177L23.1087 99.1228L23.0912 99.1353L23.0703 99.1411L23.0503 99.1503L23.0294 99.1561L23.0094 99.1636L22.9902 99.1728L22.9693 99.1778L22.9493 99.1861L22.931 99.1986L22.9084 99.2003L22.8892 99.2095L22.8684 99.2153L22.8467 99.2195L22.8275 99.2295L22.8066 99.2362L22.7849 99.2387L22.7641 99.2437L22.7432 99.2503L22.7223 99.2553L22.7015 99.2587L22.6798 99.2637L22.6581 99.262L22.6372 99.2687L22.6164 99.272L22.5938 99.2728L22.573 99.2787L22.5513 99.2795L22.5304 99.2812L22.5087 99.2845L22.487 99.2862L22.4653 99.2829L22.4445 99.2904L22.4228 99.2895L22.4011 99.2845L22.3794 99.292L22.3577 99.2845L22.336 99.2895L22.3152 99.287L22.2935 99.2837L22.2718 99.287L22.2501 99.2812L22.2292 99.2795L22.2075 99.2803L22.1858 99.2795L22.165 99.2762L22.1433 99.2712L22.1207 99.277L22.1007 99.2695L22.079 99.267L22.0582 99.2612L22.0365 99.2578L22.0156 99.2553L21.9931 99.2562L21.9739 99.2445L21.9513 99.2453L21.9305 99.2395L21.9105 99.2295H21.8888L21.8696 99.2178L21.8487 99.212L21.827 99.2078L21.8062 99.2028L21.787 99.1928L21.7669 99.1861L21.7461 99.1786L21.7261 99.1728L21.7052 99.1661L21.6835 99.1619L21.6635 99.1536L21.6451 99.1428L21.6243 99.1369L21.6059 99.1253L21.585 99.1186L21.5675 99.1052L21.5483 99.0961L21.5283 99.0869L21.5083 99.0786L21.4891 99.0694L21.4699 99.0594L21.4532 99.0444L21.434 99.0352L21.4148 99.0252L21.3965 99.0135L21.3773 99.0043L21.3597 98.991L21.3439 98.976L21.3264 98.9635L21.3072 98.9543L21.2897 98.941L21.273 98.9276L21.2563 98.9143L21.2388 98.9009L21.2204 98.8893L21.2045 98.8751L21.1887 98.8609L21.1745 98.8442L21.1578 98.8301L21.142 98.8159L21.1261 98.8017L21.1061 98.7909L21.0936 98.7734L21.076 98.76L21.0644 98.7417L21.0502 98.725L21.0326 98.7125L21.0151 98.6983L21.0018 98.6816L20.9926 98.6616L20.9776 98.6458L20.9617 98.6308L20.945 98.6166L20.9375 98.5949L20.9233 98.5791L20.9108 98.5616L20.8933 98.5474L20.8858 98.5266L20.8683 98.5124L20.8591 98.4932L20.8457 98.4757L20.8357 98.4565L20.8232 98.439L20.8149 98.419L20.7982 98.404L20.7907 98.3831L20.7756 98.3673L20.7681 98.3464L20.7598 98.3264L20.7515 98.3064L20.7389 98.2889L20.7306 98.2689L20.7164 98.2522L20.7089 98.2314L20.7039 98.2105L20.6922 98.1913L20.6855 98.1713L20.6747 98.1522L20.6713 98.1305L20.6647 98.1096L20.6538 98.0913L20.643 98.0721L20.6405 98.0504L20.6296 98.0313L20.6288 98.0087L20.6221 97.9887L20.6138 97.9687L20.6088 97.947L20.6021 97.927L20.6004 97.9053L20.5954 97.8845L20.5854 97.8645L20.5837 97.8428L20.5804 97.8211L20.5787 97.7994L20.5737 97.7786L20.5729 97.7569L20.5654 97.7369L20.5637 97.7152L20.5612 97.6935L20.5595 97.6727L20.5529 97.651L20.5545 97.6293L20.5479 97.6085L20.5504 97.5868L20.5453 97.5651L20.552 97.5435V97.5218L20.547 97.5009L20.5512 97.4792L20.5495 97.4576L20.5479 97.4359L20.5504 97.4142L20.547 97.3925L20.5537 97.3717L20.5554 97.35L20.552 97.3283L20.5595 97.3075L20.5537 97.285L20.5604 97.2641L20.5612 97.2424L20.5679 97.2216V97.1999L20.5746 97.1791L20.5796 97.1582L20.5762 97.1357L20.5862 97.1157L20.5896 97.0948L20.5912 97.0732L20.5954 97.0515L20.6063 97.0323L20.6104 97.0106L20.6121 96.9889L20.6188 96.9689L20.6271 96.9489L20.6338 96.9281L20.6438 96.9089L20.6471 96.8872L20.6513 96.8655L20.6622 96.8472L20.668 96.8263L20.6738 96.8055L20.6839 96.7863L20.6964 96.768L20.7006 96.7463L20.7081 96.7263L20.7222 96.7088L20.7273 96.6871L20.7364 96.6679L20.7515 96.6512L20.759 96.6312L20.7673 96.6112L20.7815 96.5945L20.7873 96.5729L20.804 96.5579L20.8107 96.5362L20.8224 96.5187L20.8332 96.5003L20.8499 96.4853L20.8566 96.4636L20.8724 96.4486L20.8833 96.4303L20.8958 96.4119L20.91 96.3953L20.9233 96.3786L20.9317 96.3586L20.95 96.3452L20.9609 96.326L20.9784 96.3127L20.9926 96.296L21.0051 96.2793L21.0193 96.2627L21.0343 96.2477L21.0452 96.2285L21.0652 96.2176L21.0769 96.1985L21.0919 96.1826L21.1061 96.1668L21.1261 96.1568L21.1378 96.1384L21.1586 96.1284L21.1703 96.1092L21.1879 96.0967L21.2029 96.0809L21.2229 96.0709L21.2396 96.0584L21.2571 96.045L21.2721 96.03L21.2888 96.0159L21.3097 96.0075L21.3255 95.9933L21.3439 95.9817L21.3597 95.9675L21.3798 95.9575L21.3965 95.9433L21.4156 95.9333L21.434 95.9225L21.454 95.9141L21.4724 95.9033L21.4891 95.8891L21.5108 95.8833L21.53 95.8733L21.5475 95.8608L21.5675 95.8524L21.5884 95.8457L21.6059 95.8341L21.6259 95.8249L21.6443 95.8132L21.6643 95.8049L21.6843 95.7982L21.7035 95.7874L21.7244 95.7815L21.7452 95.7749L21.7661 95.769L21.7861 95.7615L21.807 95.7557L21.8262 95.7449L21.8479 95.7424L21.8687 95.7382L21.8879 95.7282L21.9105 95.7265L21.9305 95.7198L21.9513 95.714L21.973 95.7107L21.9947 95.7098L22.0156 95.7048L22.0365 95.7007L22.0573 95.694L22.0782 95.689L22.0999 95.684L22.1216 95.6873L22.1424 95.6806L22.1641 95.679L22.1858 95.6765L22.2075 95.6781L22.2284 95.6723L22.2501 95.6756L22.2718 95.6731L22.2935 95.6715L22.3143 95.6665L22.336 95.6698L22.3577 95.6731L22.3794 95.6706L22.4011 95.6723L22.4228 95.6706H22.4445L22.4662 95.6698L22.487 95.6723L22.5087 95.674L22.5296 95.6798L22.5513 95.6832L22.573 95.6798L22.5947 95.684L22.6155 95.6873L22.6372 95.689L22.6589 95.6907L22.679 95.7007L22.7007 95.704L22.7215 95.7082L22.7424 95.7123L22.7632 95.7182L22.7841 95.7223L22.8058 95.7248L22.8266 95.7323L22.8475 95.7365L22.8675 95.744L22.8892 95.7465L22.9093 95.7549L22.9301 95.7599L22.9501 95.7707L22.9702 95.7774L22.991 95.7824L23.0111 95.7907L23.0302 95.8016L23.0503 95.8082L23.0711 95.8141L23.0895 95.8257L23.1112 95.8316L23.1304 95.8399L23.1471 95.8549L23.1671 95.8641L23.188 95.8699L23.2071 95.8791L23.2238 95.8941L23.2464 95.8983L23.2647 95.91L23.2797 95.9266L23.3023 95.9308L23.319 95.945L23.3365 95.9575L23.354 95.9708L23.3724 95.9808L23.3907 95.9925L23.4099 96.0025L23.4249 96.0192L23.4425 96.0317L23.4608 96.0434L23.4775 96.0567L23.4959 96.0676L23.5092 96.0859L23.5284 96.0967L23.5442 96.1109L23.5609 96.1251L23.5735 96.1426L23.591 96.1559L23.6068 96.1701L23.6244 96.1835L23.6385 96.1993L23.6552 96.2135L23.6702 96.2285L23.6853 96.2443L23.6986 96.261L23.7103 96.2793L23.7278 96.2935L23.737 96.3135L23.7562 96.3252L23.7645 96.3469L23.7787 96.3627L23.7937 96.3786L23.8096 96.3936L23.8188 96.4128L23.8321 96.4303L23.8463 96.447L23.858 96.4645L23.8705 96.482L23.8789 96.502L23.8947 96.5178L23.9039 96.5378L23.9156 96.5562L23.9239 96.5754L23.9381 96.5929L23.9473 96.6121L23.9565 96.6312L23.9648 96.6512L23.9781 96.6688L23.989 96.6871L23.9932 96.7096L24.009 96.7255L24.0132 96.7471L24.0257 96.7655L24.0274 96.788L24.0407 96.8055L24.0457 96.8272L24.0549 96.8464L24.0599 96.868L24.0716 96.8864L24.0733 96.9081L24.0824 96.9281L24.0925 96.9473L24.0958 96.9689L24.1 96.9906L24.1092 97.0106L24.1142 97.0315L24.115 97.0532L24.125 97.0732L24.1308 97.094L24.1342 97.1149L24.1333 97.1374L24.1434 97.1574L24.1409 97.1791L24.1484 97.1999L24.1467 97.2216L24.15 97.2433L24.1567 97.2641L24.1584 97.2858L24.1609 97.3066L24.1667 97.3283L24.1659 97.35L24.1667 97.3717L24.1684 97.3925L24.1659 97.4142L24.1651 97.4359L24.1667 97.4576L24.1709 97.4792Z" fill="#C8F8F5"/>
<path d="M130.936 7.04177V7.08251L130.927 7.12169L130.933 7.16244L130.935 7.20319L130.919 7.24394L130.93 7.28468L130.914 7.32386L130.917 7.36461V7.40536L130.905 7.44454L130.908 7.48529L130.899 7.52603L130.886 7.56521L130.884 7.60596L130.873 7.64514L130.877 7.68589L130.869 7.72664L130.85 7.76268L130.842 7.80343V7.84418L130.823 7.88179L130.817 7.92254L130.803 7.96015L130.801 8.00247L130.779 8.03695L130.776 8.07926L130.759 8.11531L130.745 8.15292L130.734 8.1921L130.717 8.22971L130.698 8.26576L130.695 8.30807L130.666 8.33942L130.651 8.37703L130.64 8.41621L130.626 8.45382L130.601 8.4883L130.585 8.52435L130.568 8.56196L130.547 8.59644L130.539 8.63876L130.517 8.67323L130.489 8.70301L130.478 8.74376L130.453 8.7751L130.433 8.80958L130.412 8.84563L130.392 8.88011L130.368 8.91302L130.34 8.94279L130.329 8.98511L130.295 9.01018L130.281 9.04937L130.257 9.08228L130.226 9.10892L130.205 9.14497L130.177 9.17474L130.155 9.20922L130.127 9.23743L130.094 9.26251L130.074 9.29855L130.05 9.33146L130.016 9.35654L129.995 9.39258L129.965 9.41923L129.931 9.44274L129.911 9.47878L129.871 9.49602L129.846 9.52893L129.815 9.55401L129.783 9.58065L129.76 9.61513L129.722 9.63394L129.696 9.66371L129.664 9.69036L129.63 9.7123L129.597 9.7358L129.564 9.75775L129.534 9.78596L129.506 9.81573L129.465 9.82827L129.435 9.85805L129.401 9.87685L129.366 9.8988L129.337 9.927L129.297 9.94111L129.268 9.97089L129.231 9.98813L129.194 10.0054L129.161 10.0273L129.128 10.0524L129.09 10.0665L129.054 10.0884L129.012 10.0947L128.981 10.1213L128.94 10.1307L128.907 10.1543L128.868 10.1652L128.83 10.1825L128.791 10.1934L128.753 10.2075L128.717 10.2248L128.678 10.2342L128.64 10.2499L128.606 10.2734L128.563 10.2765L128.527 10.2937L128.488 10.3047L128.447 10.3125L128.411 10.3313L128.372 10.3439L128.331 10.3486L128.292 10.358L128.253 10.3705L128.214 10.3799L128.174 10.3862L128.134 10.3956L128.093 10.3925L128.054 10.405L128.014 10.4113L127.972 10.4128L127.933 10.4238L127.892 10.4254L127.853 10.4285L127.812 10.4348L127.771 10.4379L127.731 10.4316L127.691 10.4458L127.651 10.4442L127.61 10.4348L127.569 10.4489L127.528 10.4348L127.488 10.4442L127.448 10.4395L127.408 10.4332L127.367 10.4395L127.326 10.4285L127.287 10.4254L127.246 10.4269L127.205 10.4254L127.166 10.4191L127.125 10.4097L127.083 10.4207L127.045 10.4066L127.004 10.4019L126.965 10.3909L126.924 10.3846L126.885 10.3799L126.843 10.3815L126.807 10.3596L126.765 10.3611L126.725 10.3502L126.688 10.3313H126.647L126.611 10.3094L126.572 10.2984L126.531 10.2906L126.492 10.2812L126.456 10.2624L126.418 10.2499L126.379 10.2357L126.341 10.2248L126.302 10.2122L126.261 10.2044L126.223 10.1887L126.189 10.1684L126.15 10.1574L126.115 10.1354L126.076 10.1229L126.043 10.0978L126.007 10.0806L125.969 10.0634L125.932 10.0477L125.896 10.0304L125.86 10.0116L125.828 9.98342L125.792 9.96619L125.756 9.94738L125.722 9.92544L125.686 9.9082L125.653 9.88312L125.623 9.85491L125.59 9.8314L125.554 9.81417L125.521 9.78909L125.49 9.76401L125.458 9.73894L125.425 9.71386L125.391 9.69192L125.361 9.66528L125.331 9.63864L125.304 9.60729L125.273 9.58065L125.243 9.55401L125.213 9.52737L125.176 9.50699L125.152 9.47408L125.119 9.449L125.097 9.41453L125.071 9.38318L125.038 9.35967L125.005 9.33303L124.98 9.30169L124.963 9.26407L124.934 9.2343L124.905 9.20609L124.873 9.17944L124.859 9.1387L124.832 9.10892L124.809 9.07601L124.776 9.04937L124.762 9.01018L124.729 8.98354L124.712 8.9475L124.687 8.91458L124.668 8.87854L124.644 8.84563L124.629 8.80801L124.597 8.7798L124.583 8.74062L124.555 8.71085L124.541 8.67167L124.525 8.63405L124.509 8.59644L124.486 8.56353L124.47 8.52592L124.443 8.49457L124.429 8.45539L124.42 8.41621L124.398 8.38017L124.385 8.34255L124.365 8.30651L124.359 8.26576L124.346 8.22658L124.326 8.1921L124.305 8.15605L124.301 8.11531L124.28 8.07926L124.279 8.03695L124.266 7.99933L124.251 7.96172L124.241 7.92097L124.229 7.88336L124.225 7.84261L124.216 7.80343L124.197 7.76582L124.194 7.72507L124.188 7.68432L124.185 7.64358L124.175 7.60439L124.174 7.56365L124.16 7.52603L124.156 7.48529L124.152 7.44454L124.149 7.40536L124.136 7.36461L124.139 7.32386L124.127 7.28468L124.131 7.24394L124.122 7.20319L124.134 7.16244V7.12169L124.125 7.08251L124.133 7.04177L124.13 7.00102L124.127 6.96027L124.131 6.91952L124.125 6.87877L124.138 6.83959L124.141 6.79885L124.134 6.7581L124.149 6.71892L124.138 6.6766L124.15 6.63742L124.152 6.59668L124.164 6.5575V6.51675L124.177 6.47757L124.186 6.43839L124.18 6.39607L124.199 6.35846L124.205 6.31928L124.208 6.27853L124.216 6.23778L124.236 6.20174L124.244 6.16099L124.247 6.12024L124.26 6.08263L124.276 6.04502L124.288 6.00584L124.307 5.96979L124.313 5.92904L124.321 5.8883L124.342 5.85382L124.352 5.81464L124.363 5.77546L124.382 5.73941L124.406 5.70493L124.414 5.66418L124.428 5.62657L124.454 5.59366L124.464 5.55291L124.481 5.51687L124.509 5.48552L124.523 5.44791L124.539 5.4103L124.566 5.37895L124.577 5.3382L124.608 5.30999L124.621 5.26925L124.643 5.23634L124.663 5.20186L124.694 5.17365L124.707 5.1329L124.737 5.10469L124.757 5.07021L124.781 5.03573L124.807 5.00439L124.832 4.97304L124.848 4.93543L124.883 4.91036L124.903 4.87431L124.936 4.84923L124.963 4.81789L124.986 4.78655L125.013 4.7552L125.041 4.72699L125.061 4.69095L125.099 4.67057L125.121 4.63453L125.149 4.60475L125.176 4.57497L125.213 4.55616L125.235 4.52169L125.275 4.50288L125.297 4.46683L125.33 4.44333L125.358 4.41355L125.395 4.39474L125.427 4.37123L125.46 4.34616L125.488 4.31795L125.519 4.29131L125.559 4.27563L125.588 4.24899L125.623 4.22705L125.653 4.20041L125.69 4.1816L125.722 4.15496L125.758 4.13615L125.792 4.11578L125.83 4.10011L125.864 4.07973L125.896 4.05309L125.936 4.04212L125.973 4.02331L126.005 3.9998L126.043 3.98413L126.082 3.97159L126.115 3.94965L126.153 3.93241L126.187 3.91047L126.225 3.8948L126.263 3.88226L126.299 3.86189L126.338 3.85092L126.377 3.83838L126.416 3.82741L126.454 3.81331L126.493 3.80234L126.529 3.78196L126.57 3.77726L126.609 3.76942L126.645 3.75062L126.688 3.74748L126.725 3.73495L126.765 3.72397L126.805 3.71771L126.846 3.71614L126.885 3.70674L126.924 3.6989L126.964 3.68636L127.003 3.67696L127.044 3.66756L127.084 3.67382L127.124 3.66129L127.164 3.65815L127.205 3.65345L127.246 3.65658L127.285 3.64561L127.326 3.65188L127.367 3.64718L127.408 3.64405L127.447 3.63464L127.488 3.64091L127.528 3.64718L127.569 3.64248L127.61 3.64561L127.651 3.64248H127.691L127.732 3.64091L127.771 3.64561L127.812 3.64875L127.851 3.65972L127.892 3.66599L127.933 3.65972L127.974 3.66756L128.013 3.67382L128.054 3.67696L128.094 3.68009L128.132 3.6989L128.173 3.70517L128.212 3.713L128.251 3.72084L128.29 3.73181L128.33 3.73965L128.37 3.74435L128.41 3.75845L128.449 3.76629L128.487 3.78039L128.527 3.7851L128.565 3.80077L128.604 3.81017L128.642 3.83055L128.679 3.84308L128.719 3.85249L128.756 3.86816L128.792 3.88853L128.83 3.90107L128.869 3.91204L128.904 3.93398L128.944 3.94495L128.981 3.96062L129.012 3.98883L129.05 4.00607L129.089 4.01704L129.125 4.03428L129.156 4.06249L129.199 4.07033L129.233 4.09227L129.261 4.12361L129.304 4.13145L129.335 4.15809L129.368 4.1816L129.401 4.20668L129.435 4.22548L129.47 4.24742L129.506 4.26623L129.534 4.29757L129.567 4.32108L129.602 4.34302L129.633 4.3681L129.667 4.38847L129.693 4.42295L129.729 4.44333L129.758 4.46997L129.79 4.49661L129.813 4.52952L129.846 4.5546L129.876 4.58124L129.909 4.60632L129.936 4.63609L129.967 4.66274L129.995 4.69095L130.023 4.72072L130.049 4.75207L130.07 4.78655L130.103 4.81319L130.121 4.8508L130.157 4.87274L130.172 4.91349L130.199 4.94327L130.227 4.97304L130.257 5.00125L130.274 5.0373L130.299 5.07021L130.326 5.10156L130.348 5.13447L130.372 5.16738L130.387 5.20499L130.417 5.23477L130.434 5.27238L130.456 5.30686L130.472 5.34291L130.499 5.37582L130.516 5.41186L130.533 5.44791L130.549 5.48552L130.574 5.51843L130.594 5.55291L130.602 5.59523L130.632 5.625L130.64 5.66575L130.663 5.70023L130.666 5.74255L130.692 5.77546L130.701 5.8162L130.718 5.85225L130.728 5.893L130.75 5.92748L130.753 5.96822L130.77 6.00584L130.789 6.04188L130.795 6.08263L130.803 6.12338L130.82 6.16099L130.83 6.20017L130.831 6.24092L130.85 6.27853L130.861 6.31771L130.867 6.35689L130.866 6.39921L130.884 6.43682L130.88 6.47757L130.894 6.51675L130.891 6.5575L130.897 6.59824L130.91 6.63742L130.913 6.67817L130.917 6.71735L130.928 6.7581L130.927 6.79885L130.928 6.83959L130.931 6.87877L130.927 6.91952L130.925 6.96027L130.928 7.00102L130.936 7.04177Z" fill="#C8F8F5"/>
<rect x="0.643372" y="47.7739" width="5.07619" height="4.79139" fill="#C8F8F5"/>
<rect x="2.7616" y="50.213" width="5.04378" height="4.70469" fill="#E1FCEE" stroke="black"/>
<mask id="path-7-inside-1_979_26578" fill="white">
<path d="M132.962 17.2679V17.3004L132.955 17.3317L132.96 17.3641L132.961 17.3966L132.948 17.4291L132.957 17.4616L132.945 17.4929L132.947 17.5253V17.5578L132.937 17.5891L132.94 17.6216L132.932 17.654L132.922 17.6853L132.921 17.7178L132.912 17.749L132.915 17.7815L132.908 17.814L132.893 17.8427L132.887 17.8752V17.9077L132.872 17.9377L132.867 17.9702L132.856 18.0002L132.855 18.0339L132.837 18.0614L132.835 18.0951L132.821 18.1239L132.81 18.1539L132.801 18.1851L132.787 18.2151L132.772 18.2438L132.77 18.2776L132.747 18.3025L132.735 18.3325L132.726 18.3638L132.715 18.3938L132.695 18.4213L132.682 18.45L132.668 18.48L132.652 18.5075L132.646 18.5412L132.628 18.5687L132.606 18.5924L132.597 18.6249L132.577 18.6499L132.561 18.6774L132.545 18.7061L132.528 18.7336L132.509 18.7599L132.487 18.7836L132.478 18.8174L132.451 18.8373L132.439 18.8686L132.421 18.8948L132.396 18.9161L132.379 18.9448L132.357 18.9685L132.339 18.996L132.317 19.0185L132.291 19.0385L132.274 19.0673L132.256 19.0935L132.228 19.1135L132.212 19.1422L132.188 19.1635L132.161 19.1822L132.144 19.211L132.113 19.2247L132.093 19.2509L132.068 19.2709L132.043 19.2922L132.024 19.3197L131.994 19.3347L131.973 19.3584L131.948 19.3796L131.921 19.3971L131.894 19.4159L131.868 19.4334L131.844 19.4559L131.822 19.4796L131.789 19.4896L131.766 19.5133L131.738 19.5283L131.71 19.5458L131.687 19.5683L131.655 19.5796L131.632 19.6033L131.603 19.6171L131.573 19.6308L131.547 19.6483L131.52 19.6683L131.49 19.6795L131.462 19.697L131.428 19.702L131.403 19.7233L131.37 19.7308L131.344 19.7495L131.313 19.7583L131.283 19.772L131.252 19.7807L131.222 19.792L131.193 19.8057L131.162 19.8132L131.132 19.8257L131.104 19.8445L131.07 19.847L131.042 19.8607L131.01 19.8695L130.978 19.8757L130.949 19.8907L130.918 19.9007L130.885 19.9044L130.854 19.9119L130.823 19.9219L130.791 19.9294L130.76 19.9344L130.728 19.9419L130.695 19.9394L130.664 19.9494L130.633 19.9544L130.599 19.9557L130.568 19.9644L130.535 19.9657L130.504 19.9682L130.471 19.9732L130.439 19.9757L130.406 19.9707L130.375 19.9819L130.343 19.9807L130.31 19.9732L130.278 19.9844L130.245 19.9732L130.213 19.9807L130.181 19.9769L130.149 19.9719L130.116 19.9769L130.084 19.9682L130.052 19.9657L130.02 19.9669L129.987 19.9657L129.956 19.9607L129.924 19.9532L129.89 19.9619L129.86 19.9507L129.827 19.9469L129.796 19.9382L129.764 19.9332L129.732 19.9294L129.699 19.9307L129.67 19.9132L129.636 19.9144L129.605 19.9057L129.575 19.8907H129.542L129.514 19.8732L129.482 19.8645L129.45 19.8582L129.419 19.8507L129.39 19.8357L129.36 19.8257L129.328 19.8145L129.298 19.8057L129.267 19.7957L129.235 19.7895L129.205 19.777L129.177 19.7608L129.146 19.752L129.118 19.7345L129.087 19.7245L129.061 19.7045L129.032 19.6908L129.002 19.677L128.972 19.6645L128.943 19.6508L128.915 19.6358L128.89 19.6133L128.861 19.5996L128.832 19.5846L128.805 19.5671L128.776 19.5533L128.75 19.5333L128.726 19.5108L128.7 19.4921L128.671 19.4784L128.645 19.4584L128.62 19.4384L128.595 19.4184L128.568 19.3984L128.541 19.3809L128.517 19.3597L128.493 19.3384L128.472 19.3134L128.447 19.2922L128.423 19.2709L128.399 19.2497L128.369 19.2334L128.351 19.2072L128.324 19.1872L128.307 19.1597L128.286 19.1347L128.259 19.116L128.233 19.0948L128.213 19.0698L128.199 19.0398L128.177 19.016L128.153 18.9935L128.128 18.9723L128.117 18.9398L128.096 18.9161L128.077 18.8898L128.051 18.8686L128.039 18.8373L128.013 18.8161L127.999 18.7874L127.979 18.7611L127.964 18.7324L127.946 18.7061L127.933 18.6762L127.908 18.6537L127.897 18.6224L127.874 18.5987L127.863 18.5674L127.851 18.5375L127.838 18.5075L127.819 18.4812L127.807 18.4512L127.786 18.4263L127.774 18.395L127.767 18.3638L127.749 18.335L127.739 18.305L127.723 18.2763L127.718 18.2438L127.708 18.2126L127.692 18.1851L127.675 18.1564L127.672 18.1239L127.655 18.0951L127.654 18.0614L127.644 18.0314L127.632 18.0014L127.624 17.9689L127.614 17.9389L127.612 17.9064L127.604 17.8752L127.589 17.8452L127.587 17.8127L127.582 17.7802L127.579 17.7478L127.572 17.7165L127.57 17.684L127.559 17.654L127.557 17.6216L127.553 17.5891L127.55 17.5578L127.54 17.5253L127.543 17.4929L127.533 17.4616L127.537 17.4291L127.529 17.3966L127.539 17.3641V17.3317L127.532 17.3004L127.538 17.2679L127.535 17.2354L127.533 17.203L127.537 17.1705L127.532 17.138L127.542 17.1067L127.544 17.0743L127.539 17.0418L127.55 17.0105L127.542 16.9768L127.552 16.9456L127.553 16.9131L127.563 16.8818V16.8493L127.573 16.8181L127.58 16.7869L127.575 16.7531L127.59 16.7231L127.595 16.6919L127.598 16.6594L127.604 16.6269L127.62 16.5982L127.627 16.5657L127.629 16.5332L127.639 16.5032L127.652 16.4732L127.662 16.442L127.677 16.4133L127.682 16.3808L127.688 16.3483L127.704 16.3208L127.713 16.2896L127.722 16.2583L127.737 16.2296L127.755 16.2021L127.762 16.1696L127.773 16.1396L127.794 16.1134L127.802 16.0809L127.816 16.0521L127.838 16.0271L127.849 15.9972L127.862 15.9672L127.883 15.9422L127.892 15.9097L127.917 15.8872L127.927 15.8547L127.944 15.8285L127.961 15.801L127.986 15.7785L127.996 15.746L128.019 15.7235L128.036 15.696L128.054 15.6685L128.076 15.6435L128.096 15.6186L128.108 15.5886L128.136 15.5686L128.152 15.5398L128.178 15.5198L128.199 15.4948L128.218 15.4699L128.239 15.4449L128.262 15.4224L128.278 15.3936L128.308 15.3774L128.326 15.3487L128.348 15.3249L128.369 15.3012L128.399 15.2862L128.417 15.2587L128.448 15.2437L128.466 15.215L128.492 15.1962L128.514 15.1725L128.544 15.1575L128.57 15.1387L128.596 15.1187L128.618 15.0962L128.643 15.075L128.675 15.0625L128.698 15.0413L128.726 15.0238L128.75 15.0025L128.78 14.9875L128.805 14.9663L128.833 14.9513L128.861 14.9351L128.891 14.9226L128.918 14.9063L128.943 14.8851L128.976 14.8763L129.005 14.8613L129.031 14.8426L129.061 14.8301L129.092 14.8201L129.118 14.8026L129.148 14.7889L129.176 14.7714L129.206 14.7589L129.236 14.7489L129.265 14.7326L129.296 14.7239L129.327 14.7139L129.359 14.7051L129.389 14.6939L129.42 14.6852L129.449 14.6689L129.481 14.6652L129.512 14.6589L129.541 14.6439L129.575 14.6414L129.605 14.6314L129.636 14.6227L129.669 14.6177L129.701 14.6164L129.732 14.6089L129.764 14.6027L129.795 14.5927L129.826 14.5852L129.859 14.5777L129.891 14.5827L129.922 14.5727L129.955 14.5702L129.987 14.5664L130.02 14.5689L130.051 14.5602L130.084 14.5652L130.116 14.5614L130.149 14.5589L130.18 14.5515L130.213 14.5565L130.245 14.5614L130.278 14.5577L130.31 14.5602L130.343 14.5577H130.375L130.408 14.5565L130.439 14.5602L130.471 14.5627L130.503 14.5714L130.535 14.5764L130.568 14.5714L130.6 14.5777L130.631 14.5827L130.664 14.5852L130.696 14.5877L130.726 14.6027L130.759 14.6077L130.79 14.6139L130.821 14.6202L130.853 14.6289L130.884 14.6352L130.916 14.6389L130.948 14.6502L130.979 14.6564L131.009 14.6677L131.042 14.6714L131.072 14.6839L131.103 14.6914L131.133 14.7076L131.163 14.7176L131.194 14.7251L131.224 14.7376L131.253 14.7539L131.283 14.7639L131.314 14.7726L131.342 14.7901L131.374 14.7989L131.403 14.8114L131.428 14.8338L131.458 14.8476L131.489 14.8563L131.518 14.8701L131.543 14.8926L131.577 14.8988L131.604 14.9163L131.627 14.9413L131.66 14.9476L131.685 14.9688L131.712 14.9875L131.738 15.0075L131.766 15.0225L131.793 15.04L131.822 15.055L131.844 15.08L131.871 15.0987L131.898 15.1162L131.923 15.1362L131.951 15.1525L131.971 15.18L131.999 15.1962L132.023 15.2175L132.048 15.2387L132.067 15.2649L132.093 15.2849L132.117 15.3062L132.143 15.3262L132.164 15.3499L132.189 15.3711L132.212 15.3936L132.234 15.4174L132.254 15.4424L132.272 15.4699L132.298 15.4911L132.312 15.5211L132.341 15.5386L132.353 15.5711L132.374 15.5948L132.397 15.6186L132.421 15.641L132.434 15.6698L132.454 15.696L132.476 15.721L132.493 15.7473L132.512 15.7735L132.525 15.8035L132.548 15.8272L132.562 15.8572L132.58 15.8847L132.592 15.9134L132.613 15.9397L132.627 15.9684L132.641 15.9972L132.653 16.0271L132.673 16.0534L132.69 16.0809L132.696 16.1146L132.72 16.1384L132.726 16.1708L132.745 16.1983L132.747 16.2321L132.767 16.2583L132.775 16.2908L132.788 16.3195L132.796 16.352L132.813 16.3795L132.816 16.412L132.83 16.442L132.845 16.4707L132.85 16.5032L132.856 16.5357L132.87 16.5657L132.877 16.5969L132.878 16.6294L132.893 16.6594L132.902 16.6907L132.907 16.7219L132.906 16.7556L132.921 16.7856L132.917 16.8181L132.928 16.8493L132.926 16.8818L132.931 16.9143L132.941 16.9456L132.943 16.978L132.947 17.0093L132.956 17.0418L132.955 17.0743L132.956 17.1067L132.958 17.138L132.955 17.1705L132.953 17.203L132.956 17.2354L132.962 17.2679Z"/>
</mask>
<path d="M132.962 17.2679V17.3004L132.955 17.3317L132.96 17.3641L132.961 17.3966L132.948 17.4291L132.957 17.4616L132.945 17.4929L132.947 17.5253V17.5578L132.937 17.5891L132.94 17.6216L132.932 17.654L132.922 17.6853L132.921 17.7178L132.912 17.749L132.915 17.7815L132.908 17.814L132.893 17.8427L132.887 17.8752V17.9077L132.872 17.9377L132.867 17.9702L132.856 18.0002L132.855 18.0339L132.837 18.0614L132.835 18.0951L132.821 18.1239L132.81 18.1539L132.801 18.1851L132.787 18.2151L132.772 18.2438L132.77 18.2776L132.747 18.3025L132.735 18.3325L132.726 18.3638L132.715 18.3938L132.695 18.4213L132.682 18.45L132.668 18.48L132.652 18.5075L132.646 18.5412L132.628 18.5687L132.606 18.5924L132.597 18.6249L132.577 18.6499L132.561 18.6774L132.545 18.7061L132.528 18.7336L132.509 18.7599L132.487 18.7836L132.478 18.8174L132.451 18.8373L132.439 18.8686L132.421 18.8948L132.396 18.9161L132.379 18.9448L132.357 18.9685L132.339 18.996L132.317 19.0185L132.291 19.0385L132.274 19.0673L132.256 19.0935L132.228 19.1135L132.212 19.1422L132.188 19.1635L132.161 19.1822L132.144 19.211L132.113 19.2247L132.093 19.2509L132.068 19.2709L132.043 19.2922L132.024 19.3197L131.994 19.3347L131.973 19.3584L131.948 19.3796L131.921 19.3971L131.894 19.4159L131.868 19.4334L131.844 19.4559L131.822 19.4796L131.789 19.4896L131.766 19.5133L131.738 19.5283L131.71 19.5458L131.687 19.5683L131.655 19.5796L131.632 19.6033L131.603 19.6171L131.573 19.6308L131.547 19.6483L131.52 19.6683L131.49 19.6795L131.462 19.697L131.428 19.702L131.403 19.7233L131.37 19.7308L131.344 19.7495L131.313 19.7583L131.283 19.772L131.252 19.7807L131.222 19.792L131.193 19.8057L131.162 19.8132L131.132 19.8257L131.104 19.8445L131.07 19.847L131.042 19.8607L131.01 19.8695L130.978 19.8757L130.949 19.8907L130.918 19.9007L130.885 19.9044L130.854 19.9119L130.823 19.9219L130.791 19.9294L130.76 19.9344L130.728 19.9419L130.695 19.9394L130.664 19.9494L130.633 19.9544L130.599 19.9557L130.568 19.9644L130.535 19.9657L130.504 19.9682L130.471 19.9732L130.439 19.9757L130.406 19.9707L130.375 19.9819L130.343 19.9807L130.31 19.9732L130.278 19.9844L130.245 19.9732L130.213 19.9807L130.181 19.9769L130.149 19.9719L130.116 19.9769L130.084 19.9682L130.052 19.9657L130.02 19.9669L129.987 19.9657L129.956 19.9607L129.924 19.9532L129.89 19.9619L129.86 19.9507L129.827 19.9469L129.796 19.9382L129.764 19.9332L129.732 19.9294L129.699 19.9307L129.67 19.9132L129.636 19.9144L129.605 19.9057L129.575 19.8907H129.542L129.514 19.8732L129.482 19.8645L129.45 19.8582L129.419 19.8507L129.39 19.8357L129.36 19.8257L129.328 19.8145L129.298 19.8057L129.267 19.7957L129.235 19.7895L129.205 19.777L129.177 19.7608L129.146 19.752L129.118 19.7345L129.087 19.7245L129.061 19.7045L129.032 19.6908L129.002 19.677L128.972 19.6645L128.943 19.6508L128.915 19.6358L128.89 19.6133L128.861 19.5996L128.832 19.5846L128.805 19.5671L128.776 19.5533L128.75 19.5333L128.726 19.5108L128.7 19.4921L128.671 19.4784L128.645 19.4584L128.62 19.4384L128.595 19.4184L128.568 19.3984L128.541 19.3809L128.517 19.3597L128.493 19.3384L128.472 19.3134L128.447 19.2922L128.423 19.2709L128.399 19.2497L128.369 19.2334L128.351 19.2072L128.324 19.1872L128.307 19.1597L128.286 19.1347L128.259 19.116L128.233 19.0948L128.213 19.0698L128.199 19.0398L128.177 19.016L128.153 18.9935L128.128 18.9723L128.117 18.9398L128.096 18.9161L128.077 18.8898L128.051 18.8686L128.039 18.8373L128.013 18.8161L127.999 18.7874L127.979 18.7611L127.964 18.7324L127.946 18.7061L127.933 18.6762L127.908 18.6537L127.897 18.6224L127.874 18.5987L127.863 18.5674L127.851 18.5375L127.838 18.5075L127.819 18.4812L127.807 18.4512L127.786 18.4263L127.774 18.395L127.767 18.3638L127.749 18.335L127.739 18.305L127.723 18.2763L127.718 18.2438L127.708 18.2126L127.692 18.1851L127.675 18.1564L127.672 18.1239L127.655 18.0951L127.654 18.0614L127.644 18.0314L127.632 18.0014L127.624 17.9689L127.614 17.9389L127.612 17.9064L127.604 17.8752L127.589 17.8452L127.587 17.8127L127.582 17.7802L127.579 17.7478L127.572 17.7165L127.57 17.684L127.559 17.654L127.557 17.6216L127.553 17.5891L127.55 17.5578L127.54 17.5253L127.543 17.4929L127.533 17.4616L127.537 17.4291L127.529 17.3966L127.539 17.3641V17.3317L127.532 17.3004L127.538 17.2679L127.535 17.2354L127.533 17.203L127.537 17.1705L127.532 17.138L127.542 17.1067L127.544 17.0743L127.539 17.0418L127.55 17.0105L127.542 16.9768L127.552 16.9456L127.553 16.9131L127.563 16.8818V16.8493L127.573 16.8181L127.58 16.7869L127.575 16.7531L127.59 16.7231L127.595 16.6919L127.598 16.6594L127.604 16.6269L127.62 16.5982L127.627 16.5657L127.629 16.5332L127.639 16.5032L127.652 16.4732L127.662 16.442L127.677 16.4133L127.682 16.3808L127.688 16.3483L127.704 16.3208L127.713 16.2896L127.722 16.2583L127.737 16.2296L127.755 16.2021L127.762 16.1696L127.773 16.1396L127.794 16.1134L127.802 16.0809L127.816 16.0521L127.838 16.0271L127.849 15.9972L127.862 15.9672L127.883 15.9422L127.892 15.9097L127.917 15.8872L127.927 15.8547L127.944 15.8285L127.961 15.801L127.986 15.7785L127.996 15.746L128.019 15.7235L128.036 15.696L128.054 15.6685L128.076 15.6435L128.096 15.6186L128.108 15.5886L128.136 15.5686L128.152 15.5398L128.178 15.5198L128.199 15.4948L128.218 15.4699L128.239 15.4449L128.262 15.4224L128.278 15.3936L128.308 15.3774L128.326 15.3487L128.348 15.3249L128.369 15.3012L128.399 15.2862L128.417 15.2587L128.448 15.2437L128.466 15.215L128.492 15.1962L128.514 15.1725L128.544 15.1575L128.57 15.1387L128.596 15.1187L128.618 15.0962L128.643 15.075L128.675 15.0625L128.698 15.0413L128.726 15.0238L128.75 15.0025L128.78 14.9875L128.805 14.9663L128.833 14.9513L128.861 14.9351L128.891 14.9226L128.918 14.9063L128.943 14.8851L128.976 14.8763L129.005 14.8613L129.031 14.8426L129.061 14.8301L129.092 14.8201L129.118 14.8026L129.148 14.7889L129.176 14.7714L129.206 14.7589L129.236 14.7489L129.265 14.7326L129.296 14.7239L129.327 14.7139L129.359 14.7051L129.389 14.6939L129.42 14.6852L129.449 14.6689L129.481 14.6652L129.512 14.6589L129.541 14.6439L129.575 14.6414L129.605 14.6314L129.636 14.6227L129.669 14.6177L129.701 14.6164L129.732 14.6089L129.764 14.6027L129.795 14.5927L129.826 14.5852L129.859 14.5777L129.891 14.5827L129.922 14.5727L129.955 14.5702L129.987 14.5664L130.02 14.5689L130.051 14.5602L130.084 14.5652L130.116 14.5614L130.149 14.5589L130.18 14.5515L130.213 14.5565L130.245 14.5614L130.278 14.5577L130.31 14.5602L130.343 14.5577H130.375L130.408 14.5565L130.439 14.5602L130.471 14.5627L130.503 14.5714L130.535 14.5764L130.568 14.5714L130.6 14.5777L130.631 14.5827L130.664 14.5852L130.696 14.5877L130.726 14.6027L130.759 14.6077L130.79 14.6139L130.821 14.6202L130.853 14.6289L130.884 14.6352L130.916 14.6389L130.948 14.6502L130.979 14.6564L131.009 14.6677L131.042 14.6714L131.072 14.6839L131.103 14.6914L131.133 14.7076L131.163 14.7176L131.194 14.7251L131.224 14.7376L131.253 14.7539L131.283 14.7639L131.314 14.7726L131.342 14.7901L131.374 14.7989L131.403 14.8114L131.428 14.8338L131.458 14.8476L131.489 14.8563L131.518 14.8701L131.543 14.8926L131.577 14.8988L131.604 14.9163L131.627 14.9413L131.66 14.9476L131.685 14.9688L131.712 14.9875L131.738 15.0075L131.766 15.0225L131.793 15.04L131.822 15.055L131.844 15.08L131.871 15.0987L131.898 15.1162L131.923 15.1362L131.951 15.1525L131.971 15.18L131.999 15.1962L132.023 15.2175L132.048 15.2387L132.067 15.2649L132.093 15.2849L132.117 15.3062L132.143 15.3262L132.164 15.3499L132.189 15.3711L132.212 15.3936L132.234 15.4174L132.254 15.4424L132.272 15.4699L132.298 15.4911L132.312 15.5211L132.341 15.5386L132.353 15.5711L132.374 15.5948L132.397 15.6186L132.421 15.641L132.434 15.6698L132.454 15.696L132.476 15.721L132.493 15.7473L132.512 15.7735L132.525 15.8035L132.548 15.8272L132.562 15.8572L132.58 15.8847L132.592 15.9134L132.613 15.9397L132.627 15.9684L132.641 15.9972L132.653 16.0271L132.673 16.0534L132.69 16.0809L132.696 16.1146L132.72 16.1384L132.726 16.1708L132.745 16.1983L132.747 16.2321L132.767 16.2583L132.775 16.2908L132.788 16.3195L132.796 16.352L132.813 16.3795L132.816 16.412L132.83 16.442L132.845 16.4707L132.85 16.5032L132.856 16.5357L132.87 16.5657L132.877 16.5969L132.878 16.6294L132.893 16.6594L132.902 16.6907L132.907 16.7219L132.906 16.7556L132.921 16.7856L132.917 16.8181L132.928 16.8493L132.926 16.8818L132.931 16.9143L132.941 16.9456L132.943 16.978L132.947 17.0093L132.956 17.0418L132.955 17.0743L132.956 17.1067L132.958 17.138L132.955 17.1705L132.953 17.203L132.956 17.2354L132.962 17.2679Z" stroke="black" stroke-width="2" mask="url(#path-7-inside-1_979_26578)"/>
<path d="M134.151 22.9077C139.977 27.9269 148.077 44.2743 150.481 52.5996L140.761 55.156" stroke="black" stroke-linecap="round" stroke-linejoin="round"/>
<path d="M25.4596 35.31C27.0546 32.1226 32.6871 23.9382 42.4564 16.7005" stroke="black" stroke-linecap="round" stroke-linejoin="round"/>
<path d="M16.9181 76.0579L17.6634 82.6614L52.6251 74.8522" stroke="black" stroke-linecap="round" stroke-linejoin="round"/>
<path d="M31.1962 91.0183V91.0534L31.1881 91.0872L31.1935 91.1223L31.1949 91.1575L31.1813 91.1926L31.1908 91.2277L31.1773 91.2615L31.18 91.2966V91.3317L31.1692 91.3655L31.1719 91.4006L31.1638 91.4357L31.1529 91.4695L31.1516 91.5046L31.1421 91.5384L31.1448 91.5735L31.1381 91.6086L31.1219 91.6397L31.1151 91.6748V91.7099L31.0989 91.7423L31.0935 91.7774L31.0813 91.8099L31.08 91.8463L31.061 91.876L31.0583 91.9125L31.0435 91.9436L31.0313 91.976L31.0218 92.0098L31.007 92.0422L30.9908 92.0732L30.988 92.1097L30.9637 92.1367L30.9502 92.1691L30.9407 92.2029L30.9286 92.2353L30.9069 92.265L30.8934 92.2961L30.8786 92.3285L30.861 92.3582L30.8542 92.3947L30.8353 92.4244L30.811 92.4501L30.8015 92.4852L30.7799 92.5122L30.7623 92.5419L30.7447 92.573L30.7272 92.6027L30.7069 92.6311L30.6826 92.6568L30.6731 92.6932L30.6434 92.7148L30.6312 92.7486L30.6109 92.777L30.5839 92.7999L30.5663 92.831L30.542 92.8567L30.5231 92.8864L30.4987 92.9107L30.4704 92.9323L30.4528 92.9634L30.4325 92.9917L30.4028 93.0134L30.3852 93.0444L30.3595 93.0674L30.3298 93.0876L30.3122 93.1187L30.2784 93.1336L30.2568 93.1619L30.2298 93.1835L30.2027 93.2065L30.1825 93.2362L30.15 93.2524L30.127 93.2781L30.1 93.3011L30.0703 93.32L30.0419 93.3402L30.0135 93.3591L29.9878 93.3835L29.9635 93.4091L29.9283 93.4199L29.9027 93.4456L29.8729 93.4618L29.8432 93.4807L29.8175 93.505L29.7837 93.5172L29.758 93.5428L29.7269 93.5577L29.6945 93.5726L29.6661 93.5915L29.6377 93.6131L29.6053 93.6252L29.5742 93.6441L29.5377 93.6495L29.5107 93.6725L29.4755 93.6806L29.4472 93.7009L29.4134 93.7103L29.3809 93.7252L29.3471 93.7346L29.3147 93.7468L29.2836 93.7617L29.2498 93.7698L29.2174 93.7833L29.1876 93.8035L29.1511 93.8062L29.1201 93.8211L29.0863 93.8305L29.0511 93.8373L29.02 93.8535L28.9862 93.8643L28.9511 93.8684L28.9173 93.8765L28.8835 93.8873L28.8497 93.8954L28.8159 93.9008L28.7808 93.9089L28.7456 93.9062L28.7119 93.917L28.6781 93.9224L28.6416 93.9237L28.6078 93.9332L28.5726 93.9345L28.5388 93.9372L28.5037 93.9427L28.4686 93.9454L28.4334 93.94L28.3996 93.9521L28.3645 93.9508L28.3293 93.9427L28.2942 93.9548L28.259 93.9427L28.2239 93.9508L28.1901 93.9467L28.155 93.9413L28.1198 93.9467L28.0847 93.9372L28.0509 93.9345L28.0157 93.9359L27.9806 93.9345L27.9468 93.9291L27.9117 93.921L27.8752 93.9305L27.8427 93.9183L27.8076 93.9143L27.7738 93.9048L27.7387 93.8994L27.7049 93.8954L27.6684 93.8967L27.6373 93.8778L27.6008 93.8792L27.567 93.8697L27.5346 93.8535H27.4994L27.4683 93.8346L27.4345 93.8251L27.3994 93.8184L27.3656 93.8103L27.3345 93.7941L27.3021 93.7833L27.2683 93.7711L27.2358 93.7617L27.202 93.7508L27.1669 93.7441L27.1345 93.7306L27.1047 93.713L27.0709 93.7036L27.0412 93.6847L27.0074 93.6739L26.979 93.6522L26.9479 93.6374L26.9155 93.6225L26.8831 93.609L26.852 93.5942L26.8209 93.578L26.7938 93.5536L26.7628 93.5388L26.7317 93.5226L26.7019 93.5037L26.6708 93.4888L26.6425 93.4672L26.6168 93.4429L26.5884 93.4226L26.5573 93.4078L26.5289 93.3862L26.5019 93.3645L26.4749 93.3429L26.4465 93.3213L26.4167 93.3024L26.3911 93.2794L26.3654 93.2565L26.3424 93.2295L26.3154 93.2065L26.2897 93.1835L26.264 93.1606L26.2316 93.143L26.2113 93.1147L26.1829 93.093L26.164 93.0633L26.141 93.0363L26.1126 93.0161L26.0842 92.9931L26.0626 92.9661L26.0477 92.9337L26.0234 92.908L25.9977 92.8837L25.9707 92.8607L25.9585 92.8256L25.9355 92.7999L25.9153 92.7716L25.8869 92.7486L25.8747 92.7148L25.8463 92.6919L25.8315 92.6608L25.8098 92.6324L25.7936 92.6014L25.7733 92.573L25.7598 92.5406L25.7328 92.5163L25.7206 92.4825L25.6963 92.4569L25.6841 92.4231L25.6706 92.3907L25.6571 92.3582L25.6368 92.3299L25.6233 92.2975L25.6003 92.2705L25.5882 92.2367L25.5801 92.2029L25.5611 92.1718L25.5503 92.1394L25.5327 92.1084L25.5273 92.0732L25.5165 92.0395L25.499 92.0098L25.4814 91.9787L25.4773 91.9436L25.4598 91.9125L25.4584 91.876L25.4476 91.8436L25.4341 91.8112L25.426 91.7761L25.4152 91.7437L25.4125 91.7085L25.4043 91.6748L25.3881 91.6424L25.3854 91.6072L25.38 91.5721L25.3773 91.537L25.3692 91.5032L25.3678 91.4681L25.3557 91.4357L25.353 91.4006L25.3489 91.3655L25.3462 91.3317L25.3354 91.2966L25.3381 91.2615L25.3273 91.2277L25.3314 91.1926L25.3232 91.1575L25.3341 91.1223V91.0872L25.3259 91.0534L25.3327 91.0183L25.33 90.9832L25.3273 90.9481L25.3314 90.913L25.3259 90.8779L25.3368 90.8441L25.3395 90.809L25.3341 90.7738L25.3462 90.7401L25.3368 90.7036L25.3476 90.6698L25.3489 90.6347L25.3597 90.601V90.5658L25.3706 90.5321L25.3787 90.4983L25.3733 90.4618L25.3895 90.4294L25.3949 90.3956L25.3976 90.3605L25.4043 90.3254L25.4219 90.2943L25.4287 90.2592L25.4314 90.2241L25.4422 90.1917L25.4557 90.1593L25.4665 90.1255L25.4827 90.0944L25.4881 90.0593L25.4949 90.0242L25.5125 89.9945L25.5219 89.9607L25.5314 89.9269L25.5476 89.8959L25.5679 89.8662L25.5747 89.831L25.5868 89.7986L25.6098 89.7703L25.6179 89.7351L25.6328 89.7041L25.6571 89.6771L25.6693 89.6446L25.6828 89.6122L25.7058 89.5852L25.7152 89.5501L25.7423 89.5258L25.7531 89.4907L25.772 89.4623L25.7896 89.4326L25.8166 89.4083L25.8274 89.3731L25.8531 89.3488L25.8707 89.3191L25.8909 89.2894L25.9139 89.2624L25.9355 89.2354L25.9491 89.203L25.9788 89.1813L25.9964 89.1503L26.0248 89.1287L26.0477 89.1016L26.068 89.0746L26.091 89.0476L26.1153 89.0233L26.1329 88.9922L26.1653 88.9747L26.1842 88.9436L26.2086 88.9179L26.2316 88.8923L26.264 88.8761L26.2829 88.8464L26.3167 88.8302L26.3356 88.7991L26.364 88.7788L26.3883 88.7532L26.4208 88.737L26.4478 88.7167L26.4762 88.6951L26.5005 88.6708L26.5276 88.6478L26.5614 88.6343L26.587 88.6113L26.6168 88.5924L26.6425 88.5695L26.6749 88.5533L26.7019 88.5303L26.733 88.5141L26.7628 88.4965L26.7952 88.483L26.8249 88.4655L26.852 88.4425L26.8871 88.433L26.9182 88.4168L26.9466 88.3966L26.979 88.3831L27.0128 88.3723L27.0412 88.3533L27.0736 88.3385L27.1034 88.3196L27.1358 88.3061L27.1683 88.2953L27.1993 88.2777L27.2331 88.2682L27.2669 88.2574L27.3007 88.248L27.3332 88.2358L27.367 88.2264L27.398 88.2088L27.4332 88.2048L27.467 88.198L27.4981 88.1818L27.5346 88.1791L27.567 88.1683L27.6008 88.1588L27.6359 88.1534L27.6711 88.1521L27.7049 88.144L27.7387 88.1372L27.7724 88.1264L27.8062 88.1183L27.8414 88.1102L27.8765 88.1156L27.9103 88.1048L27.9455 88.1021L27.9806 88.0981L28.0157 88.1008L28.0495 88.0913L28.0847 88.0967L28.1198 88.0927L28.155 88.09L28.1888 88.0818L28.2239 88.0873L28.259 88.0927L28.2942 88.0886L28.3293 88.0913L28.3645 88.0886H28.3996L28.4348 88.0873L28.4686 88.0913L28.5037 88.094L28.5375 88.1035L28.5726 88.1089L28.6078 88.1035L28.6429 88.1102L28.6767 88.1156L28.7119 88.1183L28.747 88.121L28.7794 88.1372L28.8146 88.1426L28.8484 88.1494L28.8822 88.1561L28.916 88.1656L28.9497 88.1723L28.9849 88.1764L29.0187 88.1886L29.0525 88.1953L29.0849 88.2075L29.1201 88.2115L29.1525 88.225L29.1863 88.2331L29.2187 88.2507L29.2512 88.2615L29.285 88.2696L29.3174 88.2831L29.3485 88.3007L29.3809 88.3115L29.4147 88.3209L29.4445 88.3398L29.4796 88.3493L29.5107 88.3628L29.5377 88.3871L29.5702 88.402L29.6039 88.4114L29.635 88.4263L29.6621 88.4506L29.6986 88.4574L29.7283 88.4763L29.7526 88.5033L29.7891 88.51L29.8162 88.533L29.8445 88.5533L29.8729 88.5749L29.9027 88.5911L29.9324 88.61L29.9635 88.6262L29.9878 88.6532L30.0162 88.6735L30.0459 88.6924L30.073 88.714L30.1027 88.7315L30.1243 88.7613L30.1554 88.7788L30.1811 88.8018L30.2081 88.8247L30.2284 88.8531L30.2568 88.8747L30.2825 88.8977L30.3109 88.9193L30.3338 88.945L30.3609 88.9679L30.3852 88.9922L30.4095 89.0179L30.4312 89.0449L30.4501 89.0746L30.4785 89.0976L30.4933 89.13L30.5244 89.1489L30.5379 89.184L30.5609 89.2097L30.5853 89.2354L30.6109 89.2597L30.6258 89.2907L30.6474 89.3191L30.6704 89.3461L30.6893 89.3745L30.7096 89.4029L30.7231 89.4353L30.7488 89.4609L30.7637 89.4934L30.7826 89.5231L30.7961 89.5541L30.8191 89.5825L30.834 89.6136L30.8488 89.6446L30.8623 89.6771L30.884 89.7054L30.9015 89.7351L30.9083 89.7716L30.934 89.7973L30.9407 89.8324L30.961 89.8621L30.9637 89.8986L30.9853 89.9269L30.9935 89.9621L31.0083 89.9931L31.0164 90.0282L31.0354 90.058L31.0381 90.0931L31.0529 90.1255L31.0691 90.1566L31.0746 90.1917L31.0813 90.2268L31.0962 90.2592L31.1043 90.293L31.1056 90.3281L31.1219 90.3605L31.1313 90.3943L31.1367 90.4281L31.1354 90.4645L31.1516 90.4969L31.1475 90.5321L31.1597 90.5658L31.157 90.601L31.1624 90.6361L31.1732 90.6698L31.1759 90.705L31.18 90.7387L31.1894 90.7738L31.1881 90.809L31.1894 90.8441L31.1921 90.8779L31.1881 90.913L31.1867 90.9481L31.1894 90.9832L31.1962 91.0183Z" fill="#C8F8F5"/>
<mask id="path-12-inside-2_979_26578" fill="white">
<path d="M30.0586 87.1825V87.2285L30.0479 87.2728L30.055 87.3188L30.0568 87.3649L30.0391 87.4109L30.0515 87.457L30.0338 87.5012L30.0373 87.5473V87.5933L30.0231 87.6376L30.0267 87.6837L30.016 87.7297L30.0019 87.774L30.0001 87.82L29.9877 87.8643L29.9912 87.9103L29.9824 87.9564L29.9611 87.9971L29.9522 88.0432V88.0892L29.931 88.1317L29.9239 88.1778L29.9079 88.2203L29.9062 88.2681L29.8814 88.307L29.8778 88.3549L29.8583 88.3956L29.8424 88.4381L29.83 88.4824L29.8105 88.5249L29.7892 88.5656L29.7857 88.6134L29.7538 88.6489L29.736 88.6914L29.7236 88.7356L29.7077 88.7781L29.6793 88.8171L29.6616 88.8578L29.6421 88.9003L29.6191 88.9393L29.6102 88.9871L29.5854 89.0261L29.5535 89.0597L29.5411 89.1058L29.5127 89.1412L29.4897 89.1802L29.4666 89.2209L29.4436 89.2599L29.417 89.297L29.3851 89.3307L29.3727 89.3785L29.3337 89.4068L29.3178 89.4511L29.2912 89.4883L29.2558 89.5184L29.2327 89.5592L29.2008 89.5928L29.176 89.6318L29.1441 89.6636L29.1069 89.692L29.0838 89.7327L29.0573 89.7699L29.0183 89.7982L28.9952 89.839L28.9616 89.8691L28.9226 89.8956L28.8995 89.9364L28.8552 89.9559L28.8269 89.9931L28.7914 90.0214L28.756 90.0515L28.7294 90.0905L28.6869 90.1117L28.6567 90.1454L28.6213 90.1755L28.5823 90.2003L28.5451 90.2268L28.5079 90.2516L28.4742 90.2835L28.4423 90.3171L28.3962 90.3313L28.3625 90.365L28.3236 90.3862L28.2846 90.411L28.2509 90.4429L28.2066 90.4588L28.1729 90.4925L28.1322 90.512L28.0896 90.5314L28.0524 90.5562L28.0152 90.5846L27.9727 90.6005L27.9319 90.6253L27.884 90.6324L27.8486 90.6625L27.8025 90.6731L27.7653 90.6997L27.721 90.7121L27.6785 90.7316L27.6342 90.744L27.5916 90.7599L27.5509 90.7794L27.5066 90.79L27.464 90.8077L27.425 90.8343L27.3772 90.8378L27.3364 90.8573L27.2921 90.8697L27.246 90.8786L27.2053 90.8998L27.161 90.914L27.1149 90.9193L27.0706 90.9299L27.0263 90.9441L26.982 90.9547L26.9377 90.9618L26.8916 90.9724L26.8455 90.9689L26.8012 90.983L26.7569 90.9901L26.7091 90.9919L26.6647 91.0043L26.6187 91.0061L26.5744 91.0096L26.5283 91.0167L26.4822 91.0202L26.4361 91.0132L26.3918 91.0291L26.3457 91.0273L26.2997 91.0167L26.2536 91.0326L26.2075 91.0167L26.1614 91.0273L26.1171 91.022L26.071 91.0149L26.025 91.022L25.9789 91.0096L25.9346 91.0061L25.8885 91.0078L25.8424 91.0061L25.7981 90.999L25.752 90.9884L25.7042 91.0008L25.6617 90.9848L25.6156 90.9795L25.5713 90.9671L25.5252 90.96L25.4809 90.9547L25.433 90.9565L25.3923 90.9317L25.3444 90.9335L25.3001 90.9211L25.2576 90.8998H25.2115L25.1708 90.875L25.1264 90.8626L25.0804 90.8538L25.0361 90.8431L24.9953 90.8219L24.9528 90.8077L24.9085 90.7918L24.8659 90.7794L24.8216 90.7652L24.7755 90.7564L24.733 90.7386L24.694 90.7156L24.6497 90.7032L24.6107 90.6784L24.5664 90.6643L24.5292 90.6359L24.4884 90.6164L24.4459 90.597L24.4034 90.5793L24.3626 90.5598L24.3219 90.5385L24.2864 90.5066L24.2456 90.4872L24.2049 90.4659L24.1659 90.4411L24.1251 90.4216L24.0879 90.3933L24.0542 90.3614L24.017 90.3349L23.9763 90.3154L23.939 90.287L23.9036 90.2587L23.8682 90.2304L23.8309 90.202L23.792 90.1772L23.7583 90.1471L23.7246 90.117L23.6945 90.0816L23.659 90.0515L23.6254 90.0214L23.5917 89.9913L23.5492 89.9683L23.5226 89.9311L23.4854 89.9027L23.4605 89.8638L23.4304 89.8283L23.3932 89.8018L23.356 89.7717L23.3276 89.7363L23.3081 89.6938L23.2762 89.6601L23.2426 89.6282L23.2071 89.5981L23.1912 89.5521L23.161 89.5184L23.1345 89.4812L23.0972 89.4511L23.0813 89.4068L23.0441 89.3767L23.0246 89.336L22.9962 89.2988L22.975 89.2581L22.9484 89.2209L22.9306 89.1784L22.8952 89.1465L22.8793 89.1022L22.8474 89.0686L22.8314 89.0243L22.8137 88.9818L22.796 88.9393L22.7694 88.9021L22.7517 88.8596L22.7215 88.8242L22.7056 88.7799L22.6949 88.7356L22.6701 88.6949L22.656 88.6524L22.6329 88.6117L22.6258 88.5656L22.6116 88.5213L22.5886 88.4824L22.5656 88.4416L22.5603 88.3956L22.5372 88.3549L22.5354 88.307L22.5213 88.2645L22.5035 88.222L22.4929 88.176L22.4787 88.1335L22.4752 88.0874L22.4645 88.0432L22.4433 88.0007L22.4397 87.9546L22.4326 87.9086L22.4291 87.8625L22.4185 87.8182L22.4167 87.7722L22.4007 87.7297L22.3972 87.6837L22.3919 87.6376L22.3883 87.5933L22.3742 87.5473L22.3777 87.5012L22.3635 87.457L22.3688 87.4109L22.3582 87.3649L22.3724 87.3188V87.2728L22.3618 87.2285L22.3706 87.1825L22.3671 87.1364L22.3635 87.0904L22.3688 87.0443L22.3618 86.9983L22.3759 86.954L22.3795 86.9079L22.3724 86.8619L22.3883 86.8176L22.3759 86.7698L22.3901 86.7255L22.3919 86.6795L22.4061 86.6352V86.5892L22.4202 86.5449L22.4309 86.5006L22.4238 86.4528L22.4451 86.4103L22.4521 86.366L22.4557 86.32L22.4645 86.2739L22.4876 86.2332L22.4964 86.1871L22.5 86.1411L22.5142 86.0986L22.5319 86.0561L22.5461 86.0118L22.5673 85.9711L22.5744 85.925L22.5833 85.879L22.6063 85.84L22.6187 85.7958L22.6311 85.7515L22.6524 85.7107L22.679 85.6718L22.6879 85.6257L22.7038 85.5832L22.7339 85.546L22.7446 85.5L22.7641 85.4593L22.796 85.4238L22.8119 85.3813L22.8296 85.3388L22.8598 85.3034L22.8722 85.2574L22.9076 85.2255L22.9218 85.1794L22.9466 85.1422L22.9696 85.1033L23.0051 85.0714L23.0193 85.0254L23.0529 84.9935L23.076 84.9545L23.1026 84.9156L23.1327 84.8801L23.161 84.8447L23.1788 84.8022L23.2177 84.7739L23.2408 84.7331L23.278 84.7048L23.3081 84.6694L23.3347 84.634L23.3648 84.5985L23.3967 84.5667L23.4198 84.5259L23.4623 84.5029L23.4871 84.4622L23.519 84.4285L23.5492 84.3949L23.5917 84.3736L23.6165 84.3347L23.6608 84.3134L23.6856 84.2727L23.7228 84.2461L23.7547 84.2125L23.7973 84.1912L23.8327 84.1647L23.8699 84.1363L23.9018 84.1044L23.9373 84.0743L23.9816 84.0566L24.0153 84.0265L24.0542 84.0017L24.0879 83.9716L24.1305 83.9504L24.1659 83.9203L24.2067 83.899L24.2456 83.876L24.2882 83.8583L24.3272 83.8352L24.3626 83.8051L24.4087 83.7927L24.4495 83.7715L24.4867 83.7449L24.5292 83.7272L24.5735 83.713L24.6107 83.6882L24.6533 83.6688L24.6922 83.644L24.7348 83.6263L24.7773 83.6121L24.8181 83.5891L24.8624 83.5767L24.9067 83.5625L24.951 83.5501L24.9935 83.5342L25.0378 83.5218L25.0786 83.4988L25.1247 83.4934L25.169 83.4846L25.2097 83.4633L25.2576 83.4598L25.3001 83.4456L25.3444 83.4332L25.3905 83.4261L25.4366 83.4244L25.4809 83.4137L25.5252 83.4049L25.5695 83.3907L25.6138 83.3801L25.6599 83.3695L25.706 83.3766L25.7503 83.3624L25.7964 83.3588L25.8424 83.3535L25.8885 83.3571L25.9328 83.3447L25.9789 83.3518L26.025 83.3464L26.071 83.3429L26.1154 83.3323L26.1614 83.3394L26.2075 83.3464L26.2536 83.3411L26.2997 83.3447L26.3457 83.3411H26.3918L26.4379 83.3394L26.4822 83.3447L26.5283 83.3482L26.5726 83.3606L26.6187 83.3677L26.6647 83.3606L26.7108 83.3695L26.7551 83.3766L26.8012 83.3801L26.8473 83.3836L26.8898 83.4049L26.9359 83.412L26.9802 83.4208L27.0245 83.4297L27.0688 83.4421L27.1131 83.4509L27.1592 83.4562L27.2035 83.4722L27.2478 83.481L27.2903 83.497L27.3364 83.5023L27.379 83.52L27.4233 83.5306L27.4658 83.5537L27.5083 83.5678L27.5526 83.5784L27.5952 83.5962L27.6359 83.6192L27.6785 83.6333L27.7228 83.6457L27.7618 83.6705L27.8078 83.6829L27.8486 83.7006L27.884 83.7325L27.9266 83.752L27.9709 83.7644L28.0116 83.7839L28.0471 83.8158L28.0949 83.8246L28.1339 83.8494L28.1658 83.8848L28.2137 83.8937L28.2491 83.9238L28.2863 83.9504L28.3236 83.9787L28.3625 83.9999L28.4015 84.0247L28.4423 84.046L28.4742 84.0814L28.5114 84.108L28.5504 84.1328L28.5858 84.1611L28.6248 84.1841L28.6532 84.2231L28.694 84.2461L28.7276 84.2762L28.7631 84.3063L28.7897 84.3435L28.8269 84.3719L28.8605 84.402L28.8978 84.4303L28.9279 84.464L28.9633 84.4941L28.9952 84.5259L29.0271 84.5596L29.0555 84.595L29.0803 84.634L29.1175 84.6641L29.137 84.7066L29.1778 84.7314L29.1955 84.7774L29.2256 84.8111L29.2575 84.8447L29.2912 84.8766L29.3107 84.9173L29.339 84.9545L29.3692 84.9899L29.394 85.0271L29.4206 85.0643L29.4383 85.1068L29.472 85.1405L29.4915 85.183L29.5163 85.2219L29.534 85.2627L29.5641 85.2999L29.5836 85.3406L29.6031 85.3813L29.6208 85.4238L29.6492 85.461L29.6722 85.5L29.6811 85.5478L29.7148 85.5815L29.7236 85.6275L29.7502 85.6665L29.7538 85.7143L29.7821 85.7515L29.7927 85.7975L29.8122 85.8383L29.8229 85.8843L29.8477 85.9233L29.8512 85.9693L29.8707 86.0118L29.892 86.0526L29.8991 86.0986L29.9079 86.1446L29.9274 86.1871L29.9381 86.2314L29.9398 86.2775L29.9611 86.32L29.9735 86.3642L29.9806 86.4085L29.9788 86.4563L30.0001 86.4988L29.9948 86.5449L30.0107 86.5892L30.0072 86.6352L30.0143 86.6813L30.0284 86.7255L30.032 86.7716L30.0373 86.8159L30.0497 86.8619L30.0479 86.9079L30.0497 86.954L30.0533 86.9983L30.0479 87.0443L30.0462 87.0904L30.0497 87.1364L30.0586 87.1825Z"/>
</mask>
<path d="M30.0586 87.1825V87.2285L30.0479 87.2728L30.055 87.3188L30.0568 87.3649L30.0391 87.4109L30.0515 87.457L30.0338 87.5012L30.0373 87.5473V87.5933L30.0231 87.6376L30.0267 87.6837L30.016 87.7297L30.0019 87.774L30.0001 87.82L29.9877 87.8643L29.9912 87.9103L29.9824 87.9564L29.9611 87.9971L29.9522 88.0432V88.0892L29.931 88.1317L29.9239 88.1778L29.9079 88.2203L29.9062 88.2681L29.8814 88.307L29.8778 88.3549L29.8583 88.3956L29.8424 88.4381L29.83 88.4824L29.8105 88.5249L29.7892 88.5656L29.7857 88.6134L29.7538 88.6489L29.736 88.6914L29.7236 88.7356L29.7077 88.7781L29.6793 88.8171L29.6616 88.8578L29.6421 88.9003L29.6191 88.9393L29.6102 88.9871L29.5854 89.0261L29.5535 89.0597L29.5411 89.1058L29.5127 89.1412L29.4897 89.1802L29.4666 89.2209L29.4436 89.2599L29.417 89.297L29.3851 89.3307L29.3727 89.3785L29.3337 89.4068L29.3178 89.4511L29.2912 89.4883L29.2558 89.5184L29.2327 89.5592L29.2008 89.5928L29.176 89.6318L29.1441 89.6636L29.1069 89.692L29.0838 89.7327L29.0573 89.7699L29.0183 89.7982L28.9952 89.839L28.9616 89.8691L28.9226 89.8956L28.8995 89.9364L28.8552 89.9559L28.8269 89.9931L28.7914 90.0214L28.756 90.0515L28.7294 90.0905L28.6869 90.1117L28.6567 90.1454L28.6213 90.1755L28.5823 90.2003L28.5451 90.2268L28.5079 90.2516L28.4742 90.2835L28.4423 90.3171L28.3962 90.3313L28.3625 90.365L28.3236 90.3862L28.2846 90.411L28.2509 90.4429L28.2066 90.4588L28.1729 90.4925L28.1322 90.512L28.0896 90.5314L28.0524 90.5562L28.0152 90.5846L27.9727 90.6005L27.9319 90.6253L27.884 90.6324L27.8486 90.6625L27.8025 90.6731L27.7653 90.6997L27.721 90.7121L27.6785 90.7316L27.6342 90.744L27.5916 90.7599L27.5509 90.7794L27.5066 90.79L27.464 90.8077L27.425 90.8343L27.3772 90.8378L27.3364 90.8573L27.2921 90.8697L27.246 90.8786L27.2053 90.8998L27.161 90.914L27.1149 90.9193L27.0706 90.9299L27.0263 90.9441L26.982 90.9547L26.9377 90.9618L26.8916 90.9724L26.8455 90.9689L26.8012 90.983L26.7569 90.9901L26.7091 90.9919L26.6647 91.0043L26.6187 91.0061L26.5744 91.0096L26.5283 91.0167L26.4822 91.0202L26.4361 91.0132L26.3918 91.0291L26.3457 91.0273L26.2997 91.0167L26.2536 91.0326L26.2075 91.0167L26.1614 91.0273L26.1171 91.022L26.071 91.0149L26.025 91.022L25.9789 91.0096L25.9346 91.0061L25.8885 91.0078L25.8424 91.0061L25.7981 90.999L25.752 90.9884L25.7042 91.0008L25.6617 90.9848L25.6156 90.9795L25.5713 90.9671L25.5252 90.96L25.4809 90.9547L25.433 90.9565L25.3923 90.9317L25.3444 90.9335L25.3001 90.9211L25.2576 90.8998H25.2115L25.1708 90.875L25.1264 90.8626L25.0804 90.8538L25.0361 90.8431L24.9953 90.8219L24.9528 90.8077L24.9085 90.7918L24.8659 90.7794L24.8216 90.7652L24.7755 90.7564L24.733 90.7386L24.694 90.7156L24.6497 90.7032L24.6107 90.6784L24.5664 90.6643L24.5292 90.6359L24.4884 90.6164L24.4459 90.597L24.4034 90.5793L24.3626 90.5598L24.3219 90.5385L24.2864 90.5066L24.2456 90.4872L24.2049 90.4659L24.1659 90.4411L24.1251 90.4216L24.0879 90.3933L24.0542 90.3614L24.017 90.3349L23.9763 90.3154L23.939 90.287L23.9036 90.2587L23.8682 90.2304L23.8309 90.202L23.792 90.1772L23.7583 90.1471L23.7246 90.117L23.6945 90.0816L23.659 90.0515L23.6254 90.0214L23.5917 89.9913L23.5492 89.9683L23.5226 89.9311L23.4854 89.9027L23.4605 89.8638L23.4304 89.8283L23.3932 89.8018L23.356 89.7717L23.3276 89.7363L23.3081 89.6938L23.2762 89.6601L23.2426 89.6282L23.2071 89.5981L23.1912 89.5521L23.161 89.5184L23.1345 89.4812L23.0972 89.4511L23.0813 89.4068L23.0441 89.3767L23.0246 89.336L22.9962 89.2988L22.975 89.2581L22.9484 89.2209L22.9306 89.1784L22.8952 89.1465L22.8793 89.1022L22.8474 89.0686L22.8314 89.0243L22.8137 88.9818L22.796 88.9393L22.7694 88.9021L22.7517 88.8596L22.7215 88.8242L22.7056 88.7799L22.6949 88.7356L22.6701 88.6949L22.656 88.6524L22.6329 88.6117L22.6258 88.5656L22.6116 88.5213L22.5886 88.4824L22.5656 88.4416L22.5603 88.3956L22.5372 88.3549L22.5354 88.307L22.5213 88.2645L22.5035 88.222L22.4929 88.176L22.4787 88.1335L22.4752 88.0874L22.4645 88.0432L22.4433 88.0007L22.4397 87.9546L22.4326 87.9086L22.4291 87.8625L22.4185 87.8182L22.4167 87.7722L22.4007 87.7297L22.3972 87.6837L22.3919 87.6376L22.3883 87.5933L22.3742 87.5473L22.3777 87.5012L22.3635 87.457L22.3688 87.4109L22.3582 87.3649L22.3724 87.3188V87.2728L22.3618 87.2285L22.3706 87.1825L22.3671 87.1364L22.3635 87.0904L22.3688 87.0443L22.3618 86.9983L22.3759 86.954L22.3795 86.9079L22.3724 86.8619L22.3883 86.8176L22.3759 86.7698L22.3901 86.7255L22.3919 86.6795L22.4061 86.6352V86.5892L22.4202 86.5449L22.4309 86.5006L22.4238 86.4528L22.4451 86.4103L22.4521 86.366L22.4557 86.32L22.4645 86.2739L22.4876 86.2332L22.4964 86.1871L22.5 86.1411L22.5142 86.0986L22.5319 86.0561L22.5461 86.0118L22.5673 85.9711L22.5744 85.925L22.5833 85.879L22.6063 85.84L22.6187 85.7958L22.6311 85.7515L22.6524 85.7107L22.679 85.6718L22.6879 85.6257L22.7038 85.5832L22.7339 85.546L22.7446 85.5L22.7641 85.4593L22.796 85.4238L22.8119 85.3813L22.8296 85.3388L22.8598 85.3034L22.8722 85.2574L22.9076 85.2255L22.9218 85.1794L22.9466 85.1422L22.9696 85.1033L23.0051 85.0714L23.0193 85.0254L23.0529 84.9935L23.076 84.9545L23.1026 84.9156L23.1327 84.8801L23.161 84.8447L23.1788 84.8022L23.2177 84.7739L23.2408 84.7331L23.278 84.7048L23.3081 84.6694L23.3347 84.634L23.3648 84.5985L23.3967 84.5667L23.4198 84.5259L23.4623 84.5029L23.4871 84.4622L23.519 84.4285L23.5492 84.3949L23.5917 84.3736L23.6165 84.3347L23.6608 84.3134L23.6856 84.2727L23.7228 84.2461L23.7547 84.2125L23.7973 84.1912L23.8327 84.1647L23.8699 84.1363L23.9018 84.1044L23.9373 84.0743L23.9816 84.0566L24.0153 84.0265L24.0542 84.0017L24.0879 83.9716L24.1305 83.9504L24.1659 83.9203L24.2067 83.899L24.2456 83.876L24.2882 83.8583L24.3272 83.8352L24.3626 83.8051L24.4087 83.7927L24.4495 83.7715L24.4867 83.7449L24.5292 83.7272L24.5735 83.713L24.6107 83.6882L24.6533 83.6688L24.6922 83.644L24.7348 83.6263L24.7773 83.6121L24.8181 83.5891L24.8624 83.5767L24.9067 83.5625L24.951 83.5501L24.9935 83.5342L25.0378 83.5218L25.0786 83.4988L25.1247 83.4934L25.169 83.4846L25.2097 83.4633L25.2576 83.4598L25.3001 83.4456L25.3444 83.4332L25.3905 83.4261L25.4366 83.4244L25.4809 83.4137L25.5252 83.4049L25.5695 83.3907L25.6138 83.3801L25.6599 83.3695L25.706 83.3766L25.7503 83.3624L25.7964 83.3588L25.8424 83.3535L25.8885 83.3571L25.9328 83.3447L25.9789 83.3518L26.025 83.3464L26.071 83.3429L26.1154 83.3323L26.1614 83.3394L26.2075 83.3464L26.2536 83.3411L26.2997 83.3447L26.3457 83.3411H26.3918L26.4379 83.3394L26.4822 83.3447L26.5283 83.3482L26.5726 83.3606L26.6187 83.3677L26.6647 83.3606L26.7108 83.3695L26.7551 83.3766L26.8012 83.3801L26.8473 83.3836L26.8898 83.4049L26.9359 83.412L26.9802 83.4208L27.0245 83.4297L27.0688 83.4421L27.1131 83.4509L27.1592 83.4562L27.2035 83.4722L27.2478 83.481L27.2903 83.497L27.3364 83.5023L27.379 83.52L27.4233 83.5306L27.4658 83.5537L27.5083 83.5678L27.5526 83.5784L27.5952 83.5962L27.6359 83.6192L27.6785 83.6333L27.7228 83.6457L27.7618 83.6705L27.8078 83.6829L27.8486 83.7006L27.884 83.7325L27.9266 83.752L27.9709 83.7644L28.0116 83.7839L28.0471 83.8158L28.0949 83.8246L28.1339 83.8494L28.1658 83.8848L28.2137 83.8937L28.2491 83.9238L28.2863 83.9504L28.3236 83.9787L28.3625 83.9999L28.4015 84.0247L28.4423 84.046L28.4742 84.0814L28.5114 84.108L28.5504 84.1328L28.5858 84.1611L28.6248 84.1841L28.6532 84.2231L28.694 84.2461L28.7276 84.2762L28.7631 84.3063L28.7897 84.3435L28.8269 84.3719L28.8605 84.402L28.8978 84.4303L28.9279 84.464L28.9633 84.4941L28.9952 84.5259L29.0271 84.5596L29.0555 84.595L29.0803 84.634L29.1175 84.6641L29.137 84.7066L29.1778 84.7314L29.1955 84.7774L29.2256 84.8111L29.2575 84.8447L29.2912 84.8766L29.3107 84.9173L29.339 84.9545L29.3692 84.9899L29.394 85.0271L29.4206 85.0643L29.4383 85.1068L29.472 85.1405L29.4915 85.183L29.5163 85.2219L29.534 85.2627L29.5641 85.2999L29.5836 85.3406L29.6031 85.3813L29.6208 85.4238L29.6492 85.461L29.6722 85.5L29.6811 85.5478L29.7148 85.5815L29.7236 85.6275L29.7502 85.6665L29.7538 85.7143L29.7821 85.7515L29.7927 85.7975L29.8122 85.8383L29.8229 85.8843L29.8477 85.9233L29.8512 85.9693L29.8707 86.0118L29.892 86.0526L29.8991 86.0986L29.9079 86.1446L29.9274 86.1871L29.9381 86.2314L29.9398 86.2775L29.9611 86.32L29.9735 86.3642L29.9806 86.4085L29.9788 86.4563L30.0001 86.4988L29.9948 86.5449L30.0107 86.5892L30.0072 86.6352L30.0143 86.6813L30.0284 86.7255L30.032 86.7716L30.0373 86.8159L30.0497 86.8619L30.0479 86.9079L30.0497 86.954L30.0533 86.9983L30.0479 87.0443L30.0462 87.0904L30.0497 87.1364L30.0586 87.1825Z" fill="#E1FCEE" stroke="black" stroke-width="2" mask="url(#path-12-inside-2_979_26578)"/>
<path d="M59.4728 70.4373L58.0573 61.6444L63.8177 61.5854L64.4356 67.3766C64.4835 67.8255 64.8567 68.1693 65.3079 68.1803L87.2214 68.7177C87.7258 68.73 88.1417 68.3252 88.1429 67.8206L88.1582 61.3394L94.1386 61.3535L94.1167 70.6009C94.1119 72.6217 92.4441 74.2422 90.424 74.1888L62.9297 73.4619C61.2 73.4162 59.7479 72.1456 59.4728 70.4373Z" fill="#090B0E"/>
<path fill-rule="evenodd" clip-rule="evenodd" d="M87.7085 61.3383C87.7091 61.0899 87.9109 60.8891 88.1593 60.8897L94.1397 60.9038C94.388 60.9044 94.5889 61.1062 94.5883 61.3546L94.5664 70.602C94.561 72.8754 91.8114 76.3425 89.5387 76.2824L62.9178 73.9114C60.9719 73.86 59.3383 72.4306 59.0289 70.5088L57.6133 61.7158C57.5925 61.5866 57.6291 61.4546 57.7135 61.3545C57.7979 61.2544 57.9218 61.196 58.0527 61.1947L63.8131 61.1357C64.0448 61.1333 64.2403 61.3073 64.2649 61.5377L64.8828 67.3289C64.9068 67.5533 65.0933 67.7252 65.319 67.7308L87.2324 68.2681C87.4846 68.2743 87.6926 68.0718 87.6932 67.8196L87.7085 61.3383ZM88.6068 61.7901L88.5926 67.8217C88.5908 68.5785 87.9669 69.1858 87.2104 69.1672L65.2969 68.6299C64.62 68.6133 64.0603 68.0976 63.9885 67.4243L63.4139 62.0392L58.5843 62.0887L59.9168 70.3659C60.1575 71.8606 61.4281 72.9723 62.9416 73.0123L90.4359 73.7392C92.2035 73.7859 93.6628 72.368 93.667 70.5998L93.6878 61.8022L88.6068 61.7901Z" fill="#090B0E"/>
<ellipse cx="112.729" cy="32.2397" rx="8.18806" ry="30.9242" transform="rotate(-14.8644 112.729 32.2397)" stroke="black"/>
<ellipse cx="112.729" cy="32.2397" rx="8.18806" ry="30.9242" transform="rotate(-14.8644 112.729 32.2397)" fill="#090B0E" stroke="black"/>
<path d="M97.4689 25.9694L110.608 23.8821L115.06 40.6701L104.621 47.6784L97.4689 25.9694Z" fill="#E1FCEE"/>
<path fill-rule="evenodd" clip-rule="evenodd" d="M119.55 62.1484C115.161 61.2489 108.842 49.5118 104.815 34.3401C100.812 19.26 100.459 6.00342 103.76 2.93929L34.0833 39.2422L33.0865 43.4073L34.056 50.7574L36.9992 58.4412L39.841 62.5057L119.55 62.1484Z" fill="white"/>
<path d="M115.086 41.1204C115.656 40.9692 115.96 40.4298 116.126 39.8952C116.3 39.3316 116.378 38.5966 116.377 37.76C116.376 36.0791 116.059 33.8694 115.436 31.5212C114.812 29.1729 113.992 27.0968 113.159 25.6366C112.745 24.9099 112.313 24.3102 111.882 23.9071C111.474 23.5249 110.942 23.2075 110.372 23.3588C109.802 23.51 109.497 24.0494 109.332 24.584C109.158 25.1477 109.08 25.8826 109.081 26.7192C109.082 28.4001 109.399 30.6098 110.022 32.958C110.645 35.3063 111.466 37.3824 112.298 38.8426C112.713 39.5693 113.145 40.169 113.575 40.5721C113.984 40.9543 114.516 41.2717 115.086 41.1204Z" fill="#86EFCE" stroke="black"/>
<path fill-rule="evenodd" clip-rule="evenodd" d="M108.32 62.1989L103.942 62.2185C100.125 57.8242 95.8185 48.3808 92.7998 37.0072C89.8823 26.015 88.9038 15.9917 89.8661 10.1785L94.9602 7.52439C93.023 12.4976 93.7719 24.0872 97.2038 37.0176C100.216 48.3653 104.51 57.7917 108.32 62.1989Z" fill="#090B0E"/>
<path d="M108.32 62.1989L108.322 62.6988L109.409 62.694L108.698 61.8719L108.32 62.1989ZM103.942 62.2185L103.565 62.5463L103.715 62.7195L103.944 62.7185L103.942 62.2185ZM92.7998 37.0072L93.2831 36.8789L93.2831 36.8789L92.7998 37.0072ZM89.8661 10.1785L89.6351 9.73506L89.4136 9.85045L89.3729 10.0968L89.8661 10.1785ZM94.9602 7.52439L95.4261 7.70588L95.909 6.46628L94.7292 7.08097L94.9602 7.52439ZM97.2038 37.0176L97.687 36.8893L97.687 36.8893L97.2038 37.0176ZM108.318 61.6989L103.94 61.7185L103.944 62.7185L108.322 62.6988L108.318 61.6989ZM92.3165 37.1354C95.3411 48.5313 99.6719 58.0645 103.565 62.5463L104.32 61.8906C100.579 57.5838 96.2959 48.2302 93.2831 36.8789L92.3165 37.1354ZM89.3729 10.0968C88.3933 16.0137 89.3924 26.1182 92.3165 37.1354L93.2831 36.8789C90.3722 25.9118 89.4142 15.9697 90.3594 10.2602L89.3729 10.0968ZM90.0972 10.6219L95.1912 7.96782L94.7292 7.08097L89.6351 9.73506L90.0972 10.6219ZM97.687 36.8893C95.9778 30.4493 94.9387 24.3503 94.5672 19.2507C94.1943 14.1302 94.4999 10.0835 95.4261 7.70588L94.4943 7.34291C93.4833 9.93848 93.1948 14.1733 93.5699 19.3234C93.9466 24.4945 94.9979 30.6555 96.7205 37.1458L97.687 36.8893ZM108.698 61.8719C104.963 57.5518 100.693 48.2146 97.687 36.8893L96.7205 37.1458C99.7383 48.5161 104.056 58.0316 107.942 62.5259L108.698 61.8719Z" fill="black"/>
<path fill-rule="evenodd" clip-rule="evenodd" d="M50.014 62.0757L47.8254 62.0856C45.9171 59.8884 43.7636 55.1667 42.2543 49.4799C40.7956 43.9841 40.3063 38.9727 40.7874 36.066L43.3338 34.7393C42.3655 37.2264 42.7401 43.0206 44.4558 49.4851C45.9618 55.159 48.1089 59.8722 50.014 62.0757Z" fill="#090B0E"/>
<path d="M50.014 62.0757L50.0162 62.5757L51.103 62.5709L50.3922 61.7487L50.014 62.0757ZM47.8254 62.0856L47.4479 62.4134L47.5983 62.5866L47.8276 62.5856L47.8254 62.0856ZM42.2543 49.4799L42.7375 49.3517L42.7375 49.3517L42.2543 49.4799ZM40.7874 36.066L40.5563 35.6226L40.3349 35.738L40.2941 35.9844L40.7874 36.066ZM43.3338 34.7393L43.7997 34.9207L44.2822 33.6814L43.1027 34.2959L43.3338 34.7393ZM44.4558 49.4851L43.9726 49.6133L44.4558 49.4851ZM50.0117 61.5758L47.8231 61.5856L47.8276 62.5856L50.0162 62.5757L50.0117 61.5758ZM41.771 49.6082C43.2863 55.3172 45.4636 60.1287 47.4479 62.4134L48.2029 61.7577C46.3706 59.6481 44.241 55.0162 42.7375 49.3517L41.771 49.6082ZM40.2941 35.9844C39.7959 38.9947 40.3057 44.0873 41.771 49.6082L42.7375 49.3517C41.2855 43.8809 40.8168 38.9507 41.2807 36.1477L40.2941 35.9844ZM41.0184 36.5095L43.5648 35.1828L43.1027 34.2959L40.5563 35.6226L41.0184 36.5095ZM44.9391 49.3568C44.0879 46.1497 43.5715 43.1161 43.387 40.5844C43.201 38.0317 43.358 36.0554 43.7997 34.9207L42.8678 34.5579C42.3413 35.9104 42.2015 38.0747 42.3896 40.657C42.5793 43.2603 43.108 46.356 43.9726 49.6133L44.9391 49.3568ZM50.3922 61.7487C48.5625 59.6323 46.4391 55.0083 44.9391 49.3568L43.9726 49.6133C45.4845 55.3097 47.6554 60.1121 49.6357 62.4028L50.3922 61.7487Z" fill="black"/>
<path d="M40.7415 62.6514C39.0163 63.1093 36.2159 58.1986 34.4866 51.683C32.7572 45.1674 32.7539 39.5143 34.4791 39.0564" stroke="black"/>
<line x1="34.214" y1="39.2578" x2="104.767" y2="2.4096" stroke="black"/>
<line x1="40.5469" y1="62.7655" x2="120.701" y2="62.2052" stroke="black"/>
<path d="M57.6425 72.0167L56.1596 62.9601L62.0477 63.4838L62.6563 69.1873C62.7095 69.6864 63.1244 70.0687 63.6261 70.081L85.3486 70.6136C85.9094 70.6273 86.3718 70.1772 86.3731 69.6162L86.3892 62.7809L92.3686 63.252L92.3477 72.0872C92.3424 74.334 90.488 76.1357 88.242 76.0763L61.4842 75.3689C59.5651 75.3182 57.9527 73.9112 57.6425 72.0167Z" fill="#86EFCE" stroke="black" stroke-linecap="round" stroke-linejoin="round"/>
<line x1="46.7325" y1="36.4232" x2="75.8928" y2="21.0835" stroke="black" stroke-linecap="round"/>
<line x1="45.8224" y1="40.5227" x2="66.0301" y2="29.8976" stroke="black" stroke-linecap="round"/>
<ellipse cx="112.729" cy="32.2397" rx="8.18806" ry="30.9242" transform="rotate(-14.8644 112.729 32.2397)" stroke="black"/>
<rect x="56.2967" y="62.3616" width="6.03036" height="3.0755" transform="rotate(0.135583 56.2967 62.3616)" fill="#090B0E"/>
<rect x="86.3813" y="62.4328" width="6.03036" height="3.0755" transform="rotate(0.135583 86.3813 62.4328)" fill="#090B0E"/>
<defs>
<linearGradient id="paint0_linear_979_26578" x1="16.9518" y1="44.9815" x2="150.488" y2="44.9171" gradientUnits="userSpaceOnUse">
<stop stop-color="#96F2BC" stop-opacity="0.9"/>
<stop offset="1" stop-color="#3EFFFF" stop-opacity="0.9"/>
</linearGradient>
</defs>
</svg>
