<svg width="238" height="127" viewBox="0 0 238 127" fill="none" xmlns="http://www.w3.org/2000/svg">
<path d="M217.066 12.1825V12.2083L217.06 12.2332L217.064 12.259L217.065 12.2849L217.055 12.3107L217.062 12.3365L217.052 12.3614L217.054 12.3872V12.4131L217.046 12.4379L217.048 12.4638L217.042 12.4896L217.035 12.5145L217.034 12.5403L217.027 12.5652L217.029 12.591L217.024 12.6168L217.012 12.6397L217.007 12.6655V12.6914L216.995 12.7152L216.991 12.7411L216.982 12.7649L216.981 12.7918L216.967 12.8136L216.965 12.8405L216.954 12.8633L216.945 12.8872L216.938 12.912L216.927 12.9359L216.915 12.9588L216.913 12.9856L216.895 13.0055L216.885 13.0293L216.878 13.0542L216.869 13.078L216.854 13.0999L216.844 13.1228L216.833 13.1466L216.82 13.1685L216.815 13.1953L216.801 13.2172L216.783 13.2361L216.776 13.2619L216.76 13.2818L216.747 13.3037L216.734 13.3265L216.721 13.3484L216.706 13.3693L216.688 13.3881L216.681 13.415L216.66 13.4309L216.651 13.4557L216.636 13.4766L216.616 13.4935L216.603 13.5164L216.585 13.5353L216.571 13.5571L216.553 13.575L216.532 13.5909L216.519 13.6138L216.504 13.6347L216.483 13.6506L216.47 13.6734L216.451 13.6903L216.429 13.7052L216.416 13.7281L216.391 13.739L216.375 13.7599L216.355 13.7758L216.335 13.7927L216.32 13.8146L216.297 13.8265L216.28 13.8454L216.26 13.8623L216.238 13.8762L216.217 13.8911L216.196 13.905L216.177 13.9229L216.159 13.9418L216.133 13.9497L216.114 13.9686L216.093 13.9806L216.071 13.9945L216.052 14.0124L216.027 14.0213L216.008 14.0402L215.985 14.0511L215.961 14.0621L215.94 14.076L215.92 14.0919L215.896 14.1008L215.873 14.1147L215.846 14.1187L215.826 14.1356L215.8 14.1416L215.779 14.1565L215.754 14.1634L215.731 14.1744L215.706 14.1813L215.682 14.1903L215.659 14.2012L215.634 14.2072L215.61 14.2171L215.588 14.232L215.561 14.234L215.539 14.2449L215.514 14.2519L215.488 14.2569L215.465 14.2688L215.44 14.2768L215.414 14.2797L215.389 14.2857L215.365 14.2936L215.34 14.2996L215.315 14.3036L215.289 14.3096L215.263 14.3076L215.238 14.3155L215.213 14.3195L215.186 14.3205L215.162 14.3274L215.136 14.3284L215.111 14.3304L215.085 14.3344L215.059 14.3364L215.033 14.3324L215.008 14.3414L214.983 14.3404L214.957 14.3344L214.931 14.3433L214.905 14.3344L214.879 14.3404L214.854 14.3374L214.828 14.3334L214.803 14.3374L214.777 14.3304L214.752 14.3284L214.726 14.3294L214.7 14.3284L214.675 14.3245L214.649 14.3185L214.623 14.3255L214.599 14.3165L214.573 14.3135L214.548 14.3066L214.522 14.3026L214.497 14.2996L214.47 14.3006L214.447 14.2867L214.421 14.2877L214.396 14.2807L214.372 14.2688H214.346L214.323 14.2549L214.298 14.2479L214.272 14.243L214.248 14.237L214.225 14.2251L214.201 14.2171L214.176 14.2082L214.152 14.2012L214.127 14.1933L214.101 14.1883L214.077 14.1783L214.056 14.1654L214.031 14.1585L214.009 14.1446L213.984 14.1366L213.963 14.1207L213.94 14.1098L213.916 14.0988L213.892 14.0889L213.87 14.078L213.847 14.066L213.827 14.0481L213.804 14.0372L213.781 14.0253L213.759 14.0114L213.736 14.0004L213.715 13.9845L213.697 13.9666L213.676 13.9517L213.653 13.9408L213.632 13.9249L213.612 13.909L213.592 13.8931L213.571 13.8772L213.549 13.8633L213.53 13.8464L213.512 13.8295L213.495 13.8096L213.475 13.7927L213.456 13.7758L213.437 13.7589L213.413 13.746L213.398 13.7251L213.377 13.7092L213.363 13.6873L213.346 13.6675L213.326 13.6525L213.305 13.6356L213.289 13.6158L213.278 13.5919L213.26 13.573L213.241 13.5551L213.221 13.5382L213.212 13.5124L213.195 13.4935L213.18 13.4726L213.159 13.4557L213.15 13.4309L213.13 13.414L213.119 13.3911L213.103 13.3703L213.091 13.3474L213.076 13.3265L213.066 13.3027L213.046 13.2848L213.037 13.2599L213.019 13.241L213.01 13.2162L213 13.1923L212.99 13.1685L212.975 13.1476L212.965 13.1238L212.949 13.1039L212.94 13.079L212.934 13.0542L212.92 13.0313L212.912 13.0075L212.899 12.9846L212.895 12.9588L212.887 12.9339L212.874 12.912L212.861 12.8892L212.858 12.8633L212.845 12.8405L212.844 12.8136L212.836 12.7898L212.826 12.7659L212.82 12.7401L212.812 12.7162L212.81 12.6904L212.804 12.6655L212.792 12.6417L212.79 12.6158L212.786 12.59L212.784 12.5642L212.778 12.5393L212.777 12.5135L212.769 12.4896L212.767 12.4638L212.764 12.4379L212.762 12.4131L212.754 12.3872L212.756 12.3614L212.748 12.3365L212.751 12.3107L212.745 12.2849L212.753 12.259V12.2332L212.747 12.2083L212.752 12.1825L212.75 12.1566L212.748 12.1308L212.751 12.1049L212.747 12.0791L212.755 12.0543L212.757 12.0284L212.753 12.0026L212.762 11.9777L212.755 11.9509L212.763 11.926L212.764 11.9002L212.771 11.8753V11.8495L212.779 11.8247L212.785 11.7998L212.781 11.773L212.793 11.7491L212.797 11.7243L212.799 11.6984L212.804 11.6726L212.817 11.6497L212.822 11.6239L212.824 11.598L212.832 11.5742L212.842 11.5503L212.85 11.5255L212.862 11.5026L212.866 11.4768L212.871 11.4509L212.884 11.4291L212.891 11.4042L212.898 11.3794L212.91 11.3565L212.925 11.3346L212.93 11.3088L212.939 11.2849L212.955 11.2641L212.961 11.2382L212.972 11.2154L212.99 11.1955L212.999 11.1716L213.009 11.1478L213.026 11.1279L213.033 11.102L213.053 11.0841L213.061 11.0583L213.075 11.0374L213.088 11.0156L213.108 10.9977L213.116 10.9718L213.135 10.9539L213.147 10.9321L213.162 10.9102L213.179 10.8903L213.195 10.8704L213.205 10.8466L213.227 10.8307L213.24 10.8078L213.261 10.7919L213.278 10.772L213.293 10.7522L213.31 10.7323L213.327 10.7144L213.34 10.6915L213.364 10.6786L213.378 10.6558L213.396 10.6369L213.413 10.618L213.437 10.6061L213.451 10.5842L213.476 10.5723L213.49 10.5494L213.511 10.5345L213.528 10.5156L213.552 10.5037L213.572 10.4888L213.593 10.4729L213.611 10.455L213.631 10.4381L213.656 10.4281L213.675 10.4112L213.697 10.3973L213.715 10.3804L213.739 10.3685L213.759 10.3516L213.782 10.3397L213.804 10.3268L213.828 10.3168L213.85 10.3039L213.87 10.287L213.895 10.28L213.918 10.2681L213.939 10.2532L213.963 10.2433L213.988 10.2353L214.009 10.2214L214.033 10.2105L214.055 10.1965L214.078 10.1866L214.102 10.1787L214.125 10.1657L214.15 10.1588L214.175 10.1508L214.2 10.1439L214.224 10.1349L214.249 10.128L214.271 10.115L214.297 10.1121L214.322 10.1071L214.345 10.0952L214.372 10.0932L214.396 10.0852L214.421 10.0783L214.446 10.0743L214.472 10.0733L214.497 10.0673L214.522 10.0624L214.547 10.0544L214.572 10.0484L214.598 10.0425L214.624 10.0465L214.648 10.0385L214.674 10.0365L214.7 10.0335L214.726 10.0355L214.751 10.0286L214.777 10.0325L214.803 10.0296L214.828 10.0276L214.853 10.0216L214.879 10.0256L214.905 10.0296L214.931 10.0266L214.957 10.0286L214.983 10.0266H215.008L215.034 10.0256L215.059 10.0286L215.085 10.0306L215.11 10.0375L215.136 10.0415L215.162 10.0375L215.187 10.0425L215.212 10.0465L215.238 10.0484L215.264 10.0504L215.288 10.0624L215.314 10.0663L215.339 10.0713L215.364 10.0763L215.388 10.0832L215.413 10.0882L215.439 10.0912L215.464 10.1001L215.489 10.1051L215.513 10.114L215.539 10.117L215.562 10.127L215.587 10.1329L215.611 10.1459L215.635 10.1538L215.66 10.1598L215.684 10.1697L215.707 10.1826L215.731 10.1906L215.755 10.1975L215.777 10.2115L215.803 10.2184L215.826 10.2284L215.846 10.2462L215.87 10.2572L215.895 10.2641L215.918 10.2751L215.937 10.293L215.964 10.2979L215.986 10.3118L216.004 10.3317L216.031 10.3367L216.051 10.3536L216.072 10.3685L216.093 10.3844L216.114 10.3963L216.136 10.4102L216.159 10.4222L216.177 10.4421L216.198 10.457L216.22 10.4709L216.24 10.4868L216.262 10.4997L216.278 10.5216L216.3 10.5345L216.319 10.5514L216.339 10.5683L216.354 10.5892L216.375 10.6051L216.394 10.622L216.415 10.6379L216.432 10.6567L216.452 10.6736L216.47 10.6915L216.487 10.7104L216.503 10.7303L216.517 10.7522L216.538 10.7691L216.549 10.7929L216.572 10.8068L216.582 10.8327L216.599 10.8516L216.617 10.8704L216.636 10.8883L216.647 10.9112L216.663 10.9321L216.679 10.952L216.693 10.9728L216.708 10.9937L216.718 11.0176L216.737 11.0364L216.748 11.0603L216.762 11.0822L216.772 11.105L216.789 11.1259L216.8 11.1488L216.811 11.1716L216.821 11.1955L216.837 11.2163L216.85 11.2382L216.855 11.2651L216.873 11.2839L216.878 11.3098L216.893 11.3316L216.895 11.3585L216.911 11.3794L216.917 11.4052L216.928 11.4281L216.934 11.4539L216.948 11.4758L216.95 11.5016L216.961 11.5255L216.973 11.5483L216.977 11.5742L216.982 11.6L216.993 11.6239L216.999 11.6487L217 11.6746L217.012 11.6984L217.019 11.7233L217.023 11.7481L217.022 11.775L217.034 11.7988L217.031 11.8247L217.04 11.8495L217.038 11.8753L217.042 11.9012L217.049 11.926L217.051 11.9519L217.054 11.9767L217.061 12.0026L217.06 12.0284L217.061 12.0543L217.063 12.0791L217.06 12.1049L217.059 12.1308L217.061 12.1566L217.066 12.1825Z" fill="#86EFCE"/>
<path d="M237.376 78.6382V78.658L237.371 78.6771L237.374 78.697L237.375 78.7169L237.368 78.7367L237.373 78.7566L237.365 78.7757L237.367 78.7956V78.8154L237.361 78.8345L237.362 78.8544L237.358 78.8743L237.351 78.8934L237.351 78.9133L237.345 78.9324L237.347 78.9522L237.343 78.9721L237.334 78.9897L237.33 79.0095V79.0294L237.321 79.0478L237.318 79.0676L237.311 79.086L237.31 79.1066L237.299 79.1234L237.298 79.144L237.29 79.1616L237.283 79.18L237.277 79.1991L237.269 79.2174L237.26 79.235L237.258 79.2556L237.244 79.2709L237.237 79.2892L237.231 79.3083L237.225 79.3267L237.212 79.3435L237.205 79.3611L237.196 79.3794L237.186 79.3962L237.182 79.4169L237.172 79.4337L237.158 79.4482L237.153 79.4681L237.14 79.4833L237.13 79.5002L237.12 79.5177L237.111 79.5345L237.099 79.5506L237.085 79.5651L237.08 79.5857L237.063 79.598L237.056 79.6171L237.045 79.6331L237.029 79.6461L237.02 79.6637L237.006 79.6782L236.995 79.695L236.981 79.7088L236.965 79.721L236.955 79.7386L236.944 79.7546L236.927 79.7669L236.917 79.7844L236.903 79.7974L236.886 79.8089L236.876 79.8265L236.857 79.8349L236.844 79.8509L236.829 79.8631L236.814 79.8761L236.802 79.893L236.784 79.9021L236.771 79.9166L236.756 79.9296L236.739 79.9403L236.723 79.9518L236.707 79.9625L236.692 79.9762L236.678 79.9908L236.659 79.9969L236.644 80.0114L236.627 80.0206L236.61 80.0313L236.596 80.045L236.577 80.0519L236.562 80.0664L236.545 80.0748L236.526 80.0832L236.51 80.0939L236.494 80.1062L236.476 80.113L236.458 80.1237L236.438 80.1268L236.422 80.1398L236.402 80.1444L236.386 80.1558L236.367 80.1612L236.349 80.1696L236.33 80.1749L236.311 80.1818L236.294 80.1902L236.275 80.1948L236.256 80.2024L236.24 80.2139L236.219 80.2154L236.201 80.2238L236.182 80.2292L236.162 80.233L236.145 80.2422L236.126 80.2483L236.106 80.2506L236.087 80.2552L236.067 80.2613L236.048 80.2659L236.029 80.2689L236.009 80.2735L235.989 80.272L235.97 80.2781L235.951 80.2812L235.931 80.2819L235.911 80.2873L235.892 80.288L235.872 80.2896L235.853 80.2926L235.833 80.2941L235.813 80.2911L235.794 80.298L235.774 80.2972L235.754 80.2926L235.734 80.2995L235.714 80.2926L235.694 80.2972L235.675 80.2949L235.655 80.2919L235.635 80.2949L235.616 80.2896L235.596 80.288L235.577 80.2888L235.557 80.288L235.538 80.285L235.518 80.2804L235.497 80.2857L235.479 80.2789L235.459 80.2766L235.44 80.2712L235.42 80.2682L235.401 80.2659L235.38 80.2666L235.362 80.2559L235.342 80.2567L235.323 80.2514L235.304 80.2422H235.284L235.267 80.2315L235.248 80.2261L235.228 80.2223L235.209 80.2177L235.191 80.2086L235.173 80.2024L235.154 80.1956L235.135 80.1902L235.116 80.1841L235.096 80.1803L235.078 80.1726L235.061 80.1627L235.042 80.1574L235.025 80.1467L235.006 80.1405L234.99 80.1283L234.972 80.1199L234.954 80.1115L234.936 80.1039L234.918 80.0955L234.901 80.0863L234.885 80.0725L234.868 80.0641L234.85 80.055L234.833 80.0443L234.816 80.0359L234.8 80.0236L234.785 80.0099L234.769 79.9984L234.751 79.99L234.735 79.9778L234.72 79.9655L234.705 79.9533L234.689 79.9411L234.672 79.9304L234.657 79.9174L234.643 79.9044L234.63 79.8891L234.615 79.8761L234.6 79.8631L234.585 79.8502L234.567 79.8402L234.556 79.8242L234.54 79.8119L234.529 79.7951L234.516 79.7799L234.5 79.7684L234.484 79.7554L234.472 79.7401L234.463 79.7218L234.449 79.7073L234.435 79.6935L234.42 79.6805L234.413 79.6606L234.4 79.6461L234.388 79.6301L234.372 79.6171L234.365 79.598L234.349 79.585L234.341 79.5674L234.329 79.5514L234.319 79.5338L234.308 79.5177L234.3 79.4994L234.285 79.4856L234.278 79.4665L234.264 79.452L234.257 79.4329L234.25 79.4146L234.242 79.3962L234.231 79.3802L234.223 79.3618L234.21 79.3466L234.203 79.3275L234.199 79.3083L234.188 79.2908L234.182 79.2724L234.172 79.2549L234.169 79.235L234.163 79.2159L234.153 79.1991L234.143 79.1815L234.14 79.1616L234.13 79.144L234.13 79.1234L234.124 79.1051L234.116 79.0867L234.111 79.0669L234.105 79.0485L234.104 79.0287L234.099 79.0095L234.09 78.9912L234.088 78.9713L234.085 78.9515L234.084 78.9316L234.079 78.9125L234.078 78.8926L234.072 78.8743L234.07 78.8544L234.068 78.8345L234.066 78.8154L234.06 78.7956L234.062 78.7757L234.056 78.7566L234.058 78.7367L234.053 78.7169L234.059 78.697V78.6771L234.055 78.658L234.059 78.6382L234.057 78.6183L234.056 78.5984L234.058 78.5785L234.055 78.5587L234.061 78.5396L234.062 78.5197L234.059 78.4998L234.066 78.4807L234.061 78.4601L234.067 78.441L234.068 78.4211L234.074 78.402V78.3821L234.08 78.363L234.085 78.3439L234.082 78.3233L234.091 78.305L234.094 78.2859L234.095 78.266L234.099 78.2461L234.109 78.2285L234.113 78.2087L234.114 78.1888L234.121 78.1705L234.128 78.1521L234.134 78.133L234.143 78.1154L234.147 78.0956L234.15 78.0757L234.16 78.0589L234.166 78.0398L234.171 78.0207L234.18 78.0031L234.192 77.9863L234.195 77.9664L234.202 77.9481L234.215 77.932L234.22 77.9122L234.228 77.8946L234.242 77.8793L234.249 77.861L234.257 77.8426L234.27 77.8273L234.275 77.8075L234.29 77.7937L234.296 77.7739L234.307 77.7578L234.317 77.741L234.332 77.7272L234.338 77.7074L234.353 77.6936L234.363 77.6768L234.374 77.66L234.387 77.6447L234.4 77.6294L234.407 77.6111L234.424 77.5989L234.434 77.5813L234.45 77.5691L234.463 77.5538L234.475 77.5385L234.488 77.5232L234.501 77.5094L234.511 77.4919L234.53 77.4819L234.54 77.4644L234.554 77.4498L234.567 77.4353L234.585 77.4261L234.596 77.4093L234.615 77.4002L234.626 77.3826L234.642 77.3711L234.656 77.3566L234.674 77.3474L234.689 77.336L234.706 77.3237L234.719 77.31L234.735 77.297L234.754 77.2894L234.768 77.2764L234.785 77.2657L234.8 77.2527L234.818 77.2435L234.833 77.2305L234.851 77.2213L234.868 77.2114L234.886 77.2038L234.903 77.1938L234.918 77.1808L234.938 77.1755L234.956 77.1663L234.972 77.1549L234.99 77.1472L235.009 77.1411L235.025 77.1304L235.044 77.122L235.06 77.1113L235.079 77.1037L235.097 77.0975L235.115 77.0876L235.134 77.0823L235.153 77.0762L235.172 77.0708L235.19 77.0639L235.209 77.0586L235.227 77.0486L235.247 77.0463L235.266 77.0425L235.284 77.0334L235.304 77.0318L235.323 77.0257L235.342 77.0204L235.362 77.0173L235.382 77.0165L235.401 77.012L235.42 77.0081L235.439 77.002L235.458 76.9974L235.478 76.9929L235.498 76.9959L235.517 76.9898L235.537 76.9883L235.557 76.986L235.577 76.9875L235.596 76.9822L235.616 76.9852L235.635 76.9829L235.655 76.9814L235.674 76.9768L235.694 76.9799L235.714 76.9829L235.734 76.9806L235.754 76.9822L235.774 76.9806H235.794L235.814 76.9799L235.833 76.9822L235.853 76.9837L235.872 76.989L235.892 76.9921L235.911 76.989L235.931 76.9929L235.95 76.9959L235.97 76.9974L235.99 76.999L236.009 77.0081L236.028 77.0112L236.048 77.015L236.067 77.0188L236.086 77.0242L236.105 77.028L236.125 77.0303L236.144 77.0372L236.163 77.041L236.181 77.0479L236.201 77.0502L236.22 77.0578L236.239 77.0624L236.257 77.0723L236.275 77.0784L236.295 77.083L236.313 77.0907L236.331 77.1006L236.349 77.1067L236.368 77.1121L236.385 77.1228L236.405 77.1281L236.422 77.1358L236.438 77.1495L236.456 77.1579L236.475 77.1633L236.493 77.1717L236.508 77.1854L236.529 77.1893L236.545 77.1999L236.559 77.2152L236.58 77.2191L236.595 77.232L236.611 77.2435L236.627 77.2557L236.644 77.2649L236.661 77.2756L236.678 77.2848L236.692 77.3001L236.708 77.3115L236.725 77.3222L236.74 77.3344L236.757 77.3444L236.769 77.3612L236.787 77.3711L236.802 77.3841L236.817 77.3971L236.828 77.4132L236.844 77.4254L236.859 77.4384L236.875 77.4506L236.888 77.4651L236.903 77.4781L236.917 77.4919L236.931 77.5064L236.943 77.5217L236.954 77.5385L236.97 77.5515L236.978 77.5698L236.996 77.5805L237.003 77.6004L237.016 77.6149L237.03 77.6294L237.045 77.6432L237.053 77.6608L237.065 77.6768L237.078 77.6921L237.089 77.7081L237.101 77.7242L237.108 77.7425L237.123 77.757L237.131 77.7754L237.142 77.7922L237.15 77.8098L237.163 77.8258L237.171 77.8434L237.179 77.861L237.187 77.8793L237.199 77.8954L237.209 77.9122L237.213 77.9328L237.228 77.9473L237.231 77.9672L237.243 77.984L237.244 78.0046L237.257 78.0207L237.261 78.0406L237.27 78.0581L237.274 78.078L237.285 78.0948L237.286 78.1147L237.295 78.133L237.304 78.1506L237.307 78.1705L237.311 78.1903L237.319 78.2087L237.324 78.2278L237.325 78.2477L237.334 78.266L237.339 78.2851L237.342 78.3042L237.342 78.3248L237.351 78.3432L237.348 78.363L237.355 78.3821L237.354 78.402L237.357 78.4219L237.363 78.441L237.364 78.4609L237.367 78.48L237.372 78.4998L237.371 78.5197L237.372 78.5396L237.374 78.5587L237.371 78.5785L237.371 78.5984L237.372 78.6183L237.376 78.6382Z" fill="#86EFCE"/>
<mask id="path-3-inside-1_356_9857" fill="white">
<path d="M233.857 84.3146V84.3725L233.844 84.4281L233.853 84.486L233.855 84.5439L233.833 84.6018L233.848 84.6596L233.826 84.7153L233.831 84.7732V84.831L233.813 84.8867L233.817 84.9446L233.804 85.0024L233.786 85.0581L233.784 85.116L233.768 85.1716L233.773 85.2295L233.761 85.2874L233.735 85.3386L233.724 85.3964V85.4543L233.697 85.5077L233.688 85.5656L233.668 85.619L233.666 85.6791L233.634 85.7281L233.63 85.7882L233.606 85.8394L233.585 85.8928L233.57 85.9485L233.545 86.0019L233.519 86.0531L233.514 86.1132L233.474 86.1577L233.452 86.2112L233.436 86.2668L233.416 86.3202L233.381 86.3692L233.358 86.4204L233.334 86.4738L233.305 86.5228L233.294 86.5829L233.262 86.6319L233.222 86.6742L233.207 86.732L233.171 86.7766L233.142 86.8255L233.113 86.8767L233.084 86.9257L233.051 86.9724L233.011 87.0147L232.995 87.0748L232.946 87.1105L232.926 87.1661L232.893 87.2129L232.848 87.2507L232.819 87.3019L232.779 87.3442L232.748 87.3932L232.708 87.4332L232.661 87.4688L232.632 87.52L232.599 87.5668L232.55 87.6024L232.521 87.6536L232.478 87.6914L232.429 87.7248L232.4 87.776L232.345 87.8005L232.309 87.8473L232.265 87.8829L232.22 87.9207L232.187 87.9697L232.133 87.9964L232.095 88.0387L232.051 88.0765L232.002 88.1077L231.955 88.1411L231.908 88.1723L231.866 88.2123L231.826 88.2546L231.768 88.2724L231.725 88.3147L231.676 88.3414L231.627 88.3726L231.585 88.4127L231.529 88.4327L231.487 88.475L231.436 88.4995L231.382 88.524L231.336 88.5551L231.289 88.5908L231.235 88.6108L231.184 88.642L231.124 88.6509L231.079 88.6887L231.022 88.7021L230.975 88.7354L230.919 88.751L230.866 88.7755L230.81 88.7911L230.757 88.8111L230.705 88.8356L230.65 88.849L230.596 88.8712L230.547 88.9046L230.487 88.9091L230.436 88.9336L230.38 88.9491L230.322 88.9603L230.271 88.987L230.215 89.0048L230.157 89.0115L230.102 89.0248L230.046 89.0426L229.99 89.056L229.935 89.0649L229.877 89.0782L229.819 89.0738L229.763 89.0916L229.707 89.1005L229.647 89.1027L229.591 89.1183L229.534 89.1205L229.478 89.125L229.42 89.1339L229.362 89.1384L229.304 89.1294L229.248 89.1495L229.191 89.1473L229.133 89.1339L229.075 89.1539L229.017 89.1339L228.959 89.1473L228.903 89.1406L228.845 89.1317L228.787 89.1406L228.729 89.125L228.674 89.1205L228.616 89.1228L228.558 89.1205L228.502 89.1116L228.444 89.0983L228.384 89.1139L228.331 89.0938L228.273 89.0872L228.217 89.0716L228.159 89.0627L228.103 89.056L228.043 89.0582L227.992 89.0271L227.932 89.0293L227.876 89.0137L227.823 88.987H227.765L227.714 88.9558L227.658 88.9402L227.6 88.9291L227.544 88.9157L227.493 88.889L227.44 88.8712L227.384 88.8512L227.331 88.8356L227.275 88.8178L227.217 88.8067L227.163 88.7844L227.114 88.7555L227.059 88.7399L227.01 88.7087L226.954 88.6909L226.907 88.6553L226.856 88.6308L226.803 88.6063L226.749 88.5841L226.698 88.5596L226.647 88.5329L226.602 88.4928L226.551 88.4683L226.5 88.4416L226.451 88.4104L226.399 88.386L226.353 88.3503L226.31 88.3103L226.264 88.2769L226.212 88.2524L226.166 88.2168L226.121 88.1812L226.076 88.1456L226.03 88.1099L225.981 88.0788L225.938 88.0409L225.896 88.0031L225.858 87.9586L225.814 87.9207L225.771 87.8829L225.729 87.845L225.675 87.8161L225.642 87.7694L225.595 87.7337L225.564 87.6848L225.526 87.6402L225.479 87.6069L225.433 87.569L225.397 87.5245L225.373 87.4711L225.332 87.4288L225.29 87.3887L225.246 87.3509L225.226 87.293L225.188 87.2507L225.154 87.204L225.107 87.1661L225.087 87.1105L225.041 87.0726L225.016 87.0214L224.98 86.9747L224.954 86.9235L224.92 86.8767L224.898 86.8233L224.854 86.7832L224.833 86.7276L224.793 86.6853L224.773 86.6296L224.751 86.5762L224.729 86.5228L224.695 86.476L224.673 86.4226L224.635 86.3781L224.615 86.3225L224.602 86.2668L224.571 86.2156L224.553 86.1622L224.524 86.111L224.515 86.0531L224.497 85.9975L224.468 85.9485L224.439 85.8973L224.433 85.8394L224.404 85.7882L224.401 85.7281L224.384 85.6747L224.361 85.6213L224.348 85.5634L224.33 85.51L224.326 85.4521L224.312 85.3964L224.285 85.343L224.281 85.2851L224.272 85.2273L224.268 85.1694L224.254 85.1137L224.252 85.0559L224.232 85.0024L224.228 84.9446L224.221 84.8867L224.216 84.831L224.199 84.7732L224.203 84.7153L224.185 84.6596L224.192 84.6018L224.179 84.5439L224.196 84.486V84.4281L224.183 84.3725L224.194 84.3146L224.19 84.2567L224.185 84.1988L224.192 84.141L224.183 84.0831L224.201 84.0274L224.205 83.9696L224.196 83.9117L224.216 83.856L224.201 83.7959L224.219 83.7403L224.221 83.6824L224.239 83.6268V83.5689L224.257 83.5132L224.27 83.4576L224.261 83.3975L224.288 83.3441L224.297 83.2884L224.301 83.2305L224.312 83.1727L224.341 83.1215L224.352 83.0636L224.357 83.0057L224.375 82.9523L224.397 82.8989L224.415 82.8432L224.441 82.792L224.45 82.7341L224.461 82.6763L224.49 82.6273L224.506 82.5716L224.522 82.516L224.548 82.4648L224.582 82.4158L224.593 82.3579L224.613 82.3045L224.651 82.2578L224.664 82.1999L224.689 82.1487L224.729 82.1042L224.749 82.0508L224.771 81.9973L224.809 81.9528L224.825 81.8949L224.869 81.8549L224.887 81.797L224.918 81.7502L224.947 81.7013L224.992 81.6612L225.009 81.6033L225.052 81.5633L225.081 81.5143L225.114 81.4653L225.152 81.4208L225.188 81.3763L225.21 81.3228L225.259 81.2872L225.288 81.236L225.335 81.2004L225.373 81.1559L225.406 81.1114L225.444 81.0669L225.484 81.0268L225.513 80.9756L225.566 80.9467L225.598 80.8955L225.638 80.8532L225.675 80.8109L225.729 80.7842L225.76 80.7352L225.816 80.7085L225.847 80.6573L225.894 80.6239L225.934 80.5816L225.987 80.5549L226.032 80.5215L226.079 80.4859L226.119 80.4458L226.163 80.408L226.219 80.3857L226.261 80.3479L226.31 80.3167L226.353 80.2789L226.406 80.2521L226.451 80.2143L226.502 80.1876L226.551 80.1586L226.604 80.1364L226.653 80.1074L226.698 80.0696L226.756 80.054L226.807 80.0273L226.854 79.9939L226.907 79.9717L226.963 79.9539L227.01 79.9227L227.063 79.8982L227.112 79.867L227.166 79.8448L227.219 79.827L227.27 79.798L227.326 79.7825L227.382 79.7646L227.437 79.7491L227.491 79.729L227.547 79.7134L227.598 79.6845L227.656 79.6778L227.711 79.6667L227.763 79.64L227.823 79.6355L227.876 79.6177L227.932 79.6021L227.99 79.5932L228.048 79.591L228.103 79.5777L228.159 79.5665L228.215 79.5487L228.271 79.5354L228.328 79.522L228.386 79.5309L228.442 79.5131L228.5 79.5087L228.558 79.502L228.616 79.5064L228.672 79.4908L228.729 79.4998L228.787 79.4931L228.845 79.4886L228.901 79.4753L228.959 79.4842L229.017 79.4931L229.075 79.4864L229.133 79.4908L229.191 79.4864H229.248L229.306 79.4842L229.362 79.4908L229.42 79.4953L229.476 79.5109L229.534 79.5198L229.591 79.5109L229.649 79.522L229.705 79.5309L229.763 79.5354L229.821 79.5398L229.874 79.5665L229.932 79.5754L229.988 79.5866L230.044 79.5977L230.099 79.6133L230.155 79.6244L230.213 79.6311L230.269 79.6511L230.324 79.6622L230.378 79.6823L230.436 79.689L230.489 79.7112L230.545 79.7246L230.598 79.7535L230.652 79.7713L230.707 79.7847L230.761 79.8069L230.812 79.8359L230.866 79.8537L230.921 79.8693L230.97 79.9004L231.028 79.916L231.079 79.9383L231.124 79.9783L231.178 80.0028L231.233 80.0184L231.284 80.0429L231.329 80.083L231.389 80.0941L231.438 80.1253L231.478 80.1698L231.538 80.1809L231.583 80.2188L231.63 80.2521L231.676 80.2878L231.725 80.3145L231.774 80.3456L231.826 80.3723L231.866 80.4169L231.913 80.4503L231.962 80.4814L232.006 80.517L232.055 80.546L232.091 80.5949L232.142 80.6239L232.184 80.6617L232.229 80.6996L232.262 80.7463L232.309 80.7819L232.351 80.8198L232.398 80.8554L232.436 80.8977L232.481 80.9355L232.521 80.9756L232.561 81.0179L232.596 81.0624L232.628 81.1114L232.674 81.1492L232.699 81.2026L232.75 81.2338L232.772 81.2917L232.81 81.334L232.85 81.3763L232.893 81.4163L232.917 81.4675L232.953 81.5143L232.991 81.5588L233.022 81.6056L233.055 81.6523L233.078 81.7057L233.12 81.748L233.144 81.8014L233.176 81.8504L233.198 81.9016L233.236 81.9484L233.26 81.9996L233.285 82.0508L233.307 82.1042L233.343 82.1509L233.372 82.1999L233.383 82.26L233.425 82.3023L233.436 82.3602L233.47 82.4091L233.474 82.4692L233.51 82.516L233.523 82.5739L233.548 82.6251L233.561 82.6829L233.592 82.7319L233.597 82.7898L233.621 82.8432L233.648 82.8944L233.657 82.9523L233.668 83.0102L233.692 83.0636L233.706 83.1192L233.708 83.1771L233.735 83.2305L233.75 83.2862L233.759 83.3418L233.757 83.4019L233.784 83.4554L233.777 83.5132L233.797 83.5689L233.793 83.6268L233.802 83.6846L233.819 83.7403L233.824 83.7982L233.831 83.8538L233.846 83.9117L233.844 83.9696L233.846 84.0274L233.851 84.0831L233.844 84.141L233.842 84.1988L233.846 84.2567L233.857 84.3146Z"/>
</mask>
<path d="M233.857 84.3146V84.3725L233.844 84.4281L233.853 84.486L233.855 84.5439L233.833 84.6018L233.848 84.6596L233.826 84.7153L233.831 84.7732V84.831L233.813 84.8867L233.817 84.9446L233.804 85.0024L233.786 85.0581L233.784 85.116L233.768 85.1716L233.773 85.2295L233.761 85.2874L233.735 85.3386L233.724 85.3964V85.4543L233.697 85.5077L233.688 85.5656L233.668 85.619L233.666 85.6791L233.634 85.7281L233.63 85.7882L233.606 85.8394L233.585 85.8928L233.57 85.9485L233.545 86.0019L233.519 86.0531L233.514 86.1132L233.474 86.1577L233.452 86.2112L233.436 86.2668L233.416 86.3202L233.381 86.3692L233.358 86.4204L233.334 86.4738L233.305 86.5228L233.294 86.5829L233.262 86.6319L233.222 86.6742L233.207 86.732L233.171 86.7766L233.142 86.8255L233.113 86.8767L233.084 86.9257L233.051 86.9724L233.011 87.0147L232.995 87.0748L232.946 87.1105L232.926 87.1661L232.893 87.2129L232.848 87.2507L232.819 87.3019L232.779 87.3442L232.748 87.3932L232.708 87.4332L232.661 87.4688L232.632 87.52L232.599 87.5668L232.55 87.6024L232.521 87.6536L232.478 87.6914L232.429 87.7248L232.4 87.776L232.345 87.8005L232.309 87.8473L232.265 87.8829L232.22 87.9207L232.187 87.9697L232.133 87.9964L232.095 88.0387L232.051 88.0765L232.002 88.1077L231.955 88.1411L231.908 88.1723L231.866 88.2123L231.826 88.2546L231.768 88.2724L231.725 88.3147L231.676 88.3414L231.627 88.3726L231.585 88.4127L231.529 88.4327L231.487 88.475L231.436 88.4995L231.382 88.524L231.336 88.5551L231.289 88.5908L231.235 88.6108L231.184 88.642L231.124 88.6509L231.079 88.6887L231.022 88.7021L230.975 88.7354L230.919 88.751L230.866 88.7755L230.81 88.7911L230.757 88.8111L230.705 88.8356L230.65 88.849L230.596 88.8712L230.547 88.9046L230.487 88.9091L230.436 88.9336L230.38 88.9491L230.322 88.9603L230.271 88.987L230.215 89.0048L230.157 89.0115L230.102 89.0248L230.046 89.0426L229.99 89.056L229.935 89.0649L229.877 89.0782L229.819 89.0738L229.763 89.0916L229.707 89.1005L229.647 89.1027L229.591 89.1183L229.534 89.1205L229.478 89.125L229.42 89.1339L229.362 89.1384L229.304 89.1294L229.248 89.1495L229.191 89.1473L229.133 89.1339L229.075 89.1539L229.017 89.1339L228.959 89.1473L228.903 89.1406L228.845 89.1317L228.787 89.1406L228.729 89.125L228.674 89.1205L228.616 89.1228L228.558 89.1205L228.502 89.1116L228.444 89.0983L228.384 89.1139L228.331 89.0938L228.273 89.0872L228.217 89.0716L228.159 89.0627L228.103 89.056L228.043 89.0582L227.992 89.0271L227.932 89.0293L227.876 89.0137L227.823 88.987H227.765L227.714 88.9558L227.658 88.9402L227.6 88.9291L227.544 88.9157L227.493 88.889L227.44 88.8712L227.384 88.8512L227.331 88.8356L227.275 88.8178L227.217 88.8067L227.163 88.7844L227.114 88.7555L227.059 88.7399L227.01 88.7087L226.954 88.6909L226.907 88.6553L226.856 88.6308L226.803 88.6063L226.749 88.5841L226.698 88.5596L226.647 88.5329L226.602 88.4928L226.551 88.4683L226.5 88.4416L226.451 88.4104L226.399 88.386L226.353 88.3503L226.31 88.3103L226.264 88.2769L226.212 88.2524L226.166 88.2168L226.121 88.1812L226.076 88.1456L226.03 88.1099L225.981 88.0788L225.938 88.0409L225.896 88.0031L225.858 87.9586L225.814 87.9207L225.771 87.8829L225.729 87.845L225.675 87.8161L225.642 87.7694L225.595 87.7337L225.564 87.6848L225.526 87.6402L225.479 87.6069L225.433 87.569L225.397 87.5245L225.373 87.4711L225.332 87.4288L225.29 87.3887L225.246 87.3509L225.226 87.293L225.188 87.2507L225.154 87.204L225.107 87.1661L225.087 87.1105L225.041 87.0726L225.016 87.0214L224.98 86.9747L224.954 86.9235L224.92 86.8767L224.898 86.8233L224.854 86.7832L224.833 86.7276L224.793 86.6853L224.773 86.6296L224.751 86.5762L224.729 86.5228L224.695 86.476L224.673 86.4226L224.635 86.3781L224.615 86.3225L224.602 86.2668L224.571 86.2156L224.553 86.1622L224.524 86.111L224.515 86.0531L224.497 85.9975L224.468 85.9485L224.439 85.8973L224.433 85.8394L224.404 85.7882L224.401 85.7281L224.384 85.6747L224.361 85.6213L224.348 85.5634L224.33 85.51L224.326 85.4521L224.312 85.3964L224.285 85.343L224.281 85.2851L224.272 85.2273L224.268 85.1694L224.254 85.1137L224.252 85.0559L224.232 85.0024L224.228 84.9446L224.221 84.8867L224.216 84.831L224.199 84.7732L224.203 84.7153L224.185 84.6596L224.192 84.6018L224.179 84.5439L224.196 84.486V84.4281L224.183 84.3725L224.194 84.3146L224.19 84.2567L224.185 84.1988L224.192 84.141L224.183 84.0831L224.201 84.0274L224.205 83.9696L224.196 83.9117L224.216 83.856L224.201 83.7959L224.219 83.7403L224.221 83.6824L224.239 83.6268V83.5689L224.257 83.5132L224.27 83.4576L224.261 83.3975L224.288 83.3441L224.297 83.2884L224.301 83.2305L224.312 83.1727L224.341 83.1215L224.352 83.0636L224.357 83.0057L224.375 82.9523L224.397 82.8989L224.415 82.8432L224.441 82.792L224.45 82.7341L224.461 82.6763L224.49 82.6273L224.506 82.5716L224.522 82.516L224.548 82.4648L224.582 82.4158L224.593 82.3579L224.613 82.3045L224.651 82.2578L224.664 82.1999L224.689 82.1487L224.729 82.1042L224.749 82.0508L224.771 81.9973L224.809 81.9528L224.825 81.8949L224.869 81.8549L224.887 81.797L224.918 81.7502L224.947 81.7013L224.992 81.6612L225.009 81.6033L225.052 81.5633L225.081 81.5143L225.114 81.4653L225.152 81.4208L225.188 81.3763L225.21 81.3228L225.259 81.2872L225.288 81.236L225.335 81.2004L225.373 81.1559L225.406 81.1114L225.444 81.0669L225.484 81.0268L225.513 80.9756L225.566 80.9467L225.598 80.8955L225.638 80.8532L225.675 80.8109L225.729 80.7842L225.76 80.7352L225.816 80.7085L225.847 80.6573L225.894 80.6239L225.934 80.5816L225.987 80.5549L226.032 80.5215L226.079 80.4859L226.119 80.4458L226.163 80.408L226.219 80.3857L226.261 80.3479L226.31 80.3167L226.353 80.2789L226.406 80.2521L226.451 80.2143L226.502 80.1876L226.551 80.1586L226.604 80.1364L226.653 80.1074L226.698 80.0696L226.756 80.054L226.807 80.0273L226.854 79.9939L226.907 79.9717L226.963 79.9539L227.01 79.9227L227.063 79.8982L227.112 79.867L227.166 79.8448L227.219 79.827L227.27 79.798L227.326 79.7825L227.382 79.7646L227.437 79.7491L227.491 79.729L227.547 79.7134L227.598 79.6845L227.656 79.6778L227.711 79.6667L227.763 79.64L227.823 79.6355L227.876 79.6177L227.932 79.6021L227.99 79.5932L228.048 79.591L228.103 79.5777L228.159 79.5665L228.215 79.5487L228.271 79.5354L228.328 79.522L228.386 79.5309L228.442 79.5131L228.5 79.5087L228.558 79.502L228.616 79.5064L228.672 79.4908L228.729 79.4998L228.787 79.4931L228.845 79.4886L228.901 79.4753L228.959 79.4842L229.017 79.4931L229.075 79.4864L229.133 79.4908L229.191 79.4864H229.248L229.306 79.4842L229.362 79.4908L229.42 79.4953L229.476 79.5109L229.534 79.5198L229.591 79.5109L229.649 79.522L229.705 79.5309L229.763 79.5354L229.821 79.5398L229.874 79.5665L229.932 79.5754L229.988 79.5866L230.044 79.5977L230.099 79.6133L230.155 79.6244L230.213 79.6311L230.269 79.6511L230.324 79.6622L230.378 79.6823L230.436 79.689L230.489 79.7112L230.545 79.7246L230.598 79.7535L230.652 79.7713L230.707 79.7847L230.761 79.8069L230.812 79.8359L230.866 79.8537L230.921 79.8693L230.97 79.9004L231.028 79.916L231.079 79.9383L231.124 79.9783L231.178 80.0028L231.233 80.0184L231.284 80.0429L231.329 80.083L231.389 80.0941L231.438 80.1253L231.478 80.1698L231.538 80.1809L231.583 80.2188L231.63 80.2521L231.676 80.2878L231.725 80.3145L231.774 80.3456L231.826 80.3723L231.866 80.4169L231.913 80.4503L231.962 80.4814L232.006 80.517L232.055 80.546L232.091 80.5949L232.142 80.6239L232.184 80.6617L232.229 80.6996L232.262 80.7463L232.309 80.7819L232.351 80.8198L232.398 80.8554L232.436 80.8977L232.481 80.9355L232.521 80.9756L232.561 81.0179L232.596 81.0624L232.628 81.1114L232.674 81.1492L232.699 81.2026L232.75 81.2338L232.772 81.2917L232.81 81.334L232.85 81.3763L232.893 81.4163L232.917 81.4675L232.953 81.5143L232.991 81.5588L233.022 81.6056L233.055 81.6523L233.078 81.7057L233.12 81.748L233.144 81.8014L233.176 81.8504L233.198 81.9016L233.236 81.9484L233.26 81.9996L233.285 82.0508L233.307 82.1042L233.343 82.1509L233.372 82.1999L233.383 82.26L233.425 82.3023L233.436 82.3602L233.47 82.4091L233.474 82.4692L233.51 82.516L233.523 82.5739L233.548 82.6251L233.561 82.6829L233.592 82.7319L233.597 82.7898L233.621 82.8432L233.648 82.8944L233.657 82.9523L233.668 83.0102L233.692 83.0636L233.706 83.1192L233.708 83.1771L233.735 83.2305L233.75 83.2862L233.759 83.3418L233.757 83.4019L233.784 83.4554L233.777 83.5132L233.797 83.5689L233.793 83.6268L233.802 83.6846L233.819 83.7403L233.824 83.7982L233.831 83.8538L233.846 83.9117L233.844 83.9696L233.846 84.0274L233.851 84.0831L233.844 84.141L233.842 84.1988L233.846 84.2567L233.857 84.3146Z" fill="#E1FCEE" stroke="black" stroke-width="2" mask="url(#path-3-inside-1_356_9857)"/>
<path opacity="0.3" d="M2.43678 16.1745L206.447 11.4002L212.653 83.3697L8.64023 99.5271L2.43678 16.1745Z" fill="url(#paint0_linear_356_9857)"/>
<path d="M4.06613 38.2135L2.21875 16.0524L37.7694 14.8981" stroke="#080B0E" stroke-linecap="round" stroke-linejoin="round"/>
<path d="M5.79486 10.3142V10.334L5.79027 10.3532L5.79333 10.373L5.7941 10.3929L5.78645 10.4128L5.7918 10.4326L5.78415 10.4517L5.78568 10.4716V10.4915L5.77957 10.5106L5.7811 10.5304L5.77651 10.5503L5.77039 10.5694L5.76962 10.5893L5.76427 10.6084L5.7658 10.6283L5.76198 10.6481L5.7528 10.6657L5.74898 10.6856V10.7054L5.7398 10.7238L5.73674 10.7437L5.72986 10.762L5.72909 10.7826L5.71839 10.7994L5.71686 10.8201L5.70845 10.8376L5.70156 10.856L5.69621 10.8751L5.6878 10.8934L5.67862 10.911L5.67709 10.9316L5.66333 10.9469L5.65568 10.9653L5.65033 10.9844L5.64345 11.0027L5.63121 11.0195L5.62356 11.0371L5.61515 11.0554L5.60521 11.0723L5.60139 11.0929L5.59068 11.1097L5.57692 11.1242L5.57156 11.1441L5.55933 11.1594L5.54939 11.1762L5.53944 11.1938L5.5295 11.2106L5.51803 11.2266L5.50427 11.2411L5.49891 11.2618L5.48209 11.274L5.47521 11.2931L5.46374 11.3092L5.44844 11.3221L5.4385 11.3397L5.42474 11.3542L5.41403 11.3711L5.40027 11.3848L5.38421 11.397L5.37427 11.4146L5.3628 11.4307L5.34597 11.4429L5.33603 11.4605L5.3215 11.4735L5.30468 11.4849L5.29474 11.5025L5.27562 11.5109L5.26338 11.5269L5.24809 11.5392L5.23279 11.5522L5.22132 11.569L5.20297 11.5781L5.18997 11.5927L5.17467 11.6057L5.15785 11.6164L5.14179 11.6278L5.12573 11.6385L5.1112 11.6523L5.09744 11.6668L5.07756 11.6729L5.06303 11.6874L5.0462 11.6966L5.02938 11.7073L5.01485 11.721L4.99573 11.7279L4.9812 11.7424L4.96361 11.7509L4.94526 11.7593L4.9292 11.77L4.91314 11.7822L4.89479 11.7891L4.8772 11.7998L4.85655 11.8028L4.84126 11.8158L4.82138 11.8204L4.80532 11.8319L4.7862 11.8372L4.76785 11.8456L4.74873 11.851L4.73037 11.8578L4.71279 11.8662L4.69367 11.8708L4.67532 11.8785L4.65849 11.8899L4.63784 11.8915L4.62026 11.8999L4.60114 11.9052L4.58126 11.909L4.56367 11.9182L4.54455 11.9243L4.52467 11.9266L4.50555 11.9312L4.48643 11.9373L4.46731 11.9419L4.44819 11.945L4.42831 11.9495L4.40843 11.948L4.38931 11.9541L4.37019 11.9572L4.34955 11.9579L4.33043 11.9633L4.31055 11.9641L4.29143 11.9656L4.27155 11.9686L4.25166 11.9702L4.23178 11.9671L4.21266 11.974L4.19278 11.9732L4.1729 11.9686L4.15301 11.9755L4.13313 11.9686L4.11325 11.9732L4.09413 11.9709L4.07425 11.9679L4.05437 11.9709L4.03448 11.9656L4.01537 11.9641L3.99548 11.9648L3.9756 11.9641L3.95648 11.961L3.9366 11.9564L3.91595 11.9618L3.8976 11.9549L3.87772 11.9526L3.8586 11.9472L3.83872 11.9442L3.8196 11.9419L3.79895 11.9427L3.78136 11.932L3.76071 11.9327L3.7416 11.9274L3.72324 11.9182H3.70336L3.68577 11.9075L3.66665 11.9022L3.64677 11.8983L3.62765 11.8938L3.61007 11.8846L3.59171 11.8785L3.57259 11.8716L3.55424 11.8662L3.53512 11.8601L3.51524 11.8563L3.49689 11.8487L3.48006 11.8387L3.46095 11.8334L3.44412 11.8227L3.425 11.8166L3.40895 11.8043L3.39136 11.7959L3.373 11.7875L3.35465 11.7799L3.33706 11.7715L3.31947 11.7623L3.30418 11.7486L3.28659 11.7402L3.269 11.731L3.25218 11.7203L3.23459 11.7119L3.21853 11.6997L3.204 11.6859L3.18794 11.6744L3.17035 11.666L3.15429 11.6538L3.139 11.6416L3.12371 11.6293L3.10765 11.6171L3.09082 11.6064L3.07629 11.5934L3.06176 11.5804L3.04876 11.5652L3.03347 11.5522L3.01894 11.5392L3.00441 11.5262L2.98606 11.5162L2.97459 11.5002L2.95853 11.488L2.94782 11.4712L2.93482 11.4559L2.91876 11.4444L2.9027 11.4314L2.89047 11.4161L2.88206 11.3978L2.86829 11.3833L2.85376 11.3695L2.83847 11.3565L2.83158 11.3367L2.81858 11.3221L2.80711 11.3061L2.79105 11.2931L2.78417 11.274L2.76811 11.261L2.7597 11.2434L2.74747 11.2274L2.73829 11.2098L2.72682 11.1938L2.71917 11.1754L2.70388 11.1617L2.69699 11.1426L2.68323 11.128L2.67635 11.1089L2.6687 11.0906L2.66105 11.0723L2.64958 11.0562L2.64193 11.0379L2.62893 11.0226L2.62205 11.0035L2.61746 10.9844L2.60676 10.9668L2.60064 10.9485L2.5907 10.9309L2.58764 10.911L2.58152 10.8919L2.57158 10.8751L2.56164 10.8575L2.55935 10.8376L2.5494 10.8201L2.54864 10.7994L2.54252 10.7811L2.53487 10.7628L2.53029 10.7429L2.52417 10.7245L2.52264 10.7047L2.51805 10.6856L2.50887 10.6672L2.50734 10.6474L2.50429 10.6275L2.50276 10.6076L2.49817 10.5885L2.4974 10.5687L2.49052 10.5503L2.48899 10.5304L2.4867 10.5106L2.48517 10.4915L2.47905 10.4716L2.48058 10.4517L2.47446 10.4326L2.47676 10.4128L2.47217 10.3929L2.47829 10.373V10.3532L2.4737 10.334L2.47752 10.3142L2.47599 10.2943L2.47446 10.2744L2.47676 10.2546L2.4737 10.2347L2.47982 10.2156L2.48134 10.1957L2.47829 10.1759L2.48517 10.1568L2.47982 10.1361L2.48593 10.117L2.4867 10.0971L2.49282 10.078V10.0582L2.49893 10.0391L2.50352 10.02L2.50046 9.99933L2.50964 9.98099L2.5127 9.96189L2.51423 9.94202L2.51805 9.92215L2.52799 9.90457L2.53182 9.8847L2.53335 9.86484L2.53946 9.84649L2.54711 9.82815L2.55323 9.80905L2.5624 9.79147L2.56546 9.7716L2.56929 9.75174L2.57923 9.73492L2.58458 9.71582L2.58993 9.69671L2.59911 9.67914L2.61058 9.66233L2.61441 9.64246L2.62129 9.62412L2.63429 9.60807L2.63888 9.5882L2.64729 9.57062L2.66105 9.55534L2.66794 9.537L2.67558 9.51866L2.68858 9.50337L2.69394 9.48351L2.70923 9.46975L2.71535 9.44988L2.72605 9.43383L2.736 9.41702L2.75129 9.40327L2.75741 9.3834L2.77194 9.36964L2.78188 9.35283L2.79335 9.33602L2.80635 9.32073L2.81858 9.30545L2.82623 9.28711L2.84306 9.27488L2.853 9.25731L2.86906 9.24508L2.88206 9.22979L2.89353 9.21451L2.90653 9.19923L2.92029 9.18547L2.93023 9.1679L2.94859 9.15796L2.95929 9.14038L2.97306 9.12586L2.98606 9.11135L3.00441 9.10217L3.01512 9.08536L3.03423 9.07619L3.04494 9.05862L3.061 9.04715L3.07476 9.03263L3.09312 9.02346L3.10841 9.012L3.12447 8.99977L3.13824 8.98602L3.15353 8.97303L3.17265 8.96539L3.18718 8.95239L3.204 8.9417L3.21853 8.9287L3.23688 8.91953L3.25218 8.90654L3.26977 8.89737L3.28659 8.88744L3.30494 8.8798L3.32177 8.86986L3.33706 8.85687L3.35694 8.85152L3.37453 8.84235L3.39059 8.83089L3.40895 8.82325L3.42806 8.81713L3.44412 8.80643L3.46248 8.79803L3.4793 8.78733L3.49765 8.77969L3.51601 8.77357L3.53359 8.76364L3.55271 8.75829L3.57183 8.75218L3.59095 8.74683L3.6093 8.73995L3.62842 8.7346L3.64601 8.72467L3.66589 8.72237L3.68501 8.71855L3.7026 8.70938L3.72324 8.70785L3.7416 8.70174L3.76071 8.69639L3.7806 8.69333L3.80048 8.69257L3.8196 8.68798L3.83872 8.68416L3.85783 8.67805L3.87695 8.67347L3.89683 8.66888L3.91672 8.67194L3.93583 8.66582L3.95572 8.66429L3.9756 8.662L3.99548 8.66353L4.0146 8.65818L4.03448 8.66124L4.05437 8.65895L4.07425 8.65742L4.09337 8.65283L4.11325 8.65589L4.13313 8.65895L4.15301 8.65665L4.1729 8.65818L4.19278 8.65665H4.21266L4.23254 8.65589L4.25166 8.65818L4.27155 8.65971L4.29066 8.66506L4.31055 8.66812L4.33043 8.66506L4.35031 8.66888L4.36943 8.67194L4.38931 8.67347L4.40919 8.67499L4.42755 8.68416L4.44743 8.68722L4.46655 8.69104L4.48567 8.69486L4.50478 8.70021L4.5239 8.70403L4.54378 8.70633L4.5629 8.7132L4.58202 8.71702L4.60037 8.7239L4.62026 8.72619L4.63861 8.73384L4.65773 8.73842L4.67608 8.74836L4.69443 8.75447L4.71355 8.75905L4.7319 8.7667L4.74949 8.77663L4.76785 8.78274L4.78696 8.78809L4.80379 8.79879L4.82367 8.80414L4.84126 8.81178L4.85655 8.82554L4.87491 8.83394L4.89402 8.83929L4.91161 8.8477L4.92691 8.86146L4.94755 8.86528L4.96438 8.87598L4.97814 8.89126L4.99879 8.89508L5.01408 8.90807L5.03014 8.91953L5.0462 8.93176L5.06303 8.94093L5.07985 8.95163L5.09744 8.9608L5.1112 8.97608L5.12726 8.98755L5.14409 8.99825L5.15938 9.01047L5.1762 9.02041L5.18844 9.03722L5.20603 9.04715L5.22056 9.06014L5.23585 9.07314L5.24732 9.08918L5.26338 9.10141L5.27791 9.1144L5.29397 9.12663L5.30697 9.14115L5.32227 9.15414L5.33603 9.1679L5.34979 9.18241L5.36203 9.1977L5.37274 9.21451L5.3888 9.2275L5.39721 9.24584L5.4148 9.25654L5.42244 9.27641L5.43544 9.29093L5.44921 9.30545L5.46374 9.3192L5.47215 9.33678L5.48439 9.35283L5.49739 9.36811L5.50809 9.38416L5.51956 9.40021L5.52721 9.41855L5.54174 9.43307L5.55015 9.45141L5.56086 9.46822L5.5685 9.4858L5.5815 9.50185L5.58992 9.51942L5.59833 9.537L5.60597 9.55534L5.61821 9.57139L5.62815 9.5882L5.63198 9.60883L5.6465 9.62335L5.65033 9.64322L5.6618 9.66003L5.66333 9.68067L5.67556 9.69671L5.68015 9.71658L5.68856 9.73416L5.69315 9.75403L5.70386 9.77084L5.70539 9.79071L5.7138 9.80905L5.72298 9.82663L5.72604 9.84649L5.72986 9.86636L5.73827 9.8847L5.74286 9.90381L5.74362 9.92368L5.7528 9.94202L5.75815 9.96112L5.76121 9.98023L5.76045 10.0009L5.76962 10.0192L5.76733 10.0391L5.77421 10.0582L5.77268 10.078L5.77574 10.0979L5.78186 10.117L5.78339 10.1369L5.78568 10.156L5.79104 10.1759L5.79027 10.1957L5.79104 10.2156L5.79257 10.2347L5.79027 10.2546L5.78951 10.2744L5.79104 10.2943L5.79486 10.3142Z" fill="#C7F8F6"/>
<mask id="path-7-inside-2_356_9857" fill="white">
<path d="M11.1488 15.0234V15.0554L11.1414 15.0861L11.1463 15.1182L11.1475 15.1502L11.1352 15.1822L11.1438 15.2142L11.1315 15.245L11.134 15.277V15.309L11.1241 15.3398L11.1266 15.3718L11.1192 15.4038L11.1093 15.4346L11.1081 15.4666L11.0995 15.4974L11.1019 15.5294L11.0958 15.5614L11.081 15.5897L11.0748 15.6217V15.6537L11.06 15.6833L11.0551 15.7153L11.044 15.7449L11.0428 15.7781L11.0256 15.8052L11.0231 15.8384L11.0095 15.8667L10.9984 15.8963L10.9898 15.9271L10.9763 15.9566L10.9615 15.9849L10.959 16.0182L10.9368 16.0428L10.9245 16.0724L10.9159 16.1031L10.9048 16.1327L10.8851 16.1598L10.8728 16.1881L10.8592 16.2177L10.8432 16.2447L10.837 16.278L10.8198 16.3051L10.7976 16.3285L10.789 16.3605L10.7693 16.3851L10.7533 16.4122L10.7372 16.4405L10.7212 16.4676L10.7027 16.4934L10.6806 16.5168L10.6719 16.5501L10.6448 16.5698L10.6337 16.6006L10.6153 16.6264L10.5906 16.6474L10.5746 16.6757L10.5524 16.6991L10.5352 16.7262L10.513 16.7483L10.4871 16.768L10.4711 16.7963L10.4526 16.8222L10.4255 16.8419L10.4095 16.8702L10.3861 16.8911L10.359 16.9096L10.343 16.9379L10.3122 16.9515L10.2925 16.9773L10.2678 16.997L10.2432 17.018L10.2247 17.045L10.1951 17.0598L10.1742 17.0832L10.1495 17.1041L10.1224 17.1214L10.0966 17.1398L10.0707 17.1571L10.0473 17.1792L10.0251 17.2026L9.99306 17.2125L9.96965 17.2359L9.94254 17.2507L9.91544 17.2679L9.89203 17.2901L9.86123 17.3011L9.83782 17.3245L9.80948 17.3381L9.77991 17.3516L9.75403 17.3689L9.72816 17.3886L9.69859 17.3996L9.67025 17.4169L9.63699 17.4218L9.61234 17.4427L9.58031 17.4501L9.55444 17.4686L9.52363 17.4772L9.49406 17.4908L9.46326 17.4994L9.43369 17.5105L9.40535 17.524L9.37455 17.5314L9.34498 17.5437L9.31788 17.5622L9.28461 17.5646L9.25627 17.5782L9.22547 17.5868L9.19343 17.5929L9.1651 17.6077L9.13429 17.6176L9.10226 17.6213L9.07146 17.6287L9.04066 17.6385L9.00985 17.6459L8.97905 17.6508L8.94702 17.6582L8.91498 17.6557L8.88418 17.6656L8.85338 17.6705L8.82011 17.6717L8.78931 17.6804L8.75727 17.6816L8.72647 17.6841L8.69444 17.689L8.6624 17.6914L8.63037 17.6865L8.59957 17.6976L8.56753 17.6964L8.5355 17.689L8.50346 17.7001L8.47143 17.689L8.4394 17.6964L8.40859 17.6927L8.37656 17.6878L8.34452 17.6927L8.31249 17.6841L8.28169 17.6816L8.24965 17.6828L8.21762 17.6816L8.18682 17.6767L8.15478 17.6693L8.12152 17.6779L8.09195 17.6668L8.05991 17.6631L8.02911 17.6545L7.99708 17.6496L7.96627 17.6459L7.93301 17.6471L7.90467 17.6299L7.8714 17.6311L7.8406 17.6225L7.81103 17.6077H7.779L7.75066 17.5905L7.71986 17.5819L7.68782 17.5757L7.65702 17.5683L7.62868 17.5535L7.59911 17.5437L7.56831 17.5326L7.53874 17.524L7.50794 17.5141L7.4759 17.508L7.44633 17.4957L7.41923 17.4797L7.38842 17.4711L7.36132 17.4538L7.33052 17.444L7.30464 17.4243L7.2763 17.4107L7.24673 17.3972L7.21716 17.3849L7.18883 17.3713L7.16049 17.3565L7.13585 17.3344L7.10751 17.3208L7.07917 17.3061L7.05206 17.2888L7.02373 17.2753L6.99785 17.2556L6.97444 17.2334L6.94857 17.215L6.92023 17.2014L6.89436 17.1817L6.86971 17.162L6.84507 17.1423L6.8192 17.1226L6.79209 17.1054L6.76868 17.0844L6.74527 17.0635L6.72433 17.0389L6.69969 17.018L6.67628 16.997L6.65287 16.9761L6.6233 16.9601L6.60482 16.9342L6.57894 16.9145L6.56169 16.8874L6.54075 16.8628L6.51487 16.8444L6.489 16.8234L6.46929 16.7988L6.45573 16.7692L6.43356 16.7459L6.41015 16.7237L6.3855 16.7028L6.37441 16.6707L6.35347 16.6474L6.33499 16.6215L6.30911 16.6006L6.29803 16.5698L6.27215 16.5489L6.2586 16.5205L6.23888 16.4947L6.2241 16.4664L6.20562 16.4405L6.1933 16.411L6.16866 16.3888L6.15757 16.358L6.13539 16.3346L6.1243 16.3038L6.11198 16.2743L6.09966 16.2447L6.08118 16.2189L6.06886 16.1893L6.04791 16.1647L6.03682 16.1339L6.02943 16.1031L6.01218 16.0748L6.00232 16.0453L5.98631 16.017L5.98138 15.9849L5.97152 15.9542L5.9555 15.9271L5.93949 15.8988L5.93579 15.8667L5.91977 15.8384L5.91854 15.8052L5.90869 15.7756L5.89636 15.7461L5.88897 15.7141L5.87912 15.6845L5.87665 15.6525L5.86926 15.6217L5.85447 15.5922L5.85201 15.5602L5.84708 15.5282L5.84462 15.4961L5.83722 15.4654L5.83599 15.4334L5.8249 15.4038L5.82244 15.3718L5.81874 15.3398L5.81628 15.309L5.80642 15.277L5.80889 15.245L5.79903 15.2142L5.80273 15.1822L5.79533 15.1502L5.80519 15.1182V15.0861L5.7978 15.0554L5.80396 15.0234L5.80149 14.9913L5.79903 14.9593L5.80273 14.9273L5.7978 14.8953L5.80765 14.8645L5.81012 14.8325L5.80519 14.8005L5.81628 14.7697L5.80765 14.7365L5.81751 14.7057L5.81874 14.6737L5.8286 14.6429V14.6109L5.83846 14.5801L5.84585 14.5493L5.84092 14.5161L5.85571 14.4865L5.86063 14.4557L5.8631 14.4237L5.86926 14.3917L5.88528 14.3634L5.89144 14.3314L5.8939 14.2994L5.90376 14.2698L5.91608 14.2403L5.92593 14.2095L5.94072 14.1812L5.94565 14.1492L5.95181 14.1172L5.96783 14.0901L5.97645 14.0593L5.98507 14.0285L5.99986 14.0002L6.01834 13.9731L6.0245 13.9411L6.03559 13.9115L6.05654 13.8857L6.06393 13.8537L6.07748 13.8254L6.09966 13.8007L6.11075 13.7712L6.12307 13.7416L6.14401 13.717L6.15264 13.685L6.17728 13.6628L6.18714 13.6308L6.20439 13.605L6.2204 13.5779L6.24505 13.5557L6.2549 13.5237L6.27831 13.5015L6.29433 13.4745L6.31281 13.4474L6.33376 13.4227L6.35347 13.3981L6.36579 13.3686L6.3929 13.3489L6.40891 13.3205L6.43479 13.3008L6.45573 13.2762L6.47421 13.2516L6.49516 13.227L6.51734 13.2048L6.53335 13.1765L6.56292 13.1605L6.58017 13.1322L6.60235 13.1088L6.6233 13.0854L6.65287 13.0706L6.67012 13.0435L6.70092 13.0287L6.71817 13.0004L6.74404 12.982L6.76622 12.9586L6.79579 12.9438L6.82043 12.9253L6.8463 12.9056L6.86848 12.8835L6.89312 12.8625L6.92393 12.8502L6.94734 12.8293L6.97444 12.812L6.99785 12.7911L7.02742 12.7763L7.05206 12.7554L7.0804 12.7406L7.10751 12.7246L7.13708 12.7123L7.16418 12.6963L7.18883 12.6754L7.22086 12.6668L7.2492 12.652L7.27507 12.6335L7.30464 12.6212L7.33544 12.6114L7.36132 12.5941L7.39089 12.5806L7.41799 12.5633L7.44756 12.551L7.47713 12.5412L7.50547 12.5252L7.53627 12.5165L7.56708 12.5067L7.59788 12.4981L7.62745 12.487L7.65825 12.4784L7.68659 12.4624L7.71862 12.4587L7.74943 12.4525L7.77776 12.4377L7.81103 12.4353L7.8406 12.4254L7.8714 12.4168L7.90344 12.4119L7.93547 12.4107L7.96627 12.4033L7.99708 12.3971L8.02788 12.3873L8.05868 12.3799L8.09071 12.3725L8.12275 12.3774L8.15355 12.3676L8.18559 12.3651L8.21762 12.3614L8.24965 12.3639L8.28046 12.3553L8.31249 12.3602L8.34452 12.3565L8.37656 12.354L8.40736 12.3466L8.4394 12.3516L8.47143 12.3565L8.50346 12.3528L8.5355 12.3553L8.56753 12.3528H8.59957L8.6316 12.3516L8.6624 12.3553L8.69444 12.3577L8.72524 12.3663L8.75727 12.3713L8.78931 12.3663L8.82134 12.3725L8.85215 12.3774L8.88418 12.3799L8.91621 12.3823L8.94578 12.3971L8.97782 12.402L9.00862 12.4082L9.03942 12.4144L9.07023 12.423L9.10103 12.4291L9.13306 12.4328L9.16386 12.4439L9.19467 12.4501L9.22424 12.4611L9.25627 12.4648L9.28584 12.4771L9.31664 12.4845L9.34621 12.5005L9.37578 12.5104L9.40659 12.5178L9.43616 12.5301L9.46449 12.5461L9.49406 12.5559L9.52487 12.5646L9.55197 12.5818L9.58401 12.5904L9.61234 12.6027L9.63699 12.6249L9.66656 12.6384L9.69736 12.6471L9.7257 12.6606L9.75034 12.6828L9.7836 12.6889L9.81071 12.7062L9.83289 12.7308L9.86615 12.7369L9.8908 12.7579L9.91667 12.7763L9.94254 12.796L9.96965 12.8108L9.99676 12.8281L10.0251 12.8428L10.0473 12.8675L10.0731 12.8859L10.1003 12.9032L10.1249 12.9229L10.152 12.9389L10.1717 12.966L10.2001 12.982L10.2235 13.0029L10.2481 13.0238L10.2666 13.0497L10.2925 13.0694L10.3159 13.0903L10.3417 13.11L10.3627 13.1334L10.3873 13.1543L10.4095 13.1765L10.4317 13.1999L10.4514 13.2245L10.4686 13.2516L10.4945 13.2725L10.5081 13.3021L10.5364 13.3193L10.5487 13.3513L10.5697 13.3747L10.5919 13.3981L10.6153 13.4203L10.6288 13.4486L10.6485 13.4745L10.6695 13.4991L10.6867 13.5249L10.7052 13.5508L10.7175 13.5803L10.7409 13.6037L10.7545 13.6333L10.7717 13.6604L10.7841 13.6887L10.805 13.7145L10.8186 13.7429L10.8321 13.7712L10.8444 13.8007L10.8641 13.8266L10.8802 13.8537L10.8863 13.8869L10.9097 13.9103L10.9159 13.9423L10.9344 13.9694L10.9368 14.0027L10.9566 14.0285L10.9639 14.0605L10.9775 14.0888L10.9849 14.1209L11.0021 14.1479L11.0046 14.18L11.0182 14.2095L11.0329 14.2378L11.0379 14.2698L11.044 14.3018L11.0576 14.3314L11.065 14.3622L11.0662 14.3942L11.081 14.4237L11.0896 14.4545L11.0945 14.4853L11.0933 14.5185L11.1081 14.5481L11.1044 14.5801L11.1155 14.6109L11.113 14.6429L11.118 14.6749L11.1278 14.7057L11.1303 14.7377L11.134 14.7685L11.1426 14.8005L11.1414 14.8325L11.1426 14.8645L11.1451 14.8953L11.1414 14.9273L11.1401 14.9593L11.1426 14.9913L11.1488 15.0234Z"/>
</mask>
<path d="M11.1488 15.0234V15.0554L11.1414 15.0861L11.1463 15.1182L11.1475 15.1502L11.1352 15.1822L11.1438 15.2142L11.1315 15.245L11.134 15.277V15.309L11.1241 15.3398L11.1266 15.3718L11.1192 15.4038L11.1093 15.4346L11.1081 15.4666L11.0995 15.4974L11.1019 15.5294L11.0958 15.5614L11.081 15.5897L11.0748 15.6217V15.6537L11.06 15.6833L11.0551 15.7153L11.044 15.7449L11.0428 15.7781L11.0256 15.8052L11.0231 15.8384L11.0095 15.8667L10.9984 15.8963L10.9898 15.9271L10.9763 15.9566L10.9615 15.9849L10.959 16.0182L10.9368 16.0428L10.9245 16.0724L10.9159 16.1031L10.9048 16.1327L10.8851 16.1598L10.8728 16.1881L10.8592 16.2177L10.8432 16.2447L10.837 16.278L10.8198 16.3051L10.7976 16.3285L10.789 16.3605L10.7693 16.3851L10.7533 16.4122L10.7372 16.4405L10.7212 16.4676L10.7027 16.4934L10.6806 16.5168L10.6719 16.5501L10.6448 16.5698L10.6337 16.6006L10.6153 16.6264L10.5906 16.6474L10.5746 16.6757L10.5524 16.6991L10.5352 16.7262L10.513 16.7483L10.4871 16.768L10.4711 16.7963L10.4526 16.8222L10.4255 16.8419L10.4095 16.8702L10.3861 16.8911L10.359 16.9096L10.343 16.9379L10.3122 16.9515L10.2925 16.9773L10.2678 16.997L10.2432 17.018L10.2247 17.045L10.1951 17.0598L10.1742 17.0832L10.1495 17.1041L10.1224 17.1214L10.0966 17.1398L10.0707 17.1571L10.0473 17.1792L10.0251 17.2026L9.99306 17.2125L9.96965 17.2359L9.94254 17.2507L9.91544 17.2679L9.89203 17.2901L9.86123 17.3011L9.83782 17.3245L9.80948 17.3381L9.77991 17.3516L9.75403 17.3689L9.72816 17.3886L9.69859 17.3996L9.67025 17.4169L9.63699 17.4218L9.61234 17.4427L9.58031 17.4501L9.55444 17.4686L9.52363 17.4772L9.49406 17.4908L9.46326 17.4994L9.43369 17.5105L9.40535 17.524L9.37455 17.5314L9.34498 17.5437L9.31788 17.5622L9.28461 17.5646L9.25627 17.5782L9.22547 17.5868L9.19343 17.5929L9.1651 17.6077L9.13429 17.6176L9.10226 17.6213L9.07146 17.6287L9.04066 17.6385L9.00985 17.6459L8.97905 17.6508L8.94702 17.6582L8.91498 17.6557L8.88418 17.6656L8.85338 17.6705L8.82011 17.6717L8.78931 17.6804L8.75727 17.6816L8.72647 17.6841L8.69444 17.689L8.6624 17.6914L8.63037 17.6865L8.59957 17.6976L8.56753 17.6964L8.5355 17.689L8.50346 17.7001L8.47143 17.689L8.4394 17.6964L8.40859 17.6927L8.37656 17.6878L8.34452 17.6927L8.31249 17.6841L8.28169 17.6816L8.24965 17.6828L8.21762 17.6816L8.18682 17.6767L8.15478 17.6693L8.12152 17.6779L8.09195 17.6668L8.05991 17.6631L8.02911 17.6545L7.99708 17.6496L7.96627 17.6459L7.93301 17.6471L7.90467 17.6299L7.8714 17.6311L7.8406 17.6225L7.81103 17.6077H7.779L7.75066 17.5905L7.71986 17.5819L7.68782 17.5757L7.65702 17.5683L7.62868 17.5535L7.59911 17.5437L7.56831 17.5326L7.53874 17.524L7.50794 17.5141L7.4759 17.508L7.44633 17.4957L7.41923 17.4797L7.38842 17.4711L7.36132 17.4538L7.33052 17.444L7.30464 17.4243L7.2763 17.4107L7.24673 17.3972L7.21716 17.3849L7.18883 17.3713L7.16049 17.3565L7.13585 17.3344L7.10751 17.3208L7.07917 17.3061L7.05206 17.2888L7.02373 17.2753L6.99785 17.2556L6.97444 17.2334L6.94857 17.215L6.92023 17.2014L6.89436 17.1817L6.86971 17.162L6.84507 17.1423L6.8192 17.1226L6.79209 17.1054L6.76868 17.0844L6.74527 17.0635L6.72433 17.0389L6.69969 17.018L6.67628 16.997L6.65287 16.9761L6.6233 16.9601L6.60482 16.9342L6.57894 16.9145L6.56169 16.8874L6.54075 16.8628L6.51487 16.8444L6.489 16.8234L6.46929 16.7988L6.45573 16.7692L6.43356 16.7459L6.41015 16.7237L6.3855 16.7028L6.37441 16.6707L6.35347 16.6474L6.33499 16.6215L6.30911 16.6006L6.29803 16.5698L6.27215 16.5489L6.2586 16.5205L6.23888 16.4947L6.2241 16.4664L6.20562 16.4405L6.1933 16.411L6.16866 16.3888L6.15757 16.358L6.13539 16.3346L6.1243 16.3038L6.11198 16.2743L6.09966 16.2447L6.08118 16.2189L6.06886 16.1893L6.04791 16.1647L6.03682 16.1339L6.02943 16.1031L6.01218 16.0748L6.00232 16.0453L5.98631 16.017L5.98138 15.9849L5.97152 15.9542L5.9555 15.9271L5.93949 15.8988L5.93579 15.8667L5.91977 15.8384L5.91854 15.8052L5.90869 15.7756L5.89636 15.7461L5.88897 15.7141L5.87912 15.6845L5.87665 15.6525L5.86926 15.6217L5.85447 15.5922L5.85201 15.5602L5.84708 15.5282L5.84462 15.4961L5.83722 15.4654L5.83599 15.4334L5.8249 15.4038L5.82244 15.3718L5.81874 15.3398L5.81628 15.309L5.80642 15.277L5.80889 15.245L5.79903 15.2142L5.80273 15.1822L5.79533 15.1502L5.80519 15.1182V15.0861L5.7978 15.0554L5.80396 15.0234L5.80149 14.9913L5.79903 14.9593L5.80273 14.9273L5.7978 14.8953L5.80765 14.8645L5.81012 14.8325L5.80519 14.8005L5.81628 14.7697L5.80765 14.7365L5.81751 14.7057L5.81874 14.6737L5.8286 14.6429V14.6109L5.83846 14.5801L5.84585 14.5493L5.84092 14.5161L5.85571 14.4865L5.86063 14.4557L5.8631 14.4237L5.86926 14.3917L5.88528 14.3634L5.89144 14.3314L5.8939 14.2994L5.90376 14.2698L5.91608 14.2403L5.92593 14.2095L5.94072 14.1812L5.94565 14.1492L5.95181 14.1172L5.96783 14.0901L5.97645 14.0593L5.98507 14.0285L5.99986 14.0002L6.01834 13.9731L6.0245 13.9411L6.03559 13.9115L6.05654 13.8857L6.06393 13.8537L6.07748 13.8254L6.09966 13.8007L6.11075 13.7712L6.12307 13.7416L6.14401 13.717L6.15264 13.685L6.17728 13.6628L6.18714 13.6308L6.20439 13.605L6.2204 13.5779L6.24505 13.5557L6.2549 13.5237L6.27831 13.5015L6.29433 13.4745L6.31281 13.4474L6.33376 13.4227L6.35347 13.3981L6.36579 13.3686L6.3929 13.3489L6.40891 13.3205L6.43479 13.3008L6.45573 13.2762L6.47421 13.2516L6.49516 13.227L6.51734 13.2048L6.53335 13.1765L6.56292 13.1605L6.58017 13.1322L6.60235 13.1088L6.6233 13.0854L6.65287 13.0706L6.67012 13.0435L6.70092 13.0287L6.71817 13.0004L6.74404 12.982L6.76622 12.9586L6.79579 12.9438L6.82043 12.9253L6.8463 12.9056L6.86848 12.8835L6.89312 12.8625L6.92393 12.8502L6.94734 12.8293L6.97444 12.812L6.99785 12.7911L7.02742 12.7763L7.05206 12.7554L7.0804 12.7406L7.10751 12.7246L7.13708 12.7123L7.16418 12.6963L7.18883 12.6754L7.22086 12.6668L7.2492 12.652L7.27507 12.6335L7.30464 12.6212L7.33544 12.6114L7.36132 12.5941L7.39089 12.5806L7.41799 12.5633L7.44756 12.551L7.47713 12.5412L7.50547 12.5252L7.53627 12.5165L7.56708 12.5067L7.59788 12.4981L7.62745 12.487L7.65825 12.4784L7.68659 12.4624L7.71862 12.4587L7.74943 12.4525L7.77776 12.4377L7.81103 12.4353L7.8406 12.4254L7.8714 12.4168L7.90344 12.4119L7.93547 12.4107L7.96627 12.4033L7.99708 12.3971L8.02788 12.3873L8.05868 12.3799L8.09071 12.3725L8.12275 12.3774L8.15355 12.3676L8.18559 12.3651L8.21762 12.3614L8.24965 12.3639L8.28046 12.3553L8.31249 12.3602L8.34452 12.3565L8.37656 12.354L8.40736 12.3466L8.4394 12.3516L8.47143 12.3565L8.50346 12.3528L8.5355 12.3553L8.56753 12.3528H8.59957L8.6316 12.3516L8.6624 12.3553L8.69444 12.3577L8.72524 12.3663L8.75727 12.3713L8.78931 12.3663L8.82134 12.3725L8.85215 12.3774L8.88418 12.3799L8.91621 12.3823L8.94578 12.3971L8.97782 12.402L9.00862 12.4082L9.03942 12.4144L9.07023 12.423L9.10103 12.4291L9.13306 12.4328L9.16386 12.4439L9.19467 12.4501L9.22424 12.4611L9.25627 12.4648L9.28584 12.4771L9.31664 12.4845L9.34621 12.5005L9.37578 12.5104L9.40659 12.5178L9.43616 12.5301L9.46449 12.5461L9.49406 12.5559L9.52487 12.5646L9.55197 12.5818L9.58401 12.5904L9.61234 12.6027L9.63699 12.6249L9.66656 12.6384L9.69736 12.6471L9.7257 12.6606L9.75034 12.6828L9.7836 12.6889L9.81071 12.7062L9.83289 12.7308L9.86615 12.7369L9.8908 12.7579L9.91667 12.7763L9.94254 12.796L9.96965 12.8108L9.99676 12.8281L10.0251 12.8428L10.0473 12.8675L10.0731 12.8859L10.1003 12.9032L10.1249 12.9229L10.152 12.9389L10.1717 12.966L10.2001 12.982L10.2235 13.0029L10.2481 13.0238L10.2666 13.0497L10.2925 13.0694L10.3159 13.0903L10.3417 13.11L10.3627 13.1334L10.3873 13.1543L10.4095 13.1765L10.4317 13.1999L10.4514 13.2245L10.4686 13.2516L10.4945 13.2725L10.5081 13.3021L10.5364 13.3193L10.5487 13.3513L10.5697 13.3747L10.5919 13.3981L10.6153 13.4203L10.6288 13.4486L10.6485 13.4745L10.6695 13.4991L10.6867 13.5249L10.7052 13.5508L10.7175 13.5803L10.7409 13.6037L10.7545 13.6333L10.7717 13.6604L10.7841 13.6887L10.805 13.7145L10.8186 13.7429L10.8321 13.7712L10.8444 13.8007L10.8641 13.8266L10.8802 13.8537L10.8863 13.8869L10.9097 13.9103L10.9159 13.9423L10.9344 13.9694L10.9368 14.0027L10.9566 14.0285L10.9639 14.0605L10.9775 14.0888L10.9849 14.1209L11.0021 14.1479L11.0046 14.18L11.0182 14.2095L11.0329 14.2378L11.0379 14.2698L11.044 14.3018L11.0576 14.3314L11.065 14.3622L11.0662 14.3942L11.081 14.4237L11.0896 14.4545L11.0945 14.4853L11.0933 14.5185L11.1081 14.5481L11.1044 14.5801L11.1155 14.6109L11.113 14.6429L11.118 14.6749L11.1278 14.7057L11.1303 14.7377L11.134 14.7685L11.1426 14.8005L11.1414 14.8325L11.1426 14.8645L11.1451 14.8953L11.1414 14.9273L11.1401 14.9593L11.1426 14.9913L11.1488 15.0234Z" fill="#E1FCEE" stroke="black" stroke-width="2" mask="url(#path-7-inside-2_356_9857)"/>
<mask id="path-8-inside-3_356_9857" fill="white">
<path d="M5.11877 87.2415V87.2713L5.1119 87.2999L5.11648 87.3297L5.11763 87.3595L5.10617 87.3892L5.11419 87.419L5.10273 87.4476L5.10502 87.4774V87.5072L5.09586 87.5358L5.09815 87.5656L5.09127 87.5954L5.0821 87.624L5.08096 87.6538L5.07294 87.6824L5.07523 87.7122L5.0695 87.7419L5.05575 87.7683L5.05002 87.7981V87.8278L5.03627 87.8553L5.03168 87.8851L5.02137 87.9126L5.02022 87.9435L5.00418 87.9687L5.00189 87.9996L4.98928 88.0259L4.97897 88.0534L4.97095 88.0821L4.95834 88.1095L4.94459 88.1359L4.9423 88.1668L4.92167 88.1897L4.91021 88.2172L4.90219 88.2458L4.89188 88.2733L4.87354 88.2985L4.86208 88.3248L4.84948 88.3523L4.83458 88.3775L4.82885 88.4084L4.81281 88.4336L4.79218 88.4554L4.78416 88.4852L4.76582 88.5081L4.75093 88.5332L4.73603 88.5596L4.72113 88.5848L4.70394 88.6088L4.68332 88.6306L4.67529 88.6615L4.65008 88.6798L4.63977 88.7085L4.62258 88.7325L4.59966 88.752L4.58476 88.7783L4.56414 88.8001L4.54809 88.8253L4.52747 88.8459L4.5034 88.8642L4.48851 88.8905L4.47132 88.9146L4.44611 88.9329L4.43121 88.9592L4.40944 88.9787L4.38422 88.9959L4.36933 89.0222L4.34068 89.0348L4.32234 89.0589L4.29943 89.0772L4.27651 89.0967L4.25932 89.1219L4.23181 89.1356L4.21233 89.1574L4.18941 89.1768L4.1642 89.1929L4.14014 89.21L4.11607 89.2261L4.0943 89.2467L4.07367 89.2684L4.04388 89.2776L4.02211 89.2994L3.9969 89.3131L3.97168 89.3291L3.94991 89.3497L3.92126 89.3601L3.89949 89.3818L3.87313 89.3944L3.84563 89.407L3.82157 89.423L3.7975 89.4414L3.77 89.4517L3.74364 89.4677L3.7127 89.4723L3.68978 89.4917L3.65999 89.4986L3.63592 89.5158L3.60727 89.5238L3.57977 89.5364L3.55112 89.5444L3.52362 89.5547L3.49726 89.5673L3.46862 89.5742L3.44111 89.5856L3.4159 89.6028L3.38496 89.6051L3.3586 89.6177L3.32996 89.6257L3.30016 89.6315L3.2738 89.6452L3.24516 89.6544L3.21536 89.6578L3.18671 89.6647L3.15806 89.6738L3.12942 89.6807L3.10077 89.6853L3.07097 89.6921L3.04118 89.6899L3.01253 89.699L2.98388 89.7036L2.95294 89.7047L2.92429 89.7128L2.8945 89.7139L2.86585 89.7162L2.83605 89.7208L2.80626 89.7231L2.77647 89.7185L2.74782 89.7288L2.71802 89.7276L2.68823 89.7208L2.65843 89.7311L2.62864 89.7208L2.59884 89.7276L2.5702 89.7242L2.5404 89.7196L2.51061 89.7242L2.48081 89.7162L2.45216 89.7139L2.42237 89.715L2.39257 89.7139L2.36393 89.7093L2.33413 89.7025L2.30319 89.7105L2.27569 89.7002L2.24589 89.6967L2.21724 89.6887L2.18745 89.6841L2.1588 89.6807L2.12786 89.6818L2.1015 89.6658L2.07056 89.667L2.04192 89.6589L2.01441 89.6452H1.98462L1.95826 89.6292L1.92961 89.6211L1.89982 89.6154L1.87117 89.6085L1.84481 89.5948L1.81731 89.5856L1.78866 89.5753L1.76116 89.5673L1.73251 89.5582L1.70272 89.5524L1.67521 89.541L1.65 89.5261L1.62135 89.5181L1.59614 89.502L1.56749 89.4929L1.54343 89.4746L1.51707 89.462L1.48957 89.4494L1.46207 89.4379L1.43571 89.4253L1.40935 89.4116L1.38644 89.391L1.36008 89.3784L1.33372 89.3646L1.30851 89.3486L1.28215 89.336L1.25809 89.3177L1.23632 89.2971L1.21225 89.2799L1.1859 89.2673L1.16183 89.249L1.13891 89.2306L1.11599 89.2123L1.09193 89.194L1.06672 89.178L1.04494 89.1585L1.02317 89.139L1.00369 89.1161L0.980771 89.0967L0.958998 89.0772L0.937225 89.0577L0.909723 89.0428L0.892534 89.0188L0.868469 89.0005L0.852426 88.9753L0.832945 88.9524L0.80888 88.9352L0.784815 88.9157L0.76648 88.8928L0.753874 88.8653L0.733247 88.8436L0.711474 88.823L0.688556 88.8035L0.678242 88.7737L0.658761 88.752L0.641572 88.7279L0.617507 88.7085L0.607194 88.6798L0.583129 88.6604L0.570523 88.634L0.552188 88.61L0.538437 88.5836L0.521248 88.5596L0.509788 88.5321L0.486869 88.5115L0.476556 88.4829L0.455929 88.4611L0.445615 88.4325L0.434156 88.405L0.422697 88.3775L0.405507 88.3535L0.394048 88.326L0.374567 88.3031L0.364253 88.2744L0.357378 88.2458L0.341335 88.2195L0.332167 88.192L0.31727 88.1657L0.312686 88.1359L0.303518 88.1073L0.288621 88.0821L0.273724 88.0557L0.270286 88.0259L0.255389 87.9996L0.254243 87.9687L0.245075 87.9412L0.233616 87.9137L0.22674 87.8839L0.217573 87.8565L0.215281 87.8267L0.208405 87.7981L0.194654 87.7706L0.192362 87.7408L0.187778 87.711L0.185486 87.6813L0.178611 87.6526L0.177465 87.6229L0.167151 87.5954L0.164859 87.5656L0.161421 87.5358L0.159129 87.5072L0.149962 87.4774L0.152254 87.4476L0.143086 87.419L0.146524 87.3892L0.139648 87.3595L0.148816 87.3297V87.2999L0.14194 87.2713L0.14767 87.2415L0.145378 87.2117L0.143086 87.182L0.146524 87.1522L0.14194 87.1224L0.151108 87.0938L0.1534 87.064L0.148816 87.0342L0.159129 87.0056L0.151108 86.9747L0.160275 86.9461L0.161421 86.9163L0.170589 86.8877V86.8579L0.179756 86.8293L0.186632 86.8006L0.182048 86.7697L0.1958 86.7422L0.200383 86.7136L0.202675 86.6838L0.208405 86.6541L0.223302 86.6277L0.229032 86.5979L0.231324 86.5682L0.240492 86.5407L0.251951 86.5132L0.261119 86.4846L0.27487 86.4582L0.279454 86.4285L0.285183 86.3987L0.300081 86.3735L0.308102 86.3449L0.316124 86.3162L0.329875 86.2899L0.347064 86.2647L0.352794 86.2349L0.363107 86.2074L0.382589 86.1834L0.389464 86.1536L0.40207 86.1273L0.422697 86.1044L0.43301 86.0769L0.44447 86.0494L0.463951 86.0265L0.471972 85.9967L0.494891 85.9761L0.504059 85.9463L0.520102 85.9223L0.534999 85.8971L0.557918 85.8765L0.567086 85.8467L0.588858 85.8261L0.603756 85.8009L0.620945 85.7757L0.640426 85.7528L0.658761 85.7299L0.67022 85.7024L0.695431 85.6841L0.710329 85.6578L0.734393 85.6394L0.753874 85.6165L0.771064 85.5936L0.790545 85.5707L0.811172 85.5501L0.826069 85.5238L0.853571 85.5089L0.869615 85.4826L0.890242 85.4608L0.909723 85.439L0.937225 85.4253L0.953269 85.4001L0.981917 85.3864L0.99796 85.36L1.02203 85.3429L1.04265 85.3211L1.07015 85.3074L1.09307 85.2902L1.11714 85.2719L1.13777 85.2512L1.16068 85.2318L1.18933 85.2203L1.21111 85.2009L1.23632 85.1848L1.25809 85.1654L1.28559 85.1516L1.30851 85.1321L1.33487 85.1184L1.36008 85.1035L1.38758 85.0921L1.41279 85.0772L1.43571 85.0577L1.46551 85.0497L1.49186 85.036L1.51593 85.0188L1.54343 85.0073L1.57208 84.9982L1.59614 84.9821L1.62365 84.9695L1.64886 84.9535L1.67636 84.942L1.70386 84.9329L1.73022 84.918L1.75887 84.91L1.78752 84.9008L1.81616 84.8928L1.84367 84.8825L1.87232 84.8745L1.89867 84.8596L1.92847 84.8562L1.95712 84.8504L1.98347 84.8367L2.01441 84.8344L2.04192 84.8252L2.07056 84.8172L2.10036 84.8126L2.13015 84.8115L2.1588 84.8046L2.18745 84.7989L2.2161 84.7897L2.24475 84.7829L2.27454 84.776L2.30434 84.7806L2.33298 84.7714L2.36278 84.7691L2.39257 84.7657L2.42237 84.768L2.45102 84.76L2.48081 84.7645L2.51061 84.7611L2.5404 84.7588L2.56905 84.752L2.59884 84.7565L2.62864 84.7611L2.65843 84.7577L2.68823 84.76L2.71802 84.7577H2.74782L2.77761 84.7565L2.80626 84.76L2.83605 84.7623L2.8647 84.7703L2.8945 84.7749L2.92429 84.7703L2.95409 84.776L2.98274 84.7806L3.01253 84.7829L3.04232 84.7852L3.06983 84.7989L3.09962 84.8035L3.12827 84.8092L3.15692 84.8149L3.18557 84.823L3.21422 84.8287L3.24401 84.8321L3.27266 84.8424L3.30131 84.8481L3.32881 84.8585L3.3586 84.8619L3.38611 84.8733L3.41476 84.8802L3.44226 84.8951L3.46976 84.9043L3.49841 84.9111L3.52591 84.9226L3.55227 84.9375L3.57977 84.9466L3.60842 84.9546L3.63363 84.9707L3.66343 84.9787L3.68978 84.9901L3.7127 85.0108L3.7402 85.0234L3.76885 85.0314L3.79521 85.044L3.81813 85.0646L3.84907 85.0703L3.87428 85.0863L3.89491 85.1092L3.92585 85.115L3.94877 85.1344L3.97283 85.1516L3.9969 85.1699L4.02211 85.1837L4.04732 85.1997L4.07367 85.2134L4.0943 85.2364L4.11837 85.2535L4.14358 85.2696L4.1665 85.2879L4.19171 85.3028L4.21004 85.328L4.2364 85.3429L4.25817 85.3623L4.28109 85.3818L4.29828 85.4058L4.32234 85.4242L4.34412 85.4436L4.36818 85.4619L4.38766 85.4837L4.41058 85.5032L4.43121 85.5238L4.45184 85.5455L4.47017 85.5684L4.48621 85.5936L4.51028 85.6131L4.52288 85.6406L4.54924 85.6566L4.5607 85.6864L4.58018 85.7082L4.60081 85.7299L4.62258 85.7505L4.63519 85.7769L4.65352 85.8009L4.673 85.8238L4.68905 85.8479L4.70623 85.8719L4.71769 85.8994L4.73947 85.9212L4.75207 85.9486L4.76812 85.9738L4.77957 86.0002L4.79906 86.0242L4.81166 86.0506L4.82427 86.0769L4.83573 86.1044L4.85406 86.1284L4.86896 86.1536L4.87469 86.1845L4.89646 86.2063L4.90219 86.2361L4.91938 86.2613L4.92167 86.2922L4.94001 86.3162L4.94688 86.346L4.95949 86.3723L4.96636 86.4021L4.98241 86.4273L4.9847 86.4571L4.9973 86.4846L5.01106 86.5109L5.01564 86.5407L5.02137 86.5705L5.03397 86.5979L5.04085 86.6266L5.042 86.6563L5.05575 86.6838L5.06377 86.7125L5.06835 86.7411L5.06721 86.772L5.08096 86.7995L5.07752 86.8293L5.08783 86.8579L5.08554 86.8877L5.09013 86.9174L5.09929 86.9461L5.10159 86.9758L5.10502 87.0045L5.11305 87.0342L5.1119 87.064L5.11305 87.0938L5.11534 87.1224L5.1119 87.1522L5.11075 87.182L5.11305 87.2117L5.11877 87.2415Z"/>
</mask>
<path d="M5.11877 87.2415V87.2713L5.1119 87.2999L5.11648 87.3297L5.11763 87.3595L5.10617 87.3892L5.11419 87.419L5.10273 87.4476L5.10502 87.4774V87.5072L5.09586 87.5358L5.09815 87.5656L5.09127 87.5954L5.0821 87.624L5.08096 87.6538L5.07294 87.6824L5.07523 87.7122L5.0695 87.7419L5.05575 87.7683L5.05002 87.7981V87.8278L5.03627 87.8553L5.03168 87.8851L5.02137 87.9126L5.02022 87.9435L5.00418 87.9687L5.00189 87.9996L4.98928 88.0259L4.97897 88.0534L4.97095 88.0821L4.95834 88.1095L4.94459 88.1359L4.9423 88.1668L4.92167 88.1897L4.91021 88.2172L4.90219 88.2458L4.89188 88.2733L4.87354 88.2985L4.86208 88.3248L4.84948 88.3523L4.83458 88.3775L4.82885 88.4084L4.81281 88.4336L4.79218 88.4554L4.78416 88.4852L4.76582 88.5081L4.75093 88.5332L4.73603 88.5596L4.72113 88.5848L4.70394 88.6088L4.68332 88.6306L4.67529 88.6615L4.65008 88.6798L4.63977 88.7085L4.62258 88.7325L4.59966 88.752L4.58476 88.7783L4.56414 88.8001L4.54809 88.8253L4.52747 88.8459L4.5034 88.8642L4.48851 88.8905L4.47132 88.9146L4.44611 88.9329L4.43121 88.9592L4.40944 88.9787L4.38422 88.9959L4.36933 89.0222L4.34068 89.0348L4.32234 89.0589L4.29943 89.0772L4.27651 89.0967L4.25932 89.1219L4.23181 89.1356L4.21233 89.1574L4.18941 89.1768L4.1642 89.1929L4.14014 89.21L4.11607 89.2261L4.0943 89.2467L4.07367 89.2684L4.04388 89.2776L4.02211 89.2994L3.9969 89.3131L3.97168 89.3291L3.94991 89.3497L3.92126 89.3601L3.89949 89.3818L3.87313 89.3944L3.84563 89.407L3.82157 89.423L3.7975 89.4414L3.77 89.4517L3.74364 89.4677L3.7127 89.4723L3.68978 89.4917L3.65999 89.4986L3.63592 89.5158L3.60727 89.5238L3.57977 89.5364L3.55112 89.5444L3.52362 89.5547L3.49726 89.5673L3.46862 89.5742L3.44111 89.5856L3.4159 89.6028L3.38496 89.6051L3.3586 89.6177L3.32996 89.6257L3.30016 89.6315L3.2738 89.6452L3.24516 89.6544L3.21536 89.6578L3.18671 89.6647L3.15806 89.6738L3.12942 89.6807L3.10077 89.6853L3.07097 89.6921L3.04118 89.6899L3.01253 89.699L2.98388 89.7036L2.95294 89.7047L2.92429 89.7128L2.8945 89.7139L2.86585 89.7162L2.83605 89.7208L2.80626 89.7231L2.77647 89.7185L2.74782 89.7288L2.71802 89.7276L2.68823 89.7208L2.65843 89.7311L2.62864 89.7208L2.59884 89.7276L2.5702 89.7242L2.5404 89.7196L2.51061 89.7242L2.48081 89.7162L2.45216 89.7139L2.42237 89.715L2.39257 89.7139L2.36393 89.7093L2.33413 89.7025L2.30319 89.7105L2.27569 89.7002L2.24589 89.6967L2.21724 89.6887L2.18745 89.6841L2.1588 89.6807L2.12786 89.6818L2.1015 89.6658L2.07056 89.667L2.04192 89.6589L2.01441 89.6452H1.98462L1.95826 89.6292L1.92961 89.6211L1.89982 89.6154L1.87117 89.6085L1.84481 89.5948L1.81731 89.5856L1.78866 89.5753L1.76116 89.5673L1.73251 89.5582L1.70272 89.5524L1.67521 89.541L1.65 89.5261L1.62135 89.5181L1.59614 89.502L1.56749 89.4929L1.54343 89.4746L1.51707 89.462L1.48957 89.4494L1.46207 89.4379L1.43571 89.4253L1.40935 89.4116L1.38644 89.391L1.36008 89.3784L1.33372 89.3646L1.30851 89.3486L1.28215 89.336L1.25809 89.3177L1.23632 89.2971L1.21225 89.2799L1.1859 89.2673L1.16183 89.249L1.13891 89.2306L1.11599 89.2123L1.09193 89.194L1.06672 89.178L1.04494 89.1585L1.02317 89.139L1.00369 89.1161L0.980771 89.0967L0.958998 89.0772L0.937225 89.0577L0.909723 89.0428L0.892534 89.0188L0.868469 89.0005L0.852426 88.9753L0.832945 88.9524L0.80888 88.9352L0.784815 88.9157L0.76648 88.8928L0.753874 88.8653L0.733247 88.8436L0.711474 88.823L0.688556 88.8035L0.678242 88.7737L0.658761 88.752L0.641572 88.7279L0.617507 88.7085L0.607194 88.6798L0.583129 88.6604L0.570523 88.634L0.552188 88.61L0.538437 88.5836L0.521248 88.5596L0.509788 88.5321L0.486869 88.5115L0.476556 88.4829L0.455929 88.4611L0.445615 88.4325L0.434156 88.405L0.422697 88.3775L0.405507 88.3535L0.394048 88.326L0.374567 88.3031L0.364253 88.2744L0.357378 88.2458L0.341335 88.2195L0.332167 88.192L0.31727 88.1657L0.312686 88.1359L0.303518 88.1073L0.288621 88.0821L0.273724 88.0557L0.270286 88.0259L0.255389 87.9996L0.254243 87.9687L0.245075 87.9412L0.233616 87.9137L0.22674 87.8839L0.217573 87.8565L0.215281 87.8267L0.208405 87.7981L0.194654 87.7706L0.192362 87.7408L0.187778 87.711L0.185486 87.6813L0.178611 87.6526L0.177465 87.6229L0.167151 87.5954L0.164859 87.5656L0.161421 87.5358L0.159129 87.5072L0.149962 87.4774L0.152254 87.4476L0.143086 87.419L0.146524 87.3892L0.139648 87.3595L0.148816 87.3297V87.2999L0.14194 87.2713L0.14767 87.2415L0.145378 87.2117L0.143086 87.182L0.146524 87.1522L0.14194 87.1224L0.151108 87.0938L0.1534 87.064L0.148816 87.0342L0.159129 87.0056L0.151108 86.9747L0.160275 86.9461L0.161421 86.9163L0.170589 86.8877V86.8579L0.179756 86.8293L0.186632 86.8006L0.182048 86.7697L0.1958 86.7422L0.200383 86.7136L0.202675 86.6838L0.208405 86.6541L0.223302 86.6277L0.229032 86.5979L0.231324 86.5682L0.240492 86.5407L0.251951 86.5132L0.261119 86.4846L0.27487 86.4582L0.279454 86.4285L0.285183 86.3987L0.300081 86.3735L0.308102 86.3449L0.316124 86.3162L0.329875 86.2899L0.347064 86.2647L0.352794 86.2349L0.363107 86.2074L0.382589 86.1834L0.389464 86.1536L0.40207 86.1273L0.422697 86.1044L0.43301 86.0769L0.44447 86.0494L0.463951 86.0265L0.471972 85.9967L0.494891 85.9761L0.504059 85.9463L0.520102 85.9223L0.534999 85.8971L0.557918 85.8765L0.567086 85.8467L0.588858 85.8261L0.603756 85.8009L0.620945 85.7757L0.640426 85.7528L0.658761 85.7299L0.67022 85.7024L0.695431 85.6841L0.710329 85.6578L0.734393 85.6394L0.753874 85.6165L0.771064 85.5936L0.790545 85.5707L0.811172 85.5501L0.826069 85.5238L0.853571 85.5089L0.869615 85.4826L0.890242 85.4608L0.909723 85.439L0.937225 85.4253L0.953269 85.4001L0.981917 85.3864L0.99796 85.36L1.02203 85.3429L1.04265 85.3211L1.07015 85.3074L1.09307 85.2902L1.11714 85.2719L1.13777 85.2512L1.16068 85.2318L1.18933 85.2203L1.21111 85.2009L1.23632 85.1848L1.25809 85.1654L1.28559 85.1516L1.30851 85.1321L1.33487 85.1184L1.36008 85.1035L1.38758 85.0921L1.41279 85.0772L1.43571 85.0577L1.46551 85.0497L1.49186 85.036L1.51593 85.0188L1.54343 85.0073L1.57208 84.9982L1.59614 84.9821L1.62365 84.9695L1.64886 84.9535L1.67636 84.942L1.70386 84.9329L1.73022 84.918L1.75887 84.91L1.78752 84.9008L1.81616 84.8928L1.84367 84.8825L1.87232 84.8745L1.89867 84.8596L1.92847 84.8562L1.95712 84.8504L1.98347 84.8367L2.01441 84.8344L2.04192 84.8252L2.07056 84.8172L2.10036 84.8126L2.13015 84.8115L2.1588 84.8046L2.18745 84.7989L2.2161 84.7897L2.24475 84.7829L2.27454 84.776L2.30434 84.7806L2.33298 84.7714L2.36278 84.7691L2.39257 84.7657L2.42237 84.768L2.45102 84.76L2.48081 84.7645L2.51061 84.7611L2.5404 84.7588L2.56905 84.752L2.59884 84.7565L2.62864 84.7611L2.65843 84.7577L2.68823 84.76L2.71802 84.7577H2.74782L2.77761 84.7565L2.80626 84.76L2.83605 84.7623L2.8647 84.7703L2.8945 84.7749L2.92429 84.7703L2.95409 84.776L2.98274 84.7806L3.01253 84.7829L3.04232 84.7852L3.06983 84.7989L3.09962 84.8035L3.12827 84.8092L3.15692 84.8149L3.18557 84.823L3.21422 84.8287L3.24401 84.8321L3.27266 84.8424L3.30131 84.8481L3.32881 84.8585L3.3586 84.8619L3.38611 84.8733L3.41476 84.8802L3.44226 84.8951L3.46976 84.9043L3.49841 84.9111L3.52591 84.9226L3.55227 84.9375L3.57977 84.9466L3.60842 84.9546L3.63363 84.9707L3.66343 84.9787L3.68978 84.9901L3.7127 85.0108L3.7402 85.0234L3.76885 85.0314L3.79521 85.044L3.81813 85.0646L3.84907 85.0703L3.87428 85.0863L3.89491 85.1092L3.92585 85.115L3.94877 85.1344L3.97283 85.1516L3.9969 85.1699L4.02211 85.1837L4.04732 85.1997L4.07367 85.2134L4.0943 85.2364L4.11837 85.2535L4.14358 85.2696L4.1665 85.2879L4.19171 85.3028L4.21004 85.328L4.2364 85.3429L4.25817 85.3623L4.28109 85.3818L4.29828 85.4058L4.32234 85.4242L4.34412 85.4436L4.36818 85.4619L4.38766 85.4837L4.41058 85.5032L4.43121 85.5238L4.45184 85.5455L4.47017 85.5684L4.48621 85.5936L4.51028 85.6131L4.52288 85.6406L4.54924 85.6566L4.5607 85.6864L4.58018 85.7082L4.60081 85.7299L4.62258 85.7505L4.63519 85.7769L4.65352 85.8009L4.673 85.8238L4.68905 85.8479L4.70623 85.8719L4.71769 85.8994L4.73947 85.9212L4.75207 85.9486L4.76812 85.9738L4.77957 86.0002L4.79906 86.0242L4.81166 86.0506L4.82427 86.0769L4.83573 86.1044L4.85406 86.1284L4.86896 86.1536L4.87469 86.1845L4.89646 86.2063L4.90219 86.2361L4.91938 86.2613L4.92167 86.2922L4.94001 86.3162L4.94688 86.346L4.95949 86.3723L4.96636 86.4021L4.98241 86.4273L4.9847 86.4571L4.9973 86.4846L5.01106 86.5109L5.01564 86.5407L5.02137 86.5705L5.03397 86.5979L5.04085 86.6266L5.042 86.6563L5.05575 86.6838L5.06377 86.7125L5.06835 86.7411L5.06721 86.772L5.08096 86.7995L5.07752 86.8293L5.08783 86.8579L5.08554 86.8877L5.09013 86.9174L5.09929 86.9461L5.10159 86.9758L5.10502 87.0045L5.11305 87.0342L5.1119 87.064L5.11305 87.0938L5.11534 87.1224L5.1119 87.1522L5.11075 87.182L5.11305 87.2117L5.11877 87.2415Z" fill="#86EFCE" stroke="black" stroke-width="2" mask="url(#path-8-inside-3_356_9857)"/>
<path d="M9.92914 80.9918V81.0117L9.92455 81.0308L9.92761 81.0506L9.92837 81.0705L9.92073 81.0904L9.92608 81.1102L9.91843 81.1293L9.91996 81.1492V81.1691L9.91384 81.1882L9.91537 81.2081L9.91078 81.2279L9.90467 81.247L9.9039 81.2669L9.89855 81.286L9.90008 81.3059L9.89625 81.3257L9.88708 81.3433L9.88325 81.3632V81.3831L9.87408 81.4014L9.87102 81.4213L9.86414 81.4396L9.86337 81.4602L9.85267 81.4771L9.85114 81.4977L9.84272 81.5153L9.83584 81.5336L9.83049 81.5527L9.82208 81.571L9.8129 81.5886L9.81137 81.6093L9.79761 81.6245L9.78996 81.6429L9.78461 81.662L9.77772 81.6803L9.76549 81.6971L9.75784 81.7147L9.74943 81.7331L9.73949 81.7499L9.73566 81.7705L9.72496 81.7873L9.71119 81.8018L9.70584 81.8217L9.6936 81.837L9.68366 81.8538L9.67372 81.8714L9.66378 81.8882L9.65231 81.9042L9.63855 81.9188L9.63319 81.9394L9.61637 81.9516L9.60949 81.9707L9.59802 81.9868L9.58272 81.9998L9.57278 82.0173L9.55901 82.0319L9.54831 82.0487L9.53454 82.0624L9.51848 82.0746L9.50854 82.0922L9.49707 82.1083L9.48025 82.1205L9.47031 82.1381L9.45578 82.1511L9.43895 82.1625L9.42901 82.1801L9.40989 82.1885L9.39766 82.2046L9.38236 82.2168L9.36707 82.2298L9.3556 82.2466L9.33725 82.2558L9.32425 82.2703L9.30895 82.2833L9.29213 82.294L9.27607 82.3054L9.26001 82.3161L9.24548 82.3299L9.23172 82.3444L9.21183 82.3505L9.1973 82.365L9.18048 82.3742L9.16366 82.3849L9.14913 82.3987L9.13001 82.4055L9.11548 82.4201L9.09789 82.4285L9.07954 82.4369L9.06348 82.4476L9.04742 82.4598L9.02907 82.4667L9.01148 82.4774L8.99083 82.4804L8.97554 82.4934L8.95565 82.498L8.93959 82.5095L8.92048 82.5148L8.90212 82.5232L8.88301 82.5286L8.86465 82.5355L8.84706 82.5439L8.82795 82.5484L8.80959 82.5561L8.79277 82.5675L8.77212 82.5691L8.75453 82.5775L8.73542 82.5828L8.71553 82.5867L8.69794 82.5958L8.67883 82.6019L8.65894 82.6042L8.63983 82.6088L8.62071 82.6149L8.60159 82.6195L8.58247 82.6226L8.56259 82.6272L8.54271 82.6256L8.52359 82.6317L8.50447 82.6348L8.48382 82.6356L8.46471 82.6409L8.44482 82.6417L8.42571 82.6432L8.40582 82.6463L8.38594 82.6478L8.36606 82.6447L8.34694 82.6516L8.32706 82.6508L8.30717 82.6463L8.28729 82.6531L8.26741 82.6463L8.24753 82.6508L8.22841 82.6486L8.20853 82.6455L8.18864 82.6486L8.16876 82.6432L8.14964 82.6417L8.12976 82.6424L8.10988 82.6417L8.09076 82.6386L8.07088 82.634L8.05023 82.6394L8.03188 82.6325L8.01199 82.6302L7.99288 82.6249L7.97299 82.6218L7.95388 82.6195L7.93323 82.6203L7.91564 82.6096L7.89499 82.6103L7.87587 82.605L7.85752 82.5958H7.83764L7.82005 82.5851L7.80093 82.5798L7.78105 82.576L7.76193 82.5714L7.74434 82.5622L7.72599 82.5561L7.70687 82.5492L7.68852 82.5439L7.6694 82.5377L7.64952 82.5339L7.63117 82.5263L7.61434 82.5163L7.59522 82.511L7.5784 82.5003L7.55928 82.4942L7.54322 82.482L7.52563 82.4736L7.50728 82.4651L7.48893 82.4575L7.47134 82.4491L7.45375 82.4399L7.43846 82.4262L7.42087 82.4178L7.40328 82.4086L7.38646 82.3979L7.36887 82.3895L7.35281 82.3773L7.33828 82.3635L7.32222 82.352L7.30463 82.3436L7.28857 82.3314L7.27328 82.3192L7.25798 82.307L7.24192 82.2947L7.2251 82.284L7.21057 82.271L7.19604 82.2581L7.18304 82.2428L7.16775 82.2298L7.15322 82.2168L7.13869 82.2038L7.12033 82.1939L7.10886 82.1778L7.0928 82.1656L7.0821 82.1488L7.0691 82.1335L7.05304 82.122L7.03698 82.109L7.02475 82.0938L7.01633 82.0754L7.00257 82.0609L6.98804 82.0471L6.97274 82.0341L6.96586 82.0143L6.95286 81.9998L6.94139 81.9837L6.92533 81.9707L6.91845 81.9516L6.90239 81.9386L6.89398 81.921L6.88174 81.905L6.87257 81.8874L6.8611 81.8714L6.85345 81.853L6.83815 81.8393L6.83127 81.8202L6.81751 81.8057L6.81062 81.7865L6.80298 81.7682L6.79533 81.7499L6.78386 81.7338L6.77621 81.7155L6.76321 81.7002L6.75633 81.6811L6.75174 81.662L6.74104 81.6444L6.73492 81.6261L6.72498 81.6085L6.72192 81.5886L6.7158 81.5695L6.70586 81.5527L6.69592 81.5351L6.69362 81.5153L6.68368 81.4977L6.68292 81.4771L6.6768 81.4587L6.66915 81.4404L6.66456 81.4205L6.65845 81.4022L6.65692 81.3823L6.65233 81.3632L6.64315 81.3448L6.64162 81.325L6.63856 81.3051L6.63703 81.2852L6.63245 81.2661L6.63168 81.2463L6.6248 81.2279L6.62327 81.2081L6.62097 81.1882L6.61945 81.1691L6.61333 81.1492L6.61486 81.1293L6.60874 81.1102L6.61103 81.0904L6.60645 81.0705L6.61256 81.0506V81.0308L6.60797 81.0117L6.6118 80.9918L6.61027 80.9719L6.60874 80.9521L6.61103 80.9322L6.60797 80.9123L6.61409 80.8932L6.61562 80.8733L6.61256 80.8535L6.61945 80.8344L6.61409 80.8137L6.62021 80.7946L6.62097 80.7748L6.62709 80.7557V80.7358L6.63321 80.7167L6.6378 80.6976L6.63474 80.6769L6.64392 80.6586L6.64698 80.6395L6.6485 80.6196L6.65233 80.5998L6.66227 80.5822L6.66609 80.5623L6.66762 80.5424L6.67374 80.5241L6.68139 80.5058L6.68751 80.4867L6.69668 80.4691L6.69974 80.4492L6.70356 80.4293L6.71351 80.4125L6.71886 80.3934L6.72421 80.3743L6.73339 80.3567L6.74486 80.3399L6.74868 80.3201L6.75556 80.3017L6.76857 80.2857L6.77315 80.2658L6.78157 80.2482L6.79533 80.233L6.80221 80.2146L6.80986 80.1963L6.82286 80.181L6.82821 80.1611L6.84351 80.1474L6.84963 80.1275L6.86033 80.1114L6.87027 80.0946L6.88557 80.0809L6.89168 80.061L6.90621 80.0473L6.91616 80.0304L6.92763 80.0136L6.94063 79.9983L6.95286 79.9831L6.96051 79.9647L6.97733 79.9525L6.98727 79.9349L7.00333 79.9227L7.01633 79.9074L7.0278 79.8921L7.0408 79.8768L7.05457 79.8631L7.06451 79.8455L7.08286 79.8356L7.09357 79.818L7.10733 79.8035L7.12033 79.789L7.13869 79.7798L7.14939 79.763L7.16851 79.7538L7.17922 79.7362L7.19528 79.7248L7.20904 79.7102L7.22739 79.7011L7.24269 79.6896L7.25875 79.6774L7.27251 79.6636L7.28781 79.6506L7.30693 79.643L7.32145 79.63L7.33828 79.6193L7.35281 79.6063L7.37116 79.5971L7.38646 79.5842L7.40404 79.575L7.42087 79.5651L7.43922 79.5574L7.45604 79.5475L7.47134 79.5345L7.49122 79.5291L7.50881 79.52L7.52487 79.5085L7.54322 79.5009L7.56234 79.4947L7.5784 79.484L7.59675 79.4756L7.61358 79.4649L7.63193 79.4573L7.65028 79.4512L7.66787 79.4413L7.68699 79.4359L7.70611 79.4298L7.72523 79.4244L7.74358 79.4176L7.7627 79.4122L7.78028 79.4023L7.80017 79.4L7.81929 79.3962L7.83687 79.387L7.85752 79.3855L7.87587 79.3794L7.89499 79.374L7.91487 79.3709L7.93476 79.3702L7.95388 79.3656L7.97299 79.3618L7.99211 79.3557L8.01123 79.3511L8.03111 79.3465L8.05099 79.3495L8.07011 79.3434L8.08999 79.3419L8.10988 79.3396L8.12976 79.3411L8.14888 79.3358L8.16876 79.3389L8.18864 79.3366L8.20853 79.335L8.22764 79.3304L8.24753 79.3335L8.26741 79.3366L8.28729 79.3343L8.30717 79.3358L8.32706 79.3343H8.34694L8.36682 79.3335L8.38594 79.3358L8.40582 79.3373L8.42494 79.3427L8.44482 79.3457L8.46471 79.3427L8.48459 79.3465L8.50371 79.3495L8.52359 79.3511L8.54347 79.3526L8.56182 79.3618L8.58171 79.3648L8.60083 79.3687L8.61994 79.3725L8.63906 79.3778L8.65818 79.3816L8.67806 79.3839L8.69718 79.3908L8.7163 79.3946L8.73465 79.4015L8.75453 79.4038L8.77289 79.4114L8.792 79.416L8.81036 79.426L8.82871 79.4321L8.84783 79.4367L8.86618 79.4443L8.88377 79.4542L8.90212 79.4604L8.92124 79.4657L8.93806 79.4764L8.95795 79.4818L8.97554 79.4894L8.99083 79.5032L9.00918 79.5116L9.0283 79.5169L9.04589 79.5253L9.06118 79.5391L9.08183 79.5429L9.09866 79.5536L9.11242 79.5689L9.13307 79.5727L9.14836 79.5857L9.16442 79.5971L9.18048 79.6094L9.1973 79.6185L9.21413 79.6292L9.23172 79.6384L9.24548 79.6537L9.26154 79.6652L9.27836 79.6759L9.29366 79.6881L9.31048 79.698L9.32272 79.7148L9.34031 79.7248L9.35484 79.7378L9.37013 79.7507L9.3816 79.7668L9.39766 79.779L9.41219 79.792L9.42825 79.8042L9.44125 79.8188L9.45654 79.8318L9.47031 79.8455L9.48407 79.86L9.49631 79.8753L9.50701 79.8921L9.52307 79.9051L9.53148 79.9235L9.54907 79.9342L9.55672 79.954L9.56972 79.9685L9.58349 79.9831L9.59802 79.9968L9.60643 80.0144L9.61866 80.0304L9.63166 80.0457L9.64237 80.0618L9.65384 80.0778L9.66149 80.0962L9.67602 80.1107L9.68443 80.129L9.69513 80.1458L9.70278 80.1634L9.71578 80.1795L9.72419 80.197L9.7326 80.2146L9.74025 80.233L9.75249 80.249L9.76243 80.2658L9.76625 80.2864L9.78078 80.301L9.78461 80.3208L9.79608 80.3376L9.79761 80.3583L9.80984 80.3743L9.81443 80.3942L9.82284 80.4118L9.82743 80.4316L9.83814 80.4485L9.83967 80.4683L9.84808 80.4867L9.85725 80.5042L9.86031 80.5241L9.86414 80.544L9.87255 80.5623L9.87714 80.5814L9.8779 80.6013L9.88708 80.6196L9.89243 80.6387L9.89549 80.6578L9.89472 80.6785L9.9039 80.6968L9.90161 80.7167L9.90849 80.7358L9.90696 80.7557L9.91002 80.7755L9.91614 80.7946L9.91767 80.8145L9.91996 80.8336L9.92531 80.8535L9.92455 80.8733L9.92531 80.8932L9.92684 80.9123L9.92455 80.9322L9.92378 80.9521L9.92531 80.9719L9.92914 80.9918Z" fill="#86EFCE"/>
<path d="M209.439 83.5077L212.66 83.2445L211.067 64.6316" stroke="#080B0E" stroke-linecap="round" stroke-linejoin="round"/>
<path d="M56.2769 15.639C55.7683 13.774 56.8679 11.85 58.7328 11.3415L88.5981 3.19806C90.463 2.68955 92.387 3.78913 92.8956 5.65404L98.4786 26.1294C98.9871 27.9943 97.8875 29.9183 96.0226 30.4268L66.1574 38.5703C64.2925 39.0788 62.3684 37.9792 61.8599 36.1143L56.2769 15.639Z" fill="#090B0E" stroke="black"/>
<circle cx="75.9966" cy="20.6014" r="5.32071" transform="rotate(-11.759 75.9966 20.6014)" fill="#86EFCE" stroke="#86EFCE"/>
<path d="M78.287 21.638C78.257 21.8154 78.3246 21.9953 78.464 22.109C78.6035 22.2227 78.7932 22.2527 78.961 22.1876L84.4618 20.0516C84.6235 19.9888 84.7411 19.8467 84.7726 19.6761C84.804 19.5055 84.7447 19.3308 84.616 19.2145L80.1588 15.1878C80.0234 15.0654 79.832 15.0266 79.6596 15.0864C79.4872 15.1463 79.3611 15.2953 79.3306 15.4753L78.287 21.638Z" stroke="white" stroke-linejoin="round"/>
<path d="M48.1788 54.7157C48.1788 52.7827 49.7458 51.2157 51.6788 51.2157H172.461C174.394 51.2157 175.961 52.7827 175.961 54.7157V110.706C175.961 112.639 174.394 114.206 172.461 114.206H51.6789C49.7459 114.206 48.1789 112.639 48.1789 110.706L48.1788 54.7157Z" fill="white" stroke="black"/>
<rect x="68.6533" y="75.6624" width="25.4325" height="2" rx="1" fill="#090B0E"/>
<path d="M69.002 90.4412H128.624" stroke="#080B0E" stroke-linecap="round" stroke-linejoin="round"/>
<path d="M69.002 95.5271H155.404" stroke="#080B0E" stroke-linecap="round" stroke-linejoin="round"/>
<rect x="113.106" y="2.54678" width="39.1614" height="18.2409" transform="rotate(9.70336 113.106 2.54678)" fill="#D9FFEF" stroke="black" stroke-linejoin="round"/>
<path d="M121.75 4.11304L118.485 21.9396" stroke="#090B0E" stroke-linejoin="round"/>
<path d="M111.834 10.4136L150.268 16.9854" stroke="#090B0E" stroke-linejoin="round"/>
<path d="M110.834 15.1497L149.268 21.7215" stroke="#090B0E" stroke-linejoin="round"/>
<rect x="113.502" y="3.1239" width="38.1614" height="2.48879" transform="rotate(9.70336 113.502 3.1239)" fill="#090B0E"/>
<rect x="9.52344" y="103.559" width="196.461" height="22.8321" fill="white"/>
<rect x="107.164" y="30.031" width="56.351" height="25.6303" rx="1.5" transform="rotate(9.55644 107.164 30.031)" fill="#080B0E" stroke="black" stroke-linejoin="round"/>
<rect x="105.394" y="31.1597" width="56.351" height="25.6303" rx="1.5" transform="rotate(9.55644 105.394 31.1597)" fill="white" stroke="black" stroke-linejoin="round"/>
<path d="M111.633 40.3726L149.104 46.681" stroke="#080B0E" stroke-linecap="round" stroke-linejoin="round"/>
<path d="M110.835 45.1178L134.733 49.1412" stroke="#080B0E" stroke-linecap="round" stroke-linejoin="round"/>
<defs>
<linearGradient id="paint0_linear_356_9857" x1="6.76172" y1="60.6923" x2="209.809" y2="45.6052" gradientUnits="userSpaceOnUse">
<stop stop-color="#96F2BC" stop-opacity="0.9"/>
<stop offset="1" stop-color="#3EFFFF" stop-opacity="0.9"/>
</linearGradient>
</defs>
</svg>
