<svg fill="none" height="192" viewBox="0 0 378 192" width="378" xmlns="http://www.w3.org/2000/svg" xmlns:xlink="http://www.w3.org/1999/xlink"><filter id="a" color-interpolation-filters="sRGB" filterUnits="userSpaceOnUse" height="151.662" width="214.833" x="87" y="14.9995"><feFlood flood-opacity="0" result="BackgroundImageFix"/><feColorMatrix in="SourceAlpha" result="hardAlpha" type="matrix" values="0 0 0 0 0 0 0 0 0 0 0 0 0 0 0 0 0 0 127 0"/><feOffset dy="4"/><feGaussianBlur stdDeviation="2"/><feComposite in2="hardAlpha" operator="out"/><feColorMatrix type="matrix" values="0 0 0 0 0 0 0 0 0 0 0 0 0 0 0 0 0 0 0.25 0"/><feBlend in2="BackgroundImageFix" mode="normal" result="effect1_dropShadow_362:5022"/><feBlend in="SourceGraphic" in2="effect1_dropShadow_362:5022" mode="normal" result="shape"/></filter><clipPath id="b"><path d="m0 80.9995h13v13h-13z"/></clipPath><clipPath id="c"><path d="m24 127h6v6h-6z"/></clipPath><clipPath id="d"><path d="m328.804 61.9995h6v6h-6z"/></clipPath><clipPath id="e"><path d="m0 0h57.3801v50.3179h-57.3801z" transform="matrix(.277638 .960686 .960686 -.277638 35 28.9697)"/></clipPath><path d="m350.315.204635.657 1.136135-.423 1.53078.174 1.40218.431 1.42804.559 1.44099-.288 1.48143.63 1.38521-.096 1.5008-.223 1.488.366 1.4215.04 1.4516-.224 1.4879.039 1.4515.431 1.428-.224 1.4879-.153 1.4322.104 1.4579.296 1.4774-.224 1.4879.302 1.4152.033 1.5137-.409 1.4063-.089 1.4386.232 1.4709-.416 1.4685.424 1.4903-.474 1.3998.161 1.5267-.409 1.4062.103 1.458-.352 1.475-.281 1.4192-.345 1.4127-.095 1.5008.103 1.458-.538 1.3933-.473 1.3998-.095 1.5008-.41 1.4063-.345 1.4127.289 1.5396-.409 1.4063-.98 1.2857-.153 1.4322.033 1.5137-.224 1.488-.973 1.2235.283 1.6019-1.102 1.2105.097 1.5203-.666 1.3804-.159 1.4944-.66 1.3181-.844 1.2364-.224 1.4879-.717 1.2494.09 1.5825-1.075 2.7866-1.094 1.1483-.41 1.4063-.159 1.4943-.845 1.2365-.41 1.4062-.973 1.2235-.845 1.2365-.409 1.4062-.717 1.2494-.659 1.3181-.166 1.5566-.966 1.1609-.352 1.475-.967 1.162-1.145 1.017-1.319 2.636-.537 1.393-.659 1.319-.538 1.393-1.145 1.017-.66 1.318-1.024 1.093-.48 1.462-1.203.948-.845 1.237-.78 1.243-.838 1.174-.481 1.462-.844 1.236-1.203.949-.903 1.168-.781 1.243-.723 1.311-1.081 1.024-.967 1.161-.959 1.099-.845 1.237-1.139.955-1.081 1.023-.845 1.237-1.318.811-1.082 1.024-.78 1.243-.788 1.305-1.139.955-1.375.742-.96 1.099-1.26.88-.838 1.174-.794 1.368-1.605.467-.852 1.299-1.017 1.03-1.082 1.024-1.375.742-1.304.687-1.024 1.092-1.082 1.024-.909 1.23-1.598.405-.909 1.23-1.024 1.093-1.599.405-1.247.755-1.081 1.024-2.508 1.635-1.138.955-1.197.886-1.139.956-1.368.68-1.247.755-2.508 1.635-1.413.487-1.318.811-1.362.618-1.247.755-1.037 1.217-1.578.219-1.305.686-1.311.749-1.196.886-1.477.481-1.197.886-1.477.48-1.253.818-1.464.356-1.413.487-1.203.948-1.629.088-1.356.555-1.362.618-1.324.873-1.457.294-1.508.163-2.724 1.235-1.318.811-1.572.156-1.311.749-1.406.425-1.667-.168-1.464.356-1.26.879-1.508.163-1.457.294-1.477.48-1.45.231-1.515.225-1.457.294-2.927.711-1.45.232-1.396.929-1.501.1-1.545-.093-1.451.232-1.501.1-1.419.549-1.47.418-1.539-.155-1.484.543-1.45.231-1.583-.349-1.501.101-1.481-.087-1.446.798-1.488-.024-1.526-.28-1.508.163-1.494.038-1.552-.031-1.444.169-1.501.101-1.521.287-1.545-.093-1.495.038-1.485-.653-1.477.48-1.559.032-1.455-.336-1.481-.087-1.532-.217-1.461-.273-1.495.038-1.578.218-1.455-.335-1.494.038-1.422-.647-1.558.031-1.495.038-1.428-.584-1.532-.218-1.508.163-1.421-.647-1.468-.211-1.545-.093-1.481-.086-1.435-.523-1.415-.709-1.585.281-1.351-.703-1.448-.398-1.572.156-1.428-.584-1.357-.641-1.421-.647-1.475-.148-1.545-.093-1.428-.585-1.455-.335-1.35-.703-1.274-.821-1.629.088-1.357-.641-1.273-.821-1.63.088-1.337-.827-1.461-.274-1.26-.945-1.442-.46-1.189-1.001-1.37-.516-1.532-.217-1.364-.579-1.435-.522-1.357-.64-1.267-.883-1.448-.398-1.041-1.175-1.505-.467-1.1252-.994-1.448-.398-1.4346-.522-1.0343-1.238-1.3573-.64-1.5962-.224-1.1183-1.057-1.2091-.814-1.5055-.467-1.1184-1.056-1.0542-1.051-1.4347-.522-.9768-1.169-1.344-.765-1.2798-.758-1.3573-.64-.9835-1.107-1.1251-.994-1.6469-.355-.9061-1.224-1.4214-.647-.9901-1.044-1.2666-.883-.9902-1.044-1.3506-.703-1.125-.994-.8353-1.281-.9061-1.224-1.4922-.591-.8353-1.28-1.2798-.758-.8354-1.28-1.4855-.654-.7004-1.329-.9769-1.169-1.4921-.591-.5523-1.503-1.1251-.995-.9127-1.162-1.125-.994-1.4148-.709-.8486-1.156-.623-1.447-1.4148-.709-.5522-1.504-1.2666-.883-.7713-1.273-1.1957-.939-1.5425-2.547-1.1957-.939-.4949-1.435-1.0543-1.05-.7004-1.329-.9128-1.162-.7712-1.274-.7071-1.267-1.2599-.945-.2892-1.54-1.324-.952-.842-1.218-.2959-1.477-1.0476-1.113-.3599-1.483-.9836-1.107-.6297-1.385-.9127-1.162-.842-1.218-.0902-1.582-1.0476-1.1128-.4949-1.4345-.9127-1.162-.7712-1.2736-.2317-1.4709-.6298-1.3852-.3665-1.4216-1.1825-1.0633-.5015-1.3723-.7713-1.2736-.0902-1.5825-.643-1.2607-.8994-1.2865-.3026-1.4151-.7331-2.8432-.8354-1.28-.3666-1.4216.0314-1.5073-.7005-1.3294-.8353-1.2801-.4307-1.428.1662-1.5567-.5015-1.3722-.3025-1.4152-.9635-1.2929.1662-1.5567-.4374-1.3658-.4307-1.428-.3025-1.4152-.5656-1.3787.2304-1.5502-.8354-1.28-.2317-1.4709.0822-1.3763 1.5078-.1626 1.3687-.6801 1.5011-.1003 1.4703-.4181 1.4879.0242 1.5144-.2249 1.4571-.2936 1.4945-.038 1.4194-.5491 1.5896.2862 1.4195-.5491 1.5011-.1003 1.4437-.1691 1.4836-.5426 1.4437-.1691 1.5895.2862 1.4261-.6113 1.4504-.2314 1.4261-.6113 1.5696.473 1.3952-.9292 1.5387.1552 1.4437-.169 1.457-.2936 1.5145-.2248 1.5453.0929 1.3753-.7424 1.5387.1553 1.5079-.1626 1.4436-.1691 1.3953-.9291 1.4945-.0381 1.5078-.1626 1.4129-.4868 1.4945-.0381 1.5453.093 1.4703-.4181 1.5079-.1626 1.4812.0865 1.4261-.6114 1.4195-.5491 1.4945-.038 1.5012-.1004 1.5586-.0316 1.4062-.4245 1.4195-.5492 1.5386.1553 1.4262-.6114 1.5586-.0316 1.457-.2936 1.4504-.2313 1.5078-.1626 1.4637-.3558 1.4569-.2936 1.4504-.2313 1.5144-.2248 1.5763.4107 1.4636-.3558 1.4126-.4869 1.471-.4181 1.582.3485 1.382-.8047 1.488.0243 1.464-.3559 1.508-.1626 1.545.093 1.382-.8046 1.481.0864 1.508-.1626 1.515-.2248 1.45-.2313 1.457-.2936 1.545.093 1.395-.9292 1.482.0865 1.538.1552 1.464-.3558 1.521-.2872 1.495-.038 1.382-.8046 1.582.3484 1.457-.2935 1.502-.1004 1.375-.7423 1.494-.0381 1.427-.6114 1.532.2175 1.432-.6736 1.546.0929 1.488.0242 1.507-.1625 1.427-.6114 1.45-.2313 1.47-.4181 1.539.1552 1.494-.0381 1.389-.8669 1.57.473 1.463-.3558 1.477-.4804 1.501-.1003 1.471-.4181 1.412-.4869 1.583.3485 1.413-.4868 1.464-.3559 1.532.2175 2.94-.8362 1.495-.0381 1.501-.1003 1.413-.4868 1.477-.4804 1.501-.1003 1.464-.3558 1.538.1552 1.464-.3559 1.481.0865 1.515-.2248 1.375-.7424 1.47-.4181 1.583.3485 1.376-.7424 1.501-.1003 1.463-.3559 1.495-.038 1.47-.4181 1.576.4107 1.451-.2313 1.433-.6737 1.457-.2935 1.47-.4181 1.45-.2313 1.559-.0316 1.481.0865 1.47-.4182 1.508-.1626 1.464-.3558 1.443-.169 1.427-.6114 1.552.0307 1.487.0242 1.44-.7359 1.583.3485 1.501-.1003 1.413-.4869 1.45-.2313 1.457-.2936 1.521-.2871 1.451-.2313 1.552.0307 1.382-.8047 1.487.0242 1.471-.4181 1.538.1553 1.502-.1004 1.412-.4868 1.515-.2248 1.444-.1691 1.476-.4804 1.457-.2935 1.539.1552 1.433-.6737 1.57.473 1.412-.4868 1.471-.4181 1.545.0929 1.419-.5491 1.488.0242 1.521-.2871 1.362-.6178 1.583.3485 1.44-.7359 1.463-.3559 1.451-.2313 1.589.2862 1.495-.038 1.457-.2936 1.47-.4181 1.369-.6801 1.552.0307 1.463-.3559 1.471-.41809 1.532.21749 1.488.0242 1.432-.67365 1.539.15521 1.433-.67363 1.525.27976 1.515-.22487 1.406-.42456 1.483-.54265 1.471-.4181 1.518.34202 1.477-.48038 1.407-.4246 1.565-.09383 1.532.21747 1.457-.29358 1.382-.80464 1.532.21748 1.426-.61136 1.545.09295 1.559-.0316 2.927-.71166 1.42-.54913 1.525.27974 1.382-.80464 1.508-.16259 1.494-.03802 1.477-.48038 1.59.28623 1.375-.74241 1.583.3485 1.501-.10031 1.433-.67366 1.406-.42456 1.464-.35584 1.552.03067 1.539.15522 1.412-.48683 1.502-.10033 1.521-.287126 1.494-.03804 1.47-.418106 1.477-.48037676z" fill="#d9ffef"/><g clip-path="url(#b)"><path d="m6.56566 94.1308c3.62614 0 6.56564-2.9395 6.56564-6.5656s-2.9395-6.5657-6.56564-6.5657c-3.62612 0-6.56566 2.9396-6.56566 6.5657s2.93954 6.5656 6.56566 6.5656z" fill="#d9ffef"/></g><g clip-path="url(#c)"><path d="m27.0303 133.06c1.6736 0 3.0303-1.357 3.0303-3.03 0-1.674-1.3567-3.03-3.0303-3.03s-3.0303 1.356-3.0303 3.03c0 1.673 1.3567 3.03 3.0303 3.03z" fill="#85efce"/></g><g clip-path="url(#d)"><path d="m331.835 68.0601c1.673 0 3.03-1.3567 3.03-3.0303s-1.357-3.0303-3.03-3.0303c-1.674 0-3.031 1.3567-3.031 3.0303s1.357 3.0303 3.031 3.0303z" fill="#85efce"/></g><path d="m0 0h17.1658v17.1658h-17.1658z" fill="#d9ffef" transform="matrix(.58915546 .8080197 -.8080197 .58915546 362.87 87.9995)"/><path d="m39.3664 78.5943-4.7717-4.5948-4.5947 4.7717 4.7717 4.5948z" fill="#85efce"/><path d="m377.366 31.5943-4.771-4.5948-4.595 4.7717 4.772 4.5948z" fill="#85efce"/><g filter="url(#a)"><g clip-rule="evenodd" fill-rule="evenodd"><path d="m94.1597 158.661h200.5203c1.494 0 2.74-1.248 2.74-2.863v-137.2739c0-1.615-1.246-2.863-2.74-2.863h-200.5203c-1.4946 0-2.74 1.248-2.74 2.863v137.2739c0 1.615 1.1624 2.863 2.74 2.863z" fill="#fff"/><path d="m91.5872 39.9228h205.9168v-21.4224c0-1.8338-.5-3.2509-2-3.2509h-201.2501c-1.5 0-2.75 1.4171-2.75 3.2509v21.4224z" fill="#fff"/><path d="m91 17.0834h206.833c-.416-1.2503-1.25-2.0839-2.25-2.0839h-202.1663c-1 0-1.9167.8336-2.4167 2.0839z" fill="#61f1cc"/></g><path d="m108.254 43.0077c4.418 0 8-3.5827 8-8.0021 0-4.4195-3.582-8.0022-8-8.0022-4.419 0-8 3.5827-8 8.0022 0 4.4194 3.581 8.0021 8 8.0021z" fill="#61f1cc"/><path d="m105.171 35.3382 2.083 1.7504 4.167-4.3344" stroke="#231f20" stroke-linecap="round" stroke-miterlimit="10" stroke-width="1.52051"/></g><g clip-path="url(#e)"><path d="m78.1097 19.0947c2.6186 4.2504 5.2372 8.5007 7.8558 12.751.5295.8512 1.0573 1.7435 1.1081 2.76.0597 1.0005-.4835 1.8766-1.3205 2.3899-.8671.5492-1.973.6924-2.9431.932-1.1606.2811-2.3086.5587-3.4728.8272-2.727.6525-5.454 1.3049-8.1809 1.9573-1.2104.2955-1.691-1.601-.4806-1.8966 4.2934-1.0236 8.6028-2.0384 12.889-3.0871.3524-.0883.9186-.1841 1.2578-.4585-.0483-.0268-.0929-.041-.1411-.0678-4.4987-2.6757-9.2835-5.5944-14.596-6.1352-4.4656-.4599-9.6503.8892-12.1645 4.9403-2.8166 4.5456-1.5689 10.2641-.2824 15.0894.7702 2.8984 1.5616 5.777 1.8885 8.7764.273 2.4857.2662 4.9844-.0025 7.4639-.6395 5.6804-2.6145 11.1769-5.8563 15.886-.701 1.0304-2.3822.0236-1.6687-1.0103 2.9159-4.2487 4.8363-9.1866 5.5033-14.305.3394-2.6084.3847-5.254.1005-7.8722-.316-2.9617-1.1573-5.826-1.9202-8.6994-1.3666-5.1956-2.4407-11.1542.4064-16.0615 2.543-4.3715 7.7215-6.3023 12.5882-6.2297 5.6133.0875 10.7305 2.8016 15.4952 5.6039-.043-.0554-.0735-.1144-.1041-.1734-1.2132-1.9562-2.414-3.916-3.6272-5.8721-1.3443-2.1762-2.6922-4.3648-4.0365-6.5409-.6516-1.0872 1.0441-2.0386 1.7046-.9676z" fill="#000" stroke="#000" stroke-miterlimit="10" stroke-width="1.61339"/></g><rect fill="#ced2d9" height="6.03673" rx="3.01837" width="149" x="120" y="73.9995"/><rect fill="#090b0e" height="6.03673" rx="3.01837" width="58" x="120" y="54.9995"/><g fill="#ced2d9"><rect height="6.03673" rx="3.01837" width="149" x="120" y="88.0366"/><rect height="6.03673" rx="3.01837" width="149" x="120" y="103"/></g></svg>