<svg width="246" height="117" viewBox="0 0 246 117" fill="none" xmlns="http://www.w3.org/2000/svg">
<path opacity="0.3" d="M26.4933 100.465L26.1861 99.8247L26.4981 99.0149L26.4668 98.2252L26.2815 97.4346L26.0312 96.6604L26.2486 95.8611L25.9741 95.0531L26.0969 94.2644L26.2791 93.4874L26.1586 92.6803L26.1868 91.9023L26.3987 91.131L26.4323 90.325L26.247 89.5343L26.4346 88.7293L26.5817 87.9744L26.6153 87.1684L26.4948 86.3613L26.677 85.5843L26.616 84.7888L26.6496 83.9828L26.921 83.2231L27.0383 82.4624L26.9828 81.639L27.2542 80.8793L27.104 80.0665L27.4051 79.3126L27.409 78.5007L27.7101 77.7468L27.7085 76.963L27.9502 76.1975L28.1919 75.432L28.4578 74.7002L28.5509 73.9058L28.5547 73.094L28.9153 72.3516L29.2704 71.6372L29.3932 70.8486L29.6591 70.1168L29.9305 69.3571L29.8507 68.5L30.1166 67.7682L30.7338 67.1339L30.8863 66.3511L30.9254 65.5171L31.1319 64.7738L31.7193 64.1337L31.6449 63.2485L32.2864 62.648L32.3255 61.814L32.7643 61.145L32.8925 60.3283L33.3016 59.6535L33.8539 59.0356L34.0416 58.2305L34.5102 57.5673L34.5195 56.7275L34.8746 56.0131L35.2297 55.2988L35.8955 54.732L36.1912 54.006L36.3491 53.1952L36.8717 52.5715L37.1431 51.8117L37.7494 51.2334L38.2719 50.6096L38.5731 49.8557L39.0362 49.2204L39.4453 48.5456L39.6087 47.7068L40.215 47.1284L40.4567 46.3629L41.0332 45.7787L41.7178 45.2736L42.1567 44.6046L42.5955 43.9355L42.9561 43.1932L43.3895 42.5521L43.7203 41.804L44.4292 41.3326L44.8437 40.6298L45.4743 40.0852L45.8052 39.3371L46.5086 38.8937L47.0554 38.3037L47.524 37.6405L48.0411 37.0447L48.3774 36.2686L48.8945 35.6729L49.6277 35.2353L50.1745 34.6453L50.6674 34.0158L51.1359 33.3525L51.7908 32.8417L52.3376 32.2517L52.9385 31.7013L53.4611 31.0775L54.159 30.6621L54.7896 30.1175L55.3067 29.5217L56.0884 29.1516L56.7378 28.6687L57.2307 28.0392L57.729 27.3817L58.3784 26.8988L59.2086 26.5962L59.7798 26.04L60.5075 25.6303L61.0598 25.0124L61.558 24.3549L62.4557 24.1815L62.954 23.5241L63.6088 23.0132L64.2582 22.5303L65.0345 22.1881L65.8053 21.8739L66.4304 21.3573L67.0798 20.8743L67.6321 20.2564L68.5243 20.111L69.1063 19.4988L69.7072 18.9484L70.5994 18.803L71.3459 18.455L71.9953 17.9721L72.7418 17.6242L73.4695 17.2145L74.1432 16.7654L74.8411 16.3499L75.5148 15.9008L76.3153 15.5924L77.0619 15.2444L77.7787 14.8907L78.5306 14.5148L79.3391 14.3241L80.0856 13.9761L80.8807 13.6957L81.5975 13.342L82.239 12.7414L83.1336 12.7416L83.9044 12.4274L84.6509 12.0795L85.3786 11.6698L86.1871 11.4791L86.9148 11.0694L87.7178 10.9066L88.4752 10.5028L89.3025 10.3737L90.1055 10.2109L90.8441 9.74536L91.7279 9.80143L92.5418 9.58271L93.3314 9.33024L94.0591 8.9206L94.9107 8.82529L95.7459 8.81387L96.5355 8.5614L97.3306 8.28097L98.0826 7.90508L98.9718 7.93319L99.7426 7.61901L100.551 7.42825L101.437 7.62991L102.265 7.50086L103.022 7.09701L103.892 7.06341L104.709 6.99028L105.542 6.83327L106.382 6.79388L107.199 6.72075L108.05 6.62545L108.872 6.52435L109.694 6.42326L110.535 6.38387L111.327 5.95785L112.157 5.97439L113 6.08059L113.835 6.06917L114.7 6.06353L115.514 5.84481L116.342 5.71576L117.204 5.88367L118.023 5.63699L118.858 5.62556L119.704 5.87735L120.558 5.92764L121.396 6.0618L122.237 5.70328L123.061 5.74778L123.907 5.99957L124.736 6.0161L125.561 6.0606L126.409 6.13884L127.239 6.15537L128.099 6.1777L128.95 6.0824L129.783 6.24452L130.607 6.28901L131.42 6.70856L132.288 6.52938L133.107 6.60183L133.917 6.87579L134.76 6.98199L135.582 7.20004L136.403 7.41808L137.227 7.46257L138.098 7.42898L138.914 7.67498L139.762 7.75322L140.516 8.16119L141.365 8.23943L142.219 8.28972L142.972 8.69769L143.799 8.88777L144.664 8.88213L145.412 9.31806L146.239 9.50814L147.082 9.61435L147.92 9.74851L148.684 10.1006L149.427 10.5644L150.332 10.5087L151.045 10.9668L151.856 11.2407L152.745 11.2689L153.509 11.6209L154.228 12.051L154.981 12.459L155.814 12.6211L156.651 12.7553L157.405 13.1633L158.221 13.4093L158.934 13.8674L159.606 14.3756L160.525 14.4095L161.243 14.8396L161.916 15.3479L162.829 15.4097L163.507 15.89L164.358 16.1138L164.979 16.7281L165.754 17.0242L166.375 17.6385L167.139 17.9905L167.996 18.1864L168.72 18.5886L169.484 18.9406L170.203 19.3708L170.875 19.879L171.68 20.1809L172.19 20.8897L172.995 21.1916L173.58 21.828L174.391 22.102L175.155 22.454L175.66 23.1907L176.383 23.5929L177.264 23.8225L177.855 24.431L178.498 24.9335L179.298 25.2633L179.859 25.866L180.409 26.5246L181.204 26.8825L181.684 27.5854L182.397 28.0435L183.074 28.5238L183.798 28.926L184.313 29.6068L184.88 30.1815L185.78 30.4728L186.23 31.17L186.984 31.578L187.504 32.2308L188.142 32.7612L188.668 33.386L189.41 33.8499L189.972 34.4526L190.387 35.172L190.837 35.8691L191.621 36.2829L192.036 37.0022L192.714 37.4825L193.129 38.2018L193.907 38.6435L194.252 39.4072L194.737 40.0822L195.55 40.5017L195.789 41.3319L196.386 41.9124L196.807 42.6038L197.403 43.1843L198.175 43.654L198.596 44.3454L198.871 45.1534L199.643 45.6231L199.853 46.4475L200.52 46.9836L200.9 47.7251L201.531 48.2835L201.911 49.025L202.267 49.7327L202.893 50.3191L203.108 51.1155L203.664 51.7461L203.95 52.4982L204.406 53.1674L204.821 53.8868L205.136 54.6446L205.797 55.2088L205.877 56.0659L206.574 56.6079L206.989 57.3272L207.104 58.1622L207.625 58.815L207.745 59.6221L208.26 60.3028L208.546 61.0549L209.002 61.7241L209.417 62.4435L209.402 63.3112L209.953 63.9698L210.143 64.7325L210.624 65.4354L210.979 66.1432L211.065 66.9724L211.315 67.7466L211.47 68.5315L212.086 69.1737L212.306 69.9422L212.657 70.6779L212.647 71.5177L212.963 72.2756L213.413 72.9727L213.474 73.7682L213.63 74.553L213.785 75.3379L214.165 76.0794L214.321 76.8642L214.252 77.6924L214.567 78.4503L214.982 79.1696L215.168 79.9603L214.975 80.7933L215.195 81.5617L215.321 82.3408L215.79 83.0997L215.603 83.9047L215.788 84.6953L216.009 85.4638L216.07 86.2592L216.35 87.0393L216.132 87.8385L216.566 88.6196L216.627 89.415L216.486 90.142L215.686 90.1312L214.855 90.4338L214.02 90.4452L213.193 90.5743L212.344 90.4961L211.539 90.5133L210.687 90.6086L209.839 90.5303L209.049 90.7828L208.173 90.5252L207.36 90.7439L206.53 90.7274L205.695 90.7388L204.856 90.9238L204.045 90.969L203.165 90.7394L202.375 90.9918L201.534 91.0312L200.715 91.2779L199.856 90.9364L199.063 91.3625L198.196 91.2225L197.361 91.2339L196.544 91.3071L195.704 91.3464L194.866 91.2123L194.065 91.5207L193.203 91.3528L192.363 91.3921L191.527 91.4036L190.735 91.8296L189.886 91.7513L189.051 91.7628L188.237 91.9815L187.388 91.9032L186.551 91.7691L185.718 91.9261L184.888 91.9096L184.045 91.8034L183.226 92.05L182.406 92.2967L181.558 92.2185L180.728 92.2019L179.879 92.1237L179.047 92.2807L178.227 92.5274L177.395 92.3653L176.576 92.612L175.727 92.5337L174.911 92.6068L174.07 92.6462L173.235 92.6577L172.407 92.7867L171.561 92.854L170.745 92.9272L169.904 92.9666L169.04 92.6531L168.218 92.7542L167.404 92.9729L166.577 93.1019L165.707 92.8164L164.895 93.1807L164.082 93.0803L163.225 93.2036L162.39 93.215L161.552 93.0808L160.74 93.4451L159.903 93.311L159.068 93.3224L158.227 93.3618L157.386 93.4012L156.564 93.5023L155.727 93.3681L154.904 93.7883L154.067 93.6542L153.205 93.4862L152.377 93.6153L151.561 93.6884L150.707 93.6381L149.901 93.9745L149.055 93.7227L148.233 93.8238L147.374 93.8015L146.573 94.1099L145.725 94.0316L144.93 94.312L144.073 94.1162L143.248 94.3908L142.405 94.2846L141.562 94.1784L140.732 94.1619L139.907 94.4365L139.067 94.4759L138.234 94.6329L137.402 94.4708L136.553 94.3926L135.736 94.7848L134.872 94.4713L134.05 94.5724L133.241 94.7632L132.382 94.7409L131.555 94.8699L130.746 95.0607L129.9 94.8089L129.062 94.9938L128.24 95.0949L127.384 94.8991L126.557 95.0281L125.724 95.1851L124.905 95.1127L124.04 95.1183L123.232 95.3091L122.423 95.4998L121.564 95.4775L120.742 95.5786L119.88 95.4107L119.058 95.5118L118.215 95.4056L117.374 95.445L116.574 95.7534L115.741 95.9104L114.871 95.6248L114.065 95.9612L113.235 95.9447L112.413 96.0457L111.565 95.9675L110.726 96.1525L109.862 95.839L109.046 95.9121L108.226 96.1588L107.404 96.2599L106.577 96.3889L105.736 96.4283L104.882 96.378L104.045 96.2439L103.212 96.4009L102.371 96.4403L101.555 96.5134L100.714 96.5528L99.8948 96.7995L99.0461 96.7212L98.203 96.615L97.4025 96.9234L96.5325 96.6379L95.7027 96.6213L94.8645 96.8063L94.0536 96.8515L93.202 96.9468L92.3856 97.0199L91.5395 97.0873L90.6963 96.9811L89.8849 97.3454L89.0417 97.2392L88.2387 97.402L87.3767 97.2341L86.5227 97.1838L85.7088 97.4025L84.8735 97.4139L84.0329 97.4533L83.2298 97.6161L82.3837 97.6835L81.5217 97.5155L80.7212 97.8239L79.8621 97.4825L79.0482 97.7012L78.2209 97.8303L77.3535 97.6903L76.5396 97.909L75.6964 97.8028L74.8746 97.9039L74.0498 98.1786L73.1798 97.893L72.3793 98.2014L71.552 98.3305L70.7114 98.3698L69.8602 98.146L69.0116 98.0678L68.1952 98.1409L67.3625 98.2979L66.562 98.6063L65.7134 98.5281L64.8915 98.6291L64.0642 98.7582L63.2022 98.5903L62.359 98.4841L61.5342 98.7587L60.6722 98.5908L59.8717 98.8992L59.0261 98.6474L58.1854 98.6868L57.3472 98.8718L56.5387 99.0625L55.706 99.2195L54.8361 98.934L54.0222 99.1527L53.1949 99.2818L52.3705 99.2373L51.5085 99.0694L50.6624 99.1367L49.8564 99.4731L48.9944 99.3052L48.2048 99.5576L47.3374 99.4177L46.4887 99.3394L45.6615 99.4685L44.8342 99.5975L44.0203 99.8163L43.1449 99.5587L42.3632 99.9288L41.4982 99.9344L40.6739 99.8899L39.8412 100.047L38.99 99.8231L38.1895 100.131L37.3141 99.8739L36.4844 99.8574L35.6596 100.132L34.8214 100.317L34.005 100.39L33.1564 100.312L32.2944 100.144L31.4859 100.335L30.6318 100.284L29.81 100.386L28.9559 100.335L28.1232 100.492L27.2904 100.649L26.4933 100.465Z" fill="url(#paint0_linear_671_9303)"/>
<path d="M55.198 32.7096L121.505 22.884C123.431 22.5987 125.219 23.9395 125.485 25.8679L134.326 89.9575C134.578 91.7883 133.364 93.4999 131.553 93.8663L65.448 107.238C63.4634 107.639 61.5533 106.278 61.2849 104.271L52.2419 36.6356C51.9883 34.7388 53.3051 32.9901 55.198 32.7096Z" fill="white" stroke="black"/>
<path d="M63.8389 47.1487L78.231 45.016" stroke="#080B0E" stroke-linecap="round" stroke-linejoin="round"/>
<path d="M65.2749 56.8396L110.319 50.1649" stroke="#080B0E" stroke-linecap="round" stroke-linejoin="round"/>
<path d="M65.9004 61.0608L120.169 53.0191" stroke="#080B0E" stroke-linecap="round" stroke-linejoin="round"/>
<path d="M122.885 54.5273L138.449 55.9704" stroke="#080B0E" stroke-linecap="round" stroke-linejoin="round"/>
<path d="M123.02 36.3422L189.256 39.1395C191.177 39.2207 192.673 40.8369 192.606 42.7588L190.684 97.6914L120.418 104.727C118.294 104.939 116.476 103.217 116.573 101.084L119.376 39.6794C119.464 37.7531 121.094 36.2608 123.02 36.3422Z" fill="white" stroke="black"/>
<path d="M128.228 61.9312L173.26 63.833" stroke="#080B0E" stroke-linecap="round" stroke-linejoin="round"/>
<path d="M128.047 66.1946L182.302 68.486" stroke="#080B0E" stroke-linecap="round" stroke-linejoin="round"/>
<rect width="38.2405" height="19.5332" rx="1" transform="matrix(0.998827 0.0484252 -0.0478584 0.998854 138.476 74.3877)" fill="#D9FFEF"/>
<path d="M171.952 89.1071L141.433 87.6272" stroke="white" stroke-linecap="round" stroke-linejoin="round"/>
<path d="M172.258 82.6862L141.739 81.2063" stroke="white" stroke-linecap="round" stroke-linejoin="round"/>
<path d="M171.772 81.7718L167.637 88.8975L165.216 80.6814L162.139 84.8443L159.606 80.4094L153.382 88.2064L151.279 83.8029L148.956 86.522L146.531 80.1619L141.919 88.6263" stroke="#86EFCE" stroke-linecap="round" stroke-linejoin="round"/>
<path d="M93.3959 48.6468L160.707 47.8439C162.63 47.8209 164.21 49.3548 164.243 51.2783L165.071 99.4877L90.7607 100.374L89.9329 52.212C89.8995 50.2701 91.4537 48.6699 93.3959 48.6468Z" fill="#080B0E" stroke="black"/>
<path d="M92.1885 49.5796L159.527 48.7812C161.44 48.7585 163.015 50.2767 163.062 52.1897L164.243 100.22L89.633 104.362L88.7254 53.1467C88.6909 51.204 90.2456 49.6027 92.1885 49.5796Z" fill="white" stroke="black"/>
<rect x="94.8879" y="71.6394" width="63.4931" height="17.0386" rx="2" transform="rotate(-0.634891 94.8879 71.6394)" fill="#080B0E"/>
<path d="M95.7014 65.0527L111.331 64.8795" stroke="#080B0E" stroke-linecap="round" stroke-linejoin="round"/>
<path d="M96.1404 93.6748L157.688 93.2466" stroke="#080B0E" stroke-linecap="round" stroke-linejoin="round"/>
<circle cx="104.981" cy="79.9731" r="4.22648" transform="rotate(-0.634891 104.981 79.9731)" fill="#86EFCE" stroke="black"/>
<rect x="106.176" y="74.543" width="4.42636" height="4.42636" transform="rotate(-0.634891 106.176 74.543)" fill="#D9FFEF" stroke="black"/>
<path d="M192.12 21.2033L192.121 21.1638L192.127 21.1195L192.138 21.078L192.137 21.0342L192.154 20.9919L192.154 20.9466L192.155 20.9031L192.164 20.8594L192.164 20.816L192.174 20.7723L192.167 20.7275L192.173 20.685L192.186 20.642L192.188 20.5989L192.188 20.5536L192.194 20.5111L192.194 20.4676L192.191 20.4235L192.206 20.3808L192.203 20.3367L192.21 20.2927L192.214 20.2499L192.211 20.2039L192.215 20.1611L192.219 20.1183L192.223 20.0737L192.245 20.0323L192.238 19.9875L192.25 19.9442L192.245 19.8997L192.25 19.8573L192.258 19.8133L192.255 19.7691L192.273 19.7271L192.264 19.682L192.268 19.6392L192.272 19.5945L192.286 19.5515L192.28 19.5071L192.281 19.4636L192.296 19.4209L192.292 19.3768L192.296 19.334L192.313 19.2916L192.306 19.2469L192.308 19.2019L192.31 19.1588L192.318 19.1148L192.32 19.0716L192.324 19.0288L192.33 18.9845L192.334 18.9417L192.347 18.8987L192.355 18.8547L192.355 18.8112L192.363 18.7672L192.36 18.7231L192.364 18.6803L192.362 18.6346L192.383 18.5929L192.387 18.5501L192.387 18.5067L192.38 18.4619L192.39 18.4182L192.403 18.3752L192.398 18.3308L192.411 18.2877L192.4 18.2423L192.402 18.1992L192.425 18.1578L192.419 18.1134L192.431 18.07L192.424 18.0252L192.424 17.9818L192.432 17.9378L192.432 17.8943L192.449 17.852L192.449 17.8085L192.459 17.7648L192.457 17.721L192.459 17.6761L192.461 17.6329L192.462 17.5894L192.473 17.5461L192.477 17.5015L192.483 17.459L192.495 17.4156L192.487 17.3709L192.501 17.3279L192.505 17.285L192.507 17.2419L192.499 17.1971L192.513 17.1541L192.517 17.1095L192.524 17.0673L192.523 17.0235L192.531 16.9795L192.531 16.9361L192.546 16.8934L192.533 16.8476L192.55 16.8053L192.54 16.7598L192.545 16.7173L192.555 16.6737L192.553 16.6299L192.572 16.5878L192.57 16.5441L192.582 16.5007L192.586 16.4579L192.583 16.4119L192.596 16.3708L192.593 16.3248L192.6 16.2827L192.608 16.2387L192.604 16.1945L192.606 16.1514L192.609 16.1064L192.616 16.0643L192.611 16.0198L192.626 15.9771L192.621 15.9327L192.623 15.8877L192.644 15.846L192.646 15.8029L192.652 15.7585L192.656 15.7157L192.645 15.6703L192.649 15.6257L192.668 15.5836L192.672 15.5408L192.665 15.496L192.665 15.4526L192.669 15.4079L192.692 15.3665L192.686 15.3221L192.694 15.2781L192.703 15.2363L192.7 15.1903L192.695 15.1459L192.704 15.104L192.712 15.06L192.707 15.0156L192.717 14.9719L192.734 14.9296L192.719 14.8835L192.728 14.8417L192.744 14.799L192.742 14.7552L192.753 14.7118L192.741 14.6661L192.76 14.6241L192.751 14.579L192.755 14.5343L192.766 14.4928L192.776 14.4491L192.774 14.4053L192.782 14.3613L192.775 14.3166L192.788 14.2736L192.794 14.2311L192.798 14.1864L192.794 14.1423L192.802 14.0983L192.812 14.0547L192.808 14.0105L192.818 13.9669L192.826 13.9247L192.822 13.8806L192.78 13.8826L192.737 13.871L192.693 13.8745L192.65 13.8593L192.605 13.8665L192.561 13.8586L192.518 13.8566L192.474 13.8488L192.432 13.8431L192.388 13.8334L192.344 13.8332L192.301 13.8199L192.257 13.8252L192.213 13.8287L192.17 13.8117L192.127 13.8096L192.083 13.8036L192.04 13.8034L191.996 13.7919L191.954 13.7862L191.909 13.7952L191.866 13.7819L191.822 13.7817L191.777 13.7793L191.735 13.7736L191.691 13.7658L191.648 13.7601L191.603 13.7578L191.561 13.7502L191.515 13.7629L191.473 13.7422L191.429 13.7475L191.386 13.7455L191.343 13.7303L191.298 13.7375L191.255 13.7278L191.21 13.7331L191.167 13.7198L191.125 13.7122L191.081 13.7044L191.038 13.7042L190.993 13.7019L190.948 13.7072L190.905 13.692L190.862 13.69L190.818 13.6916L190.776 13.6746L190.731 13.6854L190.687 13.6776L190.644 13.6737L190.601 13.6585L190.557 13.6638L190.513 13.6542L190.47 13.6503L190.426 13.6556L190.382 13.6459L190.34 13.6384L190.294 13.6397L190.253 13.6286L190.207 13.6299L190.164 13.6297L190.121 13.6222L190.076 13.6198L190.033 13.6196L189.991 13.6026L189.946 13.6079L189.902 13.6038L189.858 13.6017L189.815 13.5997L189.772 13.5882L189.729 13.5767L189.684 13.5838L189.641 13.5818L189.598 13.5648L189.553 13.5625L189.51 13.5604L189.467 13.5584L189.424 13.5469L189.379 13.5504L189.336 13.552L189.291 13.5478L189.248 13.5363L189.205 13.5325L189.16 13.5378L189.118 13.5189L189.074 13.5261L189.029 13.5237L188.986 13.5067L188.943 13.5142L188.899 13.5082L188.856 13.4967L188.811 13.502L188.769 13.485L188.725 13.4979L188.682 13.4846L188.639 13.4694L188.594 13.4802L188.551 13.4764L188.506 13.474L188.463 13.4589L188.42 13.4587L188.376 13.4585L188.333 13.4565L188.289 13.4373L188.246 13.4448L188.203 13.4332L188.159 13.4367L188.114 13.4325L188.072 13.425L188.028 13.419L187.984 13.4093L187.94 13.4128L187.897 13.409L187.853 13.4011L187.808 13.4101L187.766 13.3876L187.722 13.3911L187.679 13.3872L187.636 13.3775L187.591 13.3733L187.546 13.3805L187.505 13.3693L187.459 13.3706L187.416 13.3704L187.374 13.3516L187.329 13.3456L187.285 13.3585L187.24 13.3562L187.199 13.3337L187.154 13.3427L187.112 13.3238L187.069 13.32L187.024 13.3176L186.981 13.3156L186.936 13.3264L186.892 13.3167L186.85 13.3055L186.805 13.3069L186.762 13.3012L186.718 13.297L186.674 13.2986L186.631 13.2816L186.588 13.2814L186.543 13.2868L186.499 13.2807L186.455 13.2747L186.413 13.2672L186.369 13.2557L186.323 13.2683L186.281 13.2608L186.237 13.253L186.193 13.247L186.149 13.2486L186.106 13.2334L186.063 13.2314L186.019 13.2349L185.976 13.2234L185.931 13.2305L185.887 13.2245L185.843 13.213L185.8 13.211L185.757 13.2108L185.712 13.2048L185.67 13.1878L185.626 13.1894L185.581 13.1889L185.538 13.185L185.491 13.1747L185.49 13.2218L185.488 13.2668L185.478 13.3086L185.478 13.3539L185.474 13.3968L185.468 13.4411L185.462 13.4836L185.458 13.5264L185.452 13.5707L185.454 13.6145L185.446 13.6585L185.44 13.701L185.431 13.7446L185.438 13.7894L185.426 13.8327L185.423 13.8756L185.417 13.9199L185.411 13.9624L185.407 14.007L185.418 14.0506L185.408 14.0943L185.406 14.1374L185.389 14.1798L185.404 14.2259L185.387 14.2682L185.383 14.311L185.379 14.3557L185.386 14.4004L185.38 14.4429L185.372 14.4869L185.355 14.5293L185.366 14.5747L185.364 14.6178L185.347 14.6602L185.343 14.7049L185.344 14.7486L185.335 14.7905L185.34 14.8349L185.325 14.8776L185.323 14.9226L185.317 14.9651L185.317 15.0085L185.305 15.0519L185.301 15.0965L185.31 15.1416L185.31 15.1851L185.299 15.2284L185.295 15.2712L185.289 15.3137L185.278 15.3571L185.279 15.4009L185.273 15.4452L185.275 15.489L185.263 15.5323L185.261 15.5755L185.259 15.6204L185.257 15.6636L185.249 15.7076L185.242 15.7497L185.252 15.7952L185.237 15.8378L185.244 15.8826L185.235 15.9263L185.22 15.9671L185.214 16.0115L185.215 16.0552L185.209 16.0996L185.209 16.143L185.209 16.1865L185.209 16.2318L185.193 16.2745L185.191 16.3176L185.184 16.3616L185.176 16.4038L185.18 16.4479L185.187 16.4927L185.166 16.5344L185.165 16.5797L185.174 16.6248L185.165 16.6666L185.163 16.7116L185.159 16.7544L185.151 16.7984L185.145 16.8409L185.132 16.8839L185.13 16.927L185.135 16.9715L185.126 17.0151L185.118 17.0591L185.125 17.1039L185.123 17.1471L185.119 17.1899L185.106 17.2329L185.096 17.2765L185.096 17.32L185.099 17.3641L185.097 17.4091L185.091 17.4516L185.074 17.4939L185.074 17.5374L185.074 17.5827L185.061 17.6239L185.064 17.6698L185.053 17.7114L185.054 17.7551L185.052 17.8001L185.043 17.842L185.05 17.8867L185.04 17.9304L185.042 17.9742L185.034 18.0182L185.03 18.061L185.017 18.104L185.024 18.1488L185.009 18.1915L185.01 18.2353L185.014 18.2794L185 18.3224L185 18.3677L184.991 18.4095L184.996 18.454L184.988 18.498L184.98 18.542L184.978 18.5851L184.982 18.6292L184.97 18.6726L184.96 18.7162L184.968 18.761L184.962 18.8035L184.95 18.8468L184.947 18.8896L184.941 18.934L184.948 18.9787L184.944 19.0215L184.936 19.0655L184.93 19.1099L184.926 19.1527L184.92 19.197L184.909 19.2385L184.91 19.2841L184.899 19.3256L184.908 19.3707L184.904 19.4154L184.894 19.459L184.889 19.5015L184.89 19.5453L184.886 19.59L184.88 19.6325L184.882 19.6781L184.866 19.7208L184.87 19.7649L184.855 19.8076L184.856 19.8514L184.854 19.8945L184.843 19.9379L184.852 19.983L184.837 20.0256L184.836 20.0691L184.836 20.1144L184.819 20.1568L184.832 20.2025L184.826 20.245L184.811 20.2877L184.82 20.3328L184.808 20.3761L184.804 20.4189L184.798 20.4633L184.801 20.5016L184.836 20.5173L184.88 20.5233L184.925 20.5143L184.969 20.5163L185.01 20.537L185.055 20.5412L185.099 20.53L185.143 20.5379L185.186 20.5399L185.228 20.5551L185.273 20.5611L185.316 20.5613L185.36 20.5691L185.405 20.5602L185.448 20.5772L185.493 20.57L185.535 20.5757L185.579 20.5817L185.622 20.5874L185.665 20.5989L185.71 20.5918L185.751 20.603L185.796 20.6071L185.841 20.5982L185.884 20.6039L185.928 20.6099L185.97 20.6269L186.015 20.6197L186.057 20.6309L186.102 20.6314L186.144 20.6408L186.189 20.6431L186.233 20.6378L186.276 20.6435L186.321 20.644L186.362 20.657L186.408 20.6557L186.45 20.6614L186.495 20.6656L186.538 20.6694L186.581 20.6828L186.623 20.6903L186.668 20.6832L186.711 20.6947L186.756 20.7007L186.799 20.6914L186.844 20.6956L186.885 20.7162L186.929 20.7128L186.973 20.7243L187.017 20.7226L187.061 20.7286L187.105 20.727L187.148 20.7403L187.191 20.7442L187.235 20.7389L187.28 20.7431L187.322 20.7488L187.367 20.7529L187.409 20.7605L187.454 20.7646L187.497 20.763L187.541 20.7632L187.583 20.7839L187.628 20.7862L187.67 20.7901L187.716 20.7792L187.759 20.7908L187.802 20.7928L187.847 20.7988L187.889 20.8045L187.933 20.8142L187.978 20.8052L188.021 20.8204L188.065 20.8132L188.107 20.8321L188.151 20.8304L188.193 20.8379L188.24 20.8329L188.281 20.846L188.326 20.8483L188.37 20.8467L188.413 20.8505L188.456 20.8639L188.501 20.8531L188.545 20.8591L188.588 20.8761L188.632 20.8726L188.676 20.871L188.719 20.8825L188.761 20.8882L188.805 20.8883L188.849 20.898L188.892 20.9077L188.937 20.9006L188.98 20.9026L189.022 20.9101L189.067 20.9124L189.11 20.9258L189.154 20.9241L189.198 20.9243L189.241 20.934L189.284 20.9415L189.328 20.9494L189.373 20.9367L189.415 20.9479L189.46 20.9503L189.503 20.9654L189.547 20.962L189.59 20.9603L189.633 20.9755L189.678 20.9684L189.722 20.9744L189.765 20.9782L189.809 20.9784L189.851 20.9973L189.895 20.9901L189.94 20.9961L189.983 21.0095L190.027 21.0078L190.07 21.008L190.113 21.0232L190.158 21.0105L190.202 21.0221L190.244 21.0296L190.289 21.0301L190.333 21.0284L190.376 21.0323L190.42 21.0383L190.463 21.0422L190.506 21.0573L190.55 21.0652L190.595 21.058L190.638 21.0601L190.683 21.0606L190.725 21.0813L190.768 21.0814L190.813 21.0761L190.857 21.0821L190.9 21.086L190.944 21.0938L190.988 21.0922L191.031 21.1019L191.074 21.1152L191.117 21.1191L191.162 21.1119L191.207 21.1161L191.249 21.1331L191.294 21.126L191.335 21.1372L191.38 21.13L191.423 21.1452L191.467 21.1399L191.511 21.1496L191.556 21.1519L191.598 21.1594L191.642 21.1578L191.686 21.1675L191.73 21.1717L191.774 21.1682L191.817 21.172L191.862 21.1762L191.906 21.1841L191.947 21.1971L191.992 21.1899L192.035 21.1996L192.08 21.2056L192.12 21.2033Z" fill="#D9FFEF"/>
<mask id="path-22-inside-1_671_9303" fill="white">
<path d="M21.961 37.7949L21.9623 37.7554L21.9683 37.7111L21.9795 37.6696L21.9779 37.6258L21.9949 37.5834L21.9954 37.5381L21.9956 37.4947L22.0053 37.451L22.0054 37.4075L22.0151 37.3639L22.008 37.3191L22.0137 37.2766L22.027 37.2336L22.029 37.1904L22.0295 37.1451L22.0352 37.1027L22.0354 37.0592L22.0319 37.0151L22.0471 36.9724L22.0436 36.9283L22.0514 36.8843L22.0553 36.8415L22.0521 36.7955L22.056 36.7527L22.0598 36.7099L22.064 36.6652L22.0865 36.6239L22.0794 36.5791L22.0909 36.5357L22.0856 36.4913L22.0913 36.4488L22.0991 36.4048L22.0956 36.3607L22.1145 36.3187L22.1055 36.2736L22.1093 36.2307L22.1135 36.1861L22.1269 36.1431L22.1215 36.0986L22.1217 36.0552L22.1369 36.0125L22.1334 35.9684L22.1373 35.9256L22.1543 35.8832L22.1471 35.8384L22.1495 35.7934L22.1515 35.7503L22.1593 35.7063L22.1614 35.6632L22.1652 35.6204L22.1712 35.576L22.1751 35.5332L22.1884 35.4902L22.1963 35.4462L22.1964 35.4028L22.2043 35.3588L22.2008 35.3146L22.2047 35.2718L22.2033 35.2262L22.224 35.1845L22.2279 35.1417L22.2281 35.0982L22.2209 35.0534L22.2306 35.0098L22.2439 34.9668L22.2386 34.9223L22.252 34.8793L22.2411 34.8339L22.2432 34.7907L22.2657 34.7494L22.2604 34.7049L22.2719 34.6616L22.2647 34.6168L22.2649 34.5733L22.2727 34.5293L22.2729 34.4859L22.2899 34.4435L22.2901 34.4L22.2998 34.3564L22.2982 34.3126L22.3005 34.2676L22.3025 34.2245L22.3027 34.181L22.3142 34.1377L22.3184 34.093L22.3241 34.0505L22.3356 34.0072L22.3284 33.9624L22.3418 33.9194L22.3456 33.8766L22.3476 33.8334L22.3405 33.7887L22.3538 33.7457L22.358 33.701L22.3655 33.6589L22.3639 33.6151L22.3717 33.5711L22.3719 33.5276L22.3871 33.4849L22.3744 33.4392L22.3915 33.3968L22.3806 33.3514L22.3863 33.3089L22.396 33.2652L22.3944 33.2214L22.4132 33.1794L22.4115 33.1356L22.4231 33.0923L22.4269 33.0495L22.4238 33.0035L22.4368 32.9623L22.4336 32.9164L22.4411 32.8742L22.449 32.8302L22.4455 32.7861L22.4475 32.743L22.4499 32.698L22.4574 32.6558L22.4521 32.6114L22.4672 32.5687L22.4619 32.5242L22.4643 32.4793L22.4849 32.4376L22.487 32.3944L22.493 32.3501L22.4968 32.3073L22.486 32.2619L22.4902 32.2172L22.509 32.1752L22.5129 32.1324L22.5057 32.0876L22.5059 32.0441L22.5101 31.9995L22.5326 31.9581L22.5273 31.9137L22.5351 31.8697L22.5445 31.8278L22.5413 31.7819L22.536 31.7374L22.5454 31.6956L22.5532 31.6516L22.5479 31.6072L22.5576 31.5635L22.5746 31.5211L22.5601 31.475L22.5694 31.4332L22.5846 31.3905L22.583 31.3467L22.5945 31.3034L22.5818 31.2576L22.6007 31.2156L22.5917 31.1705L22.5959 31.1259L22.6071 31.0844L22.6167 31.0407L22.6151 30.9969L22.6229 30.9529L22.6158 30.9081L22.6291 30.8651L22.6348 30.8226L22.639 30.778L22.6355 30.7339L22.6434 30.6899L22.653 30.6462L22.6496 30.6021L22.6592 30.5584L22.6667 30.5163L22.6633 30.4721L22.6213 30.4741L22.5779 30.4626L22.5338 30.4661L22.4911 30.4509L22.4463 30.458L22.4023 30.4502L22.3592 30.4482L22.3152 30.4403L22.2727 30.4346L22.229 30.425L22.1855 30.4248L22.1425 30.4114L22.098 30.4167L22.0539 30.4202L22.0116 30.4032L21.9684 30.4012L21.9241 30.3952L21.8806 30.395L21.8372 30.3835L21.7947 30.3778L21.7496 30.3868L21.7066 30.3734L21.6631 30.3732L21.6182 30.3709L21.5757 30.3652L21.5317 30.3574L21.4892 30.3517L21.4442 30.3493L21.402 30.3418L21.3562 30.3544L21.3145 30.3338L21.2701 30.3391L21.2269 30.3371L21.1842 30.3219L21.1394 30.329L21.0958 30.3193L21.0513 30.3247L21.0083 30.3113L20.9661 30.3038L20.9221 30.2959L20.8786 30.2958L20.8337 30.2934L20.7892 30.2987L20.7465 30.2835L20.7033 30.2815L20.6595 30.2832L20.6172 30.2662L20.5717 30.277L20.5277 30.2691L20.4849 30.2653L20.4422 30.2501L20.3978 30.2554L20.3541 30.2457L20.3113 30.2419L20.2668 30.2472L20.2231 30.2375L20.181 30.23L20.1353 30.2313L20.0938 30.2201L20.0482 30.2214L20.0047 30.2212L19.9625 30.2137L19.9175 30.2114L19.8741 30.2112L19.8317 30.1942L19.7872 30.1995L19.7426 30.1953L19.6994 30.1933L19.6563 30.1913L19.6129 30.1798L19.5696 30.1682L19.5248 30.1754L19.4816 30.1734L19.4393 30.1564L19.3943 30.154L19.3511 30.152L19.308 30.15L19.2646 30.1385L19.2205 30.1419L19.1767 30.1436L19.1321 30.1394L19.0887 30.1279L19.0459 30.124L19.0014 30.1293L18.9594 30.1105L18.9146 30.1176L18.8696 30.1153L18.8272 30.0983L18.7843 30.1058L18.74 30.0997L18.6966 30.0882L18.6522 30.0935L18.6098 30.0765L18.5659 30.0895L18.5228 30.0762L18.4801 30.061L18.4347 30.0718L18.3919 30.0679L18.3469 30.0656L18.3042 30.0504L18.2607 30.0502L18.2172 30.05L18.1741 30.048L18.1302 30.0288L18.0873 30.0363L18.0439 30.0248L17.9998 30.0283L17.9551 30.0241L17.913 30.0166L17.8686 30.0106L17.825 30.0009L17.7808 30.0044L17.738 30.0005L17.694 29.9927L17.6489 30.0016L17.6075 29.9791L17.5634 29.9826L17.5205 29.9788L17.4769 29.9691L17.4322 29.9649L17.3874 29.972L17.3459 29.9609L17.3003 29.9622L17.2568 29.962L17.2148 29.9431L17.1704 29.9371L17.1265 29.9501L17.0815 29.9477L17.0401 29.9252L16.995 29.9342L16.953 29.9154L16.9102 29.9115L16.8652 29.9092L16.822 29.9071L16.7766 29.918L16.7329 29.9083L16.6914 29.8971L16.6458 29.8984L16.6033 29.8927L16.5586 29.8885L16.5148 29.8902L16.4724 29.8732L16.4289 29.873L16.3845 29.8783L16.3402 29.8723L16.2958 29.8663L16.2537 29.8588L16.2103 29.8472L16.1645 29.8599L16.1224 29.8524L16.0784 29.8445L16.034 29.8385L15.9902 29.8402L15.9475 29.825L15.9044 29.823L15.8603 29.8264L15.8169 29.8149L15.7721 29.8221L15.7278 29.8161L15.6845 29.8045L15.6413 29.8025L15.5978 29.8023L15.5535 29.7963L15.5111 29.7793L15.4673 29.781L15.422 29.7804L15.3792 29.7766L15.3318 29.7663L15.331 29.8134L15.3287 29.8584L15.3193 29.9002L15.3188 29.9455L15.315 29.9883L15.3089 30.0326L15.3033 30.0751L15.2994 30.1179L15.2934 30.1622L15.295 30.206L15.2872 30.25L15.2815 30.2925L15.2718 30.3362L15.279 30.381L15.2675 30.4243L15.2636 30.4671L15.2576 30.5114L15.2519 30.5539L15.2478 30.5986L15.2589 30.6422L15.2492 30.6858L15.2472 30.729L15.2302 30.7713L15.2447 30.8174L15.2277 30.8598L15.2238 30.9026L15.2196 30.9472L15.2268 30.992L15.2211 31.0345L15.2133 31.0785L15.1962 31.1208L15.2071 31.1663L15.205 31.2094L15.188 31.2518L15.1839 31.2964L15.1855 31.3402L15.1761 31.382L15.1815 31.4265L15.1663 31.4692L15.1639 31.5141L15.1583 31.5566L15.1581 31.6001L15.1466 31.6434L15.1424 31.6881L15.1514 31.7332L15.1512 31.7766L15.1397 31.82L15.1358 31.8628L15.1301 31.9053L15.1186 31.9486L15.1203 31.9924L15.1143 32.0367L15.1159 32.0805L15.1044 32.1239L15.1024 32.167L15.1 32.212L15.098 32.2551L15.0902 32.2991L15.0827 32.3413L15.0935 32.3867L15.0783 32.4294L15.0854 32.4742L15.0758 32.5178L15.0609 32.5587L15.0549 32.603L15.0566 32.6468L15.0505 32.6911L15.0504 32.7346L15.0502 32.7781L15.0497 32.8234L15.0345 32.866L15.0325 32.9092L15.0246 32.9532L15.0171 32.9953L15.0206 33.0395L15.0277 33.0842L15.0071 33.1259L15.0066 33.1712L15.0155 33.2163L15.0062 33.2582L15.0038 33.3031L15 33.346L14.9921 33.3899L14.9865 33.4324L14.9731 33.4754L14.9711 33.5186L14.9764 33.563L14.9667 33.6067L14.9589 33.6507L14.966 33.6955L14.964 33.7386L14.9602 33.7814L14.9468 33.8244L14.9371 33.8681L14.937 33.9116L14.9404 33.9557L14.9381 34.0007L14.9324 34.0431L14.9154 34.0855L14.9152 34.129L14.9147 34.1743L14.9017 34.2154L14.9049 34.2614L14.8937 34.3029L14.8953 34.3467L14.893 34.3917L14.8836 34.4335L14.8908 34.4783L14.8811 34.5219L14.8827 34.5657L14.8749 34.6097L14.871 34.6525L14.8577 34.6956L14.8649 34.7403L14.8497 34.783L14.8513 34.8268L14.8548 34.8709L14.8415 34.9139L14.8409 34.9592L14.8316 35.0011L14.8369 35.0455L14.8291 35.0895L14.8212 35.1335L14.8192 35.1767L14.8227 35.2208L14.8112 35.2641L14.8015 35.3078L14.8087 35.3526L14.803 35.395L14.7915 35.4384L14.7876 35.4812L14.7816 35.5255L14.7887 35.5703L14.7849 35.6131L14.777 35.6571L14.771 35.7014L14.7672 35.7442L14.7612 35.7885L14.75 35.8301L14.7513 35.8757L14.7401 35.9172L14.7491 35.9623L14.7449 36.0069L14.7353 36.0506L14.7296 36.0931L14.7312 36.1369L14.727 36.1815L14.7214 36.224L14.7227 36.2696L14.7075 36.3123L14.711 36.3564L14.6958 36.3991L14.6975 36.4429L14.6954 36.4861L14.6839 36.5294L14.6929 36.5745L14.6777 36.6172L14.6775 36.6607L14.677 36.706L14.66 36.7483L14.6727 36.7941L14.667 36.8366L14.6518 36.8792L14.6608 36.9243L14.6493 36.9677L14.6454 37.0105L14.6394 37.0548L14.6421 37.0931L14.6771 37.1088L14.7214 37.1148L14.7665 37.1059L14.8097 37.1079L14.8514 37.1285L14.896 37.1327L14.9397 37.1216L14.9837 37.1294L15.0268 37.1315L15.0695 37.1466L15.1138 37.1527L15.1573 37.1528L15.2013 37.1607L15.2464 37.1517L15.2888 37.1687L15.3336 37.1616L15.3761 37.1673L15.4204 37.1733L15.4629 37.179L15.5062 37.1905L15.551 37.1833L15.5925 37.1945L15.6372 37.1987L15.6823 37.1897L15.7248 37.1954L15.7691 37.2014L15.8115 37.2184L15.8563 37.2113L15.8978 37.2225L15.9431 37.223L15.985 37.2323L16.0299 37.2347L16.0744 37.2294L16.1169 37.2351L16.1622 37.2356L16.2034 37.2486L16.249 37.2473L16.2915 37.253L16.3362 37.2571L16.379 37.261L16.422 37.2743L16.4642 37.2819L16.509 37.2747L16.5523 37.2862L16.5967 37.2922L16.6399 37.2829L16.6846 37.2871L16.7263 37.3078L16.7704 37.3043L16.8138 37.3158L16.8576 37.3142L16.9019 37.3202L16.9457 37.3185L16.9888 37.3319L17.0316 37.3357L17.076 37.3304L17.1207 37.3346L17.1632 37.3403L17.2078 37.3445L17.25 37.352L17.2947 37.3562L17.3385 37.3545L17.382 37.3547L17.4237 37.3754L17.4687 37.3778L17.5115 37.3816L17.5569 37.3708L17.6003 37.3823L17.6434 37.3843L17.6877 37.3903L17.7302 37.396L17.7739 37.4057L17.819 37.3967L17.8617 37.4119L17.9065 37.4048L17.9485 37.4236L17.9923 37.422L18.0345 37.4295L18.0808 37.4245L18.122 37.4375L18.167 37.4399L18.2108 37.4382L18.2536 37.4421L18.2966 37.4554L18.3421 37.4446L18.3864 37.4506L18.4288 37.4676L18.4729 37.4642L18.5167 37.4625L18.5601 37.474L18.6025 37.4797L18.646 37.4799L18.6897 37.4896L18.7334 37.4993L18.7782 37.4921L18.8213 37.4941L18.8635 37.5016L18.9085 37.504L18.9515 37.5173L18.9953 37.5157L19.0388 37.5159L19.0824 37.5256L19.1246 37.5331L19.1686 37.5409L19.2144 37.5283L19.2559 37.5395L19.3009 37.5418L19.3436 37.557L19.3877 37.5535L19.4315 37.5519L19.4742 37.5671L19.519 37.5599L19.5633 37.5659L19.6061 37.5698L19.6496 37.57L19.6917 37.5888L19.7364 37.5817L19.7808 37.5877L19.8238 37.601L19.8676 37.5994L19.9111 37.5996L19.9538 37.6147L19.9995 37.6021L20.0429 37.6136L20.0851 37.6211L20.1304 37.6216L20.1742 37.62L20.217 37.6239L20.2613 37.6299L20.3041 37.6337L20.3468 37.6489L20.3908 37.6567L20.4356 37.6496L20.4788 37.6516L20.5241 37.6521L20.5658 37.6728L20.6093 37.673L20.6537 37.6677L20.6981 37.6737L20.7409 37.6776L20.7849 37.6854L20.8287 37.6838L20.8724 37.6934L20.9154 37.7068L20.9582 37.7106L21.003 37.7035L21.0477 37.7077L21.09 37.7247L21.1348 37.7175L21.1763 37.7287L21.2211 37.7216L21.2638 37.7368L21.3083 37.7314L21.3519 37.7411L21.3969 37.7435L21.4391 37.751L21.4829 37.7493L21.5266 37.759L21.5712 37.7632L21.6154 37.7597L21.6582 37.7636L21.7028 37.7678L21.7468 37.7756L21.788 37.7886L21.8328 37.7815L21.8765 37.7912L21.9208 37.7972L21.961 37.7949Z"/>
</mask>
<path d="M21.961 37.7949L21.9623 37.7554L21.9683 37.7111L21.9795 37.6696L21.9779 37.6258L21.9949 37.5834L21.9954 37.5381L21.9956 37.4947L22.0053 37.451L22.0054 37.4075L22.0151 37.3639L22.008 37.3191L22.0137 37.2766L22.027 37.2336L22.029 37.1904L22.0295 37.1451L22.0352 37.1027L22.0354 37.0592L22.0319 37.0151L22.0471 36.9724L22.0436 36.9283L22.0514 36.8843L22.0553 36.8415L22.0521 36.7955L22.056 36.7527L22.0598 36.7099L22.064 36.6652L22.0865 36.6239L22.0794 36.5791L22.0909 36.5357L22.0856 36.4913L22.0913 36.4488L22.0991 36.4048L22.0956 36.3607L22.1145 36.3187L22.1055 36.2736L22.1093 36.2307L22.1135 36.1861L22.1269 36.1431L22.1215 36.0986L22.1217 36.0552L22.1369 36.0125L22.1334 35.9684L22.1373 35.9256L22.1543 35.8832L22.1471 35.8384L22.1495 35.7934L22.1515 35.7503L22.1593 35.7063L22.1614 35.6632L22.1652 35.6204L22.1712 35.576L22.1751 35.5332L22.1884 35.4902L22.1963 35.4462L22.1964 35.4028L22.2043 35.3588L22.2008 35.3146L22.2047 35.2718L22.2033 35.2262L22.224 35.1845L22.2279 35.1417L22.2281 35.0982L22.2209 35.0534L22.2306 35.0098L22.2439 34.9668L22.2386 34.9223L22.252 34.8793L22.2411 34.8339L22.2432 34.7907L22.2657 34.7494L22.2604 34.7049L22.2719 34.6616L22.2647 34.6168L22.2649 34.5733L22.2727 34.5293L22.2729 34.4859L22.2899 34.4435L22.2901 34.4L22.2998 34.3564L22.2982 34.3126L22.3005 34.2676L22.3025 34.2245L22.3027 34.181L22.3142 34.1377L22.3184 34.093L22.3241 34.0505L22.3356 34.0072L22.3284 33.9624L22.3418 33.9194L22.3456 33.8766L22.3476 33.8334L22.3405 33.7887L22.3538 33.7457L22.358 33.701L22.3655 33.6589L22.3639 33.6151L22.3717 33.5711L22.3719 33.5276L22.3871 33.4849L22.3744 33.4392L22.3915 33.3968L22.3806 33.3514L22.3863 33.3089L22.396 33.2652L22.3944 33.2214L22.4132 33.1794L22.4115 33.1356L22.4231 33.0923L22.4269 33.0495L22.4238 33.0035L22.4368 32.9623L22.4336 32.9164L22.4411 32.8742L22.449 32.8302L22.4455 32.7861L22.4475 32.743L22.4499 32.698L22.4574 32.6558L22.4521 32.6114L22.4672 32.5687L22.4619 32.5242L22.4643 32.4793L22.4849 32.4376L22.487 32.3944L22.493 32.3501L22.4968 32.3073L22.486 32.2619L22.4902 32.2172L22.509 32.1752L22.5129 32.1324L22.5057 32.0876L22.5059 32.0441L22.5101 31.9995L22.5326 31.9581L22.5273 31.9137L22.5351 31.8697L22.5445 31.8278L22.5413 31.7819L22.536 31.7374L22.5454 31.6956L22.5532 31.6516L22.5479 31.6072L22.5576 31.5635L22.5746 31.5211L22.5601 31.475L22.5694 31.4332L22.5846 31.3905L22.583 31.3467L22.5945 31.3034L22.5818 31.2576L22.6007 31.2156L22.5917 31.1705L22.5959 31.1259L22.6071 31.0844L22.6167 31.0407L22.6151 30.9969L22.6229 30.9529L22.6158 30.9081L22.6291 30.8651L22.6348 30.8226L22.639 30.778L22.6355 30.7339L22.6434 30.6899L22.653 30.6462L22.6496 30.6021L22.6592 30.5584L22.6667 30.5163L22.6633 30.4721L22.6213 30.4741L22.5779 30.4626L22.5338 30.4661L22.4911 30.4509L22.4463 30.458L22.4023 30.4502L22.3592 30.4482L22.3152 30.4403L22.2727 30.4346L22.229 30.425L22.1855 30.4248L22.1425 30.4114L22.098 30.4167L22.0539 30.4202L22.0116 30.4032L21.9684 30.4012L21.9241 30.3952L21.8806 30.395L21.8372 30.3835L21.7947 30.3778L21.7496 30.3868L21.7066 30.3734L21.6631 30.3732L21.6182 30.3709L21.5757 30.3652L21.5317 30.3574L21.4892 30.3517L21.4442 30.3493L21.402 30.3418L21.3562 30.3544L21.3145 30.3338L21.2701 30.3391L21.2269 30.3371L21.1842 30.3219L21.1394 30.329L21.0958 30.3193L21.0513 30.3247L21.0083 30.3113L20.9661 30.3038L20.9221 30.2959L20.8786 30.2958L20.8337 30.2934L20.7892 30.2987L20.7465 30.2835L20.7033 30.2815L20.6595 30.2832L20.6172 30.2662L20.5717 30.277L20.5277 30.2691L20.4849 30.2653L20.4422 30.2501L20.3978 30.2554L20.3541 30.2457L20.3113 30.2419L20.2668 30.2472L20.2231 30.2375L20.181 30.23L20.1353 30.2313L20.0938 30.2201L20.0482 30.2214L20.0047 30.2212L19.9625 30.2137L19.9175 30.2114L19.8741 30.2112L19.8317 30.1942L19.7872 30.1995L19.7426 30.1953L19.6994 30.1933L19.6563 30.1913L19.6129 30.1798L19.5696 30.1682L19.5248 30.1754L19.4816 30.1734L19.4393 30.1564L19.3943 30.154L19.3511 30.152L19.308 30.15L19.2646 30.1385L19.2205 30.1419L19.1767 30.1436L19.1321 30.1394L19.0887 30.1279L19.0459 30.124L19.0014 30.1293L18.9594 30.1105L18.9146 30.1176L18.8696 30.1153L18.8272 30.0983L18.7843 30.1058L18.74 30.0997L18.6966 30.0882L18.6522 30.0935L18.6098 30.0765L18.5659 30.0895L18.5228 30.0762L18.4801 30.061L18.4347 30.0718L18.3919 30.0679L18.3469 30.0656L18.3042 30.0504L18.2607 30.0502L18.2172 30.05L18.1741 30.048L18.1302 30.0288L18.0873 30.0363L18.0439 30.0248L17.9998 30.0283L17.9551 30.0241L17.913 30.0166L17.8686 30.0106L17.825 30.0009L17.7808 30.0044L17.738 30.0005L17.694 29.9927L17.6489 30.0016L17.6075 29.9791L17.5634 29.9826L17.5205 29.9788L17.4769 29.9691L17.4322 29.9649L17.3874 29.972L17.3459 29.9609L17.3003 29.9622L17.2568 29.962L17.2148 29.9431L17.1704 29.9371L17.1265 29.9501L17.0815 29.9477L17.0401 29.9252L16.995 29.9342L16.953 29.9154L16.9102 29.9115L16.8652 29.9092L16.822 29.9071L16.7766 29.918L16.7329 29.9083L16.6914 29.8971L16.6458 29.8984L16.6033 29.8927L16.5586 29.8885L16.5148 29.8902L16.4724 29.8732L16.4289 29.873L16.3845 29.8783L16.3402 29.8723L16.2958 29.8663L16.2537 29.8588L16.2103 29.8472L16.1645 29.8599L16.1224 29.8524L16.0784 29.8445L16.034 29.8385L15.9902 29.8402L15.9475 29.825L15.9044 29.823L15.8603 29.8264L15.8169 29.8149L15.7721 29.8221L15.7278 29.8161L15.6845 29.8045L15.6413 29.8025L15.5978 29.8023L15.5535 29.7963L15.5111 29.7793L15.4673 29.781L15.422 29.7804L15.3792 29.7766L15.3318 29.7663L15.331 29.8134L15.3287 29.8584L15.3193 29.9002L15.3188 29.9455L15.315 29.9883L15.3089 30.0326L15.3033 30.0751L15.2994 30.1179L15.2934 30.1622L15.295 30.206L15.2872 30.25L15.2815 30.2925L15.2718 30.3362L15.279 30.381L15.2675 30.4243L15.2636 30.4671L15.2576 30.5114L15.2519 30.5539L15.2478 30.5986L15.2589 30.6422L15.2492 30.6858L15.2472 30.729L15.2302 30.7713L15.2447 30.8174L15.2277 30.8598L15.2238 30.9026L15.2196 30.9472L15.2268 30.992L15.2211 31.0345L15.2133 31.0785L15.1962 31.1208L15.2071 31.1663L15.205 31.2094L15.188 31.2518L15.1839 31.2964L15.1855 31.3402L15.1761 31.382L15.1815 31.4265L15.1663 31.4692L15.1639 31.5141L15.1583 31.5566L15.1581 31.6001L15.1466 31.6434L15.1424 31.6881L15.1514 31.7332L15.1512 31.7766L15.1397 31.82L15.1358 31.8628L15.1301 31.9053L15.1186 31.9486L15.1203 31.9924L15.1143 32.0367L15.1159 32.0805L15.1044 32.1239L15.1024 32.167L15.1 32.212L15.098 32.2551L15.0902 32.2991L15.0827 32.3413L15.0935 32.3867L15.0783 32.4294L15.0854 32.4742L15.0758 32.5178L15.0609 32.5587L15.0549 32.603L15.0566 32.6468L15.0505 32.6911L15.0504 32.7346L15.0502 32.7781L15.0497 32.8234L15.0345 32.866L15.0325 32.9092L15.0246 32.9532L15.0171 32.9953L15.0206 33.0395L15.0277 33.0842L15.0071 33.1259L15.0066 33.1712L15.0155 33.2163L15.0062 33.2582L15.0038 33.3031L15 33.346L14.9921 33.3899L14.9865 33.4324L14.9731 33.4754L14.9711 33.5186L14.9764 33.563L14.9667 33.6067L14.9589 33.6507L14.966 33.6955L14.964 33.7386L14.9602 33.7814L14.9468 33.8244L14.9371 33.8681L14.937 33.9116L14.9404 33.9557L14.9381 34.0007L14.9324 34.0431L14.9154 34.0855L14.9152 34.129L14.9147 34.1743L14.9017 34.2154L14.9049 34.2614L14.8937 34.3029L14.8953 34.3467L14.893 34.3917L14.8836 34.4335L14.8908 34.4783L14.8811 34.5219L14.8827 34.5657L14.8749 34.6097L14.871 34.6525L14.8577 34.6956L14.8649 34.7403L14.8497 34.783L14.8513 34.8268L14.8548 34.8709L14.8415 34.9139L14.8409 34.9592L14.8316 35.0011L14.8369 35.0455L14.8291 35.0895L14.8212 35.1335L14.8192 35.1767L14.8227 35.2208L14.8112 35.2641L14.8015 35.3078L14.8087 35.3526L14.803 35.395L14.7915 35.4384L14.7876 35.4812L14.7816 35.5255L14.7887 35.5703L14.7849 35.6131L14.777 35.6571L14.771 35.7014L14.7672 35.7442L14.7612 35.7885L14.75 35.8301L14.7513 35.8757L14.7401 35.9172L14.7491 35.9623L14.7449 36.0069L14.7353 36.0506L14.7296 36.0931L14.7312 36.1369L14.727 36.1815L14.7214 36.224L14.7227 36.2696L14.7075 36.3123L14.711 36.3564L14.6958 36.3991L14.6975 36.4429L14.6954 36.4861L14.6839 36.5294L14.6929 36.5745L14.6777 36.6172L14.6775 36.6607L14.677 36.706L14.66 36.7483L14.6727 36.7941L14.667 36.8366L14.6518 36.8792L14.6608 36.9243L14.6493 36.9677L14.6454 37.0105L14.6394 37.0548L14.6421 37.0931L14.6771 37.1088L14.7214 37.1148L14.7665 37.1059L14.8097 37.1079L14.8514 37.1285L14.896 37.1327L14.9397 37.1216L14.9837 37.1294L15.0268 37.1315L15.0695 37.1466L15.1138 37.1527L15.1573 37.1528L15.2013 37.1607L15.2464 37.1517L15.2888 37.1687L15.3336 37.1616L15.3761 37.1673L15.4204 37.1733L15.4629 37.179L15.5062 37.1905L15.551 37.1833L15.5925 37.1945L15.6372 37.1987L15.6823 37.1897L15.7248 37.1954L15.7691 37.2014L15.8115 37.2184L15.8563 37.2113L15.8978 37.2225L15.9431 37.223L15.985 37.2323L16.0299 37.2347L16.0744 37.2294L16.1169 37.2351L16.1622 37.2356L16.2034 37.2486L16.249 37.2473L16.2915 37.253L16.3362 37.2571L16.379 37.261L16.422 37.2743L16.4642 37.2819L16.509 37.2747L16.5523 37.2862L16.5967 37.2922L16.6399 37.2829L16.6846 37.2871L16.7263 37.3078L16.7704 37.3043L16.8138 37.3158L16.8576 37.3142L16.9019 37.3202L16.9457 37.3185L16.9888 37.3319L17.0316 37.3357L17.076 37.3304L17.1207 37.3346L17.1632 37.3403L17.2078 37.3445L17.25 37.352L17.2947 37.3562L17.3385 37.3545L17.382 37.3547L17.4237 37.3754L17.4687 37.3778L17.5115 37.3816L17.5569 37.3708L17.6003 37.3823L17.6434 37.3843L17.6877 37.3903L17.7302 37.396L17.7739 37.4057L17.819 37.3967L17.8617 37.4119L17.9065 37.4048L17.9485 37.4236L17.9923 37.422L18.0345 37.4295L18.0808 37.4245L18.122 37.4375L18.167 37.4399L18.2108 37.4382L18.2536 37.4421L18.2966 37.4554L18.3421 37.4446L18.3864 37.4506L18.4288 37.4676L18.4729 37.4642L18.5167 37.4625L18.5601 37.474L18.6025 37.4797L18.646 37.4799L18.6897 37.4896L18.7334 37.4993L18.7782 37.4921L18.8213 37.4941L18.8635 37.5016L18.9085 37.504L18.9515 37.5173L18.9953 37.5157L19.0388 37.5159L19.0824 37.5256L19.1246 37.5331L19.1686 37.5409L19.2144 37.5283L19.2559 37.5395L19.3009 37.5418L19.3436 37.557L19.3877 37.5535L19.4315 37.5519L19.4742 37.5671L19.519 37.5599L19.5633 37.5659L19.6061 37.5698L19.6496 37.57L19.6917 37.5888L19.7364 37.5817L19.7808 37.5877L19.8238 37.601L19.8676 37.5994L19.9111 37.5996L19.9538 37.6147L19.9995 37.6021L20.0429 37.6136L20.0851 37.6211L20.1304 37.6216L20.1742 37.62L20.217 37.6239L20.2613 37.6299L20.3041 37.6337L20.3468 37.6489L20.3908 37.6567L20.4356 37.6496L20.4788 37.6516L20.5241 37.6521L20.5658 37.6728L20.6093 37.673L20.6537 37.6677L20.6981 37.6737L20.7409 37.6776L20.7849 37.6854L20.8287 37.6838L20.8724 37.6934L20.9154 37.7068L20.9582 37.7106L21.003 37.7035L21.0477 37.7077L21.09 37.7247L21.1348 37.7175L21.1763 37.7287L21.2211 37.7216L21.2638 37.7368L21.3083 37.7314L21.3519 37.7411L21.3969 37.7435L21.4391 37.751L21.4829 37.7493L21.5266 37.759L21.5712 37.7632L21.6154 37.7597L21.6582 37.7636L21.7028 37.7678L21.7468 37.7756L21.788 37.7886L21.8328 37.7815L21.8765 37.7912L21.9208 37.7972L21.961 37.7949Z" fill="#CDFFFE" stroke="black" stroke-width="2" mask="url(#path-22-inside-1_671_9303)"/>
<path d="M28.0128 43.7159L28.0363 43.7049L28.064 43.6952L28.0916 43.6893L28.1166 43.6753L28.1464 43.6726L28.173 43.6594L28.1985 43.6465L28.2269 43.6391L28.2523 43.6263L28.2807 43.6189L28.3047 43.6013L28.3312 43.592L28.3603 43.5869L28.3861 43.5752L28.4127 43.562L28.4392 43.5526L28.4646 43.5398L28.4894 43.5245L28.5188 43.5207L28.5435 43.5055L28.5716 43.4969L28.5977 43.4864L28.6236 43.4708L28.6498 43.4603L28.6759 43.4498L28.7032 43.4389L28.7341 43.4397L28.7581 43.4221L28.7869 43.4159L28.8112 43.3995L28.8377 43.3902L28.8658 43.3816L28.8905 43.3664L28.9207 43.3649L28.9443 43.3461L28.9705 43.3356L28.9978 43.3247L29.0269 43.3197L29.0512 43.3033L29.0767 43.2904L29.1061 43.2866L29.1309 43.2713L29.157 43.2608L29.1868 43.2581L29.2108 43.2406L29.2378 43.2285L29.2636 43.2168L29.2916 43.2083L29.3174 43.1966L29.3436 43.186L29.3712 43.1763L29.3974 43.1658L29.4265 43.1607L29.4545 43.1522L29.4799 43.1393L29.508 43.1307L29.5327 43.1155L29.5588 43.105L29.5851 43.0906L29.6156 43.0902L29.6418 43.0797L29.6672 43.0668L29.6912 43.0493L29.7196 43.0419L29.7487 43.0369L29.7731 43.0205L29.8022 43.0154L29.8255 42.9956L29.8513 42.9839L29.8821 42.9847L29.9065 42.9683L29.9352 42.9621L29.9593 42.9445L29.9847 42.9317L30.0127 42.9231L30.0382 42.9102L30.068 42.9075L30.0934 42.8947L30.1218 42.8873L30.1469 42.8732L30.1738 42.8612L30.1996 42.8495L30.2251 42.8366L30.2538 42.8304L30.2811 42.8195L30.3076 42.8101L30.3364 42.8039L30.3604 42.7864L30.3895 42.7813L30.4156 42.7708L30.4414 42.7591L30.4654 42.7416L30.4945 42.7365L30.5218 42.7256L30.5487 42.7174L30.5738 42.7034L30.6018 42.6948L30.6273 42.682L30.6567 42.6781L30.6796 42.657L30.7095 42.6543L30.7328 42.6344L30.7593 42.6251L30.7876 42.6177L30.8127 42.6037L30.8429 42.6021L30.868 42.5881L30.8967 42.5819L30.9229 42.5713L30.9488 42.5558L30.9767 42.5511L31.0026 42.5355L31.0294 42.5273L31.0575 42.5188L31.0822 42.5036L31.108 42.4919L31.1349 42.4798L31.1618 42.4716L31.1862 42.4552L31.2156 42.4514L31.24 42.435L31.267 42.4229L31.2975 42.4225L31.3233 42.4108L31.351 42.4011L31.3771 42.3906L31.4004 42.3707L31.4277 42.3598L31.4579 42.3583L31.484 42.3477L31.508 42.3302L31.5335 42.3173L31.5608 42.3064L31.5917 42.3072L31.616 42.2909L31.6441 42.2823L31.6713 42.2753L31.6972 42.2597L31.7215 42.2434L31.7488 42.2363L31.7768 42.2278L31.8012 42.2114L31.8295 42.204L31.8594 42.2013L31.8819 42.1791L31.9092 42.1721L31.9386 42.1682L31.9637 42.1541L31.9924 42.1479L32.0154 42.1269L32.0456 42.1253L32.0692 42.1066L32.0965 42.0957L32.1241 42.0899L32.1525 42.0825L32.1776 42.0685L32.2056 42.0599L32.2296 42.0424L32.2587 42.0373L32.2852 42.0279L32.3125 42.0171L32.3372 42.0019L32.3653 41.9933L32.3937 41.9859L32.4184 41.9707L32.4468 41.9633L32.4736 41.9551L32.4984 41.9399L32.4847 41.916L32.4785 41.8873L32.4633 41.8625L32.4594 41.8331L32.4418 41.8091L32.4333 41.781L32.4216 41.7552L32.413 41.7272L32.4036 41.7007L32.3963 41.6723L32.3834 41.6468L32.3783 41.6177L32.362 41.5934L32.3468 41.5686L32.344 41.5388L32.3323 41.513L32.3226 41.4853L32.3098 41.4599L32.3035 41.4311L32.2942 41.4046L32.2755 41.381L32.2704 41.3519L32.2575 41.3264L32.2455 41.2994L32.2361 41.2729L32.2276 41.2449L32.2182 41.2184L32.2061 41.1914L32.1979 41.1646L32.1769 41.1416L32.1765 41.1111L32.1601 41.0867L32.1484 41.0609L32.1446 41.0314L32.127 41.0074L32.1196 40.979L32.1033 40.9547L32.0982 40.9255L32.09 40.8987L32.0814 40.8706L32.0686 40.8452L32.0565 40.8182L32.0401 40.7939L32.0363 40.7644L32.0246 40.7386L32.0105 40.7135L32.0078 40.6837L31.9879 40.6604L31.9794 40.6324L31.9688 40.6062L31.965 40.5767L31.9486 40.5524L31.9412 40.524L31.9307 40.4978L31.9143 40.4734L31.9069 40.445L31.8987 40.4182L31.8843 40.3919L31.8785 40.3643L31.8641 40.3381L31.8512 40.3126L31.843 40.2858L31.8309 40.2588L31.8181 40.2334L31.8153 40.2036L31.799 40.1792L31.7881 40.1519L31.7764 40.1261L31.7647 40.1003L31.7585 40.0715L31.7522 40.0428L31.7347 40.0187L31.723 39.9929L31.7203 39.9631L31.7082 39.9362L31.6965 39.9104L31.6848 39.8846L31.6786 39.8558L31.6634 39.8311L31.6494 39.806L31.6385 39.7787L31.6322 39.7499L31.6217 39.7238L31.6053 39.6994L31.6038 39.6692L31.5863 39.6452L31.5742 39.6182L31.5715 39.5884L31.5543 39.5656L31.5446 39.5379L31.5384 39.5091L31.522 39.4848L31.5193 39.4549L31.4986 39.4332L31.4935 39.4041L31.4896 39.3746L31.4698 39.3513L31.4592 39.3251L31.4472 39.2982L31.4433 39.2687L31.4304 39.2433L31.4176 39.2178L31.4058 39.192L31.4039 39.1607L31.3868 39.1378L31.3805 39.1091L31.3653 39.0844L31.3544 39.057L31.3462 39.0302L31.3365 39.0025L31.3291 38.9741L31.3139 38.9494L31.3034 38.9232L31.2948 38.8952L31.2761 38.8715L31.2769 38.8406L31.2617 38.8159L31.2512 38.7897L31.2438 38.7613L31.2329 38.734L31.2154 38.71L31.2095 38.6824L31.1951 38.6562L31.1822 38.6307L31.1807 38.6005L31.171 38.5729L31.1503 38.5511L31.1382 38.5241L31.139 38.4932L31.1203 38.4696L31.1188 38.4394L31.1082 38.4132L31.0962 38.3863L31.0845 38.3605L31.0646 38.3372L31.0572 38.3088L31.0513 38.2812L31.0369 38.2549L31.0276 38.2284L31.0167 38.2011L31.0026 38.176L30.9999 38.1462L30.9871 38.1208L30.9707 38.0964L30.961 38.0687L30.9512 38.041L30.943 38.0142L30.9368 37.9854L30.9158 37.9625L30.9076 37.9356L30.899 37.9076L30.8893 37.8799L30.8753 37.8548L30.8714 37.8253L30.8597 37.7995L30.8445 37.7748L30.8383 37.7461L30.8207 37.722L30.811 37.6944L30.8048 37.6656L30.7931 37.6398L30.7802 37.6144L30.7705 37.5867L30.7678 37.5569L30.7537 37.5318L30.7405 37.5052L30.73 37.479L30.7219 37.4483L30.6941 37.4619L30.6671 37.4739L30.6399 37.4809L30.6133 37.4942L30.5872 37.5047L30.5595 37.5144L30.533 37.5238L30.5068 37.5343L30.4792 37.544L30.4541 37.5581L30.4261 37.5666L30.3995 37.576L30.3712 37.5834L30.3472 37.6009L30.3184 37.6071L30.2923 37.6177L30.2646 37.6274L30.2381 37.6368L30.2108 37.6476L30.1886 37.6672L30.1602 37.6746L30.1345 37.6863L30.1046 37.689L30.0821 37.7112L30.0522 37.7139L30.0261 37.7244L29.9988 37.7353L29.9748 37.7529L29.9483 37.7622L29.9202 37.7708L29.8904 37.7735L29.8671 37.7934L29.8413 37.8051L29.8115 37.8078L29.7842 37.8187L29.7591 37.8327L29.7319 37.8397L29.7075 37.8561L29.6781 37.86L29.6511 37.872L29.6246 37.8814L29.5992 37.8943L29.5704 37.9005L29.5431 37.9114L29.5195 37.9301L29.494 37.943L29.4653 37.9492L29.4391 37.9597L29.4126 37.9691L29.3839 37.9753L29.3588 37.9893L29.3311 37.999L29.3061 38.0131L29.2773 38.0193L29.2515 38.031L29.2246 38.0431L29.1988 38.0548L29.1707 38.0633L29.1439 38.0715L29.1206 38.0914L29.0911 38.0953L29.0671 38.1128L29.0387 38.1202L29.0104 38.1237L28.9828 38.1334L28.9577 38.1475L28.93 38.1572L28.9046 38.1701L28.8791 38.1829L28.8525 38.1962L28.8231 38.2L28.7973 38.2117L28.7693 38.2203L28.7424 38.2285L28.7177 38.2437L28.6937 38.2612L28.6631 38.2616L28.6365 38.2748L28.6129 38.2935L28.5857 38.3006L28.5587 38.3126L28.5326 38.3232L28.5045 38.3317L28.478 38.3411L28.4489 38.3461L28.4231 38.3578L28.3988 38.3742L28.3704 38.3816L28.3424 38.3901L28.3183 38.4077L28.2925 38.4194L28.2664 38.4299L28.2373 38.435L28.2089 38.4423L28.1835 38.4552L28.1588 38.4704L28.1318 38.4825L28.1053 38.4918L28.0755 38.4946L28.05 38.5074L28.0234 38.5206L27.9955 38.5253L27.9696 38.5409L27.942 38.5468L27.917 38.5608L27.89 38.5729L27.8628 38.5799L27.8388 38.5974L27.8104 38.6048L27.7853 38.6188L27.7573 38.6274L27.7311 38.6379L27.702 38.643L27.678 38.6605L27.6486 38.6644L27.6235 38.6784L27.5988 38.6936L27.5697 38.6987L27.5431 38.7119L27.5158 38.7189L27.4915 38.7353L27.4634 38.7439L27.4354 38.7524L27.4096 38.7641L27.3849 38.7793L27.3562 38.7855L27.3278 38.7929L27.3038 38.8105L27.2773 38.8198L27.2485 38.8261L27.2224 38.8366L27.1947 38.8463L27.1707 38.8638L27.1445 38.8744L27.1165 38.8829L27.0888 38.8927L27.0627 38.9032L27.035 38.9129L27.0074 38.9188L26.9812 38.9332L26.9536 38.939L26.93 38.9577L26.9026 38.9686L26.8742 38.976L26.8477 38.9854L26.8227 38.9994L26.7953 39.0103L26.7688 39.0197L26.7426 39.0341L26.7131 39.0379L26.6884 39.0531L26.659 39.057L26.6339 39.0711L26.6081 39.0828L26.5793 39.089L26.5557 39.1077L26.5262 39.1116L26.5008 39.1244L26.4742 39.1377L26.4444 39.1404L26.4214 39.1614L26.3949 39.1708L26.3655 39.1747L26.3418 39.1934L26.3131 39.1996L26.2869 39.2101L26.2593 39.2198L26.2377 39.2328L26.239 39.258L26.2487 39.2856L26.2674 39.3093L26.2791 39.3351L26.2795 39.3656L26.2904 39.3929L26.3099 39.4151L26.3185 39.4431L26.3302 39.4689L26.334 39.4984L26.3438 39.5261L26.3566 39.5515L26.3652 39.5795L26.3839 39.6032L26.3866 39.633L26.4042 39.657L26.4135 39.6835L26.4232 39.7112L26.4326 39.7377L26.4388 39.7665L26.4564 39.7905L26.4622 39.8181L26.4731 39.8454L26.4918 39.8691L26.5012 39.8956L26.5109 39.9233L26.5136 39.9531L26.5312 39.9771L26.537 40.0047L26.5503 40.0313L26.5573 40.0585L26.5694 40.0855L26.5857 40.1099L26.5951 40.1364L26.6083 40.163L26.613 40.1909L26.6274 40.2172L26.6368 40.2437L26.6477 40.271L26.6582 40.2972L26.6632 40.3263L26.6714 40.3531L26.689 40.3772L26.6952 40.4059L26.7049 40.4336L26.7233 40.4561L26.7342 40.4834L26.7346 40.5139L26.7498 40.5387L26.756 40.5674L26.77 40.5925L26.7797 40.6202L26.7938 40.6453L26.7988 40.6744L26.8094 40.7005L26.8257 40.7249L26.8366 40.7522L26.846 40.7787L26.8569 40.8061L26.8651 40.8329L26.876 40.8602L26.89 40.8853L26.9029 40.9108L26.9033 40.9413L26.9153 40.9683L26.9258 40.9944L26.9457 41.0177L26.9519 41.0465L26.9636 41.0723L26.9734 41.1L26.9827 41.1265L26.9901 41.1549L27.0088 41.1785L27.0127 41.208L27.0303 41.232L27.0318 41.2622L27.0458 41.2873L27.054 41.3141L27.0708 41.3397L27.0755 41.3676L27.0875 41.3946L27.1016 41.4197L27.1121 41.4458L27.1171 41.4749L27.137 41.4982L27.1467 41.5259L27.1495 41.5557L27.1647 41.5805L27.1787 41.6055L27.1849 41.6343L27.1943 41.6608L27.2072 41.6862L27.2145 41.7146L27.2219 41.743L27.2395 41.7671L27.2512 41.7928L27.2594 41.8197L27.2714 41.8467L27.2765 41.8758L27.2905 41.9009L27.3034 41.9263L27.3108 41.9547L27.319 41.9816L27.3275 42.0096L27.3486 42.0326L27.3544 42.0601L27.3665 42.0871L27.3704 42.1166L27.3856 42.1413L27.3996 42.1664L27.4035 42.1959L27.421 42.2199L27.4308 42.2475L27.4413 42.2737L27.4542 42.2991L27.4557 42.3293L27.4733 42.3533L27.483 42.381L27.488 42.4101L27.5021 42.4352L27.5149 42.4607L27.5188 42.4901L27.5399 42.5131L27.5461 42.5418L27.5543 42.5687L27.5675 42.5953L27.5815 42.6204L27.5921 42.6465L27.6018 42.6742L27.6123 42.7004L27.6162 42.7298L27.6248 42.7579L27.6423 42.7819L27.654 42.8077L27.6672 42.8343L27.6676 42.8648L27.6805 42.8903L27.6969 42.9146L27.7066 42.9423L27.7171 42.9685L27.7257 42.9965L27.7397 43.0216L27.7471 43.05L27.7522 43.0791L27.7627 43.1053L27.7802 43.1293L27.7911 43.1566L27.7938 43.1864L27.8114 43.2104L27.8172 43.238L27.8348 43.262L27.8387 43.2915L27.855 43.3159L27.8624 43.3443L27.8745 43.3712L27.8827 43.3981L27.8967 43.4232L27.9041 43.4516L27.915 43.4789L27.9302 43.5036L27.9407 43.5298L27.9516 43.5571L27.9602 43.5851L27.9649 43.6131L27.9824 43.6371L27.9898 43.6655L27.9995 43.6932L28.0128 43.7159Z" fill="#D9FFEF"/>
<mask id="path-24-inside-2_671_9303" fill="white">
<path d="M198.787 26.0372L198.771 26.0152L198.755 25.9885L198.744 25.9611L198.725 25.938L198.716 25.9077L198.697 25.8828L198.679 25.8591L198.666 25.8312L198.648 25.8074L198.635 25.7795L198.612 25.7582L198.597 25.7326L198.586 25.7036L198.569 25.6792L198.55 25.6543L198.536 25.6287L198.518 25.605L198.497 25.5824L198.487 25.5527L198.467 25.5302L198.453 25.5029L198.437 25.4779L198.416 25.4542L198.4 25.4293L198.384 25.4043L198.367 25.3782L198.362 25.3462L198.339 25.3248L198.327 25.2963L198.306 25.2744L198.291 25.2488L198.277 25.2215L198.256 25.199L198.249 25.1681L198.225 25.1473L198.209 25.1224L198.193 25.0963L198.182 25.0672L198.16 25.0452L198.142 25.0215L198.132 24.9918L198.112 24.9692L198.096 24.9443L198.087 24.914L198.065 24.8927L198.047 24.8672L198.03 24.8428L198.016 24.8155L197.999 24.7912L197.983 24.7662L197.967 24.7395L197.951 24.7146L197.94 24.6855L197.926 24.6582L197.908 24.6345L197.894 24.6072L197.873 24.5846L197.857 24.5597L197.837 24.5354L197.831 24.5039L197.815 24.479L197.797 24.4552L197.774 24.4338L197.761 24.4059L197.75 24.3769L197.729 24.3549L197.718 24.3258L197.693 24.3056L197.676 24.2813L197.671 24.2492L197.649 24.2273L197.637 24.1988L197.614 24.1774L197.596 24.1536L197.582 24.1264L197.564 24.1026L197.555 24.0724L197.537 24.0486L197.524 24.0207L197.505 23.9975L197.487 23.972L197.47 23.9477L197.452 23.9239L197.44 23.8955L197.423 23.8694L197.408 23.8438L197.396 23.8154L197.374 23.794L197.363 23.7649L197.347 23.74L197.33 23.7156L197.307 23.6942L197.296 23.6651L197.28 23.6391L197.266 23.6129L197.247 23.5897L197.233 23.5625L197.214 23.5387L197.205 23.509L197.179 23.4894L197.17 23.4592L197.145 23.439L197.13 23.4134L197.117 23.3856L197.098 23.3624L197.09 23.3316L197.071 23.3084L197.059 23.2799L197.043 23.255L197.022 23.2313L197.012 23.2033L196.991 23.1796L196.977 23.1535L196.963 23.1262L196.942 23.1036L196.925 23.0793L196.908 23.0538L196.894 23.0276L196.872 23.0056L196.863 22.976L196.841 22.954L196.823 22.9285L196.817 22.8971L196.8 22.8727L196.785 22.846L196.769 22.8211L196.744 22.8009L196.727 22.7748L196.72 22.7439L196.704 22.719L196.681 22.6976L196.663 22.6738L196.646 22.6477L196.641 22.6157L196.62 22.5937L196.605 22.5665L196.593 22.5397L196.572 22.516L196.55 22.494L196.538 22.4673L196.523 22.44L196.502 22.418L196.489 22.3902L196.48 22.3599L196.453 22.3409L196.44 22.3142L196.431 22.2845L196.411 22.2613L196.399 22.2329L196.373 22.2133L196.366 22.1824L196.342 22.1616L196.325 22.1355L196.314 22.1082L196.301 22.0803L196.282 22.0572L196.267 22.0299L196.245 22.0085L196.234 21.9794L196.219 21.9539L196.203 21.9278L196.182 21.9052L196.168 21.8779L196.155 21.8501L196.134 21.8275L196.121 21.7996L196.107 21.7735L196.087 21.7509L196.065 21.7697L196.036 21.7816L196.014 21.8021L195.984 21.8118L195.963 21.8345L195.936 21.8488L195.911 21.8658L195.884 21.8801L195.858 21.8949L195.83 21.908L195.807 21.9262L195.778 21.937L195.756 21.9586L195.733 21.9791L195.703 21.9877L195.678 22.0047L195.652 22.0201L195.628 22.0383L195.6 22.0503L195.574 22.0651L195.553 22.089L195.524 22.0998L195.5 22.118L195.475 22.1356L195.449 22.1504L195.422 22.1647L195.396 22.1795L195.371 22.1971L195.345 22.2108L195.325 22.2369L195.294 22.2432L195.272 22.2648L195.247 22.2819L195.218 22.2916L195.196 22.3143L195.168 22.3274L195.146 22.3491L195.117 22.3599L195.091 22.3735L195.064 22.3878L195.04 22.406L195.015 22.4236L194.993 22.4453L194.963 22.455L194.939 22.472L194.915 22.4914L194.885 22.4999L194.865 22.5249L194.838 22.5392L194.813 22.5551L194.783 22.5648L194.761 22.5864L194.733 22.5995L194.708 22.6154L194.686 22.6371L194.658 22.6502L194.632 22.6638L194.608 22.6837L194.581 22.6951L194.556 22.7151L194.533 22.7333L194.506 22.7469L194.481 22.7646L194.457 22.7828L194.427 22.7913L194.405 22.8129L194.379 22.8295L194.354 22.8465L194.33 22.8636L194.302 22.8755L194.273 22.8875L194.252 22.9103L194.227 22.9273L194.197 22.9359L194.172 22.9535L194.147 22.9706L194.123 22.9877L194.094 22.9996L194.072 23.0201L194.049 23.0394L194.023 23.056L193.994 23.0679L193.969 23.0839L193.947 23.1055L193.916 23.1129L193.895 23.1356L193.869 23.1533L193.839 23.1619L193.819 23.184L193.792 23.1994L193.764 23.2114L193.742 23.233L193.711 23.2415L193.693 23.2671L193.664 23.2779L193.634 23.2876L193.614 23.3127L193.589 23.3286L193.564 23.3462L193.534 23.3559L193.51 23.3741L193.486 23.3923L193.462 23.4094L193.43 23.4174L193.41 23.4396L193.381 23.4515L193.359 23.472L193.333 23.4885L193.306 23.5022L193.28 23.5176L193.252 23.5307L193.229 23.5512L193.204 23.5671L193.177 23.5813L193.156 23.6052L193.124 23.6104L193.102 23.6308L193.077 23.6468L193.049 23.6599L193.023 23.6764L193.001 23.6991L192.974 23.7105L192.95 23.7304L192.926 23.7486L192.895 23.7561L192.868 23.7714L192.85 23.797L192.824 23.8147L192.792 23.8198L192.772 23.8437L192.741 23.8511L192.716 23.867L192.69 23.8847L192.666 23.9018L192.646 23.9268L192.618 23.9399L192.59 23.9513L192.566 23.9712L192.541 23.986L192.514 24.0025L192.491 24.0218L192.461 24.0304L192.437 24.0486L192.415 24.0702L192.389 24.0856L192.362 24.101L192.336 24.1146L192.307 24.1266L192.288 24.1528L192.261 24.1664L192.234 24.1807L192.208 24.196L192.184 24.2154L192.155 24.2251L192.13 24.2421L192.108 24.2626L192.079 24.2746L192.058 24.2973L192.031 24.3127L192.003 24.3247L191.978 24.3417L191.955 24.3599L191.928 24.3753L191.898 24.3839L191.874 24.4032L191.85 24.422L191.825 24.4379L191.794 24.4522L191.814 24.4783L191.831 24.5038L191.844 24.5305L191.863 24.5554L191.879 24.5804L191.894 24.607L191.909 24.6326L191.925 24.6575L191.94 24.6842L191.959 24.7074L191.974 24.7347L191.989 24.7602L192.002 24.7881L192.024 24.8095L192.036 24.838L192.052 24.8629L192.068 24.8896L192.082 24.9151L192.099 24.9412L192.123 24.9603L192.136 24.9882L192.154 25.0125L192.162 25.0428L192.189 25.0618L192.198 25.092L192.214 25.117L192.23 25.1431L192.253 25.1645L192.268 25.19L192.282 25.2173L192.291 25.2475L192.316 25.2677L192.333 25.2921L192.341 25.3223L192.358 25.3484L192.377 25.3716L192.39 25.3983L192.411 25.4203L192.421 25.45L192.439 25.4755L192.453 25.501L192.472 25.5248L192.484 25.5532L192.5 25.5793L192.524 25.6001L192.542 25.6239L192.554 25.6524L192.57 25.6773L192.585 25.7029L192.597 25.7313L192.616 25.7545L192.632 25.7812L192.651 25.8044L192.663 25.8328L192.68 25.8572L192.698 25.8827L192.715 25.907L192.729 25.9343L192.743 25.9605L192.768 25.9807L192.777 26.0103L192.8 26.0317L192.813 26.0596L192.822 26.0881L192.838 26.1148L192.857 26.1379L192.872 26.1646L192.89 26.1884L192.909 26.2122L192.927 26.2371L192.937 26.2667L192.954 26.2911L192.968 26.3183L192.982 26.3445L193.003 26.3671L193.025 26.3885L193.032 26.4199L193.05 26.4448L193.074 26.4656L193.087 26.4923L193.104 26.5178L193.12 26.5428L193.135 26.5701L193.149 26.5956L193.16 26.6247L193.177 26.649L193.199 26.671L193.212 26.6989L193.226 26.7262L193.249 26.7475L193.266 26.7719L193.282 26.7969L193.293 26.8259L193.306 26.8538L193.324 26.8775L193.345 26.9001L193.362 26.9256L193.377 26.9512L193.386 26.9814L193.404 27.0052L193.423 27.0301L193.433 27.058L193.454 27.0817L193.465 27.109L193.485 27.1322L193.502 27.1577L193.515 27.1845L193.537 27.2058L193.551 27.2337L193.57 27.2569L193.584 27.2842L193.6 27.3091L193.611 27.3382L193.634 27.3596L193.643 27.3892L193.663 27.4124L193.683 27.435L193.694 27.464L193.713 27.4889L193.725 27.5157L193.747 27.5376L193.761 27.5649L193.775 27.5922L193.792 27.6166L193.813 27.6391L193.825 27.6676L193.838 27.6955L193.861 27.7169L193.876 27.7424L193.888 27.7709L193.903 27.7958L193.919 27.8225L193.942 27.8439L193.957 27.8689L193.972 27.8961L193.987 27.9228L194.003 27.9478L194.018 27.9745L194.03 28.0018L194.05 28.0261L194.061 28.0534L194.085 28.0742L194.101 28.1003L194.115 28.1282L194.129 28.1537L194.149 28.1769L194.165 28.203L194.18 28.2285L194.2 28.2528L194.21 28.2825L194.23 28.3051L194.24 28.3347L194.259 28.3579L194.276 28.3823L194.288 28.4107L194.312 28.4315L194.322 28.4612L194.34 28.4849L194.359 28.5098L194.367 28.5401L194.393 28.5597L194.408 28.5852L194.418 28.6149L194.442 28.6357L194.454 28.6642L194.47 28.6891L194.485 28.7158L194.503 28.7356L194.528 28.7294L194.555 28.714L194.576 28.6901L194.6 28.673L194.632 28.6667L194.658 28.6502L194.677 28.6258L194.704 28.6116L194.728 28.5945L194.758 28.5848L194.785 28.5694L194.809 28.5512L194.836 28.537L194.857 28.5131L194.887 28.5045L194.908 28.4818L194.934 28.467L194.961 28.4516L194.986 28.4368L195.015 28.4248L195.036 28.4021L195.063 28.3907L195.089 28.3742L195.11 28.3503L195.136 28.3355L195.162 28.3201L195.193 28.3116L195.214 28.2888L195.241 28.2775L195.266 28.2587L195.293 28.2462L195.319 28.2285L195.341 28.2069L195.366 28.1921L195.391 28.1733L195.419 28.1631L195.443 28.1431L195.469 28.1283L195.495 28.1118L195.52 28.0959L195.549 28.0851L195.575 28.0714L195.596 28.0487L195.625 28.0367L195.652 28.0213L195.671 27.998L195.697 27.9815L195.729 27.9752L195.751 27.9547L195.78 27.9428L195.803 27.9234L195.83 27.9081L195.853 27.8887L195.882 27.8779L195.907 27.862L195.929 27.8403L195.955 27.8238L195.981 27.809L196.007 27.7925L196.033 27.7789L196.059 27.7624L196.082 27.743L196.106 27.7248L196.137 27.7185L196.163 27.7009L196.188 27.6849L196.208 27.6599L196.236 27.648L196.261 27.6309L196.288 27.6155L196.313 27.6007L196.341 27.5876L196.362 27.5637L196.391 27.554L196.413 27.5313L196.444 27.5239L196.467 27.5045L196.493 27.4909L196.516 27.4687L196.544 27.4584L196.57 27.4408L196.593 27.4214L196.618 27.4055L196.647 27.3947L196.667 27.3697L196.694 27.3543L196.724 27.3457L196.747 27.3252L196.77 27.3059L196.798 27.2939L196.824 27.2791L196.847 27.2609L196.875 27.2478L196.903 27.2347L196.925 27.212L196.949 27.1949L196.975 27.1813L197.001 27.1636L197.03 27.1528L197.053 27.1334L197.077 27.1152L197.105 27.1021L197.131 27.0885L197.158 27.0742L197.178 27.0481L197.205 27.0367L197.23 27.019L197.26 27.0093L197.283 26.9889L197.306 26.9695L197.336 26.9598L197.357 26.9371L197.384 26.9217L197.409 26.9058L197.432 26.8876L197.463 26.8802L197.485 26.8574L197.511 26.842L197.54 26.8312L197.564 26.8119L197.587 26.7937L197.617 26.784L197.637 26.7578L197.665 26.7458L197.691 26.7322L197.716 26.7134L197.739 26.6941L197.764 26.6781L197.791 26.6627L197.816 26.6468L197.846 26.6371L197.873 26.6229L197.894 26.6001L197.919 26.5831L197.943 26.5643L197.975 26.558L197.999 26.5398L198.021 26.5182L198.047 26.5028L198.072 26.4869L198.1 26.4726L198.123 26.4533L198.151 26.4402L198.18 26.4293L198.205 26.4134L198.226 26.3907L198.252 26.3742L198.282 26.3656L198.304 26.3428L198.331 26.3315L198.353 26.3087L198.382 26.299L198.404 26.2774L198.432 26.2643L198.458 26.2466L198.484 26.233L198.507 26.2137L198.535 26.2005L198.561 26.184L198.583 26.1636L198.608 26.1476L198.635 26.1311L198.662 26.1169L198.69 26.1066L198.711 26.0839L198.739 26.0708L198.766 26.0554L198.787 26.0372Z"/>
</mask>
<path d="M198.787 26.0372L198.771 26.0152L198.755 25.9885L198.744 25.9611L198.725 25.938L198.716 25.9077L198.697 25.8828L198.679 25.8591L198.666 25.8312L198.648 25.8074L198.635 25.7795L198.612 25.7582L198.597 25.7326L198.586 25.7036L198.569 25.6792L198.55 25.6543L198.536 25.6287L198.518 25.605L198.497 25.5824L198.487 25.5527L198.467 25.5302L198.453 25.5029L198.437 25.4779L198.416 25.4542L198.4 25.4293L198.384 25.4043L198.367 25.3782L198.362 25.3462L198.339 25.3248L198.327 25.2963L198.306 25.2744L198.291 25.2488L198.277 25.2215L198.256 25.199L198.249 25.1681L198.225 25.1473L198.209 25.1224L198.193 25.0963L198.182 25.0672L198.16 25.0452L198.142 25.0215L198.132 24.9918L198.112 24.9692L198.096 24.9443L198.087 24.914L198.065 24.8927L198.047 24.8672L198.03 24.8428L198.016 24.8155L197.999 24.7912L197.983 24.7662L197.967 24.7395L197.951 24.7146L197.94 24.6855L197.926 24.6582L197.908 24.6345L197.894 24.6072L197.873 24.5846L197.857 24.5597L197.837 24.5354L197.831 24.5039L197.815 24.479L197.797 24.4552L197.774 24.4338L197.761 24.4059L197.75 24.3769L197.729 24.3549L197.718 24.3258L197.693 24.3056L197.676 24.2813L197.671 24.2492L197.649 24.2273L197.637 24.1988L197.614 24.1774L197.596 24.1536L197.582 24.1264L197.564 24.1026L197.555 24.0724L197.537 24.0486L197.524 24.0207L197.505 23.9975L197.487 23.972L197.47 23.9477L197.452 23.9239L197.44 23.8955L197.423 23.8694L197.408 23.8438L197.396 23.8154L197.374 23.794L197.363 23.7649L197.347 23.74L197.33 23.7156L197.307 23.6942L197.296 23.6651L197.28 23.6391L197.266 23.6129L197.247 23.5897L197.233 23.5625L197.214 23.5387L197.205 23.509L197.179 23.4894L197.17 23.4592L197.145 23.439L197.13 23.4134L197.117 23.3856L197.098 23.3624L197.09 23.3316L197.071 23.3084L197.059 23.2799L197.043 23.255L197.022 23.2313L197.012 23.2033L196.991 23.1796L196.977 23.1535L196.963 23.1262L196.942 23.1036L196.925 23.0793L196.908 23.0538L196.894 23.0276L196.872 23.0056L196.863 22.976L196.841 22.954L196.823 22.9285L196.817 22.8971L196.8 22.8727L196.785 22.846L196.769 22.8211L196.744 22.8009L196.727 22.7748L196.72 22.7439L196.704 22.719L196.681 22.6976L196.663 22.6738L196.646 22.6477L196.641 22.6157L196.62 22.5937L196.605 22.5665L196.593 22.5397L196.572 22.516L196.55 22.494L196.538 22.4673L196.523 22.44L196.502 22.418L196.489 22.3902L196.48 22.3599L196.453 22.3409L196.44 22.3142L196.431 22.2845L196.411 22.2613L196.399 22.2329L196.373 22.2133L196.366 22.1824L196.342 22.1616L196.325 22.1355L196.314 22.1082L196.301 22.0803L196.282 22.0572L196.267 22.0299L196.245 22.0085L196.234 21.9794L196.219 21.9539L196.203 21.9278L196.182 21.9052L196.168 21.8779L196.155 21.8501L196.134 21.8275L196.121 21.7996L196.107 21.7735L196.087 21.7509L196.065 21.7697L196.036 21.7816L196.014 21.8021L195.984 21.8118L195.963 21.8345L195.936 21.8488L195.911 21.8658L195.884 21.8801L195.858 21.8949L195.83 21.908L195.807 21.9262L195.778 21.937L195.756 21.9586L195.733 21.9791L195.703 21.9877L195.678 22.0047L195.652 22.0201L195.628 22.0383L195.6 22.0503L195.574 22.0651L195.553 22.089L195.524 22.0998L195.5 22.118L195.475 22.1356L195.449 22.1504L195.422 22.1647L195.396 22.1795L195.371 22.1971L195.345 22.2108L195.325 22.2369L195.294 22.2432L195.272 22.2648L195.247 22.2819L195.218 22.2916L195.196 22.3143L195.168 22.3274L195.146 22.3491L195.117 22.3599L195.091 22.3735L195.064 22.3878L195.04 22.406L195.015 22.4236L194.993 22.4453L194.963 22.455L194.939 22.472L194.915 22.4914L194.885 22.4999L194.865 22.5249L194.838 22.5392L194.813 22.5551L194.783 22.5648L194.761 22.5864L194.733 22.5995L194.708 22.6154L194.686 22.6371L194.658 22.6502L194.632 22.6638L194.608 22.6837L194.581 22.6951L194.556 22.7151L194.533 22.7333L194.506 22.7469L194.481 22.7646L194.457 22.7828L194.427 22.7913L194.405 22.8129L194.379 22.8295L194.354 22.8465L194.33 22.8636L194.302 22.8755L194.273 22.8875L194.252 22.9103L194.227 22.9273L194.197 22.9359L194.172 22.9535L194.147 22.9706L194.123 22.9877L194.094 22.9996L194.072 23.0201L194.049 23.0394L194.023 23.056L193.994 23.0679L193.969 23.0839L193.947 23.1055L193.916 23.1129L193.895 23.1356L193.869 23.1533L193.839 23.1619L193.819 23.184L193.792 23.1994L193.764 23.2114L193.742 23.233L193.711 23.2415L193.693 23.2671L193.664 23.2779L193.634 23.2876L193.614 23.3127L193.589 23.3286L193.564 23.3462L193.534 23.3559L193.51 23.3741L193.486 23.3923L193.462 23.4094L193.43 23.4174L193.41 23.4396L193.381 23.4515L193.359 23.472L193.333 23.4885L193.306 23.5022L193.28 23.5176L193.252 23.5307L193.229 23.5512L193.204 23.5671L193.177 23.5813L193.156 23.6052L193.124 23.6104L193.102 23.6308L193.077 23.6468L193.049 23.6599L193.023 23.6764L193.001 23.6991L192.974 23.7105L192.95 23.7304L192.926 23.7486L192.895 23.7561L192.868 23.7714L192.85 23.797L192.824 23.8147L192.792 23.8198L192.772 23.8437L192.741 23.8511L192.716 23.867L192.69 23.8847L192.666 23.9018L192.646 23.9268L192.618 23.9399L192.59 23.9513L192.566 23.9712L192.541 23.986L192.514 24.0025L192.491 24.0218L192.461 24.0304L192.437 24.0486L192.415 24.0702L192.389 24.0856L192.362 24.101L192.336 24.1146L192.307 24.1266L192.288 24.1528L192.261 24.1664L192.234 24.1807L192.208 24.196L192.184 24.2154L192.155 24.2251L192.13 24.2421L192.108 24.2626L192.079 24.2746L192.058 24.2973L192.031 24.3127L192.003 24.3247L191.978 24.3417L191.955 24.3599L191.928 24.3753L191.898 24.3839L191.874 24.4032L191.85 24.422L191.825 24.4379L191.794 24.4522L191.814 24.4783L191.831 24.5038L191.844 24.5305L191.863 24.5554L191.879 24.5804L191.894 24.607L191.909 24.6326L191.925 24.6575L191.94 24.6842L191.959 24.7074L191.974 24.7347L191.989 24.7602L192.002 24.7881L192.024 24.8095L192.036 24.838L192.052 24.8629L192.068 24.8896L192.082 24.9151L192.099 24.9412L192.123 24.9603L192.136 24.9882L192.154 25.0125L192.162 25.0428L192.189 25.0618L192.198 25.092L192.214 25.117L192.23 25.1431L192.253 25.1645L192.268 25.19L192.282 25.2173L192.291 25.2475L192.316 25.2677L192.333 25.2921L192.341 25.3223L192.358 25.3484L192.377 25.3716L192.39 25.3983L192.411 25.4203L192.421 25.45L192.439 25.4755L192.453 25.501L192.472 25.5248L192.484 25.5532L192.5 25.5793L192.524 25.6001L192.542 25.6239L192.554 25.6524L192.57 25.6773L192.585 25.7029L192.597 25.7313L192.616 25.7545L192.632 25.7812L192.651 25.8044L192.663 25.8328L192.68 25.8572L192.698 25.8827L192.715 25.907L192.729 25.9343L192.743 25.9605L192.768 25.9807L192.777 26.0103L192.8 26.0317L192.813 26.0596L192.822 26.0881L192.838 26.1148L192.857 26.1379L192.872 26.1646L192.89 26.1884L192.909 26.2122L192.927 26.2371L192.937 26.2667L192.954 26.2911L192.968 26.3183L192.982 26.3445L193.003 26.3671L193.025 26.3885L193.032 26.4199L193.05 26.4448L193.074 26.4656L193.087 26.4923L193.104 26.5178L193.12 26.5428L193.135 26.5701L193.149 26.5956L193.16 26.6247L193.177 26.649L193.199 26.671L193.212 26.6989L193.226 26.7262L193.249 26.7475L193.266 26.7719L193.282 26.7969L193.293 26.8259L193.306 26.8538L193.324 26.8775L193.345 26.9001L193.362 26.9256L193.377 26.9512L193.386 26.9814L193.404 27.0052L193.423 27.0301L193.433 27.058L193.454 27.0817L193.465 27.109L193.485 27.1322L193.502 27.1577L193.515 27.1845L193.537 27.2058L193.551 27.2337L193.57 27.2569L193.584 27.2842L193.6 27.3091L193.611 27.3382L193.634 27.3596L193.643 27.3892L193.663 27.4124L193.683 27.435L193.694 27.464L193.713 27.4889L193.725 27.5157L193.747 27.5376L193.761 27.5649L193.775 27.5922L193.792 27.6166L193.813 27.6391L193.825 27.6676L193.838 27.6955L193.861 27.7169L193.876 27.7424L193.888 27.7709L193.903 27.7958L193.919 27.8225L193.942 27.8439L193.957 27.8689L193.972 27.8961L193.987 27.9228L194.003 27.9478L194.018 27.9745L194.03 28.0018L194.05 28.0261L194.061 28.0534L194.085 28.0742L194.101 28.1003L194.115 28.1282L194.129 28.1537L194.149 28.1769L194.165 28.203L194.18 28.2285L194.2 28.2528L194.21 28.2825L194.23 28.3051L194.24 28.3347L194.259 28.3579L194.276 28.3823L194.288 28.4107L194.312 28.4315L194.322 28.4612L194.34 28.4849L194.359 28.5098L194.367 28.5401L194.393 28.5597L194.408 28.5852L194.418 28.6149L194.442 28.6357L194.454 28.6642L194.47 28.6891L194.485 28.7158L194.503 28.7356L194.528 28.7294L194.555 28.714L194.576 28.6901L194.6 28.673L194.632 28.6667L194.658 28.6502L194.677 28.6258L194.704 28.6116L194.728 28.5945L194.758 28.5848L194.785 28.5694L194.809 28.5512L194.836 28.537L194.857 28.5131L194.887 28.5045L194.908 28.4818L194.934 28.467L194.961 28.4516L194.986 28.4368L195.015 28.4248L195.036 28.4021L195.063 28.3907L195.089 28.3742L195.11 28.3503L195.136 28.3355L195.162 28.3201L195.193 28.3116L195.214 28.2888L195.241 28.2775L195.266 28.2587L195.293 28.2462L195.319 28.2285L195.341 28.2069L195.366 28.1921L195.391 28.1733L195.419 28.1631L195.443 28.1431L195.469 28.1283L195.495 28.1118L195.52 28.0959L195.549 28.0851L195.575 28.0714L195.596 28.0487L195.625 28.0367L195.652 28.0213L195.671 27.998L195.697 27.9815L195.729 27.9752L195.751 27.9547L195.78 27.9428L195.803 27.9234L195.83 27.9081L195.853 27.8887L195.882 27.8779L195.907 27.862L195.929 27.8403L195.955 27.8238L195.981 27.809L196.007 27.7925L196.033 27.7789L196.059 27.7624L196.082 27.743L196.106 27.7248L196.137 27.7185L196.163 27.7009L196.188 27.6849L196.208 27.6599L196.236 27.648L196.261 27.6309L196.288 27.6155L196.313 27.6007L196.341 27.5876L196.362 27.5637L196.391 27.554L196.413 27.5313L196.444 27.5239L196.467 27.5045L196.493 27.4909L196.516 27.4687L196.544 27.4584L196.57 27.4408L196.593 27.4214L196.618 27.4055L196.647 27.3947L196.667 27.3697L196.694 27.3543L196.724 27.3457L196.747 27.3252L196.77 27.3059L196.798 27.2939L196.824 27.2791L196.847 27.2609L196.875 27.2478L196.903 27.2347L196.925 27.212L196.949 27.1949L196.975 27.1813L197.001 27.1636L197.03 27.1528L197.053 27.1334L197.077 27.1152L197.105 27.1021L197.131 27.0885L197.158 27.0742L197.178 27.0481L197.205 27.0367L197.23 27.019L197.26 27.0093L197.283 26.9889L197.306 26.9695L197.336 26.9598L197.357 26.9371L197.384 26.9217L197.409 26.9058L197.432 26.8876L197.463 26.8802L197.485 26.8574L197.511 26.842L197.54 26.8312L197.564 26.8119L197.587 26.7937L197.617 26.784L197.637 26.7578L197.665 26.7458L197.691 26.7322L197.716 26.7134L197.739 26.6941L197.764 26.6781L197.791 26.6627L197.816 26.6468L197.846 26.6371L197.873 26.6229L197.894 26.6001L197.919 26.5831L197.943 26.5643L197.975 26.558L197.999 26.5398L198.021 26.5182L198.047 26.5028L198.072 26.4869L198.1 26.4726L198.123 26.4533L198.151 26.4402L198.18 26.4293L198.205 26.4134L198.226 26.3907L198.252 26.3742L198.282 26.3656L198.304 26.3428L198.331 26.3315L198.353 26.3087L198.382 26.299L198.404 26.2774L198.432 26.2643L198.458 26.2466L198.484 26.233L198.507 26.2137L198.535 26.2005L198.561 26.184L198.583 26.1636L198.608 26.1476L198.635 26.1311L198.662 26.1169L198.69 26.1066L198.711 26.0839L198.739 26.0708L198.766 26.0554L198.787 26.0372Z" fill="#D9FFEF" stroke="black" stroke-width="2" mask="url(#path-24-inside-2_671_9303)"/>
<path d="M29.7517 72.1767C26.2067 80.1735 26.1912 88.5803 26.1912 100.915L36.4525 100.182" stroke="#080B0E" stroke-linecap="round" stroke-linejoin="round"/>
<path d="M204.972 54.3931C214.826 72.8031 216.345 86.6645 216.333 87.7479" stroke="#080B0E" stroke-linecap="round" stroke-linejoin="round"/>
<path d="M14.802 87.7582C14.5426 89.2126 13.1534 90.1814 11.699 89.922C10.2446 89.6627 9.27589 88.2735 9.53523 86.8191C9.79457 85.3647 11.1838 84.396 12.6382 84.6553C14.0925 84.9146 15.0613 86.3039 14.802 87.7582Z" fill="#CCFFFE" stroke="black"/>
<path d="M219.711 85.0556C220.402 86.3611 219.905 87.98 218.599 88.6715C217.294 89.3631 215.675 88.8655 214.984 87.56C214.292 86.2546 214.79 84.6357 216.095 83.9441C217.4 83.2525 219.019 83.7502 219.711 85.0556Z" fill="#CCFFFE" stroke="black"/>
<path d="M224.209 80.8511C224.625 81.6368 224.326 82.611 223.54 83.0272C222.754 83.4434 221.78 83.1439 221.364 82.3583C220.948 81.5727 221.247 80.5984 222.033 80.1822C222.818 79.766 223.793 80.0655 224.209 80.8511Z" fill="#CCFFFE"/>
<path d="M6.59138 91.7429C6.42265 92.6891 5.51877 93.3194 4.57251 93.1507C3.62625 92.982 2.99594 92.0781 3.16468 91.1318C3.33341 90.1856 4.23729 89.5553 5.18355 89.724C6.12981 89.8927 6.76012 90.7966 6.59138 91.7429Z" fill="#86EFCE"/>
<path d="M229.143 92.4968L15.8763 106.143L15.7428 113.435L227.019 104.321L229.143 92.4968Z" fill="white"/>
<path d="M118.864 5.92573C125.334 5.82049 140.042 6.36749 147.112 9.39741" stroke="black" stroke-linecap="round"/>
<defs>
<linearGradient id="paint0_linear_671_9303" x1="34.2073" y1="48.6123" x2="217.592" y2="84.4673" gradientUnits="userSpaceOnUse">
<stop stop-color="#3EFFFF" stop-opacity="0.9"/>
<stop offset="1" stop-color="#96F2BC" stop-opacity="0.9"/>
</linearGradient>
</defs>
</svg>
