<svg width="298px" height="194px" viewBox="0 0 298 194" version="1.1" xmlns="http://www.w3.org/2000/svg" xmlns:xlink="http://www.w3.org/1999/xlink">
    <g id="Flow" stroke="none" stroke-width="1" fill="none" fill-rule="evenodd">
        <g id="Post-Trial---Admin-" transform="translate(-575.000000, -187.000000)">
            <g id="Group-2" transform="translate(575.005630, 187.547435)">
                <path d="M297.71323,121.41475 C280.43629,40.2752901 201.037124,-12.8316577 119.93306,2.69690918 C38.8140311,18.2160565 -13.3723301,96.5183692 3.00533569,177.832926 L297.71323,121.41475 Z" id="Fill-29-Copy-3" fill="#F5F7FA"></path>
                <polygon id="Fill-22-Copy-8" fill="#86EFCE" points="226.570833 157.606289 224.939629 156.162809 223.308424 154.719872 224.748552 153.085774 226.193566 151.461995 227.824228 152.899501 229.452718 154.341895 228.009876 155.971105"></polygon>
                <path d="M31.9841901,151.736083 C33.8880739,152.455982 34.847977,154.582697 34.1286183,156.486506 C33.4086909,158.390883 31.2813227,159.350748 29.3774389,158.630849 C27.4735552,157.91095 26.513652,155.784235 27.2335794,153.880426 C27.9529381,151.976049 30.0797377,151.016184 31.9841901,151.736083" id="Fill-27-Copy-5" fill="#D9FFEF"></path>
                <path d="M32.3781463,25.659095 C33.6692383,26.1472843 34.3201831,27.5894866 33.8323601,28.8805275 C33.3441515,30.1719541 31.9015066,30.8228732 30.6104147,30.3346839 C29.3193227,29.8464945 28.6683779,28.4042923 29.1565865,27.1132514 C29.6444095,25.8218248 31.0866687,25.1709057 32.3781463,25.659095" id="Fill-27-Copy-7" fill="#86EFCE"></path>
                <path d="M226.378146,3.65909502 C227.669238,4.14728434 228.320183,5.58948659 227.83236,6.88052753 C227.344151,8.17195409 225.901507,8.82287318 224.610415,8.33468386 C223.319323,7.84649454 222.668378,6.40429229 223.156587,5.11325135 C223.644409,3.82182479 225.086669,3.17090571 226.378146,3.65909502" id="Fill-27-Copy-8" fill="#D9FFEF"></path>
                <polygon id="Fill-22-Copy-9" fill="#86EFCE" points="48.6771796 87.6216941 46.0223514 85.2723924 43.3675233 82.9239745 45.7113699 80.2644376 48.0631678 77.6216941 50.7171125 79.9612734 53.3675233 82.3088075 51.0192593 84.9603896"></polygon>
                <path d="M251.98419,82.6917583 C253.888074,83.4116572 254.847977,85.5383729 254.128618,87.4421814 C253.408691,89.3465585 251.281323,90.3064238 249.377439,89.5865248 C247.473555,88.8666259 246.513652,86.7399103 247.233579,84.8361018 C247.952938,82.9317246 250.079738,81.9718594 251.98419,82.6917583" id="Fill-27-Copy-6" fill="#86EFCE"></path>
                <g id="Group" transform="translate(73.082544, 29.615046)">
                    <g id="Group-5" transform="translate(72.169663, 81.875562) rotate(3.000000) translate(-72.169663, -81.875562) translate(4.434900, 3.437467)">
                        <path d="M54.9061525,86.453008 C56.671423,86.452339 58.1029998,87.8828313 58.1036687,89.6481018 C58.103669,89.6489097 58.103669,89.6497176 58.1036687,89.6505255 L58.0794295,153.54605 C58.0787592,155.313051 56.6464882,156.745322 54.8794864,156.745991 C53.1142159,156.74666 51.6826392,155.316168 51.6819702,153.550898 C51.6819699,153.55009 51.6819699,153.549282 51.6819702,153.548474 L51.7062094,89.6529497 C51.7068797,87.8859479 53.1391507,86.4536775 54.9061525,86.453008 Z" id="Rectangle-Copy-2" fill="#4BE4B4" transform="translate(54.892819, 121.599500) rotate(17.000000) translate(-54.892819, -121.599500) "></path>
                        <g id="Group-4" transform="translate(91.305284, 34.878679) rotate(-8.000000) translate(-91.305284, -34.878679) translate(65.194674, 3.326834)">
                            <path d="M20.3276584,4.850749 C23.8558797,4.84901129 26.7174768,7.70779105 26.7192145,11.2360123 C26.7192158,11.2385518 26.7192155,11.2410913 26.7192137,11.2436309 L26.6868708,57.4452665 C26.684397,60.9789306 23.820025,63.8427083 20.2863605,63.8444487 C16.7581392,63.8461864 13.896542,60.9874066 13.8948043,57.4591854 C13.8948031,57.4566459 13.8948033,57.4541063 13.8948051,57.4515668 L13.9271481,11.2499312 C13.9296218,7.71626706 16.7939939,4.85248939 20.3276584,4.850749 Z" id="Rectangle" fill="#4BE4B4" transform="translate(20.307009, 34.347599) rotate(30.000000) translate(-20.307009, -34.347599) "></path>
                            <path d="M5.49449839,10.7714767 C14.0322397,0.255219053 24.816215,-1.26393786 37.8464243,6.21400597 C50.8766336,13.6919498 54.3298407,22.9756623 48.2060457,34.0651433 L5.49449839,10.7714767 Z" id="Path-3" fill="#86EFCE" transform="translate(28.318667, 17.808839) rotate(4.000000) translate(-28.318667, -17.808839) "></path>
                        </g>
                        <g id="Group-4-Copy" transform="translate(30.320423, 43.437077) scale(-1, 1) rotate(8.000000) translate(-30.320423, -43.437077) translate(4.209813, 11.885232)">
                            <path d="M20.5776584,3.91778969 C24.1058914,3.91602252 26.9675219,6.7747879 26.9692891,10.3030209 C26.9692904,10.3055533 26.9692901,10.3080858 26.9692884,10.3106182 L26.9367961,57.5121469 C26.9343637,61.0458077 24.0700216,63.9096127 20.5363605,63.9113826 C17.0081275,63.9131498 14.146497,61.0543844 14.1447298,57.5261514 C14.1447285,57.523619 14.1447288,57.5210865 14.1447305,57.518554 L14.1772227,10.3170253 C14.1796552,6.78336461 17.0439973,3.91955958 20.5776584,3.91778969 Z" id="Rectangle" fill="#4BE4B4" transform="translate(20.557009, 33.914586) rotate(30.000000) translate(-20.557009, -33.914586) "></path>
                            <path d="M5.49449839,10.7714767 C14.0322397,0.255219053 24.816215,-1.26393786 37.8464243,6.21400597 C50.8766336,13.6919498 54.3298407,22.9756623 48.2060457,34.0651433 L5.49449839,10.7714767 Z" id="Path-3" fill="#86EFCE" transform="translate(28.318667, 17.808839) rotate(4.000000) translate(-28.318667, -17.808839) "></path>
                        </g>
                        <path d="M88.6567621,81.7072136 C90.4206796,81.7061214 91.8515028,83.1351736 91.8525951,84.8990911 C91.8525959,84.90041 91.8525959,84.9017288 91.8525951,84.9030477 L91.8129936,148.820541 C91.811899,150.587285 90.3799426,152.019241 88.6131981,152.020335 C86.8492805,152.021428 85.4184574,150.592375 85.4173651,148.828458 C85.4173643,148.827139 85.4173643,148.82582 85.4173651,148.824501 L85.4569666,84.9070081 C85.4580612,83.1402636 86.8900176,81.7083077 88.6567621,81.7072136 Z" id="Rectangle-Copy-3" fill="#4BE4B4" transform="translate(88.634980, 116.863774) scale(-1, 1) rotate(33.000000) translate(-88.634980, -116.863774) "></path>
                        <ellipse id="Oval-Copy" fill="#4BE4B4" transform="translate(67.734764, 89.207927) rotate(-8.000000) translate(-67.734764, -89.207927) " cx="67.7347637" cy="89.2079271" rx="59.9815553" ry="59.9034199"></ellipse>
                        <ellipse id="Oval" fill="#FFFFFF" transform="translate(67.734764, 89.207927) rotate(-8.000000) translate(-67.734764, -89.207927) " cx="67.7347637" cy="89.2079271" rx="51.9840146" ry="51.9162972"></ellipse>
                        <path d="M66.6396427,85.1748674 C65.7449208,85.1748674 65.0197398,84.5342494 65.0195573,83.744002 L65.0158314,67.6052426 C65.015649,66.8149952 65.7405344,66.1748674 66.6352562,66.1748674 C67.5299781,66.1748674 68.2551591,66.8154853 68.2553416,67.6057327 L68.2590675,83.7444921 C68.2592499,84.5347395 67.5343645,85.1748674 66.6396427,85.1748674 Z" id="Path" fill="#090B0E" fill-rule="nonzero" transform="translate(66.637449, 75.674867) rotate(-8.000000) translate(-66.637449, -75.674867) "></path>
                        <path d="M62.9916412,85.6304631 C62.0969194,85.6304631 61.3717384,84.6863946 61.3715559,83.5218194 L61.36783,59.7383846 C61.3676476,58.5738095 62.0925329,57.6304631 62.9872548,57.6304631 C63.8819766,57.6304631 64.6071577,58.5745317 64.6073401,59.7391068 L64.611066,83.5225417 C64.6112485,84.6871168 63.8863631,85.6304631 62.9916412,85.6304631 Z" id="Path-Copy" fill="#090B0E" fill-rule="nonzero" transform="translate(62.989448, 71.630463) rotate(-22.000000) translate(-62.989448, -71.630463) "></path>
                        <path d="M68.180696,142.519989 C61.0187891,142.519989 54.0746711,141.12301 47.5326251,138.354146 C41.2167446,135.685663 35.5458546,131.871156 30.670732,127.002639 C25.8039858,122.142488 21.9759256,116.470918 19.3038224,110.163596 C16.5395776,103.630415 15.1323257,96.6957076 15.1323257,89.5435059 C15.1323257,82.3913042 16.5312011,75.4565963 19.3038224,68.9234156 C21.9759256,62.6160938 25.7956093,56.9528885 30.670732,52.0843722 C35.5374781,47.2242211 41.2167446,43.4013484 47.5326251,40.7328662 C54.0746711,37.9723672 61.0187891,36.5670224 68.180696,36.5670224 C75.342603,36.5670224 82.2867209,37.9640021 88.8287669,40.7328662 C95.1446474,43.4013484 100.815537,47.215856 105.69066,52.0843722 C110.557406,56.9445233 114.385466,62.6160938 117.05757,68.9234156 C119.821814,75.4565963 121.229066,82.3913042 121.229066,89.5435059 C121.229066,96.6957076 119.830191,103.630415 117.05757,110.163596 C114.385466,116.470918 110.565783,122.134123 105.69066,127.002639 C100.823914,131.862791 95.1446474,135.685663 88.8287669,138.354146 C82.2867209,141.12301 75.342603,142.519989 68.180696,142.519989 Z M68.180696,40.0971149 C40.8733082,40.0971149 18.6588319,62.2814879 18.6588319,89.551871 C18.6588319,116.822254 40.8733082,139.006627 68.180696,139.006627 C95.4880839,139.006627 117.70256,116.822254 117.70256,89.551871 C117.70256,62.2814879 95.4880839,40.0971149 68.180696,40.0971149 Z" id="Shape" fill="#CED2D9" fill-rule="nonzero" transform="translate(68.180696, 89.543506) rotate(-8.000000) translate(-68.180696, -89.543506) "></path>
                        <path d="M60.5797604,48.5713992 C59.532768,48.5712037 58.6841952,47.7796274 58.6840126,46.802984 L58.6825499,38.9814182 C58.6823673,38.0047749 59.5306441,37.2135155 60.5776364,37.213711 C61.6246287,37.2139065 62.4732015,38.0054829 62.4733841,38.9821262 L62.4748469,46.803692 C62.4750295,47.7803354 61.6267527,48.5715948 60.5797604,48.5713992 Z" id="Path" fill="#CED2D9" fill-rule="nonzero" transform="translate(60.578698, 42.892555) rotate(-8.000000) translate(-60.578698, -42.892555) "></path>
                        <path d="M33.4002849,65.052513 C32.9567889,65.052513 32.5214737,64.8800229 32.1846824,64.543514 L26.7878086,59.1593712 C26.1142259,58.4863535 26.1140218,57.3949557 26.7873528,56.7221896 C27.4606837,56.0494235 28.5529978,56.0496275 29.2265804,56.7226452 L34.6234557,62.114994 C35.2970383,62.7880117 35.2972424,63.8794095 34.6239115,64.5521756 C34.287246,64.8885587 33.8437808,65.052513 33.4002849,65.052513 Z" id="Path" fill="#CED2D9" fill-rule="nonzero" transform="translate(30.705632, 60.635131) rotate(-8.000000) translate(-30.705632, -60.635131) "></path>
                        <path d="M25.3182457,96.1607192 L17.4864777,96.1592565 C16.5085605,96.1590739 15.7159519,95.3116063 15.7157563,94.2659778 C15.7155608,93.2203494 16.5078525,92.3731778 17.4857697,92.3733604 L25.3175377,92.3748231 C26.2954549,92.3750058 27.0880635,93.2224734 27.0882591,94.2681018 C27.0884546,95.3137303 26.2961629,96.1609019 25.3182457,96.1607192 Z" id="Path" fill="#CED2D9" fill-rule="nonzero" transform="translate(21.402008, 94.267040) rotate(-8.000000) translate(-21.402008, -94.267040) "></path>
                        <path d="M36.4219816,130.603254 C35.9784857,130.603254 35.543172,130.439122 35.2063792,130.094727 C34.5327967,129.422334 34.5325928,128.331949 35.2059239,127.659808 L40.6007837,122.274478 C41.2741147,121.602336 42.3664288,121.60254 43.0400113,122.274934 C43.7135938,122.947327 43.7137977,124.037712 43.0404666,124.709853 L37.6456068,130.095183 C37.3089413,130.431254 36.8654775,130.603254 36.4219816,130.603254 Z" id="Path" fill="#CED2D9" fill-rule="nonzero" transform="translate(39.123195, 126.186880) rotate(-8.000000) translate(-39.123195, -126.186880) "></path>
                        <path d="M73.4179298,139.795933 C72.3709375,139.795738 71.5223646,139.004161 71.522182,138.027518 L71.5207193,130.205952 C71.5205367,129.229309 72.3688135,128.43805 73.4158058,128.438245 C74.4627981,128.438441 75.3113709,129.230017 75.3115535,130.20666 L75.3130163,138.028226 C75.3131989,139.004869 74.4649221,139.796129 73.4179298,139.795933 Z" id="Path" fill="#CED2D9" fill-rule="nonzero" transform="translate(73.416868, 134.117089) rotate(-8.000000) translate(-73.416868, -134.117089) "></path>
                        <path d="M107.235934,120.616268 C106.792438,120.616268 106.357125,120.452136 106.020332,120.107741 L100.623457,114.720396 C99.9498749,114.048003 99.949671,112.957618 100.623002,112.285476 C101.296333,111.613335 102.388647,111.613539 103.06223,112.285932 L108.459104,117.673277 C109.132687,118.34567 109.13289,119.436055 108.459559,120.108197 C108.114681,120.444266 107.67943,120.616268 107.235934,120.616268 Z" id="Path" fill="#CED2D9" fill-rule="nonzero" transform="translate(104.541281, 116.198886) rotate(-8.000000) translate(-104.541281, -116.198886) "></path>
                        <path d="M117.125923,83.2754764 L109.294155,83.2740137 C108.316238,83.273831 107.523629,82.4263634 107.523433,81.380735 C107.523238,80.3351066 108.31553,79.487935 109.293447,79.4881176 L117.125215,79.4895803 C118.103132,79.4897629 118.895741,80.3372305 118.895936,81.382859 C118.896132,82.4284874 118.10384,83.275659 117.125923,83.2754764 Z" id="Path" fill="#CED2D9" fill-rule="nonzero" transform="translate(113.209685, 81.381797) rotate(-8.000000) translate(-113.209685, -81.381797) "></path>
                        <path d="M92.7418188,55.9655862 C92.2983228,55.9655862 91.8630076,55.793256 91.5262164,55.4570594 C90.8526339,54.7846662 90.8524299,53.6942813 91.525761,53.0221397 L96.9206208,47.6368099 C97.5939519,46.9646683 98.6862659,46.9648723 99.3598484,47.6372655 C100.033431,48.3096587 100.033635,49.4000436 99.3603038,50.0721852 L93.965444,55.457515 C93.6205671,55.8017826 93.1853147,55.9655862 92.7418188,55.9655862 Z" id="Path" fill="#CED2D9" fill-rule="nonzero" transform="translate(95.443032, 51.549212) rotate(-8.000000) translate(-95.443032, -51.549212) "></path>
                        <path d="M68.180696,96.4183167 C64.3845377,96.4183167 61.2965564,93.33452 61.2965564,89.5435059 C61.2965564,85.7524917 64.3845377,82.668695 68.180696,82.668695 C71.9768544,82.668695 75.0648357,85.7524917 75.0648357,89.5435059 C75.0648357,93.33452 71.9768544,96.4183167 68.180696,96.4183167 Z M68.180696,86.1225474 C66.2949688,86.1225474 64.7550954,87.660334 64.7550954,89.5435059 C64.7550954,91.4266777 66.2949688,92.9644644 68.180696,92.9644644 C70.0664233,92.9644644 71.6062966,91.4266777 71.6062966,89.5435059 C71.6062966,87.660334 70.0664233,86.1225474 68.180696,86.1225474 Z" id="Shape" fill="#090B0E" fill-rule="nonzero" transform="translate(68.180696, 89.543506) rotate(-8.000000) translate(-68.180696, -89.543506) "></path>
                    </g>
                    <path d="M18,142.095054 C12.5470524,138.678357 8.68139894,134.111227 6.40303964,128.393665 C4.12468033,122.676103 3.48573792,117.243232 4.48621239,112.095054" id="Path-5-Copy-3" stroke="#090B0E" stroke-width="2" stroke-linecap="round"></path>
                    <path d="M139.975961,76.016251 C134.523014,72.599554 130.65736,68.0324244 128.379001,62.3148621 C126.100642,56.5972998 125.461699,51.1644294 126.462174,46.016251" id="Path-5-Copy-5" stroke="#090B0E" stroke-width="2" stroke-linecap="round" transform="translate(132.990110, 61.016251) rotate(-177.000000) translate(-132.990110, -61.016251) "></path>
                    <path d="M9.7703861,141.736434 C6.34528008,139.331715 3.79642276,136.159423 2.12381416,132.219559 C0.45120555,128.279695 -0.233456603,124.554781 0.069827696,121.044818" id="Path-5-Copy-4" stroke="#090B0E" stroke-width="2" stroke-linecap="round"></path>
                    <path d="M144.220673,67.3931391 C140.795567,64.9884195 138.24671,61.8161276 136.574101,57.8762636 C134.901492,53.9363995 134.21683,50.2114858 134.520115,46.7015224" id="Path-5-Copy-6" stroke="#090B0E" stroke-width="2" stroke-linecap="round" transform="translate(139.335480, 57.047331) rotate(-177.000000) translate(-139.335480, -57.047331) "></path>
                </g>
            </g>
        </g>
    </g>
</svg>