<?xml version="1.0" encoding="UTF-8"?>
<svg width="183px" height="182px" viewBox="0 0 183 182" version="1.1" xmlns="http://www.w3.org/2000/svg" xmlns:xlink="http://www.w3.org/1999/xlink">
    <title>Artboard</title>
    <defs>
        <linearGradient x1="92.1684167%" y1="34.4304057%" x2="10.5352471%" y2="63.7002466%" id="linearGradient-1">
            <stop stop-color="#C6DBFF" offset="0%"></stop>
            <stop stop-color="#C7DBFF" offset="84.1304759%"></stop>
            <stop stop-color="#D6E4FC" offset="100%"></stop>
        </linearGradient>
        <rect id="path-2" x="37.0857754" y="48.7753924" width="123" height="144" rx="4.48"></rect>
        <filter x="-3.5%" y="-1.6%" width="107.0%" height="106.0%" filterUnits="objectBoundingBox" id="filter-3">
            <feMorphology radius="0.32" operator="dilate" in="SourceAlpha" result="shadowSpreadOuter1"></feMorphology>
            <feOffset dx="0" dy="2" in="shadowSpreadOuter1" result="shadowOffsetOuter1"></feOffset>
            <feGaussianBlur stdDeviation="1" in="shadowOffsetOuter1" result="shadowBlurOuter1"></feGaussianBlur>
            <feComposite in="shadowBlurOuter1" in2="SourceAlpha" operator="out" result="shadowBlurOuter1"></feComposite>
            <feColorMatrix values="0 0 0 0 0.419893569   0 0 0 0 0.419893569   0 0 0 0 0.419893569  0 0 0 0.5 0" type="matrix" in="shadowBlurOuter1"></feColorMatrix>
        </filter>
        <polygon id="path-4" points="0 0.5 27 0.5 27 28.5 0 28.5"></polygon>
    </defs>
    <g id="Artboard" stroke="none" stroke-width="1" fill="none" fill-rule="evenodd">
        <g id="Group-20-Copy-6" transform="translate(-7.085775, -23.775392)">
            <path d="M136.168019,51.3980966 C106.994834,51.4860452 87.7365445,73.0780551 69.4434947,78.6990832 C42.0121289,87.1277598 15.6931465,78.2799927 4.37979249,109.085047 C2.48022197,114.257418 1.61254491,119.612597 1.60439356,124.935579 L1.60439356,125.079568 C1.62720423,141.718416 10.0304806,158.031128 21.528465,167.483935 C27.5246605,172.413875 35.5147241,174.395802 44.1132562,174.398097 L44.1621159,174.398097 C57.4062333,174.390219 72.0874487,169.692799 83.1645319,163.840516 C104.617023,152.505753 119.274327,157.168717 134.015749,161.233948 C159.98082,168.394388 193.656267,143.728967 191.506427,108.430367 C189.442004,74.5280973 173.577621,55.4848029 143.682588,51.8466768 C141.227523,51.5479507 138.83576,51.4046623 136.510819,51.3980966 L136.168019,51.3980966 Z" id="Fill-1-Copy-5" fill="url(#linearGradient-1)" transform="translate(96.604394, 112.898097) rotate(65.000000) translate(-96.604394, -112.898097) "></path>
            <g id="Group-10-Copy" transform="translate(45.463621, 53.847866) rotate(-15.000000) translate(-45.463621, -53.847866) translate(10.963621, 27.847866)" stroke="#090B0E" stroke-linecap="round" stroke-width="1.93446506">
                <line x1="24.6683107" y1="11.7881712" x2="18.7962727" y2="1.74735491" id="Path-18"></line>
                <line x1="36.3595943" y1="0.420041081" x2="36.5077352" y2="7.11391863" id="Path-20"></line>
                <line x1="50.0431882" y1="11.3796612" x2="55.0763635" y2="2.17557962" id="Path-21"></line>
                <line x1="13.4391711" y1="21.2567552" x2="9.2448583" y2="17.9098164" id="Path-23"></line>
                <line x1="10.3328908" y1="34.3495407" x2="0.266540092" y2="33.6384916" id="Path-24"></line>
                <line x1="62.9998583" y1="18.4108989" x2="68.0330337" y2="15.0639602" id="Path-22"></line>
                <line x1="10.3761985" y1="49.1277242" x2="6.18188572" y2="51.6379283" id="Path-25"></line>
            </g>
            <g id="Rectangle-Copy-3">
                <use fill="black" fill-opacity="1" filter="url(#filter-3)" xlink:href="#path-2"></use>
                <use stroke="#EBEEF2" stroke-width="0.64" fill="#FFFFFF" fill-rule="evenodd" xlink:href="#path-2"></use>
            </g>
            <g id="Group-6" transform="translate(139.085775, 112.775392)">
                <circle id="Oval" fill="#FFD8CB" cx="6" cy="6" r="6"></circle>
                <path d="M6,7 C7.103,7 8,6.103 8,5 C8,3.897 7.103,3 6,3 C4.897,3 4,3.897 4,5 C4,6.103 4.897,7 6,7" id="Fill-2538" fill="#FE8D66"></path>
                <path d="M6,7.5 C8.05547963,7.5 9.5,8.3919511 9.5,10.030802 L9.5,10.030802 L9.50091784,10.8732922 C8.8030569,11.3755127 7.9929445,11.7315343 7.11542665,11.8965111 C6.77082716,11.9486825 6.3851245,11.9855061 5.95778626,11.9979523 C5.93989876,11.9984732 5.92204988,11.9989404 5.90424038,11.9993544 C4.63436935,11.9792863 3.46067419,11.5651114 2.49974229,10.8737672 C2.50097831,10.5190526 2.51747896,10.030802 2.51747896,10.030802 C2.51747896,8.3919511 3.94452037,7.5 6,7.5 Z" id="Combined-Shape" fill="#FE8D66"></path>
            </g>
            <g id="Group-6-Copy-5" transform="translate(46.085775, 148.775392)">
                <circle id="Oval" fill="#B8E1FF" cx="6" cy="6" r="6"></circle>
                <path d="M6,7 C7.103,7 8,6.103 8,5 C8,3.897 7.103,3 6,3 C4.897,3 4,3.897 4,5 C4,6.103 4.897,7 6,7" id="Fill-2538" fill="#008EF9"></path>
                <path d="M6,7.5 C8.05547963,7.5 9.5,8.3919511 9.5,10.030802 L9.5,10.030802 L9.50091784,10.8732922 C8.8030569,11.3755127 7.9929445,11.7315343 7.11542665,11.8965111 C6.77082716,11.9486825 6.3851245,11.9855061 5.95778626,11.9979523 C5.93989876,11.9984732 5.92204988,11.9989404 5.90424038,11.9993544 C4.63436935,11.9792863 3.46067419,11.5651114 2.49974229,10.8737672 C2.50097831,10.5190526 2.51747896,10.030802 2.51747896,10.030802 C2.51747896,8.3919511 3.94452037,7.5 6,7.5 Z" id="Combined-Shape" fill="#008EF9"></path>
            </g>
            <path d="M47.0857754,88.7753924 L123.085775,88.7753924 C124.190345,88.7753924 125.085775,87.8799619 125.085775,86.7753924 C125.085775,85.6708229 124.190345,84.7753924 123.085775,84.7753924 L47.0857754,84.7753924 C45.9812059,84.7753924 45.0857754,85.6708229 45.0857754,86.7753924 C45.0857754,87.8799619 45.9812059,88.7753924 47.0857754,88.7753924 Z" id="Fill-138-Copy-8" fill="#EBEEF2"></path>
            <path d="M74.0857754,132.775392 L150.085775,132.775392 C151.190345,132.775392 152.085775,131.879962 152.085775,130.775392 C152.085775,129.670823 151.190345,128.775392 150.085775,128.775392 L74.0857754,128.775392 C72.9812059,128.775392 72.0857754,129.670823 72.0857754,130.775392 C72.0857754,131.879962 72.9812059,132.775392 74.0857754,132.775392 Z" id="Fill-138-Copy-10" fill="#EBEEF2"></path>
            <path d="M47.0857754,96.7753924 L123.085775,96.7753924 C124.190345,96.7753924 125.085775,95.8799619 125.085775,94.7753924 C125.085775,93.6708229 124.190345,92.7753924 123.085775,92.7753924 L47.0857754,92.7753924 C45.9812059,92.7753924 45.0857754,93.6708229 45.0857754,94.7753924 C45.0857754,95.8799619 45.9812059,96.7753924 47.0857754,96.7753924 Z" id="Fill-138-Copy-11" fill="#EBEEF2"></path>
            <path d="M47.0857754,104.775392 L106.085775,104.775392 C107.190345,104.775392 108.085775,103.879962 108.085775,102.775392 C108.085775,101.670823 107.190345,100.775392 106.085775,100.775392 L47.0857754,100.775392 C45.9812059,100.775392 45.0857754,101.670823 45.0857754,102.775392 C45.0857754,103.879962 45.9812059,104.775392 47.0857754,104.775392 Z" id="Fill-138-Copy-12" fill="#EBEEF2"></path>
            <path d="M47.0857754,168.775392 L106.085775,168.775392 C107.190345,168.775392 108.085775,167.879962 108.085775,166.775392 C108.085775,165.670823 107.190345,164.775392 106.085775,164.775392 L47.0857754,164.775392 C45.9812059,164.775392 45.0857754,165.670823 45.0857754,166.775392 C45.0857754,167.879962 45.9812059,168.775392 47.0857754,168.775392 Z" id="Fill-138-Copy-14" fill="#EBEEF2"></path>
            <path d="M47.0857754,176.775392 L98.0857754,176.775392 C99.1903449,176.775392 100.085775,175.879962 100.085775,174.775392 C100.085775,173.670823 99.1903449,172.775392 98.0857754,172.775392 L47.0857754,172.775392 C45.9812059,172.775392 45.0857754,173.670823 45.0857754,174.775392 C45.0857754,175.879962 45.9812059,176.775392 47.0857754,176.775392 Z" id="Fill-138-Copy-31" fill="#EBEEF2"></path>
            <path d="M91.0857754,140.775392 L150.085775,140.775392 C151.190345,140.775392 152.085775,139.879962 152.085775,138.775392 C152.085775,137.670823 151.190345,136.775392 150.085775,136.775392 L91.0857754,136.775392 C89.9812059,136.775392 89.0857754,137.670823 89.0857754,138.775392 C89.0857754,139.879962 89.9812059,140.775392 91.0857754,140.775392 Z" id="Fill-138-Copy-13" fill="#EBEEF2"></path>
            <g id="Group-6-Copy-4" transform="translate(45.085775, 56.775392)">
                <circle id="Oval" fill="#B8E1FF" cx="10" cy="10" r="10"></circle>
                <path d="M10,11.6666667 C11.8383333,11.6666667 13.3333333,10.1716667 13.3333333,8.33333333 C13.3333333,6.495 11.8383333,5 10,5 C8.16166667,5 6.66666667,6.495 6.66666667,8.33333333 C6.66666667,10.1716667 8.16166667,11.6666667 10,11.6666667" id="Fill-2538" fill="#008EF9"></path>
                <path d="M10,12.5 C13.4257994,12.5 15.8333333,13.9865852 15.8333333,16.7180033 L15.8333333,16.7180033 L15.8332412,18.1233207 C14.6678715,18.9616347 13.3147768,19.555371 11.8491047,19.8293819 C11.2764572,19.915257 10.6373029,19.9759767 9.92964376,19.9965871 C9.90011049,19.9974472 9.87064038,19.9982194 9.84123466,19.9989046 C7.72541629,19.9659557 5.76855811,19.2756594 4.16650074,18.123135 C4.16838514,17.5291517 4.19579826,16.7180033 4.19579826,16.7180033 C4.19579826,13.9865852 6.57420061,12.5 10,12.5 Z" id="Combined-Shape" fill="#008EF9"></path>
            </g>
            <g id="Group-17" transform="translate(127.085775, 155.775392)">
                <path d="M23.187804,6.89008842 L32.1511586,6.97823172 C40.5454809,7.0607793 47.2835057,13.9326401 47.2009581,22.3269624 C47.198599,22.5668581 47.1905607,22.8066643 47.17685,23.0461795 L46.5860538,33.3668931 C46.1213776,41.4843955 39.3508507,47.7987627 31.2206959,47.6970203 L22.0789429,47.5826186 C13.6848719,47.4775736 6.9652888,40.5876787 7.07033387,32.1936078 C7.07426926,31.8791335 7.08796376,31.564857 7.11139758,31.2512324 L7.88059215,20.9567772 C8.4776474,12.9661351 15.1752746,6.81129529 23.187804,6.89008842 Z" id="Rectangle-Copy-4" fill="#242C38" transform="translate(26.996959, 27.314455) rotate(-20.000000) translate(-26.996959, -27.314455) "></path>
                <g id="Group-3" transform="translate(27.500000, 27.000000) rotate(9.000000) translate(-27.500000, -27.000000) translate(14.000000, 12.500000)">
                    <mask id="mask-5" fill="white">
                        <use xlink:href="#path-4"></use>
                    </mask>
                    <g id="Clip-2"></g>
                    <path d="M12.8631291,19.4607864 C12.8491085,19.4607864 12.8349322,19.4607864 12.8208338,19.4604057 C11.5483924,19.4396201 10.6581663,18.8343258 10.246352,17.7102296 C9.46244835,15.570305 10.5555827,12.1201275 12.5398,10.4715952 C13.1176797,9.99154736 13.9250288,9.53791927 14.9129313,9.53791927 C15.4608226,9.53791927 16.0643288,9.67755571 16.7147258,10.02954 C16.9276821,10.1448886 17.5086775,10.8695667 16.0454789,15.3555968 L16.0447,15.3581855 C16.0013921,15.4908173 15.9574611,15.62954 15.912206,15.7725265 C15.3914989,17.4170997 14.744607,19.4607864 12.8631291,19.4607864 M25.5912822,6.14598714 C23.0555906,2.55000612 19.2669305,0.5 15.1719217,0.5 C15.1095303,0.5 15.0467495,0.500532964 14.9842023,0.501370478 C10.6691491,0.566696578 6.66909046,2.1642928 4.00978445,4.88484317 C2.34655956,6.58629114 -0.109838153,11.4489742 0.00380607105,14.2281505 C0.190045509,18.796257 0.866769992,22.0052304 3.77462892,24.8889437 C5.2878341,26.3909872 7.49692515,27.3423271 9.08373813,27.8757474 C10.3273596,28.293667 11.6681122,28.5 13.1538994,28.5 C13.5682062,28.5 13.9939631,28.483935 14.4317154,28.4519571 C15.4535008,28.3781798 19.7009439,27.7061128 21.031259,26.5146347 C21.5015701,26.0935936 21.993613,25.3217101 21.9622225,24.621396 C21.9425159,24.1937309 21.7456832,23.9989708 21.5839797,23.9110318 C21.0495636,23.6201099 20.1833282,24.0933053 19.6100441,24.4063072 C19.5113552,24.4602888 19.4260636,24.5068089 19.3631269,24.5377969 C17.7884651,25.3114315 15.3027022,26.1737665 13.4780074,26.0580373 C11.840409,25.9547185 9.99616338,25.5419763 7.99644565,24.8312314 C5.82497636,24.058815 4.09203825,21.841839 3.36086736,18.9010986 C2.68406499,16.1773504 2.99983859,12.9651793 4.22733642,10.0879376 C5.27739659,7.62465636 7.79353735,5.40585308 11.1305025,4.00050441 C14.1077631,2.74636511 16.6653424,2.63436663 19.1792243,3.64867235 C22.7348319,5.08379084 23.7621476,8.05445337 23.8086491,9.58344958 C23.8158151,9.82168427 23.8253179,10.0721771 23.8352102,10.3321872 C23.9295373,12.8151881 24.0587599,16.2157238 22.4234202,18.0798779 C21.9203946,18.6536512 21.4197836,18.8723947 20.9356078,18.7295604 C20.1274798,18.4914019 19.4967894,17.3105831 19.3759012,16.3532284 C19.2655284,15.4790921 19.2868708,14.4765115 19.3075122,13.5070509 C19.3207538,12.8865291 19.3343848,12.2449933 19.3115625,11.6601039 C19.2816521,10.8854795 19.3284651,10.0732431 19.3736423,9.28773096 C19.4023844,8.78895324 19.4320612,8.27327297 19.4419535,7.77114519 L19.4449913,7.61856535 L19.311952,7.53884923 C17.6855699,6.56405895 12.9977262,6.99164797 10.4320462,8.76451306 C8.65517711,9.99185191 7.55028107,12.0636334 7.14789172,14.9225259 C7.00207816,15.9615763 7.00815372,17.0019211 7.16541739,17.9309527 C7.35251364,19.0366997 7.74181716,19.9469253 8.32257887,20.6364278 C9.07150911,21.5257155 10.1095739,22.013301 11.4080312,22.085784 C12.6999456,22.1579625 15.0379477,22.0238841 16.1799982,20.316269 C16.4872816,19.8573113 16.9143626,19.4494419 17.2914371,19.1110862 C17.4233081,18.9928444 17.549415,19.0161425 17.6127411,19.0405066 C17.7051987,19.0760629 17.8086391,19.1722247 17.8218028,19.3353877 C17.9211149,20.5640209 19.3300229,21.1796699 21.7890689,21.0685089 C22.641829,21.0292219 23.4353134,20.7778915 24.2148551,20.3002039 L24.2558263,20.2750785 L24.2854252,20.2377711 C25.1268909,19.1777066 25.8149097,17.9831831 26.2751727,16.7831015 C27.3618421,13.9458321 27.2990612,8.56838248 25.5912822,6.14598714" id="Fill-1" fill="#FFFFFF" mask="url(#mask-5)"></path>
                </g>
            </g>
        </g>
    </g>
</svg>