<svg width="646px" height="386px" viewBox="0 0 646 386" version="1.1" xmlns="http://www.w3.org/2000/svg" xmlns:xlink="http://www.w3.org/1999/xlink">
    <defs>
        <path d="M5.1375,1 L3.475,1 C3.411825,1 3.3515,1.02625 3.3070875,1.07325 L3,1.3965 L2.6929125,1.07325 C2.6485,1.0265 2.588175,1 2.525,1 L0.8625,1 C0.7311625,1 0.625,1.11225 0.625,1.25 L0.625,4.5 C0.625,4.638 0.7311625,4.75 0.8625,4.75 L2.426675,4.75 L2.8320875,5.17675 C2.8784,5.22575 2.9392,5.25 3,5.25 C3.0608,5.25 3.1216,5.2255 3.1679125,5.17675 L3.573325,4.75 L5.1375,4.75 C5.2688375,4.75 5.375,4.638 5.375,4.5 L5.375,1.25 C5.375,1.11225 5.2688375,1 5.1375,1 Z M2.525,4.25 L1.1,4.25 L1.1,1.5 L2.426675,1.5 L2.7625,1.85375 L2.7625,4.39675 L2.6929125,4.3235 C2.6485,4.2765 2.588175,4.25 2.525,4.25 Z M4.9,4.25 L3.475,4.25 C3.411825,4.25 3.3515,4.27625 3.3070875,4.32325 L3.2375,4.3965 L3.2375,1.85375 L3.573325,1.5 L4.9,1.5 L4.9,4.25 Z" id="path-1"></path>
        <path d="M9.71148892,7.15803709 C7.49592993,7.15803709 5.69294178,8.93285355 5.69294178,11.1137944 C5.69294178,15.5481984 11.9123132,20.6168422 15.0695518,22.7252608 C18.2267903,20.6168422 24.4461618,15.5481984 24.4461618,11.1137944 C24.4461618,8.93285355 22.6431736,7.15803709 20.4276146,7.15803709 C18.1651726,7.15803709 16.4090675,9.28491596 16.4090675,11.1137944 C16.4090675,11.8416538 15.8089645,12.4323802 15.0695518,12.4323802 C14.3301391,12.4323802 13.7300361,11.8416538 13.7300361,11.1137944 C13.7300361,9.28491596 11.973931,7.15803709 9.71148892,7.15803709 M15.0695518,25.618238 C14.8230809,25.618238 14.57661,25.5509901 14.3596084,25.417813 C13.896136,25.1329985 3.01391036,18.354149 3.01391036,11.1137944 C3.01391036,7.47845344 6.0184441,4.52086553 9.71148892,4.52086553 C11.846677,4.52086553 13.8251417,5.62452183 15.0695518,7.26352396 C16.3139619,5.62452183 18.2924266,4.52086553 20.4276146,4.52086553 C24.1206595,4.52086553 27.1251932,7.47845344 27.1251932,11.1137944 C27.1251932,18.354149 16.2429675,25.1329985 15.7794951,25.417813 C15.5624936,25.5509901 15.3160227,25.618238 15.0695518,25.618238" id="path-3"></path>
        <rect id="path-5" x="64.541305" y="217.400162" width="83.5857755" height="53.8485285"></rect>
        <filter x="-8.7%" y="-9.7%" width="117.3%" height="126.9%" filterUnits="objectBoundingBox" id="filter-6">
            <feMorphology radius="0.25" operator="dilate" in="SourceAlpha" result="shadowSpreadOuter1"></feMorphology>
            <feOffset dx="0" dy="2" in="shadowSpreadOuter1" result="shadowOffsetOuter1"></feOffset>
            <feGaussianBlur stdDeviation="2" in="shadowOffsetOuter1" result="shadowBlurOuter1"></feGaussianBlur>
            <feComposite in="shadowBlurOuter1" in2="SourceAlpha" operator="out" result="shadowBlurOuter1"></feComposite>
            <feColorMatrix values="0 0 0 0 0   0 0 0 0 0   0 0 0 0 0  0 0 0 0.5 0" type="matrix" in="shadowBlurOuter1"></feColorMatrix>
        </filter>
        <rect id="path-7" x="41.4346589" y="190.274969" width="83.5857755" height="53.8485285"></rect>
        <filter x="-8.7%" y="-9.7%" width="117.3%" height="126.9%" filterUnits="objectBoundingBox" id="filter-8">
            <feMorphology radius="0.25" operator="dilate" in="SourceAlpha" result="shadowSpreadOuter1"></feMorphology>
            <feOffset dx="0" dy="2" in="shadowSpreadOuter1" result="shadowOffsetOuter1"></feOffset>
            <feGaussianBlur stdDeviation="2" in="shadowOffsetOuter1" result="shadowBlurOuter1"></feGaussianBlur>
            <feComposite in="shadowBlurOuter1" in2="SourceAlpha" operator="out" result="shadowBlurOuter1"></feComposite>
            <feColorMatrix values="0 0 0 0 0   0 0 0 0 0   0 0 0 0 0  0 0 0 0.5 0" type="matrix" in="shadowBlurOuter1"></feColorMatrix>
        </filter>
        <path d="M25.8066074,5.02318393 L17.4555641,5.02318393 C17.1382245,5.02318393 16.8352009,5.1550425 16.6121088,5.39113215 L15.0695518,7.01487635 L13.5269948,5.39113215 C13.3039026,5.1562983 13.0008791,5.02318393 12.6835394,5.02318393 L4.33249614,5.02318393 C3.67276372,5.02318393 3.13948995,5.58703632 3.13948995,6.27897991 L3.13948995,22.6043277 C3.13948995,23.297527 3.67276372,23.8601236 4.33249614,23.8601236 L12.1896349,23.8601236 L14.2260964,26.0037674 C14.4587326,26.2499034 14.7641422,26.3717156 15.0695518,26.3717156 C15.3749614,26.3717156 15.6803709,26.2486476 15.9130071,26.0037674 L17.9494687,23.8601236 L25.8066074,23.8601236 C26.4663398,23.8601236 26.9996136,23.297527 26.9996136,22.6043277 L26.9996136,6.27897991 C26.9996136,5.58703632 26.4663398,5.02318393 25.8066074,5.02318393 Z M12.6835394,21.3485317 L5.52550232,21.3485317 L5.52550232,7.53477589 L12.1896349,7.53477589 L13.8765456,9.3117272 L13.8765456,22.0856839 L13.5269948,21.7177357 C13.3039026,21.4816461 13.0008791,21.3485317 12.6835394,21.3485317 Z M24.6136012,21.3485317 L17.4555641,21.3485317 C17.1382245,21.3485317 16.8352009,21.4803903 16.6121088,21.7164799 L16.262558,22.0844281 L16.262558,9.3117272 L17.9494687,7.53477589 L24.6136012,7.53477589 L24.6136012,21.3485317 Z" id="path-9"></path>
        <path d="M15.0695518,3.76738794 C19.2249807,3.76738794 22.6043277,7.14673493 22.6043277,11.3021638 L22.6043277,14.8661128 C22.6043277,16.699575 23.7734737,18.3208076 25.5127512,18.9022411 L26.3717156,19.1873068 L26.3717156,22.6043277 L3.76738794,22.6043277 L3.76738794,19.1873068 L4.6263524,18.9022411 C6.36562983,18.3208076 7.53477589,16.699575 7.53477589,14.8661128 L7.53477589,11.3021638 C7.53477589,7.14673493 10.9141229,3.76738794 15.0695518,3.76738794 Z M15.0695518,6.27897991 C12.2992658,6.27897991 10.0463679,8.5318779 10.0463679,11.3021638 L10.0463679,14.8661128 C10.0463679,16.9356646 9.11079985,18.8344281 7.57872875,20.0927357 L22.5616306,20.0927357 C21.0283037,18.8344281 20.0927357,16.9356646 20.0927357,14.8661128 L20.0927357,11.3021638 C20.0927357,8.5318779 17.8398377,6.27897991 15.0695518,6.27897991 Z M10.7433346,23.8601236 C11.6136012,25.3545209 13.2159969,26.3717156 15.0695518,26.3717156 C16.9231066,26.3717156 18.5255023,25.3545209 19.3957689,23.8601236 L10.7433346,23.8601236 Z" id="path-11"></path>
        <polygon id="path-13" points="0.161269334 0.014531391 17.9912995 0.014531391 17.9912995 8.07204221 0.161269334 8.07204221"></polygon>
        <linearGradient x1="94.5401727%" y1="36.5765591%" x2="7.37629497%" y2="67.8233278%a" id="linearGradient-15">
            <stop stop-color="#82F0D3" offset="0%"></stop>
            <stop stop-color="#B234DF" offset="100%"></stop>
        </linearGradient>
        <path d="M1.25,2.75 C1.25,1.92275 1.92275,1.25 2.75,1.25 C3.57725,1.25 4.25,1.92275 4.25,2.75 C4.25,3.57725 3.57725,4.25 2.75,4.25 C1.92275,4.25 1.25,3.57725 1.25,2.75 M5.17675,4.82325 L4.328,3.97425 C4.59125,3.63575 4.75,3.2115 4.75,2.75 C4.75,1.64725 3.85275,0.75 2.75,0.75 C1.64725,0.75 0.75,1.64725 0.75,2.75 C0.75,3.85275 1.64725,4.75 2.75,4.75 C3.2115,4.75 3.63575,4.59125 3.97425,4.328 L4.82325,5.17675 C4.872,5.2255 4.936,5.25 5,5.25 C5.064,5.25 5.128,5.2255 5.17675,5.17675 C5.2745,5.079 5.2745,4.921 5.17675,4.82325" id="path-16"></path>
        <path d="M5.1375,1 L3.475,1 C3.411825,1 3.3515,1.02625 3.3070875,1.07325 L3,1.3965 L2.6929125,1.07325 C2.6485,1.0265 2.588175,1 2.525,1 L0.8625,1 C0.7311625,1 0.625,1.11225 0.625,1.25 L0.625,4.5 C0.625,4.638 0.7311625,4.75 0.8625,4.75 L2.426675,4.75 L2.8320875,5.17675 C2.8784,5.22575 2.9392,5.25 3,5.25 C3.0608,5.25 3.1216,5.2255 3.1679125,5.17675 L3.573325,4.75 L5.1375,4.75 C5.2688375,4.75 5.375,4.638 5.375,4.5 L5.375,1.25 C5.375,1.11225 5.2688375,1 5.1375,1 Z M2.525,4.25 L1.1,4.25 L1.1,1.5 L2.426675,1.5 L2.7625,1.85375 L2.7625,4.39675 L2.6929125,4.3235 C2.6485,4.2765 2.588175,4.25 2.525,4.25 Z M4.9,4.25 L3.475,4.25 C3.411825,4.25 3.3515,4.27625 3.3070875,4.32325 L3.2375,4.3965 L3.2375,1.85375 L3.573325,1.5 L4.9,1.5 L4.9,4.25 Z" id="path-18"></path>
        <path d="M5.1375,1 L3.475,1 C3.411825,1 3.3515,1.02625 3.3070875,1.07325 L3,1.3965 L2.6929125,1.07325 C2.6485,1.0265 2.588175,1 2.525,1 L0.8625,1 C0.7311625,1 0.625,1.11225 0.625,1.25 L0.625,4.5 C0.625,4.638 0.7311625,4.75 0.8625,4.75 L2.426675,4.75 L2.8320875,5.17675 C2.8784,5.22575 2.9392,5.25 3,5.25 C3.0608,5.25 3.1216,5.2255 3.1679125,5.17675 L3.573325,4.75 L5.1375,4.75 C5.2688375,4.75 5.375,4.638 5.375,4.5 L5.375,1.25 C5.375,1.11225 5.2688375,1 5.1375,1 Z M2.525,4.25 L1.1,4.25 L1.1,1.5 L2.426675,1.5 L2.7625,1.85375 L2.7625,4.39675 L2.6929125,4.3235 C2.6485,4.2765 2.588175,4.25 2.525,4.25 Z M4.9,4.25 L3.475,4.25 C3.411825,4.25 3.3515,4.27625 3.3070875,4.32325 L3.2375,4.3965 L3.2375,1.85375 L3.573325,1.5 L4.9,1.5 L4.9,4.25 Z" id="path-20"></path>
        <path d="M5.1375,1 L3.475,1 C3.411825,1 3.3515,1.02625 3.3070875,1.07325 L3,1.3965 L2.6929125,1.07325 C2.6485,1.0265 2.588175,1 2.525,1 L0.8625,1 C0.7311625,1 0.625,1.11225 0.625,1.25 L0.625,4.5 C0.625,4.638 0.7311625,4.75 0.8625,4.75 L2.426675,4.75 L2.8320875,5.17675 C2.8784,5.22575 2.9392,5.25 3,5.25 C3.0608,5.25 3.1216,5.2255 3.1679125,5.17675 L3.573325,4.75 L5.1375,4.75 C5.2688375,4.75 5.375,4.638 5.375,4.5 L5.375,1.25 C5.375,1.11225 5.2688375,1 5.1375,1 Z M2.525,4.25 L1.1,4.25 L1.1,1.5 L2.426675,1.5 L2.7625,1.85375 L2.7625,4.39675 L2.6929125,4.3235 C2.6485,4.2765 2.588175,4.25 2.525,4.25 Z M4.9,4.25 L3.475,4.25 C3.411825,4.25 3.3515,4.27625 3.3070875,4.32325 L3.2375,4.3965 L3.2375,1.85375 L3.573325,1.5 L4.9,1.5 L4.9,4.25 Z" id="path-22"></path>
    </defs>
    <g stroke="none" stroke-width="1" fill="none" fill-rule="evenodd">
        <g transform="translate(-394.000000, -218.000000)">
            <g transform="translate(395.000000, 200.037094)">
                <path d="M475.3125,32.0594403 C389.083168,32.3133956 332.168458,97.564916 278.100523,114.546449 C197.022883,140.010091 119.226429,113.258203 85.798771,206.358237 C80.1860947,221.990343 77.6235348,238.17538 77.6015832,254.263452 L77.6015832,254.698639 C77.6755254,304.987571 102.52011,354.294158 136.509267,382.868753 C154.234603,397.771315 177.852208,403.764662 203.267534,403.775051 L203.411953,403.775051 C242.558579,403.756581 285.951107,389.565094 318.690178,371.881721 C382.094473,337.632378 425.41999,351.731518 468.993907,364.024111 C545.743616,385.676114 645.270994,311.141371 638.902721,204.454726 C632.787468,101.988357 585.888463,44.4259118 497.524049,33.4181014 C490.267313,32.5142512 483.197744,32.0802184 476.32574,32.0594403 L475.3125,32.0594403 Z" fill="#F2F7FF"></path>
                <rect fill="#E9EBF0" x="510.600038" y="169.458455" width="95.4404946" height="128.593509"></rect>
                <rect fill="#FFFFFF" x="513.493391" y="190.387048" width="88.7912405" height="21.3876711" rx="1.29023992"></rect>
                <g transform="translate(517.654351, 201.354087)">
                    <g transform="translate(1.290240, 1.290240)">
                        <rect stroke="#29CC96" stroke-width="0.5" fill="#F2FFFB" x="0" y="0" width="3.87071977" height="3.87071977" rx="1.93535988"></rect>
                        <path d="M2.77580059,1.10240502 C2.3629252,1.54103416 1.98689944,1.97380085 1.585621,2.40586795 L1.07797808,1.97553656 C1.04339522,1.94613315 0.999188192,1.93264201 0.955143195,1.93783098 C0.911098198,1.94301995 0.870807487,1.96654276 0.843074215,2.00321223 C0.785327536,2.07966305 0.797070641,2.19122208 0.869174644,2.25227735 L1.49558495,2.78361628 C1.562306,2.84017288 1.65871055,2.83429273 1.71874572,2.76977932 C2.1676731,2.29276981 2.57124839,1.82244631 3.01332702,1.35287553 C3.06324357,1.30185371 3.0780895,1.22349893 3.0508465,1.15587277 C3.02360433,1.08824661 2.95982073,1.04552253 2.89065667,1.04846261 C2.84724895,1.04982239 2.80598103,1.06919413 2.77580059,1.10240502 Z" fill="#29CC96"></path>
                    </g>
                </g>
                <g transform="translate(518.000000, 193.962906)">
                    <mask fill="white">
                        <use xlink:href="#path-1"></use>
                    </mask>
                    <use fill="#6B7C99" fill-rule="evenodd" xlink:href="#path-1"></use>
                </g>
                <rect fill="#F2F3F5" x="526.272371" y="203.648252" width="69.9227161" height="3.61669221"></rect>
                <rect fill="#F2F3F5" x="526.272371" y="195.209304" width="69.9227161" height="3.61669221"></rect>
                <rect fill="#FFFFFF" x="513.493391" y="241.189523" width="88.7912405" height="21.3876711" rx="1.29023992"></rect>
                <g transform="translate(517.654351, 252.156562)">
                    <g transform="translate(1.290240, 1.290240)">
                        <rect stroke="#29CC96" stroke-width="0.5" fill="#F2FFFB" x="0" y="0" width="3.87071977" height="3.87071977" rx="1.93535988"></rect>
                        <path d="M2.77580059,1.10240502 C2.3629252,1.54103416 1.98689944,1.97380085 1.585621,2.40586795 L1.07797808,1.97553656 C1.04339522,1.94613315 0.999188192,1.93264201 0.955143195,1.93783098 C0.911098198,1.94301995 0.870807487,1.96654276 0.843074215,2.00321223 C0.785327536,2.07966305 0.797070641,2.19122208 0.869174644,2.25227735 L1.49558495,2.78361628 C1.562306,2.84017288 1.65871055,2.83429273 1.71874572,2.76977932 C2.1676731,2.29276981 2.57124839,1.82244631 3.01332702,1.35287553 C3.06324357,1.30185371 3.0780895,1.22349893 3.0508465,1.15587277 C3.02360433,1.08824661 2.95982073,1.04552253 2.89065667,1.04846261 C2.84724895,1.04982239 2.80598103,1.06919413 2.77580059,1.10240502 Z" fill="#29CC96"></path>
                    </g>
                </g>
                <rect fill="#F2F3F5" x="526.272371" y="254.450728" width="69.9227161" height="3.61669221"></rect>
                <rect fill="#F2F3F5" x="526.272371" y="246.011779" width="69.9227161" height="3.61669221"></rect>
                <rect fill="#FFFFFF" x="513.493391" y="215.703893" width="88.7912405" height="21.3876711" rx="1.29023992"></rect>
                <g transform="translate(517.654351, 226.670932)">
                    <g transform="translate(1.290240, 1.290240)">
                        <rect stroke="#29CC96" stroke-width="0.5" fill="#F2FFFB" x="0" y="0" width="3.87071977" height="3.87071977" rx="1.93535988"></rect>
                        <path d="M2.77580059,1.10240502 C2.3629252,1.54103416 1.98689944,1.97380085 1.585621,2.40586795 L1.07797808,1.97553656 C1.04339522,1.94613315 0.999188192,1.93264201 0.955143195,1.93783098 C0.911098198,1.94301995 0.870807487,1.96654276 0.843074215,2.00321223 C0.785327536,2.07966305 0.797070641,2.19122208 0.869174644,2.25227735 L1.49558495,2.78361628 C1.562306,2.84017288 1.65871055,2.83429273 1.71874572,2.76977932 C2.1676731,2.29276981 2.57124839,1.82244631 3.01332702,1.35287553 C3.06324357,1.30185371 3.0780895,1.22349893 3.0508465,1.15587277 C3.02360433,1.08824661 2.95982073,1.04552253 2.89065667,1.04846261 C2.84724895,1.04982239 2.80598103,1.06919413 2.77580059,1.10240502 Z" fill="#29CC96"></path>
                    </g>
                </g>
                <rect fill="#F2F3F5" x="526.272371" y="228.965098" width="69.9227161" height="3.61669221"></rect>
                <rect fill="#F2F3F5" x="526.272371" y="220.526149" width="69.9227161" height="3.61669221"></rect>
                <rect fill="#FFFFFF" x="513.493391" y="266.506369" width="88.7912405" height="21.3876711" rx="1.29023992"></rect>
                <g transform="translate(517.654351, 277.473408)">
                    <g transform="translate(1.290240, 1.290240)">
                        <rect stroke="#29CC96" stroke-width="0.5" fill="#F2FFFB" x="0" y="0" width="3.87071977" height="3.87071977" rx="1.93535988"></rect>
                        <path d="M2.77580059,1.10240502 C2.3629252,1.54103416 1.98689944,1.97380085 1.585621,2.40586795 L1.07797808,1.97553656 C1.04339522,1.94613315 0.999188192,1.93264201 0.955143195,1.93783098 C0.911098198,1.94301995 0.870807487,1.96654276 0.843074215,2.00321223 C0.785327536,2.07966305 0.797070641,2.19122208 0.869174644,2.25227735 L1.49558495,2.78361628 C1.562306,2.84017288 1.65871055,2.83429273 1.71874572,2.76977932 C2.1676731,2.29276981 2.57124839,1.82244631 3.01332702,1.35287553 C3.06324357,1.30185371 3.0780895,1.22349893 3.0508465,1.15587277 C3.02360433,1.08824661 2.95982073,1.04552253 2.89065667,1.04846261 C2.84724895,1.04982239 2.80598103,1.06919413 2.77580059,1.10240502 Z" fill="#29CC96"></path>
                    </g>
                </g>
                <rect fill="#F2F3F5" x="526.272371" y="279.767573" width="69.9227161" height="3.61669221"></rect>
                <rect fill="#F2F3F5" x="526.272371" y="271.328625" width="69.9227161" height="3.61669221"></rect>
                <rect fill="#FFFFFF" x="513.493391" y="175.823834" width="89.1166686" height="10.534204" rx="0.645119962"></rect>
                <polygon points="516.328878 178.254251 522.001498 178.254251 522.001498 183.523671 516.328878 183.523671"></polygon>
                <rect fill="#1F3966" x="510.600038" y="149.767576" width="95.4404946" height="20.0927357"></rect>
                <g transform="translate(522.655679, 122.585566) rotate(17.000000) translate(-522.655679, -122.585566) translate(507.586127, 107.516015)">
                    <mask fill="white">
                        <use xlink:href="#path-3"></use>
                    </mask>
                    <use fill="#1F3966" fill-rule="evenodd" xlink:href="#path-3"></use>
                </g>
                <g>
                    <use fill="black" fill-opacity="1" filter="url(#filter-6)" xlink:href="#path-5"></use>
                    <use stroke="#E9EBF0" stroke-width="0.5" fill="#FFFFFF" fill-rule="evenodd" xlink:href="#path-5"></use>
                </g>
                <g transform="translate(67.766905, 222.007391)">
                    <g>
                        <g fill="#F2FFFB" stroke="#29CC96" stroke-width="0.5">
                            <rect x="0.25" y="0.25" width="5.95119923" height="5.95119923" rx="1.03219186"></rect>
                        </g>
                        <path d="M4.62633403,1.8373416 C3.93820843,2.56839011 3.31149887,3.28966789 2.6427015,4.00977968 L1.79663003,3.29256074 C1.73899193,3.24355506 1.66531355,3.22106983 1.59190523,3.22971811 C1.51849691,3.23836639 1.45134573,3.27757108 1.40512361,3.33868686 C1.30887915,3.46610488 1.32845099,3.65203659 1.44862432,3.75379537 L2.49264144,4.63936018 C2.60384319,4.73362118 2.76451742,4.72382093 2.86457602,4.6162986 C3.61278829,3.82128278 4.28541372,3.03741033 5.02221141,2.25479242 C5.10540565,2.16975606 5.13014886,2.03916477 5.08474386,1.92645451 C5.03934025,1.81374424 4.93303425,1.74253745 4.81776084,1.74743758 C4.74541463,1.74970389 4.67663478,1.7819901 4.62633403,1.8373416 Z" fill="#29CC96"></path>
                    </g>
                </g>
                <rect fill="#F2F3F5" x="69.363561" y="238.451211" width="74.7449724" height="2.8933536"></rect>
                <rect fill="#F2F3F5" x="78.2043642" y="224.119468" width="65.9041692" height="3.21483752"></rect>
                <rect fill="#F2F3F5" x="69.363561" y="245.20237" width="74.7449724" height="2.8933536"></rect>
                <line x1="64.541305" y1="232.69007" x2="148.528935" y2="232.258072" stroke="#DADEE6" stroke-width="0.5"></line>
                <rect fill="#29CC96" x="64.541305" y="217.233285" width="83.5857755" height="1"></rect>
                <g>
                    <use fill="black" fill-opacity="1" filter="url(#filter-8)" xlink:href="#path-7"></use>
                    <use stroke="#E9EBF0" stroke-width="0.5" fill="#FFFFFF" fill-rule="evenodd" xlink:href="#path-7"></use>
                </g>
                <g transform="translate(44.660259, 194.882198)">
                    <g>
                        <g fill="#F2FFFB" stroke="#29CC96" stroke-width="0.5">
                            <rect x="0.25" y="0.25" width="5.95119923" height="5.95119923" rx="1.03219186"></rect>
                        </g>
                        <path d="M4.62633403,1.8373416 C3.93820843,2.56839011 3.31149887,3.28966789 2.6427015,4.00977968 L1.79663003,3.29256074 C1.73899193,3.24355506 1.66531355,3.22106983 1.59190523,3.22971811 C1.51849691,3.23836639 1.45134573,3.27757108 1.40512361,3.33868686 C1.30887915,3.46610488 1.32845099,3.65203659 1.44862432,3.75379537 L2.49264144,4.63936018 C2.60384319,4.73362118 2.76451742,4.72382093 2.86457602,4.6162986 C3.61278829,3.82128278 4.28541372,3.03741033 5.02221141,2.25479242 C5.10540565,2.16975606 5.13014886,2.03916477 5.08474386,1.92645451 C5.03934025,1.81374424 4.93303425,1.74253745 4.81776084,1.74743758 C4.74541463,1.74970389 4.67663478,1.7819901 4.62633403,1.8373416 Z" fill="#29CC96"></path>
                    </g>
                </g>
                <rect fill="#F2F3F5" x="46.2569149" y="211.326018" width="74.7449724" height="2.8933536"></rect>
                <rect fill="#F2F3F5" x="55.0977181" y="196.994275" width="65.9041692" height="3.21483752"></rect>
                <rect fill="#F2F3F5" x="46.2569149" y="218.077176" width="74.7449724" height="2.8933536"></rect>
                <line x1="41.4346589" y1="205.564876" x2="125.422289" y2="205.132879" stroke="#DADEE6" stroke-width="0.5"></line>
                <rect fill="#29CC96" x="41.4346589" y="190.108092" width="83.5857755" height="1"></rect>
                <g transform="translate(128.064252, 159.232592) rotate(-12.000000) translate(-128.064252, -159.232592) translate(112.994700, 144.163041)">
                    <mask fill="white">
                        <use xlink:href="#path-9"></use>
                    </mask>
                    <use fill="#1F3966" fill-rule="evenodd" xlink:href="#path-9"></use>
                </g>
                <g transform="translate(109.749960, 287.557860)">
                    <mask fill="white">
                        <use xlink:href="#path-11"></use>
                    </mask>
                    <use fill="#1F3966" fill-rule="evenodd" xlink:href="#path-11"></use>
                </g>
                <line x1="29.1429799" y1="166.50777" x2="21.8990132" y2="154.451785" stroke="#1F3966" stroke-width="1.5" stroke-linecap="round"></line>
                <line x1="44.0808257" y1="152.844036" x2="44.2582419" y2="160.941733" stroke="#1F3966" stroke-width="1.5" stroke-linecap="round"></line>
                <line x1="60.4573423" y1="166.444889" x2="66.3079187" y2="154.725208" stroke="#1F3966" stroke-width="1.5" stroke-linecap="round"></line>
                <line x1="15.8405625" y1="178.016798" x2="10.1525799" y2="174.402225" stroke="#1F3966" stroke-width="1.5" stroke-linecap="round"></line>
                <line x1="12.2334014" y1="195.420755" x2="0" y2="194.567025" stroke="#1F3966" stroke-width="1.5" stroke-linecap="round"></line>
                <line x1="75.7102983" y1="174.274609" x2="81.7382909" y2="170.652625" stroke="#1F3966" stroke-width="1.5" stroke-linecap="round"></line>
                <line x1="11.985805" y1="212.564147" x2="6.8189542" y2="215.668705" stroke="#1F3966" stroke-width="1.5" stroke-linecap="round"></line>
                <line x1="630.80851" y1="326.168026" x2="623.564543" y2="314.112041" stroke="#1F3966" stroke-width="1.5" stroke-linecap="round" transform="translate(627.186526, 320.140034) scale(1, -1) rotate(75.000000) translate(-627.186526, -320.140034) "></line>
                <line x1="635.389088" y1="299.006437" x2="635.566504" y2="307.104135" stroke="#1F3966" stroke-width="1.5" stroke-linecap="round" transform="translate(635.477796, 303.055286) scale(1, -1) rotate(75.000000) translate(-635.477796, -303.055286) "></line>
                <line x1="633.958867" y1="289.401098" x2="639.809443" y2="277.681417" stroke="#1F3966" stroke-width="1.5" stroke-linecap="round" transform="translate(636.884155, 283.541258) scale(1, -1) rotate(75.000000) translate(-636.884155, -283.541258) "></line>
                <line x1="611.595202" y1="329.973831" x2="605.907219" y2="326.359259" stroke="#1F3966" stroke-width="1.5" stroke-linecap="round" transform="translate(608.751210, 328.166545) scale(1, -1) rotate(75.000000) translate(-608.751210, -328.166545) "></line>
                <line x1="594.942953" y1="330.3771" x2="582.709552" y2="329.523369" stroke="#1F3966" stroke-width="1.5" stroke-linecap="round" transform="translate(588.826253, 329.950235) scale(1, -1) rotate(75.000000) translate(-588.826253, -329.950235) "></line>
                <line x1="626.367057" y1="267.45894" x2="632.395049" y2="263.836956" stroke="#1F3966" stroke-width="1.5" stroke-linecap="round" transform="translate(629.381053, 265.647948) scale(1, -1) rotate(75.000000) translate(-629.381053, -265.647948) "></line>
                <line x1="573.789123" y1="320.274957" x2="568.622272" y2="323.379515" stroke="#1F3966" stroke-width="1.5" stroke-linecap="round" transform="translate(571.205698, 321.827236) scale(1, -1) rotate(75.000000) translate(-571.205698, -321.827236) "></line>
                <rect fill="#DADEE6" x="173.042078" y="123.481388" width="323.493045" height="197.913447" rx="4.49999988"></rect>
                <rect fill="#FFFFFF" x="177" y="126.962906" width="316" height="190"></rect>
                <path d="M150.533171,321.394834 L518.682129,321.394834 C521.242049,321.394834 523.680843,322.484964 525.38815,324.392395 L529.011728,328.440715 C529.674739,329.181441 529.611738,330.319396 528.871011,330.982407 C528.540937,331.27785 528.113508,331.441202 527.670523,331.441202 L142.831503,331.441202 C141.83739,331.441202 141.031503,330.635315 141.031503,329.641202 C141.031503,329.356202 141.099177,329.075276 141.228957,328.82154 L142.520442,326.29652 C144.059286,323.287882 147.15383,321.394834 150.533171,321.394834 Z" fill="#DADEE6" transform="translate(335.793237, 326.418018) scale(-1, 1) rotate(-180.000000) translate(-335.793237, -326.418018) "></path>
                <path d="M315.700501,320.390198 L356.890609,320.390198 C356.890609,323.164425 354.641653,325.413382 351.867426,325.413382 L320.723685,325.413382 C317.949457,325.413382 315.700501,323.164425 315.700501,320.390198 L315.700501,320.390198 L315.700501,320.390198 Z" fill="#B8BFCC"></path>
                <rect fill="#F2F3F5" x="177" y="126.962906" width="316" height="8.29582655"></rect>
                <rect fill="#1F3966" x="177" y="143.962906" width="316" height="14"></rect>
                <path d="M207.774493,129.647797 L250.192401,129.647797 C251.205848,129.647797 252.027409,130.469358 252.027409,131.482805 L252.027409,137.021865 L252.027409,137.021865 L205.939484,137.021865 L205.939484,131.482805 C205.939484,130.469358 206.761045,129.647797 207.774493,129.647797 Z" fill="#FFFFFF"></path>
                <circle fill="#D8D8D8" cx="181.973763" cy="130.806423" r="1.84351701"></circle>
                <circle fill="#D8D8D8" cx="187.504314" cy="130.806423" r="1.84351701"></circle>
                <circle fill="#D8D8D8" cx="193.034865" cy="130.806423" r="1.84351701"></circle>
                <rect fill="#E9EBF0" x="182.460309" y="221.542438" width="41.2894271" height="2.23186092"></rect>
                <rect fill="#E9EBF0" x="182.460309" y="212.614995" width="41.2894271" height="2.23186092"></rect>
                <rect fill="#DADEE6" x="238.741146" y="164.629985" width="33.4779139" height="2.23186092"></rect>
                <rect fill="#DADEE6" x="238.741146" y="200.33976" width="33.4779139" height="2.23186092"></rect>
                <rect fill="#DADEE6" x="325.783722" y="164.629985" width="33.4779139" height="2.23186092"></rect>
                <rect fill="#DADEE6" x="416.174089" y="164.629985" width="33.4779139" height="2.23186092"></rect>
                <rect fill="#E9EBF0" x="182.460309" y="230.469882" width="41.2894271" height="2.23186092"></rect>
                <rect fill="#E9EBF0" x="182.460309" y="239.397326" width="41.2894271" height="2.23186092"></rect>
                <rect fill="#E9EBF0" x="182.460309" y="248.32477" width="41.2894271" height="2.23186092"></rect>
                <rect fill="#E9EBF0" x="182.460309" y="257.252213" width="41.2894271" height="2.23186092"></rect>
                <rect fill="#E9EBF0" x="427.333394" y="219.310578" width="50.2168708" height="2.23186092"></rect>
                <rect fill="#E9EBF0" x="427.333394" y="214.846856" width="50.2168708" height="2.23186092"></rect>
                <circle fill="#E9EBF0" cx="420.637811" cy="218.194647" r="4.46372185"></circle>
                <rect fill="#E9EBF0" x="427.333394" y="255.020352" width="50.2168708" height="2.23186092"></rect>
                <rect fill="#E9EBF0" x="427.333394" y="250.55663" width="50.2168708" height="2.23186092"></rect>
                <circle fill="#E9EBF0" cx="420.637811" cy="253.904422" r="4.46372185"></circle>
                <rect fill="#E9EBF0" x="427.333394" y="201.45569" width="50.2168708" height="2.23186092"></rect>
                <rect fill="#E9EBF0" x="427.333394" y="196.991968" width="50.2168708" height="2.23186092"></rect>
                <circle fill="#E9EBF0" cx="420.637811" cy="200.33976" r="4.46372185"></circle>
                <rect fill="#E9EBF0" x="427.333394" y="237.165465" width="50.2168708" height="2.23186092"></rect>
                <rect fill="#E9EBF0" x="427.333394" y="232.701743" width="50.2168708" height="2.23186092"></rect>
                <circle fill="#E9EBF0" cx="420.637811" cy="236.049534" r="4.46372185"></circle>
                <rect fill="#E9EBF0" x="427.333394" y="183.600803" width="50.2168708" height="2.23186092"></rect>
                <rect fill="#E9EBF0" x="427.333394" y="179.137081" width="50.2168708" height="2.23186092"></rect>
                <circle fill="#E9EBF0" cx="420.637811" cy="182.484872" r="4.46372185"></circle>
                <line x1="230.929633" y1="157.934402" x2="230.929633" y2="315.838559" stroke="#E9EBF0" stroke-width="0.555390007"></line>
                <line x1="409.478507" y1="157.934402" x2="409.478507" y2="315.838559" stroke="#E9EBF0" stroke-width="0.555390007"></line>
                <line x1="230.929633" y1="190.854351" x2="409.478507" y2="190.854351" stroke="#E9EBF0" stroke-width="0.555390007"></line>
                <line x1="320.20407" y1="158.22231" x2="320.20407" y2="190.854351" stroke="#E9EBF0" stroke-width="0.555390007"></line>
                <rect stroke="#E9EBF0" stroke-width="0.555390007" fill="#FFFFFF" x="236.509285" y="210.383134" width="168.5055" height="13.3911655" rx="2.22156003"></rect>
                <rect stroke="#E9EBF0" stroke-width="0.555390007" fill="#FFFFFF" x="236.509285" y="241.629187" width="168.5055" height="13.3911655" rx="2.22156003"></rect>
                <rect stroke="#E9EBF0" stroke-width="0.555390007" fill="#FFFFFF" x="236.509285" y="272.87524" width="168.5055" height="13.3911655" rx="2.22156003"></rect>
                <rect stroke="#E9EBF0" stroke-width="0.555390007" fill="#FFFFFF" x="236.509285" y="226.00616" width="168.5055" height="13.3911655" rx="2.22156003"></rect>
                <rect stroke="#E9EBF0" stroke-width="0.555390007" fill="#FFFFFF" x="236.509285" y="257.252213" width="168.5055" height="13.3911655" rx="2.22156003"></rect>
                <path d="M316.875571,92.2062117 C316.875571,83.4390602 319.193513,64.3532561 326.427469,48.375803 C336.130543,26.9448723 352.844032,8 356.578346,8 C360.122841,8 375.429888,25.2955108 385.241041,45.8357594 C393.472709,63.0692593 395.721899,84.2226493 395.721899,92.2062117 C395.721899,103.872214 389.203533,139.760519 376.166801,199.871128 C349.700901,199.871128 336.46795,199.871128 336.46795,199.871128 C336.46795,199.871128 316.875571,112.732948 316.875571,92.2062117 Z" fill="#82E2C3" transform="translate(356.298735, 103.935564) rotate(29.000000) translate(-356.298735, -103.935564) "></path>
                <path d="M300.860978,106.77015 C300.177722,102.885065 291.323772,119.033898 286.089312,130.715557 C281.396668,141.188055 281.68814,155.190168 281.68814,158.880706 C281.68814,160.879768 284.117607,158.486276 293.55345,154.14351 C299.844011,151.248333 305.220346,150.115991 309.682454,150.746484 C304.359057,124.599438 301.418565,109.94066 300.860978,106.77015 Z" fill="#82E2C3" transform="translate(295.683518, 132.887729) rotate(29.000000) translate(-295.683518, -132.887729) "></path>
                <path d="M368.84264,145.027092 C367.835551,141.406378 359.469642,156.750821 354.235182,168.432481 C349.542538,178.904979 349.83401,192.907092 349.83401,196.59763 C349.83401,198.596692 352.263477,196.2032 361.69932,191.860434 C367.989881,188.965256 373.246892,187.809859 377.470351,188.394241 C372.526446,162.3874 369.650542,147.931684 368.84264,145.027092 Z" fill="#82E2C3" transform="translate(363.650401, 170.899483) scale(-1, 1) rotate(-29.000000) translate(-363.650401, -170.899483) "></path>
                <path d="M314.695864,191.796689 C308.517555,215.385051 302.925408,227.179231 297.919424,227.179231 C292.913441,227.179231 287.454583,215.385051 281.542851,191.796689 C287.841337,192.366388 293.300195,192.701266 297.919424,192.801326 C299.868881,192.843554 305.461028,192.508675 314.695864,191.796689 Z" fill="#82E2C3" transform="translate(298.119358, 209.487960) rotate(29.000000) translate(-298.119358, -209.487960) "></path>
                <circle fill="#FFFFFF" transform="translate(368.000000, 82.962906) rotate(26.000000) translate(-368.000000, -82.962906) " cx="368" cy="82.9629057" r="22"></circle>
                <path d="M317.3659,92.2580542 C317.3659,83.4909028 319.683842,64.4050987 326.917798,48.4276456 C336.620872,26.9967149 353.334361,8.05184257 357.068675,8.05184257 C360.613169,8.05184257 375.920217,25.3473533 385.73137,45.887602 C393.963037,63.1211019 396.212228,84.2744919 396.212228,92.2580542 C396.212228,103.924057 389.693862,139.812362 376.65713,199.92297 C350.191229,199.92297 336.958279,199.92297 336.958279,199.92297 C336.958279,199.92297 317.3659,112.78479 317.3659,92.2580542 Z" stroke="#FFFFFF" stroke-width="2.5" transform="translate(356.789064, 103.987407) rotate(29.000000) translate(-356.789064, -103.987407) "></path>
                <path d="M301.351307,106.821993 C300.66805,102.936907 291.814101,119.08574 286.579641,130.7674 C281.886997,141.239898 282.178469,155.242011 282.178469,158.932549 C282.178469,160.931611 284.607936,158.538119 294.043778,154.195353 C300.33434,151.300175 305.710675,150.167833 310.172783,150.798327 C304.849385,124.651281 301.908893,109.992503 301.351307,106.821993 Z" stroke="#FFFFFF" stroke-width="2.5" transform="translate(296.173846, 132.939572) rotate(29.000000) translate(-296.173846, -132.939572) "></path>
                <path d="M369.332969,145.078935 C368.32588,141.45822 359.959971,156.802664 354.725511,168.484323 C350.032866,178.956822 350.324338,192.958934 350.324338,196.649472 C350.324338,198.648534 352.753806,196.255043 362.189648,191.912276 C368.48021,189.017099 373.73722,187.861701 377.96068,188.446083 C373.016775,162.439242 370.140871,147.983526 369.332969,145.078935 Z" stroke="#FFFFFF" stroke-width="2.5" transform="translate(364.140730, 170.951325) scale(-1, 1) rotate(-29.000000) translate(-364.140730, -170.951325) "></path>
                <path d="M368.36311,41.6067926 C382.919225,47.4197545 397.653897,47.4197545 412.567129,41.6067926" stroke="#FFFFFF" stroke-width="2.5" transform="translate(390.465119, 43.786653) rotate(29.000000) translate(-390.465119, -43.786653) "></path>
                <path d="" stroke="#6B7C99" stroke-width="2.5" transform="translate(327.995290, 74.615955) rotate(29.000000) translate(-327.995290, -74.615955) "></path>
                <line x1="310.512836" y1="188.024392" x2="320.610825" y2="169.807137" stroke="#FFFFFF" stroke-width="2.5" stroke-linecap="round"></line>
                <line x1="292.42799" y1="254.578775" x2="285.184023" y2="242.52279" stroke="#8BE1C4" stroke-width="2.5" stroke-linecap="round" transform="translate(288.806007, 248.550783) scale(1, -1) rotate(12.000000) translate(-288.806007, -248.550783) "></line>
                <line x1="307.704078" y1="244.133196" x2="307.881494" y2="252.230894" stroke="#8BE1C4" stroke-width="2.5" stroke-linecap="round" transform="translate(307.792786, 248.182045) scale(1, -1) rotate(12.000000) translate(-307.792786, -248.182045) "></line>
                <line x1="276.128866" y1="237.576042" x2="270.440883" y2="233.96147" stroke="#8BE1C4" stroke-width="2.5" stroke-linecap="round" transform="translate(273.284874, 235.768756) scale(1, -1) rotate(12.000000) translate(-273.284874, -235.768756) "></line>
                <line x1="268.766554" y1="219.252132" x2="256.533153" y2="218.398401" stroke="#8BE1C4" stroke-width="2.5" stroke-linecap="round" transform="translate(262.649854, 218.825267) scale(1, -1) rotate(12.000000) translate(-262.649854, -218.825267) "></line>
                <g transform="translate(369.898794, 83.401277) rotate(26.000000) translate(-369.898794, -83.401277) translate(353.898794, 68.401277)">
                    <g fill="#29CC96">
                        <path d="M18.5709661,26.1704925 C16.3360599,26.9959172 13.9404381,27.1361835 11.827885,26.5621796 C6.57251326,25.133345 2.75835086,20.2451956 2.75835086,14.9391878 C2.75835086,10.7112018 4.63840394,7.9423385 6.21504452,6.36441577 C8.38543197,4.19249306 11.4041538,2.90392477 14.3112756,2.90392477 C14.3481849,2.90392477 14.3850943,2.90421883 14.4208412,2.90480695 C19.963641,2.96597131 23.4770066,7.20336723 23.5083941,7.24277119 C23.9896691,7.84147613 24.8580565,7.93116425 25.4488971,7.44508406 C26.0397377,6.95900388 26.1292502,6.08006033 25.6488471,5.48223758 C25.4747628,5.26610392 21.316791,0.190050589 14.4513568,0.113696082 C10.7432725,0.0938931658 7.02588825,1.62741293 4.27570395,4.38010295 C1.51825402,7.13926229 2.90624992e-05,10.8891077 2.90624992e-05,14.9391878 C2.90624992e-05,21.4852441 4.67356956,27.5066984 11.1120756,29.257528 C12.2004662,29.5533518 13.3434943,29.7000874 14.5045412,29.7000874 C16.1773786,29.7000874 17.8868348,29.3951478 19.5181129,28.7914439 C23.7592034,27.2223429 27.9003189,23.0952193 27.7503565,18.3249877 C26.8159971,19.0174976 25.7970659,19.6520778 24.7234972,20.2499006 C23.8972503,22.870852 21.2897629,25.1642212 18.5709661,26.1704925"></path>
                    </g>
                    <g transform="translate(13.500000, 11.700000)">
                        <mask fill="white">
                            <use xlink:href="#path-13"></use>
                        </mask>
                        <g></g>
                        <path d="M5.44295986,5.41931882 C4.34195988,5.39669468 3.02555992,5.16654297 3.00905992,4.19873265 C3.00245992,3.77501887 3.19895992,3.58899818 3.26285991,3.52810853 C3.46505991,3.33733957 4.00055989,3.01724992 5.31695986,3.01724992 C6.71165982,3.01724992 8.57195977,3.51358439 9.86195974,4.37246368 C8.47745978,5.00593952 6.98345982,5.4511602 5.44295986,5.41931882 M15.5223596,0.440053437 C15.4974596,0.465191367 14.2722596,1.68633616 12.4416597,2.91334647 C10.5387597,1.18832583 7.5078598,0.366315508 5.31695986,0.366315508 C3.52265991,0.366315508 2.14895994,0.804553427 1.23515997,1.66762237 C0.516659986,2.34606718 0.145859996,3.23483267 0.161759996,4.23923265 C0.192359995,6.0402257 1.57985996,7.99204634 5.38175986,8.0694153 C7.5003598,8.11829461 9.57575975,7.47951187 11.3877597,6.61532569 C12.6525597,6.01816019 13.5621596,5.42099468 13.9707596,5.14922573 C16.0941596,3.75295335 17.4966595,2.35668097 17.6133595,2.23937063 C18.1473595,1.70169823 18.1110595,0.863208598 17.5335595,0.366315508 C16.9581596,-0.129460341 16.0572596,-0.0978982733 15.5223596,0.440053437" fill="#29CC96" mask="url(#mask-14)"></path>
                    </g>
                </g>
                <path d="M177,189.60646 L177,157.962906 L230,157.962906 C226.041454,168.510757 217.20812,173.784683 203.5,173.784683 C189.79188,173.784683 180.958546,179.058609 177,189.60646 Z" fill="url(#linearGradient-15)"></path>
                <circle fill="#E9EBF0" cx="204.147301" cy="176.90522" r="11.1593046"></circle>
                <g transform="translate(516.000000, 177.962906)">
                    <mask fill="white">
                        <use xlink:href="#path-16"></use>
                    </mask>
                    <use fill="#6B7C99" fill-rule="evenodd" xlink:href="#path-16"></use>
                </g>
                <g transform="translate(518.000000, 218.962906)">
                    <mask fill="white">
                        <use xlink:href="#path-18"></use>
                    </mask>
                    <use fill="#6B7C99" fill-rule="evenodd" xlink:href="#path-18"></use>
                </g>
                <g transform="translate(518.000000, 244.962906)">
                    <mask fill="white">
                        <use xlink:href="#path-20"></use>
                    </mask>
                    <use fill="#6B7C99" fill-rule="evenodd" xlink:href="#path-20"></use>
                </g>
                <g transform="translate(518.000000, 269.962906)">
                    <mask fill="white">
                        <use xlink:href="#path-22"></use>
                    </mask>
                    <use fill="#6B7C99" fill-rule="evenodd" xlink:href="#path-22"></use>
                </g>
            </g>
        </g>
    </g>
</svg>