<svg width="182" height="106" viewBox="0 0 182 106" fill="none" xmlns="http://www.w3.org/2000/svg">
<path d="M9.20011 2.60854V2.63264L9.19454 2.65582L9.19825 2.67992L9.19918 2.70403L9.1899 2.72813L9.19639 2.75224L9.18712 2.77541L9.18897 2.79952V2.82362L9.18155 2.8468L9.18341 2.87091L9.17784 2.89501L9.17042 2.91819L9.16949 2.94229L9.163 2.96547L9.16485 2.98958L9.16021 3.01368L9.14908 3.035L9.14444 3.05911V3.08321L9.13331 3.10546L9.1296 3.12957L9.12125 3.15182L9.12032 3.17685L9.10733 3.19725L9.10548 3.22228L9.09527 3.2436L9.08692 3.26585L9.08043 3.28903L9.07022 3.31128L9.05909 3.3326L9.05723 3.35763L9.04053 3.37618L9.03126 3.39843L9.02476 3.4216L9.01641 3.44386L9.00157 3.46425L8.99229 3.48557L8.98209 3.50783L8.97003 3.52822L8.96539 3.55325L8.9524 3.57365L8.9357 3.59126L8.9292 3.61537L8.91436 3.63391L8.9023 3.65431L8.89024 3.67563L8.87818 3.69603L8.86426 3.7155L8.84756 3.73311L8.84107 3.75814L8.82066 3.77298L8.81231 3.79615L8.79839 3.81562L8.77984 3.83138L8.76778 3.85271L8.75108 3.87032L8.73809 3.89072L8.72139 3.90741L8.70191 3.92224L8.68985 3.94356L8.67593 3.96303L8.65552 3.97787L8.64346 3.99919L8.62583 4.01495L8.60542 4.02886L8.59336 4.05018L8.57017 4.06038L8.55532 4.07985L8.53677 4.09468L8.51821 4.11044L8.5043 4.13084L8.48203 4.14196L8.46626 4.15958L8.44771 4.17534L8.4273 4.18832L8.40781 4.20222L8.38833 4.2152L8.3707 4.23189L8.354 4.24951L8.32988 4.25692L8.31226 4.27454L8.29185 4.28566L8.27144 4.29864L8.25381 4.31533L8.23062 4.32367L8.21299 4.34129L8.19165 4.35149L8.16938 4.36169L8.1499 4.37467L8.13042 4.3895L8.10815 4.39784L8.08682 4.41082L8.06177 4.41453L8.04321 4.43029L8.01909 4.43585L7.99961 4.44976L7.97641 4.45625L7.95415 4.46645L7.93095 4.47294L7.90869 4.48128L7.88735 4.49148L7.86416 4.49704L7.84189 4.50631L7.82148 4.52022L7.79643 4.52207L7.77509 4.53227L7.7519 4.53876L7.72778 4.5434L7.70644 4.55452L7.68325 4.56194L7.65913 4.56472L7.63593 4.57028L7.61274 4.5777L7.58955 4.58326L7.56635 4.58697L7.54223 4.59253L7.51811 4.59068L7.49492 4.5981L7.47172 4.60181L7.44667 4.60273L7.42348 4.60922L7.39936 4.61015L7.37616 4.612L7.35204 4.61571L7.32792 4.61757L7.3038 4.61386L7.28061 4.6222L7.25649 4.62127L7.23236 4.61571L7.20824 4.62406L7.18412 4.61571L7.16 4.62127L7.13681 4.61849L7.11269 4.61478L7.08856 4.61849L7.06444 4.612L7.04125 4.61015L7.01713 4.61108L6.99301 4.61015L6.96981 4.60644L6.94569 4.60088L6.92064 4.60737L6.89838 4.59902L6.87426 4.59624L6.85106 4.58975L6.82694 4.58604L6.80375 4.58326L6.7787 4.58419L6.75736 4.57121L6.73231 4.57214L6.70912 4.56565L6.68685 4.55452H6.66273L6.64139 4.54154L6.6182 4.53505L6.59408 4.53042L6.57089 4.52486L6.54955 4.51373L6.52728 4.50631L6.50409 4.49797L6.48182 4.49148L6.45863 4.48406L6.43451 4.47943L6.41224 4.47016L6.39183 4.4581L6.36864 4.45161L6.34823 4.43864L6.32503 4.43122L6.30555 4.41638L6.28421 4.40619L6.26195 4.39599L6.23968 4.38672L6.21834 4.37652L6.19701 4.36539L6.17845 4.34871L6.15711 4.33851L6.13577 4.32738L6.11536 4.3144L6.09403 4.30421L6.07454 4.28937L6.05692 4.27268L6.03743 4.25878L6.0161 4.24858L5.99661 4.23375L5.97806 4.21891L5.9595 4.20408L5.94002 4.18924L5.91961 4.17627L5.90198 4.1605L5.88436 4.14474L5.86858 4.1262L5.85003 4.11044L5.8324 4.09468L5.81478 4.07892L5.79251 4.06687L5.77859 4.0474L5.75911 4.03256L5.74612 4.01217L5.73035 3.99363L5.71087 3.97972L5.69139 3.96396L5.67654 3.94542L5.66634 3.92317L5.64964 3.90555L5.63201 3.88886L5.61346 3.8731L5.60511 3.849L5.58933 3.83138L5.57542 3.81191L5.55594 3.79615L5.54759 3.77298L5.5281 3.75722L5.5179 3.73589L5.50305 3.71642L5.49192 3.6951L5.47801 3.67563L5.46873 3.65338L5.45017 3.63669L5.44182 3.61351L5.42512 3.5959L5.41677 3.57272L5.4075 3.55047L5.39822 3.52822L5.3843 3.50875L5.37503 3.4865L5.35925 3.46796L5.3509 3.44478L5.34534 3.4216L5.33235 3.40028L5.32493 3.37803L5.31287 3.35671L5.30916 3.3326L5.30173 3.30943L5.28967 3.28903L5.27761 3.26771L5.27483 3.2436L5.26277 3.22228L5.26184 3.19725L5.25442 3.175L5.24514 3.15275L5.23958 3.12864L5.23215 3.10639L5.2303 3.08229L5.22473 3.05911L5.2136 3.03686L5.21174 3.01275L5.20803 2.98865L5.20618 2.96454L5.20061 2.94137L5.19968 2.91726L5.19133 2.89501L5.18948 2.87091L5.18669 2.8468L5.18484 2.82362L5.17742 2.79952L5.17927 2.77541L5.17185 2.75224L5.17463 2.72813L5.16907 2.70403L5.17649 2.67992V2.65582L5.17092 2.63264L5.17556 2.60854L5.17371 2.58443L5.17185 2.56033L5.17463 2.53622L5.17092 2.51212L5.17834 2.48894L5.1802 2.46484L5.17649 2.44073L5.18484 2.41755L5.17834 2.39252L5.18577 2.36934L5.18669 2.34524L5.19412 2.32206V2.29796L5.20154 2.27478L5.2071 2.2516L5.20339 2.22657L5.21453 2.20432L5.21824 2.18114L5.22009 2.15704L5.22473 2.13293L5.23679 2.11161L5.24143 2.08751L5.24329 2.0634L5.25071 2.04115L5.25999 2.0189L5.26741 1.99572L5.27854 1.9744L5.28225 1.95029L5.28689 1.92619L5.29895 1.90579L5.30545 1.88262L5.31194 1.85944L5.32307 1.83812L5.33699 1.81772L5.34163 1.79361L5.34998 1.77136L5.36575 1.75189L5.37132 1.72779L5.38152 1.70647L5.39822 1.68792L5.40657 1.66567L5.41585 1.64342L5.43162 1.62488L5.43811 1.60078L5.45667 1.58409L5.46409 1.55998L5.47708 1.54052L5.48914 1.52012L5.50769 1.50343L5.51512 1.47933L5.53274 1.46264L5.5448 1.44224L5.55872 1.42185L5.57449 1.4033L5.58933 1.38476L5.59861 1.36251L5.61902 1.34768L5.63108 1.32635L5.65057 1.31152L5.66634 1.29298L5.68025 1.27444L5.69602 1.2559L5.71272 1.23921L5.72478 1.21788L5.74705 1.20583L5.76004 1.18451L5.77674 1.16689L5.79251 1.14928L5.81478 1.13815L5.82776 1.11776L5.85096 1.10663L5.86395 1.08531L5.88343 1.0714L5.90013 1.05379L5.92239 1.04266L5.94095 1.02876L5.96043 1.01392L5.97713 0.997234L5.99569 0.981473L6.01888 0.972202L6.03651 0.956441L6.05692 0.943462L6.07454 0.927701L6.09681 0.916576L6.11536 0.900815L6.1367 0.88969L6.15711 0.877638L6.17938 0.868367L6.19979 0.856314L6.21834 0.840554L6.24246 0.834064L6.2638 0.822939L6.28329 0.809032L6.30555 0.799761L6.32874 0.792344L6.34823 0.779365L6.37049 0.769167L6.3909 0.756187L6.41317 0.746916L6.43543 0.7395L6.45677 0.727447L6.47997 0.720958L6.50316 0.713541L6.52635 0.707051L6.54862 0.698707L6.57181 0.692217L6.59315 0.680165L6.61727 0.677384L6.64047 0.672748L6.6618 0.661623L6.68685 0.659769L6.70912 0.652352L6.73231 0.645862L6.75643 0.642154L6.78055 0.641227L6.80375 0.635664L6.82694 0.631029L6.85014 0.623612L6.87333 0.618049L6.89745 0.612487L6.92157 0.616195L6.94476 0.608778L6.96889 0.606924L6.99301 0.604143L7.01713 0.605997L7.04032 0.599507L7.06444 0.603216L7.08856 0.600434L7.11269 0.59858L7.13588 0.593018L7.16 0.596726L7.18412 0.600434L7.20824 0.597653L7.23236 0.599507L7.25649 0.597653H7.28061L7.30473 0.596726L7.32792 0.599507L7.35204 0.601361L7.37524 0.607851L7.39936 0.61156L7.42348 0.607851L7.4476 0.612487L7.47079 0.616195L7.49492 0.618049L7.51904 0.619904L7.5413 0.631029L7.56542 0.634737L7.58862 0.639373L7.61181 0.644008L7.635 0.650498L7.6582 0.655133L7.68232 0.657915L7.70551 0.666259L7.72871 0.670894L7.75097 0.679238L7.77509 0.682019L7.79736 0.69129L7.82055 0.696853L7.84282 0.708905L7.86508 0.716322L7.88828 0.721885L7.91054 0.731156L7.93188 0.743208L7.95415 0.750625L7.97734 0.757115L7.99775 0.770094L8.02187 0.776584L8.04321 0.785855L8.06177 0.802543L8.08403 0.812741L8.10723 0.81923L8.12856 0.829428L8.14712 0.846116L8.17217 0.850752L8.19258 0.863731L8.20928 0.882273L8.23433 0.886909L8.25288 0.90267L8.27236 0.916576L8.29185 0.93141L8.31226 0.942535L8.33267 0.955514L8.354 0.96664L8.3707 0.985182L8.39019 0.999088L8.4106 1.01207L8.42915 1.0269L8.44956 1.03895L8.46441 1.05935L8.48574 1.0714L8.50337 1.08716L8.52193 1.10292L8.53584 1.12239L8.55532 1.13723L8.57295 1.15299L8.59243 1.16782L8.60821 1.18544L8.62676 1.2012L8.64346 1.21788L8.66016 1.2355L8.675 1.25404L8.68799 1.27444L8.70747 1.2902L8.71768 1.31245L8.73902 1.32543L8.74829 1.34953L8.76407 1.36715L8.78077 1.38476L8.79839 1.40145L8.8086 1.42277L8.82344 1.44224L8.83921 1.46078L8.8522 1.48025L8.86612 1.49972L8.8754 1.52197L8.89302 1.53959L8.90323 1.56184L8.91622 1.58223L8.92549 1.60356L8.94127 1.62303L8.95147 1.64435L8.96168 1.66567L8.97095 1.68792L8.9858 1.70739L8.99786 1.72779L9.0025 1.75282L9.02012 1.77044L9.02476 1.79454L9.03868 1.81494L9.04053 1.83997L9.05538 1.85944L9.06094 1.88354L9.07115 1.90487L9.07672 1.92897L9.0897 1.94937L9.09156 1.97347L9.10176 1.99572L9.1129 2.01705L9.11661 2.04115L9.12125 2.06526L9.13145 2.08751L9.13702 2.11068L9.13795 2.13479L9.14908 2.15704L9.15557 2.18022L9.15928 2.20339L9.15836 2.22842L9.16949 2.25068L9.16671 2.27478L9.17506 2.29796L9.1732 2.32206L9.17691 2.34617L9.18433 2.36934L9.18619 2.39345L9.18897 2.41663L9.19547 2.44073L9.19454 2.46484L9.19547 2.48894L9.19732 2.51212L9.19454 2.53622L9.19361 2.56033L9.19547 2.58443L9.20011 2.60854Z" fill="#C7F8F6"/>
<mask id="path-2-inside-1_202_5529" fill="white">
<path d="M15.6949 8.32176V8.36059L15.6859 8.39794L15.6919 8.43677L15.6934 8.47561L15.6785 8.51445L15.6889 8.55328L15.674 8.59063L15.677 8.62946V8.6683L15.665 8.70564L15.668 8.74448L15.659 8.78332L15.6471 8.82066L15.6456 8.8595L15.6351 8.89684L15.6381 8.93568L15.6306 8.97451L15.6127 9.00887L15.6052 9.04771V9.08654L15.5873 9.12239L15.5813 9.16123L15.5679 9.19708L15.5664 9.23741L15.5454 9.27027L15.5425 9.3106L15.526 9.34496L15.5126 9.38081L15.5021 9.41815L15.4857 9.454L15.4677 9.48835L15.4647 9.52868L15.4378 9.55856L15.4229 9.59441L15.4124 9.63175L15.399 9.6676L15.375 9.70046L15.3601 9.73482L15.3437 9.77067L15.3242 9.80353L15.3167 9.84386L15.2958 9.87672L15.2689 9.9051L15.2584 9.94394L15.2345 9.97381L15.2151 10.0067L15.1957 10.041L15.1762 10.0739L15.1538 10.1053L15.1269 10.1336L15.1164 10.174L15.0836 10.1979L15.0701 10.2352L15.0477 10.2666L15.0178 10.292L14.9984 10.3263L14.9715 10.3547L14.9505 10.3876L14.9236 10.4145L14.8922 10.4384L14.8728 10.4727L14.8504 10.5041L14.8175 10.528L14.7981 10.5623L14.7697 10.5877L14.7368 10.6101L14.7174 10.6445L14.68 10.6609L14.6561 10.6923L14.6262 10.7162L14.5963 10.7416L14.5739 10.7744L14.538 10.7924L14.5126 10.8208L14.4827 10.8461L14.4498 10.8671L14.4184 10.8895L14.387 10.9104L14.3586 10.9373L14.3317 10.9656L14.2928 10.9776L14.2644 11.006L14.2316 11.0239L14.1987 11.0448L14.1703 11.0717L14.1329 11.0851L14.1045 11.1135L14.0701 11.13L14.0342 11.1464L14.0029 11.1673L13.9715 11.1912L13.9356 11.2046L13.9012 11.2255L13.8609 11.2315L13.831 11.2569L13.7921 11.2659L13.7607 11.2883L13.7233 11.2987L13.6875 11.3152L13.6501 11.3256L13.6142 11.3391L13.5798 11.3555L13.5425 11.3645L13.5066 11.3794L13.4737 11.4018L13.4334 11.4048L13.399 11.4212L13.3616 11.4317L13.3227 11.4392L13.2884 11.4571L13.251 11.469L13.2121 11.4735L13.1748 11.4825L13.1374 11.4944L13.1 11.5034L13.0627 11.5094L13.0238 11.5183L12.9849 11.5153L12.9476 11.5273L12.9102 11.5333L12.8698 11.5347L12.8325 11.5452L12.7936 11.5467L12.7562 11.5497L12.7174 11.5557L12.6785 11.5586L12.6396 11.5527L12.6023 11.5661L12.5634 11.5646L12.5246 11.5557L12.4857 11.5691L12.4468 11.5557L12.408 11.5646L12.3706 11.5601L12.3317 11.5542L12.2929 11.5601L12.254 11.5497L12.2166 11.5467L12.1778 11.5482L12.1389 11.5467L12.1015 11.5407L12.0627 11.5318L12.0223 11.5422L11.9864 11.5288L11.9476 11.5243L11.9102 11.5138L11.8713 11.5079L11.834 11.5034L11.7936 11.5049L11.7592 11.484L11.7189 11.4855L11.6815 11.475L11.6456 11.4571H11.6068L11.5724 11.4362L11.535 11.4257L11.4962 11.4182L11.4588 11.4093L11.4244 11.3914L11.3885 11.3794L11.3512 11.366L11.3153 11.3555L11.2779 11.3436L11.2391 11.3361L11.2032 11.3211L11.1703 11.3017L11.1329 11.2913L11.1001 11.2704L11.0627 11.2584L11.0313 11.2345L10.9969 11.2181L10.961 11.2017L10.9252 11.1867L10.8908 11.1703L10.8564 11.1524L10.8265 11.1255L10.7921 11.109L10.7578 11.0911L10.7249 11.0702L10.6905 11.0538L10.6591 11.0299L10.6307 11.003L10.5993 10.9806L10.5649 10.9641L10.5335 10.9402L10.5036 10.9163L10.4738 10.8924L10.4424 10.8686L10.4095 10.8476L10.3811 10.8222L10.3527 10.7969L10.3273 10.767L10.2974 10.7416L10.269 10.7162L10.2406 10.6908L10.2047 10.6714L10.1823 10.64L10.1509 10.6161L10.13 10.5833L10.1045 10.5534L10.0732 10.531L10.0418 10.5056L10.0179 10.4757L10.0014 10.4399L9.9745 10.4115L9.9461 10.3846L9.91621 10.3592L9.90276 10.3204L9.87735 10.292L9.85492 10.2606L9.82353 10.2352L9.81008 10.1979L9.77869 10.1725L9.76225 10.1381L9.73833 10.1068L9.7204 10.0724L9.69798 10.041L9.68303 10.0052L9.65313 9.97829L9.63968 9.94095L9.61278 9.91257L9.59932 9.87523L9.58437 9.83938L9.56943 9.80353L9.54701 9.77216L9.53206 9.73631L9.50665 9.70644L9.49319 9.66909L9.48423 9.63175L9.4633 9.59739L9.45134 9.56155L9.43191 9.52719L9.42593 9.48835L9.41397 9.45101L9.39454 9.41815L9.37511 9.38379L9.37063 9.34496L9.35119 9.3106L9.3497 9.27027L9.33774 9.23442L9.32279 9.19857L9.31382 9.15974L9.30187 9.12389L9.29888 9.08505L9.28991 9.04771L9.27197 9.01186L9.26898 8.97302L9.263 8.93418L9.26001 8.89535L9.25105 8.858L9.24955 8.81917L9.2361 8.78332L9.23311 8.74448L9.22862 8.70564L9.22563 8.6683L9.21368 8.62946L9.21667 8.59063L9.20471 8.55328L9.20919 8.51445L9.20022 8.47561L9.21218 8.43677V8.39794L9.20321 8.36059L9.21069 8.32176L9.2077 8.28292L9.20471 8.24408L9.20919 8.20525L9.20321 8.16641L9.21517 8.12907L9.21816 8.09023L9.21218 8.05139L9.22563 8.01405L9.21517 7.97372L9.22713 7.93638L9.22862 7.89754L9.24058 7.8602V7.82136L9.25254 7.78402L9.26151 7.74668L9.25553 7.70635L9.27347 7.6705L9.27945 7.63315L9.28244 7.59432L9.28991 7.55548L9.30934 7.52112L9.31681 7.48229L9.3198 7.44345L9.33176 7.4076L9.34671 7.37175L9.35867 7.33441L9.3766 7.30005L9.38258 7.26122L9.39006 7.22238L9.40949 7.18952L9.41995 7.15218L9.43042 7.11483L9.44835 7.08048L9.47077 7.04762L9.47825 7.00878L9.4917 6.97293L9.51711 6.94156L9.52608 6.90272L9.54252 6.86837L9.56943 6.83849L9.58288 6.80264L9.59783 6.7668L9.62324 6.73692L9.6337 6.69808L9.6636 6.6712L9.67555 6.63236L9.69648 6.60099L9.71591 6.56813L9.74581 6.54124L9.75777 6.50241L9.78617 6.47552L9.8056 6.44266L9.82802 6.4098L9.85343 6.37992L9.87735 6.35005L9.89229 6.3142L9.92518 6.2903L9.94461 6.25594L9.976 6.23204L10.0014 6.20217L10.0238 6.1723L10.0492 6.14242L10.0761 6.11553L10.0956 6.08118L10.1315 6.06176L10.1524 6.0274L10.1793 5.99902L10.2047 5.97064L10.2406 5.95272L10.2615 5.91986L10.2989 5.90193L10.3198 5.86758L10.3512 5.84517L10.3781 5.81679L10.414 5.79887L10.4439 5.77646L10.4752 5.75256L10.5022 5.72567L10.532 5.70028L10.5694 5.68534L10.5978 5.65995L10.6307 5.63904L10.6591 5.61364L10.695 5.59572L10.7249 5.57033L10.7592 5.5524L10.7921 5.53298L10.828 5.51805L10.8609 5.49863L10.8908 5.47323L10.9297 5.46278L10.964 5.44485L10.9954 5.42245L11.0313 5.40751L11.0687 5.39556L11.1001 5.37465L11.1359 5.35822L11.1688 5.33731L11.2047 5.32237L11.2406 5.31042L11.2749 5.291L11.3123 5.28054L11.3497 5.26859L11.387 5.25814L11.4229 5.2447L11.4603 5.23424L11.4947 5.21482L11.5335 5.21034L11.5709 5.20287L11.6053 5.18495L11.6456 5.18196L11.6815 5.17001L11.7189 5.15955L11.7577 5.15358L11.7966 5.15208L11.834 5.14312L11.8713 5.13565L11.9087 5.1237L11.9461 5.11474L11.9849 5.10578L12.0238 5.11175L12.0612 5.0998L12.1 5.09682L12.1389 5.09234L12.1778 5.09532L12.2151 5.08487L12.254 5.09084L12.2929 5.08636L12.3317 5.08337L12.3691 5.07441L12.408 5.08039L12.4468 5.08636L12.4857 5.08188L12.5246 5.08487L12.5634 5.08188H12.6023L12.6411 5.08039L12.6785 5.08487L12.7174 5.08785L12.7547 5.09831L12.7936 5.10429L12.8325 5.09831L12.8713 5.10578L12.9087 5.11175L12.9476 5.11474L12.9864 5.11773L13.0223 5.13565L13.0612 5.14163L13.0985 5.1491L13.1359 5.15657L13.1733 5.16702L13.2106 5.17449L13.2495 5.17897L13.2869 5.19241L13.3242 5.19988L13.3601 5.21333L13.399 5.21781L13.4349 5.23275L13.4722 5.24171L13.5081 5.26113L13.544 5.27308L13.5813 5.28204L13.6172 5.29698L13.6516 5.31639L13.6875 5.32834L13.7248 5.3388L13.7577 5.35971L13.7966 5.37017L13.831 5.3851L13.8609 5.41199L13.8967 5.42842L13.9341 5.43888L13.9685 5.45531L13.9984 5.4822L14.0387 5.48967L14.0716 5.51058L14.0985 5.54045L14.1389 5.54792L14.1688 5.57331L14.2002 5.59572L14.2316 5.61962L14.2644 5.63754L14.2973 5.65846L14.3317 5.67638L14.3586 5.70625L14.39 5.72866L14.4229 5.74957L14.4528 5.77347L14.4857 5.79289L14.5096 5.82575L14.544 5.84517L14.5724 5.87056L14.6023 5.89596L14.6247 5.92733L14.6561 5.95122L14.6845 5.97662L14.7159 6.00052L14.7413 6.0289L14.7712 6.05429L14.7981 6.08118L14.825 6.10956L14.8489 6.13943L14.8698 6.1723L14.9012 6.19769L14.9176 6.23354L14.952 6.25445L14.967 6.29329L14.9924 6.32167L15.0193 6.35005L15.0477 6.37693L15.0641 6.41129L15.088 6.44266L15.1135 6.47253L15.1344 6.5039L15.1568 6.53527L15.1718 6.57112L15.2002 6.5995L15.2166 6.63535L15.2375 6.66821L15.2525 6.70257L15.2779 6.73393L15.2943 6.76829L15.3108 6.80264L15.3257 6.83849L15.3496 6.86986L15.3691 6.90272L15.3765 6.94305L15.4049 6.97144L15.4124 7.01027L15.4348 7.04313L15.4378 7.08346L15.4617 7.11483L15.4707 7.15367L15.4871 7.18802L15.4961 7.22686L15.517 7.25972L15.52 7.29856L15.5365 7.33441L15.5544 7.36877L15.5604 7.4076L15.5679 7.44644L15.5843 7.48229L15.5933 7.51963L15.5948 7.55847L15.6127 7.59432L15.6232 7.63166L15.6291 7.669L15.6277 7.70933L15.6456 7.74518L15.6411 7.78402L15.6546 7.82136L15.6516 7.8602L15.6575 7.89904L15.6695 7.93638L15.6725 7.97522L15.677 8.01256L15.6874 8.05139L15.6859 8.09023L15.6874 8.12907L15.6904 8.16641L15.6859 8.20525L15.6845 8.24408L15.6874 8.28292L15.6949 8.32176Z"/>
</mask>
<path d="M15.6949 8.32176V8.36059L15.6859 8.39794L15.6919 8.43677L15.6934 8.47561L15.6785 8.51445L15.6889 8.55328L15.674 8.59063L15.677 8.62946V8.6683L15.665 8.70564L15.668 8.74448L15.659 8.78332L15.6471 8.82066L15.6456 8.8595L15.6351 8.89684L15.6381 8.93568L15.6306 8.97451L15.6127 9.00887L15.6052 9.04771V9.08654L15.5873 9.12239L15.5813 9.16123L15.5679 9.19708L15.5664 9.23741L15.5454 9.27027L15.5425 9.3106L15.526 9.34496L15.5126 9.38081L15.5021 9.41815L15.4857 9.454L15.4677 9.48835L15.4647 9.52868L15.4378 9.55856L15.4229 9.59441L15.4124 9.63175L15.399 9.6676L15.375 9.70046L15.3601 9.73482L15.3437 9.77067L15.3242 9.80353L15.3167 9.84386L15.2958 9.87672L15.2689 9.9051L15.2584 9.94394L15.2345 9.97381L15.2151 10.0067L15.1957 10.041L15.1762 10.0739L15.1538 10.1053L15.1269 10.1336L15.1164 10.174L15.0836 10.1979L15.0701 10.2352L15.0477 10.2666L15.0178 10.292L14.9984 10.3263L14.9715 10.3547L14.9505 10.3876L14.9236 10.4145L14.8922 10.4384L14.8728 10.4727L14.8504 10.5041L14.8175 10.528L14.7981 10.5623L14.7697 10.5877L14.7368 10.6101L14.7174 10.6445L14.68 10.6609L14.6561 10.6923L14.6262 10.7162L14.5963 10.7416L14.5739 10.7744L14.538 10.7924L14.5126 10.8208L14.4827 10.8461L14.4498 10.8671L14.4184 10.8895L14.387 10.9104L14.3586 10.9373L14.3317 10.9656L14.2928 10.9776L14.2644 11.006L14.2316 11.0239L14.1987 11.0448L14.1703 11.0717L14.1329 11.0851L14.1045 11.1135L14.0701 11.13L14.0342 11.1464L14.0029 11.1673L13.9715 11.1912L13.9356 11.2046L13.9012 11.2255L13.8609 11.2315L13.831 11.2569L13.7921 11.2659L13.7607 11.2883L13.7233 11.2987L13.6875 11.3152L13.6501 11.3256L13.6142 11.3391L13.5798 11.3555L13.5425 11.3645L13.5066 11.3794L13.4737 11.4018L13.4334 11.4048L13.399 11.4212L13.3616 11.4317L13.3227 11.4392L13.2884 11.4571L13.251 11.469L13.2121 11.4735L13.1748 11.4825L13.1374 11.4944L13.1 11.5034L13.0627 11.5094L13.0238 11.5183L12.9849 11.5153L12.9476 11.5273L12.9102 11.5333L12.8698 11.5347L12.8325 11.5452L12.7936 11.5467L12.7562 11.5497L12.7174 11.5557L12.6785 11.5586L12.6396 11.5527L12.6023 11.5661L12.5634 11.5646L12.5246 11.5557L12.4857 11.5691L12.4468 11.5557L12.408 11.5646L12.3706 11.5601L12.3317 11.5542L12.2929 11.5601L12.254 11.5497L12.2166 11.5467L12.1778 11.5482L12.1389 11.5467L12.1015 11.5407L12.0627 11.5318L12.0223 11.5422L11.9864 11.5288L11.9476 11.5243L11.9102 11.5138L11.8713 11.5079L11.834 11.5034L11.7936 11.5049L11.7592 11.484L11.7189 11.4855L11.6815 11.475L11.6456 11.4571H11.6068L11.5724 11.4362L11.535 11.4257L11.4962 11.4182L11.4588 11.4093L11.4244 11.3914L11.3885 11.3794L11.3512 11.366L11.3153 11.3555L11.2779 11.3436L11.2391 11.3361L11.2032 11.3211L11.1703 11.3017L11.1329 11.2913L11.1001 11.2704L11.0627 11.2584L11.0313 11.2345L10.9969 11.2181L10.961 11.2017L10.9252 11.1867L10.8908 11.1703L10.8564 11.1524L10.8265 11.1255L10.7921 11.109L10.7578 11.0911L10.7249 11.0702L10.6905 11.0538L10.6591 11.0299L10.6307 11.003L10.5993 10.9806L10.5649 10.9641L10.5335 10.9402L10.5036 10.9163L10.4738 10.8924L10.4424 10.8686L10.4095 10.8476L10.3811 10.8222L10.3527 10.7969L10.3273 10.767L10.2974 10.7416L10.269 10.7162L10.2406 10.6908L10.2047 10.6714L10.1823 10.64L10.1509 10.6161L10.13 10.5833L10.1045 10.5534L10.0732 10.531L10.0418 10.5056L10.0179 10.4757L10.0014 10.4399L9.9745 10.4115L9.9461 10.3846L9.91621 10.3592L9.90276 10.3204L9.87735 10.292L9.85492 10.2606L9.82353 10.2352L9.81008 10.1979L9.77869 10.1725L9.76225 10.1381L9.73833 10.1068L9.7204 10.0724L9.69798 10.041L9.68303 10.0052L9.65313 9.97829L9.63968 9.94095L9.61278 9.91257L9.59932 9.87523L9.58437 9.83938L9.56943 9.80353L9.54701 9.77216L9.53206 9.73631L9.50665 9.70644L9.49319 9.66909L9.48423 9.63175L9.4633 9.59739L9.45134 9.56155L9.43191 9.52719L9.42593 9.48835L9.41397 9.45101L9.39454 9.41815L9.37511 9.38379L9.37063 9.34496L9.35119 9.3106L9.3497 9.27027L9.33774 9.23442L9.32279 9.19857L9.31382 9.15974L9.30187 9.12389L9.29888 9.08505L9.28991 9.04771L9.27197 9.01186L9.26898 8.97302L9.263 8.93418L9.26001 8.89535L9.25105 8.858L9.24955 8.81917L9.2361 8.78332L9.23311 8.74448L9.22862 8.70564L9.22563 8.6683L9.21368 8.62946L9.21667 8.59063L9.20471 8.55328L9.20919 8.51445L9.20022 8.47561L9.21218 8.43677V8.39794L9.20321 8.36059L9.21069 8.32176L9.2077 8.28292L9.20471 8.24408L9.20919 8.20525L9.20321 8.16641L9.21517 8.12907L9.21816 8.09023L9.21218 8.05139L9.22563 8.01405L9.21517 7.97372L9.22713 7.93638L9.22862 7.89754L9.24058 7.8602V7.82136L9.25254 7.78402L9.26151 7.74668L9.25553 7.70635L9.27347 7.6705L9.27945 7.63315L9.28244 7.59432L9.28991 7.55548L9.30934 7.52112L9.31681 7.48229L9.3198 7.44345L9.33176 7.4076L9.34671 7.37175L9.35867 7.33441L9.3766 7.30005L9.38258 7.26122L9.39006 7.22238L9.40949 7.18952L9.41995 7.15218L9.43042 7.11483L9.44835 7.08048L9.47077 7.04762L9.47825 7.00878L9.4917 6.97293L9.51711 6.94156L9.52608 6.90272L9.54252 6.86837L9.56943 6.83849L9.58288 6.80264L9.59783 6.7668L9.62324 6.73692L9.6337 6.69808L9.6636 6.6712L9.67555 6.63236L9.69648 6.60099L9.71591 6.56813L9.74581 6.54124L9.75777 6.50241L9.78617 6.47552L9.8056 6.44266L9.82802 6.4098L9.85343 6.37992L9.87735 6.35005L9.89229 6.3142L9.92518 6.2903L9.94461 6.25594L9.976 6.23204L10.0014 6.20217L10.0238 6.1723L10.0492 6.14242L10.0761 6.11553L10.0956 6.08118L10.1315 6.06176L10.1524 6.0274L10.1793 5.99902L10.2047 5.97064L10.2406 5.95272L10.2615 5.91986L10.2989 5.90193L10.3198 5.86758L10.3512 5.84517L10.3781 5.81679L10.414 5.79887L10.4439 5.77646L10.4752 5.75256L10.5022 5.72567L10.532 5.70028L10.5694 5.68534L10.5978 5.65995L10.6307 5.63904L10.6591 5.61364L10.695 5.59572L10.7249 5.57033L10.7592 5.5524L10.7921 5.53298L10.828 5.51805L10.8609 5.49863L10.8908 5.47323L10.9297 5.46278L10.964 5.44485L10.9954 5.42245L11.0313 5.40751L11.0687 5.39556L11.1001 5.37465L11.1359 5.35822L11.1688 5.33731L11.2047 5.32237L11.2406 5.31042L11.2749 5.291L11.3123 5.28054L11.3497 5.26859L11.387 5.25814L11.4229 5.2447L11.4603 5.23424L11.4947 5.21482L11.5335 5.21034L11.5709 5.20287L11.6053 5.18495L11.6456 5.18196L11.6815 5.17001L11.7189 5.15955L11.7577 5.15358L11.7966 5.15208L11.834 5.14312L11.8713 5.13565L11.9087 5.1237L11.9461 5.11474L11.9849 5.10578L12.0238 5.11175L12.0612 5.0998L12.1 5.09682L12.1389 5.09234L12.1778 5.09532L12.2151 5.08487L12.254 5.09084L12.2929 5.08636L12.3317 5.08337L12.3691 5.07441L12.408 5.08039L12.4468 5.08636L12.4857 5.08188L12.5246 5.08487L12.5634 5.08188H12.6023L12.6411 5.08039L12.6785 5.08487L12.7174 5.08785L12.7547 5.09831L12.7936 5.10429L12.8325 5.09831L12.8713 5.10578L12.9087 5.11175L12.9476 5.11474L12.9864 5.11773L13.0223 5.13565L13.0612 5.14163L13.0985 5.1491L13.1359 5.15657L13.1733 5.16702L13.2106 5.17449L13.2495 5.17897L13.2869 5.19241L13.3242 5.19988L13.3601 5.21333L13.399 5.21781L13.4349 5.23275L13.4722 5.24171L13.5081 5.26113L13.544 5.27308L13.5813 5.28204L13.6172 5.29698L13.6516 5.31639L13.6875 5.32834L13.7248 5.3388L13.7577 5.35971L13.7966 5.37017L13.831 5.3851L13.8609 5.41199L13.8967 5.42842L13.9341 5.43888L13.9685 5.45531L13.9984 5.4822L14.0387 5.48967L14.0716 5.51058L14.0985 5.54045L14.1389 5.54792L14.1688 5.57331L14.2002 5.59572L14.2316 5.61962L14.2644 5.63754L14.2973 5.65846L14.3317 5.67638L14.3586 5.70625L14.39 5.72866L14.4229 5.74957L14.4528 5.77347L14.4857 5.79289L14.5096 5.82575L14.544 5.84517L14.5724 5.87056L14.6023 5.89596L14.6247 5.92733L14.6561 5.95122L14.6845 5.97662L14.7159 6.00052L14.7413 6.0289L14.7712 6.05429L14.7981 6.08118L14.825 6.10956L14.8489 6.13943L14.8698 6.1723L14.9012 6.19769L14.9176 6.23354L14.952 6.25445L14.967 6.29329L14.9924 6.32167L15.0193 6.35005L15.0477 6.37693L15.0641 6.41129L15.088 6.44266L15.1135 6.47253L15.1344 6.5039L15.1568 6.53527L15.1718 6.57112L15.2002 6.5995L15.2166 6.63535L15.2375 6.66821L15.2525 6.70257L15.2779 6.73393L15.2943 6.76829L15.3108 6.80264L15.3257 6.83849L15.3496 6.86986L15.3691 6.90272L15.3765 6.94305L15.4049 6.97144L15.4124 7.01027L15.4348 7.04313L15.4378 7.08346L15.4617 7.11483L15.4707 7.15367L15.4871 7.18802L15.4961 7.22686L15.517 7.25972L15.52 7.29856L15.5365 7.33441L15.5544 7.36877L15.5604 7.4076L15.5679 7.44644L15.5843 7.48229L15.5933 7.51963L15.5948 7.55847L15.6127 7.59432L15.6232 7.63166L15.6291 7.669L15.6277 7.70933L15.6456 7.74518L15.6411 7.78402L15.6546 7.82136L15.6516 7.8602L15.6575 7.89904L15.6695 7.93638L15.6725 7.97522L15.677 8.01256L15.6874 8.05139L15.6859 8.09023L15.6874 8.12907L15.6904 8.16641L15.6859 8.20525L15.6845 8.24408L15.6874 8.28292L15.6949 8.32176Z" fill="#E1FCEE" stroke="black" stroke-width="2" mask="url(#path-2-inside-1_202_5529)"/>
<mask id="path-3-inside-2_202_5529" fill="white">
<path d="M15.8582 100.291V100.352L15.844 100.411L15.8535 100.472L15.8558 100.533L15.8323 100.595L15.8487 100.656L15.8252 100.715L15.8299 100.776V100.837L15.8111 100.896L15.8158 100.957L15.8016 101.018L15.7828 101.077L15.7805 101.138L15.764 101.197L15.7687 101.258L15.7569 101.319L15.7286 101.374L15.7169 101.435V101.496L15.6886 101.552L15.6792 101.614L15.658 101.67L15.6556 101.734L15.6227 101.785L15.618 101.849L15.5921 101.903L15.5709 101.96L15.5544 102.018L15.5285 102.075L15.5002 102.129L15.4955 102.193L15.4531 102.24L15.4296 102.296L15.4131 102.355L15.3919 102.411L15.3542 102.463L15.3307 102.517L15.3048 102.574L15.2741 102.626L15.2624 102.689L15.2294 102.741L15.187 102.786L15.1705 102.847L15.1329 102.894L15.1022 102.946L15.0716 103L15.041 103.051L15.0057 103.101L14.9633 103.146L14.9468 103.209L14.895 103.247L14.8738 103.306L14.8385 103.355L14.7914 103.395L14.7608 103.449L14.7184 103.494L14.6854 103.546L14.643 103.588L14.5936 103.626L14.563 103.68L14.5276 103.729L14.4758 103.767L14.4452 103.821L14.4005 103.861L14.3487 103.896L14.3181 103.95L14.2592 103.976L14.2215 104.026L14.1744 104.063L14.1273 104.103L14.092 104.155L14.0355 104.183L13.9954 104.228L13.9483 104.268L13.8965 104.301L13.8471 104.336L13.7976 104.369L13.7529 104.412L13.7105 104.456L13.6493 104.475L13.6045 104.52L13.5527 104.548L13.5009 104.581L13.4562 104.623L13.3973 104.645L13.3525 104.689L13.2984 104.715L13.2419 104.741L13.1924 104.774L13.143 104.812L13.0864 104.833L13.0323 104.866L12.9687 104.875L12.9216 104.915L12.8604 104.929L12.8109 104.965L12.752 104.981L12.6955 105.007L12.6367 105.024L12.5801 105.045L12.526 105.071L12.4671 105.085L12.4106 105.108L12.3588 105.144L12.2952 105.148L12.241 105.174L12.1822 105.191L12.1209 105.202L12.0668 105.231L12.0079 105.249L11.9467 105.257L11.8878 105.271L11.8289 105.289L11.77 105.304L11.7112 105.313L11.6499 105.327L11.5887 105.322L11.5298 105.341L11.471 105.351L11.4074 105.353L11.3485 105.369L11.2873 105.372L11.2284 105.377L11.1672 105.386L11.106 105.391L11.0447 105.381L10.9859 105.402L10.9246 105.4L10.8634 105.386L10.8022 105.407L10.741 105.386L10.6797 105.4L10.6209 105.393L10.5596 105.384L10.4984 105.393L10.4372 105.377L10.3783 105.372L10.3171 105.374L10.2558 105.372L10.197 105.362L10.1357 105.348L10.0722 105.365L10.0156 105.344L9.95441 105.337L9.89554 105.32L9.83431 105.311L9.77544 105.304L9.71186 105.306L9.6577 105.273L9.59411 105.275L9.53524 105.259L9.47872 105.231H9.4175L9.36333 105.198L9.30446 105.181L9.24323 105.169L9.18436 105.155L9.1302 105.127L9.07368 105.108L9.01481 105.087L8.95829 105.071L8.89942 105.052L8.83819 105.04L8.78167 105.016L8.72986 104.986L8.67099 104.969L8.61918 104.936L8.56031 104.918L8.51086 104.88L8.45669 104.854L8.40018 104.828L8.34366 104.805L8.2895 104.779L8.23533 104.751L8.18824 104.708L8.13407 104.682L8.07991 104.654L8.0281 104.621L7.97394 104.595L7.92449 104.558L7.87974 104.515L7.83029 104.48L7.77613 104.454L7.72667 104.416L7.67958 104.379L7.63248 104.341L7.58302 104.303L7.53122 104.27L7.48647 104.23L7.44173 104.19L7.4017 104.143L7.3546 104.103L7.30986 104.063L7.26511 104.023L7.20859 103.993L7.17327 103.943L7.12382 103.906L7.09085 103.854L7.05082 103.807L7.00136 103.772L6.95191 103.732L6.91423 103.685L6.88833 103.628L6.84594 103.583L6.8012 103.541L6.7541 103.501L6.7329 103.44L6.69287 103.395L6.65755 103.346L6.60809 103.306L6.5869 103.247L6.53745 103.207L6.51154 103.153L6.47386 103.103L6.44561 103.049L6.41028 103L6.38673 102.943L6.33963 102.901L6.31844 102.842L6.27605 102.797L6.25486 102.738L6.23131 102.682L6.20776 102.626L6.17244 102.576L6.14889 102.52L6.10885 102.473L6.08766 102.414L6.07353 102.355L6.04056 102.301L6.02172 102.244L5.99111 102.19L5.98169 102.129L5.96285 102.07L5.93224 102.018L5.90162 101.964L5.89456 101.903L5.86394 101.849L5.86159 101.785L5.84275 101.729L5.8192 101.672L5.80507 101.611L5.78623 101.555L5.78152 101.494L5.76739 101.435L5.73913 101.378L5.73442 101.317L5.725 101.256L5.72029 101.195L5.70617 101.136L5.70381 101.075L5.68262 101.018L5.67791 100.957L5.67084 100.896L5.66613 100.837L5.64729 100.776L5.652 100.715L5.63316 100.656L5.64023 100.595L5.6261 100.533L5.64494 100.472V100.411L5.63081 100.352L5.64258 100.291L5.63787 100.23L5.63316 100.169L5.64023 100.108L5.63081 100.046L5.64965 99.9875L5.65436 99.9263L5.64494 99.8651L5.66613 99.8063L5.64965 99.7428L5.66849 99.6839L5.67084 99.6227L5.68968 99.5639V99.5027L5.70852 99.4439L5.72265 99.3851L5.71323 99.3215L5.74149 99.2651L5.75091 99.2062L5.75562 99.145L5.76739 99.0838L5.79801 99.0297L5.80978 98.9685L5.81449 98.9074L5.83333 98.8509L5.85688 98.7944L5.87572 98.7356L5.90398 98.6814L5.9134 98.6203L5.92517 98.5591L5.95579 98.5073L5.97227 98.4485L5.98875 98.3896L6.01701 98.3355L6.05234 98.2837L6.06411 98.2225L6.08531 98.1661L6.12534 98.1166L6.13947 98.0555L6.16537 98.0013L6.20776 97.9543L6.22895 97.8978L6.2525 97.8413L6.29254 97.7943L6.30902 97.7331L6.35612 97.6907L6.37496 97.6295L6.40793 97.5801L6.43854 97.5283L6.48564 97.486L6.50448 97.4248L6.54922 97.3824L6.57984 97.3307L6.61516 97.2789L6.65519 97.2318L6.69287 97.1848L6.71642 97.1283L6.76823 97.0906L6.79884 97.0365L6.84829 96.9988L6.88833 96.9518L6.92365 96.9047L6.96368 96.8576L7.00607 96.8153L7.03669 96.7612L7.0932 96.7306L7.12617 96.6764L7.16856 96.6317L7.20859 96.587L7.26511 96.5588L7.29808 96.507L7.35695 96.4788L7.38992 96.4246L7.43938 96.3893L7.48176 96.3446L7.53828 96.3164L7.58538 96.2811L7.63483 96.2434L7.67722 96.2011L7.72432 96.1611L7.78319 96.1375L7.82793 96.0975L7.87974 96.0646L7.92449 96.0246L7.981 95.9963L8.0281 95.9563L8.08226 95.9281L8.13407 95.8975L8.19059 95.874L8.2424 95.8434L8.2895 95.8034L8.35072 95.7869L8.40489 95.7587L8.45434 95.7234L8.51086 95.6998L8.56973 95.681L8.61918 95.6481L8.6757 95.6222L8.72751 95.5892L8.78403 95.5657L8.84054 95.5469L8.89471 95.5163L8.95358 95.4998L9.01245 95.481L9.07133 95.4645L9.12784 95.4433L9.18672 95.4268L9.24088 95.3963L9.30211 95.3892L9.36098 95.3774L9.41514 95.3492L9.47872 95.3445L9.53524 95.3257L9.59411 95.3092L9.65534 95.2998L9.71657 95.2974L9.77544 95.2833L9.83431 95.2715L9.89319 95.2527L9.95206 95.2386L10.0133 95.2245L10.0745 95.2339L10.1334 95.2151L10.1946 95.2103L10.2558 95.2033L10.3171 95.208L10.3759 95.1915L10.4372 95.2009L10.4984 95.1939L10.5596 95.1892L10.6185 95.175L10.6797 95.1845L10.741 95.1939L10.8022 95.1868L10.8634 95.1915L10.9246 95.1868H10.9859L11.0471 95.1845L11.106 95.1915L11.1672 95.1962L11.2261 95.2127L11.2873 95.2221L11.3485 95.2127L11.4097 95.2245L11.4686 95.2339L11.5298 95.2386L11.5911 95.2433L11.6476 95.2715L11.7088 95.2809L11.7677 95.2927L11.8266 95.3045L11.8854 95.321L11.9443 95.3327L12.0055 95.3398L12.0644 95.361L12.1233 95.3727L12.1798 95.3939L12.241 95.401L12.2975 95.4245L12.3564 95.4386L12.4129 95.4692L12.4695 95.488L12.5283 95.5022L12.5848 95.5257L12.639 95.5563L12.6955 95.5751L12.7544 95.5916L12.8062 95.6245L12.8674 95.641L12.9216 95.6645L12.9687 95.7069L13.0252 95.7328L13.0841 95.7492L13.1382 95.7751L13.1853 95.8175L13.2489 95.8293L13.3007 95.8622L13.3431 95.9093L13.4067 95.921L13.4538 95.961L13.5033 95.9963L13.5527 96.034L13.6045 96.0622L13.6563 96.0952L13.7105 96.1234L13.7529 96.1705L13.8023 96.2058L13.8541 96.2387L13.9012 96.2764L13.953 96.307L13.9907 96.3587L14.0449 96.3893L14.0896 96.4293L14.1367 96.4694L14.1721 96.5188L14.2215 96.5564L14.2662 96.5964L14.3157 96.6341L14.3557 96.6788L14.4028 96.7188L14.4452 96.7612L14.4876 96.8059L14.5253 96.8529L14.5583 96.9047L14.6077 96.9447L14.6336 97.0012L14.6878 97.0341L14.7113 97.0953L14.7514 97.14L14.7937 97.1848L14.8385 97.2271L14.8644 97.2812L14.9021 97.3307L14.9421 97.3777L14.9751 97.4271L15.0104 97.4766L15.0339 97.533L15.0787 97.5777L15.1046 97.6342L15.1376 97.686L15.1611 97.7401L15.2011 97.7895L15.227 97.8437L15.253 97.8978L15.2765 97.9543L15.3142 98.0037L15.3448 98.0555L15.3566 98.119L15.4013 98.1637L15.4131 98.2249L15.4484 98.2767L15.4531 98.3402L15.4908 98.3896L15.5049 98.4508L15.5308 98.5049L15.545 98.5661L15.5779 98.6179L15.5826 98.6791L15.6085 98.7356L15.6368 98.7897L15.6462 98.8509L15.658 98.9121L15.6839 98.9685L15.698 99.0274L15.7004 99.0886L15.7286 99.145L15.7451 99.2039L15.7545 99.2627L15.7522 99.3262L15.7805 99.3827L15.7734 99.4439L15.7946 99.5027L15.7899 99.5639L15.7993 99.6251L15.8181 99.6839L15.8228 99.7451L15.8299 99.804L15.8464 99.8651L15.844 99.9263L15.8464 99.9875L15.8511 100.046L15.844 100.108L15.8417 100.169L15.8464 100.23L15.8582 100.291Z"/>
</mask>
<path d="M15.8582 100.291V100.352L15.844 100.411L15.8535 100.472L15.8558 100.533L15.8323 100.595L15.8487 100.656L15.8252 100.715L15.8299 100.776V100.837L15.8111 100.896L15.8158 100.957L15.8016 101.018L15.7828 101.077L15.7805 101.138L15.764 101.197L15.7687 101.258L15.7569 101.319L15.7286 101.374L15.7169 101.435V101.496L15.6886 101.552L15.6792 101.614L15.658 101.67L15.6556 101.734L15.6227 101.785L15.618 101.849L15.5921 101.903L15.5709 101.96L15.5544 102.018L15.5285 102.075L15.5002 102.129L15.4955 102.193L15.4531 102.24L15.4296 102.296L15.4131 102.355L15.3919 102.411L15.3542 102.463L15.3307 102.517L15.3048 102.574L15.2741 102.626L15.2624 102.689L15.2294 102.741L15.187 102.786L15.1705 102.847L15.1329 102.894L15.1022 102.946L15.0716 103L15.041 103.051L15.0057 103.101L14.9633 103.146L14.9468 103.209L14.895 103.247L14.8738 103.306L14.8385 103.355L14.7914 103.395L14.7608 103.449L14.7184 103.494L14.6854 103.546L14.643 103.588L14.5936 103.626L14.563 103.68L14.5276 103.729L14.4758 103.767L14.4452 103.821L14.4005 103.861L14.3487 103.896L14.3181 103.95L14.2592 103.976L14.2215 104.026L14.1744 104.063L14.1273 104.103L14.092 104.155L14.0355 104.183L13.9954 104.228L13.9483 104.268L13.8965 104.301L13.8471 104.336L13.7976 104.369L13.7529 104.412L13.7105 104.456L13.6493 104.475L13.6045 104.52L13.5527 104.548L13.5009 104.581L13.4562 104.623L13.3973 104.645L13.3525 104.689L13.2984 104.715L13.2419 104.741L13.1924 104.774L13.143 104.812L13.0864 104.833L13.0323 104.866L12.9687 104.875L12.9216 104.915L12.8604 104.929L12.8109 104.965L12.752 104.981L12.6955 105.007L12.6367 105.024L12.5801 105.045L12.526 105.071L12.4671 105.085L12.4106 105.108L12.3588 105.144L12.2952 105.148L12.241 105.174L12.1822 105.191L12.1209 105.202L12.0668 105.231L12.0079 105.249L11.9467 105.257L11.8878 105.271L11.8289 105.289L11.77 105.304L11.7112 105.313L11.6499 105.327L11.5887 105.322L11.5298 105.341L11.471 105.351L11.4074 105.353L11.3485 105.369L11.2873 105.372L11.2284 105.377L11.1672 105.386L11.106 105.391L11.0447 105.381L10.9859 105.402L10.9246 105.4L10.8634 105.386L10.8022 105.407L10.741 105.386L10.6797 105.4L10.6209 105.393L10.5596 105.384L10.4984 105.393L10.4372 105.377L10.3783 105.372L10.3171 105.374L10.2558 105.372L10.197 105.362L10.1357 105.348L10.0722 105.365L10.0156 105.344L9.95441 105.337L9.89554 105.32L9.83431 105.311L9.77544 105.304L9.71186 105.306L9.6577 105.273L9.59411 105.275L9.53524 105.259L9.47872 105.231H9.4175L9.36333 105.198L9.30446 105.181L9.24323 105.169L9.18436 105.155L9.1302 105.127L9.07368 105.108L9.01481 105.087L8.95829 105.071L8.89942 105.052L8.83819 105.04L8.78167 105.016L8.72986 104.986L8.67099 104.969L8.61918 104.936L8.56031 104.918L8.51086 104.88L8.45669 104.854L8.40018 104.828L8.34366 104.805L8.2895 104.779L8.23533 104.751L8.18824 104.708L8.13407 104.682L8.07991 104.654L8.0281 104.621L7.97394 104.595L7.92449 104.558L7.87974 104.515L7.83029 104.48L7.77613 104.454L7.72667 104.416L7.67958 104.379L7.63248 104.341L7.58302 104.303L7.53122 104.27L7.48647 104.23L7.44173 104.19L7.4017 104.143L7.3546 104.103L7.30986 104.063L7.26511 104.023L7.20859 103.993L7.17327 103.943L7.12382 103.906L7.09085 103.854L7.05082 103.807L7.00136 103.772L6.95191 103.732L6.91423 103.685L6.88833 103.628L6.84594 103.583L6.8012 103.541L6.7541 103.501L6.7329 103.44L6.69287 103.395L6.65755 103.346L6.60809 103.306L6.5869 103.247L6.53745 103.207L6.51154 103.153L6.47386 103.103L6.44561 103.049L6.41028 103L6.38673 102.943L6.33963 102.901L6.31844 102.842L6.27605 102.797L6.25486 102.738L6.23131 102.682L6.20776 102.626L6.17244 102.576L6.14889 102.52L6.10885 102.473L6.08766 102.414L6.07353 102.355L6.04056 102.301L6.02172 102.244L5.99111 102.19L5.98169 102.129L5.96285 102.07L5.93224 102.018L5.90162 101.964L5.89456 101.903L5.86394 101.849L5.86159 101.785L5.84275 101.729L5.8192 101.672L5.80507 101.611L5.78623 101.555L5.78152 101.494L5.76739 101.435L5.73913 101.378L5.73442 101.317L5.725 101.256L5.72029 101.195L5.70617 101.136L5.70381 101.075L5.68262 101.018L5.67791 100.957L5.67084 100.896L5.66613 100.837L5.64729 100.776L5.652 100.715L5.63316 100.656L5.64023 100.595L5.6261 100.533L5.64494 100.472V100.411L5.63081 100.352L5.64258 100.291L5.63787 100.23L5.63316 100.169L5.64023 100.108L5.63081 100.046L5.64965 99.9875L5.65436 99.9263L5.64494 99.8651L5.66613 99.8063L5.64965 99.7428L5.66849 99.6839L5.67084 99.6227L5.68968 99.5639V99.5027L5.70852 99.4439L5.72265 99.3851L5.71323 99.3215L5.74149 99.2651L5.75091 99.2062L5.75562 99.145L5.76739 99.0838L5.79801 99.0297L5.80978 98.9685L5.81449 98.9074L5.83333 98.8509L5.85688 98.7944L5.87572 98.7356L5.90398 98.6814L5.9134 98.6203L5.92517 98.5591L5.95579 98.5073L5.97227 98.4485L5.98875 98.3896L6.01701 98.3355L6.05234 98.2837L6.06411 98.2225L6.08531 98.1661L6.12534 98.1166L6.13947 98.0555L6.16537 98.0013L6.20776 97.9543L6.22895 97.8978L6.2525 97.8413L6.29254 97.7943L6.30902 97.7331L6.35612 97.6907L6.37496 97.6295L6.40793 97.5801L6.43854 97.5283L6.48564 97.486L6.50448 97.4248L6.54922 97.3824L6.57984 97.3307L6.61516 97.2789L6.65519 97.2318L6.69287 97.1848L6.71642 97.1283L6.76823 97.0906L6.79884 97.0365L6.84829 96.9988L6.88833 96.9518L6.92365 96.9047L6.96368 96.8576L7.00607 96.8153L7.03669 96.7612L7.0932 96.7306L7.12617 96.6764L7.16856 96.6317L7.20859 96.587L7.26511 96.5588L7.29808 96.507L7.35695 96.4788L7.38992 96.4246L7.43938 96.3893L7.48176 96.3446L7.53828 96.3164L7.58538 96.2811L7.63483 96.2434L7.67722 96.2011L7.72432 96.1611L7.78319 96.1375L7.82793 96.0975L7.87974 96.0646L7.92449 96.0246L7.981 95.9963L8.0281 95.9563L8.08226 95.9281L8.13407 95.8975L8.19059 95.874L8.2424 95.8434L8.2895 95.8034L8.35072 95.7869L8.40489 95.7587L8.45434 95.7234L8.51086 95.6998L8.56973 95.681L8.61918 95.6481L8.6757 95.6222L8.72751 95.5892L8.78403 95.5657L8.84054 95.5469L8.89471 95.5163L8.95358 95.4998L9.01245 95.481L9.07133 95.4645L9.12784 95.4433L9.18672 95.4268L9.24088 95.3963L9.30211 95.3892L9.36098 95.3774L9.41514 95.3492L9.47872 95.3445L9.53524 95.3257L9.59411 95.3092L9.65534 95.2998L9.71657 95.2974L9.77544 95.2833L9.83431 95.2715L9.89319 95.2527L9.95206 95.2386L10.0133 95.2245L10.0745 95.2339L10.1334 95.2151L10.1946 95.2103L10.2558 95.2033L10.3171 95.208L10.3759 95.1915L10.4372 95.2009L10.4984 95.1939L10.5596 95.1892L10.6185 95.175L10.6797 95.1845L10.741 95.1939L10.8022 95.1868L10.8634 95.1915L10.9246 95.1868H10.9859L11.0471 95.1845L11.106 95.1915L11.1672 95.1962L11.2261 95.2127L11.2873 95.2221L11.3485 95.2127L11.4097 95.2245L11.4686 95.2339L11.5298 95.2386L11.5911 95.2433L11.6476 95.2715L11.7088 95.2809L11.7677 95.2927L11.8266 95.3045L11.8854 95.321L11.9443 95.3327L12.0055 95.3398L12.0644 95.361L12.1233 95.3727L12.1798 95.3939L12.241 95.401L12.2975 95.4245L12.3564 95.4386L12.4129 95.4692L12.4695 95.488L12.5283 95.5022L12.5848 95.5257L12.639 95.5563L12.6955 95.5751L12.7544 95.5916L12.8062 95.6245L12.8674 95.641L12.9216 95.6645L12.9687 95.7069L13.0252 95.7328L13.0841 95.7492L13.1382 95.7751L13.1853 95.8175L13.2489 95.8293L13.3007 95.8622L13.3431 95.9093L13.4067 95.921L13.4538 95.961L13.5033 95.9963L13.5527 96.034L13.6045 96.0622L13.6563 96.0952L13.7105 96.1234L13.7529 96.1705L13.8023 96.2058L13.8541 96.2387L13.9012 96.2764L13.953 96.307L13.9907 96.3587L14.0449 96.3893L14.0896 96.4293L14.1367 96.4694L14.1721 96.5188L14.2215 96.5564L14.2662 96.5964L14.3157 96.6341L14.3557 96.6788L14.4028 96.7188L14.4452 96.7612L14.4876 96.8059L14.5253 96.8529L14.5583 96.9047L14.6077 96.9447L14.6336 97.0012L14.6878 97.0341L14.7113 97.0953L14.7514 97.14L14.7937 97.1848L14.8385 97.2271L14.8644 97.2812L14.9021 97.3307L14.9421 97.3777L14.9751 97.4271L15.0104 97.4766L15.0339 97.533L15.0787 97.5777L15.1046 97.6342L15.1376 97.686L15.1611 97.7401L15.2011 97.7895L15.227 97.8437L15.253 97.8978L15.2765 97.9543L15.3142 98.0037L15.3448 98.0555L15.3566 98.119L15.4013 98.1637L15.4131 98.2249L15.4484 98.2767L15.4531 98.3402L15.4908 98.3896L15.5049 98.4508L15.5308 98.5049L15.545 98.5661L15.5779 98.6179L15.5826 98.6791L15.6085 98.7356L15.6368 98.7897L15.6462 98.8509L15.658 98.9121L15.6839 98.9685L15.698 99.0274L15.7004 99.0886L15.7286 99.145L15.7451 99.2039L15.7545 99.2627L15.7522 99.3262L15.7805 99.3827L15.7734 99.4439L15.7946 99.5027L15.7899 99.5639L15.7993 99.6251L15.8181 99.6839L15.8228 99.7451L15.8299 99.804L15.8464 99.8651L15.844 99.9263L15.8464 99.9875L15.8511 100.046L15.844 100.108L15.8417 100.169L15.8464 100.23L15.8582 100.291Z" fill="#E1FCEE" stroke="black" stroke-width="2" mask="url(#path-3-inside-2_202_5529)"/>
<path d="M7.35752 89.3079V89.3487L7.34809 89.3879L7.35438 89.4288L7.35595 89.4696L7.34024 89.5104L7.35124 89.5513L7.33552 89.5905L7.33867 89.6314V89.6722L7.32609 89.7114L7.32924 89.7523L7.31981 89.7931L7.30724 89.8324L7.30567 89.8732L7.29466 89.9125L7.29781 89.9533L7.28995 89.9941L7.27109 90.0302L7.26323 90.0711V90.1119L7.24438 90.1496L7.23809 90.1904L7.22395 90.2281L7.22238 90.2705L7.20038 90.3051L7.19723 90.3475L7.17995 90.3836L7.1658 90.4213L7.1548 90.4605L7.13752 90.4982L7.11866 90.5343L7.11552 90.5767L7.08723 90.6081L7.07151 90.6458L7.06051 90.6851L7.04637 90.7228L7.02123 90.7573L7.00551 90.7935L6.98822 90.8311L6.9678 90.8657L6.95994 90.9081L6.93794 90.9426L6.90965 90.9725L6.89865 91.0133L6.87351 91.0447L6.85308 91.0793L6.83265 91.1154L6.81222 91.1499L6.78865 91.1829L6.76036 91.2127L6.74936 91.2551L6.71479 91.2803L6.70064 91.3195L6.67707 91.3525L6.64564 91.3792L6.62521 91.4153L6.59692 91.4452L6.57492 91.4797L6.54664 91.508L6.51364 91.5331L6.49321 91.5692L6.46963 91.6022L6.43506 91.6273L6.41463 91.6635L6.38477 91.6902L6.3502 91.7137L6.32977 91.7498L6.29049 91.7671L6.26534 91.8001L6.23391 91.8252L6.20248 91.8519L6.17891 91.8865L6.14119 91.9053L6.11448 91.9351L6.08305 91.9618L6.04848 91.9838L6.01548 92.0074L5.98247 92.0294L5.95262 92.0576L5.92433 92.0875L5.88347 92.1L5.85361 92.1299L5.81904 92.1487L5.78447 92.1707L5.75461 92.199L5.71532 92.2131L5.68546 92.2429L5.64932 92.2602L5.6116 92.2775L5.5786 92.2995L5.5456 92.3246L5.50788 92.3387L5.47174 92.3607L5.42931 92.367L5.39788 92.3937L5.35702 92.4031L5.32402 92.4267L5.28473 92.4377L5.24702 92.4549L5.20773 92.4659L5.17002 92.4801L5.13387 92.4973L5.09458 92.5068L5.05687 92.5225L5.0223 92.546L4.97987 92.5492L4.94372 92.5664L4.90443 92.5774L4.86358 92.5853L4.82743 92.6041L4.78815 92.6167L4.74729 92.6214L4.708 92.6308L4.66871 92.6434L4.62942 92.6528L4.59014 92.6591L4.54928 92.6685L4.50842 92.6654L4.46913 92.6779L4.42985 92.6842L4.38742 92.6858L4.34813 92.6968L4.30727 92.6983L4.26798 92.7015L4.22712 92.7078L4.18627 92.7109L4.14541 92.7046L4.10612 92.7188L4.06526 92.7172L4.0244 92.7078L3.98354 92.7219L3.94269 92.7078L3.90183 92.7172L3.86254 92.7125L3.82168 92.7062L3.78082 92.7125L3.73996 92.7015L3.70068 92.6983L3.65982 92.6999L3.61896 92.6983L3.57967 92.6921L3.53881 92.6826L3.49638 92.6936L3.45867 92.6795L3.41781 92.6748L3.37852 92.6638L3.33766 92.6575L3.29838 92.6528L3.25595 92.6544L3.2198 92.6324L3.17737 92.634L3.13809 92.623L3.10037 92.6041H3.05951L3.02337 92.5821L2.98408 92.5711L2.94322 92.5633L2.90393 92.5539L2.86779 92.535L2.83007 92.5225L2.79079 92.5083L2.75307 92.4973L2.71378 92.4848L2.67293 92.4769L2.63521 92.4612L2.60064 92.4408L2.56135 92.4298L2.52678 92.4078L2.48749 92.3953L2.45449 92.3701L2.41834 92.3529L2.38063 92.3356L2.34291 92.3199L2.30677 92.3026L2.27062 92.2838L2.2392 92.2555L2.20305 92.2382L2.16691 92.2194L2.13233 92.1974L2.09619 92.1801L2.06319 92.155L2.03333 92.1267L2.00033 92.1032L1.96419 92.0859L1.93118 92.0608L1.89975 92.0356L1.86832 92.0105L1.83532 91.9854L1.80075 91.9634L1.77089 91.9367L1.74103 91.91L1.71432 91.8786L1.68289 91.8519L1.65303 91.8252L1.62317 91.7985L1.58546 91.7781L1.56188 91.7451L1.52888 91.72L1.50688 91.6854L1.48017 91.654L1.44717 91.6305L1.41417 91.6038L1.38902 91.5724L1.37174 91.5347L1.34345 91.5048L1.31359 91.4766L1.28216 91.4499L1.26802 91.409L1.2413 91.3792L1.21773 91.3462L1.18473 91.3195L1.17059 91.2803L1.13758 91.2536L1.1203 91.2175L1.09515 91.1845L1.0763 91.1484L1.05272 91.1154L1.03701 91.0777L1.00558 91.0494L0.991436 91.0102L0.963149 90.9803L0.949006 90.9411L0.933291 90.9034L0.917576 90.8657L0.894004 90.8327L0.878289 90.795L0.851573 90.7636L0.83743 90.7244L0.828001 90.6851L0.806 90.649L0.793429 90.6113L0.772999 90.5752L0.766713 90.5343L0.754141 90.4951L0.733712 90.4605L0.713283 90.4244L0.708568 90.3836L0.688139 90.3475L0.686568 90.3051L0.673996 90.2674L0.658281 90.2297L0.648852 90.1888L0.63628 90.1512L0.633137 90.1103L0.623708 90.0711L0.60485 90.0334L0.601707 89.9925L0.595421 89.9517L0.592278 89.9109L0.582849 89.8716L0.581278 89.8308L0.567135 89.7931L0.563992 89.7523L0.559277 89.7114L0.556134 89.6722L0.543562 89.6314L0.546705 89.5905L0.534133 89.5513L0.538848 89.5104L0.529419 89.4696L0.541991 89.4288V89.3879L0.532562 89.3487L0.540419 89.3079L0.537276 89.267L0.534133 89.2262L0.538848 89.1854L0.532562 89.1445L0.545134 89.1053L0.548277 89.0644L0.541991 89.0236L0.556134 88.9843L0.545134 88.9419L0.557706 88.9027L0.559277 88.8619L0.571849 88.8226V88.7818L0.584421 88.7425L0.59385 88.7032L0.587564 88.6608L0.606422 88.6232L0.612708 88.5839L0.615851 88.5431L0.623708 88.5022L0.644137 88.4661L0.651995 88.4253L0.655138 88.3845L0.66771 88.3468L0.683425 88.3091L0.695996 88.2698L0.714854 88.2337L0.72114 88.1929L0.728998 88.152L0.749427 88.1175L0.760427 88.0782L0.771428 88.039L0.790286 88.0028L0.813858 87.9683L0.821715 87.9275L0.835859 87.8898L0.862574 87.8568L0.872003 87.816L0.889289 87.7799L0.917576 87.7484L0.931719 87.7108L0.947434 87.6731L0.974149 87.6417L0.98515 87.6008L1.01658 87.5726L1.02915 87.5317L1.05115 87.4987L1.07158 87.4642L1.10301 87.4359L1.11558 87.3951L1.14544 87.3668L1.16587 87.3323L1.18944 87.2977L1.21616 87.2663L1.2413 87.2349L1.25702 87.1972L1.29159 87.1721L1.31202 87.136L1.34502 87.1109L1.37174 87.0795L1.39531 87.048L1.42202 87.0166L1.45031 86.9884L1.47074 86.9522L1.50845 86.9318L1.53046 86.8957L1.55874 86.8659L1.58546 86.836L1.62317 86.8172L1.64517 86.7826L1.68446 86.7638L1.70646 86.7277L1.73946 86.7041L1.76775 86.6743L1.80547 86.6554L1.83689 86.6319L1.8699 86.6068L1.89818 86.5785L1.92961 86.5518L1.9689 86.5361L1.99876 86.5094L2.03333 86.4874L2.06319 86.4607L2.1009 86.4419L2.13233 86.4152L2.16848 86.3963L2.20305 86.3759L2.24077 86.3602L2.27534 86.3398L2.30677 86.3131L2.34763 86.3021L2.38377 86.2833L2.41677 86.2597L2.45449 86.244L2.49378 86.2314L2.52678 86.2094L2.56449 86.1922L2.59907 86.1702L2.63678 86.1545L2.6745 86.1419L2.71064 86.1215L2.74993 86.1105L2.78922 86.098L2.8285 86.087L2.86622 86.0728L2.90551 86.0618L2.94165 86.0414L2.98251 86.0367L3.0218 86.0289L3.05794 86.01L3.10037 86.0069L3.13809 85.9943L3.17737 85.9833L3.21823 85.977L3.25909 85.9755L3.29838 85.966L3.33766 85.9582L3.37695 85.9456L3.41624 85.9362L3.4571 85.9268L3.49796 85.9331L3.53724 85.9205L3.5781 85.9174L3.61896 85.9126L3.65982 85.9158L3.69911 85.9048L3.73996 85.9111L3.78082 85.9064L3.82168 85.9032L3.86097 85.8938L3.90183 85.9001L3.94269 85.9064L3.98354 85.9017L4.0244 85.9048L4.06526 85.9017H4.10612L4.14698 85.9001L4.18627 85.9048L4.22712 85.9079L4.26641 85.9189L4.30727 85.9252L4.34813 85.9189L4.38899 85.9268L4.42827 85.9331L4.46913 85.9362L4.50999 85.9393L4.54771 85.9582L4.58857 85.9645L4.62785 85.9723L4.66714 85.9802L4.70643 85.9912L4.74571 85.999L4.78657 86.0037L4.82586 86.0179L4.86515 86.0257L4.90286 86.0398L4.94372 86.0446L4.98144 86.0603L5.02072 86.0697L5.05844 86.0901L5.09616 86.1027L5.13544 86.1121L5.17316 86.1278L5.2093 86.1482L5.24702 86.1608L5.28631 86.1718L5.32088 86.1937L5.36174 86.2047L5.39788 86.2204L5.42931 86.2487L5.46703 86.266L5.50631 86.277L5.54246 86.2943L5.57389 86.3225L5.61632 86.3304L5.65089 86.3524L5.67918 86.3838L5.72161 86.3916L5.75304 86.4183L5.78604 86.4419L5.81904 86.467L5.85361 86.4858L5.88819 86.5078L5.92433 86.5267L5.95262 86.5581L5.98562 86.5816L6.02019 86.6036L6.05162 86.6287L6.08619 86.6492L6.11134 86.6837L6.14748 86.7041L6.17734 86.7308L6.20877 86.7575L6.23234 86.7905L6.26534 86.8156L6.2952 86.8423L6.3282 86.8674L6.35492 86.8973L6.38635 86.924L6.41463 86.9522L6.44292 86.9821L6.46806 87.0135L6.49006 87.048L6.52307 87.0747L6.54035 87.1124L6.5765 87.1344L6.59221 87.1752L6.61893 87.2051L6.64721 87.2349L6.67707 87.2632L6.69436 87.2993L6.7195 87.3323L6.74622 87.3637L6.76822 87.3967L6.79179 87.4297L6.8075 87.4673L6.83736 87.4972L6.85465 87.5349L6.87665 87.5694L6.89236 87.6055L6.91908 87.6385L6.93637 87.6746L6.95365 87.7108L6.96937 87.7484L6.99451 87.7814L7.01494 87.816L7.0228 87.8584L7.05266 87.8882L7.06051 87.929L7.08409 87.9636L7.08723 88.006L7.11237 88.039L7.1218 88.0798L7.13909 88.1159L7.14852 88.1567L7.17052 88.1913L7.17366 88.2321L7.19095 88.2698L7.2098 88.3059L7.21609 88.3468L7.22395 88.3876L7.24123 88.4253L7.25066 88.4645L7.25223 88.5054L7.27109 88.5431L7.28209 88.5823L7.28838 88.6216L7.28681 88.664L7.30567 88.7017L7.30095 88.7425L7.31509 88.7818L7.31195 88.8226L7.31824 88.8634L7.33081 88.9027L7.33395 88.9435L7.33867 88.9828L7.34967 89.0236L7.34809 89.0644L7.34967 89.1053L7.35281 89.1445L7.34809 89.1854L7.34652 89.2262L7.34967 89.267L7.35752 89.3079Z" fill="#86EFCE"/>
<rect x="110.105" y="21.6178" width="56.351" height="20.1244" rx="1.5" transform="rotate(9.55644 110.105 21.6178)" fill="#D9FFEF" stroke="black" stroke-linejoin="round"/>
<path d="M116.345 30.8308L153.816 37.1393" stroke="#080B0E" stroke-linecap="round" stroke-linejoin="round"/>
<path d="M115.546 35.5759L139.444 39.5993" stroke="#080B0E" stroke-linecap="round" stroke-linejoin="round"/>
<path d="M32.6386 23.2011C32.1301 21.3362 33.2297 19.4121 35.0946 18.9036L76.4913 7.61587C78.3562 7.10736 80.2803 8.20694 80.7888 10.0719L88.7306 39.1976C89.2391 41.0625 88.1395 42.9866 86.2746 43.4951L44.8779 54.7828C43.0129 55.2913 41.0889 54.1918 40.5804 52.3268L32.6386 23.2011Z" fill="#86EFCE" stroke="black"/>
<circle cx="58.8804" cy="30.8299" r="7.10664" transform="rotate(-11.759 58.8804 30.8299)" fill="black" stroke="#86EFCE"/>
<path d="M62.0229 32.21C61.9928 32.3874 62.0604 32.5672 62.1999 32.6809C62.3393 32.7946 62.5291 32.8247 62.6968 32.7595L69.8855 29.9682C70.0472 29.9054 70.1648 29.7632 70.1962 29.5926C70.2276 29.422 70.1684 29.2473 70.0397 29.131L64.2149 23.8688C64.0794 23.7465 63.8881 23.7076 63.7157 23.7675C63.5433 23.8274 63.4172 23.9764 63.3867 24.1564L62.0229 32.21Z" stroke="white" stroke-linejoin="round"/>
<path d="M181.471 53.3014V53.3255L181.465 53.3487L181.469 53.3728L181.47 53.3969L181.46 53.421L181.467 53.4451L181.458 53.4683L181.459 53.4924V53.5165L181.452 53.5397L181.454 53.5638L181.448 53.5879L181.441 53.6111L181.44 53.6352L181.434 53.6583L181.435 53.6824L181.431 53.7066L181.42 53.7279L181.415 53.752V53.7761L181.404 53.7983L181.4 53.8224L181.392 53.8447L181.391 53.8697L181.378 53.8901L181.376 53.9151L181.366 53.9365L181.357 53.9587L181.351 53.9819L181.341 54.0042L181.33 54.0255L181.328 54.0505L181.311 54.069L181.302 54.0913L181.295 54.1145L181.287 54.1367L181.272 54.1571L181.263 54.1784L181.253 54.2007L181.241 54.2211L181.236 54.2461L181.223 54.2665L181.206 54.2841L181.2 54.3082L181.185 54.3268L181.173 54.3472L181.161 54.3685L181.149 54.3889L181.135 54.4084L181.118 54.426L181.112 54.451L181.091 54.4658L181.083 54.489L181.069 54.5085L181.05 54.5243L181.038 54.5456L181.022 54.5632L181.009 54.5836L180.992 54.6003L180.972 54.6151L180.96 54.6364L180.946 54.6559L180.926 54.6707L180.914 54.6921L180.896 54.7078L180.876 54.7217L180.864 54.7431L180.841 54.7532L180.826 54.7727L180.807 54.7876L180.789 54.8033L180.775 54.8237L180.753 54.8348L180.737 54.8524L180.718 54.8682L180.698 54.8812L180.678 54.8951L180.659 54.9081L180.641 54.9248L180.625 54.9424L180.6 54.9498L180.583 54.9674L180.562 54.9785L180.542 54.9915L180.524 55.0082L180.501 55.0165L180.483 55.0342L180.462 55.0444L180.44 55.0546L180.42 55.0675L180.401 55.0824L180.379 55.0907L180.357 55.1037L180.332 55.1074L180.314 55.1232L180.29 55.1287L180.27 55.1426L180.247 55.1491L180.225 55.1593L180.201 55.1658L180.179 55.1742L180.158 55.1844L180.135 55.1899L180.112 55.1992L180.092 55.2131L180.067 55.2149L180.046 55.2251L180.022 55.2316L179.998 55.2363L179.977 55.2474L179.954 55.2548L179.93 55.2576L179.906 55.2632L179.883 55.2706L179.86 55.2761L179.837 55.2798L179.813 55.2854L179.789 55.2836L179.765 55.291L179.742 55.2947L179.717 55.2956L179.694 55.3021L179.67 55.303L179.647 55.3049L179.623 55.3086L179.598 55.3104L179.574 55.3067L179.551 55.3151L179.527 55.3141L179.503 55.3086L179.479 55.3169L179.455 55.3086L179.431 55.3141L179.407 55.3114L179.383 55.3077L179.359 55.3114L179.335 55.3049L179.312 55.303L179.288 55.3039L179.264 55.303L179.24 55.2993L179.216 55.2937L179.191 55.3002L179.169 55.2919L179.145 55.2891L179.122 55.2826L179.097 55.2789L179.074 55.2761L179.049 55.2771L179.028 55.2641L179.003 55.265L178.98 55.2585L178.957 55.2474H178.933L178.912 55.2344L178.889 55.2279L178.865 55.2233L178.841 55.2177L178.82 55.2066L178.798 55.1992L178.775 55.1908L178.752 55.1844L178.729 55.1769L178.705 55.1723L178.683 55.163L178.662 55.151L178.639 55.1445L178.619 55.1315L178.596 55.1241L178.576 55.1093L178.555 55.0991L178.532 55.0889L178.51 55.0796L178.489 55.0694L178.468 55.0583L178.449 55.0416L178.428 55.0314L178.406 55.0203L178.386 55.0073L178.365 54.9971L178.345 54.9822L178.327 54.9656L178.308 54.9516L178.287 54.9415L178.267 54.9266L178.249 54.9118L178.23 54.8969L178.211 54.8821L178.19 54.8691L178.172 54.8534L178.155 54.8376L178.139 54.8191L178.121 54.8033L178.103 54.7876L178.085 54.7718L178.063 54.7597L178.049 54.7403L178.03 54.7254L178.017 54.705L178.001 54.6865L177.981 54.6726L177.962 54.6568L177.947 54.6383L177.937 54.616L177.92 54.5984L177.903 54.5817L177.884 54.566L177.876 54.5419L177.86 54.5243L177.846 54.5048L177.826 54.489L177.818 54.4658L177.799 54.4501L177.788 54.4288L177.774 54.4093L177.762 54.388L177.749 54.3685L177.739 54.3463L177.721 54.3296L177.712 54.3064L177.696 54.2888L177.687 54.2656L177.678 54.2433L177.669 54.2211L177.655 54.2016L177.646 54.1794L177.63 54.1608L177.621 54.1377L177.616 54.1145L177.603 54.0932L177.595 54.0709L177.583 54.0496L177.58 54.0255L177.572 54.0023L177.56 53.9819L177.548 53.9606L177.545 53.9365L177.533 53.9151L177.532 53.8901L177.525 53.8679L177.516 53.8456L177.51 53.8215L177.503 53.7993L177.501 53.7752L177.495 53.752L177.484 53.7297L177.482 53.7056L177.479 53.6815L177.477 53.6574L177.471 53.6342L177.47 53.6101L177.462 53.5879L177.46 53.5638L177.457 53.5397L177.455 53.5165L177.448 53.4924L177.45 53.4683L177.442 53.4451L177.445 53.421L177.44 53.3969L177.447 53.3728V53.3487L177.441 53.3255L177.446 53.3014L177.444 53.2773L177.442 53.2532L177.445 53.2291L177.441 53.205L177.449 53.1818L177.451 53.1577L177.447 53.1336L177.455 53.1104L177.449 53.0854L177.456 53.0622L177.457 53.0381L177.465 53.0149V52.9908L177.472 52.9677L177.478 52.9445L177.474 52.9194L177.485 52.8972L177.489 52.874L177.491 52.8499L177.495 52.8258L177.507 52.8045L177.512 52.7804L177.514 52.7563L177.521 52.734L177.53 52.7118L177.538 52.6886L177.549 52.6673L177.553 52.6432L177.557 52.6191L177.569 52.5987L177.576 52.5755L177.582 52.5523L177.594 52.531L177.607 52.5106L177.612 52.4865L177.62 52.4642L177.636 52.4448L177.642 52.4207L177.652 52.3993L177.669 52.3808L177.677 52.3585L177.686 52.3363L177.702 52.3178L177.709 52.2936L177.727 52.277L177.735 52.2529L177.748 52.2334L177.76 52.213L177.778 52.1963L177.786 52.1722L177.803 52.1555L177.815 52.1351L177.829 52.1147L177.845 52.0962L177.86 52.0776L177.869 52.0554L177.89 52.0405L177.902 52.0192L177.921 52.0044L177.937 51.9859L177.951 51.9673L177.967 51.9488L177.983 51.9321L177.995 51.9108L178.018 51.8987L178.031 51.8774L178.047 51.8598L178.063 51.8421L178.085 51.831L178.098 51.8106L178.121 51.7995L178.134 51.7782L178.154 51.7643L178.171 51.7467L178.193 51.7355L178.211 51.7216L178.231 51.7068L178.248 51.6901L178.266 51.6743L178.289 51.6651L178.307 51.6493L178.327 51.6363L178.345 51.6206L178.367 51.6094L178.386 51.5937L178.407 51.5826L178.428 51.5705L178.45 51.5612L178.47 51.5492L178.489 51.5334L178.513 51.5269L178.534 51.5158L178.554 51.5019L178.576 51.4926L178.599 51.4852L178.619 51.4722L178.641 51.462L178.661 51.4491L178.684 51.4398L178.706 51.4324L178.727 51.4203L178.75 51.4138L178.774 51.4064L178.797 51.3999L178.819 51.3916L178.842 51.3851L178.864 51.373L178.888 51.3703L178.911 51.3656L178.932 51.3545L178.957 51.3526L178.98 51.3452L179.003 51.3387L179.027 51.335L179.051 51.3341L179.074 51.3285L179.097 51.3239L179.121 51.3165L179.144 51.3109L179.168 51.3054L179.192 51.3091L179.215 51.3016L179.239 51.2998L179.264 51.297L179.288 51.2989L179.311 51.2924L179.335 51.2961L179.359 51.2933L179.383 51.2915L179.406 51.2859L179.431 51.2896L179.455 51.2933L179.479 51.2905L179.503 51.2924L179.527 51.2905H179.551L179.575 51.2896L179.598 51.2924L179.623 51.2942L179.646 51.3007L179.67 51.3044L179.694 51.3007L179.718 51.3054L179.741 51.3091L179.765 51.3109L179.79 51.3128L179.812 51.3239L179.836 51.3276L179.859 51.3322L179.882 51.3369L179.906 51.3434L179.929 51.348L179.953 51.3508L179.976 51.3591L179.999 51.3638L180.021 51.3721L180.046 51.3749L180.068 51.3842L180.091 51.3897L180.113 51.4018L180.136 51.4092L180.159 51.4148L180.181 51.424L180.202 51.4361L180.225 51.4435L180.248 51.45L180.268 51.463L180.292 51.4695L180.314 51.4787L180.332 51.4954L180.355 51.5056L180.378 51.5121L180.399 51.5223L180.418 51.539L180.443 51.5436L180.463 51.5566L180.48 51.5751L180.505 51.5798L180.523 51.5955L180.543 51.6094L180.562 51.6243L180.583 51.6354L180.603 51.6484L180.625 51.6595L180.641 51.6781L180.661 51.692L180.681 51.7049L180.7 51.7198L180.72 51.7318L180.735 51.7522L180.756 51.7643L180.774 51.78L180.792 51.7958L180.806 51.8153L180.826 51.8301L180.843 51.8459L180.863 51.8607L180.879 51.8783L180.897 51.8941L180.914 51.9108L180.931 51.9284L180.946 51.9469L180.958 51.9673L180.978 51.9831L180.988 52.0053L181.01 52.0183L181.019 52.0424L181.035 52.06L181.051 52.0776L181.069 52.0943L181.079 52.1156L181.094 52.1351L181.11 52.1537L181.123 52.1731L181.137 52.1926L181.146 52.2148L181.164 52.2325L181.174 52.2547L181.187 52.2751L181.196 52.2964L181.212 52.3159L181.222 52.3372L181.232 52.3585L181.241 52.3808L181.256 52.4003L181.268 52.4207L181.273 52.4457L181.291 52.4633L181.295 52.4874L181.309 52.5078L181.311 52.5328L181.326 52.5523L181.331 52.5764L181.342 52.5977L181.347 52.6218L181.36 52.6422L181.362 52.6663L181.372 52.6886L181.383 52.7099L181.387 52.734L181.392 52.7581L181.402 52.7804L181.408 52.8036L181.408 52.8277L181.42 52.8499L181.426 52.8731L181.43 52.8963L181.429 52.9213L181.44 52.9435L181.437 52.9677L181.446 52.9908L181.444 53.0149L181.447 53.039L181.455 53.0622L181.457 53.0863L181.459 53.1095L181.466 53.1336L181.465 53.1577L181.466 53.1818L181.468 53.205L181.465 53.2291L181.464 53.2532L181.466 53.2773L181.471 53.3014Z" fill="#86EFCE"/>
<mask id="path-12-inside-3_202_5529" fill="white">
<path d="M175.581 48.4587V48.4938L175.573 48.5276L175.578 48.5627L175.58 48.5978L175.566 48.6329L175.576 48.668L175.562 48.7017L175.565 48.7369V48.772L175.554 48.8057L175.557 48.8408L175.549 48.8759L175.538 48.9097L175.537 48.9448L175.527 48.9786L175.53 49.0137L175.523 49.0488L175.507 49.0798L175.5 49.1149V49.15L175.484 49.1825L175.478 49.2176L175.466 49.25L175.465 49.2864L175.446 49.3161L175.443 49.3526L175.428 49.3836L175.416 49.4161L175.407 49.4498L175.392 49.4822L175.376 49.5133L175.373 49.5497L175.349 49.5767L175.335 49.6091L175.326 49.6429L175.314 49.6753L175.292 49.705L175.278 49.7361L175.264 49.7685L175.246 49.7982L175.239 49.8346L175.22 49.8644L175.196 49.89L175.187 49.9251L175.165 49.9521L175.147 49.9818L175.13 50.0129L175.112 50.0426L175.092 50.0709L175.068 50.0966L175.058 50.1331L175.028 50.1547L175.016 50.1884L174.996 50.2168L174.969 50.2397L174.951 50.2708L174.927 50.2964L174.908 50.3262L174.884 50.3505L174.855 50.3721L174.838 50.4031L174.818 50.4315L174.788 50.4531L174.77 50.4841L174.745 50.5071L174.715 50.5273L174.697 50.5584L174.664 50.5733L174.642 50.6016L174.615 50.6232L174.588 50.6462L174.568 50.6759L174.535 50.6921L174.512 50.7177L174.485 50.7407L174.456 50.7596L174.427 50.7799L174.399 50.7988L174.373 50.8231L174.349 50.8487L174.314 50.8595L174.288 50.8852L174.258 50.9014L174.229 50.9203L174.203 50.9446L174.169 50.9567L174.143 50.9824L174.112 50.9973L174.08 51.0121L174.051 51.031L174.023 51.0526L173.991 51.0648L173.96 51.0837L173.923 51.0891L173.896 51.112L173.861 51.1201L173.833 51.1404L173.799 51.1498L173.766 51.1647L173.733 51.1741L173.7 51.1863L173.669 51.2011L173.635 51.2092L173.603 51.2228L173.573 51.243L173.537 51.2457L173.506 51.2606L173.472 51.27L173.437 51.2768L173.406 51.293L173.372 51.3038L173.337 51.3078L173.303 51.3159L173.269 51.3267L173.235 51.3348L173.202 51.3402L173.166 51.3483L173.131 51.3456L173.098 51.3564L173.064 51.3618L173.027 51.3632L172.993 51.3726L172.958 51.374L172.925 51.3767L172.889 51.3821L172.854 51.3848L172.819 51.3794L172.785 51.3915L172.75 51.3902L172.715 51.3821L172.68 51.3942L172.645 51.3821L172.61 51.3902L172.576 51.3861L172.541 51.3807L172.506 51.3861L172.471 51.3767L172.437 51.374L172.402 51.3753L172.367 51.374L172.333 51.3686L172.298 51.3605L172.261 51.3699L172.229 51.3578L172.194 51.3537L172.16 51.3443L172.125 51.3389L172.091 51.3348L172.054 51.3362L172.023 51.3173L171.987 51.3186L171.953 51.3092L171.921 51.293H171.885L171.854 51.2741L171.821 51.2646L171.785 51.2579L171.752 51.2498L171.721 51.2336L171.688 51.2228L171.654 51.2106L171.622 51.2011L171.588 51.1903L171.553 51.1836L171.521 51.1701L171.491 51.1525L171.457 51.1431L171.427 51.1242L171.394 51.1134L171.365 51.0918L171.334 51.0769L171.302 51.0621L171.269 51.0486L171.238 51.0337L171.207 51.0175L171.18 50.9932L171.149 50.9783L171.118 50.9621L171.088 50.9432L171.057 50.9284L171.029 50.9068L171.003 50.8825L170.975 50.8622L170.944 50.8474L170.915 50.8258L170.888 50.8042L170.861 50.7826L170.833 50.761L170.803 50.742L170.777 50.7191L170.752 50.6961L170.729 50.6691L170.702 50.6462L170.676 50.6232L170.65 50.6003L170.618 50.5827L170.598 50.5544L170.569 50.5328L170.55 50.503L170.527 50.476L170.499 50.4558L170.471 50.4328L170.449 50.4058L170.434 50.3734L170.41 50.3478L170.384 50.3235L170.357 50.3005L170.345 50.2654L170.322 50.2397L170.302 50.2114L170.273 50.1884L170.261 50.1547L170.233 50.1317L170.218 50.1007L170.196 50.0723L170.18 50.0412L170.16 50.0129L170.146 49.9805L170.119 49.9562L170.107 49.9224L170.083 49.8968L170.071 49.863L170.057 49.8306L170.044 49.7982L170.023 49.7698L170.01 49.7374L169.987 49.7104L169.975 49.6767L169.967 49.6429L169.948 49.6118L169.937 49.5794L169.919 49.5484L169.914 49.5133L169.903 49.4795L169.886 49.4498L169.868 49.4188L169.864 49.3836L169.846 49.3526L169.845 49.3161L169.834 49.2837L169.821 49.2513L169.813 49.2162L169.802 49.1838L169.799 49.1487L169.791 49.1149L169.775 49.0825L169.772 49.0474L169.767 49.0123L169.764 48.9772L169.756 48.9435L169.755 48.9083L169.742 48.8759L169.74 48.8408L169.736 48.8057L169.733 48.772L169.722 48.7369L169.725 48.7017L169.714 48.668L169.718 48.6329L169.71 48.5978L169.721 48.5627V48.5276L169.713 48.4938L169.719 48.4587L169.717 48.4236L169.714 48.3885L169.718 48.3534L169.713 48.3183L169.724 48.2845L169.726 48.2494L169.721 48.2143L169.733 48.1805L169.724 48.1441L169.734 48.1103L169.736 48.0752L169.746 48.0415V48.0063L169.757 47.9726L169.765 47.9388L169.76 47.9024L169.776 47.87L169.782 47.8362L169.784 47.8011L169.791 47.766L169.809 47.7349L169.815 47.6998L169.818 47.6647L169.829 47.6323L169.842 47.5999L169.853 47.5661L169.869 47.5351L169.875 47.5L169.882 47.4649L169.899 47.4352L169.909 47.4014L169.918 47.3677L169.934 47.3366L169.955 47.3069L169.961 47.2718L169.973 47.2394L169.996 47.211L170.005 47.1759L170.019 47.1449L170.044 47.1178L170.056 47.0854L170.069 47.053L170.092 47.026L170.102 46.9909L170.129 46.9666L170.14 46.9315L170.159 46.9032L170.176 46.8734L170.203 46.8491L170.214 46.814L170.24 46.7897L170.257 46.76L170.278 46.7303L170.3 46.7033L170.322 46.6763L170.336 46.6439L170.365 46.6223L170.383 46.5912L170.411 46.5696L170.434 46.5426L170.455 46.5156L170.477 46.4886L170.502 46.4643L170.519 46.4332L170.552 46.4157L170.571 46.3846L170.595 46.359L170.618 46.3333L170.65 46.3171L170.669 46.2874L170.703 46.2712L170.722 46.2402L170.75 46.2199L170.775 46.1942L170.807 46.178L170.834 46.1578L170.863 46.1362L170.887 46.1119L170.914 46.0889L170.948 46.0754L170.973 46.0525L171.003 46.0336L171.029 46.0106L171.061 45.9944L171.088 45.9714L171.119 45.9552L171.149 45.9377L171.181 45.9242L171.211 45.9066L171.238 45.8837L171.273 45.8742L171.304 45.858L171.333 45.8378L171.365 45.8243L171.399 45.8135L171.427 45.7946L171.46 45.7797L171.49 45.7608L171.522 45.7473L171.554 45.7365L171.586 45.7189L171.619 45.7095L171.653 45.6987L171.687 45.6892L171.719 45.6771L171.753 45.6676L171.784 45.6501L171.819 45.646L171.853 45.6393L171.884 45.6231L171.921 45.6204L171.953 45.6096L171.987 45.6001L172.022 45.5947L172.057 45.5934L172.091 45.5853L172.125 45.5785L172.158 45.5677L172.192 45.5596L172.227 45.5515L172.262 45.5569L172.296 45.5461L172.331 45.5434L172.367 45.5394L172.402 45.5421L172.435 45.5326L172.471 45.538L172.506 45.5339L172.541 45.5312L172.575 45.5231L172.61 45.5285L172.645 45.5339L172.68 45.5299L172.715 45.5326L172.75 45.5299H172.785L172.821 45.5285L172.854 45.5326L172.889 45.5353L172.923 45.5448L172.958 45.5502L172.993 45.5448L173.029 45.5515L173.062 45.5569L173.098 45.5596L173.133 45.5623L173.165 45.5785L173.2 45.5839L173.234 45.5907L173.268 45.5974L173.302 45.6069L173.335 45.6136L173.37 45.6177L173.404 45.6298L173.438 45.6366L173.47 45.6487L173.506 45.6528L173.538 45.6663L173.572 45.6744L173.604 45.6919L173.637 45.7027L173.67 45.7108L173.703 45.7243L173.734 45.7419L173.766 45.7527L173.8 45.7621L173.83 45.7811L173.865 45.7905L173.896 45.804L173.923 45.8283L173.956 45.8432L173.989 45.8526L174.02 45.8675L174.047 45.8918L174.084 45.8985L174.114 45.9174L174.138 45.9444L174.174 45.9512L174.201 45.9741L174.23 45.9944L174.258 46.016L174.288 46.0322L174.318 46.0511L174.349 46.0673L174.373 46.0943L174.401 46.1146L174.431 46.1335L174.458 46.1551L174.488 46.1726L174.51 46.2023L174.541 46.2199L174.566 46.2429L174.593 46.2658L174.614 46.2942L174.642 46.3158L174.668 46.3387L174.696 46.3603L174.719 46.386L174.746 46.4089L174.77 46.4332L174.795 46.4589L174.816 46.4859L174.835 46.5156L174.864 46.5386L174.878 46.571L174.91 46.5899L174.923 46.625L174.946 46.6506L174.97 46.6763L174.996 46.7006L175.011 46.7317L175.032 46.76L175.055 46.787L175.074 46.8154L175.095 46.8437L175.108 46.8761L175.134 46.9018L175.149 46.9342L175.168 46.9639L175.181 46.995L175.204 47.0233L175.219 47.0544L175.234 47.0854L175.247 47.1178L175.269 47.1462L175.287 47.1759L175.293 47.2124L175.319 47.238L175.326 47.2731L175.346 47.3028L175.349 47.3393L175.37 47.3677L175.378 47.4028L175.393 47.4338L175.401 47.4689L175.42 47.4986L175.423 47.5337L175.438 47.5661L175.454 47.5972L175.459 47.6323L175.466 47.6674L175.481 47.6998L175.489 47.7336L175.491 47.7687L175.507 47.8011L175.516 47.8349L175.522 47.8686L175.52 47.9051L175.537 47.9375L175.532 47.9726L175.545 48.0063L175.542 48.0415L175.547 48.0766L175.558 48.1103L175.561 48.1454L175.565 48.1792L175.574 48.2143L175.573 48.2494L175.574 48.2845L175.577 48.3183L175.573 48.3534L175.572 48.3885L175.574 48.4236L175.581 48.4587Z"/>
</mask>
<path d="M175.581 48.4587V48.4938L175.573 48.5276L175.578 48.5627L175.58 48.5978L175.566 48.6329L175.576 48.668L175.562 48.7017L175.565 48.7369V48.772L175.554 48.8057L175.557 48.8408L175.549 48.8759L175.538 48.9097L175.537 48.9448L175.527 48.9786L175.53 49.0137L175.523 49.0488L175.507 49.0798L175.5 49.1149V49.15L175.484 49.1825L175.478 49.2176L175.466 49.25L175.465 49.2864L175.446 49.3161L175.443 49.3526L175.428 49.3836L175.416 49.4161L175.407 49.4498L175.392 49.4822L175.376 49.5133L175.373 49.5497L175.349 49.5767L175.335 49.6091L175.326 49.6429L175.314 49.6753L175.292 49.705L175.278 49.7361L175.264 49.7685L175.246 49.7982L175.239 49.8346L175.22 49.8644L175.196 49.89L175.187 49.9251L175.165 49.9521L175.147 49.9818L175.13 50.0129L175.112 50.0426L175.092 50.0709L175.068 50.0966L175.058 50.1331L175.028 50.1547L175.016 50.1884L174.996 50.2168L174.969 50.2397L174.951 50.2708L174.927 50.2964L174.908 50.3262L174.884 50.3505L174.855 50.3721L174.838 50.4031L174.818 50.4315L174.788 50.4531L174.77 50.4841L174.745 50.5071L174.715 50.5273L174.697 50.5584L174.664 50.5733L174.642 50.6016L174.615 50.6232L174.588 50.6462L174.568 50.6759L174.535 50.6921L174.512 50.7177L174.485 50.7407L174.456 50.7596L174.427 50.7799L174.399 50.7988L174.373 50.8231L174.349 50.8487L174.314 50.8595L174.288 50.8852L174.258 50.9014L174.229 50.9203L174.203 50.9446L174.169 50.9567L174.143 50.9824L174.112 50.9973L174.08 51.0121L174.051 51.031L174.023 51.0526L173.991 51.0648L173.96 51.0837L173.923 51.0891L173.896 51.112L173.861 51.1201L173.833 51.1404L173.799 51.1498L173.766 51.1647L173.733 51.1741L173.7 51.1863L173.669 51.2011L173.635 51.2092L173.603 51.2228L173.573 51.243L173.537 51.2457L173.506 51.2606L173.472 51.27L173.437 51.2768L173.406 51.293L173.372 51.3038L173.337 51.3078L173.303 51.3159L173.269 51.3267L173.235 51.3348L173.202 51.3402L173.166 51.3483L173.131 51.3456L173.098 51.3564L173.064 51.3618L173.027 51.3632L172.993 51.3726L172.958 51.374L172.925 51.3767L172.889 51.3821L172.854 51.3848L172.819 51.3794L172.785 51.3915L172.75 51.3902L172.715 51.3821L172.68 51.3942L172.645 51.3821L172.61 51.3902L172.576 51.3861L172.541 51.3807L172.506 51.3861L172.471 51.3767L172.437 51.374L172.402 51.3753L172.367 51.374L172.333 51.3686L172.298 51.3605L172.261 51.3699L172.229 51.3578L172.194 51.3537L172.16 51.3443L172.125 51.3389L172.091 51.3348L172.054 51.3362L172.023 51.3173L171.987 51.3186L171.953 51.3092L171.921 51.293H171.885L171.854 51.2741L171.821 51.2646L171.785 51.2579L171.752 51.2498L171.721 51.2336L171.688 51.2228L171.654 51.2106L171.622 51.2011L171.588 51.1903L171.553 51.1836L171.521 51.1701L171.491 51.1525L171.457 51.1431L171.427 51.1242L171.394 51.1134L171.365 51.0918L171.334 51.0769L171.302 51.0621L171.269 51.0486L171.238 51.0337L171.207 51.0175L171.18 50.9932L171.149 50.9783L171.118 50.9621L171.088 50.9432L171.057 50.9284L171.029 50.9068L171.003 50.8825L170.975 50.8622L170.944 50.8474L170.915 50.8258L170.888 50.8042L170.861 50.7826L170.833 50.761L170.803 50.742L170.777 50.7191L170.752 50.6961L170.729 50.6691L170.702 50.6462L170.676 50.6232L170.65 50.6003L170.618 50.5827L170.598 50.5544L170.569 50.5328L170.55 50.503L170.527 50.476L170.499 50.4558L170.471 50.4328L170.449 50.4058L170.434 50.3734L170.41 50.3478L170.384 50.3235L170.357 50.3005L170.345 50.2654L170.322 50.2397L170.302 50.2114L170.273 50.1884L170.261 50.1547L170.233 50.1317L170.218 50.1007L170.196 50.0723L170.18 50.0412L170.16 50.0129L170.146 49.9805L170.119 49.9562L170.107 49.9224L170.083 49.8968L170.071 49.863L170.057 49.8306L170.044 49.7982L170.023 49.7698L170.01 49.7374L169.987 49.7104L169.975 49.6767L169.967 49.6429L169.948 49.6118L169.937 49.5794L169.919 49.5484L169.914 49.5133L169.903 49.4795L169.886 49.4498L169.868 49.4188L169.864 49.3836L169.846 49.3526L169.845 49.3161L169.834 49.2837L169.821 49.2513L169.813 49.2162L169.802 49.1838L169.799 49.1487L169.791 49.1149L169.775 49.0825L169.772 49.0474L169.767 49.0123L169.764 48.9772L169.756 48.9435L169.755 48.9083L169.742 48.8759L169.74 48.8408L169.736 48.8057L169.733 48.772L169.722 48.7369L169.725 48.7017L169.714 48.668L169.718 48.6329L169.71 48.5978L169.721 48.5627V48.5276L169.713 48.4938L169.719 48.4587L169.717 48.4236L169.714 48.3885L169.718 48.3534L169.713 48.3183L169.724 48.2845L169.726 48.2494L169.721 48.2143L169.733 48.1805L169.724 48.1441L169.734 48.1103L169.736 48.0752L169.746 48.0415V48.0063L169.757 47.9726L169.765 47.9388L169.76 47.9024L169.776 47.87L169.782 47.8362L169.784 47.8011L169.791 47.766L169.809 47.7349L169.815 47.6998L169.818 47.6647L169.829 47.6323L169.842 47.5999L169.853 47.5661L169.869 47.5351L169.875 47.5L169.882 47.4649L169.899 47.4352L169.909 47.4014L169.918 47.3677L169.934 47.3366L169.955 47.3069L169.961 47.2718L169.973 47.2394L169.996 47.211L170.005 47.1759L170.019 47.1449L170.044 47.1178L170.056 47.0854L170.069 47.053L170.092 47.026L170.102 46.9909L170.129 46.9666L170.14 46.9315L170.159 46.9032L170.176 46.8734L170.203 46.8491L170.214 46.814L170.24 46.7897L170.257 46.76L170.278 46.7303L170.3 46.7033L170.322 46.6763L170.336 46.6439L170.365 46.6223L170.383 46.5912L170.411 46.5696L170.434 46.5426L170.455 46.5156L170.477 46.4886L170.502 46.4643L170.519 46.4332L170.552 46.4157L170.571 46.3846L170.595 46.359L170.618 46.3333L170.65 46.3171L170.669 46.2874L170.703 46.2712L170.722 46.2402L170.75 46.2199L170.775 46.1942L170.807 46.178L170.834 46.1578L170.863 46.1362L170.887 46.1119L170.914 46.0889L170.948 46.0754L170.973 46.0525L171.003 46.0336L171.029 46.0106L171.061 45.9944L171.088 45.9714L171.119 45.9552L171.149 45.9377L171.181 45.9242L171.211 45.9066L171.238 45.8837L171.273 45.8742L171.304 45.858L171.333 45.8378L171.365 45.8243L171.399 45.8135L171.427 45.7946L171.46 45.7797L171.49 45.7608L171.522 45.7473L171.554 45.7365L171.586 45.7189L171.619 45.7095L171.653 45.6987L171.687 45.6892L171.719 45.6771L171.753 45.6676L171.784 45.6501L171.819 45.646L171.853 45.6393L171.884 45.6231L171.921 45.6204L171.953 45.6096L171.987 45.6001L172.022 45.5947L172.057 45.5934L172.091 45.5853L172.125 45.5785L172.158 45.5677L172.192 45.5596L172.227 45.5515L172.262 45.5569L172.296 45.5461L172.331 45.5434L172.367 45.5394L172.402 45.5421L172.435 45.5326L172.471 45.538L172.506 45.5339L172.541 45.5312L172.575 45.5231L172.61 45.5285L172.645 45.5339L172.68 45.5299L172.715 45.5326L172.75 45.5299H172.785L172.821 45.5285L172.854 45.5326L172.889 45.5353L172.923 45.5448L172.958 45.5502L172.993 45.5448L173.029 45.5515L173.062 45.5569L173.098 45.5596L173.133 45.5623L173.165 45.5785L173.2 45.5839L173.234 45.5907L173.268 45.5974L173.302 45.6069L173.335 45.6136L173.37 45.6177L173.404 45.6298L173.438 45.6366L173.47 45.6487L173.506 45.6528L173.538 45.6663L173.572 45.6744L173.604 45.6919L173.637 45.7027L173.67 45.7108L173.703 45.7243L173.734 45.7419L173.766 45.7527L173.8 45.7621L173.83 45.7811L173.865 45.7905L173.896 45.804L173.923 45.8283L173.956 45.8432L173.989 45.8526L174.02 45.8675L174.047 45.8918L174.084 45.8985L174.114 45.9174L174.138 45.9444L174.174 45.9512L174.201 45.9741L174.23 45.9944L174.258 46.016L174.288 46.0322L174.318 46.0511L174.349 46.0673L174.373 46.0943L174.401 46.1146L174.431 46.1335L174.458 46.1551L174.488 46.1726L174.51 46.2023L174.541 46.2199L174.566 46.2429L174.593 46.2658L174.614 46.2942L174.642 46.3158L174.668 46.3387L174.696 46.3603L174.719 46.386L174.746 46.4089L174.77 46.4332L174.795 46.4589L174.816 46.4859L174.835 46.5156L174.864 46.5386L174.878 46.571L174.91 46.5899L174.923 46.625L174.946 46.6506L174.97 46.6763L174.996 46.7006L175.011 46.7317L175.032 46.76L175.055 46.787L175.074 46.8154L175.095 46.8437L175.108 46.8761L175.134 46.9018L175.149 46.9342L175.168 46.9639L175.181 46.995L175.204 47.0233L175.219 47.0544L175.234 47.0854L175.247 47.1178L175.269 47.1462L175.287 47.1759L175.293 47.2124L175.319 47.238L175.326 47.2731L175.346 47.3028L175.349 47.3393L175.37 47.3677L175.378 47.4028L175.393 47.4338L175.401 47.4689L175.42 47.4986L175.423 47.5337L175.438 47.5661L175.454 47.5972L175.459 47.6323L175.466 47.6674L175.481 47.6998L175.489 47.7336L175.491 47.7687L175.507 47.8011L175.516 47.8349L175.522 47.8686L175.52 47.9051L175.537 47.9375L175.532 47.9726L175.545 48.0063L175.542 48.0415L175.547 48.0766L175.558 48.1103L175.561 48.1454L175.565 48.1792L175.574 48.2143L175.573 48.2494L175.574 48.2845L175.577 48.3183L175.573 48.3534L175.572 48.3885L175.574 48.4236L175.581 48.4587Z" fill="#E1FCEE" stroke="black" stroke-width="2" mask="url(#path-12-inside-3_202_5529)"/>
<rect x="65.5815" y="63.3413" width="56.351" height="25.6303" rx="1.5" transform="rotate(-7.60955 65.5815 63.3413)" fill="white" stroke="black" stroke-linejoin="round"/>
<path d="M81.4282 69.345L104.565 66.2539" stroke="#080B0E" stroke-linecap="round" stroke-linejoin="round"/>
<path d="M75.3692 78.5872L99.3901 75.378" stroke="#080B0E" stroke-linecap="round" stroke-linejoin="round"/>
<path d="M75.815 81.9247L113.479 76.8929" stroke="#080B0E" stroke-linecap="round" stroke-linejoin="round"/>
<circle cx="76.1576" cy="70.0492" r="1.91211" transform="rotate(-7.60955 76.1576 70.0492)" fill="#4BE4B4"/>
</svg>
