<svg xmlns="http://www.w3.org/2000/svg" width="179" height="120" fill="none"><path fill="#D9FFEF" d="m171.256 8.495.353.553-.176.793.127.728.264.71.32.684-.094.77.346.714-.011.748-.064.745.208.733.072.726-.091.744.071.752.264.71-.066.771-.037.72.072.753.208.732-.065.746.154.73.071.752-.146.742-.009.721.153.757-.147.741.236.734-.174.74.099.754-.174.74.1.727-.119.742-.119.743-.145.715.017.75.098.753-.227.737-.227.71-.01.749-.145.715-.146.741.179.785-.145.714-.47.671-.037.747.07.78-.091.717-.442.672.177.812-.495.643.07.78-.307.679-.011.775-.28.68-.413.648-.066.772-.334.678.097.78-.226.711-.226.71-.521.616-.172.713-.039.774-.387.648-.146.742-.466.617-.387.65-.173.74-.332.65-.28.682-.04.8-.466.618-.119.742-.44.62-.545.56-.307.68-.306.68-.228.737-.305.653-.2.738-.571.532-.281.708-.492.59-.201.738-.57.506-.412.62-.334.679-.385.622-.202.765-.385.622-.597.505-.412.62-.36.65-.333.679-.518.562-.413.62-.465.591-.387.65-.568.478-.493.59-.385.622-.648.448-.517.535-.36.65-.36.677-.517.535-.701.392-.438.593-.596.478-.413.647-.361.677-.776.281-.361.677-.518.562-.517.535-.648.421-.646.395-.491.563-.517.535-.413.648-.775.254-.441.646-.465.592-.776.254-.62.423-.517.535-.62.423-.596.478-.542.507-.569.479-.543.507-.673.393-.62.423-.593.424-.622.45-.695.285-.62.423-.672.367-.593.424-.495.643-.795.12-.646.395-.62.423-.596.477-.695.285-.596.478-.693.259-.623.476-.72.231-.693.258-.599.531-.793.067-.696.312-.67.34-.596.477-.745.203-.742.122-.67.34-.672.367-.621.45-.795.093-.646.395-.695.285-.813-.068-.719.23-.623.476-.77.148-.717.177-.721.258-.742.149-.717.177-.745.203-.718.204-.718.203-.743.15-.651.501-.74.096-.763.014-.741.123-.769.121-.696.312-.72.231-.787-.041-.698.339-.741.123-.783-.121-.766.068-.762-.012-.703.445-.738.069-.784-.12-.74.096-.738.069-.765.041-.74.096-.767.094-.745.203-.76-.039-.739.069-.775-.28-.75.282-.737.043-.755-.146-.763.015-.757-.093-.758-.092-.739.069-.77.148-.756-.119-.764.041-.721-.277-.764.041-.766.068-.721-.278-.76-.066-.768.122-.72-.305-.759-.065-.763.014-.761-.012-.724-.224-.719-.331-.798.173-.691-.33-.755-.145-.794.093-.724-.224-.693-.303-.72-.278-.761-.039-.762-.012-.721-.278-.756-.119-.692-.329-.661-.382-.822.092-.692-.303-.662-.381-.82.065-.662-.355-.785-.094-.63-.487-.726-.17-.629-.487-.723-.225-.787-.066-.694-.277-.723-.224-.693-.303-.662-.381-.753-.173-.542-.589-.754-.172-.6-.512-.755-.146-.724-.224-.541-.616-.694-.276-.812-.095-.602-.486-.634-.38-.752-.199-.575-.484-.572-.537-.75-.226-.516-.588-.691-.33-.663-.354-.694-.276-.544-.563-.576-.457-.836-.15-.488-.587-.72-.277-.546-.536-.633-.407-.546-.51-.718-.33-.575-.484-.46-.612-.487-.587-.748-.279-.46-.611-.662-.355-.46-.612-.747-.306-.402-.662-.516-.561-.776-.28-.317-.739-.603-.459-.46-.585-.604-.459-.745-.332-.46-.585-.346-.713-.746-.332-.29-.737-.66-.408-.43-.637-.632-.434-.43-.637-.406-.609-.63-.46-.291-.71-.574-.511-.348-.66-.489-.56-.459-.611-.375-.661-.659-.435-.178-.785-.688-.41-.459-.611-.207-.76-.545-.536-.208-.732-.543-.563-.348-.66-.49-.56-.459-.611-.095-.807-.572-.538-.266-.682-.515-.588-.405-.609-.18-.758-.319-.685-.237-.707-.627-.514-.293-.683-.403-.636-.097-.78-.375-.661-.488-.587-.154-.73-.237-.707-.237-.707-.43-.638-.237-.707-.043-.778-.375-.66-.46-.612-.263-.71.067-.798-.292-.684-.21-.706-.512-.64.066-.773-.264-.709-.292-.683-.154-.73-.347-.687.093-.77-.483-.667-.154-.73.035-.693.712-.097.7-.392.742-.123.72-.23.764-.042.714-.124.745-.202.764-.041.67-.34.811.121.697-.312.74-.096.74-.122.723-.284.715-.15.812.094.67-.34.743-.149.698-.338.807.201.651-.501.789.013.741-.122.717-.177.742-.15.762.013.673-.394.788.04.742-.149.742-.122.651-.502.764-.04.742-.123.696-.312.764-.041.762.012.72-.257.74-.096.764-.015.697-.338.698-.339.764-.041.74-.096.765-.041.72-.257.698-.339.76.039.698-.339.764-.04.717-.178.743-.15.74-.122.72-.23.744-.176.717-.177.743-.15.807.175.719-.204.696-.312.72-.23.809.148.675-.447.736-.015.747-.23.741-.122.762.012.676-.447.761.013.742-.123.742-.15.743-.148.718-.204.762.012.678-.5.762.012.787.04.72-.23.716-.177.766-.068.675-.42.783.12.718-.204.767-.094.674-.394.764-.04.672-.368.786.067.699-.365.763-.014.763-.015.74-.096.699-.365.742-.15.721-.257.76.04.765-.042.677-.473.808.175.718-.204.695-.285.767-.095.72-.23.694-.286.784.12.722-.283.718-.204.786.067.72-.23.72-.258.738-.043.768-.12.695-.286.695-.285.767-.095.718-.204.788.04.718-.203.763-.015.742-.149.674-.393.72-.258.81.149.674-.42.74-.096.718-.204.764-.041.723-.284.808.175.716-.177.698-.34.718-.203.72-.23.742-.15.766-.068.761.013.721-.258.743-.149.717-.177.742-.15.698-.338.764-.041.763-.015.673-.393.81.148.74-.095.722-.284.715-.15.745-.203.717-.178.744-.175.763-.015.676-.447.763-.014.694-.259.787.04.766-.067.696-.312.741-.123.743-.149.693-.259.744-.175.788.04.673-.394.807.202.696-.312.719-.23.789.013.697-.312.763-.014.718-.204.699-.366.809.149.673-.394.72-.23.742-.15.785.094.764-.04.717-.178.721-.257.673-.394.764-.04.718-.205.72-.23.787.04.763-.015.699-.365.788.04.673-.393.784.12.742-.149.722-.284.695-.285.721-.257.809.148.697-.312.719-.23.739-.07.787.04.744-.175.675-.42.787.04.67-.34.789.013.765-.04.719-.231.72-.23.696-.313.811.122.648-.448.769-.121.738-.07.721-.257.785.094.673-.394.811.122.739-.096.699-.365.723-.284.716-.177.765-.041.787.04.695-.286.766-.067.718-.204.766-.068.72-.257.721-.258.732.065Z" opacity=".3"/><rect width="114.818" height="74.879" x="34.967" y="17.058" fill="#fff" stroke="#090B0E" rx="3.467"/><path fill="#4BE4B4" stroke="#090B0E" d="M35.419 43.204h113.973v17.119H35.419z"/><path fill="#D9FFEF" stroke="#090B0E" d="m4 58.209 3.273-3.431 3.399 3.303-3.273 3.431L4 58.21Z"/><path fill="#090B0E" fill-rule="evenodd" d="M59.944 72.567H56.27a.608.608 0 0 1-.613-.601v-3.002c0-.332.275-.602.613-.602h1.127c.073 0 .143.034.19.091l.637.786h1.721c.338 0 .613.27.613.602v2.125a.608.608 0 0 1-.613.601Z" clip-rule="evenodd"/><rect width="59.838" height="4.047" x="66.046" y="68.52" fill="#090B0E" rx="2.024"/><path fill="#090B0E" fill-rule="evenodd" d="M59.944 53.483h-3.676a.608.608 0 0 1-.612-.601V49.88c0-.332.275-.602.612-.602h1.128c.073 0 .143.034.19.091l.636.787h1.722c.338 0 .613.27.613.601v2.125a.608.608 0 0 1-.613.601Z" clip-rule="evenodd"/><rect width="59.838" height="4.047" x="66.046" y="49.437" fill="#090B0E" rx="2.024"/><rect width="28.953" height="4.047" x="45.998" y="25.998" fill="#090B0E" rx="2.024"/><path stroke="#090B0E" stroke-linecap="round" d="m161.114 10.483 10.127-2.152c.909 4.113 2.508 13.922 1.631 20.251M70.146 108.103c4.514 1.35 16.92 3.476 30.428 1.181M5.78 51.062l-2.174-7.426 24.242-5.231"/><path fill="#D9FFEF" stroke="#090B0E" d="M173.718 42.703c0 1.94-1.556 3.504-3.466 3.504-1.91 0-3.466-1.564-3.466-3.504s1.556-3.503 3.466-3.503c1.91 0 3.466 1.564 3.466 3.503Z"/><mask id="a" fill="#fff"><path d="m169.88 64.578.019.011.02.015.018.016.022.011.017.02.022.012.022.011.019.017.021.011.019.017.025.008.019.014.018.018.021.012.022.012.02.014.021.012.023.01.017.019.023.01.02.015.02.013.024.01.02.014.02.013.021.014.015.022.024.008.019.018.023.009.02.014.019.015.023.01.016.02.025.008.02.013.021.014.018.018.024.009.021.011.017.02.023.01.02.012.017.02.024.008.022.013.021.013.019.015.021.013.02.013.021.014.02.014.018.018.02.015.021.012.02.015.023.01.02.013.023.011.015.022.021.013.021.012.024.008.019.016.018.018.024.01.018.017.025.007.021.012.014.022.024.01.018.016.024.009.022.011.02.016.021.011.017.02.021.011.02.017.022.01.021.014.021.012.022.011.018.018.021.013.02.014.019.018.024.008.017.018.021.013.021.012.024.009.018.018.021.013.019.015.022.011.02.016.021.011.017.019.026.006.017.02.025.006.02.014.019.016.022.01.016.021.022.011.019.017.02.013.024.01.017.018.023.01.019.016.02.015.023.01.021.012.021.013.019.015.024.01.017.018.023.01.022.012.015.022.021.012.021.015.02.013.025.006.021.014.016.02.021.014.024.008.021.012.021.013.015.023.023.009.02.015.018.016.024.01.024.01.018.015.02.016.023.009.019.016.017.02.026.004.019.016.017.019.022.01.019.018.026.006.016.02.024.008.021.013.018.017.019.016.022.01.02.016.024.009.018.018.02.014.021.013.023.01.019.016.02.016.022.01.019.016.019.015.023.01.01-.021.017-.02.01-.022.019-.017.008-.025.015-.02.012-.02.016-.02.014-.02.016-.02.011-.022.018-.018.009-.023.01-.023.019-.017.013-.021.014-.02.012-.023.017-.018.014-.02.007-.025.018-.018.011-.022.013-.022.014-.02.015-.02.014-.02.013-.021.015-.02.005-.025.022-.016.009-.024.012-.02.018-.018.009-.025.016-.019.009-.023.018-.019.014-.019.016-.02.011-.021.013-.022.009-.024.019-.017.012-.021.01-.023.02-.017.006-.025.016-.02.013-.02.019-.018.008-.024.017-.019.013-.02.009-.024.016-.02.015-.019.011-.023.016-.017.012-.024.011-.022.015-.019.013-.022.011-.021.019-.017.009-.024.014-.02.012-.022.013-.021.017-.019.017-.019.008-.024.012-.02.02-.018.012-.022.013-.02.012-.022.017-.018.01-.023.01-.023.014-.021.017-.019.013-.02.009-.024.02-.016.009-.024.012-.022.02-.017.007-.023.015-.021.017-.019.009-.023.019-.017.005-.025.018-.019.019-.017.006-.026.014-.02.012-.022.019-.017.012-.022.011-.022.012-.02.021-.018.008-.023.017-.019.009-.023.014-.021.015-.02.014-.02.017-.02.009-.022.013-.02.016-.02.007-.026.022-.014.01-.023.013-.02.016-.02.014-.021.008-.025.016-.018.012-.023.011-.022.02-.016.015-.02.005-.026.013-.022.022-.014.007-.025.02-.016.013-.021.013-.022.013-.021.006-.026.016-.019.017-.018.011-.023.014-.02.014-.021.01-.022.02-.017.011-.022.009-.024.015-.02.014-.02.015-.02.017-.019.006-.026.014-.019.016-.02.014-.02.011-.023.018-.017.013-.021.009-.023.017-.02.009-.023.014-.021.017-.019.012-.02.012-.023.014-.02.02-.017.01-.022.013-.023.013-.02.017-.021-.023-.013-.022-.013-.018-.016-.022-.012-.021-.013-.02-.015-.02-.014-.02-.013-.02-.015-.023-.01-.019-.016-.02-.014-.019-.016-.024-.009-.019-.017-.02-.013-.02-.015-.02-.014-.021-.014-.025-.005-.019-.017-.021-.012-.016-.02-.027-.005-.016-.02-.021-.013-.021-.013-.024-.008-.019-.015-.02-.015-.017-.02-.025-.006-.021-.013-.017-.02-.021-.013-.022-.01-.018-.017-.024-.009-.017-.018-.021-.013-.02-.014-.022-.012-.018-.017-.021-.014-.025-.007-.021-.012-.019-.017-.02-.013-.02-.014-.018-.017-.022-.011-.021-.015-.022-.01-.018-.018-.021-.012-.022-.013-.021-.012-.02-.016-.019-.015-.025-.006-.017-.02-.024-.007-.02-.017-.016-.018-.02-.015-.023-.01-.02-.015-.021-.012-.022-.011-.022-.012-.018-.02-.02-.011-.02-.016-.019-.015-.023-.01-.024-.008-.015-.021-.023-.012-.024-.008-.019-.016-.021-.012-.021-.014-.019-.015-.02-.014-.018-.018-.021-.013-.023-.009-.019-.016-.02-.016-.024-.008-.021-.012-.02-.013-.018-.018-.019-.017-.022-.011-.023-.01-.021-.013-.02-.014-.017-.02-.021-.011-.022-.012-.018-.018-.023-.01-.018-.017-.022-.01-.022-.014-.018-.015-.024-.008-.019-.017-.022-.01-.02-.016-.02-.013-.018-.018-.024-.008-.018-.02-.022-.01-.023-.01-.017-.018-.023-.012-.018-.016-.024-.009-.019-.015-.02-.016-.021-.012-.023-.01-.018-.017-.019-.016-.025-.009-.019-.014-.019-.017-.02-.013-.02-.015-.024-.008-.021-.013-.019-.016-.021-.014-.02-.014-.02-.014-.018-.017-.023-.011-.018-.017-.025-.007-.021-.014-.019-.016-.019-.014-.023-.01-.021-.015-.019-.014-.023-.011-.017-.019-.023-.01-.017-.019-.023-.01-.02-.013-.019-.017-.025-.007-.017-.02-.021-.01-.023-.013-.016-.02-.026-.005-.02-.014-.017-.019-.025-.007-.018-.018-.021-.013-.02-.014-.02-.01-.017.014-.014.02-.008.026-.012.02-.021.016-.014.022-.005.024-.016.02-.012.021-.019.018-.014.02-.012.022-.015.02-.007.025-.02.017-.008.024-.014.02-.014.02-.014.02-.017.019-.009.024-.016.018-.014.022-.007.024-.014.02-.014.02-.02.018-.008.024-.016.018-.012.022-.016.019-.013.022-.009.023-.014.02-.012.023-.017.017-.011.023-.014.02-.014.021-.013.02-.018.019-.015.019-.008.024-.017.019-.014.02-.007.025-.014.02-.021.016-.01.023-.017.019-.01.022-.015.021-.01.022-.018.018-.013.02-.009.025-.014.02-.014.02-.014.022-.014.019-.014.021-.011.023-.011.021-.021.016-.013.022-.013.02-.007.026-.017.018-.012.021-.014.021-.014.02-.016.02-.008.024-.018.018-.009.024-.02.016-.011.022-.014.02-.01.024-.017.017-.013.022-.011.023-.013.02-.017.018-.007.026-.014.02-.02.017-.01.023-.01.022-.017.019-.014.02-.012.022-.016.019-.016.02-.008.023-.012.022-.015.019-.013.022-.018.018-.011.022-.011.022-.016.02-.015.018-.015.02-.006.026-.016.018-.013.022-.019.018-.01.023-.01.022-.019.017-.008.025-.015.02-.013.02-.011.023-.02.016-.009.024-.014.02-.018.019-.01.022-.012.022-.019.017-.005.026-.017.019-.015.02-.012.022-.011.022-.013.02-.014.021-.013.02-.019.018-.015.02-.009.024-.012.021-.012.023-.021.015-.011.022-.009.024-.015.02-.013.02-.015.02-.011.023-.016.02-.018.017-.013.021-.008.024-.014.022-.019.016-.009.025-.016.017-.008.025-.019.017-.009.024-.016.02-.013.021-.014.02-.011.022-.016.019-.014.021-.01.023-.013.02-.014.022-.015.02-.017.017-.008.024-.016.02-.015.02-.009.021Z"/></mask><path fill="#D9FFEF" stroke="#090B0E" stroke-width="2" d="m169.88 64.578.019.011.02.015.018.016.022.011.017.02.022.012.022.011.019.017.021.011.019.017.025.008.019.014.018.018.021.012.022.012.02.014.021.012.023.01.017.019.023.01.02.015.02.013.024.01.02.014.02.013.021.014.015.022.024.008.019.018.023.009.02.014.019.015.023.01.016.02.025.008.02.013.021.014.018.018.024.009.021.011.017.02.023.01.02.012.017.02.024.008.022.013.021.013.019.015.021.013.02.013.021.014.02.014.018.018.02.015.021.012.02.015.023.01.02.013.023.011.015.022.021.013.021.012.024.008.019.016.018.018.024.01.018.017.025.007.021.012.014.022.024.01.018.016.024.009.022.011.02.016.021.011.017.02.021.011.02.017.022.01.021.014.021.012.022.011.018.018.021.013.02.014.019.018.024.008.017.018.021.013.021.012.024.009.018.018.021.013.019.015.022.011.02.016.021.011.017.019.026.006.017.02.025.006.02.014.019.016.022.01.016.021.022.011.019.017.02.013.024.01.017.018.023.01.019.016.02.015.023.01.021.012.021.013.019.015.024.01.017.018.023.01.022.012.015.022.021.012.021.015.02.013.025.006.021.014.016.02.021.014.024.008.021.012.021.013.015.023.023.009.02.015.018.016.024.01.024.01.018.015.02.016.023.009.019.016.017.02.026.004.019.016.017.019.022.01.019.018.026.006.016.02.024.008.021.013.018.017.019.016.022.01.02.016.024.009.018.018.02.014.021.013.023.01.019.016.02.016.022.01.019.016.019.015.023.01.01-.021.017-.02.01-.022.019-.017.008-.025.015-.02.012-.02.016-.02.014-.02.016-.02.011-.022.018-.018.009-.023.01-.023.019-.017.013-.021.014-.02.012-.023.017-.018.014-.02.007-.025.018-.018.011-.022.013-.022.014-.02.015-.02.014-.02.013-.021.015-.02.005-.025.022-.016.009-.024.012-.02.018-.018.009-.025.016-.019.009-.023.018-.019.014-.019.016-.02.011-.021.013-.022.009-.024.019-.017.012-.021.01-.023.02-.017.006-.025.016-.02.013-.02.019-.018.008-.024.017-.019.013-.02.009-.024.016-.02.015-.019.011-.023.016-.017.012-.024.011-.022.015-.019.013-.022.011-.021.019-.017.009-.024.014-.02.012-.022.013-.021.017-.019.017-.019.008-.024.012-.02.02-.018.012-.022.013-.02.012-.022.017-.018.01-.023.01-.023.014-.021.017-.019.013-.02.009-.024.02-.016.009-.024.012-.022.02-.017.007-.023.015-.021.017-.019.009-.023.019-.017.005-.025.018-.019.019-.017.006-.026.014-.02.012-.022.019-.017.012-.022.011-.022.012-.02.021-.018.008-.023.017-.019.009-.023.014-.021.015-.02.014-.02.017-.02.009-.022.013-.02.016-.02.007-.026.022-.014.01-.023.013-.02.016-.02.014-.021.008-.025.016-.018.012-.023.011-.022.02-.016.015-.02.005-.026.013-.022.022-.014.007-.025.02-.016.013-.021.013-.022.013-.021.006-.026.016-.019.017-.018.011-.023.014-.02.014-.021.01-.022.02-.017.011-.022.009-.024.015-.02.014-.02.015-.02.017-.019.006-.026.014-.019.016-.02.014-.02.011-.023.018-.017.013-.021.009-.023.017-.02.009-.023.014-.021.017-.019.012-.02.012-.023.014-.02.02-.017.01-.022.013-.023.013-.02.017-.021-.023-.013-.022-.013-.018-.016-.022-.012-.021-.013-.02-.015-.02-.014-.02-.013-.02-.015-.023-.01-.019-.016-.02-.014-.019-.016-.024-.009-.019-.017-.02-.013-.02-.015-.02-.014-.021-.014-.025-.005-.019-.017-.021-.012-.016-.02-.027-.005-.016-.02-.021-.013-.021-.013-.024-.008-.019-.015-.02-.015-.017-.02-.025-.006-.021-.013-.017-.02-.021-.013-.022-.01-.018-.017-.024-.009-.017-.018-.021-.013-.02-.014-.022-.012-.018-.017-.021-.014-.025-.007-.021-.012-.019-.017-.02-.013-.02-.014-.018-.017-.022-.011-.021-.015-.022-.01-.018-.018-.021-.012-.022-.013-.021-.012-.02-.016-.019-.015-.025-.006-.017-.02-.024-.007-.02-.017-.016-.018-.02-.015-.023-.01-.02-.015-.021-.012-.022-.011-.022-.012-.018-.02-.02-.011-.02-.016-.019-.015-.023-.01-.024-.008-.015-.021-.023-.012-.024-.008-.019-.016-.021-.012-.021-.014-.019-.015-.02-.014-.018-.018-.021-.013-.023-.009-.019-.016-.02-.016-.024-.008-.021-.012-.02-.013-.018-.018-.019-.017-.022-.011-.023-.01-.021-.013-.02-.014-.017-.02-.021-.011-.022-.012-.018-.018-.023-.01-.018-.017-.022-.01-.022-.014-.018-.015-.024-.008-.019-.017-.022-.01-.02-.016-.02-.013-.018-.018-.024-.008-.018-.02-.022-.01-.023-.01-.017-.018-.023-.012-.018-.016-.024-.009-.019-.015-.02-.016-.021-.012-.023-.01-.018-.017-.019-.016-.025-.009-.019-.014-.019-.017-.02-.013-.02-.015-.024-.008-.021-.013-.019-.016-.021-.014-.02-.014-.02-.014-.018-.017-.023-.011-.018-.017-.025-.007-.021-.014-.019-.016-.019-.014-.023-.01-.021-.015-.019-.014-.023-.011-.017-.019-.023-.01-.017-.019-.023-.01-.02-.013-.019-.017-.025-.007-.017-.02-.021-.01-.023-.013-.016-.02-.026-.005-.02-.014-.017-.019-.025-.007-.018-.018-.021-.013-.02-.014-.02-.01-.017.014-.014.02-.008.026-.012.02-.021.016-.014.022-.005.024-.016.02-.012.021-.019.018-.014.02-.012.022-.015.02-.007.025-.02.017-.008.024-.014.02-.014.02-.014.02-.017.019-.009.024-.016.018-.014.022-.007.024-.014.02-.014.02-.02.018-.008.024-.016.018-.012.022-.016.019-.013.022-.009.023-.014.02-.012.023-.017.017-.011.023-.014.02-.014.021-.013.02-.018.019-.015.019-.008.024-.017.019-.014.02-.007.025-.014.02-.021.016-.01.023-.017.019-.01.022-.015.021-.01.022-.018.018-.013.02-.009.025-.014.02-.014.02-.014.022-.014.019-.014.021-.011.023-.011.021-.021.016-.013.022-.013.02-.007.026-.017.018-.012.021-.014.021-.014.02-.016.02-.008.024-.018.018-.009.024-.02.016-.011.022-.014.02-.01.024-.017.017-.013.022-.011.023-.013.02-.017.018-.007.026-.014.02-.02.017-.01.023-.01.022-.017.019-.014.02-.012.022-.016.019-.016.02-.008.023-.012.022-.015.019-.013.022-.018.018-.011.022-.011.022-.016.02-.015.018-.015.02-.006.026-.016.018-.013.022-.019.018-.01.023-.01.022-.019.017-.008.025-.015.02-.013.02-.011.023-.02.016-.009.024-.014.02-.018.019-.01.022-.012.022-.019.017-.005.026-.017.019-.015.02-.012.022-.011.022-.013.02-.014.021-.013.02-.019.018-.015.02-.009.024-.012.021-.012.023-.021.015-.011.022-.009.024-.015.02-.013.02-.015.02-.011.023-.016.02-.018.017-.013.021-.008.024-.014.022-.019.016-.009.025-.016.017-.008.025-.019.017-.009.024-.016.02-.013.021-.014.02-.011.022-.016.019-.014.021-.01.023-.013.02-.014.022-.015.02-.017.017-.008.024-.016.02-.015.02-.009.021Z" mask="url(#a)"/><path fill="#D9FFEF" d="m7.199 72.337.012-.008.015-.007.014-.006.013-.01.017-.003.013-.01.014-.009.015-.006.013-.01.015-.006.012-.012.014-.007.016-.005.013-.009.014-.01.014-.006.013-.01.013-.01.016-.005.012-.01.015-.007.014-.008.013-.01.014-.009.013-.008.015-.008.017-.002.012-.012.015-.005.013-.011.014-.008.014-.007.013-.01.017-.003.011-.013.014-.008.014-.008.016-.005.012-.011.013-.01.017-.004.012-.01.014-.008.016-.004.012-.012.014-.009.014-.008.014-.007.014-.009.014-.008.014-.007.014-.008.016-.005.015-.007.013-.01.015-.007.012-.01.014-.008.013-.01.017-.003.014-.008.013-.009.012-.011.015-.007.016-.005.012-.011.016-.005.011-.013.014-.009.017-.002.012-.01.016-.007.012-.011.013-.01.015-.006.013-.01.016-.003.013-.01.015-.006.013-.01.014-.009.014-.008.013-.01.015-.005.015-.008.014-.008.015-.006.012-.011.016-.005.014-.008.013-.009.012-.011.016-.006.014-.008.014-.007.013-.01.015-.006.013-.01.016-.004.011-.014.017-.004.011-.013.014-.007.015-.006.013-.01.017-.003.012-.01.016-.006.014-.008.013-.01.015-.005.013-.011.014-.007.015-.007.013-.01.013-.009.014-.009.015-.006.012-.011.016-.005.012-.011.014-.009.017-.002.014-.009.014-.008.014-.008.011-.013.015-.008.016-.003.014-.008.012-.012.013-.009.014-.008.017-.002.013-.011.015-.007.014-.006.013-.011.013-.011.014-.006.015-.007.012-.011.016-.006.016-.004.01-.015.015-.006.016-.004.013-.01.016-.006.01-.013.017-.004.012-.012.014-.008.015-.005.015-.007.013-.01.015-.007.012-.011.016-.005.014-.008.014-.008.013-.01.015-.008.015-.006.012-.01.016-.007.014-.006.012-.01-.01-.013-.005-.016-.01-.012-.005-.017-.011-.012-.007-.015-.009-.013-.006-.015-.008-.014-.006-.016-.01-.013-.004-.016-.011-.012-.01-.013-.004-.017-.009-.013-.007-.015-.01-.013-.005-.016-.007-.014-.013-.012-.005-.016-.009-.013-.009-.014-.007-.014-.007-.015-.007-.014-.009-.014-.007-.015-.013-.011-.003-.017-.01-.013-.009-.013-.004-.016-.012-.012-.006-.016-.011-.012-.005-.016-.007-.014-.007-.016-.01-.013-.008-.014-.01-.012-.005-.017-.009-.013-.01-.013-.003-.016-.013-.012-.007-.015-.008-.014-.004-.016-.011-.012-.007-.016-.008-.014-.01-.012-.007-.015-.007-.015-.01-.013-.005-.015-.01-.014-.01-.013-.006-.014-.008-.015-.01-.013-.003-.016-.011-.013-.009-.014-.008-.014L9 70.018l-.005-.016-.006-.016-.012-.012-.008-.013-.004-.017-.009-.014-.008-.014-.009-.013-.005-.016-.01-.012-.01-.013-.009-.015-.005-.015-.008-.014-.011-.013-.003-.016-.012-.012-.009-.015-.004-.016-.01-.012-.008-.014-.006-.016-.011-.012-.004-.017-.013-.01-.005-.016-.005-.017-.012-.011-.008-.014-.009-.014-.004-.016-.01-.013-.009-.014-.008-.013-.004-.018-.011-.011-.006-.016-.01-.012-.008-.015-.007-.014-.007-.015-.007-.015-.01-.013-.008-.014-.007-.015-.012-.012-.002-.017-.01-.013-.008-.014-.007-.015-.008-.014-.011-.013-.006-.015-.01-.013-.009-.013-.003-.017-.008-.015-.013-.01-.009-.015-.002-.017-.012-.012-.003-.017-.008-.013-.009-.015-.008-.013-.013-.012-.006-.015-.006-.015-.01-.014-.007-.014-.008-.014-.01-.013-.004-.017-.009-.013-.01-.012-.008-.015-.008-.015-.006-.014-.006-.016-.014-.011-.006-.014-.007-.015-.008-.015-.01-.013-.004-.016-.008-.014-.01-.013-.006-.015-.012-.012-.008-.015-.005-.016-.009-.013-.009-.013-.007-.015-.004-.017-.01-.013-.01-.013-.007-.014-.007-.017-.014.01-.014.009-.015.006-.014.01-.014.007-.014.008-.014.007-.014.008-.014.008-.013.01-.015.007-.014.007-.015.006-.012.012-.016.006-.013.008-.015.007-.014.008-.014.008-.011.013-.015.006-.014.008-.016.004-.01.014-.017.004-.014.008-.014.008-.012.012-.014.008-.015.007-.016.003-.012.013-.013.009-.017.004-.014.008-.013.01-.014.006-.013.011-.016.004-.014.01-.014.007-.013.009-.015.006-.015.008-.011.012-.013.01-.016.005-.014.008-.014.007-.015.006-.013.01-.014.008-.013.01-.016.005-.013.009-.014.009-.014.008-.015.007-.014.007-.011.013-.016.004-.012.012-.015.006-.016.005-.014.007-.013.01-.015.008-.013.009-.013.009-.014.01-.016.004-.013.008-.015.007-.015.007-.012.01-.012.012-.017.003-.014.01-.011.012-.015.006-.014.009-.014.008-.015.007-.014.007-.015.005-.014.009-.012.01-.015.007-.015.007-.012.012-.013.008-.014.008-.016.005-.015.007-.013.009-.013.01-.014.01-.014.007-.016.003-.013.01-.014.01-.015.004-.013.01-.015.006-.013.01-.014.009-.015.006-.012.012-.015.006-.013.01-.015.007-.013.008-.016.005-.012.012-.016.004-.013.01-.012.01-.016.005-.014.01-.014.006-.013.011-.015.007-.015.007-.013.009-.012.01-.016.006-.015.006-.012.012-.014.007-.016.006-.013.008-.015.007-.012.012-.014.008-.014.007-.015.008-.014.008-.014.007-.015.006-.014.01-.015.005-.011.013-.015.008-.015.006-.014.008-.013.01-.014.008-.014.007-.013.01-.016.005-.013.01-.016.004-.013.01-.013.009-.016.006-.011.012-.016.005-.014.009-.013.01-.017.003-.01.014-.015.007-.016.004-.011.013-.016.005-.014.009-.014.007-.011.009.002.014.008.015.012.012.009.013.002.017.008.015.013.01.007.016.008.013.005.016.007.015.01.013.006.015.013.012.003.017.012.012.007.014.008.015.007.014.006.015.011.012.006.015.008.015.012.012.007.014.008.015.004.016.011.012.006.015.01.014.005.015.009.014.011.012.007.014.01.014.004.016.01.013.008.014.008.015.008.014.005.015.006.015.012.012.006.016.007.014.012.012.008.014.003.017.01.013.006.015.01.013.007.015.01.013.005.016.008.014.01.012.01.015.006.014.009.014.006.015.008.014.01.013.01.013.002.017.009.014.007.014.013.012.006.015.008.014.008.015.007.014.007.015.012.012.004.016.012.012.003.017.01.013.006.014.012.013.004.016.01.014.009.013.008.014.005.016.013.011.007.015.004.016.01.013.01.013.006.016.007.014.01.013.006.015.006.016.011.012.009.013.007.015.008.014.005.016.01.013.01.013.006.015.006.015.007.015.014.011.005.015.009.014.004.016.01.013.01.013.005.016.011.012.008.015.008.014.009.013.003.017.012.012.007.015.005.016.01.013.01.013.004.016.013.011.006.016.006.014.01.014.01.013.007.014.008.015.008.014.004.016.007.015.012.012.008.013.01.014.002.017.01.014.01.012.008.015.008.014.007.015.01.013.006.015.005.016.008.014.011.012.008.014.004.017.012.012.005.015.012.012.004.016.011.013.007.015.008.014.007.014.01.013.006.016.008.014.01.013.008.014.009.014.006.015.005.016.012.012.006.015.008.015.009.011ZM176.055 53.638l.012-.008.015-.007.015-.006.013-.01.016-.004.014-.009.013-.01.015-.006.013-.009.015-.006.012-.012.014-.007.016-.005.014-.009.013-.01.014-.007.013-.009.013-.01.016-.005.013-.01.015-.007.013-.008.013-.011.014-.008.014-.008.014-.008.017-.002.012-.012.016-.005.012-.012.014-.007.015-.007.012-.01.017-.004.012-.012.013-.008.015-.008.016-.005.012-.011.013-.01.016-.004.013-.01.013-.008.017-.004.012-.012.014-.009.013-.008.015-.007.013-.009.014-.008.015-.008.013-.008.016-.005.015-.007.013-.009.015-.007.013-.01.013-.008.014-.01.017-.003.013-.008.013-.009.012-.012.016-.006.015-.005.013-.011.015-.005.012-.013.013-.009.017-.002.013-.011.015-.006.012-.011.013-.01.015-.007.013-.009.017-.004.013-.009.015-.006.013-.01.014-.009.013-.009.013-.009.016-.005.014-.009.014-.007.016-.006.012-.011.015-.005.014-.009.013-.008.012-.012.016-.005.014-.008.015-.007.013-.01.014-.007.014-.009.016-.004.011-.014.016-.004.011-.013.014-.007.016-.006.012-.01.017-.003.013-.01.015-.006.014-.008.013-.01.015-.005.014-.011.014-.007.015-.007.012-.01.014-.009.014-.009.014-.007.012-.01.016-.005.013-.011.014-.009.017-.003.013-.008.015-.008.013-.008.012-.013.014-.008.017-.003.013-.008.012-.012.013-.01.015-.007.017-.002.012-.011.015-.007.015-.006.013-.011.012-.011.015-.006.015-.007.012-.011.015-.007.016-.004.011-.014.015-.006.016-.004.013-.01.015-.006.011-.014.017-.003.011-.012.015-.008.015-.006.015-.006.013-.01.015-.007.012-.012.015-.005.014-.007.015-.008.012-.01.015-.008.015-.006.013-.01.015-.007.014-.007.013-.01-.01-.012-.005-.016-.011-.013-.004-.016-.012-.012-.007-.015-.008-.014-.007-.015-.007-.014-.007-.015-.009-.013-.005-.016-.011-.013-.01-.012-.004-.017-.008-.013-.008-.015-.009-.013-.006-.016-.007-.014-.012-.012-.005-.016-.009-.013-.009-.014-.007-.014-.007-.015-.008-.014-.008-.015-.007-.014-.014-.011-.002-.017-.011-.013-.009-.013-.004-.017-.012-.012-.006-.015-.011-.012-.005-.016-.007-.015-.007-.015-.009-.013-.008-.014-.011-.013-.005-.016-.008-.013-.01-.013-.004-.017-.013-.011-.007-.015-.008-.014-.004-.016-.011-.013-.006-.015-.008-.014-.011-.012-.006-.015-.007-.015-.01-.014-.005-.014-.011-.014-.009-.013-.006-.015-.009-.014-.009-.013-.004-.017-.011-.012-.008-.014-.009-.014-.008-.014-.006-.015-.005-.016-.012-.012-.009-.014-.003-.016-.009-.014-.009-.014-.008-.013-.006-.016-.01-.013-.01-.012-.008-.015-.006-.016-.008-.013-.011-.013-.003-.017-.011-.012-.009-.014-.004-.016-.011-.012-.008-.014-.006-.016-.011-.013-.003-.016-.014-.01-.005-.017-.004-.016-.013-.011-.008-.014-.009-.014-.004-.016-.009-.014-.009-.013-.009-.014-.003-.017-.012-.011-.005-.016-.011-.013-.008-.014-.006-.014-.008-.015-.006-.016-.011-.012-.007-.014-.007-.015-.013-.012-.002-.017-.01-.013-.008-.014-.006-.015-.008-.015-.012-.012-.005-.015-.01-.013-.009-.014-.004-.016-.007-.015-.013-.01-.009-.015-.002-.017-.012-.012-.003-.017-.008-.014-.009-.014-.009-.013-.012-.012-.007-.015-.005-.015-.01-.014-.007-.014-.009-.014-.009-.013-.004-.017-.009-.013-.011-.012-.008-.015-.007-.015-.007-.014-.006-.016-.013-.011-.007-.015-.007-.015-.007-.014-.01-.013-.004-.017-.009-.013-.01-.013-.006-.015-.012-.013-.007-.014-.006-.016-.008-.013-.009-.014-.008-.014-.004-.017-.009-.013-.01-.014-.008-.014-.007-.016-.014.01-.014.008-.015.007-.013.01-.014.007-.015.008-.014.007-.013.008-.015.008-.013.01-.015.006-.014.008-.015.006-.012.012-.015.005-.014.008-.015.008-.014.007-.014.009-.011.012-.015.007-.013.008-.017.004-.01.014-.017.004-.014.008-.014.008-.012.012-.014.007-.015.007-.016.004-.011.013-.014.009-.016.004-.014.008-.013.01-.015.006-.012.01-.016.005-.014.01-.014.006-.013.01-.016.005-.014.009-.012.012-.013.01-.015.005-.014.008-.014.007-.016.006-.012.01-.015.007-.013.01-.015.006-.014.008-.014.01-.013.008-.015.007-.014.007-.012.013-.016.004-.012.012-.015.006-.015.004-.015.008-.013.01-.014.007-.014.01-.013.009-.013.01-.017.004-.013.008-.015.007-.014.007-.013.01-.012.012-.017.003-.013.01-.012.012-.015.006-.014.009-.013.008-.015.006-.014.008-.016.005-.013.008-.013.011-.015.007-.015.007-.012.012-.013.008-.014.008-.015.005-.016.007-.013.009-.012.01-.014.01-.014.006-.017.004-.013.01-.014.009-.015.005-.013.01-.015.006-.013.01-.014.009-.014.006-.012.011-.015.007-.013.01-.015.007-.014.008-.016.005-.012.011-.016.005-.012.01-.013.01-.016.005-.013.01-.015.006-.012.01-.015.008-.015.007-.013.008-.013.01-.016.007-.015.006-.012.012-.014.007-.015.006-.014.008-.014.007-.012.012-.014.008-.015.007-.015.008-.013.008-.015.007-.015.006-.013.01-.015.005-.012.013-.014.008-.015.006-.014.007-.013.01-.014.008-.014.008-.014.01-.016.004-.012.01-.017.005-.012.01-.014.009-.015.005-.012.013-.016.004-.013.01-.014.009-.016.004-.011.013-.014.008-.016.004-.012.013-.015.005-.014.008-.015.008-.011.009.003.014.007.014.013.012.008.014.003.017.008.014.012.011.007.015.009.014.004.016.008.015.009.013.007.015.012.012.004.016.012.013.007.014.007.014.008.014.005.016.012.012.005.015.008.015.013.011.007.015.007.014.004.017.012.012.005.015.01.014.006.014.008.015.011.012.008.014.009.014.005.015.01.014.007.014.008.015.008.013.005.016.007.015.012.012.005.015.008.015.012.011.008.015.002.017.011.012.005.016.01.013.008.015.009.013.006.016.007.014.011.012.009.014.007.014.008.015.007.014.008.015.009.013.01.013.002.017.009.014.008.014.013.012.005.015.009.014.007.015.008.014.006.015.012.012.005.016.011.012.003.017.01.013.007.014.011.013.005.016.009.014.009.013.008.014.005.016.013.011.008.015.004.016.01.013.01.013.005.015.008.015.009.013.006.015.006.015.012.013.008.013.007.015.009.014.005.016.01.013.009.013.006.015.007.015.007.015.013.01.005.016.009.014.005.016.01.013.01.013.004.016.012.012.007.015.008.014.009.013.004.017.011.012.008.015.005.015.009.014.01.013.004.016.013.011.006.016.007.014.009.014.01.013.008.014.007.015.008.013.005.017.007.015.011.012.009.013.009.014.003.017.009.014.011.012.007.015.008.014.007.014.01.014.006.015.005.016.008.014.012.012.008.014.004.017.011.012.006.015.011.012.005.016.011.012.006.016.009.014.006.014.01.013.006.016.009.014.01.013.008.013.008.015.007.015.005.015.011.012.007.016.007.014.009.012ZM107.667 117.809l.003-.027.006-.03.009-.028v-.03l.014-.028.002-.031.002-.029.008-.03.002-.029.008-.03-.003-.031.006-.028.01-.029.003-.029.003-.031.005-.029.002-.03-.001-.03.012-.028v-.031l.007-.029.004-.029v-.032l.004-.029.005-.029.004-.03.017-.028-.003-.03.009-.03-.001-.03.005-.029.007-.03v-.03l.014-.028-.004-.031.004-.029.005-.03.01-.029-.001-.031.002-.029.011-.029v-.03l.004-.029.013-.028-.003-.031.004-.031.003-.029.007-.03.003-.029.004-.029.006-.03.004-.029.011-.029.007-.03.002-.029.007-.03v-.03l.004-.029.001-.031.015-.028.005-.029.002-.03-.003-.031.008-.029.011-.029-.002-.03.011-.029-.006-.032.003-.029.017-.027-.002-.031.01-.029-.003-.031.002-.029.007-.03.001-.03.014-.028.001-.03.009-.029v-.03l.004-.03.003-.03.002-.029.009-.03.005-.03.005-.029.01-.029-.003-.031.011-.028.004-.029.003-.03-.003-.031.011-.028.004-.031.007-.028.001-.03.007-.03.002-.029.012-.029-.007-.032.013-.028-.005-.031.005-.029.008-.029.001-.03.014-.028.001-.03.01-.029.004-.029v-.032l.01-.027v-.032l.007-.028.007-.03-.001-.03.003-.03.004-.03.006-.029-.002-.03.012-.029-.001-.03.003-.031.016-.028.003-.029.006-.03.004-.029-.006-.031.005-.031.014-.028.005-.029-.003-.03.002-.03.004-.03.017-.028-.002-.03.007-.03.008-.028v-.032l-.002-.03.008-.028.007-.03-.002-.031.009-.029.013-.028-.008-.032.008-.028.012-.029.001-.03.009-.029-.007-.032.015-.027-.005-.032.005-.03.009-.028.009-.029v-.03l.007-.03-.003-.031.011-.028.005-.029.005-.03v-.031l.007-.029.008-.03-.001-.03.009-.029.006-.029v-.03l-.029-.001-.029-.009h-.03l-.028-.012-.03.003-.03-.007-.029-.003-.029-.007-.029-.006-.029-.008-.029-.002-.029-.011-.03.002-.03.001-.028-.013-.029-.004-.03-.006-.029-.001-.029-.01-.028-.006-.031.005-.029-.011-.029-.002-.031-.003-.028-.006-.029-.007-.029-.006-.03-.003-.028-.007-.032.007-.027-.016-.031.002-.029-.003-.028-.012-.03.003-.03-.009-.03.002-.028-.011-.029-.007-.029-.007-.029-.002-.031-.003-.03.002-.028-.012-.029-.003-.03-.001-.028-.013-.031.005-.029-.007-.029-.004-.028-.012-.031.002-.029-.009-.029-.004-.03.002-.029-.009-.028-.007-.031-.001-.028-.009-.031-.001-.029-.002-.028-.006-.031-.004-.029-.002-.028-.013-.03.002-.03-.005-.029-.003-.029-.003-.029-.01-.029-.009-.031.003-.029-.003-.028-.014-.03-.003-.029-.003-.029-.003-.029-.01-.03.001-.03-.001-.03-.005-.028-.009-.029-.005-.03.002-.028-.014-.031.003-.03-.004-.028-.013-.029.003-.03-.006-.029-.009-.03.002-.028-.014-.03.007-.029-.01-.028-.013-.031.006-.029-.004-.03-.004-.028-.012-.03-.002-.029-.002-.029-.003-.029-.015-.03.004-.028-.01-.03.001-.03-.005-.029-.007-.029-.006-.029-.008-.03.001-.029-.005-.03-.007-.03.004-.028-.017-.029.001-.029-.004-.029-.009-.03-.004-.031.003-.028-.01-.03-.001-.03-.001-.027-.015-.03-.006-.03.007-.031-.003-.027-.017-.031.004-.027-.014-.029-.005-.03-.003-.029-.003-.032.005-.029-.008-.027-.009-.031-.001-.029-.006-.03-.005h-.029l-.028-.014-.03-.002-.03.002-.03-.006-.029-.005-.029-.007-.029-.01-.031.007-.028-.007-.03-.007-.029-.006-.03-.001-.028-.012-.029-.003-.03.001-.029-.01-.031.003-.029-.006-.029-.009-.029-.003-.03-.002-.029-.006-.028-.013-.03-.001-.031-.002-.028-.005-.032-.009-.002.032-.004.031-.008.028-.002.031-.004.029-.006.03-.006.029-.004.029-.006.03v.03l-.008.03-.005.028-.008.03.003.031-.01.029-.004.029-.006.03-.005.028-.005.031.006.03-.009.029-.003.03-.013.028.008.032-.013.028-.004.029-.005.031.003.03-.006.029-.007.03-.013.028.006.031-.003.03-.014.028-.004.03-.001.03-.008.028.002.031-.012.028-.003.031-.006.029-.002.029-.009.03-.005.03.004.031-.001.03-.01.029-.004.029-.006.029-.009.029-.001.03-.006.03v.029l-.01.03-.003.029-.003.031-.004.029-.007.03-.006.028.005.031-.012.029.003.031-.008.029-.012.027-.006.03v.03l-.006.03-.002.03-.002.03-.002.031-.012.028-.003.029-.007.03-.007.029.001.03.003.031-.016.027-.002.031.004.031-.008.028-.003.031-.004.029-.007.03-.006.029-.011.028-.003.03.002.03-.008.03-.007.029.003.031-.003.03-.005.029-.01.028-.009.03-.002.029.001.031-.003.03-.006.029-.013.028-.002.03-.002.031-.011.027.001.032-.01.028v.03l-.004.03-.008.028.004.031-.009.03v.03l-.007.029-.005.029-.011.029.004.031-.012.028-.001.03v.031l-.01.028-.002.031-.008.028.001.031-.007.03-.007.029-.003.03.001.03-.01.029-.008.029.003.031-.005.029-.01.029-.004.029-.006.03.003.031-.004.029-.007.03-.006.03-.005.029-.005.03-.01.028-.001.031-.009.028.004.031-.004.03-.008.03-.006.028-.001.03-.004.031-.006.028-.001.031-.012.029.001.03-.012.029-.001.03-.003.029-.009.029.004.031-.012.029-.002.029-.002.031-.013.029.007.031-.006.029-.012.029.004.031-.009.029-.005.029-.005.03v.026l.023.012.03.006.03-.004.03.003.027.016.03.004.03-.006.029.008.029.003.029.012.029.006.03.002.029.007.031-.005.028.014.03-.003.029.005.03.006.028.006.029.009.031-.003.027.01.03.004.031-.004.029.006.029.005.028.014.031-.003.027.009.031.002.028.008.03.004.03-.002.029.005.031.003.027.01.031.001.028.006.03.004.029.005.029.011.028.006.03-.003.029.01.03.006.03-.005.03.005.027.016.03-.001.029.01h.029l.03.006.03.001.028.011.029.004.03-.002.03.005.029.005.03.005.028.007.03.005h.03l.029.002.028.016.03.003.029.005.031-.006.029.01.029.003.029.006.029.005.029.009.031-.005.028.012.031-.003.027.015.03.001.028.006.032-.001.027.01.03.004h.03l.029.005.028.011.031-.006.03.006.028.013h.06l.029.01.028.006.029.001.03.009.029.008.03-.003.029.003.029.007.03.004.028.01.03.001.029.002.03.008.028.007.029.007.032-.007.027.01.031.003.028.012h.059l.029.012.03-.003.03.006.029.005.029.001.028.015.03-.003.03.006.029.011h.029l.03.002.028.012.031-.007.029.01.028.007.031.002.03.001.028.004.03.006.029.004.028.012.03.008.03-.004.029.004.031.002.027.016.03.001.03-.001.03.006.028.004.03.007.029.001.03.008.028.011.029.004.031-.003.03.005.027.013.031-.003.028.009.03-.003.028.012.031-.001.029.008.03.003.028.007.03.001.029.008.03.005.03-.001.029.005.03.004.029.007.028.011.03-.003.029.008.03.006h.027Z"/><path fill="#D9FFEF" stroke="#090B0E" stroke-width=".742" d="M109.792 106.894c.591.511.66 1.41.153 2.008a1.401 1.401 0 0 1-1.989.156 1.434 1.434 0 0 1-.153-2.008 1.402 1.402 0 0 1 1.989-.156Z"/><path fill="#D9FFEF" stroke="#090B0E" d="M12.005 78.135c0 1.022-.82 1.842-1.82 1.842-1.002 0-1.821-.82-1.821-1.842 0-1.022.82-1.843 1.82-1.843 1.002 0 1.821.82 1.821 1.843Z"/></svg>