<svg width="202" height="139" viewBox="0 0 202 139" fill="none" xmlns="http://www.w3.org/2000/svg">
<path d="M4.33133 120.99L3.97607 120.323L4.24827 119.426L4.16811 118.577L3.92922 117.738L3.62449 116.921L3.79988 116.043L3.46809 115.192L3.54667 114.332L3.68718 113.48L3.51413 112.618L3.49591 111.777L3.66739 110.929L3.65307 110.057L3.41418 109.218L3.55861 108.336L3.66424 107.511L3.64993 106.639L3.47688 105.777L3.61739 104.925L3.50627 104.072L3.49196 103.2L3.72537 102.36L3.80004 101.531L3.69283 100.647L3.92623 99.8074L3.72222 98.9418L3.98659 98.1062L3.94131 97.2302L4.20569 96.3946L4.1565 95.5492L4.35894 94.7054L4.56138 93.8617L4.79088 93.0526L4.83849 92.1887L4.79322 91.3128L5.11952 90.4852L5.44191 89.6882L5.52049 88.8283L5.74998 88.0192L5.98339 87.1795L5.84913 86.2609L6.07862 85.4518L6.67578 84.7216L6.78533 83.8658L6.77493 82.9633L6.9425 82.1461L7.50869 81.4119L7.37835 80.4627L8.00256 79.7671L7.99216 78.8647L8.40353 78.1103L8.48603 77.2199L8.86643 76.4615L9.39775 75.7538L9.54218 74.8715L9.98451 74.1212L9.94315 73.2146L10.2655 72.4176L10.5879 71.6206L11.2392 70.9596L11.4996 70.1545L11.6131 69.2682L12.1135 68.5565L12.3469 67.7168L12.9362 67.0477L13.4366 66.336L13.7009 65.5004L14.1394 64.7806L14.5198 64.0222L14.6371 63.1053L15.2265 62.4363L15.4289 61.5926L15.9873 60.9195L16.6617 60.3237L17.0731 59.5693L17.4844 58.8149L17.8107 57.9874L18.2182 57.2636L18.5135 56.432L19.215 55.8707L19.5993 55.0818L20.2157 54.4473L20.511 53.6157L21.2086 53.0851L21.736 52.408L22.1783 51.6576L22.6748 50.9765L22.974 50.1143L23.4705 49.4332L24.199 48.9066L24.7264 48.2295L25.1958 47.5137L25.6381 46.7634L26.2815 46.1636L26.8089 45.4865L27.3944 44.848L27.8947 44.1363L28.5884 43.6362L29.2047 43.0018L29.7012 42.3206L30.4838 41.8632L31.1233 41.2939L31.5927 40.5782L32.066 39.8319L32.7056 39.2626L33.5423 38.8744L34.0967 38.2319L34.8213 37.7358L35.3527 37.0282L35.826 36.2819L36.7399 36.028L37.2132 35.2817L37.8567 34.6819L38.4962 34.1126L39.2749 33.6857L40.0497 33.2894L40.6622 32.6856L41.3017 32.1163L41.833 31.4086L42.7431 31.1853L43.3054 30.4817L43.8908 29.8432L44.8008 29.6199L45.5486 29.189L46.1881 28.6197L46.9358 28.1888L47.6604 27.6928L48.327 27.1581L49.0207 26.658L49.6872 26.1233L50.493 25.731L51.2407 25.3002L51.9575 24.8652L52.7092 24.4038L53.5302 24.1378L54.278 23.7069L55.0798 23.3452L55.7966 22.9103L56.4208 22.2147L57.3423 22.1483L58.117 21.752L58.8648 21.3211L59.5894 20.825L60.4105 20.559L61.1351 20.063L61.9522 19.8276L62.7078 19.3356L63.552 19.1347L64.3691 18.8993L65.1016 18.3421L66.0152 18.3368L66.8402 18.0403L67.6381 17.7091L68.3627 17.2131L69.234 17.0469L70.0935 16.9724L70.8914 16.6412L71.6933 16.2795L72.4449 15.8181L73.3625 15.7822L74.1373 15.3859L74.9583 15.1199L75.8834 15.2714L76.7276 15.0706L77.4832 14.5786L78.3776 14.4775L79.2139 14.3379L80.0621 14.1065L80.9255 14.0014L81.7619 13.8617L82.6332 13.6955L83.4735 13.5253L84.3138 13.355L85.1772 13.2499L85.9676 12.7314L86.8233 12.6874L87.6981 12.7392L88.5576 12.6647L89.4481 12.5942L90.2731 12.2976L91.1173 12.0968L92.0153 12.2137L92.8442 11.8866L93.7037 11.8121L94.59 12.0207L95.4726 12.0114L96.3436 12.0937L97.1881 11.6444L98.0398 11.631L98.9261 11.8396L99.7817 11.7956L100.633 11.7822L101.512 11.8034L102.368 11.7595L103.254 11.7196L104.126 11.5533L104.993 11.6662L105.844 11.6529L106.707 12.0449L107.59 11.787L108.438 11.8041L109.289 12.0393L110.164 12.0911L111.023 12.2651L111.882 12.4391L112.734 12.4257L113.629 12.3247L114.484 12.5293L115.363 12.5505L116.163 12.9344L117.042 12.9556L117.925 12.9462L118.726 13.3302L119.589 13.4737L120.479 13.4032L121.276 13.8177L122.139 13.9611L123.014 14.0129L123.885 14.0952L124.694 14.4181L125.487 14.8631L126.416 14.7356L127.178 15.1766L128.03 15.4118L128.947 15.3759L129.756 15.6987L130.522 16.1092L131.323 16.4931L132.19 16.606L133.06 16.6883L133.861 17.0723L134.717 17.2769L135.479 17.7179L136.202 18.2161L137.15 18.1842L137.916 18.5947L138.64 19.0928L139.584 19.0915L140.311 19.5591L141.202 19.7372L141.878 20.3535L142.695 20.6152L143.371 21.2316L144.18 21.5544L145.074 21.7019L145.844 22.0818L146.653 22.4046L147.419 22.8151L148.142 23.3133L148.989 23.579L149.557 24.3055L150.405 24.5712L151.047 25.2141L151.898 25.4493L152.707 25.7721L153.271 26.5292L154.041 26.9091L154.962 27.0912L155.608 27.7035L156.3 28.1977L157.143 28.4939L157.758 29.1022L158.365 29.7717L159.205 30.0985L159.742 30.821L160.504 31.2621L161.231 31.7297L162.001 32.1096L162.573 32.8055L163.192 33.3833L164.136 33.6305L164.642 34.349L165.443 34.7329L166.019 35.3983L166.707 35.923L167.287 36.5579L168.08 37.0029L168.695 37.6112L169.166 38.3562L169.672 39.0747L170.504 39.4627L170.975 40.2077L171.702 40.6753L172.174 41.4203L173.002 41.8388L173.403 42.6369L173.944 43.3288L174.807 43.7208L175.104 44.5985L175.753 45.1802L176.229 45.8947L176.878 46.4764L177.702 46.9256L178.177 47.64L178.509 48.4911L179.333 48.9402L179.599 49.8139L180.319 50.3426L180.755 51.1141L181.439 51.6693L181.876 52.4409L182.285 53.1778L182.966 53.7636L183.236 54.6067L183.846 55.2455L184.186 56.0355L184.696 56.7234L185.167 57.4684L185.538 58.2625L186.253 58.8217L186.388 59.7404L187.138 60.2731L187.609 61.0181L187.778 61.9102L188.354 62.5756L188.527 63.4371L189.099 64.1331L189.439 64.9231L189.949 65.611L190.42 66.356L190.458 67.2931L191.065 67.9625L191.308 68.771L191.845 69.4935L192.254 70.2304L192.392 71.1185L192.697 71.935L192.905 72.77L193.578 73.417L193.851 74.2295L194.257 74.997L194.298 75.9035L194.669 76.6975L195.175 77.416L195.286 78.2695L195.494 79.1045L195.702 79.9395L196.138 80.711L196.346 81.546L196.326 82.4445L196.696 83.2385L197.168 83.9835L197.407 84.8225L197.258 85.7354L197.532 86.5479L197.709 87.3789L198.238 88.1625L198.094 89.0449L198.333 89.8839L198.606 90.6964L198.718 91.5499L199.053 92.3704L198.878 93.2488L199.372 94.0589L199.483 94.9124L199.382 95.7071L198.557 95.755L197.72 96.1433L196.861 96.2178L196.017 96.4186L195.138 96.3974L194.309 96.476L193.438 96.6422L192.559 96.621L191.761 96.9521L190.844 96.7395L190.019 97.036L189.164 97.08L188.304 97.1545L187.452 97.4164L186.62 97.5255L185.698 97.3434L184.9 97.6746L184.037 97.7797L183.208 98.1068L182.303 97.8024L181.512 98.321L180.61 98.2346L179.751 98.3091L178.914 98.4488L178.051 98.5539L177.18 98.4716L176.374 98.8638L175.476 98.7469L174.613 98.852L173.753 98.9265L172.963 99.4451L172.084 99.4239L171.225 99.4984L170.4 99.7949L169.521 99.7737L168.65 99.6914L167.802 99.9228L166.946 99.9667L166.071 99.9149L165.242 100.242L164.414 100.569L163.535 100.548L162.679 100.592L161.8 100.571L160.952 100.802L160.123 101.129L159.256 101.016L158.427 101.343L157.549 101.322L156.712 101.462L155.849 101.567L154.989 101.641L154.145 101.842L153.278 101.978L152.441 102.118L151.578 102.223L150.669 101.949L149.828 102.119L149.003 102.416L148.159 102.617L147.246 102.373L146.432 102.827L145.588 102.779L144.713 102.976L143.854 103.05L142.983 102.968L142.169 103.421L141.298 103.339L140.439 103.413L139.575 103.519L138.712 103.624L137.871 103.794L137.001 103.712L136.179 104.226L135.308 104.144L134.41 104.027L133.566 104.228L132.73 104.367L131.847 104.377L131.037 104.8L130.151 104.591L129.311 104.761L128.424 104.801L127.618 105.193L126.74 105.172L125.938 105.534L125.044 105.386L124.211 105.744L123.336 105.692L122.461 105.64L121.606 105.684L120.773 106.042L119.909 106.147L119.061 106.379L118.194 106.266L117.315 106.244L116.498 106.728L115.589 106.455L114.748 106.625L113.927 106.891L113.041 106.931L112.196 107.132L111.375 107.398L110.489 107.189L109.637 107.451L108.797 107.621L107.903 107.474L107.059 107.674L106.21 107.906L105.363 107.889L104.472 107.959L103.651 108.225L102.83 108.491L101.943 108.531L101.103 108.701L100.205 108.584L99.3648 108.755L98.49 108.703L97.6265 108.808L96.8208 109.2L95.9726 109.432L95.0593 109.188L94.2497 109.611L93.3941 109.655L92.5538 109.825L91.675 109.804L90.823 110.066L89.9136 109.792L89.0772 109.932L88.2483 110.259L87.408 110.429L86.5638 110.63L85.7003 110.735L84.8177 110.745L83.9468 110.662L83.0986 110.894L82.2352 110.999L81.3988 111.138L80.5354 111.243L79.7065 111.571L78.8277 111.549L77.9529 111.498L77.1471 111.89L76.2338 111.647L75.3782 111.691L74.5262 111.953L73.6937 112.062L72.8224 112.228L71.986 112.368L71.1187 112.503L70.2438 112.451L69.4302 112.905L68.5554 112.853L67.7383 113.088L66.8403 112.972L65.9576 112.981L65.1326 113.277L64.2731 113.352L63.4096 113.457L62.5925 113.692L61.7251 113.828L60.8272 113.711L60.0214 114.103L59.1159 113.799L58.2909 114.096L57.4467 114.296L56.5448 114.21L55.7199 114.507L54.845 114.455L54.0047 114.625L53.1719 114.983L52.2586 114.74L51.4528 115.132L50.6086 115.333L49.7452 115.438L48.855 115.26L47.9763 115.238L47.1399 115.378L46.2918 115.61L45.486 116.002L44.6073 115.981L43.767 116.151L42.9227 116.352L42.0248 116.235L41.1499 116.183L40.3171 116.541L39.4191 116.424L38.6134 116.816L37.7271 116.607L36.8637 116.712L36.0117 116.974L35.1906 117.24L34.3425 117.472L33.4292 117.228L32.6042 117.525L31.76 117.726L30.9083 117.739L30.0103 117.622L29.1429 117.758L28.3333 118.181L27.4353 118.064L26.6373 118.395L25.7354 118.309L24.8567 118.287L24.0125 118.488L23.1683 118.689L22.3433 118.986L21.4261 118.773L20.6435 119.23L19.753 119.301L18.9013 119.314L18.0531 119.546L17.163 119.368L16.3572 119.76L15.44 119.547L14.5844 119.591L13.7516 119.949L12.8996 120.211L12.0632 120.35L11.1844 120.329L10.2864 120.212L9.46535 120.478L8.58269 120.488L7.74239 120.658L6.85972 120.667L6.0116 120.899L5.16347 121.13L4.33133 120.99Z" fill="url(#paint0_linear_3119_27767)"/>
<rect x="-0.451405" y="-0.544685" width="119.938" height="78.57" rx="3.46715" transform="matrix(0.995602 0.0936835 -0.0927912 0.995686 43.3437 26.0741)" fill="white" stroke="#090B0E"/>
<mask id="path-3-outside-1_3119_27767" maskUnits="userSpaceOnUse" x="41.7078" y="36.1504" width="121" height="79" fill="black">
<rect fill="white" x="41.7078" y="36.1504" width="121" height="79"/>
<path fill-rule="evenodd" clip-rule="evenodd" d="M161.424 39.001C161.531 39.3568 161.573 39.7387 161.536 40.1313L154.889 111.458C154.737 113.09 153.291 114.288 151.659 114.134L42.7078 103.882V40.1175C42.7078 38.4788 44.0362 37.1504 45.6749 37.1504H158.674C159.918 37.1504 160.983 37.9156 161.424 39.001Z"/>
</mask>
<path fill-rule="evenodd" clip-rule="evenodd" d="M161.424 39.001C161.531 39.3568 161.573 39.7387 161.536 40.1313L154.889 111.458C154.737 113.09 153.291 114.288 151.659 114.134L42.7078 103.882V40.1175C42.7078 38.4788 44.0362 37.1504 45.6749 37.1504H158.674C159.918 37.1504 160.983 37.9156 161.424 39.001Z" fill="#090B0E"/>
<path d="M161.424 39.001L162.381 38.7127L162.368 38.6679L162.35 38.6244L161.424 39.001ZM161.536 40.1313L160.54 40.0385L160.54 40.0385L161.536 40.1313ZM154.889 111.458L155.884 111.551L155.884 111.551L154.889 111.458ZM151.659 114.134L151.566 115.13L151.659 114.134ZM42.7078 103.882H41.7078V104.793L42.6141 104.878L42.7078 103.882ZM160.466 39.2892C160.537 39.5238 160.565 39.7764 160.54 40.0385L162.532 40.2241C162.58 39.701 162.525 39.1898 162.381 38.7127L160.466 39.2892ZM160.54 40.0385L153.893 111.365L155.884 111.551L162.532 40.2241L160.54 40.0385ZM153.893 111.365C153.792 112.447 152.834 113.24 151.753 113.139L151.566 115.13C153.747 115.335 155.681 113.733 155.884 111.551L153.893 111.365ZM151.753 113.139L42.8014 102.887L42.6141 104.878L151.566 115.13L151.753 113.139ZM43.7078 103.882V40.1175H41.7078V103.882H43.7078ZM43.7078 40.1175C43.7078 39.0311 44.5885 38.1504 45.6749 38.1504V36.1504C43.4839 36.1504 41.7078 37.9266 41.7078 40.1175H43.7078ZM45.6749 38.1504H158.674V36.1504H45.6749V38.1504ZM158.674 38.1504C159.497 38.1504 160.204 38.6561 160.497 39.3775L162.35 38.6244C161.761 37.1752 160.338 36.1504 158.674 36.1504V38.1504Z" fill="#090B0E" mask="url(#path-3-outside-1_3119_27767)"/>
<rect x="39.0383" y="30.9365" width="119.933" height="78.5733" rx="3.46715" fill="white" stroke="#090B0E"/>
<path d="M38.5281 34.8496C38.5281 32.6405 40.3189 30.8496 42.5281 30.8496H154.697C156.906 30.8496 158.697 32.6405 158.697 34.8496V53.9496H38.5281V34.8496Z" fill="#86EFCE"/>
<path fill-rule="evenodd" clip-rule="evenodd" d="M147.668 37.4424C149.395 37.7085 150.674 39.1855 150.708 40.9294L150.708 43.3959L151.649 44.3462C151.89 44.5929 151.961 44.9609 151.829 45.2805C151.707 45.5754 151.434 45.7762 151.122 45.8068L151.043 45.8109L149.222 45.8109C148.99 46.7166 148.171 47.3859 147.197 47.3859C146.224 47.3859 145.405 46.7166 145.173 45.8109L143.352 45.8109C143.008 45.809 142.698 45.6 142.566 45.2805C142.444 44.9855 142.495 44.6492 142.693 44.4052L142.746 44.3462L143.686 43.3959V40.9442C143.688 39.9263 144.126 38.9585 144.889 38.2881C145.651 37.6176 146.663 37.3095 147.668 37.4424Z" fill="#090B0E"/>
<path d="M200.354 78.7932L196.189 82.5479L192.492 78.3291L196.657 74.5745L200.354 78.7932Z" fill="#CDFFFE" stroke="#090B0E"/>
<path d="M16.1201 119.612L4.33389 121.18C3.65966 116.367 2.70353 104.94 4.27282 97.7378" stroke="#090B0E" stroke-linecap="round"/>
<path d="M128.97 15.4629C123.922 13.5053 109.909 9.94766 94.2394 11.3775" stroke="#090B0E" stroke-linecap="round"/>
<path d="M197.574 86.8493L199.4 95.5862L171.18 99.4322" stroke="#090B0E" stroke-linecap="round"/>
<path d="M4.4895 81.4101C4.66585 79.1352 6.62424 77.4452 8.85005 77.6194C11.0759 77.7936 12.7502 79.7679 12.5739 82.0429C12.3975 84.3178 10.4391 86.0078 8.21332 85.8336C5.9875 85.6594 4.31316 83.6851 4.4895 81.4101Z" fill="#CDFFFE" stroke="#090B0E"/>
<mask id="path-13-inside-2_3119_27767" fill="white">
<path d="M26.2679 118.793L26.288 118.805L26.3093 118.82L26.3278 118.838L26.351 118.849L26.3683 118.869L26.3916 118.882L26.4141 118.894L26.4341 118.912L26.4566 118.924L26.4766 118.941L26.5018 118.949L26.5223 118.964L26.5409 118.983L26.5628 118.996L26.5861 119.009L26.6066 119.024L26.6291 119.036L26.6529 119.046L26.6709 119.066L26.6947 119.076L26.7154 119.092L26.7366 119.106L26.7612 119.117L26.7824 119.131L26.8035 119.145L26.8256 119.16L26.8409 119.183L26.866 119.191L26.8854 119.21L26.9099 119.219L26.9304 119.234L26.951 119.25L26.9749 119.26L26.9915 119.282L27.0173 119.29L27.0385 119.303L27.0605 119.318L27.0792 119.337L27.1037 119.346L27.1262 119.359L27.1442 119.378L27.168 119.389L27.1891 119.403L27.2065 119.423L27.2316 119.432L27.2543 119.445L27.2761 119.458L27.2968 119.475L27.3186 119.488L27.3398 119.502L27.3611 119.517L27.3823 119.531L27.4009 119.55L27.4216 119.566L27.4441 119.578L27.4648 119.594L27.4886 119.605L27.5097 119.619L27.5338 119.631L27.5498 119.653L27.5709 119.667L27.5934 119.679L27.6186 119.688L27.6386 119.705L27.6572 119.724L27.6817 119.733L27.7004 119.752L27.7269 119.759L27.7487 119.772L27.764 119.795L27.7885 119.805L27.8079 119.823L27.833 119.831L27.8555 119.843L27.8762 119.86L27.8987 119.872L27.916 119.892L27.9385 119.904L27.9585 119.922L27.9817 119.933L28.0043 119.947L28.0262 119.96L28.0487 119.972L28.068 119.99L28.09 120.004L28.1105 120.019L28.1298 120.037L28.155 120.046L28.1736 120.064L28.1948 120.078L28.2166 120.091L28.2418 120.1L28.2605 120.119L28.2825 120.133L28.3023 120.149L28.3254 120.16L28.3461 120.177L28.3686 120.189L28.3866 120.208L28.4138 120.214L28.4311 120.235L28.4576 120.242L28.4781 120.257L28.4981 120.274L28.5212 120.285L28.5379 120.307L28.5611 120.318L28.5804 120.336L28.6015 120.35L28.6262 120.361L28.644 120.379L28.6687 120.39L28.6885 120.406L28.7092 120.422L28.733 120.432L28.7549 120.445L28.7775 120.459L28.7973 120.474L28.8218 120.484L28.8398 120.504L28.8643 120.513L28.887 120.527L28.903 120.549L28.9248 120.562L28.9462 120.578L28.9673 120.592L28.9938 120.598L29.0158 120.613L29.0325 120.634L29.0536 120.648L29.0788 120.657L29.1013 120.669L29.1233 120.684L29.1386 120.707L29.1631 120.716L29.1838 120.733L29.2029 120.749L29.2276 120.76L29.2521 120.77L29.2713 120.786L29.2919 120.802L29.3164 120.812L29.3364 120.829L29.3538 120.85L29.3816 120.855L29.4008 120.871L29.4188 120.891L29.4419 120.902L29.4613 120.92L29.4884 120.926L29.5051 120.948L29.5309 120.956L29.5529 120.97L29.5714 120.987L29.5914 121.005L29.6146 121.016L29.6352 121.032L29.6604 121.041L29.6791 121.06L29.6996 121.074L29.7216 121.089L29.7454 121.099L29.7661 121.116L29.7861 121.133L29.8099 121.143L29.8299 121.16L29.8497 121.176L29.8735 121.186L29.884 121.164L29.9017 121.144L29.912 121.12L29.9315 121.102L29.94 121.076L29.956 121.055L29.9688 121.033L29.9849 121.012L29.9994 120.991L30.0163 120.971L30.0283 120.948L30.0469 120.929L30.0563 120.904L30.0665 120.88L30.0868 120.863L30.0996 120.84L30.1148 120.819L30.1268 120.796L30.1446 120.776L30.1591 120.756L30.1667 120.729L30.1854 120.71L30.1973 120.688L30.2108 120.665L30.2253 120.644L30.2414 120.623L30.2559 120.602L30.2694 120.579L30.2848 120.559L30.2907 120.531L30.3128 120.515L30.3221 120.49L30.3349 120.468L30.3544 120.45L30.3629 120.424L30.3798 120.404L30.3892 120.379L30.4078 120.36L30.4232 120.34L30.4393 120.319L30.4512 120.296L30.4647 120.273L30.4741 120.249L30.4936 120.23L30.5064 120.208L30.5175 120.185L30.5378 120.167L30.5446 120.14L30.5607 120.119L30.5743 120.098L30.5938 120.079L30.6032 120.055L30.6201 120.034L30.6338 120.013L30.6431 119.988L30.66 119.968L30.6754 119.948L30.6872 119.923L30.7043 119.905L30.716 119.88L30.728 119.857L30.7434 119.837L30.7568 119.814L30.7688 119.791L30.7892 119.774L30.7985 119.749L30.8128 119.727L30.8257 119.705L30.8385 119.682L30.8562 119.663L30.874 119.643L30.8825 119.618L30.8953 119.595L30.9157 119.578L30.9292 119.555L30.942 119.533L30.9548 119.511L30.9725 119.491L30.9828 119.467L30.9938 119.443L31.0082 119.421L31.026 119.401L31.0396 119.38L31.049 119.355L31.0702 119.338L31.0787 119.313L31.0922 119.29L31.1125 119.272L31.1204 119.247L31.1356 119.226L31.1534 119.206L31.1627 119.181L31.1831 119.164L31.1883 119.137L31.207 119.118L31.2265 119.1L31.2332 119.073L31.2469 119.051L31.2604 119.028L31.2799 119.01L31.2918 118.987L31.3038 118.965L31.3166 118.942L31.3385 118.925L31.3463 118.9L31.3641 118.88L31.3743 118.856L31.3886 118.834L31.404 118.814L31.4192 118.792L31.4361 118.772L31.4464 118.748L31.46 118.726L31.4761 118.705L31.4837 118.679L31.5067 118.663L31.5169 118.639L31.5305 118.618L31.5475 118.598L31.5618 118.575L31.5703 118.55L31.5874 118.531L31.5992 118.507L31.6111 118.484L31.6323 118.467L31.6475 118.445L31.6528 118.419L31.6662 118.396L31.6892 118.38L31.6968 118.354L31.718 118.337L31.7317 118.315L31.7452 118.292L31.758 118.27L31.7648 118.243L31.7817 118.223L31.7988 118.204L31.8105 118.18L31.8251 118.159L31.8394 118.137L31.8505 118.113L31.8709 118.096L31.8828 118.073L31.8922 118.048L31.9074 118.026L31.9225 118.005L31.9379 117.985L31.9557 117.965L31.9616 117.938L31.977 117.917L31.9931 117.896L32.0083 117.875L32.0194 117.851L32.0389 117.833L32.0517 117.811L32.0619 117.787L32.0797 117.767L32.0882 117.742L32.1034 117.72L32.1211 117.7L32.1339 117.678L32.1459 117.655L32.1611 117.634L32.1814 117.616L32.1925 117.593L32.2051 117.569L32.2188 117.548L32.2371 117.525L32.2128 117.512L32.1902 117.498L32.171 117.482L32.1477 117.469L32.1265 117.455L32.1052 117.44L32.0847 117.425L32.0635 117.411L32.0422 117.396L32.019 117.385L31.9984 117.368L31.9779 117.354L31.9579 117.336L31.9327 117.328L31.9134 117.31L31.8922 117.296L31.8709 117.28L31.8504 117.266L31.8284 117.251L31.8028 117.245L31.7828 117.228L31.7609 117.215L31.7436 117.194L31.7158 117.189L31.6984 117.168L31.6773 117.155L31.6553 117.14L31.6301 117.131L31.6096 117.117L31.589 117.1L31.5716 117.08L31.5451 117.073L31.5233 117.06L31.506 117.039L31.484 117.025L31.4608 117.014L31.4417 116.997L31.4172 116.988L31.3992 116.968L31.3765 116.954L31.356 116.939L31.3335 116.927L31.3142 116.909L31.2922 116.895L31.2663 116.887L31.2438 116.875L31.2245 116.857L31.2034 116.843L31.1829 116.828L31.1635 116.81L31.1404 116.799L31.119 116.784L31.0959 116.772L31.0766 116.754L31.0547 116.741L31.0321 116.728L31.0102 116.715L30.9896 116.698L30.9697 116.683L30.9432 116.676L30.9252 116.656L30.9001 116.648L30.8801 116.63L30.8629 116.611L30.8416 116.596L30.8184 116.585L30.7971 116.569L30.7746 116.557L30.7521 116.545L30.7288 116.532L30.7108 116.512L30.689 116.499L30.6683 116.483L30.6485 116.468L30.6246 116.457L30.5995 116.449L30.5835 116.426L30.5601 116.413L30.5343 116.406L30.5152 116.389L30.4925 116.376L30.4713 116.362L30.4507 116.345L30.4302 116.331L30.4115 116.312L30.3897 116.299L30.3652 116.289L30.3452 116.272L30.3245 116.256L30.2993 116.247L30.2775 116.234L30.2564 116.22L30.2377 116.201L30.2177 116.184L30.1952 116.172L30.1714 116.162L30.1487 116.148L30.1282 116.133L30.1109 116.113L30.0884 116.101L30.0651 116.088L30.0473 116.07L30.0226 116.059L30.0041 116.041L29.9809 116.03L29.9583 116.016L29.9391 116L29.9139 115.991L29.8939 115.974L29.8708 115.963L29.8501 115.947L29.829 115.933L29.8103 115.914L29.7851 115.905L29.7671 115.885L29.744 115.874L29.7201 115.864L29.7015 115.845L29.6781 115.832L29.659 115.816L29.6345 115.806L29.6138 115.79L29.5931 115.774L29.5713 115.761L29.5475 115.75L29.5282 115.732L29.5082 115.715L29.483 115.706L29.4625 115.692L29.4432 115.674L29.422 115.66L29.4007 115.644L29.3755 115.636L29.3544 115.622L29.3337 115.606L29.3124 115.59L29.2912 115.576L29.2699 115.561L29.2514 115.544L29.2274 115.532L29.2089 115.514L29.1831 115.507L29.161 115.492L29.141 115.475L29.1206 115.46L29.0974 115.449L29.0754 115.434L29.0549 115.42L29.0309 115.408L29.0129 115.388L28.9891 115.378L28.9711 115.358L28.9479 115.347L28.9261 115.334L28.9068 115.316L28.8809 115.308L28.8629 115.288L28.8404 115.276L28.8171 115.263L28.7998 115.243L28.7726 115.237L28.7521 115.222L28.7341 115.202L28.7083 115.194L28.6889 115.176L28.6678 115.162L28.6464 115.147L28.6259 115.138L28.6082 115.152L28.593 115.174L28.5853 115.2L28.5725 115.222L28.5505 115.238L28.5361 115.26L28.53 115.287L28.514 115.307L28.5012 115.33L28.4817 115.348L28.4665 115.37L28.4545 115.392L28.4385 115.413L28.4308 115.44L28.4105 115.457L28.402 115.483L28.3874 115.503L28.3722 115.525L28.3577 115.546L28.3399 115.565L28.3314 115.591L28.3143 115.61L28.3 115.632L28.2923 115.658L28.2778 115.679L28.2626 115.701L28.2423 115.718L28.2338 115.744L28.2167 115.763L28.204 115.786L28.1878 115.806L28.1743 115.829L28.165 115.854L28.1504 115.874L28.1378 115.898L28.1198 115.916L28.1081 115.94L28.0936 115.961L28.0792 115.984L28.0656 116.005L28.0469 116.024L28.0315 116.044L28.023 116.07L28.0053 116.089L27.9901 116.111L27.9831 116.136L27.9688 116.158L27.9467 116.175L27.9365 116.199L27.9187 116.219L27.9076 116.242L27.8924 116.264L27.8813 116.287L27.8627 116.306L27.849 116.328L27.8397 116.352L27.8253 116.375L27.8108 116.396L27.7965 116.418L27.7811 116.438L27.7667 116.46L27.7556 116.484L27.7437 116.507L27.7216 116.523L27.7081 116.546L27.6945 116.567L27.6877 116.594L27.6699 116.614L27.6571 116.636L27.6419 116.658L27.6274 116.678L27.6105 116.699L27.6028 116.725L27.5833 116.743L27.5748 116.769L27.5536 116.786L27.5425 116.809L27.5271 116.829L27.5171 116.855L27.4991 116.873L27.4857 116.896L27.4746 116.919L27.4609 116.941L27.4423 116.96L27.4355 116.987L27.4203 117.008L27.3999 117.026L27.3897 117.05L27.3786 117.074L27.3609 117.093L27.3463 117.114L27.3344 117.137L27.3175 117.157L27.3006 117.177L27.2921 117.203L27.2793 117.225L27.2639 117.245L27.2504 117.268L27.2318 117.287L27.2207 117.311L27.2087 117.333L27.1918 117.354L27.1764 117.374L27.1604 117.395L27.1545 117.422L27.1373 117.441L27.1239 117.464L27.1044 117.482L27.0941 117.507L27.0831 117.53L27.0636 117.548L27.0551 117.574L27.0399 117.595L27.0262 117.617L27.0143 117.64L26.993 117.657L26.9845 117.682L26.9693 117.704L26.9507 117.723L26.9396 117.746L26.9277 117.769L26.9082 117.787L26.9023 117.815L26.8845 117.835L26.8691 117.855L26.8565 117.878L26.8454 117.902L26.8317 117.923L26.8165 117.945L26.8029 117.966L26.7834 117.985L26.7673 118.006L26.7588 118.031L26.746 118.053L26.7334 118.077L26.7113 118.093L26.6994 118.116L26.69 118.141L26.6748 118.162L26.6611 118.184L26.6451 118.205L26.634 118.228L26.6171 118.249L26.5984 118.268L26.5848 118.289L26.5763 118.315L26.5619 118.337L26.5416 118.355L26.5331 118.38L26.516 118.399L26.5075 118.424L26.488 118.443L26.4786 118.467L26.4617 118.488L26.4482 118.511L26.4328 118.531L26.4218 118.554L26.4048 118.575L26.3905 118.597L26.3803 118.621L26.3666 118.643L26.3523 118.665L26.3362 118.686L26.3182 118.704L26.3098 118.73L26.2928 118.75L26.2776 118.771L26.2679 118.793Z"/>
</mask>
<path d="M26.2679 118.793L26.288 118.805L26.3093 118.82L26.3278 118.838L26.351 118.849L26.3683 118.869L26.3916 118.882L26.4141 118.894L26.4341 118.912L26.4566 118.924L26.4766 118.941L26.5018 118.949L26.5223 118.964L26.5409 118.983L26.5628 118.996L26.5861 119.009L26.6066 119.024L26.6291 119.036L26.6529 119.046L26.6709 119.066L26.6947 119.076L26.7154 119.092L26.7366 119.106L26.7612 119.117L26.7824 119.131L26.8035 119.145L26.8256 119.16L26.8409 119.183L26.866 119.191L26.8854 119.21L26.9099 119.219L26.9304 119.234L26.951 119.25L26.9749 119.26L26.9915 119.282L27.0173 119.29L27.0385 119.303L27.0605 119.318L27.0792 119.337L27.1037 119.346L27.1262 119.359L27.1442 119.378L27.168 119.389L27.1891 119.403L27.2065 119.423L27.2316 119.432L27.2543 119.445L27.2761 119.458L27.2968 119.475L27.3186 119.488L27.3398 119.502L27.3611 119.517L27.3823 119.531L27.4009 119.55L27.4216 119.566L27.4441 119.578L27.4648 119.594L27.4886 119.605L27.5097 119.619L27.5338 119.631L27.5498 119.653L27.5709 119.667L27.5934 119.679L27.6186 119.688L27.6386 119.705L27.6572 119.724L27.6817 119.733L27.7004 119.752L27.7269 119.759L27.7487 119.772L27.764 119.795L27.7885 119.805L27.8079 119.823L27.833 119.831L27.8555 119.843L27.8762 119.86L27.8987 119.872L27.916 119.892L27.9385 119.904L27.9585 119.922L27.9817 119.933L28.0043 119.947L28.0262 119.96L28.0487 119.972L28.068 119.99L28.09 120.004L28.1105 120.019L28.1298 120.037L28.155 120.046L28.1736 120.064L28.1948 120.078L28.2166 120.091L28.2418 120.1L28.2605 120.119L28.2825 120.133L28.3023 120.149L28.3254 120.16L28.3461 120.177L28.3686 120.189L28.3866 120.208L28.4138 120.214L28.4311 120.235L28.4576 120.242L28.4781 120.257L28.4981 120.274L28.5212 120.285L28.5379 120.307L28.5611 120.318L28.5804 120.336L28.6015 120.35L28.6262 120.361L28.644 120.379L28.6687 120.39L28.6885 120.406L28.7092 120.422L28.733 120.432L28.7549 120.445L28.7775 120.459L28.7973 120.474L28.8218 120.484L28.8398 120.504L28.8643 120.513L28.887 120.527L28.903 120.549L28.9248 120.562L28.9462 120.578L28.9673 120.592L28.9938 120.598L29.0158 120.613L29.0325 120.634L29.0536 120.648L29.0788 120.657L29.1013 120.669L29.1233 120.684L29.1386 120.707L29.1631 120.716L29.1838 120.733L29.2029 120.749L29.2276 120.76L29.2521 120.77L29.2713 120.786L29.2919 120.802L29.3164 120.812L29.3364 120.829L29.3538 120.85L29.3816 120.855L29.4008 120.871L29.4188 120.891L29.4419 120.902L29.4613 120.92L29.4884 120.926L29.5051 120.948L29.5309 120.956L29.5529 120.97L29.5714 120.987L29.5914 121.005L29.6146 121.016L29.6352 121.032L29.6604 121.041L29.6791 121.06L29.6996 121.074L29.7216 121.089L29.7454 121.099L29.7661 121.116L29.7861 121.133L29.8099 121.143L29.8299 121.16L29.8497 121.176L29.8735 121.186L29.884 121.164L29.9017 121.144L29.912 121.12L29.9315 121.102L29.94 121.076L29.956 121.055L29.9688 121.033L29.9849 121.012L29.9994 120.991L30.0163 120.971L30.0283 120.948L30.0469 120.929L30.0563 120.904L30.0665 120.88L30.0868 120.863L30.0996 120.84L30.1148 120.819L30.1268 120.796L30.1446 120.776L30.1591 120.756L30.1667 120.729L30.1854 120.71L30.1973 120.688L30.2108 120.665L30.2253 120.644L30.2414 120.623L30.2559 120.602L30.2694 120.579L30.2848 120.559L30.2907 120.531L30.3128 120.515L30.3221 120.49L30.3349 120.468L30.3544 120.45L30.3629 120.424L30.3798 120.404L30.3892 120.379L30.4078 120.36L30.4232 120.34L30.4393 120.319L30.4512 120.296L30.4647 120.273L30.4741 120.249L30.4936 120.23L30.5064 120.208L30.5175 120.185L30.5378 120.167L30.5446 120.14L30.5607 120.119L30.5743 120.098L30.5938 120.079L30.6032 120.055L30.6201 120.034L30.6338 120.013L30.6431 119.988L30.66 119.968L30.6754 119.948L30.6872 119.923L30.7043 119.905L30.716 119.88L30.728 119.857L30.7434 119.837L30.7568 119.814L30.7688 119.791L30.7892 119.774L30.7985 119.749L30.8128 119.727L30.8257 119.705L30.8385 119.682L30.8562 119.663L30.874 119.643L30.8825 119.618L30.8953 119.595L30.9157 119.578L30.9292 119.555L30.942 119.533L30.9548 119.511L30.9725 119.491L30.9828 119.467L30.9938 119.443L31.0082 119.421L31.026 119.401L31.0396 119.38L31.049 119.355L31.0702 119.338L31.0787 119.313L31.0922 119.29L31.1125 119.272L31.1204 119.247L31.1356 119.226L31.1534 119.206L31.1627 119.181L31.1831 119.164L31.1883 119.137L31.207 119.118L31.2265 119.1L31.2332 119.073L31.2469 119.051L31.2604 119.028L31.2799 119.01L31.2918 118.987L31.3038 118.965L31.3166 118.942L31.3385 118.925L31.3463 118.9L31.3641 118.88L31.3743 118.856L31.3886 118.834L31.404 118.814L31.4192 118.792L31.4361 118.772L31.4464 118.748L31.46 118.726L31.4761 118.705L31.4837 118.679L31.5067 118.663L31.5169 118.639L31.5305 118.618L31.5475 118.598L31.5618 118.575L31.5703 118.55L31.5874 118.531L31.5992 118.507L31.6111 118.484L31.6323 118.467L31.6475 118.445L31.6528 118.419L31.6662 118.396L31.6892 118.38L31.6968 118.354L31.718 118.337L31.7317 118.315L31.7452 118.292L31.758 118.27L31.7648 118.243L31.7817 118.223L31.7988 118.204L31.8105 118.18L31.8251 118.159L31.8394 118.137L31.8505 118.113L31.8709 118.096L31.8828 118.073L31.8922 118.048L31.9074 118.026L31.9225 118.005L31.9379 117.985L31.9557 117.965L31.9616 117.938L31.977 117.917L31.9931 117.896L32.0083 117.875L32.0194 117.851L32.0389 117.833L32.0517 117.811L32.0619 117.787L32.0797 117.767L32.0882 117.742L32.1034 117.72L32.1211 117.7L32.1339 117.678L32.1459 117.655L32.1611 117.634L32.1814 117.616L32.1925 117.593L32.2051 117.569L32.2188 117.548L32.2371 117.525L32.2128 117.512L32.1902 117.498L32.171 117.482L32.1477 117.469L32.1265 117.455L32.1052 117.44L32.0847 117.425L32.0635 117.411L32.0422 117.396L32.019 117.385L31.9984 117.368L31.9779 117.354L31.9579 117.336L31.9327 117.328L31.9134 117.31L31.8922 117.296L31.8709 117.28L31.8504 117.266L31.8284 117.251L31.8028 117.245L31.7828 117.228L31.7609 117.215L31.7436 117.194L31.7158 117.189L31.6984 117.168L31.6773 117.155L31.6553 117.14L31.6301 117.131L31.6096 117.117L31.589 117.1L31.5716 117.08L31.5451 117.073L31.5233 117.06L31.506 117.039L31.484 117.025L31.4608 117.014L31.4417 116.997L31.4172 116.988L31.3992 116.968L31.3765 116.954L31.356 116.939L31.3335 116.927L31.3142 116.909L31.2922 116.895L31.2663 116.887L31.2438 116.875L31.2245 116.857L31.2034 116.843L31.1829 116.828L31.1635 116.81L31.1404 116.799L31.119 116.784L31.0959 116.772L31.0766 116.754L31.0547 116.741L31.0321 116.728L31.0102 116.715L30.9896 116.698L30.9697 116.683L30.9432 116.676L30.9252 116.656L30.9001 116.648L30.8801 116.63L30.8629 116.611L30.8416 116.596L30.8184 116.585L30.7971 116.569L30.7746 116.557L30.7521 116.545L30.7288 116.532L30.7108 116.512L30.689 116.499L30.6683 116.483L30.6485 116.468L30.6246 116.457L30.5995 116.449L30.5835 116.426L30.5601 116.413L30.5343 116.406L30.5152 116.389L30.4925 116.376L30.4713 116.362L30.4507 116.345L30.4302 116.331L30.4115 116.312L30.3897 116.299L30.3652 116.289L30.3452 116.272L30.3245 116.256L30.2993 116.247L30.2775 116.234L30.2564 116.22L30.2377 116.201L30.2177 116.184L30.1952 116.172L30.1714 116.162L30.1487 116.148L30.1282 116.133L30.1109 116.113L30.0884 116.101L30.0651 116.088L30.0473 116.07L30.0226 116.059L30.0041 116.041L29.9809 116.03L29.9583 116.016L29.9391 116L29.9139 115.991L29.8939 115.974L29.8708 115.963L29.8501 115.947L29.829 115.933L29.8103 115.914L29.7851 115.905L29.7671 115.885L29.744 115.874L29.7201 115.864L29.7015 115.845L29.6781 115.832L29.659 115.816L29.6345 115.806L29.6138 115.79L29.5931 115.774L29.5713 115.761L29.5475 115.75L29.5282 115.732L29.5082 115.715L29.483 115.706L29.4625 115.692L29.4432 115.674L29.422 115.66L29.4007 115.644L29.3755 115.636L29.3544 115.622L29.3337 115.606L29.3124 115.59L29.2912 115.576L29.2699 115.561L29.2514 115.544L29.2274 115.532L29.2089 115.514L29.1831 115.507L29.161 115.492L29.141 115.475L29.1206 115.46L29.0974 115.449L29.0754 115.434L29.0549 115.42L29.0309 115.408L29.0129 115.388L28.9891 115.378L28.9711 115.358L28.9479 115.347L28.9261 115.334L28.9068 115.316L28.8809 115.308L28.8629 115.288L28.8404 115.276L28.8171 115.263L28.7998 115.243L28.7726 115.237L28.7521 115.222L28.7341 115.202L28.7083 115.194L28.6889 115.176L28.6678 115.162L28.6464 115.147L28.6259 115.138L28.6082 115.152L28.593 115.174L28.5853 115.2L28.5725 115.222L28.5505 115.238L28.5361 115.26L28.53 115.287L28.514 115.307L28.5012 115.33L28.4817 115.348L28.4665 115.37L28.4545 115.392L28.4385 115.413L28.4308 115.44L28.4105 115.457L28.402 115.483L28.3874 115.503L28.3722 115.525L28.3577 115.546L28.3399 115.565L28.3314 115.591L28.3143 115.61L28.3 115.632L28.2923 115.658L28.2778 115.679L28.2626 115.701L28.2423 115.718L28.2338 115.744L28.2167 115.763L28.204 115.786L28.1878 115.806L28.1743 115.829L28.165 115.854L28.1504 115.874L28.1378 115.898L28.1198 115.916L28.1081 115.94L28.0936 115.961L28.0792 115.984L28.0656 116.005L28.0469 116.024L28.0315 116.044L28.023 116.07L28.0053 116.089L27.9901 116.111L27.9831 116.136L27.9688 116.158L27.9467 116.175L27.9365 116.199L27.9187 116.219L27.9076 116.242L27.8924 116.264L27.8813 116.287L27.8627 116.306L27.849 116.328L27.8397 116.352L27.8253 116.375L27.8108 116.396L27.7965 116.418L27.7811 116.438L27.7667 116.46L27.7556 116.484L27.7437 116.507L27.7216 116.523L27.7081 116.546L27.6945 116.567L27.6877 116.594L27.6699 116.614L27.6571 116.636L27.6419 116.658L27.6274 116.678L27.6105 116.699L27.6028 116.725L27.5833 116.743L27.5748 116.769L27.5536 116.786L27.5425 116.809L27.5271 116.829L27.5171 116.855L27.4991 116.873L27.4857 116.896L27.4746 116.919L27.4609 116.941L27.4423 116.96L27.4355 116.987L27.4203 117.008L27.3999 117.026L27.3897 117.05L27.3786 117.074L27.3609 117.093L27.3463 117.114L27.3344 117.137L27.3175 117.157L27.3006 117.177L27.2921 117.203L27.2793 117.225L27.2639 117.245L27.2504 117.268L27.2318 117.287L27.2207 117.311L27.2087 117.333L27.1918 117.354L27.1764 117.374L27.1604 117.395L27.1545 117.422L27.1373 117.441L27.1239 117.464L27.1044 117.482L27.0941 117.507L27.0831 117.53L27.0636 117.548L27.0551 117.574L27.0399 117.595L27.0262 117.617L27.0143 117.64L26.993 117.657L26.9845 117.682L26.9693 117.704L26.9507 117.723L26.9396 117.746L26.9277 117.769L26.9082 117.787L26.9023 117.815L26.8845 117.835L26.8691 117.855L26.8565 117.878L26.8454 117.902L26.8317 117.923L26.8165 117.945L26.8029 117.966L26.7834 117.985L26.7673 118.006L26.7588 118.031L26.746 118.053L26.7334 118.077L26.7113 118.093L26.6994 118.116L26.69 118.141L26.6748 118.162L26.6611 118.184L26.6451 118.205L26.634 118.228L26.6171 118.249L26.5984 118.268L26.5848 118.289L26.5763 118.315L26.5619 118.337L26.5416 118.355L26.5331 118.38L26.516 118.399L26.5075 118.424L26.488 118.443L26.4786 118.467L26.4617 118.488L26.4482 118.511L26.4328 118.531L26.4218 118.554L26.4048 118.575L26.3905 118.597L26.3803 118.621L26.3666 118.643L26.3523 118.665L26.3362 118.686L26.3182 118.704L26.3098 118.73L26.2928 118.75L26.2776 118.771L26.2679 118.793Z" fill="#CDFFFE" stroke="#090B0E" stroke-width="2" mask="url(#path-13-inside-2_3119_27767)"/>
<path d="M197.845 62.2473L197.83 62.2554L197.813 62.2628L197.795 62.2678L197.78 62.2779L197.761 62.2809L197.744 62.2906L197.728 62.3L197.71 62.3059L197.695 62.3153L197.677 62.3213L197.662 62.3337L197.645 62.3409L197.627 62.3453L197.611 62.354L197.594 62.3637L197.577 62.3709L197.561 62.3803L197.546 62.3912L197.527 62.3949L197.512 62.4058L197.494 62.4125L197.478 62.4204L197.462 62.4316L197.446 62.4395L197.429 62.4474L197.412 62.4556L197.392 62.4563L197.377 62.4687L197.359 62.4739L197.344 62.4856L197.328 62.4928L197.31 62.4995L197.295 62.5104L197.275 62.5126L197.261 62.5257L197.244 62.5337L197.227 62.5419L197.209 62.5463L197.194 62.558L197.178 62.5674L197.159 62.5711L197.144 62.582L197.127 62.5899L197.108 62.5929L197.094 62.6053L197.077 62.6142L197.061 62.6229L197.043 62.6296L197.027 62.6382L197.01 62.6462L196.993 62.6536L196.977 62.6615L196.958 62.666L196.94 62.6727L196.925 62.6821L196.907 62.6888L196.892 62.6997L196.875 62.7076L196.859 62.7181L196.839 62.7195L196.823 62.7275L196.807 62.7369L196.792 62.7493L196.774 62.7552L196.756 62.7597L196.741 62.7713L196.722 62.7758L196.708 62.7897L196.692 62.7983L196.672 62.7991L196.657 62.8107L196.639 62.8159L196.624 62.8283L196.608 62.8377L196.591 62.8444L196.575 62.8538L196.556 62.8568L196.54 62.8662L196.522 62.8722L196.506 62.8823L196.49 62.8913L196.473 62.8999L196.458 62.9094L196.439 62.9146L196.422 62.9228L196.406 62.9299L196.387 62.9351L196.373 62.9475L196.354 62.952L196.338 62.9599L196.322 62.9686L196.307 62.981L196.288 62.9854L196.271 62.9936L196.254 63.0001L196.239 63.0102L196.221 63.0169L196.205 63.0263L196.186 63.03L196.172 63.0447L196.153 63.0476L196.139 63.0615L196.122 63.0687L196.105 63.0747L196.089 63.0848L196.07 63.087L196.054 63.0972L196.036 63.1024L196.019 63.1103L196.003 63.1215L195.986 63.1257L195.97 63.1369L195.953 63.1433L195.935 63.15L195.92 63.1609L195.904 63.1696L195.887 63.1785L195.87 63.1849L195.855 63.1966L195.836 63.2003L195.821 63.2119L195.804 63.2209L195.784 63.2224L195.768 63.231L195.751 63.2385L195.735 63.2464L195.72 63.2603L195.703 63.2685L195.684 63.2707L195.668 63.2786L195.653 63.291L195.637 63.3004L195.62 63.3086L195.6 63.3093L195.585 63.321L195.567 63.3277L195.55 63.3334L195.534 63.3446L195.519 63.3562L195.502 63.3619L195.484 63.3686L195.469 63.3802L195.451 63.3862L195.432 63.3892L195.418 63.4045L195.401 63.4102L195.382 63.4139L195.367 63.4241L195.349 63.4293L195.335 63.4439L195.315 63.4462L195.301 63.4593L195.284 63.4675L195.266 63.4724L195.248 63.4784L195.233 63.4885L195.215 63.4952L195.2 63.5076L195.182 63.5121L195.165 63.5193L195.148 63.5275L195.133 63.5384L195.115 63.5451L195.097 63.551L195.082 63.5619L195.064 63.5679L195.047 63.5743L195.032 63.5852L195.041 63.6002L195.046 63.6187L195.057 63.6342L195.061 63.6533L195.073 63.6682L195.08 63.6861L195.088 63.7025L195.095 63.7204L195.102 63.7373L195.108 63.7555L195.117 63.7716L195.121 63.7903L195.133 63.8056L195.143 63.8211L195.146 63.8404L195.155 63.8567L195.162 63.8744L195.171 63.8904L195.176 63.9089L195.184 63.9258L195.196 63.9405L195.201 63.9592L195.21 63.9753L195.219 63.9924L195.226 64.0093L195.233 64.0272L195.24 64.0441L195.248 64.0612L195.255 64.0784L195.269 64.0925L195.271 64.1123L195.282 64.1276L195.291 64.1439L195.294 64.1629L195.306 64.1779L195.312 64.1961L195.324 64.2113L195.328 64.2301L195.334 64.2473L195.341 64.2652L195.35 64.2812L195.359 64.2983L195.37 64.3136L195.374 64.3326L195.383 64.3489L195.393 64.3647L195.396 64.384L195.409 64.3984L195.416 64.4163L195.424 64.433L195.427 64.452L195.439 64.4672L195.445 64.4854L195.452 64.5021L195.464 64.5173L195.47 64.5355L195.476 64.5527L195.486 64.5692L195.491 64.5869L195.501 64.6034L195.511 64.6195L195.517 64.6367L195.526 64.6538L195.535 64.6698L195.538 64.6892L195.549 64.7044L195.557 64.7217L195.566 64.7381L195.574 64.7544L195.579 64.7729L195.585 64.7914L195.597 64.8063L195.605 64.8227L195.608 64.842L195.617 64.8591L195.626 64.8754L195.634 64.8918L195.639 64.9102L195.65 64.9257L195.66 64.9415L195.668 64.9589L195.673 64.9774L195.681 64.994L195.692 65.0092L195.694 65.0288L195.707 65.0438L195.715 65.0608L195.718 65.0802L195.73 65.0944L195.738 65.112L195.743 65.1305L195.754 65.1457L195.757 65.165L195.771 65.1784L195.776 65.1972L195.779 65.2162L195.793 65.2306L195.801 65.2472L195.809 65.2643L195.813 65.2833L195.822 65.2994L195.832 65.3155L195.84 65.3318L195.843 65.3521L195.855 65.3663L195.86 65.3848L195.87 65.4003L195.878 65.4177L195.885 65.4349L195.892 65.4525L195.898 65.4707L195.909 65.4862L195.916 65.5028L195.923 65.5208L195.936 65.5354L195.937 65.5556L195.947 65.5711L195.955 65.5877L195.961 65.6059L195.969 65.6233L195.981 65.6382L195.986 65.656L195.996 65.6725L196.006 65.6885L196.008 65.7081L196.015 65.7258L196.029 65.7391L196.038 65.7562L196.039 65.7764L196.052 65.7911L196.054 65.8107L196.062 65.8273L196.07 65.8444L196.079 65.8607L196.093 65.8751L196.098 65.8933L196.103 65.911L196.114 65.9276L196.121 65.9444L196.129 65.9618L196.139 65.9776L196.142 65.9969L196.151 66.013L196.162 66.0282L196.17 66.0458L196.177 66.0635L196.183 66.0807L196.188 66.0992L196.203 66.1133L196.209 66.1304L196.216 66.1484L196.223 66.166L196.233 66.1818L196.237 66.2008L196.245 66.2172L196.256 66.2327L196.261 66.2512L196.273 66.2661L196.28 66.2837L196.286 66.3022L196.294 66.3186L196.303 66.3346L196.311 66.3523L196.314 66.3716L196.324 66.3874L196.333 66.4042L196.341 66.4208L196.347 66.4405L196.365 66.4305L196.381 66.4216L196.399 66.4159L196.415 66.4062L196.432 66.3983L196.449 66.3909L196.466 66.3837L196.482 66.3758L196.5 66.3683L196.515 66.3582L196.533 66.3515L196.549 66.3443L196.567 66.3383L196.582 66.3259L196.6 66.3207L196.617 66.3128L196.634 66.3054L196.651 66.2982L196.668 66.29L196.681 66.2764L196.699 66.2704L196.716 66.2618L196.735 66.2588L196.748 66.2434L196.767 66.2404L196.784 66.2325L196.801 66.2243L196.816 66.2119L196.832 66.2048L196.85 66.1981L196.869 66.1951L196.883 66.1812L196.899 66.1725L196.918 66.1696L196.935 66.1614L196.951 66.1512L196.968 66.1455L196.983 66.1339L197.002 66.1302L197.019 66.1212L197.036 66.1141L197.051 66.1047L197.07 66.0994L197.087 66.0913L197.101 66.0781L197.117 66.0687L197.135 66.0635L197.152 66.0556L197.168 66.0484L197.187 66.0432L197.202 66.033L197.22 66.0256L197.235 66.0154L197.253 66.0102L197.269 66.0016L197.286 65.9926L197.302 65.984L197.32 65.9773L197.337 65.9708L197.351 65.9569L197.37 65.9532L197.385 65.9408L197.403 65.9349L197.421 65.9314L197.438 65.924L197.454 65.9138L197.471 65.9064L197.487 65.897L197.503 65.8876L197.519 65.8779L197.538 65.8742L197.554 65.8655L197.572 65.8588L197.589 65.8524L197.604 65.8415L197.619 65.8291L197.639 65.8276L197.655 65.8179L197.67 65.8048L197.687 65.7991L197.704 65.7901L197.72 65.7822L197.738 65.7755L197.754 65.7684L197.773 65.7639L197.789 65.7552L197.804 65.7436L197.822 65.7376L197.84 65.7309L197.854 65.7185L197.871 65.7099L197.887 65.7019L197.906 65.6975L197.923 65.6915L197.939 65.6821L197.955 65.6712L197.971 65.6623L197.988 65.6551L198.007 65.6521L198.023 65.6427L198.04 65.633L198.057 65.6288L198.073 65.6177L198.091 65.6127L198.106 65.6026L198.123 65.5936L198.141 65.588L198.155 65.5756L198.173 65.5696L198.189 65.5595L198.206 65.5527L198.223 65.5448L198.241 65.5404L198.256 65.528L198.275 65.5243L198.29 65.5141L198.306 65.5032L198.324 65.4987L198.341 65.489L198.358 65.4834L198.373 65.4717L198.391 65.465L198.408 65.4583L198.425 65.4497L198.44 65.4387L198.458 65.4335L198.476 65.4276L198.491 65.4152L198.507 65.408L198.526 65.4028L198.542 65.3949L198.559 65.3874L198.574 65.375L198.591 65.3671L198.608 65.3604L198.626 65.353L198.642 65.3451L198.66 65.3376L198.677 65.3327L198.693 65.3222L198.711 65.3173L198.725 65.3042L198.742 65.296L198.76 65.29L198.777 65.2829L198.793 65.2727L198.81 65.2645L198.826 65.2573L198.843 65.2469L198.861 65.2432L198.877 65.2323L198.896 65.2286L198.911 65.2184L198.927 65.2097L198.945 65.2045L198.96 65.1914L198.979 65.1877L198.995 65.1783L199.011 65.1686L199.03 65.1656L199.044 65.151L199.061 65.1438L199.08 65.1401L199.094 65.1269L199.112 65.1217L199.129 65.1138L199.146 65.1064L199.159 65.097L199.158 65.0807L199.15 65.0631L199.137 65.0484L199.129 65.0321L199.127 65.0122L199.119 64.9948L199.106 64.9812L199.099 64.9633L199.091 64.9469L199.087 64.9279L199.08 64.9102L199.071 64.8942L199.064 64.8762L199.051 64.8616L199.048 64.8423L199.036 64.8273L199.029 64.8104L199.022 64.7928L199.015 64.7759L199.009 64.7574L198.997 64.7424L198.992 64.7247L198.984 64.7073L198.971 64.6927L198.964 64.6758L198.957 64.6581L198.954 64.6388L198.942 64.6239L198.937 64.6061L198.928 64.5893L198.922 64.5719L198.913 64.5548L198.902 64.5396L198.895 64.5227L198.885 64.5059L198.881 64.4878L198.871 64.4713L198.864 64.4544L198.856 64.4371L198.848 64.4204L198.844 64.4017L198.837 64.3845L198.825 64.3695L198.82 64.3511L198.813 64.3334L198.8 64.3195L198.792 64.3021L198.79 64.2823L198.78 64.2668L198.775 64.2483L198.765 64.2325L198.757 64.2148L198.747 64.1991L198.743 64.1803L198.735 64.1637L198.724 64.1485L198.716 64.1311L198.709 64.1142L198.701 64.0968L198.694 64.0797L198.686 64.0623L198.676 64.0465L198.667 64.0304L198.666 64.0106L198.657 63.9935L198.649 63.9769L198.635 63.9625L198.63 63.944L198.622 63.9277L198.614 63.91L198.607 63.8931L198.601 63.8749L198.588 63.8602L198.585 63.8412L198.573 63.8263L198.57 63.8067L198.56 63.7909L198.554 63.7737L198.542 63.7577L198.538 63.7397L198.53 63.7226L198.52 63.7068L198.512 63.6902L198.507 63.6715L198.494 63.6571L198.486 63.6394L198.483 63.6201L198.473 63.6046L198.463 63.5888L198.458 63.5703L198.451 63.5534L198.441 63.5374L198.435 63.5192L198.43 63.501L198.417 63.486L198.409 63.4697L198.403 63.4525L198.394 63.4354L198.389 63.4167L198.379 63.4009L198.37 63.3848L198.364 63.3666L198.358 63.3494L198.351 63.3315L198.337 63.3174L198.332 63.2997L198.323 63.2826L198.32 63.2636L198.309 63.2481L198.299 63.2323L198.295 63.2132L198.283 63.1983L198.276 63.1806L198.268 63.164L198.259 63.148L198.257 63.1284L198.244 63.1134L198.237 63.0958L198.233 63.077L198.223 63.0612L198.214 63.0452L198.21 63.0261L198.195 63.012L198.19 62.9935L198.184 62.9764L198.175 62.9596L198.165 62.9438L198.157 62.9272L198.149 62.9095L198.142 62.8929L198.138 62.8738L198.131 62.8559L198.119 62.841L198.111 62.8246L198.101 62.8078L198.1 62.788L198.09 62.7719L198.079 62.7567L198.072 62.739L198.064 62.7224L198.057 62.7045L198.047 62.6887L198.042 62.6705L198.037 62.6517L198.029 62.6351L198.017 62.6202L198.009 62.6028L198.006 62.5835L197.994 62.5685L197.989 62.5508L197.977 62.5359L197.973 62.5168L197.962 62.5016L197.956 62.4834L197.947 62.4663L197.941 62.4491L197.931 62.4333L197.925 62.4151L197.917 62.3978L197.906 62.3823L197.898 62.3657L197.89 62.3483L197.884 62.3304L197.88 62.3124L197.868 62.2974L197.862 62.2792L197.854 62.2616L197.845 62.2473Z" fill="#CDFFFE"/>
<path d="M2.86201 68.6281L2.84736 68.6362L2.82996 68.6437L2.81246 68.6486L2.79689 68.6588L2.77784 68.6617L2.76126 68.6714L2.74542 68.6808L2.72746 68.6868L2.71162 68.6962L2.69366 68.7022L2.67892 68.7146L2.66225 68.7217L2.64375 68.7262L2.62763 68.7349L2.61104 68.7445L2.59438 68.7517L2.57853 68.7611L2.56323 68.772L2.54446 68.7757L2.52916 68.7866L2.51148 68.7933L2.49509 68.8013L2.47906 68.8124L2.46266 68.8204L2.44627 68.8283L2.42914 68.8365L2.40926 68.8372L2.39452 68.8496L2.37629 68.8548L2.36127 68.8665L2.3446 68.8736L2.32692 68.8803L2.31162 68.8912L2.2923 68.8935L2.27782 68.9066L2.26143 68.9145L2.2443 68.9227L2.2258 68.9272L2.21078 68.9388L2.19493 68.9482L2.17615 68.9519L2.16086 68.9629L2.14446 68.9708L2.12541 68.9737L2.11066 68.9861L2.09381 68.9951L2.07769 69.0037L2.06001 69.0104L2.04389 69.0191L2.0275 69.027L2.01009 69.0345L1.9937 69.0424L1.9752 69.0468L1.95752 69.0536L1.94167 69.063L1.92399 69.0697L1.9087 69.0806L1.8923 69.0885L1.87599 69.0989L1.8564 69.1004L1.84 69.1083L1.82416 69.1177L1.80941 69.1301L1.79146 69.1361L1.77295 69.1405L1.75793 69.1522L1.73943 69.1566L1.72523 69.1705L1.70911 69.1792L1.68924 69.1799L1.67421 69.1916L1.65599 69.1968L1.64124 69.2092L1.62539 69.2186L1.60771 69.2253L1.59187 69.2347L1.57282 69.2377L1.55697 69.2471L1.53902 69.253L1.52345 69.2632L1.50659 69.2721L1.49047 69.2808L1.47463 69.2902L1.4564 69.2954L1.43927 69.3036L1.4226 69.3108L1.40437 69.316L1.38963 69.3284L1.37112 69.3329L1.35473 69.3408L1.33861 69.3494L1.32386 69.3618L1.30536 69.3663L1.28823 69.3745L1.27129 69.3809L1.25572 69.3911L1.23804 69.3978L1.22219 69.4072L1.20342 69.4109L1.18949 69.4255L1.17044 69.4285L1.15624 69.4424L1.13957 69.4496L1.12162 69.4555L1.10605 69.4657L1.08672 69.4679L1.07115 69.4781L1.05293 69.4833L1.03653 69.4912L1.0205 69.5024L1.00273 69.5065L0.986701 69.5177L0.969758 69.5241L0.952079 69.5309L0.936783 69.5418L0.920663 69.5504L0.903807 69.5594L0.886865 69.5658L0.871842 69.5774L0.853066 69.5812L0.838044 69.5928L0.821188 69.6017L0.801588 69.6032L0.785469 69.6119L0.768064 69.6193L0.75167 69.6272L0.737471 69.6411L0.720341 69.6493L0.701016 69.6516L0.684622 69.6595L0.669874 69.6719L0.654029 69.6813L0.636898 69.6895L0.617025 69.6902L0.602003 69.7019L0.584323 69.7086L0.567107 69.7142L0.551073 69.7254L0.536051 69.7371L0.518835 69.7427L0.501155 69.7494L0.486133 69.7611L0.46818 69.767L0.449129 69.77L0.435479 69.7854L0.418262 69.7911L0.399485 69.7948L0.383915 69.8049L0.365687 69.8102L0.351762 69.8248L0.332437 69.827L0.317963 69.8402L0.300833 69.8484L0.283342 69.8533L0.265388 69.8592L0.249818 69.8694L0.232138 69.8761L0.217391 69.8885L0.198888 69.893L0.18222 69.9001L0.16509 69.9083L0.149793 69.9192L0.132114 69.9259L0.114161 69.9319L0.0988644 69.9428L0.080911 69.9487L0.0639685 69.9552L0.0486721 69.9661L0.0583907 69.9811L0.0635017 69.9996L0.0742313 70.0151L0.077869 70.0341L0.0900719 70.0491L0.0966561 70.067L0.105176 70.0833L0.11176 70.1013L0.118807 70.1182L0.124654 70.1364L0.13391 70.1524L0.138285 70.1712L0.149751 70.1864L0.160481 70.2019L0.163382 70.2212L0.171902 70.2376L0.179222 70.2552L0.188479 70.2713L0.19359 70.2898L0.200636 70.3067L0.213576 70.3213L0.21795 70.3401L0.227206 70.3561L0.236 70.3732L0.243047 70.3901L0.249631 70.4081L0.256678 70.425L0.265472 70.442L0.271782 70.4592L0.286194 70.4733L0.287622 70.4932L0.299088 70.5084L0.307608 70.5248L0.311246 70.5438L0.323449 70.5588L0.329296 70.577L0.340763 70.5922L0.345137 70.6109L0.351447 70.6281L0.358031 70.646L0.367287 70.6621L0.376081 70.6792L0.387548 70.6944L0.391185 70.7135L0.399705 70.7298L0.409698 70.7456L0.412599 70.7649L0.426275 70.7793L0.43286 70.7972L0.440643 70.8138L0.44428 70.8329L0.455747 70.8481L0.461594 70.8663L0.469377 70.8829L0.480844 70.8981L0.486691 70.9163L0.493001 70.9335L0.503268 70.95L0.508105 70.9678L0.518372 70.9843L0.527629 71.0004L0.533939 71.0175L0.542733 71.0346L0.551989 71.0507L0.55489 71.07L0.566356 71.0852L0.574414 71.1026L0.582934 71.1189L0.591453 71.1353L0.596564 71.1538L0.601675 71.1722L0.613878 71.1872L0.622398 71.2035L0.625299 71.2229L0.634093 71.2399L0.642613 71.2563L0.651132 71.2726L0.656243 71.2911L0.666973 71.3066L0.676966 71.3224L0.685023 71.3398L0.690134 71.3582L0.697918 71.3749L0.709384 71.3901L0.711548 71.4097L0.723751 71.4246L0.732545 71.4417L0.735446 71.461L0.747375 71.4752L0.754696 71.4929L0.759807 71.5114L0.771273 71.5266L0.774174 71.5459L0.788312 71.5593L0.792687 71.578L0.796324 71.5971L0.810001 71.6114L0.817784 71.6281L0.826578 71.6451L0.830215 71.6642L0.839472 71.6803L0.848728 71.6963L0.857248 71.7127L0.859687 71.733L0.871615 71.7472L0.876726 71.7657L0.887456 71.7812L0.895513 71.7985L0.901823 71.8157L0.909144 71.8334L0.914992 71.8516L0.925721 71.8671L0.933504 71.8837L0.940088 71.9016L0.953028 71.9163L0.953719 71.9364L0.964449 71.9519L0.972232 71.9686L0.978079 71.9868L0.986137 72.0041L0.99834 72.0191L1.00318 72.0368L1.01344 72.0533L1.0227 72.0694L1.02486 72.089L1.03219 72.1066L1.04632 72.12L1.05512 72.1371L1.05581 72.1572L1.06875 72.1719L1.07091 72.1915L1.0787 72.2081L1.08749 72.2252L1.09601 72.2416L1.10969 72.2559L1.11553 72.2741L1.12037 72.2919L1.13064 72.3084L1.13768 72.3253L1.14574 72.3427L1.15573 72.3585L1.15864 72.3778L1.16789 72.3938L1.17936 72.4091L1.18668 72.4267L1.194 72.4444L1.20031 72.4615L1.20542 72.48L1.21983 72.4941L1.22614 72.5113L1.23273 72.5292L1.24005 72.5469L1.25004 72.5626L1.25368 72.5817L1.2622 72.598L1.27293 72.6135L1.27804 72.632L1.29024 72.647L1.29756 72.6646L1.30267 72.6831L1.31119 72.6994L1.32045 72.7155L1.32777 72.7331L1.33067 72.7524L1.34067 72.7682L1.3502 72.785L1.35798 72.8017L1.36438 72.8214L1.38169 72.8114L1.39855 72.8024L1.41577 72.7968L1.43235 72.7871L1.44874 72.7792L1.46615 72.7717L1.48282 72.7645L1.49921 72.7566L1.51661 72.7492L1.53218 72.739L1.54986 72.7323L1.56653 72.7251L1.58449 72.7192L1.59923 72.7068L1.61746 72.7016L1.63385 72.6937L1.65126 72.6862L1.66793 72.6791L1.68506 72.6709L1.69852 72.6572L1.71647 72.6513L1.73259 72.6426L1.75164 72.6397L1.76529 72.6243L1.78435 72.6213L1.80074 72.6134L1.81787 72.6052L1.83262 72.5928L1.84929 72.5856L1.86696 72.5789L1.88602 72.576L1.90021 72.5621L1.91633 72.5534L1.93538 72.5504L1.95252 72.5422L1.96809 72.5321L1.9853 72.5264L2.00032 72.5148L2.0191 72.511L2.03596 72.5021L2.05263 72.4949L2.06847 72.4855L2.0867 72.4803L2.10383 72.4721L2.1183 72.459L2.13415 72.4496L2.15238 72.4443L2.16877 72.4364L2.18544 72.4293L2.20367 72.4241L2.21924 72.4139L2.23664 72.4064L2.25221 72.3963L2.27044 72.3911L2.28656 72.3824L2.30341 72.3735L2.31953 72.3648L2.33721 72.3581L2.35416 72.3517L2.36836 72.3378L2.38713 72.3341L2.40188 72.3217L2.41983 72.3157L2.43787 72.3123L2.45528 72.3048L2.47085 72.2947L2.48825 72.2872L2.5041 72.2778L2.51994 72.2684L2.53653 72.2587L2.5553 72.255L2.57142 72.2464L2.5891 72.2397L2.60604 72.2332L2.62134 72.2223L2.63609 72.2099L2.65569 72.2085L2.67227 72.1988L2.68674 72.1856L2.70396 72.1799L2.72081 72.171L2.73721 72.1631L2.75489 72.1564L2.77156 72.1492L2.79006 72.1448L2.80618 72.1361L2.8212 72.1244L2.83915 72.1185L2.85683 72.1118L2.87158 72.0994L2.8877 72.0907L2.90409 72.0828L2.92259 72.0783L2.94055 72.0724L2.95639 72.063L2.97169 72.0521L2.98855 72.0431L3.00521 72.036L3.02427 72.033L3.04011 72.0236L3.05669 72.0139L3.07446 72.0097L3.09049 71.9985L3.10798 71.9936L3.12355 71.9834L3.14041 71.9745L3.15763 71.9688L3.17237 71.9564L3.19033 71.9505L3.2059 71.9403L3.22358 71.9336L3.23997 71.9257L3.25847 71.9212L3.27322 71.9088L3.292 71.9051L3.30757 71.895L3.32286 71.8841L3.34137 71.8796L3.35795 71.8699L3.37516 71.8642L3.39019 71.8526L3.40787 71.8459L3.42554 71.8392L3.44166 71.8305L3.45696 71.8196L3.47519 71.8144L3.49314 71.8084L3.50789 71.796L3.52456 71.7889L3.54279 71.7837L3.55918 71.7758L3.57658 71.7683L3.59133 71.7559L3.60773 71.748L3.62541 71.7413L3.64281 71.7338L3.6592 71.7259L3.67661 71.7185L3.6941 71.7135L3.71041 71.7031L3.7279 71.6982L3.74237 71.685L3.7595 71.6768L3.77746 71.6709L3.79412 71.6637L3.80969 71.6536L3.82683 71.6454L3.84349 71.6382L3.8598 71.6278L3.87858 71.624L3.89387 71.6131L3.91265 71.6094L3.92822 71.5993L3.94434 71.5906L3.96257 71.5854L3.97704 71.5722L3.99582 71.5685L4.01166 71.5591L4.02824 71.5494L4.0473 71.5465L4.06122 71.5318L4.07789 71.5247L4.09666 71.5209L4.11114 71.5078L4.12937 71.5026L4.14576 71.4947L4.16316 71.4872L4.17653 71.4779L4.17472 71.4616L4.1674 71.4439L4.15446 71.4293L4.14594 71.4129L4.14451 71.393L4.13646 71.3757L4.12305 71.362L4.11647 71.3441L4.10795 71.3278L4.10431 71.3087L4.09699 71.2911L4.08774 71.275L4.08115 71.2571L4.06821 71.2424L4.06531 71.2231L4.05311 71.2082L4.04606 71.1913L4.03874 71.1736L4.03169 71.1567L4.02658 71.1383L4.01438 71.1233L4.00954 71.1056L4.00149 71.0882L3.98855 71.0735L3.9815 71.0566L3.97418 71.039L3.97128 71.0197L3.95908 71.0047L3.95424 70.987L3.94471 70.9702L3.93914 70.9527L3.93034 70.9356L3.91887 70.9204L3.91183 70.9035L3.9023 70.8867L3.8982 70.8687L3.88793 70.8522L3.88088 70.8353L3.87283 70.8179L3.86504 70.8013L3.86067 70.7825L3.85436 70.7654L3.84216 70.7504L3.83705 70.7319L3.82972 70.7143L3.81706 70.7004L3.809 70.683L3.80757 70.6631L3.79684 70.6476L3.79173 70.6291L3.78174 70.6134L3.77442 70.5957L3.76443 70.5799L3.76005 70.5612L3.75227 70.5445L3.7408 70.5293L3.73275 70.512L3.7257 70.4951L3.71764 70.4777L3.71133 70.4605L3.70327 70.4431L3.69328 70.4274L3.68402 70.4113L3.6826 70.3914L3.6738 70.3743L3.66602 70.3577L3.65234 70.3433L3.64723 70.3249L3.63871 70.3085L3.63139 70.2909L3.62435 70.274L3.6185 70.2558L3.60556 70.2411L3.60192 70.2221L3.58972 70.2071L3.58755 70.1875L3.57756 70.1717L3.57125 70.1546L3.55951 70.1386L3.55541 70.1206L3.54662 70.1035L3.53662 70.0877L3.52884 70.0711L3.52447 70.0523L3.51079 70.0379L3.50347 70.0203L3.50057 70.001L3.48984 69.9855L3.47984 69.9697L3.47473 69.9512L3.46769 69.9343L3.45843 69.9182L3.45258 69.9L3.44674 69.8818L3.43453 69.8669L3.42601 69.8506L3.4197 69.8334L3.41091 69.8163L3.40654 69.7975L3.39654 69.7817L3.38729 69.7657L3.38144 69.7475L3.37513 69.7303L3.36854 69.7124L3.35413 69.6983L3.34929 69.6805L3.3405 69.6635L3.33686 69.6444L3.32613 69.6289L3.31614 69.6131L3.3125 69.5941L3.3003 69.5791L3.29298 69.5615L3.2852 69.5449L3.27594 69.5288L3.27377 69.5092L3.26157 69.4943L3.25425 69.4766L3.24988 69.4579L3.23988 69.4421L3.23063 69.426L3.22699 69.407L3.21258 69.3929L3.20747 69.3744L3.20116 69.3572L3.19163 69.3404L3.18163 69.3246L3.17385 69.308L3.16653 69.2904L3.15875 69.2737L3.15511 69.2547L3.14852 69.2368L3.13632 69.2218L3.1278 69.2055L3.11827 69.1887L3.11684 69.1688L3.10759 69.1528L3.09612 69.1375L3.0888 69.1199L3.08102 69.1033L3.07443 69.0853L3.06444 69.0696L3.05859 69.0514L3.05422 69.0326L3.04643 69.016L3.03423 69.001L3.02617 68.9837L3.02327 68.9643L3.01107 68.9494L3.00623 68.9317L2.99403 68.9167L2.99039 68.8977L2.97893 68.8825L2.97308 68.8643L2.96428 68.8472L2.95797 68.83L2.94798 68.8142L2.94213 68.796L2.93408 68.7786L2.92335 68.7631L2.91556 68.7465L2.90751 68.7292L2.90092 68.7112L2.89682 68.6932L2.88462 68.6783L2.87877 68.6601L2.87145 68.6424L2.86201 68.6281Z" fill="#CDFFFE"/>
<path d="M86.8788 0.934616L86.8735 0.965309L86.8642 0.999289L86.8511 1.03052L86.8478 1.06491L86.8301 1.09618L86.8249 1.13151L86.8201 1.16545L86.808 1.19853L86.8033 1.23247L86.7911 1.26555L86.7919 1.30129L86.783 1.33388L86.7681 1.36605L86.762 1.39954L86.7567 1.43487L86.7478 1.46746L86.743 1.50139L86.741 1.53624L86.7248 1.56796L86.7228 1.6028L86.712 1.63633L86.7045 1.66936L86.702 1.7056L86.6945 1.73864L86.687 1.77167L86.679 1.80611L86.6572 1.83602L86.658 1.87177L86.6445 1.90439L86.6438 1.93969L86.6349 1.97227L86.6242 2.0058L86.6222 2.04064L86.6032 2.07146L86.6053 2.10766L86.5978 2.14069L86.5898 2.17512L86.5749 2.2073L86.5743 2.24259L86.5695 2.27653L86.5533 2.30825L86.5512 2.34309L86.5437 2.37613L86.5261 2.4074L86.5268 2.44314L86.5202 2.47803L86.5141 2.51152L86.5033 2.54504L86.4972 2.57853L86.4897 2.61157L86.4803 2.64555L86.4728 2.67858L86.4579 2.71076L86.4472 2.74429L86.4424 2.77822L86.4317 2.81175L86.4297 2.8466L86.4221 2.87963L86.4183 2.91542L86.3979 2.94579L86.3904 2.97882L86.3856 3.01276L86.3863 3.0485L86.3742 3.08158L86.3594 3.11376L86.3587 3.14905L86.3439 3.18122L86.3473 3.21787L86.3412 3.25136L86.3194 3.28127L86.3188 3.31657L86.3053 3.34919L86.306 3.38494L86.3013 3.41888L86.2905 3.45241L86.2858 3.48634L86.2681 3.51762L86.2634 3.55155L86.2513 3.58463L86.2479 3.61902L86.2413 3.65391L86.2351 3.68739L86.2303 3.72133L86.2168 3.75396L86.2089 3.78839L86.2 3.82097L86.1865 3.8536L86.1872 3.88934L86.1723 3.92152L86.1648 3.95455L86.1587 3.98804L86.1594 4.02378L86.1445 4.05596L86.1366 4.09039L86.1263 4.12252L86.1229 4.15691L86.1121 4.19044L86.1074 4.22438L86.0911 4.2561L86.096 4.2932L86.0784 4.32447L86.0819 4.36112L86.073 4.39371L86.0608 4.42678L86.0574 4.46117L86.0384 4.49199L86.035 4.52638L86.0216 4.55901L86.014 4.59204L86.0116 4.62828L85.9971 4.65906L85.9947 4.6953L85.9844 4.72743L85.9737 4.76096L85.9716 4.7958L85.9655 4.82929L85.9589 4.86417L85.9486 4.8963L85.948 4.9316L85.9317 4.96332L85.9311 4.99861L85.9245 5.0335L85.9041 5.06387L85.898 5.09735L85.8886 5.13133L85.8811 5.16437L85.8846 5.20102L85.8766 5.23545L85.8576 5.26627L85.8501 5.2993L85.8508 5.33505L85.846 5.36899L85.838 5.40342L85.8163 5.43333L85.8156 5.46863L85.8049 5.50216L85.7932 5.53384L85.7908 5.57008L85.7901 5.60537L85.7785 5.63705L85.7677 5.67058L85.7671 5.70587L85.755 5.73895L85.7374 5.77022L85.7436 5.80777L85.7319 5.83945L85.7157 5.87118L85.7123 5.90557L85.6988 5.93819L85.7037 5.97529L85.6847 6.00611L85.6868 6.04231L85.6788 6.07674L85.6658 6.10797L85.6537 6.14105L85.6503 6.17544L85.6395 6.20896L85.6403 6.24471L85.6254 6.27688L85.6165 6.30947L85.6085 6.3439L85.6065 6.37874L85.5958 6.41227L85.5837 6.44535L85.5816 6.48019L85.5695 6.51327L85.5593 6.5454L85.5572 6.58024L85.5898 6.58319L85.6219 6.59682L85.6563 6.59883L85.6875 6.61525L85.7228 6.61446L85.7559 6.6253L85.7889 6.63149L85.8219 6.64233L85.854 6.65132L85.8866 6.66356L85.9201 6.66835L85.9518 6.68338L85.9866 6.68399L86.021 6.68599L86.0518 6.70382L86.0848 6.71001L86.1183 6.71945L86.1518 6.72425L86.1839 6.73788L86.2161 6.74687L86.2518 6.74469L86.2835 6.75971L86.3169 6.76451L86.3513 6.77116L86.3835 6.78015L86.4165 6.79099L86.4486 6.79998L86.483 6.80662L86.5147 6.81701L86.5513 6.81203L86.5812 6.83264L86.616 6.83325L86.649 6.83945L86.6803 6.85587L86.7156 6.85508L86.7482 6.86732L86.783 6.86792L86.8147 6.88295L86.8463 6.89334L86.8794 6.90418L86.9129 6.90897L86.9473 6.91562L86.9821 6.91623L87.0133 6.93265L87.0463 6.93885L87.0803 6.94225L87.1111 6.96007L87.1472 6.95649L87.1803 6.96733L87.2128 6.97492L87.2441 6.99134L87.2789 6.99195L87.3115 7.00419L87.3441 7.01178L87.3789 7.01239L87.4115 7.02462L87.4432 7.03501L87.4785 7.03886L87.5092 7.05204L87.5445 7.05589L87.578 7.06069L87.6097 7.07108L87.6441 7.07772L87.6775 7.08252L87.7083 7.10034L87.7431 7.10095L87.7771 7.109L87.8101 7.11519L87.8431 7.12139L87.8753 7.13502L87.9074 7.14865L87.9427 7.14786L87.9757 7.15405L88.0065 7.17188L88.0409 7.17852L88.0739 7.18472L88.107 7.19091L88.1391 7.20455L88.1735 7.20655L88.2074 7.20995L88.2413 7.21799L88.2735 7.23163L88.3061 7.23922L88.3409 7.23983L88.3712 7.25905L88.4065 7.25826L88.4409 7.2649L88.4717 7.28273L88.5056 7.28148L88.5391 7.29092L88.5712 7.30456L88.606 7.30516L88.6368 7.32299L88.6721 7.31755L88.7038 7.33258L88.735 7.34901L88.7712 7.34542L88.8038 7.35302L88.8381 7.35966L88.8694 7.37609L88.9029 7.38089L88.9363 7.38568L88.9694 7.39188L89.0011 7.41155L89.035 7.41031L89.0671 7.42394L89.1015 7.42595L89.1354 7.43399L89.1671 7.44438L89.2006 7.45382L89.2332 7.46605L89.2676 7.46806L89.3001 7.47565L89.3332 7.48649L89.3689 7.4843L89.3984 7.50631L89.4327 7.50832L89.4653 7.51591L89.4979 7.52814L89.5319 7.53619L89.5671 7.5354L89.5979 7.54858L89.6332 7.55243L89.6666 7.55723L89.697 7.57645L89.7305 7.58589L89.7657 7.58046L89.8001 7.5871L89.8296 7.60912L89.8653 7.60693L89.8957 7.62615L89.9282 7.63374L89.9626 7.64039L89.9956 7.64658L90.0318 7.643L90.0644 7.65523L90.0952 7.66841L90.1305 7.67227L90.1626 7.68126L90.1965 7.6893L90.2304 7.6927L90.2613 7.71052L90.2947 7.71532L90.3295 7.71593L90.363 7.72537L90.3965 7.73481L90.4282 7.7452L90.4604 7.75883L90.497 7.75385L90.5286 7.76423L90.5617 7.77507L90.5952 7.78451L90.6291 7.78791L90.6604 7.80434L90.6934 7.81053L90.7277 7.81254L90.7599 7.82617L90.7951 7.82538L90.8286 7.83482L90.8608 7.84845L90.8938 7.85465L90.9273 7.85945L90.9608 7.86889L90.9916 7.88671L91.0255 7.89011L91.0603 7.89536L91.0929 7.90295L91.1283 7.91609L91.1339 7.87936L91.1405 7.84447L91.1522 7.81279L91.1574 7.77746L91.165 7.74442L91.1743 7.71044L91.1832 7.67786L91.1908 7.64482L91.2001 7.61084L91.2035 7.57645L91.2142 7.54292L91.2231 7.51034L91.2353 7.47726L91.2345 7.44152L91.248 7.40889L91.2555 7.37586L91.2649 7.34188L91.2738 7.30929L91.2818 7.27486L91.2778 7.23961L91.29 7.20653L91.2961 7.17304L91.3137 7.14177L91.3075 7.10422L91.3251 7.07295L91.3326 7.03992L91.3406 7.00548L91.3399 6.96974L91.3488 6.93716L91.3595 6.90363L91.3771 6.87235L91.3736 6.83571L91.3798 6.80222L91.3974 6.77095L91.4054 6.73652L91.4088 6.70213L91.4205 6.67045L91.4211 6.63515L91.4373 6.60343L91.4439 6.56855L91.4528 6.53596L91.4576 6.50202L91.4711 6.4694L91.4791 6.43497L91.477 6.39877L91.4817 6.36483L91.4952 6.33221L91.5028 6.29917L91.5117 6.26659L91.5252 6.23396L91.5286 6.19957L91.5379 6.16559L91.5413 6.1312L91.5548 6.09857L91.5609 6.06509L91.5675 6.0302L91.5737 5.99672L91.5844 5.96319L91.5947 5.93106L91.5912 5.89441L91.6075 5.86268L91.6067 5.82694L91.6188 5.79386L91.6346 5.76354L91.644 5.72956L91.6474 5.69517L91.6567 5.66119L91.6615 5.62725L91.6663 5.59331L91.6715 5.55797L91.6878 5.52625L91.6939 5.49276L91.7046 5.45923L91.7149 5.4271L91.717 5.39226L91.7162 5.35652L91.7366 5.32615L91.7418 5.29081L91.7397 5.25462L91.7514 5.22294L91.758 5.18805L91.7655 5.15502L91.7762 5.12149L91.7851 5.0889L91.8 5.05673L91.8062 5.02324L91.8068 4.98795L91.8189 4.95487L91.8296 4.92134L91.8289 4.8856L91.8351 4.85211L91.8426 4.81908L91.8575 4.7869L91.8696 4.75382L91.8743 4.71989L91.8764 4.68504L91.883 4.65016L91.8919 4.61758L91.9095 4.58631L91.9143 4.55237L91.9195 4.51703L91.9339 4.48625L91.9364 4.45002L91.9494 4.41879L91.9528 4.3844L91.9594 4.34951L91.9711 4.31783L91.9703 4.28209L91.9824 4.24901L91.9858 4.21462L91.9966 4.18109L92.0041 4.14806L92.019 4.11588L92.0182 4.08014L92.0345 4.04841L92.0379 4.01402L92.0399 3.97918L92.0548 3.94701L92.06 3.91167L92.0716 3.87999L92.0723 3.8447L92.083 3.81117L92.0937 3.77764L92.0999 3.74415L92.1019 3.70931L92.1154 3.67669L92.1275 3.64361L92.1268 3.60786L92.1357 3.57528L92.1492 3.54265L92.1567 3.50962L92.1661 3.47564L92.1653 3.43989L92.1729 3.40686L92.1836 3.37333L92.1929 3.33935L92.2005 3.30631L92.2098 3.27233L92.2229 3.2411L92.2267 3.20532L92.2398 3.17409L92.2376 3.13789L92.2456 3.10346L92.2577 3.07038L92.2666 3.0378L92.27 3.00341L92.278 2.96898L92.2869 2.93639L92.2908 2.90061L92.307 2.86888L92.309 2.83404L92.3253 2.80232L92.3287 2.76793L92.3348 2.73444L92.3483 2.70182L92.3462 2.66562L92.3624 2.6339L92.3672 2.59996L92.3724 2.56462L92.3901 2.53335L92.3852 2.49625L92.3941 2.46367L92.4103 2.43195L92.4082 2.39575L92.4217 2.36312L92.4292 2.33009L92.4386 2.29611L92.4407 2.26591L92.4153 2.24989L92.3818 2.24045L92.3461 2.24264L92.3131 2.23644L92.2832 2.21583L92.2493 2.20778L92.2145 2.21182L92.1814 2.20098L92.1484 2.19478L92.1172 2.17836L92.0837 2.16892L92.0502 2.16412L92.0171 2.15328L91.9814 2.15547L91.9506 2.13765L91.9154 2.13844L91.8833 2.12945L91.8498 2.12001L91.8176 2.11102L91.7855 2.09738L91.7502 2.09818L91.7194 2.08499L91.6855 2.07695L91.6498 2.07914L91.6177 2.07015L91.5842 2.06071L91.5534 2.04289L91.5181 2.04368L91.4873 2.03049L91.4525 2.02525L91.4213 2.01346L91.3869 2.00682L91.3521 2.00621L91.3199 1.99722L91.2851 1.99197L91.2548 1.97739L91.2195 1.97354L91.1873 1.96455L91.1534 1.95651L91.1208 1.94891L91.0891 1.93389L91.0574 1.9235L91.0222 1.92429L90.99 1.91066L90.9565 1.90122L90.9222 1.90386L90.8883 1.89581L90.8583 1.87519L90.824 1.87319L90.7918 1.85956L90.7579 1.85616L90.7244 1.84672L90.6905 1.84332L90.6588 1.82829L90.6262 1.8207L90.5914 1.82009L90.5575 1.81204L90.5254 1.80306L90.4914 1.79501L90.4597 1.78463L90.4258 1.77658L90.3919 1.77318L90.3584 1.76838L90.3285 1.74777L90.2941 1.74112L90.2615 1.73353L90.2254 1.73711L90.1932 1.72348L90.1602 1.71728L90.1267 1.70784L90.0946 1.69885L90.062 1.68662L90.0263 1.68881L89.995 1.67238L89.9598 1.67317L89.9294 1.65395L89.8955 1.65055L89.8638 1.64016L89.8276 1.6391L89.7973 1.62453L89.7629 1.61788L89.729 1.61448L89.6964 1.60689L89.6647 1.59186L89.6286 1.59544L89.5951 1.586L89.5642 1.56818L89.5299 1.56617L89.496 1.56277L89.4638 1.54914L89.4317 1.54015L89.3982 1.53535L89.3656 1.52312L89.333 1.51089L89.2978 1.51168L89.2647 1.50548L89.2331 1.49509L89.1987 1.48845L89.167 1.47342L89.1331 1.47002L89.0996 1.46522L89.067 1.45298L89.0353 1.4426L89.0023 1.43176L88.9657 1.43674L88.9349 1.42356L88.9005 1.41691L88.8692 1.40049L88.8349 1.39848L88.801 1.39508L88.7697 1.37866L88.7344 1.37945L88.7009 1.37001L88.6684 1.36241L88.6349 1.35762L88.6045 1.3384L88.5693 1.33919L88.5358 1.32975L88.5041 1.31472L88.4702 1.31132L88.4367 1.30652L88.4054 1.29009L88.3688 1.29507L88.3367 1.28144L88.305 1.27106L88.2702 1.26581L88.2363 1.2624L88.2037 1.25481L88.1702 1.24537L88.1376 1.23778L88.1064 1.22135L88.0733 1.21052L88.038 1.21131L88.005 1.20511L87.9702 1.19986L87.9403 1.17924L87.9068 1.17445L87.872 1.17384L87.8385 1.1644L87.8059 1.15681L87.7729 1.14597L87.739 1.14257L87.7064 1.13033L87.6747 1.1153L87.6421 1.10771L87.6068 1.1085L87.5729 1.10046L87.5421 1.08263L87.5068 1.08342L87.476 1.07024L87.4408 1.07103L87.4095 1.05461L87.3747 1.054L87.3421 1.04177L87.3077 1.03512L87.276 1.02473L87.2421 1.02133L87.2095 1.0091L87.1756 1.00105L87.1412 0.99905L87.1086 0.991458L87.0747 0.983415L87.0416 0.972577L87.0113 0.957999L86.9761 0.95879L86.9435 0.946555L86.91 0.937114L86.8788 0.934616Z" fill="#CDFFFE"/>
<path d="M83.434 13.3394C82.7809 12.6764 82.7817 11.6004 83.4373 10.9362C84.0929 10.272 85.1538 10.2723 85.8068 10.9353C86.4599 11.5983 86.4591 12.6743 85.8035 13.3385C85.1479 14.0027 84.087 14.0024 83.434 13.3394Z" fill="#CDFFFE" stroke="#090B0E" stroke-width="0.741788"/>
<path d="M192.785 55.141C192.88 53.9212 193.928 53.0207 195.114 53.1135C196.299 53.2062 197.197 54.2591 197.102 55.4789C197.007 56.6986 195.959 57.5992 194.773 57.5064C193.588 57.4136 192.69 56.3608 192.785 55.141Z" fill="#CDFFFE" stroke="#090B0E"/>
<line x1="39.573" y1="53.4502" x2="158.697" y2="53.4502" stroke="black"/>
<rect x="39.0383" y="30.9365" width="119.933" height="78.5733" rx="3.46715" stroke="#090B0E"/>
<path d="M80.8707 49.7496C80.8707 54.1149 77.3496 57.6496 73.0112 57.6496C68.6727 57.6496 65.1516 54.1149 65.1516 49.7496C65.1516 45.3843 68.6727 41.8496 73.0112 41.8496C77.3496 41.8496 80.8707 45.3843 80.8707 49.7496Z" fill="white" stroke="black"/>
<ellipse cx="73.0113" cy="47.65" rx="3.13483" ry="3.15" fill="#090B0E"/>
<path fill-rule="evenodd" clip-rule="evenodd" d="M67.0042 55.5913C67.7781 53.427 70.1747 51.8496 73.0112 51.8496C75.8478 51.8496 78.2443 53.427 79.0183 55.5913C77.4985 57.1689 75.3689 58.1496 73.0112 58.1496C70.6536 58.1496 68.5239 57.1689 67.0042 55.5913Z" fill="#090B0E"/>
<rect x="66.1965" y="76.5" width="60.6517" height="18.95" rx="1.5" fill="#E1FCEE" stroke="black"/>
<line x1="66.1965" y1="63.9502" x2="125.803" y2="63.9502" stroke="black" stroke-linecap="round"/>
<line x1="66.1965" y1="68.1504" x2="98.6347" y2="68.1504" stroke="black" stroke-linecap="round"/>
<line x1="66.1965" y1="102.8" x2="98.6347" y2="102.8" stroke="black" stroke-linecap="round"/>
<defs>
<linearGradient id="paint0_linear_3119_27767" x1="192.135" y1="82.2981" x2="0.859364" y2="106.039" gradientUnits="userSpaceOnUse">
<stop stop-color="#E2FCEE"/>
<stop offset="1" stop-color="#CCFFFE"/>
</linearGradient>
</defs>
</svg>
