<svg width="40" height="40" viewBox="0 0 40 40" fill="none" xmlns="http://www.w3.org/2000/svg">
<g clip-path="url(#clip0_2986_102586)">
<path d="M15.8574 1.2561L39.4191 29.2835L3.70422 35.7958L15.8574 1.2561Z" fill="#D9FFEF"/>
<path d="M12.0706 32.6785L12.285 37.145L8.33362 35.1342L12.0706 32.6785Z" fill="white" stroke="black" stroke-linejoin="round"/>
<circle cx="34.3684" cy="12.3683" r="2.27166" transform="rotate(75.7596 34.3684 12.3683)" fill="#4BE4B4" stroke="black"/>
<circle cx="15.504" cy="33.8" r="1.03102" transform="rotate(75.7596 15.504 33.8)" fill="#090B0E" stroke="black"/>
<path d="M34.6149 18.3359L14.6806 16.7166C14.4053 16.6943 14.1641 16.8993 14.1417 17.1745L13.2924 27.6299C13.2701 27.9051 13.4751 28.1464 13.7503 28.1687L28.2624 29.3475C28.5819 29.3734 28.8847 29.5011 29.1264 29.7117L33.1109 33.1842C33.4202 33.4538 33.9046 33.2567 33.9378 32.8478L35.0728 18.8747C35.0951 18.5995 34.8901 18.3582 34.6149 18.3359Z" fill="white" stroke="black"/>
<mask id="path-6-inside-1_2986_102586" fill="white">
<path fill-rule="evenodd" clip-rule="evenodd" d="M31.6587 17.594L32.0435 23.9061C32.0771 24.4573 31.6575 24.9315 31.1062 24.9651L13.0128 26.0681C12.9805 26.0701 12.9485 26.0736 12.9167 26.0787L13.6433 17.1339C13.688 16.5835 14.1705 16.1735 14.721 16.2182L31.6587 17.594Z"/>
</mask>
<path fill-rule="evenodd" clip-rule="evenodd" d="M31.6587 17.594L32.0435 23.9061C32.0771 24.4573 31.6575 24.9315 31.1062 24.9651L13.0128 26.0681C12.9805 26.0701 12.9485 26.0736 12.9167 26.0787L13.6433 17.1339C13.688 16.5835 14.1705 16.1735 14.721 16.2182L31.6587 17.594Z" fill="#090B0E"/>
<path d="M31.6587 17.594L32.6568 17.5331L32.6041 16.6675L31.7397 16.5973L31.6587 17.594ZM32.0435 23.9061L31.0454 23.9669L31.0454 23.9669L32.0435 23.9061ZM31.1062 24.9651L31.1671 25.9632L31.1671 25.9632L31.1062 24.9651ZM13.0128 26.0681L13.0737 27.0663L13.0737 27.0663L13.0128 26.0681ZM12.9167 26.0787L11.92 25.9977L11.817 27.2659L13.0737 27.0663L12.9167 26.0787ZM13.6433 17.1339L12.6466 17.053L13.6433 17.1339ZM14.721 16.2182L14.64 17.2149L14.721 16.2182ZM30.6606 17.6548L31.0454 23.9669L33.0417 23.8452L32.6568 17.5331L30.6606 17.6548ZM31.0454 23.9669L31.0454 23.9669L31.1671 25.9632C32.2696 25.896 33.1089 24.9477 33.0417 23.8452L31.0454 23.9669ZM31.0454 23.9669L12.952 25.07L13.0737 27.0663L31.1671 25.9632L31.0454 23.9669ZM12.952 25.07C12.8874 25.0739 12.8233 25.081 12.7598 25.091L13.0737 27.0663L13.0737 27.0663L12.952 25.07ZM12.6466 17.053L11.92 25.9977L13.9135 26.1596L14.64 17.2149L12.6466 17.053ZM14.8019 15.2215C13.701 15.132 12.736 15.952 12.6466 17.053L14.64 17.2149L14.64 17.2149L14.8019 15.2215ZM31.7397 16.5973L14.8019 15.2215L14.64 17.2149L31.5777 18.5907L31.7397 16.5973Z" fill="black" mask="url(#path-6-inside-1_2986_102586)"/>
<path d="M4.02857 8.08129L28.9822 6.56C29.2579 6.5432 29.4949 6.75302 29.5117 7.02865L30.4854 22.999C30.5022 23.2746 30.2923 23.5117 30.0167 23.5285L11.9233 24.6316C11.5631 24.6535 11.2229 24.8046 10.9651 25.0571L5.7056 30.2081C5.39949 30.5079 4.88274 30.309 4.85667 29.8813L3.55992 8.61079C3.54312 8.33516 3.75294 8.09809 4.02857 8.08129Z" fill="#4BE4B4" stroke="black"/>
<line x1="8.8246" y1="12.7981" x2="24.795" y2="11.8245" stroke="black" stroke-linecap="round"/>
<line x1="9.06801" y1="16.7908" x2="21.0458" y2="16.0606" stroke="black" stroke-linecap="round"/>
</g>
<defs>
<clipPath id="clip0_2986_102586">
<rect width="40" height="40" fill="white"/>
</clipPath>
</defs>
</svg>
