<?xml version="1.0" encoding="UTF-8"?>
<svg width="427px" height="323px" viewBox="0 0 427 323" version="1.1" xmlns="http://www.w3.org/2000/svg" xmlns:xlink="http://www.w3.org/1999/xlink">
    <!-- Generator: Sketch 64 (93537) - https://sketch.com -->
    <title>quesitons</title>
    <desc>Created with Sketch.</desc>
    <defs>
        <path d="M150.072392,41.7394514 C171.686593,27.6538738 243.182542,-17.2764336 326.297486,7.60524477 C409.411796,32.4856507 421.503498,107.738953 423.949302,126.000321 C428.068251,156.755974 428.02965,222.008503 390.715474,265.904884 C353.400666,309.801901 277.355457,322.347724 255.165401,319.692601 C240.052673,317.884343 223.329447,312.613545 210.186018,304.736616 C194.516419,295.344746 186.24245,279.717505 176.324445,264.948582 C159.562618,239.988007 134.483159,240.049724 106.926888,240.86923 C68.4420168,242.014503 37.1230673,229.837712 16.0986437,197.249623 C-11.8892027,153.867979 -6.02180398,64.752427 56.8363122,57.3927796 C71.0833587,55.7251357 84.65773,58.5367794 98.7896054,58.4050731" id="path-1"></path>
        <linearGradient x1="44.7149915%" y1="21.7742935%" x2="50%" y2="78.2257065%" id="linearGradient-3">
            <stop stop-color="#C6DBFF" offset="0%"></stop>
            <stop stop-color="#CADDFE" offset="77.7923903%"></stop>
            <stop stop-color="#D6E4FC" offset="100%"></stop>
        </linearGradient>
    </defs>
    <g id="quesitons" stroke="none" stroke-width="1" fill="none" fill-rule="evenodd">
        <g id="Group-11" transform="translate(1.000000, 2.000000)">
            <g id="Group-89">
                <g id="Group-3">
                    <mask id="mask-2" fill="white">
                        <use xlink:href="#path-1"></use>
                    </mask>
                    <g id="Clip-2"></g>
                    <path d="M150.072392,41.7394514 C134.664142,51.7796724 117.388475,58.2313734 98.7896054,58.4050731 C84.65773,58.5367794 71.0833587,55.7251357 56.8363122,57.3927796 C-6.02180398,64.752427 -11.8892027,153.867979 16.0986437,197.249623 C37.1230673,229.837712 68.4420168,242.014503 106.926888,240.86923 C134.483159,240.049724 159.562618,239.988007 176.324445,264.948582 C186.24245,279.717505 194.516419,295.344746 210.186018,304.736616 C223.329447,312.613545 240.052673,317.884343 255.165401,319.692601 C277.355457,322.347724 353.400666,309.801901 390.715474,265.904884 C428.02965,222.008503 428.068251,156.755974 423.949302,126.000321 C421.503498,107.738953 409.411796,32.4856507 326.297486,7.60524477 C243.182542,-17.2764336 171.686593,27.6538738 150.072392,41.7394514 Z" id="Fill-1" fill="url(#linearGradient-3)" mask="url(#mask-2)"></path>
                </g>
            </g>
            <g id="Group-12" transform="translate(28.000000, 32.000000)">
                <path d="M5.04,257 L371.91,257 C374.693515,257 376.95,254.743515 376.95,251.96 L376.95,5.04 C376.95,2.25648486 374.693515,5.7059255e-15 371.91,0 L5.04,0 C2.25648486,5.11323436e-16 -8.33448807e-15,2.25648486 0,5.04 L0,251.96 C3.40882291e-16,254.743515 2.25648486,257 5.04,257 Z" id="Fill-101" stroke="#E4E7EC" stroke-width="0.935643564" fill="#FFFFFF"></path>
                <g id="Group-8" transform="translate(20.000000, 25.000000)">
                    <g id="Group-10" transform="translate(24.500000, 24.950000)">
                        <rect id="Rectangle" fill="#F4F5F8" x="0" y="0" width="256.2" height="68" rx="3.74257426"></rect>
                        <path d="M37.49065,39.2264 C39.22525,39.2264 40.40125,38.4032 41.22445,37.286 L40.18075,36.7127 C39.62215,37.5506 38.60785,38.1386 37.49065,38.1386 C35.34445,38.1386 33.71275,36.4775 33.71275,34.1549 C33.71275,31.8176 35.34445,30.1712 37.49065,30.1712 C38.60785,30.1712 39.62215,30.7739 40.18075,31.5971 L41.20975,31.0238 C40.43065,29.9213 39.22525,29.0834 37.49065,29.0834 C34.66825,29.0834 32.44855,31.1414 32.44855,34.1549 C32.44855,37.1684 34.66825,39.2264 37.49065,39.2264 Z M44.82595,39.2264 C45.78145,39.2264 46.58995,38.8883 47.17795,38.2415 L47.17795,39.05 L48.28045,39.05 L48.28045,34.1696 C48.28045,32.4497 47.03095,31.7735 45.53155,31.7735 C44.37025,31.7735 43.45885,32.1557 42.69445,32.9495 L43.20895,33.7139 C43.84105,33.0377 44.53195,32.729 45.38455,32.729 C46.41355,32.729 47.17795,33.2729 47.17795,34.2284 L47.17795,35.5073 C46.60465,34.8458 45.79615,34.5371 44.82595,34.5371 C43.62055,34.5371 42.34165,35.2868 42.34165,36.8744 C42.34165,38.4179 43.62055,39.2264 44.82595,39.2264 Z M45.22285,38.4326 C44.19385,38.4326 43.47355,37.7858 43.47355,36.8891 C43.47355,35.9777 44.19385,35.3309 45.22285,35.3309 C46.00195,35.3309 46.75165,35.6249 47.17795,36.2129 L47.17795,37.5506 C46.75165,38.1386 46.00195,38.4326 45.22285,38.4326 Z M51.58795,39.05 L51.58795,33.8609 C51.99955,33.2876 52.82275,32.7584 53.69005,32.7584 C54.64555,32.7584 55.27765,33.1553 55.27765,34.4048 L55.27765,39.05 L56.38015,39.05 L56.38015,34.0667 C56.38015,32.5232 55.60105,31.7735 54.11635,31.7735 C53.05795,31.7735 52.08775,32.3909 51.58795,32.9789 L51.58795,31.9499 L50.48545,31.9499 L50.48545,39.05 L51.58795,39.05 Z M62.78935,41.9312 C63.73015,41.9165 64.45045,41.5196 64.87675,40.4906 L68.43415,31.9499 L67.22875,31.9499 L64.87675,37.7711 L62.51005,31.9499 L61.31935,31.9499 L64.28875,39.1235 L63.81835,40.1966 C63.56845,40.7846 63.24505,40.9463 62.75995,40.9463 C62.58355,40.9463 62.31895,40.9022 62.15725,40.8287 L61.98085,41.8283 C62.18665,41.8871 62.55415,41.9312 62.78935,41.9312 Z M72.68245,39.2264 C74.84335,39.2264 76.19575,37.5506 76.19575,35.4926 C76.19575,33.4346 74.84335,31.7735 72.68245,31.7735 C70.52155,31.7735 69.16915,33.4346 69.16915,35.4926 C69.16915,37.5506 70.52155,39.2264 72.68245,39.2264 Z M72.68245,38.2415 C71.16835,38.2415 70.31575,36.9479 70.31575,35.4926 C70.31575,34.052 71.16835,32.7584 72.68245,32.7584 C74.19655,32.7584 75.03445,34.052 75.03445,35.4926 C75.03445,36.9479 74.19655,38.2415 72.68245,38.2415 Z M80.25295,39.2264 C81.31135,39.2264 82.23745,38.6678 82.78135,38.0504 L82.78135,39.05 L83.88385,39.05 L83.88385,31.9499 L82.78135,31.9499 L82.78135,37.1684 C82.36975,37.7417 81.54655,38.2415 80.67925,38.2415 C79.72375,38.2415 79.09165,37.874 79.09165,36.6245 L79.09165,31.9499 L77.98915,31.9499 L77.98915,36.9626 C77.98915,38.5061 78.76825,39.2264 80.25295,39.2264 Z M92.32165,39.05 L94.17385,33.3464 L96.02605,39.05 L97.12855,39.05 L99.39235,31.9499 L98.24575,31.9499 L96.51115,37.6094 L94.64425,31.9499 L93.70345,31.9499 L91.83655,37.6094 L90.10195,31.9499 L88.95535,31.9499 L91.21915,39.05 L92.32165,39.05 Z M101.77375,39.05 L101.77375,34.0226 C102.09715,33.4493 103.02325,32.8907 103.69945,32.8907 C103.87585,32.8907 104.00815,32.9054 104.14045,32.9348 L104.14045,31.8029 C103.17025,31.8029 102.34705,32.3468 101.77375,33.0965 L101.77375,31.9499 L100.67125,31.9499 L100.67125,39.05 L101.77375,39.05 Z M106.06615,30.9356 C106.47775,30.9356 106.81585,30.6122 106.81585,30.2006 C106.81585,29.789 106.47775,29.4509 106.06615,29.4509 C105.66925,29.4509 105.33115,29.789 105.33115,30.2006 C105.33115,30.6122 105.66925,30.9356 106.06615,30.9356 Z M106.62475,39.05 L106.62475,31.9499 L105.52225,31.9499 L105.52225,39.05 L106.62475,39.05 Z M110.62315,39.2264 C111.26995,39.2264 111.66685,39.0353 111.94615,38.7707 L111.62275,37.9475 C111.47575,38.1092 111.18175,38.2415 110.87305,38.2415 C110.38795,38.2415 110.15275,37.8593 110.15275,37.3301 L110.15275,32.9201 L111.59335,32.9201 L111.59335,31.9499 L110.15275,31.9499 L110.15275,30.0095 L109.05025,30.0095 L109.05025,31.9499 L107.87425,31.9499 L107.87425,32.9201 L109.05025,32.9201 L109.05025,37.5653 C109.05025,38.6237 109.57945,39.2264 110.62315,39.2264 Z M116.35615,39.2264 C117.51745,39.2264 118.47295,38.8442 119.17855,38.1386 L118.64935,37.4183 C118.09075,37.9916 117.26755,38.315 116.45905,38.315 C114.93025,38.315 113.98945,37.1978 113.90125,35.8601 L119.64895,35.8601 L119.64895,35.5808 C119.64895,33.4493 118.38475,31.7735 116.23855,31.7735 C114.20995,31.7735 112.73995,33.4346 112.73995,35.4926 C112.73995,37.7123 114.25405,39.2264 116.35615,39.2264 Z M118.56115,35.0516 L113.90125,35.0516 C113.96005,33.9638 114.70975,32.6849 116.22385,32.6849 C117.84085,32.6849 118.54645,33.9932 118.56115,35.0516 Z M127.30765,39.2264 C128.26315,39.2264 129.07165,38.8883 129.65965,38.2415 L129.65965,39.05 L130.76215,39.05 L130.76215,34.1696 C130.76215,32.4497 129.51265,31.7735 128.01325,31.7735 C126.85195,31.7735 125.94055,32.1557 125.17615,32.9495 L125.69065,33.7139 C126.32275,33.0377 127.01365,32.729 127.86625,32.729 C128.89525,32.729 129.65965,33.2729 129.65965,34.2284 L129.65965,35.5073 C129.08635,34.8458 128.27785,34.5371 127.30765,34.5371 C126.10225,34.5371 124.82335,35.2868 124.82335,36.8744 C124.82335,38.4179 126.10225,39.2264 127.30765,39.2264 Z M127.70455,38.4326 C126.67555,38.4326 125.95525,37.7858 125.95525,36.8891 C125.95525,35.9777 126.67555,35.3309 127.70455,35.3309 C128.48365,35.3309 129.23335,35.6249 129.65965,36.2129 L129.65965,37.5506 C129.23335,38.1386 128.48365,38.4326 127.70455,38.4326 Z M141.44905,39.2264 C143.18365,39.2264 144.35965,38.4032 145.18285,37.286 L144.13915,36.7127 C143.58055,37.5506 142.56625,38.1386 141.44905,38.1386 C139.30285,38.1386 137.67115,36.4775 137.67115,34.1549 C137.67115,31.8176 139.30285,30.1712 141.44905,30.1712 C142.56625,30.1712 143.58055,30.7739 144.13915,31.5971 L145.16815,31.0238 C144.38905,29.9213 143.18365,29.0834 141.44905,29.0834 C138.62665,29.0834 136.40695,31.1414 136.40695,34.1549 C136.40695,37.1684 138.62665,39.2264 141.44905,39.2264 Z M148.78435,39.2264 C149.73985,39.2264 150.54835,38.8883 151.13635,38.2415 L151.13635,39.05 L152.23885,39.05 L152.23885,34.1696 C152.23885,32.4497 150.98935,31.7735 149.48995,31.7735 C148.32865,31.7735 147.41725,32.1557 146.65285,32.9495 L147.16735,33.7139 C147.79945,33.0377 148.49035,32.729 149.34295,32.729 C150.37195,32.729 151.13635,33.2729 151.13635,34.2284 L151.13635,35.5073 C150.56305,34.8458 149.75455,34.5371 148.78435,34.5371 C147.57895,34.5371 146.30005,35.2868 146.30005,36.8744 C146.30005,38.4179 147.57895,39.2264 148.78435,39.2264 Z M149.18125,38.4326 C148.15225,38.4326 147.43195,37.7858 147.43195,36.8891 C147.43195,35.9777 148.15225,35.3309 149.18125,35.3309 C149.96035,35.3309 150.71005,35.6249 151.13635,36.2129 L151.13635,37.5506 C150.71005,38.1386 149.96035,38.4326 149.18125,38.4326 Z M155.54635,39.05 L155.54635,34.0226 C155.86975,33.4493 156.79585,32.8907 157.47205,32.8907 C157.64845,32.8907 157.78075,32.9054 157.91305,32.9348 L157.91305,31.8029 C156.94285,31.8029 156.11965,32.3468 155.54635,33.0965 L155.54635,31.9499 L154.44385,31.9499 L154.44385,39.05 L155.54635,39.05 Z M162.04375,39.2264 C163.04335,39.2264 163.91065,38.7119 164.43985,37.9916 L164.43985,39.05 L165.54235,39.05 L165.54235,29.2451 L164.43985,29.2451 L164.43985,33.023 C163.86655,32.2439 162.99925,31.7735 162.04375,31.7735 C160.17685,31.7735 158.88325,33.2435 158.88325,35.5073 C158.88325,37.8152 160.19155,39.2264 162.04375,39.2264 Z M162.30835,38.2415 C160.88245,38.2415 160.02985,37.0802 160.02985,35.5073 C160.02985,33.9344 160.88245,32.7584 162.30835,32.7584 C163.19035,32.7584 164.04295,33.2876 164.43985,33.905 L164.43985,37.1243 C164.04295,37.7417 163.19035,38.2415 162.30835,38.2415 Z M173.62735,39.2264 C174.58285,39.2264 175.39135,38.8883 175.97935,38.2415 L175.97935,39.05 L177.08185,39.05 L177.08185,34.1696 C177.08185,32.4497 175.83235,31.7735 174.33295,31.7735 C173.17165,31.7735 172.26025,32.1557 171.49585,32.9495 L172.01035,33.7139 C172.64245,33.0377 173.33335,32.729 174.18595,32.729 C175.21495,32.729 175.97935,33.2729 175.97935,34.2284 L175.97935,35.5073 C175.40605,34.8458 174.59755,34.5371 173.62735,34.5371 C172.42195,34.5371 171.14305,35.2868 171.14305,36.8744 C171.14305,38.4179 172.42195,39.2264 173.62735,39.2264 Z M174.02425,38.4326 C172.99525,38.4326 172.27495,37.7858 172.27495,36.8891 C172.27495,35.9777 172.99525,35.3309 174.02425,35.3309 C174.80335,35.3309 175.55305,35.6249 175.97935,36.2129 L175.97935,37.5506 C175.55305,38.1386 174.80335,38.4326 174.02425,38.4326 Z M182.78545,39.2264 C184.63765,39.2264 185.94595,37.8152 185.94595,35.5073 C185.94595,33.2435 184.63765,31.7735 182.78545,31.7735 C181.81525,31.7735 180.96265,32.2439 180.38935,33.023 L180.38935,29.2451 L179.28685,29.2451 L179.28685,39.05 L180.38935,39.05 L180.38935,37.9916 C180.91855,38.7119 181.78585,39.2264 182.78545,39.2264 Z M182.50615,38.2415 C181.63885,38.2415 180.77155,37.7417 180.38935,37.1243 L180.38935,33.905 C180.77155,33.2876 181.63885,32.7584 182.50615,32.7584 C183.94675,32.7584 184.79935,33.9344 184.79935,35.5073 C184.79935,37.0802 183.94675,38.2415 182.50615,38.2415 Z M190.84105,39.2264 C193.00195,39.2264 194.35435,37.5506 194.35435,35.4926 C194.35435,33.4346 193.00195,31.7735 190.84105,31.7735 C188.68015,31.7735 187.32775,33.4346 187.32775,35.4926 C187.32775,37.5506 188.68015,39.2264 190.84105,39.2264 Z M190.84105,38.2415 C189.32695,38.2415 188.47435,36.9479 188.47435,35.4926 C188.47435,34.052 189.32695,32.7584 190.84105,32.7584 C192.35515,32.7584 193.19305,34.052 193.19305,35.4926 C193.19305,36.9479 192.35515,38.2415 190.84105,38.2415 Z M198.41155,39.2264 C199.46995,39.2264 200.39605,38.6678 200.93995,38.0504 L200.93995,39.05 L202.04245,39.05 L202.04245,31.9499 L200.93995,31.9499 L200.93995,37.1684 C200.52835,37.7417 199.70515,38.2415 198.83785,38.2415 C197.88235,38.2415 197.25025,37.874 197.25025,36.6245 L197.25025,31.9499 L196.14775,31.9499 L196.14775,36.9626 C196.14775,38.5061 196.92685,39.2264 198.41155,39.2264 Z M206.04085,39.2264 C206.68765,39.2264 207.08455,39.0353 207.36385,38.7707 L207.04045,37.9475 C206.89345,38.1092 206.59945,38.2415 206.29075,38.2415 C205.80565,38.2415 205.57045,37.8593 205.57045,37.3301 L205.57045,32.9201 L207.01105,32.9201 L207.01105,31.9499 L205.57045,31.9499 L205.57045,30.0095 L204.46795,30.0095 L204.46795,31.9499 L203.29195,31.9499 L203.29195,32.9201 L204.46795,32.9201 L204.46795,37.5653 C204.46795,38.6237 204.99715,39.2264 206.04085,39.2264 Z M209.14255,39.197 C209.58355,39.197 209.95105,38.8148 209.95105,38.3885 C209.95105,37.9475 209.58355,37.58 209.14255,37.58 C208.70155,37.58 208.34875,37.9475 208.34875,38.3885 C208.34875,38.8148 208.70155,39.197 209.14255,39.197 Z M212.52355,39.197 C212.96455,39.197 213.34675,38.8148 213.34675,38.3885 C213.34675,37.9475 212.96455,37.58 212.52355,37.58 C212.08255,37.58 211.72975,37.9475 211.72975,38.3885 C211.72975,38.8148 212.08255,39.197 212.52355,39.197 Z M215.91925,39.197 C216.36025,39.197 216.72775,38.8148 216.72775,38.3885 C216.72775,37.9475 216.36025,37.58 215.91925,37.58 C215.47825,37.58 215.11075,37.9475 215.11075,38.3885 C215.11075,38.8148 215.47825,39.197 215.91925,39.197 Z M220.59385,36.3305 L221.49055,35.9483 C221.24065,35.7572 221.09365,35.4632 221.09365,35.228 C221.09365,33.7874 223.94545,33.5963 223.94545,31.3766 C223.94545,30.1124 222.85765,29.0981 221.06425,29.0981 C219.66775,29.0981 218.57995,29.6861 217.87435,30.5975 L218.60935,31.3913 C219.15325,30.671 219.84415,30.1859 220.94665,30.1859 C222.10795,30.1859 222.68125,30.818 222.68125,31.553 C222.68125,33.1112 220.02055,33.2729 220.02055,35.1398 C220.02055,35.5808 220.19695,35.9924 220.59385,36.3305 Z M220.90255,39.197 C221.34355,39.197 221.71105,38.8295 221.71105,38.3885 C221.71105,37.9475 221.34355,37.58 220.90255,37.58 C220.46155,37.58 220.09405,37.9475 220.09405,38.3885 C220.09405,38.8295 220.46155,39.197 220.90255,39.197 Z" id="CanyouwriteaCardabout…?" fill="#090B0E" fill-rule="nonzero"></path>
                    </g>
                    <g id="Group-9" transform="translate(91.700000, 123.000000)">
                        <rect id="Rectangle" fill="#F4F5F8" x="0" y="0" width="220.5" height="68.8" rx="3.74257426"></rect>
                        <path d="M33.33855,39.1764 C35.98455,39.1764 36.95475,37.7211 36.95475,36.2952 C36.95475,32.6349 31.14825,33.8991 31.14825,31.6941 C31.14825,30.768 31.98615,30.1359 33.16215,30.1359 C34.23525,30.1359 35.26425,30.5034 35.99925,31.3119 L36.73425,30.4152 C35.91105,29.5479 34.74975,29.0481 33.25035,29.0481 C31.32465,29.0481 29.88405,30.1506 29.88405,31.7676 C29.88405,35.2662 35.69055,33.8697 35.69055,36.3981 C35.69055,37.1478 35.13195,38.0886 33.38265,38.0886 C32.00085,38.0886 30.94245,37.4124 30.29565,36.6921 L29.57535,37.6182 C30.38385,38.5296 31.63335,39.1764 33.33855,39.1764 Z M40.99725,39.1764 C42.05565,39.1764 42.98175,38.6178 43.52565,38.0004 L43.52565,39 L44.62815,39 L44.62815,31.8999 L43.52565,31.8999 L43.52565,37.1184 C43.11405,37.6917 42.29085,38.1915 41.42355,38.1915 C40.46805,38.1915 39.83595,37.824 39.83595,36.5745 L39.83595,31.8999 L38.73345,31.8999 L38.73345,36.9126 C38.73345,38.4561 39.51255,39.1764 40.99725,39.1764 Z M47.93565,39 L47.93565,33.9726 C48.25905,33.3993 49.18515,32.8407 49.86135,32.8407 C50.03775,32.8407 50.17005,32.8554 50.30235,32.8848 L50.30235,31.7529 C49.33215,31.7529 48.50895,32.2968 47.93565,33.0465 L47.93565,31.8999 L46.83315,31.8999 L46.83315,39 L47.93565,39 Z M54.88875,39.1764 C56.05005,39.1764 57.00555,38.7942 57.71115,38.0886 L57.18195,37.3683 C56.62335,37.9416 55.80015,38.265 54.99165,38.265 C53.46285,38.265 52.52205,37.1478 52.43385,35.8101 L58.18155,35.8101 L58.18155,35.5308 C58.18155,33.3993 56.91735,31.7235 54.77115,31.7235 C52.74255,31.7235 51.27255,33.3846 51.27255,35.4426 C51.27255,37.6623 52.78665,39.1764 54.88875,39.1764 Z M57.09375,35.0016 L52.43385,35.0016 C52.49265,33.9138 53.24235,32.6349 54.75645,32.6349 C56.37345,32.6349 57.07905,33.9432 57.09375,35.0016 Z M61.00395,36.2511 L61.23915,29.1951 L59.85735,29.1951 L60.09255,36.2511 L61.00395,36.2511 Z M60.54825,39.147 C60.98925,39.147 61.35675,38.7648 61.35675,38.3385 C61.35675,37.8975 60.98925,37.53 60.54825,37.53 C60.10725,37.53 59.73975,37.8975 59.73975,38.3385 C59.73975,38.7648 60.10725,39.147 60.54825,39.147 Z M68.39805,39 L68.39805,29.1951 L67.17795,29.1951 L67.17795,39 L68.39805,39 Z M70.92645,32.385 C71.60265,31.8999 72.13185,31.062 72.13185,30.1653 C72.13185,29.445 71.69085,29.0481 71.20575,29.0481 C70.76475,29.0481 70.42665,29.4156 70.42665,29.8419 C70.42665,30.2829 70.72065,30.5916 71.13225,30.5916 C71.20575,30.5916 71.30865,30.5769 71.33805,30.5622 C71.27925,31.0326 70.85295,31.6206 70.38255,31.9293 L70.92645,32.385 Z M75.13065,39 L75.13065,29.1951 L74.02815,29.1951 L74.02815,39 L75.13065,39 Z M78.43815,39 L78.43815,29.1951 L77.33565,29.1951 L77.33565,39 L78.43815,39 Z M87.28755,41.8812 C89.02215,41.8812 90.66855,41.1462 90.66855,38.7942 L90.66855,31.8999 L89.56605,31.8999 L89.56605,32.973 C88.99275,32.1939 88.14015,31.7235 87.18465,31.7235 C85.31775,31.7235 84.02415,33.1347 84.02415,35.4132 C84.02415,37.7064 85.33245,39.0882 87.18465,39.0882 C88.18425,39.0882 89.05155,38.5443 89.56605,37.824 L89.56605,38.8383 C89.56605,40.3965 88.46355,40.9698 87.28755,40.9698 C86.27325,40.9698 85.56765,40.7052 84.97965,39.9996 L84.42105,40.8228 C85.25895,41.646 86.08215,41.8812 87.28755,41.8812 Z M87.44925,38.118 C86.02335,38.118 85.17075,36.9714 85.17075,35.4132 C85.17075,33.8403 86.02335,32.7084 87.44925,32.7084 C88.33125,32.7084 89.18385,33.2376 89.56605,33.855 L89.56605,36.9567 C89.18385,37.5741 88.33125,38.118 87.44925,38.118 Z M96.07815,39.1764 C97.23945,39.1764 98.19495,38.7942 98.90055,38.0886 L98.37135,37.3683 C97.81275,37.9416 96.98955,38.265 96.18105,38.265 C94.65225,38.265 93.71145,37.1478 93.62325,35.8101 L99.37095,35.8101 L99.37095,35.5308 C99.37095,33.3993 98.10675,31.7235 95.96055,31.7235 C93.93195,31.7235 92.46195,33.3846 92.46195,35.4426 C92.46195,37.6623 93.97605,39.1764 96.07815,39.1764 Z M98.28315,35.0016 L93.62325,35.0016 C93.68205,33.9138 94.43175,32.6349 95.94585,32.6349 C97.56285,32.6349 98.26845,33.9432 98.28315,35.0016 Z M102.94305,39.1764 C103.58985,39.1764 103.98675,38.9853 104.26605,38.7207 L103.94265,37.8975 C103.79565,38.0592 103.50165,38.1915 103.19295,38.1915 C102.70785,38.1915 102.47265,37.8093 102.47265,37.2801 L102.47265,32.8701 L103.91325,32.8701 L103.91325,31.8999 L102.47265,31.8999 L102.47265,29.9595 L101.37015,29.9595 L101.37015,31.8999 L100.19415,31.8999 L100.19415,32.8701 L101.37015,32.8701 L101.37015,37.5153 C101.37015,38.5737 101.89935,39.1764 102.94305,39.1764 Z M110.36655,39 L110.36655,33.9726 C110.68995,33.3993 111.61605,32.8407 112.29225,32.8407 C112.46865,32.8407 112.60095,32.8554 112.73325,32.8848 L112.73325,31.7529 C111.76305,31.7529 110.93985,32.2968 110.36655,33.0465 L110.36655,31.8999 L109.26405,31.8999 L109.26405,39 L110.36655,39 Z M114.65895,30.8856 C115.07055,30.8856 115.40865,30.5622 115.40865,30.1506 C115.40865,29.739 115.07055,29.4009 114.65895,29.4009 C114.26205,29.4009 113.92395,29.739 113.92395,30.1506 C113.92395,30.5622 114.26205,30.8856 114.65895,30.8856 Z M115.21755,39 L115.21755,31.8999 L114.11505,31.8999 L114.11505,39 L115.21755,39 Z M120.27435,41.8812 C122.00895,41.8812 123.65535,41.1462 123.65535,38.7942 L123.65535,31.8999 L122.55285,31.8999 L122.55285,32.973 C121.97955,32.1939 121.12695,31.7235 120.17145,31.7235 C118.30455,31.7235 117.01095,33.1347 117.01095,35.4132 C117.01095,37.7064 118.31925,39.0882 120.17145,39.0882 C121.17105,39.0882 122.03835,38.5443 122.55285,37.824 L122.55285,38.8383 C122.55285,40.3965 121.45035,40.9698 120.27435,40.9698 C119.26005,40.9698 118.55445,40.7052 117.96645,39.9996 L117.40785,40.8228 C118.24575,41.646 119.06895,41.8812 120.27435,41.8812 Z M120.43605,38.118 C119.01015,38.118 118.15755,36.9714 118.15755,35.4132 C118.15755,33.8403 119.01015,32.7084 120.43605,32.7084 C121.31805,32.7084 122.17065,33.2376 122.55285,33.855 L122.55285,36.9567 C122.17065,37.5741 121.31805,38.118 120.43605,38.118 Z M126.96285,39 L126.96285,33.8109 C127.38915,33.2376 128.21235,32.7084 129.06495,32.7084 C130.02045,32.7084 130.66725,33.0759 130.66725,34.3254 L130.66725,39 L131.76975,39 L131.76975,33.9873 C131.76975,32.4438 130.99065,31.7235 129.50595,31.7235 C128.43285,31.7235 127.46265,32.3409 126.96285,32.9289 L126.96285,29.1951 L125.86035,29.1951 L125.86035,39 L126.96285,39 Z M135.76815,39.1764 C136.41495,39.1764 136.81185,38.9853 137.09115,38.7207 L136.76775,37.8975 C136.62075,38.0592 136.32675,38.1915 136.01805,38.1915 C135.53295,38.1915 135.29775,37.8093 135.29775,37.2801 L135.29775,32.8701 L136.73835,32.8701 L136.73835,31.8999 L135.29775,31.8999 L135.29775,29.9595 L134.19525,29.9595 L134.19525,31.8999 L133.01925,31.8999 L133.01925,32.8701 L134.19525,32.8701 L134.19525,37.5153 C134.19525,38.5737 134.72445,39.1764 135.76815,39.1764 Z M145.19085,39.1764 C147.35175,39.1764 148.70415,37.5006 148.70415,35.4426 C148.70415,33.3846 147.35175,31.7235 145.19085,31.7235 C143.02995,31.7235 141.67755,33.3846 141.67755,35.4426 C141.67755,37.5006 143.02995,39.1764 145.19085,39.1764 Z M145.19085,38.1915 C143.67675,38.1915 142.82415,36.8979 142.82415,35.4426 C142.82415,34.002 143.67675,32.7084 145.19085,32.7084 C146.70495,32.7084 147.54285,34.002 147.54285,35.4426 C147.54285,36.8979 146.70495,38.1915 145.19085,38.1915 Z M151.60005,39 L151.60005,33.8109 C152.01165,33.2376 152.83485,32.7084 153.70215,32.7084 C154.65765,32.7084 155.28975,33.1053 155.28975,34.3548 L155.28975,39 L156.39225,39 L156.39225,34.0167 C156.39225,32.4732 155.61315,31.7235 154.12845,31.7235 C153.07005,31.7235 152.09985,32.3409 151.60005,32.9289 L151.60005,31.8999 L150.49755,31.8999 L150.49755,39 L151.60005,39 Z M164.18325,39.1764 C164.83005,39.1764 165.22695,38.9853 165.50625,38.7207 L165.18285,37.8975 C165.03585,38.0592 164.74185,38.1915 164.43315,38.1915 C163.94805,38.1915 163.71285,37.8093 163.71285,37.2801 L163.71285,32.8701 L165.15345,32.8701 L165.15345,31.8999 L163.71285,31.8999 L163.71285,29.9595 L162.61035,29.9595 L162.61035,31.8999 L161.43435,31.8999 L161.43435,32.8701 L162.61035,32.8701 L162.61035,37.5153 C162.61035,38.5737 163.13955,39.1764 164.18325,39.1764 Z M167.81415,39 L167.81415,33.8109 C168.24045,33.2376 169.06365,32.7084 169.91625,32.7084 C170.87175,32.7084 171.51855,33.0759 171.51855,34.3254 L171.51855,39 L172.62105,39 L172.62105,33.9873 C172.62105,32.4438 171.84195,31.7235 170.35725,31.7235 C169.28415,31.7235 168.31395,32.3409 167.81415,32.9289 L167.81415,29.1951 L166.71165,29.1951 L166.71165,39 L167.81415,39 Z M176.91345,39.1764 C177.86895,39.1764 178.67745,38.8383 179.26545,38.1915 L179.26545,39 L180.36795,39 L180.36795,34.1196 C180.36795,32.3997 179.11845,31.7235 177.61905,31.7235 C176.45775,31.7235 175.54635,32.1057 174.78195,32.8995 L175.29645,33.6639 C175.92855,32.9877 176.61945,32.679 177.47205,32.679 C178.50105,32.679 179.26545,33.2229 179.26545,34.1784 L179.26545,35.4573 C178.69215,34.7958 177.88365,34.4871 176.91345,34.4871 C175.70805,34.4871 174.42915,35.2368 174.42915,36.8244 C174.42915,38.3679 175.70805,39.1764 176.91345,39.1764 Z M177.31035,38.3826 C176.28135,38.3826 175.56105,37.7358 175.56105,36.8391 C175.56105,35.9277 176.28135,35.2809 177.31035,35.2809 C178.08945,35.2809 178.83915,35.5749 179.26545,36.1629 L179.26545,37.5006 C178.83915,38.0886 178.08945,38.3826 177.31035,38.3826 Z M184.36635,39.1764 C185.01315,39.1764 185.41005,38.9853 185.68935,38.7207 L185.36595,37.8975 C185.21895,38.0592 184.92495,38.1915 184.61625,38.1915 C184.13115,38.1915 183.89595,37.8093 183.89595,37.2801 L183.89595,32.8701 L185.33655,32.8701 L185.33655,31.8999 L183.89595,31.8999 L183.89595,29.9595 L182.79345,29.9595 L182.79345,31.8999 L181.61745,31.8999 L181.61745,32.8701 L182.79345,32.8701 L182.79345,37.5153 C182.79345,38.5737 183.32265,39.1764 184.36635,39.1764 Z M187.93845,36.2511 L188.17365,29.1951 L186.79185,29.1951 L187.02705,36.2511 L187.93845,36.2511 Z M187.48275,39.147 C187.92375,39.147 188.29125,38.7648 188.29125,38.3385 C188.29125,37.8975 187.92375,37.53 187.48275,37.53 C187.04175,37.53 186.67425,37.8975 186.67425,38.3385 C186.67425,38.7648 187.04175,39.147 187.48275,39.147 Z" id="Sure!I’llgetrightonthat!" fill="#090B0E" fill-rule="nonzero"></path>
                    </g>
                    <g id="Group-2" transform="translate(287.000000, 98.000000)">
                        <ellipse id="Oval" fill="#FFDACC" cx="24.9432388" cy="24.8418436" rx="24.9432388" ry="24.8418436"></ellipse>
                        <g id="Fill-2538-+-Fill-2539" transform="translate(9.769435, 12.420922)" fill="#FF8A60">
                            <path d="M15.1738036,17.3892905 C19.9884723,17.3892905 23.9039372,13.4897421 23.9039372,8.69464524 C23.9039372,3.89954839 19.9884723,-2.22044605e-13 15.1738036,-2.22044605e-13 C10.3591349,-2.22044605e-13 6.44367003,3.89954839 6.44367003,8.69464524 C6.44367003,13.4897421 10.3591349,17.3892905 15.1738036,17.3892905" id="Fill-2538"></path>
                            <path d="M0.207860324,29.1359337 C0.207860324,29.1359337 0.0392749517,32.0678777 0.207860324,32.2539363 C1.4846303,33.6630381 7.42067259,37.4742563 14.9553831,37.2627653 C25.5100841,36.9665066 30.1397469,32.2539363 30.1397469,32.2539363 L30.1397469,29.1359337 C30.1397469,22.3653957 23.9475393,18.6805035 15.1363402,18.6805035 C6.32514109,18.6805035 0.207860324,22.3653957 0.207860324,29.1359337 Z" id="Fill-2539"></path>
                        </g>
                    </g>
                    <g id="Group-2">
                        <ellipse id="Oval" fill="#C1D1FF" cx="24.5744681" cy="24.4745719" rx="24.5744681" ry="24.4745719"></ellipse>
                        <g id="Fill-2538-+-Fill-2539" transform="translate(9.625000, 12.237286)" fill="#235CFF">
                            <path d="M14.9494681,17.1322003 C19.6929548,17.1322003 23.5505319,13.2903044 23.5505319,8.56610016 C23.5505319,3.84189592 19.6929548,-1.70816183e-14 14.9494681,-1.70816183e-14 C10.2059814,-1.70816183e-14 6.34840426,3.84189592 6.34840426,8.56610016 C6.34840426,13.2903044 10.2059814,17.1322003 14.9494681,17.1322003" id="Fill-2538"></path>
                            <path d="M0.204787234,28.7051764 C0.204787234,28.7051764 0.0386942952,31.5937735 0.204787234,31.7770813 C1.46268093,33.1653504 7.31096242,36.920222 14.7342768,36.7118578 C25.1329329,36.4199791 29.6941489,31.7770813 29.6941489,31.7770813 L29.6941489,28.7051764 C29.6941489,22.0347368 23.5934894,18.4043236 14.9125585,18.4043236 C6.23162769,18.4043236 0.204787234,22.0347368 0.204787234,28.7051764 Z" id="Fill-2539"></path>
                        </g>
                    </g>
                </g>
            </g>
        </g>
    </g>
</svg>