<?xml version="1.0" encoding="UTF-8"?>
<svg width="427px" height="322px" viewBox="0 0 427 322" version="1.1" xmlns="http://www.w3.org/2000/svg" xmlns:xlink="http://www.w3.org/1999/xlink">
    <!-- Generator: Sketch 64 (93537) - https://sketch.com -->
    <title>Mentions</title>
    <desc>Created with Sketch.</desc>
    <defs>
        <path d="M149.915339,41.8260698 C171.506921,27.7112616 242.928049,-17.312286 325.956012,7.62102731 C408.983342,32.5530655 421.062389,107.962535 423.505634,126.261799 C427.620273,157.081277 427.581712,222.469219 390.306586,266.456695 C353.030828,310.444808 277.065202,323.016666 254.898367,320.356033 C239.801455,318.544022 223.09573,313.262286 209.966056,305.369011 C194.312855,295.957651 186.047545,280.29798 176.139919,265.498408 C159.395634,240.486034 134.342421,240.54788 106.814987,241.369086 C68.3703914,242.516735 37.0842176,230.314676 16.0817963,197.658959 C-11.8767605,154.187288 -6.01550209,64.8868024 56.7768323,57.5118821 C71.0089691,55.8407776 84.5691347,58.658256 98.6862209,58.5262763" id="path-1"></path>
        <linearGradient x1="44.7149915%" y1="21.5976071%" x2="50%" y2="78.4023929%" id="linearGradient-3">
            <stop stop-color="#C6DBFF" offset="0%"></stop>
            <stop stop-color="#CADDFE" offset="77.7923903%"></stop>
            <stop stop-color="#D6E4FC" offset="100%"></stop>
        </linearGradient>
        <path d="M5.68398796,0.48069554 C2.544576,0.48069554 0,1.73936281 0,3.29345123 L0,3.29345123 L65.3580859,3.29345123 C65.3580859,1.73936281 62.8135099,0.48069554 59.6740979,0.48069554 L59.6740979,0.48069554 L5.68398796,0.48069554 Z" id="path-4"></path>
        <path d="M3.55452872,0.277525228 C2.04504571,0.277525228 0.822504674,1.50576188 0.822504674,3.01902444 L0.822504674,3.01902444 L0.822504674,13.9831461 C0.822504674,15.4982838 2.04504571,16.7255829 3.55452872,16.7255829 L3.55452872,16.7255829 L14.4844942,16.7255829 C15.9939773,16.7255829 17.2183876,15.4982838 17.2183876,13.9831461 L17.2183876,13.9831461 L17.2183876,3.01902444 C17.2183876,1.50576188 15.9939773,0.277525228 14.4844942,0.277525228 L14.4844942,0.277525228 L3.55452872,0.277525228 Z" id="path-6"></path>
        <path d="M9.32701607,0.045004091 C9.14382185,0.0506296024 8.96810494,0.133137102 8.84005592,0.274712472 L8.84005592,0.274712472 C7.09129882,2.13863191 5.49863068,3.97723654 3.7994108,5.81209083 L3.7994108,5.81209083 L1.64874801,3.98379964 C1.50294036,3.86003839 1.31600748,3.8019081 1.1290746,3.82347256 L1.1290746,3.82347256 C0.942141718,3.84597461 0.771098132,3.94535864 0.653330417,4.10099779 L0.653330417,4.10099779 C0.409383008,4.42633986 0.458920222,4.90075799 0.764555481,5.1604691 L0.764555481,5.1604691 L3.41806772,7.41723674 C3.70033637,7.65819615 4.10878471,7.63288135 4.36301343,7.35910646 L4.36301343,7.35910646 C6.26412083,5.3320472 7.97455668,3.33405307 9.84668948,1.33887171 L9.84668948,1.33887171 C10.0579236,1.12135193 10.1214808,0.788509177 10.0065171,0.501608097 L10.0065171,0.501608097 C9.89435736,0.223145284 9.63732465,0.0440665058 9.35599067,0.0440665058 L9.35599067,0.0440665058 C9.34664402,0.0440665058 9.33636272,0.045004091 9.32701607,0.045004091 L9.32701607,0.045004091 Z" id="path-8"></path>
        <path d="M11.7767715,0.0204457838 C12.4990801,0.0204457838 13.0853016,0.606667297 13.0853016,1.32897595 L13.0853016,9.18015693 C13.0853016,9.90181131 12.4990801,10.4886871 11.7767715,10.4886871 L6.10691027,10.4886871 L2.61706033,13.1057474 L2.61706033,10.4886871 L1.30853016,10.4886871 C0.586221513,10.4886871 0,9.90181131 0,9.18015693 L0,1.32897595 C0,0.606667297 0.586221513,0.0204457838 1.30853016,0.0204457838 L11.7767715,0.0204457838 Z M11.7767715,1.32897595 L1.30853016,1.32897595 L1.30853016,9.18015693 L3.92559049,9.18015693 L3.92559049,10.4886871 L5.6698612,9.18015693 L11.7767715,9.18015693 L11.7767715,1.32897595 Z" id="path-10"></path>
    </defs>
    <g id="Mentions" stroke="none" stroke-width="1" fill="none" fill-rule="evenodd">
        <g id="Group-14" transform="translate(1.000000, 1.000000)">
            <g id="Group-3">
                <mask id="mask-2" fill="white">
                    <use xlink:href="#path-1"></use>
                </mask>
                <g id="Clip-2"></g>
                <path d="M149.915339,41.8260698 C134.523214,51.8871266 117.265626,58.3522162 98.6862209,58.5262763 C84.5691347,58.658256 71.0089691,55.8407776 56.7768323,57.5118821 C-6.01550209,64.8868024 -11.8767605,154.187288 16.0817963,197.658959 C37.0842176,230.314676 68.3703914,242.516735 106.814987,241.369086 C134.342421,240.54788 159.395634,240.486034 176.139919,265.498408 C186.047545,280.29798 194.312855,295.957651 209.966056,305.369011 C223.09573,313.262286 239.801455,318.544022 254.898367,320.356033 C277.065202,323.016666 353.030828,310.444808 390.306586,266.456695 C427.581712,222.469219 427.620273,157.081277 423.505634,126.261799 C421.062389,107.962535 408.983342,32.5530655 325.956012,7.62102731 C242.928049,-17.312286 171.506921,27.7112616 149.915339,41.8260698 Z" id="Fill-1" fill="url(#linearGradient-3)" mask="url(#mask-2)"></path>
                <text id="E6EFFF" mask="url(#mask-2)" font-family="ProximaNova-Regular, Proxima Nova" font-size="15.1041767" font-weight="normal" fill="#6B7C99">
                    <tspan x="214.260299" y="221.098511">E6EFFF</tspan>
                </text>
            </g>
            <path d="M35.2430791,287.77616 L402.224725,287.77616 C405.005327,287.77616 407.259451,285.522036 407.259451,282.741434 L407.259451,30.2870211 C407.259451,27.5064189 405.005327,25.2522955 402.224725,25.2522955 L35.2430791,25.2522955 C32.4624769,25.2522955 30.2083535,27.5064189 30.2083535,30.2870211 L30.2083535,282.741434 C30.2083535,285.522036 32.4624769,287.77616 35.2430791,287.77616 Z" id="Fill-101" stroke="#CED2D9" stroke-width="0.934664402" fill="#FFFFFF"></path>
            <path d="M30.978517,63.6820388 L406.38959,63.6820388 L406.38959,30.2870211 C406.38959,27.5064189 404.135467,25.2522955 401.354865,25.2522955 L36.0132425,25.2522955 C33.2326404,25.2522955 30.978517,27.5064189 30.978517,30.2870211 L30.978517,63.6820388 L30.978517,63.6820388 Z" id="Fill-104" fill="#FFFFFF"></path>
            <g id="Group-108" transform="translate(165.396977, 59.478547)">
                <mask id="mask-5" fill="white">
                    <use xlink:href="#path-4"></use>
                </mask>
                <g id="Clip-107"></g>
                <polygon id="Fill-106" fill="#00D5A0" mask="url(#mask-5)" points="0 7.04379214 80.6365995 7.04379214 80.6365995 -3.26964537 0 -3.26964537"></polygon>
            </g>
            <line x1="30.2086339" y1="63.0558257" x2="407.647617" y2="63.0558257" id="Stroke-109" stroke="#D9DEE5" stroke-width="0.683239678" stroke-linecap="square"></line>
            <g id="Group-10" transform="translate(78.038247, 35.353214)" fill="#090B0E" fill-rule="nonzero">
                <path d="M4.9592047,12.1760418 C6.44444874,12.1760418 7.45139386,11.4711802 8.15625544,10.5145823 L7.26259165,10.0236966 C6.78429272,10.741145 5.91580256,11.2446175 4.9592047,11.2446175 C3.12152986,11.2446175 1.72439351,9.82230756 1.72439351,7.83359095 C1.72439351,5.83228753 3.12152986,4.42256437 4.9592047,4.42256437 C5.91580256,4.42256437 6.78429272,4.93862374 7.26259165,5.64348533 L8.14366863,5.15259958 C7.47656749,4.20858853 6.44444874,3.49114014 4.9592047,3.49114014 C2.54253642,3.49114014 0.641927512,5.25329409 0.641927512,7.83359095 C0.641927512,10.4138878 2.54253642,12.1760418 4.9592047,12.1760418 Z M11.2400249,12.1760418 C12.0581678,12.1760418 12.7504425,11.886545 13.2539151,11.3327252 L13.2539151,12.025 L14.1979261,12.025 L14.1979261,7.84617777 C14.1979261,6.37352053 13.128047,5.79452709 11.8441919,5.79452709 C10.8498336,5.79452709 10.0694512,6.12178426 9.41493684,6.80147221 L9.85547533,7.45598653 C10.3967083,6.87699309 10.9882886,6.61267 11.7183238,6.61267 C12.5994008,6.61267 13.2539151,7.07838212 13.2539151,7.89652502 L13.2539151,8.99157784 C12.7630293,8.42517121 12.0707546,8.16084812 11.2400249,8.16084812 C10.2079061,8.16084812 9.1128533,8.80277563 9.1128533,10.1621515 C9.1128533,11.483767 10.2079061,12.1760418 11.2400249,12.1760418 Z M11.5798688,11.4963538 C10.6987919,11.4963538 10.082038,10.942534 10.082038,10.1747383 C10.082038,9.39435588 10.6987919,8.84053607 11.5798688,8.84053607 C12.24697,8.84053607 12.8888975,9.09227235 13.2539151,9.59574491 L13.2539151,10.741145 C12.8888975,11.2446175 12.24697,11.4963538 11.5798688,11.4963538 Z M17.0299593,12.025 L17.0299593,7.72030963 C17.3068692,7.22942388 18.0998385,6.75112495 18.6788319,6.75112495 C18.8298737,6.75112495 18.943155,6.76371177 19.0564363,6.7888854 L19.0564363,5.81970072 C18.2257066,5.81970072 17.520845,6.28541284 17.0299593,6.92734035 L17.0299593,5.94556886 L16.0859482,5.94556886 L16.0859482,12.025 L17.0299593,12.025 Z M22.593331,12.1760418 C23.4492344,12.1760418 24.1918564,11.7355033 24.6449817,11.1187494 L24.6449817,12.025 L25.5889928,12.025 L25.5889928,3.62959509 L24.6449817,3.62959509 L24.6449817,6.86440628 C24.154096,6.19730514 23.411474,5.79452709 22.593331,5.79452709 C20.9948057,5.79452709 19.887166,7.05320849 19.887166,8.99157784 C19.887166,10.9677076 21.0073925,12.1760418 22.593331,12.1760418 Z M22.8198937,11.3327252 C21.5989727,11.3327252 20.8689375,10.3383669 20.8689375,8.99157784 C20.8689375,7.64478874 21.5989727,6.63784363 22.8198937,6.63784363 C23.5751025,6.63784363 24.3051377,7.09096893 24.6449817,7.61961512 L24.6449817,10.3761274 C24.3051377,10.9047736 23.5751025,11.3327252 22.8198937,11.3327252 Z" id="Card"></path>
            </g>
            <g id="Group-11" transform="translate(117.057370, 35.353214)" fill="#090B0E" fill-rule="nonzero">
                <g id="Group-9">
                    <path d="M3.85156507,12.025 C6.45703556,12.025 8.15625544,10.2250856 8.15625544,7.83359095 C8.15625544,5.45468312 6.45703556,3.62959509 3.85156507,3.62959509 L0.981771488,3.62959509 L0.981771488,12.025 L3.85156507,12.025 Z M3.85156507,11.0935758 L2.02647705,11.0935758 L2.02647705,4.56101933 L3.85156507,4.56101933 C5.92838937,4.56101933 7.07378944,6.02108974 7.07378944,7.83359095 C7.07378944,9.63350535 5.89062893,11.0935758 3.85156507,11.0935758 Z M12.4987063,12.1760418 C13.4930646,12.1760418 14.3112075,11.8487846 14.9153745,11.2446175 L14.4622492,10.6278637 C13.9839503,11.1187494 13.2790887,11.3956593 12.586814,11.3956593 C11.2777853,11.3956593 10.4722292,10.4390614 10.3967083,9.29366137 L15.3181526,9.29366137 L15.3181526,9.05451191 C15.3181526,7.22942388 14.2356866,5.79452709 12.3980117,5.79452709 C10.6610314,5.79452709 9.40235002,7.21683707 9.40235002,8.97899102 C9.40235002,10.8795999 10.6987919,12.1760418 12.4987063,12.1760418 Z M14.3867283,8.6013866 L10.3967083,8.6013866 C10.4470556,7.66996237 11.0889831,6.57490956 12.3854249,6.57490956 C13.7699745,6.57490956 14.3741415,7.695136 14.3867283,8.6013866 Z M18.3767484,12.1760418 C18.9305682,12.1760418 19.2704122,12.0124132 19.5095616,11.7858505 L19.2326517,11.080989 C19.1067836,11.2194439 18.8550473,11.3327252 18.5907242,11.3327252 C18.1753593,11.3327252 17.9739703,11.0054681 17.9739703,10.5523428 L17.9739703,6.77629858 L19.2074781,6.77629858 L19.2074781,5.94556886 L17.9739703,5.94556886 L17.9739703,4.28410942 L17.0299593,4.28410942 L17.0299593,5.94556886 L16.0230142,5.94556886 L16.0230142,6.77629858 L17.0299593,6.77629858 L17.0299593,10.7537318 C17.0299593,11.6599824 17.4830846,12.1760418 18.3767484,12.1760418 Z M22.329008,12.1760418 C23.1471509,12.1760418 23.8394256,11.886545 24.3428982,11.3327252 L24.3428982,12.025 L25.2869092,12.025 L25.2869092,7.84617777 C25.2869092,6.37352053 24.21703,5.79452709 22.933175,5.79452709 C21.9388167,5.79452709 21.1584343,6.12178426 20.5039199,6.80147221 L20.9444584,7.45598653 C21.4856914,6.87699309 22.0772717,6.61267 22.8073069,6.61267 C23.6883839,6.61267 24.3428982,7.07838212 24.3428982,7.89652502 L24.3428982,8.99157784 C23.8520124,8.42517121 23.1597377,8.16084812 22.329008,8.16084812 C21.2968892,8.16084812 20.2018364,8.80277563 20.2018364,10.1621515 C20.2018364,11.483767 21.2968892,12.1760418 22.329008,12.1760418 Z M22.6688519,11.4963538 C21.787775,11.4963538 21.1710211,10.942534 21.1710211,10.1747383 C21.1710211,9.39435588 21.787775,8.84053607 22.6688519,8.84053607 C23.3359531,8.84053607 23.9778806,9.09227235 24.3428982,9.59574491 L24.3428982,10.741145 C23.9778806,11.2446175 23.3359531,11.4963538 22.6688519,11.4963538 Z M27.6406434,5.0770787 C27.9930742,5.0770787 28.282571,4.80016879 28.282571,4.447738 C28.282571,4.09530721 27.9930742,3.80581049 27.6406434,3.80581049 C27.3007995,3.80581049 27.0113027,4.09530721 27.0113027,4.447738 C27.0113027,4.80016879 27.3007995,5.0770787 27.6406434,5.0770787 Z M28.1189424,12.025 L28.1189424,5.94556886 L27.1749313,5.94556886 L27.1749313,12.025 L28.1189424,12.025 Z M30.9509755,12.025 L30.9509755,3.62959509 L30.0069645,3.62959509 L30.0069645,12.025 L30.9509755,12.025 Z M34.7647801,12.1760418 C36.3381319,12.1760418 37.1562748,11.3578989 37.1562748,10.3383669 C37.1562748,7.97204591 33.3928174,8.85312288 33.3928174,7.5189206 C33.3928174,6.9776876 33.9088768,6.56232274 34.7396065,6.56232274 C35.519989,6.56232274 36.1870901,6.88957991 36.5521077,7.3301184 L36.9926462,6.67560407 C36.5017605,6.18471833 35.7717253,5.79452709 34.7396065,5.79452709 C33.2921229,5.79452709 32.47398,6.60008319 32.47398,7.54409423 C32.47398,9.79713393 36.2374374,8.89088333 36.2374374,10.3635406 C36.2374374,10.9677076 35.7339648,11.4082461 34.8025406,11.4082461 C33.9718109,11.4082461 33.2040152,11.0054681 32.8012372,10.539756 L32.3103514,11.2194439 C32.9271053,11.8739582 33.7704218,12.1760418 34.7647801,12.1760418 Z" id="Details"></path>
                </g>
            </g>
            <g id="Group-8" transform="translate(167.477442, 35.478432)" fill="#00D5A0" fill-rule="nonzero">
                <path d="M4.92144426,12.1760418 C6.62066414,12.1760418 7.65278288,11.2949648 8.2947104,10.2880197 L7.036029,9.64609216 C6.63325095,10.3509537 5.82769486,10.8670131 4.92144426,10.8670131 C3.25998481,10.8670131 2.02647705,9.59574491 2.02647705,7.83359095 C2.02647705,6.071437 3.25998481,4.80016879 4.92144426,4.80016879 C5.82769486,4.80016879 6.63325095,5.32881498 7.036029,6.02108974 L8.2947104,5.37916223 C7.6653697,4.37221712 6.62066414,3.49114014 4.92144426,3.49114014 C2.44184191,3.49114014 0.516059372,5.25329409 0.516059372,7.83359095 C0.516059372,10.4138878 2.44184191,12.1760418 4.92144426,12.1760418 Z M12.1840359,12.1760418 C14.1349921,12.1760418 15.3181526,10.7285582 15.3181526,8.97899102 C15.3181526,7.2420107 14.1349921,5.79452709 12.1840359,5.79452709 C10.2582534,5.79452709 9.06250605,7.2420107 9.06250605,8.97899102 C9.06250605,10.7285582 10.2582534,12.1760418 12.1840359,12.1760418 Z M12.1840359,11.0054681 C11.0638095,11.0054681 10.4344688,10.061457 10.4344688,8.97899102 C10.4344688,7.90911184 11.0638095,6.96510079 12.1840359,6.96510079 C13.3168492,6.96510079 13.9461899,7.90911184 13.9461899,8.97899102 C13.9461899,10.061457 13.3168492,11.0054681 12.1840359,11.0054681 Z M17.9739703,12.025 L17.9739703,7.7832437 C18.2508802,7.38046565 18.7921132,6.96510079 19.3711067,6.96510079 C20.0885551,6.96510079 20.3780518,7.40563928 20.3780518,8.0601536 L20.3780518,12.025 L21.6996673,12.025 L21.6996673,7.77065688 C21.9639903,7.38046565 22.5178102,6.96510079 23.1093904,6.96510079 C23.814252,6.96510079 24.1037487,7.40563928 24.1037487,8.0601536 L24.1037487,12.025 L25.4253642,12.025 L25.4253642,7.63220193 C25.4253642,6.39869416 24.7960235,5.79452709 23.675797,5.79452709 C22.7695464,5.79452709 21.9639903,6.36093372 21.6115596,6.91475353 C21.4101705,6.2476524 20.8563507,5.79452709 19.9501001,5.79452709 C19.0312627,5.79452709 18.2257066,6.39869416 17.9739703,6.77629858 L17.9739703,5.94556886 L16.6523549,5.94556886 L16.6523549,12.025 L17.9739703,12.025 Z M28.4587863,12.025 L28.4587863,7.7832437 C28.7356963,7.38046565 29.2769293,6.96510079 29.8559227,6.96510079 C30.5733711,6.96510079 30.8628678,7.40563928 30.8628678,8.0601536 L30.8628678,12.025 L32.1844833,12.025 L32.1844833,7.77065688 C32.4488064,7.38046565 33.0026262,6.96510079 33.5942064,6.96510079 C34.299068,6.96510079 34.5885647,7.40563928 34.5885647,8.0601536 L34.5885647,12.025 L35.9101802,12.025 L35.9101802,7.63220193 C35.9101802,6.39869416 35.2808395,5.79452709 34.1606131,5.79452709 C33.2543625,5.79452709 32.4488064,6.36093372 32.0963756,6.91475353 C31.8949866,6.2476524 31.3411667,5.79452709 30.4349161,5.79452709 C29.5160787,5.79452709 28.7105226,6.39869416 28.4587863,6.77629858 L28.4587863,5.94556886 L27.1371709,5.94556886 L27.1371709,12.025 L28.4587863,12.025 Z M40.4288464,12.1760418 C41.3980311,12.1760418 42.2916949,11.8739582 42.895862,11.2949648 L42.2916949,10.4264746 C41.8637432,10.8544263 41.1588816,11.0935758 40.5673014,11.0935758 C39.4219013,11.0935758 38.7296265,10.3383669 38.628932,9.41952951 L43.3238136,9.41952951 L43.3238136,9.10485916 C43.3238136,7.19166344 42.1532399,5.79452709 40.3281519,5.79452709 C38.5282375,5.79452709 37.2443825,7.21683707 37.2443825,8.97899102 C37.2443825,10.9047736 38.6037584,12.1760418 40.4288464,12.1760418 Z M42.0399586,8.48810528 L38.6163452,8.48810528 C38.6792793,7.74548326 39.1953387,6.87699309 40.3281519,6.87699309 C41.5238992,6.87699309 42.014785,7.77065688 42.0399586,8.48810528 Z M45.9544577,12.025 L45.9544577,7.7832437 C46.2565413,7.36787884 46.8355347,6.96510079 47.5152227,6.96510079 C48.2578447,6.96510079 48.7361436,7.27977114 48.7361436,8.22378219 L48.7361436,12.025 L50.0577591,12.025 L50.0577591,7.74548326 C50.0577591,6.49938867 49.4032448,5.79452709 48.0942161,5.79452709 C47.1376183,5.79452709 46.3572358,6.29799965 45.9544577,6.77629858 L45.9544577,5.94556886 L44.6328423,5.94556886 L44.6328423,12.025 L45.9544577,12.025 Z M53.5946538,12.1760418 C54.2114077,12.1760418 54.6015989,12.0124132 54.8407484,11.7858505 L54.526078,10.7914922 C54.4253835,10.9047736 54.1862341,11.0054681 53.9344978,11.0054681 C53.5568934,11.0054681 53.3555043,10.7033845 53.3555043,10.2880197 L53.3555043,7.10355574 L54.5890121,7.10355574 L54.5890121,5.94556886 L53.3555043,5.94556886 L53.3555043,4.28410942 L52.0338889,4.28410942 L52.0338889,5.94556886 L51.0269438,5.94556886 L51.0269438,7.10355574 L52.0338889,7.10355574 L52.0338889,10.6152768 C52.0338889,11.622222 52.5751219,12.1760418 53.5946538,12.1760418 Z M57.8615837,12.1760418 C59.4978696,12.1760418 60.3915333,11.3578989 60.3915333,10.2880197 C60.3915333,7.8713514 56.7161837,8.67690749 56.7161837,7.59444149 C56.7161837,7.16648981 57.1567222,6.85181947 57.8489969,6.85181947 C58.6042058,6.85181947 59.2838937,7.16648981 59.6489113,7.58185467 L60.2027311,6.65043044 C59.6489113,6.1595447 58.8685289,5.79452709 57.8364101,5.79452709 C56.3008188,5.79452709 55.4449155,6.65043044 55.4449155,7.64478874 C55.4449155,9.97334933 59.1202651,9.11744598 59.1202651,10.3131933 C59.1202651,10.7914922 58.7174871,11.1313362 57.9245178,11.1313362 C57.1315485,11.1313362 56.288232,10.7159713 55.8602803,10.2754329 L55.2561133,11.2320307 C55.885454,11.8487846 56.829465,12.1760418 57.8615837,12.1760418 Z" id="Comments"></path>
            </g>
            <g id="Group-113" transform="translate(43.049708, 35.938892)">
                <mask id="mask-7" fill="white">
                    <use xlink:href="#path-6"></use>
                </mask>
                <g id="Clip-112"></g>
                <polygon id="Fill-111" fill="#4ABB8F" mask="url(#mask-7)" points="-2.73482804 20.2921571 20.7747857 20.2921571 20.7747857 -3.29092415 -2.73482804 -3.29092415"></polygon>
            </g>
            <path d="M46.6045168,36.2165109 L57.5344824,36.2165109 C59.0439654,36.2165109 60.2674411,37.4447476 60.2674411,38.9580101 L60.2674411,49.9221318 C60.2674411,51.4363319 59.0439654,52.663631 57.5344824,52.663631 L46.6045168,52.663631 C45.0950338,52.663631 43.8715581,51.4363319 43.8715581,49.9221318 L43.8715581,38.9580101 C43.8715581,37.4447476 45.0950338,36.2165109 46.6045168,36.2165109 Z" id="Stroke-114" fill="#00D5A0"></path>
            <g id="Group-118" transform="translate(46.788365, 40.626818)">
                <mask id="mask-9" fill="white">
                    <use xlink:href="#path-8"></use>
                </mask>
                <g id="Clip-117"></g>
                <polygon id="Fill-116" fill="#FFFFFF" mask="url(#mask-9)" points="-3.05822192 11.1497635 13.6199297 11.1497635 13.6199297 -3.52438287 -3.05822192 -3.52438287"></polygon>
            </g>
            <polygon id="Fill-119" fill="#767576" points="393.697564 43.7101609 391.027228 41.0314799 390.509423 41.5509021 393.17976 44.2286455 390.509423 46.9082641 391.027228 47.4267487 393.697564 44.7490053 396.366965 47.4267487 396.885704 46.9082641 394.214433 44.2286455 396.885704 41.5509021 396.366965 41.0314799"></polygon>
            <polygon id="Fill-120" fill="#737880" points="393.697564 43.7101609 391.027228 41.0314799 390.509423 41.5509021 393.17976 44.2286455 390.509423 46.9082641 391.027228 47.4267487 393.697564 44.7490053 396.366965 47.4267487 396.885704 46.9082641 394.214433 44.2286455 396.885704 41.5509021 396.366965 41.0314799"></polygon>
            <g id="Group-12" transform="translate(30.585958, 230.499730)" fill="#F5F7FA">
                <path d="M5.03472558,56.918674 L371.20302,56.918674 C373.983622,56.918674 376.237745,54.6645506 376.237745,51.8839484 L376.237745,0.288526167 L376.237745,0.288526167 L0,0.288526167 L0,51.8839484 C3.40525553e-16,54.6645506 2.25412342,56.918674 5.03472558,56.918674 Z" id="Fill-129"></path>
            </g>
            <rect id="Rectangle" stroke="#F0F1F4" stroke-width="0.934664402" fill="#FFFFFF" x="70.1549754" y="240.813167" width="300.027273" height="36.5658239" rx="3.73865761"></rect>
            <rect id="Rectangle" fill="#F5F7FA" x="64.1108123" y="76.4482262" width="297.048809" height="32.815483" rx="3.73865761"></rect>
            <rect id="Rectangle" fill="#CED2D9" x="75.2021632" y="84.8864932" width="254.253642" height="5.62551137" rx="2.80399321"></rect>
            <rect id="Rectangle" fill="#CED2D9" x="75.2021632" y="96.137516" width="140.972316" height="5.62551137" rx="2.80399321"></rect>
            <rect id="Rectangle" fill="#F5F7FA" x="64.1108123" y="179.332579" width="297.048809" height="32.815483" rx="3.73865761"></rect>
            <rect id="Rectangle" fill="#CED2D9" x="75.2021632" y="187.770846" width="254.253642" height="5.62551137" rx="2.80399321"></rect>
            <rect id="Rectangle" fill="#CED2D9" x="75.2021632" y="199.021868" width="140.972316" height="5.62551137" rx="2.80399321"></rect>
            <rect id="Rectangle" fill="#F5F7FA" x="64.1108123" y="128.052917" width="297.048809" height="32.815483" rx="3.73865761"></rect>
            <g id="Group-2" transform="translate(347.396065, 141.412855)">
                <ellipse id="Oval" fill="#FFD8CB" cx="12.1912748" cy="12.1796597" rx="12.1912748" ry="12.1796597"></ellipse>
                <g id="Fill-2538-+-Fill-2539" transform="translate(4.774916, 6.089830)" fill="#FE8A66">
                    <path d="M7.41635885,8.52576176 C9.76957967,8.52576176 11.683305,6.61385968 11.683305,4.26288088 C11.683305,1.91190207 9.76957967,0 7.41635885,0 C5.06313802,0 3.14941266,1.91190207 3.14941266,4.26288088 C3.14941266,6.61385968 5.06313802,8.52576176 7.41635885,8.52576176" id="Fill-2538"></path>
                    <path d="M0.101593957,14.2850008 C0.101593957,14.2850008 0.0191960528,15.722498 0.101593957,15.8137203 C0.725628939,16.5045861 3.62693311,18.373181 7.30960347,18.2694895 C12.4683265,18.1242374 14.7311237,15.8137203 14.7311237,15.8137203 L14.7311237,14.2850008 C14.7311237,10.9654868 11.704616,9.15882812 7.3980482,9.15882812 C3.09148037,9.15882812 0.101593957,10.9654868 0.101593957,14.2850008 Z" id="Fill-2539"></path>
                </g>
            </g>
            <rect id="Rectangle" fill="#CED2D9" x="75.2021632" y="136.491184" width="254.253642" height="5.62551137" rx="2.80399321"></rect>
            <rect id="Rectangle" fill="#CED2D9" x="75.2021632" y="147.742207" width="140.972316" height="5.62551137" rx="2.80399321"></rect>
            <g id="chat" transform="translate(81.370948, 252.532983)">
                <mask id="mask-11" fill="white">
                    <use xlink:href="#path-10"></use>
                </mask>
                <use id="🎨-Icon-Сolor" fill="#090B0E" xlink:href="#path-10"></use>
            </g>
            <path d="M108.91314,256.545755 C107.427896,256.545755 105.955239,257.955478 105.955239,259.705045 C105.955239,260.925966 106.710448,261.756696 107.881022,261.756696 C108.686578,261.756696 109.4292,261.278397 109.869738,260.661643 L109.882325,260.737164 C109.920085,261.26581 110.322864,261.756696 111.027725,261.756696 C112.085017,261.756696 113.205244,260.762338 113.205244,258.786208 C113.205244,256.583516 111.619305,254.796188 109.240398,254.796188 C106.62234,254.796188 104.243432,257.036641 104.243432,259.755393 C104.243432,261.983259 105.942652,263.707652 108.233452,263.707652 C109.164877,263.707652 110.071127,263.418156 110.85151,262.914683 L110.624947,262.587426 C109.945259,263.015378 109.177463,263.292287 108.2838,263.292287 C106.194389,263.292287 104.671384,261.756696 104.671384,259.730219 C104.671384,257.376485 106.760795,255.22414 109.19005,255.22414 C111.329809,255.22414 112.752119,256.721971 112.752119,258.786208 C112.752119,260.523188 111.883628,261.077008 111.392743,261.077008 C111.065486,261.077008 110.801162,260.850446 110.801162,260.422494 C110.801162,260.346973 110.813749,260.233692 110.826336,260.158171 L111.543784,256.747144 L110.687881,256.747144 L110.523894,257.526575 L110.468208,257.413213 C110.204637,256.925607 109.672844,256.545755 108.91314,256.545755 Z M108.132758,261.051835 C107.327202,261.051835 106.848903,260.460254 106.848903,259.654698 C106.848903,258.446364 107.818088,257.250617 109.076769,257.250617 C109.819391,257.250617 110.234756,257.79185 110.373211,258.182041 L110.008193,259.919021 C109.643176,260.447667 109.001248,261.051835 108.132758,261.051835 Z M114.954811,265.293591 C115.760367,265.281004 116.377121,264.94116 116.742139,264.060083 L119.788148,256.747144 L118.756029,256.747144 L116.742139,261.731522 L114.715662,256.747144 L113.69613,256.747144 L116.238666,262.889509 L115.835888,263.808347 C115.621912,264.311819 115.345002,264.450274 114.929637,264.450274 C114.778596,264.450274 114.552033,264.412514 114.413578,264.34958 L114.262536,265.205483 C114.438752,265.25583 114.753422,265.293591 114.954811,265.293591 Z M123.425737,262.977617 C125.275998,262.977617 126.433985,261.54272 126.433985,259.780566 C126.433985,258.018412 125.275998,256.596102 123.425737,256.596102 C121.575475,256.596102 120.417488,258.018412 120.417488,259.780566 C120.417488,261.54272 121.575475,262.977617 123.425737,262.977617 Z M123.425737,262.134301 C122.129295,262.134301 121.39926,261.026661 121.39926,259.780566 C121.39926,258.547059 122.129295,257.439419 123.425737,257.439419 C124.722179,257.439419 125.439627,258.547059 125.439627,259.780566 C125.439627,261.026661 124.722179,262.134301 123.425737,262.134301 Z M129.907946,262.977617 C130.814197,262.977617 131.607166,262.499318 132.072878,261.970672 L132.072878,262.826575 L133.016889,262.826575 L133.016889,256.747144 L132.072878,256.747144 L132.072878,261.215463 C131.720447,261.706349 131.015586,262.134301 130.272964,262.134301 C129.454821,262.134301 128.913588,261.81963 128.913588,260.749751 L128.913588,256.747144 L127.969577,256.747144 L127.969577,261.039248 C127.969577,262.360863 128.636678,262.977617 129.907946,262.977617 Z M135.395797,262.952443 C135.773401,262.952443 136.088072,262.625186 136.088072,262.260169 C136.088072,261.882564 135.773401,261.567894 135.395797,261.567894 C135.018192,261.567894 134.716109,261.882564 134.716109,262.260169 C134.716109,262.625186 135.018192,262.952443 135.395797,262.952443 Z M138.290764,262.952443 C138.668369,262.952443 138.995626,262.625186 138.995626,262.260169 C138.995626,261.882564 138.668369,261.567894 138.290764,261.567894 C137.91316,261.567894 137.611076,261.882564 137.611076,262.260169 C137.611076,262.625186 137.91316,262.952443 138.290764,262.952443 Z M141.198318,262.952443 C141.575923,262.952443 141.890593,262.625186 141.890593,262.260169 C141.890593,261.882564 141.575923,261.567894 141.198318,261.567894 C140.820714,261.567894 140.506043,261.882564 140.506043,262.260169 C140.506043,262.625186 140.820714,262.952443 141.198318,262.952443 Z" id="@you…" fill="#090B0E" fill-rule="nonzero"></path>
            <g id="Group-13" transform="translate(347.396065, 193.180061)">
                <ellipse id="Oval" fill="#C1D8FF" cx="12.586814" cy="12.5748219" rx="12.586814" ry="12.5748219"></ellipse>
                <g id="Fill-2538-+-Fill-2539" transform="translate(4.929835, 6.287411)" fill="#2158B7">
                    <path d="M7.65697849,8.80237536 C10.0865483,8.80237536 12.0623634,6.82844269 12.0623634,4.40118768 C12.0623634,1.97393267 10.0865483,0 7.65697849,0 C5.22740872,0 3.2515936,1.97393267 3.2515936,4.40118768 C3.2515936,6.82844269 5.22740872,8.80237536 7.65697849,8.80237536" id="Fill-2538"></path>
                    <path d="M0.104890116,14.7484697 C0.104890116,14.7484697 0.019818858,16.2326057 0.104890116,16.3267877 C0.749171567,17.0400683 3.74460694,18.9692886 7.54675949,18.8622329 C12.8728544,18.7122682 15.2090669,16.3267877 15.2090669,16.3267877 L15.2090669,14.7484697 C15.2090669,11.3212559 12.0843658,9.45598121 7.63807376,9.45598121 C3.19178174,9.45598121 0.104890116,11.3212559 0.104890116,14.7484697 Z" id="Fill-2539"></path>
                </g>
            </g>
            <g id="Group-2" transform="translate(347.396065, 89.645649)">
                <ellipse id="Oval" fill="#C1D8FF" cx="12.586814" cy="12.5748219" rx="12.586814" ry="12.5748219"></ellipse>
                <g id="Fill-2538-+-Fill-2539" transform="translate(4.929835, 6.287411)" fill="#2158B7">
                    <path d="M7.65697849,8.80237536 C10.0865483,8.80237536 12.0623634,6.82844269 12.0623634,4.40118768 C12.0623634,1.97393267 10.0865483,-8.77638675e-15 7.65697849,-8.77638675e-15 C5.22740873,-8.77638675e-15 3.2515936,1.97393267 3.2515936,4.40118768 C3.2515936,6.82844269 5.22740873,8.80237536 7.65697849,8.80237536" id="Fill-2538"></path>
                    <path d="M0.104890116,14.7484697 C0.104890116,14.7484697 0.019818858,16.2326057 0.104890116,16.3267877 C0.749171567,17.0400683 3.74460694,18.9692886 7.54675949,18.8622329 C12.8728544,18.7122682 15.2090669,16.3267877 15.2090669,16.3267877 L15.2090669,14.7484697 C15.2090669,11.3212559 12.0843658,9.45598121 7.63807376,9.45598121 C3.19178174,9.45598121 0.104890116,11.3212559 0.104890116,14.7484697 Z" id="Fill-2539"></path>
                </g>
            </g>
            <path d="M30.4600898,27.6073362 L407.003762,27.6073362 C406.156196,25.9306426 404.437298,24.8735111 402.558557,24.8735111 L34.8793525,24.8735111 C33.0071721,24.8735111 31.2959447,25.9321031 30.4600898,27.6073362 L30.4600898,27.6073362 L30.4600898,27.6073362 Z" id="Fill-105" fill="#00D5A0"></path>
        </g>
        <g id="Group-2" transform="translate(348.000000, 143.000000)">
            <ellipse id="Oval" fill="#FFDACC" cx="12.716161" cy="12.6644693" rx="12.716161" ry="12.6644693"></ellipse>
            <g id="Fill-2538-+-Fill-2539" transform="translate(4.980496, 6.332235)" fill="#FF8A60">
                <path d="M7.73566459,8.86512848 C10.1902016,8.86512848 12.1863209,6.87712342 12.1863209,4.43256424 C12.1863209,1.98800506 10.1902016,-1.1319921e-13 7.73566459,-1.1319921e-13 C5.28112762,-1.1319921e-13 3.28500825,1.98800506 3.28500825,4.43256424 C3.28500825,6.87712342 5.28112762,8.86512848 7.73566459,8.86512848" id="Fill-2538"></path>
                <path d="M0.105968008,14.8536132 C0.105968008,14.8536132 0.0200225244,16.3483298 0.105968008,16.4431832 C0.756870347,17.1615488 3.78308799,19.1045228 7.62431294,18.9967039 C13.0051409,18.84567 15.3653612,16.4431832 15.3653612,16.4431832 L15.3653612,14.8536132 C15.3653612,11.4019664 12.2085495,9.52339397 7.7165656,9.52339397 C3.22458173,9.52339397 0.105968008,11.4019664 0.105968008,14.8536132 Z" id="Fill-2539"></path>
            </g>
        </g>
        <g id="Group-2" transform="translate(348.000000, 90.000000)">
            <ellipse id="Oval" fill="#C1D1FF" cx="12.7787234" cy="12.7267774" rx="12.7787234" ry="12.7267774"></ellipse>
            <g id="Fill-2538-+-Fill-2539" transform="translate(5.005000, 7.213555)" fill="#235CFF">
                <path d="M7.7737234,8.90874416 C10.2403365,8.90874416 12.2462766,6.91095828 12.2462766,4.45437208 C12.2462766,1.99778588 10.2403365,-8.8824415e-15 7.7737234,-8.8824415e-15 C5.30711032,-8.8824415e-15 3.30117021,1.99778588 3.30117021,4.45437208 C3.30117021,6.91095828 5.30711032,8.90874416 7.7737234,8.90874416" id="Fill-2538"></path>
                <path d="M0.106489362,14.9266917 C0.106489362,14.9266917 0.0201210335,16.4287622 0.106489362,16.5240823 C0.760594084,17.2459822 3.80170046,19.1985154 7.66182392,19.0901661 C13.0691251,18.9383891 15.4409574,16.5240823 15.4409574,16.5240823 L15.4409574,14.9266917 C15.4409574,11.4580631 12.2686145,9.57024825 7.75453044,9.57024825 C3.2404464,9.57024825 0.106489362,11.4580631 0.106489362,14.9266917 Z" id="Fill-2539"></path>
            </g>
        </g>
        <g id="Group-2" transform="translate(348.000000, 193.000000)">
            <ellipse id="Oval" fill="#C1D1FF" cx="12.7787234" cy="12.7267774" rx="12.7787234" ry="12.7267774"></ellipse>
            <g id="Fill-2538-+-Fill-2539" transform="translate(5.005000, 7.213555)" fill="#235CFF">
                <path d="M7.7737234,8.90874416 C10.2403365,8.90874416 12.2462766,6.91095828 12.2462766,4.45437208 C12.2462766,1.99778588 10.2403365,-8.8824415e-15 7.7737234,-8.8824415e-15 C5.30711032,-8.8824415e-15 3.30117021,1.99778588 3.30117021,4.45437208 C3.30117021,6.91095828 5.30711032,8.90874416 7.7737234,8.90874416" id="Fill-2538"></path>
                <path d="M0.106489362,14.9266917 C0.106489362,14.9266917 0.0201210335,16.4287622 0.106489362,16.5240823 C0.760594084,17.2459822 3.80170046,19.1985154 7.66182392,19.0901661 C13.0691251,18.9383891 15.4409574,16.5240823 15.4409574,16.5240823 L15.4409574,14.9266917 C15.4409574,11.4580631 12.2686145,9.57024825 7.75453044,9.57024825 C3.2404464,9.57024825 0.106489362,11.4580631 0.106489362,14.9266917 Z" id="Fill-2539"></path>
            </g>
        </g>
    </g>
</svg>