<svg width="150" height="106" viewBox="0 0 150 106" fill="none" xmlns="http://www.w3.org/2000/svg">
<path opacity="0.3" d="M8.40994 86.5263L8.12186 86.0913L8.25509 85.4608L8.14668 84.8844L7.92874 84.3251L7.66649 83.7852L7.73367 83.1732L7.45049 82.6114L7.45162 82.0181L7.49624 81.4265L7.3226 80.8476L7.25768 80.273L7.32405 79.6822L7.25994 79.0864L7.042 78.527L7.08743 77.9143L7.10949 77.343L7.04539 76.7472L6.87175 76.1683L6.91637 75.5767L6.78622 74.9995L6.72212 74.4037L6.83197 73.8147L6.83228 73.2425L6.70295 72.6442L6.8128 72.0551L6.61742 71.4754L6.74901 70.8872L6.66317 70.2905L6.79476 69.7023L6.7081 69.1268L6.79621 68.5369L6.88431 67.9469L6.99335 67.379L6.97274 66.7849L6.88689 66.1882L7.06197 65.6017L7.23624 65.0362L7.23737 64.443L7.34641 63.875L7.45626 63.2859L7.306 62.6656L7.41503 62.0977L7.78418 61.561L7.80705 60.9685L7.74377 60.3516L7.80931 59.782L8.15672 59.2444L8.00727 58.6029L8.39735 58.0882L8.33406 57.4713L8.57275 56.9295L8.57469 56.3151L8.79163 55.7725L9.11647 55.2553L9.16191 54.6425L9.42234 54.1016L9.33731 53.4838L9.51157 52.9184L9.68584 52.353L10.0968 51.8603L10.2276 51.2932L10.2513 50.6796L10.5544 50.1615L10.6643 49.5725L11.0318 49.0781L11.3349 48.56L11.4665 47.9718L11.7261 47.452L11.943 46.9095L11.9675 46.2747L12.335 45.7803L12.4231 45.1904L12.7689 44.6952L13.2 44.2456L13.4387 43.7039L13.6774 43.1621L13.8525 42.5756L14.0903 42.055L14.2437 41.4676L14.6957 41.04L14.9135 40.4763L15.3019 40.0039L15.4553 39.4165L15.9065 39.0101L16.2305 38.5141L16.4909 37.9732L16.7932 37.4763L16.9474 36.8677L17.2497 36.3708L17.7226 35.9653L18.0466 35.4692L18.328 34.9503L18.5884 34.4094L18.9978 33.959L19.3218 33.463L19.6885 32.9897L19.9916 32.4717L20.442 32.0865L20.8305 31.6141L21.1327 31.1172L21.6476 30.7556L22.0561 30.3264L22.3375 29.8075L22.6196 29.2674L23.0282 28.8382L23.5849 28.5207L23.9298 28.0466L24.402 27.6622L24.7268 27.145L25.009 26.6049L25.6276 26.3746L25.9098 25.8345L26.3192 25.3841L26.7277 24.9549L27.2417 24.6145L27.7549 24.2953L28.1425 23.844L28.5511 23.4148L28.8759 22.8976L29.4937 22.6884L29.8403 22.172L30.207 21.6988L30.8248 21.4895L31.3171 21.1483L31.7257 20.7191L32.2179 20.3778L32.6901 19.9934L33.1195 19.5862L33.5699 19.201L33.9994 18.7938L34.5344 18.4754L35.0266 18.1341L35.4971 17.7921L35.9902 17.4297L36.5436 17.1968L37.0359 16.8555L37.57 16.5583L38.0405 16.2162L38.4306 15.7015L39.0661 15.5989L39.5793 15.2797L40.0715 14.9385L40.5437 14.5541L41.0971 14.3212L41.5692 13.9368L42.1218 13.725L42.6157 13.3415L43.1892 13.1517L43.7418 12.9399L44.2156 12.5132L44.8494 12.453L45.4037 12.1989L45.937 11.9228L46.4091 11.5384L47.0036 11.3707L47.5956 11.2664L48.1288 10.9903L48.663 10.6931L49.156 10.3307L49.7907 10.2492L50.3039 9.92999L50.8573 9.69707L51.5088 9.74342L52.0823 9.55366L52.5762 9.17011L53.1908 9.0455L53.7627 8.89806L54.337 8.68714L54.9298 8.5617L55.5017 8.41426L56.0961 8.24649L56.6688 8.07789L57.2415 7.90929L57.8343 7.78385L58.3508 7.37998L58.942 7.29685L59.5524 7.27804L60.1444 7.17376L60.7582 7.07031L61.3124 6.81624L61.8859 6.62648L62.5165 6.65082L63.0715 6.37559L63.6635 6.2713L64.2917 6.35913L64.9038 6.298L65.5134 6.30035L66.0717 5.94048L66.6621 5.87851L67.2902 5.96633L67.8814 5.88321L68.4718 5.82124L69.0831 5.78127L69.6742 5.69814L70.2871 5.61586L70.8816 5.4481L71.4904 5.4716L72.0808 5.40964L72.704 5.62441L73.3009 5.39318L73.8905 5.35237L74.496 5.46051L75.1065 5.4417L75.7137 5.50753L76.3209 5.57335L76.9113 5.51138L77.5258 5.38678L78.1322 5.47376L78.7435 5.43379L79.3232 5.64689L79.9345 5.60692L80.5466 5.54579L81.1264 5.75889L81.7344 5.80356L82.3481 5.70011L82.927 5.93437L83.5351 5.97904L84.1455 5.96023L84.7552 5.96258L85.3366 6.13336L85.9147 6.38877L86.5518 6.24385L87.1081 6.49842L87.7137 6.60657L88.3484 6.52512L88.9297 6.6959L89.4869 6.92932L90.0667 7.14242L90.6755 7.16592L91.2851 7.16827L91.8649 7.38137L92.4713 7.46835L93.0276 7.72293L93.5606 8.01898L94.217 7.93838L94.7742 8.17179L95.3072 8.46785L95.9628 8.4084L96.4966 8.6833L97.1255 8.74996L97.6335 9.12981L98.2165 9.25827L98.7245 9.63812L99.3059 9.8089L99.9356 9.85441L100.494 10.0667L101.075 10.2374L101.632 10.4709L102.165 10.7669L102.77 10.8962L103.209 11.3582L103.814 11.4875L104.3 11.8877L104.905 11.9958L105.486 12.1666L105.925 12.6497L106.483 12.862L107.134 12.9295L107.62 13.3085L108.131 13.6037L108.735 13.7542L109.2 14.1323L109.663 14.5528L110.266 14.7244L110.683 15.1856L111.24 15.4401L111.774 15.715L112.332 15.9273L112.772 16.3681L113.237 16.7251L113.908 16.8358L114.304 17.2961L114.884 17.5092L115.325 17.9288L115.835 18.2452L116.277 18.6437L116.855 18.8991L117.32 19.2773L117.693 19.7579L118.089 20.2182L118.691 20.4321L119.064 20.9127L119.598 21.1876L119.971 21.6682L120.572 21.9033L120.9 22.4245L121.319 22.8645L121.942 23.0793L122.203 23.6615L122.69 24.0194L123.064 24.4788L123.551 24.8367L124.151 25.0929L124.525 25.5524L124.808 26.1142L125.408 26.3705L125.647 26.9519L126.179 27.2691L126.53 27.77L127.04 28.1075L127.39 28.6085L127.72 29.0874L128.229 29.4461L128.469 30.0063L128.932 30.4056L129.217 30.9252L129.614 31.3643L129.988 31.8449L130.294 32.3653L130.825 32.7037L130.976 33.324L131.53 33.6421L131.903 34.1227L132.076 34.7227L132.517 35.1423L132.691 35.7212L133.131 36.162L133.416 36.6816L133.812 37.1207L134.186 37.6013L134.27 38.2403L134.733 38.6607L134.952 39.1989L135.369 39.6601L135.699 40.139L135.85 40.7382L136.113 41.2781L136.309 41.8366L136.816 42.2376L137.057 42.7766L137.386 43.2767L137.471 43.8945L137.777 44.4149L138.173 44.8752L138.303 45.4524L138.5 46.0109L138.696 46.5694L139.047 47.0704L139.243 47.6289L139.284 48.245L139.591 48.7654L139.964 49.246L140.182 49.8054L140.136 50.4393L140.377 50.9784L140.551 51.5361L140.967 52.0395L140.922 52.6523L141.14 53.2116L141.38 53.7507L141.51 54.3279L141.794 54.8686L141.727 55.4805L142.121 56.0043L142.251 56.5814L142.23 57.1316L141.66 57.2155L141.103 57.5331L140.511 57.6374L139.938 57.8271L139.327 57.8671L138.756 57.9722L138.162 58.14L137.551 58.18L137.017 58.456L136.367 58.3674L135.813 58.6214L135.222 58.7046L134.63 58.8089L134.055 59.0409L133.484 59.1672L132.833 59.0997L132.3 59.3758L131.707 59.5012L131.152 59.7765L130.505 59.6243L129.988 60.0282L129.357 60.025L128.765 60.1293L128.193 60.2767L127.6 60.4022L126.99 60.3998L126.455 60.7182L125.825 60.6939L125.232 60.8193L124.64 60.9236L124.124 61.3275L123.512 61.3674L122.92 61.4717L122.366 61.7258L121.755 61.7658L121.145 61.7634L120.571 61.9743L119.98 62.0575L119.369 62.0763L118.814 62.3515L118.259 62.6268L117.648 62.6667L117.057 62.7498L116.445 62.7898L115.871 63.0007L115.316 63.276L114.707 63.2525L114.152 63.5277L113.541 63.5677L112.969 63.7151L112.376 63.8405L111.784 63.9448L111.211 64.1346L110.617 64.2812L110.045 64.4286L109.452 64.5541L108.804 64.4231L108.231 64.5917L107.677 64.8458L107.104 65.0355L106.455 64.9257L105.918 65.2864L105.329 65.3061L104.734 65.495L104.142 65.5993L103.532 65.5969L102.996 65.9576L102.386 65.9553L101.794 66.0596L101.201 66.185L100.609 66.3105L100.036 66.4791L99.4262 66.4767L98.888 66.8797L98.2783 66.8774L97.6478 66.8531L97.0742 67.0428L96.5024 67.1903L95.8902 67.2514L95.3545 67.5909L94.7264 67.5031L94.1537 67.6717L93.5407 67.754L93.0058 68.0724L92.3945 68.1124L91.8604 68.4096L91.2307 68.3641L90.6748 68.6605L90.0643 68.6793L89.4539 68.6981L88.8627 68.7812L88.3068 69.0776L87.714 69.2031L87.1397 69.414L86.5308 69.3905L85.9195 69.4305L85.3822 69.8123L84.7339 69.6813L84.1612 69.8499L83.6078 70.0829L82.9949 70.1651L82.4214 70.3549L81.868 70.5878L81.2398 70.5L80.6647 70.7321L80.092 70.9007L79.4622 70.8552L78.8887 71.0449L78.3144 71.2559L77.7248 71.2967L77.1111 71.4001L76.5577 71.633L76.0043 71.8659L75.3914 71.9482L74.8187 72.1168L74.1881 72.0925L73.6154 72.2611L73.0049 72.2799L72.4121 72.4053L71.8772 72.7237L71.3028 72.9346L70.6538 72.8248L70.118 73.1644L69.5268 73.2475L68.9541 73.4161L68.3429 73.4561L67.7677 73.6882L67.1195 73.5572L66.5476 73.7046L65.9925 73.9798L65.4198 74.1485L64.8463 74.3382L64.2535 74.4637L63.6414 74.5248L63.0318 74.5224L62.4574 74.7334L61.8646 74.8588L61.2927 75.0062L60.6999 75.1317L60.1449 75.4069L59.5336 75.4469L58.9231 75.4657L58.3882 75.7841L57.7391 75.6743L57.148 75.7574L56.5728 75.9895L56.0017 76.1158L55.4073 76.2835L54.8354 76.431L54.2418 76.5776L53.6313 76.5964L53.0947 76.9571L52.4843 76.9759L51.9317 77.1877L51.3011 77.1633L50.689 77.2244L50.1348 77.4785L49.5428 77.5828L48.95 77.7082L48.3974 77.92L47.8037 78.0666L47.1732 78.0423L46.6382 78.3606L45.9908 78.2085L45.4366 78.4626L44.8631 78.6523L44.2317 78.6492L43.6774 78.9032L43.067 78.922L42.4943 79.0906L41.9384 79.387L41.2894 79.2772L40.7544 79.5956L40.1809 79.7854L39.5881 79.9108L38.9592 79.8441L38.3479 79.8841L37.776 80.0316L37.2016 80.2425L36.6667 80.5609L36.0554 80.6008L35.4827 80.7694L34.9092 80.9592L34.2786 80.9349L33.6682 80.9537L33.1123 81.2501L32.4817 81.2257L31.9468 81.5441L31.3187 81.4563L30.7259 81.5817L30.1507 81.8138L29.5973 82.0467L29.023 82.2576L28.3739 82.1478L27.8197 82.4019L27.2462 82.5917L26.6558 82.6536L26.0252 82.6293L25.4316 82.7759L24.8958 83.1154L24.2653 83.0911L23.732 83.3671L23.1006 83.364L22.4893 83.4039L21.9158 83.5937L21.3422 83.7835L20.788 84.0375L20.1381 83.9489L19.6233 84.3104L19.0096 84.4139L18.4192 84.4758L17.8449 84.6867L17.2159 84.6201L16.681 84.9385L16.0311 84.8498L15.44 84.9329L14.8841 85.2293L14.309 85.4614L13.7371 85.6089L13.1258 85.6488L12.4952 85.6245L11.9418 85.8574L11.3297 85.9185L10.757 86.0871L10.1449 86.1482L9.57055 86.3592L8.99621 86.5701L8.40994 86.5263Z" fill="url(#paint0_linear_979_26576)"/>
<circle cx="145.333" cy="66.0432" r="2.93601" fill="#E1FCEE"/>
<circle cx="147.064" cy="65.295" r="2.43601" stroke="black"/>
<circle cx="131.318" cy="4.40871" r="1.8514" fill="#C8F8F5" stroke="black"/>
<circle cx="122.23" cy="8.77956" r="1.7214" fill="#C8F8F5"/>
<path d="M101.482 10.501C113.83 15.6869 118.162 17.6384 128.966 30.9657" stroke="black" stroke-linecap="round" stroke-linejoin="round"/>
<rect x="12.5576" y="10.245" width="66.1866" height="51.9354" rx="7.5" transform="rotate(-8.01653 12.5576 10.245)" fill="#090B0E" stroke="black"/>
<rect x="11.8236" y="10.979" width="66.1866" height="51.9354" rx="7.5" transform="rotate(-8.01653 11.8236 10.979)" fill="white" stroke="black"/>
<rect x="21.5079" y="18.0202" width="17.7435" height="2.1562" rx="1.0781" transform="rotate(-8.01653 21.5079 18.0202)" fill="#CEFFFD" stroke="black"/>
<circle cx="27.3664" cy="31.541" r="3.91561" transform="rotate(-8.01653 27.3664 31.541)" fill="#CEFFFD" stroke="black"/>
<path d="M35.6985 28.8279L67.8089 24.3056" stroke="#090B0E" stroke-linecap="round"/>
<path d="M36.1913 32.3258L61.6231 28.7441" stroke="#090B0E" stroke-linecap="round"/>
<circle cx="30.2803" cy="48.6913" r="3.91561" transform="rotate(-8.01653 30.2803 48.6913)" fill="#CEFFFD" stroke="black"/>
<path d="M38.6127 45.9781L70.7231 41.4559" stroke="#090B0E" stroke-linecap="round"/>
<path d="M39.1054 49.4761L64.5372 45.8944" stroke="#090B0E" stroke-linecap="round"/>
<rect x="42.8625" y="15.6534" width="92.5316" height="84.6601" rx="7.5" fill="white" stroke="black"/>
<path d="M51.4705 65.3439H104.822V97.7998C104.822 101.942 101.464 105.3 97.322 105.3H58.9705C54.8284 105.3 51.4705 101.942 51.4705 97.7998V65.3439Z" fill="#D9FFEF" stroke="black"/>
<rect x="51.4705" y="23.9764" width="17.7435" height="2.1562" rx="1.0781" fill="#86EFCE" stroke="black"/>
<circle cx="55.3861" cy="38.182" r="3.91561" fill="#86EFCE" stroke="#090B0E"/>
<path d="M64.0646 36.4269H119.332" stroke="black" stroke-linecap="round"/>
<path d="M64.0145 40.0074H107.787" stroke="black" stroke-linecap="round"/>
<circle cx="60.5676" cy="77.6637" r="3.91561" fill="#86EFCE" stroke="#090B0E"/>
<path d="M68.2613 75.9086H99.7072" stroke="black" stroke-linecap="round"/>
<path d="M68.2612 79.4891H93.1667" stroke="black" stroke-linecap="round"/>
<circle cx="60.5676" cy="91.4477" r="3.91561" fill="#86EFCE" stroke="#090B0E"/>
<path d="M68.2613 89.6925H99.7072" stroke="black" stroke-linecap="round"/>
<path d="M68.2612 93.273H93.1667" stroke="black" stroke-linecap="round"/>
<path d="M7.92004 61.985C6.89582 68.1091 6.09343 79.7101 7.92006 87.401L17.6135 85.2574" stroke="black" stroke-linecap="round" stroke-linejoin="round"/>
<rect x="2.1387" y="44.8136" width="4.78707" height="4.78707" fill="#C7F8F6"/>
<rect y="55.0441" width="3.74752" height="3.74752" transform="rotate(-30.5499 0 55.0441)" fill="#DAF5E7"/>
<rect x="0.684738" y="56.9477" width="2.74752" height="2.74752" transform="rotate(-30.5499 0.684738 56.9477)" fill="#DAF5E7" stroke="black" stroke-linejoin="round"/>
<path d="M106.973 61.5885C106.973 59.3794 108.764 57.5885 110.973 57.5885H123.942C126.151 57.5885 127.942 59.3794 127.942 61.5885V63.8361C127.942 66.0452 126.151 67.8361 123.942 67.8361H110.973C108.764 67.8361 106.973 66.0452 106.973 63.8361V61.5885Z" fill="black"/>
<rect x="51.4701" y="58.0885" width="53.3515" height="9.24756" rx="3.5" fill="white" stroke="black"/>
<path d="M56.0719 63.1012H78.146" stroke="black" stroke-linecap="round"/>
<path d="M81.7311 63.1012H89.9883" stroke="black" stroke-linecap="round"/>
<defs>
<linearGradient id="paint0_linear_979_26576" x1="8.22989" y1="47.5598" x2="142.396" y2="52.8307" gradientUnits="userSpaceOnUse">
<stop stop-color="#96F2BC" stop-opacity="0.9"/>
<stop offset="1" stop-color="#3EFFFF" stop-opacity="0.9"/>
</linearGradient>
</defs>
</svg>
