<svg data-name="Layer 1" xmlns="http://www.w3.org/2000/svg" xmlns:xlink="http://www.w3.org/1999/xlink" viewBox="0 0 603 380"><defs><style>.cls-1,.cls-2{stroke:#874599;stroke-linecap:round;stroke-linejoin:round;stroke-width:2px;}.cls-1{fill:url(#no-comments-linear-gradient);}.cls-2,.cls-4{fill:#fff;}.cls-3{opacity:0.4;fill:url(#no-comments-linear-gradient-2);}.cls-4{font-size:109.9px;}.cls-4,.cls-5{font-family:ProximaNova-Semibold, Proxima Nova;font-weight:700;}.cls-5{opacity:0.5;font-size:71.03px;fill:#874599;}</style><linearGradient id="no-comments-linear-gradient" x1="48.38" y1="195.92" x2="333.42" y2="195.92" gradientTransform="translate(1.5 3.23) rotate(0.08)" gradientUnits="userSpaceOnUse"><stop offset="0" stop-color="#f8c1d5"/><stop offset="0.18" stop-color="#f8bdd2"/><stop offset="0.36" stop-color="#f7b0ca"/><stop offset="0.54" stop-color="#f59cbc"/><stop offset="0.73" stop-color="#f37fa9"/><stop offset="0.91" stop-color="#f05a91"/><stop offset="1" stop-color="#ee4684"/></linearGradient><linearGradient id="no-comments-linear-gradient-2" x1="-532.75" y1="-1060.29" x2="-345.96" y2="-1060.29" gradientTransform="translate(-12.07 1256.79) rotate(45)" gradientUnits="userSpaceOnUse"><stop offset="0.45" stop-color="#f07bac"/><stop offset="0.49" stop-color="#f183b1"/><stop offset="0.71" stop-color="#f5abc9"/><stop offset="0.89" stop-color="#f8c3d8"/><stop offset="1" stop-color="#f9ccde"/></linearGradient></defs><title>Artboard 2</title><path class="cls-1" d="M281.91,96.89a136,136,0,1,0-24.73,211.69l77.24,33.58-33.35-77.33A136.05,136.05,0,0,0,281.91,96.89Z"/><line class="cls-2" x1="113" y1="44.76" x2="125.35" y2="50.29"/><line class="cls-2" x1="116.41" y1="53.7" x2="121.93" y2="41.35"/><path class="cls-2" d="M259.64,342.75a7.63,7.63,0,0,1-10-4.49"/><path class="cls-2" d="M579.71,193a7.62,7.62,0,0,1-2.37,10.66"/><circle class="cls-2" cx="335.61" cy="105.11" r="5.47"/><line class="cls-2" x1="530.19" y1="81.06" x2="542.54" y2="86.58"/><line class="cls-2" x1="533.61" y1="90" x2="539.13" y2="77.64"/><circle class="cls-2" cx="472.54" cy="292.71" r="5.47"/><path class="cls-3" d="M511.19,244.27a93.39,93.39,0,1,0-145.4-16.77l-23,53.07,53.07-23A93.44,93.44,0,0,0,511.19,244.27Z"/><line class="cls-2" x1="79.99" y1="318.5" x2="84.76" y2="331.17"/><line class="cls-2" x1="76.04" y1="327.22" x2="88.71" y2="322.45"/><circle class="cls-2" cx="26.53" cy="161.73" r="5.47"/><text class="cls-4" transform="translate(146.51 199.73)">...</text><text class="cls-5" transform="translate(420.8 184.99)">...</text></svg>