<svg width="237" height="158" viewBox="0 0 237 158" fill="none" xmlns="http://www.w3.org/2000/svg">
<path opacity="0.3" d="M226.616 11.1287L227.084 11.8531L226.851 12.8923L227.019 13.8468L227.368 14.7754L227.79 15.6726L227.667 16.6824L228.124 17.6164L228.11 18.5967L228.024 19.5733L228.3 20.5332L228.396 21.484L228.274 22.4588L228.368 23.4445L228.717 24.3731L228.63 25.3847L228.582 26.3282L228.676 27.3139L228.951 28.2738L228.866 29.2504L229.069 30.2067L229.163 31.1924L228.97 32.1636L228.958 33.1089L229.16 34.1001L228.967 35.0712L229.278 36.0329L229.049 37.0023L229.179 37.9898L228.95 38.9592L229.081 39.9118L228.924 40.8848L228.767 41.8577L228.575 42.794L228.597 43.776L228.727 44.7636L228.426 45.7293L228.127 46.6601L228.113 47.6403L227.922 48.5765L227.729 49.5477L227.965 50.5757L227.773 51.5119L227.153 52.3913L227.103 53.3697L227.195 54.3904L227.076 55.3303L226.491 56.2115L226.725 57.2744L226.07 58.1171L226.162 59.1378L225.757 60.0281L225.742 61.0433L225.372 61.9355L224.825 62.7836L224.738 63.7952L224.297 64.6837L224.425 65.7062L224.126 66.637L223.827 67.5677L223.138 68.3736L222.911 69.308L222.859 70.3214L222.348 71.1713L222.155 72.1425L221.538 72.952L221.026 73.802L220.797 74.7713L220.358 75.6249L219.989 76.5171L219.936 77.5654L219.318 78.3749L219.161 79.3479L218.58 80.1593L217.859 80.8935L217.454 81.7838L217.048 82.6742L216.747 83.6399L216.344 84.4953L216.079 85.4628L215.323 86.1602L214.952 87.0873L214.301 87.8601L214.036 88.8276L213.282 89.4901L212.737 90.3033L212.296 91.1918L211.787 92.0068L211.52 93.0092L211.01 93.8242L210.221 94.4849L209.676 95.2981L209.2 96.1498L208.759 97.0384L208.074 97.7744L207.529 98.5875L206.913 99.3621L206.402 100.212L205.65 100.84L204.999 101.612L204.49 102.427L203.632 103.015L202.948 103.716L202.473 104.567L201.996 105.454L201.312 106.155L200.386 106.669L199.807 107.445L199.019 108.071L198.472 108.919L197.995 109.806L196.968 110.174L196.491 111.061L195.806 111.797L195.122 112.498L194.266 113.05L193.412 113.567L192.762 114.305L192.079 115.006L191.532 115.854L190.507 116.188L189.924 117.034L189.309 117.808L188.284 118.142L187.463 118.696L186.78 119.397L185.96 119.951L185.172 120.577L184.454 121.241L183.702 121.868L182.984 122.533L182.094 123.048L181.274 123.602L180.49 124.158L179.668 124.747L178.749 125.121L177.929 125.675L177.04 126.155L176.256 126.711L175.601 127.554L174.549 127.711L173.695 128.228L172.875 128.782L172.087 129.408L171.168 129.781L170.38 130.407L169.463 130.746L168.639 131.37L167.688 131.672L166.77 132.011L165.979 132.706L164.931 132.793L164.01 133.202L163.123 133.648L162.335 134.273L161.35 134.539L160.369 134.699L159.483 135.145L158.594 135.625L157.772 136.214L156.722 136.336L155.868 136.853L154.949 137.227L153.873 137.138L152.922 137.44L152.098 138.064L151.08 138.257L150.132 138.489L149.179 138.826L148.197 139.022L147.249 139.254L146.264 139.519L145.314 139.787L144.365 140.054L143.383 140.249L142.521 140.906L141.543 141.032L140.534 141.051L139.553 141.211L138.537 141.37L137.616 141.779L136.665 142.081L135.624 142.028L134.701 142.472L133.721 142.632L132.685 142.475L131.672 142.563L130.665 142.547L129.735 143.131L128.758 143.221L127.722 143.064L126.744 143.189L125.767 143.28L124.756 143.334L123.778 143.459L122.764 143.583L121.778 143.848L120.772 143.797L119.796 143.888L118.77 143.521L117.779 143.891L116.805 143.947L115.806 143.756L114.797 143.775L113.795 143.654L112.793 143.533L111.816 143.624L110.799 143.817L109.798 143.661L108.788 143.715L107.834 143.352L106.823 143.406L105.81 143.494L104.857 143.131L103.853 143.045L102.837 143.203L101.885 142.805L100.881 142.719L99.8722 142.738L98.8649 142.722L97.9077 142.428L96.9576 141.994L95.902 142.221L94.9878 141.789L93.9894 141.599L92.9391 141.721L91.9819 141.427L91.066 141.03L90.1123 140.666L89.1068 140.615L88.0995 140.599L87.1459 140.236L86.1457 140.08L85.2315 139.648L84.3567 139.148L83.2705 139.268L82.3546 138.872L81.4798 138.372L80.3954 138.457L79.5189 137.992L78.481 137.87L77.6493 137.232L76.6885 137.008L75.8568 136.37L74.8996 136.076L73.8599 135.989L72.9422 135.627L71.985 135.333L71.069 134.936L70.1943 134.436L69.1976 134.211L68.4807 133.439L67.484 133.213L66.69 132.542L65.6915 132.351L64.7343 132.058L64.0192 131.251L63.1015 130.889L62.0277 130.764L61.2318 130.128L60.393 129.63L59.3981 129.37L58.6382 128.735L57.8818 128.031L56.8887 127.736L56.2077 126.966L55.2935 126.534L54.417 126.069L53.4992 125.707L52.7805 124.97L52.0188 124.371L50.9127 124.175L50.2676 123.406L49.3139 123.043L48.5934 122.34L47.7564 121.808L47.0341 121.14L46.084 120.707L45.3241 120.073L44.7167 119.271L44.0716 118.503L43.082 118.137L42.4746 117.336L41.5981 116.871L40.9906 116.069L40.0029 115.669L39.4708 114.801L38.788 114.066L37.7626 113.698L37.3436 112.731L36.5459 112.13L35.9367 111.364L35.1391 110.763L34.1531 110.327L33.5439 109.561L33.0872 108.627L32.1012 108.191L31.7181 107.226L30.8451 106.691L30.2754 105.856L29.4401 105.289L28.8704 104.454L28.3348 103.656L27.5013 103.053L27.1164 102.123L26.3582 101.454L25.898 100.59L25.2511 99.8561L24.6437 99.0545L24.1476 98.1886L23.2764 97.6189L23.0405 96.5909L22.1316 96.0544L21.5241 95.2528L21.2506 94.258L20.5301 93.5558L20.2547 92.5959L19.536 91.8588L19.0758 90.9946L18.4289 90.2611L17.8215 89.4596L17.6951 88.4022L16.9387 87.6981L16.588 86.8045L15.907 86.0343L15.3714 85.2364L15.1337 84.2433L14.7111 83.3461L14.3981 82.4193L13.5681 81.7466L13.1815 80.8511L12.6477 80.0183L12.5195 78.9958L12.0233 78.1298L11.3782 77.3614L11.1747 76.4051L10.8617 75.4784L10.5486 74.5516L9.97886 73.7169L9.6658 72.7902L9.60947 71.7713L9.11331 70.9053L8.50587 70.1038L8.15692 69.1752L8.24598 68.1287L7.85937 67.2332L7.58222 66.3083L6.90474 65.4681L6.99202 64.4566L6.64307 63.528L6.25644 62.6325L6.05289 61.6763L5.59445 60.7772L5.71765 59.7674L5.07785 58.8942L4.87432 57.9379L4.92039 57.0294L5.86293 56.902L6.78907 56.3884L7.76927 56.2279L8.72068 55.9258L9.73151 55.8719L10.6758 55.7096L11.6614 55.4443L12.6722 55.3904L13.5589 54.9449L14.6309 55.1043L15.5517 54.6956L16.5302 54.57L17.5104 54.4095L18.4653 54.0375L19.4114 53.8402L20.4852 53.9648L21.3719 53.5192L22.3539 53.3238L23.2765 52.8801L24.3432 53.1444L25.2046 52.4874L26.2478 52.5052L27.228 52.3447L28.1758 52.1125L29.1579 51.917L30.1651 51.9331L31.0553 51.4177L32.0968 51.4705L33.0788 51.275L34.059 51.1145L34.9204 50.4575L35.9312 50.4036L36.9115 50.2431L37.8323 49.8344L38.8431 49.7805L39.8504 49.7966L40.8035 49.4595L41.782 49.3339L42.7911 49.315L43.7136 48.8713L44.6362 48.4276L45.6471 48.3738L46.6255 48.2482L47.6363 48.1944L48.5895 47.8573L49.5121 47.4136L50.5176 47.4646L51.4402 47.0209L52.451 46.967L53.3989 46.7348L54.3809 46.5394L55.3611 46.3788L56.3125 46.0767L57.2963 45.8464L58.2441 45.6141L59.2261 45.4187L60.2946 45.648L61.2442 45.3809L62.1651 44.9721L63.1165 44.67L64.1867 44.8644L65.0805 44.2791L66.0536 44.2584L67.0409 43.9581L68.0212 43.7976L69.0284 43.8136L69.9222 43.2283L70.9295 43.2444L71.9097 43.0839L72.8917 42.8884L73.8737 42.6929L74.8233 42.4258L75.8306 42.4418L76.7279 41.7866L77.7352 41.8027L78.7766 41.8555L79.728 41.5534L80.6759 41.3211L81.6885 41.2324L82.5805 40.682L83.6166 40.8396L84.5662 40.5725L85.5806 40.4487L86.4708 39.9333L87.4816 39.8795L88.3701 39.399L89.4097 39.4867L90.3341 39.0081L91.3431 38.9892L92.3522 38.9703L93.3306 38.8447L94.255 38.3661L95.237 38.1706L96.1902 37.8336L97.1957 37.8845L98.2065 37.8307L99.102 37.2104L100.171 37.4398L101.12 37.1726L102.039 36.7988L103.054 36.6751L104.005 36.373L104.924 35.9992L105.96 36.1568L106.915 35.7848L107.865 35.5176L108.904 35.6054L109.856 35.3033L110.809 34.9662L111.784 34.9106L112.8 34.7519L113.719 34.378L114.638 34.0042L115.652 33.8805L116.602 33.6133L117.643 33.6661L118.593 33.399L119.602 33.3801L120.584 33.1846L121.474 32.6692L122.428 32.3321L123.498 32.5265L124.39 31.9762L125.368 31.8506L126.318 31.5835L127.329 31.5296L128.284 31.1576L129.352 31.387L130.3 31.1547L131.223 30.711L132.172 30.4439L133.124 30.1418L134.106 29.9463L135.118 29.8575L136.125 29.8736L137.079 29.5365L138.061 29.3411L139.009 29.1088L139.991 28.9134L140.913 28.4697L141.924 28.4158L142.933 28.3969L143.823 27.8815L144.893 28.0759L145.872 27.9504L146.827 27.5784L147.773 27.3811L148.758 27.1157L149.706 26.8835L150.69 26.6531L151.699 26.6342L152.593 26.0489L153.602 26.03L154.519 25.6911L155.561 25.7439L156.573 25.6551L157.494 25.2464L158.474 25.0859L159.456 24.8904L160.374 24.5516L161.357 24.3212L162.399 24.374L163.289 23.8585L164.356 24.1228L165.277 23.7141L166.228 23.412L167.271 23.4298L168.192 23.0211L169.201 23.0022L170.151 22.735L171.075 22.2564L172.145 22.4508L173.035 21.9353L173.987 21.6332L174.969 21.4378L176.007 21.5605L177.018 21.5066L177.965 21.2744L178.919 20.9374L179.809 20.4219L180.82 20.3681L181.769 20.1009L182.721 19.7988L183.762 19.8516L184.771 19.8327L185.695 19.3541L186.737 19.4069L187.627 18.8915L188.663 19.0491L189.645 18.8536L190.6 18.4817L191.519 18.1078L192.472 17.7708L193.543 17.9652L194.463 17.5564L195.415 17.2543L196.392 17.1637L197.433 17.2165L198.417 16.9861L199.309 16.4358L200.35 16.4886L201.237 16.043L202.28 16.0609L203.291 16.007L204.242 15.7049L205.194 15.4028L206.114 14.9941L207.186 15.1535L208.044 14.5664L209.06 14.4077L210.037 14.3171L210.99 13.98L212.028 14.1027L212.918 13.5873L213.99 13.7468L214.969 13.6212L215.893 13.1426L216.848 12.7706L217.796 12.5383L218.807 12.4845L219.848 12.5373L220.767 12.1635L221.78 12.0747L222.73 11.8075L223.742 11.7187L224.695 11.3817L225.649 11.0446L226.616 11.1287Z" fill="url(#paint0_linear_459_9824)"/>
<rect x="46.5449" y="22.5031" width="151.516" height="97.789" rx="3.46715" fill="white" stroke="black"/>
<rect x="46.8203" y="56.4456" width="151.045" height="22.7372" fill="#86EFCE" stroke="black"/>
<path d="M9.75554 71.5408L14.4781 76.0882L9.93066 80.8107L5.20814 76.2633L9.75554 71.5408Z" fill="#85EFCE" stroke="black"/>
<path fill-rule="evenodd" clip-rule="evenodd" d="M79.4143 95.0706H74.5533C74.1068 95.0706 73.7432 94.7171 73.7432 94.2825V90.3493C73.7432 89.9148 74.1068 89.5615 74.5533 89.5615H76.0443C76.1412 89.5615 76.2336 89.6049 76.2952 89.6805L77.1374 90.7107H79.4143C79.8608 90.7107 80.2244 91.0639 80.2244 91.4988V94.2825C80.2244 94.7171 79.8608 95.0706 79.4143 95.0706Z" fill="#231F20"/>
<rect x="87.4839" y="89.7683" width="79.1318" height="5.30217" rx="2.65109" fill="#090B0E"/>
<path fill-rule="evenodd" clip-rule="evenodd" d="M79.4143 70.0687H74.5533C74.1068 70.0687 73.7432 69.7151 73.7432 69.2805V65.3474C73.7432 64.9128 74.1068 64.5596 74.5533 64.5596H76.0443C76.1412 64.5596 76.2336 64.603 76.2952 64.6785L77.1374 65.7087H79.4143C79.8608 65.7087 80.2244 66.0619 80.2244 66.4968V69.2805C80.2244 69.7151 79.8608 70.0687 79.4143 70.0687Z" fill="#090B0E"/>
<rect x="87.4839" y="64.7664" width="79.1318" height="5.30217" rx="2.65109" fill="#090B0E"/>
<rect x="60.9722" y="34.0604" width="38.2889" height="5.30217" rx="2.65109" fill="#090B0E"/>
<path d="M213.204 13.7338L226.596 10.9142C227.799 16.3031 229.914 29.1536 228.753 37.4449" stroke="black" stroke-linecap="round"/>
<path d="M92.9053 141.625C98.875 143.393 115.28 146.179 133.144 143.172" stroke="black" stroke-linecap="round"/>
<path d="M7.78507 66.896L4.91064 57.168L36.9695 50.3141" stroke="black" stroke-linecap="round"/>
<path d="M230.033 55.9456C230.033 58.5662 227.909 60.6906 225.288 60.6906C222.668 60.6906 220.543 58.5662 220.543 55.9456C220.543 53.325 222.668 51.2006 225.288 51.2006C227.909 51.2006 230.033 53.325 230.033 55.9456Z" fill="#CCFFFE" stroke="black"/>
<mask id="path-14-inside-1_459_9824" fill="white">
<path d="M224.796 84.6033L224.822 84.6178L224.849 84.637L224.872 84.6587L224.901 84.6727L224.923 84.6985L224.953 84.7144L224.981 84.7295L225.007 84.7509L225.035 84.766L225.06 84.7874L225.092 84.7982L225.118 84.8166L225.142 84.8402L225.169 84.8564L225.199 84.8723L225.225 84.8907L225.253 84.9058L225.284 84.9187L225.306 84.9434L225.336 84.9563L225.363 84.9767L225.389 84.9939L225.421 85.0077L225.447 85.025L225.474 85.0423L225.502 85.0604L225.521 85.0895L225.553 85.1002L225.578 85.1227L225.609 85.1346L225.635 85.1529L225.661 85.1733L225.691 85.1862L225.712 85.213L225.745 85.2227L225.772 85.24L225.799 85.2581L225.823 85.2817L225.854 85.2936L225.882 85.3087L225.905 85.3333L225.935 85.3463L225.962 85.3636L225.984 85.3893L226.016 85.4001L226.045 85.4171L226.072 85.4333L226.098 85.4536L226.126 85.4698L226.153 85.4871L226.18 85.5063L226.207 85.5236L226.23 85.5472L226.256 85.5675L226.285 85.5827L226.311 85.603L226.341 85.6159L226.368 85.6332L226.398 85.6481L226.419 85.676L226.445 85.6933L226.474 85.7084L226.506 85.7191L226.531 85.7406L226.555 85.7641L226.586 85.776L226.609 85.7996L226.643 85.8081L226.67 85.8243L226.69 85.8534L226.721 85.8652L226.745 85.8877L226.777 85.8985L226.806 85.9136L226.832 85.9339L226.86 85.949L226.882 85.9748L226.911 85.9899L226.936 86.0113L226.965 86.0253L226.994 86.0423L227.021 86.0585L227.05 86.0736L227.074 86.0961L227.102 86.1143L227.128 86.1327L227.153 86.1552L227.185 86.1659L227.208 86.1895L227.235 86.2068L227.263 86.223L227.294 86.2337L227.318 86.2573L227.346 86.2755L227.371 86.2949L227.4 86.3089L227.426 86.3293L227.455 86.3444L227.478 86.369L227.512 86.3765L227.534 86.4023L227.567 86.4109L227.593 86.4292L227.619 86.4506L227.648 86.4647L227.669 86.4915L227.698 86.5055L227.723 86.528L227.75 86.5453L227.781 86.5591L227.803 86.5818L227.835 86.5956L227.86 86.6151L227.886 86.6354L227.916 86.6483L227.944 86.6645L227.972 86.6816L227.997 86.701L228.028 86.7129L228.051 86.7376L228.082 86.7494L228.111 86.7664L228.131 86.7944L228.159 86.8106L228.186 86.8298L228.213 86.8471L228.246 86.8557L228.274 86.8738L228.295 86.9007L228.322 86.918L228.354 86.9287L228.382 86.9438L228.41 86.962L228.429 86.991L228.46 87.0028L228.487 87.0231L228.511 87.0437L228.542 87.0575L228.573 87.0693L228.597 87.0899L228.623 87.1102L228.654 87.122L228.68 87.1434L228.702 87.1692L228.737 87.1756L228.761 87.1962L228.784 87.2208L228.813 87.2349L228.838 87.2574L228.872 87.2648L228.893 87.2917L228.926 87.3013L228.954 87.3195L228.977 87.3411L229.002 87.3625L229.032 87.3766L229.058 87.3969L229.09 87.4076L229.113 87.4312L229.139 87.4496L229.167 87.4677L229.197 87.4807L229.223 87.501L229.249 87.5224L229.279 87.5353L229.304 87.5567L229.329 87.5762L229.359 87.5891L229.373 87.5609L229.395 87.5364L229.408 87.5063L229.433 87.4835L229.443 87.4516L229.464 87.4254L229.48 87.3978L229.5 87.3717L229.519 87.3457L229.54 87.3204L229.555 87.2919L229.579 87.2683L229.591 87.2373L229.604 87.2072L229.629 87.1852L229.646 87.1576L229.665 87.1306L229.68 87.1021L229.702 87.0776L229.721 87.0517L229.73 87.019L229.754 86.9954L229.769 86.9669L229.786 86.9382L229.805 86.9123L229.825 86.8861L229.843 86.8602L229.86 86.8315L229.88 86.8064L229.887 86.772L229.915 86.7518L229.927 86.7208L229.943 86.6931L229.968 86.6704L229.979 86.6385L230 86.6132L230.012 86.5822L230.036 86.5585L230.055 86.5335L230.075 86.5073L230.091 86.4788L230.108 86.4501L230.119 86.4191L230.144 86.3963L230.16 86.3687L230.174 86.3394L230.2 86.3175L230.209 86.2839L230.229 86.2577L230.246 86.231L230.271 86.2082L230.283 86.1772L230.304 86.1519L230.322 86.1251L230.333 86.0941L230.355 86.0688L230.374 86.0437L230.389 86.0133L230.411 85.9899L230.426 85.9595L230.441 85.931L230.46 85.9059L230.477 85.8772L230.492 85.8488L230.518 85.8268L230.53 85.7958L230.548 85.768L230.564 85.7403L230.581 85.7127L230.603 85.6882L230.626 85.6638L230.636 85.6319L230.653 85.6043L230.678 85.5824L230.695 85.5537L230.712 85.526L230.728 85.4984L230.75 85.4739L230.763 85.4438L230.777 85.4145L230.795 85.3866L230.818 85.3621L230.835 85.3354L230.847 85.3043L230.874 85.2833L230.885 85.2514L230.902 85.2227L230.927 85.2008L230.937 85.17L230.957 85.143L230.979 85.1185L230.991 85.0875L231.017 85.0656L231.023 85.0323L231.047 85.0086L231.072 84.9858L231.08 84.9523L231.097 84.9255L231.115 84.8968L231.139 84.874L231.154 84.8456L231.169 84.8171L231.186 84.7895L231.213 84.7673L231.223 84.7365L231.246 84.7121L231.259 84.6819L231.277 84.654L231.296 84.629L231.316 84.602L231.337 84.5766L231.35 84.5465L231.367 84.5197L231.388 84.4935L231.397 84.4608L231.426 84.4414L231.439 84.4113L231.456 84.3845L231.478 84.3592L231.496 84.3313L231.507 84.2995L231.528 84.2761L231.543 84.2457L231.558 84.2172L231.585 84.1961L231.605 84.1691L231.611 84.1358L231.628 84.1071L231.657 84.0877L231.667 84.055L231.694 84.0339L231.711 84.0071L231.728 83.9784L231.744 83.9508L231.753 83.9173L231.774 83.8919L231.796 83.8685L231.811 83.8381L231.829 83.8122L231.847 83.7844L231.861 83.755L231.887 83.7331L231.902 83.7046L231.914 83.6736L231.933 83.6466L231.953 83.6196L231.972 83.5945L231.995 83.57L232.002 83.5357L232.022 83.5106L232.042 83.4844L232.061 83.4574L232.075 83.4281L232.1 83.4053L232.116 83.3777L232.129 83.3475L232.151 83.323L232.162 83.2912L232.181 83.2642L232.204 83.2397L232.22 83.2121L232.235 83.1836L232.254 83.1566L232.28 83.1347L232.294 83.1053L232.31 83.0758L232.327 83.049L232.351 83.0215L232.32 83.0047L232.291 82.9877L232.267 82.9671L232.237 82.9511L232.211 82.9339L232.184 82.9146L232.158 82.8963L232.131 82.879L232.104 82.8597L232.075 82.8457L232.049 82.8254L232.023 82.807L231.997 82.7856L231.965 82.7749L231.941 82.7524L231.914 82.7351L231.887 82.7159L231.861 82.6975L231.833 82.6793L231.801 82.6716L231.776 82.6502L231.748 82.634L231.726 82.6082L231.691 82.6019L231.669 82.5761L231.642 82.5588L231.614 82.5407L231.582 82.5299L231.557 82.5115L231.53 82.4912L231.508 82.4654L231.475 82.4569L231.447 82.4407L231.425 82.4149L231.398 82.3968L231.368 82.3828L231.344 82.3622L231.313 82.3504L231.29 82.3257L231.261 82.3086L231.236 82.2903L231.207 82.2751L231.183 82.2527L231.155 82.2345L231.122 82.2249L231.094 82.2098L231.069 82.1873L231.042 82.17L231.016 82.1516L230.992 82.1291L230.963 82.1151L230.936 82.0958L230.906 82.0818L230.882 82.0593L230.854 82.0431L230.826 82.0261L230.798 82.0099L230.772 81.9896L230.747 81.9701L230.713 81.9615L230.69 81.9368L230.659 81.9261L230.633 81.9047L230.612 81.8809L230.585 81.8616L230.555 81.8476L230.528 81.8284L230.5 81.8133L230.471 81.7982L230.442 81.7822L230.419 81.7575L230.391 81.7413L230.365 81.721L230.34 81.7016L230.31 81.6886L230.278 81.6779L230.258 81.6499L230.228 81.634L230.196 81.6243L230.171 81.6038L230.143 81.5867L230.116 81.5694L230.09 81.5491L230.064 81.5307L230.04 81.5071L230.013 81.4909L229.982 81.4791L229.956 81.4577L229.93 81.4374L229.898 81.4266L229.871 81.4104L229.844 81.3931L229.82 81.3696L229.795 81.3481L229.767 81.333L229.736 81.3201L229.708 81.3031L229.682 81.2847L229.66 81.2589L229.631 81.2438L229.602 81.2278L229.579 81.2051L229.548 81.1913L229.525 81.1697L229.495 81.1557L229.467 81.1386L229.442 81.1181L229.411 81.1073L229.385 81.0859L229.356 81.0719L229.33 81.0516L229.303 81.0343L229.279 81.0107L229.248 80.9999L229.225 80.9753L229.195 80.9612L229.165 80.9483L229.142 80.9247L229.112 80.9088L229.088 80.8882L229.057 80.8764L229.031 80.8561L229.005 80.8357L228.977 80.8195L228.947 80.8066L228.922 80.7841L228.897 80.7627L228.865 80.752L228.839 80.7336L228.815 80.7111L228.788 80.6938L228.761 80.6746L228.729 80.6638L228.702 80.6465L228.676 80.6262L228.649 80.607L228.622 80.5897L228.595 80.5705L228.572 80.5488L228.542 80.534L228.518 80.5123L228.486 80.5027L228.458 80.4845L228.432 80.4631L228.406 80.4447L228.377 80.4307L228.349 80.4126L228.323 80.3942L228.293 80.3793L228.27 80.3546L228.24 80.3417L228.217 80.317L228.188 80.303L228.16 80.2868L228.136 80.2643L228.103 80.2547L228.08 80.23L228.052 80.2149L228.022 80.1989L228.001 80.1732L227.966 80.1657L227.94 80.1473L227.917 80.1226L227.885 80.113L227.86 80.0905L227.833 80.0732L227.806 80.054L227.78 80.0425L227.758 80.0601L227.739 80.0871L227.729 80.1198L227.713 80.1474L227.685 80.1676L227.667 80.1955L227.659 80.2279L227.639 80.2541L227.623 80.2817L227.598 80.3045L227.579 80.3315L227.564 80.36L227.543 80.3862L227.534 80.4189L227.508 80.4408L227.497 80.4727L227.479 80.4986L227.459 80.5256L227.441 80.5515L227.419 80.576L227.408 80.6079L227.386 80.6312L227.368 80.6591L227.358 80.6918L227.34 80.7177L227.321 80.7447L227.295 80.7667L227.284 80.7985L227.263 80.8219L227.247 80.8515L227.226 80.8757L227.209 80.9044L227.197 80.9354L227.179 80.9614L227.163 80.9909L227.14 81.0134L227.125 81.0438L227.107 81.0698L227.089 81.0976L227.071 81.1244L227.048 81.148L227.028 81.1731L227.018 81.205L226.995 81.2294L226.976 81.2565L226.967 81.2881L226.949 81.3159L226.921 81.3362L226.908 81.3663L226.885 81.3908L226.871 81.4201L226.852 81.4471L226.838 81.4765L226.815 81.5001L226.797 81.5269L226.785 81.5579L226.767 81.5857L226.749 81.6117L226.731 81.6395L226.711 81.6646L226.693 81.6925L226.679 81.7218L226.664 81.7502L226.636 81.7705L226.619 81.7992L226.602 81.826L226.593 81.8595L226.571 81.884L226.554 81.9116L226.535 81.9386L226.517 81.9645L226.495 81.9899L226.486 82.0226L226.461 82.0454L226.45 82.0772L226.423 82.0983L226.409 82.1276L226.39 82.1527L226.377 82.1848L226.355 82.2073L226.337 82.236L226.323 82.2653L226.306 82.2921L226.283 82.3157L226.274 82.3493L226.255 82.3763L226.229 82.3982L226.216 82.4284L226.202 82.4577L226.18 82.4822L226.161 82.5081L226.146 82.5366L226.125 82.5619L226.103 82.5872L226.092 82.6191L226.076 82.6467L226.057 82.6718L226.04 82.7005L226.016 82.7241L226.002 82.7534L225.987 82.7819L225.966 82.8072L225.946 82.8323L225.926 82.8585L225.918 82.8929L225.897 82.9162L225.88 82.945L225.855 82.9677L225.842 82.9979L225.828 83.0272L225.803 83.05L225.793 83.0818L225.773 83.1089L225.756 83.1356L225.741 83.1641L225.714 83.1852L225.703 83.217L225.684 83.2441L225.66 83.2677L225.646 83.297L225.631 83.3255L225.607 83.3483L225.599 83.3826L225.577 83.4071L225.557 83.4322L225.541 83.4618L225.527 83.4911L225.51 83.5178L225.491 83.5449L225.473 83.5716L225.449 83.5944L225.428 83.6206L225.418 83.6524L225.401 83.6801L225.385 83.7096L225.357 83.7299L225.342 83.7583L225.33 83.7893L225.311 83.8163L225.294 83.8431L225.274 83.8693L225.26 83.8986L225.238 83.9239L225.215 83.9475L225.197 83.9743L225.187 84.0062L225.168 84.034L225.143 84.056L225.132 84.0878L225.11 84.1112L225.099 84.1431L225.075 84.1658L225.063 84.1969L225.042 84.2222L225.025 84.2509L225.005 84.276L224.991 84.3053L224.97 84.3306L224.951 84.3585L224.939 84.3886L224.921 84.4154L224.903 84.4433L224.883 84.4694L224.86 84.492L224.849 84.5238L224.828 84.5491L224.809 84.5762L224.796 84.6033Z"/>
</mask>
<path d="M224.796 84.6033L224.822 84.6178L224.849 84.637L224.872 84.6587L224.901 84.6727L224.923 84.6985L224.953 84.7144L224.981 84.7295L225.007 84.7509L225.035 84.766L225.06 84.7874L225.092 84.7982L225.118 84.8166L225.142 84.8402L225.169 84.8564L225.199 84.8723L225.225 84.8907L225.253 84.9058L225.284 84.9187L225.306 84.9434L225.336 84.9563L225.363 84.9767L225.389 84.9939L225.421 85.0077L225.447 85.025L225.474 85.0423L225.502 85.0604L225.521 85.0895L225.553 85.1002L225.578 85.1227L225.609 85.1346L225.635 85.1529L225.661 85.1733L225.691 85.1862L225.712 85.213L225.745 85.2227L225.772 85.24L225.799 85.2581L225.823 85.2817L225.854 85.2936L225.882 85.3087L225.905 85.3333L225.935 85.3463L225.962 85.3636L225.984 85.3893L226.016 85.4001L226.045 85.4171L226.072 85.4333L226.098 85.4536L226.126 85.4698L226.153 85.4871L226.18 85.5063L226.207 85.5236L226.23 85.5472L226.256 85.5675L226.285 85.5827L226.311 85.603L226.341 85.6159L226.368 85.6332L226.398 85.6481L226.419 85.676L226.445 85.6933L226.474 85.7084L226.506 85.7191L226.531 85.7406L226.555 85.7641L226.586 85.776L226.609 85.7996L226.643 85.8081L226.67 85.8243L226.69 85.8534L226.721 85.8652L226.745 85.8877L226.777 85.8985L226.806 85.9136L226.832 85.9339L226.86 85.949L226.882 85.9748L226.911 85.9899L226.936 86.0113L226.965 86.0253L226.994 86.0423L227.021 86.0585L227.05 86.0736L227.074 86.0961L227.102 86.1143L227.128 86.1327L227.153 86.1552L227.185 86.1659L227.208 86.1895L227.235 86.2068L227.263 86.223L227.294 86.2337L227.318 86.2573L227.346 86.2755L227.371 86.2949L227.4 86.3089L227.426 86.3293L227.455 86.3444L227.478 86.369L227.512 86.3765L227.534 86.4023L227.567 86.4109L227.593 86.4292L227.619 86.4506L227.648 86.4647L227.669 86.4915L227.698 86.5055L227.723 86.528L227.75 86.5453L227.781 86.5591L227.803 86.5818L227.835 86.5956L227.86 86.6151L227.886 86.6354L227.916 86.6483L227.944 86.6645L227.972 86.6816L227.997 86.701L228.028 86.7129L228.051 86.7376L228.082 86.7494L228.111 86.7664L228.131 86.7944L228.159 86.8106L228.186 86.8298L228.213 86.8471L228.246 86.8557L228.274 86.8738L228.295 86.9007L228.322 86.918L228.354 86.9287L228.382 86.9438L228.41 86.962L228.429 86.991L228.46 87.0028L228.487 87.0231L228.511 87.0437L228.542 87.0575L228.573 87.0693L228.597 87.0899L228.623 87.1102L228.654 87.122L228.68 87.1434L228.702 87.1692L228.737 87.1756L228.761 87.1962L228.784 87.2208L228.813 87.2349L228.838 87.2574L228.872 87.2648L228.893 87.2917L228.926 87.3013L228.954 87.3195L228.977 87.3411L229.002 87.3625L229.032 87.3766L229.058 87.3969L229.09 87.4076L229.113 87.4312L229.139 87.4496L229.167 87.4677L229.197 87.4807L229.223 87.501L229.249 87.5224L229.279 87.5353L229.304 87.5567L229.329 87.5762L229.359 87.5891L229.373 87.5609L229.395 87.5364L229.408 87.5063L229.433 87.4835L229.443 87.4516L229.464 87.4254L229.48 87.3978L229.5 87.3717L229.519 87.3457L229.54 87.3204L229.555 87.2919L229.579 87.2683L229.591 87.2373L229.604 87.2072L229.629 87.1852L229.646 87.1576L229.665 87.1306L229.68 87.1021L229.702 87.0776L229.721 87.0517L229.73 87.019L229.754 86.9954L229.769 86.9669L229.786 86.9382L229.805 86.9123L229.825 86.8861L229.843 86.8602L229.86 86.8315L229.88 86.8064L229.887 86.772L229.915 86.7518L229.927 86.7208L229.943 86.6931L229.968 86.6704L229.979 86.6385L230 86.6132L230.012 86.5822L230.036 86.5585L230.055 86.5335L230.075 86.5073L230.091 86.4788L230.108 86.4501L230.119 86.4191L230.144 86.3963L230.16 86.3687L230.174 86.3394L230.2 86.3175L230.209 86.2839L230.229 86.2577L230.246 86.231L230.271 86.2082L230.283 86.1772L230.304 86.1519L230.322 86.1251L230.333 86.0941L230.355 86.0688L230.374 86.0437L230.389 86.0133L230.411 85.9899L230.426 85.9595L230.441 85.931L230.46 85.9059L230.477 85.8772L230.492 85.8488L230.518 85.8268L230.53 85.7958L230.548 85.768L230.564 85.7403L230.581 85.7127L230.603 85.6882L230.626 85.6638L230.636 85.6319L230.653 85.6043L230.678 85.5824L230.695 85.5537L230.712 85.526L230.728 85.4984L230.75 85.4739L230.763 85.4438L230.777 85.4145L230.795 85.3866L230.818 85.3621L230.835 85.3354L230.847 85.3043L230.874 85.2833L230.885 85.2514L230.902 85.2227L230.927 85.2008L230.937 85.17L230.957 85.143L230.979 85.1185L230.991 85.0875L231.017 85.0656L231.023 85.0323L231.047 85.0086L231.072 84.9858L231.08 84.9523L231.097 84.9255L231.115 84.8968L231.139 84.874L231.154 84.8456L231.169 84.8171L231.186 84.7895L231.213 84.7673L231.223 84.7365L231.246 84.7121L231.259 84.6819L231.277 84.654L231.296 84.629L231.316 84.602L231.337 84.5766L231.35 84.5465L231.367 84.5197L231.388 84.4935L231.397 84.4608L231.426 84.4414L231.439 84.4113L231.456 84.3845L231.478 84.3592L231.496 84.3313L231.507 84.2995L231.528 84.2761L231.543 84.2457L231.558 84.2172L231.585 84.1961L231.605 84.1691L231.611 84.1358L231.628 84.1071L231.657 84.0877L231.667 84.055L231.694 84.0339L231.711 84.0071L231.728 83.9784L231.744 83.9508L231.753 83.9173L231.774 83.8919L231.796 83.8685L231.811 83.8381L231.829 83.8122L231.847 83.7844L231.861 83.755L231.887 83.7331L231.902 83.7046L231.914 83.6736L231.933 83.6466L231.953 83.6196L231.972 83.5945L231.995 83.57L232.002 83.5357L232.022 83.5106L232.042 83.4844L232.061 83.4574L232.075 83.4281L232.1 83.4053L232.116 83.3777L232.129 83.3475L232.151 83.323L232.162 83.2912L232.181 83.2642L232.204 83.2397L232.22 83.2121L232.235 83.1836L232.254 83.1566L232.28 83.1347L232.294 83.1053L232.31 83.0758L232.327 83.049L232.351 83.0215L232.32 83.0047L232.291 82.9877L232.267 82.9671L232.237 82.9511L232.211 82.9339L232.184 82.9146L232.158 82.8963L232.131 82.879L232.104 82.8597L232.075 82.8457L232.049 82.8254L232.023 82.807L231.997 82.7856L231.965 82.7749L231.941 82.7524L231.914 82.7351L231.887 82.7159L231.861 82.6975L231.833 82.6793L231.801 82.6716L231.776 82.6502L231.748 82.634L231.726 82.6082L231.691 82.6019L231.669 82.5761L231.642 82.5588L231.614 82.5407L231.582 82.5299L231.557 82.5115L231.53 82.4912L231.508 82.4654L231.475 82.4569L231.447 82.4407L231.425 82.4149L231.398 82.3968L231.368 82.3828L231.344 82.3622L231.313 82.3504L231.29 82.3257L231.261 82.3086L231.236 82.2903L231.207 82.2751L231.183 82.2527L231.155 82.2345L231.122 82.2249L231.094 82.2098L231.069 82.1873L231.042 82.17L231.016 82.1516L230.992 82.1291L230.963 82.1151L230.936 82.0958L230.906 82.0818L230.882 82.0593L230.854 82.0431L230.826 82.0261L230.798 82.0099L230.772 81.9896L230.747 81.9701L230.713 81.9615L230.69 81.9368L230.659 81.9261L230.633 81.9047L230.612 81.8809L230.585 81.8616L230.555 81.8476L230.528 81.8284L230.5 81.8133L230.471 81.7982L230.442 81.7822L230.419 81.7575L230.391 81.7413L230.365 81.721L230.34 81.7016L230.31 81.6886L230.278 81.6779L230.258 81.6499L230.228 81.634L230.196 81.6243L230.171 81.6038L230.143 81.5867L230.116 81.5694L230.09 81.5491L230.064 81.5307L230.04 81.5071L230.013 81.4909L229.982 81.4791L229.956 81.4577L229.93 81.4374L229.898 81.4266L229.871 81.4104L229.844 81.3931L229.82 81.3696L229.795 81.3481L229.767 81.333L229.736 81.3201L229.708 81.3031L229.682 81.2847L229.66 81.2589L229.631 81.2438L229.602 81.2278L229.579 81.2051L229.548 81.1913L229.525 81.1697L229.495 81.1557L229.467 81.1386L229.442 81.1181L229.411 81.1073L229.385 81.0859L229.356 81.0719L229.33 81.0516L229.303 81.0343L229.279 81.0107L229.248 80.9999L229.225 80.9753L229.195 80.9612L229.165 80.9483L229.142 80.9247L229.112 80.9088L229.088 80.8882L229.057 80.8764L229.031 80.8561L229.005 80.8357L228.977 80.8195L228.947 80.8066L228.922 80.7841L228.897 80.7627L228.865 80.752L228.839 80.7336L228.815 80.7111L228.788 80.6938L228.761 80.6746L228.729 80.6638L228.702 80.6465L228.676 80.6262L228.649 80.607L228.622 80.5897L228.595 80.5705L228.572 80.5488L228.542 80.534L228.518 80.5123L228.486 80.5027L228.458 80.4845L228.432 80.4631L228.406 80.4447L228.377 80.4307L228.349 80.4126L228.323 80.3942L228.293 80.3793L228.27 80.3546L228.24 80.3417L228.217 80.317L228.188 80.303L228.16 80.2868L228.136 80.2643L228.103 80.2547L228.08 80.23L228.052 80.2149L228.022 80.1989L228.001 80.1732L227.966 80.1657L227.94 80.1473L227.917 80.1226L227.885 80.113L227.86 80.0905L227.833 80.0732L227.806 80.054L227.78 80.0425L227.758 80.0601L227.739 80.0871L227.729 80.1198L227.713 80.1474L227.685 80.1676L227.667 80.1955L227.659 80.2279L227.639 80.2541L227.623 80.2817L227.598 80.3045L227.579 80.3315L227.564 80.36L227.543 80.3862L227.534 80.4189L227.508 80.4408L227.497 80.4727L227.479 80.4986L227.459 80.5256L227.441 80.5515L227.419 80.576L227.408 80.6079L227.386 80.6312L227.368 80.6591L227.358 80.6918L227.34 80.7177L227.321 80.7447L227.295 80.7667L227.284 80.7985L227.263 80.8219L227.247 80.8515L227.226 80.8757L227.209 80.9044L227.197 80.9354L227.179 80.9614L227.163 80.9909L227.14 81.0134L227.125 81.0438L227.107 81.0698L227.089 81.0976L227.071 81.1244L227.048 81.148L227.028 81.1731L227.018 81.205L226.995 81.2294L226.976 81.2565L226.967 81.2881L226.949 81.3159L226.921 81.3362L226.908 81.3663L226.885 81.3908L226.871 81.4201L226.852 81.4471L226.838 81.4765L226.815 81.5001L226.797 81.5269L226.785 81.5579L226.767 81.5857L226.749 81.6117L226.731 81.6395L226.711 81.6646L226.693 81.6925L226.679 81.7218L226.664 81.7502L226.636 81.7705L226.619 81.7992L226.602 81.826L226.593 81.8595L226.571 81.884L226.554 81.9116L226.535 81.9386L226.517 81.9645L226.495 81.9899L226.486 82.0226L226.461 82.0454L226.45 82.0772L226.423 82.0983L226.409 82.1276L226.39 82.1527L226.377 82.1848L226.355 82.2073L226.337 82.236L226.323 82.2653L226.306 82.2921L226.283 82.3157L226.274 82.3493L226.255 82.3763L226.229 82.3982L226.216 82.4284L226.202 82.4577L226.18 82.4822L226.161 82.5081L226.146 82.5366L226.125 82.5619L226.103 82.5872L226.092 82.6191L226.076 82.6467L226.057 82.6718L226.04 82.7005L226.016 82.7241L226.002 82.7534L225.987 82.7819L225.966 82.8072L225.946 82.8323L225.926 82.8585L225.918 82.8929L225.897 82.9162L225.88 82.945L225.855 82.9677L225.842 82.9979L225.828 83.0272L225.803 83.05L225.793 83.0818L225.773 83.1089L225.756 83.1356L225.741 83.1641L225.714 83.1852L225.703 83.217L225.684 83.2441L225.66 83.2677L225.646 83.297L225.631 83.3255L225.607 83.3483L225.599 83.3826L225.577 83.4071L225.557 83.4322L225.541 83.4618L225.527 83.4911L225.51 83.5178L225.491 83.5449L225.473 83.5716L225.449 83.5944L225.428 83.6206L225.418 83.6524L225.401 83.6801L225.385 83.7096L225.357 83.7299L225.342 83.7583L225.33 83.7893L225.311 83.8163L225.294 83.8431L225.274 83.8693L225.26 83.8986L225.238 83.9239L225.215 83.9475L225.197 83.9743L225.187 84.0062L225.168 84.034L225.143 84.056L225.132 84.0878L225.11 84.1112L225.099 84.1431L225.075 84.1658L225.063 84.1969L225.042 84.2222L225.025 84.2509L225.005 84.276L224.991 84.3053L224.97 84.3306L224.951 84.3585L224.939 84.3886L224.921 84.4154L224.903 84.4433L224.883 84.4694L224.86 84.492L224.849 84.5238L224.828 84.5491L224.809 84.5762L224.796 84.6033Z" fill="#D9FFEF" stroke="black" stroke-width="2" mask="url(#path-14-inside-1_459_9824)"/>
<path d="M9.66218 94.7688L9.67828 94.7583L9.6976 94.7484L9.71724 94.7412L9.73422 94.7284L9.75583 94.7233L9.774 94.7109L9.79136 94.6988L9.81144 94.6905L9.82879 94.6784L9.84888 94.6701L9.86471 94.6548L9.88321 94.6452L9.90405 94.6385L9.92179 94.6273L9.93996 94.6148L9.95846 94.6052L9.97582 94.5932L9.99241 94.5795L10.0136 94.5736L10.0302 94.5599L10.0499 94.5508L10.0681 94.5403L10.0855 94.5263L10.1036 94.5158L10.1217 94.5054L10.1406 94.4946L10.1634 94.4921L10.1792 94.4767L10.1997 94.4692L10.2159 94.4547L10.2344 94.4451L10.2541 94.4359L10.2707 94.4222L10.2927 94.418L10.3081 94.4019L10.3262 94.3914L10.3452 94.3806L10.366 94.374L10.3822 94.3594L10.3996 94.3474L10.4208 94.3415L10.4374 94.3278L10.4555 94.3174L10.4771 94.3124L10.493 94.297L10.5115 94.2854L10.5293 94.2742L10.549 94.265L10.5667 94.2538L10.5848 94.2434L10.6041 94.2334L10.6223 94.223L10.6431 94.2163L10.6628 94.2071L10.6802 94.1951L10.6999 94.1859L10.7165 94.1722L10.7346 94.1618L10.7524 94.1486L10.7747 94.1451L10.7929 94.1347L10.8102 94.1227L10.826 94.1073L10.8461 94.099L10.867 94.0923L10.8832 94.0778L10.904 94.0711L10.9191 94.0541L10.9368 94.0429L10.9596 94.0403L10.9758 94.0258L10.9963 94.0183L11.0121 94.0029L11.0294 93.9909L11.0491 93.9817L11.0665 93.9697L11.0881 93.9646L11.1055 93.9526L11.1255 93.9442L11.1425 93.9314L11.1611 93.9197L11.1788 93.9085L11.1962 93.8965L11.2166 93.8889L11.2356 93.8781L11.2541 93.8686L11.2745 93.861L11.2904 93.8457L11.3112 93.839L11.3293 93.8286L11.3471 93.8174L11.3629 93.802L11.3837 93.7953L11.4027 93.7845L11.4216 93.7758L11.4385 93.7629L11.4582 93.7537L11.4756 93.7417L11.4968 93.7358L11.5115 93.718L11.5331 93.713L11.5482 93.696L11.5667 93.6864L11.5868 93.6781L11.6037 93.6652L11.6257 93.661L11.6427 93.6481L11.6632 93.6406L11.6813 93.6302L11.6987 93.6161L11.7187 93.6098L11.7361 93.5957L11.755 93.5869L11.7747 93.5778L11.7913 93.5641L11.809 93.5528L11.8276 93.5412L11.8465 93.5324L11.8627 93.5179L11.8839 93.5121L11.9001 93.4975L11.9187 93.4859L11.9411 93.4825L11.9588 93.4713L11.9781 93.4613L11.9962 93.4509L12.0113 93.4339L12.0302 93.4231L12.0522 93.4189L12.0703 93.4085L12.0862 93.3931L12.1035 93.3811L12.1225 93.3703L12.1452 93.3677L12.1614 93.3532L12.1811 93.344L12.2004 93.3361L12.2178 93.322L12.234 93.3075L12.2533 93.2995L12.273 93.2904L12.2892 93.2759L12.3093 93.2675L12.3309 93.2625L12.3452 93.2439L12.3645 93.2359L12.3857 93.23L12.4027 93.2172L12.4231 93.2097L12.4378 93.1918L12.4598 93.1876L12.4752 93.1715L12.4942 93.1607L12.5138 93.1535L12.5339 93.1452L12.5509 93.1323L12.5706 93.1232L12.5864 93.1078L12.6073 93.1011L12.6258 93.0916L12.6447 93.0808L12.6613 93.0671L12.681 93.0579L12.7011 93.0496L12.7177 93.0359L12.7378 93.0275L12.7566 93.0188L12.7732 93.0051L12.7607 92.9889L12.7532 92.9685L12.7395 92.9519L12.7336 92.9306L12.7183 92.9148L12.7091 92.8951L12.6979 92.8773L12.6888 92.8576L12.6792 92.8391L12.6708 92.819L12.6588 92.8017L12.6521 92.7808L12.6376 92.7646L12.6239 92.748L12.6188 92.7264L12.6076 92.7087L12.5976 92.6893L12.5855 92.672L12.578 92.6515L12.5684 92.633L12.5523 92.6176L12.5456 92.5967L12.5335 92.5793L12.5219 92.5608L12.5123 92.5423L12.5032 92.5226L12.4936 92.5041L12.4819 92.4855L12.4732 92.4666L12.4554 92.4519L12.452 92.4296L12.4374 92.4133L12.4262 92.3956L12.4203 92.3744L12.405 92.3585L12.3967 92.3384L12.3821 92.3222L12.3754 92.3014L12.3667 92.2825L12.3575 92.2628L12.3455 92.2454L12.3338 92.2269L12.3193 92.2106L12.3135 92.1894L12.3022 92.1717L12.2893 92.1547L12.2843 92.1331L12.2673 92.118L12.2581 92.0983L12.2477 92.0802L12.2419 92.059L12.2273 92.0427L12.219 92.0226L12.2086 92.0045L12.1941 91.9883L12.1857 91.9682L12.177 91.9493L12.1637 91.9315L12.1566 91.9119L12.1433 91.8941L12.1313 91.8767L12.1225 91.8578L12.1109 91.8393L12.0988 91.8219L12.0938 91.8003L12.0792 91.7841L12.0684 91.7651L12.0572 91.7474L12.046 91.7297L12.0385 91.7092L12.0309 91.6887L12.0156 91.6729L12.0044 91.6552L11.9993 91.6335L11.9877 91.615L11.9765 91.5972L11.9652 91.5795L11.9577 91.559L11.944 91.5424L11.9311 91.5255L11.9203 91.5065L11.9128 91.486L11.9024 91.4679L11.8879 91.4517L11.8837 91.4297L11.8683 91.4139L11.8567 91.3953L11.8517 91.3737L11.8367 91.3587L11.8267 91.3394L11.8192 91.3189L11.8047 91.3027L11.7996 91.2811L11.7822 91.2672L11.7755 91.2463L11.7697 91.2251L11.7527 91.21L11.7423 91.1919L11.7306 91.1734L11.7248 91.1521L11.7127 91.1348L11.7007 91.1174L11.6894 91.0997L11.6848 91.0768L11.6698 91.0618L11.6623 91.0414L11.6486 91.0248L11.6378 91.0058L11.6291 90.9869L11.6191 90.9676L11.6108 90.9475L11.5971 90.9309L11.5866 90.9128L11.5775 90.8931L11.5613 90.8776L11.5587 90.8549L11.545 90.8383L11.5346 90.8202L11.5263 90.8001L11.5155 90.7811L11.5001 90.7653L11.493 90.7457L11.4798 90.7279L11.4677 90.7105L11.4635 90.6885L11.4535 90.6692L11.4361 90.6553L11.4245 90.6367L11.4219 90.614L11.4057 90.5985L11.4015 90.5765L11.3911 90.5584L11.3794 90.5399L11.3682 90.5221L11.3512 90.507L11.3429 90.487L11.3358 90.4673L11.3225 90.4495L11.3129 90.431L11.3021 90.4121L11.2892 90.3951L11.2842 90.3735L11.2721 90.3561L11.2576 90.3399L11.2476 90.3206L11.2377 90.3012L11.2289 90.2824L11.2214 90.2619L11.2036 90.2472L11.1948 90.2283L11.1856 90.2086L11.1757 90.1893L11.1628 90.1723L11.1569 90.1511L11.1457 90.1333L11.132 90.1167L11.1245 90.0963L11.1091 90.0804L11.0991 90.0611L11.0916 90.0406L11.0804 90.0229L11.0683 90.0055L11.0584 89.9862L11.0533 89.9646L11.0404 89.9476L11.028 89.9294L11.0176 89.9113L11.0085 89.8896L10.9895 89.9024L10.9709 89.914L10.9517 89.922L10.9335 89.9344L10.9154 89.9448L10.8961 89.9548L10.8776 89.9644L10.8594 89.9748L10.8401 89.9848L10.8231 89.9977L10.8034 90.0068L10.7849 90.0164L10.7649 90.0247L10.749 90.0401L10.7286 90.0476L10.7104 90.058L10.6911 90.068L10.6726 90.0776L10.6537 90.0884L10.6394 90.105L10.6194 90.1133L10.6016 90.1245L10.58 90.1296L10.5657 90.1482L10.5441 90.1532L10.526 90.1637L10.507 90.1744L10.4912 90.1898L10.4727 90.1994L10.453 90.2085L10.4314 90.2136L10.4163 90.2306L10.3986 90.2418L10.377 90.2468L10.3581 90.2576L10.3411 90.2705L10.3218 90.2785L10.3056 90.293L10.2844 90.2989L10.2658 90.3105L10.2473 90.3201L10.23 90.3321L10.2095 90.3396L10.1906 90.3504L10.1751 90.3666L10.1578 90.3786L10.1373 90.3862L10.1192 90.3966L10.1007 90.4062L10.0802 90.4137L10.0632 90.4265L10.0439 90.4365L10.0269 90.4494L10.0065 90.4569L9.98875 90.4681L9.97019 90.4798L9.95245 90.491L9.93275 90.5001L9.91387 90.5089L9.89881 90.5259L9.87758 90.5318L9.86175 90.5471L9.84167 90.5554L9.82126 90.5609L9.80194 90.5709L9.78497 90.5838L9.76564 90.5938L9.74829 90.6058L9.73093 90.6179L9.71276 90.6303L9.69153 90.6362L9.6738 90.6474L9.65409 90.6566L9.63521 90.6653L9.61862 90.679L9.60279 90.6944L9.58042 90.6978L9.56224 90.7102L9.5468 90.7264L9.52753 90.7343L9.50898 90.7459L9.49086 90.7563L9.47116 90.7655L9.45266 90.7751L9.43181 90.7818L9.41407 90.793L9.39786 90.8075L9.37778 90.8159L9.35808 90.825L9.34225 90.8404L9.32451 90.8516L9.3064 90.862L9.28555 90.8687L9.26547 90.877L9.24811 90.8891L9.23152 90.9028L9.21296 90.9144L9.19446 90.924L9.17285 90.929L9.1555 90.9411L9.13732 90.9535L9.1173 90.9598L9.09988 90.9739L9.08024 90.981L9.06327 90.9939L9.04471 91.0055L9.02545 91.0135L9.00962 91.0288L8.98954 91.0372L8.97256 91.05L8.95286 91.0592L8.93474 91.0696L8.9139 91.0763L8.89807 91.0916L8.87684 91.0975L8.85987 91.1104L8.84327 91.1241L8.82243 91.1308L8.80425 91.1432L8.78499 91.1512L8.76878 91.1657L8.74908 91.1748L8.72938 91.184L8.71164 91.1952L8.69505 91.2089L8.67458 91.2164L8.6545 91.2248L8.63867 91.2401L8.62017 91.2497L8.59971 91.2572L8.58159 91.2676L8.56227 91.2776L8.54644 91.2929L8.52832 91.3033L8.50862 91.3125L8.4893 91.3225L8.47118 91.3329L8.45186 91.3429L8.43222 91.35L8.41442 91.3632L8.39478 91.3704L8.37933 91.3865L8.36039 91.3973L8.34031 91.4057L8.32181 91.4153L8.30484 91.4281L8.2859 91.4389L8.2674 91.4485L8.2496 91.4618L8.22838 91.4676L8.21178 91.4813L8.19056 91.4872L8.17358 91.5001L8.15585 91.5113L8.13538 91.5188L8.11993 91.535L8.09871 91.5409L8.08135 91.5529L8.06318 91.5654L8.04157 91.5704L8.02688 91.5882L8.00838 91.5978L7.98716 91.6037L7.97171 91.6198L7.95124 91.6273L7.93312 91.6378L7.9138 91.6477L7.89929 91.6595L7.90282 91.6778L7.91279 91.6971L7.92896 91.7126L7.94019 91.7303L7.9436 91.7527L7.9544 91.7716L7.971 91.7859L7.98015 91.8056L7.99139 91.8233L7.99726 91.8446L8.00724 91.8639L8.01929 91.8812L8.02845 91.9009L8.04461 91.9164L8.04966 91.938L8.065 91.9538L8.0746 91.9724L8.08457 91.9917L8.09417 92.0102L8.10168 92.0306L8.11702 92.0465L8.12415 92.0661L8.13495 92.0851L8.15111 92.1005L8.1607 92.119L8.17068 92.1384L8.17573 92.16L8.19107 92.1758L8.1982 92.1955L8.21064 92.2136L8.21859 92.2329L8.23021 92.2515L8.24473 92.2677L8.25432 92.2862L8.26676 92.3044L8.27307 92.3244L8.28633 92.3422L8.29593 92.3607L8.30672 92.3796L8.31714 92.3978L8.32383 92.4186L8.33261 92.4375L8.34795 92.4533L8.35546 92.4738L8.36543 92.4931L8.38122 92.5078L8.39201 92.5267L8.39542 92.5491L8.40912 92.5657L8.41663 92.5861L8.42951 92.6031L8.43949 92.6224L8.45236 92.6394L8.45906 92.6603L8.46947 92.6784L8.48399 92.6946L8.49479 92.7136L8.50438 92.7321L8.51518 92.751L8.52395 92.7699L8.53475 92.7888L8.54763 92.8058L8.55968 92.8232L8.56309 92.8455L8.57471 92.8641L8.58513 92.8822L8.60211 92.8973L8.60962 92.9178L8.62086 92.9355L8.63083 92.9548L8.64043 92.9733L8.64876 92.9934L8.66492 93.0089L8.67079 93.0301L8.68614 93.0459L8.69036 93.0679L8.70324 93.0849L8.71202 93.1038L8.72692 93.1208L8.73323 93.1409L8.74485 93.1594L8.75772 93.1764L8.76814 93.1945L8.77483 93.2154L8.79181 93.2305L8.80179 93.2498L8.80684 93.2714L8.82054 93.288L8.83342 93.305L8.84093 93.3254L8.85052 93.3439L8.86258 93.3613L8.87091 93.3814L8.87925 93.4015L8.89459 93.4173L8.90583 93.4351L8.9146 93.4539L8.92622 93.4725L8.93291 93.4934L8.94579 93.5103L8.95784 93.5277L8.96618 93.5478L8.97495 93.5667L8.98411 93.5864L9.00191 93.6011L9.00904 93.6207L9.02066 93.6393L9.02653 93.6605L9.04023 93.6771L9.05311 93.6941L9.05898 93.7153L9.07432 93.7311L9.0843 93.7505L9.09471 93.7686L9.10677 93.786L9.111 93.8079L9.12634 93.8238L9.13631 93.8431L9.14301 93.864L9.15588 93.8809L9.16794 93.8983L9.17381 93.9195L9.19162 93.9342L9.19913 93.9547L9.2079 93.9736L9.22034 93.9918L9.23322 94.0087L9.24363 94.0269L9.25361 94.0462L9.26402 94.0643L9.2699 94.0855L9.27905 94.1052L9.29439 94.1211L9.30563 94.1388L9.31807 94.157L9.32147 94.1794L9.33353 94.1967L9.34805 94.2129L9.35803 94.2323L9.36844 94.2504L9.3776 94.2701L9.39048 94.2871L9.39881 94.3072L9.4055 94.328L9.41592 94.3461L9.43126 94.362L9.44205 94.3809L9.4471 94.4025L9.46245 94.4184L9.46958 94.438L9.48492 94.4538L9.49079 94.4751L9.50531 94.4913L9.51364 94.5114L9.52526 94.5299L9.53403 94.5488L9.54691 94.5658L9.55525 94.5859L9.56604 94.6048L9.57974 94.6214L9.59016 94.6396L9.60095 94.6585L9.61011 94.6782L9.61642 94.6982L9.63176 94.7141L9.64009 94.7342L9.65007 94.7535L9.66218 94.7688Z" fill="#D9FFEF"/>
<path d="M232.963 70.271L232.98 70.2605L232.999 70.2506L233.019 70.2434L233.035 70.2306L233.057 70.2255L233.075 70.2131L233.093 70.201L233.113 70.1927L233.13 70.1806L233.15 70.1723L233.166 70.157L233.184 70.1474L233.205 70.1407L233.223 70.1295L233.241 70.117L233.26 70.1074L233.277 70.0954L233.294 70.0817L233.315 70.0758L233.332 70.0621L233.351 70.0529L233.369 70.0425L233.387 70.0285L233.405 70.018L233.423 70.0076L233.442 69.9968L233.465 69.9942L233.48 69.9789L233.501 69.9714L233.517 69.9569L233.536 69.9473L233.555 69.9381L233.572 69.9244L233.594 69.9202L233.609 69.904L233.628 69.8936L233.646 69.8828L233.667 69.8762L233.684 69.8616L233.701 69.8496L233.722 69.8437L233.739 69.83L233.757 69.8196L233.778 69.8145L233.794 69.7992L233.813 69.7876L233.831 69.7764L233.85 69.7672L233.868 69.756L233.886 69.7456L233.905 69.7356L233.924 69.7252L233.944 69.7185L233.964 69.7093L233.981 69.6973L234.001 69.6881L234.018 69.6744L234.036 69.664L234.054 69.6507L234.076 69.6473L234.094 69.6369L234.111 69.6249L234.127 69.6095L234.147 69.6012L234.168 69.5945L234.184 69.58L234.205 69.5733L234.22 69.5563L234.238 69.5451L234.261 69.5425L234.277 69.528L234.298 69.5205L234.313 69.5051L234.331 69.4931L234.35 69.4839L234.368 69.4719L234.389 69.4668L234.407 69.4548L234.427 69.4464L234.444 69.4336L234.462 69.4219L234.48 69.4107L234.497 69.3987L234.518 69.3911L234.537 69.3803L234.555 69.3708L234.576 69.3632L234.592 69.3479L234.612 69.3412L234.631 69.3308L234.648 69.3196L234.664 69.3042L234.685 69.2975L234.704 69.2867L234.723 69.278L234.74 69.2651L234.76 69.2559L234.777 69.2439L234.798 69.238L234.813 69.2202L234.834 69.2152L234.849 69.1982L234.868 69.1886L234.888 69.1803L234.905 69.1674L234.927 69.1632L234.944 69.1503L234.964 69.1428L234.983 69.1324L235 69.1183L235.02 69.112L235.037 69.0979L235.056 69.0891L235.076 69.08L235.093 69.0663L235.11 69.055L235.129 69.0434L235.148 69.0346L235.164 69.0201L235.185 69.0143L235.201 68.9997L235.22 68.9881L235.242 68.9847L235.26 68.9735L235.279 68.9635L235.298 68.9531L235.313 68.9361L235.332 68.9253L235.354 68.9211L235.372 68.9107L235.387 68.8953L235.405 68.8833L235.424 68.8725L235.446 68.8699L235.463 68.8554L235.482 68.8462L235.502 68.8383L235.519 68.8242L235.535 68.8097L235.555 68.8017L235.574 68.7926L235.59 68.7781L235.611 68.7697L235.632 68.7647L235.646 68.7461L235.666 68.7381L235.687 68.7322L235.704 68.7194L235.724 68.7118L235.739 68.694L235.761 68.6898L235.777 68.6737L235.795 68.6629L235.815 68.6557L235.835 68.6474L235.852 68.6345L235.872 68.6254L235.888 68.61L235.909 68.6033L235.927 68.5938L235.946 68.583L235.963 68.5693L235.982 68.5601L236.002 68.5518L236.019 68.5381L236.039 68.5297L236.058 68.521L236.074 68.5073L236.062 68.4911L236.054 68.4706L236.041 68.4541L236.035 68.4328L236.02 68.417L236.01 68.3973L235.999 68.3795L235.99 68.3598L235.98 68.3413L235.972 68.3212L235.96 68.3039L235.953 68.283L235.939 68.2668L235.925 68.2502L235.92 68.2286L235.909 68.2109L235.899 68.1915L235.887 68.1742L235.879 68.1537L235.87 68.1352L235.854 68.1198L235.847 68.0989L235.835 68.0815L235.823 68.063L235.814 68.0445L235.804 68.0248L235.795 68.0063L235.783 67.9877L235.774 67.9688L235.757 67.9541L235.753 67.9318L235.739 67.9155L235.727 67.8978L235.722 67.8766L235.706 67.8607L235.698 67.8406L235.683 67.8244L235.677 67.8036L235.668 67.7847L235.659 67.765L235.647 67.7476L235.635 67.7291L235.621 67.7128L235.615 67.6916L235.603 67.6739L235.591 67.6569L235.586 67.6353L235.569 67.6202L235.559 67.6005L235.549 67.5824L235.543 67.5611L235.529 67.5449L235.52 67.5248L235.51 67.5067L235.495 67.4905L235.487 67.4704L235.478 67.4515L235.465 67.4337L235.458 67.4141L235.445 67.3963L235.433 67.3789L235.424 67.36L235.412 67.3415L235.4 67.3241L235.395 67.3025L235.381 67.2863L235.37 67.2673L235.358 67.2496L235.347 67.2319L235.34 67.2114L235.332 67.1909L235.317 67.1751L235.306 67.1574L235.301 67.1357L235.289 67.1172L235.278 67.0994L235.266 67.0817L235.259 67.0612L235.245 67.0446L235.232 67.0276L235.222 67.0087L235.214 66.9882L235.204 66.9701L235.189 66.9539L235.185 66.9319L235.17 66.9161L235.158 66.8975L235.153 66.8759L235.138 66.8609L235.128 66.8416L235.12 66.8211L235.106 66.8049L235.101 66.7833L235.083 66.7694L235.077 66.7485L235.071 66.7273L235.054 66.7122L235.044 66.6941L235.032 66.6755L235.026 66.6543L235.014 66.637L235.002 66.6196L234.991 66.6019L234.986 66.579L234.971 66.564L234.964 66.5436L234.95 66.527L234.939 66.508L234.93 66.4891L234.92 66.4698L234.912 66.4497L234.898 66.4331L234.888 66.415L234.879 66.3953L234.863 66.3798L234.86 66.3571L234.846 66.3405L234.836 66.3224L234.828 66.3023L234.817 66.2833L234.801 66.2675L234.794 66.2479L234.781 66.2301L234.769 66.2127L234.765 66.1907L234.755 66.1714L234.737 66.1575L234.726 66.1389L234.723 66.1162L234.707 66.1007L234.703 66.0787L234.692 66.0606L234.681 66.0421L234.669 66.0243L234.652 66.0092L234.644 65.9892L234.637 65.9695L234.624 65.9517L234.614 65.9332L234.603 65.9143L234.591 65.8973L234.585 65.8757L234.573 65.8583L234.559 65.8421L234.549 65.8228L234.539 65.8034L234.53 65.7846L234.523 65.7641L234.505 65.7494L234.496 65.7305L234.487 65.7108L234.477 65.6915L234.464 65.6745L234.458 65.6533L234.447 65.6355L234.433 65.6189L234.426 65.5985L234.41 65.5826L234.4 65.5633L234.393 65.5428L234.382 65.5251L234.37 65.5077L234.36 65.4884L234.355 65.4668L234.342 65.4498L234.329 65.4316L234.319 65.4135L234.31 65.3918L234.291 65.4046L234.272 65.4162L234.253 65.4242L234.235 65.4366L234.217 65.447L234.197 65.457L234.179 65.4666L234.161 65.477L234.141 65.487L234.124 65.4998L234.105 65.509L234.086 65.5186L234.066 65.5269L234.05 65.5423L234.03 65.5498L234.012 65.5602L233.992 65.5702L233.974 65.5798L233.955 65.5906L233.941 65.6072L233.921 65.6155L233.903 65.6267L233.881 65.6318L233.867 65.6504L233.845 65.6554L233.827 65.6659L233.808 65.6766L233.792 65.692L233.774 65.7016L233.754 65.7107L233.733 65.7158L233.718 65.7328L233.7 65.744L233.678 65.749L233.659 65.7598L233.642 65.7727L233.623 65.7807L233.607 65.7952L233.586 65.8011L233.567 65.8127L233.549 65.8223L233.531 65.8343L233.511 65.8418L233.492 65.8526L233.476 65.8688L233.459 65.8808L233.439 65.8883L233.42 65.8988L233.402 65.9084L233.381 65.9159L233.365 65.9287L233.345 65.9387L233.328 65.9516L233.308 65.9591L233.29 65.9703L233.271 65.982L233.254 65.9932L233.234 66.0023L233.215 66.0111L233.2 66.0281L233.179 66.034L233.163 66.0493L233.143 66.0576L233.123 66.0631L233.103 66.0731L233.086 66.086L233.067 66.0959L233.05 66.108L233.032 66.1201L233.014 66.1325L232.993 66.1384L232.975 66.1496L232.955 66.1588L232.936 66.1675L232.92 66.1812L232.904 66.1966L232.882 66.2L232.864 66.2124L232.848 66.2286L232.829 66.2365L232.81 66.2481L232.792 66.2585L232.772 66.2677L232.754 66.2773L232.733 66.284L232.715 66.2952L232.699 66.3097L232.679 66.3181L232.659 66.3272L232.644 66.3426L232.626 66.3538L232.608 66.3642L232.587 66.3709L232.567 66.3792L232.549 66.3913L232.533 66.405L232.514 66.4166L232.496 66.4262L232.474 66.4312L232.457 66.4433L232.439 66.4557L232.419 66.462L232.401 66.4761L232.382 66.4832L232.365 66.4961L232.346 66.5077L232.327 66.5157L232.311 66.531L232.291 66.5394L232.274 66.5522L232.254 66.5614L232.236 66.5718L232.215 66.5785L232.199 66.5938L232.178 66.5997L232.161 66.6126L232.145 66.6263L232.124 66.633L232.106 66.6454L232.086 66.6534L232.07 66.6679L232.05 66.677L232.031 66.6862L232.013 66.6974L231.996 66.7111L231.976 66.7186L231.956 66.727L231.94 66.7423L231.921 66.7519L231.901 66.7594L231.883 66.7698L231.864 66.7798L231.848 66.7951L231.83 66.8055L231.81 66.8147L231.791 66.8247L231.772 66.8351L231.753 66.8451L231.733 66.8522L231.716 66.8654L231.696 66.8726L231.681 66.8887L231.662 66.8995L231.642 66.9079L231.623 66.9174L231.606 66.9303L231.587 66.9411L231.569 66.9507L231.551 66.964L231.53 66.9698L231.513 66.9835L231.492 66.9894L231.475 67.0023L231.457 67.0135L231.437 67.021L231.421 67.0372L231.4 67.0431L231.383 67.0551L231.364 67.0676L231.343 67.0726L231.328 67.0904L231.31 67.1L231.288 67.1059L231.273 67.122L231.253 67.1295L231.234 67.1399L231.215 67.1499L231.201 67.1617L231.204 67.18L231.214 67.1993L231.23 67.2148L231.241 67.2325L231.245 67.2549L231.256 67.2738L231.272 67.2881L231.281 67.3078L231.293 67.3255L231.299 67.3468L231.309 67.3661L231.321 67.3834L231.33 67.4031L231.346 67.4186L231.351 67.4402L231.366 67.456L231.376 67.4745L231.386 67.4939L231.395 67.5124L231.403 67.5328L231.418 67.5487L231.425 67.5683L231.436 67.5873L231.452 67.6027L231.462 67.6212L231.472 67.6406L231.477 67.6622L231.492 67.678L231.499 67.6976L231.512 67.7158L231.52 67.7351L231.531 67.7537L231.546 67.7699L231.556 67.7884L231.568 67.8066L231.574 67.8266L231.588 67.8444L231.597 67.8629L231.608 67.8818L231.618 67.9L231.625 67.9208L231.634 67.9397L231.649 67.9555L231.657 67.976L231.667 67.9953L231.682 68.01L231.693 68.0289L231.697 68.0513L231.71 68.0679L231.718 68.0883L231.731 68.1053L231.741 68.1246L231.754 68.1416L231.76 68.1625L231.771 68.1806L231.785 68.1968L231.796 68.2158L231.806 68.2343L231.816 68.2532L231.825 68.2721L231.836 68.291L231.849 68.308L231.861 68.3254L231.864 68.3477L231.876 68.3663L231.886 68.3844L231.903 68.3995L231.911 68.42L231.922 68.4377L231.932 68.457L231.942 68.4755L231.95 68.4956L231.966 68.5111L231.972 68.5323L231.987 68.5481L231.992 68.5701L232.005 68.5871L232.013 68.606L232.028 68.623L232.034 68.6431L232.046 68.6616L232.059 68.6786L232.069 68.6967L232.076 68.7176L232.093 68.7327L232.103 68.752L232.108 68.7736L232.122 68.7902L232.135 68.8072L232.142 68.8276L232.152 68.8461L232.164 68.8635L232.172 68.8836L232.181 68.9037L232.196 68.9195L232.207 68.9373L232.216 68.9561L232.227 68.9747L232.234 68.9956L232.247 69.0125L232.259 69.0299L232.267 69.05L232.276 69.0689L232.285 69.0886L232.303 69.1033L232.31 69.1229L232.322 69.1415L232.328 69.1627L232.341 69.1793L232.354 69.1963L232.36 69.2175L232.376 69.2333L232.386 69.2527L232.396 69.2708L232.408 69.2881L232.412 69.3101L232.428 69.326L232.438 69.3453L232.444 69.3662L232.457 69.3831L232.469 69.4005L232.475 69.4217L232.493 69.4364L232.5 69.4569L232.509 69.4758L232.522 69.4939L232.534 69.5109L232.545 69.529L232.555 69.5484L232.565 69.5665L232.571 69.5877L232.58 69.6074L232.596 69.6233L232.607 69.641L232.619 69.6592L232.623 69.6816L232.635 69.6989L232.649 69.7151L232.659 69.7345L232.67 69.7526L232.679 69.7723L232.692 69.7893L232.7 69.8094L232.707 69.8302L232.717 69.8483L232.733 69.8642L232.743 69.8831L232.748 69.9047L232.764 69.9206L232.771 69.9402L232.786 69.956L232.792 69.9773L232.807 69.9935L232.815 70.0136L232.827 70.0321L232.835 70.051L232.848 70.068L232.857 70.0881L232.867 70.107L232.881 70.1236L232.891 70.1418L232.902 70.1607L232.911 70.1804L232.918 70.2004L232.933 70.2163L232.941 70.2364L232.951 70.2557L232.963 70.271Z" fill="#D9FFEF"/>
<path d="M142.525 154.341L142.528 154.306L142.536 154.266L142.548 154.23L142.549 154.191L142.567 154.154L142.569 154.113L142.572 154.074L142.583 154.036L142.585 153.997L142.596 153.958L142.592 153.918L142.6 153.88L142.614 153.843L142.618 153.804L142.621 153.764L142.628 153.726L142.631 153.687L142.63 153.648L142.646 153.61L142.645 153.571L142.654 153.532L142.66 153.494L142.659 153.452L142.665 153.414L142.671 153.376L142.677 153.337L142.699 153.301L142.695 153.26L142.708 153.222L142.705 153.182L142.713 153.145L142.722 153.106L142.721 153.066L142.74 153.03L142.735 152.989L142.74 152.951L142.747 152.911L142.761 152.873L142.758 152.833L142.761 152.794L142.777 152.757L142.776 152.717L142.782 152.679L142.799 152.642L142.795 152.602L142.799 152.562L142.803 152.524L142.813 152.485L142.817 152.446L142.823 152.408L142.83 152.369L142.836 152.331L142.85 152.293L142.86 152.254L142.862 152.215L142.871 152.176L142.871 152.137L142.876 152.099L142.878 152.058L142.898 152.022L142.904 151.984L142.906 151.945L142.902 151.904L142.913 151.866L142.928 151.828L142.925 151.788L142.939 151.75L142.932 151.709L142.936 151.671L142.958 151.635L142.956 151.595L142.969 151.557L142.965 151.516L142.967 151.478L142.976 151.439L142.979 151.4L142.996 151.363L142.999 151.324L143.01 151.285L143.011 151.246L143.015 151.206L143.019 151.168L143.022 151.129L143.034 151.091L143.04 151.051L143.048 151.013L143.06 150.975L143.056 150.935L143.07 150.897L143.076 150.859L143.08 150.821L143.076 150.78L143.09 150.743L143.096 150.703L143.105 150.666L143.106 150.626L143.116 150.587L143.118 150.549L143.134 150.511L143.125 150.47L143.142 150.433L143.135 150.392L143.142 150.354L143.153 150.315L143.154 150.276L143.173 150.24L143.174 150.2L143.187 150.162L143.192 150.124L143.192 150.083L143.206 150.047L143.205 150.006L143.214 149.968L143.224 149.929L143.223 149.89L143.227 149.851L143.232 149.811L143.24 149.774L143.238 149.734L143.254 149.697L143.252 149.657L143.256 149.616L143.277 149.58L143.281 149.542L143.288 149.503L143.294 149.465L143.287 149.423L143.293 149.384L143.312 149.347L143.318 149.309L143.314 149.269L143.316 149.23L143.322 149.19L143.345 149.154L143.342 149.114L143.352 149.075L143.362 149.038L143.362 148.997L143.359 148.957L143.37 148.92L143.379 148.881L143.377 148.841L143.388 148.803L143.405 148.766L143.395 148.724L143.405 148.687L143.421 148.65L143.422 148.611L143.435 148.572L143.426 148.531L143.445 148.494L143.439 148.454L143.445 148.414L143.457 148.377L143.468 148.339L143.469 148.3L143.479 148.261L143.474 148.22L143.489 148.183L143.496 148.145L143.502 148.105L143.501 148.066L143.511 148.027L143.522 147.988L143.521 147.949L143.532 147.91L143.541 147.873L143.54 147.833L143.502 147.833L143.464 147.82L143.425 147.821L143.387 147.805L143.347 147.809L143.308 147.8L143.269 147.796L143.231 147.786L143.193 147.779L143.154 147.768L143.115 147.766L143.078 147.751L143.038 147.754L142.998 147.754L142.961 147.737L142.923 147.733L142.883 147.725L142.845 147.723L142.806 147.71L142.769 147.703L142.728 147.708L142.69 147.694L142.651 147.692L142.611 147.687L142.574 147.68L142.535 147.671L142.497 147.663L142.457 147.659L142.42 147.65L142.378 147.659L142.342 147.638L142.302 147.641L142.263 147.636L142.226 147.621L142.186 147.625L142.147 147.614L142.107 147.616L142.069 147.602L142.032 147.593L141.993 147.584L141.954 147.581L141.914 147.577L141.874 147.579L141.837 147.563L141.798 147.559L141.759 147.558L141.722 147.541L141.681 147.548L141.642 147.539L141.604 147.533L141.567 147.517L141.527 147.52L141.488 147.509L141.45 147.503L141.41 147.505L141.371 147.494L141.334 147.485L141.293 147.484L141.257 147.472L141.216 147.471L141.177 147.468L141.14 147.459L141.1 147.455L141.061 147.452L141.024 147.435L140.984 147.437L140.944 147.431L140.906 147.427L140.867 147.423L140.829 147.41L140.791 147.398L140.751 147.402L140.712 147.398L140.675 147.38L140.635 147.376L140.597 147.372L140.558 147.368L140.52 147.355L140.48 147.356L140.441 147.355L140.401 147.349L140.363 147.336L140.325 147.331L140.285 147.333L140.249 147.314L140.208 147.318L140.168 147.314L140.131 147.296L140.092 147.301L140.053 147.293L140.015 147.28L139.975 147.283L139.938 147.265L139.898 147.274L139.86 147.26L139.823 147.244L139.782 147.252L139.744 147.246L139.704 147.242L139.666 147.226L139.627 147.223L139.589 147.221L139.55 147.217L139.512 147.197L139.473 147.202L139.435 147.189L139.395 147.19L139.356 147.184L139.318 147.175L139.279 147.167L139.241 147.156L139.201 147.157L139.163 147.151L139.124 147.142L139.083 147.147L139.047 147.125L139.008 147.126L138.97 147.12L138.931 147.109L138.891 147.103L138.851 147.107L138.815 147.095L138.774 147.094L138.735 147.091L138.698 147.072L138.659 147.064L138.619 147.074L138.579 147.069L138.543 147.047L138.502 147.053L138.466 147.034L138.428 147.028L138.388 147.023L138.349 147.019L138.308 147.027L138.269 147.016L138.233 147.003L138.192 147.002L138.154 146.995L138.115 146.989L138.075 146.988L138.038 146.97L138 146.968L137.96 146.97L137.92 146.963L137.881 146.955L137.844 146.946L137.806 146.933L137.764 146.942L137.727 146.933L137.688 146.924L137.648 146.916L137.609 146.915L137.572 146.9L137.533 146.896L137.494 146.896L137.456 146.884L137.415 146.888L137.376 146.88L137.338 146.867L137.299 146.863L137.261 146.861L137.221 146.853L137.184 146.836L137.145 146.835L137.105 146.832L137.066 146.826L137.025 146.815L137.021 146.857L137.017 146.897L137.006 146.934L137.004 146.974L136.998 147.012L136.99 147.051L136.983 147.089L136.977 147.127L136.969 147.166L136.969 147.206L136.959 147.245L136.952 147.282L136.941 147.321L136.945 147.361L136.932 147.399L136.927 147.437L136.919 147.477L136.912 147.514L136.906 147.554L136.913 147.594L136.902 147.632L136.898 147.671L136.881 147.707L136.891 147.749L136.874 147.786L136.868 147.824L136.862 147.864L136.866 147.905L136.859 147.942L136.849 147.981L136.832 148.018L136.839 148.059L136.835 148.098L136.818 148.135L136.812 148.174L136.811 148.214L136.8 148.25L136.803 148.29L136.787 148.328L136.782 148.368L136.775 148.406L136.772 148.444L136.76 148.483L136.754 148.522L136.759 148.563L136.757 148.602L136.744 148.64L136.739 148.678L136.731 148.716L136.719 148.754L136.718 148.793L136.71 148.832L136.709 148.872L136.697 148.91L136.693 148.948L136.688 148.988L136.684 149.027L136.675 149.066L136.666 149.103L136.673 149.144L136.657 149.181L136.661 149.222L136.65 149.26L136.635 149.296L136.627 149.335L136.626 149.375L136.619 149.414L136.616 149.453L136.614 149.492L136.611 149.532L136.595 149.569L136.591 149.608L136.582 149.647L136.573 149.684L136.573 149.724L136.577 149.764L136.557 149.8L136.554 149.841L136.56 149.881L136.549 149.918L136.545 149.958L136.539 149.996L136.529 150.035L136.522 150.073L136.508 150.111L136.504 150.149L136.506 150.189L136.495 150.228L136.486 150.267L136.49 150.307L136.486 150.345L136.48 150.384L136.466 150.421L136.455 150.46L136.453 150.499L136.453 150.538L136.449 150.578L136.442 150.616L136.424 150.653L136.422 150.692L136.419 150.732L136.405 150.768L136.405 150.81L136.393 150.846L136.392 150.885L136.388 150.925L136.377 150.962L136.381 151.003L136.37 151.041L136.37 151.08L136.36 151.119L136.355 151.157L136.34 151.195L136.344 151.236L136.328 151.273L136.328 151.312L136.328 151.352L136.314 151.389L136.311 151.43L136.301 151.467L136.303 151.507L136.294 151.546L136.285 151.585L136.28 151.623L136.281 151.663L136.269 151.701L136.258 151.739L136.262 151.78L136.254 151.817L136.242 151.856L136.236 151.894L136.228 151.933L136.232 151.973L136.227 152.011L136.217 152.05L136.21 152.09L136.204 152.128L136.196 152.167L136.184 152.203L136.183 152.244L136.171 152.281L136.176 152.322L136.17 152.361L136.159 152.4L136.152 152.437L136.151 152.477L136.145 152.516L136.138 152.554L136.136 152.595L136.121 152.632L136.121 152.672L136.106 152.709L136.105 152.748L136.101 152.787L136.088 152.825L136.094 152.866L136.078 152.903L136.075 152.942L136.073 152.982L136.055 153.019L136.064 153.061L136.057 153.099L136.041 153.136L136.046 153.177L136.034 153.215L136.028 153.253L136.02 153.292L136.021 153.327L136.051 153.342L136.091 153.35L136.131 153.345L136.17 153.349L136.206 153.369L136.246 153.375L136.285 153.368L136.324 153.377L136.363 153.381L136.4 153.397L136.439 153.405L136.478 153.407L136.517 153.417L136.558 153.411L136.595 153.428L136.635 153.424L136.673 153.432L136.712 153.439L136.75 153.447L136.788 153.459L136.828 153.455L136.865 153.467L136.905 153.474L136.945 153.468L136.983 153.475L137.022 153.483L137.059 153.5L137.1 153.496L137.136 153.509L137.177 153.511L137.214 153.522L137.254 153.527L137.294 153.524L137.331 153.531L137.372 153.534L137.408 153.548L137.449 153.549L137.487 153.557L137.526 153.563L137.564 153.568L137.602 153.583L137.639 153.592L137.68 153.588L137.718 153.6L137.757 153.608L137.796 153.602L137.836 153.608L137.872 153.629L137.912 153.628L137.95 153.64L137.989 153.641L138.029 153.649L138.068 153.65L138.106 153.664L138.144 153.67L138.184 153.667L138.223 153.674L138.261 153.681L138.301 153.687L138.338 153.696L138.378 153.702L138.417 153.703L138.456 153.705L138.492 153.726L138.532 153.73L138.57 153.736L138.611 153.729L138.649 153.741L138.688 153.746L138.727 153.753L138.765 153.761L138.803 153.772L138.844 153.766L138.882 153.782L138.922 153.778L138.959 153.797L138.998 153.798L139.035 153.807L139.077 153.805L139.113 153.818L139.153 153.823L139.192 153.824L139.23 153.829L139.268 153.844L139.309 153.836L139.348 153.844L139.385 153.862L139.425 153.861L139.464 153.862L139.502 153.874L139.54 153.882L139.579 153.884L139.617 153.895L139.656 153.906L139.696 153.902L139.735 153.906L139.772 153.915L139.812 153.919L139.85 153.934L139.889 153.934L139.928 153.937L139.967 153.948L140.004 153.957L140.043 153.966L140.084 153.957L140.121 153.969L140.161 153.974L140.198 153.99L140.238 153.989L140.277 153.99L140.315 154.006L140.355 154.002L140.394 154.009L140.432 154.015L140.471 154.018L140.508 154.037L140.548 154.033L140.587 154.04L140.625 154.055L140.664 154.055L140.703 154.058L140.741 154.074L140.782 154.065L140.82 154.077L140.858 154.086L140.898 154.089L140.937 154.09L140.975 154.096L141.015 154.103L141.053 154.109L141.09 154.125L141.129 154.134L141.169 154.13L141.208 154.134L141.248 154.137L141.285 154.158L141.323 154.16L141.363 154.158L141.403 154.166L141.441 154.171L141.48 154.181L141.519 154.182L141.558 154.193L141.595 154.207L141.633 154.212L141.674 154.208L141.713 154.215L141.75 154.232L141.791 154.228L141.827 154.24L141.868 154.236L141.905 154.252L141.945 154.25L141.984 154.261L142.024 154.265L142.061 154.274L142.1 154.275L142.139 154.286L142.178 154.292L142.218 154.291L142.256 154.297L142.296 154.303L142.335 154.312L142.371 154.326L142.411 154.322L142.45 154.333L142.489 154.341L142.525 154.341Z" fill="#D9FFEF"/>
<path d="M145.41 139.953C146.242 140.665 146.339 141.917 145.627 142.748C144.914 143.58 143.663 143.677 142.831 142.965C141.999 142.252 141.903 141.001 142.615 140.169C143.327 139.337 144.579 139.241 145.41 139.953Z" fill="#CCFFFE" stroke="black" stroke-width="0.741788"/>
<path d="M16.1798 102.364C16.1798 103.783 15.0295 104.933 13.6106 104.933C12.1917 104.933 11.0415 103.783 11.0415 102.364C11.0415 100.945 12.1917 99.795 13.6106 99.795C15.0295 99.795 16.1798 100.945 16.1798 102.364Z" fill="#CCFFFE" stroke="black"/>
<defs>
<linearGradient id="paint0_linear_459_9824" x1="226.137" y1="75.5165" x2="4.55943" y2="64.1323" gradientUnits="userSpaceOnUse">
<stop stop-color="#3EFFFF" stop-opacity="0.9"/>
<stop offset="1" stop-color="#96F2BC" stop-opacity="0.9"/>
</linearGradient>
</defs>
</svg>
