<svg width="1321" height="765" viewBox="0 0 1321 765" fill="none" xmlns="http://www.w3.org/2000/svg">
<path d="M6.2341 764.468C9.67709 764.468 12.4682 761.677 12.4682 758.234C12.4682 754.791 9.67709 752 6.2341 752C2.7911 752 0 754.791 0 758.234C0 761.677 2.7911 764.468 6.2341 764.468Z" fill="#85EFCE"/>
<path d="M1312.73 669.468C1317.01 669.468 1320.47 666.006 1320.47 661.734C1320.47 657.463 1317.01 654 1312.73 654C1308.46 654 1305 657.463 1305 661.734C1305 666.006 1308.46 669.468 1312.73 669.468Z" fill="#AAF9EC"/>
<path d="M88 418L85.9065 388L60 403.776L88 418Z" fill="#A5FDFE"/>
<path d="M1213.03 349.502C1206.77 345.968 1204.58 337.977 1208.12 331.718C1211.65 325.459 1219.51 323.149 1225.77 326.684L1213.03 349.502Z" fill="#B7F1C9"/>
<path d="M68.5 21C74.299 21 79 16.299 79 10.5C79 4.70101 74.299 0 68.5 0C62.701 0 58 4.70101 58 10.5C58 16.299 62.701 21 68.5 21Z" fill="#B6F2CE"/>
<path d="M1259 33L1256.91 3L1231 18.7759L1259 33Z" fill="#ABF9EB"/>
</svg>
