<?xml version="1.0" encoding="UTF-8"?>
<svg width="350px" height="237.81px" viewBox="0 0 234 159" version="1.1" xmlns="http://www.w3.org/2000/svg" xmlns:xlink="http://www.w3.org/1999/xlink">
    <title>permissionssvg</title>
    <defs>
        <linearGradient x1="44.7149915%" y1="29.3046115%" x2="50%" y2="70.6953885%" id="linearGradient-1">
            <stop stop-color="#C6DBFF" offset="0%"></stop>
            <stop stop-color="#C7DBFF" offset="84.1304759%"></stop>
            <stop stop-color="#D6E4FC" offset="100%"></stop>
        </linearGradient>
        <filter x="-3.9%" y="-5.8%" width="107.7%" height="111.6%" filterUnits="objectBoundingBox" id="filter-2">
            <feOffset dx="0" dy="1" in="SourceAlpha" result="shadowOffsetOuter1"></feOffset>
            <feGaussianBlur stdDeviation="1" in="shadowOffsetOuter1" result="shadowBlurOuter1"></feGaussianBlur>
            <feColorMatrix values="0 0 0 0 0.835967133   0 0 0 0 0.835967133   0 0 0 0 0.835967133  0 0 0 0.5 0" type="matrix" in="shadowBlurOuter1" result="shadowMatrixOuter1"></feColorMatrix>
            <feMerge>
                <feMergeNode in="shadowMatrixOuter1"></feMergeNode>
                <feMergeNode in="SourceGraphic"></feMergeNode>
            </feMerge>
        </filter>
        <path d="M1.28290374,0 C0.574323184,0 0,0.575372962 0,1.28579141 L0,1.28579141 L14.751638,1.28579141 C14.751638,0.575372962 14.1773148,0 13.4687342,0 L13.4687342,0 L1.28290374,0 Z" id="path-3"></path>
        <path d="M1.28246499,0 C0.573884435,0 0,0.576252737 0,1.2862313 L0,1.2862313 L0,6.43027673 C0,7.14113506 0.573884435,7.71694791 1.28246499,7.71694791 L1.28246499,7.71694791 L6.41320243,7.71694791 C7.12178299,7.71694791 7.69654492,7.14113506 7.69654492,6.43027673 L7.69654492,6.43027673 L7.69654492,1.2862313 C7.69654492,0.576252737 7.12178299,0 6.41320243,0 L6.41320243,0 L1.28246499,0 Z" id="path-5"></path>
        <path d="M1.60406842,0 C1.30922871,0 1.0692327,0.230940982 1.0692327,0.514668475 L1.0692327,0.514668475 L1.0692327,3.60091978 C1.0692327,3.88420738 1.30922871,4.11514836 1.60406842,4.11514836 L1.60406842,4.11514836 L4.27605329,4.11514836 C4.570893,4.11514836 4.81045026,3.88420738 4.81045026,3.60091978 L4.81045026,3.60091978 L4.81045026,0.514668475 C4.81045026,0.257334238 4.54325178,0 4.27605329,0 L4.27605329,0 L1.60406842,0 Z M1.60406842,3.60091978 L4.27605329,3.60091978 L4.27605329,0.514668475 L1.60406842,0.514668475 L1.60406842,3.60091978 Z M0,1.02889706 L0,4.62981684 C0,4.91354433 0.239996014,5.14404543 0.534835723,5.14404543 L0.534835723,5.14404543 L3.74165632,5.14404543 L3.74165632,4.62981684 L0.534835723,4.62981684 L0.534835723,1.02889706 L0,1.02889706 Z" id="path-7"></path>
        <path d="M2.38515234,0.21686458 L0.223433217,2.38375083 C-0.0744777392,2.68331427 -0.0744777392,3.16939005 0.223433217,3.46763384 L0.223433217,3.46763384 L0.40375929,3.64886752 L0.763095186,3.28727993 L0.583207863,3.10692602 C0.483611711,3.00751142 0.483611711,2.8451929 0.583207863,2.74533842 L0.583207863,2.74533842 L2.74536573,0.578012287 C2.79318944,0.529624653 2.85724687,0.503231398 2.92525306,0.503231398 L2.92525306,0.503231398 C2.99413674,0.503231398 3.05731668,0.529624653 3.10557913,0.578012287 L3.10557913,0.578012287 L3.28634395,0.758806085 L3.64567985,0.397658377 L3.46623127,0.21686458 C3.32188267,0.0725814516 3.12356786,0 2.92525306,0 L2.92525306,0 C2.72693825,0 2.5290622,0.0725814516 2.38515234,0.21686458 L2.38515234,0.21686458 Z M2.74492698,2.02304301 L3.10514038,2.3846306 L4.90708486,0.578452175 L4.54643271,0.21686458 L2.74492698,2.02304301 Z M4.36610664,1.84312898 L4.54643271,2.02348289 C4.59513391,2.07187053 4.62145889,2.13565423 4.62145889,2.2038368 L4.62145889,2.2038368 C4.62145889,2.27157949 4.59469516,2.33624297 4.54643271,2.3846306 L4.54643271,2.3846306 L2.38515234,4.55195674 C2.28862743,4.64829212 2.12058635,4.64829212 2.02450019,4.55195674 L2.02450019,4.55195674 L1.84461287,4.37160283 L1.48439948,4.73275053 L1.6642868,4.91266456 C1.80907416,5.05782746 2.00080772,5.13744711 2.20482627,5.13744711 L2.20482627,5.13744711 C2.40928357,5.13744711 2.60101713,5.05782746 2.74536573,4.91266456 L2.74536573,4.91266456 L4.90708486,2.74577831 C5.05143346,2.60061541 5.13040839,2.40882442 5.13040839,2.2038368 L5.13040839,2.2038368 C5.13040839,1.99928908 5.05143346,1.8070582 4.90708486,1.66233519 L4.90708486,1.66233519 L4.72675878,1.48198128 L4.36610664,1.84312898 Z M0.222994468,4.55151685 L0.582769114,4.91266456 L2.38471359,3.10648613 L2.02450019,2.74533842 L0.222994468,4.55151685 Z" id="path-9"></path>
    </defs>
    <g id="permissionssvg" stroke="none" stroke-width="1" fill="none" fill-rule="evenodd">
        <g id="Group-4" transform="translate(0.000000, 0.000000)">
            <g id="Group-3" transform="translate(0.000000, 3.462871)">
                <path d="M164.808081,3.95430086 C129.618076,4.05503659 106.391306,29.9381676 84.326298,36.674183 C51.2386879,46.7747718 19.4901227,36.1631781 5.84836738,73.092898 C3.55784626,79.2936403 2.51207108,85.7137118 2.50311268,92.0953205 L2.50311268,92.267945 C2.53328834,112.21591 12.6723098,131.77421 26.5432115,143.108812 C33.7768828,149.020168 43.4151768,151.397531 53.7871166,151.401652 L53.8460535,151.401652 C69.8217074,151.394326 87.5301043,145.76503 100.890849,138.750618 C126.766005,125.16503 144.447055,130.757695 162.229477,135.633763 C193.550868,144.2224 234.167776,114.65692 231.568898,72.3378379 C229.073276,31.6928009 209.933893,8.8596732 173.872566,4.49323703 C170.911108,4.1347094 168.026032,3.96254287 165.221582,3.95430086 L164.808081,3.95430086 Z" id="Fill-1-Copy-4" fill="url(#linearGradient-1)" transform="translate(117.095348, 77.677977) rotate(-2.000000) translate(-117.095348, -77.677977) "></path>
                <g id="Group" filter="url(#filter-2)" transform="translate(28.715433, 18.713868)">
                    <path d="M2.87181655,123.932169 L174.546081,123.932169 C176.015385,123.932169 177.206492,122.741062 177.206492,121.271758 L177.206492,2.66041056 C177.206492,1.19110638 176.015385,1.80546796e-14 174.546081,0 L2.87181655,0 C1.40251237,-1.74182411e-16 0.211405995,1.19110638 0.211405995,2.66041056 L0.211405995,121.271758 C0.211405995,122.741062 1.40251237,123.932169 2.87181655,123.932169 Z" id="Fill-101" stroke="#CDD2DA" stroke-width="1.31964809" fill="#FFFFFF"></path>
                    <path d="M1.05632215,20.2640881 L176.583188,20.2640881 L176.554148,6.11222376 C176.551132,4.64292267 175.357584,3.454263 173.888283,3.45727808 C173.887185,3.45728033 173.886088,3.45728326 173.88499,3.45728687 L1.05632215,4.02589812 L1.05632215,4.02589812 L1.05632215,20.2640881 Z" id="Fill-104" fill="#FFFFFF"></path>
                    <path d="M0.877284271,4.00388269 L176.583188,3.44852325 C176.99597,2.16843057 176.292877,0.796084084 175.012784,0.383301577 C174.769729,0.304925402 174.515859,0.265267016 174.26048,0.265780274 L2.87326469,0.610233373 C1.77026684,0.612450172 0.877284271,1.50722925 0.877284271,2.61022933 L0.877284271,4.00388269 L0.877284271,4.00388269 Z" id="Fill-105" fill="#EBEEF2"></path>
                    <g id="Group-108" transform="translate(22.388370, 18.684452)">
                        <mask id="mask-4" fill="white">
                            <use xlink:href="#path-3"></use>
                        </mask>
                        <g id="Clip-107"></g>
                    </g>
                    <line x1="0" y1="19.9702871" x2="177.177167" y2="19.9702871" id="Stroke-109" stroke="#CED2D9" stroke-width="0.5" stroke-linecap="square"></line>
                    <g id="Group-113" transform="translate(6.413948, 7.378021)">
                        <mask id="mask-6" fill="white">
                            <use xlink:href="#path-5"></use>
                        </mask>
                        <g id="Clip-112"></g>
                    </g>
                    <g id="Group-12" transform="translate(0.723800, 113.823261)" fill="#F5F7FA">
                        <path d="M2.70142781,9.7479354 L173.258824,9.7479354 C174.728128,9.7479354 175.919235,8.55682902 175.919235,7.08752484 C175.919235,7.07602534 175.91916,7.06452596 175.919011,7.05302742 L175.827547,0 L175.827547,0 L0.149149184,0 L0.0413286077,7.04682375 C0.0188500148,8.51595597 1.19159449,9.72514545 2.66072671,9.74762404 C2.67429275,9.74783161 2.68786018,9.7479354 2.70142781,9.7479354 Z" id="Fill-129"></path>
                    </g>
                    <path d="M6.73648763,5.93416161 L13.7873397,5.93416161 C14.7610977,5.93416161 15.5503541,6.72606976 15.5503541,7.70174895 L15.5503541,14.7708893 C15.5503541,15.747173 14.7610977,16.5384766 13.7873397,16.5384766 L6.73648763,16.5384766 C5.76272963,16.5384766 4.97347315,15.747173 4.97347315,14.7708893 L4.97347315,7.70174895 C4.97347315,6.72606976 5.76272963,5.93416161 6.73648763,5.93416161 Z" id="Stroke-114" fill="#EBEEF2"></path>
                    <path d="M25.7173484,53.8787577 L151.636168,53.8787577 C152.375809,53.8787577 152.975406,53.2791606 152.975406,52.53952 C152.975406,51.7998794 152.375809,51.2002822 151.636168,51.2002822 L25.7173484,51.2002822 C24.9777078,51.2002822 24.3781106,51.7998794 24.3781106,52.53952 C24.3781106,53.2791606 24.9777078,53.8787577 25.7173484,53.8787577 Z" id="Fill-138" fill="#EBEEF2"></path>
                    <path d="M25.7173484,12.6397548 L35.3785674,12.6397548 C36.1182079,12.6397548 36.7178051,12.0401576 36.7178051,11.3005171 C36.7178051,10.5608765 36.1182079,9.9612793 35.3785674,9.9612793 L25.7173484,9.9612793 C24.9777078,9.9612793 24.3781106,10.5608765 24.3781106,11.3005171 C24.3781106,12.0401576 24.9777078,12.6397548 25.7173484,12.6397548 Z" id="Fill-138" fill="#EBEEF2"></path>
                    <path d="M44.5206924,12.6397548 L57.1199338,12.6397548 C57.8595744,12.6397548 58.4591716,12.0401576 58.4591716,11.3005171 C58.4591716,10.5608765 57.8595744,9.9612793 57.1199338,9.9612793 L44.5206924,9.9612793 C43.7810518,9.9612793 43.1814546,10.5608765 43.1814546,11.3005171 C43.1814546,12.0401576 43.7810518,12.6397548 44.5206924,12.6397548 Z" id="Fill-138" fill="#EBEEF2"></path>
                    <path d="M66.2620588,12.6397548 L85.3249498,12.6397548 C86.0645904,12.6397548 86.6641876,12.0401576 86.6641876,11.3005171 C86.6641876,10.5608765 86.0645904,9.9612793 85.3249498,9.9612793 L66.2620588,9.9612793 C65.5224183,9.9612793 64.9228211,10.5608765 64.9228211,11.3005171 C64.9228211,12.0401576 65.5224183,12.6397548 66.2620588,12.6397548 Z" id="Fill-138" fill="#EBEEF2"></path>
                    <path d="M27.2373799,36.4051032 L150.518841,36.4051032 C152.097972,36.4051032 153.378111,35.1249647 153.378111,33.5458339 C153.378111,31.966703 152.097972,30.6865646 150.518841,30.6865646 L27.2373799,30.6865646 C25.6582491,30.6865646 24.3781106,31.966703 24.3781106,33.5458339 C24.3781106,35.1249647 25.6582491,36.4051032 27.2373799,36.4051032 Z" id="Fill-138" fill="#EBEEF2"></path>
                    <path d="M25.7173484,63.9231509 L151.636168,63.9231509 C152.375809,63.9231509 152.975406,63.3235537 152.975406,62.5839131 C152.975406,61.8442725 152.375809,61.2446754 151.636168,61.2446754 L25.7173484,61.2446754 C24.9777078,61.2446754 24.3781106,61.8442725 24.3781106,62.5839131 C24.3781106,63.3235537 24.9777078,63.9231509 25.7173484,63.9231509 Z" id="Fill-139" fill="#EBEEF2"></path>
                    <path d="M25.7173484,73.6332294 L151.636168,73.6332294 C152.375809,73.6332294 152.975406,73.0336323 152.975406,72.2939917 C152.975406,71.5543511 152.375809,70.9547539 151.636168,70.9547539 L25.7173484,70.9547539 C24.9777078,70.9547539 24.3781106,71.5543511 24.3781106,72.2939917 C24.3781106,73.0336323 24.9777078,73.6332294 25.7173484,73.6332294 Z" id="Fill-140" fill="#EBEEF2"></path>
                    <path d="M25.7173484,84.0128169 L115.432873,84.0128169 C116.172513,84.0128169 116.772111,83.4132197 116.772111,82.6735792 C116.772111,81.9339386 116.172513,81.3343414 115.432873,81.3343414 L25.7173484,81.3343414 C24.9777078,81.3343414 24.3781106,81.9339386 24.3781106,82.6735792 C24.3781106,83.4132197 24.9777078,84.0128169 25.7173484,84.0128169 Z" id="Fill-143" fill="#EBEEF2"></path>
                    <g id="Group-158" transform="translate(8.204485, 24.584090)">
                        <mask id="mask-8" fill="white">
                            <use xlink:href="#path-7"></use>
                        </mask>
                        <g id="Clip-156"></g>
                    </g>
                    <g id="Group-166" transform="translate(7.605921, 34.922328)">
                        <mask id="mask-10" fill="white">
                            <use xlink:href="#path-9"></use>
                        </mask>
                        <g id="Clip-164"></g>
                    </g>
                </g>
            </g>
            <g id="Group-2" transform="translate(180.000000, 0.000000)">
                <path d="M16.6740371,4.97591177 L27.5971881,5.04275281 C33.2853494,5.07755986 37.8682986,9.71694239 37.8334915,15.4051037 C37.8323508,15.5915101 37.8261498,15.7778512 37.8148951,15.9639211 L37.0677037,28.3170358 C36.7367324,33.7888944 32.1777373,38.0426847 26.6960918,37.9943138 L15.561556,37.8960609 C9.87350959,37.8458686 5.30312579,33.1941071 5.35331803,27.5060607 C5.35540291,27.2697912 5.36561747,27.0336634 5.38394358,26.7980965 L6.34251992,14.4763936 C6.76155963,9.08998599 11.2714555,4.94285224 16.6740371,4.97591177 Z" id="Rectangle" fill="#242C38" transform="translate(21.499796, 21.498933) rotate(-20.000000) translate(-21.499796, -21.498933) "></path>
                <g id="noun_Unlock_2767648" transform="translate(15.370348, 10.287715)" fill="#FFFFFF" fill-rule="nonzero">
                    <g id="Shape">
                        <path d="M3.70902325,8.4216938 L11.1270697,8.4216938 C12.3561319,8.4216938 13.3524837,9.45001767 13.3524837,10.7185194 L13.3524837,16.8433876 C13.3524837,18.1118893 12.3561319,19.1402132 11.1270697,19.1402132 L2.22541395,19.1402132 C0.996351762,19.1402132 0,18.1118893 0,16.8433876 L0,10.7185194 C0,9.45001767 0.996351762,8.4216938 2.22541395,8.4216938 L2.22541395,4.59365116 C2.22541395,2.05664768 4.21811747,0 6.67624184,0 C9.13436621,0 11.1270697,2.05664768 11.1270697,4.59365116 L11.1270697,8.67641229 L9.64346044,8.67641229 L9.64346044,4.59365116 C9.64346044,2.90231551 8.31499142,1.53121705 6.67624184,1.53121705 C5.03749226,1.53121705 3.70902325,2.90231551 3.70902325,4.59365116 L3.70902325,8.4216938 Z M11.1270697,9.95291085 L2.22541395,9.95291085 C1.81572655,9.95291085 1.4836093,10.2956855 1.4836093,10.7185194 L1.4836093,16.8433876 C1.4836093,17.2662215 1.81572655,17.6089961 2.22541395,17.6089961 L11.1270697,17.6089961 C11.5367571,17.6089961 11.8688744,17.2662215 11.8688744,16.8433876 L11.8688744,10.7185194 C11.8688744,10.2956855 11.5367571,9.95291085 11.1270697,9.95291085 Z M6.67624184,15.3121705 C5.85686705,15.3121705 5.19263254,14.6266213 5.19263254,13.7809535 C5.19263254,12.9352857 5.85686705,12.2497364 6.67624184,12.2497364 C7.49561663,12.2497364 8.15985114,12.9352857 8.15985114,13.7809535 C8.15985114,14.6266213 7.49561663,15.3121705 6.67624184,15.3121705 Z"></path>
                    </g>
                </g>
            </g>
        </g>
    </g>
</svg>