<?xml version="1.0" encoding="UTF-8"?>
<svg width="236px" height="146px" viewBox="0 0 236 146" xmlns="http://www.w3.org/2000/svg" xmlns:xlink="http://www.w3.org/1999/xlink">
    <defs>
        <linearGradient x1="44.7149915%" y1="10.8727811%" x2="49.9118421%" y2="87.8218767%" id="linearGradient-1">
            <stop stop-color="#ECF3FF" offset="0%"></stop>
            <stop stop-color="#D8E5FE" offset="100%"></stop>
        </linearGradient>
        <path d="M30.9423721,14.5073826 L23.2511369,1.70701757" id="path-2"></path>
        <filter x="-49.8%" y="-29.9%" width="199.7%" height="159.9%" filterUnits="objectBoundingBox" id="filter-3">
            <feGaussianBlur stdDeviation="2" in="SourceAlpha" result="shadowBlurInner1"></feGaussianBlur>
            <feOffset dx="0" dy="1" in="shadowBlurInner1" result="shadowOffsetInner1"></feOffset>
            <feComposite in="shadowOffsetInner1" in2="SourceAlpha" operator="arithmetic" k2="-1" k3="1" result="shadowInnerInner1"></feComposite>
            <feColorMatrix values="0 0 0 0 0   0 0 0 0 0   0 0 0 0 0  0 0 0 0.5 0" type="matrix" in="shadowInnerInner1"></feColorMatrix>
        </filter>
        <path d="M46.8025342,-1.2126596e-13 L46.9909046,8.5976783" id="path-4"></path>
        <filter x="-318.2%" y="-44.6%" width="736.4%" height="189.2%" filterUnits="objectBoundingBox" id="filter-5">
            <feGaussianBlur stdDeviation="2" in="SourceAlpha" result="shadowBlurInner1"></feGaussianBlur>
            <feOffset dx="0" dy="1" in="shadowBlurInner1" result="shadowOffsetInner1"></feOffset>
            <feComposite in="shadowOffsetInner1" in2="SourceAlpha" operator="arithmetic" k2="-1" k3="1" result="shadowInnerInner1"></feComposite>
            <feColorMatrix values="0 0 0 0 0   0 0 0 0 0   0 0 0 0 0  0 0 0 0.5 0" type="matrix" in="shadowInnerInner1"></feColorMatrix>
        </filter>
        <path d="M16.8186156,26.7270185 L10.7794366,22.8892697" id="path-6"></path>
        <filter x="-63.5%" y="-99.9%" width="227.0%" height="299.8%" filterUnits="objectBoundingBox" id="filter-7">
            <feGaussianBlur stdDeviation="2" in="SourceAlpha" result="shadowBlurInner1"></feGaussianBlur>
            <feOffset dx="0" dy="1" in="shadowBlurInner1" result="shadowOffsetInner1"></feOffset>
            <feComposite in="shadowOffsetInner1" in2="SourceAlpha" operator="arithmetic" k2="-1" k3="1" result="shadowInnerInner1"></feComposite>
            <feColorMatrix values="0 0 0 0 0   0 0 0 0 0   0 0 0 0 0  0 0 0 0.5 0" type="matrix" in="shadowInnerInner1"></feColorMatrix>
        </filter>
        <path d="M12.9887355,45.2055591 L-9.09494702e-14,44.2991161" id="path-8"></path>
        <filter x="-29.5%" y="-351.9%" width="159.0%" height="803.7%" filterUnits="objectBoundingBox" id="filter-9">
            <feGaussianBlur stdDeviation="2" in="SourceAlpha" result="shadowBlurInner1"></feGaussianBlur>
            <feOffset dx="0" dy="1" in="shadowBlurInner1" result="shadowOffsetInner1"></feOffset>
            <feComposite in="shadowOffsetInner1" in2="SourceAlpha" operator="arithmetic" k2="-1" k3="1" result="shadowInnerInner1"></feComposite>
            <feColorMatrix values="0 0 0 0 0   0 0 0 0 0   0 0 0 0 0  0 0 0 0.5 0" type="matrix" in="shadowInnerInner1"></feColorMatrix>
        </filter>
    </defs>
    <g stroke="none" stroke-width="1" fill="none" fill-rule="evenodd">
        <g transform="translate(0.000000, 4.000000)">
            <path d="M127.609433,127.449897 C135.866937,124.460123 145.503005,131.106037 153.44299,132.021943 C168.447059,133.752716 184.155185,132.204822 188.368264,117.323402 C193.062315,100.743097 185.794923,104.225327 185.794923,89.6336782 C185.794923,82.6611988 195.159977,67.1406586 190.879808,56.8225312 C186.199358,45.5394521 181.275245,51.6388274 173.908682,33.045901 C166.542119,14.4529747 169.207061,6.42506463 151.308138,1.36005503 C133.409216,-3.70495457 124.7838,6.75425526 104.319549,10.2505766 C96.0057333,11.6709937 71.9365435,9.63475917 60.9258167,20.0304809 C48.8052155,31.4740849 50.0829283,55.4295668 49.730785,56.8225312 C47.1745986,66.9339754 32.2164379,65.5585594 36.9028216,85.1689718 C41.5892053,104.779384 62.4880185,100.352386 69.2455254,109.315722 C76.0030324,118.279057 75.0669015,132.689901 89.6932253,137.033797 C104.319549,141.377692 121.110604,129.80291 127.609433,127.449897 Z" id="Oval" fill="url(#linearGradient-1)"></path>
            <g transform="translate(0.000000, 9.812638)">
                <g fill-rule="nonzero">
                    <path d="M65.500773,56.7634539 C64.725573,52.0150539 61.955973,47.8054539 57.898773,45.2146539 C56.188773,44.1262539 54.352773,43.2274539 52.444773,42.5470539 C50.665173,41.9074539 48.853173,41.3254539 47.042373,40.8130539 C44.518773,40.1446539 42.035973,39.2518539 39.717573,38.1874539 C35.540373,35.9950539 32.245173,32.5942539 30.178773,28.3306539 C27.575973,23.2282539 26.277273,16.744177 26.222073,11.026177 C26.806473,10.944577 27.262473,10.464577 27.262473,9.85857701 L27.187173,3.00225389 L19.119573,3.00225389 L19.194873,9.85857701 C19.194873,10.471777 19.661673,10.958977 20.255673,11.030977 C20.312073,17.678977 21.827973,25.0858539 24.836373,30.9910539 C27.435573,36.3310539 31.766373,40.7806539 37.083573,43.5430539 C39.776373,44.7898539 42.603573,45.8098539 45.464373,46.5682539 C47.108373,47.0350539 48.779973,47.5726539 50.433573,48.1678539 C51.923973,48.6970539 53.356773,49.3966539 54.688773,50.2450539 C57.295173,51.9118539 59.084373,54.6178539 59.593173,57.6142539 C60.113973,61.8934539 58.882773,66.2938539 56.216373,69.6862539 C56.019573,69.9358539 55.930773,70.2550539 55.967973,70.5706539 C56.005173,70.8862539 56.168373,71.1742539 56.417973,71.3710539 L59.224773,73.5778539 C59.437173,73.7458539 59.699973,73.8346539 59.966373,73.8346539 C60.013173,73.8346539 60.061173,73.8322539 60.109173,73.8262539 C60.424773,73.7878539 60.712773,73.6258539 60.909573,73.3762539 C64.569573,68.7214539 66.244773,62.6818539 65.500773,56.7634539 Z" id="Path" fill="#001C4D" transform="translate(42.396783, 38.418454) rotate(-240.000000) translate(-42.396783, -38.418454) "></path>
                    <polygon id="Path" fill="#FFFFFF" transform="translate(79.893028, 37.845852) rotate(-240.000000) translate(-79.893028, -37.845852) " points="81.5274282 34.6172523 81.5274282 41.0744523 78.2586282 41.0744523 78.2586282 34.6172523"></polygon>
                    <path d="M56.3748,66.9149352 L55.4532,66.1901352 C58.0164,62.4521352 59.1636,57.8189352 58.6068,53.2577352 C57.9792,49.5401352 55.7964,46.2425352 52.62,44.2109352 C51.1332,43.2653352 49.5384,42.4853352 47.8836,41.8961352 C46.1808,41.2841352 44.4576,40.7285352 42.7404,40.2425352 C39.9936,39.5141352 37.2996,38.5409352 34.7808,37.3769352 C29.9676,34.8749352 26.0088,30.8093352 23.6244,25.9085352 C20.7816,20.3297352 19.2612,14.1089352 19.2,7.84973518 L20.3688,7.84973518 C20.43,13.9349352 21.9108,19.9793352 24.6708,25.3877352 C26.9508,30.0941352 30.6072,33.8681352 35.298,36.3281352 C37.7964,37.4777352 40.4112,38.4173352 43.0476,39.1145352 C44.7852,39.6077352 46.5432,40.1729352 48.2748,40.7945352 C50.016,41.4149352 51.69,42.2321352 53.2476,43.2245352 C56.7276,45.4481352 59.106,49.0601352 59.7648,53.0933352 C60.3732,57.9401352 59.1432,62.9093352 56.3748,66.9149352 Z" id="Path" fill="#FFFFFF" transform="translate(39.558598, 37.382335) rotate(-240.000000) translate(-39.558598, -37.382335) "></path>
                </g>
                <g transform="translate(193.113964, 80.874685) scale(-1, -1) translate(-193.113964, -80.874685) translate(150.613964, 42.374685)" fill-rule="nonzero">
                    <path d="M65.500773,56.7634539 C64.725573,52.0150539 61.955973,47.8054539 57.898773,45.2146539 C56.188773,44.1262539 54.352773,43.2274539 52.444773,42.5470539 C50.665173,41.9074539 48.853173,41.3254539 47.042373,40.8130539 C44.518773,40.1446539 42.035973,39.2518539 39.717573,38.1874539 C35.540373,35.9950539 32.245173,32.5942539 30.178773,28.3306539 C27.575973,23.2282539 26.277273,16.744177 26.222073,11.026177 C26.806473,10.944577 27.262473,10.464577 27.262473,9.85857701 L27.187173,3.00225389 L19.119573,3.00225389 L19.194873,9.85857701 C19.194873,10.471777 19.661673,10.958977 20.255673,11.030977 C20.312073,17.678977 21.827973,25.0858539 24.836373,30.9910539 C27.435573,36.3310539 31.766373,40.7806539 37.083573,43.5430539 C39.776373,44.7898539 42.603573,45.8098539 45.464373,46.5682539 C47.108373,47.0350539 48.779973,47.5726539 50.433573,48.1678539 C51.923973,48.6970539 53.356773,49.3966539 54.688773,50.2450539 C57.295173,51.9118539 59.084373,54.6178539 59.593173,57.6142539 C60.113973,61.8934539 58.882773,66.2938539 56.216373,69.6862539 C56.019573,69.9358539 55.930773,70.2550539 55.967973,70.5706539 C56.005173,70.8862539 56.168373,71.1742539 56.417973,71.3710539 L59.224773,73.5778539 C59.437173,73.7458539 59.699973,73.8346539 59.966373,73.8346539 C60.013173,73.8346539 60.061173,73.8322539 60.109173,73.8262539 C60.424773,73.7878539 60.712773,73.6258539 60.909573,73.3762539 C64.569573,68.7214539 66.244773,62.6818539 65.500773,56.7634539 Z" id="Path" fill="#001C4D" transform="translate(42.396783, 38.418454) rotate(-240.000000) translate(-42.396783, -38.418454) "></path>
                    <polygon id="Path" fill="#FFFFFF" transform="translate(79.893028, 37.845852) rotate(-240.000000) translate(-79.893028, -37.845852) " points="81.5274282 34.6172523 81.5274282 41.0744523 78.2586282 41.0744523 78.2586282 34.6172523"></polygon>
                    <path d="M56.3748,66.9149352 L55.4532,66.1901352 C58.0164,62.4521352 59.1636,57.8189352 58.6068,53.2577352 C57.9792,49.5401352 55.7964,46.2425352 52.62,44.2109352 C51.1332,43.2653352 49.5384,42.4853352 47.8836,41.8961352 C46.1808,41.2841352 44.4576,40.7285352 42.7404,40.2425352 C39.9936,39.5141352 37.2996,38.5409352 34.7808,37.3769352 C29.9676,34.8749352 26.0088,30.8093352 23.6244,25.9085352 C20.7816,20.3297352 19.2612,14.1089352 19.2,7.84973518 L20.3688,7.84973518 C20.43,13.9349352 21.9108,19.9793352 24.6708,25.3877352 C26.9508,30.0941352 30.6072,33.8681352 35.298,36.3281352 C37.7964,37.4777352 40.4112,38.4173352 43.0476,39.1145352 C44.7852,39.6077352 46.5432,40.1729352 48.2748,40.7945352 C50.016,41.4149352 51.69,42.2321352 53.2476,43.2245352 C56.7276,45.4481352 59.106,49.0601352 59.7648,53.0933352 C60.3732,57.9401352 59.1432,62.9093352 56.3748,66.9149352 Z" id="Path" fill="#FFFFFF" transform="translate(39.558598, 37.382335) rotate(-240.000000) translate(-39.558598, -37.382335) "></path>
                </g>
                <g transform="translate(136.085637, 31.961401) scale(1, -1) rotate(-159.000000) translate(-136.085637, -31.961401) translate(112.085637, 8.961401)" stroke-linecap="round">
                    <g>
                        <use fill="black" fill-opacity="1" filter="url(#filter-3)" xlink:href="#path-2"></use>
                        <use stroke="#001C4D" stroke-width="2.66666667" xlink:href="#path-2"></use>
                    </g>
                    <g>
                        <use fill="black" fill-opacity="1" filter="url(#filter-5)" xlink:href="#path-4"></use>
                        <use stroke="#001C4D" stroke-width="2.66666667" xlink:href="#path-4"></use>
                    </g>
                    <g>
                        <use fill="black" fill-opacity="1" filter="url(#filter-7)" xlink:href="#path-6"></use>
                        <use stroke="#001C4D" stroke-width="2.66666667" xlink:href="#path-6"></use>
                    </g>
                    <g>
                        <use fill="black" fill-opacity="1" filter="url(#filter-9)" xlink:href="#path-8"></use>
                        <use stroke="#001C4D" stroke-width="2.66666667" xlink:href="#path-8"></use>
                    </g>
                </g>
                <g transform="translate(104.758836, 89.182432) scale(-1, 1) rotate(-164.000000) translate(-104.758836, -89.182432) translate(80.758836, 66.182432)" stroke="#001C4D" stroke-linecap="round" stroke-width="2.66666667">
                    <line x1="30.9423721" y1="14.5073826" x2="23.2511369" y2="1.70701757" id="Path-18"></line>
                    <line x1="46.8025342" y1="-1.2126596e-13" x2="46.9909046" y2="8.5976783" id="Path-20"></line>
                    <line x1="16.8186156" y1="26.7270185" x2="10.7794366" y2="22.8892697" id="Path-23"></line>
                    <line x1="12.9887355" y1="45.2055591" x2="-9.09494702e-14" y2="44.2991161" id="Path-24"></line>
                </g>
                <g transform="translate(96.690759, 47.534492) rotate(-330.000000) translate(-96.690759, -47.534492) translate(80.690759, 34.034492)">
                    <path d="M20.67864,21.2976 L20.67864,21.042 L29.30544,21.042 C30.78624,21.042 31.98624,19.842 31.98624,18.3636 C31.98624,16.8828 30.78624,15.6828 29.30544,15.6828 L20.67864,15.6828 L20.67864,11.1084 L29.30544,11.1084 C30.78624,11.1084 31.98624,9.9084 31.98624,8.4288 C31.98624,6.9492 30.78624,5.7504 29.30544,5.7504 L20.67864,5.7504 L20.67864,5.5536 L20.67864,1.2 L9.15384,1.2 L3.09744,4.8564 L0.000239999998,4.8564 L0.000239999998,13.3896 L0.000239999998,13.4604 L0.000239999998,21.9948 L3.09744,21.9948 L9.15384,25.6512 L20.67864,25.6512 L20.67864,21.2976 Z" id="Fill-1" fill="#FFFFFF"></path>
                    <path d="M20.67864,21.2976 L20.67864,21.042 L29.30544,21.042 C30.78624,21.042 31.98624,19.842 31.98624,18.3636 C31.98624,16.8828 30.78624,15.6828 29.30544,15.6828 L20.67864,15.6828 L20.67864,11.1084 L29.30544,11.1084 C30.78624,11.1084 31.98624,9.9084 31.98624,8.4288 C31.98624,6.9492 30.78624,5.7504 29.30544,5.7504 L20.67864,5.7504 L20.67864,5.5536 L20.67864,1.2 C15.3458517,0.71117981 11.5042517,0.71117981 9.15384,1.2 C5.62822238,1.93323028 4.70591203,4.8564 3.09744,4.8564 C2.02512531,4.8564 0.992725313,4.8564 0.000239999998,4.8564 L0.000239999998,13.3896 L0.000239999998,13.4604 L0.000239999998,21.9948 C0.775235155,21.9948 1.80763516,21.9948 3.09744,21.9948 C5.03214727,21.9948 5.30227452,24.9024 9.15384,25.6512 C11.7215503,26.1504 15.5631503,26.1504 20.67864,25.6512 L20.67864,21.2976 Z" stroke="#001C4D" stroke-width="2.4" stroke-linecap="round" stroke-linejoin="round"></path>
                </g>
                <g transform="translate(143.736846, 74.296412) scale(-1, -1) rotate(-330.000000) translate(-143.736846, -74.296412) translate(133.236846, 60.796412)">
                    <polygon id="Fill-1" fill="#FFFFFF" points="20.67864 21.2976 20.67864 21.042 20.67864 15.6828 20.67864 11.1084 20.67864 5.7504 20.67864 5.5536 20.67864 1.2 9.15384 1.2 3.09744 4.8564 0.000239999998 4.8564 0.000239999998 13.3896 0.000239999998 13.4604 0.000239999998 21.9948 3.09744 21.9948 9.15384 25.6512 20.67864 25.6512"></polygon>
                    <path d="M20.67864,21.2976 L20.67864,21.042 L20.67864,15.6828 L20.67864,11.1084 L20.67864,5.7504 L20.67864,5.5536 L20.67864,1.2 C15.3458517,0.71117981 11.5042517,0.71117981 9.15384,1.2 C5.62822238,1.93323028 4.70591203,4.8564 3.09744,4.8564 C2.02512531,4.8564 0.992725313,4.8564 0.000239999998,4.8564 L0.000239999998,13.3896 L0.000239999998,13.4604 L0.000239999998,21.9948 C0.775235155,21.9948 1.80763516,21.9948 3.09744,21.9948 C5.03214727,21.9948 5.30227452,24.9024 9.15384,25.6512 C11.7215503,26.1504 15.5631503,26.1504 20.67864,25.6512 L20.67864,21.2976 Z" stroke="#001C4D" stroke-width="2.4" stroke-linecap="round" stroke-linejoin="round"></path>
                </g>
            </g>
        </g>
    </g>
</svg>