<?xml version="1.0" encoding="UTF-8"?>
<svg width="322px" height="195px" viewBox="0 0 322 195" version="1.1" xmlns="http://www.w3.org/2000/svg" xmlns:xlink="http://www.w3.org/1999/xlink">
    <title>Group 4 Copy 3</title>
    <defs>
        <polygon id="path-1" points="3.19977321e-14 0 6.03569896 0 6.03569896 13.4750186 3.19977321e-14 13.4750186"></polygon>
        <polygon id="path-3" points="-6.75507677e-14 0 12.9493889 0 12.9493889 10.9965291 -6.75507677e-14 10.9965291"></polygon>
        <rect id="path-5" x="0" y="0" width="138.340781" height="89.3758443"></rect>
        <filter x="-2.5%" y="-2.8%" width="105.1%" height="107.8%" filterUnits="objectBoundingBox" id="filter-6">
            <feOffset dx="0" dy="1" in="SourceAlpha" result="shadowOffsetOuter1"></feOffset>
            <feGaussianBlur stdDeviation="1" in="shadowOffsetOuter1" result="shadowBlurOuter1"></feGaussianBlur>
            <feColorMatrix values="0 0 0 0 0   0 0 0 0 0   0 0 0 0 0  0 0 0 0.5 0" type="matrix" in="shadowBlurOuter1"></feColorMatrix>
        </filter>
    </defs>
    <g id="Flow" stroke="none" stroke-width="1" fill="none" fill-rule="evenodd">
        <g id="Sign-up-page---2nd-teammember---email" transform="translate(-558.000000, -196.000000)">
            <g id="Group-4-Copy-3" transform="translate(558.000000, 196.000000)">
                <g id="Group-4-Copy-2" transform="translate(0.000000, 0.000000)">
                    <polygon id="Rectangle" fill="#F5F7FA" transform="translate(158.110092, 109.635525) rotate(-9.000000) translate(-158.110092, -109.635525) " points="37.2245889 42.370383 279.002749 42.3575232 278.995595 176.900666 37.2174351 176.913526"></polygon>
                    <path d="M17.4773145,42.9883377 C19.4593137,44.402546 22.2135431,43.9514874 23.640048,41.9734559 C25.0665529,39.996587 24.6266897,37.2390844 22.659798,35.8033695 L17.4773145,42.9883377 Z" id="Fill-17-Copy-2" fill="#86EFCE"></path>
                    <polygon id="Fill-22-Copy-6" fill="#D9FFEF" points="3.96134065 165.94296 1.98067033 164.190569 0 162.438838 1.74865836 160.455036 3.50324885 158.483761 5.48326005 160.2289 7.46063475 161.979972 5.70868077 163.95784"></polygon>
                    <path d="M261.070028,103.835763 C260.522857,105.283713 258.905981,106.013525 257.458961,105.466166 C256.011941,104.918807 255.28238,103.301807 255.829551,101.854289 C256.376289,100.406338 257.992733,99.6765261 259.440185,100.223885 C260.887205,100.771244 261.616766,102.388245 261.070028,103.835763 Z" id="Fill-27-Copy-4" fill="#4BE4B4"></path>
                    <path d="M44.8838904,82.6049918 C46.3309103,83.1523508 47.0604711,84.7693512 46.5137327,86.2168693 C45.9665621,87.6648198 44.3496859,88.3946317 42.9026659,87.8472728 C41.455646,87.2999138 40.7260851,85.6829133 41.2732558,84.2353952 C41.8199942,82.7874448 43.4364382,82.0576328 44.8838904,82.6049918" id="Fill-27-Copy-5" fill="#4BE4B4"></path>
                    <polygon id="Fill-24-Copy-10" fill="#86EFCE" transform="translate(312.524220, 162.248716) rotate(-15.000000) translate(-312.524220, -162.248716) " points="309.722031 165.452138 315.326409 163.510537 311.136089 159.045294"></polygon>
                    <path d="M310.21515,40.7364857 C313.161671,42.8574955 317.256532,42.1805708 319.377619,39.2134095 C321.498705,36.2479919 320.845102,32.1118897 317.921045,29.9586187 L310.21515,40.7364857 Z" id="Fill-17-Copy-3" fill="#D9FFEF" transform="translate(315.419293, 35.965088) rotate(-15.000000) translate(-315.419293, -35.965088) "></path>
                    <g id="Group-9-Copy-2" transform="translate(237.155447, 10.201975) rotate(98.000000) translate(-237.155447, -10.201975) translate(228.356849, -0.496968)">
                        <g id="Group-3" transform="translate(7.241437, 16.940762) rotate(-103.000000) translate(-7.241437, -16.940762) translate(4.223587, 10.203252)">
                            <mask id="mask-2" fill="white">
                                <use xlink:href="#path-1"></use>
                            </mask>
                            <g id="Clip-2"></g>
                            <path d="M2.53674683,12.5239517 C3.68606529,8.89571375 4.83435296,5.26851246 5.98367142,1.64027454 C6.19498109,0.973715396 5.73628449,0.226298383 5.08380145,0.0459231258 C4.38905649,-0.145855165 3.71080398,0.282276911 3.49949431,0.950909329 L0.0515389442,11.8345865 C-0.158739948,12.5021823 0.299956655,13.2485626 0.95140891,13.4289379 C1.64718466,13.6207162 2.32440638,13.1936207 2.53674683,12.5239517" id="Fill-1" fill="#000000" mask="url(#mask-2)"></path>
                        </g>
                        <g id="Group-6" transform="translate(7.470744, 7.547761) rotate(-103.000000) translate(-7.470744, -7.547761) translate(0.996049, 2.049496)">
                            <mask id="mask-4" fill="white">
                                <use xlink:href="#path-3"></use>
                            </mask>
                            <g id="Clip-5"></g>
                            <path d="M2.204756,10.6186966 C5.29400031,7.54609741 8.67289349,4.79900298 12.3166968,2.41680562 C12.8990869,2.03635896 13.14132,1.26820915 12.7784858,0.64415223 C12.4393595,0.0615608822 11.6013363,-0.203818806 11.0158539,0.179737775 C7.19475657,2.67803875 3.62310774,5.56300622 0.382338932,8.78591814 C-0.797902889,9.96043059 1.0234834,11.7932091 2.204756,10.6186966" id="Fill-4" fill="#000000" mask="url(#mask-4)"></path>
                        </g>
                        <path d="M12.4150761,6.75047068 C14.3251236,6.5324353 16.2503339,6.46047047 18.1729208,6.53553577 C18.858438,6.56241386 19.5102681,5.93566786 19.4765164,5.26366364 C19.4415785,4.5518322 18.8986703,4.01183137 18.1639622,3.98274089 C16.2413753,3.9076756 14.316165,3.97964042 12.4061176,4.1976758 C12.0473288,4.23829989 11.7472492,4.30976026 11.4823586,4.56820467 C11.2560544,4.78900168 11.0867571,5.15192957 11.102522,5.46954793 C11.1329623,6.09252763 11.6880875,6.83372852 12.4150761,6.75047068" id="Fill-7" fill="#000000" transform="translate(15.289639, 5.355443) rotate(-103.000000) translate(-15.289639, -5.355443) "></path>
                    </g>
                    <g id="Group-2-Copy-3" transform="translate(68.166027, 17.639001)">
                        <path d="M2.47588414,54.4238267 L83.0735139,2.7870422 C85.7248921,1.08837386 89.1224837,1.08837386 91.7738618,2.7870422 L172.371492,54.4238267 C173.914238,55.4122235 174.847376,57.1182826 174.847376,58.9504926 L174.847376,59.7190396 C174.847376,61.7674521 173.186809,63.4280185 171.138397,63.4280185 L3.70897897,63.4280185 C1.66056645,63.4280185 2.50858184e-16,61.7674521 0,59.7190396 L0,58.9504926 C-3.7770947e-15,57.1182826 0.933138113,55.4122235 2.47588414,54.4238267 Z" id="Rectangle-Copy-36" fill="#4BE4B4"></path>
                        <g id="Group-Copy" transform="translate(18.253297, 9.610306)">
                            <g id="Rectangle-Copy-29">
                                <use fill="black" fill-opacity="1" filter="url(#filter-6)" xlink:href="#path-5"></use>
                                <use fill="#FFFFFF" fill-rule="evenodd" xlink:href="#path-5"></use>
                            </g>
                            <rect id="Rectangle-Copy-30" fill="#EBEEF2" x="8.6462988" y="64.3890491" width="123.930283" height="4.80515292" rx="2.39608686"></rect>
                            <rect id="Rectangle-Copy-31" fill="#EBEEF2" x="8.6462988" y="51.8956515" width="123.930283" height="5.7661835" rx="2.66231889"></rect>
                            <rect id="Rectangle-Copy-32" fill="#EBEEF2" x="8.6462988" y="74.9603855" width="123.930283" height="4.80515292" rx="2.39608686"></rect>
                        </g>
                        <path d="M79.6051851,138.020433 L122.898468,70.239441 C125.29581,66.4861061 130.281918,65.3868562 134.035253,67.7841978 C135.022246,68.4146133 135.860081,69.2524475 136.490496,70.239441 L179.783779,138.020433 C180.335794,138.884681 180.629103,139.888784 180.629103,140.91428 L180.629103,144.62456 C180.629103,147.540992 178.264868,149.905227 175.348436,149.905227 L84.0405284,149.905227 C81.1240964,149.905227 78.7598611,147.540992 78.7598611,144.62456 L78.7598611,140.91428 C78.7598611,139.888784 79.0531704,138.884681 79.6051851,138.020433 Z" id="Rectangle-Copy-37" fill="#4BE4B4" transform="translate(129.694482, 104.752334) rotate(-90.000000) translate(-129.694482, -104.752334) "></path>
                        <path d="M-4.93640312,138.020433 L38.3568797,70.239441 C40.7542212,66.4861061 45.7403297,65.3868562 49.4936646,67.7841978 C50.4806581,68.4146133 51.3184923,69.2524475 51.9489078,70.239441 L95.2421906,138.020433 C95.7942053,138.884681 96.0875147,139.888784 96.0875147,140.91428 L96.0875147,144.62456 C96.0875147,147.540992 93.7232794,149.905227 90.8068473,149.905227 L-0.501059859,149.905227 C-3.4174919,149.905227 -5.78172721,147.540992 -5.78172721,144.62456 L-5.78172721,140.91428 C-5.78172721,139.888784 -5.48841786,138.884681 -4.93640312,138.020433 Z" id="Rectangle-Copy-38" fill="#4BE4B4" transform="translate(45.152894, 104.752334) rotate(-270.000000) translate(-45.152894, -104.752334) "></path>
                        <path d="M2.47588414,146.682763 L83.0735139,95.0459782 C85.7248921,93.3473099 89.1224837,93.3473099 91.7738618,95.0459782 L172.371492,146.682763 C173.914238,147.67116 174.847376,149.377219 174.847376,151.209429 L174.847376,151.977976 C174.847376,154.026388 173.186809,155.686955 171.138397,155.686955 L3.70897897,155.686955 C1.66056645,155.686955 2.50858184e-16,154.026388 0,151.977976 L0,151.209429 C-3.7770947e-15,149.377219 0.933138113,147.67116 2.47588414,146.682763 Z" id="Rectangle-Copy-39" fill="#86EFCE"></path>
                    </g>
                    <g id="Group" transform="translate(143.168875, 38.461330)" fill="#080B0E" fill-rule="nonzero">
                        <path d="M14.9966635,20.552181 C13.2593485,21.1967304 11.3649222,21.3033916 9.56488099,20.8580047 C5.31973405,19.7297631 2.2403312,15.8739045 2.2403312,11.6832929 C2.19430769,9.14398711 3.2031713,6.69712032 5.03143175,4.9138434 C6.77413608,3.21457184 9.11113141,2.24379124 11.5579273,2.20275738 L11.6456715,2.20275738 C16.1248029,2.24821767 18.9618647,5.59574765 18.9869345,5.62880968 C19.3808098,6.08287871 20.06878,6.14375966 20.5378927,5.76605951 C21.0070053,5.38835936 21.0863417,4.70969119 20.7167483,4.23607189 C20.5746863,4.06662902 17.2153377,0.0578585429 11.6707413,0 C8.54968202,0.00751591189 5.56104255,1.24821138 3.36946788,3.44616752 C1.17789322,5.64412366 -0.0349131114,8.61710785 0.000765493237,11.7039567 C0.000765493237,16.869898 3.7612303,21.622564 8.9757415,23.0070363 C9.86828027,23.243335 10.7885709,23.3614603 11.7125242,23.3583813 C13.0956909,23.355602 14.4675869,23.1121916 15.7654696,22.6392213 C19.1874926,21.3993954 22.5343063,18.142786 22.4131358,14.3737152 C21.6314551,14.92967 20.8150636,15.4362513 19.9688336,15.8904355 C19.321198,17.9444138 17.1944463,19.7545597 14.9966635,20.552181 Z" id="Path"></path>
                        <path d="M23.2458496,9.7119024 C22.5043451,10.4485261 21.6959975,11.1204211 20.8303634,11.7196437 C19.3400462,10.3262713 16.9622366,9.65970112 15.24586,9.65970112 C13.8392684,9.65970112 12.7633933,10.0130636 12.0475387,10.7117576 C11.482517,11.2637629 11.1796499,12.0147314 11.2102818,12.7877621 C11.2312132,14.2413669 12.3196472,15.8194516 15.3002817,15.8836993 C16.9471874,15.8694678 18.5649397,15.4653238 20.0098517,14.7071629 C20.7154974,14.3643144 21.3916181,13.9682114 22.0318271,13.5225955 C23.0611324,12.8292127 24.0186083,12.0425799 24.8910594,11.1735381 C25.1808699,10.8954854 25.2887606,10.4875779 25.172196,10.1106317 C25.0556313,9.73368555 24.7333133,9.44817895 24.3323147,9.36667195 C23.931316,9.28516495 23.515974,9.42073474 23.2500358,9.71993337 L23.2458496,9.7119024 Z M15.3421445,13.7273851 C14.4797699,13.7273851 13.449944,13.5225955 13.4373851,12.7395763 C13.4173082,12.5399912 13.489185,12.3419598 13.6341405,12.1974862 C13.7932193,12.0448978 14.2118477,11.7959379 15.24586,11.7959379 C16.5181327,11.8275703 17.754361,12.2079706 18.8083881,12.8921647 C17.7396023,13.4343426 16.5511292,13.7234687 15.3421445,13.7354161 L15.3421445,13.7273851 Z" id="Shape"></path>
                    </g>
                </g>
            </g>
        </g>
    </g>
</svg>