<svg width="40" height="40" viewBox="0 0 40 40" fill="none" xmlns="http://www.w3.org/2000/svg">
<rect x="5" y="28.1555" width="28.4342" height="24.6967" transform="rotate(-66.9067 5 28.1555)" fill="#D9FFEF"/>
<circle cx="21.5451" cy="33.5451" r="1.59426" transform="rotate(75.7596 21.5451 33.5451)" fill="white" stroke="black"/>
<rect x="6.18015" y="9.52066" width="28" height="18" rx="1.5" transform="rotate(4.10557 6.18015 9.52066)" fill="#090B0E" stroke="black" stroke-linejoin="round"/>
<rect x="5.75412" y="8.46549" width="28" height="18" rx="1.5" transform="rotate(4.10557 5.75412 8.46549)" fill="#4BE4B4" stroke="black" stroke-linejoin="round"/>
<mask id="path-5-outside-1_2986_102549" maskUnits="userSpaceOnUse" x="24.5647" y="21.3591" width="9" height="8" fill="black">
<rect fill="white" x="24.5647" y="21.3591" width="9" height="8"/>
<path fill-rule="evenodd" clip-rule="evenodd" d="M31.5916 24.6742L31.4284 26.9473C31.3889 27.4981 30.9102 27.9127 30.3594 27.8731L27.0637 27.6366L25.5647 22.3591L31.5916 24.6742Z"/>
</mask>
<path fill-rule="evenodd" clip-rule="evenodd" d="M31.5916 24.6742L31.4284 26.9473C31.3889 27.4981 30.9102 27.9127 30.3594 27.8731L27.0637 27.6366L25.5647 22.3591L31.5916 24.6742Z" fill="#090B0E"/>
<path d="M31.5916 24.6742L32.589 24.7458C32.6205 24.3066 32.3611 23.8985 31.9501 23.7407L31.5916 24.6742ZM31.4284 26.9473L30.431 26.8757L30.431 26.8757L31.4284 26.9473ZM30.3594 27.8731L30.2878 28.8706L30.2878 28.8706L30.3594 27.8731ZM27.0637 27.6366L26.1018 27.9098C26.2167 28.3144 26.5726 28.6039 26.9922 28.634L27.0637 27.6366ZM25.5647 22.3591L25.9233 21.4256C25.5697 21.2898 25.1697 21.3654 24.8901 21.6209C24.6105 21.8765 24.4993 22.268 24.6028 22.6324L25.5647 22.3591ZM30.5941 24.6026L30.431 26.8757L32.4258 27.0189L32.589 24.7458L30.5941 24.6026ZM30.431 26.8757L30.431 26.8757L30.2878 28.8706C31.3895 28.9496 32.3468 28.1206 32.4258 27.0189L30.431 26.8757ZM30.431 26.8757L27.1353 26.6391L26.9922 28.634L30.2878 28.8706L30.431 26.8757ZM24.6028 22.6324L26.1018 27.9098L28.0257 27.3633L26.5266 22.0859L24.6028 22.6324ZM31.9501 23.7407L25.9233 21.4256L25.2061 23.2926L31.233 25.6077L31.9501 23.7407Z" fill="black" mask="url(#path-5-outside-1_2986_102549)"/>
<mask id="path-7-outside-2_2986_102549" maskUnits="userSpaceOnUse" x="21.0801" y="15.5728" width="18.9772" height="19.168" fill="black">
<rect fill="white" x="21.0801" y="15.5728" width="18.9772" height="19.168"/>
<path fill-rule="evenodd" clip-rule="evenodd" d="M36.6207 24.3675L26.1839 20.3585L29.2388 31.1134L31.1122 27.2339L34.2153 30.6296L35.6917 29.2804L32.5886 25.8847L36.6207 24.3675Z"/>
</mask>
<path fill-rule="evenodd" clip-rule="evenodd" d="M36.6207 24.3675L26.1839 20.3585L29.2388 31.1134L31.1122 27.2339L34.2153 30.6296L35.6917 29.2804L32.5886 25.8847L36.6207 24.3675Z" fill="white"/>
<path d="M26.1839 20.3585L26.5425 19.425C26.1889 19.2892 25.7889 19.3648 25.5093 19.6203C25.2297 19.8758 25.1184 20.2674 25.2219 20.6317L26.1839 20.3585ZM36.6207 24.3675L36.9729 25.3034C37.3615 25.1572 37.6193 24.7861 37.6207 24.3709C37.6222 23.9557 37.3669 23.5829 36.9793 23.434L36.6207 24.3675ZM29.2388 31.1134L28.2769 31.3866C28.3903 31.786 28.7387 32.0737 29.1524 32.1096C29.566 32.1455 29.9588 31.9221 30.1393 31.5482L29.2388 31.1134ZM31.1122 27.2339L31.8504 26.5593C31.6266 26.3144 31.2958 26.1964 30.9675 26.2445C30.6392 26.2925 30.356 26.5003 30.2117 26.7991L31.1122 27.2339ZM34.2153 30.6296L33.4772 31.3042C33.8497 31.7119 34.4822 31.7404 34.8899 31.3678L34.2153 30.6296ZM35.6917 29.2804L36.3663 30.0186C36.774 29.6461 36.8025 29.0135 36.4299 28.6058L35.6917 29.2804ZM32.5886 25.8847L32.2364 24.9488C31.9259 25.0657 31.6935 25.329 31.6162 25.6517C31.5388 25.9743 31.6266 26.3144 31.8504 26.5593L32.5886 25.8847ZM25.8253 21.292L36.2622 25.301L36.9793 23.434L26.5425 19.425L25.8253 21.292ZM30.2008 30.8401L27.1458 20.0853L25.2219 20.6317L28.2769 31.3866L30.2008 30.8401ZM30.2117 26.7991L28.3383 30.6785L30.1393 31.5482L32.0127 27.6688L30.2117 26.7991ZM34.9535 29.955L31.8504 26.5593L30.374 27.9085L33.4772 31.3042L34.9535 29.955ZM35.0171 28.5422L33.5408 29.8914L34.8899 31.3678L36.3663 30.0186L35.0171 28.5422ZM31.8504 26.5593L34.9535 29.955L36.4299 28.6058L33.3268 25.2102L31.8504 26.5593ZM36.2686 23.4316L32.2364 24.9488L32.9408 26.8207L36.9729 25.3034L36.2686 23.4316Z" fill="black" mask="url(#path-7-outside-2_2986_102549)"/>
<mask id="path-9-inside-3_2986_102549" fill="white">
<rect x="8.42065" y="12.2622" width="14" height="6" rx="0.5" transform="rotate(4.10557 8.42065 12.2622)"/>
</mask>
<rect x="8.42065" y="12.2622" width="14" height="6" rx="0.5" transform="rotate(4.10557 8.42065 12.2622)" fill="white" stroke="black" stroke-width="2" mask="url(#path-9-inside-3_2986_102549)"/>
<line x1="8.31088" y1="20.7763" x2="17.2878" y2="21.4207" stroke="black" stroke-linecap="round"/>
<path d="M15.6947 32.2832L17.3972 36.418L13 35.8517L15.6947 32.2832Z" fill="#4BE4B4" stroke="black" stroke-linejoin="round"/>
</svg>
