<svg width="377" height="247" fill="none" xmlns="http://www.w3.org/2000/svg">
  <path fill-rule="evenodd" clip-rule="evenodd" d="M257.793 3.592c-54.115 2.042-88.468 42.466-122.046 53.847-50.353 17.065-99.74 2.709-118.769 59.338-3.195 9.508-4.464 19.282-4.14 28.942l.009.261c1.1 30.192 17.728 59.25 39.66 75.662 11.437 8.558 26.385 11.639 42.337 11.088l.09-.003c24.569-.869 51.506-10.34 71.683-21.675 39.076-21.953 66.564-14.437 94.17-8.012 48.624 11.318 109.527-35.614 103.294-99.528-5.987-61.387-36.629-94.919-92.319-99.591-4.574-.384-9.02-.49-13.333-.351l-.636.022Z" fill="url(#a)"/>
  <path fill-rule="evenodd" clip-rule="evenodd" d="M1.03 172.251a2.956 2.956 0 0 0 2.956 2.956h214.92a2.957 2.957 0 0 0 2.956-2.956V23.936a2.956 2.956 0 0 0-2.956-2.956H3.986a2.956 2.956 0 0 0-2.956 2.956V172.25Z" fill="#fff" stroke="#CDD2DA" stroke-width="1.466"/>
  <path fill-rule="evenodd" clip-rule="evenodd" d="M2.084 46.197h219l-.037-17.966a2.956 2.956 0 0 0-2.965-2.95L2.084 25.99v20.207Z" fill="#fff"/>
  <path fill-rule="evenodd" clip-rule="evenodd" d="m1.77 25.94 219.314-.669a3.041 3.041 0 0 0-2.888-3.976L5.349 20.903C2.738 20.898.906 23.476 1.77 25.94Z" fill="#EBEEF2"/>
  <path d="M.766 45.832h221.059" stroke="#CED2D9" stroke-width=".5" stroke-linecap="square"/>
  <path fill-rule="evenodd" clip-rule="evenodd" d="M1.03 172.024a2.956 2.956 0 0 0 2.956 2.956h214.088a2.956 2.956 0 0 0 2.956-2.956v-9.044h-220v9.044Z" fill="#F5F7FA"/>
  <path fill-rule="evenodd" clip-rule="evenodd" d="M9.171 28.365h8.797a2.2 2.2 0 0 1 2.2 2.2v8.796a2.2 2.2 0 0 1-2.2 2.2H9.171a2.2 2.2 0 0 1-2.2-2.2v-8.797a2.2 2.2 0 0 1 2.2-2.2ZM31.182 86.362c0 .92.746 1.667 1.667 1.667h174.027a1.667 1.667 0 1 0 0-3.333H32.849c-.92 0-1.667.746-1.667 1.666ZM31.182 35.043c0 .92.746 1.666 1.667 1.666H44.91a1.667 1.667 0 1 0 0-3.333H32.85c-.92 0-1.667.746-1.667 1.667ZM54.642 35.043c0 .92.747 1.666 1.667 1.666h15.728a1.667 1.667 0 1 0 0-3.333H56.31c-.92 0-1.666.746-1.666 1.667ZM81.769 35.043c0 .92.746 1.666 1.666 1.666h23.793a1.667 1.667 0 1 0 0-3.333H83.435c-.92 0-1.666.746-1.666 1.667ZM31.182 62.726a3.558 3.558 0 0 0 3.558 3.558h170.8a3.558 3.558 0 0 0 0-7.116H34.74a3.558 3.558 0 0 0-3.558 3.558ZM31.182 123.206c0 .921.746 1.667 1.667 1.667H152.19a1.667 1.667 0 0 0 0-3.333H32.849c-.92 0-1.667.746-1.667 1.666ZM31.461 134.04a1.5 1.5 0 0 0 1.5 1.5h72a1.5 1.5 0 0 0 0-3h-72a1.5 1.5 0 0 0-1.5 1.5Z" fill="#EBEEF2"/><rect x="31.461" y="94.54" width="125" height="18" rx="2" fill="#DBFFF3"/>
  <path d="M64.129 107.696c1.452 0 2.592-.6 3.408-1.512v-3.072h-3.816v1.488h2.112v.96c-.324.3-.996.612-1.704.612-1.452 0-2.508-1.116-2.508-2.628s1.056-2.628 2.508-2.628c.852 0 1.536.48 1.896 1.044l1.416-.768c-.6-.948-1.644-1.788-3.312-1.788-2.34 0-4.26 1.608-4.26 4.14 0 2.52 1.92 4.152 4.26 4.152ZM74.29 107.54v-5.796h-1.524v3.924c-.264.336-.732.66-1.32.66-.648 0-1.068-.264-1.068-1.068v-3.516h-1.524v4.116c0 1.128.6 1.824 1.872 1.824.948 0 1.644-.432 2.04-.876v.732h1.524ZM77.327 107.54v-3.828c.252-.372.924-.66 1.428-.66.168 0 .312.012.42.036V101.6c-.72 0-1.44.42-1.848.936v-.792h-1.524v5.796h1.524ZM85.563 107.54v-5.796H84.04v3.924c-.264.336-.732.66-1.32.66-.648 0-1.068-.264-1.068-1.068v-3.516h-1.524v4.116c0 1.128.6 1.824 1.872 1.824.948 0 1.644-.432 2.04-.876v.732h1.524ZM94.059 107.684c1.764 0 2.772-.972 3.348-1.968l-1.464-.708a2.146 2.146 0 0 1-1.884 1.164c-1.452 0-2.508-1.116-2.508-2.628s1.056-2.628 2.508-2.628c.828 0 1.548.516 1.884 1.164l1.464-.72c-.564-.996-1.584-1.956-3.348-1.956-2.4 0-4.26 1.68-4.26 4.14s1.86 4.14 4.26 4.14ZM103.389 107.54v-3.744c0-1.668-1.212-2.196-2.532-2.196-.912 0-1.824.288-2.532.912l.576 1.02c.492-.456 1.068-.684 1.692-.684.768 0 1.272.384 1.272.972v.78c-.384-.456-1.068-.708-1.836-.708-.924 0-2.016.516-2.016 1.872 0 1.296 1.092 1.92 2.016 1.92.756 0 1.44-.276 1.836-.744v.6h1.524Zm-2.748-.888c-.6 0-1.092-.312-1.092-.852 0-.564.492-.876 1.092-.876.492 0 .972.168 1.224.504v.72c-.252.336-.732.504-1.224.504ZM106.425 107.54v-3.828c.252-.372.924-.66 1.428-.66.168 0 .312.012.42.036V101.6c-.72 0-1.44.42-1.848.936v-.792h-1.524v5.796h1.524ZM114.745 107.54v-8.004h-1.536v2.952a2.232 2.232 0 0 0-1.788-.888c-1.476 0-2.568 1.152-2.568 3.048 0 1.932 1.104 3.036 2.568 3.036.696 0 1.332-.312 1.788-.888v.744h1.536Zm-2.856-1.212c-.864 0-1.464-.684-1.464-1.68 0-1.008.6-1.692 1.464-1.692.516 0 1.068.276 1.32.66v2.052c-.252.384-.804.66-1.32.66ZM124.45 107.54v-1.5h-3.384v-6.504h-1.704v8.004h5.088ZM126.364 101.12a.912.912 0 0 0 .912-.912c0-.504-.408-.9-.912-.9a.91.91 0 0 0-.912.9c0 .504.42.912.912.912Zm.768 6.42v-5.796h-1.524v5.796h1.524ZM134.079 107.54v-4.092c0-1.128-.612-1.848-1.884-1.848-.948 0-1.656.456-2.028.9v-.756h-1.524v5.796h1.524v-3.9a1.65 1.65 0 0 1 1.32-.684c.648 0 1.068.276 1.068 1.08v3.504h1.524ZM141.256 107.54l-2.364-3.168 2.292-2.628h-1.872l-2.196 2.58v-4.788h-1.524v8.004h1.524v-1.488l.696-.744 1.536 2.232h1.908Z" fill="#058E6C"/>
  <path fill-rule="evenodd" clip-rule="evenodd" d="M45.23 97.873c1.663 0 3.23.741 4.298 2.034a.588.588 0 1 1-.906.753 4.392 4.392 0 0 0-3.393-1.608c-2.44 0-4.425 2.013-4.425 4.488 0 2.474 1.985 4.486 4.425 4.486a4.372 4.372 0 0 0 2.715-.942c.335-.265.58-.513.749-.76.202-.295.348-.606.422-.899.014-.06.024-.118.031-.175l.532-.252.335-.169c.107-.056.206-.11.286-.157.059.33.047.678-.045 1.042a4.064 4.064 0 0 1-.591 1.277c-.238.347-.562.68-.992 1.02a5.57 5.57 0 0 1-2.482 1.112 5.608 5.608 0 0 1-.96.083c-3.088 0-5.601-2.542-5.601-5.666 0-3.125 2.513-5.667 5.601-5.667Zm5.392 4.472a.587.587 0 0 1 .831-.004c.231.23.233.603.005.835a7.708 7.708 0 0 1-1.015.868l-.267.183c-.18.119-.367.221-.581.327l-.47.223a6.658 6.658 0 0 1-2.536.486c-.981 0-1.51-.711-1.51-1.38 0-.373.158-.734.434-.989.202-.187.565-.409 1.144-.409.407 0 .801.037 1.17.111.392.078.75.196 1.064.349.206.102.393.217.559.347.41-.254.8-.568 1.172-.947Zm-4.033 1.739c-.206 0-.334-.077-.334-.201 0-.032.01-.079.055-.122.068-.063.191-.097.347-.097.33 0 .647.03.941.089.176.035.341.08.494.135a5.628 5.628 0 0 1-1.503.196Z" fill="#058E6C"/>
  <path d="m242.358 73.784 7.626-8.783M256.877 81.21l-6.292 2.288M229.787 66.188l1.824-5.047" stroke="#090B0E" stroke-width="1.934" stroke-linecap="round"/>
  <path fill-rule="evenodd" clip-rule="evenodd" d="M154.491 242.897a2.955 2.955 0 0 0 2.956 2.956h214.92a2.956 2.956 0 0 0 2.956-2.956V94.583a2.956 2.956 0 0 0-2.956-2.956h-214.92a2.956 2.956 0 0 0-2.956 2.956v148.314Z" fill="#fff" stroke="#CDD2DA" stroke-width="1.466"/>
  <path fill-rule="evenodd" clip-rule="evenodd" d="M155.545 116.844h219l-.037-17.966a2.956 2.956 0 0 0-2.965-2.95l-215.998.709v20.207Z" fill="#fff"/>
  <path fill-rule="evenodd" clip-rule="evenodd" d="m155.232 96.587 219.313-.669a3.041 3.041 0 0 0-2.888-3.977L158.81 91.55c-2.611-.004-4.443 2.574-3.578 5.038Z" fill="#EBEEF2"/>
  <path d="M154.227 116.479h221.059" stroke="#CED2D9" stroke-width=".5" stroke-linecap="square"/>
  <path fill-rule="evenodd" clip-rule="evenodd" d="M154.491 242.671a2.956 2.956 0 0 0 2.956 2.956h214.088a2.956 2.956 0 0 0 2.956-2.956v-9.044h-220v9.044Z" fill="#F5F7FA"/>
  <path fill-rule="evenodd" clip-rule="evenodd" d="M162.632 99.011h8.797a2.2 2.2 0 0 1 2.2 2.2v8.797a2.2 2.2 0 0 1-2.2 2.2h-8.797a2.2 2.2 0 0 1-2.2-2.2v-8.797a2.2 2.2 0 0 1 2.2-2.2ZM184.643 157.009c0 .921.746 1.667 1.667 1.667h174.027a1.667 1.667 0 1 0 0-3.333H186.31c-.921 0-1.667.746-1.667 1.666ZM184.643 105.689c0 .921.746 1.667 1.667 1.667h12.062a1.667 1.667 0 1 0 0-3.333H186.31c-.921 0-1.667.746-1.667 1.666ZM208.104 105.689c0 .921.746 1.667 1.666 1.667h15.729a1.666 1.666 0 0 0 0-3.333H209.77c-.92 0-1.666.746-1.666 1.666ZM235.23 105.689c0 .921.746 1.667 1.666 1.667h23.793a1.667 1.667 0 1 0 0-3.333h-23.793c-.92 0-1.666.746-1.666 1.666ZM184.643 133.373a3.558 3.558 0 0 0 3.558 3.558h170.8a3.558 3.558 0 0 0 0-7.117h-170.8a3.558 3.558 0 0 0-3.558 3.559ZM184.643 169.509c0 .92.746 1.666 1.667 1.666h174.027a1.666 1.666 0 1 0 0-3.333H186.31c-.921 0-1.667.746-1.667 1.667ZM184.643 181.593c0 .92.746 1.666 1.667 1.666h174.027a1.666 1.666 0 1 0 0-3.333H186.31c-.921 0-1.667.746-1.667 1.667ZM184.643 194.509c0 .921.746 1.667 1.667 1.667h119.341a1.667 1.667 0 0 0 0-3.333H186.31c-.921 0-1.667.746-1.667 1.666Z" fill="#EBEEF2"/>
  <path fill-rule="evenodd" clip-rule="evenodd" d="M201.595 98.595c-1.839-6.533 1.709-13.372 8.109-15.63l12.95-4.57c6.931-2.446 14.499 1.397 16.614 8.436l4.361 14.516c1.982 6.595-1.577 13.582-8.078 15.857l-13.209 4.621c-7.008 2.452-14.632-1.516-16.644-8.662l-4.103-14.568Z" fill="#242C38"/>
  <path fill-rule="evenodd" clip-rule="evenodd" d="M223.358 96.677a1.004 1.004 0 1 1 1.6 1.214l-3.418 4.508a1 1 0 0 1-1.406.193 1.003 1.003 0 0 1-.193-1.407l3.417-4.508Zm.103 8.174a1.003 1.003 0 1 1 1.599 1.215l-1.213 1.6a6.054 6.054 0 0 1-9.064.638 6.153 6.153 0 0 1-.434-8.088l1.083-1.442a1.001 1.001 0 0 1 1.407-.193 1 1 0 0 1 .193 1.408l-1.212 1.61a4 4 0 0 0 1.074 5.84 4.198 4.198 0 0 0 5.472-1.155l1.095-1.433Zm5.38-15.055a6.067 6.067 0 0 1 1.827 8.897l-1.213 1.6a1.003 1.003 0 0 1-1.407.193.998.998 0 0 1-.193-1.407l1.212-1.61a4.004 4.004 0 0 0-1.077-5.86 4.167 4.167 0 0 0-5.462 1.153l-1.109 1.475a1 1 0 0 1-1.406.193 1.09 1.09 0 0 1-.051-1.619l.92-1.236a6.175 6.175 0 0 1 7.959-1.78Z" fill="#fff"/>
  <path d="M107.961 117.54a1.5 1.5 0 1 0-3 0h3Zm66.58 39.992a1.5 1.5 0 0 0-.039-2.121l-9.722-9.368a1.5 1.5 0 1 0-2.081 2.161l8.641 8.326-8.326 8.641a1.5 1.5 0 1 0 2.16 2.082l9.367-9.721Zm-69.58-39.992c0 11.393 1.983 22.022 11.913 29.519 9.783 7.386 26.979 11.481 56.615 10.932l-.056-3c-29.521.548-45.824-3.586-54.752-10.327-8.781-6.629-10.72-16.025-10.72-27.124h-3Z" fill="#000"/>
  <linearGradient id="a" x1="34.426" y1="266.323" x2="410.294" y2="198.974" gradientUnits="userSpaceOnUse">
    <stop offset=".001" stop-color="#99F2D5"/>
    <stop offset="1" stop-color="#58E4B8"/>
  </linearGradient>
</svg> 
