<?xml version="1.0" encoding="UTF-8"?>
<svg width="91px" height="20px" viewBox="0 0 91 20" version="1.1" xmlns="http://www.w3.org/2000/svg" xmlns:xlink="http://www.w3.org/1999/xlink">
    <g stroke-width="1"  fill-rule="evenodd">
        <g  transform="translate(-881.000000, -696.000000)" fill="#000000" fill-rule="nonzero">
            <g  transform="translate(881.000000, 501.000000)">
                <g transform="translate(0.000000, 195.000000)">
                    <g>
                        <path d="M4.01830477,20 C2.55619491,19.9976464 1.21034908,19.1926158 0.502737229,17.8971231 C-0.204874617,16.6016304 -0.162933624,15.0194777 0.612293904,13.7642838 L7.8527551,2.05662555 C8.61572449,0.823045355 9.97070752,0.0953052947 11.4072952,0.147538004 C12.8438829,0.199770714 14.1438233,1.0240408 14.8174416,2.3098537 C15.4910598,3.5956666 15.4360172,5.14767675 14.6730479,6.38125695 L7.43093247,18.0889151 C6.69519999,19.2794086 5.40529561,20.0017576 4.01830477,20 L4.01830477,20 Z"></path>
                        <path d="M16.4959833,20 C15.0326885,20 13.6846424,19.1960007 12.9754051,17.9000499 C12.2661678,16.6040991 12.3075026,15.0204945 13.0833555,13.7642838 L20.3287794,2.05662555 C21.0604468,0.756600856 22.4371511,-0.0326092399 23.9145689,0.00103435804 C25.3919866,0.0346779551 26.7322563,0.885758683 27.4054602,2.21777496 C28.078664,3.54979124 27.9764174,5.14829099 27.1391469,6.38125695 L19.9069568,18.0889151 C19.1712243,19.2794086 17.8813199,20.0017576 16.494329,20 L16.4959833,20 Z"></path>
                        <ellipse cx="28.9703533" cy="16.0203947" rx="4.02964666" ry="3.97792393"></ellipse>
                    </g>
                    <path d="M91,7.01156226 L88.6539142,7.01156226 L87.0093851,11.2062382 L85.3761983,7.01156226 L83.0252513,7.01156226 L85.8792781,13.6262436 L84.1051314,18 L86.4358256,18 L91,7.01156226 Z M76.9089007,10.6899704 C76.9089007,11.7467061 77.8445808,12.442861 78.7721598,12.442861 C79.6762456,12.442861 80.5625088,11.7959129 80.5625088,10.6899704 C80.5625088,9.58402802 79.6754355,8.93707986 78.7721598,8.93707986 C77.8518719,8.93707986 76.9089007,9.63242806 76.9089007,10.6899704 Z M80.5544077,14.384512 L80.5544077,13.5479968 C80.0788716,14.257865 78.9690172,14.5272924 78.399508,14.5272924 C77.3849421,14.5270731 76.4131678,14.1202255 75.703268,13.3984717 C74.9933683,12.676718 74.6051024,11.7008152 74.6260033,10.6907771 C74.6051024,9.68073904 74.9933683,8.70483621 75.703268,7.98308247 C76.4131678,7.26132874 77.3849421,6.85448109 78.399508,6.85426191 C78.8750442,6.85426191 79.9848985,7.01156226 80.5544077,7.83355742 L80.5544077,7.01478893 L82.7417118,7.01478893 L82.7417118,14.3861253 L80.5544077,14.384512 Z M74.0022165,14.384512 L71.8149123,14.384512 L71.8149123,13.4689433 C71.4503616,14.1481581 70.5624782,14.5418124 69.6421903,14.5418124 C67.7384255,14.5418124 66.0582518,13.041409 66.0582518,10.7198172 C66.0582518,8.35385857 67.7392356,6.8518419 69.6421903,6.8518419 C70.5616681,6.8518419 71.4503616,7.23097608 71.8149123,7.90857759 L71.8149123,3 L74.0022165,3 L74.0022165,14.384512 Z M71.7663056,10.6754504 C71.7663056,9.57031458 70.9578132,8.92255985 70.0537274,8.92255985 C69.1180473,8.92255985 68.3411493,9.61629474 68.3411493,10.6754504 C68.3411493,11.7676795 69.1188574,12.4581877 70.0537274,12.4581877 C70.9732053,12.4581877 71.7663056,11.7321861 71.7663056,10.6754504 Z M60.6483195,10.4850767 C60.6483195,9.35574084 61.2348411,8.98467333 62.0117391,8.98467333 C62.7570428,8.98467333 63.2957676,9.47432107 63.2957676,10.4528099 L63.2957676,14.384512 L65.4992741,14.384512 L65.4992741,9.9801022 C65.4992741,7.88034419 64.4526086,6.85426191 62.7878271,6.85426191 C61.9161458,6.85426191 61.0436545,7.34390967 60.6475094,8.08523798 L60.6475094,7.01236893 L58.4440029,7.01236893 L58.4440029,14.3837054 L60.6475094,14.3837054 L60.6483195,10.4850767 Z M53.9689407,14.5103523 C51.8756096,14.5103523 50.1306269,12.9954289 50.1306269,10.6738371 C50.1306269,8.35224524 51.8747995,6.8518419 53.9689407,6.8518419 C56.0630818,6.8518419 57.8218364,8.35224524 57.8218364,10.6738371 C57.8218364,12.9954289 56.0614617,14.5103523 53.9689407,14.5103523 Z M53.9689407,12.3646142 C54.8884185,12.3646142 55.6499245,11.7015327 55.6499245,10.6754504 C55.6499245,9.68082819 54.8884185,9.00161339 53.9689407,9.00161339 C53.5222717,8.9942085 53.0919246,9.16868948 52.7774944,9.48467633 C52.4630642,9.80066309 52.2918042,10.2307673 52.303349,10.6754504 C52.303349,11.6999194 53.0648549,12.3646142 53.9689407,12.3646142 Z M46.175657,8.98467333 C46.8253673,8.98467333 47.3964967,9.48964773 47.3964967,10.4528099 L47.3964967,14.384512 L49.5838009,14.384512 L49.5838009,10.189836 C49.5838009,7.96343104 48.4869083,6.84216188 46.729774,6.84216188 C46.2072514,6.84216188 45.2229644,6.99946223 44.5100653,8.15299813 C44.0969079,7.30034956 43.3054278,6.85829525 42.1340049,6.85829525 C41.3062676,6.85252471 40.5509743,7.32734156 40.200266,8.07394462 L40.200266,7.00349557 L38,7.00349557 L38,14.374832 L40.2035065,14.374832 L40.2035065,10.4842699 C40.2035065,9.3549341 40.8224325,8.98386668 41.487535,8.98386668 C42.1218532,8.98386668 42.6921725,9.47351441 42.7083747,10.4036031 L42.7083747,14.382092 L44.9118812,14.382092 L44.9118812,10.4842699 C44.9126913,9.41140093 45.4830106,8.98386668 46.175657,8.98386668 L46.175657,8.98467333 Z"></path>
                </g>
            </g>
        </g>
    </g>
</svg>