<svg width="323" height="239" viewBox="0 0 323 239" fill="none" xmlns="http://www.w3.org/2000/svg">
<path opacity="0.2" d="M19.2995 86.315C18.8743 84.7133 19.7779 83.0671 21.3569 82.5667L263.138 5.9388C264.786 5.41664 266.553 6.33243 267.078 7.98046L316.453 162.947C316.992 164.639 316.011 166.428 314.296 166.883L61.723 233.885C60.0503 234.329 58.3268 233.328 57.8827 231.655L19.2995 86.315Z" fill="url(#paint0_linear_685_43311)"/>
<path d="M231.255 16.1059L265.31 4.8045L268.773 14.3447" stroke="black" stroke-linecap="round" stroke-linejoin="round"/>
<path d="M55.4546 222.764L58.6375 233.512L116.132 218.97" stroke="black" stroke-linecap="round" stroke-linejoin="round"/>
<rect x="19.2344" y="195.494" width="10.0638" height="10.82" transform="rotate(-6.87206 19.2344 195.494)" fill="#D9FFEF"/>
<rect x="25.3121" y="199.688" width="7.59897" height="8.24507" transform="rotate(-6.87206 25.3121 199.688)" stroke="black"/>
<rect x="212.853" y="2.61792" width="7.65687" height="7.65687" transform="rotate(23.1398 212.853 2.61792)" fill="#DAF5E7"/>
<rect x="210.272" y="5.36378" width="6.65687" height="6.65687" transform="rotate(23.1398 210.272 5.36378)" fill="#DAF5E7" stroke="black" stroke-linejoin="round"/>
<rect x="55.5793" y="111.675" width="129.296" height="93.2589" rx="3.5" transform="rotate(-10.0114 55.5793 111.675)" fill="white" stroke="black"/>
<path d="M56.1878 115.121C55.8517 113.218 57.1225 111.402 59.026 111.066L179.182 89.8548C181.085 89.5187 182.901 90.7895 183.237 92.693L183.92 96.5626L56.8709 118.991L56.1878 115.121Z" fill="#090B0E" stroke="black"/>
<path d="M56.1878 115.121C55.8517 113.218 57.1225 111.402 59.026 111.066L83.8976 106.676L100.11 198.514L75.2385 202.905C73.335 203.241 71.5194 201.97 71.1834 200.067L56.1878 115.121Z" fill="#090B0E" stroke="#090B0E"/>
<path d="M94.7563 124.763L113.818 121.398" stroke="#090B0E" stroke-linecap="round" stroke-linejoin="round"/>
<path d="M95.6548 129.854L110.878 127.166" stroke="#090B0E" stroke-linecap="round" stroke-linejoin="round"/>
<path d="M62.0176 115.68L71.1615 114.066" stroke="white" stroke-linecap="round" stroke-linejoin="round"/>
<rect x="163.378" y="107.576" width="129.296" height="93.2589" rx="3.5" transform="rotate(-2.01141 163.378 107.576)" fill="white" stroke="black"/>
<path d="M163.5 111.074C163.433 109.142 164.944 107.521 166.875 107.453L288.814 103.171C290.746 103.103 292.367 104.614 292.435 106.546L292.573 110.473L163.638 115.001L163.5 111.074Z" fill="#090B0E" stroke="black"/>
<path d="M163.5 111.074C163.433 109.142 164.944 107.521 166.875 107.453L192.116 106.567L195.389 199.768L170.149 200.655C168.217 200.723 166.596 199.212 166.528 197.28L163.5 111.074Z" fill="#090B0E" stroke="#090B0E"/>
<path d="M200.352 125.99L219.696 125.31" stroke="#090B0E" stroke-linecap="round" stroke-linejoin="round"/>
<path d="M200.533 131.156L215.982 130.614" stroke="#090B0E" stroke-linecap="round" stroke-linejoin="round"/>
<path d="M169.195 112.439L178.475 112.113" stroke="white" stroke-linecap="round" stroke-linejoin="round"/>
<path d="M147.271 39.9605C147.137 38.0322 148.59 36.3597 150.519 36.2249L202.803 32.5688C204.731 32.434 206.404 33.8878 206.539 35.8161L209.509 78.2856C209.643 80.2139 208.189 81.8864 206.261 82.0212L153.977 85.6773C152.049 85.8121 150.376 84.3582 150.241 82.4299L147.271 39.9605Z" fill="white" stroke="black"/>
<path d="M148.898 63.2308C148.764 61.3025 150.217 59.63 152.146 59.4951L203.851 55.8796C205.779 55.7448 207.451 57.1986 207.586 59.1269L208.929 78.3262C209.064 80.2545 207.61 81.927 205.681 82.0619L153.977 85.6774C152.048 85.8123 150.376 84.3584 150.241 82.4301L148.898 63.2308Z" fill="#090B0E" stroke="black"/>
<path d="M150.551 35.2835C150.696 33.356 152.378 31.8948 154.307 32.0199L206.826 35.4265C208.755 35.5516 210.201 37.2156 210.055 39.1432L206.75 82.9861C206.605 84.9136 204.923 86.3748 202.995 86.2496L150.475 82.8431C148.546 82.7179 147.1 81.0539 147.246 79.1264L150.551 35.2835Z" fill="#090B0E" stroke="black"/>
<path d="M150.624 34.8484C150.769 32.9209 152.451 31.4598 154.38 31.5849L206.899 34.9915C208.828 35.1166 210.274 36.7806 210.129 38.7081L206.798 82.8948C206.652 84.8223 204.971 86.2835 203.042 86.1583L150.523 82.7518C148.594 82.6266 147.148 80.9626 147.293 79.0351L150.624 34.8484Z" fill="white" stroke="black"/>
<circle cx="155.304" cy="36.6757" r="1.46611" transform="rotate(4 155.304 36.6757)" fill="#4BE4B4" stroke="black"/>
<path d="M150.797 32.8511C151.08 31.9923 151.918 31.4009 152.861 31.4669L208.312 35.3444C209.256 35.4104 210.003 36.1126 210.164 37.0024L150.797 32.8511Z" fill="#86EFCE" stroke="#090B0E"/>
<path d="M158.144 53.8206L171.041 54.7224" stroke="black" stroke-linecap="round"/>
<path d="M158.33 51.1605L198.458 53.9665" stroke="black" stroke-linecap="round"/>
<path d="M138.071 98.22C138.317 98.346 138.618 98.249 138.744 98.0033C138.87 97.7576 138.773 97.4563 138.528 97.3302L138.071 98.22ZM140.288 45.1479C140.383 44.8885 140.249 44.6014 139.99 44.5066L135.763 42.9624C135.504 42.8677 135.217 43.0011 135.122 43.2605C135.027 43.5199 135.161 43.8069 135.42 43.9017L139.177 45.2743L137.804 49.0314C137.71 49.2908 137.843 49.5779 138.103 49.6727C138.362 49.7674 138.649 49.634 138.744 49.3746L140.288 45.1479ZM138.528 97.3302C125.109 90.4462 119.673 80.1891 120.441 70.3571C121.211 60.4994 128.226 50.9159 140.029 45.4297L139.608 44.5229C127.55 50.1274 120.248 59.9879 119.444 70.2792C118.639 80.5962 124.374 91.1931 138.071 98.22L138.528 97.3302Z" fill="black"/>
<path d="M210.307 52.298C210.031 52.2965 209.806 52.5191 209.805 52.7952C209.803 53.0714 210.026 53.2964 210.302 53.298L210.307 52.298ZM222.04 98.2807C221.977 98.5495 222.143 98.8188 222.412 98.8822L226.792 99.916C227.061 99.9795 227.33 99.813 227.393 99.5442C227.457 99.2755 227.29 99.0062 227.022 98.9428L223.129 98.0238L224.048 94.1308C224.111 93.8621 223.945 93.5928 223.676 93.5293C223.407 93.4659 223.138 93.6323 223.074 93.9011L222.04 98.2807ZM210.302 53.298C223.982 53.373 233.63 60.4614 236.552 69.4872C239.465 78.4845 235.76 89.6291 222.264 97.9703L222.79 98.8209C236.565 90.3071 240.595 78.7289 237.503 69.1791C234.421 59.6579 224.322 52.3749 210.307 52.298L210.302 53.298Z" fill="black"/>
<defs>
<linearGradient id="paint0_linear_685_43311" x1="36.1639" y1="151.437" x2="296.095" y2="83.7972" gradientUnits="userSpaceOnUse">
<stop stop-color="#96F2BC"/>
<stop offset="0.3029" stop-color="#7FF5CD"/>
<stop offset="0.9355" stop-color="#44FEFA"/>
<stop offset="1" stop-color="#3EFFFF"/>
</linearGradient>
</defs>
</svg>
