<svg width="500px" height="330px" viewBox="0 0 500 330" xmlns="http://www.w3.org/2000/svg" xmlns:xlink="http://www.w3.org/1999/xlink">
    <defs>
        <rect id="path-1" x="204" y="24.360475" width="253" height="236" rx="2.23999996"></rect>
        <filter x="-1.5%" y="-1.2%" width="103.0%" height="103.2%" filterUnits="objectBoundingBox" id="filter-2">
            <feMorphology radius="0.279999995" operator="dilate" in="SourceAlpha" result="shadowSpreadOuter1"></feMorphology>
            <feOffset dx="0" dy="1" in="shadowSpreadOuter1" result="shadowOffsetOuter1"></feOffset>
            <feGaussianBlur stdDeviation="1" in="shadowOffsetOuter1" result="shadowBlurOuter1"></feGaussianBlur>
            <feComposite in="shadowBlurOuter1" in2="SourceAlpha" operator="out" result="shadowBlurOuter1"></feComposite>
            <feColorMatrix values="0 0 0 0 0   0 0 0 0 0   0 0 0 0 0  0 0 0 0.5 0" type="matrix" in="shadowBlurOuter1"></feColorMatrix>
        </filter>
        <path d="M1.875,4.875 C2.08125,4.875 2.248875,5.0415 2.25,5.248125 L2.25,5.248125 L2.254875,6.214875 L3.484875,4.984875 C3.6315,4.83825 3.8685,4.83825 4.015125,4.984875 C4.16175,5.1315 4.16175,5.3685 4.015125,5.515125 L4.015125,5.515125 L2.780625,6.749625 L3.75,6.75 C3.957375,6.75 4.125,6.918 4.125,7.125375 C4.124625,7.332375 3.957,7.5 3.75,7.5 L3.75,7.5 L3.749625,7.5 L1.884,7.498875 C1.67775,7.498875 1.5105,7.332 1.509375,7.12575 L1.509375,7.12575 L1.49999436,5.251875 C1.498875,5.044875 1.666125,4.876125 1.873125,4.875 L1.873125,4.875 Z M5.251725,1.50015 L7.1256,1.509525 C7.33185,1.51065 7.498725,1.6779 7.498725,1.88415 L7.498725,1.88415 L7.49985063,3.749775 C7.500225,3.956775 7.332225,4.12515 7.125225,4.12515 L7.125225,4.12515 C6.91785,4.12515 6.750225,3.95715 6.74985,3.750525 L6.74985,3.750525 L6.7491,2.78115 L5.514975,4.015275 C5.44185,4.0884 5.34585,4.12515 5.24985,4.12515 C5.154225,4.12515 5.058225,4.0884 4.984725,4.015275 C4.838475,3.86865 4.838475,3.631275 4.984725,3.485025 L4.984725,3.485025 L6.214725,2.255025 L5.24835,2.25015 C5.040975,2.249025 4.873725,2.0799 4.87484436,1.873275 C4.875975,1.66665 5.043975,1.50015 5.24985,1.50015 L5.24985,1.50015 L5.251725,1.50015 Z" id="path-3"></path>
        <rect id="path-5" x="74" y="102.360475" width="174" height="201" rx="4"></rect>
        <filter x="-2.2%" y="-1.4%" width="104.5%" height="103.9%" filterUnits="objectBoundingBox" id="filter-6">
            <feMorphology radius="0.4" operator="dilate" in="SourceAlpha" result="shadowSpreadOuter1"></feMorphology>
            <feOffset dx="0" dy="1" in="shadowSpreadOuter1" result="shadowOffsetOuter1"></feOffset>
            <feGaussianBlur stdDeviation="1" in="shadowOffsetOuter1" result="shadowBlurOuter1"></feGaussianBlur>
            <feComposite in="shadowBlurOuter1" in2="SourceAlpha" operator="out" result="shadowBlurOuter1"></feComposite>
            <feColorMatrix values="0 0 0 0 0   0 0 0 0 0   0 0 0 0 0  0 0 0 0.5 0" type="matrix" in="shadowBlurOuter1"></feColorMatrix>
        </filter>
        <polygon id="path-7" points="3.64000006 5.32000003 7 8.67999997 10.3599999 5.32000003"></polygon>
    </defs>
    <g id="Human-Resources-&amp;-Manager-Toolkit-" stroke="none" stroke-width="1" fill="none" fill-rule="evenodd">
        <path d="M354.092422,0 C277.320194,0.225455336 226.647541,58.1541543 178.509445,73.2299427 C106.323904,95.8359393 37.0596883,72.0862693 7.29817054,154.738195 C2.30105814,168.615996 0.019544079,182.984675 0,197.26727 L0,197.653619 C0.065832687,242.298899 22.1856155,286.072077 52.4470502,311.439902 C68.2283797,324.670031 89.2557514,329.990777 111.88368,330 L112.01226,330 C146.865524,329.983603 185.499025,317.384749 214.647476,301.685884 C271.097977,271.280158 309.671817,283.797028 348.466813,294.710091 C416.799085,313.932208 505.410911,247.762092 499.741071,153.048305 C494.296502,62.0811763 452.541091,10.9786501 373.867944,1.20618605 C367.407083,0.403770011 361.112861,0.0184463457 354.994536,0 L354.092422,0 Z" id="Fill-1-Copy" fill="#F2F7FF"></path>
        <g id="Rectangle">
            <use fill="black" fill-opacity="1" filter="url(#filter-2)" xlink:href="#path-1"></use>
            <use stroke="#E9EBF0" stroke-width="0.55999999" fill="#FFFFFF" xlink:href="#path-1"></use>
        </g>
        <path d="M206,24.360475 L455,24.360475 C456.104569,24.360475 457,25.2559055 457,26.360475 L457,26.360475 L457,26.360475 L204,26.360475 C204,25.2559055 204.895431,24.360475 206,24.360475 Z" id="Rectangle-7-Copy-6" fill="#29CC96"></path>
        <g id="verification/button/trusted/active" transform="translate(212.000000, 32.360475)">
            <g id="verification-icon-trusted-copy-12">
                <g id="Group-15" fill="#F2FFFB" stroke="#29CC96" stroke-width="0.55999999">
                    <rect id="Rectangle-3" x="0.279999995" y="0.279999995" width="13.44" height="13.44" rx="2.23999996"></rect>
                </g>
                <path d="M10.0397886,3.98728692 C8.54646028,5.57376393 7.18641334,7.13903708 5.73502999,8.70177987 L3.89893716,7.14531496 C3.77385447,7.03896581 3.61396214,6.99016973 3.45465586,7.0089377 C3.29534958,7.02770567 3.14962217,7.11278531 3.04931375,7.24541505 C2.84044988,7.52192988 2.8829235,7.92542757 3.14371635,8.14625828 L5.40937877,10.0680572 C5.65070203,10.2726166 5.99938748,10.2513487 6.21652857,10.0180103 C7.8402533,8.29271537 9.29994408,6.59160306 10.8988976,4.8932133 C11.0794407,4.70867257 11.1331369,4.42527129 11.0346017,4.18067434 C10.9360695,3.93607739 10.7053707,3.78154874 10.4552114,3.7921827 C10.2982101,3.7971009 10.1489482,3.86716649 10.0397886,3.98728692 Z" id="Fill-1" fill="#29CC96"></path>
            </g>
        </g>
        <g id="close" transform="translate(442.000000, 35.360475)" fill="#B8BFCC">
            <path d="M5.02875,4.5 L6.64125,2.89125 C6.78829581,2.74420419 6.78829581,2.50579581 6.64125,2.35875 C6.49420419,2.21170419 6.25579581,2.21170419 6.10875,2.35875 L4.5,3.97125 L2.89125,2.35875 C2.74420418,2.21170419 2.50579582,2.21170419 2.35875,2.35875 C2.21170419,2.50579582 2.21170419,2.74420418 2.35875,2.89125 L3.97125,4.5 L2.35875,6.10875 C2.28775776,6.17916247 2.24782563,6.27501092 2.24782563,6.375 C2.24782563,6.47498908 2.28775776,6.57083753 2.35875,6.64125 C2.42916247,6.71224224 2.52501092,6.75217437 2.625,6.75217437 C2.72498908,6.75217437 2.82083753,6.71224224 2.89125,6.64125 L4.5,5.02875 L6.10875,6.64125 C6.17916247,6.71224224 6.27501092,6.75217437 6.375,6.75217437 C6.47498908,6.75217437 6.57083753,6.71224224 6.64125,6.64125 C6.71224224,6.57083753 6.75217437,6.47498908 6.75217437,6.375 C6.75217437,6.27501092 6.71224224,6.17916247 6.64125,6.10875 L5.02875,4.5 Z" id="-Icon-小olor"></path>
        </g>
        <g id="expand-window" transform="translate(429.000000, 35.360475)">
            <mask id="mask-4" fill="white">
                <use xlink:href="#path-3"></use>
            </mask>
            <use id="-Icon-小olor" fill="#B8BFCC" fill-rule="evenodd" xlink:href="#path-3"></use>
        </g>
        <path d="M421,31.360475 L421,45.360475 L421,31.360475 Z" id="Path-2" stroke="#B8BFCC" stroke-width="0.55999999"></path>
        <g id="globe" transform="translate(406.000000, 35.360475)" fill="#B8BFCC">
            <path d="M8.25,4.5 C8.25,3.50543816 7.85491185,2.55161099 7.15165043,1.84834957 C6.44838901,1.14508815 5.49456184,0.75 4.5,0.75 C2.42893219,0.75 0.75,2.42893219 0.75,4.5 C0.75,6.57106781 2.42893219,8.25 4.5,8.25 C6.57106781,8.25 8.25,6.57106781 8.25,4.5 Z M7.47375,4.125 L6.375,4.125 C6.31315234,3.24305352 6.0109749,2.39488165 5.50125,1.6725 C6.56921252,2.0517964 7.33227495,3.00054701 7.47375,4.125 Z M3.405,4.875 L5.625,4.875 C5.52903112,5.80146887 5.13414427,6.67153623 4.5,7.35375 C3.86627643,6.67438658 3.48044693,5.80098487 3.405,4.875 L3.405,4.875 Z M3.405,4.125 C3.49233211,3.20318507 3.87659587,2.33464367 4.5,1.65 C5.13926682,2.32729603 5.5350483,3.19801528 5.625,4.125 L3.405,4.125 Z M3.54,1.66125 C3.0275811,2.3876335 2.72055012,3.23877 2.65125,4.125 L1.52625,4.125 C1.67078837,2.98608776 2.45262785,2.02953554 3.54,1.66125 Z M1.52625,4.875 L2.65125,4.875 C2.71300924,5.76047499 3.0179548,6.6117273 3.5325,7.335 C2.44916128,6.96495666 1.67085708,6.01062478 1.52625,4.875 Z M5.4825,7.33125 C5.99565302,6.60775325 6.30399818,5.75915627 6.375,4.875 L7.48125,4.875 C7.33658452,6.00734451 6.56180804,6.95946195 5.4825,7.33125 L5.4825,7.33125 Z" id="-Icon-小olor"></path>
        </g>
        <path d="M204,235.360475 L457,235.360475 L457,258.120475 C457,259.357593 455.997118,260.360475 454.76,260.360475 L206.24,260.360475 C205.002882,260.360475 204,259.357593 204,258.120475 L204,235.360475 L204,235.360475 Z" id="Rectangle" stroke="#F2F3F5" stroke-width="0.55999999" fill="#F2F3F5"></path>
        <g id="icon-resize" transform="translate(206.000000, 250.360475)" fill="#8F9CB3">
            <path d="M5.69599992,6.71999989 L4.77866659,6.71999989 L6.71999989,4.77866659 L6.71999989,5.69599992 L5.69599992,6.71999989 Z M3.30666661,6.71999989 L2.38933329,6.71999989 L6.71999989,2.38933329 L6.71999989,3.30666661 L3.30666661,6.71999989 Z M0.917333316,6.71999989 L0,6.71999989 L6.71999989,0 L6.71999989,0.917333316 L0.917333316,6.71999989 Z" id="Shape" transform="translate(3.360000, 3.360000) rotate(90.000000) translate(-3.360000, -3.360000) "></path>
        </g>
        <g id="tag" transform="translate(220.000000, 242.360475)" fill="#B8BFCC">
            <path d="M4.67506187,9.625 C4.56946319,9.625 4.46386451,9.584575 4.38342802,9.5041375 L1.49596411,6.6166375 C1.33467863,6.45535 1.33467863,6.19465 1.49596411,6.0333625 L6.03340739,1.4958625 C6.11054393,1.4183125 6.21531762,1.375 6.32504125,1.375 L9.21250516,1.375 C9.4406148,1.375 9.625,1.5593875 9.625,1.7875 L9.625,4.675 C9.625,4.784725 9.58168804,4.8895 9.50413901,4.9666375 L4.96669573,9.5041375 C4.88625923,9.584575 4.78066055,9.625 4.67506187,9.625 Z M8.80001031,4.504225 L8.80001031,2.2 L6.49581411,2.2 L2.37086568,6.325 L4.67506187,8.629225 L8.80001031,4.504225 Z M7.54251057,2.75748349 C7.73581794,2.56417396 8.04923079,2.56417396 8.24253791,2.75748349 C8.43584503,2.95079328 8.43584503,3.26421005 8.24253791,3.45751958 C8.04923055,3.65082912 7.73581769,3.65082912 7.54251057,3.45751958 C7.34920345,3.2642098 7.34920345,2.95079303 7.54251057,2.75748349 L7.54251057,2.75748349 Z" id="-Icon-小olor"></path>
        </g>
        <rect id="Rectangle-12-[4-8]" fill="#FFFFFF" x="241" y="241.360475" width="51" height="11" rx="5.5"></rect>
        <path d="M237.7632,82.485275 C238.848,82.485275 239.7312,82.034075 240.3456,81.352475 L240.3456,79.000475 L237.3312,79.000475 L237.3312,79.845275 L239.3856,79.845275 L239.3856,80.997275 C239.0784,81.285275 238.4736,81.630875 237.7632,81.630875 C236.4288,81.630875 235.4304,80.594075 235.4304,79.163675 C235.4304,77.723675 236.4288,76.706075 237.7632,76.706075 C238.512,76.706075 239.1552,77.080475 239.52,77.570075 L240.2976,77.118875 C239.76,76.398875 238.9632,75.851675 237.7632,75.851675 C235.9296,75.851675 234.4416,77.166875 234.4416,79.163675 C234.4416,81.160475 235.9296,82.485275 237.7632,82.485275 Z M243.6096,82.475675 C245.0592,82.475675 245.952,81.381275 245.952,80.037275 C245.952,78.702875 245.0592,77.608475 243.6096,77.608475 C242.1696,77.608475 241.2672,78.702875 241.2672,80.037275 C241.2672,81.381275 242.1696,82.475675 243.6096,82.475675 Z M243.6096,81.707675 C242.688,81.707675 242.1696,80.920475 242.1696,80.037275 C242.1696,79.163675 242.688,78.376475 243.6096,78.376475 C244.5408,78.376475 245.0496,79.163675 245.0496,80.037275 C245.0496,80.920475 244.5408,81.707675 243.6096,81.707675 Z M248.3904,82.475675 C249.0144,82.475675 249.5424,82.254875 249.9072,81.851675 L249.9072,82.360475 L250.7712,82.360475 L250.7712,79.230875 C250.7712,78.050075 249.9168,77.608475 248.9088,77.608475 C248.16,77.608475 247.5264,77.858075 247.008,78.366875 L247.3824,78.962075 C247.7952,78.549275 248.2464,78.347675 248.7744,78.347675 C249.4368,78.347675 249.9072,78.693275 249.9072,79.269275 L249.9072,80.037275 C249.552,79.624475 249.0144,79.422875 248.3904,79.422875 C247.6128,79.422875 246.7776,79.883675 246.7776,80.939675 C246.7776,81.957275 247.6224,82.475675 248.3904,82.475675 Z M248.7168,81.870875 C248.0928,81.870875 247.6512,81.496475 247.6512,80.949275 C247.6512,80.402075 248.0928,80.027675 248.7168,80.027675 C249.1968,80.027675 249.648,80.210075 249.9072,80.555675 L249.9072,81.342875 C249.648,81.688475 249.1968,81.870875 248.7168,81.870875 Z M253.0176,82.360475 L253.0176,75.957275 L252.1536,75.957275 L252.1536,82.360475 L253.0176,82.360475 Z M259.0176,82.475675 C260.7456,82.475675 261.4368,81.544475 261.4368,80.546075 C261.4368,79.182875 260.2176,78.856475 259.1712,78.578075 C258.3744,78.376475 257.6832,78.194075 257.6832,77.618075 C257.6832,77.080475 258.1728,76.715675 258.8832,76.715675 C259.5744,76.715675 260.2464,76.946075 260.736,77.464475 L261.2928,76.754075 C260.7264,76.178075 259.9488,75.861275 258.96,75.861275 C257.6256,75.861275 256.6944,76.629275 256.6944,77.685275 C256.6944,78.990875 257.8848,79.288475 258.912,79.557275 C259.728,79.768475 260.4576,79.960475 260.4576,80.632475 C260.4576,81.093275 260.0928,81.621275 259.056,81.621275 C258.1632,81.621275 257.472,81.198875 257.04,80.718875 L256.4928,81.458075 C257.04,82.062875 257.8752,82.475675 259.0176,82.475675 Z M264.6432,82.475675 C265.392,82.475675 266.0448,82.235675 266.5056,81.784475 L266.1024,81.218075 C265.7568,81.573275 265.2192,81.765275 264.7296,81.765275 C263.7984,81.765275 263.2224,81.112475 263.1552,80.325275 L266.8224,80.325275 L266.8224,80.114075 C266.8224,78.693275 265.9584,77.608475 264.5664,77.608475 C263.2128,77.608475 262.2432,78.693275 262.2432,80.037275 C262.2432,81.496475 263.2608,82.475675 264.6432,82.475675 Z M265.9776,79.701275 L263.1456,79.701275 C263.1936,79.067675 263.6352,78.318875 264.5664,78.318875 C265.5456,78.318875 265.9584,79.086875 265.9776,79.701275 Z M269.184,82.475675 C269.6352,82.475675 269.904,82.350875 270.0864,82.178075 L269.8656,81.525275 C269.7792,81.621275 269.5968,81.707675 269.3952,81.707675 C269.0976,81.707675 268.944,81.467675 268.944,81.141275 L268.944,78.482075 L269.8848,78.482075 L269.8848,77.723675 L268.944,77.723675 L268.944,76.456475 L268.08,76.456475 L268.08,77.723675 L267.312,77.723675 L267.312,78.482075 L268.08,78.482075 L268.08,81.333275 C268.08,82.062875 268.4544,82.475675 269.184,82.475675 Z M272.1216,82.475675 C272.5728,82.475675 272.8416,82.350875 273.024,82.178075 L272.8032,81.525275 C272.7168,81.621275 272.5344,81.707675 272.3328,81.707675 C272.0352,81.707675 271.8816,81.467675 271.8816,81.141275 L271.8816,78.482075 L272.8224,78.482075 L272.8224,77.723675 L271.8816,77.723675 L271.8816,76.456475 L271.0176,76.456475 L271.0176,77.723675 L270.2496,77.723675 L270.2496,78.482075 L271.0176,78.482075 L271.0176,81.333275 C271.0176,82.062875 271.392,82.475675 272.1216,82.475675 Z M274.2048,76.946075 C274.512,76.946075 274.7616,76.706075 274.7616,76.398875 C274.7616,76.091675 274.512,75.842075 274.2048,75.842075 C273.9072,75.842075 273.648,76.091675 273.648,76.398875 C273.648,76.706075 273.9072,76.946075 274.2048,76.946075 Z M274.6464,82.360475 L274.6464,77.723675 L273.7824,77.723675 L273.7824,82.360475 L274.6464,82.360475 Z M276.8832,82.360475 L276.8832,79.048475 C277.1328,78.702875 277.6224,78.376475 278.16,78.376475 C278.7552,78.376475 279.1488,78.626075 279.1488,79.394075 L279.1488,82.360475 L280.0128,82.360475 L280.0128,79.106075 C280.0128,78.126875 279.504,77.608475 278.5248,77.608475 C277.8048,77.608475 277.1904,78.002075 276.8832,78.376475 L276.8832,77.723675 L276.0192,77.723675 L276.0192,82.360475 L276.8832,82.360475 Z M283.248,84.242075 C284.3904,84.242075 285.552,83.771675 285.552,82.178075 L285.552,77.723675 L284.688,77.723675 L284.688,78.395675 C284.3136,77.896475 283.7664,77.608475 283.1616,77.608475 C281.9616,77.608475 281.0976,78.510875 281.0976,79.998875 C281.0976,81.515675 281.9616,82.398875 283.1616,82.398875 C283.7856,82.398875 284.3328,82.062875 284.688,81.602075 L284.688,82.206875 C284.688,83.186075 283.968,83.531675 283.248,83.531675 C282.6144,83.531675 282.144,83.358875 281.76,82.917275 L281.3472,83.550875 C281.904,84.078875 282.4704,84.242075 283.248,84.242075 Z M283.4016,81.630875 C282.5376,81.630875 282,80.958875 282,79.998875 C282,79.048475 282.5376,78.376475 283.4016,78.376475 C283.92,78.376475 284.448,78.683675 284.688,79.058075 L284.688,80.939675 C284.448,81.314075 283.92,81.630875 283.4016,81.630875 Z" id="GoalSetting" fill="#1F3966" fill-rule="nonzero"></path>
        <path d="M235.5456,43.360475 L235.5456,40.422875 L239.2896,40.422875 L239.2896,43.360475 L240.0864,43.360475 L240.0864,36.957275 L239.2896,36.957275 L239.2896,39.712475 L235.5456,39.712475 L235.5456,36.957275 L234.7488,36.957275 L234.7488,43.360475 L235.5456,43.360475 Z M243.0336,43.475675 C243.7248,43.475675 244.3296,43.110875 244.6848,42.707675 L244.6848,43.360475 L245.4048,43.360475 L245.4048,38.723675 L244.6848,38.723675 L244.6848,42.131675 C244.416,42.506075 243.8784,42.832475 243.312,42.832475 C242.688,42.832475 242.2752,42.592475 242.2752,41.776475 L242.2752,38.723675 L241.5552,38.723675 L241.5552,41.997275 C241.5552,43.005275 242.064,43.475675 243.0336,43.475675 Z M247.5648,43.360475 L247.5648,39.971675 C247.8144,39.597275 248.3136,39.251675 248.784,39.251675 C249.3888,39.251675 249.6384,39.626075 249.6384,40.211675 L249.6384,43.360475 L250.3584,43.360475 L250.3584,39.962075 C250.5984,39.597275 251.1072,39.251675 251.5872,39.251675 C252.1824,39.251675 252.4416,39.626075 252.4416,40.211675 L252.4416,43.360475 L253.1616,43.360475 L253.1616,40.010075 C253.1616,39.078875 252.7104,38.608475 251.8656,38.608475 C251.1936,38.608475 250.5696,39.050075 250.3104,39.472475 C250.176,38.992475 249.7728,38.608475 249.0624,38.608475 C248.3808,38.608475 247.7568,39.098075 247.5648,39.395675 L247.5648,38.723675 L246.8448,38.723675 L246.8448,43.360475 L247.5648,43.360475 Z M255.9648,43.475675 C256.5888,43.475675 257.1168,43.254875 257.5008,42.832475 L257.5008,43.360475 L258.2208,43.360475 L258.2208,40.173275 C258.2208,39.050075 257.4048,38.608475 256.4256,38.608475 C255.6672,38.608475 255.072,38.858075 254.5728,39.376475 L254.9088,39.875675 C255.3216,39.434075 255.7728,39.232475 256.3296,39.232475 C257.0016,39.232475 257.5008,39.587675 257.5008,40.211675 L257.5008,41.046875 C257.1264,40.614875 256.5984,40.413275 255.9648,40.413275 C255.1776,40.413275 254.3424,40.902875 254.3424,41.939675 C254.3424,42.947675 255.1776,43.475675 255.9648,43.475675 Z M256.224,42.957275 C255.552,42.957275 255.0816,42.534875 255.0816,41.949275 C255.0816,41.354075 255.552,40.931675 256.224,40.931675 C256.7328,40.931675 257.2224,41.123675 257.5008,41.507675 L257.5008,42.381275 C257.2224,42.765275 256.7328,42.957275 256.224,42.957275 Z M260.3808,43.360475 L260.3808,39.971675 C260.6496,39.597275 261.1872,39.251675 261.7536,39.251675 C262.3776,39.251675 262.7904,39.510875 262.7904,40.326875 L262.7904,43.360475 L263.5104,43.360475 L263.5104,40.106075 C263.5104,39.098075 263.0016,38.608475 262.032,38.608475 C261.3408,38.608475 260.7072,39.011675 260.3808,39.395675 L260.3808,38.723675 L259.6608,38.723675 L259.6608,43.360475 L260.3808,43.360475 Z M268.2528,43.360475 L268.2528,40.816475 L269.5296,40.816475 L271.1616,43.360475 L272.1024,43.360475 L270.3744,40.749275 C271.248,40.672475 272.0352,40.038875 272.0352,38.886875 C272.0352,37.706075 271.2,36.957275 270.0288,36.957275 L267.456,36.957275 L267.456,43.360475 L268.2528,43.360475 Z M269.9328,40.115675 L268.2528,40.115675 L268.2528,37.667675 L269.9328,37.667675 C270.6912,37.667675 271.2096,38.166875 271.2096,38.886875 C271.2096,39.606875 270.6912,40.115675 269.9328,40.115675 Z M275.3568,43.475675 C276.1152,43.475675 276.7392,43.226075 277.2,42.765275 L276.8544,42.294875 C276.4896,42.669275 275.952,42.880475 275.424,42.880475 C274.4256,42.880475 273.8112,42.150875 273.7536,41.277275 L277.5072,41.277275 L277.5072,41.094875 C277.5072,39.702875 276.6816,38.608475 275.28,38.608475 C273.9552,38.608475 272.9952,39.693275 272.9952,41.037275 C272.9952,42.486875 273.984,43.475675 275.3568,43.475675 Z M276.7968,40.749275 L273.7536,40.749275 C273.792,40.038875 274.2816,39.203675 275.2704,39.203675 C276.3264,39.203675 276.7872,40.058075 276.7968,40.749275 Z M280.1376,43.475675 C281.3376,43.475675 281.9616,42.851675 281.9616,42.074075 C281.9616,41.046875 281.0304,40.816475 280.224,40.634075 C279.6192,40.490075 279.0912,40.346075 279.0912,39.894875 C279.0912,39.482075 279.4848,39.194075 280.1184,39.194075 C280.7136,39.194075 281.2224,39.443675 281.5008,39.779675 L281.8368,39.280475 C281.4624,38.906075 280.9056,38.608475 280.1184,38.608475 C279.0144,38.608475 278.3904,39.222875 278.3904,39.942875 C278.3904,40.902875 279.2832,41.114075 280.0704,41.296475 C280.6944,41.450075 281.2608,41.613275 281.2608,42.122075 C281.2608,42.573275 280.8768,42.890075 280.1664,42.890075 C279.5328,42.890075 278.9472,42.582875 278.64,42.227675 L278.2656,42.746075 C278.736,43.245275 279.3792,43.475675 280.1376,43.475675 Z M285.1584,43.475675 C286.5696,43.475675 287.4528,42.381275 287.4528,41.037275 C287.4528,39.693275 286.5696,38.608475 285.1584,38.608475 C283.7472,38.608475 282.864,39.693275 282.864,41.037275 C282.864,42.381275 283.7472,43.475675 285.1584,43.475675 Z M285.1584,42.832475 C284.1696,42.832475 283.6128,41.987675 283.6128,41.037275 C283.6128,40.096475 284.1696,39.251675 285.1584,39.251675 C286.1472,39.251675 286.6944,40.096475 286.6944,41.037275 C286.6944,41.987675 286.1472,42.832475 285.1584,42.832475 Z M290.1024,43.475675 C290.7936,43.475675 291.3984,43.110875 291.7536,42.707675 L291.7536,43.360475 L292.4736,43.360475 L292.4736,38.723675 L291.7536,38.723675 L291.7536,42.131675 C291.4848,42.506075 290.9472,42.832475 290.3808,42.832475 C289.7568,42.832475 289.344,42.592475 289.344,41.776475 L289.344,38.723675 L288.624,38.723675 L288.624,41.997275 C288.624,43.005275 289.1328,43.475675 290.1024,43.475675 Z M294.6336,43.360475 L294.6336,40.077275 C294.8448,39.702875 295.4496,39.338075 295.8912,39.338075 C296.0064,39.338075 296.0928,39.347675 296.1792,39.366875 L296.1792,38.627675 C295.5456,38.627675 295.008,38.982875 294.6336,39.472475 L294.6336,38.723675 L293.9136,38.723675 L293.9136,43.360475 L294.6336,43.360475 Z M299.1264,43.475675 C299.9712,43.475675 300.4704,43.130075 300.8256,42.669275 L300.3456,42.227675 C300.0384,42.640475 299.6448,42.832475 299.1648,42.832475 C298.176,42.832475 297.5616,42.064475 297.5616,41.037275 C297.5616,40.010075 298.176,39.251675 299.1648,39.251675 C299.6448,39.251675 300.0384,39.434075 300.3456,39.856475 L300.8256,39.414875 C300.4704,38.954075 299.9712,38.608475 299.1264,38.608475 C297.744,38.608475 296.8128,39.664475 296.8128,41.037275 C296.8128,42.419675 297.744,43.475675 299.1264,43.475675 Z M303.9264,43.475675 C304.6848,43.475675 305.3088,43.226075 305.7696,42.765275 L305.424,42.294875 C305.0592,42.669275 304.5216,42.880475 303.9936,42.880475 C302.9952,42.880475 302.3808,42.150875 302.3232,41.277275 L306.0768,41.277275 L306.0768,41.094875 C306.0768,39.702875 305.2512,38.608475 303.8496,38.608475 C302.5248,38.608475 301.5648,39.693275 301.5648,41.037275 C301.5648,42.486875 302.5536,43.475675 303.9264,43.475675 Z M305.3664,40.749275 L302.3232,40.749275 C302.3616,40.038875 302.8512,39.203675 303.84,39.203675 C304.896,39.203675 305.3568,40.058075 305.3664,40.749275 Z M308.7072,43.475675 C309.9072,43.475675 310.5312,42.851675 310.5312,42.074075 C310.5312,41.046875 309.6,40.816475 308.7936,40.634075 C308.1888,40.490075 307.6608,40.346075 307.6608,39.894875 C307.6608,39.482075 308.0544,39.194075 308.688,39.194075 C309.2832,39.194075 309.792,39.443675 310.0704,39.779675 L310.4064,39.280475 C310.032,38.906075 309.4752,38.608475 308.688,38.608475 C307.584,38.608475 306.96,39.222875 306.96,39.942875 C306.96,40.902875 307.8528,41.114075 308.64,41.296475 C309.264,41.450075 309.8304,41.613275 309.8304,42.122075 C309.8304,42.573275 309.4464,42.890075 308.736,42.890075 C308.1024,42.890075 307.5168,42.582875 307.2096,42.227675 L306.8352,42.746075 C307.3056,43.245275 307.9488,43.475675 308.7072,43.475675 Z M315.792,43.475675 C316.5696,43.475675 317.1744,43.149275 317.6448,42.688475 C317.904,42.947675 318.1536,43.187675 318.3456,43.360475 L319.3344,43.360475 C318.8736,42.928475 318.4704,42.544475 318.096,42.150875 C318.48,41.613275 318.7488,41.008475 318.96,40.499675 L318.3456,40.230875 C318.2304,40.586075 318,41.162075 317.6544,41.690075 C317.4048,41.411675 317.1552,41.133275 316.896,40.835675 C316.6848,40.595675 316.4064,40.278875 316.1568,39.923675 C316.9632,39.501275 317.7888,39.078875 317.7888,38.118875 C317.7888,37.312475 317.1648,36.861275 316.3392,36.861275 C315.4272,36.861275 314.7264,37.494875 314.7264,38.349275 C314.7264,38.800475 314.928,39.290075 315.216,39.779675 C314.4768,40.182875 313.8048,40.691675 313.8048,41.690075 C313.8048,42.880475 314.6976,43.475675 315.792,43.475675 Z M315.8496,39.462875 C315.6288,39.078875 315.4656,38.694875 315.4656,38.358875 C315.4656,37.811675 315.8688,37.427675 316.368,37.427675 C316.7904,37.427675 317.1168,37.677275 317.1168,38.147675 C317.1168,38.781275 316.5312,39.117275 315.8496,39.462875 Z M315.8688,42.880475 C315.1968,42.880475 314.5824,42.438875 314.5824,41.642075 C314.5824,40.979675 314.9952,40.586075 315.5328,40.259675 C315.7824,40.624475 316.0608,40.970075 316.32,41.277275 C316.5024,41.498075 316.848,41.862875 317.2128,42.246875 C316.848,42.611675 316.3968,42.880475 315.8688,42.880475 Z M323.6352,43.360475 L323.6352,38.032475 L325.8048,43.360475 L326.1312,43.360475 L328.3104,38.032475 L328.3104,43.360475 L329.1072,43.360475 L329.1072,36.957275 L327.9648,36.957275 L325.968,41.834075 L323.9808,36.957275 L322.8384,36.957275 L322.8384,43.360475 L323.6352,43.360475 Z M331.9392,43.475675 C332.5632,43.475675 333.0912,43.254875 333.4752,42.832475 L333.4752,43.360475 L334.1952,43.360475 L334.1952,40.173275 C334.1952,39.050075 333.3792,38.608475 332.4,38.608475 C331.6416,38.608475 331.0464,38.858075 330.5472,39.376475 L330.8832,39.875675 C331.296,39.434075 331.7472,39.232475 332.304,39.232475 C332.976,39.232475 333.4752,39.587675 333.4752,40.211675 L333.4752,41.046875 C333.1008,40.614875 332.5728,40.413275 331.9392,40.413275 C331.152,40.413275 330.3168,40.902875 330.3168,41.939675 C330.3168,42.947675 331.152,43.475675 331.9392,43.475675 Z M332.1984,42.957275 C331.5264,42.957275 331.056,42.534875 331.056,41.949275 C331.056,41.354075 331.5264,40.931675 332.1984,40.931675 C332.7072,40.931675 333.1968,41.123675 333.4752,41.507675 L333.4752,42.381275 C333.1968,42.765275 332.7072,42.957275 332.1984,42.957275 Z M336.3552,43.360475 L336.3552,39.971675 C336.624,39.597275 337.1616,39.251675 337.728,39.251675 C338.352,39.251675 338.7648,39.510875 338.7648,40.326875 L338.7648,43.360475 L339.4848,43.360475 L339.4848,40.106075 C339.4848,39.098075 338.976,38.608475 338.0064,38.608475 C337.3152,38.608475 336.6816,39.011675 336.3552,39.395675 L336.3552,38.723675 L335.6352,38.723675 L335.6352,43.360475 L336.3552,43.360475 Z M342.288,43.475675 C342.912,43.475675 343.44,43.254875 343.824,42.832475 L343.824,43.360475 L344.544,43.360475 L344.544,40.173275 C344.544,39.050075 343.728,38.608475 342.7488,38.608475 C341.9904,38.608475 341.3952,38.858075 340.896,39.376475 L341.232,39.875675 C341.6448,39.434075 342.096,39.232475 342.6528,39.232475 C343.3248,39.232475 343.824,39.587675 343.824,40.211675 L343.824,41.046875 C343.4496,40.614875 342.9216,40.413275 342.288,40.413275 C341.5008,40.413275 340.6656,40.902875 340.6656,41.939675 C340.6656,42.947675 341.5008,43.475675 342.288,43.475675 Z M342.5472,42.957275 C341.8752,42.957275 341.4048,42.534875 341.4048,41.949275 C341.4048,41.354075 341.8752,40.931675 342.5472,40.931675 C343.056,40.931675 343.5456,41.123675 343.824,41.507675 L343.824,42.381275 C343.5456,42.765275 343.056,42.957275 342.5472,42.957275 Z M347.8464,45.242075 C348.9792,45.242075 350.0544,44.762075 350.0544,43.226075 L350.0544,38.723675 L349.3344,38.723675 L349.3344,39.424475 C348.96,38.915675 348.4032,38.608475 347.7792,38.608475 C346.56,38.608475 345.7152,39.530075 345.7152,41.018075 C345.7152,42.515675 346.5696,43.418075 347.7792,43.418075 C348.432,43.418075 348.9984,43.062875 349.3344,42.592475 L349.3344,43.254875 C349.3344,44.272475 348.6144,44.646875 347.8464,44.646875 C347.184,44.646875 346.7232,44.474075 346.3392,44.013275 L345.9744,44.550875 C346.5216,45.088475 347.0592,45.242075 347.8464,45.242075 Z M347.952,42.784475 C347.0208,42.784475 346.464,42.035675 346.464,41.018075 C346.464,39.990875 347.0208,39.251675 347.952,39.251675 C348.528,39.251675 349.0848,39.597275 349.3344,40.000475 L349.3344,42.026075 C349.0848,42.429275 348.528,42.784475 347.952,42.784475 Z M353.5872,43.475675 C354.3456,43.475675 354.9696,43.226075 355.4304,42.765275 L355.0848,42.294875 C354.72,42.669275 354.1824,42.880475 353.6544,42.880475 C352.656,42.880475 352.0416,42.150875 351.984,41.277275 L355.7376,41.277275 L355.7376,41.094875 C355.7376,39.702875 354.912,38.608475 353.5104,38.608475 C352.1856,38.608475 351.2256,39.693275 351.2256,41.037275 C351.2256,42.486875 352.2144,43.475675 353.5872,43.475675 Z M355.0272,40.749275 L351.984,40.749275 C352.0224,40.038875 352.512,39.203675 353.5008,39.203675 C354.5568,39.203675 355.0176,40.058075 355.0272,40.749275 Z M357.6192,43.360475 L357.6192,40.077275 C357.8304,39.702875 358.4352,39.338075 358.8768,39.338075 C358.992,39.338075 359.0784,39.347675 359.1648,39.366875 L359.1648,38.627675 C358.5312,38.627675 357.9936,38.982875 357.6192,39.472475 L357.6192,38.723675 L356.8992,38.723675 L356.8992,43.360475 L357.6192,43.360475 Z M364.9536,43.360475 L364.9536,37.667675 L366.9888,37.667675 L366.9888,36.957275 L362.1312,36.957275 L362.1312,37.667675 L364.1568,37.667675 L364.1568,43.360475 L364.9536,43.360475 Z M370.0416,43.475675 C371.4528,43.475675 372.336,42.381275 372.336,41.037275 C372.336,39.693275 371.4528,38.608475 370.0416,38.608475 C368.6304,38.608475 367.7472,39.693275 367.7472,41.037275 C367.7472,42.381275 368.6304,43.475675 370.0416,43.475675 Z M370.0416,42.832475 C369.0528,42.832475 368.496,41.987675 368.496,41.037275 C368.496,40.096475 369.0528,39.251675 370.0416,39.251675 C371.0304,39.251675 371.5776,40.096475 371.5776,41.037275 C371.5776,41.987675 371.0304,42.832475 370.0416,42.832475 Z M375.5328,43.475675 C376.944,43.475675 377.8272,42.381275 377.8272,41.037275 C377.8272,39.693275 376.944,38.608475 375.5328,38.608475 C374.1216,38.608475 373.2384,39.693275 373.2384,41.037275 C373.2384,42.381275 374.1216,43.475675 375.5328,43.475675 Z M375.5328,42.832475 C374.544,42.832475 373.9872,41.987675 373.9872,41.037275 C373.9872,40.096475 374.544,39.251675 375.5328,39.251675 C376.5216,39.251675 377.0688,40.096475 377.0688,41.037275 C377.0688,41.987675 376.5216,42.832475 375.5328,42.832475 Z M379.7184,43.360475 L379.7184,36.957275 L378.9984,36.957275 L378.9984,43.360475 L379.7184,43.360475 Z M381.8784,43.360475 L381.8784,42.035675 L382.6464,41.277275 L384.3168,43.360475 L385.2384,43.360475 L383.1744,40.826075 L385.2288,38.723675 L384.3168,38.723675 L381.8784,41.190875 L381.8784,36.957275 L381.1584,36.957275 L381.1584,43.360475 L381.8784,43.360475 Z M386.448,37.946075 C386.7168,37.946075 386.9376,37.725275 386.9376,37.456475 C386.9376,37.187675 386.7168,36.976475 386.448,36.976475 C386.1888,36.976475 385.968,37.187675 385.968,37.456475 C385.968,37.725275 386.1888,37.946075 386.448,37.946075 Z M386.8128,43.360475 L386.8128,38.723675 L386.0928,38.723675 L386.0928,43.360475 L386.8128,43.360475 Z M389.424,43.475675 C389.8464,43.475675 390.1056,43.350875 390.288,43.178075 L390.0768,42.640475 C389.9808,42.746075 389.7888,42.832475 389.5872,42.832475 C389.2704,42.832475 389.1168,42.582875 389.1168,42.237275 L389.1168,39.357275 L390.0576,39.357275 L390.0576,38.723675 L389.1168,38.723675 L389.1168,37.456475 L388.3968,37.456475 L388.3968,38.723675 L387.6288,38.723675 L387.6288,39.357275 L388.3968,39.357275 L388.3968,42.390875 C388.3968,43.082075 388.7424,43.475675 389.424,43.475675 Z" id="HumanResources&amp;ManagerToolkit" fill="#29CC96" fill-rule="nonzero"></path>
        <rect id="Rectangle" fill="#F2F3F5" x="234" y="95.360475" width="197" height="4"></rect>
        <rect id="Rectangle-Copy" fill="#F2F3F5" x="234" y="104.360475" width="197" height="4"></rect>
        <rect id="Rectangle-Copy-2" fill="#F2F3F5" x="234" y="113.360475" width="197" height="4"></rect>
        <rect id="Rectangle-Copy-3" fill="#F2F3F5" x="234" y="129.360475" width="177" height="88" rx="2.4"></rect>
        <line x1="204" y1="55.860475" x2="457" y2="55.860475" id="Line-Copy-53" stroke="#DADEE6" stroke-width="0.55999999"></line>
        <g id="Rectangle">
            <use fill="black" fill-opacity="1" filter="url(#filter-6)" xlink:href="#path-5"></use>
            <use stroke="#F2F3F5" stroke-width="0.8" fill="#FFFFFF" xlink:href="#path-5"></use>
        </g>
        <rect id="Rectangle-Copy-7" fill="#E9EBF0" x="81" y="214" width="159.157895" height="34" rx="2.4"></rect>
        <g id="verification/dot/trusted/selected" transform="translate(89.000000, 223.000000)">
            <g id="Group" transform="translate(3.368421, 3.400000)">
                <rect id="Rectangle-3" stroke="#29CC96" stroke-width="0.8" fill="#29CC96" x="0" y="0" width="10.1052632" height="10.2" rx="4.8"></rect>
                <path d="M7.2467647,2.90502333 C6.16887359,4.06088515 5.18718557,5.20129844 4.13957052,6.33986819 L2.81427043,5.20587232 C2.72398518,5.12838938 2.60857417,5.09283795 2.49358618,5.10651175 C2.37859819,5.12018556 2.27341149,5.18217215 2.20100842,5.2788024 C2.05024954,5.4802632 2.08090719,5.77424009 2.26914864,5.93513103 L3.904514,7.33529878 C4.07870222,7.48433497 4.33038495,7.46883978 4.48711836,7.29883608 C5.6591302,6.04183548 6.71274159,4.80245366 7.86687344,3.56505541 C7.99719026,3.4306043 8.03594841,3.22412623 7.96482528,3.04591988 C7.89370434,2.86771353 7.72718489,2.75512837 7.54661875,2.76287597 C7.43329447,2.76645923 7.3255566,2.81750701 7.2467647,2.90502333 Z" id="Fill-1" fill="#FFFFFF"></path>
            </g>
        </g>
        <path d="M117.3568,235.1456 C118.712,235.1456 119.776,234.5856 120.5376,233.7344 L120.5376,230.8784 L116.976,230.8784 L116.976,232.2448 L118.9696,232.2448 L118.9696,233.152 C118.6448,233.4432 118.04,233.7232 117.3568,233.7232 C116.0016,233.7232 115.016,232.6816 115.016,231.2704 C115.016,229.8592 116.0016,228.8176 117.3568,228.8176 C118.1408,228.8176 118.7792,229.232 119.1264,229.7584 L120.448,229.0416 C119.8768,228.1568 118.9024,227.4064 117.3568,227.4064 C115.1728,227.4064 113.3808,228.9072 113.3808,231.2704 C113.3808,233.6224 115.1728,235.1456 117.3568,235.1456 Z M124.2784,235.1344 C126.0704,235.1344 127.1456,233.8352 127.1456,232.2896 C127.1456,230.7552 126.0704,229.456 124.2784,229.456 C122.4976,229.456 121.4224,230.7552 121.4224,232.2896 C121.4224,233.8352 122.4976,235.1344 124.2784,235.1344 Z M124.2784,233.8688 C123.3936,233.8688 122.9008,233.1408 122.9008,232.2896 C122.9008,231.4496 123.3936,230.7216 124.2784,230.7216 C125.1632,230.7216 125.6672,231.4496 125.6672,232.2896 C125.6672,233.1408 125.1632,233.8688 124.2784,233.8688 Z M129.7328,235.1344 C130.4384,235.1344 131.0768,234.8768 131.4464,234.44 L131.4464,235 L132.8688,235 L132.8688,231.5056 C132.8688,229.9488 131.7376,229.456 130.5056,229.456 C129.6544,229.456 128.8032,229.7248 128.1424,230.3072 L128.68,231.2592 C129.1392,230.8336 129.6768,230.6208 130.2592,230.6208 C130.976,230.6208 131.4464,230.9792 131.4464,231.528 L131.4464,232.2784 C131.088,231.8416 130.4496,231.6176 129.7328,231.6176 C128.8704,231.6176 127.8512,232.0768 127.8512,233.3424 C127.8512,234.552 128.8704,235.1344 129.7328,235.1344 Z M130.304,234.1712 C129.744,234.1712 129.2848,233.88 129.2848,233.376 C129.2848,232.8496 129.744,232.5584 130.304,232.5584 C130.7632,232.5584 131.2112,232.7152 131.4464,233.0288 L131.4464,233.7008 C131.2112,234.0144 130.7632,234.1712 130.304,234.1712 Z M135.7024,235 L135.7024,227.5296 L134.28,227.5296 L134.28,235 L135.7024,235 Z M142.6688,235.1344 C144.6848,235.1344 145.6592,234.104 145.6592,232.7376 C145.6592,231.08 144.0912,230.7104 142.8592,230.4304 C141.9968,230.2288 141.3696,230.072 141.3696,229.568 C141.3696,229.12 141.7504,228.8064 142.4672,228.8064 C143.1952,228.8064 144.0016,229.064 144.6064,229.624 L145.4912,228.4592 C144.752,227.776 143.7664,227.4176 142.5792,227.4176 C140.8208,227.4176 139.7456,228.4256 139.7456,229.6688 C139.7456,231.3376 141.3136,231.6736 142.5344,231.9536 C143.3968,232.1552 144.0464,232.3456 144.0464,232.9056 C144.0464,233.3312 143.6208,233.7456 142.7472,233.7456 C141.7168,233.7456 140.8992,233.2864 140.3728,232.7376 L139.4992,233.9472 C140.2048,234.6528 141.2352,235.1344 142.6688,235.1344 Z M149.2432,235.1344 C150.0832,235.1344 150.9344,234.8768 151.472,234.384 L150.8448,233.4656 C150.4976,233.8016 149.904,234.0032 149.4,234.0032 C148.4816,234.0032 147.9328,233.432 147.8432,232.7488 L151.864,232.7488 L151.864,232.4352 C151.864,230.6656 150.7664,229.456 149.1536,229.456 C147.5072,229.456 146.3536,230.7216 146.3536,232.2896 C146.3536,234.0256 147.5968,235.1344 149.2432,235.1344 Z M150.4864,231.7856 L147.8208,231.7856 C147.888,231.248 148.2688,230.5872 149.1536,230.5872 C150.0944,230.5872 150.4528,231.2704 150.4864,231.7856 Z M154.7088,235.1344 C155.3024,235.1344 155.6832,234.9776 155.896,234.7872 L155.5936,233.712 C155.5152,233.7904 155.3136,233.8688 155.1008,233.8688 C154.7872,233.8688 154.608,233.6112 154.608,233.2752 L154.608,230.8336 L155.7056,230.8336 L155.7056,229.5904 L154.608,229.5904 L154.608,228.112 L153.1744,228.112 L153.1744,229.5904 L152.2784,229.5904 L152.2784,230.8336 L153.1744,230.8336 L153.1744,233.656 C153.1744,234.6192 153.712,235.1344 154.7088,235.1344 Z M158.4944,235.1344 C159.088,235.1344 159.4688,234.9776 159.6816,234.7872 L159.3792,233.712 C159.3008,233.7904 159.0992,233.8688 158.8864,233.8688 C158.5728,233.8688 158.3936,233.6112 158.3936,233.2752 L158.3936,230.8336 L159.4912,230.8336 L159.4912,229.5904 L158.3936,229.5904 L158.3936,228.112 L156.96,228.112 L156.96,229.5904 L156.064,229.5904 L156.064,230.8336 L156.96,230.8336 L156.96,233.656 C156.96,234.6192 157.4976,235.1344 158.4944,235.1344 Z M161.1712,228.7952 C161.6416,228.7952 162.0224,228.4144 162.0224,227.944 C162.0224,227.4736 161.6416,227.0928 161.1712,227.0928 C160.712,227.0928 160.32,227.4736 160.32,227.944 C160.32,228.4144 160.712,228.7952 161.1712,228.7952 Z M161.888,235 L161.888,229.5904 L160.4656,229.5904 L160.4656,235 L161.888,235 Z M164.7216,235 L164.7216,231.36 C164.9568,231.0352 165.3936,230.7216 165.9536,230.7216 C166.5584,230.7216 166.9504,230.9792 166.9504,231.7296 L166.9504,235 L168.3728,235 L168.3728,231.1808 C168.3728,230.128 167.8016,229.456 166.6144,229.456 C165.7296,229.456 165.0688,229.8816 164.7216,230.296 L164.7216,229.5904 L163.2992,229.5904 L163.2992,235 L164.7216,235 Z M172.0016,237.1952 C173.3344,237.1952 174.9248,236.6912 174.9248,234.6304 L174.9248,229.5904 L173.4912,229.5904 L173.4912,230.2848 C173.0544,229.736 172.472,229.456 171.8224,229.456 C170.456,229.456 169.4368,230.4416 169.4368,232.2112 C169.4368,234.0144 170.4672,234.9664 171.8224,234.9664 C172.4832,234.9664 173.0656,234.6528 173.4912,234.1152 L173.4912,234.664 C173.4912,235.728 172.6848,236.0304 172.0016,236.0304 C171.3184,236.0304 170.7472,235.84 170.3104,235.3584 L169.672,236.3888 C170.3552,236.9824 171.072,237.1952 172.0016,237.1952 Z M172.2704,233.7008 C171.464,233.7008 170.904,233.1408 170.904,232.2112 C170.904,231.2816 171.464,230.7216 172.2704,230.7216 C172.7408,230.7216 173.256,230.9792 173.4912,231.3376 L173.4912,233.0848 C173.256,233.432 172.7408,233.7008 172.2704,233.7008 Z" id="GoalSetting" fill="#1F3966" fill-rule="nonzero"></path>
        <g id="verification/dot/trusted/active" transform="translate(89.000000, 152.360475)">
            <g id="Group" transform="translate(3.364948, 3.400000)">
                <rect id="Rectangle-3" stroke="#29CC96" stroke-width="0.8" fill="#F2FFFB" x="0" y="0" width="10.0948454" height="10.2" rx="4.8"></rect>
                <path d="M7.23929381,2.90502333 C6.16251392,4.06088515 5.18183795,5.20129844 4.13530292,6.33986819 L2.81136912,5.20587232 C2.72117695,5.12838938 2.60588492,5.09283795 2.49101548,5.10651175 C2.37614603,5.12018556 2.27106777,5.18217215 2.19873934,5.2788024 C2.04813588,5.4802632 2.07876192,5.77424009 2.26680931,5.93513103 L3.90048873,7.33529878 C4.07449737,7.48433497 4.32592063,7.46883978 4.48249247,7.29883608 C5.65329605,6.04183548 6.70582124,4.80245366 7.85876326,3.56505541 C7.98894573,3.4306043 8.02766393,3.22412623 7.95661412,3.04591988 C7.8855665,2.86771353 7.71921872,2.75512837 7.53883873,2.76287597 C7.42563128,2.76645923 7.31800448,2.81750701 7.23929381,2.90502333 Z" id="Fill-1" fill="#29CC96"></path>
            </g>
        </g>
        <path d="M115.199076,163.660475 L115.199076,160.692475 L117.271076,160.692475 C118.749476,160.692475 119.611876,159.662075 119.611876,158.441275 C119.611876,157.220475 118.771876,156.190075 117.271076,156.190075 L114.269476,156.190075 L114.269476,163.660475 L115.199076,163.660475 Z M117.159076,159.863675 L115.199076,159.863675 L115.199076,157.018875 L117.159076,157.018875 C118.043876,157.018875 118.648676,157.601275 118.648676,158.441275 C118.648676,159.281275 118.043876,159.863675 117.159076,159.863675 Z M122.400676,163.794875 C123.128676,163.794875 123.744676,163.537275 124.192676,163.044475 L124.192676,163.660475 L125.032676,163.660475 L125.032676,159.942075 C125.032676,158.631675 124.080676,158.116475 122.938276,158.116475 C122.053476,158.116475 121.359076,158.407675 120.776676,159.012475 L121.168676,159.594875 C121.650276,159.079675 122.176676,158.844475 122.826276,158.844475 C123.610276,158.844475 124.192676,159.258875 124.192676,159.986875 L124.192676,160.961275 C123.755876,160.457275 123.139876,160.222075 122.400676,160.222075 C121.482276,160.222075 120.507876,160.793275 120.507876,162.002875 C120.507876,163.178875 121.482276,163.794875 122.400676,163.794875 Z M122.703076,163.190075 C121.919076,163.190075 121.370276,162.697275 121.370276,162.014075 C121.370276,161.319675 121.919076,160.826875 122.703076,160.826875 C123.296676,160.826875 123.867876,161.050875 124.192676,161.498875 L124.192676,162.518075 C123.867876,162.966075 123.296676,163.190075 122.703076,163.190075 Z M127.026276,165.855675 C127.743076,165.844475 128.291876,165.542075 128.616676,164.758075 L131.327076,158.250875 L130.408676,158.250875 L128.616676,162.686075 L126.813476,158.250875 L125.906276,158.250875 L128.168676,163.716475 L127.810276,164.534075 C127.619876,164.982075 127.373476,165.105275 127.003876,165.105275 C126.869476,165.105275 126.667876,165.071675 126.544676,165.015675 L126.410276,165.777275 C126.567076,165.822075 126.847076,165.855675 127.026276,165.855675 Z M134.295076,163.794875 C135.056676,163.794875 135.717476,163.402875 136.120676,162.854075 L136.120676,163.660475 L136.960676,163.660475 L136.960676,156.190075 L136.120676,156.190075 L136.120676,159.068475 C135.683876,158.474875 135.023076,158.116475 134.295076,158.116475 C132.872676,158.116475 131.887076,159.236475 131.887076,160.961275 C131.887076,162.719675 132.883876,163.794875 134.295076,163.794875 Z M134.496676,163.044475 C133.410276,163.044475 132.760676,162.159675 132.760676,160.961275 C132.760676,159.762875 133.410276,158.866875 134.496676,158.866875 C135.168676,158.866875 135.818276,159.270075 136.120676,159.740475 L136.120676,162.193275 C135.818276,162.663675 135.168676,163.044475 134.496676,163.044475 Z M140.231076,163.794875 C140.959076,163.794875 141.575076,163.537275 142.023076,163.044475 L142.023076,163.660475 L142.863076,163.660475 L142.863076,159.942075 C142.863076,158.631675 141.911076,158.116475 140.768676,158.116475 C139.883876,158.116475 139.189476,158.407675 138.607076,159.012475 L138.999076,159.594875 C139.480676,159.079675 140.007076,158.844475 140.656676,158.844475 C141.440676,158.844475 142.023076,159.258875 142.023076,159.986875 L142.023076,160.961275 C141.586276,160.457275 140.970276,160.222075 140.231076,160.222075 C139.312676,160.222075 138.338276,160.793275 138.338276,162.002875 C138.338276,163.178875 139.312676,163.794875 140.231076,163.794875 Z M140.533476,163.190075 C139.749476,163.190075 139.200676,162.697275 139.200676,162.014075 C139.200676,161.319675 139.749476,160.826875 140.533476,160.826875 C141.127076,160.826875 141.698276,161.050875 142.023076,161.498875 L142.023076,162.518075 C141.698276,162.966075 141.127076,163.190075 140.533476,163.190075 Z M144.856676,165.855675 C145.573476,165.844475 146.122276,165.542075 146.447076,164.758075 L149.157476,158.250875 L148.239076,158.250875 L146.447076,162.686075 L144.643876,158.250875 L143.736676,158.250875 L145.999076,163.716475 L145.640676,164.534075 C145.450276,164.982075 145.203876,165.105275 144.834276,165.105275 C144.699876,165.105275 144.498276,165.071675 144.375076,165.015675 L144.240676,165.777275 C144.397476,165.822075 144.677476,165.855675 144.856676,165.855675 Z" id="Payday" fill="#1F3966" fill-rule="nonzero"></path>
        <g id="verification/dot/trusted/active" transform="translate(89.000000, 186.360475)">
            <g id="Group" transform="translate(3.368421, 3.400000)">
                <rect id="Rectangle-3" stroke="#29CC96" stroke-width="0.8" fill="#F2FFFB" x="0" y="0" width="10.1052632" height="10.2" rx="4.8"></rect>
                <path d="M7.2467647,2.90502333 C6.16887359,4.06088515 5.18718557,5.20129844 4.13957052,6.33986819 L2.81427043,5.20587232 C2.72398518,5.12838938 2.60857417,5.09283795 2.49358618,5.10651175 C2.37859819,5.12018556 2.27341149,5.18217215 2.20100842,5.2788024 C2.05024954,5.4802632 2.08090719,5.77424009 2.26914864,5.93513103 L3.904514,7.33529878 C4.07870222,7.48433497 4.33038495,7.46883978 4.48711836,7.29883608 C5.6591302,6.04183548 6.71274159,4.80245366 7.86687344,3.56505541 C7.99719026,3.4306043 8.03594841,3.22412623 7.96482528,3.04591988 C7.89370434,2.86771353 7.72718489,2.75512837 7.54661875,2.76287597 C7.43329447,2.76645923 7.3255566,2.81750701 7.2467647,2.90502333 Z" id="Fill-1" fill="#29CC96"></path>
            </g>
        </g>
        <path d="M116.713853,197.660475 L118.360253,191.634875 L120.006653,197.660475 L121.014653,197.660475 L123.142653,190.190075 L122.112253,190.190075 L120.465853,196.417275 L118.752253,190.190075 L117.979453,190.190075 L116.265853,196.417275 L114.608253,190.190075 L113.577853,190.190075 L115.705853,197.660475 L116.713853,197.660475 Z M124.565053,191.343675 C124.878653,191.343675 125.136253,191.086075 125.136253,190.772475 C125.136253,190.458875 124.878653,190.212475 124.565053,190.212475 C124.262653,190.212475 124.005053,190.458875 124.005053,190.772475 C124.005053,191.086075 124.262653,191.343675 124.565053,191.343675 Z M124.990653,197.660475 L124.990653,192.250875 L124.150653,192.250875 L124.150653,197.660475 L124.990653,197.660475 Z M127.745853,197.660475 L127.745853,192.990075 L128.843453,192.990075 L128.843453,192.250875 L127.745853,192.250875 L127.745853,191.836475 C127.745853,191.153275 128.048253,190.772475 128.597053,190.772475 C128.809853,190.772475 128.955453,190.828475 129.078653,190.906875 L129.291453,190.268475 C129.078653,190.134075 128.787453,190.078075 128.473853,190.078075 C127.533053,190.078075 126.905853,190.716475 126.905853,191.836475 L126.905853,192.250875 L126.009853,192.250875 L126.009853,192.990075 L126.905853,192.990075 L126.905853,197.660475 L127.745853,197.660475 Z M130.254653,191.343675 C130.568253,191.343675 130.825853,191.086075 130.825853,190.772475 C130.825853,190.458875 130.568253,190.212475 130.254653,190.212475 C129.952253,190.212475 129.694653,190.458875 129.694653,190.772475 C129.694653,191.086075 129.952253,191.343675 130.254653,191.343675 Z M130.680253,197.660475 L130.680253,192.250875 L129.840253,192.250875 L129.840253,197.660475 L130.680253,197.660475 Z M136.224253,197.660475 L136.224253,194.692475 L138.296253,194.692475 C139.774653,194.692475 140.637053,193.662075 140.637053,192.441275 C140.637053,191.220475 139.797053,190.190075 138.296253,190.190075 L135.294653,190.190075 L135.294653,197.660475 L136.224253,197.660475 Z M138.184253,193.863675 L136.224253,193.863675 L136.224253,191.018875 L138.184253,191.018875 C139.069053,191.018875 139.673853,191.601275 139.673853,192.441275 C139.673853,193.281275 139.069053,193.863675 138.184253,193.863675 Z M143.425853,197.794875 C144.153853,197.794875 144.769853,197.537275 145.217853,197.044475 L145.217853,197.660475 L146.057853,197.660475 L146.057853,193.942075 C146.057853,192.631675 145.105853,192.116475 143.963453,192.116475 C143.078653,192.116475 142.384253,192.407675 141.801853,193.012475 L142.193853,193.594875 C142.675453,193.079675 143.201853,192.844475 143.851453,192.844475 C144.635453,192.844475 145.217853,193.258875 145.217853,193.986875 L145.217853,194.961275 C144.781053,194.457275 144.165053,194.222075 143.425853,194.222075 C142.507453,194.222075 141.533053,194.793275 141.533053,196.002875 C141.533053,197.178875 142.507453,197.794875 143.425853,197.794875 Z M143.728253,197.190075 C142.944253,197.190075 142.395453,196.697275 142.395453,196.014075 C142.395453,195.319675 142.944253,194.826875 143.728253,194.826875 C144.321853,194.826875 144.893053,195.050875 145.217853,195.498875 L145.217853,196.518075 C144.893053,196.966075 144.321853,197.190075 143.728253,197.190075 Z M149.451453,197.794875 C150.851453,197.794875 151.579453,197.066875 151.579453,196.159675 C151.579453,194.961275 150.493053,194.692475 149.552253,194.479675 C148.846653,194.311675 148.230653,194.143675 148.230653,193.617275 C148.230653,193.135675 148.689853,192.799675 149.429053,192.799675 C150.123453,192.799675 150.717053,193.090875 151.041853,193.482875 L151.433853,192.900475 C150.997053,192.463675 150.347453,192.116475 149.429053,192.116475 C148.141053,192.116475 147.413053,192.833275 147.413053,193.673275 C147.413053,194.793275 148.454653,195.039675 149.373053,195.252475 C150.101053,195.431675 150.761853,195.622075 150.761853,196.215675 C150.761853,196.742075 150.313853,197.111675 149.485053,197.111675 C148.745853,197.111675 148.062653,196.753275 147.704253,196.338875 L147.267453,196.943675 C147.816253,197.526075 148.566653,197.794875 149.451453,197.794875 Z M154.659453,197.794875 C156.059453,197.794875 156.787453,197.066875 156.787453,196.159675 C156.787453,194.961275 155.701053,194.692475 154.760253,194.479675 C154.054653,194.311675 153.438653,194.143675 153.438653,193.617275 C153.438653,193.135675 153.897853,192.799675 154.637053,192.799675 C155.331453,192.799675 155.925053,193.090875 156.249853,193.482875 L156.641853,192.900475 C156.205053,192.463675 155.555453,192.116475 154.637053,192.116475 C153.349053,192.116475 152.621053,192.833275 152.621053,193.673275 C152.621053,194.793275 153.662653,195.039675 154.581053,195.252475 C155.309053,195.431675 155.969853,195.622075 155.969853,196.215675 C155.969853,196.742075 155.521853,197.111675 154.693053,197.111675 C153.953853,197.111675 153.270653,196.753275 152.912253,196.338875 L152.475453,196.943675 C153.024253,197.526075 153.774653,197.794875 154.659453,197.794875 Z M160.013053,197.660475 L161.424253,193.314875 L162.835453,197.660475 L163.675453,197.660475 L165.400253,192.250875 L164.526653,192.250875 L163.205053,196.562875 L161.782653,192.250875 L161.065853,192.250875 L159.643453,196.562875 L158.321853,192.250875 L157.448253,192.250875 L159.173053,197.660475 L160.013053,197.660475 Z M168.737853,197.794875 C170.384253,197.794875 171.414653,196.518075 171.414653,194.950075 C171.414653,193.382075 170.384253,192.116475 168.737853,192.116475 C167.091453,192.116475 166.061053,193.382075 166.061053,194.950075 C166.061053,196.518075 167.091453,197.794875 168.737853,197.794875 Z M168.737853,197.044475 C167.584253,197.044475 166.934653,196.058875 166.934653,194.950075 C166.934653,193.852475 167.584253,192.866875 168.737853,192.866875 C169.891453,192.866875 170.529853,193.852475 170.529853,194.950075 C170.529853,196.058875 169.891453,197.044475 168.737853,197.044475 Z M173.621053,197.660475 L173.621053,193.830075 C173.867453,193.393275 174.573053,192.967675 175.088253,192.967675 C175.222653,192.967675 175.323453,192.978875 175.424253,193.001275 L175.424253,192.138875 C174.685053,192.138875 174.057853,192.553275 173.621053,193.124475 L173.621053,192.250875 L172.781053,192.250875 L172.781053,197.660475 L173.621053,197.660475 Z M178.571453,197.794875 C179.333053,197.794875 179.993853,197.402875 180.397053,196.854075 L180.397053,197.660475 L181.237053,197.660475 L181.237053,190.190075 L180.397053,190.190075 L180.397053,193.068475 C179.960253,192.474875 179.299453,192.116475 178.571453,192.116475 C177.149053,192.116475 176.163453,193.236475 176.163453,194.961275 C176.163453,196.719675 177.160253,197.794875 178.571453,197.794875 Z M178.773053,197.044475 C177.686653,197.044475 177.037053,196.159675 177.037053,194.961275 C177.037053,193.762875 177.686653,192.866875 178.773053,192.866875 C179.445053,192.866875 180.094653,193.270075 180.397053,193.740475 L180.397053,196.193275 C180.094653,196.663675 179.445053,197.044475 178.773053,197.044475 Z M184.630653,197.794875 C186.030653,197.794875 186.758653,197.066875 186.758653,196.159675 C186.758653,194.961275 185.672253,194.692475 184.731453,194.479675 C184.025853,194.311675 183.409853,194.143675 183.409853,193.617275 C183.409853,193.135675 183.869053,192.799675 184.608253,192.799675 C185.302653,192.799675 185.896253,193.090875 186.221053,193.482875 L186.613053,192.900475 C186.176253,192.463675 185.526653,192.116475 184.608253,192.116475 C183.320253,192.116475 182.592253,192.833275 182.592253,193.673275 C182.592253,194.793275 183.633853,195.039675 184.552253,195.252475 C185.280253,195.431675 185.941053,195.622075 185.941053,196.215675 C185.941053,196.742075 185.493053,197.111675 184.664253,197.111675 C183.925053,197.111675 183.241853,196.753275 182.883453,196.338875 L182.446653,196.943675 C182.995453,197.526075 183.745853,197.794875 184.630653,197.794875 Z" id="WifPasswords" fill="#1F3966" fill-rule="nonzero"></path>
        <g id="verification/dot/trusted/active" transform="translate(88.000000, 260.360475)">
            <g id="Group" transform="translate(3.383607, 3.400000)">
                <rect id="Rectangle-3" stroke="#29CC96" stroke-width="0.8" fill="#F2FFFB" x="0" y="0" width="10.1508197" height="10.2" rx="4.8"></rect>
                <path d="M7.27943454,2.90502333 C6.19668408,4.06088515 5.21057042,5.20129844 4.15823252,6.33986819 L2.82695771,5.20587232 C2.73626544,5.12838938 2.62033414,5.09283795 2.50482776,5.10651175 C2.38932138,5.12018556 2.28366048,5.18217215 2.210931,5.2788024 C2.05949247,5.4802632 2.09028833,5.77424009 2.27937841,5.93513103 L3.92211632,7.33529878 C4.09708981,7.48433497 4.34990717,7.46883978 4.50734718,7.29883608 C5.68464268,6.04183548 6.74300395,4.80245366 7.90233885,3.56505541 C8.03324316,3.4306043 8.07217605,3.22412623 8.00073228,3.04591988 C7.92929071,2.86771353 7.76202056,2.75512837 7.58064039,2.76287597 C7.46680523,2.76645923 7.35858165,2.81750701 7.27943454,2.90502333 Z" id="Fill-1" fill="#29CC96"></path>
            </g>
        </g>
        <path d="M114.334348,271.660475 L114.334348,268.692475 L115.823948,268.692475 L117.727948,271.660475 L118.825548,271.660475 L116.809548,268.614075 C117.828748,268.524475 118.747148,267.785275 118.747148,266.441275 C118.747148,265.063675 117.772748,264.190075 116.406348,264.190075 L113.404748,264.190075 L113.404748,271.660475 L114.334348,271.660475 Z M116.294348,267.874875 L114.334348,267.874875 L114.334348,265.018875 L116.294348,265.018875 C117.179148,265.018875 117.783948,265.601275 117.783948,266.441275 C117.783948,267.281275 117.179148,267.874875 116.294348,267.874875 Z M122.622348,271.794875 C123.507148,271.794875 124.235148,271.503675 124.772748,270.966075 L124.369548,270.417275 C123.943948,270.854075 123.316748,271.100475 122.700748,271.100475 C121.535948,271.100475 120.819148,270.249275 120.751948,269.230075 L125.131148,269.230075 L125.131148,269.017275 C125.131148,267.393275 124.167948,266.116475 122.532748,266.116475 C120.987148,266.116475 119.867148,267.382075 119.867148,268.950075 C119.867148,270.641275 121.020748,271.794875 122.622348,271.794875 Z M124.302348,268.614075 L120.751948,268.614075 C120.796748,267.785275 121.367948,266.810875 122.521548,266.810875 C123.753548,266.810875 124.291148,267.807675 124.302348,268.614075 Z M128.849548,271.660475 L131.100748,266.250875 L130.182348,266.250875 L128.390348,270.686075 L126.587148,266.250875 L125.679948,266.250875 L127.931148,271.660475 L128.849548,271.660475 Z M132.388748,265.343675 C132.702348,265.343675 132.959948,265.086075 132.959948,264.772475 C132.959948,264.458875 132.702348,264.212475 132.388748,264.212475 C132.086348,264.212475 131.828748,264.458875 131.828748,264.772475 C131.828748,265.086075 132.086348,265.343675 132.388748,265.343675 Z M132.814348,271.660475 L132.814348,266.250875 L131.974348,266.250875 L131.974348,271.660475 L132.814348,271.660475 Z M136.935948,271.794875 C137.820748,271.794875 138.548748,271.503675 139.086348,270.966075 L138.683148,270.417275 C138.257548,270.854075 137.630348,271.100475 137.014348,271.100475 C135.849548,271.100475 135.132748,270.249275 135.065548,269.230075 L139.444748,269.230075 L139.444748,269.017275 C139.444748,267.393275 138.481548,266.116475 136.846348,266.116475 C135.300748,266.116475 134.180748,267.382075 134.180748,268.950075 C134.180748,270.641275 135.334348,271.794875 136.935948,271.794875 Z M138.615948,268.614075 L135.065548,268.614075 C135.110348,267.785275 135.681548,266.810875 136.835148,266.810875 C138.067148,266.810875 138.604748,267.807675 138.615948,268.614075 Z M142.659148,271.660475 L144.070348,267.314875 L145.481548,271.660475 L146.321548,271.660475 L148.046348,266.250875 L147.172748,266.250875 L145.851148,270.562875 L144.428748,266.250875 L143.711948,266.250875 L142.289548,270.562875 L140.967948,266.250875 L140.094348,266.250875 L141.819148,271.660475 L142.659148,271.660475 Z M154.363148,271.794875 C156.379148,271.794875 157.118348,270.686075 157.118348,269.599675 C157.118348,268.031675 155.729548,267.650875 154.508748,267.326075 C153.556748,267.068475 152.694348,266.844475 152.694348,266.094075 C152.694348,265.388475 153.332748,264.906875 154.228748,264.906875 C155.046348,264.906875 155.830348,265.186875 156.390348,265.802875 L156.950348,265.119675 C156.323148,264.458875 155.438348,264.078075 154.295948,264.078075 C152.828748,264.078075 151.731148,264.918075 151.731148,266.150075 C151.731148,267.617275 153.063948,267.953275 154.262348,268.266875 C155.247948,268.535675 156.155148,268.782075 156.155148,269.678075 C156.155148,270.249275 155.729548,270.966075 154.396748,270.966075 C153.343948,270.966075 152.537548,270.450875 152.044748,269.902075 L151.495948,270.607675 C152.111948,271.302075 153.063948,271.794875 154.363148,271.794875 Z M159.839948,271.794875 C160.332748,271.794875 160.635148,271.649275 160.847948,271.447675 L160.601548,270.820475 C160.489548,270.943675 160.265548,271.044475 160.030348,271.044475 C159.660748,271.044475 159.481548,270.753275 159.481548,270.350075 L159.481548,266.990075 L160.579148,266.990075 L160.579148,266.250875 L159.481548,266.250875 L159.481548,264.772475 L158.641548,264.772475 L158.641548,266.250875 L157.745548,266.250875 L157.745548,266.990075 L158.641548,266.990075 L158.641548,270.529275 C158.641548,271.335675 159.044748,271.794875 159.839948,271.794875 Z M162.606348,271.660475 L162.606348,267.830075 C162.852748,267.393275 163.558348,266.967675 164.073548,266.967675 C164.207948,266.967675 164.308748,266.978875 164.409548,267.001275 L164.409548,266.138875 C163.670348,266.138875 163.043148,266.553275 162.606348,267.124475 L162.606348,266.250875 L161.766348,266.250875 L161.766348,271.660475 L162.606348,271.660475 Z M167.187148,271.794875 C167.993548,271.794875 168.699148,271.369275 169.113548,270.898875 L169.113548,271.660475 L169.953548,271.660475 L169.953548,266.250875 L169.113548,266.250875 L169.113548,270.226875 C168.799948,270.663675 168.172748,271.044475 167.511948,271.044475 C166.783948,271.044475 166.302348,270.764475 166.302348,269.812475 L166.302348,266.250875 L165.462348,266.250875 L165.462348,270.070075 C165.462348,271.246075 166.055948,271.794875 167.187148,271.794875 Z M174.019148,271.794875 C175.004748,271.794875 175.587148,271.391675 176.001548,270.854075 L175.441548,270.338875 C175.083148,270.820475 174.623948,271.044475 174.063948,271.044475 C172.910348,271.044475 172.193548,270.148475 172.193548,268.950075 C172.193548,267.751675 172.910348,266.866875 174.063948,266.866875 C174.623948,266.866875 175.083148,267.079675 175.441548,267.572475 L176.001548,267.057275 C175.587148,266.519675 175.004748,266.116475 174.019148,266.116475 C172.406348,266.116475 171.319948,267.348475 171.319948,268.950075 C171.319948,270.562875 172.406348,271.794875 174.019148,271.794875 Z M178.543948,271.794875 C179.036748,271.794875 179.339148,271.649275 179.551948,271.447675 L179.305548,270.820475 C179.193548,270.943675 178.969548,271.044475 178.734348,271.044475 C178.364748,271.044475 178.185548,270.753275 178.185548,270.350075 L178.185548,266.990075 L179.283148,266.990075 L179.283148,266.250875 L178.185548,266.250875 L178.185548,264.772475 L177.345548,264.772475 L177.345548,266.250875 L176.449548,266.250875 L176.449548,266.990075 L177.345548,266.990075 L177.345548,270.529275 C177.345548,271.335675 177.748748,271.794875 178.543948,271.794875 Z M182.195148,271.794875 C183.001548,271.794875 183.707148,271.369275 184.121548,270.898875 L184.121548,271.660475 L184.961548,271.660475 L184.961548,266.250875 L184.121548,266.250875 L184.121548,270.226875 C183.807948,270.663675 183.180748,271.044475 182.519948,271.044475 C181.791948,271.044475 181.310348,270.764475 181.310348,269.812475 L181.310348,266.250875 L180.470348,266.250875 L180.470348,270.070075 C180.470348,271.246075 181.063948,271.794875 182.195148,271.794875 Z M187.481548,271.660475 L187.481548,267.830075 C187.727948,267.393275 188.433548,266.967675 188.948748,266.967675 C189.083148,266.967675 189.183948,266.978875 189.284748,267.001275 L189.284748,266.138875 C188.545548,266.138875 187.918348,266.553275 187.481548,267.124475 L187.481548,266.250875 L186.641548,266.250875 L186.641548,271.660475 L187.481548,271.660475 Z M192.779148,271.794875 C193.663948,271.794875 194.391948,271.503675 194.929548,270.966075 L194.526348,270.417275 C194.100748,270.854075 193.473548,271.100475 192.857548,271.100475 C191.692748,271.100475 190.975948,270.249275 190.908748,269.230075 L195.287948,269.230075 L195.287948,269.017275 C195.287948,267.393275 194.324748,266.116475 192.689548,266.116475 C191.143948,266.116475 190.023948,267.382075 190.023948,268.950075 C190.023948,270.641275 191.177548,271.794875 192.779148,271.794875 Z M194.459148,268.614075 L190.908748,268.614075 C190.953548,267.785275 191.524748,266.810875 192.678348,266.810875 C193.910348,266.810875 194.447948,267.807675 194.459148,268.614075 Z" id="ReviewStructure" fill="#1F3966" fill-rule="nonzero"></path>
        <g id="verification/dot/trusted/active" transform="translate(89.000000, 118.360475)">
            <g id="Group" transform="translate(3.364706, 3.400000)">
                <rect id="Rectangle-3" stroke="#29CC96" stroke-width="0.8" fill="#F2FFFB" x="0" y="0" width="10.0941176" height="10.2" rx="4.8"></rect>
                <path d="M7.23877195,2.90502333 C6.16206968,4.06088515 5.18146441,5.20129844 4.13500481,6.33986819 L2.81116645,5.20587232 C2.72098078,5.12838938 2.60569707,5.09283795 2.49083591,5.10651175 C2.37597474,5.12018556 2.27090406,5.18217215 2.19858084,5.2788024 C2.04798823,5.4802632 2.07861207,5.77424009 2.2666459,5.93513103 L3.90020755,7.33529878 C4.07420365,7.48433497 4.32560879,7.46883978 4.48216934,7.29883608 C5.65288852,6.04183548 6.70533784,4.80245366 7.85819674,3.56505541 C7.98836983,3.4306043 8.02708524,3.22412623 7.95604055,3.04591988 C7.88499804,2.86771353 7.71866226,2.75512837 7.53829528,2.76287597 C7.42509599,2.76645923 7.31747695,2.81750701 7.23877195,2.90502333 Z" id="Fill-1" fill="#29CC96"></path>
            </g>
        </g>
        <path d="M119.162118,129.660475 L119.162118,128.831675 L115.197318,128.831675 L115.197318,126.255675 L119.083718,126.255675 L119.083718,125.426875 L115.197318,125.426875 L115.197318,123.018875 L119.162118,123.018875 L119.162118,122.190075 L114.267718,122.190075 L114.267718,129.660475 L119.162118,129.660475 Z M121.446918,129.660475 L121.446918,125.706875 C121.738118,125.270075 122.320518,124.866875 122.869318,124.866875 C123.574918,124.866875 123.866118,125.303675 123.866118,125.986875 L123.866118,129.660475 L124.706118,129.660475 L124.706118,125.695675 C124.986118,125.270075 125.579718,124.866875 126.139718,124.866875 C126.834118,124.866875 127.136518,125.303675 127.136518,125.986875 L127.136518,129.660475 L127.976518,129.660475 L127.976518,125.751675 C127.976518,124.665275 127.450118,124.116475 126.464518,124.116475 C125.680518,124.116475 124.952518,124.631675 124.650118,125.124475 C124.493318,124.564475 124.022918,124.116475 123.194118,124.116475 C122.398918,124.116475 121.670918,124.687675 121.446918,125.034875 L121.446918,124.250875 L120.606918,124.250875 L120.606918,129.660475 L121.446918,129.660475 Z M130.496518,131.721275 L130.496518,128.842875 C130.933318,129.447675 131.582918,129.794875 132.322118,129.794875 C133.744518,129.794875 134.730118,128.697275 134.730118,126.950075 C134.730118,125.191675 133.744518,124.116475 132.322118,124.116475 C131.560518,124.116475 130.888518,124.508475 130.496518,125.057275 L130.496518,124.250875 L129.656518,124.250875 L129.656518,131.721275 L130.496518,131.721275 Z M132.109318,129.044475 C131.448518,129.044475 130.787718,128.641275 130.496518,128.170875 L130.496518,125.729275 C130.787718,125.258875 131.448518,124.866875 132.109318,124.866875 C133.195718,124.866875 133.845318,125.751675 133.845318,126.950075 C133.845318,128.148475 133.195718,129.044475 132.109318,129.044475 Z M136.925318,129.660475 L136.925318,122.190075 L136.085318,122.190075 L136.085318,129.660475 L136.925318,129.660475 Z M140.968518,129.794875 C142.614918,129.794875 143.645318,128.518075 143.645318,126.950075 C143.645318,125.382075 142.614918,124.116475 140.968518,124.116475 C139.322118,124.116475 138.291718,125.382075 138.291718,126.950075 C138.291718,128.518075 139.322118,129.794875 140.968518,129.794875 Z M140.968518,129.044475 C139.814918,129.044475 139.165318,128.058875 139.165318,126.950075 C139.165318,125.852475 139.814918,124.866875 140.968518,124.866875 C142.122118,124.866875 142.760518,125.852475 142.760518,126.950075 C142.760518,128.058875 142.122118,129.044475 140.968518,129.044475 Z M145.325318,131.855675 C146.042118,131.844475 146.590918,131.542075 146.915718,130.758075 L149.626118,124.250875 L148.707718,124.250875 L146.915718,128.686075 L145.112518,124.250875 L144.205318,124.250875 L146.467718,129.716475 L146.109318,130.534075 C145.918918,130.982075 145.672518,131.105275 145.302918,131.105275 C145.168518,131.105275 144.966918,131.071675 144.843718,131.015675 L144.709318,131.777275 C144.866118,131.822075 145.146118,131.855675 145.325318,131.855675 Z M152.941318,129.794875 C153.826118,129.794875 154.554118,129.503675 155.091718,128.966075 L154.688518,128.417275 C154.262918,128.854075 153.635718,129.100475 153.019718,129.100475 C151.854918,129.100475 151.138118,128.249275 151.070918,127.230075 L155.450118,127.230075 L155.450118,127.017275 C155.450118,125.393275 154.486918,124.116475 152.851718,124.116475 C151.306118,124.116475 150.186118,125.382075 150.186118,126.950075 C150.186118,128.641275 151.339718,129.794875 152.941318,129.794875 Z M154.621318,126.614075 L151.070918,126.614075 C151.115718,125.785275 151.686918,124.810875 152.840518,124.810875 C154.072518,124.810875 154.610118,125.807675 154.621318,126.614075 Z M159.246918,129.794875 C160.131718,129.794875 160.859718,129.503675 161.397318,128.966075 L160.994118,128.417275 C160.568518,128.854075 159.941318,129.100475 159.325318,129.100475 C158.160518,129.100475 157.443718,128.249275 157.376518,127.230075 L161.755718,127.230075 L161.755718,127.017275 C161.755718,125.393275 160.792518,124.116475 159.157318,124.116475 C157.611718,124.116475 156.491718,125.382075 156.491718,126.950075 C156.491718,128.641275 157.645318,129.794875 159.246918,129.794875 Z M160.926918,126.614075 L157.376518,126.614075 C157.421318,125.785275 157.992518,124.810875 159.146118,124.810875 C160.378118,124.810875 160.915718,125.807675 160.926918,126.614075 Z M166.963718,129.660475 L166.963718,126.233275 L171.331718,126.233275 L171.331718,129.660475 L172.261318,129.660475 L172.261318,122.190075 L171.331718,122.190075 L171.331718,125.404475 L166.963718,125.404475 L166.963718,122.190075 L166.034118,122.190075 L166.034118,129.660475 L166.963718,129.660475 Z M175.565318,129.794875 C176.293318,129.794875 176.909318,129.537275 177.357318,129.044475 L177.357318,129.660475 L178.197318,129.660475 L178.197318,125.942075 C178.197318,124.631675 177.245318,124.116475 176.102918,124.116475 C175.218118,124.116475 174.523718,124.407675 173.941318,125.012475 L174.333318,125.594875 C174.814918,125.079675 175.341318,124.844475 175.990918,124.844475 C176.774918,124.844475 177.357318,125.258875 177.357318,125.986875 L177.357318,126.961275 C176.920518,126.457275 176.304518,126.222075 175.565318,126.222075 C174.646918,126.222075 173.672518,126.793275 173.672518,128.002875 C173.672518,129.178875 174.646918,129.794875 175.565318,129.794875 Z M175.867718,129.190075 C175.083718,129.190075 174.534918,128.697275 174.534918,128.014075 C174.534918,127.319675 175.083718,126.826875 175.867718,126.826875 C176.461318,126.826875 177.032518,127.050875 177.357318,127.498875 L177.357318,128.518075 C177.032518,128.966075 176.461318,129.190075 175.867718,129.190075 Z M180.717318,129.660475 L180.717318,125.706875 C181.030918,125.270075 181.658118,124.866875 182.318918,124.866875 C183.046918,124.866875 183.528518,125.169275 183.528518,126.121275 L183.528518,129.660475 L184.368518,129.660475 L184.368518,125.863675 C184.368518,124.687675 183.774918,124.116475 182.643718,124.116475 C181.837318,124.116475 181.098118,124.586875 180.717318,125.034875 L180.717318,124.250875 L179.877318,124.250875 L179.877318,129.660475 L180.717318,129.660475 Z M188.142918,129.794875 C188.904518,129.794875 189.565318,129.402875 189.968518,128.854075 L189.968518,129.660475 L190.808518,129.660475 L190.808518,122.190075 L189.968518,122.190075 L189.968518,125.068475 C189.531718,124.474875 188.870918,124.116475 188.142918,124.116475 C186.720518,124.116475 185.734918,125.236475 185.734918,126.961275 C185.734918,128.719675 186.731718,129.794875 188.142918,129.794875 Z M188.344518,129.044475 C187.258118,129.044475 186.608518,128.159675 186.608518,126.961275 C186.608518,125.762875 187.258118,124.866875 188.344518,124.866875 C189.016518,124.866875 189.666118,125.270075 189.968518,125.740475 L189.968518,128.193275 C189.666118,128.663675 189.016518,129.044475 188.344518,129.044475 Z M195.154118,129.794875 C196.565318,129.794875 197.562118,128.719675 197.562118,126.961275 C197.562118,125.236475 196.565318,124.116475 195.154118,124.116475 C194.414918,124.116475 193.765318,124.474875 193.328518,125.068475 L193.328518,122.190075 L192.488518,122.190075 L192.488518,129.660475 L193.328518,129.660475 L193.328518,128.854075 C193.731718,129.402875 194.392518,129.794875 195.154118,129.794875 Z M194.941318,129.044475 C194.280518,129.044475 193.619718,128.663675 193.328518,128.193275 L193.328518,125.740475 C193.619718,125.270075 194.280518,124.866875 194.941318,124.866875 C196.038918,124.866875 196.688518,125.762875 196.688518,126.961275 C196.688518,128.159675 196.038918,129.044475 194.941318,129.044475 Z M201.291718,129.794875 C202.938118,129.794875 203.968518,128.518075 203.968518,126.950075 C203.968518,125.382075 202.938118,124.116475 201.291718,124.116475 C199.645318,124.116475 198.614918,125.382075 198.614918,126.950075 C198.614918,128.518075 199.645318,129.794875 201.291718,129.794875 Z M201.291718,129.044475 C200.138118,129.044475 199.488518,128.058875 199.488518,126.950075 C199.488518,125.852475 200.138118,124.866875 201.291718,124.866875 C202.445318,124.866875 203.083718,125.852475 203.083718,126.950075 C203.083718,128.058875 202.445318,129.044475 201.291718,129.044475 Z M207.698118,129.794875 C209.344518,129.794875 210.374918,128.518075 210.374918,126.950075 C210.374918,125.382075 209.344518,124.116475 207.698118,124.116475 C206.051718,124.116475 205.021318,125.382075 205.021318,126.950075 C205.021318,128.518075 206.051718,129.794875 207.698118,129.794875 Z M207.698118,129.044475 C206.544518,129.044475 205.894918,128.058875 205.894918,126.950075 C205.894918,125.852475 206.544518,124.866875 207.698118,124.866875 C208.851718,124.866875 209.490118,125.852475 209.490118,126.950075 C209.490118,128.058875 208.851718,129.044475 207.698118,129.044475 Z M212.581318,129.660475 L212.581318,128.114875 L213.477318,127.230075 L215.426118,129.660475 L216.501318,129.660475 L214.093318,126.703675 L216.490118,124.250875 L215.426118,124.250875 L212.581318,127.129275 L212.581318,122.190075 L211.741318,122.190075 L211.741318,129.660475 L212.581318,129.660475 Z" id="EmployeeHandbook" fill="#1F3966" fill-rule="nonzero"></path>
        <g id="expand-accordion" transform="translate(229.000000, 231.000000) rotate(-90.000000) translate(-229.000000, -231.000000) translate(222.000000, 224.000000)">
            <mask id="mask-8" fill="white">
                <use xlink:href="#path-7"></use>
            </mask>
            <use id="-Icon-小olor" fill="#001C4D" fill-rule="evenodd" xlink:href="#path-7"></use>
        </g>
    </g>
</svg>