<svg width="500px" height="330px" viewBox="0 0 500 330" xmlns="http://www.w3.org/2000/svg" xmlns:xlink="http://www.w3.org/1999/xlink">
    <defs>
        <rect id="path-1" x="204" y="24.360475" width="253" height="236" rx="2.23999996"></rect>
        <filter x="-1.5%" y="-1.2%" width="103.0%" height="103.2%" filterUnits="objectBoundingBox" id="filter-2">
            <feMorphology radius="0.279999995" operator="dilate" in="SourceAlpha" result="shadowSpreadOuter1"></feMorphology>
            <feOffset dx="0" dy="1" in="shadowSpreadOuter1" result="shadowOffsetOuter1"></feOffset>
            <feGaussianBlur stdDeviation="1" in="shadowOffsetOuter1" result="shadowBlurOuter1"></feGaussianBlur>
            <feComposite in="shadowBlurOuter1" in2="SourceAlpha" operator="out" result="shadowBlurOuter1"></feComposite>
            <feColorMatrix values="0 0 0 0 0   0 0 0 0 0   0 0 0 0 0  0 0 0 0.5 0" type="matrix" in="shadowBlurOuter1"></feColorMatrix>
        </filter>
        <path d="M1.875,4.875 C2.08125,4.875 2.248875,5.0415 2.25,5.248125 L2.25,5.248125 L2.254875,6.214875 L3.484875,4.984875 C3.6315,4.83825 3.8685,4.83825 4.015125,4.984875 C4.16175,5.1315 4.16175,5.3685 4.015125,5.515125 L4.015125,5.515125 L2.780625,6.749625 L3.75,6.75 C3.957375,6.75 4.125,6.918 4.125,7.125375 C4.124625,7.332375 3.957,7.5 3.75,7.5 L3.75,7.5 L3.749625,7.5 L1.884,7.498875 C1.67775,7.498875 1.5105,7.332 1.509375,7.12575 L1.509375,7.12575 L1.49999436,5.251875 C1.498875,5.044875 1.666125,4.876125 1.873125,4.875 L1.873125,4.875 Z M5.251725,1.50015 L7.1256,1.509525 C7.33185,1.51065 7.498725,1.6779 7.498725,1.88415 L7.498725,1.88415 L7.49985063,3.749775 C7.500225,3.956775 7.332225,4.12515 7.125225,4.12515 L7.125225,4.12515 C6.91785,4.12515 6.750225,3.95715 6.74985,3.750525 L6.74985,3.750525 L6.7491,2.78115 L5.514975,4.015275 C5.44185,4.0884 5.34585,4.12515 5.24985,4.12515 C5.154225,4.12515 5.058225,4.0884 4.984725,4.015275 C4.838475,3.86865 4.838475,3.631275 4.984725,3.485025 L4.984725,3.485025 L6.214725,2.255025 L5.24835,2.25015 C5.040975,2.249025 4.873725,2.0799 4.87484436,1.873275 C4.875975,1.66665 5.043975,1.50015 5.24985,1.50015 L5.24985,1.50015 L5.251725,1.50015 Z" id="path-3"></path>
        <rect id="path-5" x="74" y="102.360475" width="174" height="201" rx="4"></rect>
        <filter x="-2.2%" y="-1.4%" width="104.5%" height="103.9%" filterUnits="objectBoundingBox" id="filter-6">
            <feMorphology radius="0.4" operator="dilate" in="SourceAlpha" result="shadowSpreadOuter1"></feMorphology>
            <feOffset dx="0" dy="1" in="shadowSpreadOuter1" result="shadowOffsetOuter1"></feOffset>
            <feGaussianBlur stdDeviation="1" in="shadowOffsetOuter1" result="shadowBlurOuter1"></feGaussianBlur>
            <feComposite in="shadowBlurOuter1" in2="SourceAlpha" operator="out" result="shadowBlurOuter1"></feComposite>
            <feColorMatrix values="0 0 0 0 0   0 0 0 0 0   0 0 0 0 0  0 0 0 0.5 0" type="matrix" in="shadowBlurOuter1"></feColorMatrix>
        </filter>
        <polygon id="path-7" points="3.64000006 5.32000003 7 8.67999997 10.3599999 5.32000003"></polygon>
    </defs>
    <g id="Marketing" stroke="none" stroke-width="1" fill="none" fill-rule="evenodd">
        <path d="M354.092422,0 C277.320194,0.225455336 226.647541,58.1541543 178.509445,73.2299427 C106.323904,95.8359393 37.0596883,72.0862693 7.29817054,154.738195 C2.30105814,168.615996 0.019544079,182.984675 0,197.26727 L0,197.653619 C0.065832687,242.298899 22.1856155,286.072077 52.4470502,311.439902 C68.2283797,324.670031 89.2557514,329.990777 111.88368,330 L112.01226,330 C146.865524,329.983603 185.499025,317.384749 214.647476,301.685884 C271.097977,271.280158 309.671817,283.797028 348.466813,294.710091 C416.799085,313.932208 505.410911,247.762092 499.741071,153.048305 C494.296502,62.0811763 452.541091,10.9786501 373.867944,1.20618605 C367.407083,0.403770011 361.112861,0.0184463457 354.994536,0 L354.092422,0 Z" id="Fill-1-Copy" fill="#F2F7FF"></path>
        <g id="Rectangle">
            <use fill="black" fill-opacity="1" filter="url(#filter-2)" xlink:href="#path-1"></use>
            <use stroke="#E9EBF0" stroke-width="0.55999999" fill="#FFFFFF" xlink:href="#path-1"></use>
        </g>
        <path d="M206,24.360475 L455,24.360475 C456.104569,24.360475 457,25.2559055 457,26.360475 L457,26.360475 L457,26.360475 L204,26.360475 C204,25.2559055 204.895431,24.360475 206,24.360475 Z" id="Rectangle-7-Copy-6" fill="#29CC96"></path>
        <g id="verification/button/trusted/active" transform="translate(212.000000, 32.360475)">
            <g id="verification-icon-trusted-copy-12">
                <g id="Group-15" fill="#F2FFFB" stroke="#29CC96" stroke-width="0.55999999">
                    <rect id="Rectangle-3" x="0.279999995" y="0.279999995" width="13.44" height="13.44" rx="2.23999996"></rect>
                </g>
                <path d="M10.0397886,3.98728692 C8.54646028,5.57376393 7.18641334,7.13903708 5.73502999,8.70177987 L3.89893716,7.14531496 C3.77385447,7.03896581 3.61396214,6.99016973 3.45465586,7.0089377 C3.29534958,7.02770567 3.14962217,7.11278531 3.04931375,7.24541505 C2.84044988,7.52192988 2.8829235,7.92542757 3.14371635,8.14625828 L5.40937877,10.0680572 C5.65070203,10.2726166 5.99938748,10.2513487 6.21652857,10.0180103 C7.8402533,8.29271537 9.29994408,6.59160306 10.8988976,4.8932133 C11.0794407,4.70867257 11.1331369,4.42527129 11.0346017,4.18067434 C10.9360695,3.93607739 10.7053707,3.78154874 10.4552114,3.7921827 C10.2982101,3.7971009 10.1489482,3.86716649 10.0397886,3.98728692 Z" id="Fill-1" fill="#29CC96"></path>
            </g>
        </g>
        <g id="close" transform="translate(442.000000, 35.360475)" fill="#B8BFCC">
            <path d="M5.02875,4.5 L6.64125,2.89125 C6.78829581,2.74420419 6.78829581,2.50579581 6.64125,2.35875 C6.49420419,2.21170419 6.25579581,2.21170419 6.10875,2.35875 L4.5,3.97125 L2.89125,2.35875 C2.74420418,2.21170419 2.50579582,2.21170419 2.35875,2.35875 C2.21170419,2.50579582 2.21170419,2.74420418 2.35875,2.89125 L3.97125,4.5 L2.35875,6.10875 C2.28775776,6.17916247 2.24782563,6.27501092 2.24782563,6.375 C2.24782563,6.47498908 2.28775776,6.57083753 2.35875,6.64125 C2.42916247,6.71224224 2.52501092,6.75217437 2.625,6.75217437 C2.72498908,6.75217437 2.82083753,6.71224224 2.89125,6.64125 L4.5,5.02875 L6.10875,6.64125 C6.17916247,6.71224224 6.27501092,6.75217437 6.375,6.75217437 C6.47498908,6.75217437 6.57083753,6.71224224 6.64125,6.64125 C6.71224224,6.57083753 6.75217437,6.47498908 6.75217437,6.375 C6.75217437,6.27501092 6.71224224,6.17916247 6.64125,6.10875 L5.02875,4.5 Z" id="-Icon-小olor"></path>
        </g>
        <g id="expand-window" transform="translate(429.000000, 35.360475)">
            <mask id="mask-4" fill="white">
                <use xlink:href="#path-3"></use>
            </mask>
            <use id="-Icon-小olor" fill="#B8BFCC" fill-rule="evenodd" xlink:href="#path-3"></use>
        </g>
        <path d="M421,31.360475 L421,45.360475 L421,31.360475 Z" id="Path-2" stroke="#B8BFCC" stroke-width="0.55999999"></path>
        <g id="globe" transform="translate(406.000000, 35.360475)" fill="#B8BFCC">
            <path d="M8.25,4.5 C8.25,3.50543816 7.85491185,2.55161099 7.15165043,1.84834957 C6.44838901,1.14508815 5.49456184,0.75 4.5,0.75 C2.42893219,0.75 0.75,2.42893219 0.75,4.5 C0.75,6.57106781 2.42893219,8.25 4.5,8.25 C6.57106781,8.25 8.25,6.57106781 8.25,4.5 Z M7.47375,4.125 L6.375,4.125 C6.31315234,3.24305352 6.0109749,2.39488165 5.50125,1.6725 C6.56921252,2.0517964 7.33227495,3.00054701 7.47375,4.125 Z M3.405,4.875 L5.625,4.875 C5.52903112,5.80146887 5.13414427,6.67153623 4.5,7.35375 C3.86627643,6.67438658 3.48044693,5.80098487 3.405,4.875 L3.405,4.875 Z M3.405,4.125 C3.49233211,3.20318507 3.87659587,2.33464367 4.5,1.65 C5.13926682,2.32729603 5.5350483,3.19801528 5.625,4.125 L3.405,4.125 Z M3.54,1.66125 C3.0275811,2.3876335 2.72055012,3.23877 2.65125,4.125 L1.52625,4.125 C1.67078837,2.98608776 2.45262785,2.02953554 3.54,1.66125 Z M1.52625,4.875 L2.65125,4.875 C2.71300924,5.76047499 3.0179548,6.6117273 3.5325,7.335 C2.44916128,6.96495666 1.67085708,6.01062478 1.52625,4.875 Z M5.4825,7.33125 C5.99565302,6.60775325 6.30399818,5.75915627 6.375,4.875 L7.48125,4.875 C7.33658452,6.00734451 6.56180804,6.95946195 5.4825,7.33125 L5.4825,7.33125 Z" id="-Icon-小olor"></path>
        </g>
        <path d="M204,235.360475 L457,235.360475 L457,258.120475 C457,259.357593 455.997118,260.360475 454.76,260.360475 L206.24,260.360475 C205.002882,260.360475 204,259.357593 204,258.120475 L204,235.360475 L204,235.360475 Z" id="Rectangle" stroke="#F2F3F5" stroke-width="0.55999999" fill="#F2F3F5"></path>
        <g id="icon-resize" transform="translate(206.000000, 250.360475)" fill="#8F9CB3">
            <path d="M5.69599992,6.71999989 L4.77866659,6.71999989 L6.71999989,4.77866659 L6.71999989,5.69599992 L5.69599992,6.71999989 Z M3.30666661,6.71999989 L2.38933329,6.71999989 L6.71999989,2.38933329 L6.71999989,3.30666661 L3.30666661,6.71999989 Z M0.917333316,6.71999989 L0,6.71999989 L6.71999989,0 L6.71999989,0.917333316 L0.917333316,6.71999989 Z" id="Shape" transform="translate(3.360000, 3.360000) rotate(90.000000) translate(-3.360000, -3.360000) "></path>
        </g>
        <g id="tag" transform="translate(220.000000, 242.360475)" fill="#B8BFCC">
            <path d="M4.67506187,9.625 C4.56946319,9.625 4.46386451,9.584575 4.38342802,9.5041375 L1.49596411,6.6166375 C1.33467863,6.45535 1.33467863,6.19465 1.49596411,6.0333625 L6.03340739,1.4958625 C6.11054393,1.4183125 6.21531762,1.375 6.32504125,1.375 L9.21250516,1.375 C9.4406148,1.375 9.625,1.5593875 9.625,1.7875 L9.625,4.675 C9.625,4.784725 9.58168804,4.8895 9.50413901,4.9666375 L4.96669573,9.5041375 C4.88625923,9.584575 4.78066055,9.625 4.67506187,9.625 Z M8.80001031,4.504225 L8.80001031,2.2 L6.49581411,2.2 L2.37086568,6.325 L4.67506187,8.629225 L8.80001031,4.504225 Z M7.54251057,2.75748349 C7.73581794,2.56417396 8.04923079,2.56417396 8.24253791,2.75748349 C8.43584503,2.95079328 8.43584503,3.26421005 8.24253791,3.45751958 C8.04923055,3.65082912 7.73581769,3.65082912 7.54251057,3.45751958 C7.34920345,3.2642098 7.34920345,2.95079303 7.54251057,2.75748349 L7.54251057,2.75748349 Z" id="-Icon-小olor"></path>
        </g>
        <rect id="Rectangle-12-[4-8]" fill="#FFFFFF" x="241" y="241.360475" width="51" height="11" rx="5.5"></rect>
        <path d="M236.9568,82.360475 L238.2816,77.416475 L239.616,82.360475 L240.6432,82.360475 L242.4672,75.957275 L241.392,75.957275 L240.0672,81.093275 L238.6752,75.957275 L237.8976,75.957275 L236.496,81.093275 L235.1712,75.957275 L234.096,75.957275 L235.9296,82.360475 L236.9568,82.360475 Z M245.376,82.475675 C246.1248,82.475675 246.7776,82.235675 247.2384,81.784475 L246.8352,81.218075 C246.4896,81.573275 245.952,81.765275 245.4624,81.765275 C244.5312,81.765275 243.9552,81.112475 243.888,80.325275 L247.5552,80.325275 L247.5552,80.114075 C247.5552,78.693275 246.6912,77.608475 245.2992,77.608475 C243.9456,77.608475 242.976,78.693275 242.976,80.037275 C242.976,81.496475 243.9936,82.475675 245.376,82.475675 Z M246.7104,79.701275 L243.8784,79.701275 C243.9264,79.067675 244.368,78.318875 245.2992,78.318875 C246.2784,78.318875 246.6912,79.086875 246.7104,79.701275 Z M251.0208,82.475675 C252.2208,82.475675 253.0848,81.563675 253.0848,80.046875 C253.0848,78.558875 252.2304,77.608475 251.0208,77.608475 C250.416,77.608475 249.8688,77.896475 249.504,78.395675 L249.504,75.957275 L248.64,75.957275 L248.64,82.360475 L249.504,82.360475 L249.504,81.698075 C249.8496,82.158875 250.3968,82.475675 251.0208,82.475675 Z M250.7904,81.707675 C250.2624,81.707675 249.7344,81.410075 249.504,81.035675 L249.504,79.067675 C249.7344,78.693275 250.2624,78.376475 250.7904,78.376475 C251.6544,78.376475 252.192,79.077275 252.192,80.046875 C252.192,81.016475 251.6544,81.707675 250.7904,81.707675 Z M254.6112,76.946075 C254.9184,76.946075 255.168,76.706075 255.168,76.398875 C255.168,76.091675 254.9184,75.842075 254.6112,75.842075 C254.3136,75.842075 254.0544,76.091675 254.0544,76.398875 C254.0544,76.706075 254.3136,76.946075 254.6112,76.946075 Z M255.0528,82.360475 L255.0528,77.723675 L254.1888,77.723675 L254.1888,82.360475 L255.0528,82.360475 Z M257.2896,82.360475 L257.2896,79.048475 C257.5392,78.702875 258.0288,78.376475 258.5664,78.376475 C259.1616,78.376475 259.5552,78.626075 259.5552,79.394075 L259.5552,82.360475 L260.4192,82.360475 L260.4192,79.106075 C260.4192,78.126875 259.9104,77.608475 258.9312,77.608475 C258.2112,77.608475 257.5968,78.002075 257.2896,78.376475 L257.2896,77.723675 L256.4256,77.723675 L256.4256,82.360475 L257.2896,82.360475 Z M263.136,82.475675 C263.76,82.475675 264.288,82.254875 264.6528,81.851675 L264.6528,82.360475 L265.5168,82.360475 L265.5168,79.230875 C265.5168,78.050075 264.6624,77.608475 263.6544,77.608475 C262.9056,77.608475 262.272,77.858075 261.7536,78.366875 L262.128,78.962075 C262.5408,78.549275 262.992,78.347675 263.52,78.347675 C264.1824,78.347675 264.6528,78.693275 264.6528,79.269275 L264.6528,80.037275 C264.2976,79.624475 263.76,79.422875 263.136,79.422875 C262.3584,79.422875 261.5232,79.883675 261.5232,80.939675 C261.5232,81.957275 262.368,82.475675 263.136,82.475675 Z M263.4624,81.870875 C262.8384,81.870875 262.3968,81.496475 262.3968,80.949275 C262.3968,80.402075 262.8384,80.027675 263.4624,80.027675 C263.9424,80.027675 264.3936,80.210075 264.6528,80.555675 L264.6528,81.342875 C264.3936,81.688475 263.9424,81.870875 263.4624,81.870875 Z M267.7632,82.360475 L267.7632,79.134875 C267.9648,78.789275 268.5504,78.462875 268.9824,78.462875 C269.0976,78.462875 269.1936,78.472475 269.28,78.491675 L269.28,77.618075 C268.6656,77.618075 268.1184,77.973275 267.7632,78.434075 L267.7632,77.723675 L266.8992,77.723675 L266.8992,82.360475 L267.7632,82.360475 Z M271.6704,82.475675 C272.8896,82.475675 273.5424,81.851675 273.5424,81.054875 C273.5424,79.989275 272.5824,79.768475 271.776,79.586075 C271.2,79.451675 270.7008,79.317275 270.7008,78.914075 C270.7008,78.539675 271.0656,78.309275 271.6512,78.309275 C272.2368,78.309275 272.7552,78.549275 273.024,78.875675 L273.408,78.270875 C273.0144,77.896475 272.4384,77.608475 271.6416,77.608475 C270.5088,77.608475 269.8752,78.242075 269.8752,78.981275 C269.8752,79.979675 270.7968,80.190875 271.584,80.373275 C272.1792,80.507675 272.7072,80.661275 272.7072,81.122075 C272.7072,81.515675 272.3616,81.784475 271.7088,81.784475 C271.0848,81.784475 270.4704,81.467675 270.1536,81.122075 L269.7408,81.755675 C270.2112,82.235675 270.8928,82.475675 271.6704,82.475675 Z" id="Webinars" fill="#1F3966" fill-rule="nonzero"></path>
        <path d="M235.5456,43.360475 L235.5456,38.032475 L237.7152,43.360475 L238.0416,43.360475 L240.2208,38.032475 L240.2208,43.360475 L241.0176,43.360475 L241.0176,36.957275 L239.8752,36.957275 L237.8784,41.834075 L235.8912,36.957275 L234.7488,36.957275 L234.7488,43.360475 L235.5456,43.360475 Z M243.8496,43.475675 C244.4736,43.475675 245.0016,43.254875 245.3856,42.832475 L245.3856,43.360475 L246.1056,43.360475 L246.1056,40.173275 C246.1056,39.050075 245.2896,38.608475 244.3104,38.608475 C243.552,38.608475 242.9568,38.858075 242.4576,39.376475 L242.7936,39.875675 C243.2064,39.434075 243.6576,39.232475 244.2144,39.232475 C244.8864,39.232475 245.3856,39.587675 245.3856,40.211675 L245.3856,41.046875 C245.0112,40.614875 244.4832,40.413275 243.8496,40.413275 C243.0624,40.413275 242.2272,40.902875 242.2272,41.939675 C242.2272,42.947675 243.0624,43.475675 243.8496,43.475675 Z M244.1088,42.957275 C243.4368,42.957275 242.9664,42.534875 242.9664,41.949275 C242.9664,41.354075 243.4368,40.931675 244.1088,40.931675 C244.6176,40.931675 245.1072,41.123675 245.3856,41.507675 L245.3856,42.381275 C245.1072,42.765275 244.6176,42.957275 244.1088,42.957275 Z M248.2656,43.360475 L248.2656,40.077275 C248.4768,39.702875 249.0816,39.338075 249.5232,39.338075 C249.6384,39.338075 249.7248,39.347675 249.8112,39.366875 L249.8112,38.627675 C249.1776,38.627675 248.64,38.982875 248.2656,39.472475 L248.2656,38.723675 L247.5456,38.723675 L247.5456,43.360475 L248.2656,43.360475 Z M251.4336,43.360475 L251.4336,42.035675 L252.2016,41.277275 L253.872,43.360475 L254.7936,43.360475 L252.7296,40.826075 L254.784,38.723675 L253.872,38.723675 L251.4336,41.190875 L251.4336,36.957275 L250.7136,36.957275 L250.7136,43.360475 L251.4336,43.360475 Z M257.7408,43.475675 C258.4992,43.475675 259.1232,43.226075 259.584,42.765275 L259.2384,42.294875 C258.8736,42.669275 258.336,42.880475 257.808,42.880475 C256.8096,42.880475 256.1952,42.150875 256.1376,41.277275 L259.8912,41.277275 L259.8912,41.094875 C259.8912,39.702875 259.0656,38.608475 257.664,38.608475 C256.3392,38.608475 255.3792,39.693275 255.3792,41.037275 C255.3792,42.486875 256.368,43.475675 257.7408,43.475675 Z M259.1808,40.749275 L256.1376,40.749275 C256.176,40.038875 256.6656,39.203675 257.6544,39.203675 C258.7104,39.203675 259.1712,40.058075 259.1808,40.749275 Z M262.224,43.475675 C262.6464,43.475675 262.9056,43.350875 263.088,43.178075 L262.8768,42.640475 C262.7808,42.746075 262.5888,42.832475 262.3872,42.832475 C262.0704,42.832475 261.9168,42.582875 261.9168,42.237275 L261.9168,39.357275 L262.8576,39.357275 L262.8576,38.723675 L261.9168,38.723675 L261.9168,37.456475 L261.1968,37.456475 L261.1968,38.723675 L260.4288,38.723675 L260.4288,39.357275 L261.1968,39.357275 L261.1968,42.390875 C261.1968,43.082075 261.5424,43.475675 262.224,43.475675 Z M264.2304,37.946075 C264.4992,37.946075 264.72,37.725275 264.72,37.456475 C264.72,37.187675 264.4992,36.976475 264.2304,36.976475 C263.9712,36.976475 263.7504,37.187675 263.7504,37.456475 C263.7504,37.725275 263.9712,37.946075 264.2304,37.946075 Z M264.5952,43.360475 L264.5952,38.723675 L263.8752,38.723675 L263.8752,43.360475 L264.5952,43.360475 Z M266.7552,43.360475 L266.7552,39.971675 C267.024,39.597275 267.5616,39.251675 268.128,39.251675 C268.752,39.251675 269.1648,39.510875 269.1648,40.326875 L269.1648,43.360475 L269.8848,43.360475 L269.8848,40.106075 C269.8848,39.098075 269.376,38.608475 268.4064,38.608475 C267.7152,38.608475 267.0816,39.011675 266.7552,39.395675 L266.7552,38.723675 L266.0352,38.723675 L266.0352,43.360475 L266.7552,43.360475 Z M273.1872,45.242075 C274.32,45.242075 275.3952,44.762075 275.3952,43.226075 L275.3952,38.723675 L274.6752,38.723675 L274.6752,39.424475 C274.3008,38.915675 273.744,38.608475 273.12,38.608475 C271.9008,38.608475 271.056,39.530075 271.056,41.018075 C271.056,42.515675 271.9104,43.418075 273.12,43.418075 C273.7728,43.418075 274.3392,43.062875 274.6752,42.592475 L274.6752,43.254875 C274.6752,44.272475 273.9552,44.646875 273.1872,44.646875 C272.5248,44.646875 272.064,44.474075 271.68,44.013275 L271.3152,44.550875 C271.8624,45.088475 272.4,45.242075 273.1872,45.242075 Z M273.2928,42.784475 C272.3616,42.784475 271.8048,42.035675 271.8048,41.018075 C271.8048,39.990875 272.3616,39.251675 273.2928,39.251675 C273.8688,39.251675 274.4256,39.597275 274.6752,40.000475 L274.6752,42.026075 C274.4256,42.429275 273.8688,42.784475 273.2928,42.784475 Z" fill="#29CC96" fill-rule="nonzero"></path>
        <rect id="Rectangle" fill="#F2F3F5" x="234" y="95.360475" width="197" height="4"></rect>
        <rect id="Rectangle-Copy" fill="#F2F3F5" x="234" y="104.360475" width="197" height="4"></rect>
        <rect id="Rectangle-Copy-2" fill="#F2F3F5" x="234" y="113.360475" width="197" height="4"></rect>
        <rect id="Rectangle-Copy-3" fill="#F2F3F5" x="234" y="129.360475" width="177" height="88" rx="2.4"></rect>
        <line x1="204" y1="55.860475" x2="457" y2="55.860475" id="Line-Copy-53" stroke="#DADEE6" stroke-width="0.55999999"></line>
        <g id="Rectangle">
            <use fill="black" fill-opacity="1" filter="url(#filter-6)" xlink:href="#path-5"></use>
            <use stroke="#F2F3F5" stroke-width="0.8" fill="#FFFFFF" xlink:href="#path-5"></use>
        </g>
        <rect id="Rectangle-Copy-7" fill="#E9EBF0" x="81" y="214" width="159.157895" height="34" rx="2.4"></rect>
        <g id="verification/dot/trusted/selected" transform="translate(89.000000, 223.000000)">
            <g id="Group" transform="translate(3.368421, 3.400000)">
                <rect id="Rectangle-3" stroke="#29CC96" stroke-width="0.8" fill="#29CC96" x="0" y="0" width="10.1052632" height="10.2" rx="4.8"></rect>
                <path d="M7.2467647,2.90502333 C6.16887359,4.06088515 5.18718557,5.20129844 4.13957052,6.33986819 L2.81427043,5.20587232 C2.72398518,5.12838938 2.60857417,5.09283795 2.49358618,5.10651175 C2.37859819,5.12018556 2.27341149,5.18217215 2.20100842,5.2788024 C2.05024954,5.4802632 2.08090719,5.77424009 2.26914864,5.93513103 L3.904514,7.33529878 C4.07870222,7.48433497 4.33038495,7.46883978 4.48711836,7.29883608 C5.6591302,6.04183548 6.71274159,4.80245366 7.86687344,3.56505541 C7.99719026,3.4306043 8.03594841,3.22412623 7.96482528,3.04591988 C7.89370434,2.86771353 7.72718489,2.75512837 7.54661875,2.76287597 C7.43329447,2.76645923 7.3255566,2.81750701 7.2467647,2.90502333 Z" id="Fill-1" fill="#FFFFFF"></path>
            </g>
        </g>
        <path d="M116.8416,235 L118.1408,229.8704 L119.4512,235 L121.1424,235 L123.2704,227.5296 L121.4784,227.5296 L120.1792,232.928 L118.768,227.5296 L117.5248,227.5296 L116.1024,232.928 L114.792,227.5296 L113.0112,227.5296 L115.1504,235 L116.8416,235 Z M126.5296,235.1344 C127.3696,235.1344 128.2208,234.8768 128.7584,234.384 L128.1312,233.4656 C127.784,233.8016 127.1904,234.0032 126.6864,234.0032 C125.768,234.0032 125.2192,233.432 125.1296,232.7488 L129.1504,232.7488 L129.1504,232.4352 C129.1504,230.6656 128.0528,229.456 126.44,229.456 C124.7936,229.456 123.64,230.7216 123.64,232.2896 C123.64,234.0256 124.8832,235.1344 126.5296,235.1344 Z M127.7728,231.7856 L125.1072,231.7856 C125.1744,231.248 125.5552,230.5872 126.44,230.5872 C127.3808,230.5872 127.7392,231.2704 127.7728,231.7856 Z M133.272,235.1344 C134.6384,235.1344 135.6688,234.104 135.6688,232.3008 C135.6688,230.5312 134.6496,229.456 133.272,229.456 C132.6336,229.456 132.0288,229.736 131.6032,230.2848 L131.6032,227.5296 L130.1808,227.5296 L130.1808,235 L131.6032,235 L131.6032,234.3056 C132.0288,234.8432 132.6224,235.1344 133.272,235.1344 Z M132.824,233.8688 C132.3648,233.8688 131.8384,233.6112 131.6032,233.264 L131.6032,231.3488 C131.8384,230.9904 132.3648,230.7216 132.824,230.7216 C133.6528,230.7216 134.2016,231.36 134.2016,232.3008 C134.2016,233.2416 133.6528,233.8688 132.824,233.8688 Z M137.4496,228.7952 C137.92,228.7952 138.3008,228.4144 138.3008,227.944 C138.3008,227.4736 137.92,227.0928 137.4496,227.0928 C136.9904,227.0928 136.5984,227.4736 136.5984,227.944 C136.5984,228.4144 136.9904,228.7952 137.4496,228.7952 Z M138.1664,235 L138.1664,229.5904 L136.744,229.5904 L136.744,235 L138.1664,235 Z M141,235 L141,231.36 C141.2352,231.0352 141.672,230.7216 142.232,230.7216 C142.8368,230.7216 143.2288,230.9792 143.2288,231.7296 L143.2288,235 L144.6512,235 L144.6512,231.1808 C144.6512,230.128 144.08,229.456 142.8928,229.456 C142.008,229.456 141.3472,229.8816 141,230.296 L141,229.5904 L139.5776,229.5904 L139.5776,235 L141,235 Z M147.5968,235.1344 C148.3024,235.1344 148.9408,234.8768 149.3104,234.44 L149.3104,235 L150.7328,235 L150.7328,231.5056 C150.7328,229.9488 149.6016,229.456 148.3696,229.456 C147.5184,229.456 146.6672,229.7248 146.0064,230.3072 L146.544,231.2592 C147.0032,230.8336 147.5408,230.6208 148.1232,230.6208 C148.84,230.6208 149.3104,230.9792 149.3104,231.528 L149.3104,232.2784 C148.952,231.8416 148.3136,231.6176 147.5968,231.6176 C146.7344,231.6176 145.7152,232.0768 145.7152,233.3424 C145.7152,234.552 146.7344,235.1344 147.5968,235.1344 Z M148.168,234.1712 C147.608,234.1712 147.1488,233.88 147.1488,233.376 C147.1488,232.8496 147.608,232.5584 148.168,232.5584 C148.6272,232.5584 149.0752,232.7152 149.3104,233.0288 L149.3104,233.7008 C149.0752,234.0144 148.6272,234.1712 148.168,234.1712 Z M153.5664,235 L153.5664,231.4272 C153.8016,231.08 154.4288,230.8112 154.8992,230.8112 C155.056,230.8112 155.1904,230.8336 155.2912,230.856 L155.2912,229.4672 C154.6192,229.4672 153.9472,229.848 153.5664,230.3296 L153.5664,229.5904 L152.144,229.5904 L152.144,235 L153.5664,235 Z M158.1248,235.1344 C159.6256,235.1344 160.4656,234.384 160.4656,233.3984 C160.4656,232.0544 159.2224,231.808 158.2928,231.6288 C157.688,231.5056 157.2624,231.3824 157.2624,231.0464 C157.2624,230.7328 157.5984,230.5424 158.1136,230.5424 C158.7744,230.5424 159.3904,230.8224 159.7152,231.1696 L160.2864,230.1952 C159.7488,229.7696 159.0208,229.456 158.1024,229.456 C156.68,229.456 155.8848,230.2512 155.8848,231.1584 C155.8848,232.4464 157.0832,232.6704 158.0128,232.8496 C158.6288,232.9728 159.0992,233.1072 159.0992,233.488 C159.0992,233.824 158.808,234.0368 158.192,234.0368 C157.52,234.0368 156.7136,233.6672 156.3216,233.2976 L155.7056,234.2944 C156.2768,234.8208 157.184,235.1344 158.1248,235.1344 Z" id="Webinars" fill="#1F3966" fill-rule="nonzero"></path>
        <g id="verification/dot/trusted/active" transform="translate(89.000000, 152.360475)">
            <g id="Group" transform="translate(3.364948, 3.400000)">
                <rect id="Rectangle-3" stroke="#29CC96" stroke-width="0.8" fill="#F2FFFB" x="0" y="0" width="10.0948454" height="10.2" rx="4.8"></rect>
                <path d="M7.23929381,2.90502333 C6.16251392,4.06088515 5.18183795,5.20129844 4.13530292,6.33986819 L2.81136912,5.20587232 C2.72117695,5.12838938 2.60588492,5.09283795 2.49101548,5.10651175 C2.37614603,5.12018556 2.27106777,5.18217215 2.19873934,5.2788024 C2.04813588,5.4802632 2.07876192,5.77424009 2.26680931,5.93513103 L3.90048873,7.33529878 C4.07449737,7.48433497 4.32592063,7.46883978 4.48249247,7.29883608 C5.65329605,6.04183548 6.70582124,4.80245366 7.85876326,3.56505541 C7.98894573,3.4306043 8.02766393,3.22412623 7.95661412,3.04591988 C7.8855665,2.86771353 7.71921872,2.75512837 7.53883873,2.76287597 C7.42563128,2.76645923 7.31800448,2.81750701 7.23929381,2.90502333 Z" id="Fill-1" fill="#29CC96"></path>
            </g>
        </g>
        <path d="M117.047076,163.660475 L117.047076,157.018875 L119.421476,157.018875 L119.421476,156.190075 L113.754276,156.190075 L113.754276,157.018875 L116.117476,157.018875 L116.117476,163.660475 L117.047076,163.660475 Z M123.061476,163.794875 C123.946276,163.794875 124.674276,163.503675 125.211876,162.966075 L124.808676,162.417275 C124.383076,162.854075 123.755876,163.100475 123.139876,163.100475 C121.975076,163.100475 121.258276,162.249275 121.191076,161.230075 L125.570276,161.230075 L125.570276,161.017275 C125.570276,159.393275 124.607076,158.116475 122.971876,158.116475 C121.426276,158.116475 120.306276,159.382075 120.306276,160.950075 C120.306276,162.641275 121.459876,163.794875 123.061476,163.794875 Z M124.741476,160.614075 L121.191076,160.614075 C121.235876,159.785275 121.807076,158.810875 122.960676,158.810875 C124.192676,158.810875 124.730276,159.807675 124.741476,160.614075 Z M128.639076,163.794875 C130.039076,163.794875 130.767076,163.066875 130.767076,162.159675 C130.767076,160.961275 129.680676,160.692475 128.739876,160.479675 C128.034276,160.311675 127.418276,160.143675 127.418276,159.617275 C127.418276,159.135675 127.877476,158.799675 128.616676,158.799675 C129.311076,158.799675 129.904676,159.090875 130.229476,159.482875 L130.621476,158.900475 C130.184676,158.463675 129.535076,158.116475 128.616676,158.116475 C127.328676,158.116475 126.600676,158.833275 126.600676,159.673275 C126.600676,160.793275 127.642276,161.039675 128.560676,161.252475 C129.288676,161.431675 129.949476,161.622075 129.949476,162.215675 C129.949476,162.742075 129.501476,163.111675 128.672676,163.111675 C127.933476,163.111675 127.250276,162.753275 126.891876,162.338875 L126.455076,162.943675 C127.003876,163.526075 127.754276,163.794875 128.639076,163.794875 Z M133.499876,163.794875 C133.992676,163.794875 134.295076,163.649275 134.507876,163.447675 L134.261476,162.820475 C134.149476,162.943675 133.925476,163.044475 133.690276,163.044475 C133.320676,163.044475 133.141476,162.753275 133.141476,162.350075 L133.141476,158.990075 L134.239076,158.990075 L134.239076,158.250875 L133.141476,158.250875 L133.141476,156.772475 L132.301476,156.772475 L132.301476,158.250875 L131.405476,158.250875 L131.405476,158.990075 L132.301476,158.990075 L132.301476,162.529275 C132.301476,163.335675 132.704676,163.794875 133.499876,163.794875 Z M135.840676,157.343675 C136.154276,157.343675 136.411876,157.086075 136.411876,156.772475 C136.411876,156.458875 136.154276,156.212475 135.840676,156.212475 C135.538276,156.212475 135.280676,156.458875 135.280676,156.772475 C135.280676,157.086075 135.538276,157.343675 135.840676,157.343675 Z M136.266276,163.660475 L136.266276,158.250875 L135.426276,158.250875 L135.426276,163.660475 L136.266276,163.660475 Z M138.786276,163.660475 L138.786276,159.706875 C139.077476,159.270075 139.659876,158.866875 140.208676,158.866875 C140.914276,158.866875 141.205476,159.303675 141.205476,159.986875 L141.205476,163.660475 L142.045476,163.660475 L142.045476,159.695675 C142.325476,159.270075 142.919076,158.866875 143.479076,158.866875 C144.173476,158.866875 144.475876,159.303675 144.475876,159.986875 L144.475876,163.660475 L145.315876,163.660475 L145.315876,159.751675 C145.315876,158.665275 144.789476,158.116475 143.803876,158.116475 C143.019876,158.116475 142.291876,158.631675 141.989476,159.124475 C141.832676,158.564475 141.362276,158.116475 140.533476,158.116475 C139.738276,158.116475 139.010276,158.687675 138.786276,159.034875 L138.786276,158.250875 L137.946276,158.250875 L137.946276,163.660475 L138.786276,163.660475 Z M149.359076,163.794875 C151.005476,163.794875 152.035876,162.518075 152.035876,160.950075 C152.035876,159.382075 151.005476,158.116475 149.359076,158.116475 C147.712676,158.116475 146.682276,159.382075 146.682276,160.950075 C146.682276,162.518075 147.712676,163.794875 149.359076,163.794875 Z M149.359076,163.044475 C148.205476,163.044475 147.555876,162.058875 147.555876,160.950075 C147.555876,159.852475 148.205476,158.866875 149.359076,158.866875 C150.512676,158.866875 151.151076,159.852475 151.151076,160.950075 C151.151076,162.058875 150.512676,163.044475 149.359076,163.044475 Z M154.242276,163.660475 L154.242276,159.706875 C154.555876,159.270075 155.183076,158.866875 155.843876,158.866875 C156.571876,158.866875 157.053476,159.169275 157.053476,160.121275 L157.053476,163.660475 L157.893476,163.660475 L157.893476,159.863675 C157.893476,158.687675 157.299876,158.116475 156.168676,158.116475 C155.362276,158.116475 154.623076,158.586875 154.242276,159.034875 L154.242276,158.250875 L153.402276,158.250875 L153.402276,163.660475 L154.242276,163.660475 Z M159.987876,157.343675 C160.301476,157.343675 160.559076,157.086075 160.559076,156.772475 C160.559076,156.458875 160.301476,156.212475 159.987876,156.212475 C159.685476,156.212475 159.427876,156.458875 159.427876,156.772475 C159.427876,157.086075 159.685476,157.343675 159.987876,157.343675 Z M160.413476,163.660475 L160.413476,158.250875 L159.573476,158.250875 L159.573476,163.660475 L160.413476,163.660475 Z M163.683876,163.794875 C164.411876,163.794875 165.027876,163.537275 165.475876,163.044475 L165.475876,163.660475 L166.315876,163.660475 L166.315876,159.942075 C166.315876,158.631675 165.363876,158.116475 164.221476,158.116475 C163.336676,158.116475 162.642276,158.407675 162.059876,159.012475 L162.451876,159.594875 C162.933476,159.079675 163.459876,158.844475 164.109476,158.844475 C164.893476,158.844475 165.475876,159.258875 165.475876,159.986875 L165.475876,160.961275 C165.039076,160.457275 164.423076,160.222075 163.683876,160.222075 C162.765476,160.222075 161.791076,160.793275 161.791076,162.002875 C161.791076,163.178875 162.765476,163.794875 163.683876,163.794875 Z M163.986276,163.190075 C163.202276,163.190075 162.653476,162.697275 162.653476,162.014075 C162.653476,161.319675 163.202276,160.826875 163.986276,160.826875 C164.579876,160.826875 165.151076,161.050875 165.475876,161.498875 L165.475876,162.518075 C165.151076,162.966075 164.579876,163.190075 163.986276,163.190075 Z M168.835876,163.660475 L168.835876,156.190075 L167.995876,156.190075 L167.995876,163.660475 L168.835876,163.660475 Z M172.229476,163.794875 C173.629476,163.794875 174.357476,163.066875 174.357476,162.159675 C174.357476,160.961275 173.271076,160.692475 172.330276,160.479675 C171.624676,160.311675 171.008676,160.143675 171.008676,159.617275 C171.008676,159.135675 171.467876,158.799675 172.207076,158.799675 C172.901476,158.799675 173.495076,159.090875 173.819876,159.482875 L174.211876,158.900475 C173.775076,158.463675 173.125476,158.116475 172.207076,158.116475 C170.919076,158.116475 170.191076,158.833275 170.191076,159.673275 C170.191076,160.793275 171.232676,161.039675 172.151076,161.252475 C172.879076,161.431675 173.539876,161.622075 173.539876,162.215675 C173.539876,162.742075 173.091876,163.111675 172.263076,163.111675 C171.523876,163.111675 170.840676,162.753275 170.482276,162.338875 L170.045476,162.943675 C170.594276,163.526075 171.344676,163.794875 172.229476,163.794875 Z" id="Testimonials" fill="#1F3966" fill-rule="nonzero"></path>
        <g id="verification/dot/trusted/active" transform="translate(89.000000, 186.360475)">
            <g id="Group" transform="translate(3.368421, 3.400000)">
                <rect id="Rectangle-3" stroke="#29CC96" stroke-width="0.8" fill="#F2FFFB" x="0" y="0" width="10.1052632" height="10.2" rx="4.8"></rect>
                <path d="M7.2467647,2.90502333 C6.16887359,4.06088515 5.18718557,5.20129844 4.13957052,6.33986819 L2.81427043,5.20587232 C2.72398518,5.12838938 2.60857417,5.09283795 2.49358618,5.10651175 C2.37859819,5.12018556 2.27341149,5.18217215 2.20100842,5.2788024 C2.05024954,5.4802632 2.08090719,5.77424009 2.26914864,5.93513103 L3.904514,7.33529878 C4.07870222,7.48433497 4.33038495,7.46883978 4.48711836,7.29883608 C5.6591302,6.04183548 6.71274159,4.80245366 7.86687344,3.56505541 C7.99719026,3.4306043 8.03594841,3.22412623 7.96482528,3.04591988 C7.89370434,2.86771353 7.72718489,2.75512837 7.54661875,2.76287597 C7.43329447,2.76645923 7.3255566,2.81750701 7.2467647,2.90502333 Z" id="Fill-1" fill="#29CC96"></path>
            </g>
        </g>
        <path d="M117.699453,197.660475 C119.065853,197.660475 119.861053,196.842875 119.861053,195.644475 C119.861053,194.748475 119.200253,193.930875 118.405053,193.807675 C119.088253,193.662075 119.715453,193.034875 119.715453,192.094075 C119.715453,190.974075 118.920253,190.190075 117.621053,190.190075 L114.294653,190.190075 L114.294653,197.660475 L117.699453,197.660475 Z M117.464253,193.426875 L115.224253,193.426875 L115.224253,191.018875 L117.464253,191.018875 C118.304253,191.018875 118.752253,191.556475 118.752253,192.228475 C118.752253,192.911675 118.304253,193.426875 117.464253,193.426875 Z M117.509053,196.831675 L115.224253,196.831675 L115.224253,194.255675 L117.509053,194.255675 C118.427453,194.255675 118.897853,194.860475 118.897853,195.543675 C118.897853,196.338875 118.382653,196.831675 117.509053,196.831675 Z M122.145853,197.660475 L122.145853,190.190075 L121.305853,190.190075 L121.305853,197.660475 L122.145853,197.660475 Z M126.189053,197.794875 C127.835453,197.794875 128.865853,196.518075 128.865853,194.950075 C128.865853,193.382075 127.835453,192.116475 126.189053,192.116475 C124.542653,192.116475 123.512253,193.382075 123.512253,194.950075 C123.512253,196.518075 124.542653,197.794875 126.189053,197.794875 Z M126.189053,197.044475 C125.035453,197.044475 124.385853,196.058875 124.385853,194.950075 C124.385853,193.852475 125.035453,192.866875 126.189053,192.866875 C127.342653,192.866875 127.981053,193.852475 127.981053,194.950075 C127.981053,196.058875 127.342653,197.044475 126.189053,197.044475 Z M132.405053,199.855675 C133.726653,199.855675 134.981053,199.295675 134.981053,197.503675 L134.981053,192.250875 L134.141053,192.250875 L134.141053,193.068475 C133.704253,192.474875 133.054653,192.116475 132.326653,192.116475 C130.904253,192.116475 129.918653,193.191675 129.918653,194.927675 C129.918653,196.674875 130.915453,197.727675 132.326653,197.727675 C133.088253,197.727675 133.749053,197.313275 134.141053,196.764475 L134.141053,197.537275 C134.141053,198.724475 133.301053,199.161275 132.405053,199.161275 C131.632253,199.161275 131.094653,198.959675 130.646653,198.422075 L130.221053,199.049275 C130.859453,199.676475 131.486653,199.855675 132.405053,199.855675 Z M132.528253,196.988475 C131.441853,196.988475 130.792253,196.114875 130.792253,194.927675 C130.792253,193.729275 131.441853,192.866875 132.528253,192.866875 C133.200253,192.866875 133.849853,193.270075 134.141053,193.740475 L134.141053,196.103675 C133.849853,196.574075 133.200253,196.988475 132.528253,196.988475 Z" id="Blog" fill="#1F3966" fill-rule="nonzero"></path>
        <g id="verification/dot/trusted/active" transform="translate(88.000000, 260.360475)">
            <g id="Group" transform="translate(3.383607, 3.400000)">
                <rect id="Rectangle-3" stroke="#29CC96" stroke-width="0.8" fill="#F2FFFB" x="0" y="0" width="10.1508197" height="10.2" rx="4.8"></rect>
                <path d="M7.27943454,2.90502333 C6.19668408,4.06088515 5.21057042,5.20129844 4.15823252,6.33986819 L2.82695771,5.20587232 C2.73626544,5.12838938 2.62033414,5.09283795 2.50482776,5.10651175 C2.38932138,5.12018556 2.28366048,5.18217215 2.210931,5.2788024 C2.05949247,5.4802632 2.09028833,5.77424009 2.27937841,5.93513103 L3.92211632,7.33529878 C4.09708981,7.48433497 4.34990717,7.46883978 4.50734718,7.29883608 C5.68464268,6.04183548 6.74300395,4.80245366 7.90233885,3.56505541 C8.03324316,3.4306043 8.07217605,3.22412623 8.00073228,3.04591988 C7.92929071,2.86771353 7.76202056,2.75512837 7.58064039,2.76287597 C7.46680523,2.76645923 7.35858165,2.81750701 7.27943454,2.90502333 Z" id="Fill-1" fill="#29CC96"></path>
            </g>
        </g>
        <path d="M118.299148,271.660475 L118.299148,270.831675 L114.334348,270.831675 L114.334348,268.255675 L118.220748,268.255675 L118.220748,267.426875 L114.334348,267.426875 L114.334348,265.018875 L118.299148,265.018875 L118.299148,264.190075 L113.404748,264.190075 L113.404748,271.660475 L118.299148,271.660475 Z M122.107148,271.660475 L124.358348,266.250875 L123.439948,266.250875 L121.647948,270.686075 L119.844748,266.250875 L118.937548,266.250875 L121.188748,271.660475 L122.107148,271.660475 Z M127.673548,271.794875 C128.558348,271.794875 129.286348,271.503675 129.823948,270.966075 L129.420748,270.417275 C128.995148,270.854075 128.367948,271.100475 127.751948,271.100475 C126.587148,271.100475 125.870348,270.249275 125.803148,269.230075 L130.182348,269.230075 L130.182348,269.017275 C130.182348,267.393275 129.219148,266.116475 127.583948,266.116475 C126.038348,266.116475 124.918348,267.382075 124.918348,268.950075 C124.918348,270.641275 126.071948,271.794875 127.673548,271.794875 Z M129.353548,268.614075 L125.803148,268.614075 C125.847948,267.785275 126.419148,266.810875 127.572748,266.810875 C128.804748,266.810875 129.342348,267.807675 129.353548,268.614075 Z M132.377548,271.660475 L132.377548,267.706875 C132.691148,267.270075 133.318348,266.866875 133.979148,266.866875 C134.707148,266.866875 135.188748,267.169275 135.188748,268.121275 L135.188748,271.660475 L136.028748,271.660475 L136.028748,267.863675 C136.028748,266.687675 135.435148,266.116475 134.303948,266.116475 C133.497548,266.116475 132.758348,266.586875 132.377548,267.034875 L132.377548,266.250875 L131.537548,266.250875 L131.537548,271.660475 L132.377548,271.660475 Z M139.075148,271.794875 C139.567948,271.794875 139.870348,271.649275 140.083148,271.447675 L139.836748,270.820475 C139.724748,270.943675 139.500748,271.044475 139.265548,271.044475 C138.895948,271.044475 138.716748,270.753275 138.716748,270.350075 L138.716748,266.990075 L139.814348,266.990075 L139.814348,266.250875 L138.716748,266.250875 L138.716748,264.772475 L137.876748,264.772475 L137.876748,266.250875 L136.980748,266.250875 L136.980748,266.990075 L137.876748,266.990075 L137.876748,270.529275 C137.876748,271.335675 138.279948,271.794875 139.075148,271.794875 Z M142.715148,271.794875 C144.115148,271.794875 144.843148,271.066875 144.843148,270.159675 C144.843148,268.961275 143.756748,268.692475 142.815948,268.479675 C142.110348,268.311675 141.494348,268.143675 141.494348,267.617275 C141.494348,267.135675 141.953548,266.799675 142.692748,266.799675 C143.387148,266.799675 143.980748,267.090875 144.305548,267.482875 L144.697548,266.900475 C144.260748,266.463675 143.611148,266.116475 142.692748,266.116475 C141.404748,266.116475 140.676748,266.833275 140.676748,267.673275 C140.676748,268.793275 141.718348,269.039675 142.636748,269.252475 C143.364748,269.431675 144.025548,269.622075 144.025548,270.215675 C144.025548,270.742075 143.577548,271.111675 142.748748,271.111675 C142.009548,271.111675 141.326348,270.753275 140.967948,270.338875 L140.531148,270.943675 C141.079948,271.526075 141.830348,271.794875 142.715148,271.794875 Z" id="Events" fill="#1F3966" fill-rule="nonzero"></path>
        <g id="verification/dot/trusted/active" transform="translate(89.000000, 118.360475)">
            <g id="Group" transform="translate(3.364706, 3.400000)">
                <rect id="Rectangle-3" stroke="#29CC96" stroke-width="0.8" fill="#F2FFFB" x="0" y="0" width="10.0941176" height="10.2" rx="4.8"></rect>
                <path d="M7.23877195,2.90502333 C6.16206968,4.06088515 5.18146441,5.20129844 4.13500481,6.33986819 L2.81116645,5.20587232 C2.72098078,5.12838938 2.60569707,5.09283795 2.49083591,5.10651175 C2.37597474,5.12018556 2.27090406,5.18217215 2.19858084,5.2788024 C2.04798823,5.4802632 2.07861207,5.77424009 2.2666459,5.93513103 L3.90020755,7.33529878 C4.07420365,7.48433497 4.32560879,7.46883978 4.48216934,7.29883608 C5.65288852,6.04183548 6.70533784,4.80245366 7.85819674,3.56505541 C7.98836983,3.4306043 8.02708524,3.22412623 7.95604055,3.04591988 C7.88499804,2.86771353 7.71866226,2.75512837 7.53829528,2.76287597 C7.42509599,2.76645923 7.31747695,2.81750701 7.23877195,2.90502333 Z" id="Fill-1" fill="#29CC96"></path>
            </g>
        </g>
        <path d="M115.197318,129.660475 L115.197318,123.444475 L117.728518,129.660475 L118.109318,129.660475 L120.651718,123.444475 L120.651718,129.660475 L121.581318,129.660475 L121.581318,122.190075 L120.248518,122.190075 L117.918918,127.879675 L115.600518,122.190075 L114.267718,122.190075 L114.267718,129.660475 L115.197318,129.660475 Z M124.885318,129.794875 C125.613318,129.794875 126.229318,129.537275 126.677318,129.044475 L126.677318,129.660475 L127.517318,129.660475 L127.517318,125.942075 C127.517318,124.631675 126.565318,124.116475 125.422918,124.116475 C124.538118,124.116475 123.843718,124.407675 123.261318,125.012475 L123.653318,125.594875 C124.134918,125.079675 124.661318,124.844475 125.310918,124.844475 C126.094918,124.844475 126.677318,125.258875 126.677318,125.986875 L126.677318,126.961275 C126.240518,126.457275 125.624518,126.222075 124.885318,126.222075 C123.966918,126.222075 122.992518,126.793275 122.992518,128.002875 C122.992518,129.178875 123.966918,129.794875 124.885318,129.794875 Z M125.187718,129.190075 C124.403718,129.190075 123.854918,128.697275 123.854918,128.014075 C123.854918,127.319675 124.403718,126.826875 125.187718,126.826875 C125.781318,126.826875 126.352518,127.050875 126.677318,127.498875 L126.677318,128.518075 C126.352518,128.966075 125.781318,129.190075 125.187718,129.190075 Z M130.037318,129.660475 L130.037318,125.830075 C130.283718,125.393275 130.989318,124.967675 131.504518,124.967675 C131.638918,124.967675 131.739718,124.978875 131.840518,125.001275 L131.840518,124.138875 C131.101318,124.138875 130.474118,124.553275 130.037318,125.124475 L130.037318,124.250875 L129.197318,124.250875 L129.197318,129.660475 L130.037318,129.660475 Z M133.733318,129.660475 L133.733318,128.114875 L134.629318,127.230075 L136.578118,129.660475 L137.653318,129.660475 L135.245318,126.703675 L137.642118,124.250875 L136.578118,124.250875 L133.733318,127.129275 L133.733318,122.190075 L132.893318,122.190075 L132.893318,129.660475 L133.733318,129.660475 Z M141.091718,129.794875 C141.976518,129.794875 142.704518,129.503675 143.242118,128.966075 L142.838918,128.417275 C142.413318,128.854075 141.786118,129.100475 141.170118,129.100475 C140.005318,129.100475 139.288518,128.249275 139.221318,127.230075 L143.600518,127.230075 L143.600518,127.017275 C143.600518,125.393275 142.637318,124.116475 141.002118,124.116475 C139.456518,124.116475 138.336518,125.382075 138.336518,126.950075 C138.336518,128.641275 139.490118,129.794875 141.091718,129.794875 Z M142.771718,126.614075 L139.221318,126.614075 C139.266118,125.785275 139.837318,124.810875 140.990918,124.810875 C142.222918,124.810875 142.760518,125.807675 142.771718,126.614075 Z M146.322118,129.794875 C146.814918,129.794875 147.117318,129.649275 147.330118,129.447675 L147.083718,128.820475 C146.971718,128.943675 146.747718,129.044475 146.512518,129.044475 C146.142918,129.044475 145.963718,128.753275 145.963718,128.350075 L145.963718,124.990075 L147.061318,124.990075 L147.061318,124.250875 L145.963718,124.250875 L145.963718,122.772475 L145.123718,122.772475 L145.123718,124.250875 L144.227718,124.250875 L144.227718,124.990075 L145.123718,124.990075 L145.123718,128.529275 C145.123718,129.335675 145.526918,129.794875 146.322118,129.794875 Z M148.662918,123.343675 C148.976518,123.343675 149.234118,123.086075 149.234118,122.772475 C149.234118,122.458875 148.976518,122.212475 148.662918,122.212475 C148.360518,122.212475 148.102918,122.458875 148.102918,122.772475 C148.102918,123.086075 148.360518,123.343675 148.662918,123.343675 Z M149.088518,129.660475 L149.088518,124.250875 L148.248518,124.250875 L148.248518,129.660475 L149.088518,129.660475 Z M151.608518,129.660475 L151.608518,125.706875 C151.922118,125.270075 152.549318,124.866875 153.210118,124.866875 C153.938118,124.866875 154.419718,125.169275 154.419718,126.121275 L154.419718,129.660475 L155.259718,129.660475 L155.259718,125.863675 C155.259718,124.687675 154.666118,124.116475 153.534918,124.116475 C152.728518,124.116475 151.989318,124.586875 151.608518,125.034875 L151.608518,124.250875 L150.768518,124.250875 L150.768518,129.660475 L151.608518,129.660475 Z M159.112518,131.855675 C160.434118,131.855675 161.688518,131.295675 161.688518,129.503675 L161.688518,124.250875 L160.848518,124.250875 L160.848518,125.068475 C160.411718,124.474875 159.762118,124.116475 159.034118,124.116475 C157.611718,124.116475 156.626118,125.191675 156.626118,126.927675 C156.626118,128.674875 157.622918,129.727675 159.034118,129.727675 C159.795718,129.727675 160.456518,129.313275 160.848518,128.764475 L160.848518,129.537275 C160.848518,130.724475 160.008518,131.161275 159.112518,131.161275 C158.339718,131.161275 157.802118,130.959675 157.354118,130.422075 L156.928518,131.049275 C157.566918,131.676475 158.194118,131.855675 159.112518,131.855675 Z M159.235718,128.988475 C158.149318,128.988475 157.499718,128.114875 157.499718,126.927675 C157.499718,125.729275 158.149318,124.866875 159.235718,124.866875 C159.907718,124.866875 160.557318,125.270075 160.848518,125.740475 L160.848518,128.103675 C160.557318,128.574075 159.907718,128.988475 159.235718,128.988475 Z M169.069318,129.660475 L169.069318,123.018875 L171.443718,123.018875 L171.443718,122.190075 L165.776518,122.190075 L165.776518,123.018875 L168.139718,123.018875 L168.139718,129.660475 L169.069318,129.660475 Z M175.083718,129.794875 C175.968518,129.794875 176.696518,129.503675 177.234118,128.966075 L176.830918,128.417275 C176.405318,128.854075 175.778118,129.100475 175.162118,129.100475 C173.997318,129.100475 173.280518,128.249275 173.213318,127.230075 L177.592518,127.230075 L177.592518,127.017275 C177.592518,125.393275 176.629318,124.116475 174.994118,124.116475 C173.448518,124.116475 172.328518,125.382075 172.328518,126.950075 C172.328518,128.641275 173.482118,129.794875 175.083718,129.794875 Z M176.763718,126.614075 L173.213318,126.614075 C173.258118,125.785275 173.829318,124.810875 174.982918,124.810875 C176.214918,124.810875 176.752518,125.807675 176.763718,126.614075 Z M181.333318,129.794875 C182.318918,129.794875 182.901318,129.391675 183.315718,128.854075 L182.755718,128.338875 C182.397318,128.820475 181.938118,129.044475 181.378118,129.044475 C180.224518,129.044475 179.507718,128.148475 179.507718,126.950075 C179.507718,125.751675 180.224518,124.866875 181.378118,124.866875 C181.938118,124.866875 182.397318,125.079675 182.755718,125.572475 L183.315718,125.057275 C182.901318,124.519675 182.318918,124.116475 181.333318,124.116475 C179.720518,124.116475 178.634118,125.348475 178.634118,126.950075 C178.634118,128.562875 179.720518,129.794875 181.333318,129.794875 Z M185.331718,129.660475 L185.331718,125.706875 C185.656518,125.270075 186.283718,124.866875 186.933318,124.866875 C187.661318,124.866875 188.154118,125.146875 188.154118,126.098875 L188.154118,129.660475 L188.994118,129.660475 L188.994118,125.841275 C188.994118,124.665275 188.400518,124.116475 187.269318,124.116475 C186.451718,124.116475 185.712518,124.586875 185.331718,125.034875 L185.331718,122.190075 L184.491718,122.190075 L184.491718,129.660475 L185.331718,129.660475 Z M196.016518,129.794875 C198.032518,129.794875 198.771718,128.686075 198.771718,127.599675 C198.771718,126.031675 197.382918,125.650875 196.162118,125.326075 C195.210118,125.068475 194.347718,124.844475 194.347718,124.094075 C194.347718,123.388475 194.986118,122.906875 195.882118,122.906875 C196.699718,122.906875 197.483718,123.186875 198.043718,123.802875 L198.603718,123.119675 C197.976518,122.458875 197.091718,122.078075 195.949318,122.078075 C194.482118,122.078075 193.384518,122.918075 193.384518,124.150075 C193.384518,125.617275 194.717318,125.953275 195.915718,126.266875 C196.901318,126.535675 197.808518,126.782075 197.808518,127.678075 C197.808518,128.249275 197.382918,128.966075 196.050118,128.966075 C194.997318,128.966075 194.190918,128.450875 193.698118,127.902075 L193.149318,128.607675 C193.765318,129.302075 194.717318,129.794875 196.016518,129.794875 Z M201.493318,129.794875 C201.986118,129.794875 202.288518,129.649275 202.501318,129.447675 L202.254918,128.820475 C202.142918,128.943675 201.918918,129.044475 201.683718,129.044475 C201.314118,129.044475 201.134918,128.753275 201.134918,128.350075 L201.134918,124.990075 L202.232518,124.990075 L202.232518,124.250875 L201.134918,124.250875 L201.134918,122.772475 L200.294918,122.772475 L200.294918,124.250875 L199.398918,124.250875 L199.398918,124.990075 L200.294918,124.990075 L200.294918,128.529275 C200.294918,129.335675 200.698118,129.794875 201.493318,129.794875 Z M205.010118,129.794875 C205.738118,129.794875 206.354118,129.537275 206.802118,129.044475 L206.802118,129.660475 L207.642118,129.660475 L207.642118,125.942075 C207.642118,124.631675 206.690118,124.116475 205.547718,124.116475 C204.662918,124.116475 203.968518,124.407675 203.386118,125.012475 L203.778118,125.594875 C204.259718,125.079675 204.786118,124.844475 205.435718,124.844475 C206.219718,124.844475 206.802118,125.258875 206.802118,125.986875 L206.802118,126.961275 C206.365318,126.457275 205.749318,126.222075 205.010118,126.222075 C204.091718,126.222075 203.117318,126.793275 203.117318,128.002875 C203.117318,129.178875 204.091718,129.794875 205.010118,129.794875 Z M205.312518,129.190075 C204.528518,129.190075 203.979718,128.697275 203.979718,128.014075 C203.979718,127.319675 204.528518,126.826875 205.312518,126.826875 C205.906118,126.826875 206.477318,127.050875 206.802118,127.498875 L206.802118,128.518075 C206.477318,128.966075 205.906118,129.190075 205.312518,129.190075 Z M211.707718,129.794875 C212.693318,129.794875 213.275718,129.391675 213.690118,128.854075 L213.130118,128.338875 C212.771718,128.820475 212.312518,129.044475 211.752518,129.044475 C210.598918,129.044475 209.882118,128.148475 209.882118,126.950075 C209.882118,125.751675 210.598918,124.866875 211.752518,124.866875 C212.312518,124.866875 212.771718,125.079675 213.130118,125.572475 L213.690118,125.057275 C213.275718,124.519675 212.693318,124.116475 211.707718,124.116475 C210.094918,124.116475 209.008518,125.348475 209.008518,126.950075 C209.008518,128.562875 210.094918,129.794875 211.707718,129.794875 Z M215.706118,129.660475 L215.706118,128.114875 L216.602118,127.230075 L218.550918,129.660475 L219.626118,129.660475 L217.218118,126.703675 L219.614918,124.250875 L218.550918,124.250875 L215.706118,127.129275 L215.706118,122.190075 L214.866118,122.190075 L214.866118,129.660475 L215.706118,129.660475 Z" id="MarketingTechStack" fill="#1F3966" fill-rule="nonzero"></path>
        <g id="expand-accordion" transform="translate(229.000000, 231.000000) rotate(-90.000000) translate(-229.000000, -231.000000) translate(222.000000, 224.000000)">
            <mask id="mask-8" fill="white">
                <use xlink:href="#path-7"></use>
            </mask>
            <use id="-Icon-小olor" fill="#001C4D" fill-rule="evenodd" xlink:href="#path-7"></use>
        </g>
    </g>
</svg>