<svg width="500px" height="330px" viewBox="0 0 500 330" xmlns="http://www.w3.org/2000/svg" xmlns:xlink="http://www.w3.org/1999/xlink">
    <defs>
        <rect id="path-1" x="204" y="24.360475" width="253" height="236" rx="2.23999996"></rect>
        <filter x="-1.5%" y="-1.2%" width="103.0%" height="103.2%" filterUnits="objectBoundingBox" id="filter-2">
            <feMorphology radius="0.279999995" operator="dilate" in="SourceAlpha" result="shadowSpreadOuter1"></feMorphology>
            <feOffset dx="0" dy="1" in="shadowSpreadOuter1" result="shadowOffsetOuter1"></feOffset>
            <feGaussianBlur stdDeviation="1" in="shadowOffsetOuter1" result="shadowBlurOuter1"></feGaussianBlur>
            <feComposite in="shadowBlurOuter1" in2="SourceAlpha" operator="out" result="shadowBlurOuter1"></feComposite>
            <feColorMatrix values="0 0 0 0 0   0 0 0 0 0   0 0 0 0 0  0 0 0 0.5 0" type="matrix" in="shadowBlurOuter1"></feColorMatrix>
        </filter>
        <path d="M1.875,4.875 C2.08125,4.875 2.248875,5.0415 2.25,5.248125 L2.25,5.248125 L2.254875,6.214875 L3.484875,4.984875 C3.6315,4.83825 3.8685,4.83825 4.015125,4.984875 C4.16175,5.1315 4.16175,5.3685 4.015125,5.515125 L4.015125,5.515125 L2.780625,6.749625 L3.75,6.75 C3.957375,6.75 4.125,6.918 4.125,7.125375 C4.124625,7.332375 3.957,7.5 3.75,7.5 L3.75,7.5 L3.749625,7.5 L1.884,7.498875 C1.67775,7.498875 1.5105,7.332 1.509375,7.12575 L1.509375,7.12575 L1.49999436,5.251875 C1.498875,5.044875 1.666125,4.876125 1.873125,4.875 L1.873125,4.875 Z M5.251725,1.50015 L7.1256,1.509525 C7.33185,1.51065 7.498725,1.6779 7.498725,1.88415 L7.498725,1.88415 L7.49985063,3.749775 C7.500225,3.956775 7.332225,4.12515 7.125225,4.12515 L7.125225,4.12515 C6.91785,4.12515 6.750225,3.95715 6.74985,3.750525 L6.74985,3.750525 L6.7491,2.78115 L5.514975,4.015275 C5.44185,4.0884 5.34585,4.12515 5.24985,4.12515 C5.154225,4.12515 5.058225,4.0884 4.984725,4.015275 C4.838475,3.86865 4.838475,3.631275 4.984725,3.485025 L4.984725,3.485025 L6.214725,2.255025 L5.24835,2.25015 C5.040975,2.249025 4.873725,2.0799 4.87484436,1.873275 C4.875975,1.66665 5.043975,1.50015 5.24985,1.50015 L5.24985,1.50015 L5.251725,1.50015 Z" id="path-3"></path>
        <rect id="path-5" x="74" y="102.360475" width="174" height="201" rx="4"></rect>
        <filter x="-2.2%" y="-1.4%" width="104.5%" height="103.9%" filterUnits="objectBoundingBox" id="filter-6">
            <feMorphology radius="0.4" operator="dilate" in="SourceAlpha" result="shadowSpreadOuter1"></feMorphology>
            <feOffset dx="0" dy="1" in="shadowSpreadOuter1" result="shadowOffsetOuter1"></feOffset>
            <feGaussianBlur stdDeviation="1" in="shadowOffsetOuter1" result="shadowBlurOuter1"></feGaussianBlur>
            <feComposite in="shadowBlurOuter1" in2="SourceAlpha" operator="out" result="shadowBlurOuter1"></feComposite>
            <feColorMatrix values="0 0 0 0 0   0 0 0 0 0   0 0 0 0 0  0 0 0 0.5 0" type="matrix" in="shadowBlurOuter1"></feColorMatrix>
        </filter>
        <polygon id="path-7" points="3.64000006 5.32000003 7 8.67999997 10.3599999 5.32000003"></polygon>
    </defs>
    <g id="Product-Management-" stroke="none" stroke-width="1" fill="none" fill-rule="evenodd">
        <path d="M354.092422,0 C277.320194,0.225455336 226.647541,58.1541543 178.509445,73.2299427 C106.323904,95.8359393 37.0596883,72.0862693 7.29817054,154.738195 C2.30105814,168.615996 0.019544079,182.984675 0,197.26727 L0,197.653619 C0.065832687,242.298899 22.1856155,286.072077 52.4470502,311.439902 C68.2283797,324.670031 89.2557514,329.990777 111.88368,330 L112.01226,330 C146.865524,329.983603 185.499025,317.384749 214.647476,301.685884 C271.097977,271.280158 309.671817,283.797028 348.466813,294.710091 C416.799085,313.932208 505.410911,247.762092 499.741071,153.048305 C494.296502,62.0811763 452.541091,10.9786501 373.867944,1.20618605 C367.407083,0.403770011 361.112861,0.0184463457 354.994536,0 L354.092422,0 Z" id="Fill-1-Copy" fill="#F2F7FF"></path>
        <g id="Rectangle">
            <use fill="black" fill-opacity="1" filter="url(#filter-2)" xlink:href="#path-1"></use>
            <use stroke="#E9EBF0" stroke-width="0.55999999" fill="#FFFFFF" xlink:href="#path-1"></use>
        </g>
        <path d="M206,24.360475 L455,24.360475 C456.104569,24.360475 457,25.2559055 457,26.360475 L457,26.360475 L457,26.360475 L204,26.360475 C204,25.2559055 204.895431,24.360475 206,24.360475 Z" id="Rectangle-7-Copy-6" fill="#29CC96"></path>
        <g id="verification/button/trusted/active" transform="translate(212.000000, 32.360475)">
            <g id="verification-icon-trusted-copy-12">
                <g id="Group-15" fill="#F2FFFB" stroke="#29CC96" stroke-width="0.55999999">
                    <rect id="Rectangle-3" x="0.279999995" y="0.279999995" width="13.44" height="13.44" rx="2.23999996"></rect>
                </g>
                <path d="M10.0397886,3.98728692 C8.54646028,5.57376393 7.18641334,7.13903708 5.73502999,8.70177987 L3.89893716,7.14531496 C3.77385447,7.03896581 3.61396214,6.99016973 3.45465586,7.0089377 C3.29534958,7.02770567 3.14962217,7.11278531 3.04931375,7.24541505 C2.84044988,7.52192988 2.8829235,7.92542757 3.14371635,8.14625828 L5.40937877,10.0680572 C5.65070203,10.2726166 5.99938748,10.2513487 6.21652857,10.0180103 C7.8402533,8.29271537 9.29994408,6.59160306 10.8988976,4.8932133 C11.0794407,4.70867257 11.1331369,4.42527129 11.0346017,4.18067434 C10.9360695,3.93607739 10.7053707,3.78154874 10.4552114,3.7921827 C10.2982101,3.7971009 10.1489482,3.86716649 10.0397886,3.98728692 Z" id="Fill-1" fill="#29CC96"></path>
            </g>
        </g>
        <g id="close" transform="translate(442.000000, 35.360475)" fill="#B8BFCC">
            <path d="M5.02875,4.5 L6.64125,2.89125 C6.78829581,2.74420419 6.78829581,2.50579581 6.64125,2.35875 C6.49420419,2.21170419 6.25579581,2.21170419 6.10875,2.35875 L4.5,3.97125 L2.89125,2.35875 C2.74420418,2.21170419 2.50579582,2.21170419 2.35875,2.35875 C2.21170419,2.50579582 2.21170419,2.74420418 2.35875,2.89125 L3.97125,4.5 L2.35875,6.10875 C2.28775776,6.17916247 2.24782563,6.27501092 2.24782563,6.375 C2.24782563,6.47498908 2.28775776,6.57083753 2.35875,6.64125 C2.42916247,6.71224224 2.52501092,6.75217437 2.625,6.75217437 C2.72498908,6.75217437 2.82083753,6.71224224 2.89125,6.64125 L4.5,5.02875 L6.10875,6.64125 C6.17916247,6.71224224 6.27501092,6.75217437 6.375,6.75217437 C6.47498908,6.75217437 6.57083753,6.71224224 6.64125,6.64125 C6.71224224,6.57083753 6.75217437,6.47498908 6.75217437,6.375 C6.75217437,6.27501092 6.71224224,6.17916247 6.64125,6.10875 L5.02875,4.5 Z" id="-Icon-小olor"></path>
        </g>
        <g id="expand-window" transform="translate(429.000000, 35.360475)">
            <mask id="mask-4" fill="white">
                <use xlink:href="#path-3"></use>
            </mask>
            <use id="-Icon-小olor" fill="#B8BFCC" fill-rule="evenodd" xlink:href="#path-3"></use>
        </g>
        <path d="M421,31.360475 L421,45.360475 L421,31.360475 Z" id="Path-2" stroke="#B8BFCC" stroke-width="0.55999999"></path>
        <g id="globe" transform="translate(406.000000, 35.360475)" fill="#B8BFCC">
            <path d="M8.25,4.5 C8.25,3.50543816 7.85491185,2.55161099 7.15165043,1.84834957 C6.44838901,1.14508815 5.49456184,0.75 4.5,0.75 C2.42893219,0.75 0.75,2.42893219 0.75,4.5 C0.75,6.57106781 2.42893219,8.25 4.5,8.25 C6.57106781,8.25 8.25,6.57106781 8.25,4.5 Z M7.47375,4.125 L6.375,4.125 C6.31315234,3.24305352 6.0109749,2.39488165 5.50125,1.6725 C6.56921252,2.0517964 7.33227495,3.00054701 7.47375,4.125 Z M3.405,4.875 L5.625,4.875 C5.52903112,5.80146887 5.13414427,6.67153623 4.5,7.35375 C3.86627643,6.67438658 3.48044693,5.80098487 3.405,4.875 L3.405,4.875 Z M3.405,4.125 C3.49233211,3.20318507 3.87659587,2.33464367 4.5,1.65 C5.13926682,2.32729603 5.5350483,3.19801528 5.625,4.125 L3.405,4.125 Z M3.54,1.66125 C3.0275811,2.3876335 2.72055012,3.23877 2.65125,4.125 L1.52625,4.125 C1.67078837,2.98608776 2.45262785,2.02953554 3.54,1.66125 Z M1.52625,4.875 L2.65125,4.875 C2.71300924,5.76047499 3.0179548,6.6117273 3.5325,7.335 C2.44916128,6.96495666 1.67085708,6.01062478 1.52625,4.875 Z M5.4825,7.33125 C5.99565302,6.60775325 6.30399818,5.75915627 6.375,4.875 L7.48125,4.875 C7.33658452,6.00734451 6.56180804,6.95946195 5.4825,7.33125 L5.4825,7.33125 Z" id="-Icon-小olor"></path>
        </g>
        <path d="M204,235.360475 L457,235.360475 L457,258.120475 C457,259.357593 455.997118,260.360475 454.76,260.360475 L206.24,260.360475 C205.002882,260.360475 204,259.357593 204,258.120475 L204,235.360475 L204,235.360475 Z" id="Rectangle" stroke="#F2F3F5" stroke-width="0.55999999" fill="#F2F3F5"></path>
        <g id="icon-resize" transform="translate(206.000000, 250.360475)" fill="#8F9CB3">
            <path d="M5.69599992,6.71999989 L4.77866659,6.71999989 L6.71999989,4.77866659 L6.71999989,5.69599992 L5.69599992,6.71999989 Z M3.30666661,6.71999989 L2.38933329,6.71999989 L6.71999989,2.38933329 L6.71999989,3.30666661 L3.30666661,6.71999989 Z M0.917333316,6.71999989 L0,6.71999989 L6.71999989,0 L6.71999989,0.917333316 L0.917333316,6.71999989 Z" id="Shape" transform="translate(3.360000, 3.360000) rotate(90.000000) translate(-3.360000, -3.360000) "></path>
        </g>
        <g id="tag" transform="translate(220.000000, 242.360475)" fill="#B8BFCC">
            <path d="M4.67506187,9.625 C4.56946319,9.625 4.46386451,9.584575 4.38342802,9.5041375 L1.49596411,6.6166375 C1.33467863,6.45535 1.33467863,6.19465 1.49596411,6.0333625 L6.03340739,1.4958625 C6.11054393,1.4183125 6.21531762,1.375 6.32504125,1.375 L9.21250516,1.375 C9.4406148,1.375 9.625,1.5593875 9.625,1.7875 L9.625,4.675 C9.625,4.784725 9.58168804,4.8895 9.50413901,4.9666375 L4.96669573,9.5041375 C4.88625923,9.584575 4.78066055,9.625 4.67506187,9.625 Z M8.80001031,4.504225 L8.80001031,2.2 L6.49581411,2.2 L2.37086568,6.325 L4.67506187,8.629225 L8.80001031,4.504225 Z M7.54251057,2.75748349 C7.73581794,2.56417396 8.04923079,2.56417396 8.24253791,2.75748349 C8.43584503,2.95079328 8.43584503,3.26421005 8.24253791,3.45751958 C8.04923055,3.65082912 7.73581769,3.65082912 7.54251057,3.45751958 C7.34920345,3.2642098 7.34920345,2.95079303 7.54251057,2.75748349 L7.54251057,2.75748349 Z" id="-Icon-小olor"></path>
        </g>
        <rect id="Rectangle-12-[4-8]" fill="#FFFFFF" x="241" y="241.360475" width="51" height="11" rx="5.5"></rect>
        <path d="M235.6704,82.360475 L235.6704,79.518875 L238.944,79.518875 L238.944,78.674075 L235.6704,78.674075 L235.6704,76.802075 L239.0112,76.802075 L239.0112,75.957275 L234.7104,75.957275 L234.7104,82.360475 L235.6704,82.360475 Z M242.1408,82.475675 C242.8896,82.475675 243.5424,82.235675 244.0032,81.784475 L243.6,81.218075 C243.2544,81.573275 242.7168,81.765275 242.2272,81.765275 C241.296,81.765275 240.72,81.112475 240.6528,80.325275 L244.32,80.325275 L244.32,80.114075 C244.32,78.693275 243.456,77.608475 242.064,77.608475 C240.7104,77.608475 239.7408,78.693275 239.7408,80.037275 C239.7408,81.496475 240.7584,82.475675 242.1408,82.475675 Z M243.4752,79.701275 L240.6432,79.701275 C240.6912,79.067675 241.1328,78.318875 242.064,78.318875 C243.0432,78.318875 243.456,79.086875 243.4752,79.701275 Z M246.7488,82.475675 C247.3728,82.475675 247.9008,82.254875 248.2656,81.851675 L248.2656,82.360475 L249.1296,82.360475 L249.1296,79.230875 C249.1296,78.050075 248.2752,77.608475 247.2672,77.608475 C246.5184,77.608475 245.8848,77.858075 245.3664,78.366875 L245.7408,78.962075 C246.1536,78.549275 246.6048,78.347675 247.1328,78.347675 C247.7952,78.347675 248.2656,78.693275 248.2656,79.269275 L248.2656,80.037275 C247.9104,79.624475 247.3728,79.422875 246.7488,79.422875 C245.9712,79.422875 245.136,79.883675 245.136,80.939675 C245.136,81.957275 245.9808,82.475675 246.7488,82.475675 Z M247.0752,81.870875 C246.4512,81.870875 246.0096,81.496475 246.0096,80.949275 C246.0096,80.402075 246.4512,80.027675 247.0752,80.027675 C247.5552,80.027675 248.0064,80.210075 248.2656,80.555675 L248.2656,81.342875 C248.0064,81.688475 247.5552,81.870875 247.0752,81.870875 Z M251.7888,82.475675 C252.24,82.475675 252.5088,82.350875 252.6912,82.178075 L252.4704,81.525275 C252.384,81.621275 252.2016,81.707675 252,81.707675 C251.7024,81.707675 251.5488,81.467675 251.5488,81.141275 L251.5488,78.482075 L252.4896,78.482075 L252.4896,77.723675 L251.5488,77.723675 L251.5488,76.456475 L250.6848,76.456475 L250.6848,77.723675 L249.9168,77.723675 L249.9168,78.482075 L250.6848,78.482075 L250.6848,81.333275 C250.6848,82.062875 251.0592,82.475675 251.7888,82.475675 Z M254.928,82.475675 C255.6384,82.475675 256.224,82.110875 256.5792,81.726875 L256.5792,82.360475 L257.4432,82.360475 L257.4432,77.723675 L256.5792,77.723675 L256.5792,81.054875 C256.32,81.400475 255.8304,81.707675 255.2928,81.707675 C254.6976,81.707675 254.3136,81.477275 254.3136,80.709275 L254.3136,77.723675 L253.4496,77.723675 L253.4496,80.997275 C253.4496,81.976475 253.9392,82.475675 254.928,82.475675 Z M259.68,82.360475 L259.68,79.134875 C259.8816,78.789275 260.4672,78.462875 260.8992,78.462875 C261.0144,78.462875 261.1104,78.472475 261.1968,78.491675 L261.1968,77.618075 C260.5824,77.618075 260.0352,77.973275 259.68,78.434075 L259.68,77.723675 L258.816,77.723675 L258.816,82.360475 L259.68,82.360475 Z M264.1728,82.475675 C264.9216,82.475675 265.5744,82.235675 266.0352,81.784475 L265.632,81.218075 C265.2864,81.573275 264.7488,81.765275 264.2592,81.765275 C263.328,81.765275 262.752,81.112475 262.6848,80.325275 L266.352,80.325275 L266.352,80.114075 C266.352,78.693275 265.488,77.608475 264.096,77.608475 C262.7424,77.608475 261.7728,78.693275 261.7728,80.037275 C261.7728,81.496475 262.7904,82.475675 264.1728,82.475675 Z M265.5072,79.701275 L262.6752,79.701275 C262.7232,79.067675 263.1648,78.318875 264.096,78.318875 C265.0752,78.318875 265.488,79.086875 265.5072,79.701275 Z M273.0144,82.360475 C274.1952,82.360475 274.8672,81.640475 274.8672,80.632475 C274.8672,79.854875 274.3104,79.163675 273.6288,79.058075 C274.2144,78.933275 274.7424,78.395675 274.7424,77.589275 C274.7424,76.658075 274.08,75.957275 272.9376,75.957275 L269.9328,75.957275 L269.9328,82.360475 L273.0144,82.360475 Z M272.7552,78.674075 L270.8928,78.674075 L270.8928,76.802075 L272.7552,76.802075 C273.3984,76.802075 273.7536,77.214875 273.7536,77.742875 C273.7536,78.270875 273.3984,78.674075 272.7552,78.674075 Z M272.8032,81.515675 L270.8928,81.515675 L270.8928,79.518875 L272.8032,79.518875 C273.5136,79.518875 273.8784,79.979675 273.8784,80.507675 C273.8784,81.131675 273.4752,81.515675 272.8032,81.515675 Z M276.9024,82.360475 L276.9024,79.134875 C277.104,78.789275 277.6896,78.462875 278.1216,78.462875 C278.2368,78.462875 278.3328,78.472475 278.4192,78.491675 L278.4192,77.618075 C277.8048,77.618075 277.2576,77.973275 276.9024,78.434075 L276.9024,77.723675 L276.0384,77.723675 L276.0384,82.360475 L276.9024,82.360475 Z M281.3952,82.475675 C282.144,82.475675 282.7968,82.235675 283.2576,81.784475 L282.8544,81.218075 C282.5088,81.573275 281.9712,81.765275 281.4816,81.765275 C280.5504,81.765275 279.9744,81.112475 279.9072,80.325275 L283.5744,80.325275 L283.5744,80.114075 C283.5744,78.693275 282.7104,77.608475 281.3184,77.608475 C279.9648,77.608475 278.9952,78.693275 278.9952,80.037275 C278.9952,81.496475 280.0128,82.475675 281.3952,82.475675 Z M282.7296,79.701275 L279.8976,79.701275 C279.9456,79.067675 280.3872,78.318875 281.3184,78.318875 C282.2976,78.318875 282.7104,79.086875 282.7296,79.701275 Z M286.0032,82.475675 C286.6272,82.475675 287.1552,82.254875 287.52,81.851675 L287.52,82.360475 L288.384,82.360475 L288.384,79.230875 C288.384,78.050075 287.5296,77.608475 286.5216,77.608475 C285.7728,77.608475 285.1392,77.858075 284.6208,78.366875 L284.9952,78.962075 C285.408,78.549275 285.8592,78.347675 286.3872,78.347675 C287.0496,78.347675 287.52,78.693275 287.52,79.269275 L287.52,80.037275 C287.1648,79.624475 286.6272,79.422875 286.0032,79.422875 C285.2256,79.422875 284.3904,79.883675 284.3904,80.939675 C284.3904,81.957275 285.2352,82.475675 286.0032,82.475675 Z M286.3296,81.870875 C285.7056,81.870875 285.264,81.496475 285.264,80.949275 C285.264,80.402075 285.7056,80.027675 286.3296,80.027675 C286.8096,80.027675 287.2608,80.210075 287.52,80.555675 L287.52,81.342875 C287.2608,81.688475 286.8096,81.870875 286.3296,81.870875 Z M290.6304,82.360475 L290.6304,81.074075 L291.3312,80.363675 L292.8768,82.360475 L293.9712,82.360475 L291.9552,79.826075 L293.952,77.723675 L292.8672,77.723675 L290.6304,80.075675 L290.6304,75.957275 L289.7664,75.957275 L289.7664,82.360475 L290.6304,82.360475 Z M296.544,82.475675 C297.1584,82.475675 297.7152,82.158875 298.0608,81.698075 L298.0608,82.360475 L298.9248,82.360475 L298.9248,75.957275 L298.0608,75.957275 L298.0608,78.395675 C297.6864,77.896475 297.1392,77.608475 296.544,77.608475 C295.3344,77.608475 294.4704,78.558875 294.4704,80.046875 C294.4704,81.563675 295.3344,82.475675 296.544,82.475675 Z M296.7744,81.707675 C295.9104,81.707675 295.3728,81.006875 295.3728,80.046875 C295.3728,79.077275 295.9104,78.376475 296.7744,78.376475 C297.3024,78.376475 297.8208,78.683675 298.0608,79.058075 L298.0608,81.035675 C297.8208,81.410075 297.3024,81.707675 296.7744,81.707675 Z M302.3616,82.475675 C303.8112,82.475675 304.704,81.381275 304.704,80.037275 C304.704,78.702875 303.8112,77.608475 302.3616,77.608475 C300.9216,77.608475 300.0192,78.702875 300.0192,80.037275 C300.0192,81.381275 300.9216,82.475675 302.3616,82.475675 Z M302.3616,81.707675 C301.44,81.707675 300.9216,80.920475 300.9216,80.037275 C300.9216,79.163675 301.44,78.376475 302.3616,78.376475 C303.2928,78.376475 303.8016,79.163675 303.8016,80.037275 C303.8016,80.920475 303.2928,81.707675 302.3616,81.707675 Z M307.536,82.360475 L308.6784,78.798875 L309.8208,82.360475 L310.7136,82.360475 L312.1728,77.723675 L311.2704,77.723675 L310.2144,81.256475 L309.0528,77.723675 L308.304,77.723675 L307.1424,81.256475 L306.0864,77.723675 L305.184,77.723675 L306.6432,82.360475 L307.536,82.360475 Z M313.8048,82.360475 L313.8048,79.048475 C314.0544,78.702875 314.544,78.376475 315.0816,78.376475 C315.6768,78.376475 316.0704,78.626075 316.0704,79.394075 L316.0704,82.360475 L316.9344,82.360475 L316.9344,79.106075 C316.9344,78.126875 316.4256,77.608475 315.4464,77.608475 C314.7264,77.608475 314.112,78.002075 313.8048,78.376475 L313.8048,77.723675 L312.9408,77.723675 L312.9408,82.360475 L313.8048,82.360475 Z" id="FeatureBreakdown" fill="#1F3966" fill-rule="nonzero"></path>
        <path d="M235.5456,43.360475 L235.5456,40.816475 L237.3216,40.816475 C238.5888,40.816475 239.328,39.933275 239.328,38.886875 C239.328,37.840475 238.608,36.957275 237.3216,36.957275 L234.7488,36.957275 L234.7488,43.360475 L235.5456,43.360475 Z M237.2256,40.106075 L235.5456,40.106075 L235.5456,37.667675 L237.2256,37.667675 C237.984,37.667675 238.5024,38.166875 238.5024,38.886875 C238.5024,39.606875 237.984,40.106075 237.2256,40.106075 Z M241.0752,43.360475 L241.0752,40.077275 C241.2864,39.702875 241.8912,39.338075 242.3328,39.338075 C242.448,39.338075 242.5344,39.347675 242.6208,39.366875 L242.6208,38.627675 C241.9872,38.627675 241.4496,38.982875 241.0752,39.472475 L241.0752,38.723675 L240.3552,38.723675 L240.3552,43.360475 L241.0752,43.360475 Z M245.5488,43.475675 C246.96,43.475675 247.8432,42.381275 247.8432,41.037275 C247.8432,39.693275 246.96,38.608475 245.5488,38.608475 C244.1376,38.608475 243.2544,39.693275 243.2544,41.037275 C243.2544,42.381275 244.1376,43.475675 245.5488,43.475675 Z M245.5488,42.832475 C244.56,42.832475 244.0032,41.987675 244.0032,41.037275 C244.0032,40.096475 244.56,39.251675 245.5488,39.251675 C246.5376,39.251675 247.0848,40.096475 247.0848,41.037275 C247.0848,41.987675 246.5376,42.832475 245.5488,42.832475 Z M250.8096,43.475675 C251.4624,43.475675 252.0288,43.139675 252.3744,42.669275 L252.3744,43.360475 L253.0944,43.360475 L253.0944,36.957275 L252.3744,36.957275 L252.3744,39.424475 C252,38.915675 251.4336,38.608475 250.8096,38.608475 C249.5904,38.608475 248.7456,39.568475 248.7456,41.046875 C248.7456,42.554075 249.6,43.475675 250.8096,43.475675 Z M250.9824,42.832475 C250.0512,42.832475 249.4944,42.074075 249.4944,41.046875 C249.4944,40.019675 250.0512,39.251675 250.9824,39.251675 C251.5584,39.251675 252.1152,39.597275 252.3744,40.000475 L252.3744,42.102875 C252.1152,42.506075 251.5584,42.832475 250.9824,42.832475 Z M256.0128,43.475675 C256.704,43.475675 257.3088,43.110875 257.664,42.707675 L257.664,43.360475 L258.384,43.360475 L258.384,38.723675 L257.664,38.723675 L257.664,42.131675 C257.3952,42.506075 256.8576,42.832475 256.2912,42.832475 C255.6672,42.832475 255.2544,42.592475 255.2544,41.776475 L255.2544,38.723675 L254.5344,38.723675 L254.5344,41.997275 C254.5344,43.005275 255.0432,43.475675 256.0128,43.475675 Z M261.8688,43.475675 C262.7136,43.475675 263.2128,43.130075 263.568,42.669275 L263.088,42.227675 C262.7808,42.640475 262.3872,42.832475 261.9072,42.832475 C260.9184,42.832475 260.304,42.064475 260.304,41.037275 C260.304,40.010075 260.9184,39.251675 261.9072,39.251675 C262.3872,39.251675 262.7808,39.434075 263.088,39.856475 L263.568,39.414875 C263.2128,38.954075 262.7136,38.608475 261.8688,38.608475 C260.4864,38.608475 259.5552,39.664475 259.5552,41.037275 C259.5552,42.419675 260.4864,43.475675 261.8688,43.475675 Z M265.7472,43.475675 C266.1696,43.475675 266.4288,43.350875 266.6112,43.178075 L266.4,42.640475 C266.304,42.746075 266.112,42.832475 265.9104,42.832475 C265.5936,42.832475 265.44,42.582875 265.44,42.237275 L265.44,39.357275 L266.3808,39.357275 L266.3808,38.723675 L265.44,38.723675 L265.44,37.456475 L264.72,37.456475 L264.72,38.723675 L263.952,38.723675 L263.952,39.357275 L264.72,39.357275 L264.72,42.390875 C264.72,43.082075 265.0656,43.475675 265.7472,43.475675 Z M270.7008,43.360475 L270.7008,38.032475 L272.8704,43.360475 L273.1968,43.360475 L275.376,38.032475 L275.376,43.360475 L276.1728,43.360475 L276.1728,36.957275 L275.0304,36.957275 L273.0336,41.834075 L271.0464,36.957275 L269.904,36.957275 L269.904,43.360475 L270.7008,43.360475 Z M279.0048,43.475675 C279.6288,43.475675 280.1568,43.254875 280.5408,42.832475 L280.5408,43.360475 L281.2608,43.360475 L281.2608,40.173275 C281.2608,39.050075 280.4448,38.608475 279.4656,38.608475 C278.7072,38.608475 278.112,38.858075 277.6128,39.376475 L277.9488,39.875675 C278.3616,39.434075 278.8128,39.232475 279.3696,39.232475 C280.0416,39.232475 280.5408,39.587675 280.5408,40.211675 L280.5408,41.046875 C280.1664,40.614875 279.6384,40.413275 279.0048,40.413275 C278.2176,40.413275 277.3824,40.902875 277.3824,41.939675 C277.3824,42.947675 278.2176,43.475675 279.0048,43.475675 Z M279.264,42.957275 C278.592,42.957275 278.1216,42.534875 278.1216,41.949275 C278.1216,41.354075 278.592,40.931675 279.264,40.931675 C279.7728,40.931675 280.2624,41.123675 280.5408,41.507675 L280.5408,42.381275 C280.2624,42.765275 279.7728,42.957275 279.264,42.957275 Z M283.4208,43.360475 L283.4208,39.971675 C283.6896,39.597275 284.2272,39.251675 284.7936,39.251675 C285.4176,39.251675 285.8304,39.510875 285.8304,40.326875 L285.8304,43.360475 L286.5504,43.360475 L286.5504,40.106075 C286.5504,39.098075 286.0416,38.608475 285.072,38.608475 C284.3808,38.608475 283.7472,39.011675 283.4208,39.395675 L283.4208,38.723675 L282.7008,38.723675 L282.7008,43.360475 L283.4208,43.360475 Z M289.3536,43.475675 C289.9776,43.475675 290.5056,43.254875 290.8896,42.832475 L290.8896,43.360475 L291.6096,43.360475 L291.6096,40.173275 C291.6096,39.050075 290.7936,38.608475 289.8144,38.608475 C289.056,38.608475 288.4608,38.858075 287.9616,39.376475 L288.2976,39.875675 C288.7104,39.434075 289.1616,39.232475 289.7184,39.232475 C290.3904,39.232475 290.8896,39.587675 290.8896,40.211675 L290.8896,41.046875 C290.5152,40.614875 289.9872,40.413275 289.3536,40.413275 C288.5664,40.413275 287.7312,40.902875 287.7312,41.939675 C287.7312,42.947675 288.5664,43.475675 289.3536,43.475675 Z M289.6128,42.957275 C288.9408,42.957275 288.4704,42.534875 288.4704,41.949275 C288.4704,41.354075 288.9408,40.931675 289.6128,40.931675 C290.1216,40.931675 290.6112,41.123675 290.8896,41.507675 L290.8896,42.381275 C290.6112,42.765275 290.1216,42.957275 289.6128,42.957275 Z M294.912,45.242075 C296.0448,45.242075 297.12,44.762075 297.12,43.226075 L297.12,38.723675 L296.4,38.723675 L296.4,39.424475 C296.0256,38.915675 295.4688,38.608475 294.8448,38.608475 C293.6256,38.608475 292.7808,39.530075 292.7808,41.018075 C292.7808,42.515675 293.6352,43.418075 294.8448,43.418075 C295.4976,43.418075 296.064,43.062875 296.4,42.592475 L296.4,43.254875 C296.4,44.272475 295.68,44.646875 294.912,44.646875 C294.2496,44.646875 293.7888,44.474075 293.4048,44.013275 L293.04,44.550875 C293.5872,45.088475 294.1248,45.242075 294.912,45.242075 Z M295.0176,42.784475 C294.0864,42.784475 293.5296,42.035675 293.5296,41.018075 C293.5296,39.990875 294.0864,39.251675 295.0176,39.251675 C295.5936,39.251675 296.1504,39.597275 296.4,40.000475 L296.4,42.026075 C296.1504,42.429275 295.5936,42.784475 295.0176,42.784475 Z M300.6528,43.475675 C301.4112,43.475675 302.0352,43.226075 302.496,42.765275 L302.1504,42.294875 C301.7856,42.669275 301.248,42.880475 300.72,42.880475 C299.7216,42.880475 299.1072,42.150875 299.0496,41.277275 L302.8032,41.277275 L302.8032,41.094875 C302.8032,39.702875 301.9776,38.608475 300.576,38.608475 C299.2512,38.608475 298.2912,39.693275 298.2912,41.037275 C298.2912,42.486875 299.28,43.475675 300.6528,43.475675 Z M302.0928,40.749275 L299.0496,40.749275 C299.088,40.038875 299.5776,39.203675 300.5664,39.203675 C301.6224,39.203675 302.0832,40.058075 302.0928,40.749275 Z M304.6848,43.360475 L304.6848,39.971675 C304.9344,39.597275 305.4336,39.251675 305.904,39.251675 C306.5088,39.251675 306.7584,39.626075 306.7584,40.211675 L306.7584,43.360475 L307.4784,43.360475 L307.4784,39.962075 C307.7184,39.597275 308.2272,39.251675 308.7072,39.251675 C309.3024,39.251675 309.5616,39.626075 309.5616,40.211675 L309.5616,43.360475 L310.2816,43.360475 L310.2816,40.010075 C310.2816,39.078875 309.8304,38.608475 308.9856,38.608475 C308.3136,38.608475 307.6896,39.050075 307.4304,39.472475 C307.296,38.992475 306.8928,38.608475 306.1824,38.608475 C305.5008,38.608475 304.8768,39.098075 304.6848,39.395675 L304.6848,38.723675 L303.9648,38.723675 L303.9648,43.360475 L304.6848,43.360475 Z M313.8144,43.475675 C314.5728,43.475675 315.1968,43.226075 315.6576,42.765275 L315.312,42.294875 C314.9472,42.669275 314.4096,42.880475 313.8816,42.880475 C312.8832,42.880475 312.2688,42.150875 312.2112,41.277275 L315.9648,41.277275 L315.9648,41.094875 C315.9648,39.702875 315.1392,38.608475 313.7376,38.608475 C312.4128,38.608475 311.4528,39.693275 311.4528,41.037275 C311.4528,42.486875 312.4416,43.475675 313.8144,43.475675 Z M315.2544,40.749275 L312.2112,40.749275 C312.2496,40.038875 312.7392,39.203675 313.728,39.203675 C314.784,39.203675 315.2448,40.058075 315.2544,40.749275 Z M317.8464,43.360475 L317.8464,39.971675 C318.1152,39.597275 318.6528,39.251675 319.2192,39.251675 C319.8432,39.251675 320.256,39.510875 320.256,40.326875 L320.256,43.360475 L320.976,43.360475 L320.976,40.106075 C320.976,39.098075 320.4672,38.608475 319.4976,38.608475 C318.8064,38.608475 318.1728,39.011675 317.8464,39.395675 L317.8464,38.723675 L317.1264,38.723675 L317.1264,43.360475 L317.8464,43.360475 Z M323.5872,43.475675 C324.0096,43.475675 324.2688,43.350875 324.4512,43.178075 L324.24,42.640475 C324.144,42.746075 323.952,42.832475 323.7504,42.832475 C323.4336,42.832475 323.28,42.582875 323.28,42.237275 L323.28,39.357275 L324.2208,39.357275 L324.2208,38.723675 L323.28,38.723675 L323.28,37.456475 L322.56,37.456475 L322.56,38.723675 L321.792,38.723675 L321.792,39.357275 L322.56,39.357275 L322.56,42.390875 C322.56,43.082075 322.9056,43.475675 323.5872,43.475675 Z" id="ProductManagement" fill="#29CC96" fill-rule="nonzero"></path>
        <rect id="Rectangle" fill="#F2F3F5" x="234" y="95.360475" width="197" height="4"></rect>
        <rect id="Rectangle-Copy" fill="#F2F3F5" x="234" y="104.360475" width="197" height="4"></rect>
        <rect id="Rectangle-Copy-2" fill="#F2F3F5" x="234" y="113.360475" width="197" height="4"></rect>
        <rect id="Rectangle-Copy-3" fill="#F2F3F5" x="234" y="129.360475" width="177" height="88" rx="2.4"></rect>
        <line x1="204" y1="55.860475" x2="457" y2="55.860475" id="Line-Copy-53" stroke="#DADEE6" stroke-width="0.55999999"></line>
        <g id="Rectangle">
            <use fill="black" fill-opacity="1" filter="url(#filter-6)" xlink:href="#path-5"></use>
            <use stroke="#F2F3F5" stroke-width="0.8" fill="#FFFFFF" xlink:href="#path-5"></use>
        </g>
        <rect id="Rectangle-Copy-7" fill="#E9EBF0" x="81" y="214.360475" width="159.157895" height="34" rx="2.4"></rect>
        <g id="verification/dot/trusted/selected" transform="translate(88.578947, 222.860475)">
            <g id="Group" transform="translate(3.368421, 3.400000)">
                <rect id="Rectangle-3" stroke="#29CC96" stroke-width="0.8" fill="#29CC96" x="0" y="0" width="10.1052632" height="10.2" rx="4.8"></rect>
                <path d="M7.2467647,2.90502333 C6.16887359,4.06088515 5.18718557,5.20129844 4.13957052,6.33986819 L2.81427043,5.20587232 C2.72398518,5.12838938 2.60857417,5.09283795 2.49358618,5.10651175 C2.37859819,5.12018556 2.27341149,5.18217215 2.20100842,5.2788024 C2.05024954,5.4802632 2.08090719,5.77424009 2.26914864,5.93513103 L3.904514,7.33529878 C4.07870222,7.48433497 4.33038495,7.46883978 4.48711836,7.29883608 C5.6591302,6.04183548 6.71274159,4.80245366 7.86687344,3.56505541 C7.99719026,3.4306043 8.03594841,3.22412623 7.96482528,3.04591988 C7.89370434,2.86771353 7.72718489,2.75512837 7.54661875,2.76287597 C7.43329447,2.76645923 7.3255566,2.81750701 7.2467647,2.90502333 Z" id="Fill-1" fill="#FFFFFF"></path>
            </g>
        </g>
        <path d="M115.3296,235 L115.3296,231.8864 L118.9472,231.8864 L118.9472,230.52 L115.3296,230.52 L115.3296,228.896 L119.0256,228.896 L119.0256,227.5296 L113.7392,227.5296 L113.7392,235 L115.3296,235 Z M122.6432,235.1344 C123.4832,235.1344 124.3344,234.8768 124.872,234.384 L124.2448,233.4656 C123.8976,233.8016 123.304,234.0032 122.8,234.0032 C121.8816,234.0032 121.3328,233.432 121.2432,232.7488 L125.264,232.7488 L125.264,232.4352 C125.264,230.6656 124.1664,229.456 122.5536,229.456 C120.9072,229.456 119.7536,230.7216 119.7536,232.2896 C119.7536,234.0256 120.9968,235.1344 122.6432,235.1344 Z M123.8864,231.7856 L121.2208,231.7856 C121.288,231.248 121.6688,230.5872 122.5536,230.5872 C123.4944,230.5872 123.8528,231.2704 123.8864,231.7856 Z M127.8288,235.1344 C128.5344,235.1344 129.1728,234.8768 129.5424,234.44 L129.5424,235 L130.9648,235 L130.9648,231.5056 C130.9648,229.9488 129.8336,229.456 128.6016,229.456 C127.7504,229.456 126.8992,229.7248 126.2384,230.3072 L126.776,231.2592 C127.2352,230.8336 127.7728,230.6208 128.3552,230.6208 C129.072,230.6208 129.5424,230.9792 129.5424,231.528 L129.5424,232.2784 C129.184,231.8416 128.5456,231.6176 127.8288,231.6176 C126.9664,231.6176 125.9472,232.0768 125.9472,233.3424 C125.9472,234.552 126.9664,235.1344 127.8288,235.1344 Z M128.4,234.1712 C127.84,234.1712 127.3808,233.88 127.3808,233.376 C127.3808,232.8496 127.84,232.5584 128.4,232.5584 C128.8592,232.5584 129.3072,232.7152 129.5424,233.0288 L129.5424,233.7008 C129.3072,234.0144 128.8592,234.1712 128.4,234.1712 Z M134.1904,235.1344 C134.784,235.1344 135.1648,234.9776 135.3776,234.7872 L135.0752,233.712 C134.9968,233.7904 134.7952,233.8688 134.5824,233.8688 C134.2688,233.8688 134.0896,233.6112 134.0896,233.2752 L134.0896,230.8336 L135.1872,230.8336 L135.1872,229.5904 L134.0896,229.5904 L134.0896,228.112 L132.656,228.112 L132.656,229.5904 L131.76,229.5904 L131.76,230.8336 L132.656,230.8336 L132.656,233.656 C132.656,234.6192 133.1936,235.1344 134.1904,235.1344 Z M137.9088,235.1344 C138.7936,235.1344 139.4432,234.7312 139.8128,234.3168 L139.8128,235 L141.2352,235 L141.2352,229.5904 L139.8128,229.5904 L139.8128,233.2528 C139.5664,233.5664 139.1296,233.8688 138.5808,233.8688 C137.976,233.8688 137.584,233.6224 137.584,232.872 L137.584,229.5904 L136.1616,229.5904 L136.1616,233.432 C136.1616,234.4848 136.7216,235.1344 137.9088,235.1344 Z M144.0688,235 L144.0688,231.4272 C144.304,231.08 144.9312,230.8112 145.4016,230.8112 C145.5584,230.8112 145.6928,230.8336 145.7936,230.856 L145.7936,229.4672 C145.1216,229.4672 144.4496,229.848 144.0688,230.3296 L144.0688,229.5904 L142.6464,229.5904 L142.6464,235 L144.0688,235 Z M149.2208,235.1344 C150.0608,235.1344 150.912,234.8768 151.4496,234.384 L150.8224,233.4656 C150.4752,233.8016 149.8816,234.0032 149.3776,234.0032 C148.4592,234.0032 147.9104,233.432 147.8208,232.7488 L151.8416,232.7488 L151.8416,232.4352 C151.8416,230.6656 150.744,229.456 149.1312,229.456 C147.4848,229.456 146.3312,230.7216 146.3312,232.2896 C146.3312,234.0256 147.5744,235.1344 149.2208,235.1344 Z M150.464,231.7856 L147.7984,231.7856 C147.8656,231.248 148.2464,230.5872 149.1312,230.5872 C150.072,230.5872 150.4304,231.2704 150.464,231.7856 Z M159.8272,235 C161.2496,235 162,234.104 162,232.984 C162,232.0432 161.3616,231.2704 160.5664,231.1472 C161.272,231.0016 161.8544,230.3744 161.8544,229.4336 C161.8544,228.4368 161.1264,227.5296 159.704,227.5296 L155.7728,227.5296 L155.7728,235 L159.8272,235 Z M159.3568,230.5312 L157.3632,230.5312 L157.3632,228.8848 L159.3568,228.8848 C159.8944,228.8848 160.2304,229.2432 160.2304,229.7024 C160.2304,230.184 159.8944,230.5312 159.3568,230.5312 Z M159.4128,233.6448 L157.3632,233.6448 L157.3632,231.8864 L159.4128,231.8864 C160.04,231.8864 160.376,232.2896 160.376,232.76 C160.376,233.2976 160.0176,233.6448 159.4128,233.6448 Z M164.5872,235 L164.5872,231.4272 C164.8224,231.08 165.4496,230.8112 165.92,230.8112 C166.0768,230.8112 166.2112,230.8336 166.312,230.856 L166.312,229.4672 C165.64,229.4672 164.968,229.848 164.5872,230.3296 L164.5872,229.5904 L163.1648,229.5904 L163.1648,235 L164.5872,235 Z M169.7392,235.1344 C170.5792,235.1344 171.4304,234.8768 171.968,234.384 L171.3408,233.4656 C170.9936,233.8016 170.4,234.0032 169.896,234.0032 C168.9776,234.0032 168.4288,233.432 168.3392,232.7488 L172.36,232.7488 L172.36,232.4352 C172.36,230.6656 171.2624,229.456 169.6496,229.456 C168.0032,229.456 166.8496,230.7216 166.8496,232.2896 C166.8496,234.0256 168.0928,235.1344 169.7392,235.1344 Z M170.9824,231.7856 L168.3168,231.7856 C168.384,231.248 168.7648,230.5872 169.6496,230.5872 C170.5904,230.5872 170.9488,231.2704 170.9824,231.7856 Z M174.9248,235.1344 C175.6304,235.1344 176.2688,234.8768 176.6384,234.44 L176.6384,235 L178.0608,235 L178.0608,231.5056 C178.0608,229.9488 176.9296,229.456 175.6976,229.456 C174.8464,229.456 173.9952,229.7248 173.3344,230.3072 L173.872,231.2592 C174.3312,230.8336 174.8688,230.6208 175.4512,230.6208 C176.168,230.6208 176.6384,230.9792 176.6384,231.528 L176.6384,232.2784 C176.28,231.8416 175.6416,231.6176 174.9248,231.6176 C174.0624,231.6176 173.0432,232.0768 173.0432,233.3424 C173.0432,234.552 174.0624,235.1344 174.9248,235.1344 Z M175.496,234.1712 C174.936,234.1712 174.4768,233.88 174.4768,233.376 C174.4768,232.8496 174.936,232.5584 175.496,232.5584 C175.9552,232.5584 176.4032,232.7152 176.6384,233.0288 L176.6384,233.7008 C176.4032,234.0144 175.9552,234.1712 175.496,234.1712 Z M180.8944,235 L180.8944,233.6112 L181.544,232.9168 L182.9776,235 L184.7584,235 L182.552,232.0432 L184.6912,229.5904 L182.944,229.5904 L180.8944,231.9984 L180.8944,227.5296 L179.472,227.5296 L179.472,235 L180.8944,235 Z M187.5136,235.1344 C188.1632,235.1344 188.7568,234.8432 189.1824,234.3056 L189.1824,235 L190.616,235 L190.616,227.5296 L189.1824,227.5296 L189.1824,230.2848 C188.7568,229.736 188.152,229.456 187.5136,229.456 C186.136,229.456 185.1168,230.5312 185.1168,232.3008 C185.1168,234.104 186.1472,235.1344 187.5136,235.1344 Z M187.9504,233.8688 C187.144,233.8688 186.584,233.2304 186.584,232.3008 C186.584,231.36 187.144,230.7216 187.9504,230.7216 C188.432,230.7216 188.9472,230.9792 189.1824,231.3376 L189.1824,233.2528 C188.9472,233.6112 188.432,233.8688 187.9504,233.8688 Z M194.536,235.1344 C196.328,235.1344 197.4032,233.8352 197.4032,232.2896 C197.4032,230.7552 196.328,229.456 194.536,229.456 C192.7552,229.456 191.68,230.7552 191.68,232.2896 C191.68,233.8352 192.7552,235.1344 194.536,235.1344 Z M194.536,233.8688 C193.6512,233.8688 193.1584,233.1408 193.1584,232.2896 C193.1584,231.4496 193.6512,230.7216 194.536,230.7216 C195.4208,230.7216 195.9248,231.4496 195.9248,232.2896 C195.9248,233.1408 195.4208,233.8688 194.536,233.8688 Z M200.92,235 L202.0624,231.3152 L203.2048,235 L204.7168,235 L206.3632,229.5904 L204.8848,229.5904 L203.8768,233.2304 L202.6896,229.5904 L201.424,229.5904 L200.2368,233.2304 L199.2288,229.5904 L197.7504,229.5904 L199.3968,235 L200.92,235 Z M208.4912,235 L208.4912,231.36 C208.7264,231.0352 209.1632,230.7216 209.7232,230.7216 C210.328,230.7216 210.72,230.9792 210.72,231.7296 L210.72,235 L212.1424,235 L212.1424,231.1808 C212.1424,230.128 211.5712,229.456 210.384,229.456 C209.4992,229.456 208.8384,229.8816 208.4912,230.296 L208.4912,229.5904 L207.0688,229.5904 L207.0688,235 L208.4912,235 Z" id="FeatureBreakdown" fill="#1F3966" fill-rule="nonzero"></path>
        <g id="verification/dot/trusted/active" transform="translate(89.000000, 152.360475)">
            <g id="Group" transform="translate(3.364948, 3.400000)">
                <rect id="Rectangle-3" stroke="#29CC96" stroke-width="0.8" fill="#F2FFFB" x="0" y="0" width="10.0948454" height="10.2" rx="4.8"></rect>
                <path d="M7.23929381,2.90502333 C6.16251392,4.06088515 5.18183795,5.20129844 4.13530292,6.33986819 L2.81136912,5.20587232 C2.72117695,5.12838938 2.60588492,5.09283795 2.49101548,5.10651175 C2.37614603,5.12018556 2.27106777,5.18217215 2.19873934,5.2788024 C2.04813588,5.4802632 2.07876192,5.77424009 2.26680931,5.93513103 L3.90048873,7.33529878 C4.07449737,7.48433497 4.32592063,7.46883978 4.48249247,7.29883608 C5.65329605,6.04183548 6.70582124,4.80245366 7.85876326,3.56505541 C7.98894573,3.4306043 8.02766393,3.22412623 7.95661412,3.04591988 C7.8855665,2.86771353 7.71921872,2.75512837 7.53883873,2.76287597 C7.42563128,2.76645923 7.31800448,2.81750701 7.23929381,2.90502333 Z" id="Fill-1" fill="#29CC96"></path>
            </g>
        </g>
        <path d="M117.047076,163.660475 L117.047076,157.018875 L119.421476,157.018875 L119.421476,156.190075 L113.754276,156.190075 L113.754276,157.018875 L116.117476,157.018875 L116.117476,163.660475 L117.047076,163.660475 Z M123.061476,163.794875 C123.946276,163.794875 124.674276,163.503675 125.211876,162.966075 L124.808676,162.417275 C124.383076,162.854075 123.755876,163.100475 123.139876,163.100475 C121.975076,163.100475 121.258276,162.249275 121.191076,161.230075 L125.570276,161.230075 L125.570276,161.017275 C125.570276,159.393275 124.607076,158.116475 122.971876,158.116475 C121.426276,158.116475 120.306276,159.382075 120.306276,160.950075 C120.306276,162.641275 121.459876,163.794875 123.061476,163.794875 Z M124.741476,160.614075 L121.191076,160.614075 C121.235876,159.785275 121.807076,158.810875 122.960676,158.810875 C124.192676,158.810875 124.730276,159.807675 124.741476,160.614075 Z M128.515876,163.794875 C129.243876,163.794875 129.859876,163.537275 130.307876,163.044475 L130.307876,163.660475 L131.147876,163.660475 L131.147876,159.942075 C131.147876,158.631675 130.195876,158.116475 129.053476,158.116475 C128.168676,158.116475 127.474276,158.407675 126.891876,159.012475 L127.283876,159.594875 C127.765476,159.079675 128.291876,158.844475 128.941476,158.844475 C129.725476,158.844475 130.307876,159.258875 130.307876,159.986875 L130.307876,160.961275 C129.871076,160.457275 129.255076,160.222075 128.515876,160.222075 C127.597476,160.222075 126.623076,160.793275 126.623076,162.002875 C126.623076,163.178875 127.597476,163.794875 128.515876,163.794875 Z M128.818276,163.190075 C128.034276,163.190075 127.485476,162.697275 127.485476,162.014075 C127.485476,161.319675 128.034276,160.826875 128.818276,160.826875 C129.411876,160.826875 129.983076,161.050875 130.307876,161.498875 L130.307876,162.518075 C129.983076,162.966075 129.411876,163.190075 128.818276,163.190075 Z M133.667876,163.660475 L133.667876,159.706875 C133.959076,159.270075 134.541476,158.866875 135.090276,158.866875 C135.795876,158.866875 136.087076,159.303675 136.087076,159.986875 L136.087076,163.660475 L136.927076,163.660475 L136.927076,159.695675 C137.207076,159.270075 137.800676,158.866875 138.360676,158.866875 C139.055076,158.866875 139.357476,159.303675 139.357476,159.986875 L139.357476,163.660475 L140.197476,163.660475 L140.197476,159.751675 C140.197476,158.665275 139.671076,158.116475 138.685476,158.116475 C137.901476,158.116475 137.173476,158.631675 136.871076,159.124475 C136.714276,158.564475 136.243876,158.116475 135.415076,158.116475 C134.619876,158.116475 133.891876,158.687675 133.667876,159.034875 L133.667876,158.250875 L132.827876,158.250875 L132.827876,163.660475 L133.667876,163.660475 Z M145.730276,163.660475 L145.730276,160.692475 L147.802276,160.692475 C149.280676,160.692475 150.143076,159.662075 150.143076,158.441275 C150.143076,157.220475 149.303076,156.190075 147.802276,156.190075 L144.800676,156.190075 L144.800676,163.660475 L145.730276,163.660475 Z M147.690276,159.863675 L145.730276,159.863675 L145.730276,157.018875 L147.690276,157.018875 C148.575076,157.018875 149.179876,157.601275 149.179876,158.441275 C149.179876,159.281275 148.575076,159.863675 147.690276,159.863675 Z M152.181476,163.660475 L152.181476,159.830075 C152.427876,159.393275 153.133476,158.967675 153.648676,158.967675 C153.783076,158.967675 153.883876,158.978875 153.984676,159.001275 L153.984676,158.138875 C153.245476,158.138875 152.618276,158.553275 152.181476,159.124475 L152.181476,158.250875 L151.341476,158.250875 L151.341476,163.660475 L152.181476,163.660475 Z M157.400676,163.794875 C159.047076,163.794875 160.077476,162.518075 160.077476,160.950075 C160.077476,159.382075 159.047076,158.116475 157.400676,158.116475 C155.754276,158.116475 154.723876,159.382075 154.723876,160.950075 C154.723876,162.518075 155.754276,163.794875 157.400676,163.794875 Z M157.400676,163.044475 C156.247076,163.044475 155.597476,162.058875 155.597476,160.950075 C155.597476,159.852475 156.247076,158.866875 157.400676,158.866875 C158.554276,158.866875 159.192676,159.852475 159.192676,160.950075 C159.192676,162.058875 158.554276,163.044475 157.400676,163.044475 Z M163.829476,163.794875 C164.815076,163.794875 165.397476,163.391675 165.811876,162.854075 L165.251876,162.338875 C164.893476,162.820475 164.434276,163.044475 163.874276,163.044475 C162.720676,163.044475 162.003876,162.148475 162.003876,160.950075 C162.003876,159.751675 162.720676,158.866875 163.874276,158.866875 C164.434276,158.866875 164.893476,159.079675 165.251876,159.572475 L165.811876,159.057275 C165.397476,158.519675 164.815076,158.116475 163.829476,158.116475 C162.216676,158.116475 161.130276,159.348475 161.130276,160.950075 C161.130276,162.562875 162.216676,163.794875 163.829476,163.794875 Z M169.429476,163.794875 C170.314276,163.794875 171.042276,163.503675 171.579876,162.966075 L171.176676,162.417275 C170.751076,162.854075 170.123876,163.100475 169.507876,163.100475 C168.343076,163.100475 167.626276,162.249275 167.559076,161.230075 L171.938276,161.230075 L171.938276,161.017275 C171.938276,159.393275 170.975076,158.116475 169.339876,158.116475 C167.794276,158.116475 166.674276,159.382075 166.674276,160.950075 C166.674276,162.641275 167.827876,163.794875 169.429476,163.794875 Z M171.109476,160.614075 L167.559076,160.614075 C167.603876,159.785275 168.175076,158.810875 169.328676,158.810875 C170.560676,158.810875 171.098276,159.807675 171.109476,160.614075 Z M175.007076,163.794875 C176.407076,163.794875 177.135076,163.066875 177.135076,162.159675 C177.135076,160.961275 176.048676,160.692475 175.107876,160.479675 C174.402276,160.311675 173.786276,160.143675 173.786276,159.617275 C173.786276,159.135675 174.245476,158.799675 174.984676,158.799675 C175.679076,158.799675 176.272676,159.090875 176.597476,159.482875 L176.989476,158.900475 C176.552676,158.463675 175.903076,158.116475 174.984676,158.116475 C173.696676,158.116475 172.968676,158.833275 172.968676,159.673275 C172.968676,160.793275 174.010276,161.039675 174.928676,161.252475 C175.656676,161.431675 176.317476,161.622075 176.317476,162.215675 C176.317476,162.742075 175.869476,163.111675 175.040676,163.111675 C174.301476,163.111675 173.618276,162.753275 173.259876,162.338875 L172.823076,162.943675 C173.371876,163.526075 174.122276,163.794875 175.007076,163.794875 Z M180.215076,163.794875 C181.615076,163.794875 182.343076,163.066875 182.343076,162.159675 C182.343076,160.961275 181.256676,160.692475 180.315876,160.479675 C179.610276,160.311675 178.994276,160.143675 178.994276,159.617275 C178.994276,159.135675 179.453476,158.799675 180.192676,158.799675 C180.887076,158.799675 181.480676,159.090875 181.805476,159.482875 L182.197476,158.900475 C181.760676,158.463675 181.111076,158.116475 180.192676,158.116475 C178.904676,158.116475 178.176676,158.833275 178.176676,159.673275 C178.176676,160.793275 179.218276,161.039675 180.136676,161.252475 C180.864676,161.431675 181.525476,161.622075 181.525476,162.215675 C181.525476,162.742075 181.077476,163.111675 180.248676,163.111675 C179.509476,163.111675 178.826276,162.753275 178.467876,162.338875 L178.031076,162.943675 C178.579876,163.526075 179.330276,163.794875 180.215076,163.794875 Z M186.151076,163.794875 C187.035876,163.794875 187.763876,163.503675 188.301476,162.966075 L187.898276,162.417275 C187.472676,162.854075 186.845476,163.100475 186.229476,163.100475 C185.064676,163.100475 184.347876,162.249275 184.280676,161.230075 L188.659876,161.230075 L188.659876,161.017275 C188.659876,159.393275 187.696676,158.116475 186.061476,158.116475 C184.515876,158.116475 183.395876,159.382075 183.395876,160.950075 C183.395876,162.641275 184.549476,163.794875 186.151076,163.794875 Z M187.831076,160.614075 L184.280676,160.614075 C184.325476,159.785275 184.896676,158.810875 186.050276,158.810875 C187.282276,158.810875 187.819876,159.807675 187.831076,160.614075 Z M191.728676,163.794875 C193.128676,163.794875 193.856676,163.066875 193.856676,162.159675 C193.856676,160.961275 192.770276,160.692475 191.829476,160.479675 C191.123876,160.311675 190.507876,160.143675 190.507876,159.617275 C190.507876,159.135675 190.967076,158.799675 191.706276,158.799675 C192.400676,158.799675 192.994276,159.090875 193.319076,159.482875 L193.711076,158.900475 C193.274276,158.463675 192.624676,158.116475 191.706276,158.116475 C190.418276,158.116475 189.690276,158.833275 189.690276,159.673275 C189.690276,160.793275 190.731876,161.039675 191.650276,161.252475 C192.378276,161.431675 193.039076,161.622075 193.039076,162.215675 C193.039076,162.742075 192.591076,163.111675 191.762276,163.111675 C191.023076,163.111675 190.339876,162.753275 189.981476,162.338875 L189.544676,162.943675 C190.093476,163.526075 190.843876,163.794875 191.728676,163.794875 Z" id="TeamProcesses" fill="#1F3966" fill-rule="nonzero"></path>
        <g id="verification/dot/trusted/active" transform="translate(89.000000, 186.360475)">
            <g id="Group" transform="translate(3.368421, 3.400000)">
                <rect id="Rectangle-3" stroke="#29CC96" stroke-width="0.8" fill="#F2FFFB" x="0" y="0" width="10.1052632" height="10.2" rx="4.8"></rect>
                <path d="M7.2467647,2.90502333 C6.16887359,4.06088515 5.18718557,5.20129844 4.13957052,6.33986819 L2.81427043,5.20587232 C2.72398518,5.12838938 2.60857417,5.09283795 2.49358618,5.10651175 C2.37859819,5.12018556 2.27341149,5.18217215 2.20100842,5.2788024 C2.05024954,5.4802632 2.08090719,5.77424009 2.26914864,5.93513103 L3.904514,7.33529878 C4.07870222,7.48433497 4.33038495,7.46883978 4.48711836,7.29883608 C5.6591302,6.04183548 6.71274159,4.80245366 7.86687344,3.56505541 C7.99719026,3.4306043 8.03594841,3.22412623 7.96482528,3.04591988 C7.89370434,2.86771353 7.72718489,2.75512837 7.54661875,2.76287597 C7.43329447,2.76645923 7.3255566,2.81750701 7.2467647,2.90502333 Z" id="Fill-1" fill="#29CC96"></path>
            </g>
        </g>
        <path d="M115.224253,197.660475 L115.224253,194.692475 L117.296253,194.692475 C118.774653,194.692475 119.637053,193.662075 119.637053,192.441275 C119.637053,191.220475 118.797053,190.190075 117.296253,190.190075 L114.294653,190.190075 L114.294653,197.660475 L115.224253,197.660475 Z M117.184253,193.863675 L115.224253,193.863675 L115.224253,191.018875 L117.184253,191.018875 C118.069053,191.018875 118.673853,191.601275 118.673853,192.441275 C118.673853,193.281275 118.069053,193.863675 117.184253,193.863675 Z M121.675453,197.660475 L121.675453,193.830075 C121.921853,193.393275 122.627453,192.967675 123.142653,192.967675 C123.277053,192.967675 123.377853,192.978875 123.478653,193.001275 L123.478653,192.138875 C122.739453,192.138875 122.112253,192.553275 121.675453,193.124475 L121.675453,192.250875 L120.835453,192.250875 L120.835453,197.660475 L121.675453,197.660475 Z M126.894653,197.794875 C128.541053,197.794875 129.571453,196.518075 129.571453,194.950075 C129.571453,193.382075 128.541053,192.116475 126.894653,192.116475 C125.248253,192.116475 124.217853,193.382075 124.217853,194.950075 C124.217853,196.518075 125.248253,197.794875 126.894653,197.794875 Z M126.894653,197.044475 C125.741053,197.044475 125.091453,196.058875 125.091453,194.950075 C125.091453,193.852475 125.741053,192.866875 126.894653,192.866875 C128.048253,192.866875 128.686653,193.852475 128.686653,194.950075 C128.686653,196.058875 128.048253,197.044475 126.894653,197.044475 Z M131.352253,191.343675 C131.665853,191.343675 131.923453,191.086075 131.923453,190.772475 C131.923453,190.458875 131.665853,190.212475 131.352253,190.212475 C131.049853,190.212475 130.792253,190.458875 130.792253,190.772475 C130.792253,191.086075 131.049853,191.343675 131.352253,191.343675 Z M130.187453,199.855675 C131.206653,199.855675 131.777853,199.250875 131.777853,198.186875 L131.777853,192.250875 L130.937853,192.250875 L130.937853,198.186875 C130.937853,198.870075 130.590653,199.127675 130.097853,199.127675 C129.963453,199.127675 129.806653,199.116475 129.694653,199.071675 L129.582653,199.777275 C129.761853,199.833275 129.952253,199.855675 130.187453,199.855675 Z M135.899453,197.794875 C136.784253,197.794875 137.512253,197.503675 138.049853,196.966075 L137.646653,196.417275 C137.221053,196.854075 136.593853,197.100475 135.977853,197.100475 C134.813053,197.100475 134.096253,196.249275 134.029053,195.230075 L138.408253,195.230075 L138.408253,195.017275 C138.408253,193.393275 137.445053,192.116475 135.809853,192.116475 C134.264253,192.116475 133.144253,193.382075 133.144253,194.950075 C133.144253,196.641275 134.297853,197.794875 135.899453,197.794875 Z M137.579453,194.614075 L134.029053,194.614075 C134.073853,193.785275 134.645053,192.810875 135.798653,192.810875 C137.030653,192.810875 137.568253,193.807675 137.579453,194.614075 Z M142.149053,197.794875 C143.134653,197.794875 143.717053,197.391675 144.131453,196.854075 L143.571453,196.338875 C143.213053,196.820475 142.753853,197.044475 142.193853,197.044475 C141.040253,197.044475 140.323453,196.148475 140.323453,194.950075 C140.323453,193.751675 141.040253,192.866875 142.193853,192.866875 C142.753853,192.866875 143.213053,193.079675 143.571453,193.572475 L144.131453,193.057275 C143.717053,192.519675 143.134653,192.116475 142.149053,192.116475 C140.536253,192.116475 139.449853,193.348475 139.449853,194.950075 C139.449853,196.562875 140.536253,197.794875 142.149053,197.794875 Z M146.673853,197.794875 C147.166653,197.794875 147.469053,197.649275 147.681853,197.447675 L147.435453,196.820475 C147.323453,196.943675 147.099453,197.044475 146.864253,197.044475 C146.494653,197.044475 146.315453,196.753275 146.315453,196.350075 L146.315453,192.990075 L147.413053,192.990075 L147.413053,192.250875 L146.315453,192.250875 L146.315453,190.772475 L145.475453,190.772475 L145.475453,192.250875 L144.579453,192.250875 L144.579453,192.990075 L145.475453,192.990075 L145.475453,196.529275 C145.475453,197.335675 145.878653,197.794875 146.673853,197.794875 Z M154.928253,197.660475 C156.294653,197.660475 157.089853,196.842875 157.089853,195.644475 C157.089853,194.748475 156.429053,193.930875 155.633853,193.807675 C156.317053,193.662075 156.944253,193.034875 156.944253,192.094075 C156.944253,190.974075 156.149053,190.190075 154.849853,190.190075 L151.523453,190.190075 L151.523453,197.660475 L154.928253,197.660475 Z M154.693053,193.426875 L152.453053,193.426875 L152.453053,191.018875 L154.693053,191.018875 C155.533053,191.018875 155.981053,191.556475 155.981053,192.228475 C155.981053,192.911675 155.533053,193.426875 154.693053,193.426875 Z M154.737853,196.831675 L152.453053,196.831675 L152.453053,194.255675 L154.737853,194.255675 C155.656253,194.255675 156.126653,194.860475 156.126653,195.543675 C156.126653,196.338875 155.611453,196.831675 154.737853,196.831675 Z M159.374653,197.660475 L159.374653,193.830075 C159.621053,193.393275 160.326653,192.967675 160.841853,192.967675 C160.976253,192.967675 161.077053,192.978875 161.177853,193.001275 L161.177853,192.138875 C160.438653,192.138875 159.811453,192.553275 159.374653,193.124475 L159.374653,192.250875 L158.534653,192.250875 L158.534653,197.660475 L159.374653,197.660475 Z M162.645053,191.343675 C162.958653,191.343675 163.216253,191.086075 163.216253,190.772475 C163.216253,190.458875 162.958653,190.212475 162.645053,190.212475 C162.342653,190.212475 162.085053,190.458875 162.085053,190.772475 C162.085053,191.086075 162.342653,191.343675 162.645053,191.343675 Z M163.070653,197.660475 L163.070653,192.250875 L162.230653,192.250875 L162.230653,197.660475 L163.070653,197.660475 Z M167.192253,197.794875 C168.077053,197.794875 168.805053,197.503675 169.342653,196.966075 L168.939453,196.417275 C168.513853,196.854075 167.886653,197.100475 167.270653,197.100475 C166.105853,197.100475 165.389053,196.249275 165.321853,195.230075 L169.701053,195.230075 L169.701053,195.017275 C169.701053,193.393275 168.737853,192.116475 167.102653,192.116475 C165.557053,192.116475 164.437053,193.382075 164.437053,194.950075 C164.437053,196.641275 165.590653,197.794875 167.192253,197.794875 Z M168.872253,194.614075 L165.321853,194.614075 C165.366653,193.785275 165.937853,192.810875 167.091453,192.810875 C168.323453,192.810875 168.861053,193.807675 168.872253,194.614075 Z M172.131453,197.660475 L172.131453,192.990075 L173.229053,192.990075 L173.229053,192.250875 L172.131453,192.250875 L172.131453,191.836475 C172.131453,191.153275 172.433853,190.772475 172.982653,190.772475 C173.173053,190.772475 173.329853,190.817275 173.464253,190.895675 L173.677053,190.268475 C173.464253,190.134075 173.173053,190.078075 172.859453,190.078075 C171.918653,190.078075 171.291453,190.716475 171.291453,191.836475 L171.291453,192.250875 L170.395453,192.250875 L170.395453,192.990075 L171.291453,192.990075 L171.291453,197.660475 L172.131453,197.660475 Z M179.926653,197.660475 L179.926653,191.018875 L182.301053,191.018875 L182.301053,190.190075 L176.633853,190.190075 L176.633853,191.018875 L178.997053,191.018875 L178.997053,197.660475 L179.926653,197.660475 Z M185.941053,197.794875 C186.825853,197.794875 187.553853,197.503675 188.091453,196.966075 L187.688253,196.417275 C187.262653,196.854075 186.635453,197.100475 186.019453,197.100475 C184.854653,197.100475 184.137853,196.249275 184.070653,195.230075 L188.449853,195.230075 L188.449853,195.017275 C188.449853,193.393275 187.486653,192.116475 185.851453,192.116475 C184.305853,192.116475 183.185853,193.382075 183.185853,194.950075 C183.185853,196.641275 184.339453,197.794875 185.941053,197.794875 Z M187.621053,194.614075 L184.070653,194.614075 C184.115453,193.785275 184.686653,192.810875 185.840253,192.810875 C187.072253,192.810875 187.609853,193.807675 187.621053,194.614075 Z M190.645053,197.660475 L190.645053,193.706875 C190.936253,193.270075 191.518653,192.866875 192.067453,192.866875 C192.773053,192.866875 193.064253,193.303675 193.064253,193.986875 L193.064253,197.660475 L193.904253,197.660475 L193.904253,193.695675 C194.184253,193.270075 194.777853,192.866875 195.337853,192.866875 C196.032253,192.866875 196.334653,193.303675 196.334653,193.986875 L196.334653,197.660475 L197.174653,197.660475 L197.174653,193.751675 C197.174653,192.665275 196.648253,192.116475 195.662653,192.116475 C194.878653,192.116475 194.150653,192.631675 193.848253,193.124475 C193.691453,192.564475 193.221053,192.116475 192.392253,192.116475 C191.597053,192.116475 190.869053,192.687675 190.645053,193.034875 L190.645053,192.250875 L189.805053,192.250875 L189.805053,197.660475 L190.645053,197.660475 Z M199.694653,199.721275 L199.694653,196.842875 C200.131453,197.447675 200.781053,197.794875 201.520253,197.794875 C202.942653,197.794875 203.928253,196.697275 203.928253,194.950075 C203.928253,193.191675 202.942653,192.116475 201.520253,192.116475 C200.758653,192.116475 200.086653,192.508475 199.694653,193.057275 L199.694653,192.250875 L198.854653,192.250875 L198.854653,199.721275 L199.694653,199.721275 Z M201.307453,197.044475 C200.646653,197.044475 199.985853,196.641275 199.694653,196.170875 L199.694653,193.729275 C199.985853,193.258875 200.646653,192.866875 201.307453,192.866875 C202.393853,192.866875 203.043453,193.751675 203.043453,194.950075 C203.043453,196.148475 202.393853,197.044475 201.307453,197.044475 Z M206.123453,197.660475 L206.123453,190.190075 L205.283453,190.190075 L205.283453,197.660475 L206.123453,197.660475 Z M209.393853,197.794875 C210.121853,197.794875 210.737853,197.537275 211.185853,197.044475 L211.185853,197.660475 L212.025853,197.660475 L212.025853,193.942075 C212.025853,192.631675 211.073853,192.116475 209.931453,192.116475 C209.046653,192.116475 208.352253,192.407675 207.769853,193.012475 L208.161853,193.594875 C208.643453,193.079675 209.169853,192.844475 209.819453,192.844475 C210.603453,192.844475 211.185853,193.258875 211.185853,193.986875 L211.185853,194.961275 C210.749053,194.457275 210.133053,194.222075 209.393853,194.222075 C208.475453,194.222075 207.501053,194.793275 207.501053,196.002875 C207.501053,197.178875 208.475453,197.794875 209.393853,197.794875 Z M209.696253,197.190075 C208.912253,197.190075 208.363453,196.697275 208.363453,196.014075 C208.363453,195.319675 208.912253,194.826875 209.696253,194.826875 C210.289853,194.826875 210.861053,195.050875 211.185853,195.498875 L211.185853,196.518075 C210.861053,196.966075 210.289853,197.190075 209.696253,197.190075 Z M215.072253,197.794875 C215.565053,197.794875 215.867453,197.649275 216.080253,197.447675 L215.833853,196.820475 C215.721853,196.943675 215.497853,197.044475 215.262653,197.044475 C214.893053,197.044475 214.713853,196.753275 214.713853,196.350075 L214.713853,192.990075 L215.811453,192.990075 L215.811453,192.250875 L214.713853,192.250875 L214.713853,190.772475 L213.873853,190.772475 L213.873853,192.250875 L212.977853,192.250875 L212.977853,192.990075 L213.873853,192.990075 L213.873853,196.529275 C213.873853,197.335675 214.277053,197.794875 215.072253,197.794875 Z M219.440253,197.794875 C220.325053,197.794875 221.053053,197.503675 221.590653,196.966075 L221.187453,196.417275 C220.761853,196.854075 220.134653,197.100475 219.518653,197.100475 C218.353853,197.100475 217.637053,196.249275 217.569853,195.230075 L221.949053,195.230075 L221.949053,195.017275 C221.949053,193.393275 220.985853,192.116475 219.350653,192.116475 C217.805053,192.116475 216.685053,193.382075 216.685053,194.950075 C216.685053,196.641275 217.838653,197.794875 219.440253,197.794875 Z M221.120253,194.614075 L217.569853,194.614075 C217.614653,193.785275 218.185853,192.810875 219.339453,192.810875 C220.571453,192.810875 221.109053,193.807675 221.120253,194.614075 Z" id="ProjectBriefTemplate" fill="#1F3966" fill-rule="nonzero"></path>
        <g id="verification/dot/trusted/active" transform="translate(88.000000, 260.360475)">
            <g id="Group" transform="translate(3.383607, 3.400000)">
                <rect id="Rectangle-3" stroke="#29CC96" stroke-width="0.8" fill="#F2FFFB" x="0" y="0" width="10.1508197" height="10.2" rx="4.8"></rect>
                <path d="M7.27943454,2.90502333 C6.19668408,4.06088515 5.21057042,5.20129844 4.15823252,6.33986819 L2.82695771,5.20587232 C2.73626544,5.12838938 2.62033414,5.09283795 2.50482776,5.10651175 C2.38932138,5.12018556 2.28366048,5.18217215 2.210931,5.2788024 C2.05949247,5.4802632 2.09028833,5.77424009 2.27937841,5.93513103 L3.92211632,7.33529878 C4.09708981,7.48433497 4.34990717,7.46883978 4.50734718,7.29883608 C5.68464268,6.04183548 6.74300395,4.80245366 7.90233885,3.56505541 C8.03324316,3.4306043 8.07217605,3.22412623 8.00073228,3.04591988 C7.92929071,2.86771353 7.76202056,2.75512837 7.58064039,2.76287597 C7.46680523,2.76645923 7.35858165,2.81750701 7.27943454,2.90502333 Z" id="Fill-1" fill="#29CC96"></path>
            </g>
        </g>
        <path d="M116.910348,271.794875 C118.265548,271.794875 119.161548,271.167675 119.788748,270.316475 L118.993548,269.879675 C118.567948,270.518075 117.795148,270.966075 116.910348,270.966075 C115.308748,270.966075 114.065548,269.700475 114.065548,267.930875 C114.065548,266.150075 115.308748,264.895675 116.910348,264.895675 C117.795148,264.895675 118.567948,265.354875 118.993548,265.982075 L119.777548,265.545275 C119.183948,264.705275 118.265548,264.066875 116.910348,264.066875 C114.793548,264.066875 113.102348,265.634875 113.102348,267.930875 C113.102348,270.226875 114.793548,271.794875 116.910348,271.794875 Z M122.667148,271.794875 C123.473548,271.794875 124.179148,271.369275 124.593548,270.898875 L124.593548,271.660475 L125.433548,271.660475 L125.433548,266.250875 L124.593548,266.250875 L124.593548,270.226875 C124.279948,270.663675 123.652748,271.044475 122.991948,271.044475 C122.263948,271.044475 121.782348,270.764475 121.782348,269.812475 L121.782348,266.250875 L120.942348,266.250875 L120.942348,270.070075 C120.942348,271.246075 121.535948,271.794875 122.667148,271.794875 Z M128.827148,271.794875 C130.227148,271.794875 130.955148,271.066875 130.955148,270.159675 C130.955148,268.961275 129.868748,268.692475 128.927948,268.479675 C128.222348,268.311675 127.606348,268.143675 127.606348,267.617275 C127.606348,267.135675 128.065548,266.799675 128.804748,266.799675 C129.499148,266.799675 130.092748,267.090875 130.417548,267.482875 L130.809548,266.900475 C130.372748,266.463675 129.723148,266.116475 128.804748,266.116475 C127.516748,266.116475 126.788748,266.833275 126.788748,267.673275 C126.788748,268.793275 127.830348,269.039675 128.748748,269.252475 C129.476748,269.431675 130.137548,269.622075 130.137548,270.215675 C130.137548,270.742075 129.689548,271.111675 128.860748,271.111675 C128.121548,271.111675 127.438348,270.753275 127.079948,270.338875 L126.643148,270.943675 C127.191948,271.526075 127.942348,271.794875 128.827148,271.794875 Z M133.687948,271.794875 C134.180748,271.794875 134.483148,271.649275 134.695948,271.447675 L134.449548,270.820475 C134.337548,270.943675 134.113548,271.044475 133.878348,271.044475 C133.508748,271.044475 133.329548,270.753275 133.329548,270.350075 L133.329548,266.990075 L134.427148,266.990075 L134.427148,266.250875 L133.329548,266.250875 L133.329548,264.772475 L132.489548,264.772475 L132.489548,266.250875 L131.593548,266.250875 L131.593548,266.990075 L132.489548,266.990075 L132.489548,270.529275 C132.489548,271.335675 132.892748,271.794875 133.687948,271.794875 Z M137.977548,271.794875 C139.623948,271.794875 140.654348,270.518075 140.654348,268.950075 C140.654348,267.382075 139.623948,266.116475 137.977548,266.116475 C136.331148,266.116475 135.300748,267.382075 135.300748,268.950075 C135.300748,270.518075 136.331148,271.794875 137.977548,271.794875 Z M137.977548,271.044475 C136.823948,271.044475 136.174348,270.058875 136.174348,268.950075 C136.174348,267.852475 136.823948,266.866875 137.977548,266.866875 C139.131148,266.866875 139.769548,267.852475 139.769548,268.950075 C139.769548,270.058875 139.131148,271.044475 137.977548,271.044475 Z M142.860748,271.660475 L142.860748,267.706875 C143.151948,267.270075 143.734348,266.866875 144.283148,266.866875 C144.988748,266.866875 145.279948,267.303675 145.279948,267.986875 L145.279948,271.660475 L146.119948,271.660475 L146.119948,267.695675 C146.399948,267.270075 146.993548,266.866875 147.553548,266.866875 C148.247948,266.866875 148.550348,267.303675 148.550348,267.986875 L148.550348,271.660475 L149.390348,271.660475 L149.390348,267.751675 C149.390348,266.665275 148.863948,266.116475 147.878348,266.116475 C147.094348,266.116475 146.366348,266.631675 146.063948,267.124475 C145.907148,266.564475 145.436748,266.116475 144.607948,266.116475 C143.812748,266.116475 143.084748,266.687675 142.860748,267.034875 L142.860748,266.250875 L142.020748,266.250875 L142.020748,271.660475 L142.860748,271.660475 Z M153.511948,271.794875 C154.396748,271.794875 155.124748,271.503675 155.662348,270.966075 L155.259148,270.417275 C154.833548,270.854075 154.206348,271.100475 153.590348,271.100475 C152.425548,271.100475 151.708748,270.249275 151.641548,269.230075 L156.020748,269.230075 L156.020748,269.017275 C156.020748,267.393275 155.057548,266.116475 153.422348,266.116475 C151.876748,266.116475 150.756748,267.382075 150.756748,268.950075 C150.756748,270.641275 151.910348,271.794875 153.511948,271.794875 Z M155.191948,268.614075 L151.641548,268.614075 C151.686348,267.785275 152.257548,266.810875 153.411148,266.810875 C154.643148,266.810875 155.180748,267.807675 155.191948,268.614075 Z M158.215948,271.660475 L158.215948,267.830075 C158.462348,267.393275 159.167948,266.967675 159.683148,266.967675 C159.817548,266.967675 159.918348,266.978875 160.019148,267.001275 L160.019148,266.138875 C159.279948,266.138875 158.652748,266.553275 158.215948,267.124475 L158.215948,266.250875 L157.375948,266.250875 L157.375948,271.660475 L158.215948,271.660475 Z M164.924748,271.660475 L164.924748,268.255675 L168.811148,268.255675 L168.811148,267.426875 L164.924748,267.426875 L164.924748,265.018875 L168.889548,265.018875 L168.889548,264.190075 L163.995148,264.190075 L163.995148,271.660475 L164.924748,271.660475 Z M172.563148,271.794875 C173.447948,271.794875 174.175948,271.503675 174.713548,270.966075 L174.310348,270.417275 C173.884748,270.854075 173.257548,271.100475 172.641548,271.100475 C171.476748,271.100475 170.759948,270.249275 170.692748,269.230075 L175.071948,269.230075 L175.071948,269.017275 C175.071948,267.393275 174.108748,266.116475 172.473548,266.116475 C170.927948,266.116475 169.807948,267.382075 169.807948,268.950075 C169.807948,270.641275 170.961548,271.794875 172.563148,271.794875 Z M174.243148,268.614075 L170.692748,268.614075 C170.737548,267.785275 171.308748,266.810875 172.462348,266.810875 C173.694348,266.810875 174.231948,267.807675 174.243148,268.614075 Z M178.868748,271.794875 C179.753548,271.794875 180.481548,271.503675 181.019148,270.966075 L180.615948,270.417275 C180.190348,270.854075 179.563148,271.100475 178.947148,271.100475 C177.782348,271.100475 177.065548,270.249275 176.998348,269.230075 L181.377548,269.230075 L181.377548,269.017275 C181.377548,267.393275 180.414348,266.116475 178.779148,266.116475 C177.233548,266.116475 176.113548,267.382075 176.113548,268.950075 C176.113548,270.641275 177.267148,271.794875 178.868748,271.794875 Z M180.548748,268.614075 L176.998348,268.614075 C177.043148,267.785275 177.614348,266.810875 178.767948,266.810875 C179.999948,266.810875 180.537548,267.807675 180.548748,268.614075 Z M184.827148,271.794875 C185.588748,271.794875 186.249548,271.402875 186.652748,270.854075 L186.652748,271.660475 L187.492748,271.660475 L187.492748,264.190075 L186.652748,264.190075 L186.652748,267.068475 C186.215948,266.474875 185.555148,266.116475 184.827148,266.116475 C183.404748,266.116475 182.419148,267.236475 182.419148,268.961275 C182.419148,270.719675 183.415948,271.794875 184.827148,271.794875 Z M185.028748,271.044475 C183.942348,271.044475 183.292748,270.159675 183.292748,268.961275 C183.292748,267.762875 183.942348,266.866875 185.028748,266.866875 C185.700748,266.866875 186.350348,267.270075 186.652748,267.740475 L186.652748,270.193275 C186.350348,270.663675 185.700748,271.044475 185.028748,271.044475 Z M191.838348,271.794875 C193.249548,271.794875 194.246348,270.719675 194.246348,268.961275 C194.246348,267.236475 193.249548,266.116475 191.838348,266.116475 C191.099148,266.116475 190.449548,266.474875 190.012748,267.068475 L190.012748,264.190075 L189.172748,264.190075 L189.172748,271.660475 L190.012748,271.660475 L190.012748,270.854075 C190.415948,271.402875 191.076748,271.794875 191.838348,271.794875 Z M191.625548,271.044475 C190.964748,271.044475 190.303948,270.663675 190.012748,270.193275 L190.012748,267.740475 C190.303948,267.270075 190.964748,266.866875 191.625548,266.866875 C192.723148,266.866875 193.372748,267.762875 193.372748,268.961275 C193.372748,270.159675 192.723148,271.044475 191.625548,271.044475 Z M197.203148,271.794875 C197.931148,271.794875 198.547148,271.537275 198.995148,271.044475 L198.995148,271.660475 L199.835148,271.660475 L199.835148,267.942075 C199.835148,266.631675 198.883148,266.116475 197.740748,266.116475 C196.855948,266.116475 196.161548,266.407675 195.579148,267.012475 L195.971148,267.594875 C196.452748,267.079675 196.979148,266.844475 197.628748,266.844475 C198.412748,266.844475 198.995148,267.258875 198.995148,267.986875 L198.995148,268.961275 C198.558348,268.457275 197.942348,268.222075 197.203148,268.222075 C196.284748,268.222075 195.310348,268.793275 195.310348,270.002875 C195.310348,271.178875 196.284748,271.794875 197.203148,271.794875 Z M197.505548,271.190075 C196.721548,271.190075 196.172748,270.697275 196.172748,270.014075 C196.172748,269.319675 196.721548,268.826875 197.505548,268.826875 C198.099148,268.826875 198.670348,269.050875 198.995148,269.498875 L198.995148,270.518075 C198.670348,270.966075 198.099148,271.190075 197.505548,271.190075 Z M203.900748,271.794875 C204.886348,271.794875 205.468748,271.391675 205.883148,270.854075 L205.323148,270.338875 C204.964748,270.820475 204.505548,271.044475 203.945548,271.044475 C202.791948,271.044475 202.075148,270.148475 202.075148,268.950075 C202.075148,267.751675 202.791948,266.866875 203.945548,266.866875 C204.505548,266.866875 204.964748,267.079675 205.323148,267.572475 L205.883148,267.057275 C205.468748,266.519675 204.886348,266.116475 203.900748,266.116475 C202.287948,266.116475 201.201548,267.348475 201.201548,268.950075 C201.201548,270.562875 202.287948,271.794875 203.900748,271.794875 Z M207.899148,271.660475 L207.899148,270.114875 L208.795148,269.230075 L210.743948,271.660475 L211.819148,271.660475 L209.411148,268.703675 L211.807948,266.250875 L210.743948,266.250875 L207.899148,269.129275 L207.899148,264.190075 L207.059148,264.190075 L207.059148,271.660475 L207.899148,271.660475 Z" id="CustomerFeedback" fill="#1F3966" fill-rule="nonzero"></path>
        <g id="Group-4-Copy" transform="translate(89.000000, 118.360475)">
            <g id="verification/dot/trusted/active">
                <g id="Group" transform="translate(3.364706, 3.400000)">
                    <rect id="Rectangle-3" stroke="#29CC96" stroke-width="0.8" fill="#F2FFFB" x="0" y="0" width="10.0941176" height="10.2" rx="4.8"></rect>
                    <path d="M7.23877195,2.90502333 C6.16206968,4.06088515 5.18146441,5.20129844 4.13500481,6.33986819 L2.81116645,5.20587232 C2.72098078,5.12838938 2.60569707,5.09283795 2.49083591,5.10651175 C2.37597474,5.12018556 2.27090406,5.18217215 2.19858084,5.2788024 C2.04798823,5.4802632 2.07861207,5.77424009 2.2666459,5.93513103 L3.90020755,7.33529878 C4.07420365,7.48433497 4.32560879,7.46883978 4.48216934,7.29883608 C5.65288852,6.04183548 6.70533784,4.80245366 7.85819674,3.56505541 C7.98836983,3.4306043 8.02708524,3.22412623 7.95604055,3.04591988 C7.88499804,2.86771353 7.71866226,2.75512837 7.53829528,2.76287597 C7.42509599,2.76645923 7.31747695,2.81750701 7.23877195,2.90502333 Z" id="Fill-1" fill="#29CC96"></path>
                </g>
            </g>
            <path d="M28.0453176,11.3 L28.0453176,4.6584 L30.4197176,4.6584 L30.4197176,3.8296 L24.7525176,3.8296 L24.7525176,4.6584 L27.1157176,4.6584 L27.1157176,11.3 L28.0453176,11.3 Z M34.0597176,11.4344 C34.9445176,11.4344 35.6725176,11.1432 36.2101176,10.6056 L35.8069176,10.0568 C35.3813176,10.4936 34.7541176,10.74 34.1381176,10.74 C32.9733176,10.74 32.2565176,9.8888 32.1893176,8.8696 L36.5685176,8.8696 L36.5685176,8.6568 C36.5685176,7.0328 35.6053176,5.756 33.9701176,5.756 C32.4245176,5.756 31.3045176,7.0216 31.3045176,8.5896 C31.3045176,10.2808 32.4581176,11.4344 34.0597176,11.4344 Z M35.7397176,8.2536 L32.1893176,8.2536 C32.2341176,7.4248 32.8053176,6.4504 33.9589176,6.4504 C35.1909176,6.4504 35.7285176,7.4472 35.7397176,8.2536 Z M40.3093176,11.4344 C41.2949176,11.4344 41.8773176,11.0312 42.2917176,10.4936 L41.7317176,9.9784 C41.3733176,10.46 40.9141176,10.684 40.3541176,10.684 C39.2005176,10.684 38.4837176,9.788 38.4837176,8.5896 C38.4837176,7.3912 39.2005176,6.5064 40.3541176,6.5064 C40.9141176,6.5064 41.3733176,6.7192 41.7317176,7.212 L42.2917176,6.6968 C41.8773176,6.1592 41.2949176,5.756 40.3093176,5.756 C38.6965176,5.756 37.6101176,6.988 37.6101176,8.5896 C37.6101176,10.2024 38.6965176,11.4344 40.3093176,11.4344 Z M44.3077176,11.3 L44.3077176,7.3464 C44.6325176,6.9096 45.2597176,6.5064 45.9093176,6.5064 C46.6373176,6.5064 47.1301176,6.7864 47.1301176,7.7384 L47.1301176,11.3 L47.9701176,11.3 L47.9701176,7.4808 C47.9701176,6.3048 47.3765176,5.756 46.2453176,5.756 C45.4277176,5.756 44.6885176,6.2264 44.3077176,6.6744 L44.3077176,3.8296 L43.4677176,3.8296 L43.4677176,11.3 L44.3077176,11.3 Z M54.9925176,11.4344 C57.0085176,11.4344 57.7477176,10.3256 57.7477176,9.2392 C57.7477176,7.6712 56.3589176,7.2904 55.1381176,6.9656 C54.1861176,6.708 53.3237176,6.484 53.3237176,5.7336 C53.3237176,5.028 53.9621176,4.5464 54.8581176,4.5464 C55.6757176,4.5464 56.4597176,4.8264 57.0197176,5.4424 L57.5797176,4.7592 C56.9525176,4.0984 56.0677176,3.7176 54.9253176,3.7176 C53.4581176,3.7176 52.3605176,4.5576 52.3605176,5.7896 C52.3605176,7.2568 53.6933176,7.5928 54.8917176,7.9064 C55.8773176,8.1752 56.7845176,8.4216 56.7845176,9.3176 C56.7845176,9.8888 56.3589176,10.6056 55.0261176,10.6056 C53.9733176,10.6056 53.1669176,10.0904 52.6741176,9.5416 L52.1253176,10.2472 C52.7413176,10.9416 53.6933176,11.4344 54.9925176,11.4344 Z M60.4693176,11.4344 C60.9621176,11.4344 61.2645176,11.2888 61.4773176,11.0872 L61.2309176,10.46 C61.1189176,10.5832 60.8949176,10.684 60.6597176,10.684 C60.2901176,10.684 60.1109176,10.3928 60.1109176,9.9896 L60.1109176,6.6296 L61.2085176,6.6296 L61.2085176,5.8904 L60.1109176,5.8904 L60.1109176,4.412 L59.2709176,4.412 L59.2709176,5.8904 L58.3749176,5.8904 L58.3749176,6.6296 L59.2709176,6.6296 L59.2709176,10.1688 C59.2709176,10.9752 59.6741176,11.4344 60.4693176,11.4344 Z M63.9861176,11.4344 C64.7141176,11.4344 65.3301176,11.1768 65.7781176,10.684 L65.7781176,11.3 L66.6181176,11.3 L66.6181176,7.5816 C66.6181176,6.2712 65.6661176,5.756 64.5237176,5.756 C63.6389176,5.756 62.9445176,6.0472 62.3621176,6.652 L62.7541176,7.2344 C63.2357176,6.7192 63.7621176,6.484 64.4117176,6.484 C65.1957176,6.484 65.7781176,6.8984 65.7781176,7.6264 L65.7781176,8.6008 C65.3413176,8.0968 64.7253176,7.8616 63.9861176,7.8616 C63.0677176,7.8616 62.0933176,8.4328 62.0933176,9.6424 C62.0933176,10.8184 63.0677176,11.4344 63.9861176,11.4344 Z M64.2885176,10.8296 C63.5045176,10.8296 62.9557176,10.3368 62.9557176,9.6536 C62.9557176,8.9592 63.5045176,8.4664 64.2885176,8.4664 C64.8821176,8.4664 65.4533176,8.6904 65.7781176,9.1384 L65.7781176,10.1576 C65.4533176,10.6056 64.8821176,10.8296 64.2885176,10.8296 Z M70.6837176,11.4344 C71.6693176,11.4344 72.2517176,11.0312 72.6661176,10.4936 L72.1061176,9.9784 C71.7477176,10.46 71.2885176,10.684 70.7285176,10.684 C69.5749176,10.684 68.8581176,9.788 68.8581176,8.5896 C68.8581176,7.3912 69.5749176,6.5064 70.7285176,6.5064 C71.2885176,6.5064 71.7477176,6.7192 72.1061176,7.212 L72.6661176,6.6968 C72.2517176,6.1592 71.6693176,5.756 70.6837176,5.756 C69.0709176,5.756 67.9845176,6.988 67.9845176,8.5896 C67.9845176,10.2024 69.0709176,11.4344 70.6837176,11.4344 Z M74.6821176,11.3 L74.6821176,9.7544 L75.5781176,8.8696 L77.5269176,11.3 L78.6021176,11.3 L76.1941176,8.3432 L78.5909176,5.8904 L77.5269176,5.8904 L74.6821176,8.7688 L74.6821176,3.8296 L73.8421176,3.8296 L73.8421176,11.3 L74.6821176,11.3 Z" id="TechStack" fill="#1F3966" fill-rule="nonzero"></path>
        </g>
        <g id="expand-accordion" transform="translate(229.000000, 231.360475) rotate(-90.000000) translate(-229.000000, -231.360475) translate(222.000000, 224.360475)">
            <mask id="mask-8" fill="white">
                <use xlink:href="#path-7"></use>
            </mask>
            <use id="-Icon-小olor" fill="#001C4D" fill-rule="evenodd" xlink:href="#path-7"></use>
        </g>
    </g>
</svg>