<svg width="500px" height="330px" viewBox="0 0 500 330" xmlns="http://www.w3.org/2000/svg" xmlns:xlink="http://www.w3.org/1999/xlink">
    <defs>
        <rect id="path-1" x="204" y="24.360475" width="253" height="236" rx="2.23999996"></rect>
        <filter x="-1.5%" y="-1.2%" width="103.0%" height="103.2%" filterUnits="objectBoundingBox" id="filter-2">
            <feMorphology radius="0.279999995" operator="dilate" in="SourceAlpha" result="shadowSpreadOuter1"></feMorphology>
            <feOffset dx="0" dy="1" in="shadowSpreadOuter1" result="shadowOffsetOuter1"></feOffset>
            <feGaussianBlur stdDeviation="1" in="shadowOffsetOuter1" result="shadowBlurOuter1"></feGaussianBlur>
            <feComposite in="shadowBlurOuter1" in2="SourceAlpha" operator="out" result="shadowBlurOuter1"></feComposite>
            <feColorMatrix values="0 0 0 0 0   0 0 0 0 0   0 0 0 0 0  0 0 0 0.5 0" type="matrix" in="shadowBlurOuter1"></feColorMatrix>
        </filter>
        <path d="M1.875,4.875 C2.08125,4.875 2.248875,5.0415 2.25,5.248125 L2.25,5.248125 L2.254875,6.214875 L3.484875,4.984875 C3.6315,4.83825 3.8685,4.83825 4.015125,4.984875 C4.16175,5.1315 4.16175,5.3685 4.015125,5.515125 L4.015125,5.515125 L2.780625,6.749625 L3.75,6.75 C3.957375,6.75 4.125,6.918 4.125,7.125375 C4.124625,7.332375 3.957,7.5 3.75,7.5 L3.75,7.5 L3.749625,7.5 L1.884,7.498875 C1.67775,7.498875 1.5105,7.332 1.509375,7.12575 L1.509375,7.12575 L1.49999436,5.251875 C1.498875,5.044875 1.666125,4.876125 1.873125,4.875 L1.873125,4.875 Z M5.251725,1.50015 L7.1256,1.509525 C7.33185,1.51065 7.498725,1.6779 7.498725,1.88415 L7.498725,1.88415 L7.49985063,3.749775 C7.500225,3.956775 7.332225,4.12515 7.125225,4.12515 L7.125225,4.12515 C6.91785,4.12515 6.750225,3.95715 6.74985,3.750525 L6.74985,3.750525 L6.7491,2.78115 L5.514975,4.015275 C5.44185,4.0884 5.34585,4.12515 5.24985,4.12515 C5.154225,4.12515 5.058225,4.0884 4.984725,4.015275 C4.838475,3.86865 4.838475,3.631275 4.984725,3.485025 L4.984725,3.485025 L6.214725,2.255025 L5.24835,2.25015 C5.040975,2.249025 4.873725,2.0799 4.87484436,1.873275 C4.875975,1.66665 5.043975,1.50015 5.24985,1.50015 L5.24985,1.50015 L5.251725,1.50015 Z" id="path-3"></path>
        <rect id="path-5" x="74" y="102.360475" width="174" height="201" rx="4"></rect>
        <filter x="-2.2%" y="-1.4%" width="104.5%" height="103.9%" filterUnits="objectBoundingBox" id="filter-6">
            <feMorphology radius="0.4" operator="dilate" in="SourceAlpha" result="shadowSpreadOuter1"></feMorphology>
            <feOffset dx="0" dy="1" in="shadowSpreadOuter1" result="shadowOffsetOuter1"></feOffset>
            <feGaussianBlur stdDeviation="1" in="shadowOffsetOuter1" result="shadowBlurOuter1"></feGaussianBlur>
            <feComposite in="shadowBlurOuter1" in2="SourceAlpha" operator="out" result="shadowBlurOuter1"></feComposite>
            <feColorMatrix values="0 0 0 0 0   0 0 0 0 0   0 0 0 0 0  0 0 0 0.5 0" type="matrix" in="shadowBlurOuter1"></feColorMatrix>
        </filter>
        <polygon id="path-7" points="3.64000006 5.32000003 7 8.67999997 10.3599999 5.32000003"></polygon>
    </defs>
    <g id="Product-Marketing-" stroke="none" stroke-width="1" fill="none" fill-rule="evenodd">
        <path d="M354.092422,0 C277.320194,0.225455336 226.647541,58.1541543 178.509445,73.2299427 C106.323904,95.8359393 37.0596883,72.0862693 7.29817054,154.738195 C2.30105814,168.615996 0.019544079,182.984675 0,197.26727 L0,197.653619 C0.065832687,242.298899 22.1856155,286.072077 52.4470502,311.439902 C68.2283797,324.670031 89.2557514,329.990777 111.88368,330 L112.01226,330 C146.865524,329.983603 185.499025,317.384749 214.647476,301.685884 C271.097977,271.280158 309.671817,283.797028 348.466813,294.710091 C416.799085,313.932208 505.410911,247.762092 499.741071,153.048305 C494.296502,62.0811763 452.541091,10.9786501 373.867944,1.20618605 C367.407083,0.403770011 361.112861,0.0184463457 354.994536,0 L354.092422,0 Z" id="Fill-1-Copy" fill="#F2F7FF"></path>
        <g id="Rectangle">
            <use fill="black" fill-opacity="1" filter="url(#filter-2)" xlink:href="#path-1"></use>
            <use stroke="#E9EBF0" stroke-width="0.55999999" fill="#FFFFFF" xlink:href="#path-1"></use>
        </g>
        <path d="M206,24.360475 L455,24.360475 C456.104569,24.360475 457,25.2559055 457,26.360475 L457,26.360475 L457,26.360475 L204,26.360475 C204,25.2559055 204.895431,24.360475 206,24.360475 Z" id="Rectangle-7-Copy-6" fill="#29CC96"></path>
        <g id="verification/button/trusted/active" transform="translate(212.000000, 32.360475)">
            <g id="verification-icon-trusted-copy-12">
                <g id="Group-15" fill="#F2FFFB" stroke="#29CC96" stroke-width="0.55999999">
                    <rect id="Rectangle-3" x="0.279999995" y="0.279999995" width="13.44" height="13.44" rx="2.23999996"></rect>
                </g>
                <path d="M10.0397886,3.98728692 C8.54646028,5.57376393 7.18641334,7.13903708 5.73502999,8.70177987 L3.89893716,7.14531496 C3.77385447,7.03896581 3.61396214,6.99016973 3.45465586,7.0089377 C3.29534958,7.02770567 3.14962217,7.11278531 3.04931375,7.24541505 C2.84044988,7.52192988 2.8829235,7.92542757 3.14371635,8.14625828 L5.40937877,10.0680572 C5.65070203,10.2726166 5.99938748,10.2513487 6.21652857,10.0180103 C7.8402533,8.29271537 9.29994408,6.59160306 10.8988976,4.8932133 C11.0794407,4.70867257 11.1331369,4.42527129 11.0346017,4.18067434 C10.9360695,3.93607739 10.7053707,3.78154874 10.4552114,3.7921827 C10.2982101,3.7971009 10.1489482,3.86716649 10.0397886,3.98728692 Z" id="Fill-1" fill="#29CC96"></path>
            </g>
        </g>
        <g id="close" transform="translate(442.000000, 35.360475)" fill="#B8BFCC">
            <path d="M5.02875,4.5 L6.64125,2.89125 C6.78829581,2.74420419 6.78829581,2.50579581 6.64125,2.35875 C6.49420419,2.21170419 6.25579581,2.21170419 6.10875,2.35875 L4.5,3.97125 L2.89125,2.35875 C2.74420418,2.21170419 2.50579582,2.21170419 2.35875,2.35875 C2.21170419,2.50579582 2.21170419,2.74420418 2.35875,2.89125 L3.97125,4.5 L2.35875,6.10875 C2.28775776,6.17916247 2.24782563,6.27501092 2.24782563,6.375 C2.24782563,6.47498908 2.28775776,6.57083753 2.35875,6.64125 C2.42916247,6.71224224 2.52501092,6.75217437 2.625,6.75217437 C2.72498908,6.75217437 2.82083753,6.71224224 2.89125,6.64125 L4.5,5.02875 L6.10875,6.64125 C6.17916247,6.71224224 6.27501092,6.75217437 6.375,6.75217437 C6.47498908,6.75217437 6.57083753,6.71224224 6.64125,6.64125 C6.71224224,6.57083753 6.75217437,6.47498908 6.75217437,6.375 C6.75217437,6.27501092 6.71224224,6.17916247 6.64125,6.10875 L5.02875,4.5 Z" id="-Icon-小olor"></path>
        </g>
        <g id="expand-window" transform="translate(429.000000, 35.360475)">
            <mask id="mask-4" fill="white">
                <use xlink:href="#path-3"></use>
            </mask>
            <use id="-Icon-小olor" fill="#B8BFCC" fill-rule="evenodd" xlink:href="#path-3"></use>
        </g>
        <path d="M421,31.360475 L421,45.360475 L421,31.360475 Z" id="Path-2" stroke="#B8BFCC" stroke-width="0.55999999"></path>
        <g id="globe" transform="translate(406.000000, 35.360475)" fill="#B8BFCC">
            <path d="M8.25,4.5 C8.25,3.50543816 7.85491185,2.55161099 7.15165043,1.84834957 C6.44838901,1.14508815 5.49456184,0.75 4.5,0.75 C2.42893219,0.75 0.75,2.42893219 0.75,4.5 C0.75,6.57106781 2.42893219,8.25 4.5,8.25 C6.57106781,8.25 8.25,6.57106781 8.25,4.5 Z M7.47375,4.125 L6.375,4.125 C6.31315234,3.24305352 6.0109749,2.39488165 5.50125,1.6725 C6.56921252,2.0517964 7.33227495,3.00054701 7.47375,4.125 Z M3.405,4.875 L5.625,4.875 C5.52903112,5.80146887 5.13414427,6.67153623 4.5,7.35375 C3.86627643,6.67438658 3.48044693,5.80098487 3.405,4.875 L3.405,4.875 Z M3.405,4.125 C3.49233211,3.20318507 3.87659587,2.33464367 4.5,1.65 C5.13926682,2.32729603 5.5350483,3.19801528 5.625,4.125 L3.405,4.125 Z M3.54,1.66125 C3.0275811,2.3876335 2.72055012,3.23877 2.65125,4.125 L1.52625,4.125 C1.67078837,2.98608776 2.45262785,2.02953554 3.54,1.66125 Z M1.52625,4.875 L2.65125,4.875 C2.71300924,5.76047499 3.0179548,6.6117273 3.5325,7.335 C2.44916128,6.96495666 1.67085708,6.01062478 1.52625,4.875 Z M5.4825,7.33125 C5.99565302,6.60775325 6.30399818,5.75915627 6.375,4.875 L7.48125,4.875 C7.33658452,6.00734451 6.56180804,6.95946195 5.4825,7.33125 L5.4825,7.33125 Z" id="-Icon-小olor"></path>
        </g>
        <path d="M204,235.360475 L457,235.360475 L457,258.120475 C457,259.357593 455.997118,260.360475 454.76,260.360475 L206.24,260.360475 C205.002882,260.360475 204,259.357593 204,258.120475 L204,235.360475 L204,235.360475 Z" id="Rectangle" stroke="#F2F3F5" stroke-width="0.55999999" fill="#F2F3F5"></path>
        <g id="icon-resize" transform="translate(206.000000, 250.360475)" fill="#8F9CB3">
            <path d="M5.69599992,6.71999989 L4.77866659,6.71999989 L6.71999989,4.77866659 L6.71999989,5.69599992 L5.69599992,6.71999989 Z M3.30666661,6.71999989 L2.38933329,6.71999989 L6.71999989,2.38933329 L6.71999989,3.30666661 L3.30666661,6.71999989 Z M0.917333316,6.71999989 L0,6.71999989 L6.71999989,0 L6.71999989,0.917333316 L0.917333316,6.71999989 Z" id="Shape" transform="translate(3.360000, 3.360000) rotate(90.000000) translate(-3.360000, -3.360000) "></path>
        </g>
        <g id="tag" transform="translate(220.000000, 242.360475)" fill="#B8BFCC">
            <path d="M4.67506187,9.625 C4.56946319,9.625 4.46386451,9.584575 4.38342802,9.5041375 L1.49596411,6.6166375 C1.33467863,6.45535 1.33467863,6.19465 1.49596411,6.0333625 L6.03340739,1.4958625 C6.11054393,1.4183125 6.21531762,1.375 6.32504125,1.375 L9.21250516,1.375 C9.4406148,1.375 9.625,1.5593875 9.625,1.7875 L9.625,4.675 C9.625,4.784725 9.58168804,4.8895 9.50413901,4.9666375 L4.96669573,9.5041375 C4.88625923,9.584575 4.78066055,9.625 4.67506187,9.625 Z M8.80001031,4.504225 L8.80001031,2.2 L6.49581411,2.2 L2.37086568,6.325 L4.67506187,8.629225 L8.80001031,4.504225 Z M7.54251057,2.75748349 C7.73581794,2.56417396 8.04923079,2.56417396 8.24253791,2.75748349 C8.43584503,2.95079328 8.43584503,3.26421005 8.24253791,3.45751958 C8.04923055,3.65082912 7.73581769,3.65082912 7.54251057,3.45751958 C7.34920345,3.2642098 7.34920345,2.95079303 7.54251057,2.75748349 L7.54251057,2.75748349 Z" id="-Icon-小olor"></path>
        </g>
        <rect id="Rectangle-12-[4-8]" fill="#FFFFFF" x="241" y="241.360475" width="51" height="11" rx="5.5"></rect>
        <path d="M238.5792,82.360475 L238.5792,81.515675 L235.6704,81.515675 L235.6704,75.957275 L234.7104,75.957275 L234.7104,82.360475 L238.5792,82.360475 Z M240.96,82.475675 C241.584,82.475675 242.112,82.254875 242.4768,81.851675 L242.4768,82.360475 L243.3408,82.360475 L243.3408,79.230875 C243.3408,78.050075 242.4864,77.608475 241.4784,77.608475 C240.7296,77.608475 240.096,77.858075 239.5776,78.366875 L239.952,78.962075 C240.3648,78.549275 240.816,78.347675 241.344,78.347675 C242.0064,78.347675 242.4768,78.693275 242.4768,79.269275 L242.4768,80.037275 C242.1216,79.624475 241.584,79.422875 240.96,79.422875 C240.1824,79.422875 239.3472,79.883675 239.3472,80.939675 C239.3472,81.957275 240.192,82.475675 240.96,82.475675 Z M241.2864,81.870875 C240.6624,81.870875 240.2208,81.496475 240.2208,80.949275 C240.2208,80.402075 240.6624,80.027675 241.2864,80.027675 C241.7664,80.027675 242.2176,80.210075 242.4768,80.555675 L242.4768,81.342875 C242.2176,81.688475 241.7664,81.870875 241.2864,81.870875 Z M246.2016,82.475675 C246.912,82.475675 247.4976,82.110875 247.8528,81.726875 L247.8528,82.360475 L248.7168,82.360475 L248.7168,77.723675 L247.8528,77.723675 L247.8528,81.054875 C247.5936,81.400475 247.104,81.707675 246.5664,81.707675 C245.9712,81.707675 245.5872,81.477275 245.5872,80.709275 L245.5872,77.723675 L244.7232,77.723675 L244.7232,80.997275 C244.7232,81.976475 245.2128,82.475675 246.2016,82.475675 Z M250.9536,82.360475 L250.9536,79.048475 C251.2032,78.702875 251.6928,78.376475 252.2304,78.376475 C252.8256,78.376475 253.2192,78.626075 253.2192,79.394075 L253.2192,82.360475 L254.0832,82.360475 L254.0832,79.106075 C254.0832,78.126875 253.5744,77.608475 252.5952,77.608475 C251.8752,77.608475 251.2608,78.002075 250.9536,78.376475 L250.9536,77.723675 L250.0896,77.723675 L250.0896,82.360475 L250.9536,82.360475 Z M257.5296,82.475675 C258.4032,82.475675 258.9312,82.110875 259.2672,81.659675 L258.6912,81.131675 C258.4128,81.515675 258.0384,81.707675 257.568,81.707675 C256.656,81.707675 256.0704,80.997275 256.0704,80.037275 C256.0704,79.077275 256.656,78.376475 257.568,78.376475 C258.0384,78.376475 258.4128,78.558875 258.6912,78.952475 L259.2672,78.424475 C258.9312,77.973275 258.4032,77.608475 257.5296,77.608475 C256.128,77.608475 255.168,78.645275 255.168,80.037275 C255.168,81.429275 256.128,82.475675 257.5296,82.475675 Z M261.0816,82.360475 L261.0816,79.048475 C261.3312,78.702875 261.8208,78.376475 262.3584,78.376475 C262.9536,78.376475 263.3472,78.606875 263.3472,79.374875 L263.3472,82.360475 L264.2112,82.360475 L264.2112,79.086875 C264.2112,78.107675 263.712,77.608475 262.7232,77.608475 C262.0128,77.608475 261.3888,78.002075 261.0816,78.376475 L261.0816,75.957275 L260.2176,75.957275 L260.2176,82.360475 L261.0816,82.360475 Z M269.0496,82.360475 L269.0496,79.893275 L270.7872,79.893275 C272.0928,79.893275 272.832,78.990875 272.832,77.925275 C272.832,76.859675 272.1024,75.957275 270.7872,75.957275 L268.0896,75.957275 L268.0896,82.360475 L269.0496,82.360475 Z M270.6624,79.048475 L269.0496,79.048475 L269.0496,76.802075 L270.6624,76.802075 C271.3536,76.802075 271.8432,77.253275 271.8432,77.925275 C271.8432,78.597275 271.3536,79.048475 270.6624,79.048475 Z M274.6656,82.360475 L274.6656,75.957275 L273.8016,75.957275 L273.8016,82.360475 L274.6656,82.360475 Z M277.3824,82.475675 C278.0064,82.475675 278.5344,82.254875 278.8992,81.851675 L278.8992,82.360475 L279.7632,82.360475 L279.7632,79.230875 C279.7632,78.050075 278.9088,77.608475 277.9008,77.608475 C277.152,77.608475 276.5184,77.858075 276,78.366875 L276.3744,78.962075 C276.7872,78.549275 277.2384,78.347675 277.7664,78.347675 C278.4288,78.347675 278.8992,78.693275 278.8992,79.269275 L278.8992,80.037275 C278.544,79.624475 278.0064,79.422875 277.3824,79.422875 C276.6048,79.422875 275.7696,79.883675 275.7696,80.939675 C275.7696,81.957275 276.6144,82.475675 277.3824,82.475675 Z M277.7088,81.870875 C277.0848,81.870875 276.6432,81.496475 276.6432,80.949275 C276.6432,80.402075 277.0848,80.027675 277.7088,80.027675 C278.1888,80.027675 278.64,80.210075 278.8992,80.555675 L278.8992,81.342875 C278.64,81.688475 278.1888,81.870875 277.7088,81.870875 Z M282.0096,82.360475 L282.0096,79.048475 C282.2592,78.702875 282.7488,78.376475 283.2864,78.376475 C283.8816,78.376475 284.2752,78.626075 284.2752,79.394075 L284.2752,82.360475 L285.1392,82.360475 L285.1392,79.106075 C285.1392,78.126875 284.6304,77.608475 283.6512,77.608475 C282.9312,77.608475 282.3168,78.002075 282.0096,78.376475 L282.0096,77.723675 L281.1456,77.723675 L281.1456,82.360475 L282.0096,82.360475 Z" id="LaunchPlan" fill="#1F3966" fill-rule="nonzero"></path>
        <path d="M235.5456,43.360475 L235.5456,40.816475 L237.3216,40.816475 C238.5888,40.816475 239.328,39.933275 239.328,38.886875 C239.328,37.840475 238.608,36.957275 237.3216,36.957275 L234.7488,36.957275 L234.7488,43.360475 L235.5456,43.360475 Z M237.2256,40.106075 L235.5456,40.106075 L235.5456,37.667675 L237.2256,37.667675 C237.984,37.667675 238.5024,38.166875 238.5024,38.886875 C238.5024,39.606875 237.984,40.106075 237.2256,40.106075 Z M241.0752,43.360475 L241.0752,40.077275 C241.2864,39.702875 241.8912,39.338075 242.3328,39.338075 C242.448,39.338075 242.5344,39.347675 242.6208,39.366875 L242.6208,38.627675 C241.9872,38.627675 241.4496,38.982875 241.0752,39.472475 L241.0752,38.723675 L240.3552,38.723675 L240.3552,43.360475 L241.0752,43.360475 Z M245.5488,43.475675 C246.96,43.475675 247.8432,42.381275 247.8432,41.037275 C247.8432,39.693275 246.96,38.608475 245.5488,38.608475 C244.1376,38.608475 243.2544,39.693275 243.2544,41.037275 C243.2544,42.381275 244.1376,43.475675 245.5488,43.475675 Z M245.5488,42.832475 C244.56,42.832475 244.0032,41.987675 244.0032,41.037275 C244.0032,40.096475 244.56,39.251675 245.5488,39.251675 C246.5376,39.251675 247.0848,40.096475 247.0848,41.037275 C247.0848,41.987675 246.5376,42.832475 245.5488,42.832475 Z M250.8096,43.475675 C251.4624,43.475675 252.0288,43.139675 252.3744,42.669275 L252.3744,43.360475 L253.0944,43.360475 L253.0944,36.957275 L252.3744,36.957275 L252.3744,39.424475 C252,38.915675 251.4336,38.608475 250.8096,38.608475 C249.5904,38.608475 248.7456,39.568475 248.7456,41.046875 C248.7456,42.554075 249.6,43.475675 250.8096,43.475675 Z M250.9824,42.832475 C250.0512,42.832475 249.4944,42.074075 249.4944,41.046875 C249.4944,40.019675 250.0512,39.251675 250.9824,39.251675 C251.5584,39.251675 252.1152,39.597275 252.3744,40.000475 L252.3744,42.102875 C252.1152,42.506075 251.5584,42.832475 250.9824,42.832475 Z M256.0128,43.475675 C256.704,43.475675 257.3088,43.110875 257.664,42.707675 L257.664,43.360475 L258.384,43.360475 L258.384,38.723675 L257.664,38.723675 L257.664,42.131675 C257.3952,42.506075 256.8576,42.832475 256.2912,42.832475 C255.6672,42.832475 255.2544,42.592475 255.2544,41.776475 L255.2544,38.723675 L254.5344,38.723675 L254.5344,41.997275 C254.5344,43.005275 255.0432,43.475675 256.0128,43.475675 Z M261.8688,43.475675 C262.7136,43.475675 263.2128,43.130075 263.568,42.669275 L263.088,42.227675 C262.7808,42.640475 262.3872,42.832475 261.9072,42.832475 C260.9184,42.832475 260.304,42.064475 260.304,41.037275 C260.304,40.010075 260.9184,39.251675 261.9072,39.251675 C262.3872,39.251675 262.7808,39.434075 263.088,39.856475 L263.568,39.414875 C263.2128,38.954075 262.7136,38.608475 261.8688,38.608475 C260.4864,38.608475 259.5552,39.664475 259.5552,41.037275 C259.5552,42.419675 260.4864,43.475675 261.8688,43.475675 Z M265.7472,43.475675 C266.1696,43.475675 266.4288,43.350875 266.6112,43.178075 L266.4,42.640475 C266.304,42.746075 266.112,42.832475 265.9104,42.832475 C265.5936,42.832475 265.44,42.582875 265.44,42.237275 L265.44,39.357275 L266.3808,39.357275 L266.3808,38.723675 L265.44,38.723675 L265.44,37.456475 L264.72,37.456475 L264.72,38.723675 L263.952,38.723675 L263.952,39.357275 L264.72,39.357275 L264.72,42.390875 C264.72,43.082075 265.0656,43.475675 265.7472,43.475675 Z M270.7008,43.360475 L270.7008,38.032475 L272.8704,43.360475 L273.1968,43.360475 L275.376,38.032475 L275.376,43.360475 L276.1728,43.360475 L276.1728,36.957275 L275.0304,36.957275 L273.0336,41.834075 L271.0464,36.957275 L269.904,36.957275 L269.904,43.360475 L270.7008,43.360475 Z M279.0048,43.475675 C279.6288,43.475675 280.1568,43.254875 280.5408,42.832475 L280.5408,43.360475 L281.2608,43.360475 L281.2608,40.173275 C281.2608,39.050075 280.4448,38.608475 279.4656,38.608475 C278.7072,38.608475 278.112,38.858075 277.6128,39.376475 L277.9488,39.875675 C278.3616,39.434075 278.8128,39.232475 279.3696,39.232475 C280.0416,39.232475 280.5408,39.587675 280.5408,40.211675 L280.5408,41.046875 C280.1664,40.614875 279.6384,40.413275 279.0048,40.413275 C278.2176,40.413275 277.3824,40.902875 277.3824,41.939675 C277.3824,42.947675 278.2176,43.475675 279.0048,43.475675 Z M279.264,42.957275 C278.592,42.957275 278.1216,42.534875 278.1216,41.949275 C278.1216,41.354075 278.592,40.931675 279.264,40.931675 C279.7728,40.931675 280.2624,41.123675 280.5408,41.507675 L280.5408,42.381275 C280.2624,42.765275 279.7728,42.957275 279.264,42.957275 Z M283.4208,43.360475 L283.4208,40.077275 C283.632,39.702875 284.2368,39.338075 284.6784,39.338075 C284.7936,39.338075 284.88,39.347675 284.9664,39.366875 L284.9664,38.627675 C284.3328,38.627675 283.7952,38.982875 283.4208,39.472475 L283.4208,38.723675 L282.7008,38.723675 L282.7008,43.360475 L283.4208,43.360475 Z M286.5888,43.360475 L286.5888,42.035675 L287.3568,41.277275 L289.0272,43.360475 L289.9488,43.360475 L287.8848,40.826075 L289.9392,38.723675 L289.0272,38.723675 L286.5888,41.190875 L286.5888,36.957275 L285.8688,36.957275 L285.8688,43.360475 L286.5888,43.360475 Z M292.896,43.475675 C293.6544,43.475675 294.2784,43.226075 294.7392,42.765275 L294.3936,42.294875 C294.0288,42.669275 293.4912,42.880475 292.9632,42.880475 C291.9648,42.880475 291.3504,42.150875 291.2928,41.277275 L295.0464,41.277275 L295.0464,41.094875 C295.0464,39.702875 294.2208,38.608475 292.8192,38.608475 C291.4944,38.608475 290.5344,39.693275 290.5344,41.037275 C290.5344,42.486875 291.5232,43.475675 292.896,43.475675 Z M294.336,40.749275 L291.2928,40.749275 C291.3312,40.038875 291.8208,39.203675 292.8096,39.203675 C293.8656,39.203675 294.3264,40.058075 294.336,40.749275 Z M297.3792,43.475675 C297.8016,43.475675 298.0608,43.350875 298.2432,43.178075 L298.032,42.640475 C297.936,42.746075 297.744,42.832475 297.5424,42.832475 C297.2256,42.832475 297.072,42.582875 297.072,42.237275 L297.072,39.357275 L298.0128,39.357275 L298.0128,38.723675 L297.072,38.723675 L297.072,37.456475 L296.352,37.456475 L296.352,38.723675 L295.584,38.723675 L295.584,39.357275 L296.352,39.357275 L296.352,42.390875 C296.352,43.082075 296.6976,43.475675 297.3792,43.475675 Z M299.3856,37.946075 C299.6544,37.946075 299.8752,37.725275 299.8752,37.456475 C299.8752,37.187675 299.6544,36.976475 299.3856,36.976475 C299.1264,36.976475 298.9056,37.187675 298.9056,37.456475 C298.9056,37.725275 299.1264,37.946075 299.3856,37.946075 Z M299.7504,43.360475 L299.7504,38.723675 L299.0304,38.723675 L299.0304,43.360475 L299.7504,43.360475 Z M301.9104,43.360475 L301.9104,39.971675 C302.1792,39.597275 302.7168,39.251675 303.2832,39.251675 C303.9072,39.251675 304.32,39.510875 304.32,40.326875 L304.32,43.360475 L305.04,43.360475 L305.04,40.106075 C305.04,39.098075 304.5312,38.608475 303.5616,38.608475 C302.8704,38.608475 302.2368,39.011675 301.9104,39.395675 L301.9104,38.723675 L301.1904,38.723675 L301.1904,43.360475 L301.9104,43.360475 Z M308.3424,45.242075 C309.4752,45.242075 310.5504,44.762075 310.5504,43.226075 L310.5504,38.723675 L309.8304,38.723675 L309.8304,39.424475 C309.456,38.915675 308.8992,38.608475 308.2752,38.608475 C307.056,38.608475 306.2112,39.530075 306.2112,41.018075 C306.2112,42.515675 307.0656,43.418075 308.2752,43.418075 C308.928,43.418075 309.4944,43.062875 309.8304,42.592475 L309.8304,43.254875 C309.8304,44.272475 309.1104,44.646875 308.3424,44.646875 C307.68,44.646875 307.2192,44.474075 306.8352,44.013275 L306.4704,44.550875 C307.0176,45.088475 307.5552,45.242075 308.3424,45.242075 Z M308.448,42.784475 C307.5168,42.784475 306.96,42.035675 306.96,41.018075 C306.96,39.990875 307.5168,39.251675 308.448,39.251675 C309.024,39.251675 309.5808,39.597275 309.8304,40.000475 L309.8304,42.026075 C309.5808,42.429275 309.024,42.784475 308.448,42.784475 Z" id="ProductMarketing" fill="#29CC96" fill-rule="nonzero"></path>
        <rect id="Rectangle" fill="#F2F3F5" x="234" y="95.360475" width="197" height="4"></rect>
        <rect id="Rectangle-Copy" fill="#F2F3F5" x="234" y="104.360475" width="197" height="4"></rect>
        <rect id="Rectangle-Copy-2" fill="#F2F3F5" x="234" y="113.360475" width="197" height="4"></rect>
        <rect id="Rectangle-Copy-3" fill="#F2F3F5" x="234" y="129.360475" width="177" height="88" rx="2.4"></rect>
        <line x1="204" y1="55.860475" x2="457" y2="55.860475" id="Line-Copy-53" stroke="#DADEE6" stroke-width="0.55999999"></line>
        <g id="Rectangle">
            <use fill="black" fill-opacity="1" filter="url(#filter-6)" xlink:href="#path-5"></use>
            <use stroke="#F2F3F5" stroke-width="0.8" fill="#FFFFFF" xlink:href="#path-5"></use>
        </g>
        <rect id="Rectangle-Copy-7" fill="#E9EBF0" x="81" y="214.360475" width="159.157895" height="34" rx="2.4"></rect>
        <g id="verification/dot/trusted/selected" transform="translate(88.578947, 222.860475)">
            <g id="Group" transform="translate(3.368421, 3.400000)">
                <rect id="Rectangle-3" stroke="#29CC96" stroke-width="0.8" fill="#29CC96" x="0" y="0" width="10.1052632" height="10.2" rx="4.8"></rect>
                <path d="M7.2467647,2.90502333 C6.16887359,4.06088515 5.18718557,5.20129844 4.13957052,6.33986819 L2.81427043,5.20587232 C2.72398518,5.12838938 2.60857417,5.09283795 2.49358618,5.10651175 C2.37859819,5.12018556 2.27341149,5.18217215 2.20100842,5.2788024 C2.05024954,5.4802632 2.08090719,5.77424009 2.26914864,5.93513103 L3.904514,7.33529878 C4.07870222,7.48433497 4.33038495,7.46883978 4.48711836,7.29883608 C5.6591302,6.04183548 6.71274159,4.80245366 7.86687344,3.56505541 C7.99719026,3.4306043 8.03594841,3.22412623 7.96482528,3.04591988 C7.89370434,2.86771353 7.72718489,2.75512837 7.54661875,2.76287597 C7.43329447,2.76645923 7.3255566,2.81750701 7.2467647,2.90502333 Z" id="Fill-1" fill="#FFFFFF"></path>
            </g>
        </g>
        <path d="M118.488,235 L118.488,233.6 L115.3296,233.6 L115.3296,227.5296 L113.7392,227.5296 L113.7392,235 L118.488,235 Z M121.0976,235.1344 C121.8032,235.1344 122.4416,234.8768 122.8112,234.44 L122.8112,235 L124.2336,235 L124.2336,231.5056 C124.2336,229.9488 123.1024,229.456 121.8704,229.456 C121.0192,229.456 120.168,229.7248 119.5072,230.3072 L120.0448,231.2592 C120.504,230.8336 121.0416,230.6208 121.624,230.6208 C122.3408,230.6208 122.8112,230.9792 122.8112,231.528 L122.8112,232.2784 C122.4528,231.8416 121.8144,231.6176 121.0976,231.6176 C120.2352,231.6176 119.216,232.0768 119.216,233.3424 C119.216,234.552 120.2352,235.1344 121.0976,235.1344 Z M121.6688,234.1712 C121.1088,234.1712 120.6496,233.88 120.6496,233.376 C120.6496,232.8496 121.1088,232.5584 121.6688,232.5584 C122.128,232.5584 122.576,232.7152 122.8112,233.0288 L122.8112,233.7008 C122.576,234.0144 122.128,234.1712 121.6688,234.1712 Z M127.392,235.1344 C128.2768,235.1344 128.9264,234.7312 129.296,234.3168 L129.296,235 L130.7184,235 L130.7184,229.5904 L129.296,229.5904 L129.296,233.2528 C129.0496,233.5664 128.6128,233.8688 128.064,233.8688 C127.4592,233.8688 127.0672,233.6224 127.0672,232.872 L127.0672,229.5904 L125.6448,229.5904 L125.6448,233.432 C125.6448,234.4848 126.2048,235.1344 127.392,235.1344 Z M133.552,235 L133.552,231.36 C133.7872,231.0352 134.224,230.7216 134.784,230.7216 C135.3888,230.7216 135.7808,230.9792 135.7808,231.7296 L135.7808,235 L137.2032,235 L137.2032,231.1808 C137.2032,230.128 136.632,229.456 135.4448,229.456 C134.56,229.456 133.8992,229.8816 133.552,230.296 L133.552,229.5904 L132.1296,229.5904 L132.1296,235 L133.552,235 Z M141.1344,235.1344 C142.2432,235.1344 142.9152,234.6528 143.2736,234.1488 L142.344,233.2864 C142.0864,233.6448 141.6944,233.8688 141.2016,233.8688 C140.3392,233.8688 139.7344,233.2304 139.7344,232.2896 C139.7344,231.3488 140.3392,230.7216 141.2016,230.7216 C141.6944,230.7216 142.0864,230.9232 142.344,231.304 L143.2736,230.4304 C142.9152,229.9376 142.2432,229.456 141.1344,229.456 C139.4656,229.456 138.2672,230.632 138.2672,232.2896 C138.2672,233.9584 139.4656,235.1344 141.1344,235.1344 Z M145.6256,235 L145.6256,231.36 C145.872,231.0352 146.3088,230.7216 146.8576,230.7216 C147.4736,230.7216 147.8656,230.9568 147.8656,231.7072 L147.8656,235 L149.288,235 L149.288,231.1584 C149.288,230.1056 148.7168,229.456 147.5296,229.456 C146.6448,229.456 145.9728,229.8816 145.6256,230.296 L145.6256,227.5296 L144.2032,227.5296 L144.2032,235 L145.6256,235 Z M155.1904,235 L155.1904,232.3232 L157.0944,232.3232 C158.7072,232.3232 159.6032,231.2368 159.6032,229.9376 C159.6032,228.6272 158.7184,227.5296 157.0944,227.5296 L153.6,227.5296 L153.6,235 L155.1904,235 Z M156.8816,230.9568 L155.1904,230.9568 L155.1904,228.896 L156.8816,228.896 C157.5088,228.896 157.9792,229.3104 157.9792,229.9264 C157.9792,230.5536 157.5088,230.9568 156.8816,230.9568 Z M161.9776,235 L161.9776,227.5296 L160.5552,227.5296 L160.5552,235 L161.9776,235 Z M164.9232,235.1344 C165.6288,235.1344 166.2672,234.8768 166.6368,234.44 L166.6368,235 L168.0592,235 L168.0592,231.5056 C168.0592,229.9488 166.928,229.456 165.696,229.456 C164.8448,229.456 163.9936,229.7248 163.3328,230.3072 L163.8704,231.2592 C164.3296,230.8336 164.8672,230.6208 165.4496,230.6208 C166.1664,230.6208 166.6368,230.9792 166.6368,231.528 L166.6368,232.2784 C166.2784,231.8416 165.64,231.6176 164.9232,231.6176 C164.0608,231.6176 163.0416,232.0768 163.0416,233.3424 C163.0416,234.552 164.0608,235.1344 164.9232,235.1344 Z M165.4944,234.1712 C164.9344,234.1712 164.4752,233.88 164.4752,233.376 C164.4752,232.8496 164.9344,232.5584 165.4944,232.5584 C165.9536,232.5584 166.4016,232.7152 166.6368,233.0288 L166.6368,233.7008 C166.4016,234.0144 165.9536,234.1712 165.4944,234.1712 Z M170.8928,235 L170.8928,231.36 C171.128,231.0352 171.5648,230.7216 172.1248,230.7216 C172.7296,230.7216 173.1216,230.9792 173.1216,231.7296 L173.1216,235 L174.544,235 L174.544,231.1808 C174.544,230.128 173.9728,229.456 172.7856,229.456 C171.9008,229.456 171.24,229.8816 170.8928,230.296 L170.8928,229.5904 L169.4704,229.5904 L169.4704,235 L170.8928,235 Z" id="LaunchPlan" fill="#1F3966" fill-rule="nonzero"></path>
        <g id="verification/dot/trusted/active" transform="translate(89.000000, 152.360475)">
            <g id="Group" transform="translate(3.364948, 3.400000)">
                <rect id="Rectangle-3" stroke="#29CC96" stroke-width="0.8" fill="#F2FFFB" x="0" y="0" width="10.0948454" height="10.2" rx="4.8"></rect>
                <path d="M7.23929381,2.90502333 C6.16251392,4.06088515 5.18183795,5.20129844 4.13530292,6.33986819 L2.81136912,5.20587232 C2.72117695,5.12838938 2.60588492,5.09283795 2.49101548,5.10651175 C2.37614603,5.12018556 2.27106777,5.18217215 2.19873934,5.2788024 C2.04813588,5.4802632 2.07876192,5.77424009 2.26680931,5.93513103 L3.90048873,7.33529878 C4.07449737,7.48433497 4.32592063,7.46883978 4.48249247,7.29883608 C5.65329605,6.04183548 6.70582124,4.80245366 7.85876326,3.56505541 C7.98894573,3.4306043 8.02766393,3.22412623 7.95661412,3.04591988 C7.8855665,2.86771353 7.71921872,2.75512837 7.53883873,2.76287597 C7.42563128,2.76645923 7.31800448,2.81750701 7.23929381,2.90502333 Z" id="Fill-1" fill="#29CC96"></path>
            </g>
        </g>
        <path d="M116.823076,163.660475 C119.141476,163.660475 120.653476,162.058875 120.653476,159.930875 C120.653476,157.814075 119.141476,156.190075 116.823076,156.190075 L114.269476,156.190075 L114.269476,163.660475 L116.823076,163.660475 Z M116.823076,162.831675 L115.199076,162.831675 L115.199076,157.018875 L116.823076,157.018875 C118.671076,157.018875 119.690276,158.318075 119.690276,159.930875 C119.690276,161.532475 118.637476,162.831675 116.823076,162.831675 Z M122.490276,157.343675 C122.803876,157.343675 123.061476,157.086075 123.061476,156.772475 C123.061476,156.458875 122.803876,156.212475 122.490276,156.212475 C122.187876,156.212475 121.930276,156.458875 121.930276,156.772475 C121.930276,157.086075 122.187876,157.343675 122.490276,157.343675 Z M122.915876,163.660475 L122.915876,158.250875 L122.075876,158.250875 L122.075876,163.660475 L122.915876,163.660475 Z M126.309476,163.794875 C127.709476,163.794875 128.437476,163.066875 128.437476,162.159675 C128.437476,160.961275 127.351076,160.692475 126.410276,160.479675 C125.704676,160.311675 125.088676,160.143675 125.088676,159.617275 C125.088676,159.135675 125.547876,158.799675 126.287076,158.799675 C126.981476,158.799675 127.575076,159.090875 127.899876,159.482875 L128.291876,158.900475 C127.855076,158.463675 127.205476,158.116475 126.287076,158.116475 C124.999076,158.116475 124.271076,158.833275 124.271076,159.673275 C124.271076,160.793275 125.312676,161.039675 126.231076,161.252475 C126.959076,161.431675 127.619876,161.622075 127.619876,162.215675 C127.619876,162.742075 127.171876,163.111675 126.343076,163.111675 C125.603876,163.111675 124.920676,162.753275 124.562276,162.338875 L124.125476,162.943675 C124.674276,163.526075 125.424676,163.794875 126.309476,163.794875 Z M131.170276,163.794875 C131.663076,163.794875 131.965476,163.649275 132.178276,163.447675 L131.931876,162.820475 C131.819876,162.943675 131.595876,163.044475 131.360676,163.044475 C130.991076,163.044475 130.811876,162.753275 130.811876,162.350075 L130.811876,158.990075 L131.909476,158.990075 L131.909476,158.250875 L130.811876,158.250875 L130.811876,156.772475 L129.971876,156.772475 L129.971876,158.250875 L129.075876,158.250875 L129.075876,158.990075 L129.971876,158.990075 L129.971876,162.529275 C129.971876,163.335675 130.375076,163.794875 131.170276,163.794875 Z M133.936676,163.660475 L133.936676,159.830075 C134.183076,159.393275 134.888676,158.967675 135.403876,158.967675 C135.538276,158.967675 135.639076,158.978875 135.739876,159.001275 L135.739876,158.138875 C135.000676,158.138875 134.373476,158.553275 133.936676,159.124475 L133.936676,158.250875 L133.096676,158.250875 L133.096676,163.660475 L133.936676,163.660475 Z M137.207076,157.343675 C137.520676,157.343675 137.778276,157.086075 137.778276,156.772475 C137.778276,156.458875 137.520676,156.212475 137.207076,156.212475 C136.904676,156.212475 136.647076,156.458875 136.647076,156.772475 C136.647076,157.086075 136.904676,157.343675 137.207076,157.343675 Z M137.632676,163.660475 L137.632676,158.250875 L136.792676,158.250875 L136.792676,163.660475 L137.632676,163.660475 Z M141.978276,163.794875 C143.389476,163.794875 144.386276,162.719675 144.386276,160.961275 C144.386276,159.236475 143.389476,158.116475 141.978276,158.116475 C141.239076,158.116475 140.589476,158.474875 140.152676,159.068475 L140.152676,156.190075 L139.312676,156.190075 L139.312676,163.660475 L140.152676,163.660475 L140.152676,162.854075 C140.555876,163.402875 141.216676,163.794875 141.978276,163.794875 Z M141.765476,163.044475 C141.104676,163.044475 140.443876,162.663675 140.152676,162.193275 L140.152676,159.740475 C140.443876,159.270075 141.104676,158.866875 141.765476,158.866875 C142.863076,158.866875 143.512676,159.762875 143.512676,160.961275 C143.512676,162.159675 142.863076,163.044475 141.765476,163.044475 Z M147.477476,163.794875 C148.283876,163.794875 148.989476,163.369275 149.403876,162.898875 L149.403876,163.660475 L150.243876,163.660475 L150.243876,158.250875 L149.403876,158.250875 L149.403876,162.226875 C149.090276,162.663675 148.463076,163.044475 147.802276,163.044475 C147.074276,163.044475 146.592676,162.764475 146.592676,161.812475 L146.592676,158.250875 L145.752676,158.250875 L145.752676,162.070075 C145.752676,163.246075 146.346276,163.794875 147.477476,163.794875 Z M153.290276,163.794875 C153.783076,163.794875 154.085476,163.649275 154.298276,163.447675 L154.051876,162.820475 C153.939876,162.943675 153.715876,163.044475 153.480676,163.044475 C153.111076,163.044475 152.931876,162.753275 152.931876,162.350075 L152.931876,158.990075 L154.029476,158.990075 L154.029476,158.250875 L152.931876,158.250875 L152.931876,156.772475 L152.091876,156.772475 L152.091876,158.250875 L151.195876,158.250875 L151.195876,158.990075 L152.091876,158.990075 L152.091876,162.529275 C152.091876,163.335675 152.495076,163.794875 153.290276,163.794875 Z M155.631076,157.343675 C155.944676,157.343675 156.202276,157.086075 156.202276,156.772475 C156.202276,156.458875 155.944676,156.212475 155.631076,156.212475 C155.328676,156.212475 155.071076,156.458875 155.071076,156.772475 C155.071076,157.086075 155.328676,157.343675 155.631076,157.343675 Z M156.056676,163.660475 L156.056676,158.250875 L155.216676,158.250875 L155.216676,163.660475 L156.056676,163.660475 Z M160.099876,163.794875 C161.746276,163.794875 162.776676,162.518075 162.776676,160.950075 C162.776676,159.382075 161.746276,158.116475 160.099876,158.116475 C158.453476,158.116475 157.423076,159.382075 157.423076,160.950075 C157.423076,162.518075 158.453476,163.794875 160.099876,163.794875 Z M160.099876,163.044475 C158.946276,163.044475 158.296676,162.058875 158.296676,160.950075 C158.296676,159.852475 158.946276,158.866875 160.099876,158.866875 C161.253476,158.866875 161.891876,159.852475 161.891876,160.950075 C161.891876,162.058875 161.253476,163.044475 160.099876,163.044475 Z M164.983076,163.660475 L164.983076,159.706875 C165.296676,159.270075 165.923876,158.866875 166.584676,158.866875 C167.312676,158.866875 167.794276,159.169275 167.794276,160.121275 L167.794276,163.660475 L168.634276,163.660475 L168.634276,159.863675 C168.634276,158.687675 168.040676,158.116475 166.909476,158.116475 C166.103076,158.116475 165.363876,158.586875 164.983076,159.034875 L164.983076,158.250875 L164.143076,158.250875 L164.143076,163.660475 L164.983076,163.660475 Z M175.656676,163.794875 C177.672676,163.794875 178.411876,162.686075 178.411876,161.599675 C178.411876,160.031675 177.023076,159.650875 175.802276,159.326075 C174.850276,159.068475 173.987876,158.844475 173.987876,158.094075 C173.987876,157.388475 174.626276,156.906875 175.522276,156.906875 C176.339876,156.906875 177.123876,157.186875 177.683876,157.802875 L178.243876,157.119675 C177.616676,156.458875 176.731876,156.078075 175.589476,156.078075 C174.122276,156.078075 173.024676,156.918075 173.024676,158.150075 C173.024676,159.617275 174.357476,159.953275 175.555876,160.266875 C176.541476,160.535675 177.448676,160.782075 177.448676,161.678075 C177.448676,162.249275 177.023076,162.966075 175.690276,162.966075 C174.637476,162.966075 173.831076,162.450875 173.338276,161.902075 L172.789476,162.607675 C173.405476,163.302075 174.357476,163.794875 175.656676,163.794875 Z M181.133476,163.794875 C181.626276,163.794875 181.928676,163.649275 182.141476,163.447675 L181.895076,162.820475 C181.783076,162.943675 181.559076,163.044475 181.323876,163.044475 C180.954276,163.044475 180.775076,162.753275 180.775076,162.350075 L180.775076,158.990075 L181.872676,158.990075 L181.872676,158.250875 L180.775076,158.250875 L180.775076,156.772475 L179.935076,156.772475 L179.935076,158.250875 L179.039076,158.250875 L179.039076,158.990075 L179.935076,158.990075 L179.935076,162.529275 C179.935076,163.335675 180.338276,163.794875 181.133476,163.794875 Z M183.899876,163.660475 L183.899876,159.830075 C184.146276,159.393275 184.851876,158.967675 185.367076,158.967675 C185.501476,158.967675 185.602276,158.978875 185.703076,159.001275 L185.703076,158.138875 C184.963876,158.138875 184.336676,158.553275 183.899876,159.124475 L183.899876,158.250875 L183.059876,158.250875 L183.059876,163.660475 L183.899876,163.660475 Z M188.346276,163.794875 C189.074276,163.794875 189.690276,163.537275 190.138276,163.044475 L190.138276,163.660475 L190.978276,163.660475 L190.978276,159.942075 C190.978276,158.631675 190.026276,158.116475 188.883876,158.116475 C187.999076,158.116475 187.304676,158.407675 186.722276,159.012475 L187.114276,159.594875 C187.595876,159.079675 188.122276,158.844475 188.771876,158.844475 C189.555876,158.844475 190.138276,159.258875 190.138276,159.986875 L190.138276,160.961275 C189.701476,160.457275 189.085476,160.222075 188.346276,160.222075 C187.427876,160.222075 186.453476,160.793275 186.453476,162.002875 C186.453476,163.178875 187.427876,163.794875 188.346276,163.794875 Z M188.648676,163.190075 C187.864676,163.190075 187.315876,162.697275 187.315876,162.014075 C187.315876,161.319675 187.864676,160.826875 188.648676,160.826875 C189.242276,160.826875 189.813476,161.050875 190.138276,161.498875 L190.138276,162.518075 C189.813476,162.966075 189.242276,163.190075 188.648676,163.190075 Z M194.024676,163.794875 C194.517476,163.794875 194.819876,163.649275 195.032676,163.447675 L194.786276,162.820475 C194.674276,162.943675 194.450276,163.044475 194.215076,163.044475 C193.845476,163.044475 193.666276,162.753275 193.666276,162.350075 L193.666276,158.990075 L194.763876,158.990075 L194.763876,158.250875 L193.666276,158.250875 L193.666276,156.772475 L192.826276,156.772475 L192.826276,158.250875 L191.930276,158.250875 L191.930276,158.990075 L192.826276,158.990075 L192.826276,162.529275 C192.826276,163.335675 193.229476,163.794875 194.024676,163.794875 Z M198.392676,163.794875 C199.277476,163.794875 200.005476,163.503675 200.543076,162.966075 L200.139876,162.417275 C199.714276,162.854075 199.087076,163.100475 198.471076,163.100475 C197.306276,163.100475 196.589476,162.249275 196.522276,161.230075 L200.901476,161.230075 L200.901476,161.017275 C200.901476,159.393275 199.938276,158.116475 198.303076,158.116475 C196.757476,158.116475 195.637476,159.382075 195.637476,160.950075 C195.637476,162.641275 196.791076,163.794875 198.392676,163.794875 Z M200.072676,160.614075 L196.522276,160.614075 C196.567076,159.785275 197.138276,158.810875 198.291876,158.810875 C199.523876,158.810875 200.061476,159.807675 200.072676,160.614075 Z M204.429476,165.855675 C205.751076,165.855675 207.005476,165.295675 207.005476,163.503675 L207.005476,158.250875 L206.165476,158.250875 L206.165476,159.068475 C205.728676,158.474875 205.079076,158.116475 204.351076,158.116475 C202.928676,158.116475 201.943076,159.191675 201.943076,160.927675 C201.943076,162.674875 202.939876,163.727675 204.351076,163.727675 C205.112676,163.727675 205.773476,163.313275 206.165476,162.764475 L206.165476,163.537275 C206.165476,164.724475 205.325476,165.161275 204.429476,165.161275 C203.656676,165.161275 203.119076,164.959675 202.671076,164.422075 L202.245476,165.049275 C202.883876,165.676475 203.511076,165.855675 204.429476,165.855675 Z M204.552676,162.988475 C203.466276,162.988475 202.816676,162.114875 202.816676,160.927675 C202.816676,159.729275 203.466276,158.866875 204.552676,158.866875 C205.224676,158.866875 205.874276,159.270075 206.165476,159.740475 L206.165476,162.103675 C205.874276,162.574075 205.224676,162.988475 204.552676,162.988475 Z M208.999076,165.855675 C209.715876,165.844475 210.264676,165.542075 210.589476,164.758075 L213.299876,158.250875 L212.381476,158.250875 L210.589476,162.686075 L208.786276,158.250875 L207.879076,158.250875 L210.141476,163.716475 L209.783076,164.534075 C209.592676,164.982075 209.346276,165.105275 208.976676,165.105275 C208.842276,165.105275 208.640676,165.071675 208.517476,165.015675 L208.383076,165.777275 C208.539876,165.822075 208.819876,165.855675 208.999076,165.855675 Z" id="DistributionStrategy" fill="#1F3966" fill-rule="nonzero"></path>
        <g id="verification/dot/trusted/active" transform="translate(89.000000, 186.360475)">
            <g id="Group" transform="translate(3.368421, 3.400000)">
                <rect id="Rectangle-3" stroke="#29CC96" stroke-width="0.8" fill="#F2FFFB" x="0" y="0" width="10.1052632" height="10.2" rx="4.8"></rect>
                <path d="M7.2467647,2.90502333 C6.16887359,4.06088515 5.18718557,5.20129844 4.13957052,6.33986819 L2.81427043,5.20587232 C2.72398518,5.12838938 2.60857417,5.09283795 2.49358618,5.10651175 C2.37859819,5.12018556 2.27341149,5.18217215 2.20100842,5.2788024 C2.05024954,5.4802632 2.08090719,5.77424009 2.26914864,5.93513103 L3.904514,7.33529878 C4.07870222,7.48433497 4.33038495,7.46883978 4.48711836,7.29883608 C5.6591302,6.04183548 6.71274159,4.80245366 7.86687344,3.56505541 C7.99719026,3.4306043 8.03594841,3.22412623 7.96482528,3.04591988 C7.89370434,2.86771353 7.72718489,2.75512837 7.54661875,2.76287597 C7.43329447,2.76645923 7.3255566,2.81750701 7.2467647,2.90502333 Z" id="Fill-1" fill="#29CC96"></path>
            </g>
        </g>
        <path d="M115.224253,197.660475 L115.224253,194.692475 L117.296253,194.692475 C118.774653,194.692475 119.637053,193.662075 119.637053,192.441275 C119.637053,191.220475 118.797053,190.190075 117.296253,190.190075 L114.294653,190.190075 L114.294653,197.660475 L115.224253,197.660475 Z M117.184253,193.863675 L115.224253,193.863675 L115.224253,191.018875 L117.184253,191.018875 C118.069053,191.018875 118.673853,191.601275 118.673853,192.441275 C118.673853,193.281275 118.069053,193.863675 117.184253,193.863675 Z M121.675453,197.660475 L121.675453,193.830075 C121.921853,193.393275 122.627453,192.967675 123.142653,192.967675 C123.277053,192.967675 123.377853,192.978875 123.478653,193.001275 L123.478653,192.138875 C122.739453,192.138875 122.112253,192.553275 121.675453,193.124475 L121.675453,192.250875 L120.835453,192.250875 L120.835453,197.660475 L121.675453,197.660475 Z M124.945853,191.343675 C125.259453,191.343675 125.517053,191.086075 125.517053,190.772475 C125.517053,190.458875 125.259453,190.212475 124.945853,190.212475 C124.643453,190.212475 124.385853,190.458875 124.385853,190.772475 C124.385853,191.086075 124.643453,191.343675 124.945853,191.343675 Z M125.371453,197.660475 L125.371453,192.250875 L124.531453,192.250875 L124.531453,197.660475 L125.371453,197.660475 Z M129.437053,197.794875 C130.422653,197.794875 131.005053,197.391675 131.419453,196.854075 L130.859453,196.338875 C130.501053,196.820475 130.041853,197.044475 129.481853,197.044475 C128.328253,197.044475 127.611453,196.148475 127.611453,194.950075 C127.611453,193.751675 128.328253,192.866875 129.481853,192.866875 C130.041853,192.866875 130.501053,193.079675 130.859453,193.572475 L131.419453,193.057275 C131.005053,192.519675 130.422653,192.116475 129.437053,192.116475 C127.824253,192.116475 126.737853,193.348475 126.737853,194.950075 C126.737853,196.562875 127.824253,197.794875 129.437053,197.794875 Z M133.009853,191.343675 C133.323453,191.343675 133.581053,191.086075 133.581053,190.772475 C133.581053,190.458875 133.323453,190.212475 133.009853,190.212475 C132.707453,190.212475 132.449853,190.458875 132.449853,190.772475 C132.449853,191.086075 132.707453,191.343675 133.009853,191.343675 Z M133.435453,197.660475 L133.435453,192.250875 L132.595453,192.250875 L132.595453,197.660475 L133.435453,197.660475 Z M135.955453,197.660475 L135.955453,193.706875 C136.269053,193.270075 136.896253,192.866875 137.557053,192.866875 C138.285053,192.866875 138.766653,193.169275 138.766653,194.121275 L138.766653,197.660475 L139.606653,197.660475 L139.606653,193.863675 C139.606653,192.687675 139.013053,192.116475 137.881853,192.116475 C137.075453,192.116475 136.336253,192.586875 135.955453,193.034875 L135.955453,192.250875 L135.115453,192.250875 L135.115453,197.660475 L135.955453,197.660475 Z M143.459453,199.855675 C144.781053,199.855675 146.035453,199.295675 146.035453,197.503675 L146.035453,192.250875 L145.195453,192.250875 L145.195453,193.068475 C144.758653,192.474875 144.109053,192.116475 143.381053,192.116475 C141.958653,192.116475 140.973053,193.191675 140.973053,194.927675 C140.973053,196.674875 141.969853,197.727675 143.381053,197.727675 C144.142653,197.727675 144.803453,197.313275 145.195453,196.764475 L145.195453,197.537275 C145.195453,198.724475 144.355453,199.161275 143.459453,199.161275 C142.686653,199.161275 142.149053,198.959675 141.701053,198.422075 L141.275453,199.049275 C141.913853,199.676475 142.541053,199.855675 143.459453,199.855675 Z M143.582653,196.988475 C142.496253,196.988475 141.846653,196.114875 141.846653,194.927675 C141.846653,193.729275 142.496253,192.866875 143.582653,192.866875 C144.254653,192.866875 144.904253,193.270075 145.195453,193.740475 L145.195453,196.103675 C144.904253,196.574075 144.254653,196.988475 143.582653,196.988475 Z" id="Pricing" fill="#1F3966" fill-rule="nonzero"></path>
        <g id="verification/dot/trusted/active" transform="translate(88.000000, 260.360475)">
            <g id="Group" transform="translate(3.383607, 3.400000)">
                <rect id="Rectangle-3" stroke="#29CC96" stroke-width="0.8" fill="#F2FFFB" x="0" y="0" width="10.1508197" height="10.2" rx="4.8"></rect>
                <path d="M7.27943454,2.90502333 C6.19668408,4.06088515 5.21057042,5.20129844 4.15823252,6.33986819 L2.82695771,5.20587232 C2.73626544,5.12838938 2.62033414,5.09283795 2.50482776,5.10651175 C2.38932138,5.12018556 2.28366048,5.18217215 2.210931,5.2788024 C2.05949247,5.4802632 2.09028833,5.77424009 2.27937841,5.93513103 L3.92211632,7.33529878 C4.09708981,7.48433497 4.34990717,7.46883978 4.50734718,7.29883608 C5.68464268,6.04183548 6.74300395,4.80245366 7.90233885,3.56505541 C8.03324316,3.4306043 8.07217605,3.22412623 8.00073228,3.04591988 C7.92929071,2.86771353 7.76202056,2.75512837 7.58064039,2.76287597 C7.46680523,2.76645923 7.35858165,2.81750701 7.27943454,2.90502333 Z" id="Fill-1" fill="#29CC96"></path>
            </g>
        </g>
        <path d="M116.182348,271.660475 L116.182348,265.018875 L118.556748,265.018875 L118.556748,264.190075 L112.889548,264.190075 L112.889548,265.018875 L115.252748,265.018875 L115.252748,271.660475 L116.182348,271.660475 Z M120.595148,271.660475 L120.595148,267.830075 C120.841548,267.393275 121.547148,266.967675 122.062348,266.967675 C122.196748,266.967675 122.297548,266.978875 122.398348,267.001275 L122.398348,266.138875 C121.659148,266.138875 121.031948,266.553275 120.595148,267.124475 L120.595148,266.250875 L119.755148,266.250875 L119.755148,271.660475 L120.595148,271.660475 Z M125.041548,271.794875 C125.769548,271.794875 126.385548,271.537275 126.833548,271.044475 L126.833548,271.660475 L127.673548,271.660475 L127.673548,267.942075 C127.673548,266.631675 126.721548,266.116475 125.579148,266.116475 C124.694348,266.116475 123.999948,266.407675 123.417548,267.012475 L123.809548,267.594875 C124.291148,267.079675 124.817548,266.844475 125.467148,266.844475 C126.251148,266.844475 126.833548,267.258875 126.833548,267.986875 L126.833548,268.961275 C126.396748,268.457275 125.780748,268.222075 125.041548,268.222075 C124.123148,268.222075 123.148748,268.793275 123.148748,270.002875 C123.148748,271.178875 124.123148,271.794875 125.041548,271.794875 Z M125.343948,271.190075 C124.559948,271.190075 124.011148,270.697275 124.011148,270.014075 C124.011148,269.319675 124.559948,268.826875 125.343948,268.826875 C125.937548,268.826875 126.508748,269.050875 126.833548,269.498875 L126.833548,270.518075 C126.508748,270.966075 125.937548,271.190075 125.343948,271.190075 Z M129.767948,265.343675 C130.081548,265.343675 130.339148,265.086075 130.339148,264.772475 C130.339148,264.458875 130.081548,264.212475 129.767948,264.212475 C129.465548,264.212475 129.207948,264.458875 129.207948,264.772475 C129.207948,265.086075 129.465548,265.343675 129.767948,265.343675 Z M130.193548,271.660475 L130.193548,266.250875 L129.353548,266.250875 L129.353548,271.660475 L130.193548,271.660475 Z M132.713548,271.660475 L132.713548,267.706875 C133.027148,267.270075 133.654348,266.866875 134.315148,266.866875 C135.043148,266.866875 135.524748,267.169275 135.524748,268.121275 L135.524748,271.660475 L136.364748,271.660475 L136.364748,267.863675 C136.364748,266.687675 135.771148,266.116475 134.639948,266.116475 C133.833548,266.116475 133.094348,266.586875 132.713548,267.034875 L132.713548,266.250875 L131.873548,266.250875 L131.873548,271.660475 L132.713548,271.660475 Z M138.459148,265.343675 C138.772748,265.343675 139.030348,265.086075 139.030348,264.772475 C139.030348,264.458875 138.772748,264.212475 138.459148,264.212475 C138.156748,264.212475 137.899148,264.458875 137.899148,264.772475 C137.899148,265.086075 138.156748,265.343675 138.459148,265.343675 Z M138.884748,271.660475 L138.884748,266.250875 L138.044748,266.250875 L138.044748,271.660475 L138.884748,271.660475 Z M141.404748,271.660475 L141.404748,267.706875 C141.718348,267.270075 142.345548,266.866875 143.006348,266.866875 C143.734348,266.866875 144.215948,267.169275 144.215948,268.121275 L144.215948,271.660475 L145.055948,271.660475 L145.055948,267.863675 C145.055948,266.687675 144.462348,266.116475 143.331148,266.116475 C142.524748,266.116475 141.785548,266.586875 141.404748,267.034875 L141.404748,266.250875 L140.564748,266.250875 L140.564748,271.660475 L141.404748,271.660475 Z M148.908748,273.855675 C150.230348,273.855675 151.484748,273.295675 151.484748,271.503675 L151.484748,266.250875 L150.644748,266.250875 L150.644748,267.068475 C150.207948,266.474875 149.558348,266.116475 148.830348,266.116475 C147.407948,266.116475 146.422348,267.191675 146.422348,268.927675 C146.422348,270.674875 147.419148,271.727675 148.830348,271.727675 C149.591948,271.727675 150.252748,271.313275 150.644748,270.764475 L150.644748,271.537275 C150.644748,272.724475 149.804748,273.161275 148.908748,273.161275 C148.135948,273.161275 147.598348,272.959675 147.150348,272.422075 L146.724748,273.049275 C147.363148,273.676475 147.990348,273.855675 148.908748,273.855675 Z M149.031948,270.988475 C147.945548,270.988475 147.295948,270.114875 147.295948,268.927675 C147.295948,267.729275 147.945548,266.866875 149.031948,266.866875 C149.703948,266.866875 150.353548,267.270075 150.644748,267.740475 L150.644748,270.103675 C150.353548,270.574075 149.703948,270.988475 149.031948,270.988475 Z M157.017548,271.660475 L157.017548,268.692475 L158.507148,268.692475 L160.411148,271.660475 L161.508748,271.660475 L159.492748,268.614075 C160.511948,268.524475 161.430348,267.785275 161.430348,266.441275 C161.430348,265.063675 160.455948,264.190075 159.089548,264.190075 L156.087948,264.190075 L156.087948,271.660475 L157.017548,271.660475 Z M158.977548,267.874875 L157.017548,267.874875 L157.017548,265.018875 L158.977548,265.018875 C159.862348,265.018875 160.467148,265.601275 160.467148,266.441275 C160.467148,267.281275 159.862348,267.874875 158.977548,267.874875 Z M165.305548,271.794875 C166.190348,271.794875 166.918348,271.503675 167.455948,270.966075 L167.052748,270.417275 C166.627148,270.854075 165.999948,271.100475 165.383948,271.100475 C164.219148,271.100475 163.502348,270.249275 163.435148,269.230075 L167.814348,269.230075 L167.814348,269.017275 C167.814348,267.393275 166.851148,266.116475 165.215948,266.116475 C163.670348,266.116475 162.550348,267.382075 162.550348,268.950075 C162.550348,270.641275 163.703948,271.794875 165.305548,271.794875 Z M166.985548,268.614075 L163.435148,268.614075 C163.479948,267.785275 164.051148,266.810875 165.204748,266.810875 C166.436748,266.810875 166.974348,267.807675 166.985548,268.614075 Z M171.555148,271.794875 C172.540748,271.794875 173.123148,271.391675 173.537548,270.854075 L172.977548,270.338875 C172.619148,270.820475 172.159948,271.044475 171.599948,271.044475 C170.446348,271.044475 169.729548,270.148475 169.729548,268.950075 C169.729548,267.751675 170.446348,266.866875 171.599948,266.866875 C172.159948,266.866875 172.619148,267.079675 172.977548,267.572475 L173.537548,267.057275 C173.123148,266.519675 172.540748,266.116475 171.555148,266.116475 C169.942348,266.116475 168.855948,267.348475 168.855948,268.950075 C168.855948,270.562875 169.942348,271.794875 171.555148,271.794875 Z M177.076748,271.794875 C178.723148,271.794875 179.753548,270.518075 179.753548,268.950075 C179.753548,267.382075 178.723148,266.116475 177.076748,266.116475 C175.430348,266.116475 174.399948,267.382075 174.399948,268.950075 C174.399948,270.518075 175.430348,271.794875 177.076748,271.794875 Z M177.076748,271.044475 C175.923148,271.044475 175.273548,270.058875 175.273548,268.950075 C175.273548,267.852475 175.923148,266.866875 177.076748,266.866875 C178.230348,266.866875 178.868748,267.852475 178.868748,268.950075 C178.868748,270.058875 178.230348,271.044475 177.076748,271.044475 Z M181.959948,271.660475 L181.959948,267.830075 C182.206348,267.393275 182.911948,266.967675 183.427148,266.967675 C183.561548,266.967675 183.662348,266.978875 183.763148,267.001275 L183.763148,266.138875 C183.023948,266.138875 182.396748,266.553275 181.959948,267.124475 L181.959948,266.250875 L181.119948,266.250875 L181.119948,271.660475 L181.959948,271.660475 Z M186.910348,271.794875 C187.671948,271.794875 188.332748,271.402875 188.735948,270.854075 L188.735948,271.660475 L189.575948,271.660475 L189.575948,264.190075 L188.735948,264.190075 L188.735948,267.068475 C188.299148,266.474875 187.638348,266.116475 186.910348,266.116475 C185.487948,266.116475 184.502348,267.236475 184.502348,268.961275 C184.502348,270.719675 185.499148,271.794875 186.910348,271.794875 Z M187.111948,271.044475 C186.025548,271.044475 185.375948,270.159675 185.375948,268.961275 C185.375948,267.762875 186.025548,266.866875 187.111948,266.866875 C187.783948,266.866875 188.433548,267.270075 188.735948,267.740475 L188.735948,270.193275 C188.433548,270.663675 187.783948,271.044475 187.111948,271.044475 Z M191.670348,265.343675 C191.983948,265.343675 192.241548,265.086075 192.241548,264.772475 C192.241548,264.458875 191.983948,264.212475 191.670348,264.212475 C191.367948,264.212475 191.110348,264.458875 191.110348,264.772475 C191.110348,265.086075 191.367948,265.343675 191.670348,265.343675 Z M192.095948,271.660475 L192.095948,266.250875 L191.255948,266.250875 L191.255948,271.660475 L192.095948,271.660475 Z M194.615948,271.660475 L194.615948,267.706875 C194.929548,267.270075 195.556748,266.866875 196.217548,266.866875 C196.945548,266.866875 197.427148,267.169275 197.427148,268.121275 L197.427148,271.660475 L198.267148,271.660475 L198.267148,267.863675 C198.267148,266.687675 197.673548,266.116475 196.542348,266.116475 C195.735948,266.116475 194.996748,266.586875 194.615948,267.034875 L194.615948,266.250875 L193.775948,266.250875 L193.775948,271.660475 L194.615948,271.660475 Z M202.119948,273.855675 C203.441548,273.855675 204.695948,273.295675 204.695948,271.503675 L204.695948,266.250875 L203.855948,266.250875 L203.855948,267.068475 C203.419148,266.474875 202.769548,266.116475 202.041548,266.116475 C200.619148,266.116475 199.633548,267.191675 199.633548,268.927675 C199.633548,270.674875 200.630348,271.727675 202.041548,271.727675 C202.803148,271.727675 203.463948,271.313275 203.855948,270.764475 L203.855948,271.537275 C203.855948,272.724475 203.015948,273.161275 202.119948,273.161275 C201.347148,273.161275 200.809548,272.959675 200.361548,272.422075 L199.935948,273.049275 C200.574348,273.676475 201.201548,273.855675 202.119948,273.855675 Z M202.243148,270.988475 C201.156748,270.988475 200.507148,270.114875 200.507148,268.927675 C200.507148,267.729275 201.156748,266.866875 202.243148,266.866875 C202.915148,266.866875 203.564748,267.270075 203.855948,267.740475 L203.855948,270.103675 C203.564748,270.574075 202.915148,270.988475 202.243148,270.988475 Z" id="TrainingRecording" fill="#1F3966" fill-rule="nonzero"></path>
        <g id="verification/dot/trusted/active" transform="translate(89.000000, 118.360475)">
            <g id="Group" transform="translate(3.364706, 3.400000)">
                <rect id="Rectangle-3" stroke="#29CC96" stroke-width="0.8" fill="#F2FFFB" x="0" y="0" width="10.0941176" height="10.2" rx="4.8"></rect>
                <path d="M7.23877195,2.90502333 C6.16206968,4.06088515 5.18146441,5.20129844 4.13500481,6.33986819 L2.81116645,5.20587232 C2.72098078,5.12838938 2.60569707,5.09283795 2.49083591,5.10651175 C2.37597474,5.12018556 2.27090406,5.18217215 2.19858084,5.2788024 C2.04798823,5.4802632 2.07861207,5.77424009 2.2666459,5.93513103 L3.90020755,7.33529878 C4.07420365,7.48433497 4.32560879,7.46883978 4.48216934,7.29883608 C5.65288852,6.04183548 6.70533784,4.80245366 7.85819674,3.56505541 C7.98836983,3.4306043 8.02708524,3.22412623 7.95604055,3.04591988 C7.88499804,2.86771353 7.71866226,2.75512837 7.53829528,2.76287597 C7.42509599,2.76645923 7.31747695,2.81750701 7.23877195,2.90502333 Z" id="Fill-1" fill="#29CC96"></path>
            </g>
        </g>
        <path d="M115.197318,129.660475 L115.197318,123.444475 L117.728518,129.660475 L118.109318,129.660475 L120.651718,123.444475 L120.651718,129.660475 L121.581318,129.660475 L121.581318,122.190075 L120.248518,122.190075 L117.918918,127.879675 L115.600518,122.190075 L114.267718,122.190075 L114.267718,129.660475 L115.197318,129.660475 Z M124.885318,129.794875 C125.613318,129.794875 126.229318,129.537275 126.677318,129.044475 L126.677318,129.660475 L127.517318,129.660475 L127.517318,125.942075 C127.517318,124.631675 126.565318,124.116475 125.422918,124.116475 C124.538118,124.116475 123.843718,124.407675 123.261318,125.012475 L123.653318,125.594875 C124.134918,125.079675 124.661318,124.844475 125.310918,124.844475 C126.094918,124.844475 126.677318,125.258875 126.677318,125.986875 L126.677318,126.961275 C126.240518,126.457275 125.624518,126.222075 124.885318,126.222075 C123.966918,126.222075 122.992518,126.793275 122.992518,128.002875 C122.992518,129.178875 123.966918,129.794875 124.885318,129.794875 Z M125.187718,129.190075 C124.403718,129.190075 123.854918,128.697275 123.854918,128.014075 C123.854918,127.319675 124.403718,126.826875 125.187718,126.826875 C125.781318,126.826875 126.352518,127.050875 126.677318,127.498875 L126.677318,128.518075 C126.352518,128.966075 125.781318,129.190075 125.187718,129.190075 Z M130.037318,129.660475 L130.037318,125.830075 C130.283718,125.393275 130.989318,124.967675 131.504518,124.967675 C131.638918,124.967675 131.739718,124.978875 131.840518,125.001275 L131.840518,124.138875 C131.101318,124.138875 130.474118,124.553275 130.037318,125.124475 L130.037318,124.250875 L129.197318,124.250875 L129.197318,129.660475 L130.037318,129.660475 Z M133.733318,129.660475 L133.733318,128.114875 L134.629318,127.230075 L136.578118,129.660475 L137.653318,129.660475 L135.245318,126.703675 L137.642118,124.250875 L136.578118,124.250875 L133.733318,127.129275 L133.733318,122.190075 L132.893318,122.190075 L132.893318,129.660475 L133.733318,129.660475 Z M141.091718,129.794875 C141.976518,129.794875 142.704518,129.503675 143.242118,128.966075 L142.838918,128.417275 C142.413318,128.854075 141.786118,129.100475 141.170118,129.100475 C140.005318,129.100475 139.288518,128.249275 139.221318,127.230075 L143.600518,127.230075 L143.600518,127.017275 C143.600518,125.393275 142.637318,124.116475 141.002118,124.116475 C139.456518,124.116475 138.336518,125.382075 138.336518,126.950075 C138.336518,128.641275 139.490118,129.794875 141.091718,129.794875 Z M142.771718,126.614075 L139.221318,126.614075 C139.266118,125.785275 139.837318,124.810875 140.990918,124.810875 C142.222918,124.810875 142.760518,125.807675 142.771718,126.614075 Z M146.322118,129.794875 C146.814918,129.794875 147.117318,129.649275 147.330118,129.447675 L147.083718,128.820475 C146.971718,128.943675 146.747718,129.044475 146.512518,129.044475 C146.142918,129.044475 145.963718,128.753275 145.963718,128.350075 L145.963718,124.990075 L147.061318,124.990075 L147.061318,124.250875 L145.963718,124.250875 L145.963718,122.772475 L145.123718,122.772475 L145.123718,124.250875 L144.227718,124.250875 L144.227718,124.990075 L145.123718,124.990075 L145.123718,128.529275 C145.123718,129.335675 145.526918,129.794875 146.322118,129.794875 Z M152.101318,129.660475 L152.101318,126.692475 L154.173318,126.692475 C155.651718,126.692475 156.514118,125.662075 156.514118,124.441275 C156.514118,123.220475 155.674118,122.190075 154.173318,122.190075 L151.171718,122.190075 L151.171718,129.660475 L152.101318,129.660475 Z M154.061318,125.863675 L152.101318,125.863675 L152.101318,123.018875 L154.061318,123.018875 C154.946118,123.018875 155.550918,123.601275 155.550918,124.441275 C155.550918,125.281275 154.946118,125.863675 154.061318,125.863675 Z M158.552518,129.660475 L158.552518,125.830075 C158.798918,125.393275 159.504518,124.967675 160.019718,124.967675 C160.154118,124.967675 160.254918,124.978875 160.355718,125.001275 L160.355718,124.138875 C159.616518,124.138875 158.989318,124.553275 158.552518,125.124475 L158.552518,124.250875 L157.712518,124.250875 L157.712518,129.660475 L158.552518,129.660475 Z M163.771718,129.794875 C165.418118,129.794875 166.448518,128.518075 166.448518,126.950075 C166.448518,125.382075 165.418118,124.116475 163.771718,124.116475 C162.125318,124.116475 161.094918,125.382075 161.094918,126.950075 C161.094918,128.518075 162.125318,129.794875 163.771718,129.794875 Z M163.771718,129.044475 C162.618118,129.044475 161.968518,128.058875 161.968518,126.950075 C161.968518,125.852475 162.618118,124.866875 163.771718,124.866875 C164.925318,124.866875 165.563718,125.852475 165.563718,126.950075 C165.563718,128.058875 164.925318,129.044475 163.771718,129.044475 Z M170.480518,129.794875 C171.891718,129.794875 172.888518,128.719675 172.888518,126.961275 C172.888518,125.236475 171.891718,124.116475 170.480518,124.116475 C169.741318,124.116475 169.091718,124.474875 168.654918,125.068475 L168.654918,122.190075 L167.814918,122.190075 L167.814918,129.660475 L168.654918,129.660475 L168.654918,128.854075 C169.058118,129.402875 169.718918,129.794875 170.480518,129.794875 Z M170.267718,129.044475 C169.606918,129.044475 168.946118,128.663675 168.654918,128.193275 L168.654918,125.740475 C168.946118,125.270075 169.606918,124.866875 170.267718,124.866875 C171.365318,124.866875 172.014918,125.762875 172.014918,126.961275 C172.014918,128.159675 171.365318,129.044475 170.267718,129.044475 Z M175.094918,129.660475 L175.094918,122.190075 L174.254918,122.190075 L174.254918,129.660475 L175.094918,129.660475 Z M179.216518,129.794875 C180.101318,129.794875 180.829318,129.503675 181.366918,128.966075 L180.963718,128.417275 C180.538118,128.854075 179.910918,129.100475 179.294918,129.100475 C178.130118,129.100475 177.413318,128.249275 177.346118,127.230075 L181.725318,127.230075 L181.725318,127.017275 C181.725318,125.393275 180.762118,124.116475 179.126918,124.116475 C177.581318,124.116475 176.461318,125.382075 176.461318,126.950075 C176.461318,128.641275 177.614918,129.794875 179.216518,129.794875 Z M180.896518,126.614075 L177.346118,126.614075 C177.390918,125.785275 177.962118,124.810875 179.115718,124.810875 C180.347718,124.810875 180.885318,125.807675 180.896518,126.614075 Z M183.920518,129.660475 L183.920518,125.706875 C184.211718,125.270075 184.794118,124.866875 185.342918,124.866875 C186.048518,124.866875 186.339718,125.303675 186.339718,125.986875 L186.339718,129.660475 L187.179718,129.660475 L187.179718,125.695675 C187.459718,125.270075 188.053318,124.866875 188.613318,124.866875 C189.307718,124.866875 189.610118,125.303675 189.610118,125.986875 L189.610118,129.660475 L190.450118,129.660475 L190.450118,125.751675 C190.450118,124.665275 189.923718,124.116475 188.938118,124.116475 C188.154118,124.116475 187.426118,124.631675 187.123718,125.124475 C186.966918,124.564475 186.496518,124.116475 185.667718,124.116475 C184.872518,124.116475 184.144518,124.687675 183.920518,125.034875 L183.920518,124.250875 L183.080518,124.250875 L183.080518,129.660475 L183.920518,129.660475 Z M193.843718,129.794875 C195.243718,129.794875 195.971718,129.066875 195.971718,128.159675 C195.971718,126.961275 194.885318,126.692475 193.944518,126.479675 C193.238918,126.311675 192.622918,126.143675 192.622918,125.617275 C192.622918,125.135675 193.082118,124.799675 193.821318,124.799675 C194.515718,124.799675 195.109318,125.090875 195.434118,125.482875 L195.826118,124.900475 C195.389318,124.463675 194.739718,124.116475 193.821318,124.116475 C192.533318,124.116475 191.805318,124.833275 191.805318,125.673275 C191.805318,126.793275 192.846918,127.039675 193.765318,127.252475 C194.493318,127.431675 195.154118,127.622075 195.154118,128.215675 C195.154118,128.742075 194.706118,129.111675 193.877318,129.111675 C193.138118,129.111675 192.454918,128.753275 192.096518,128.338875 L191.659718,128.943675 C192.208518,129.526075 192.958918,129.794875 193.843718,129.794875 Z" id="MarketProblems" fill="#1F3966" fill-rule="nonzero"></path>
        <g id="expand-accordion" transform="translate(229.000000, 231.360475) rotate(-90.000000) translate(-229.000000, -231.360475) translate(222.000000, 224.360475)">
            <mask id="mask-8" fill="white">
                <use xlink:href="#path-7"></use>
            </mask>
            <use id="-Icon-小olor" fill="#001C4D" fill-rule="evenodd" xlink:href="#path-7"></use>
        </g>
    </g>
</svg>