<svg width="500px" height="330px" viewBox="0 0 500 330" xmlns="http://www.w3.org/2000/svg" xmlns:xlink="http://www.w3.org/1999/xlink">
    <defs>
        <rect id="path-1" x="204" y="24.360475" width="253" height="236" rx="2.23999996"></rect>
        <filter x="-1.5%" y="-1.2%" width="103.0%" height="103.2%" filterUnits="objectBoundingBox" id="filter-2">
            <feMorphology radius="0.279999995" operator="dilate" in="SourceAlpha" result="shadowSpreadOuter1"></feMorphology>
            <feOffset dx="0" dy="1" in="shadowSpreadOuter1" result="shadowOffsetOuter1"></feOffset>
            <feGaussianBlur stdDeviation="1" in="shadowOffsetOuter1" result="shadowBlurOuter1"></feGaussianBlur>
            <feComposite in="shadowBlurOuter1" in2="SourceAlpha" operator="out" result="shadowBlurOuter1"></feComposite>
            <feColorMatrix values="0 0 0 0 0   0 0 0 0 0   0 0 0 0 0  0 0 0 0.5 0" type="matrix" in="shadowBlurOuter1"></feColorMatrix>
        </filter>
        <path d="M1.875,4.875 C2.08125,4.875 2.248875,5.0415 2.25,5.248125 L2.25,5.248125 L2.254875,6.214875 L3.484875,4.984875 C3.6315,4.83825 3.8685,4.83825 4.015125,4.984875 C4.16175,5.1315 4.16175,5.3685 4.015125,5.515125 L4.015125,5.515125 L2.780625,6.749625 L3.75,6.75 C3.957375,6.75 4.125,6.918 4.125,7.125375 C4.124625,7.332375 3.957,7.5 3.75,7.5 L3.75,7.5 L3.749625,7.5 L1.884,7.498875 C1.67775,7.498875 1.5105,7.332 1.509375,7.12575 L1.509375,7.12575 L1.49999436,5.251875 C1.498875,5.044875 1.666125,4.876125 1.873125,4.875 L1.873125,4.875 Z M5.251725,1.50015 L7.1256,1.509525 C7.33185,1.51065 7.498725,1.6779 7.498725,1.88415 L7.498725,1.88415 L7.49985063,3.749775 C7.500225,3.956775 7.332225,4.12515 7.125225,4.12515 L7.125225,4.12515 C6.91785,4.12515 6.750225,3.95715 6.74985,3.750525 L6.74985,3.750525 L6.7491,2.78115 L5.514975,4.015275 C5.44185,4.0884 5.34585,4.12515 5.24985,4.12515 C5.154225,4.12515 5.058225,4.0884 4.984725,4.015275 C4.838475,3.86865 4.838475,3.631275 4.984725,3.485025 L4.984725,3.485025 L6.214725,2.255025 L5.24835,2.25015 C5.040975,2.249025 4.873725,2.0799 4.87484436,1.873275 C4.875975,1.66665 5.043975,1.50015 5.24985,1.50015 L5.24985,1.50015 L5.251725,1.50015 Z" id="path-3"></path>
        <rect id="path-5" x="74" y="102.360475" width="174" height="201" rx="4"></rect>
        <filter x="-2.2%" y="-1.4%" width="104.5%" height="103.9%" filterUnits="objectBoundingBox" id="filter-6">
            <feMorphology radius="0.4" operator="dilate" in="SourceAlpha" result="shadowSpreadOuter1"></feMorphology>
            <feOffset dx="0" dy="1" in="shadowSpreadOuter1" result="shadowOffsetOuter1"></feOffset>
            <feGaussianBlur stdDeviation="1" in="shadowOffsetOuter1" result="shadowBlurOuter1"></feGaussianBlur>
            <feComposite in="shadowBlurOuter1" in2="SourceAlpha" operator="out" result="shadowBlurOuter1"></feComposite>
            <feColorMatrix values="0 0 0 0 0   0 0 0 0 0   0 0 0 0 0  0 0 0 0.5 0" type="matrix" in="shadowBlurOuter1"></feColorMatrix>
        </filter>
        <polygon id="path-7" points="3.64000006 5.32000003 7 8.67999997 10.3599999 5.32000003"></polygon>
    </defs>
    <g id="Security-Policies" stroke="none" stroke-width="1" fill="none" fill-rule="evenodd">
        <path d="M354.092422,0 C277.320194,0.225455336 226.647541,58.1541543 178.509445,73.2299427 C106.323904,95.8359393 37.0596883,72.0862693 7.29817054,154.738195 C2.30105814,168.615996 0.019544079,182.984675 0,197.26727 L0,197.653619 C0.065832687,242.298899 22.1856155,286.072077 52.4470502,311.439902 C68.2283797,324.670031 89.2557514,329.990777 111.88368,330 L112.01226,330 C146.865524,329.983603 185.499025,317.384749 214.647476,301.685884 C271.097977,271.280158 309.671817,283.797028 348.466813,294.710091 C416.799085,313.932208 505.410911,247.762092 499.741071,153.048305 C494.296502,62.0811763 452.541091,10.9786501 373.867944,1.20618605 C367.407083,0.403770011 361.112861,0.0184463457 354.994536,0 L354.092422,0 Z" id="Fill-1-Copy" fill="#F2F7FF"></path>
        <g id="Rectangle">
            <use fill="black" fill-opacity="1" filter="url(#filter-2)" xlink:href="#path-1"></use>
            <use stroke="#E9EBF0" stroke-width="0.55999999" fill="#FFFFFF" xlink:href="#path-1"></use>
        </g>
        <path d="M206,24.360475 L455,24.360475 C456.104569,24.360475 457,25.2559055 457,26.360475 L457,26.360475 L457,26.360475 L204,26.360475 C204,25.2559055 204.895431,24.360475 206,24.360475 Z" id="Rectangle-7-Copy-6" fill="#29CC96"></path>
        <g id="verification/button/trusted/active" transform="translate(212.000000, 32.360475)">
            <g id="verification-icon-trusted-copy-12">
                <g id="Group-15" fill="#F2FFFB" stroke="#29CC96" stroke-width="0.55999999">
                    <rect id="Rectangle-3" x="0.279999995" y="0.279999995" width="13.44" height="13.44" rx="2.23999996"></rect>
                </g>
                <path d="M10.0397886,3.98728692 C8.54646028,5.57376393 7.18641334,7.13903708 5.73502999,8.70177987 L3.89893716,7.14531496 C3.77385447,7.03896581 3.61396214,6.99016973 3.45465586,7.0089377 C3.29534958,7.02770567 3.14962217,7.11278531 3.04931375,7.24541505 C2.84044988,7.52192988 2.8829235,7.92542757 3.14371635,8.14625828 L5.40937877,10.0680572 C5.65070203,10.2726166 5.99938748,10.2513487 6.21652857,10.0180103 C7.8402533,8.29271537 9.29994408,6.59160306 10.8988976,4.8932133 C11.0794407,4.70867257 11.1331369,4.42527129 11.0346017,4.18067434 C10.9360695,3.93607739 10.7053707,3.78154874 10.4552114,3.7921827 C10.2982101,3.7971009 10.1489482,3.86716649 10.0397886,3.98728692 Z" id="Fill-1" fill="#29CC96"></path>
            </g>
        </g>
        <g id="close" transform="translate(442.000000, 35.360475)" fill="#B8BFCC">
            <path d="M5.02875,4.5 L6.64125,2.89125 C6.78829581,2.74420419 6.78829581,2.50579581 6.64125,2.35875 C6.49420419,2.21170419 6.25579581,2.21170419 6.10875,2.35875 L4.5,3.97125 L2.89125,2.35875 C2.74420418,2.21170419 2.50579582,2.21170419 2.35875,2.35875 C2.21170419,2.50579582 2.21170419,2.74420418 2.35875,2.89125 L3.97125,4.5 L2.35875,6.10875 C2.28775776,6.17916247 2.24782563,6.27501092 2.24782563,6.375 C2.24782563,6.47498908 2.28775776,6.57083753 2.35875,6.64125 C2.42916247,6.71224224 2.52501092,6.75217437 2.625,6.75217437 C2.72498908,6.75217437 2.82083753,6.71224224 2.89125,6.64125 L4.5,5.02875 L6.10875,6.64125 C6.17916247,6.71224224 6.27501092,6.75217437 6.375,6.75217437 C6.47498908,6.75217437 6.57083753,6.71224224 6.64125,6.64125 C6.71224224,6.57083753 6.75217437,6.47498908 6.75217437,6.375 C6.75217437,6.27501092 6.71224224,6.17916247 6.64125,6.10875 L5.02875,4.5 Z" id="-Icon-小olor"></path>
        </g>
        <g id="expand-window" transform="translate(429.000000, 35.360475)">
            <mask id="mask-4" fill="white">
                <use xlink:href="#path-3"></use>
            </mask>
            <use id="-Icon-小olor" fill="#B8BFCC" fill-rule="evenodd" xlink:href="#path-3"></use>
        </g>
        <path d="M421,31.360475 L421,45.360475 L421,31.360475 Z" id="Path-2" stroke="#B8BFCC" stroke-width="0.55999999"></path>
        <g id="globe" transform="translate(406.000000, 35.360475)" fill="#B8BFCC">
            <path d="M8.25,4.5 C8.25,3.50543816 7.85491185,2.55161099 7.15165043,1.84834957 C6.44838901,1.14508815 5.49456184,0.75 4.5,0.75 C2.42893219,0.75 0.75,2.42893219 0.75,4.5 C0.75,6.57106781 2.42893219,8.25 4.5,8.25 C6.57106781,8.25 8.25,6.57106781 8.25,4.5 Z M7.47375,4.125 L6.375,4.125 C6.31315234,3.24305352 6.0109749,2.39488165 5.50125,1.6725 C6.56921252,2.0517964 7.33227495,3.00054701 7.47375,4.125 Z M3.405,4.875 L5.625,4.875 C5.52903112,5.80146887 5.13414427,6.67153623 4.5,7.35375 C3.86627643,6.67438658 3.48044693,5.80098487 3.405,4.875 L3.405,4.875 Z M3.405,4.125 C3.49233211,3.20318507 3.87659587,2.33464367 4.5,1.65 C5.13926682,2.32729603 5.5350483,3.19801528 5.625,4.125 L3.405,4.125 Z M3.54,1.66125 C3.0275811,2.3876335 2.72055012,3.23877 2.65125,4.125 L1.52625,4.125 C1.67078837,2.98608776 2.45262785,2.02953554 3.54,1.66125 Z M1.52625,4.875 L2.65125,4.875 C2.71300924,5.76047499 3.0179548,6.6117273 3.5325,7.335 C2.44916128,6.96495666 1.67085708,6.01062478 1.52625,4.875 Z M5.4825,7.33125 C5.99565302,6.60775325 6.30399818,5.75915627 6.375,4.875 L7.48125,4.875 C7.33658452,6.00734451 6.56180804,6.95946195 5.4825,7.33125 L5.4825,7.33125 Z" id="-Icon-小olor"></path>
        </g>
        <path d="M204,235.360475 L457,235.360475 L457,258.120475 C457,259.357593 455.997118,260.360475 454.76,260.360475 L206.24,260.360475 C205.002882,260.360475 204,259.357593 204,258.120475 L204,235.360475 L204,235.360475 Z" id="Rectangle" stroke="#F2F3F5" stroke-width="0.55999999" fill="#F2F3F5"></path>
        <g id="icon-resize" transform="translate(206.000000, 250.360475)" fill="#8F9CB3">
            <path d="M5.69599992,6.71999989 L4.77866659,6.71999989 L6.71999989,4.77866659 L6.71999989,5.69599992 L5.69599992,6.71999989 Z M3.30666661,6.71999989 L2.38933329,6.71999989 L6.71999989,2.38933329 L6.71999989,3.30666661 L3.30666661,6.71999989 Z M0.917333316,6.71999989 L0,6.71999989 L6.71999989,0 L6.71999989,0.917333316 L0.917333316,6.71999989 Z" id="Shape" transform="translate(3.360000, 3.360000) rotate(90.000000) translate(-3.360000, -3.360000) "></path>
        </g>
        <g id="tag" transform="translate(220.000000, 242.360475)" fill="#B8BFCC">
            <path d="M4.67506187,9.625 C4.56946319,9.625 4.46386451,9.584575 4.38342802,9.5041375 L1.49596411,6.6166375 C1.33467863,6.45535 1.33467863,6.19465 1.49596411,6.0333625 L6.03340739,1.4958625 C6.11054393,1.4183125 6.21531762,1.375 6.32504125,1.375 L9.21250516,1.375 C9.4406148,1.375 9.625,1.5593875 9.625,1.7875 L9.625,4.675 C9.625,4.784725 9.58168804,4.8895 9.50413901,4.9666375 L4.96669573,9.5041375 C4.88625923,9.584575 4.78066055,9.625 4.67506187,9.625 Z M8.80001031,4.504225 L8.80001031,2.2 L6.49581411,2.2 L2.37086568,6.325 L4.67506187,8.629225 L8.80001031,4.504225 Z M7.54251057,2.75748349 C7.73581794,2.56417396 8.04923079,2.56417396 8.24253791,2.75748349 C8.43584503,2.95079328 8.43584503,3.26421005 8.24253791,3.45751958 C8.04923055,3.65082912 7.73581769,3.65082912 7.54251057,3.45751958 C7.34920345,3.2642098 7.34920345,2.95079303 7.54251057,2.75748349 L7.54251057,2.75748349 Z" id="-Icon-小olor"></path>
        </g>
        <rect id="Rectangle-12-[4-8]" fill="#FFFFFF" x="241" y="241.360475" width="51" height="11" rx="5.5"></rect>
        <path d="M235.6704,82.360475 L235.6704,79.893275 L237.408,79.893275 C238.7136,79.893275 239.4528,78.990875 239.4528,77.925275 C239.4528,76.859675 238.7232,75.957275 237.408,75.957275 L234.7104,75.957275 L234.7104,82.360475 L235.6704,82.360475 Z M237.2832,79.048475 L235.6704,79.048475 L235.6704,76.802075 L237.2832,76.802075 C237.9744,76.802075 238.464,77.253275 238.464,77.925275 C238.464,78.597275 237.9744,79.048475 237.2832,79.048475 Z M242.5344,82.475675 C243.2832,82.475675 243.936,82.235675 244.3968,81.784475 L243.9936,81.218075 C243.648,81.573275 243.1104,81.765275 242.6208,81.765275 C241.6896,81.765275 241.1136,81.112475 241.0464,80.325275 L244.7136,80.325275 L244.7136,80.114075 C244.7136,78.693275 243.8496,77.608475 242.4576,77.608475 C241.104,77.608475 240.1344,78.693275 240.1344,80.037275 C240.1344,81.496475 241.152,82.475675 242.5344,82.475675 Z M243.8688,79.701275 L241.0368,79.701275 C241.0848,79.067675 241.5264,78.318875 242.4576,78.318875 C243.4368,78.318875 243.8496,79.086875 243.8688,79.701275 Z M247.8528,82.475675 C249.3024,82.475675 250.1952,81.381275 250.1952,80.037275 C250.1952,78.702875 249.3024,77.608475 247.8528,77.608475 C246.4128,77.608475 245.5104,78.702875 245.5104,80.037275 C245.5104,81.381275 246.4128,82.475675 247.8528,82.475675 Z M247.8528,81.707675 C246.9312,81.707675 246.4128,80.920475 246.4128,80.037275 C246.4128,79.163675 246.9312,78.376475 247.8528,78.376475 C248.784,78.376475 249.2928,79.163675 249.2928,80.037275 C249.2928,80.920475 248.784,81.707675 247.8528,81.707675 Z M252.1536,84.126875 L252.1536,81.688475 C252.528,82.197275 253.0656,82.475675 253.6704,82.475675 C254.88,82.475675 255.7344,81.554075 255.7344,80.037275 C255.7344,78.520475 254.88,77.608475 253.6704,77.608475 C253.0464,77.608475 252.4896,77.925275 252.1536,78.386075 L252.1536,77.723675 L251.2896,77.723675 L251.2896,84.126875 L252.1536,84.126875 Z M253.44,81.707675 C252.912,81.707675 252.384,81.390875 252.1536,81.026075 L252.1536,79.058075 C252.384,78.683675 252.912,78.376475 253.44,78.376475 C254.304,78.376475 254.832,79.077275 254.832,80.037275 C254.832,81.006875 254.304,81.707675 253.44,81.707675 Z M257.6928,82.360475 L257.6928,75.957275 L256.8288,75.957275 L256.8288,82.360475 L257.6928,82.360475 Z M261.1776,82.475675 C261.9264,82.475675 262.5792,82.235675 263.04,81.784475 L262.6368,81.218075 C262.2912,81.573275 261.7536,81.765275 261.264,81.765275 C260.3328,81.765275 259.7568,81.112475 259.6896,80.325275 L263.3568,80.325275 L263.3568,80.114075 C263.3568,78.693275 262.4928,77.608475 261.1008,77.608475 C259.7472,77.608475 258.7776,78.693275 258.7776,80.037275 C258.7776,81.496475 259.7952,82.475675 261.1776,82.475675 Z M262.512,79.701275 L259.68,79.701275 C259.728,79.067675 260.1696,78.318875 261.1008,78.318875 C262.08,78.318875 262.4928,79.086875 262.512,79.701275 Z M268.2624,82.475675 C268.8864,82.475675 269.4144,82.254875 269.7792,81.851675 L269.7792,82.360475 L270.6432,82.360475 L270.6432,79.230875 C270.6432,78.050075 269.7888,77.608475 268.7808,77.608475 C268.032,77.608475 267.3984,77.858075 266.88,78.366875 L267.2544,78.962075 C267.6672,78.549275 268.1184,78.347675 268.6464,78.347675 C269.3088,78.347675 269.7792,78.693275 269.7792,79.269275 L269.7792,80.037275 C269.424,79.624475 268.8864,79.422875 268.2624,79.422875 C267.4848,79.422875 266.6496,79.883675 266.6496,80.939675 C266.6496,81.957275 267.4944,82.475675 268.2624,82.475675 Z M268.5888,81.870875 C267.9648,81.870875 267.5232,81.496475 267.5232,80.949275 C267.5232,80.402075 267.9648,80.027675 268.5888,80.027675 C269.0688,80.027675 269.52,80.210075 269.7792,80.555675 L269.7792,81.342875 C269.52,81.688475 269.0688,81.870875 268.5888,81.870875 Z M272.8896,82.360475 L272.8896,79.048475 C273.1392,78.702875 273.6288,78.376475 274.1664,78.376475 C274.7616,78.376475 275.1552,78.626075 275.1552,79.394075 L275.1552,82.360475 L276.0192,82.360475 L276.0192,79.106075 C276.0192,78.126875 275.5104,77.608475 274.5312,77.608475 C273.8112,77.608475 273.1968,78.002075 272.8896,78.376475 L272.8896,77.723675 L272.0256,77.723675 L272.0256,82.360475 L272.8896,82.360475 Z M279.1776,82.475675 C279.792,82.475675 280.3488,82.158875 280.6944,81.698075 L280.6944,82.360475 L281.5584,82.360475 L281.5584,75.957275 L280.6944,75.957275 L280.6944,78.395675 C280.32,77.896475 279.7728,77.608475 279.1776,77.608475 C277.968,77.608475 277.104,78.558875 277.104,80.046875 C277.104,81.563675 277.968,82.475675 279.1776,82.475675 Z M279.408,81.707675 C278.544,81.707675 278.0064,81.006875 278.0064,80.046875 C278.0064,79.077275 278.544,78.376475 279.408,78.376475 C279.936,78.376475 280.4544,78.683675 280.6944,79.058075 L280.6944,81.035675 C280.4544,81.410075 279.936,81.707675 279.408,81.707675 Z M287.9616,82.360475 L287.9616,76.802075 L289.9392,76.802075 L289.9392,75.957275 L285.0144,75.957275 L285.0144,76.802075 L287.0016,76.802075 L287.0016,82.360475 L287.9616,82.360475 Z M291.7824,82.360475 L291.7824,79.134875 C291.984,78.789275 292.5696,78.462875 293.0016,78.462875 C293.1168,78.462875 293.2128,78.472475 293.2992,78.491675 L293.2992,77.618075 C292.6848,77.618075 292.1376,77.973275 291.7824,78.434075 L291.7824,77.723675 L290.9184,77.723675 L290.9184,82.360475 L291.7824,82.360475 Z M295.5072,82.475675 C296.1312,82.475675 296.6592,82.254875 297.024,81.851675 L297.024,82.360475 L297.888,82.360475 L297.888,79.230875 C297.888,78.050075 297.0336,77.608475 296.0256,77.608475 C295.2768,77.608475 294.6432,77.858075 294.1248,78.366875 L294.4992,78.962075 C294.912,78.549275 295.3632,78.347675 295.8912,78.347675 C296.5536,78.347675 297.024,78.693275 297.024,79.269275 L297.024,80.037275 C296.6688,79.624475 296.1312,79.422875 295.5072,79.422875 C294.7296,79.422875 293.8944,79.883675 293.8944,80.939675 C293.8944,81.957275 294.7392,82.475675 295.5072,82.475675 Z M295.8336,81.870875 C295.2096,81.870875 294.768,81.496475 294.768,80.949275 C294.768,80.402075 295.2096,80.027675 295.8336,80.027675 C296.3136,80.027675 296.7648,80.210075 297.024,80.555675 L297.024,81.342875 C296.7648,81.688475 296.3136,81.870875 295.8336,81.870875 Z M299.6928,76.946075 C300,76.946075 300.2496,76.706075 300.2496,76.398875 C300.2496,76.091675 300,75.842075 299.6928,75.842075 C299.3952,75.842075 299.136,76.091675 299.136,76.398875 C299.136,76.706075 299.3952,76.946075 299.6928,76.946075 Z M300.1344,82.360475 L300.1344,77.723675 L299.2704,77.723675 L299.2704,82.360475 L300.1344,82.360475 Z M302.3712,82.360475 L302.3712,79.048475 C302.6208,78.702875 303.1104,78.376475 303.648,78.376475 C304.2432,78.376475 304.6368,78.626075 304.6368,79.394075 L304.6368,82.360475 L305.5008,82.360475 L305.5008,79.106075 C305.5008,78.126875 304.992,77.608475 304.0128,77.608475 C303.2928,77.608475 302.6784,78.002075 302.3712,78.376475 L302.3712,77.723675 L301.5072,77.723675 L301.5072,82.360475 L302.3712,82.360475 Z M307.296,76.946075 C307.6032,76.946075 307.8528,76.706075 307.8528,76.398875 C307.8528,76.091675 307.6032,75.842075 307.296,75.842075 C306.9984,75.842075 306.7392,76.091675 306.7392,76.398875 C306.7392,76.706075 306.9984,76.946075 307.296,76.946075 Z M307.7376,82.360475 L307.7376,77.723675 L306.8736,77.723675 L306.8736,82.360475 L307.7376,82.360475 Z M309.9744,82.360475 L309.9744,79.048475 C310.224,78.702875 310.7136,78.376475 311.2512,78.376475 C311.8464,78.376475 312.24,78.626075 312.24,79.394075 L312.24,82.360475 L313.104,82.360475 L313.104,79.106075 C313.104,78.126875 312.5952,77.608475 311.616,77.608475 C310.896,77.608475 310.2816,78.002075 309.9744,78.376475 L309.9744,77.723675 L309.1104,77.723675 L309.1104,82.360475 L309.9744,82.360475 Z M316.3392,84.242075 C317.4816,84.242075 318.6432,83.771675 318.6432,82.178075 L318.6432,77.723675 L317.7792,77.723675 L317.7792,78.395675 C317.4048,77.896475 316.8576,77.608475 316.2528,77.608475 C315.0528,77.608475 314.1888,78.510875 314.1888,79.998875 C314.1888,81.515675 315.0528,82.398875 316.2528,82.398875 C316.8768,82.398875 317.424,82.062875 317.7792,81.602075 L317.7792,82.206875 C317.7792,83.186075 317.0592,83.531675 316.3392,83.531675 C315.7056,83.531675 315.2352,83.358875 314.8512,82.917275 L314.4384,83.550875 C314.9952,84.078875 315.5616,84.242075 316.3392,84.242075 Z M316.4928,81.630875 C315.6288,81.630875 315.0912,80.958875 315.0912,79.998875 C315.0912,79.048475 315.6288,78.376475 316.4928,78.376475 C317.0112,78.376475 317.5392,78.683675 317.7792,79.058075 L317.7792,80.939675 C317.5392,81.314075 317.0112,81.630875 316.4928,81.630875 Z" id="PeopleandTraining" fill="#1F3966" fill-rule="nonzero"></path>
        <path d="M236.8224,43.475675 C238.5504,43.475675 239.184,42.525275 239.184,41.594075 C239.184,40.250075 237.9936,39.923675 236.9472,39.645275 C236.1312,39.424475 235.392,39.232475 235.392,38.589275 C235.392,37.984475 235.9392,37.571675 236.7072,37.571675 C237.408,37.571675 238.08,37.811675 238.56,38.339675 L239.04,37.754075 C238.5024,37.187675 237.744,36.861275 236.7648,36.861275 C235.5072,36.861275 234.5664,37.581275 234.5664,38.637275 C234.5664,39.894875 235.7088,40.182875 236.736,40.451675 C237.5808,40.682075 238.3584,40.893275 238.3584,41.661275 C238.3584,42.150875 237.9936,42.765275 236.8512,42.765275 C235.9488,42.765275 235.2576,42.323675 234.8352,41.853275 L234.3648,42.458075 C234.8928,43.053275 235.7088,43.475675 236.8224,43.475675 Z M242.4384,43.475675 C243.1968,43.475675 243.8208,43.226075 244.2816,42.765275 L243.936,42.294875 C243.5712,42.669275 243.0336,42.880475 242.5056,42.880475 C241.5072,42.880475 240.8928,42.150875 240.8352,41.277275 L244.5888,41.277275 L244.5888,41.094875 C244.5888,39.702875 243.7632,38.608475 242.3616,38.608475 C241.0368,38.608475 240.0768,39.693275 240.0768,41.037275 C240.0768,42.486875 241.0656,43.475675 242.4384,43.475675 Z M243.8784,40.749275 L240.8352,40.749275 C240.8736,40.038875 241.3632,39.203675 242.352,39.203675 C243.408,39.203675 243.8688,40.058075 243.8784,40.749275 Z M247.7952,43.475675 C248.64,43.475675 249.1392,43.130075 249.4944,42.669275 L249.0144,42.227675 C248.7072,42.640475 248.3136,42.832475 247.8336,42.832475 C246.8448,42.832475 246.2304,42.064475 246.2304,41.037275 C246.2304,40.010075 246.8448,39.251675 247.8336,39.251675 C248.3136,39.251675 248.7072,39.434075 249.0144,39.856475 L249.4944,39.414875 C249.1392,38.954075 248.64,38.608475 247.7952,38.608475 C246.4128,38.608475 245.4816,39.664475 245.4816,41.037275 C245.4816,42.419675 246.4128,43.475675 247.7952,43.475675 Z M251.9808,43.475675 C252.672,43.475675 253.2768,43.110875 253.632,42.707675 L253.632,43.360475 L254.352,43.360475 L254.352,38.723675 L253.632,38.723675 L253.632,42.131675 C253.3632,42.506075 252.8256,42.832475 252.2592,42.832475 C251.6352,42.832475 251.2224,42.592475 251.2224,41.776475 L251.2224,38.723675 L250.5024,38.723675 L250.5024,41.997275 C250.5024,43.005275 251.0112,43.475675 251.9808,43.475675 Z M256.512,43.360475 L256.512,40.077275 C256.7232,39.702875 257.328,39.338075 257.7696,39.338075 C257.8848,39.338075 257.9712,39.347675 258.0576,39.366875 L258.0576,38.627675 C257.424,38.627675 256.8864,38.982875 256.512,39.472475 L256.512,38.723675 L255.792,38.723675 L255.792,43.360475 L256.512,43.360475 Z M259.3152,37.946075 C259.584,37.946075 259.8048,37.725275 259.8048,37.456475 C259.8048,37.187675 259.584,36.976475 259.3152,36.976475 C259.056,36.976475 258.8352,37.187675 258.8352,37.456475 C258.8352,37.725275 259.056,37.946075 259.3152,37.946075 Z M259.68,43.360475 L259.68,38.723675 L258.96,38.723675 L258.96,43.360475 L259.68,43.360475 Z M262.2912,43.475675 C262.7136,43.475675 262.9728,43.350875 263.1552,43.178075 L262.944,42.640475 C262.848,42.746075 262.656,42.832475 262.4544,42.832475 C262.1376,42.832475 261.984,42.582875 261.984,42.237275 L261.984,39.357275 L262.9248,39.357275 L262.9248,38.723675 L261.984,38.723675 L261.984,37.456475 L261.264,37.456475 L261.264,38.723675 L260.496,38.723675 L260.496,39.357275 L261.264,39.357275 L261.264,42.390875 C261.264,43.082075 261.6096,43.475675 262.2912,43.475675 Z M264.2112,45.242075 C264.8256,45.232475 265.296,44.973275 265.5744,44.301275 L267.8976,38.723675 L267.1104,38.723675 L265.5744,42.525275 L264.0288,38.723675 L263.2512,38.723675 L265.1904,43.408475 L264.8832,44.109275 C264.72,44.493275 264.5088,44.598875 264.192,44.598875 C264.0768,44.598875 263.904,44.570075 263.7984,44.522075 L263.6832,45.174875 C263.8176,45.213275 264.0576,45.242075 264.2112,45.242075 Z M271.9488,43.360475 L271.9488,40.816475 L273.7248,40.816475 C274.992,40.816475 275.7312,39.933275 275.7312,38.886875 C275.7312,37.840475 275.0112,36.957275 273.7248,36.957275 L271.152,36.957275 L271.152,43.360475 L271.9488,43.360475 Z M273.6288,40.106075 L271.9488,40.106075 L271.9488,37.667675 L273.6288,37.667675 C274.3872,37.667675 274.9056,38.166875 274.9056,38.886875 C274.9056,39.606875 274.3872,40.106075 273.6288,40.106075 Z M278.784,43.475675 C280.1952,43.475675 281.0784,42.381275 281.0784,41.037275 C281.0784,39.693275 280.1952,38.608475 278.784,38.608475 C277.3728,38.608475 276.4896,39.693275 276.4896,41.037275 C276.4896,42.381275 277.3728,43.475675 278.784,43.475675 Z M278.784,42.832475 C277.7952,42.832475 277.2384,41.987675 277.2384,41.037275 C277.2384,40.096475 277.7952,39.251675 278.784,39.251675 C279.7728,39.251675 280.32,40.096475 280.32,41.037275 C280.32,41.987675 279.7728,42.832475 278.784,42.832475 Z M282.9696,43.360475 L282.9696,36.957275 L282.2496,36.957275 L282.2496,43.360475 L282.9696,43.360475 Z M284.7648,37.946075 C285.0336,37.946075 285.2544,37.725275 285.2544,37.456475 C285.2544,37.187675 285.0336,36.976475 284.7648,36.976475 C284.5056,36.976475 284.2848,37.187675 284.2848,37.456475 C284.2848,37.725275 284.5056,37.946075 284.7648,37.946075 Z M285.1296,43.360475 L285.1296,38.723675 L284.4096,38.723675 L284.4096,43.360475 L285.1296,43.360475 Z M288.6144,43.475675 C289.4592,43.475675 289.9584,43.130075 290.3136,42.669275 L289.8336,42.227675 C289.5264,42.640475 289.1328,42.832475 288.6528,42.832475 C287.664,42.832475 287.0496,42.064475 287.0496,41.037275 C287.0496,40.010075 287.664,39.251675 288.6528,39.251675 C289.1328,39.251675 289.5264,39.434075 289.8336,39.856475 L290.3136,39.414875 C289.9584,38.954075 289.4592,38.608475 288.6144,38.608475 C287.232,38.608475 286.3008,39.664475 286.3008,41.037275 C286.3008,42.419675 287.232,43.475675 288.6144,43.475675 Z M291.6768,37.946075 C291.9456,37.946075 292.1664,37.725275 292.1664,37.456475 C292.1664,37.187675 291.9456,36.976475 291.6768,36.976475 C291.4176,36.976475 291.1968,37.187675 291.1968,37.456475 C291.1968,37.725275 291.4176,37.946075 291.6768,37.946075 Z M292.0416,43.360475 L292.0416,38.723675 L291.3216,38.723675 L291.3216,43.360475 L292.0416,43.360475 Z M295.5744,43.475675 C296.3328,43.475675 296.9568,43.226075 297.4176,42.765275 L297.072,42.294875 C296.7072,42.669275 296.1696,42.880475 295.6416,42.880475 C294.6432,42.880475 294.0288,42.150875 293.9712,41.277275 L297.7248,41.277275 L297.7248,41.094875 C297.7248,39.702875 296.8992,38.608475 295.4976,38.608475 C294.1728,38.608475 293.2128,39.693275 293.2128,41.037275 C293.2128,42.486875 294.2016,43.475675 295.5744,43.475675 Z M297.0144,40.749275 L293.9712,40.749275 C294.0096,40.038875 294.4992,39.203675 295.488,39.203675 C296.544,39.203675 297.0048,40.058075 297.0144,40.749275 Z M300.3552,43.475675 C301.5552,43.475675 302.1792,42.851675 302.1792,42.074075 C302.1792,41.046875 301.248,40.816475 300.4416,40.634075 C299.8368,40.490075 299.3088,40.346075 299.3088,39.894875 C299.3088,39.482075 299.7024,39.194075 300.336,39.194075 C300.9312,39.194075 301.44,39.443675 301.7184,39.779675 L302.0544,39.280475 C301.68,38.906075 301.1232,38.608475 300.336,38.608475 C299.232,38.608475 298.608,39.222875 298.608,39.942875 C298.608,40.902875 299.5008,41.114075 300.288,41.296475 C300.912,41.450075 301.4784,41.613275 301.4784,42.122075 C301.4784,42.573275 301.0944,42.890075 300.384,42.890075 C299.7504,42.890075 299.1648,42.582875 298.8576,42.227675 L298.4832,42.746075 C298.9536,43.245275 299.5968,43.475675 300.3552,43.475675 Z" id="SecurityPolicies" fill="#29CC96" fill-rule="nonzero"></path>
        <rect id="Rectangle" fill="#F2F3F5" x="234" y="95.360475" width="197" height="4"></rect>
        <rect id="Rectangle-Copy" fill="#F2F3F5" x="234" y="104.360475" width="197" height="4"></rect>
        <rect id="Rectangle-Copy-2" fill="#F2F3F5" x="234" y="113.360475" width="197" height="4"></rect>
        <rect id="Rectangle-Copy-3" fill="#F2F3F5" x="234" y="129.360475" width="177" height="88" rx="2.4"></rect>
        <line x1="204" y1="55.860475" x2="457" y2="55.860475" id="Line-Copy-53" stroke="#DADEE6" stroke-width="0.55999999"></line>
        <g id="Rectangle">
            <use fill="black" fill-opacity="1" filter="url(#filter-6)" xlink:href="#path-5"></use>
            <use stroke="#F2F3F5" stroke-width="0.8" fill="#FFFFFF" xlink:href="#path-5"></use>
        </g>
        <rect id="Rectangle-Copy-7" fill="#E9EBF0" x="81" y="214.360475" width="159.157895" height="34" rx="2.4"></rect>
        <g id="verification/dot/trusted/selected" transform="translate(88.578947, 222.860475)">
            <g id="Group" transform="translate(3.368421, 3.400000)">
                <rect id="Rectangle-3" stroke="#29CC96" stroke-width="0.8" fill="#29CC96" x="0" y="0" width="10.1052632" height="10.2" rx="4.8"></rect>
                <path d="M7.2467647,2.90502333 C6.16887359,4.06088515 5.18718557,5.20129844 4.13957052,6.33986819 L2.81427043,5.20587232 C2.72398518,5.12838938 2.60857417,5.09283795 2.49358618,5.10651175 C2.37859819,5.12018556 2.27341149,5.18217215 2.20100842,5.2788024 C2.05024954,5.4802632 2.08090719,5.77424009 2.26914864,5.93513103 L3.904514,7.33529878 C4.07870222,7.48433497 4.33038495,7.46883978 4.48711836,7.29883608 C5.6591302,6.04183548 6.71274159,4.80245366 7.86687344,3.56505541 C7.99719026,3.4306043 8.03594841,3.22412623 7.96482528,3.04591988 C7.89370434,2.86771353 7.72718489,2.75512837 7.54661875,2.76287597 C7.43329447,2.76645923 7.3255566,2.81750701 7.2467647,2.90502333 Z" id="Fill-1" fill="#FFFFFF"></path>
            </g>
        </g>
        <path d="M115.3296,235 L115.3296,232.3232 L117.2336,232.3232 C118.8464,232.3232 119.7424,231.2368 119.7424,229.9376 C119.7424,228.6272 118.8576,227.5296 117.2336,227.5296 L113.7392,227.5296 L113.7392,235 L115.3296,235 Z M117.0208,230.9568 L115.3296,230.9568 L115.3296,228.896 L117.0208,228.896 C117.648,228.896 118.1184,229.3104 118.1184,229.9264 C118.1184,230.5536 117.648,230.9568 117.0208,230.9568 Z M123.2368,235.1344 C124.0768,235.1344 124.928,234.8768 125.4656,234.384 L124.8384,233.4656 C124.4912,233.8016 123.8976,234.0032 123.3936,234.0032 C122.4752,234.0032 121.9264,233.432 121.8368,232.7488 L125.8576,232.7488 L125.8576,232.4352 C125.8576,230.6656 124.76,229.456 123.1472,229.456 C121.5008,229.456 120.3472,230.7216 120.3472,232.2896 C120.3472,234.0256 121.5904,235.1344 123.2368,235.1344 Z M124.48,231.7856 L121.8144,231.7856 C121.8816,231.248 122.2624,230.5872 123.1472,230.5872 C124.088,230.5872 124.4464,231.2704 124.48,231.7856 Z M129.3968,235.1344 C131.1888,235.1344 132.264,233.8352 132.264,232.2896 C132.264,230.7552 131.1888,229.456 129.3968,229.456 C127.616,229.456 126.5408,230.7552 126.5408,232.2896 C126.5408,233.8352 127.616,235.1344 129.3968,235.1344 Z M129.3968,233.8688 C128.512,233.8688 128.0192,233.1408 128.0192,232.2896 C128.0192,231.4496 128.512,230.7216 129.3968,230.7216 C130.2816,230.7216 130.7856,231.4496 130.7856,232.2896 C130.7856,233.1408 130.2816,233.8688 129.3968,233.8688 Z M134.7392,237.0608 L134.7392,234.3056 C135.176,234.8656 135.7696,235.1344 136.408,235.1344 C137.7968,235.1344 138.8048,234.0928 138.8048,232.2896 C138.8048,230.4864 137.7968,229.456 136.408,229.456 C135.7472,229.456 135.1536,229.7472 134.7392,230.2736 L134.7392,229.5904 L133.3168,229.5904 L133.3168,237.0608 L134.7392,237.0608 Z M135.96,233.8688 C135.5008,233.8688 134.9744,233.5888 134.7392,233.2528 L134.7392,231.3376 C134.9744,230.9904 135.5008,230.7216 135.96,230.7216 C136.7776,230.7216 137.3264,231.36 137.3264,232.2896 C137.3264,233.2304 136.7776,233.8688 135.96,233.8688 Z M141.2912,235 L141.2912,227.5296 L139.8688,227.5296 L139.8688,235 L141.2912,235 Z M145.2448,235.1344 C146.0848,235.1344 146.936,234.8768 147.4736,234.384 L146.8464,233.4656 C146.4992,233.8016 145.9056,234.0032 145.4016,234.0032 C144.4832,234.0032 143.9344,233.432 143.8448,232.7488 L147.8656,232.7488 L147.8656,232.4352 C147.8656,230.6656 146.768,229.456 145.1552,229.456 C143.5088,229.456 142.3552,230.7216 142.3552,232.2896 C142.3552,234.0256 143.5984,235.1344 145.2448,235.1344 Z M146.488,231.7856 L143.8224,231.7856 C143.8896,231.248 144.2704,230.5872 145.1552,230.5872 C146.096,230.5872 146.4544,231.2704 146.488,231.7856 Z M153.2976,235.1344 C154.0032,235.1344 154.6416,234.8768 155.0112,234.44 L155.0112,235 L156.4336,235 L156.4336,231.5056 C156.4336,229.9488 155.3024,229.456 154.0704,229.456 C153.2192,229.456 152.368,229.7248 151.7072,230.3072 L152.2448,231.2592 C152.704,230.8336 153.2416,230.6208 153.824,230.6208 C154.5408,230.6208 155.0112,230.9792 155.0112,231.528 L155.0112,232.2784 C154.6528,231.8416 154.0144,231.6176 153.2976,231.6176 C152.4352,231.6176 151.416,232.0768 151.416,233.3424 C151.416,234.552 152.4352,235.1344 153.2976,235.1344 Z M153.8688,234.1712 C153.3088,234.1712 152.8496,233.88 152.8496,233.376 C152.8496,232.8496 153.3088,232.5584 153.8688,232.5584 C154.328,232.5584 154.776,232.7152 155.0112,233.0288 L155.0112,233.7008 C154.776,234.0144 154.328,234.1712 153.8688,234.1712 Z M159.2672,235 L159.2672,231.36 C159.5024,231.0352 159.9392,230.7216 160.4992,230.7216 C161.104,230.7216 161.496,230.9792 161.496,231.7296 L161.496,235 L162.9184,235 L162.9184,231.1808 C162.9184,230.128 162.3472,229.456 161.16,229.456 C160.2752,229.456 159.6144,229.8816 159.2672,230.296 L159.2672,229.5904 L157.8448,229.5904 L157.8448,235 L159.2672,235 Z M166.3792,235.1344 C167.0288,235.1344 167.6224,234.8432 168.048,234.3056 L168.048,235 L169.4816,235 L169.4816,227.5296 L168.048,227.5296 L168.048,230.2848 C167.6224,229.736 167.0176,229.456 166.3792,229.456 C165.0016,229.456 163.9824,230.5312 163.9824,232.3008 C163.9824,234.104 165.0128,235.1344 166.3792,235.1344 Z M166.816,233.8688 C166.0096,233.8688 165.4496,233.2304 165.4496,232.3008 C165.4496,231.36 166.0096,230.7216 166.816,230.7216 C167.2976,230.7216 167.8128,230.9792 168.048,231.3376 L168.048,233.2528 C167.8128,233.6112 167.2976,233.8688 166.816,233.8688 Z M177.12,235 L177.12,228.9296 L179.2928,228.9296 L179.2928,227.5296 L173.3344,227.5296 L173.3344,228.9296 L175.5184,228.9296 L175.5184,235 L177.12,235 Z M181.7008,235 L181.7008,231.4272 C181.936,231.08 182.5632,230.8112 183.0336,230.8112 C183.1904,230.8112 183.3248,230.8336 183.4256,230.856 L183.4256,229.4672 C182.7536,229.4672 182.0816,229.848 181.7008,230.3296 L181.7008,229.5904 L180.2784,229.5904 L180.2784,235 L181.7008,235 Z M185.8448,235.1344 C186.5504,235.1344 187.1888,234.8768 187.5584,234.44 L187.5584,235 L188.9808,235 L188.9808,231.5056 C188.9808,229.9488 187.8496,229.456 186.6176,229.456 C185.7664,229.456 184.9152,229.7248 184.2544,230.3072 L184.792,231.2592 C185.2512,230.8336 185.7888,230.6208 186.3712,230.6208 C187.088,230.6208 187.5584,230.9792 187.5584,231.528 L187.5584,232.2784 C187.2,231.8416 186.5616,231.6176 185.8448,231.6176 C184.9824,231.6176 183.9632,232.0768 183.9632,233.3424 C183.9632,234.552 184.9824,235.1344 185.8448,235.1344 Z M186.416,234.1712 C185.856,234.1712 185.3968,233.88 185.3968,233.376 C185.3968,232.8496 185.856,232.5584 186.416,232.5584 C186.8752,232.5584 187.3232,232.7152 187.5584,233.0288 L187.5584,233.7008 C187.3232,234.0144 186.8752,234.1712 186.416,234.1712 Z M191.0976,228.7952 C191.568,228.7952 191.9488,228.4144 191.9488,227.944 C191.9488,227.4736 191.568,227.0928 191.0976,227.0928 C190.6384,227.0928 190.2464,227.4736 190.2464,227.944 C190.2464,228.4144 190.6384,228.7952 191.0976,228.7952 Z M191.8144,235 L191.8144,229.5904 L190.392,229.5904 L190.392,235 L191.8144,235 Z M194.648,235 L194.648,231.36 C194.8832,231.0352 195.32,230.7216 195.88,230.7216 C196.4848,230.7216 196.8768,230.9792 196.8768,231.7296 L196.8768,235 L198.2992,235 L198.2992,231.1808 C198.2992,230.128 197.728,229.456 196.5408,229.456 C195.656,229.456 194.9952,229.8816 194.648,230.296 L194.648,229.5904 L193.2256,229.5904 L193.2256,235 L194.648,235 Z M200.416,228.7952 C200.8864,228.7952 201.2672,228.4144 201.2672,227.944 C201.2672,227.4736 200.8864,227.0928 200.416,227.0928 C199.9568,227.0928 199.5648,227.4736 199.5648,227.944 C199.5648,228.4144 199.9568,228.7952 200.416,228.7952 Z M201.1328,235 L201.1328,229.5904 L199.7104,229.5904 L199.7104,235 L201.1328,235 Z M203.9664,235 L203.9664,231.36 C204.2016,231.0352 204.6384,230.7216 205.1984,230.7216 C205.8032,230.7216 206.1952,230.9792 206.1952,231.7296 L206.1952,235 L207.6176,235 L207.6176,231.1808 C207.6176,230.128 207.0464,229.456 205.8592,229.456 C204.9744,229.456 204.3136,229.8816 203.9664,230.296 L203.9664,229.5904 L202.544,229.5904 L202.544,235 L203.9664,235 Z M211.2464,237.1952 C212.5792,237.1952 214.1696,236.6912 214.1696,234.6304 L214.1696,229.5904 L212.736,229.5904 L212.736,230.2848 C212.2992,229.736 211.7168,229.456 211.0672,229.456 C209.7008,229.456 208.6816,230.4416 208.6816,232.2112 C208.6816,234.0144 209.712,234.9664 211.0672,234.9664 C211.728,234.9664 212.3104,234.6528 212.736,234.1152 L212.736,234.664 C212.736,235.728 211.9296,236.0304 211.2464,236.0304 C210.5632,236.0304 209.992,235.84 209.5552,235.3584 L208.9168,236.3888 C209.6,236.9824 210.3168,237.1952 211.2464,237.1952 Z M211.5152,233.7008 C210.7088,233.7008 210.1488,233.1408 210.1488,232.2112 C210.1488,231.2816 210.7088,230.7216 211.5152,230.7216 C211.9856,230.7216 212.5008,230.9792 212.736,231.3376 L212.736,233.0848 C212.5008,233.432 211.9856,233.7008 211.5152,233.7008 Z" id="PeopleandTraining" fill="#1F3966" fill-rule="nonzero"></path>
        <g id="verification/dot/trusted/active" transform="translate(89.000000, 152.360475)">
            <g id="Group" transform="translate(3.364948, 3.400000)">
                <rect id="Rectangle-3" stroke="#29CC96" stroke-width="0.8" fill="#F2FFFB" x="0" y="0" width="10.0948454" height="10.2" rx="4.8"></rect>
                <path d="M7.23929381,2.90502333 C6.16251392,4.06088515 5.18183795,5.20129844 4.13530292,6.33986819 L2.81136912,5.20587232 C2.72117695,5.12838938 2.60588492,5.09283795 2.49101548,5.10651175 C2.37614603,5.12018556 2.27106777,5.18217215 2.19873934,5.2788024 C2.04813588,5.4802632 2.07876192,5.77424009 2.26680931,5.93513103 L3.90048873,7.33529878 C4.07449737,7.48433497 4.32592063,7.46883978 4.48249247,7.29883608 C5.65329605,6.04183548 6.70582124,4.80245366 7.85876326,3.56505541 C7.98894573,3.4306043 8.02766393,3.22412623 7.95661412,3.04591988 C7.8855665,2.86771353 7.71921872,2.75512837 7.53883873,2.76287597 C7.42563128,2.76645923 7.31800448,2.81750701 7.23929381,2.90502333 Z" id="Fill-1" fill="#29CC96"></path>
            </g>
        </g>
        <path d="M115.199076,163.660475 L115.199076,160.692475 L116.688676,160.692475 L118.592676,163.660475 L119.690276,163.660475 L117.674276,160.614075 C118.693476,160.524475 119.611876,159.785275 119.611876,158.441275 C119.611876,157.063675 118.637476,156.190075 117.271076,156.190075 L114.269476,156.190075 L114.269476,163.660475 L115.199076,163.660475 Z M117.159076,159.874875 L115.199076,159.874875 L115.199076,157.018875 L117.159076,157.018875 C118.043876,157.018875 118.648676,157.601275 118.648676,158.441275 C118.648676,159.281275 118.043876,159.874875 117.159076,159.874875 Z M121.459876,157.343675 C121.773476,157.343675 122.031076,157.086075 122.031076,156.772475 C122.031076,156.458875 121.773476,156.212475 121.459876,156.212475 C121.157476,156.212475 120.899876,156.458875 120.899876,156.772475 C120.899876,157.086075 121.157476,157.343675 121.459876,157.343675 Z M121.885476,163.660475 L121.885476,158.250875 L121.045476,158.250875 L121.045476,163.660475 L121.885476,163.660475 Z M125.279076,163.794875 C126.679076,163.794875 127.407076,163.066875 127.407076,162.159675 C127.407076,160.961275 126.320676,160.692475 125.379876,160.479675 C124.674276,160.311675 124.058276,160.143675 124.058276,159.617275 C124.058276,159.135675 124.517476,158.799675 125.256676,158.799675 C125.951076,158.799675 126.544676,159.090875 126.869476,159.482875 L127.261476,158.900475 C126.824676,158.463675 126.175076,158.116475 125.256676,158.116475 C123.968676,158.116475 123.240676,158.833275 123.240676,159.673275 C123.240676,160.793275 124.282276,161.039675 125.200676,161.252475 C125.928676,161.431675 126.589476,161.622075 126.589476,162.215675 C126.589476,162.742075 126.141476,163.111675 125.312676,163.111675 C124.573476,163.111675 123.890276,162.753275 123.531876,162.338875 L123.095076,162.943675 C123.643876,163.526075 124.394276,163.794875 125.279076,163.794875 Z M129.613476,163.660475 L129.613476,162.114875 L130.509476,161.230075 L132.458276,163.660475 L133.533476,163.660475 L131.125476,160.703675 L133.522276,158.250875 L132.458276,158.250875 L129.613476,161.129275 L129.613476,156.190075 L128.773476,156.190075 L128.773476,163.660475 L129.613476,163.660475 Z M138.383076,163.660475 L138.383076,157.444475 L140.914276,163.660475 L141.295076,163.660475 L143.837476,157.444475 L143.837476,163.660475 L144.767076,163.660475 L144.767076,156.190075 L143.434276,156.190075 L141.104676,161.879675 L138.786276,156.190075 L137.453476,156.190075 L137.453476,163.660475 L138.383076,163.660475 Z M148.071076,163.794875 C148.799076,163.794875 149.415076,163.537275 149.863076,163.044475 L149.863076,163.660475 L150.703076,163.660475 L150.703076,159.942075 C150.703076,158.631675 149.751076,158.116475 148.608676,158.116475 C147.723876,158.116475 147.029476,158.407675 146.447076,159.012475 L146.839076,159.594875 C147.320676,159.079675 147.847076,158.844475 148.496676,158.844475 C149.280676,158.844475 149.863076,159.258875 149.863076,159.986875 L149.863076,160.961275 C149.426276,160.457275 148.810276,160.222075 148.071076,160.222075 C147.152676,160.222075 146.178276,160.793275 146.178276,162.002875 C146.178276,163.178875 147.152676,163.794875 148.071076,163.794875 Z M148.373476,163.190075 C147.589476,163.190075 147.040676,162.697275 147.040676,162.014075 C147.040676,161.319675 147.589476,160.826875 148.373476,160.826875 C148.967076,160.826875 149.538276,161.050875 149.863076,161.498875 L149.863076,162.518075 C149.538276,162.966075 148.967076,163.190075 148.373476,163.190075 Z M153.223076,163.660475 L153.223076,159.706875 C153.536676,159.270075 154.163876,158.866875 154.824676,158.866875 C155.552676,158.866875 156.034276,159.169275 156.034276,160.121275 L156.034276,163.660475 L156.874276,163.660475 L156.874276,159.863675 C156.874276,158.687675 156.280676,158.116475 155.149476,158.116475 C154.343076,158.116475 153.603876,158.586875 153.223076,159.034875 L153.223076,158.250875 L152.383076,158.250875 L152.383076,163.660475 L153.223076,163.660475 Z M160.144676,163.794875 C160.872676,163.794875 161.488676,163.537275 161.936676,163.044475 L161.936676,163.660475 L162.776676,163.660475 L162.776676,159.942075 C162.776676,158.631675 161.824676,158.116475 160.682276,158.116475 C159.797476,158.116475 159.103076,158.407675 158.520676,159.012475 L158.912676,159.594875 C159.394276,159.079675 159.920676,158.844475 160.570276,158.844475 C161.354276,158.844475 161.936676,159.258875 161.936676,159.986875 L161.936676,160.961275 C161.499876,160.457275 160.883876,160.222075 160.144676,160.222075 C159.226276,160.222075 158.251876,160.793275 158.251876,162.002875 C158.251876,163.178875 159.226276,163.794875 160.144676,163.794875 Z M160.447076,163.190075 C159.663076,163.190075 159.114276,162.697275 159.114276,162.014075 C159.114276,161.319675 159.663076,160.826875 160.447076,160.826875 C161.040676,160.826875 161.611876,161.050875 161.936676,161.498875 L161.936676,162.518075 C161.611876,162.966075 161.040676,163.190075 160.447076,163.190075 Z M166.629476,165.855675 C167.951076,165.855675 169.205476,165.295675 169.205476,163.503675 L169.205476,158.250875 L168.365476,158.250875 L168.365476,159.068475 C167.928676,158.474875 167.279076,158.116475 166.551076,158.116475 C165.128676,158.116475 164.143076,159.191675 164.143076,160.927675 C164.143076,162.674875 165.139876,163.727675 166.551076,163.727675 C167.312676,163.727675 167.973476,163.313275 168.365476,162.764475 L168.365476,163.537275 C168.365476,164.724475 167.525476,165.161275 166.629476,165.161275 C165.856676,165.161275 165.319076,164.959675 164.871076,164.422075 L164.445476,165.049275 C165.083876,165.676475 165.711076,165.855675 166.629476,165.855675 Z M166.752676,162.988475 C165.666276,162.988475 165.016676,162.114875 165.016676,160.927675 C165.016676,159.729275 165.666276,158.866875 166.752676,158.866875 C167.424676,158.866875 168.074276,159.270075 168.365476,159.740475 L168.365476,162.103675 C168.074276,162.574075 167.424676,162.988475 166.752676,162.988475 Z M173.327076,163.794875 C174.211876,163.794875 174.939876,163.503675 175.477476,162.966075 L175.074276,162.417275 C174.648676,162.854075 174.021476,163.100475 173.405476,163.100475 C172.240676,163.100475 171.523876,162.249275 171.456676,161.230075 L175.835876,161.230075 L175.835876,161.017275 C175.835876,159.393275 174.872676,158.116475 173.237476,158.116475 C171.691876,158.116475 170.571876,159.382075 170.571876,160.950075 C170.571876,162.641275 171.725476,163.794875 173.327076,163.794875 Z M175.007076,160.614075 L171.456676,160.614075 C171.501476,159.785275 172.072676,158.810875 173.226276,158.810875 C174.458276,158.810875 174.995876,159.807675 175.007076,160.614075 Z M178.031076,163.660475 L178.031076,159.706875 C178.322276,159.270075 178.904676,158.866875 179.453476,158.866875 C180.159076,158.866875 180.450276,159.303675 180.450276,159.986875 L180.450276,163.660475 L181.290276,163.660475 L181.290276,159.695675 C181.570276,159.270075 182.163876,158.866875 182.723876,158.866875 C183.418276,158.866875 183.720676,159.303675 183.720676,159.986875 L183.720676,163.660475 L184.560676,163.660475 L184.560676,159.751675 C184.560676,158.665275 184.034276,158.116475 183.048676,158.116475 C182.264676,158.116475 181.536676,158.631675 181.234276,159.124475 C181.077476,158.564475 180.607076,158.116475 179.778276,158.116475 C178.983076,158.116475 178.255076,158.687675 178.031076,159.034875 L178.031076,158.250875 L177.191076,158.250875 L177.191076,163.660475 L178.031076,163.660475 Z M188.682276,163.794875 C189.567076,163.794875 190.295076,163.503675 190.832676,162.966075 L190.429476,162.417275 C190.003876,162.854075 189.376676,163.100475 188.760676,163.100475 C187.595876,163.100475 186.879076,162.249275 186.811876,161.230075 L191.191076,161.230075 L191.191076,161.017275 C191.191076,159.393275 190.227876,158.116475 188.592676,158.116475 C187.047076,158.116475 185.927076,159.382075 185.927076,160.950075 C185.927076,162.641275 187.080676,163.794875 188.682276,163.794875 Z M190.362276,160.614075 L186.811876,160.614075 C186.856676,159.785275 187.427876,158.810875 188.581476,158.810875 C189.813476,158.810875 190.351076,159.807675 190.362276,160.614075 Z M193.386276,163.660475 L193.386276,159.706875 C193.699876,159.270075 194.327076,158.866875 194.987876,158.866875 C195.715876,158.866875 196.197476,159.169275 196.197476,160.121275 L196.197476,163.660475 L197.037476,163.660475 L197.037476,159.863675 C197.037476,158.687675 196.443876,158.116475 195.312676,158.116475 C194.506276,158.116475 193.767076,158.586875 193.386276,159.034875 L193.386276,158.250875 L192.546276,158.250875 L192.546276,163.660475 L193.386276,163.660475 Z M200.083876,163.794875 C200.576676,163.794875 200.879076,163.649275 201.091876,163.447675 L200.845476,162.820475 C200.733476,162.943675 200.509476,163.044475 200.274276,163.044475 C199.904676,163.044475 199.725476,162.753275 199.725476,162.350075 L199.725476,158.990075 L200.823076,158.990075 L200.823076,158.250875 L199.725476,158.250875 L199.725476,156.772475 L198.885476,156.772475 L198.885476,158.250875 L197.989476,158.250875 L197.989476,158.990075 L198.885476,158.990075 L198.885476,162.529275 C198.885476,163.335675 199.288676,163.794875 200.083876,163.794875 Z" id="RiskManagement" fill="#1F3966" fill-rule="nonzero"></path>
        <g id="verification/dot/trusted/active" transform="translate(89.000000, 186.360475)">
            <g id="Group" transform="translate(3.368421, 3.400000)">
                <rect id="Rectangle-3" stroke="#29CC96" stroke-width="0.8" fill="#F2FFFB" x="0" y="0" width="10.1052632" height="10.2" rx="4.8"></rect>
                <path d="M7.2467647,2.90502333 C6.16887359,4.06088515 5.18718557,5.20129844 4.13957052,6.33986819 L2.81427043,5.20587232 C2.72398518,5.12838938 2.60857417,5.09283795 2.49358618,5.10651175 C2.37859819,5.12018556 2.27341149,5.18217215 2.20100842,5.2788024 C2.05024954,5.4802632 2.08090719,5.77424009 2.26914864,5.93513103 L3.904514,7.33529878 C4.07870222,7.48433497 4.33038495,7.46883978 4.48711836,7.29883608 C5.6591302,6.04183548 6.71274159,4.80245366 7.86687344,3.56505541 C7.99719026,3.4306043 8.03594841,3.22412623 7.96482528,3.04591988 C7.89370434,2.86771353 7.72718489,2.75512837 7.54661875,2.76287597 C7.43329447,2.76645923 7.3255566,2.81750701 7.2467647,2.90502333 Z" id="Fill-1" fill="#29CC96"></path>
            </g>
        </g>
        <path d="M114.552253,197.660475 L115.213053,196.002875 L118.998653,196.002875 L119.659453,197.660475 L120.689853,197.660475 L117.677053,190.190075 L116.523453,190.190075 L113.521853,197.660475 L114.552253,197.660475 Z M118.718653,195.174075 L115.481853,195.174075 L117.105853,191.018875 L118.718653,195.174075 Z M123.344253,197.794875 C124.744253,197.794875 125.472253,197.066875 125.472253,196.159675 C125.472253,194.961275 124.385853,194.692475 123.445053,194.479675 C122.739453,194.311675 122.123453,194.143675 122.123453,193.617275 C122.123453,193.135675 122.582653,192.799675 123.321853,192.799675 C124.016253,192.799675 124.609853,193.090875 124.934653,193.482875 L125.326653,192.900475 C124.889853,192.463675 124.240253,192.116475 123.321853,192.116475 C122.033853,192.116475 121.305853,192.833275 121.305853,193.673275 C121.305853,194.793275 122.347453,195.039675 123.265853,195.252475 C123.993853,195.431675 124.654653,195.622075 124.654653,196.215675 C124.654653,196.742075 124.206653,197.111675 123.377853,197.111675 C122.638653,197.111675 121.955453,196.753275 121.597053,196.338875 L121.160253,196.943675 C121.709053,197.526075 122.459453,197.794875 123.344253,197.794875 Z M128.552253,197.794875 C129.952253,197.794875 130.680253,197.066875 130.680253,196.159675 C130.680253,194.961275 129.593853,194.692475 128.653053,194.479675 C127.947453,194.311675 127.331453,194.143675 127.331453,193.617275 C127.331453,193.135675 127.790653,192.799675 128.529853,192.799675 C129.224253,192.799675 129.817853,193.090875 130.142653,193.482875 L130.534653,192.900475 C130.097853,192.463675 129.448253,192.116475 128.529853,192.116475 C127.241853,192.116475 126.513853,192.833275 126.513853,193.673275 C126.513853,194.793275 127.555453,195.039675 128.473853,195.252475 C129.201853,195.431675 129.862653,195.622075 129.862653,196.215675 C129.862653,196.742075 129.414653,197.111675 128.585853,197.111675 C127.846653,197.111675 127.163453,196.753275 126.805053,196.338875 L126.368253,196.943675 C126.917053,197.526075 127.667453,197.794875 128.552253,197.794875 Z M134.488253,197.794875 C135.373053,197.794875 136.101053,197.503675 136.638653,196.966075 L136.235453,196.417275 C135.809853,196.854075 135.182653,197.100475 134.566653,197.100475 C133.401853,197.100475 132.685053,196.249275 132.617853,195.230075 L136.997053,195.230075 L136.997053,195.017275 C136.997053,193.393275 136.033853,192.116475 134.398653,192.116475 C132.853053,192.116475 131.733053,193.382075 131.733053,194.950075 C131.733053,196.641275 132.886653,197.794875 134.488253,197.794875 Z M136.168253,194.614075 L132.617853,194.614075 C132.662653,193.785275 133.233853,192.810875 134.387453,192.810875 C135.619453,192.810875 136.157053,193.807675 136.168253,194.614075 Z M139.718653,197.794875 C140.211453,197.794875 140.513853,197.649275 140.726653,197.447675 L140.480253,196.820475 C140.368253,196.943675 140.144253,197.044475 139.909053,197.044475 C139.539453,197.044475 139.360253,196.753275 139.360253,196.350075 L139.360253,192.990075 L140.457853,192.990075 L140.457853,192.250875 L139.360253,192.250875 L139.360253,190.772475 L138.520253,190.772475 L138.520253,192.250875 L137.624253,192.250875 L137.624253,192.990075 L138.520253,192.990075 L138.520253,196.529275 C138.520253,197.335675 138.923453,197.794875 139.718653,197.794875 Z M145.497853,197.660475 L145.497853,191.444475 L148.029053,197.660475 L148.409853,197.660475 L150.952253,191.444475 L150.952253,197.660475 L151.881853,197.660475 L151.881853,190.190075 L150.549053,190.190075 L148.219453,195.879675 L145.901053,190.190075 L144.568253,190.190075 L144.568253,197.660475 L145.497853,197.660475 Z M155.185853,197.794875 C155.913853,197.794875 156.529853,197.537275 156.977853,197.044475 L156.977853,197.660475 L157.817853,197.660475 L157.817853,193.942075 C157.817853,192.631675 156.865853,192.116475 155.723453,192.116475 C154.838653,192.116475 154.144253,192.407675 153.561853,193.012475 L153.953853,193.594875 C154.435453,193.079675 154.961853,192.844475 155.611453,192.844475 C156.395453,192.844475 156.977853,193.258875 156.977853,193.986875 L156.977853,194.961275 C156.541053,194.457275 155.925053,194.222075 155.185853,194.222075 C154.267453,194.222075 153.293053,194.793275 153.293053,196.002875 C153.293053,197.178875 154.267453,197.794875 155.185853,197.794875 Z M155.488253,197.190075 C154.704253,197.190075 154.155453,196.697275 154.155453,196.014075 C154.155453,195.319675 154.704253,194.826875 155.488253,194.826875 C156.081853,194.826875 156.653053,195.050875 156.977853,195.498875 L156.977853,196.518075 C156.653053,196.966075 156.081853,197.190075 155.488253,197.190075 Z M160.337853,197.660475 L160.337853,193.706875 C160.651453,193.270075 161.278653,192.866875 161.939453,192.866875 C162.667453,192.866875 163.149053,193.169275 163.149053,194.121275 L163.149053,197.660475 L163.989053,197.660475 L163.989053,193.863675 C163.989053,192.687675 163.395453,192.116475 162.264253,192.116475 C161.457853,192.116475 160.718653,192.586875 160.337853,193.034875 L160.337853,192.250875 L159.497853,192.250875 L159.497853,197.660475 L160.337853,197.660475 Z M167.259453,197.794875 C167.987453,197.794875 168.603453,197.537275 169.051453,197.044475 L169.051453,197.660475 L169.891453,197.660475 L169.891453,193.942075 C169.891453,192.631675 168.939453,192.116475 167.797053,192.116475 C166.912253,192.116475 166.217853,192.407675 165.635453,193.012475 L166.027453,193.594875 C166.509053,193.079675 167.035453,192.844475 167.685053,192.844475 C168.469053,192.844475 169.051453,193.258875 169.051453,193.986875 L169.051453,194.961275 C168.614653,194.457275 167.998653,194.222075 167.259453,194.222075 C166.341053,194.222075 165.366653,194.793275 165.366653,196.002875 C165.366653,197.178875 166.341053,197.794875 167.259453,197.794875 Z M167.561853,197.190075 C166.777853,197.190075 166.229053,196.697275 166.229053,196.014075 C166.229053,195.319675 166.777853,194.826875 167.561853,194.826875 C168.155453,194.826875 168.726653,195.050875 169.051453,195.498875 L169.051453,196.518075 C168.726653,196.966075 168.155453,197.190075 167.561853,197.190075 Z M173.744253,199.855675 C175.065853,199.855675 176.320253,199.295675 176.320253,197.503675 L176.320253,192.250875 L175.480253,192.250875 L175.480253,193.068475 C175.043453,192.474875 174.393853,192.116475 173.665853,192.116475 C172.243453,192.116475 171.257853,193.191675 171.257853,194.927675 C171.257853,196.674875 172.254653,197.727675 173.665853,197.727675 C174.427453,197.727675 175.088253,197.313275 175.480253,196.764475 L175.480253,197.537275 C175.480253,198.724475 174.640253,199.161275 173.744253,199.161275 C172.971453,199.161275 172.433853,198.959675 171.985853,198.422075 L171.560253,199.049275 C172.198653,199.676475 172.825853,199.855675 173.744253,199.855675 Z M173.867453,196.988475 C172.781053,196.988475 172.131453,196.114875 172.131453,194.927675 C172.131453,193.729275 172.781053,192.866875 173.867453,192.866875 C174.539453,192.866875 175.189053,193.270075 175.480253,193.740475 L175.480253,196.103675 C175.189053,196.574075 174.539453,196.988475 173.867453,196.988475 Z M180.441853,197.794875 C181.326653,197.794875 182.054653,197.503675 182.592253,196.966075 L182.189053,196.417275 C181.763453,196.854075 181.136253,197.100475 180.520253,197.100475 C179.355453,197.100475 178.638653,196.249275 178.571453,195.230075 L182.950653,195.230075 L182.950653,195.017275 C182.950653,193.393275 181.987453,192.116475 180.352253,192.116475 C178.806653,192.116475 177.686653,193.382075 177.686653,194.950075 C177.686653,196.641275 178.840253,197.794875 180.441853,197.794875 Z M182.121853,194.614075 L178.571453,194.614075 C178.616253,193.785275 179.187453,192.810875 180.341053,192.810875 C181.573053,192.810875 182.110653,193.807675 182.121853,194.614075 Z M185.145853,197.660475 L185.145853,193.706875 C185.437053,193.270075 186.019453,192.866875 186.568253,192.866875 C187.273853,192.866875 187.565053,193.303675 187.565053,193.986875 L187.565053,197.660475 L188.405053,197.660475 L188.405053,193.695675 C188.685053,193.270075 189.278653,192.866875 189.838653,192.866875 C190.533053,192.866875 190.835453,193.303675 190.835453,193.986875 L190.835453,197.660475 L191.675453,197.660475 L191.675453,193.751675 C191.675453,192.665275 191.149053,192.116475 190.163453,192.116475 C189.379453,192.116475 188.651453,192.631675 188.349053,193.124475 C188.192253,192.564475 187.721853,192.116475 186.893053,192.116475 C186.097853,192.116475 185.369853,192.687675 185.145853,193.034875 L185.145853,192.250875 L184.305853,192.250875 L184.305853,197.660475 L185.145853,197.660475 Z M195.797053,197.794875 C196.681853,197.794875 197.409853,197.503675 197.947453,196.966075 L197.544253,196.417275 C197.118653,196.854075 196.491453,197.100475 195.875453,197.100475 C194.710653,197.100475 193.993853,196.249275 193.926653,195.230075 L198.305853,195.230075 L198.305853,195.017275 C198.305853,193.393275 197.342653,192.116475 195.707453,192.116475 C194.161853,192.116475 193.041853,193.382075 193.041853,194.950075 C193.041853,196.641275 194.195453,197.794875 195.797053,197.794875 Z M197.477053,194.614075 L193.926653,194.614075 C193.971453,193.785275 194.542653,192.810875 195.696253,192.810875 C196.928253,192.810875 197.465853,193.807675 197.477053,194.614075 Z M200.501053,197.660475 L200.501053,193.706875 C200.814653,193.270075 201.441853,192.866875 202.102653,192.866875 C202.830653,192.866875 203.312253,193.169275 203.312253,194.121275 L203.312253,197.660475 L204.152253,197.660475 L204.152253,193.863675 C204.152253,192.687675 203.558653,192.116475 202.427453,192.116475 C201.621053,192.116475 200.881853,192.586875 200.501053,193.034875 L200.501053,192.250875 L199.661053,192.250875 L199.661053,197.660475 L200.501053,197.660475 Z M207.198653,197.794875 C207.691453,197.794875 207.993853,197.649275 208.206653,197.447675 L207.960253,196.820475 C207.848253,196.943675 207.624253,197.044475 207.389053,197.044475 C207.019453,197.044475 206.840253,196.753275 206.840253,196.350075 L206.840253,192.990075 L207.937853,192.990075 L207.937853,192.250875 L206.840253,192.250875 L206.840253,190.772475 L206.000253,190.772475 L206.000253,192.250875 L205.104253,192.250875 L205.104253,192.990075 L206.000253,192.990075 L206.000253,196.529275 C206.000253,197.335675 206.403453,197.794875 207.198653,197.794875 Z" id="AssetManagement" fill="#1F3966" fill-rule="nonzero"></path>
        <g id="verification/dot/trusted/active" transform="translate(88.000000, 260.360475)">
            <g id="Group" transform="translate(3.383607, 3.400000)">
                <rect id="Rectangle-3" stroke="#29CC96" stroke-width="0.8" fill="#F2FFFB" x="0" y="0" width="10.1508197" height="10.2" rx="4.8"></rect>
                <path d="M7.27943454,2.90502333 C6.19668408,4.06088515 5.21057042,5.20129844 4.15823252,6.33986819 L2.82695771,5.20587232 C2.73626544,5.12838938 2.62033414,5.09283795 2.50482776,5.10651175 C2.38932138,5.12018556 2.28366048,5.18217215 2.210931,5.2788024 C2.05949247,5.4802632 2.09028833,5.77424009 2.27937841,5.93513103 L3.92211632,7.33529878 C4.09708981,7.48433497 4.34990717,7.46883978 4.50734718,7.29883608 C5.68464268,6.04183548 6.74300395,4.80245366 7.90233885,3.56505541 C8.03324316,3.4306043 8.07217605,3.22412623 8.00073228,3.04591988 C7.92929071,2.86771353 7.76202056,2.75512837 7.58064039,2.76287597 C7.46680523,2.76645923 7.35858165,2.81750701 7.27943454,2.90502333 Z" id="Fill-1" fill="#29CC96"></path>
            </g>
        </g>
        <path d="M115.823948,271.794875 C117.839948,271.794875 118.579148,270.686075 118.579148,269.599675 C118.579148,268.031675 117.190348,267.650875 115.969548,267.326075 C115.017548,267.068475 114.155148,266.844475 114.155148,266.094075 C114.155148,265.388475 114.793548,264.906875 115.689548,264.906875 C116.507148,264.906875 117.291148,265.186875 117.851148,265.802875 L118.411148,265.119675 C117.783948,264.458875 116.899148,264.078075 115.756748,264.078075 C114.289548,264.078075 113.191948,264.918075 113.191948,266.150075 C113.191948,267.617275 114.524748,267.953275 115.723148,268.266875 C116.708748,268.535675 117.615948,268.782075 117.615948,269.678075 C117.615948,270.249275 117.190348,270.966075 115.857548,270.966075 C114.804748,270.966075 113.998348,270.450875 113.505548,269.902075 L112.956748,270.607675 C113.572748,271.302075 114.524748,271.794875 115.823948,271.794875 Z M121.659148,271.794875 C122.465548,271.794875 123.171148,271.369275 123.585548,270.898875 L123.585548,271.660475 L124.425548,271.660475 L124.425548,266.250875 L123.585548,266.250875 L123.585548,270.226875 C123.271948,270.663675 122.644748,271.044475 121.983948,271.044475 C121.255948,271.044475 120.774348,270.764475 120.774348,269.812475 L120.774348,266.250875 L119.934348,266.250875 L119.934348,270.070075 C119.934348,271.246075 120.527948,271.794875 121.659148,271.794875 Z M126.945548,273.721275 L126.945548,270.842875 C127.382348,271.447675 128.031948,271.794875 128.771148,271.794875 C130.193548,271.794875 131.179148,270.697275 131.179148,268.950075 C131.179148,267.191675 130.193548,266.116475 128.771148,266.116475 C128.009548,266.116475 127.337548,266.508475 126.945548,267.057275 L126.945548,266.250875 L126.105548,266.250875 L126.105548,273.721275 L126.945548,273.721275 Z M128.558348,271.044475 C127.897548,271.044475 127.236748,270.641275 126.945548,270.170875 L126.945548,267.729275 C127.236748,267.258875 127.897548,266.866875 128.558348,266.866875 C129.644748,266.866875 130.294348,267.751675 130.294348,268.950075 C130.294348,270.148475 129.644748,271.044475 128.558348,271.044475 Z M133.374348,273.721275 L133.374348,270.842875 C133.811148,271.447675 134.460748,271.794875 135.199948,271.794875 C136.622348,271.794875 137.607948,270.697275 137.607948,268.950075 C137.607948,267.191675 136.622348,266.116475 135.199948,266.116475 C134.438348,266.116475 133.766348,266.508475 133.374348,267.057275 L133.374348,266.250875 L132.534348,266.250875 L132.534348,273.721275 L133.374348,273.721275 Z M134.987148,271.044475 C134.326348,271.044475 133.665548,270.641275 133.374348,270.170875 L133.374348,267.729275 C133.665548,267.258875 134.326348,266.866875 134.987148,266.866875 C136.073548,266.866875 136.723148,267.751675 136.723148,268.950075 C136.723148,270.148475 136.073548,271.044475 134.987148,271.044475 Z M139.803148,271.660475 L139.803148,264.190075 L138.963148,264.190075 L138.963148,271.660475 L139.803148,271.660475 Z M141.897548,265.343675 C142.211148,265.343675 142.468748,265.086075 142.468748,264.772475 C142.468748,264.458875 142.211148,264.212475 141.897548,264.212475 C141.595148,264.212475 141.337548,264.458875 141.337548,264.772475 C141.337548,265.086075 141.595148,265.343675 141.897548,265.343675 Z M142.323148,271.660475 L142.323148,266.250875 L141.483148,266.250875 L141.483148,271.660475 L142.323148,271.660475 Z M146.444748,271.794875 C147.329548,271.794875 148.057548,271.503675 148.595148,270.966075 L148.191948,270.417275 C147.766348,270.854075 147.139148,271.100475 146.523148,271.100475 C145.358348,271.100475 144.641548,270.249275 144.574348,269.230075 L148.953548,269.230075 L148.953548,269.017275 C148.953548,267.393275 147.990348,266.116475 146.355148,266.116475 C144.809548,266.116475 143.689548,267.382075 143.689548,268.950075 C143.689548,270.641275 144.843148,271.794875 146.444748,271.794875 Z M148.124748,268.614075 L144.574348,268.614075 C144.619148,267.785275 145.190348,266.810875 146.343948,266.810875 C147.575948,266.810875 148.113548,267.807675 148.124748,268.614075 Z M151.148748,271.660475 L151.148748,267.830075 C151.395148,267.393275 152.100748,266.967675 152.615948,266.967675 C152.750348,266.967675 152.851148,266.978875 152.951948,267.001275 L152.951948,266.138875 C152.212748,266.138875 151.585548,266.553275 151.148748,267.124475 L151.148748,266.250875 L150.308748,266.250875 L150.308748,271.660475 L151.148748,271.660475 Z M157.857548,271.660475 L157.857548,268.692475 L159.347148,268.692475 L161.251148,271.660475 L162.348748,271.660475 L160.332748,268.614075 C161.351948,268.524475 162.270348,267.785275 162.270348,266.441275 C162.270348,265.063675 161.295948,264.190075 159.929548,264.190075 L156.927948,264.190075 L156.927948,271.660475 L157.857548,271.660475 Z M159.817548,267.874875 L157.857548,267.874875 L157.857548,265.018875 L159.817548,265.018875 C160.702348,265.018875 161.307148,265.601275 161.307148,266.441275 C161.307148,267.281275 160.702348,267.874875 159.817548,267.874875 Z M166.145548,271.794875 C167.030348,271.794875 167.758348,271.503675 168.295948,270.966075 L167.892748,270.417275 C167.467148,270.854075 166.839948,271.100475 166.223948,271.100475 C165.059148,271.100475 164.342348,270.249275 164.275148,269.230075 L168.654348,269.230075 L168.654348,269.017275 C168.654348,267.393275 167.691148,266.116475 166.055948,266.116475 C164.510348,266.116475 163.390348,267.382075 163.390348,268.950075 C163.390348,270.641275 164.543948,271.794875 166.145548,271.794875 Z M167.825548,268.614075 L164.275148,268.614075 C164.319948,267.785275 164.891148,266.810875 166.044748,266.810875 C167.276748,266.810875 167.814348,267.807675 167.825548,268.614075 Z M170.849548,271.660475 L170.849548,264.190075 L170.009548,264.190075 L170.009548,271.660475 L170.849548,271.660475 Z M174.119948,271.794875 C174.847948,271.794875 175.463948,271.537275 175.911948,271.044475 L175.911948,271.660475 L176.751948,271.660475 L176.751948,267.942075 C176.751948,266.631675 175.799948,266.116475 174.657548,266.116475 C173.772748,266.116475 173.078348,266.407675 172.495948,267.012475 L172.887948,267.594875 C173.369548,267.079675 173.895948,266.844475 174.545548,266.844475 C175.329548,266.844475 175.911948,267.258875 175.911948,267.986875 L175.911948,268.961275 C175.475148,268.457275 174.859148,268.222075 174.119948,268.222075 C173.201548,268.222075 172.227148,268.793275 172.227148,270.002875 C172.227148,271.178875 173.201548,271.794875 174.119948,271.794875 Z M174.422348,271.190075 C173.638348,271.190075 173.089548,270.697275 173.089548,270.014075 C173.089548,269.319675 173.638348,268.826875 174.422348,268.826875 C175.015948,268.826875 175.587148,269.050875 175.911948,269.498875 L175.911948,270.518075 C175.587148,270.966075 175.015948,271.190075 174.422348,271.190075 Z M179.798348,271.794875 C180.291148,271.794875 180.593548,271.649275 180.806348,271.447675 L180.559948,270.820475 C180.447948,270.943675 180.223948,271.044475 179.988748,271.044475 C179.619148,271.044475 179.439948,270.753275 179.439948,270.350075 L179.439948,266.990075 L180.537548,266.990075 L180.537548,266.250875 L179.439948,266.250875 L179.439948,264.772475 L178.599948,264.772475 L178.599948,266.250875 L177.703948,266.250875 L177.703948,266.990075 L178.599948,266.990075 L178.599948,270.529275 C178.599948,271.335675 179.003148,271.794875 179.798348,271.794875 Z M182.139148,265.343675 C182.452748,265.343675 182.710348,265.086075 182.710348,264.772475 C182.710348,264.458875 182.452748,264.212475 182.139148,264.212475 C181.836748,264.212475 181.579148,264.458875 181.579148,264.772475 C181.579148,265.086075 181.836748,265.343675 182.139148,265.343675 Z M182.564748,271.660475 L182.564748,266.250875 L181.724748,266.250875 L181.724748,271.660475 L182.564748,271.660475 Z M186.607948,271.794875 C188.254348,271.794875 189.284748,270.518075 189.284748,268.950075 C189.284748,267.382075 188.254348,266.116475 186.607948,266.116475 C184.961548,266.116475 183.931148,267.382075 183.931148,268.950075 C183.931148,270.518075 184.961548,271.794875 186.607948,271.794875 Z M186.607948,271.044475 C185.454348,271.044475 184.804748,270.058875 184.804748,268.950075 C184.804748,267.852475 185.454348,266.866875 186.607948,266.866875 C187.761548,266.866875 188.399948,267.852475 188.399948,268.950075 C188.399948,270.058875 187.761548,271.044475 186.607948,271.044475 Z M191.491148,271.660475 L191.491148,267.706875 C191.804748,267.270075 192.431948,266.866875 193.092748,266.866875 C193.820748,266.866875 194.302348,267.169275 194.302348,268.121275 L194.302348,271.660475 L195.142348,271.660475 L195.142348,267.863675 C195.142348,266.687675 194.548748,266.116475 193.417548,266.116475 C192.611148,266.116475 191.871948,266.586875 191.491148,267.034875 L191.491148,266.250875 L190.651148,266.250875 L190.651148,271.660475 L191.491148,271.660475 Z M198.535948,271.794875 C199.935948,271.794875 200.663948,271.066875 200.663948,270.159675 C200.663948,268.961275 199.577548,268.692475 198.636748,268.479675 C197.931148,268.311675 197.315148,268.143675 197.315148,267.617275 C197.315148,267.135675 197.774348,266.799675 198.513548,266.799675 C199.207948,266.799675 199.801548,267.090875 200.126348,267.482875 L200.518348,266.900475 C200.081548,266.463675 199.431948,266.116475 198.513548,266.116475 C197.225548,266.116475 196.497548,266.833275 196.497548,267.673275 C196.497548,268.793275 197.539148,269.039675 198.457548,269.252475 C199.185548,269.431675 199.846348,269.622075 199.846348,270.215675 C199.846348,270.742075 199.398348,271.111675 198.569548,271.111675 C197.830348,271.111675 197.147148,270.753275 196.788748,270.338875 L196.351948,270.943675 C196.900748,271.526075 197.651148,271.794875 198.535948,271.794875 Z M202.870348,271.660475 L202.870348,267.706875 C203.195148,267.270075 203.822348,266.866875 204.471948,266.866875 C205.199948,266.866875 205.692748,267.146875 205.692748,268.098875 L205.692748,271.660475 L206.532748,271.660475 L206.532748,267.841275 C206.532748,266.665275 205.939148,266.116475 204.807948,266.116475 C203.990348,266.116475 203.251148,266.586875 202.870348,267.034875 L202.870348,264.190075 L202.030348,264.190075 L202.030348,271.660475 L202.870348,271.660475 Z M208.627148,265.343675 C208.940748,265.343675 209.198348,265.086075 209.198348,264.772475 C209.198348,264.458875 208.940748,264.212475 208.627148,264.212475 C208.324748,264.212475 208.067148,264.458875 208.067148,264.772475 C208.067148,265.086075 208.324748,265.343675 208.627148,265.343675 Z M209.052748,271.660475 L209.052748,266.250875 L208.212748,266.250875 L208.212748,271.660475 L209.052748,271.660475 Z M211.572748,273.721275 L211.572748,270.842875 C212.009548,271.447675 212.659148,271.794875 213.398348,271.794875 C214.820748,271.794875 215.806348,270.697275 215.806348,268.950075 C215.806348,267.191675 214.820748,266.116475 213.398348,266.116475 C212.636748,266.116475 211.964748,266.508475 211.572748,267.057275 L211.572748,266.250875 L210.732748,266.250875 L210.732748,273.721275 L211.572748,273.721275 Z M213.185548,271.044475 C212.524748,271.044475 211.863948,270.641275 211.572748,270.170875 L211.572748,267.729275 C211.863948,267.258875 212.524748,266.866875 213.185548,266.866875 C214.271948,266.866875 214.921548,267.751675 214.921548,268.950075 C214.921548,270.148475 214.271948,271.044475 213.185548,271.044475 Z M218.875148,271.794875 C220.275148,271.794875 221.003148,271.066875 221.003148,270.159675 C221.003148,268.961275 219.916748,268.692475 218.975948,268.479675 C218.270348,268.311675 217.654348,268.143675 217.654348,267.617275 C217.654348,267.135675 218.113548,266.799675 218.852748,266.799675 C219.547148,266.799675 220.140748,267.090875 220.465548,267.482875 L220.857548,266.900475 C220.420748,266.463675 219.771148,266.116475 218.852748,266.116475 C217.564748,266.116475 216.836748,266.833275 216.836748,267.673275 C216.836748,268.793275 217.878348,269.039675 218.796748,269.252475 C219.524748,269.431675 220.185548,269.622075 220.185548,270.215675 C220.185548,270.742075 219.737548,271.111675 218.908748,271.111675 C218.169548,271.111675 217.486348,270.753275 217.127948,270.338875 L216.691148,270.943675 C217.239948,271.526075 217.990348,271.794875 218.875148,271.794875 Z" id="SupplierRelationships" fill="#1F3966" fill-rule="nonzero"></path>
        <g id="verification/dot/trusted/active" transform="translate(89.000000, 118.360475)">
            <g id="Group" transform="translate(3.364706, 3.400000)">
                <rect id="Rectangle-3" stroke="#29CC96" stroke-width="0.8" fill="#F2FFFB" x="0" y="0" width="10.0941176" height="10.2" rx="4.8"></rect>
                <path d="M7.23877195,2.90502333 C6.16206968,4.06088515 5.18146441,5.20129844 4.13500481,6.33986819 L2.81116645,5.20587232 C2.72098078,5.12838938 2.60569707,5.09283795 2.49083591,5.10651175 C2.37597474,5.12018556 2.27090406,5.18217215 2.19858084,5.2788024 C2.04798823,5.4802632 2.07861207,5.77424009 2.2666459,5.93513103 L3.90020755,7.33529878 C4.07420365,7.48433497 4.32560879,7.46883978 4.48216934,7.29883608 C5.65288852,6.04183548 6.70533784,4.80245366 7.85819674,3.56505541 C7.98836983,3.4306043 8.02708524,3.22412623 7.95604055,3.04591988 C7.88499804,2.86771353 7.71866226,2.75512837 7.53829528,2.76287597 C7.42509599,2.76645923 7.31747695,2.81750701 7.23877195,2.90502333 Z" id="Fill-1" fill="#29CC96"></path>
            </g>
        </g>
        <path d="M116.686918,129.794875 C118.702918,129.794875 119.442118,128.686075 119.442118,127.599675 C119.442118,126.031675 118.053318,125.650875 116.832518,125.326075 C115.880518,125.068475 115.018118,124.844475 115.018118,124.094075 C115.018118,123.388475 115.656518,122.906875 116.552518,122.906875 C117.370118,122.906875 118.154118,123.186875 118.714118,123.802875 L119.274118,123.119675 C118.646918,122.458875 117.762118,122.078075 116.619718,122.078075 C115.152518,122.078075 114.054918,122.918075 114.054918,124.150075 C114.054918,125.617275 115.387718,125.953275 116.586118,126.266875 C117.571718,126.535675 118.478918,126.782075 118.478918,127.678075 C118.478918,128.249275 118.053318,128.966075 116.720518,128.966075 C115.667718,128.966075 114.861318,128.450875 114.368518,127.902075 L113.819718,128.607675 C114.435718,129.302075 115.387718,129.794875 116.686918,129.794875 Z M123.238918,129.794875 C124.123718,129.794875 124.851718,129.503675 125.389318,128.966075 L124.986118,128.417275 C124.560518,128.854075 123.933318,129.100475 123.317318,129.100475 C122.152518,129.100475 121.435718,128.249275 121.368518,127.230075 L125.747718,127.230075 L125.747718,127.017275 C125.747718,125.393275 124.784518,124.116475 123.149318,124.116475 C121.603718,124.116475 120.483718,125.382075 120.483718,126.950075 C120.483718,128.641275 121.637318,129.794875 123.238918,129.794875 Z M124.918918,126.614075 L121.368518,126.614075 C121.413318,125.785275 121.984518,124.810875 123.138118,124.810875 C124.370118,124.810875 124.907718,125.807675 124.918918,126.614075 Z M129.488518,129.794875 C130.474118,129.794875 131.056518,129.391675 131.470918,128.854075 L130.910918,128.338875 C130.552518,128.820475 130.093318,129.044475 129.533318,129.044475 C128.379718,129.044475 127.662918,128.148475 127.662918,126.950075 C127.662918,125.751675 128.379718,124.866875 129.533318,124.866875 C130.093318,124.866875 130.552518,125.079675 130.910918,125.572475 L131.470918,125.057275 C131.056518,124.519675 130.474118,124.116475 129.488518,124.116475 C127.875718,124.116475 126.789318,125.348475 126.789318,126.950075 C126.789318,128.562875 127.875718,129.794875 129.488518,129.794875 Z M134.371718,129.794875 C135.178118,129.794875 135.883718,129.369275 136.298118,128.898875 L136.298118,129.660475 L137.138118,129.660475 L137.138118,124.250875 L136.298118,124.250875 L136.298118,128.226875 C135.984518,128.663675 135.357318,129.044475 134.696518,129.044475 C133.968518,129.044475 133.486918,128.764475 133.486918,127.812475 L133.486918,124.250875 L132.646918,124.250875 L132.646918,128.070075 C132.646918,129.246075 133.240518,129.794875 134.371718,129.794875 Z M139.658118,129.660475 L139.658118,125.830075 C139.904518,125.393275 140.610118,124.967675 141.125318,124.967675 C141.259718,124.967675 141.360518,124.978875 141.461318,125.001275 L141.461318,124.138875 C140.722118,124.138875 140.094918,124.553275 139.658118,125.124475 L139.658118,124.250875 L138.818118,124.250875 L138.818118,129.660475 L139.658118,129.660475 Z M142.928518,123.343675 C143.242118,123.343675 143.499718,123.086075 143.499718,122.772475 C143.499718,122.458875 143.242118,122.212475 142.928518,122.212475 C142.626118,122.212475 142.368518,122.458875 142.368518,122.772475 C142.368518,123.086075 142.626118,123.343675 142.928518,123.343675 Z M143.354118,129.660475 L143.354118,124.250875 L142.514118,124.250875 L142.514118,129.660475 L143.354118,129.660475 Z M146.400518,129.794875 C146.893318,129.794875 147.195718,129.649275 147.408518,129.447675 L147.162118,128.820475 C147.050118,128.943675 146.826118,129.044475 146.590918,129.044475 C146.221318,129.044475 146.042118,128.753275 146.042118,128.350075 L146.042118,124.990075 L147.139718,124.990075 L147.139718,124.250875 L146.042118,124.250875 L146.042118,122.772475 L145.202118,122.772475 L145.202118,124.250875 L144.306118,124.250875 L144.306118,124.990075 L145.202118,124.990075 L145.202118,128.529275 C145.202118,129.335675 145.605318,129.794875 146.400518,129.794875 Z M148.640518,131.855675 C149.357318,131.844475 149.906118,131.542075 150.230918,130.758075 L152.941318,124.250875 L152.022918,124.250875 L150.230918,128.686075 L148.427718,124.250875 L147.520518,124.250875 L149.782918,129.716475 L149.424518,130.534075 C149.234118,130.982075 148.987718,131.105275 148.618118,131.105275 C148.483718,131.105275 148.282118,131.071675 148.158918,131.015675 L148.024518,131.777275 C148.181318,131.822075 148.461318,131.855675 148.640518,131.855675 Z M157.667718,129.660475 L157.667718,126.692475 L159.739718,126.692475 C161.218118,126.692475 162.080518,125.662075 162.080518,124.441275 C162.080518,123.220475 161.240518,122.190075 159.739718,122.190075 L156.738118,122.190075 L156.738118,129.660475 L157.667718,129.660475 Z M159.627718,125.863675 L157.667718,125.863675 L157.667718,123.018875 L159.627718,123.018875 C160.512518,123.018875 161.117318,123.601275 161.117318,124.441275 C161.117318,125.281275 160.512518,125.863675 159.627718,125.863675 Z M165.642118,129.794875 C167.288518,129.794875 168.318918,128.518075 168.318918,126.950075 C168.318918,125.382075 167.288518,124.116475 165.642118,124.116475 C163.995718,124.116475 162.965318,125.382075 162.965318,126.950075 C162.965318,128.518075 163.995718,129.794875 165.642118,129.794875 Z M165.642118,129.044475 C164.488518,129.044475 163.838918,128.058875 163.838918,126.950075 C163.838918,125.852475 164.488518,124.866875 165.642118,124.866875 C166.795718,124.866875 167.434118,125.852475 167.434118,126.950075 C167.434118,128.058875 166.795718,129.044475 165.642118,129.044475 Z M170.525318,129.660475 L170.525318,122.190075 L169.685318,122.190075 L169.685318,129.660475 L170.525318,129.660475 Z M172.619718,123.343675 C172.933318,123.343675 173.190918,123.086075 173.190918,122.772475 C173.190918,122.458875 172.933318,122.212475 172.619718,122.212475 C172.317318,122.212475 172.059718,122.458875 172.059718,122.772475 C172.059718,123.086075 172.317318,123.343675 172.619718,123.343675 Z M173.045318,129.660475 L173.045318,124.250875 L172.205318,124.250875 L172.205318,129.660475 L173.045318,129.660475 Z M177.110918,129.794875 C178.096518,129.794875 178.678918,129.391675 179.093318,128.854075 L178.533318,128.338875 C178.174918,128.820475 177.715718,129.044475 177.155718,129.044475 C176.002118,129.044475 175.285318,128.148475 175.285318,126.950075 C175.285318,125.751675 176.002118,124.866875 177.155718,124.866875 C177.715718,124.866875 178.174918,125.079675 178.533318,125.572475 L179.093318,125.057275 C178.678918,124.519675 178.096518,124.116475 177.110918,124.116475 C175.498118,124.116475 174.411718,125.348475 174.411718,126.950075 C174.411718,128.562875 175.498118,129.794875 177.110918,129.794875 Z M180.582918,131.855675 C181.299718,131.844475 181.848518,131.542075 182.173318,130.758075 L184.883718,124.250875 L183.965318,124.250875 L182.173318,128.686075 L180.370118,124.250875 L179.462918,124.250875 L181.725318,129.716475 L181.366918,130.534075 C181.176518,130.982075 180.930118,131.105275 180.560518,131.105275 C180.426118,131.105275 180.224518,131.071675 180.101318,131.015675 L179.966918,131.777275 C180.123718,131.822075 180.403718,131.855675 180.582918,131.855675 Z M190.730118,129.660475 L190.730118,122.190075 L189.912518,122.190075 L188.042118,124.116475 L188.602118,124.687675 L189.800518,123.422075 L189.800518,129.660475 L190.730118,129.660475 Z M192.891718,129.772475 C193.227718,129.772475 193.507718,129.492475 193.507718,129.156475 C193.507718,128.820475 193.227718,128.540475 192.891718,128.540475 C192.555718,128.540475 192.275718,128.820475 192.275718,129.156475 C192.275718,129.492475 192.555718,129.772475 192.891718,129.772475 Z M197.606918,129.794875 C199.645318,129.794875 200.462918,127.745275 200.462918,125.930875 C200.462918,124.105275 199.645318,122.078075 197.606918,122.078075 C195.557318,122.078075 194.750918,124.105275 194.750918,125.930875 C194.750918,127.745275 195.557318,129.794875 197.606918,129.794875 Z M197.606918,128.966075 C196.184518,128.966075 195.702918,127.420475 195.702918,125.930875 C195.702918,124.441275 196.184518,122.906875 197.606918,122.906875 C199.029318,122.906875 199.510918,124.441275 199.510918,125.930875 C199.510918,127.420475 199.029318,128.966075 197.606918,128.966075 Z" id="SecurityPolicy1.0" fill="#1F3966" fill-rule="nonzero"></path>
        <g id="expand-accordion" transform="translate(229.000000, 231.360475) rotate(-90.000000) translate(-229.000000, -231.360475) translate(222.000000, 224.360475)">
            <mask id="mask-8" fill="white">
                <use xlink:href="#path-7"></use>
            </mask>
            <use id="-Icon-小olor" fill="#001C4D" fill-rule="evenodd" xlink:href="#path-7"></use>
        </g>
    </g>
</svg>