<svg width="205" height="40" viewBox="0 0 205 40" fill="none" xmlns="http://www.w3.org/2000/svg">
<g clip-path="url(#clip0)">
<path d="M80.3511 31.3789C74.8646 31.3789 71.8032 28.4387 71.8032 22.785V11.0779C71.8032 10.985 71.8403 10.8959 71.9063 10.8302C71.9723 10.7645 72.0618 10.7275 72.1552 10.7275H76.1843C76.2777 10.7275 76.3672 10.7645 76.4332 10.8302C76.4992 10.8959 76.5363 10.985 76.5363 11.0779V22.4616C76.5363 25.3434 77.7613 27.091 80.4617 27.091C83.1621 27.091 84.36 25.3434 84.36 22.4616V11.0779C84.36 10.985 84.3971 10.8959 84.4631 10.8302C84.5291 10.7645 84.6186 10.7275 84.7119 10.7275H88.7411C88.8344 10.7275 88.9239 10.7645 88.9899 10.8302C89.0559 10.8959 89.093 10.985 89.093 11.0779V22.785C89.093 28.4387 85.8354 31.3789 80.3511 31.3789Z" fill="#333333"/>
<path d="M105.636 31.0315L104.283 27.7723C104.257 27.7066 104.213 27.65 104.155 27.6099C104.097 27.5698 104.028 27.5481 103.958 27.5477H97.3725C97.3019 27.5481 97.2331 27.5698 97.1751 27.6099C97.1171 27.65 97.0727 27.7066 97.0476 27.7723L95.6941 31.0315C95.6681 31.0971 95.6231 31.1535 95.5648 31.1935C95.5066 31.2335 95.4377 31.2553 95.3669 31.2562H91.3333C91.2739 31.2564 91.2155 31.2417 91.1634 31.2135C91.1114 31.1852 91.0673 31.1443 91.0353 31.0946C91.0034 31.0448 90.9845 30.9878 90.9806 30.9289C90.9767 30.87 90.9878 30.811 91.0129 30.7575L100.262 11.0271C100.302 10.9409 100.366 10.8679 100.445 10.8165C100.525 10.7652 100.618 10.7377 100.714 10.7373C100.809 10.7377 100.902 10.7652 100.982 10.8165C101.062 10.8679 101.125 10.9409 101.165 11.0271L110.414 30.7575C110.439 30.8109 110.45 30.8696 110.447 30.9284C110.443 30.9871 110.424 31.0439 110.392 31.0936C110.361 31.1433 110.317 31.1843 110.265 31.2127C110.213 31.2411 110.155 31.256 110.096 31.2562H105.963C105.892 31.2559 105.823 31.2343 105.765 31.1942C105.706 31.1541 105.662 31.0974 105.636 31.0315ZM100.35 19.8456L98.8456 23.4597C98.8234 23.5129 98.8146 23.5708 98.8202 23.6282C98.8258 23.6857 98.8455 23.7408 98.8777 23.7888C98.9098 23.8368 98.9534 23.8762 99.0044 23.9034C99.0555 23.9306 99.1126 23.9448 99.1705 23.9448H102.162C102.22 23.9448 102.277 23.9306 102.328 23.9034C102.379 23.8762 102.423 23.8368 102.455 23.7888C102.487 23.7408 102.507 23.6857 102.512 23.6282C102.518 23.5708 102.509 23.5129 102.487 23.4597L101.002 19.8478C100.976 19.7832 100.931 19.7278 100.873 19.6887C100.815 19.6496 100.747 19.6286 100.677 19.6283C100.607 19.6281 100.539 19.6486 100.48 19.6873C100.422 19.726 100.377 19.7811 100.35 19.8456Z" fill="#333333"/>
<path d="M114.069 31.0242V11.0826C114.069 11.0359 114.078 10.9896 114.095 10.9464C114.113 10.9033 114.14 10.864 114.173 10.831C114.206 10.798 114.245 10.7719 114.289 10.7541C114.332 10.7364 114.379 10.7274 114.425 10.7277H118.522C118.57 10.7262 118.618 10.7343 118.662 10.7514C118.707 10.7686 118.747 10.7945 118.782 10.8276C118.816 10.8607 118.843 10.9003 118.862 10.9442C118.88 10.988 118.89 11.035 118.89 11.0826V26.6554C118.89 26.7495 118.928 26.8398 118.994 26.9063C119.061 26.9729 119.152 27.0103 119.246 27.0103H126.854C126.948 27.0103 127.039 27.0477 127.106 27.1142C127.172 27.1808 127.21 27.2711 127.21 27.3652V31.0242C127.21 31.0708 127.201 31.117 127.183 31.16C127.165 31.2031 127.139 31.2422 127.106 31.2752C127.073 31.3081 127.033 31.3343 126.99 31.3521C126.947 31.3699 126.9 31.3791 126.854 31.3791H114.446C114.397 31.3819 114.349 31.3747 114.303 31.3581C114.257 31.3415 114.216 31.3158 114.18 31.2826C114.145 31.2494 114.117 31.2093 114.098 31.1649C114.079 31.1204 114.069 31.0726 114.069 31.0242Z" fill="#333333"/>
<path d="M131.844 31.0195V11.0847C131.844 10.9898 131.883 10.8989 131.95 10.832C132.018 10.7651 132.109 10.7275 132.205 10.7275H136.295C136.39 10.7275 136.482 10.7651 136.549 10.832C136.617 10.8989 136.655 10.9898 136.656 11.0847V31.0195C136.656 31.1149 136.618 31.2063 136.55 31.2737C136.482 31.3411 136.391 31.3789 136.295 31.3789H132.2C132.105 31.3777 132.015 31.3394 131.948 31.2721C131.881 31.2048 131.844 31.1141 131.844 31.0195Z" fill="#333333"/>
<path d="M146.047 15.485V19.3169C146.046 19.3652 146.055 19.4131 146.073 19.4579C146.091 19.5027 146.118 19.5435 146.152 19.5778C146.186 19.6122 146.227 19.6393 146.271 19.6578C146.316 19.6763 146.364 19.6856 146.413 19.6853H152.813C152.91 19.6853 153.003 19.7236 153.072 19.7918C153.141 19.8599 153.18 19.9525 153.181 20.0492V23.5195C153.181 23.616 153.142 23.7086 153.074 23.7768C153.005 23.8451 152.912 23.8834 152.815 23.8834H146.413C146.316 23.8834 146.223 23.9218 146.154 23.99C146.086 24.0582 146.047 24.1508 146.047 24.2473V31.015C146.047 31.1114 146.008 31.2036 145.94 31.2717C145.871 31.3398 145.779 31.3783 145.682 31.3789H141.601C141.504 31.3783 141.412 31.3397 141.344 31.2716C141.276 31.2034 141.238 31.1112 141.238 31.015V11.0914C141.237 11.0437 141.246 10.9965 141.265 10.9523C141.283 10.9082 141.309 10.8681 141.343 10.8343C141.377 10.8004 141.417 10.7736 141.461 10.7553C141.505 10.737 141.553 10.7275 141.601 10.7275H154.009C154.057 10.7275 154.104 10.737 154.148 10.7553C154.192 10.7736 154.233 10.8004 154.266 10.8343C154.3 10.8681 154.327 10.9082 154.345 10.9523C154.363 10.9965 154.372 11.0437 154.372 11.0914V14.7572C154.372 14.8049 154.363 14.8521 154.345 14.8963C154.327 14.9404 154.3 14.9805 154.266 15.0144C154.233 15.0482 154.192 15.075 154.148 15.0933C154.104 15.1116 154.057 15.1211 154.009 15.1211H146.413C146.316 15.1211 146.223 15.1594 146.154 15.2276C146.086 15.2959 146.047 15.3884 146.047 15.485Z" fill="#333333"/>
<path d="M158.622 31.024V11.0824C158.622 11.0358 158.631 10.9895 158.649 10.9463C158.667 10.9031 158.693 10.8638 158.726 10.8308C158.759 10.7978 158.799 10.7717 158.842 10.754C158.885 10.7362 158.932 10.7272 158.979 10.7275H163.075C163.122 10.7275 163.169 10.7367 163.212 10.7546C163.255 10.7724 163.294 10.7985 163.328 10.8315C163.361 10.8644 163.387 10.9036 163.405 10.9466C163.423 10.9897 163.432 11.0358 163.432 11.0824V31.024C163.432 31.0706 163.423 31.1168 163.405 31.1599C163.387 31.2029 163.361 31.242 163.328 31.275C163.294 31.3079 163.255 31.3341 163.212 31.3519C163.169 31.3698 163.122 31.3789 163.075 31.3789H158.979C158.932 31.3789 158.885 31.3698 158.842 31.3519C158.799 31.3341 158.76 31.3079 158.727 31.275C158.693 31.242 158.667 31.2029 158.649 31.1599C158.631 31.1168 158.622 31.0706 158.622 31.024Z" fill="#333333"/>
<path d="M167.788 31.0128V11.0914C167.788 10.9949 167.827 10.9024 167.895 10.8341C167.964 10.7659 168.057 10.7275 168.154 10.7275H180.562C180.61 10.7272 180.658 10.7364 180.702 10.7546C180.747 10.7728 180.787 10.7995 180.821 10.8333C180.856 10.8671 180.883 10.9074 180.901 10.9517C180.92 10.996 180.929 11.0435 180.929 11.0914V14.7572C180.929 14.8537 180.891 14.9463 180.822 15.0145C180.754 15.0827 180.661 15.1211 180.564 15.1211H172.963C172.914 15.1214 172.866 15.1314 172.821 15.1506C172.776 15.1699 172.735 15.1979 172.701 15.2331C172.667 15.2682 172.64 15.3098 172.622 15.3554C172.605 15.401 172.596 15.4496 172.598 15.4984V18.4477C172.598 18.5442 172.636 18.6367 172.705 18.705C172.774 18.7732 172.866 18.8116 172.963 18.8116H179.815C179.912 18.8116 180.006 18.8501 180.075 18.9188C180.144 18.9875 180.183 19.0806 180.183 19.1777V22.6188C180.182 22.7155 180.143 22.8081 180.074 22.8763C180.005 22.9444 179.912 22.9827 179.815 22.9827H172.963C172.866 22.9827 172.774 23.021 172.705 23.0893C172.636 23.1575 172.598 23.2501 172.598 23.3466V26.6462C172.598 26.694 172.607 26.7413 172.626 26.7855C172.644 26.8296 172.671 26.8697 172.705 26.9035C172.739 26.9373 172.779 26.9641 172.824 26.9824C172.868 27.0007 172.915 27.0101 172.963 27.0101H180.553C180.65 27.0107 180.743 27.0495 180.811 27.1181C180.88 27.1867 180.918 27.2795 180.918 27.3762V31.0128C180.918 31.1095 180.88 31.2023 180.811 31.2709C180.743 31.3395 180.65 31.3783 180.553 31.3789H168.145C168.049 31.376 167.958 31.3362 167.892 31.2678C167.825 31.1995 167.788 31.108 167.788 31.0128Z" fill="#333333"/>
<path d="M191.568 31.3363C189.087 31.3363 187.988 31.3363 185.5 31.3363C185.41 31.3316 185.325 31.2921 185.264 31.2262C185.203 31.1603 185.17 31.0733 185.173 30.9836V11.1611C185.171 11.0722 185.204 10.9861 185.264 10.9202C185.324 10.8543 185.406 10.8136 185.495 10.8062C187.729 10.7275 189.346 10.7275 191.336 10.7275C200.017 10.7275 204.103 14.9953 204.103 20.8758C204.103 27.0146 200.274 31.3026 191.568 31.3363ZM192.02 14.8201C191.46 14.8137 190.9 14.84 190.343 14.8987C190.255 14.9071 190.174 14.9479 190.115 15.0132C190.055 15.0784 190.023 15.1634 190.023 15.2513V26.8911C190.023 26.9797 190.056 27.0653 190.116 27.1306C190.176 27.196 190.259 27.2364 190.348 27.2437C191.008 27.3083 191.672 27.3361 192.335 27.3268C196.902 27.3268 198.93 24.7684 198.93 20.8758C198.934 17.0932 196.536 14.8246 192.024 14.8246L192.02 14.8201Z" fill="#333333"/>
<path d="M70.0729 30.757L66.1001 27.4035C67.4388 25.5591 68.143 23.3334 68.1079 21.058C68.1079 15.164 64.1081 10.7256 57.9154 10.7256C51.7228 10.7256 47.538 15.1708 47.538 21.058C47.538 26.9453 51.5107 31.3702 57.7305 31.3702C59.7066 31.3983 61.6526 30.8863 63.3569 29.89L65.0105 31.2849C65.0732 31.3389 65.1531 31.3692 65.2361 31.3702H69.8383C69.9094 31.3694 69.9786 31.3474 70.0369 31.3069C70.0952 31.2663 70.1399 31.2093 70.1652 31.1432C70.1905 31.077 70.1953 31.0048 70.1788 30.9359C70.1623 30.8671 70.1254 30.8047 70.0729 30.757ZM57.8139 27.2597C54.6353 27.2597 52.4989 24.6407 52.4989 21.067C52.4989 17.4933 54.6353 14.8743 57.8139 14.8743C60.9926 14.8743 63.129 17.4664 63.129 21.067C63.143 22.1845 62.904 23.2908 62.4297 24.3038L61.7529 23.7265C61.6894 23.6739 61.6098 23.6446 61.5273 23.6434H56.9251C56.8527 23.6439 56.7823 23.6666 56.7232 23.7082C56.6641 23.7498 56.6193 23.8085 56.5947 23.8763C56.5701 23.944 56.567 24.0177 56.5857 24.0873C56.6045 24.1569 56.6442 24.2191 56.6995 24.2656L59.7834 26.8756C59.1588 27.132 58.4895 27.2625 57.8139 27.2597Z" fill="#333333"/>
<path d="M32.2115 15L17.1461 0L2.08067 15C0.749332 16.3264 0.00146484 18.1248 0.00146484 20C0.00146484 21.8752 0.749332 23.6736 2.08067 25L6.2655 29.1667L12.9612 35.8333L15.4721 38.3333L17.1461 40L18.82 38.3333L21.3309 35.8333L28.0266 29.1667L32.2115 25C33.5428 23.6736 34.2907 21.8752 34.2907 20C34.2907 18.1248 33.5428 16.3264 32.2115 15ZM24.7352 29.9438C24.7263 28.4006 24.107 26.9229 23.0116 25.8311L17.3717 20.2156C17.3443 20.1878 17.3117 20.1657 17.2757 20.1506C17.2397 20.1354 17.201 20.1277 17.1619 20.1277C17.1228 20.1277 17.0841 20.1354 17.048 20.1506C17.012 20.1657 16.9794 20.1878 16.9521 20.2156L11.2805 25.8311C10.1832 26.9213 9.56147 28.3982 9.5502 29.9416L7.51982 27.92C7.13375 27.5371 6.82741 27.082 6.61839 26.5809C6.40937 26.0798 6.30177 25.5426 6.30177 25C6.30177 24.4574 6.40937 23.9202 6.61839 23.4191C6.82741 22.918 7.13375 22.4629 7.51982 22.08L17.1461 12.5L26.7701 22.0845C27.1561 22.4674 27.4625 22.9225 27.6715 23.4236C27.8805 23.9247 27.9881 24.4619 27.9881 25.0045C27.9881 25.5471 27.8805 26.0843 27.6715 26.5854C27.4625 27.0865 27.1561 27.5416 26.7701 27.9245L24.7352 29.9438ZM30.9549 23.7489L29.757 24.9438C29.7457 23.4004 29.124 21.9235 28.0266 20.8333L17.3559 10.2089C17.3286 10.181 17.2959 10.1589 17.2599 10.1438C17.2239 10.1287 17.1852 10.1209 17.1461 10.1209C17.107 10.1209 17.0683 10.1287 17.0322 10.1438C16.9962 10.1589 16.9636 10.181 16.9363 10.2089L6.2655 20.8333C5.16812 21.9235 4.54644 23.4004 4.53517 24.9438L3.33724 23.7489C2.84236 23.2566 2.44978 22.672 2.18193 22.0285C1.91407 21.3851 1.77621 20.6954 1.77621 19.9989C1.77621 19.3024 1.91407 18.6127 2.18193 17.9692C2.44978 17.3258 2.84236 16.7412 3.33724 16.2489L17.1461 2.5L30.9549 16.2489C31.4498 16.7412 31.8424 17.3258 32.1102 17.9692C32.3781 18.6127 32.5159 19.3024 32.5159 19.9989C32.5159 20.6954 32.3781 21.3851 32.1102 22.0285C31.8424 22.672 31.4498 23.2566 30.9549 23.7489Z" fill="#67B8C7"/>
</g>
<defs>
<clipPath id="clip0">
<rect width="204.103" height="40" fill="white"/>
</clipPath>
</defs>
</svg>
