<svg width="48" height="48" viewBox="0 0 48 48" fill="none" xmlns="http://www.w3.org/2000/svg">
<path d="M38.8572 11.4286H9.14289C7.88053 11.4286 6.85718 12.4519 6.85718 13.7143V34.2857C6.85718 35.5481 7.88053 36.5714 9.14289 36.5714H38.8572C40.1195 36.5714 41.1429 35.5481 41.1429 34.2857V13.7143C41.1429 12.4519 40.1195 11.4286 38.8572 11.4286Z" fill="white"/>
<path d="M8 18.2857L19.3371 28.8114C20.6051 29.9874 22.2706 30.6408 24 30.6408C25.7294 30.6408 27.3949 29.9874 28.6629 28.8114L40 18.2857V11.4286H8V18.2857Z" fill="#AA9BFD"/>
<path d="M8 13.7143L19.3371 24.24C20.6051 25.416 22.2706 26.0694 24 26.0694C25.7294 26.0694 27.3949 25.416 28.6629 24.24L40 13.7143V11.4286H8V13.7143Z" fill="white"/>
<path d="M27.3142 26.3657L39.9999 35.4286" stroke="#3F3B98" stroke-width="2" stroke-linecap="round" stroke-linejoin="round"/>
<path d="M8 35.4286L20.6857 26.3657" stroke="#3F3B98" stroke-width="2" stroke-linecap="round" stroke-linejoin="round"/>
<path d="M38.8572 11.4286H9.14289C7.88053 11.4286 6.85718 12.4519 6.85718 13.7143V34.2857C6.85718 35.5481 7.88053 36.5714 9.14289 36.5714H38.8572C40.1195 36.5714 41.1429 35.5481 41.1429 34.2857V13.7143C41.1429 12.4519 40.1195 11.4286 38.8572 11.4286Z" stroke="#3F3B98" stroke-width="2" stroke-linecap="round" stroke-linejoin="round"/>
<path d="M8 13.7143L20.8914 25.68C21.7368 26.464 22.8471 26.8996 24 26.8996C25.1529 26.8996 26.2632 26.464 27.1086 25.68L40 13.7143" stroke="#3F3B98" stroke-width="2" stroke-linecap="round" stroke-linejoin="round"/>
</svg>
