<svg width="48" height="48" viewBox="0 0 48 48" fill="none" xmlns="http://www.w3.org/2000/svg">
<path d="M19.5 25C22.5376 25 25 22.5376 25 19.5C25 16.4624 22.5376 14 19.5 14C16.4624 14 14 16.4624 14 19.5C14 22.5376 16.4624 25 19.5 25Z" fill="white"/>
<path fill-rule="evenodd" clip-rule="evenodd" d="M28 38C27.5676 34.931 25.9074 29 19.5 29C13.0926 29 11.4323 34.931 11 38H28Z" fill="white"/>
<path d="M8 37.7143H40" stroke="#3F3B98" stroke-width="2" stroke-linecap="round" stroke-linejoin="round"/>
<path fill-rule="evenodd" clip-rule="evenodd" d="M19.4733 15.0001C18.6126 14.995 17.7638 15.2019 17.0019 15.6026C16.2401 16.0033 15.5887 16.5855 15.1052 17.2977C15.8003 16.9329 16.5742 16.7439 17.3592 16.7473C18.7203 16.7929 20.0076 17.3771 20.9381 18.3715C21.8686 19.3659 22.3661 20.6891 22.3214 22.0502C22.314 23.1507 21.9661 24.2219 21.3254 25.1167C22.4544 24.6708 23.3937 23.8469 23.9829 22.7856C24.5721 21.7243 24.7747 20.4914 24.5561 19.2974C24.3375 18.1034 23.7113 17.0222 22.7843 16.2385C21.8573 15.4548 20.6871 15.0171 19.4733 15.0001Z" fill="#AA9BFD"/>
<path fill-rule="evenodd" clip-rule="evenodd" d="M17.3063 30.7253C22.4432 30.7253 24.4176 34.6654 25.1689 37.7143H27.982C27.5452 34.7353 25.8678 28.9781 19.3943 28.9781C18.1868 28.926 16.9844 29.1646 15.8883 29.6739C14.7921 30.1832 13.8344 30.9482 13.0955 31.9047C14.3487 31.0974 15.8161 30.6864 17.3063 30.7253V30.7253Z" fill="#AA9BFD"/>
<path d="M19.4129 25.4835C22.3078 25.4835 24.6546 23.1367 24.6546 20.2418C24.6546 17.3469 22.3078 15.0001 19.4129 15.0001C16.518 15.0001 14.1711 17.3469 14.1711 20.2418C14.1711 23.1367 16.518 25.4835 19.4129 25.4835Z" stroke="#3F3B98" stroke-width="2" stroke-linecap="round" stroke-linejoin="round"/>
<path fill-rule="evenodd" clip-rule="evenodd" d="M27.9999 37.7143C27.5631 34.7352 25.8857 28.978 19.4122 28.978C12.9386 28.978 11.2613 34.7352 10.8245 37.7143H27.9999Z" stroke="#3F3B98" stroke-width="2" stroke-linecap="round" stroke-linejoin="round"/>
<line x1="29" y1="15" x2="40" y2="15" stroke="#3F3B98" stroke-width="2" stroke-linecap="round"/>
<line x1="32" y1="20" x2="40" y2="20" stroke="#3F3B98" stroke-width="2" stroke-linecap="round"/>
<line x1="34" y1="25" x2="40" y2="25" stroke="#3F3B98" stroke-width="2" stroke-linecap="round"/>
</svg>
