<svg width="48" height="48" viewBox="0 0 48 48" fill="none" xmlns="http://www.w3.org/2000/svg">
<path d="M39.8477 10.2857H8.15245C6.80593 10.2857 5.71436 11.4021 5.71436 12.7792V35.2208C5.71436 36.5979 6.80593 37.7143 8.15245 37.7143H39.8477C41.1942 37.7143 42.2858 36.5979 42.2858 35.2208V12.7792C42.2858 11.4021 41.1942 10.2857 39.8477 10.2857Z" fill="white"/>
<path d="M39.8477 10.2857H8.15245C6.80593 10.2857 5.71436 10.6113 5.71436 11.013V17.5584C5.71436 17.9601 6.80593 18.2857 8.15245 18.2857H39.8477C41.1942 18.2857 42.2858 17.9601 42.2858 17.5584V11.013C42.2858 10.6113 41.1942 10.2857 39.8477 10.2857Z" fill="#E4E7EC"/>
<path d="M39.8477 10.2857H8.15245C6.80593 10.2857 5.71436 11.4021 5.71436 12.7792V35.2208C5.71436 36.5979 6.80593 37.7143 8.15245 37.7143H39.8477C41.1942 37.7143 42.2858 36.5979 42.2858 35.2208V12.7792C42.2858 11.4021 41.1942 10.2857 39.8477 10.2857Z" stroke="#878A92" stroke-width="2" stroke-linecap="round" stroke-linejoin="round"/>
<path d="M18.2856 27.4285L21.7142 30.8571L29.7142 22.8571" stroke="#878A92" stroke-width="2" stroke-linecap="round" stroke-linejoin="round"/>
<rect x="6" y="16.5" width="36" height="2" fill="#878A92"/>
<circle cx="10" cy="14" r="1" fill="#878A92"/>
<circle cx="13" cy="14" r="1" fill="#878A92"/>
<circle cx="16" cy="14" r="1" fill="#878A92"/>
</svg>
