<svg width="159" height="31" viewBox="0 0 159 31" fill="none" xmlns="http://www.w3.org/2000/svg">
    <g clip-path="url(#clip0)">
        <path d="M6.88203 8.70722C7.77316 8.68369 8.6589 8.85391 9.47932 9.20635C10.2998 9.55879 11.0357 10.0852 11.6375 10.7501C11.6772 10.7897 11.7063 10.8389 11.7223 10.8929C11.7322 10.9472 11.7322 11.0029 11.7223 11.0572C11.7152 11.1132 11.6959 11.1669 11.6657 11.2144C11.6396 11.2644 11.6005 11.3063 11.5527 11.3358L11.2347 11.6644C11.1884 11.7157 11.1311 11.7556 11.067 11.7808C11.003 11.806 10.934 11.8159 10.8656 11.8096C10.7972 11.8034 10.7311 11.7812 10.6725 11.7449C10.614 11.7085 10.5645 11.659 10.5281 11.6001C9.53437 10.636 8.20991 10.0984 6.83257 10.1001C6.13212 10.0925 5.43742 10.2285 4.79048 10.5001C3.81208 10.905 2.9772 11.5988 2.39483 12.4908C1.81246 13.3827 1.50966 14.4315 1.52597 15.5001C1.50906 16.2123 1.63266 16.9207 1.88955 17.5841C2.14644 18.2475 2.53148 18.8525 3.02218 19.3639C3.51289 19.8752 4.09943 20.2826 4.74759 20.5623C5.39574 20.842 6.09251 20.9884 6.79724 20.9929C7.56593 20.9955 8.32554 20.825 9.02096 20.4939C9.71638 20.1628 10.3302 19.6793 10.8178 19.0787C11.051 18.8144 11.2418 18.8144 11.4326 19.0144L11.7859 19.3358C11.9484 19.5001 12.019 19.6644 11.8777 19.8572C11.2784 20.6323 10.5131 21.26 9.63921 21.693C8.76536 22.126 7.80576 22.3531 6.83257 22.3572C5.95001 22.3718 5.07337 22.2091 4.25346 21.8787C3.42015 21.5424 2.66117 21.0423 2.02059 20.4072C1.38161 19.768 0.872693 19.0085 0.522594 18.1715C0.17762 17.3353 0 16.4382 0 15.5322C0 14.6262 0.17762 13.7292 0.522594 12.8929C0.874446 12.0569 1.38314 11.2977 2.02059 10.6572C2.66117 10.0222 3.42015 9.52201 4.25346 9.1858C5.08877 8.84877 5.98288 8.68598 6.88203 8.70722Z"
              fill="black"/>
        <path d="M20.8727 8.70745C22.221 8.64896 23.5559 9.00009 24.705 9.71558C25.8541 10.4311 26.7649 11.4781 27.3199 12.7217C27.8749 13.9653 28.0486 15.3485 27.8187 16.6928C27.5889 18.0372 26.9659 19.2811 26.0302 20.2642C25.0944 21.2474 23.8888 21.9246 22.5688 22.2087C21.2487 22.4927 19.8748 22.3706 18.6241 21.8579C17.3733 21.3453 16.3032 20.4657 15.5516 19.3325C14.8 18.1994 14.4014 16.8646 14.4072 15.5003C14.3769 13.7338 15.0403 12.0272 16.2521 10.754C17.4639 9.48088 19.1253 8.74498 20.8727 8.70745ZM20.8727 21.0289C23.6991 21.0289 25.9178 18.586 25.9178 15.5003C25.9626 14.8004 25.865 14.0986 25.6308 13.4383C25.3967 12.7781 25.031 12.1734 24.5565 11.6616C24.082 11.1499 23.5087 10.742 22.872 10.4631C22.2353 10.1843 21.5489 10.0404 20.855 10.0404C20.1611 10.0404 19.4747 10.1843 18.838 10.4631C18.2013 10.742 17.628 11.1499 17.1535 11.6616C16.679 12.1734 16.3133 12.7781 16.0792 13.4383C15.845 14.0986 15.7474 14.8004 15.7922 15.5003C15.7851 18.586 18.0109 21.0289 20.8727 21.0289Z"
              fill="black"/>
        <path d="M30.6172 9.45013C30.6177 9.39343 30.6299 9.33745 30.653 9.28579C30.6761 9.23413 30.7096 9.18793 30.7514 9.15013C30.8338 9.07218 30.9424 9.02878 31.0553 9.0287H31.3803C31.4748 9.02075 31.5686 9.05079 31.6414 9.1123C31.7141 9.1738 31.76 9.26183 31.769 9.35727L31.8961 10.7858C33.1554 9.50058 34.8623 8.76474 36.6516 8.73584C40.2553 8.73584 41.831 11.043 41.831 14.6858V21.643C41.8309 21.7528 41.7877 21.8582 41.7109 21.9358C41.6326 22.0166 41.5259 22.0628 41.4141 22.0644H40.8347C40.7252 22.0617 40.6211 22.0155 40.545 21.9358C40.4691 21.8569 40.4239 21.7529 40.4178 21.643V14.6858C40.4178 11.693 39.0046 10.1287 36.588 10.1287C35.7134 10.1754 34.8568 10.3978 34.0683 10.7829C33.2797 11.168 32.5749 11.7081 31.9951 12.3716V21.6573C32.0088 21.7136 32.0088 21.7724 31.9951 21.8287C31.9737 21.8818 31.9426 21.9303 31.9032 21.9716C31.8665 22.0148 31.8169 22.0448 31.7619 22.0573C31.7063 22.0718 31.6479 22.0718 31.5923 22.0573H30.9846C30.9357 22.0679 30.8851 22.0679 30.8362 22.0573C30.7902 22.032 30.7495 21.9981 30.7161 21.9573C30.6818 21.9186 30.6576 21.872 30.6455 21.8216C30.635 21.7721 30.635 21.721 30.6455 21.6716L30.6172 9.45013Z"
              fill="black"/>
        <path d="M45.1096 20.4431L45.4346 19.9217C45.4659 19.8769 45.507 19.8402 45.5548 19.8145C45.6052 19.7873 45.6604 19.7703 45.7173 19.7645C45.771 19.7549 45.8261 19.7549 45.8798 19.7645C45.9288 19.7888 45.974 19.82 46.0141 19.8574C46.9897 20.6556 48.2003 21.1029 49.4552 21.1288C51.2853 21.1288 52.5431 20.0859 52.5431 18.8217C52.5431 17.3288 51.0945 16.6788 48.9394 15.8931C46.6571 15.0788 44.9824 14.0717 44.9824 12.0574C44.9824 10.6288 46.2402 8.6788 49.222 8.6788C50.5049 8.67216 51.7637 9.03112 52.854 9.71452C52.9456 9.78588 53.0104 9.88666 53.0377 10.0002C53.0583 10.1154 53.0383 10.2342 52.9812 10.3359L52.7833 10.6931C52.7535 10.7444 52.7153 10.7903 52.6703 10.8288C52.6213 10.8648 52.5662 10.8915 52.5077 10.9074C52.4497 10.9219 52.3891 10.9219 52.3311 10.9074C52.2738 10.8992 52.2186 10.8798 52.1686 10.8502C51.2762 10.2925 50.2563 9.97755 49.2079 9.93595C47.187 9.93595 46.438 11.1431 46.438 12.0217C46.438 13.3217 47.5969 13.9359 49.4976 14.6217C51.9071 15.5288 54.034 16.3431 54.034 18.7145C54.034 20.6645 52.0414 22.2859 49.4623 22.2859C47.9273 22.3257 46.4271 21.8202 45.2227 20.8574C45.1523 20.8079 45.102 20.7343 45.0813 20.6502C45.0713 20.5799 45.0811 20.5081 45.1096 20.4431Z"
              fill="black"/>
        <path d="M62.7813 8.70731C63.5578 8.68307 64.331 8.82089 65.0524 9.11217C65.7739 9.40345 66.4283 9.84194 66.9746 10.4003C67.521 10.9586 67.9476 11.6248 68.2279 12.3572C68.5082 13.0897 68.6361 13.8727 68.6037 14.6573C68.6037 15.1716 68.6037 15.9216 68.1232 15.9216H57.8633C57.9905 18.7216 59.9832 21.0573 62.8802 21.0573C64.2353 21.043 65.5557 20.6229 66.6747 19.8502C66.9644 19.6573 67.0916 19.6216 67.2541 19.8502L67.5791 20.3216C67.671 20.4502 67.6427 20.6502 67.4449 20.843C66.8089 21.493 64.781 22.3716 62.7813 22.3716C58.8597 22.3716 56.4219 19.3145 56.4219 15.5073C56.4219 11.7002 58.8597 8.70731 62.7813 8.70731ZM67.1905 14.7502C67.1905 12.2145 65.6784 10.0002 62.7813 10.0002C62.1516 9.98691 61.5254 10.0993 60.9387 10.331C60.3519 10.5626 59.8162 10.9089 59.362 11.3501C58.9078 11.7913 58.5442 12.3187 58.2919 12.9021C58.0396 13.4856 57.9036 14.1135 57.8916 14.7502H67.1905Z"
              fill="black"/>
        <path d="M71.9885 9.45036C71.9778 9.39613 71.9778 9.34031 71.9885 9.28608C72.0132 9.23528 72.0467 9.18933 72.0874 9.15036C72.1295 9.10882 72.1802 9.07713 72.2358 9.05751C72.2894 9.04673 72.3446 9.04673 72.3983 9.05751H72.794C72.8885 9.04956 72.9823 9.0796 73.0551 9.1411C73.1278 9.20261 73.1737 9.29063 73.1826 9.38608L73.3098 10.8147C74.5695 9.53003 76.2762 8.79431 78.0653 8.76465C81.6689 8.76465 83.2517 11.0718 83.2517 14.7146V21.6718C83.2456 21.7817 83.2004 21.8857 83.1245 21.9646C83.0463 22.0454 82.9396 22.0916 82.8278 22.0932H82.2484C82.1388 22.0905 82.0348 22.0443 81.9587 21.9646C81.8828 21.8857 81.8376 21.7817 81.8315 21.6718V14.7146C81.8315 11.7218 80.4183 10.1575 78.0087 10.1575C77.1323 10.2051 76.2739 10.4278 75.4831 10.8128C74.6924 11.1978 73.9849 11.7374 73.4017 12.4004V21.6861C73.4157 21.7423 73.4157 21.8012 73.4017 21.8575C73.3803 21.9106 73.3492 21.9591 73.3098 22.0004C73.2731 22.0436 73.2235 22.0737 73.1685 22.0861C73.1128 22.1 73.0546 22.1 72.9989 22.0861H72.3912C72.3423 22.0967 72.2917 22.0967 72.2428 22.0861C72.1969 22.0608 72.1561 22.0269 72.1227 21.9861C72.0884 21.9474 72.0642 21.9008 72.0521 21.8504C72.0416 21.8009 72.0416 21.7498 72.0521 21.7004L71.9885 9.45036Z"
              fill="black"/>
        <path d="M86.4814 20.4431L86.8065 19.9217C86.8356 19.8734 86.8771 19.8339 86.9266 19.8074C86.9761 19.779 87.0322 19.7642 87.0891 19.7646C87.1424 19.7503 87.1984 19.7503 87.2517 19.7646C87.3034 19.7871 87.3493 19.8213 87.3859 19.8646C88.3651 20.6555 89.574 21.0997 90.8271 21.1289C92.6642 21.1289 93.922 20.0931 93.922 18.8217C93.922 17.3289 92.4734 16.6789 90.3183 15.9003C88.0289 15.086 86.3613 14.0717 86.3613 12.0646C86.3613 10.636 87.612 8.67886 90.6009 8.67886C91.8841 8.67028 93.1434 9.02939 94.2329 9.71458C94.3288 9.78179 94.3948 9.88439 94.4166 10.0003C94.4434 10.1145 94.4256 10.2347 94.3671 10.336L94.1693 10.6931C94.1417 10.7461 94.1032 10.7924 94.0562 10.8289C94.0107 10.8662 93.9576 10.893 93.9008 10.9074C93.8424 10.9183 93.7825 10.9183 93.7241 10.9074C93.6673 10.8935 93.6127 10.8719 93.5616 10.8432C92.6688 10.2863 91.6492 9.97143 90.6009 9.92886C88.573 9.92886 87.8311 11.136 87.8311 12.0146C87.8311 13.3146 88.9828 13.936 90.8836 14.6146C93.3002 15.5217 95.42 16.336 95.42 18.7146C95.42 20.6646 93.4274 22.286 90.8553 22.286C89.3205 22.3245 87.8207 21.8191 86.6157 20.8574C86.5471 20.8093 86.4972 20.7386 86.4744 20.6574C86.4535 20.5871 86.456 20.5119 86.4814 20.4431Z"
              fill="black"/>
        <path d="M98.2326 9.45023C98.2353 9.33951 98.281 9.23431 98.3598 9.15738C98.4379 9.08066 98.5408 9.035 98.6495 9.02881H99.2289C99.3407 9.03042 99.4474 9.07663 99.5257 9.15738C99.6026 9.23504 99.6458 9.34038 99.6458 9.45023V16.4502C99.6458 19.486 101.059 21.0074 103.476 21.0074C104.309 20.9884 105.127 20.7724 105.863 20.3768C106.599 19.9811 107.233 19.4167 107.715 18.7288V9.44309C107.708 9.38855 107.708 9.33335 107.715 9.27881C107.737 9.22571 107.768 9.17722 107.807 9.13595C107.844 9.09683 107.89 9.06741 107.941 9.05024C107.997 9.03992 108.055 9.03992 108.111 9.05024H108.683C108.795 9.05185 108.902 9.09806 108.98 9.17881C109.056 9.25776 109.101 9.36175 109.107 9.47166V21.6145C109.102 21.7247 109.057 21.8292 108.98 21.9074C108.902 21.9881 108.795 22.0343 108.683 22.0359H108.302C108.047 22.0359 107.948 21.8431 107.913 21.6431L107.786 20.3788C107.227 21.0087 106.543 21.5125 105.779 21.8574C105.014 22.2006 104.185 22.3712 103.348 22.3574C99.7447 22.3574 98.1973 20.1145 98.1973 16.4431L98.2326 9.45023Z"
              fill="black"/>
        <path d="M112.696 20.4431L113.021 19.9217C113.054 19.8767 113.098 19.84 113.148 19.8146C113.196 19.7873 113.249 19.7703 113.303 19.7646C113.357 19.7538 113.412 19.7538 113.466 19.7646C113.516 19.787 113.561 19.8185 113.6 19.8574C114.576 20.6557 115.786 21.103 117.041 21.1288C118.878 21.1288 120.129 20.086 120.129 18.8217C120.129 17.3288 118.68 16.6788 116.525 15.8931C114.243 15.0788 112.568 14.0717 112.568 12.0574C112.568 10.6288 113.826 8.67884 116.808 8.67884C118.091 8.67103 119.35 9.03008 120.44 9.71455C120.532 9.78592 120.596 9.88669 120.624 10.0003C120.648 10.1154 120.627 10.2354 120.567 10.336L120.376 10.6931C120.346 10.7445 120.308 10.7904 120.263 10.8288C120.217 10.8648 120.164 10.8915 120.108 10.9074C120.05 10.9216 119.989 10.9216 119.931 10.9074C119.872 10.8993 119.814 10.8799 119.762 10.8503C118.871 10.2934 117.854 9.97848 116.808 9.93598C114.78 9.93598 114.038 11.1431 114.038 12.0217C114.038 13.3217 115.19 13.936 117.091 14.6217C119.5 15.5288 121.627 16.3503 121.627 18.7146C121.627 20.6646 119.634 22.286 117.062 22.286C115.527 22.3281 114.026 21.8224 112.823 20.8574C112.752 20.8083 112.7 20.7361 112.675 20.6529C112.651 20.5697 112.656 20.4805 112.688 20.4003L112.696 20.4431Z"
              fill="black"/>
        <path d="M133.109 23.6644L141.334 28.4573V2.54297L133.109 7.34297C132.952 7.44582 132.822 7.58496 132.728 7.7489C132.635 7.91284 132.581 8.09688 132.572 8.28583V22.7144C132.58 22.9046 132.633 23.09 132.727 23.2553C132.82 23.4206 132.951 23.5608 133.109 23.6644Z"
              fill="#FFB26A"/>
        <path d="M137.314 26.1074L150.436 18.3789C150.611 18.274 150.812 18.2197 151.016 18.2217C151.22 18.2229 151.42 18.2797 151.595 18.386L158.661 22.6717C158.758 22.7291 158.838 22.811 158.894 22.9093C158.949 23.0077 158.979 23.1191 158.979 23.2325C158.979 23.3458 158.949 23.4572 158.894 23.5555C158.838 23.6539 158.758 23.7358 158.661 23.7932L146.529 30.8789C146.362 30.9637 146.178 31.0078 145.992 31.0078C145.805 31.0078 145.621 30.9637 145.455 30.8789L137.314 26.1074Z"
              fill="#FF8B1E"/>
        <path d="M137.314 4.88591L150.436 12.6145C150.611 12.7193 150.812 12.7737 151.016 12.7716C151.219 12.7729 151.419 12.7187 151.595 12.6145L158.661 8.32877C158.759 8.27191 158.841 8.18977 158.898 8.09067C158.955 7.99158 158.985 7.87905 158.985 7.76448C158.985 7.64992 158.955 7.53739 158.898 7.43829C158.841 7.3392 158.759 7.25706 158.661 7.2002L146.529 0.121629C146.362 0.0368419 146.178 -0.00732422 145.992 -0.00732422C145.805 -0.00732422 145.621 0.0368419 145.455 0.121629L137.314 4.88591Z"
              fill="#FF6B00"/>
        <g style="mix-blend-mode:multiply">
            <path d="M132.572 8.28609V17.8861L154.76 4.92895L146.535 0.128953C146.368 0.0441661 146.184 0 145.998 0C145.811 0 145.627 0.0441661 145.461 0.128953L133.102 7.34324C132.946 7.44689 132.817 7.58638 132.725 7.75027C132.633 7.91416 132.581 8.09779 132.572 8.28609Z"
                  fill="#FF8B1E"/>
        </g>
        <g style="mix-blend-mode:multiply">
            <path d="M132.572 22.7146V13.1074L154.76 26.0646L146.535 30.8717C146.368 30.9565 146.184 31.0006 145.998 31.0006C145.811 31.0006 145.627 30.9565 145.461 30.8717L133.109 23.6646C132.951 23.561 132.82 23.4207 132.727 23.2555C132.633 23.0902 132.58 22.9047 132.572 22.7146Z"
                  fill="#FF8B1E"/>
        </g>
        <path d="M141.328 7.25732V12.7788L146.041 10.0288L141.328 7.25732Z" fill="#FF8B1E"/>
        <path d="M141.328 7.25725L141.335 2.54297L137.314 4.89297L141.328 7.25725Z" fill="#FF2500"/>
        <path d="M136.656 15.5L132.572 13.1143V17.8857L136.656 15.5Z" fill="#FF2F04"/>
        <path d="M136.656 15.5002L141.334 18.2288L141.327 12.7788L136.656 15.5002Z" fill="#FFB26A"/>
        <path d="M141.328 23.7428L141.335 18.2285L146.013 20.9857L141.328 23.7428Z" fill="#FF8B1E"/>
        <path d="M141.328 23.7432L141.335 28.4574L137.314 26.1074L141.328 23.7432Z" fill="#FF2F04"/>
    </g>
    <defs>
        <clipPath id="clip0">
            <rect width="159" height="31" fill="white"/>
        </clipPath>
    </defs>
</svg>
