<svg width="48" height="48" viewBox="0 0 48 48" fill="none" xmlns="http://www.w3.org/2000/svg">
<path d="M37.0002 9.85693H18.1431C17.0385 9.85693 16.1431 10.7524 16.1431 11.8569V36.4284C16.1431 37.5329 17.0385 38.4284 18.1431 38.4284H37.0002C38.1048 38.4284 39.0002 37.5329 39.0002 36.4284V11.8569C39.0002 10.7524 38.1048 9.85693 37.0002 9.85693Z" fill="white" stroke="#3F3B98" stroke-width="2" stroke-linecap="round" stroke-linejoin="round"/>
<path d="M9.43439 26.7826C11.4601 30.7451 14.6833 33.9683 18.6458 35.9941L20.9315 33.7083C21.1131 33.526 21.3416 33.3974 21.5917 33.3369C21.8418 33.2764 22.1038 33.2863 22.3487 33.3655C23.9593 33.9001 25.6459 34.1702 27.343 34.1655C27.5261 34.1685 27.7068 34.2075 27.8748 34.2803C28.0428 34.3531 28.1949 34.4584 28.3222 34.59C28.4496 34.7216 28.5498 34.877 28.6171 35.0473C28.6843 35.2176 28.7174 35.3995 28.7144 35.5826V40.4626C28.7144 40.8324 28.5675 41.187 28.306 41.4485C28.0445 41.71 27.6899 41.8569 27.3201 41.8569C21.0216 41.8569 14.9811 39.3548 10.5273 34.9011C6.07361 30.4474 3.57153 24.4068 3.57153 18.1083C3.57153 17.7385 3.71843 17.3839 3.97991 17.1224C4.24139 16.8609 4.59603 16.7141 4.96582 16.7141H9.85725C10.0403 16.7141 10.2217 16.7501 10.3908 16.8202C10.56 16.8903 10.7137 16.993 10.8432 17.1224C10.9726 17.2519 11.0753 17.4056 11.1454 17.5748C11.2155 17.7439 11.2515 17.9252 11.2515 18.1083C11.2517 19.805 11.5218 21.4908 12.0515 23.1026C12.1306 23.3484 12.1394 23.6113 12.0768 23.8618C12.0142 24.1122 11.8827 24.3402 11.6972 24.5198L9.43439 26.7826Z" fill="#AA9BFD" stroke="#3F3B98" stroke-width="2" stroke-linecap="round" stroke-linejoin="round"/>
<path d="M25.2859 23.5712H33.2859" stroke="#3F3B98" stroke-width="2" stroke-linecap="round" stroke-linejoin="round"/>
<path d="M25.2859 18.9998H33.2859" stroke="#3F3B98" stroke-width="2" stroke-linecap="round" stroke-linejoin="round"/>
<path d="M25.2859 28.1426H33.2859" stroke="#3F3B98" stroke-width="2" stroke-linecap="round" stroke-linejoin="round"/>
<path d="M22.5001 23.5712C22.5001 23.9262 22.2123 24.2141 21.8572 24.2141C21.5022 24.2141 21.2144 23.9262 21.2144 23.5712C21.2144 23.2162 21.5022 22.9283 21.8572 22.9283C22.2123 22.9283 22.5001 23.2162 22.5001 23.5712Z" fill="#878A92" stroke="#3F3B98"/>
<path d="M22.5001 28.1427C22.5001 28.4977 22.2123 28.7855 21.8572 28.7855C21.5022 28.7855 21.2144 28.4977 21.2144 28.1427C21.2144 27.7876 21.5022 27.4998 21.8572 27.4998C22.2123 27.4998 22.5001 27.7876 22.5001 28.1427Z" fill="#878A92" stroke="#3F3B98"/>
<path d="M22.5001 18.9998C22.5001 19.3548 22.2123 19.6426 21.8572 19.6426C21.5022 19.6426 21.2144 19.3548 21.2144 18.9998C21.2144 18.6448 21.5022 18.3569 21.8572 18.3569C22.2123 18.3569 22.5001 18.6448 22.5001 18.9998Z" fill="#878A92" stroke="#3F3B98"/>
</svg>
