<svg viewBox="0 0 48 48" fill="none" xmlns="http://www.w3.org/2000/svg">
    <path d="M36.7333 10H7.26667C6.01482 10 5 11.0582 5 12.3636V33.6364C5 34.9418 6.01482 36 7.26667 36H36.7333C37.9852 36 39 34.9418 39 33.6364V12.3636C39 11.0582 37.9852 10 36.7333 10Z" fill="white"/>
    <path d="M36.7333 10H7.26667C6.01482 10 5 10.3087 5 10.6894V16.8939C5 17.2747 6.01482 17.5833 7.26667 17.5833H36.7333C37.9852 17.5833 39 17.2747 39 16.8939V10.6894C39 10.3087 37.9852 10 36.7333 10Z" fill="#E4E7EC"/>
    <path d="M36.7333 10H7.26667C6.01482 10 5 11.0582 5 12.3636V33.6364C5 34.9418 6.01482 36 7.26667 36H36.7333C37.9852 36 39 34.9418 39 33.6364V12.3636C39 11.0582 37.9852 10 36.7333 10Z" stroke="#878A92" stroke-width="2" stroke-linecap="round" stroke-linejoin="round"/>
    <rect x="5" y="16" width="34" height="2" fill="#878A92"/>
    <circle cx="9" cy="13.5" r="1" fill="#878A92"/>
    <circle cx="12" cy="13.5" r="1" fill="#878A92"/>
    <circle cx="15" cy="13.5" r="1" fill="#878A92"/>
    <circle cx="36" cy="34" r="8" fill="white" stroke="#878A92" stroke-width="2"/>
    <rect x="35" y="30" width="2" height="6" rx="1" fill="#878A92"/>
    <rect x="35" y="37" width="2" height="2" rx="1" fill="#878A92"/>
</svg>
