<svg width="351" height="253" viewBox="0 0 351 253" fill="none" xmlns="http://www.w3.org/2000/svg">
<g clip-path="url(#clip0_3887_225983)">
<path opacity="0.5" d="M141.17 28.5083C102.683 39.6636 79.9049 72.5971 71.0031 92.2517C62.1013 111.906 54.2474 137.379 56.3419 172.311C58.9601 215.976 87.0327 230 103.176 230C149.548 230 150.595 215.916 190.392 208.267C230.188 200.617 286.369 231.442 293.024 172.311C299.307 116.475 273.911 83.0085 255.322 61.6543C231.235 33.9843 179.657 17.353 141.17 28.5083Z" fill="#D1CFFC"/>
<path d="M194.456 189.789L192.544 181.057H160.037L158.124 189.789H194.456Z" fill="#86D7EA"/>
<path d="M242.262 74.3203H110.32C107.152 74.3203 104.584 76.9268 104.584 80.1421V175.231C104.584 178.447 107.152 181.053 110.32 181.053H242.262C245.43 181.053 247.998 178.447 247.998 175.231V80.1421C247.998 76.9268 245.43 74.3203 242.262 74.3203Z" fill="white"/>
<path d="M147.608 208.224C147.608 206.422 148.313 204.695 149.568 203.421C150.823 202.147 152.526 201.432 154.301 201.432H198.281C200.056 201.432 201.758 202.147 203.014 203.421C204.269 204.695 204.974 206.422 204.974 208.224H147.608Z" fill="white"/>
<path d="M93.6553 201.843C91.1292 203.381 89.0626 205.587 87.6763 208.225H116.359C114.973 205.587 112.906 203.381 110.38 201.843C107.854 200.305 104.964 199.492 102.018 199.492C99.0719 199.492 96.1814 200.305 93.6553 201.843Z" fill="white"/>
<path d="M242.263 181H110.322C108.8 181 107.341 180.387 106.266 179.295C105.19 178.203 104.585 176.722 104.585 175.178V160.624H248V175.178C248 176.722 247.396 178.203 246.32 179.295C245.244 180.387 243.785 181 242.263 181Z" fill="#AA9BFD"/>
<path d="M176.118 174.237C177.84 174.237 179.237 172.84 179.237 171.118C179.237 169.396 177.84 168 176.118 168C174.396 168 173 169.396 173 171.118C173 172.84 174.396 174.237 176.118 174.237Z" fill="white"/>
<path fill-rule="evenodd" clip-rule="evenodd" d="M176.118 167C173.844 167 172 168.844 172 171.118C172 173.393 173.844 175.237 176.118 175.237C178.393 175.237 180.237 173.393 180.237 171.118C180.237 168.844 178.393 167 176.118 167ZM174 171.118C174 169.948 174.948 169 176.118 169C177.288 169 178.237 169.948 178.237 171.118C178.237 172.288 177.288 173.237 176.118 173.237C174.948 173.237 174 172.288 174 171.118Z" fill="#3F3B98"/>
<path fill-rule="evenodd" clip-rule="evenodd" d="M110.32 182.875H157.87L154.729 199.611H154.3C152.05 199.611 149.891 200.519 148.3 202.134C147.138 203.313 146.348 204.799 146.006 206.404H117.398C115.884 203.9 113.795 201.797 111.303 200.28C108.498 198.572 105.288 197.67 102.017 197.67C98.7465 197.67 95.537 198.572 92.7322 200.28C90.2403 201.797 88.151 203.9 86.6364 206.404H28.0958C27.1052 206.404 26.3022 207.219 26.3022 208.224C26.3022 209.23 27.1052 210.045 28.0958 210.045H324.486C325.477 210.045 326.28 209.23 326.28 208.224C326.28 207.219 325.477 206.404 324.486 206.404H206.576C206.234 204.799 205.444 203.313 204.282 202.134C202.69 200.519 200.532 199.611 198.281 199.611H197.853L194.712 182.875H242.262C246.421 182.875 249.792 179.454 249.792 175.233V80.1439C249.792 75.9234 246.421 72.502 242.262 72.502H110.32C106.162 72.502 102.79 75.9234 102.79 80.1439V175.233C102.79 179.454 106.162 182.875 110.32 182.875ZM106.377 80.1439C106.377 77.9339 108.143 76.1423 110.32 76.1423H242.262C244.44 76.1423 246.205 77.9339 246.205 80.1439V159.77H106.377V80.1439ZM106.377 161.59V175.233C106.377 177.443 108.143 179.235 110.32 179.235H160.003C160.025 179.234 160.046 179.234 160.067 179.235H192.515C192.536 179.234 192.557 179.234 192.579 179.235H242.262C244.44 179.235 246.205 177.443 246.205 175.233V161.59H106.377ZM202.84 206.404C202.596 205.774 202.226 205.196 201.745 204.708C200.826 203.775 199.58 203.252 198.281 203.252H154.3C153.001 203.252 151.755 203.775 150.836 204.708C150.356 205.196 149.985 205.774 149.741 206.404H202.84ZM91.0644 206.404H112.971C111.969 205.225 110.784 204.21 109.457 203.402C107.21 202.033 104.638 201.31 102.017 201.31C99.3966 201.31 96.8251 202.033 94.5778 203.402C93.2506 204.21 92.066 205.225 91.0644 206.404ZM161.522 182.875L158.38 199.611H194.202L191.06 182.875H161.522Z" fill="#3F3B98"/>
<path opacity="0.5" d="M205.148 117.103C205.148 133.041 192.228 145.96 176.291 145.96C160.354 145.96 147.434 133.041 147.434 117.103C147.434 101.166 160.354 88.2461 176.291 88.2461C192.228 88.2461 205.148 101.166 205.148 117.103Z" fill="#D1CFFC"/>
<path d="M189.277 109.17L183.505 114.941V109.891C183.505 109.097 182.856 108.448 182.063 108.448H173.146L189.277 124.579V109.17ZM163.695 102.677L161.863 104.509L165.802 108.448H164.748C163.955 108.448 163.305 109.097 163.305 109.891V124.32C163.305 125.113 163.955 125.762 164.748 125.762H182.063C182.366 125.762 182.625 125.647 182.842 125.503L187.444 130.091L189.277 128.259L163.695 102.677Z" fill="#3F3B98"/>
<path d="M160.916 58.6927C160.916 56.951 162.328 55.5391 164.07 55.5391H186.145C187.887 55.5391 189.299 56.951 189.299 58.6927V65.0001C189.299 66.7418 187.887 68.1538 186.145 68.1538H164.07C162.328 68.1538 160.916 66.7418 160.916 65.0001V58.6927Z" fill="#3F3B98"/>
<path d="M174.822 65.0288C176.406 65.0288 177.69 63.7256 177.69 62.1179C177.69 60.5103 176.406 59.207 174.822 59.207C173.238 59.207 171.954 60.5103 171.954 62.1179C171.954 63.7256 173.238 65.0288 174.822 65.0288Z" fill="white"/>
</g>
<defs>
<clipPath id="clip0_3887_225983">
<rect width="303" height="205" fill="white" transform="translate(24 24)"/>
</clipPath>
</defs>
</svg>
