<svg viewBox="0 0 44 44" fill="none" xmlns="http://www.w3.org/2000/svg">
    <rect width="44" height="44" fill="#5E5EAF"/>
    <path fill-rule="evenodd" clip-rule="evenodd" d="M25.3798 24.1605C24.2106 25.2508 23.0805 25.66 21.9848 25.66C20.8895 25.66 19.8021 25.1817 19.1105 24.5372C18.3612 23.8387 17.6733 22.6777 17.6733 21.4759C17.6733 20.2735 18.1841 19.427 18.7746 18.8764C19.5281 18.1739 20.6586 17.6783 22.3414 17.6783C23.6699 17.6783 24.8906 17.9684 25.9936 18.9967C26.7123 19.6665 26.864 20.4524 26.864 20.9884C26.864 21.7273 26.5491 23.0703 25.3798 24.1605ZM21.0932 12.4514C17.5621 12.4514 14.9017 13.2842 13.3578 14.7235C11.6912 16.277 11.0381 18.1457 11.0381 20.2814C11.0381 23.668 12.8762 27.2997 15.4424 29.6924C16.1125 30.317 18.4269 32.2361 21.4565 32.2361C24.5564 32.2361 26.8609 30.4708 28.3094 29.1204C31.1116 26.5078 33.6492 22.003 33.6492 19.0664C33.6492 17.415 32.8419 16.2881 32.2242 15.7122C29.7887 13.4414 24.5564 12.4514 21.0932 12.4514Z" fill="white"/>
</svg>
