<svg width="568" height="180" viewBox="0 0 568 180" fill="none" xmlns="http://www.w3.org/2000/svg">
<g clip-path="url(#clip0_4826_61488)">
<rect width="568" height="180" rx="4" fill="#D2D5DA"/>
<path d="M16 -14C16 -18.4183 19.5817 -22 24 -22H568V284H16V-14Z" fill="url(#paint0_linear_4826_61488)"/>
<g opacity="0.76" filter="url(#filter0_ddd_4826_61488)">
<path d="M105 5.00001C105 -1.07513 109.925 -6 116 -6H567V228H105V5.00001Z" fill="#F9F9FB"/>
</g>
<path d="M180.785 134.879C180.806 134.692 180.698 134.514 180.523 134.446C180.348 134.377 180.148 134.434 180.036 134.585L176.332 139.585C176.239 139.712 176.224 139.88 176.295 140.021C176.366 140.161 176.51 140.25 176.667 140.25H179.535L179.216 143.121C179.195 143.308 179.302 143.486 179.478 143.555C179.653 143.623 179.853 143.566 179.965 143.415L183.668 138.415C183.762 138.288 183.777 138.12 183.706 137.979C183.635 137.839 183.491 137.75 183.334 137.75H180.466L180.785 134.879Z" fill="#7971FF"/>
<path fill-rule="evenodd" clip-rule="evenodd" d="M171.667 139C171.667 134.398 175.398 130.667 180 130.667C184.603 130.667 188.334 134.398 188.334 139C188.334 143.602 184.603 147.333 180 147.333C175.398 147.333 171.667 143.602 171.667 139ZM180 132.333C176.318 132.333 173.334 135.318 173.334 139C173.334 142.682 176.318 145.667 180 145.667C183.682 145.667 186.667 142.682 186.667 139C186.667 135.318 183.682 132.333 180 132.333Z" fill="#7971FF"/>
<circle cx="215" cy="139" r="8" fill="#D9D9D9"/>
<circle cx="247" cy="139" r="8" fill="#D9D9D9"/>
<circle cx="279" cy="139" r="8" fill="#D9D9D9"/>
<circle cx="311" cy="139" r="8" fill="#D9D9D9"/>
<path d="M152 122H539V120H152V122Z" fill="#CCCEDB" mask="url(#path-6-inside-1_4826_61488)"/>
<g filter="url(#filter1_d_4826_61488)">
<rect x="109" y="40" width="142" height="72" rx="6" fill="#F8F8FA" shape-rendering="crispEdges"/>
<mask id="path-14-outside-2_4826_61488" maskUnits="userSpaceOnUse" x="107" y="38" width="146" height="85" fill="black">
<rect fill="white" x="107" y="38" width="146" height="85"/>
<path fill-rule="evenodd" clip-rule="evenodd" d="M113 40C110.791 40 109 41.7909 109 44V108C109 110.209 110.791 112 113 112H171.736L179.55 119.814L187.364 112H247C249.209 112 251 110.209 251 108V44C251 41.7909 249.209 40 247 40H113Z"/>
</mask>
<path fill-rule="evenodd" clip-rule="evenodd" d="M113 40C110.791 40 109 41.7909 109 44V108C109 110.209 110.791 112 113 112H171.736L179.55 119.814L187.364 112H247C249.209 112 251 110.209 251 108V44C251 41.7909 249.209 40 247 40H113Z" fill="#F8F8FA"/>
<path d="M171.736 112L173.151 110.586L172.565 110H171.736V112ZM179.55 119.814L178.136 121.228L179.55 122.642L180.964 121.228L179.55 119.814ZM187.364 112V110H186.535L185.95 110.586L187.364 112ZM111 44C111 42.8954 111.895 42 113 42V38C109.686 38 107 40.6863 107 44H111ZM111 108V44H107V108H111ZM113 110C111.895 110 111 109.105 111 108H107C107 111.314 109.686 114 113 114V110ZM171.736 110H113V114H171.736V110ZM180.964 118.399L173.151 110.586L170.322 113.414L178.136 121.228L180.964 118.399ZM185.95 110.586L178.136 118.399L180.964 121.228L188.778 113.414L185.95 110.586ZM247 110H187.364V114H247V110ZM249 108C249 109.105 248.105 110 247 110V114C250.314 114 253 111.314 253 108H249ZM249 44V108H253V44H249ZM247 42C248.105 42 249 42.8954 249 44H253C253 40.6863 250.314 38 247 38V42ZM113 42H247V38H113V42Z" fill="#7971FF" mask="url(#path-14-outside-2_4826_61488)"/>
</g>
<rect x="152.5" y="-16.5" width="386" height="173" rx="7.5" stroke="#CCCEDB"/>
</g>
<rect x="0.5" y="0.5" width="567" height="179" rx="3.5" stroke="#CCCEDB"/>
<defs>
<filter id="filter0_ddd_4826_61488" x="98" y="-12" width="476" height="249" filterUnits="userSpaceOnUse" color-interpolation-filters="sRGB">
<feFlood flood-opacity="0" result="BackgroundImageFix"/>
<feColorMatrix in="SourceAlpha" type="matrix" values="0 0 0 0 0 0 0 0 0 0 0 0 0 0 0 0 0 0 127 0" result="hardAlpha"/>
<feOffset dy="1"/>
<feGaussianBlur stdDeviation="3.5"/>
<feColorMatrix type="matrix" values="0 0 0 0 0.270588 0 0 0 0 0.258824 0 0 0 0 0.384314 0 0 0 0.08 0"/>
<feBlend mode="normal" in2="BackgroundImageFix" result="effect1_dropShadow_4826_61488"/>
<feColorMatrix in="SourceAlpha" type="matrix" values="0 0 0 0 0 0 0 0 0 0 0 0 0 0 0 0 0 0 127 0" result="hardAlpha"/>
<feOffset dy="4"/>
<feGaussianBlur stdDeviation="2.5"/>
<feColorMatrix type="matrix" values="0 0 0 0 0.215686 0 0 0 0 0.196078 0 0 0 0 0.286275 0 0 0 0.14 0"/>
<feBlend mode="normal" in2="effect1_dropShadow_4826_61488" result="effect2_dropShadow_4826_61488"/>
<feColorMatrix in="SourceAlpha" type="matrix" values="0 0 0 0 0 0 0 0 0 0 0 0 0 0 0 0 0 0 127 0" result="hardAlpha"/>
<feOffset dy="2"/>
<feGaussianBlur stdDeviation="0.5"/>
<feComposite in2="hardAlpha" operator="out"/>
<feColorMatrix type="matrix" values="0 0 0 0 0.215686 0 0 0 0 0.196078 0 0 0 0 0.286275 0 0 0 0.04 0"/>
<feBlend mode="normal" in2="effect2_dropShadow_4826_61488" result="effect3_dropShadow_4826_61488"/>
<feBlend mode="normal" in="SourceGraphic" in2="effect3_dropShadow_4826_61488" result="shape"/>
</filter>
<filter id="filter1_d_4826_61488" x="103" y="38" width="154" height="92.6421" filterUnits="userSpaceOnUse" color-interpolation-filters="sRGB">
<feFlood flood-opacity="0" result="BackgroundImageFix"/>
<feColorMatrix in="SourceAlpha" type="matrix" values="0 0 0 0 0 0 0 0 0 0 0 0 0 0 0 0 0 0 127 0" result="hardAlpha"/>
<feOffset dy="4"/>
<feGaussianBlur stdDeviation="2"/>
<feComposite in2="hardAlpha" operator="out"/>
<feColorMatrix type="matrix" values="0 0 0 0 0 0 0 0 0 0 0 0 0 0 0 0 0 0 0.15 0"/>
<feBlend mode="normal" in2="BackgroundImageFix" result="effect1_dropShadow_4826_61488"/>
<feBlend mode="normal" in="SourceGraphic" in2="effect1_dropShadow_4826_61488" result="shape"/>
</filter>
<linearGradient id="paint0_linear_4826_61488" x1="96.8385" y1="22.8127" x2="280.341" y2="353.838" gradientUnits="userSpaceOnUse">
<stop stop-color="#F9F6F6"/>
<stop offset="0.3906" stop-color="#F5F5F8"/>
</linearGradient>
<clipPath id="clip0_4826_61488">
<rect width="568" height="180" rx="4" fill="white"/>
</clipPath>
</defs>
</svg>
