<svg width="123" height="120" viewBox="0 0 123 120" fill="none" xmlns="http://www.w3.org/2000/svg">
<path d="M60 120C93.1371 120 120 93.1371 120 60C120 26.8629 93.1371 0 60 0C26.8629 0 0 26.8629 0 60C0 93.1371 26.8629 120 60 120Z" fill="#CBCBD6" fill-opacity="0.5"/>
<path d="M39 88.9999V50.9999C39 49.4086 39.6321 47.8825 40.7573 46.7572C41.8826 45.632 43.4087 44.9999 45 44.9999H107C108.591 44.9999 110.117 45.632 111.243 46.7572C112.368 47.8825 113 49.4086 113 50.9999V88.9999" fill="#F3F6FF"/>
<path d="M39 88.9999V50.9999C39 49.4086 39.6321 47.8825 40.7573 46.7572C41.8826 45.632 43.4087 44.9999 45 44.9999H107C108.591 44.9999 110.117 45.632 111.243 46.7572C112.368 47.8825 113 49.4086 113 50.9999V88.9999" stroke="#807D8E" stroke-width="4" stroke-linecap="round" stroke-linejoin="round"/>
<path d="M108 49.9999H44V88.9999H108V49.9999Z" fill="#CBCBD6" stroke="#807D8E" stroke-width="2" stroke-linecap="round" stroke-linejoin="round"/>
<path d="M31 88.9999H121C121 91.1216 120.157 93.1564 118.657 94.6567C117.157 96.157 115.122 96.9999 113 96.9999H39C36.8783 96.9999 34.8434 96.157 33.3431 94.6567C31.8428 93.1564 31 91.1216 31 88.9999Z" fill="white" stroke="#807D8E" stroke-width="4" stroke-linecap="round" stroke-linejoin="round"/>
<path d="M53.67 33.2999C54.3859 29.6364 53.8762 25.8392 52.2195 22.4942C50.5627 19.1492 47.8511 16.4425 44.5031 14.7918C41.1552 13.1411 37.357 12.6383 33.6948 13.3609C30.0326 14.0835 26.7101 15.9913 24.24 18.7899C22.4251 18.1044 20.4711 17.8692 18.5454 18.1044C16.6196 18.3395 14.7796 19.0381 13.1831 20.1402C11.5865 21.2423 10.2809 22.715 9.37817 24.4322C8.47547 26.1494 8.00256 28.0599 7.99998 29.9999C7.99921 30.8681 8.09649 31.7336 8.28998 32.5799C5.95448 34.5689 4.28494 37.226 3.50644 40.1933C2.72794 43.1605 2.87792 46.2951 3.93615 49.1744C4.99438 52.0537 6.90997 54.5394 9.42469 56.2963C11.9394 58.0531 14.9323 58.9968 18 58.9999H46C49.0111 58.996 51.9407 58.0213 54.3541 56.2206C56.7674 54.4199 58.5359 51.889 59.397 49.0036C60.2581 46.1183 60.166 43.0321 59.1343 40.2033C58.1027 37.3744 56.1864 34.9535 53.67 33.2999Z" fill="white" stroke="#807D8E" stroke-width="4" stroke-linecap="round" stroke-linejoin="round"/>
<path d="M26 44L38 32" stroke="#807D8E" stroke-width="2" stroke-linecap="round" stroke-linejoin="round"/>
<path d="M38 44.0001L26 32.0001" stroke="#807D8E" stroke-width="2" stroke-linecap="round" stroke-linejoin="round"/>
<path d="M63.36 26.5699L59.99 21.9899L64.57 18.6299" stroke="#807D8E" stroke-width="2" stroke-linecap="round" stroke-linejoin="round"/>
<path d="M30.8 74.7L30.11 80.34L24.47 79.64" stroke="#807D8E" stroke-width="2" stroke-linecap="round" stroke-linejoin="round"/>
<path d="M60 22.0699C66.4168 22.534 72.512 25.0589 77.3774 29.2683C82.2428 33.4778 85.6179 39.1465 87 45.4299" stroke="#807D8E" stroke-width="2" stroke-linecap="round" stroke-linejoin="round" stroke-dasharray="6 8"/>
<path d="M29.4 79.5299C26.4312 76.7469 24.0652 73.3841 22.4484 69.6499C20.8315 65.9156 19.9982 61.8892 20 57.8199" stroke="#807D8E" stroke-width="2" stroke-linecap="round" stroke-linejoin="round" stroke-dasharray="6 8"/>
</svg>
