<svg width="352" height="253" viewBox="0 0 352 253" fill="none" xmlns="http://www.w3.org/2000/svg">
<g clip-path="url(#clip0_3887_226067)">
<path opacity="0.5" d="M142.17 27.5083C103.683 38.6636 80.9049 71.5971 72.0031 91.2517C63.1013 110.906 55.2474 136.379 57.3419 171.311C59.9601 214.976 88.0327 229 104.176 229C150.548 229 151.595 214.916 191.392 207.267C231.188 199.617 287.369 230.442 294.024 171.311C300.307 115.475 274.911 82.0085 256.322 60.6543C232.235 32.9843 180.657 16.353 142.17 27.5083Z" fill="#D1CFFC"/>
<path d="M193.741 189.789L191.804 181.057H158.875L156.938 189.789H193.741Z" fill="#86D7EA"/>
<path d="M242.189 181L108.539 181C106.998 181 105.52 180.387 104.43 179.295C103.341 178.203 102.728 176.722 102.728 175.178V160.624L248 160.624V175.178C248 176.722 247.388 178.203 246.298 179.295C245.208 180.387 243.73 181 242.189 181V181Z" fill="#AA9BFD"/>
<path d="M108.8 74H242.2C245.403 74 248 76.1246 248 78.7455V158.5C248 161.009 245.62 161.005 242.606 161C242.472 161 242.336 161 242.2 161H108.8C108.259 161 107.735 161.018 107.238 161.035C104.793 161.117 103 161.178 103 159V78.7455C103 76.1246 105.597 74 108.8 74Z" fill="white"/>
<path d="M178.237 171.118C178.237 172.841 176.841 174.237 175.118 174.237C173.396 174.237 172 172.841 172 171.118C172 169.396 173.396 168 175.118 168C176.841 168 178.237 169.396 178.237 171.118Z" fill="white"/>
<path d="M85.5776 208.225C86.9819 205.587 89.0753 203.381 91.6341 201.843C94.1928 200.305 97.1208 199.492 100.105 199.492C103.089 199.492 106.017 200.305 108.576 201.843C111.134 203.381 113.228 205.587 114.632 208.225H85.5776Z" fill="white"/>
<path d="M148.271 203.419C147 204.693 146.285 206.42 146.285 208.222H204.394C204.394 206.42 203.68 204.693 202.408 203.419C201.137 202.145 199.413 201.43 197.615 201.43H153.065C151.267 201.43 149.542 202.145 148.271 203.419Z" fill="white"/>
<path fill-rule="evenodd" clip-rule="evenodd" d="M175.118 169C173.948 169 173 169.948 173 171.118C173 172.288 173.948 173.237 175.118 173.237C176.288 173.237 177.237 172.288 177.237 171.118C177.237 169.948 176.288 169 175.118 169ZM171 171.118C171 168.844 172.844 167 175.118 167C177.393 167 179.237 168.844 179.237 171.118C179.237 173.393 177.393 175.237 175.118 175.237C172.844 175.237 171 173.393 171 171.118Z" fill="#3F3B98"/>
<path d="M172.607 48.0049C172.607 48.854 173.294 49.5424 174.142 49.5424C174.989 49.5424 175.676 48.854 175.676 48.0049L175.676 32.0024C175.676 31.1532 174.989 30.4648 174.142 30.4648C173.294 30.4648 172.607 31.1532 172.607 32.0023L172.607 48.0049Z" fill="#3F3B98"/>
<path d="M182.64 50.6081C182.041 50.0077 182.041 49.0342 182.64 48.4337L190.546 40.5129C191.145 39.9124 192.117 39.9124 192.716 40.5129C193.315 41.1133 193.315 42.0868 192.716 42.6872L184.81 50.6081C184.211 51.2085 183.239 51.2085 182.64 50.6081Z" fill="#3F3B98"/>
<path d="M156.06 40.5158C155.46 39.9153 154.489 39.9153 153.889 40.5158C153.29 41.1162 153.29 42.0897 153.889 42.6901L161.795 50.611C162.395 51.2114 163.366 51.2114 163.966 50.611C164.565 50.0105 164.565 49.0371 163.966 48.4366L156.06 40.5158Z" fill="#3F3B98"/>
<path d="M162.961 55.9447C161.196 55.9447 159.766 57.375 159.766 59.1392V65.5283C159.766 67.2925 161.196 68.7228 162.961 68.7228H185.322C187.087 68.7228 188.517 67.2925 188.517 65.5283V59.1392C188.517 57.375 187.087 55.9447 185.322 55.9447H162.961Z" fill="#3F3B98"/>
<path d="M204.353 119.18C208.66 119.18 212.148 115.685 212.148 111.37C212.148 107.055 208.66 103.561 204.353 103.561C200.047 103.561 196.558 107.055 196.558 111.37C196.558 115.685 200.047 119.18 204.353 119.18Z" fill="#3F3B98"/>
<path d="M204.353 123.084C199.15 123.084 188.763 125.701 188.763 130.894V134.799H219.943V130.894C219.943 125.701 209.556 123.084 204.353 123.084Z" fill="#3F3B98"/>
<path d="M180.969 148.23C180.969 146.615 182.278 145.307 183.892 145.307H224.815C226.43 145.307 227.738 146.615 227.738 148.23C227.738 149.844 226.43 151.153 224.815 151.153H183.892C182.278 151.153 180.969 149.844 180.969 148.23Z" fill="#3F3B98"/>
<path fill-rule="evenodd" clip-rule="evenodd" d="M156.68 182.875H108.515C104.302 182.875 100.887 179.454 100.887 175.233V80.1439C100.887 75.9234 104.302 72.502 108.515 72.502H242.165C246.377 72.502 249.792 75.9234 249.792 80.1439V175.233C249.792 179.454 246.377 182.875 242.165 182.875H193.999L197.181 199.611H197.615C199.894 199.611 202.081 200.519 203.693 202.134C204.87 203.313 205.67 204.799 206.017 206.404H325.454C326.457 206.404 327.27 207.219 327.27 208.224C327.27 209.23 326.457 210.045 325.454 210.045H25.2259C24.2226 210.045 23.4092 209.23 23.4092 208.224C23.4092 207.219 24.2226 206.404 25.2259 206.404H84.5243C86.0585 203.9 88.1749 201.797 90.6991 200.28C93.5402 198.572 96.7912 197.67 100.105 197.67C103.418 197.67 106.669 198.572 109.51 200.28C112.034 201.797 114.15 203.9 115.685 206.404H144.662C145.009 204.799 145.809 203.313 146.986 202.134C148.598 200.519 150.785 199.611 153.065 199.611H153.498L156.68 182.875ZM108.515 76.1423C106.309 76.1423 104.521 77.9339 104.521 80.1439V159.77H246.159V80.1439C246.159 77.9339 244.371 76.1423 242.165 76.1423H108.515ZM104.521 175.233V161.59H246.159V175.233C246.159 177.443 244.371 179.235 242.165 179.235H191.838L191.815 179.234C191.801 179.234 191.788 179.234 191.774 179.235H158.906C158.884 179.234 158.863 179.234 158.842 179.235H108.515C106.309 179.235 104.521 177.443 104.521 175.233ZM160.379 182.875L157.197 199.611H193.482L190.301 182.875H160.379ZM201.124 204.708C201.611 205.196 201.986 205.774 202.233 206.404H148.446C148.693 205.774 149.069 205.196 149.556 204.708C150.486 203.775 151.748 203.252 153.065 203.252H197.615C198.931 203.252 200.193 203.775 201.124 204.708ZM111.199 206.404H89.0096C90.0242 205.225 91.2242 204.21 92.5685 203.402C94.8449 202.033 97.4498 201.31 100.105 201.31C102.759 201.31 105.364 202.033 107.641 203.402C108.985 204.21 110.185 205.225 111.199 206.404Z" fill="#3F3B98"/>
<g opacity="0.5">
<path d="M209.008 79.2077C209.008 98.4644 224.788 114.075 244.253 114.075C244.889 114.075 245.522 114.058 246.151 114.025V76.0449H209.151C209.057 77.0866 209.008 78.1416 209.008 79.2077Z" fill="#D1CFFC"/>
<path d="M113.31 87.7147C113.31 86.1108 114.607 84.8105 116.208 84.8105H155.134C156.735 84.8105 158.033 86.1108 158.033 87.7147V111.674C158.033 113.277 156.735 114.578 155.134 114.578H116.208C114.607 114.578 113.31 113.277 113.31 111.674V87.7147Z" fill="#D1CFFC"/>
<path d="M113.31 124.519C113.31 122.915 114.607 121.615 116.208 121.615H155.134C156.735 121.615 158.033 122.915 158.033 124.519V148.478C158.033 150.082 156.735 151.382 155.134 151.382H116.208C114.607 151.382 113.31 150.082 113.31 148.478V124.519Z" fill="#D1CFFC"/>
</g>
<path d="M139.071 96.7262C139.071 98.6139 137.545 100.143 135.661 100.143C133.777 100.143 132.251 98.6139 132.251 96.7262C132.251 94.8385 133.777 93.3096 135.661 93.3096C137.545 93.3096 139.071 94.8385 139.071 96.7262Z" fill="#9E99FF"/>
<path d="M128.84 105.268C128.84 102.996 133.384 101.851 135.661 101.851C137.937 101.851 142.481 102.996 142.481 105.268V106.976H128.84V105.268Z" fill="#9E99FF"/>
<path d="M139.071 133.334C139.071 135.221 137.545 136.75 135.661 136.75C133.777 136.75 132.251 135.221 132.251 133.334C132.251 131.446 133.777 129.917 135.661 129.917C137.545 129.917 139.071 131.446 139.071 133.334Z" fill="#9E99FF"/>
<path d="M128.84 141.875C128.84 139.603 133.384 138.459 135.661 138.459C137.937 138.459 142.481 139.603 142.481 141.875V143.584H128.84V141.875Z" fill="#9E99FF"/>
<path d="M277.431 78.0777C277.431 95.8358 263.035 110.232 245.277 110.232C227.519 110.232 213.123 95.8358 213.123 78.0777C213.123 60.3196 227.519 45.9238 245.277 45.9238C263.035 45.9238 277.431 60.3196 277.431 78.0777Z" fill="white"/>
<path fill-rule="evenodd" clip-rule="evenodd" d="M273.777 78.0777C273.777 93.8178 261.017 106.578 245.277 106.578C229.537 106.578 216.777 93.8178 216.777 78.0777C216.777 62.3376 229.537 49.5777 245.277 49.5777C261.017 49.5777 273.777 62.3376 273.777 78.0777ZM277.431 78.0777C277.431 95.8358 263.035 110.232 245.277 110.232C227.519 110.232 213.123 95.8358 213.123 78.0777C213.123 60.3196 227.519 45.9238 245.277 45.9238C263.035 45.9238 277.431 60.3196 277.431 78.0777ZM238.454 88.5012C239.259 89.3067 240.48 89.4435 241.427 88.9116C241.621 88.8027 241.803 88.6658 241.968 88.5009L259.053 71.4153C260.024 70.445 260.024 68.8719 259.053 67.9016C258.083 66.9313 256.51 66.9313 255.54 67.9016L240.211 83.2306L235.181 78.2015C234.211 77.2312 232.638 77.2312 231.668 78.2015C230.697 79.1718 230.697 80.745 231.668 81.7153L238.454 88.5012Z" fill="#3F3B98"/>
<path d="M173.852 65.0269C175.457 65.0269 176.758 63.7236 176.758 62.116C176.758 60.5083 175.457 59.2051 173.852 59.2051C172.248 59.2051 170.947 60.5083 170.947 62.116C170.947 63.7236 172.248 65.0269 173.852 65.0269Z" fill="white"/>
</g>
<defs>
<clipPath id="clip0_3887_226067">
<rect width="304" height="205" fill="white" transform="translate(24 24)"/>
</clipPath>
</defs>
</svg>
