<svg width="48" height="48" viewBox="0 0 48 48" fill="none" xmlns="http://www.w3.org/2000/svg">
<path d="M11.4286 27.4286C13.9533 27.4286 16 25.3819 16 22.8571C16 20.3324 13.9533 18.2857 11.4286 18.2857C8.90388 18.2857 6.85718 20.3324 6.85718 22.8571C6.85718 25.3819 8.90388 27.4286 11.4286 27.4286Z" fill="#AA9BFD" stroke="#3F3B98" stroke-width="2" stroke-linecap="round" stroke-linejoin="round"/>
<path fill-rule="evenodd" clip-rule="evenodd" d="M19.0055 35.4286C18.4337 34.0074 17.43 32.8016 16.1361 31.9814C14.8422 31.1612 13.3235 30.7679 11.7941 30.8571C6.07983 30.8571 5.71411 35.4286 5.71411 35.4286H19.0055Z" fill="#AA9BFD" stroke="#3F3B98" stroke-width="2" stroke-linecap="round" stroke-linejoin="round"/>
<path d="M23.9999 22.8572C26.5246 22.8572 28.5713 20.8105 28.5713 18.2857C28.5713 15.761 26.5246 13.7143 23.9999 13.7143C21.4752 13.7143 19.4285 15.761 19.4285 18.2857C19.4285 20.8105 21.4752 22.8572 23.9999 22.8572Z" fill="white" stroke="#3F3B98" stroke-width="2" stroke-linecap="round" stroke-linejoin="round"/>
<path d="M36.5714 27.4286C39.0962 27.4286 41.1429 25.3819 41.1429 22.8571C41.1429 20.3324 39.0962 18.2857 36.5714 18.2857C34.0467 18.2857 32 20.3324 32 22.8571C32 25.3819 34.0467 27.4286 36.5714 27.4286Z" fill="#AA9BFD" stroke="#3F3B98" stroke-width="2" stroke-linecap="round" stroke-linejoin="round"/>
<path fill-rule="evenodd" clip-rule="evenodd" d="M41.8627 35.4285C41.8627 35.4285 41.5084 30.8571 35.7941 30.8571C34.2635 30.7689 32.7437 31.1624 31.4483 31.9824C30.1528 32.8023 29.1467 34.0075 28.5713 35.4285H41.8627Z" fill="#AA9BFD" stroke="#3F3B98" stroke-width="2" stroke-linecap="round" stroke-linejoin="round"/>
<path fill-rule="evenodd" clip-rule="evenodd" d="M16 35.4286H32C32 35.4286 32 26.2857 24 26.2857C16 26.2857 16 35.4286 16 35.4286Z" fill="white" stroke="#3F3B98" stroke-width="2" stroke-linecap="round" stroke-linejoin="round"/>
<path d="M2.28564 35.4286H45.7142" stroke="#3F3B98" stroke-width="2" stroke-linecap="round" stroke-linejoin="round"/>
</svg>
