<?xml version="1.0" encoding="UTF-8"?>
<!-- Generator: Adobe Illustrator 23.0.1, SVG Export Plug-In . SVG Version: 6.00 Build 0)  -->
<svg width="400px" height="92px" xmlns="http://www.w3.org/2000/svg" xmlns:xlink="http://www.w3.org/1999/xlink" id="Layer_1" x="0px" y="0px" viewBox="0 0 288 66" style="enable-background:new 0 0 288 66;" xml:space="preserve">
<style type="text/css">
	.st0{fill:#090909;}
</style>
<g>
	<path d="M126.3,22.6c0-12.1-8-22.2-22.8-22.2H69.9v64.8h19.1V45.4h7.2l8.4,19.8h21.8l-11.5-23C119.9,39.7,126.3,33.9,126.3,22.6z    M100.6,30.4H88.9V17.6h11.7c3.3,0,6.2,1.9,6.2,6.4C106.8,28.5,103.7,30.4,100.6,30.4z M179.8,65.2h19.3v-22h28.2V26.1h-28.2v-8.6   h29V0.4h-48.3L179.8,65.2z M28.4,0.4H0v64.8h28.6c19.8,0,34.8-11.7,34.8-32.5C63.2,12.1,48.5,0.4,28.4,0.4z M28.4,48.1h-9.1V17.6   h9.3c10.3,0,15.2,6.4,15.2,15.2C43.8,40.9,38.1,48.1,28.4,48.1z M234.9,0.4v17.1h16.9v47.7h19.3V17.6H288V0.4H234.9z"></path>
	<path class="st0" d="M173.6,0.4h0.8c1,0.2,1.4,1.2,1,1.8c-0.2,0.2-0.2,0.4-0.4,0.6l-16.2,18.5c0,0-0.4,0.4-0.4,0.6   c-0.6,0.8,0,1.8,1.2,1.9h6.8c1.2,0.2,1.6,1.2,1.2,1.9c-0.2,0.2-0.4,0.6-0.4,0.6l-12.5,13c-0.2,0.2-0.2,0.4-0.4,0.6   c-0.6,0.8,0,1.8,1.2,1.8h4.3c0.6,0,1.2,0.2,1.4,0.8c0.2,0.4,0,1-0.4,1.4c-0.2,0.2-0.4,0.2-0.4,0.2l-27.4,21c0,0-0.4,0.4-0.6,0.4   c-0.2,0.2-0.6,0.2-1,0c-0.2-0.2-0.4-0.4-0.2-0.6c0-0.2,0.2-0.6,0.2-0.6l7.6-15.8l0.2-0.4c0.6-1,0-1.9-1.2-1.9h-6.2   c-1-0.2-1.4-1-1.2-1.8c0-0.2,0.2-0.6,0.2-0.6l9.5-15.8l0.2-0.2c0.6-1-0.2-1.8-1.4-1.9h-6.4c-0.8,0-1.4-0.4-1.6-1c0-0.4,0-0.6,0.2-1   l2.9-5.1l9.3-16.5l0.2-0.4c1.2-1.2,1.9-1.6,3.1-1.6H173.6z"></path>
</g>
</svg>
