<svg width="96" height="96" viewBox="0 0 96 96" fill="none" xmlns="http://www.w3.org/2000/svg">
<path fill-rule="evenodd" clip-rule="evenodd" d="M43.0192 8.4C29.8084 8.4 19.8557 11.7224 14.0784 17.4943C7.84392 23.7132 5.40039 31.1947 5.40039 39.7453C5.40039 53.3007 12.2768 67.8347 21.8783 77.4184C24.3854 79.9192 33.0453 87.6 44.3788 87.6C55.9757 87.6 64.5992 80.5354 70.0161 75.1289C80.5018 64.6694 90.0004 46.6348 90.0004 34.8795C90.0004 28.271 86.9725 23.7586 84.6713 21.454C75.5512 12.3627 55.9666 8.4 43.0192 8.4Z" fill="#5951FF" fill-opacity="0.08"/>
<path d="M53.8333 51.3333H52.5167L52.05 50.8833C53.6833 48.9833 54.6667 46.5167 54.6667 43.8333C54.6667 37.85 49.8167 33 43.8333 33C37.85 33 33 37.85 33 43.8333C33 49.8167 37.85 54.6667 43.8333 54.6667C46.5167 54.6667 48.9833 53.6833 50.8833 52.05L51.3333 52.5167V53.8333L59.6667 62.15L62.15 59.6667L53.8333 51.3333V51.3333ZM43.8333 51.3333C39.6833 51.3333 36.3333 47.9833 36.3333 43.8333C36.3333 39.6833 39.6833 36.3333 43.8333 36.3333C47.9833 36.3333 51.3333 39.6833 51.3333 43.8333C51.3333 47.9833 47.9833 51.3333 43.8333 51.3333Z" fill="#2419FF"/>
<path d="M53.8333 51.3333H52.5167L52.05 50.8833C53.6833 48.9833 54.6667 46.5167 54.6667 43.8333C54.6667 37.85 49.8167 33 43.8333 33C37.85 33 33 37.85 33 43.8333C33 49.8167 37.85 54.6667 43.8333 54.6667C46.5167 54.6667 48.9833 53.6833 50.8833 52.05L51.3333 52.5167V53.8333L59.6667 62.15L62.15 59.6667L53.8333 51.3333V51.3333ZM43.8333 51.3333C39.6833 51.3333 36.3333 47.9833 36.3333 43.8333C36.3333 39.6833 39.6833 36.3333 43.8333 36.3333C47.9833 36.3333 51.3333 39.6833 51.3333 43.8333C51.3333 47.9833 47.9833 51.3333 43.8333 51.3333Z" fill="white" fill-opacity="0.3"/>
</svg>
