<svg width="568" height="180" viewBox="0 0 568 180" fill="none" xmlns="http://www.w3.org/2000/svg">
<g clip-path="url(#clip0_4712_57643)">
<rect width="568" height="180" rx="4" fill="#D2D5DA"/>
<path d="M16 24C16 19.5817 19.5817 16 24 16H568V284H16V24Z" fill="url(#paint0_linear_4712_57643)"/>
<g opacity="0.76" filter="url(#filter0_ddd_4712_57643)">
<path d="M105 43C105 36.9249 109.925 32 116 32H567V266H105V43Z" fill="#F9F9FB"/>
</g>
<g opacity="0.76">
<path fill-rule="evenodd" clip-rule="evenodd" d="M62.2517 53.1425C60.2293 55.0284 58.2744 55.7361 56.3793 55.7361C54.4846 55.7361 52.6036 54.9089 51.4074 53.7941C50.1113 52.5859 48.9215 50.5777 48.9215 48.4988C48.9215 46.419 49.8049 44.9548 50.8264 44.0025C52.1298 42.7874 54.0852 41.93 56.996 41.93C59.2939 41.93 61.4054 42.4319 63.3133 44.2105C64.5565 45.3691 64.8189 46.7284 64.8189 47.6556C64.8189 48.9337 64.2741 51.2567 62.2517 53.1425ZM54.837 32.8889C48.7291 32.8889 44.1273 34.3294 41.4569 36.819C38.574 39.5061 37.4443 42.7385 37.4443 46.4327C37.4443 52.2906 40.6238 58.5725 45.0627 62.7111C46.2217 63.7916 50.2249 67.1111 55.4655 67.1111C60.8274 67.1111 64.8135 64.0576 67.319 61.7218C72.166 57.2027 76.5554 49.4105 76.5554 44.331C76.5554 41.4746 75.159 39.5253 74.0906 38.5292C69.8779 34.6014 60.8274 32.8889 54.837 32.8889Z" fill="#B1AEB9"/>
</g>
<g filter="url(#filter1_ddd_4712_57643)">
<rect x="125" y="52" width="266" height="214" rx="8" fill="white"/>
<rect x="139" y="62" width="61" height="10" rx="5" fill="#7971FF"/>
<rect x="126" y="53" width="264" height="212" rx="7" stroke="#7971FF" stroke-width="2"/>
</g>
<g opacity="0.76" filter="url(#filter2_ddd_4712_57643)">
<rect x="406" y="52" width="266" height="214" rx="8" fill="white"/>
<rect x="420" y="62" width="61" height="10" rx="5" fill="#B0AEBA"/>
</g>
</g>
<rect x="0.5" y="0.5" width="567" height="179" rx="3.5" stroke="#CCCEDB"/>
<defs>
<filter id="filter0_ddd_4712_57643" x="98" y="26" width="476" height="249" filterUnits="userSpaceOnUse" color-interpolation-filters="sRGB">
<feFlood flood-opacity="0" result="BackgroundImageFix"/>
<feColorMatrix in="SourceAlpha" type="matrix" values="0 0 0 0 0 0 0 0 0 0 0 0 0 0 0 0 0 0 127 0" result="hardAlpha"/>
<feOffset dy="1"/>
<feGaussianBlur stdDeviation="3.5"/>
<feColorMatrix type="matrix" values="0 0 0 0 0.270588 0 0 0 0 0.258824 0 0 0 0 0.384314 0 0 0 0.08 0"/>
<feBlend mode="normal" in2="BackgroundImageFix" result="effect1_dropShadow_4712_57643"/>
<feColorMatrix in="SourceAlpha" type="matrix" values="0 0 0 0 0 0 0 0 0 0 0 0 0 0 0 0 0 0 127 0" result="hardAlpha"/>
<feOffset dy="4"/>
<feGaussianBlur stdDeviation="2.5"/>
<feColorMatrix type="matrix" values="0 0 0 0 0.215686 0 0 0 0 0.196078 0 0 0 0 0.286275 0 0 0 0.14 0"/>
<feBlend mode="normal" in2="effect1_dropShadow_4712_57643" result="effect2_dropShadow_4712_57643"/>
<feColorMatrix in="SourceAlpha" type="matrix" values="0 0 0 0 0 0 0 0 0 0 0 0 0 0 0 0 0 0 127 0" result="hardAlpha"/>
<feOffset dy="2"/>
<feGaussianBlur stdDeviation="0.5"/>
<feComposite in2="hardAlpha" operator="out"/>
<feColorMatrix type="matrix" values="0 0 0 0 0.215686 0 0 0 0 0.196078 0 0 0 0 0.286275 0 0 0 0.04 0"/>
<feBlend mode="normal" in2="effect2_dropShadow_4712_57643" result="effect3_dropShadow_4712_57643"/>
<feBlend mode="normal" in="SourceGraphic" in2="effect3_dropShadow_4712_57643" result="shape"/>
</filter>
<filter id="filter1_ddd_4712_57643" x="118" y="46" width="280" height="229" filterUnits="userSpaceOnUse" color-interpolation-filters="sRGB">
<feFlood flood-opacity="0" result="BackgroundImageFix"/>
<feColorMatrix in="SourceAlpha" type="matrix" values="0 0 0 0 0 0 0 0 0 0 0 0 0 0 0 0 0 0 127 0" result="hardAlpha"/>
<feOffset dy="1"/>
<feGaussianBlur stdDeviation="3.5"/>
<feColorMatrix type="matrix" values="0 0 0 0 0.270588 0 0 0 0 0.258824 0 0 0 0 0.384314 0 0 0 0.08 0"/>
<feBlend mode="normal" in2="BackgroundImageFix" result="effect1_dropShadow_4712_57643"/>
<feColorMatrix in="SourceAlpha" type="matrix" values="0 0 0 0 0 0 0 0 0 0 0 0 0 0 0 0 0 0 127 0" result="hardAlpha"/>
<feOffset dy="4"/>
<feGaussianBlur stdDeviation="2.5"/>
<feColorMatrix type="matrix" values="0 0 0 0 0.215686 0 0 0 0 0.196078 0 0 0 0 0.286275 0 0 0 0.14 0"/>
<feBlend mode="normal" in2="effect1_dropShadow_4712_57643" result="effect2_dropShadow_4712_57643"/>
<feColorMatrix in="SourceAlpha" type="matrix" values="0 0 0 0 0 0 0 0 0 0 0 0 0 0 0 0 0 0 127 0" result="hardAlpha"/>
<feOffset dy="2"/>
<feGaussianBlur stdDeviation="0.5"/>
<feComposite in2="hardAlpha" operator="out"/>
<feColorMatrix type="matrix" values="0 0 0 0 0.215686 0 0 0 0 0.196078 0 0 0 0 0.286275 0 0 0 0.04 0"/>
<feBlend mode="normal" in2="effect2_dropShadow_4712_57643" result="effect3_dropShadow_4712_57643"/>
<feBlend mode="normal" in="SourceGraphic" in2="effect3_dropShadow_4712_57643" result="shape"/>
</filter>
<filter id="filter2_ddd_4712_57643" x="399" y="46" width="280" height="229" filterUnits="userSpaceOnUse" color-interpolation-filters="sRGB">
<feFlood flood-opacity="0" result="BackgroundImageFix"/>
<feColorMatrix in="SourceAlpha" type="matrix" values="0 0 0 0 0 0 0 0 0 0 0 0 0 0 0 0 0 0 127 0" result="hardAlpha"/>
<feOffset dy="1"/>
<feGaussianBlur stdDeviation="3.5"/>
<feColorMatrix type="matrix" values="0 0 0 0 0.270588 0 0 0 0 0.258824 0 0 0 0 0.384314 0 0 0 0.08 0"/>
<feBlend mode="normal" in2="BackgroundImageFix" result="effect1_dropShadow_4712_57643"/>
<feColorMatrix in="SourceAlpha" type="matrix" values="0 0 0 0 0 0 0 0 0 0 0 0 0 0 0 0 0 0 127 0" result="hardAlpha"/>
<feOffset dy="4"/>
<feGaussianBlur stdDeviation="2.5"/>
<feColorMatrix type="matrix" values="0 0 0 0 0.215686 0 0 0 0 0.196078 0 0 0 0 0.286275 0 0 0 0.14 0"/>
<feBlend mode="normal" in2="effect1_dropShadow_4712_57643" result="effect2_dropShadow_4712_57643"/>
<feColorMatrix in="SourceAlpha" type="matrix" values="0 0 0 0 0 0 0 0 0 0 0 0 0 0 0 0 0 0 127 0" result="hardAlpha"/>
<feOffset dy="2"/>
<feGaussianBlur stdDeviation="0.5"/>
<feComposite in2="hardAlpha" operator="out"/>
<feColorMatrix type="matrix" values="0 0 0 0 0.215686 0 0 0 0 0.196078 0 0 0 0 0.286275 0 0 0 0.04 0"/>
<feBlend mode="normal" in2="effect2_dropShadow_4712_57643" result="effect3_dropShadow_4712_57643"/>
<feBlend mode="normal" in="SourceGraphic" in2="effect3_dropShadow_4712_57643" result="shape"/>
</filter>
<linearGradient id="paint0_linear_4712_57643" x1="96.8385" y1="55.2477" x2="245.749" y2="361.96" gradientUnits="userSpaceOnUse">
<stop stop-color="#F9F6F6"/>
<stop offset="0.3906" stop-color="#F5F5F8"/>
</linearGradient>
<clipPath id="clip0_4712_57643">
<rect width="568" height="180" rx="4" fill="white"/>
</clipPath>
</defs>
</svg>
