<svg version="1.1" id="Layer_1" xmlns="http://www.w3.org/2000/svg" xmlns:xlink="http://www.w3.org/1999/xlink" x="0px" y="0px"
	 width="15px" height="30px" viewBox="0 0 15 30" enable-background="new 0 0 15 30" xml:space="preserve">
<g>
	<path fill="#43bb93" d="M0,1c0-0.55,0.45-1,1-1h13c0.55,0,1,0.45,1,1v13c0,0.55-0.45,1-1,1H1c-0.55,0-1-0.45-1-1V1z"/>
</g>
<path fill="#ffffff" d="M5.75,11.29c-0.16,0-0.3-0.06-0.41-0.17l-3.5-3.5c-0.23-0.23-0.23-0.6,0-0.83c0.22-0.22,0.59-0.22,0.82,0
	l3.09,3.08l6.59-6.58c0.221-0.23,0.59-0.23,0.82,0c0.22,0.23,0.22,0.6,0,0.82l-7,7C6.05,11.23,5.9,11.29,5.75,11.29z"/>
<path fill="#ffffff" d="M0.37,15.38h14.25v14.25H0.37V15.38z"/>
<g>
	<path d="M14.25,15.75v12.5c0,0.55-0.45,1-1,1H1.75c-0.55,0-1-0.45-1-1v-11.5c0-0.55,0.45-1,1-1H14.25 M15,16c0-0.55-0.45-1-1-1H1
		c-0.55,0-1,0.45-1,1v13c0,0.55,0.45,1,1,1h13c0.55,0,1-0.45,1-1V16z"/>
</g>
</svg>
