<?xml version="1.0" encoding="utf-8"?>
<!-- Generator: Adobe Illustrator 18.1.0, SVG Export Plug-In . SVG Version: 6.00 Build 0)  -->
<svg version="1.1" id="Layer_1" xmlns="http://www.w3.org/2000/svg" xmlns:xlink="http://www.w3.org/1999/xlink" x="0px" y="0px"
	 viewBox="0 0 15 30" enable-background="new 0 0 15 30" xml:space="preserve">
<path fill="#999999" d="M7.5,2c3,0,5.5,2.5,5.5,5.5S10.5,13,7.5,13S2,10.5,2,7.5S4.5,2,7.5,2 M7.5,0C3.4,0,0,3.4,0,7.5
	S3.4,15,7.5,15S15,11.6,15,7.5S11.6,0,7.5,0L7.5,0z"/>
<path fill="#999999" d="M7.5,17c3,0,5.5,2.5,5.5,5.5S10.5,28,7.5,28S2,25.5,2,22.5S4.5,17,7.5,17 M7.5,15C3.4,15,0,18.4,0,22.5
	S3.4,30,7.5,30s7.5-3.4,7.5-7.5S11.6,15,7.5,15L7.5,15z"/>
<g>
	<circle fill="#00CC99" cx="7.5" cy="7.5" r="4"/>
</g>
</svg>
