<svg version="1.1" id="Layer_1" xmlns="http://www.w3.org/2000/svg" xmlns:xlink="http://www.w3.org/1999/xlink" x="0px" y="0px"
	 viewBox="0 0 100 100" enable-background="new 0 0 100 100" xml:space="preserve">
<g>
	<path fill="none" stroke="#FFFFFF" stroke-width="4" stroke-linecap="round" stroke-linejoin="round" stroke-miterlimit="10" d="
		M4.37,40.4c0,0,4.9-7.24,8.72-0.16c3.81,7.08,8.07,28.46,8.07,28.5c0.13,0.55,14.99,0.68,20.72-1.06
		c10.66-3.24,21.83-11.22,22.92-23.19c0.93-10.28-6.97-18.97-17.42-18.36c-8.31,0.48-15.77,6.86-15.61,17.23
		c0.18,11.4,11.41,17.09,11.41,17.09"/>
	<path fill="none" stroke="#FFFFFF" stroke-width="4" stroke-linecap="round" stroke-linejoin="round" stroke-miterlimit="10" d="
		M95.28,40.4c0,0-4.9-7.24-8.72-0.16c-3.81,7.08-8.07,28.46-8.07,28.5c-0.3,0.47-9.26,1.82-20.65-2.45"/>
	<path fill="none" stroke="#FFFFFF" stroke-width="4" stroke-linecap="round" stroke-linejoin="round" stroke-miterlimit="10" d="
		M45.87,53.17c2.7-0.18,5.33-1.36,7.25-3.27c1.92-1.91,3.13-4.52,3.33-7.22"/>
	<path fill="none" stroke="#FFFFFF" stroke-width="4" stroke-linecap="round" stroke-linejoin="round" stroke-miterlimit="10" d="
		M40.99,42.12c-0.11-0.54-0.22-1.08-0.33-1.62"/>
	<path fill="none" stroke="#FFFFFF" stroke-width="4" stroke-linecap="round" stroke-linejoin="round" stroke-miterlimit="10" d="
		M49.71,37.76c-0.11-0.54-0.22-1.08-0.33-1.62"/>
</g>
<circle fill="#FA72A0" cx="49.21" cy="49.6" r="45"/>
<g>
	<path fill="none" stroke="#FFFFFF" stroke-width="4" stroke-linecap="round" stroke-linejoin="round" stroke-miterlimit="10" d="
		M6.25,40.4c0,0,4.9-7.24,8.72-0.16c3.81,7.08,8.07,28.46,8.07,28.5c0.13,0.55,14.99,0.68,20.72-1.06
		c10.66-3.24,21.83-11.22,22.92-23.19c0.93-10.28-6.97-18.97-17.42-18.36c-8.31,0.48-15.77,6.86-15.61,17.23
		c0.18,11.4,11.41,17.09,11.41,17.09"/>
	<path fill="none" stroke="#FFFFFF" stroke-width="4" stroke-linecap="round" stroke-linejoin="round" stroke-miterlimit="10" d="
		M97.16,40.4c0,0-4.9-7.24-8.72-0.16c-3.81,7.08-8.07,28.46-8.07,28.5c-0.3,0.47-9.26,1.82-20.65-2.45"/>
	<path fill="none" stroke="#FFFFFF" stroke-width="4" stroke-linecap="round" stroke-linejoin="round" stroke-miterlimit="10" d="
		M47.76,52.17c2.7-0.18,5.33-1.36,7.25-3.27s3.13-4.52,3.33-7.22"/>
	<path fill="none" stroke="#FFFFFF" stroke-width="4" stroke-linecap="round" stroke-linejoin="round" stroke-miterlimit="10" d="
		M42.88,41.12c-0.11-0.54-0.22-1.08-0.33-1.62"/>
	<path fill="none" stroke="#FFFFFF" stroke-width="4" stroke-linecap="round" stroke-linejoin="round" stroke-miterlimit="10" d="
		M51.6,36.76c-0.11-0.54-0.22-1.08-0.33-1.62"/>
</g>
<g>
	<path fill="none" stroke="#000000" stroke-width="4" stroke-linecap="round" stroke-linejoin="round" stroke-miterlimit="10" d="
		M4.25,38.4c0,0,4.9-7.24,8.72-0.16c3.81,7.08,8.07,28.46,8.07,28.5c0.13,0.55,14.99,0.68,20.72-1.06
		c10.66-3.24,21.83-11.22,22.92-23.19c0.93-10.28-6.97-18.97-17.42-18.36c-8.31,0.48-15.77,6.86-15.61,17.23
		c0.18,11.4,11.41,17.09,11.41,17.09"/>
	<path fill="none" stroke="#000000" stroke-width="4" stroke-linecap="round" stroke-linejoin="round" stroke-miterlimit="10" d="
		M95.16,38.4c0,0-4.9-7.24-8.72-0.16c-3.81,7.08-8.07,28.46-8.07,28.5c-0.3,0.47-9.26,1.82-20.65-2.45"/>
	<path fill="none" stroke="#000000" stroke-width="4" stroke-linecap="round" stroke-linejoin="round" stroke-miterlimit="10" d="
		M45.76,51.17c2.7-0.18,5.33-1.36,7.25-3.27s3.13-4.52,3.33-7.22"/>
	<path fill="none" stroke="#000000" stroke-width="4" stroke-linecap="round" stroke-linejoin="round" stroke-miterlimit="10" d="
		M40.88,40.12c-0.11-0.54-0.22-1.08-0.33-1.62"/>
	<path fill="none" stroke="#000000" stroke-width="4" stroke-linecap="round" stroke-linejoin="round" stroke-miterlimit="10" d="
		M49.6,35.76c-0.11-0.54-0.22-1.08-0.33-1.62"/>
</g>
</svg>
