<svg width="416" height="240" viewBox="0 0 416 240" fill="none" xmlns="http://www.w3.org/2000/svg">
<path opacity="0.5" d="M166.494 4.10732C119.275 17.1672 91.3286 55.7234 80.4071 78.7337C69.4856 101.744 59.8497 131.566 62.4195 172.462C65.6317 223.582 100.074 240 119.88 240C176.773 240 178.058 223.511 226.884 214.556C275.709 205.601 344.638 241.688 352.802 172.462C360.512 107.092 329.354 67.9124 306.547 42.9123C276.994 10.5182 213.714 -8.95256 166.494 4.10732Z" fill="#D1CFFC"/>
<path d="M226.178 171.693L224.099 162.338H188.758L186.679 171.693H226.178Z" fill="#86D7EA"/>
<path d="M277.679 48H134.237C130.792 48 128 50.7922 128 54.2366V156.102C128 159.546 130.792 162.338 134.237 162.338H277.679C281.124 162.338 283.916 159.546 283.916 156.102V54.2366C283.916 50.7922 281.124 48 277.679 48Z" fill="white"/>
<rect x="191" y="115.602" width="16.2673" height="13.1437" transform="rotate(-45.5 191 115.602)" fill="#86D7EA"/>
<rect x="219" y="88.6016" width="16.2673" height="13.1437" transform="rotate(-45.5 219 88.6016)" fill="#86D7EA"/>
<rect x="199" y="117.406" width="33.4666" height="9.705" transform="rotate(-34.5 199 117.406)" fill="#86D7EA"/>
<rect x="219" y="105.836" width="25.9643" height="9.705" transform="rotate(-59.5 219 105.836)" fill="#86D7EA"/>
<path fill-rule="evenodd" clip-rule="evenodd" d="M220.164 92.1007C217.407 89.391 217.368 84.959 220.078 82.2016L224.973 77.2206C227.683 74.4632 232.115 74.4245 234.872 77.1342L238.758 80.9533C238.783 80.9771 238.806 81.0014 238.829 81.0262C238.854 81.0493 238.879 81.0732 238.903 81.0978C240.432 82.6543 240.991 84.8815 240.988 87.1792C240.985 89.5065 240.411 92.17 239.374 94.9555C237.295 100.536 233.238 106.924 227.414 112.647C221.594 118.366 215.124 122.381 209.495 124.435C206.686 125.46 204.005 126.026 201.67 126.02C199.466 126.015 197.321 125.492 195.789 124.071C195.711 124.014 195.636 123.951 195.565 123.881L191.678 120.061C188.921 117.351 188.882 112.919 191.592 110.162L196.416 105.253C199.125 102.496 203.557 102.457 206.315 105.167L209.198 108C212.039 106.382 214.905 104.26 217.568 101.643C219.74 99.5092 221.571 97.2363 223.061 94.9474L220.164 92.1007ZM209.593 112.25C208.869 112.563 207.996 112.427 207.398 111.84L203.511 108.02C202.329 106.859 200.43 106.875 199.269 108.057L194.445 112.966C193.283 114.147 193.3 116.047 194.482 117.208L198.202 120.864C198.285 120.926 198.365 120.995 198.44 121.071C198.933 121.573 199.927 122.016 201.68 122.02C203.403 122.025 205.602 121.597 208.124 120.677C213.158 118.84 219.152 115.158 224.61 109.794C230.063 104.436 233.773 98.5333 235.625 93.5596C236.553 91.0679 236.986 88.8879 236.988 87.1733C236.991 85.4291 236.555 84.4159 236.05 83.9015C236.034 83.8856 236.019 83.8695 236.004 83.8532C235.987 83.8379 235.971 83.8222 235.955 83.8063L232.068 79.9872C230.887 78.8259 228.987 78.8425 227.826 80.0242L222.931 85.0052C221.77 86.187 221.786 88.0864 222.968 89.2477L226.75 92.9644C227.614 93.5539 227.883 94.7213 227.342 95.6341C225.546 98.6703 223.22 101.697 220.371 104.496C217.134 107.678 213.609 110.205 210.12 112.058C209.95 112.149 209.773 112.212 209.593 112.25Z" fill="#3F3B98"/>
<path d="M182.978 88.1496C182.703 83.5718 184.999 78.3062 189.462 74.3581C194.326 70.0545 200.43 68.4962 205.133 69.8888" stroke="#3F3B98" stroke-width="4" stroke-linecap="round"/>
<path d="M193.297 90.9729C193.121 88.0482 194.588 84.6841 197.439 82.1617C200.547 79.4122 204.447 78.4167 207.451 79.3064" stroke="#3F3B98" stroke-width="4" stroke-linecap="round"/>
<path d="M203.098 95.6092C202.989 93.8068 203.893 91.7336 205.65 90.1792C207.565 88.4848 209.969 87.8713 211.82 88.4196" stroke="#3F3B98" stroke-width="4" stroke-linecap="round"/>
<path d="M175.245 191.442C175.245 189.512 176.012 187.662 177.376 186.297C178.741 184.933 180.592 184.166 182.521 184.166H230.335C232.265 184.166 234.116 184.933 235.48 186.297C236.845 187.662 237.611 189.512 237.611 191.442" fill="white"/>
<path d="M175.245 191.442C175.245 189.512 176.012 187.662 177.376 186.297C178.741 184.933 180.592 184.166 182.521 184.166H230.335C232.265 184.166 234.116 184.933 235.48 186.297C236.845 187.662 237.611 189.512 237.611 191.442V191.442" stroke="#3F3B98" stroke-width="4" stroke-linecap="round" stroke-linejoin="round"/>
<path d="M255.282 191.443C256.789 188.617 259.036 186.254 261.782 184.606C264.528 182.958 267.671 182.088 270.874 182.088C274.076 182.088 277.219 182.958 279.965 184.606C282.711 186.254 284.958 188.617 286.465 191.443" fill="white"/>
<path d="M255.282 191.443C256.789 188.617 259.036 186.254 261.782 184.606C264.528 182.958 267.671 182.088 270.874 182.088C274.076 182.088 277.219 182.958 279.965 184.606C282.711 186.254 284.958 188.617 286.465 191.443" stroke="#3F3B98" stroke-width="4" stroke-linecap="round" stroke-linejoin="round"/>
<path d="M278.15 162.338L134.707 162.338C133.053 162.338 131.467 161.681 130.297 160.511C129.127 159.342 128.47 157.755 128.47 156.101V140.51L284.386 140.51V156.101C284.386 157.755 283.729 159.342 282.56 160.511C281.39 161.681 279.804 162.338 278.15 162.338Z" fill="#AA9BFD"/>
<path d="M98.3268 104.131L128.471 150.906V80.2238L113.918 77.1055L98.3268 104.131Z" fill="white"/>
<path d="M109.22 69.4858C104.711 67.1551 99.4765 66.6505 94.6046 68.0767C89.7326 69.5029 85.5969 72.7503 83.0559 77.1449C80.5149 81.5396 79.7637 86.7439 80.9582 91.6777C82.1527 96.6116 85.2012 100.896 89.4709 103.642L90.3752 104.161L110.125 69.9535L109.22 69.4858Z" fill="#86D7EA"/>
<path d="M110.122 69.9943L90.3727 104.201L95.7738 107.319L115.523 73.1126L110.122 69.9943Z" fill="#86D7EA"/>
<path d="M85.8537 191.442V158.18H106.642V191.442" fill="#86D7EA"/>
<path d="M106.642 158.18H85.8537V163.377H106.642V158.18Z" fill="white"/>
<path d="M87.9326 135.312L91.0509 158.18" stroke="#3F3B98" stroke-width="4" stroke-linecap="round" stroke-linejoin="round"/>
<path d="M85.8537 163.377H106.642" stroke="#3F3B98" stroke-width="2" stroke-linecap="round" stroke-linejoin="round"/>
<path d="M98.3891 133.848L97.2873 158.181" stroke="#3F3B98" stroke-width="4" stroke-linecap="round" stroke-linejoin="round"/>
<path d="M101.975 146.571L102.484 135.314L98.3369 135.127" stroke="#3F3B98" stroke-width="2" stroke-linecap="round" stroke-linejoin="round"/>
<path d="M85.8537 191.442V158.18H106.642V191.442" stroke="#3F3B98" stroke-width="4" stroke-linecap="round" stroke-linejoin="round"/>
<path d="M66.1042 191.442V184.166H93.1296V191.442" fill="#86D7EA"/>
<path d="M66.1042 191.442V184.166H93.1296V191.442" stroke="#3F3B98" stroke-width="4" stroke-linecap="round" stroke-linejoin="round"/>
<path d="M278.15 48H134.707C131.263 48 128.47 50.7922 128.47 54.2366V156.102C128.47 159.546 131.263 162.338 134.707 162.338H278.15C281.594 162.338 284.386 159.546 284.386 156.102V54.2366C284.386 50.7922 281.594 48 278.15 48Z" stroke="#3F3B98" stroke-width="4" stroke-linecap="round" stroke-linejoin="round"/>
<path d="M224.099 162.338L228.257 184.166" stroke="#3F3B98" stroke-width="4" stroke-linecap="round" stroke-linejoin="round"/>
<path d="M184.6 184.166L188.758 162.338" stroke="#3F3B98" stroke-width="4" stroke-linecap="round" stroke-linejoin="round"/>
<path d="M55.2936 129.418C57.371 128.414 59.1635 126.905 60.5072 125.029C61.8509 123.154 62.7029 120.971 62.9855 118.681C65.0644 106.208 54.67 97.8922 56.7489 85.4189C58.8277 70.8668 73.7645 70.9707 73.7645 70.9707" stroke="#3F3B98" stroke-width="2" stroke-linecap="round" stroke-linejoin="round"/>
<path d="M75.064 83.1758L51.0842 124.119" stroke="#3F3B98" stroke-width="4" stroke-linejoin="round"/>
<path d="M89.8135 70.2758L83.4729 66.617C82.0406 65.7923 80.3394 65.5699 78.7432 65.9987C77.147 66.4275 75.7863 67.4723 74.9599 68.9037L71.8416 74.3088C71.0161 75.7399 70.7921 77.4401 71.2189 79.0362C71.6457 80.6322 72.6883 81.9937 74.118 82.8218L80.4585 86.4806" fill="#86D7EA"/>
<path d="M89.8135 70.2758L83.4729 66.617C82.0406 65.7923 80.3394 65.5699 78.7432 65.9987C77.147 66.4275 75.7863 67.4723 74.9599 68.9037L71.8416 74.3088C71.0161 75.7399 70.7921 77.4401 71.2189 79.0362C71.6457 80.6322 72.6883 81.9937 74.118 82.8218L80.4585 86.4806" stroke="#3F3B98" stroke-width="4" stroke-linecap="round" stroke-linejoin="round"/>
<path d="M90.3747 104.214L110.124 70.0059" stroke="#3F3B98" stroke-width="2" stroke-linecap="round" stroke-linejoin="round"/>
<path d="M51.2822 140.146L81.6962 184.167" stroke="#3F3B98" stroke-width="4" stroke-linejoin="round"/>
<path d="M46.3549 141.55C51.5215 141.55 55.7099 137.361 55.7099 132.195C55.7099 127.028 51.5215 122.84 46.3549 122.84C41.1884 122.84 37 127.028 37 132.195C37 137.361 41.1884 141.55 46.3549 141.55Z" fill="#86D7EA" stroke="#3F3B98" stroke-width="4" stroke-linecap="round" stroke-linejoin="round"/>
<path d="M46.3549 136.353C48.6511 136.353 50.5126 134.491 50.5126 132.195C50.5126 129.899 48.6511 128.037 46.3549 128.037C44.0586 128.037 42.1971 129.899 42.1971 132.195C42.1971 134.491 44.0586 136.353 46.3549 136.353Z" fill="white" stroke="#3F3B98" stroke-width="2" stroke-linecap="round" stroke-linejoin="round"/>
<path d="M46.2722 141.551C46.2722 141.551 44.2764 150.906 50.5131 158.182C56.8952 165.624 67.1441 163.379 72.7259 184.168" stroke="#3F3B98" stroke-width="2" stroke-linecap="round" stroke-linejoin="round"/>
<path d="M206.428 154.024C208.151 154.024 209.547 152.628 209.547 150.905C209.547 149.183 208.151 147.787 206.428 147.787C204.706 147.787 203.31 149.183 203.31 150.905C203.31 152.628 204.706 154.024 206.428 154.024Z" fill="white" stroke="#3F3B98" stroke-width="2" stroke-linecap="round" stroke-linejoin="round"/>
<path d="M109.21 69.5073C104.7 67.1766 99.4664 66.672 94.5944 68.0982C89.7225 69.5243 85.5868 72.7718 83.0458 77.1664C80.5048 81.561 79.7535 86.7654 80.948 91.6992C82.1425 96.6331 85.191 100.917 89.4608 103.663V103.663L95.7598 107.301L115.509 73.0933L109.21 69.4553V69.5073Z" stroke="#3F3B98" stroke-width="4" stroke-linecap="round" stroke-linejoin="round"/>
<path d="M324.925 133.234H345.713C346.265 133.234 346.793 133.453 347.183 133.843C347.573 134.233 347.792 134.762 347.792 135.313V148.826H322.846V135.313C322.846 134.762 323.065 134.233 323.455 133.843C323.844 133.453 324.373 133.234 324.925 133.234Z" fill="white"/>
<path d="M366.502 172.732H308.294C308.294 172.732 306.215 175.851 306.215 182.087C306.215 188.324 308.294 191.442 308.294 191.442H366.502C366.502 191.442 364.423 188.324 364.423 182.087C364.423 175.851 366.502 172.732 366.502 172.732Z" fill="white"/>
<path d="M308.293 172.732H303.096C303.096 172.732 301.017 175.851 301.017 182.087C301.017 188.324 303.096 191.442 303.096 191.442H308.293C308.293 191.442 306.214 188.324 306.214 182.087C306.214 175.851 308.293 172.732 308.293 172.732Z" fill="#86D7EA"/>
<path d="M322.846 148.826H347.792V158.181C347.792 159.835 347.135 161.421 345.966 162.591C344.796 163.761 343.21 164.418 341.556 164.418H329.082C327.428 164.418 325.842 163.761 324.672 162.591C323.503 161.421 322.846 159.835 322.846 158.181V148.826Z" fill="#86D7EA"/>
<path d="M324.925 133.234H345.713C346.265 133.234 346.793 133.453 347.183 133.843C347.573 134.233 347.792 134.762 347.792 135.313V158.181C347.792 159.835 347.135 161.421 345.966 162.591C344.796 163.76 343.21 164.418 341.556 164.418H329.082C327.428 164.418 325.842 163.76 324.672 162.591C323.503 161.421 322.846 159.835 322.846 158.181V135.313C322.846 134.762 323.065 134.233 323.455 133.843C323.844 133.453 324.373 133.234 324.925 133.234Z" stroke="#3F3B98" stroke-width="4" stroke-linecap="round" stroke-linejoin="round"/>
<path d="M347.792 139.471H350.91C353.116 139.471 355.231 140.347 356.79 141.906C358.35 143.466 359.226 145.581 359.226 147.786C359.226 149.992 358.35 152.107 356.79 153.666C355.231 155.226 353.116 156.102 350.91 156.102H347.792" stroke="#3F3B98" stroke-width="4" stroke-linecap="round" stroke-linejoin="round"/>
<path d="M362.344 164.418H308.294V172.733H362.344V164.418Z" fill="#86D7EA" stroke="#3F3B98" stroke-width="4" stroke-linecap="round" stroke-linejoin="round"/>
<path d="M367.541 191.442H303.096C303.096 191.442 301.017 188.324 301.017 182.087C301.017 175.851 303.096 172.732 303.096 172.732H367.541" stroke="#3F3B98" stroke-width="4" stroke-linecap="round" stroke-linejoin="round"/>
<path d="M366.502 191.442C366.502 191.442 364.423 188.324 364.423 182.087C364.423 175.851 366.502 172.732 366.502 172.732" stroke="#3F3B98" stroke-width="2" stroke-linecap="round" stroke-linejoin="round"/>
<path d="M308.294 191.442C308.294 191.442 306.215 188.324 306.215 182.087C306.215 175.851 308.294 172.732 308.294 172.732" stroke="#3F3B98" stroke-width="2" stroke-linecap="round" stroke-linejoin="round"/>
<path d="M364.61 178.969H339.477" stroke="#3F3B98" stroke-width="2" stroke-linecap="round" stroke-linejoin="round"/>
<path d="M364.444 183.127H349.871" stroke="#3F3B98" stroke-width="2" stroke-linecap="round" stroke-linejoin="round"/>
<path d="M334.519 125.958C335.014 125.47 335.431 124.909 335.756 124.295" stroke="#3F3B98" stroke-width="2" stroke-linecap="round" stroke-linejoin="round"/>
<path d="M337.294 118.536C337.294 118.245 337.294 117.943 337.294 117.642C337.294 111.79 333.136 109.025 333.136 105.023C333.142 104.119 333.272 103.22 333.521 102.352" stroke="#3F3B98" stroke-width="2" stroke-linecap="round" stroke-linejoin="round" stroke-dasharray="3.86 5.78"/>
<path d="M334.737 99.5973C335.076 98.9922 335.473 98.4213 335.922 97.8926" stroke="#3F3B98" stroke-width="2" stroke-linecap="round" stroke-linejoin="round"/>
<path d="M128.47 140.51H284.386" stroke="#3F3B98" stroke-width="2" stroke-linecap="round" stroke-linejoin="round"/>
<path d="M43.4132 129.254L49.2964 135.137" stroke="#3F3B98" stroke-width="2" stroke-linecap="round" stroke-linejoin="round"/>
<path d="M45.3155 191.443H367.541" stroke="#3F3B98" stroke-width="4" stroke-linecap="round" stroke-linejoin="round"/>
</svg>
