<svg width="64" height="64" viewBox="0 0 64 64" fill="none" xmlns="http://www.w3.org/2000/svg">
    <rect width="64" height="64" fill="#ECECF1"/>
    <path fill-rule="evenodd" clip-rule="evenodd" d="M36.9163 35.1425C35.2156 36.7284 33.5717 37.3235 31.9781 37.3235C30.3848 37.3235 28.8031 36.6279 27.7972 35.6905C26.7073 34.6744 25.7068 32.9857 25.7068 31.2376C25.7068 29.4887 26.4497 28.2574 27.3087 27.4566C28.4047 26.4348 30.049 25.7138 32.4967 25.7138C34.4291 25.7138 36.2047 26.1359 37.809 27.6315C38.8544 28.6058 39.075 29.7488 39.075 30.5285C39.075 31.6033 38.617 33.5567 36.9163 35.1425ZM30.6812 18.1111C25.545 18.1111 21.6753 19.3224 19.4297 21.4159C17.0055 23.6756 16.0555 26.3937 16.0555 29.5002C16.0555 34.4262 18.7292 39.7086 22.4619 43.1888C23.4365 44.0974 26.8028 46.8889 31.2097 46.8889C35.7186 46.8889 39.0705 44.3211 41.1774 42.3569C45.2533 38.5567 48.9444 32.0042 48.9444 27.7328C48.9444 25.3309 47.7702 23.6917 46.8717 22.854C43.3292 19.5511 35.7186 18.1111 30.6812 18.1111Z" fill="#A5A5B8"/>
</svg>
