<svg width="37" height="33" viewBox="0 0 37 33" fill="none" xmlns="http://www.w3.org/2000/svg">
<rect x="1" y="1" width="32" height="28" rx="2" fill="white"/>
<path d="M1 3C1 1.89543 1.89543 1 3 1H31C32.1046 1 33 1.89543 33 3V8H1V3Z" fill="#CBCBD6"/>
<path fill-rule="evenodd" clip-rule="evenodd" d="M3 0C1.34315 0 0 1.34315 0 3V27C0 28.6569 1.34315 30 3 30H18C18.5523 30 19 29.5523 19 29C19 28.4477 18.5523 28 18 28H3C2.44772 28 2 27.5523 2 27V9H32V13C32 13.5523 32.4477 14 33 14C33.5523 14 34 13.5523 34 13V3C34 1.34315 32.6569 0 31 0H3ZM32 7V3C32 2.44772 31.5523 2 31 2H3C2.44772 2 2 2.44772 2 3V7H32Z" fill="#7B7789"/>
<path fill-rule="evenodd" clip-rule="evenodd" d="M21 26C21 24.8954 21.8954 24 23 24H25C26.1046 24 27 24.8954 27 26V28C27 29.1046 26.1046 30 25 30H23C21.8954 30 21 29.1046 21 28V26ZM25 26H23V28H25V26Z" fill="#7B7789"/>
<path fill-rule="evenodd" clip-rule="evenodd" d="M28 18C28 16.8954 28.8954 16 30 16H32C33.1046 16 34 16.8954 34 18V20C34 21.1046 33.1046 22 32 22H30C28.8954 22 28 21.1046 28 20V18ZM32 18H30V20H32V18Z" fill="#7B7789"/>
<path fill-rule="evenodd" clip-rule="evenodd" d="M31 29C31 27.8954 31.8954 27 33 27H35C36.1046 27 37 27.8954 37 29V31C37 32.1046 36.1046 33 35 33H33C31.8954 33 31 32.1046 31 31V29ZM35 29H33V31H35V29Z" fill="#7B7789"/>
<path fill-rule="evenodd" clip-rule="evenodd" d="M18.4323 18.857C17.8807 19.3714 17.3476 19.5644 16.8307 19.5644C16.314 19.5644 15.801 19.3388 15.4748 19.0348C15.1213 18.7052 14.7968 18.1575 14.7968 17.5906C14.7968 17.0234 15.0377 16.624 15.3163 16.3643C15.6718 16.0329 16.2051 15.7991 16.9989 15.7991C17.6256 15.7991 18.2015 15.936 18.7218 16.421C19.0609 16.737 19.1324 17.1077 19.1324 17.3606C19.1324 17.7092 18.9839 18.3427 18.4323 18.857ZM16.4101 13.3333C14.7443 13.3333 13.4893 13.7262 12.761 14.4052C11.9747 15.138 11.6667 16.0196 11.6667 17.0271C11.6667 18.6247 12.5338 20.3379 13.7444 21.4666C14.0605 21.7613 15.1523 22.6667 16.5815 22.6667C18.0439 22.6667 19.131 21.8339 19.8143 21.1968C21.1362 19.9644 22.3333 17.8392 22.3333 16.4539C22.3333 15.6749 21.9525 15.1432 21.6611 14.8716C20.5122 13.8004 18.0439 13.3333 16.4101 13.3333Z" fill="#9E99FF"/>
</svg>
