<svg width="314" height="252" viewBox="0 0 314 252" fill="none" xmlns="http://www.w3.org/2000/svg">
  <path fill-rule="evenodd" clip-rule="evenodd"
    d="M269 44.6481C327 129.648 270 241.648 169 250.648C68 259.648 -22 186.648 4.99998 96.6481C32 6.64806 211 -40.3519 269 44.6481"
    fill="#36B37E" />
  <path fill-rule="evenodd" clip-rule="evenodd"
    d="M269 44.6481C327 129.648 270 241.648 169 250.648C68 259.648 -22 186.648 4.99998 96.6481C32 6.64806 211 -40.3519 269 44.6481"
    fill="white" fill-opacity="0.7" />
  <path fill-rule="evenodd" clip-rule="evenodd"
    d="M304 58.6479C304 77.9779 288.33 93.6479 269 93.6479C249.67 93.6479 234 77.9779 234 58.6479C234 39.3179 249.67 23.6479 269 23.6479C288.33 23.6479 304 39.3179 304 58.6479"
    fill="#A9A6B7" />
  <path fill-rule="evenodd" clip-rule="evenodd"
    d="M269 23.6479C258.062 23.6479 248.298 28.6689 241.88 36.5279C247.909 31.6039 255.608 28.6479 264 28.6479C283.33 28.6479 299 44.3179 299 63.6479C299 72.0399 296.044 79.7389 291.12 85.7679C298.979 79.3499 304 69.5859 304 58.6479C304 39.3179 288.33 23.6479 269 23.6479"
    fill="#BBB9C6" />
  <path fill-rule="evenodd" clip-rule="evenodd"
    d="M269 95.6479C289.435 95.6479 306 79.0825 306 58.6479C306 38.2134 289.435 21.6479 269 21.6479C248.565 21.6479 232 38.2134 232 58.6479C232 79.0825 248.565 95.6479 269 95.6479ZM269 25.6479C287.225 25.6479 302 40.4225 302 58.6479C302 76.8734 287.225 91.6479 269 91.6479C250.775 91.6479 236 76.8734 236 58.6479C236 40.4225 250.775 25.6479 269 25.6479Z"
    fill="#635E75" />
  <path fill-rule="evenodd" clip-rule="evenodd"
    d="M285.415 42.148C281.662 37.398 274.432 36.647 277.787 45.086C281.142 53.523 293.564 52.461 285.415 42.148"
    fill="#7B7789" />
  <path fill-rule="evenodd" clip-rule="evenodd"
    d="M287.706 62.0926C291.578 67.1546 296.379 64.0286 292.661 58.5356C288.943 53.0426 283.073 56.0326 287.706 62.0926"
    fill="#7B7789" />
  <path fill-rule="evenodd" clip-rule="evenodd"
    d="M99 196.648H59V61.479C59 55.056 60.543 48.7309 63.506 43.0319C67.539 35.275 73.626 25.6479 79 25.6479C84.374 25.6479 90.461 35.275 94.494 43.0319C97.457 48.7309 99 55.056 99 61.479V196.648Z"
    fill="#EB3747" />
  <path fill-rule="evenodd" clip-rule="evenodd"
    d="M94.4938 43.0319C90.4608 35.275 84.3738 25.6479 78.9998 25.6479C78.4718 25.6479 77.9348 25.7649 77.3958 25.9409C79.6608 29.0469 81.7658 32.7089 83.4938 36.0319C86.4568 41.7309 87.9998 48.056 87.9998 54.4799V196.648H98.9998V61.4799C98.9998 55.056 97.4568 48.7309 94.4938 43.0319"
    fill="#D83045" />
  <path
    d="M105 158.648C105 159.753 104.105 160.648 103 160.648C101.895 160.648 101 159.753 101 158.648V68.6479C101 67.5434 101.895 66.6479 103 66.6479C104.105 66.6479 105 67.5434 105 68.6479V158.648Z"
    fill="#52918E" />
  <mask id="mask0_2150_311309" style="mask-type:luminance" maskUnits="userSpaceOnUse" x="0" y="0" width="314"
    height="252">
    <path fill-rule="evenodd" clip-rule="evenodd" d="M0 251.4H314V0H0V251.4Z" fill="white" />
  </mask>
  <g mask="url(#mask0_2150_311309)">
    <path fill-rule="evenodd" clip-rule="evenodd"
      d="M101 89.6479C101 90.7525 101.895 91.6479 103 91.6479H119C120.105 91.6479 121 90.7525 121 89.6479V73.6479C121 72.5434 120.105 71.6479 119 71.6479H103C101.895 71.6479 101 72.5434 101 73.6479V89.6479ZM117 75.6479V87.6479H105V75.6479H117Z"
      fill="#52918E" />
    <path
      d="M101.586 75.0622C100.805 74.2811 100.805 73.0148 101.586 72.2337C102.367 71.4527 103.633 71.4527 104.414 72.2337L120.414 88.2337C121.195 89.0148 121.195 90.2811 120.414 91.0622C119.633 91.8432 118.367 91.8432 117.586 91.0622L101.586 75.0622Z"
      fill="#52918E" />
    <path fill-rule="evenodd" clip-rule="evenodd"
      d="M101 121.648C101 122.753 101.895 123.648 103 123.648H119C120.105 123.648 121 122.753 121 121.648V105.648C121 104.543 120.105 103.648 119 103.648H103C101.895 103.648 101 104.543 101 105.648V121.648ZM117 107.648V119.648H105V107.648H117Z"
      fill="#52918E" />
    <path
      d="M101.586 107.062C100.805 106.281 100.805 105.015 101.586 104.234C102.367 103.453 103.633 103.453 104.414 104.234L120.414 120.234C121.195 121.015 121.195 122.281 120.414 123.062C119.633 123.843 118.367 123.843 117.586 123.062L101.586 107.062Z"
      fill="#52918E" />
    <path fill-rule="evenodd" clip-rule="evenodd"
      d="M101 153.648C101 154.753 101.895 155.648 103 155.648H119C120.105 155.648 121 154.753 121 153.648V137.648C121 136.543 120.105 135.648 119 135.648H103C101.895 135.648 101 136.543 101 137.648V153.648ZM117 139.648V151.648H105V139.648H117Z"
      fill="#52918E" />
    <path
      d="M101.586 139.062C100.805 138.281 100.805 137.015 101.586 136.234C102.367 135.453 103.633 135.453 104.414 136.234L120.414 152.234C121.195 153.015 121.195 154.281 120.414 155.062C119.633 155.843 118.367 155.843 117.586 155.062L101.586 139.062Z"
      fill="#52918E" />
    <path fill-rule="evenodd" clip-rule="evenodd"
      d="M29 98.5174V176.648H63V98.5174C63 93.4044 62.013 88.3584 60.126 83.6484H31.874C29.987 88.3584 29 93.4044 29 98.5174"
      fill="white" />
    <path fill-rule="evenodd" clip-rule="evenodd"
      d="M35 136.648H29V103.648H35C36.104 103.648 37 104.544 37 105.648V134.648C37 135.752 36.104 136.648 35 136.648"
      fill="#52918E" />
    <path
      d="M29 115.648C28.4477 115.648 28 115.2 28 114.648C28 114.096 28.4477 113.648 29 113.648H37C37.5523 113.648 38 114.096 38 114.648C38 115.2 37.5523 115.648 37 115.648H29Z"
      fill="#216361" />
    <path
      d="M29 126.648C28.4477 126.648 28 126.2 28 125.648C28 125.096 28.4477 124.648 29 124.648H37C37.5523 124.648 38 125.096 38 125.648C38 126.2 37.5523 126.648 37 126.648H29Z"
      fill="#216361" />
    <path fill-rule="evenodd" clip-rule="evenodd"
      d="M57 196.648C57 197.753 57.8954 198.648 59 198.648H99C100.105 198.648 101 197.753 101 196.648V61.479C101 54.7319 99.3783 48.0908 96.2685 42.1094C90.3368 30.7004 84.7021 23.6479 79 23.6479C73.2979 23.6479 67.6632 30.7004 61.7315 42.1094C58.6217 48.0908 57 54.7319 57 61.479V196.648ZM97 61.479V194.648H61V61.479C61 55.3739 62.4671 49.3657 65.2805 43.9545C70.4046 34.099 75.5588 27.6479 79 27.6479C82.4412 27.6479 87.5954 34.099 92.7195 43.9545C95.5329 49.3657 97 55.3739 97 61.479Z"
      fill="#B42F38" />
    <path
      d="M59 66.6479C58.4477 66.6479 58 66.2002 58 65.6479C58 65.0957 58.4477 64.6479 59 64.6479H99C99.5523 64.6479 100 65.0957 100 65.6479C100 66.2002 99.5523 66.6479 99 66.6479H59Z"
      fill="#B42F38" />
    <path
      d="M59 96.6479C58.4477 96.6479 58 96.2002 58 95.6479C58 95.0957 58.4477 94.6479 59 94.6479H99C99.5523 94.6479 100 95.0957 100 95.6479C100 96.2002 99.5523 96.6479 99 96.6479H59Z"
      fill="#B42F38" />
    <path fill-rule="evenodd" clip-rule="evenodd"
      d="M60.126 83.6479H47.126C49.013 88.3579 50 93.4039 50 98.5169V176.648H63V98.5169C63 93.4039 62.013 88.3579 60.126 83.6479"
      fill="#36B37E" />
    <path fill-rule="evenodd" clip-rule="evenodd"
      d="M60.126 83.6479H47.126C49.013 88.3579 50 93.4039 50 98.5169V176.648H63V98.5169C63 93.4039 62.013 88.3579 60.126 83.6479"
      fill="white" fill-opacity="0.9" />
    <path fill-rule="evenodd" clip-rule="evenodd" d="M33 196.648H59V187.648H33V196.648Z" fill="#635E75" />
    <path fill-rule="evenodd" clip-rule="evenodd"
      d="M31 196.648C31 197.753 31.8954 198.648 33 198.648H59C60.1046 198.648 61 197.753 61 196.648V187.648C61 186.543 60.1046 185.648 59 185.648H33C31.8954 185.648 31 186.543 31 187.648V196.648ZM57 194.648H35V189.648H57V194.648Z"
      fill="#4C4761" />
    <path fill-rule="evenodd" clip-rule="evenodd" d="M63 187.648H29L33 176.648H59L63 187.648Z" fill="#52918E" />
    <path fill-rule="evenodd" clip-rule="evenodd"
      d="M29 189.648H63C64.388 189.648 65.3539 188.269 64.8796 186.964L60.8796 175.964C60.5922 175.174 59.841 174.648 59 174.648H33C32.159 174.648 31.4078 175.174 31.1204 175.964L27.1204 186.964C26.6461 188.269 27.6121 189.648 29 189.648ZM34.4009 178.648H57.5992L60.1446 185.648H31.8554L34.4009 178.648Z"
      fill="#216361" />
    <path
      d="M48 187.648C48 188.753 47.1046 189.648 46 189.648C44.8954 189.648 44 188.753 44 187.648V176.648C44 175.543 44.8954 174.648 46 174.648C47.1046 174.648 48 175.543 48 176.648V187.648Z"
      fill="#216361" />
    <path fill-rule="evenodd" clip-rule="evenodd" d="M215 189.648L211 168.648H177L173 189.648H215Z" fill="#36B37E" />
    <path fill-rule="evenodd" clip-rule="evenodd" d="M215 189.648L211 168.648H177L173 189.648H215Z" fill="white"
      fill-opacity="0.9" />
    <path fill-rule="evenodd" clip-rule="evenodd"
      d="M164 196.648V196.648C164 192.782 167.134 189.648 171 189.648H217C220.866 189.648 224 192.782 224 196.648"
      fill="white" />
    <path
      d="M166 196.648C166 197.753 165.105 198.648 164 198.648C162.895 198.648 162 197.753 162 196.648C162 191.677 166.029 187.648 171 187.648H217C221.971 187.648 226 191.677 226 196.648C226 197.753 225.105 198.648 224 198.648C222.895 198.648 222 197.753 222 196.648C222 193.887 219.761 191.648 217 191.648H171C168.239 191.648 166 193.887 166 196.648Z"
      fill="#216361" />
    <path fill-rule="evenodd" clip-rule="evenodd" d="M213 177.648L211 168.648H177L175 177.648H213Z" fill="#74A5A2" />
    <path fill-rule="evenodd" clip-rule="evenodd"
      d="M263 168.648H125C121.687 168.648 119 165.961 119 162.648V64.6479C119 61.3349 121.687 58.6479 125 58.6479H263C266.313 58.6479 269 61.3349 269 64.6479V162.648C269 165.961 266.313 168.648 263 168.648Z"
      fill="#36B37E" />
    <path fill-rule="evenodd" clip-rule="evenodd"
      d="M263 168.648H125C121.687 168.648 119 165.961 119 162.648V64.6479C119 61.3349 121.687 58.6479 125 58.6479H263C266.313 58.6479 269 61.3349 269 64.6479V162.648C269 165.961 266.313 168.648 263 168.648Z"
      fill="white" fill-opacity="0.9" />
    <path fill-rule="evenodd" clip-rule="evenodd"
      d="M119 147.648H269V162.648C269 165.961 266.313 168.648 263 168.648H125C121.687 168.648 119 165.961 119 162.648V147.648Z"
      fill="#52918E" />
    <path fill-rule="evenodd" clip-rule="evenodd"
      d="M125 170.648H263C267.418 170.648 271 167.066 271 162.648V64.6479C271 60.2304 267.418 56.6479 263 56.6479H125C120.582 56.6479 117 60.2304 117 64.6479V162.648C117 167.066 120.582 170.648 125 170.648ZM267 162.648C267 164.856 265.208 166.648 263 166.648H125C122.792 166.648 121 164.856 121 162.648V64.6479C121 62.4395 122.792 60.6479 125 60.6479H263C265.208 60.6479 267 62.4395 267 64.6479V162.648Z"
      fill="#216361" />
    <path
      d="M209.035 169.022C208.829 167.937 209.541 166.89 210.626 166.683C211.711 166.476 212.758 167.189 212.965 168.274L216.965 189.274C217.171 190.359 216.459 191.406 215.374 191.613C214.289 191.819 213.242 191.107 213.035 190.022L209.035 169.022Z"
      fill="#216361" />
    <path
      d="M174.965 190.022C174.758 191.107 173.711 191.819 172.626 191.613C171.541 191.406 170.829 190.359 171.035 189.274L175.035 168.274C175.242 167.189 176.289 166.476 177.374 166.683C178.459 166.89 179.171 167.937 178.965 169.022L174.965 190.022Z"
      fill="#216361" />
    <path fill-rule="evenodd" clip-rule="evenodd"
      d="M197 157.648C197 159.305 195.657 160.648 194 160.648C192.343 160.648 191 159.305 191 157.648C191 155.991 192.343 154.648 194 154.648C195.657 154.648 197 155.991 197 157.648"
      fill="white" />
    <path fill-rule="evenodd" clip-rule="evenodd"
      d="M194 161.648C196.209 161.648 198 159.857 198 157.648C198 155.439 196.209 153.648 194 153.648C191.791 153.648 190 155.439 190 157.648C190 159.857 191.791 161.648 194 161.648ZM194 155.648C195.105 155.648 196 156.543 196 157.648C196 158.753 195.105 159.648 194 159.648C192.895 159.648 192 158.753 192 157.648C192 156.543 192.895 155.648 194 155.648Z"
      fill="#216361" />
    <path
      d="M119 148.648C118.448 148.648 118 148.2 118 147.648C118 147.096 118.448 146.648 119 146.648H269C269.552 146.648 270 147.096 270 147.648C270 148.2 269.552 148.648 269 148.648H119Z"
      fill="#216361" />
    <path fill-rule="evenodd" clip-rule="evenodd"
      d="M228 90.6479V118.648C228 121.961 225.313 124.648 222 124.648H166C162.687 124.648 160 121.961 160 118.648V90.6479C160 87.3349 162.687 84.6479 166 84.6479H222C225.313 84.6479 228 87.3349 228 90.6479"
      fill="white" />
    <path fill-rule="evenodd" clip-rule="evenodd"
      d="M182 112.648L160 90.6479L161.371 86.2769L184.753 109.659L182 112.648Z" fill="#36B37E" />
    <path fill-rule="evenodd" clip-rule="evenodd"
      d="M182 112.648L160 90.6479L161.371 86.2769L184.753 109.659L182 112.648Z" fill="white" fill-opacity="0.9" />
    <path fill-rule="evenodd" clip-rule="evenodd"
      d="M205.753 112.648L227.753 90.6479L226.382 86.2769L203 109.659L205.753 112.648Z" fill="#36B37E" />
    <path fill-rule="evenodd" clip-rule="evenodd"
      d="M205.753 112.648L227.753 90.6479L226.382 86.2769L203 109.659L205.753 112.648Z" fill="white"
      fill-opacity="0.9" />
    <path fill-rule="evenodd" clip-rule="evenodd"
      d="M222 117.648H166C162.687 117.648 160 114.961 160 111.648V118.648C160 121.961 162.687 124.648 166 124.648H222C225.313 124.648 228 121.961 228 118.648V111.648C228 114.961 225.313 117.648 222 117.648"
      fill="#36B37E" />
    <path fill-rule="evenodd" clip-rule="evenodd"
      d="M222 117.648H166C162.687 117.648 160 114.961 160 111.648V118.648C160 121.961 162.687 124.648 166 124.648H222C225.313 124.648 228 121.961 228 118.648V111.648C228 114.961 225.313 117.648 222 117.648"
      fill="white" fill-opacity="0.9" />
    <path fill-rule="evenodd" clip-rule="evenodd"
      d="M230 118.648V90.6479C230 86.2304 226.418 82.6479 222 82.6479H166C161.582 82.6479 158 86.2304 158 90.6479V118.648C158 123.066 161.582 126.648 166 126.648H222C226.418 126.648 230 123.066 230 118.648ZM222 86.6479C224.208 86.6479 226 88.4395 226 90.6479V118.648C226 120.856 224.208 122.648 222 122.648H166C163.792 122.648 162 120.856 162 118.648V90.6479C162 88.4395 163.792 86.6479 166 86.6479H222Z"
      fill="#216361" />
    <path
      d="M225.225 85.8759C225.614 85.4846 226.247 85.4832 226.639 85.8729C227.03 86.2626 227.031 86.8958 226.642 87.2871L197.541 116.512C195.588 118.472 192.413 118.472 190.458 116.511L160.859 86.7872C160.469 86.3958 160.47 85.7626 160.862 85.3729C161.253 84.9832 161.886 84.9846 162.276 85.3759L191.874 115.099C193.047 116.276 194.953 116.276 196.125 115.1L225.225 85.8759Z"
      fill="#216361" />
    <path
      d="M202.322 110.332C201.933 109.941 201.934 109.308 202.325 108.918C202.716 108.528 203.349 108.529 203.739 108.921L218.708 123.942C219.098 124.333 219.097 124.966 218.706 125.356C218.314 125.746 217.681 125.745 217.291 125.353L202.322 110.332Z"
      fill="#216361" />
    <path
      d="M170.708 125.354C170.318 125.745 169.685 125.746 169.294 125.356C168.903 124.966 168.902 124.333 169.292 123.942L184.138 109.045C184.528 108.654 185.161 108.653 185.552 109.043C185.943 109.433 185.944 110.066 185.554 110.457L170.708 125.354Z"
      fill="#216361" />
    <path fill-rule="evenodd" clip-rule="evenodd"
      d="M228 90.6479V118.648C228 121.961 225.313 124.648 222 124.648H166C162.687 124.648 160 121.961 160 118.648V90.6479C160 87.3349 162.687 84.6479 166 84.6479H222C225.313 84.6479 228 87.3349 228 90.6479"
      fill="white" />
    <path fill-rule="evenodd" clip-rule="evenodd"
      d="M182 112.648L160 90.6479L161.371 86.2769L184.753 109.659L182 112.648Z" fill="#36B37E" />
    <path fill-rule="evenodd" clip-rule="evenodd"
      d="M182 112.648L160 90.6479L161.371 86.2769L184.753 109.659L182 112.648Z" fill="white" fill-opacity="0.9" />
    <path fill-rule="evenodd" clip-rule="evenodd"
      d="M205.753 112.648L227.753 90.6479L226.382 86.2769L203 109.659L205.753 112.648Z" fill="#36B37E" />
    <path fill-rule="evenodd" clip-rule="evenodd"
      d="M205.753 112.648L227.753 90.6479L226.382 86.2769L203 109.659L205.753 112.648Z" fill="white"
      fill-opacity="0.9" />
    <path fill-rule="evenodd" clip-rule="evenodd"
      d="M222 117.648H166C162.687 117.648 160 114.961 160 111.648V118.648C160 121.961 162.687 124.648 166 124.648H222C225.313 124.648 228 121.961 228 118.648V111.648C228 114.961 225.313 117.648 222 117.648"
      fill="#36B37E" />
    <path fill-rule="evenodd" clip-rule="evenodd"
      d="M222 117.648H166C162.687 117.648 160 114.961 160 111.648V118.648C160 121.961 162.687 124.648 166 124.648H222C225.313 124.648 228 121.961 228 118.648V111.648C228 114.961 225.313 117.648 222 117.648"
      fill="white" fill-opacity="0.9" />
    <path fill-rule="evenodd" clip-rule="evenodd"
      d="M230 118.648V90.6479C230 86.2304 226.418 82.6479 222 82.6479H166C161.582 82.6479 158 86.2304 158 90.6479V118.648C158 123.066 161.582 126.648 166 126.648H222C226.418 126.648 230 123.066 230 118.648ZM222 86.6479C224.208 86.6479 226 88.4395 226 90.6479V118.648C226 120.856 224.208 122.648 222 122.648H166C163.792 122.648 162 120.856 162 118.648V90.6479C162 88.4395 163.792 86.6479 166 86.6479H222Z"
      fill="#216361" />
    <path
      d="M225.225 85.8759C225.614 85.4846 226.247 85.4832 226.639 85.8729C227.03 86.2626 227.031 86.8958 226.642 87.2871L197.541 116.512C195.588 118.472 192.413 118.472 190.458 116.511L160.859 86.7872C160.469 86.3958 160.47 85.7626 160.862 85.3729C161.253 84.9832 161.886 84.9846 162.276 85.3759L191.874 115.099C193.047 116.276 194.953 116.276 196.125 115.1L225.225 85.8759Z"
      fill="#216361" />
    <path
      d="M202.322 110.332C201.933 109.941 201.934 109.308 202.325 108.918C202.716 108.528 203.349 108.529 203.739 108.921L218.708 123.942C219.098 124.333 219.097 124.966 218.706 125.356C218.314 125.746 217.681 125.745 217.291 125.353L202.322 110.332Z"
      fill="#216361" />
    <path
      d="M170.708 125.354C170.318 125.745 169.685 125.746 169.294 125.356C168.903 124.966 168.902 124.333 169.292 123.942L184.138 109.045C184.528 108.654 185.161 108.653 185.552 109.043C185.943 109.433 185.944 110.066 185.554 110.457L170.708 125.354Z"
      fill="#216361" />
    <path fill-rule="evenodd" clip-rule="evenodd"
      d="M242 84.6479C242 92.3799 235.732 98.6479 228 98.6479C220.268 98.6479 214 92.3799 214 84.6479C214 76.9159 220.268 70.6479 228 70.6479C235.732 70.6479 242 76.9159 242 84.6479"
      fill="#00C568" />
    <path fill-rule="evenodd" clip-rule="evenodd"
      d="M228 100.648C236.837 100.648 244 93.4845 244 84.6479C244 75.8114 236.837 68.6479 228 68.6479C219.163 68.6479 212 75.8114 212 84.6479C212 93.4845 219.163 100.648 228 100.648ZM228 72.6479C234.627 72.6479 240 78.0205 240 84.6479C240 91.2754 234.627 96.6479 228 96.6479C221.373 96.6479 216 91.2754 216 84.6479C216 78.0205 221.373 72.6479 228 72.6479Z"
      fill="#25A261" />
    <path
      d="M232.122 81.1127C232.512 80.7222 233.145 80.7222 233.536 81.1128C233.926 81.5033 233.926 82.1365 233.536 82.527L226.879 89.183C226.488 89.5735 225.855 89.5734 225.465 89.1829L222.965 86.6829C222.574 86.2924 222.574 85.6592 222.965 85.2687C223.355 84.8782 223.988 84.8782 224.379 85.2687L226.172 87.0617L232.122 81.1127Z"
      fill="white" />
    <path
      d="M28 167.648C27.4477 167.648 27 167.2 27 166.648C27 166.096 27.4477 165.648 28 165.648H54C54.5523 165.648 55 166.096 55 166.648C55 167.2 54.5523 167.648 54 167.648H28Z"
      fill="#216361" />
    <path fill-rule="evenodd" clip-rule="evenodd"
      d="M109 26.6479C109 27.7519 108.104 28.6479 107 28.6479C105.896 28.6479 105 27.7519 105 26.6479C105 25.5439 105.896 24.6479 107 24.6479C108.104 24.6479 109 25.5439 109 26.6479"
      fill="#EB3747" />
    <path fill-rule="evenodd" clip-rule="evenodd"
      d="M255 4.64795C255 5.75195 254.104 6.64795 253 6.64795C251.896 6.64795 251 5.75195 251 4.64795C251 3.54395 251.896 2.64795 253 2.64795C254.104 2.64795 255 3.54395 255 4.64795"
      fill="#EB3747" />
    <path fill-rule="evenodd" clip-rule="evenodd"
      d="M305 20.6479C305 21.7519 304.104 22.6479 303 22.6479C301.896 22.6479 301 21.7519 301 20.6479C301 19.5439 301.896 18.6479 303 18.6479C304.104 18.6479 305 19.5439 305 20.6479"
      fill="#36B37E" />
    <path fill-rule="evenodd" clip-rule="evenodd"
      d="M305 20.6479C305 21.7519 304.104 22.6479 303 22.6479C301.896 22.6479 301 21.7519 301 20.6479C301 19.5439 301.896 18.6479 303 18.6479C304.104 18.6479 305 19.5439 305 20.6479"
      fill="white" fill-opacity="0.9" />
    <path fill-rule="evenodd" clip-rule="evenodd"
      d="M15 140.648C15 141.752 14.104 142.648 13 142.648C11.896 142.648 11 141.752 11 140.648C11 139.544 11.896 138.648 13 138.648C14.104 138.648 15 139.544 15 140.648"
      fill="#EB3747" />
    <path fill-rule="evenodd" clip-rule="evenodd"
      d="M118 45.6479C118 46.7519 117.104 47.6479 116 47.6479C114.896 47.6479 114 46.7519 114 45.6479C114 44.5439 114.896 43.6479 116 43.6479C117.104 43.6479 118 44.5439 118 45.6479"
      fill="white" />
    <path fill-rule="evenodd" clip-rule="evenodd"
      d="M230 38.6479C230 39.7519 229.104 40.6479 228 40.6479C226.896 40.6479 226 39.7519 226 38.6479C226 37.5439 226.896 36.6479 228 36.6479C229.104 36.6479 230 37.5439 230 38.6479"
      fill="white" />
    <path fill-rule="evenodd" clip-rule="evenodd"
      d="M19 121.648C19 122.752 18.104 123.648 17 123.648C15.896 123.648 15 122.752 15 121.648C15 120.544 15.896 119.648 17 119.648C18.104 119.648 19 120.544 19 121.648"
      fill="#74A5A2" />
    <path fill-rule="evenodd" clip-rule="evenodd"
      d="M63 98.5503V169.648H57C55.343 169.648 54 168.305 54 166.648V155.832C54 149.649 54.574 143.477 55.714 137.399L63 98.5503Z"
      fill="white" />
    <path fill-rule="evenodd" clip-rule="evenodd"
      d="M135 41.6479C135 42.7519 134.104 43.6479 133 43.6479C131.896 43.6479 131 42.7519 131 41.6479C131 40.5439 131.896 39.6479 133 39.6479C134.104 39.6479 135 40.5439 135 41.6479"
      fill="#74A5A2" />
    <path fill-rule="evenodd" clip-rule="evenodd"
      d="M239 26.6479C239 27.7519 238.104 28.6479 237 28.6479C235.896 28.6479 235 27.7519 235 26.6479C235 25.5439 235.896 24.6479 237 24.6479C238.104 24.6479 239 25.5439 239 26.6479"
      fill="#74A5A2" />
    <path fill-rule="evenodd" clip-rule="evenodd"
      d="M313 37.6479C313 38.7519 312.104 39.6479 311 39.6479C309.896 39.6479 309 38.7519 309 37.6479C309 36.5439 309.896 35.6479 311 35.6479C312.104 35.6479 313 36.5439 313 37.6479"
      fill="#74A5A2" />
    <path fill-rule="evenodd" clip-rule="evenodd"
      d="M39 159.648C39 160.752 38.104 161.648 37 161.648C35.896 161.648 35 160.752 35 159.648C35 158.544 35.896 157.648 37 157.648C38.104 157.648 39 158.544 39 159.648"
      fill="#216361" />
    <path fill-rule="evenodd" clip-rule="evenodd"
      d="M30.0175 82.9046C28.0275 87.8716 27 93.1714 27 98.5174V176.648C27 177.753 27.8954 178.648 29 178.648H63C64.1046 178.648 65 177.753 65 176.648V98.5174C65 93.1714 63.9725 87.8716 61.9825 82.9046C61.6786 82.1459 60.9434 81.6484 60.126 81.6484H31.874C31.0566 81.6484 30.3214 82.1459 30.0175 82.9046ZM31 174.648V98.5174C31 94.1301 31.7654 89.7757 33.2527 85.6484H58.7473C60.2346 89.7757 61 94.1301 61 98.5174V174.648H31Z"
      fill="#216361" />
    <path fill-rule="evenodd" clip-rule="evenodd"
      d="M46 68.6479C42.46 68.6479 38.154 72.2729 34.761 77.8349C33.627 79.6929 32.678 81.6429 31.874 83.6479H60.126C59.322 81.6429 58.373 79.6929 57.239 77.8349C53.846 72.2729 49.54 68.6479 46 68.6479"
      fill="#216361" />
    <path fill-rule="evenodd" clip-rule="evenodd"
      d="M58.9462 76.793C55.1811 70.6211 50.3605 66.6479 46 66.6479C41.6396 66.6479 36.819 70.6211 33.0537 76.7934C31.8981 78.6867 30.8931 80.7205 30.0177 82.9036C29.4908 84.2175 30.4584 85.6479 31.874 85.6479H60.126C61.5417 85.6479 62.5093 84.2175 61.9824 82.9036C61.107 80.7205 60.102 78.6867 58.9462 76.793ZM46 70.6479C48.6274 70.6479 52.4177 73.7719 55.5317 78.8765C56.0723 79.7623 56.5778 80.6856 57.0506 81.6479H34.9495C35.4223 80.6857 35.9277 79.7625 36.4682 78.8769C39.5824 73.7719 43.3727 70.6479 46 70.6479Z"
      fill="#216361" />
    <path fill-rule="evenodd" clip-rule="evenodd"
      d="M99 196.648H81V69.6478L88.192 54.4628C88.915 52.9388 91.085 52.9388 91.808 54.4628L99 69.6478V196.648Z"
      fill="#36B37E" />
    <path fill-rule="evenodd" clip-rule="evenodd"
      d="M99 196.648H81V69.6478L88.192 54.4628C88.915 52.9388 91.085 52.9388 91.808 54.4628L99 69.6478V196.648Z"
      fill="white" fill-opacity="0.9" />
    <path fill-rule="evenodd" clip-rule="evenodd" d="M81 196.648H99V189.648H81V196.648Z" fill="#52918E" />
    <path fill-rule="evenodd" clip-rule="evenodd"
      d="M80 196.648C80 197.2 80.4477 197.648 81 197.648H99C99.5523 197.648 100 197.2 100 196.648V189.648C100 189.096 99.5523 188.648 99 188.648H81C80.4477 188.648 80 189.096 80 189.648V196.648ZM98 195.648H82V190.648H98V195.648Z"
      fill="#216361" />
    <path fill-rule="evenodd" clip-rule="evenodd"
      d="M85 117.648H81V91.6479H85C86.104 91.6479 87 92.5439 87 93.6479V115.648C87 116.752 86.104 117.648 85 117.648"
      fill="#52918E" />
    <path fill-rule="evenodd" clip-rule="evenodd"
      d="M81 118.648H85C86.6563 118.648 88 117.304 88 115.648V93.6479C88 91.9917 86.6563 90.6479 85 90.6479H81C80.4477 90.6479 80 91.0957 80 91.6479V117.648C80 118.2 80.4477 118.648 81 118.648ZM86 115.648C86 116.2 85.5517 116.648 85 116.648H82V92.6479H85C85.5517 92.6479 86 93.0962 86 93.6479V115.648Z"
      fill="#216361" />
    <path fill-rule="evenodd" clip-rule="evenodd"
      d="M89 184.148C89 184.976 88.329 185.648 87.5 185.648C86.671 185.648 86 184.976 86 184.148C86 183.32 86.671 182.648 87.5 182.648C88.329 182.648 89 183.32 89 184.148"
      fill="#216361" />
    <path fill-rule="evenodd" clip-rule="evenodd"
      d="M89 178.148C89 178.976 88.329 179.648 87.5 179.648C86.671 179.648 86 178.976 86 178.148C86 177.32 86.671 176.648 87.5 176.648C88.329 176.648 89 177.32 89 178.148"
      fill="#216361" />
    <path fill-rule="evenodd" clip-rule="evenodd"
      d="M89 172.148C89 172.976 88.329 173.648 87.5 173.648C86.671 173.648 86 172.976 86 172.148C86 171.32 86.671 170.648 87.5 170.648C88.329 170.648 89 171.32 89 172.148"
      fill="#216361" />
    <path
      d="M81 70.6479C80.4477 70.6479 80 70.2002 80 69.6479C80 69.0957 80.4477 68.6479 81 68.6479H99C99.5523 68.6479 100 69.0957 100 69.6479C100 70.2002 99.5523 70.6479 99 70.6479H81Z"
      fill="#216361" />
    <path fill-rule="evenodd" clip-rule="evenodd"
      d="M81 198.648H99C100.105 198.648 101 197.753 101 196.648V69.6482C101 69.3521 100.934 69.0597 100.808 68.7921L93.6155 53.6071C92.1691 50.5582 87.8309 50.5582 86.385 53.6059L79.1925 68.7921C79.0657 69.0597 79 69.3521 79 69.6482V196.648C79 197.753 79.8954 198.648 81 198.648ZM97 70.0978V194.648H83V70.0978C83 70.0978 90.0009 55.3201 90.001 55.3204L97 70.0978Z"
      fill="#216361" />
    <path fill-rule="evenodd" clip-rule="evenodd"
      d="M29 176.648H4C2.896 176.648 2 175.752 2 174.648V169.346C2 165.814 3.863 162.544 6.902 160.743L29 147.648V176.648Z"
      fill="white" />
    <path fill-rule="evenodd" clip-rule="evenodd"
      d="M19 167.648H15C14.448 167.648 14 167.201 14 166.648C14 166.095 14.448 165.648 15 165.648H19C19.552 165.648 20 166.095 20 166.648C20 167.201 19.552 167.648 19 167.648"
      fill="#EB3747" />
    <path fill-rule="evenodd" clip-rule="evenodd" d="M22 151.796V176.648H29V147.648L22 151.796Z" fill="#36B37E" />
    <path fill-rule="evenodd" clip-rule="evenodd" d="M22 151.796V176.648H29V147.648L22 151.796Z" fill="white"
      fill-opacity="0.9" />
    <path
      d="M2 171.648C1.44772 171.648 1 171.2 1 170.648C1 170.096 1.44772 169.648 2 169.648H29C29.5523 169.648 30 170.096 30 170.648C30 171.2 29.5523 171.648 29 171.648H2Z"
      fill="#216361" />
    <path fill-rule="evenodd" clip-rule="evenodd"
      d="M4 178.648H29C30.1046 178.648 31 177.753 31 176.648V147.648C31 146.098 29.3136 145.137 27.9804 145.927L5.8824 159.022C2.23578 161.184 0 165.108 0 169.346V174.648C0 176.857 1.79143 178.648 4 178.648ZM27 151.158V174.648H4V169.346C4 166.52 5.49049 163.904 7.92165 162.464L27 151.158Z"
      fill="#216361" />
    <path fill-rule="evenodd" clip-rule="evenodd"
      d="M64 169.648V98.5502C64 97.3351 62.2411 97.1716 62.0171 98.3659L54.7311 137.215C53.5797 143.354 53 149.588 53 155.832V166.648C53 168.857 54.7907 170.648 57 170.648H63C63.5523 170.648 64 170.2 64 169.648ZM55 155.832C55 149.711 55.5682 143.601 56.6969 137.584L62 109.307V168.648H57C55.8953 168.648 55 167.753 55 166.648V155.832Z"
      fill="#216361" />
    <path fill-rule="evenodd" clip-rule="evenodd"
      d="M29 137.648H35C36.6563 137.648 38 136.304 38 134.648V105.648C38 103.992 36.6563 102.648 35 102.648H29C28.4477 102.648 28 103.096 28 103.648V136.648C28 137.2 28.4477 137.648 29 137.648ZM36 134.648C36 135.2 35.5517 135.648 35 135.648H30V104.648H35C35.5517 104.648 36 105.096 36 105.648V134.648Z"
      fill="#216361" />
    <path
      d="M1 198.648C-0.10457 198.648 -1 197.753 -1 196.648C-1 195.543 -0.10457 194.648 1 194.648H311C312.105 194.648 313 195.543 313 196.648C313 197.753 312.105 198.648 311 198.648H1Z"
      fill="#216361" />
  </g>
</svg>