<svg width="48" height="48" viewBox="0 0 48 48" fill="none" xmlns="http://www.w3.org/2000/svg">
<g clip-path="url(#clip0)">
<path d="M7 27.2849C7 27.0365 7.04627 26.7903 7.13643 26.5589L10.7537 17.274C11.0529 16.5058 11.7929 16 12.6172 16H35.3828C36.2071 16 36.9471 16.5058 37.2463 17.274L40.8636 26.5589C40.9537 26.7903 41 27.0365 41 27.2849V38C41 39.1046 40.1046 40 39 40H9C7.89543 40 7 39.1046 7 38V27.2849Z" fill="white"/>
<path d="M37.2463 17.274L38.1781 16.911L37.2463 17.274ZM40.8636 26.5589L39.9318 26.9219L40.8636 26.5589ZM7.13643 26.5589L6.20464 26.1959L7.13643 26.5589ZM40 27.2849V38H42V27.2849H40ZM39 39H9V41H39V39ZM8 38V27.2849H6V38H8ZM8.06821 26.9219L11.6855 17.637L9.82189 16.911L6.20464 26.1959L8.06821 26.9219ZM12.6172 17H35.3828V15H12.6172V17ZM36.3145 17.637L39.9318 26.9219L41.7954 26.1959L38.1781 16.911L36.3145 17.637ZM35.3828 17C35.7949 17 36.1649 17.2529 36.3145 17.637L38.1781 16.911C37.7292 15.7587 36.6193 15 35.3828 15V17ZM11.6855 17.637C11.8351 17.2529 12.2051 17 12.6172 17V15C11.3807 15 10.2708 15.7587 9.82189 16.911L11.6855 17.637ZM9 39C8.44772 39 8 38.5523 8 38H6C6 39.6569 7.34315 41 9 41V39ZM40 38C40 38.5523 39.5523 39 39 39V41C40.6569 41 42 39.6569 42 38H40ZM42 27.2849C42 26.9124 41.9306 26.543 41.7954 26.1959L39.9318 26.9219C39.9769 27.0376 40 27.1607 40 27.2849H42ZM8 27.2849C8 27.1607 8.02313 27.0376 8.06821 26.9219L6.20464 26.1959C6.0694 26.543 6 26.9124 6 27.2849H8Z" fill="#878A92"/>
<path d="M36.625 16H11.4688L6 27.5862H18.0312L20.7656 32H27.3281L29.5156 27.5862H41L36.625 16Z" fill="#E4E7EC"/>
<path d="M37.2463 17.274L38.1781 16.911L37.2463 17.274ZM40.8636 26.5589L39.9318 26.9219L40.8636 26.5589ZM7.13643 26.5589L6.20464 26.1959L7.13643 26.5589ZM40 27.2849V38H42V27.2849H40ZM39 39H9V41H39V39ZM8 38V27.2849H6V38H8ZM8.06821 26.9219L11.6855 17.637L9.82189 16.911L6.20464 26.1959L8.06821 26.9219ZM12.6172 17H35.3828V15H12.6172V17ZM36.3145 17.637L39.9318 26.9219L41.7954 26.1959L38.1781 16.911L36.3145 17.637ZM35.3828 17C35.7949 17 36.1649 17.2529 36.3145 17.637L38.1781 16.911C37.7292 15.7587 36.6193 15 35.3828 15V17ZM11.6855 17.637C11.8351 17.2529 12.2051 17 12.6172 17V15C11.3807 15 10.2708 15.7587 9.82189 16.911L11.6855 17.637ZM9 39C8.44772 39 8 38.5523 8 38H6C6 39.6569 7.34315 41 9 41V39ZM40 38C40 38.5523 39.5523 39 39 39V41C40.6569 41 42 39.6569 42 38H40ZM42 27.2849C42 26.9124 41.9306 26.543 41.7954 26.1959L39.9318 26.9219C39.9769 27.0376 40 27.1607 40 27.2849H42ZM8 27.2849C8 27.1607 8.02313 27.0376 8.06821 26.9219L6.20464 26.1959C6.0694 26.543 6 26.9124 6 27.2849H8Z" fill="#878A92"/>
<path d="M7 28H18.6875C18.6875 28 19.2188 32 24 32C28.7812 32 29.3125 28 29.3125 28H41" stroke="#878A92" stroke-width="2" stroke-linecap="round" stroke-linejoin="round"/>
<path d="M17.7729 10.8529L14.5425 7.62256" stroke="#E4E7EC" stroke-width="2" stroke-linecap="round" stroke-linejoin="round"/>
<path d="M30.6909 10.853L33.9213 7.62265" stroke="#E4E7EC" stroke-width="2" stroke-linecap="round" stroke-linejoin="round"/>
<path d="M24.0195 9.84985L24.0195 4.4659" stroke="#E4E7EC" stroke-width="2" stroke-linecap="round" stroke-linejoin="round"/>
</g>
<defs>
<clipPath id="clip0">
<rect width="48" height="48" fill="white"/>
</clipPath>
</defs>
</svg>
