<svg viewBox="0 0 308 246" fill="none" xmlns="http://www.w3.org/2000/svg">
<path d="M103.278 0C40.0343 -0.00021812 35.0409 41.8367 25.055 85.3469C15.069 128.857 -6.2334 155.633 1.75521 190.774C8.22236 219.223 26.7193 246 84.9699 246C115.532 246 158.199 235.959 208.128 235.959C236.422 235.959 276.365 245.582 299.665 207.51C322.965 169.439 292.357 101.169 269.708 73.6316C247.244 46.3198 196.612 0.000321903 103.278 0Z" fill="#E8EAF1"/>
<rect x="58.3169" y="88.6399" width="94" height="74" rx="2" transform="rotate(-10 58.3169 88.6399)" fill="#E8EAF1" stroke="#9293AD" stroke-width="4"/>
<path d="M236.5 223C250.031 223 261 212.031 261 198.5V181C261 178.791 259.209 177 257 177H216C213.791 177 212 178.791 212 181V198.5C212 212.031 222.969 223 236.5 223Z" fill="#E8EAF1"/>
<path d="M259 198.5C259 210.926 248.926 221 236.5 221V225C251.136 225 263 213.136 263 198.5H259ZM236.5 221C224.074 221 214 210.926 214 198.5H210C210 213.136 221.864 225 236.5 225V221ZM263 198.5V181H259V198.5H263ZM257 175H216V179H257V175ZM210 181V198.5H214V181H210ZM210 198.5V199H214V198.5H210ZM216 175C212.686 175 210 177.686 210 181H214C214 179.895 214.895 179 216 179V175ZM263 181C263 177.686 260.314 175 257 175V179C258.105 179 259 179.895 259 181H263Z" fill="#9293AD"/>
<path d="M187.5 31C175.326 31 165.225 39.8799 163.322 51.5162C162.966 53.6963 161.209 55.5 159 55.5H84V198.5C84 212.031 94.969 223 108.5 223H236.5C222.969 223 212 212.031 212 198.5V177V55.5C212 41.969 201.031 31 187.5 31Z" fill="white"/>
<path d="M163.322 51.5162L161.348 51.1934L161.348 51.1934L163.322 51.5162ZM84 55.5V53.5H82V55.5H84ZM165.296 51.8389C167.043 41.1542 176.321 33 187.5 33V29C174.33 29 163.407 38.6057 161.348 51.1934L165.296 51.8389ZM187.5 33C199.926 33 210 43.0736 210 55.5H214C214 40.8645 202.136 29 187.5 29V33ZM84 57.5H159V53.5H84V57.5ZM82 55.5V198.5H86V55.5H82ZM82 198.5V199H86V198.5H82ZM210 55.5V177H214V55.5H210ZM210 177V198.5H214V177H210ZM210 198.5V199H214V198.5H210ZM236.5 221C224.074 221 214 210.926 214 198.5H210C210 213.136 221.864 225 236.5 225V221ZM108.5 221C96.0736 221 86 210.926 86 198.5H82C82 213.136 93.8645 225 108.5 225V221ZM108.5 225H236.5V221H108.5V225ZM161.348 51.1934C161.117 52.6079 160.038 53.5 159 53.5V57.5C162.38 57.5 164.814 54.7848 165.296 51.8389L161.348 51.1934Z" fill="#9293AD"/>
<line x1="110" y1="97" x2="176" y2="97" stroke="#9293AD" stroke-width="4" stroke-linecap="round"/>
<line x1="110" y1="123" x2="171" y2="123" stroke="#9293AD" stroke-width="4" stroke-linecap="round"/>
<line x1="110" y1="149" x2="171" y2="149" stroke="#9293AD" stroke-width="4" stroke-linecap="round"/>
<line x1="110" y1="173" x2="151" y2="173" stroke="#9293AD" stroke-width="4" stroke-linecap="round"/>
<rect x="44" y="112" width="94" height="74" rx="2" fill="white" stroke="#9293AD" stroke-width="4"/>
<circle cx="211" cy="98" r="35" fill="white" stroke="#9293AD" stroke-width="4"/>
<path d="M65.46 159H69.45V150.84H72.45C77.04 150.84 80.31 148.83 80.31 144.3V144.18C80.31 139.68 77.16 137.55 72.36 137.55H65.46V159ZM69.45 147.96V140.64H72.36C74.91 140.64 76.41 141.63 76.41 144.18V144.3C76.41 146.67 75 147.96 72.36 147.96H69.45Z" fill="#9293AD"/>
<path d="M87.7312 155.85V140.7H90.0412C95.0812 140.7 97.1812 143.49 97.1812 148.11V148.35C97.1812 153.09 94.8712 155.85 90.0712 155.85H87.7312ZM83.7412 159H90.1912C97.7212 159 101.351 154.56 101.351 148.32V148.05C101.351 141.81 97.7212 137.55 90.2512 137.55H83.7412V159Z" fill="#9293AD"/>
<path d="M105.157 159H109.147V150.21H116.467V147.12H109.147V140.73H118.447V137.55H105.157V159Z" fill="#9293AD"/>
<path d="M196.755 105.885C195.045 102.923 196.062 99.1253 199.024 97.4153L205.952 93.4153L204.052 90.1244L197.124 94.1244C192.344 96.8844 190.704 103.004 193.464 107.785C196.224 112.565 202.344 114.205 207.124 111.445L214.052 107.445L212.152 104.154L205.224 108.154C202.262 109.864 198.465 108.846 196.755 105.885ZM204.856 103.517L218.713 95.5167L216.713 92.0526L202.856 100.053L204.856 103.517ZM214.445 84.1244L207.516 88.1244L209.416 91.4153L216.345 87.4153C219.306 85.7053 223.104 86.7228 224.814 89.6846C226.524 92.6465 225.506 96.444 222.545 98.154L215.616 102.154L217.516 105.445L224.445 101.445C229.225 98.6849 230.865 92.5651 228.105 87.7846C225.345 83.0042 219.225 81.3644 214.445 84.1244Z" fill="#9293AD"/>
<path d="M236.5 223C250.031 223 261 212.031 261 198.5V181C261 178.791 259.209 177 257 177H216C213.791 177 212 178.791 212 181V198.5C212 212.031 222.969 223 236.5 223Z" fill="white"/>
<path d="M259 198.5C259 210.926 248.926 221 236.5 221V225C251.136 225 263 213.136 263 198.5H259ZM236.5 221C224.074 221 214 210.926 214 198.5H210C210 213.136 221.864 225 236.5 225V221ZM263 198.5V181H259V198.5H263ZM257 175H216V179H257V175ZM210 181V198.5H214V181H210ZM210 198.5V199H214V198.5H210ZM216 175C212.686 175 210 177.686 210 181H214C214 179.895 214.895 179 216 179V175ZM263 181C263 177.686 260.314 175 257 175V179C258.105 179 259 179.895 259 181H263Z" fill="#9293AD"/>
<mask id="mask0_905_73006" style="mask-type:alpha" maskUnits="userSpaceOnUse" x="210" y="175" width="53" height="50">
<path d="M236.5 223C250.031 223 261 212.031 261 198.5V181C261 178.791 259.209 177 257 177H216C213.791 177 212 178.791 212 181V198.5C212 212.031 222.969 223 236.5 223Z" fill="white"/>
<path d="M259 198.5C259 210.926 248.926 221 236.5 221V225C251.136 225 263 213.136 263 198.5H259ZM236.5 221C224.074 221 214 210.926 214 198.5H210C210 213.136 221.864 225 236.5 225V221ZM263 198.5V181H259V198.5H263ZM257 175H216V179H257V175ZM210 181V198.5H214V181H210ZM210 198.5V199H214V198.5H210ZM216 175C212.686 175 210 177.686 210 181H214C214 179.895 214.895 179 216 179V175ZM263 181C263 177.686 260.314 175 257 175V179C258.105 179 259 179.895 259 181H263Z" fill="#9293AD"/>
</mask>
<g mask="url(#mask0_905_73006)">
<path d="M214 198H259V198.5C259 210.926 248.926 221 236.5 221V221C224.074 221 214 210.926 214 198.5V198Z" fill="#E8EAF1"/>
</g>
<path d="M202.5 42C190.325 42 180.225 50.8799 178.322 62.5162C177.965 64.6963 176.209 66.5 174 66.5H98.9996H86C86 56.6965 86.0002 43.5136 86.0003 36.9942C86.0004 34.7851 87.7912 33 90.0003 33H189L189.545 33.0519C195.886 33.6558 201.678 36.9044 205.5 42V42H202.5Z" fill="#E8EAF1"/>
<path d="M188.5 31C176.326 31 166.225 39.8799 164.322 51.5162C163.966 53.6963 162.209 55.5 160 55.5H85H51C48.7909 55.5 46.9657 53.6963 47.3223 51.5162C49.2251 39.8799 59.3255 31 71.5 31H188.5Z" fill="white"/>
<path d="M164.322 51.5162L166.296 51.8389L164.322 51.5162ZM166.296 51.8389C168.043 41.1542 177.321 33 188.5 33V29C175.33 29 164.407 38.6057 162.348 51.1934L166.296 51.8389ZM49.2961 51.8389C51.0433 41.1542 60.3213 33 71.5 33V29C58.3298 29 47.4069 38.6057 45.3485 51.1934L49.2961 51.8389ZM71.5 33H188.5V29H71.5V33ZM51 57.5H85V53.5H51V57.5ZM85 57.5H160V53.5H85V57.5ZM45.3485 51.1934C44.7567 54.8122 47.7927 57.5 51 57.5V53.5C49.789 53.5 49.1748 52.5804 49.2961 51.8389L45.3485 51.1934ZM162.348 51.1934C162.117 52.6079 161.038 53.5 160 53.5V57.5C163.38 57.5 165.814 54.7848 166.296 51.8389L162.348 51.1934Z" fill="#9293AD"/>
</svg>
