<svg width="568" height="180" viewBox="0 0 568 180" fill="none" xmlns="http://www.w3.org/2000/svg">
<g clip-path="url(#clip0_4749_60941)">
<rect width="568" height="180" rx="4" fill="#D2D5DA"/>
<path d="M16 24C16 19.5817 19.5817 16 24 16H568V284H16V24Z" fill="url(#paint0_linear_4749_60941)"/>
<rect x="36" y="148" width="44" height="44" rx="14" fill="#5D5A70" fill-opacity="0.16"/>
<rect x="37" y="89" width="42" height="42" rx="13" fill="#7971FF" fill-opacity="0.16" stroke="#7971FF" stroke-width="2"/>
<path d="M55.0585 111.853L61.5234 100.816C61.612 100.665 61.7014 100.514 61.7813 100.357C61.8537 100.215 61.9153 100.072 61.9554 99.9171C62.0404 99.5912 62.0176 99.2515 61.8856 98.9404C61.7546 98.6309 61.5241 98.3726 61.2295 98.2049C60.9374 98.0378 60.5936 97.9699 60.2551 98.0125C59.9159 98.0555 59.6061 98.206 59.3619 98.4413C59.2462 98.5531 59.1507 98.6774 59.0623 98.8103C58.965 98.9566 58.8771 99.1082 58.7883 99.2595L58.3795 99.9574L57.9706 99.2595C57.882 99.108 57.7942 98.9565 57.6969 98.8103C57.6083 98.6774 57.5129 98.5531 57.3969 98.4413C57.1531 98.206 56.8433 98.0556 56.504 98.0123C56.1655 97.9699 55.8218 98.0378 55.5296 98.2049C55.2351 98.3726 55.0044 98.6309 54.8734 98.9404C54.7415 99.2514 54.7188 99.5912 54.8035 99.9171C54.8437 100.072 54.9053 100.216 54.9779 100.357C55.0575 100.514 55.1469 100.664 55.2357 100.816L56.5561 103.07L51.4117 111.853H47.8864C47.7091 111.853 47.5319 111.852 47.3547 111.862C47.1937 111.871 47.0369 111.89 46.8807 111.933C46.5519 112.024 46.2648 112.213 46.0573 112.481C45.851 112.748 45.7393 113.074 45.7393 113.409C45.7393 113.744 45.8511 114.07 46.0573 114.337C46.2646 114.605 46.5519 114.794 46.8806 114.885C47.0369 114.928 47.1938 114.947 47.3547 114.956C47.5319 114.966 47.7091 114.965 47.8864 114.965H61.7431C61.7612 114.93 61.8055 114.836 61.8489 114.696C62.2879 113.281 61.1976 111.853 59.6962 111.853H55.0585ZM49.0327 115.475L48.1946 116.976C48.1081 117.131 48.0207 117.286 47.9424 117.446C47.8715 117.592 47.8112 117.739 47.7719 117.898C47.6889 118.233 47.711 118.582 47.8402 118.901C47.9684 119.219 48.1942 119.484 48.4824 119.656C48.7709 119.828 49.1056 119.898 49.4359 119.854C49.768 119.81 50.0712 119.655 50.3101 119.413C50.4235 119.299 50.5168 119.171 50.6034 119.035C50.6988 118.884 50.7847 118.729 50.8716 118.574L52.0871 116.397C51.9923 116.248 51.0849 114.926 49.0327 115.475ZM70.8122 112.469C70.6082 112.208 70.3184 112.018 69.9881 111.929C69.8319 111.886 69.6748 111.867 69.5138 111.858C69.3362 111.848 69.1591 111.849 68.9816 111.849H65.4683L60.8248 104.032C60.1207 104.733 59.8057 105.517 59.685 106.23C59.5099 107.263 59.7238 108.323 60.2627 109.23L65.8425 118.623C65.9314 118.773 66.0192 118.922 66.1166 119.067C66.2052 119.198 66.3006 119.321 66.4167 119.431C66.6611 119.663 66.9708 119.812 67.3105 119.854C67.6483 119.897 67.9908 119.83 68.2857 119.664C68.5802 119.499 68.8113 119.244 68.9427 118.939C69.0745 118.631 69.0971 118.296 69.0123 117.974C68.972 117.822 68.9105 117.68 68.8377 117.54C68.7581 117.386 68.6687 117.237 68.5798 117.087L67.2933 114.921H68.9818C69.1592 114.921 69.3363 114.922 69.5139 114.912C69.6749 114.903 69.832 114.884 69.9882 114.842C70.3185 114.752 70.6083 114.562 70.8123 114.301C71.0194 114.036 71.131 113.715 71.1306 113.385C71.1309 113.056 71.0194 112.735 70.8122 112.469Z" fill="#7971FF"/>
<g filter="url(#filter0_ddd_4749_60941)">
<path d="M106 43C106 36.9249 110.925 32 117 32H621V295H106V43Z" fill="#F9F9FB"/>
<path d="M107 43C107 37.4772 111.477 33 117 33H620V294H107V43Z" stroke="#7971FF" stroke-width="2"/>
</g>
<path fill-rule="evenodd" clip-rule="evenodd" d="M63.2517 53.1425C61.2293 55.0284 59.2744 55.7361 57.3793 55.7361C55.4846 55.7361 53.6036 54.9089 52.4074 53.7941C51.1113 52.5859 49.9215 50.5777 49.9215 48.4988C49.9215 46.419 50.8049 44.9548 51.8264 44.0025C53.1298 42.7874 55.0852 41.93 57.996 41.93C60.2939 41.93 62.4054 42.4319 64.3133 44.2105C65.5565 45.3691 65.8189 46.7284 65.8189 47.6556C65.8189 48.9337 65.2741 51.2567 63.2517 53.1425ZM55.837 32.8889C49.7291 32.8889 45.1273 34.3294 42.4569 36.819C39.574 39.5061 38.4443 42.7385 38.4443 46.4327C38.4443 52.2906 41.6238 58.5725 46.0627 62.7111C47.2217 63.7916 51.2249 67.1111 56.4655 67.1111C61.8274 67.1111 65.8135 64.0576 68.319 61.7218C73.166 57.2027 77.5554 49.4105 77.5554 44.331C77.5554 41.4746 76.159 39.5253 75.0906 38.5292C70.8779 34.6014 61.8274 32.8889 55.837 32.8889Z" fill="#B1AEB9"/>
</g>
<rect x="0.5" y="0.5" width="567" height="179" rx="3.5" stroke="#CCCEDB"/>
<defs>
<filter id="filter0_ddd_4749_60941" x="99" y="26" width="529" height="278" filterUnits="userSpaceOnUse" color-interpolation-filters="sRGB">
<feFlood flood-opacity="0" result="BackgroundImageFix"/>
<feColorMatrix in="SourceAlpha" type="matrix" values="0 0 0 0 0 0 0 0 0 0 0 0 0 0 0 0 0 0 127 0" result="hardAlpha"/>
<feOffset dy="1"/>
<feGaussianBlur stdDeviation="3.5"/>
<feColorMatrix type="matrix" values="0 0 0 0 0.270588 0 0 0 0 0.258824 0 0 0 0 0.384314 0 0 0 0.08 0"/>
<feBlend mode="normal" in2="BackgroundImageFix" result="effect1_dropShadow_4749_60941"/>
<feColorMatrix in="SourceAlpha" type="matrix" values="0 0 0 0 0 0 0 0 0 0 0 0 0 0 0 0 0 0 127 0" result="hardAlpha"/>
<feOffset dy="4"/>
<feGaussianBlur stdDeviation="2.5"/>
<feColorMatrix type="matrix" values="0 0 0 0 0.215686 0 0 0 0 0.196078 0 0 0 0 0.286275 0 0 0 0.14 0"/>
<feBlend mode="normal" in2="effect1_dropShadow_4749_60941" result="effect2_dropShadow_4749_60941"/>
<feColorMatrix in="SourceAlpha" type="matrix" values="0 0 0 0 0 0 0 0 0 0 0 0 0 0 0 0 0 0 127 0" result="hardAlpha"/>
<feOffset dy="2"/>
<feGaussianBlur stdDeviation="0.5"/>
<feComposite in2="hardAlpha" operator="out"/>
<feColorMatrix type="matrix" values="0 0 0 0 0.215686 0 0 0 0 0.196078 0 0 0 0 0.286275 0 0 0 0.04 0"/>
<feBlend mode="normal" in2="effect2_dropShadow_4749_60941" result="effect3_dropShadow_4749_60941"/>
<feBlend mode="normal" in="SourceGraphic" in2="effect3_dropShadow_4749_60941" result="shape"/>
</filter>
<linearGradient id="paint0_linear_4749_60941" x1="96.8385" y1="55.2477" x2="245.749" y2="361.96" gradientUnits="userSpaceOnUse">
<stop stop-color="#F9F6F6"/>
<stop offset="0.3906" stop-color="#F5F5F8"/>
</linearGradient>
<clipPath id="clip0_4749_60941">
<rect width="568" height="180" rx="4" fill="white"/>
</clipPath>
</defs>
</svg>
