<svg width="249" height="141" viewBox="0 0 249 141" fill="none" xmlns="http://www.w3.org/2000/svg">
<path opacity="0.3" d="M235.053 2.09304L235.535 2.83984L235.295 3.91128L235.468 4.89527L235.827 5.85262L236.263 6.77769L236.136 7.81873L236.607 8.78169L236.593 9.79235L236.505 10.7992L236.789 11.7888L236.887 12.7691L236.762 13.7741L236.859 14.7903L237.219 15.7477L237.129 16.7906L237.079 17.7633L237.176 18.7796L237.46 19.7692L237.372 20.7761L237.582 21.762L237.679 22.7782L237.48 23.7795L237.467 24.7541L237.675 25.776L237.476 26.7772L237.797 27.7687L237.561 28.7681L237.695 29.7862L237.459 30.7856L237.594 31.7677L237.432 32.7708L237.27 33.774L237.073 34.7392L237.095 35.7517L237.229 36.7699L236.919 37.7655L236.611 38.7251L236.596 39.7357L236.399 40.7009L236.2 41.7022L236.443 42.762L236.246 43.7272L235.606 44.6338L235.555 45.6426L235.65 46.6949L235.526 47.6639L234.924 48.5724L235.165 49.6682L234.49 50.537L234.585 51.5893L234.167 52.5072L234.151 53.5539L233.771 54.4737L233.207 55.3481L233.117 56.391L232.662 57.307L232.794 58.3612L232.486 59.3208L232.177 60.2804L231.467 61.1112L231.232 62.0746L231.179 63.1194L230.652 63.9956L230.453 64.9969L229.817 65.8315L229.29 66.7078L229.054 67.7072L228.601 68.5872L228.22 69.507L228.165 70.5878L227.529 71.4224L227.367 72.4255L226.768 73.262L226.024 74.0189L225.606 74.9369L225.189 75.8548L224.878 76.8504L224.462 77.7323L224.189 78.7298L223.41 79.4489L223.028 80.4047L222.356 81.2014L222.083 82.1989L221.306 82.8819L220.744 83.7203L220.289 84.6363L219.764 85.4766L219.489 86.5101L218.964 87.3503L218.15 88.0314L217.587 88.8698L217.098 89.748L216.643 90.664L215.936 91.4228L215.374 92.2612L214.74 93.0598L214.213 93.936L213.437 94.583L212.766 95.3797L212.241 96.22L211.356 96.8253L210.652 97.5481L210.162 98.4262L209.67 99.3404L208.965 100.063L208.01 100.593L207.413 101.393L206.601 102.038L206.037 102.913L205.545 103.827L204.486 104.207L203.995 105.121L203.288 105.88L202.583 106.602L201.701 107.172L200.82 107.705L200.15 108.466L199.446 109.188L198.882 110.063L197.825 110.406L197.224 111.279L196.589 112.078L195.533 112.421L194.687 112.992L193.982 113.715L193.137 114.286L192.325 114.931L191.585 115.616L190.809 116.263L190.069 116.948L189.152 117.48L188.306 118.051L187.497 118.624L186.65 119.231L185.703 119.616L184.857 120.188L183.941 120.683L183.132 121.256L182.457 122.125L181.373 122.286L180.492 122.82L179.646 123.391L178.834 124.036L177.887 124.421L177.075 125.066L176.129 125.416L175.28 126.059L174.299 126.37L173.353 126.72L172.537 127.437L171.456 127.527L170.507 127.948L169.593 128.407L168.781 129.052L167.764 129.326L166.754 129.492L165.84 129.951L164.924 130.446L164.076 131.053L162.994 131.179L162.113 131.712L161.165 132.098L160.056 132.005L159.076 132.317L158.226 132.96L157.177 133.16L156.2 133.399L155.217 133.747L154.205 133.948L153.227 134.188L152.211 134.461L151.232 134.737L150.253 135.012L149.241 135.213L148.353 135.891L147.344 136.02L146.304 136.04L145.293 136.205L144.245 136.369L143.296 136.79L142.315 137.102L141.241 137.047L140.29 137.505L139.28 137.67L138.211 137.508L137.167 137.599L136.129 137.583L135.171 138.184L134.164 138.278L133.095 138.115L132.087 138.245L131.08 138.338L130.038 138.394L129.029 138.523L127.983 138.651L126.967 138.924L125.93 138.872L124.923 138.965L123.866 138.586L122.844 138.968L121.839 139.025L120.81 138.829L119.77 138.848L118.737 138.724L117.704 138.599L116.697 138.692L115.647 138.892L114.616 138.731L113.574 138.787L112.591 138.412L111.549 138.468L110.505 138.559L109.521 138.184L108.487 138.096L107.439 138.259L106.458 137.848L105.423 137.76L104.383 137.779L103.344 137.763L102.357 137.46L101.378 137.013L100.289 137.247L99.3468 136.801L98.3175 136.605L97.2347 136.73L96.2478 136.428L95.3034 136.018L94.3203 135.644L93.2836 135.591L92.2451 135.574L91.2619 135.2L90.2307 135.039L89.2882 134.594L88.3864 134.079L87.2665 134.202L86.3222 133.793L85.4203 133.278L84.3023 133.366L83.3987 132.887L82.3286 132.76L81.4711 132.103L80.4806 131.872L79.6231 131.214L78.6363 130.911L77.5644 130.821L76.6182 130.448L75.6314 130.145L74.687 129.736L73.7852 129.221L72.7577 128.988L72.0185 128.192L70.991 127.959L70.1723 127.268L69.143 127.071L68.1561 126.768L67.4188 125.936L66.4727 125.563L65.3656 125.435L64.5451 124.779L63.6803 124.266L62.6546 123.997L61.8711 123.343L61.0913 122.617L60.0674 122.312L59.3653 121.518L58.4228 121.073L57.5191 120.594L56.573 120.221L55.832 119.461L55.0467 118.843L53.9063 118.641L53.2412 117.849L52.258 117.474L51.5152 116.75L50.6522 116.2L49.9076 115.513L48.9281 115.066L48.1446 114.412L47.5184 113.585L46.8533 112.793L45.8331 112.416L45.2068 111.59L44.3031 111.111L43.6769 110.284L42.6585 109.872L42.11 108.977L41.406 108.219L40.3488 107.84L39.9168 106.843L39.0945 106.223L38.4664 105.433L37.6441 104.813L36.6275 104.365L35.9995 103.574L35.5286 102.611L34.5121 102.162L34.1171 101.167L33.2171 100.616L32.6297 99.7553L31.7685 99.1698L31.1812 98.3093L30.629 97.4867L29.7696 96.8652L29.3728 95.9059L28.5912 95.2162L28.1167 94.3252L27.4498 93.569L26.8235 92.7426L26.312 91.8498L25.4138 91.2625L25.1706 90.2027L24.2336 89.6495L23.6073 88.8231L23.3253 87.7975L22.5825 87.0736L22.2986 86.0839L21.5576 85.324L21.0832 84.433L20.4162 83.6768L19.79 82.8505L19.6597 81.7603L18.8799 81.0344L18.5183 80.1131L17.8162 79.319L17.264 78.4964L17.0189 77.4726L16.5833 76.5475L16.2605 75.5921L15.4048 74.8985L15.0062 73.9753L14.4559 73.1167L14.3237 72.0625L13.8122 71.1697L13.1471 70.3775L12.9373 69.3916L12.6145 68.4361L12.2918 67.4806L11.7044 66.6201L11.3816 65.6646L11.3236 64.6142L10.812 63.7214L10.1858 62.895L9.82602 61.9377L9.91784 60.8588L9.51925 59.9355L9.23351 58.9819L8.53505 58.1158L8.62503 57.0729L8.26528 56.1155L7.86666 55.1923L7.65681 54.2065L7.18416 53.2795L7.31119 52.2385L6.65156 51.3382L6.44173 50.3523L6.48922 49.4156L7.46097 49.2843L8.41579 48.7548L9.42637 48.5893L10.4072 48.2778L11.4494 48.2223L12.4229 48.0549L13.439 47.7814L14.4812 47.7259L15.3953 47.2665L16.5005 47.4309L17.4499 47.0095L18.4587 46.8801L19.4693 46.7146L20.4538 46.3311L21.4292 46.1277L22.5362 46.256L23.4504 45.7967L24.4628 45.5952L25.4139 45.1378L26.5137 45.4102L27.4018 44.7329L28.4773 44.7513L29.4879 44.5858L30.4651 44.3464L31.4775 44.1449L32.516 44.1614L33.4338 43.63L34.5075 43.6845L35.5199 43.483L36.5305 43.3175L37.4186 42.6401L38.4607 42.5846L39.4713 42.4191L40.4207 41.9977L41.4628 41.9422L42.5013 41.9587L43.484 41.6112L44.4927 41.4818L45.5331 41.4623L46.4842 41.0048L47.4354 40.5474L48.4775 40.4919L49.4863 40.3624L50.5284 40.3069L51.5111 39.9594L52.4623 39.502L53.499 39.5545L54.4501 39.0971L55.4923 39.0415L56.4695 38.8021L57.4819 38.6006L58.4925 38.4351L59.4734 38.1237L60.4876 37.8862L61.4649 37.6467L62.4773 37.4452L63.5788 37.6817L64.5579 37.4062L65.5073 36.9848L66.4881 36.6733L67.5915 36.8738L68.513 36.2704L69.5163 36.249L70.5341 35.9394L71.5448 35.7739L72.5832 35.7904L73.5047 35.187L74.5432 35.2035L75.5538 35.0381L76.5662 34.8366L77.5786 34.6351L78.5577 34.3596L79.5961 34.3762L80.5213 33.7007L81.5597 33.7172L82.6334 33.7716L83.6143 33.4602L84.5915 33.2208L85.6355 33.1292L86.5551 32.5618L87.6233 32.7243L88.6024 32.4489L89.6482 32.3213L90.5659 31.7899L91.6081 31.7344L92.524 31.2391L93.5959 31.3295L94.5489 30.836L95.5892 30.8165L96.6295 30.7971L97.6383 30.6676L98.5913 30.1741L99.6037 29.9726L100.586 29.6251L101.623 29.6777L102.665 29.6222L103.588 28.9827L104.69 29.2192L105.669 28.9437L106.617 28.5583L107.662 28.4307L108.643 28.1193L109.591 27.7339L110.659 27.8964L111.644 27.5129L112.623 27.2374L113.694 27.3279L114.675 27.0164L115.658 26.669L116.663 26.6116L117.711 26.448L118.658 26.0626L119.606 25.6772L120.652 25.5496L121.631 25.2742L122.704 25.3286L123.683 25.0532L124.724 25.0337L125.736 24.8322L126.654 24.3008L127.637 23.9533L128.74 24.1537L129.66 23.5863L130.668 23.4568L131.647 23.1814L132.69 23.1259L133.674 22.7424L134.776 22.9788L135.753 22.7394L136.704 22.282L137.683 22.0065L138.664 21.6951L139.676 21.4936L140.72 21.402L141.759 21.4185L142.742 21.071L143.754 20.8695L144.731 20.6301L145.744 20.4286L146.695 19.9712L147.737 19.9157L148.777 19.8962L149.695 19.3648L150.798 19.5652L151.807 19.4358L152.792 19.0522L153.767 18.8488L154.783 18.5753L155.76 18.3359L156.775 18.0983L157.815 18.0789L158.736 17.4754L159.777 17.4559L160.722 17.1066L161.796 17.161L162.84 17.0694L163.789 16.648L164.8 16.4826L165.812 16.281L166.758 15.9317L167.772 15.6941L168.846 15.7486L169.764 15.2172L170.864 15.4897L171.813 15.0682L172.794 14.7568L173.869 14.7752L174.819 14.3538L175.859 14.3343L176.838 14.0588L177.791 13.5654L178.894 13.7658L179.812 13.2344L180.793 12.923L181.806 12.7214L182.876 12.8479L183.918 12.7924L184.895 12.553L185.878 12.2055L186.795 11.6741L187.838 11.6186L188.817 11.3432L189.797 11.0317L190.871 11.0861L191.911 11.0667L192.864 10.5732L193.938 10.6276L194.856 10.0962L195.924 10.2587L196.937 10.0572L197.921 9.67373L198.869 9.28834L199.851 8.94084L200.955 9.14126L201.904 8.71984L202.885 8.40838L203.892 8.31496L204.966 8.3694L205.98 8.13185L206.899 7.56445L207.973 7.61888L208.887 7.15957L209.963 7.17798L211.005 7.12245L211.986 6.81098L212.967 6.49951L213.916 6.07809L215.021 6.2425L215.906 5.63718L216.953 5.47358L217.96 5.38015L218.943 5.03267L220.013 5.15917L220.931 4.62778L222.036 4.79217L223.045 4.66271L223.998 4.16923L224.982 3.78572L225.959 3.54631L227.002 3.49079L228.075 3.54523L229.023 3.15982L230.067 3.06828L231.046 2.79286L232.09 2.70131L233.072 2.35381L234.055 2.00631L235.053 2.09304Z" fill="url(#paint0_linear_459_9666)"/>
<path d="M203.472 122.541H50.1209C49.2147 122.541 48.5254 121.835 48.5254 120.851V15.8687C48.5254 14.895 49.2685 14.1792 50.1209 14.1792H203.472C204.324 14.1792 205.067 14.895 205.067 15.8687V120.851C205.067 121.825 204.324 122.541 203.472 122.541Z" fill="white" stroke="black"/>
<path fill-rule="evenodd" clip-rule="evenodd" d="M48.9788 17.2068H204.547C204.659 15.2856 204.697 14.6362 202.847 14.6362H50.1053C49.2064 14.6362 48.8993 14.8847 48.9788 17.2068Z" fill="#61F1CC"/>
<path d="M63.9585 36.8872C67.3374 36.8872 70.0766 34.1473 70.0766 30.7675C70.0766 27.3876 67.3374 24.6477 63.9585 24.6477C60.5795 24.6477 57.8403 27.3876 57.8403 30.7675C57.8403 34.1473 60.5795 36.8872 63.9585 36.8872Z" fill="#61F1CC"/>
<path d="M61.6016 31.0218L63.1948 32.3605L66.3814 29.0457" stroke="#231F20" stroke-width="1.16283" stroke-miterlimit="10" stroke-linecap="round"/>
<rect x="70.9951" y="50.9727" width="30.9764" height="5.46643" rx="2.73321" fill="#090B0E"/>
<rect x="106.071" y="50.9727" width="62.8639" height="5.46643" rx="2.73321" fill="#090B0E"/>
<path d="M70.9941 67.7021H180.194" stroke="black" stroke-linecap="round"/>
<path d="M70.9941 73.9614H180.194" stroke="black" stroke-linecap="round"/>
<path d="M70.9941 80.2207H180.194" stroke="black" stroke-linecap="round"/>
<path d="M221.473 4.77897L235.28 1.87207C236.52 7.42784 238.7 20.6764 237.504 29.2246" stroke="black" stroke-linecap="round"/>
<path d="M97.4473 136.632C103.602 138.455 120.516 141.327 138.933 138.227" stroke="black" stroke-linecap="round"/>
<path d="M9.69052 59.588L6.72705 49.5587L39.779 42.4926" stroke="black" stroke-linecap="round"/>
<path d="M238.839 48.2984C238.839 51.0087 236.642 53.2059 233.932 53.2059C231.222 53.2059 229.024 51.0087 229.024 48.2984C229.024 45.5881 231.222 43.391 233.932 43.391C236.642 43.391 238.839 45.5881 238.839 48.2984Z" fill="#CCFFFE" stroke="black"/>
<path d="M244.206 70.0196C245.486 70.0196 246.523 68.982 246.523 67.7021C246.523 66.4222 245.486 65.3846 244.206 65.3846C242.926 65.3846 241.888 66.4222 241.888 67.7021C241.888 68.982 242.926 70.0196 244.206 70.0196Z" fill="#CCFFFE"/>
<mask id="path-16-inside-1_459_9666" fill="white">
<path d="M9.54177 70.6196L9.56799 70.6346L9.59584 70.6544L9.61994 70.6767L9.65015 70.6911L9.67276 70.7177L9.70323 70.7342L9.73257 70.7497L9.75867 70.7718L9.78802 70.7874L9.81412 70.8095L9.84695 70.8205L9.87367 70.8395L9.89803 70.8638L9.9265 70.8805L9.95697 70.897L9.98369 70.9159L10.013 70.9315L10.0441 70.9448L10.0676 70.9703L10.0987 70.9836L10.1257 71.0045L10.1533 71.0224L10.1855 71.0366L10.2131 71.0544L10.2407 71.0722L10.2694 71.0909L10.2894 71.1208L10.3222 71.1319L10.3474 71.1551L10.3794 71.1673L10.4061 71.1863L10.4331 71.2072L10.4642 71.2205L10.4859 71.2482L10.5196 71.2582L10.5472 71.276L10.5759 71.2947L10.6003 71.319L10.6323 71.3312L10.6616 71.3468L10.6851 71.3723L10.7162 71.3856L10.7438 71.4034L10.7664 71.43L10.7992 71.4411L10.8288 71.4586L10.8573 71.4753L10.8842 71.4963L10.9127 71.513L10.9403 71.5308L10.9682 71.5506L10.9958 71.5685L11.0201 71.5928L11.0471 71.6137L11.0764 71.6293L11.1034 71.6502L11.1345 71.6636L11.1621 71.6814L11.1934 71.6967L11.2143 71.7255L11.2419 71.7434L11.2712 71.7589L11.3041 71.77L11.3302 71.7921L11.3545 71.8164L11.3865 71.8286L11.4108 71.8529L11.4454 71.8618L11.4739 71.8785L11.4939 71.9084L11.5258 71.9206L11.5511 71.9438L11.5839 71.9549L11.6132 71.9705L11.6402 71.9914L11.6696 72.007L11.6922 72.0336L11.7215 72.0491L11.7476 72.0712L11.7778 72.0857L11.8074 72.1032L11.8359 72.1199L11.8652 72.1355L11.8905 72.1587L11.9192 72.1774L11.9459 72.1963L11.9711 72.2195L12.004 72.2306L12.0283 72.2549L12.0559 72.2728L12.0844 72.2895L12.1172 72.3005L12.1416 72.3249L12.1703 72.3436L12.1961 72.3636L12.2264 72.3781L12.2533 72.399L12.2827 72.4146L12.3062 72.4401L12.3416 72.4478L12.3642 72.4743L12.3988 72.4832L12.4255 72.5021L12.4516 72.5242L12.4818 72.5386L12.5036 72.5663L12.5338 72.5808L12.559 72.604L12.5866 72.6218L12.6188 72.636L12.6421 72.6594L12.6743 72.6736L12.7001 72.6937L12.7271 72.7147L12.7582 72.728L12.7867 72.7447L12.8162 72.7623L12.8421 72.7823L12.8741 72.7945L12.8975 72.82L12.9295 72.8322L12.9591 72.8498L12.98 72.8786L13.0084 72.8953L13.0363 72.9151L13.0639 72.9329L13.0985 72.9418L13.1272 72.9605L13.1489 72.9882L13.1765 73.006L13.2093 73.0171L13.2387 73.0326L13.2674 73.0513L13.2874 73.0813L13.3194 73.0935L13.3463 73.1144L13.3713 73.1356L13.4035 73.1498L13.4355 73.162L13.4605 73.1832L13.4874 73.2042L13.5194 73.2164L13.5455 73.2384L13.5681 73.265L13.6044 73.2716L13.6294 73.2928L13.6529 73.3182L13.6831 73.3327L13.7083 73.3559L13.7438 73.3636L13.7655 73.3913L13.7992 73.4012L13.8279 73.4199L13.8521 73.4423L13.8782 73.4643L13.9084 73.4788L13.9353 73.4997L13.9682 73.5108L13.9925 73.5351L14.0193 73.5541L14.048 73.5728L14.0791 73.5861L14.106 73.607L14.1321 73.6291L14.1632 73.6424L14.1893 73.6645L14.2152 73.6846L14.2463 73.6979L14.2599 73.6688L14.2831 73.6436L14.2964 73.6125L14.3218 73.589L14.3329 73.5562L14.3539 73.5292L14.3706 73.5007L14.3915 73.4737L14.4105 73.447L14.4326 73.4209L14.4481 73.3915L14.4725 73.3672L14.4847 73.3352L14.498 73.3041L14.5246 73.2815L14.5413 73.253L14.5611 73.2252L14.5767 73.1958L14.5999 73.1706L14.6188 73.1439L14.6288 73.1102L14.6531 73.0858L14.6687 73.0564L14.6863 73.0268L14.7053 73.0001L14.7262 72.9731L14.7452 72.9464L14.7627 72.9168L14.7828 72.891L14.7905 72.8555L14.8193 72.8346L14.8316 72.8027L14.8483 72.7742L14.8737 72.7507L14.8848 72.7179L14.9069 72.6917L14.9191 72.6598L14.9434 72.6354L14.9635 72.6096L14.9844 72.5826L15 72.5532L15.0176 72.5236L15.0298 72.4917L15.0553 72.4682L15.072 72.4397L15.0864 72.4095L15.113 72.3869L15.1218 72.3523L15.1428 72.3253L15.1606 72.2977L15.1861 72.2742L15.1983 72.2422L15.2203 72.2161L15.2382 72.1885L15.2504 72.1566L15.2725 72.1305L15.2925 72.1046L15.3079 72.0733L15.3302 72.0492L15.3455 72.0178L15.3611 71.9885L15.3812 71.9626L15.3988 71.933L15.4144 71.9037L15.4409 71.881L15.4531 71.8491L15.4718 71.8204L15.4885 71.7919L15.5053 71.7634L15.5284 71.7382L15.5516 71.7129L15.5627 71.6801L15.5794 71.6516L15.606 71.629L15.6236 71.5994L15.6403 71.5709L15.657 71.5425L15.6802 71.5172L15.6935 71.4861L15.708 71.4559L15.7267 71.4272L15.7499 71.4019L15.7677 71.3743L15.7799 71.3424L15.8076 71.3206L15.8187 71.2878L15.8363 71.2582L15.8629 71.2356L15.8731 71.2039L15.8929 71.176L15.9161 71.1508L15.9283 71.1188L15.9549 71.0962L15.9617 71.0619L15.9861 71.0375L16.0115 71.014L16.0203 70.9794L16.0382 70.9518L16.0558 70.9222L16.0812 70.8987L16.0968 70.8694L16.1124 70.84L16.1291 70.8116L16.1576 70.7887L16.1679 70.757L16.1911 70.7317L16.2044 70.7007L16.2231 70.6719L16.2432 70.6461L16.263 70.6182L16.2851 70.5921L16.2984 70.561L16.3162 70.5334L16.3372 70.5064L16.3472 70.4727L16.3771 70.4527L16.3904 70.4216L16.4083 70.394L16.4303 70.3679L16.449 70.3392L16.4601 70.3064L16.4825 70.2822L16.4978 70.2509L16.5134 70.2216L16.5411 70.1998L16.5609 70.172L16.5677 70.1376L16.5853 70.108L16.6153 70.088L16.6252 70.0543L16.6529 70.0326L16.6707 70.005L16.6883 69.9754L16.705 69.9469L16.7139 69.9123L16.7359 69.8862L16.7583 69.8621L16.7736 69.8308L16.7926 69.804L16.8113 69.7753L16.8257 69.7451L16.8523 69.7225L16.8679 69.6931L16.8801 69.6611L16.8999 69.6333L16.9197 69.6054L16.9398 69.5796L16.963 69.5543L16.9707 69.5189L16.9908 69.493L17.0118 69.4661L17.0316 69.4382L17.046 69.408L17.0715 69.3845L17.0882 69.356L17.1015 69.3249L17.1247 69.2997L17.1358 69.2668L17.1556 69.239L17.1788 69.2138L17.1955 69.1853L17.2111 69.1559L17.231 69.1281L17.2575 69.1055L17.272 69.0752L17.2884 69.0448L17.3063 69.0172L17.3301 68.9888L17.2985 68.9715L17.2689 68.9539L17.2439 68.9327L17.2135 68.9163L17.1859 68.8985L17.158 68.8786L17.1313 68.8597L17.1037 68.8419L17.0759 68.822L17.0456 68.8076L17.0187 68.7866L16.9919 68.7677L16.9658 68.7456L16.933 68.7345L16.9078 68.7113L16.8802 68.6935L16.8523 68.6737L16.8256 68.6547L16.7969 68.636L16.7634 68.6281L16.7373 68.606L16.7089 68.5893L16.6863 68.5627L16.6499 68.5562L16.6273 68.5296L16.5997 68.5118L16.571 68.4931L16.5382 68.482L16.5114 68.463L16.4845 68.4421L16.4619 68.4155L16.4273 68.4067L16.3988 68.39L16.3762 68.3634L16.3475 68.3447L16.3173 68.3303L16.2923 68.3091L16.2603 68.2969L16.2368 68.2714L16.2073 68.2539L16.1805 68.2349L16.1512 68.2193L16.126 68.1961L16.0972 68.1774L16.0635 68.1675L16.0342 68.1519L16.009 68.1287L15.9814 68.1109L15.9546 68.0919L15.9294 68.0687L15.8992 68.0543L15.8714 68.0345L15.8411 68.02L15.8159 67.9968L15.7874 67.9801L15.7578 67.9626L15.7294 67.9458L15.7024 67.9249L15.6766 67.9048L15.642 67.896L15.6185 67.8706L15.5857 67.8595L15.5596 67.8374L15.5372 67.8128L15.5094 67.793L15.4791 67.7786L15.4513 67.7587L15.4219 67.7432L15.3926 67.7276L15.3621 67.7111L15.3387 67.6857L15.3102 67.669L15.2832 67.648L15.2574 67.628L15.2263 67.6146L15.1934 67.6036L15.1726 67.5747L15.1421 67.5583L15.1084 67.5483L15.0834 67.5271L15.0538 67.5096L15.0262 67.4917L14.9993 67.4708L14.9725 67.4518L14.9482 67.4275L14.9197 67.4108L14.8878 67.3986L14.8617 67.3766L14.8347 67.3556L14.8018 67.3445L14.7734 67.3278L14.7458 67.31L14.7214 67.2857L14.6953 67.2636L14.666 67.248L14.6349 67.2347L14.6053 67.2171L14.5786 67.1982L14.556 67.1716L14.5266 67.156L14.4962 67.1396L14.4729 67.1161L14.4407 67.1019L14.4166 67.0796L14.3864 67.0652L14.3568 67.0476L14.3318 67.0264L14.299 67.0153L14.2729 66.9932L14.2427 66.9788L14.2157 66.9578L14.1881 66.94L14.1637 66.9157L14.1309 66.9046L14.1074 66.8792L14.0772 66.8647L14.0461 66.8514L14.0218 66.8271L13.9913 66.8106L13.9663 66.7894L13.9344 66.7772L13.9074 66.7563L13.8804 66.7353L13.8519 66.7186L13.8209 66.7053L13.7956 66.6821L13.7695 66.66L13.7367 66.649L13.71 66.63L13.6847 66.6068L13.6571 66.589L13.6293 66.5692L13.5965 66.5581L13.5689 66.5403L13.5419 66.5193L13.5141 66.4995L13.4865 66.4817L13.4586 66.4619L13.4345 66.4395L13.4032 66.4242L13.3791 66.4019L13.3454 66.3919L13.3166 66.3732L13.2905 66.3512L13.2638 66.3322L13.2336 66.3178L13.2049 66.2991L13.1781 66.2801L13.1468 66.2648L13.1233 66.2393L13.0922 66.226L13.0688 66.2006L13.0385 66.1861L13.0101 66.1694L12.9848 66.1462L12.9511 66.1363L12.9277 66.1108L12.8983 66.0952L12.8678 66.0788L12.8452 66.0522L12.8098 66.0445L12.7831 66.0256L12.7596 66.0001L12.7259 65.9902L12.7006 65.967L12.673 65.9492L12.6452 65.9293L12.6184 65.9175L12.5953 65.9356L12.5755 65.9635L12.5655 65.9972L12.5488 66.0257L12.52 66.0465L12.5013 66.0753L12.4933 66.1087L12.4723 66.1357L12.4556 66.1642L12.4302 66.1877L12.4104 66.2155L12.3948 66.2449L12.3738 66.2718L12.3639 66.3056L12.3373 66.3282L12.3262 66.361L12.3073 66.3877L12.2874 66.4156L12.2685 66.4423L12.2453 66.4676L12.2342 66.5004L12.2119 66.5245L12.1932 66.5532L12.1832 66.5869L12.1642 66.6137L12.1444 66.6415L12.1178 66.6641L12.1068 66.697L12.0844 66.7211L12.068 66.7516L12.0468 66.7765L12.0292 66.8061L12.017 66.8381L11.998 66.8648L11.9816 66.8953L11.9581 66.9185L11.9428 66.9499L11.9238 66.9766L11.9051 67.0053L11.8873 67.0329L11.863 67.0573L11.8429 67.0832L11.8318 67.116L11.8086 67.1412L11.7888 67.1691L11.7797 67.2017L11.761 67.2304L11.7322 67.2513L11.7188 67.2824L11.6956 67.3076L11.6812 67.3378L11.6614 67.3657L11.6469 67.3959L11.6226 67.4203L11.6047 67.4479L11.5925 67.4798L11.5738 67.5086L11.5549 67.5353L11.5362 67.564L11.5161 67.5899L11.4974 67.6186L11.4829 67.6488L11.4673 67.6782L11.4385 67.699L11.421 67.7286L11.4031 67.7562L11.3943 67.7908L11.3711 67.8161L11.3544 67.8445L11.3345 67.8724L11.3156 67.8991L11.2935 67.9252L11.2836 67.9589L11.2581 67.9824L11.247 68.0153L11.2193 68.037L11.2049 68.0672L11.1848 68.0931L11.1717 68.1262L11.1483 68.1494L11.1307 68.179L11.1162 68.2092L11.0984 68.2368L11.0741 68.2612L11.0652 68.2958L11.0454 68.3236L11.0188 68.3462L11.0055 68.3773L10.991 68.4076L10.9678 68.4328L10.9489 68.4595L10.9333 68.4889L10.9112 68.515L10.8891 68.5411L10.8781 68.5739L10.8614 68.6024L10.8413 68.6283L10.8237 68.6579L10.7994 68.6822L10.7849 68.7124L10.7693 68.7418L10.7473 68.7679L10.7272 68.7937L10.7062 68.8207L10.6985 68.8562L10.6762 68.8803L10.6586 68.9099L10.6332 68.9334L10.6198 68.9645L10.6054 68.9947L10.5799 69.0182L10.5688 69.051L10.549 69.0789L10.5312 69.1065L10.5156 69.1358L10.4879 69.1576L10.4768 69.1904L10.457 69.2183L10.4327 69.2426L10.4182 69.2728L10.4026 69.3022L10.3772 69.3257L10.3695 69.3611L10.3463 69.3864L10.3262 69.4122L10.3097 69.4427L10.2953 69.4729L10.2774 69.5005L10.2576 69.5284L10.2398 69.556L10.2143 69.5795L10.1934 69.6064L10.1823 69.6393L10.1656 69.6678L10.1491 69.6982L10.1203 69.7191L10.1047 69.7485L10.0925 69.7804L10.0727 69.8083L10.0549 69.8359L10.0339 69.8629L10.0195 69.8931L9.99738 69.9192L9.97306 69.9435L9.95523 69.9711L9.94414 70.004L9.92544 70.0327L9.89887 70.0553L9.88778 70.0882L9.86545 70.1123L9.85437 70.1451L9.82892 70.1686L9.81671 70.2006L9.79463 70.2267L9.77705 70.2563L9.75698 70.2821L9.74252 70.3124L9.72044 70.3385L9.70174 70.3672L9.6884 70.3983L9.67057 70.4259L9.65187 70.4546L9.63092 70.4816L9.60747 70.5048L9.59638 70.5377L9.57431 70.5638L9.55448 70.5916L9.54177 70.6196Z"/>
</mask>
<path d="M9.54177 70.6196L9.56799 70.6346L9.59584 70.6544L9.61994 70.6767L9.65015 70.6911L9.67276 70.7177L9.70323 70.7342L9.73257 70.7497L9.75867 70.7718L9.78802 70.7874L9.81412 70.8095L9.84695 70.8205L9.87367 70.8395L9.89803 70.8638L9.9265 70.8805L9.95697 70.897L9.98369 70.9159L10.013 70.9315L10.0441 70.9448L10.0676 70.9703L10.0987 70.9836L10.1257 71.0045L10.1533 71.0224L10.1855 71.0366L10.2131 71.0544L10.2407 71.0722L10.2694 71.0909L10.2894 71.1208L10.3222 71.1319L10.3474 71.1551L10.3794 71.1673L10.4061 71.1863L10.4331 71.2072L10.4642 71.2205L10.4859 71.2482L10.5196 71.2582L10.5472 71.276L10.5759 71.2947L10.6003 71.319L10.6323 71.3312L10.6616 71.3468L10.6851 71.3723L10.7162 71.3856L10.7438 71.4034L10.7664 71.43L10.7992 71.4411L10.8288 71.4586L10.8573 71.4753L10.8842 71.4963L10.9127 71.513L10.9403 71.5308L10.9682 71.5506L10.9958 71.5685L11.0201 71.5928L11.0471 71.6137L11.0764 71.6293L11.1034 71.6502L11.1345 71.6636L11.1621 71.6814L11.1934 71.6967L11.2143 71.7255L11.2419 71.7434L11.2712 71.7589L11.3041 71.77L11.3302 71.7921L11.3545 71.8164L11.3865 71.8286L11.4108 71.8529L11.4454 71.8618L11.4739 71.8785L11.4939 71.9084L11.5258 71.9206L11.5511 71.9438L11.5839 71.9549L11.6132 71.9705L11.6402 71.9914L11.6696 72.007L11.6922 72.0336L11.7215 72.0491L11.7476 72.0712L11.7778 72.0857L11.8074 72.1032L11.8359 72.1199L11.8652 72.1355L11.8905 72.1587L11.9192 72.1774L11.9459 72.1963L11.9711 72.2195L12.004 72.2306L12.0283 72.2549L12.0559 72.2728L12.0844 72.2895L12.1172 72.3005L12.1416 72.3249L12.1703 72.3436L12.1961 72.3636L12.2264 72.3781L12.2533 72.399L12.2827 72.4146L12.3062 72.4401L12.3416 72.4478L12.3642 72.4743L12.3988 72.4832L12.4255 72.5021L12.4516 72.5242L12.4818 72.5386L12.5036 72.5663L12.5338 72.5808L12.559 72.604L12.5866 72.6218L12.6188 72.636L12.6421 72.6594L12.6743 72.6736L12.7001 72.6937L12.7271 72.7147L12.7582 72.728L12.7867 72.7447L12.8162 72.7623L12.8421 72.7823L12.8741 72.7945L12.8975 72.82L12.9295 72.8322L12.9591 72.8498L12.98 72.8786L13.0084 72.8953L13.0363 72.9151L13.0639 72.9329L13.0985 72.9418L13.1272 72.9605L13.1489 72.9882L13.1765 73.006L13.2093 73.0171L13.2387 73.0326L13.2674 73.0513L13.2874 73.0813L13.3194 73.0935L13.3463 73.1144L13.3713 73.1356L13.4035 73.1498L13.4355 73.162L13.4605 73.1832L13.4874 73.2042L13.5194 73.2164L13.5455 73.2384L13.5681 73.265L13.6044 73.2716L13.6294 73.2928L13.6529 73.3182L13.6831 73.3327L13.7083 73.3559L13.7438 73.3636L13.7655 73.3913L13.7992 73.4012L13.8279 73.4199L13.8521 73.4423L13.8782 73.4643L13.9084 73.4788L13.9353 73.4997L13.9682 73.5108L13.9925 73.5351L14.0193 73.5541L14.048 73.5728L14.0791 73.5861L14.106 73.607L14.1321 73.6291L14.1632 73.6424L14.1893 73.6645L14.2152 73.6846L14.2463 73.6979L14.2599 73.6688L14.2831 73.6436L14.2964 73.6125L14.3218 73.589L14.3329 73.5562L14.3539 73.5292L14.3706 73.5007L14.3915 73.4737L14.4105 73.447L14.4326 73.4209L14.4481 73.3915L14.4725 73.3672L14.4847 73.3352L14.498 73.3041L14.5246 73.2815L14.5413 73.253L14.5611 73.2252L14.5767 73.1958L14.5999 73.1706L14.6188 73.1439L14.6288 73.1102L14.6531 73.0858L14.6687 73.0564L14.6863 73.0268L14.7053 73.0001L14.7262 72.9731L14.7452 72.9464L14.7627 72.9168L14.7828 72.891L14.7905 72.8555L14.8193 72.8346L14.8316 72.8027L14.8483 72.7742L14.8737 72.7507L14.8848 72.7179L14.9069 72.6917L14.9191 72.6598L14.9434 72.6354L14.9635 72.6096L14.9844 72.5826L15 72.5532L15.0176 72.5236L15.0298 72.4917L15.0553 72.4682L15.072 72.4397L15.0864 72.4095L15.113 72.3869L15.1218 72.3523L15.1428 72.3253L15.1606 72.2977L15.1861 72.2742L15.1983 72.2422L15.2203 72.2161L15.2382 72.1885L15.2504 72.1566L15.2725 72.1305L15.2925 72.1046L15.3079 72.0733L15.3302 72.0492L15.3455 72.0178L15.3611 71.9885L15.3812 71.9626L15.3988 71.933L15.4144 71.9037L15.4409 71.881L15.4531 71.8491L15.4718 71.8204L15.4885 71.7919L15.5053 71.7634L15.5284 71.7382L15.5516 71.7129L15.5627 71.6801L15.5794 71.6516L15.606 71.629L15.6236 71.5994L15.6403 71.5709L15.657 71.5425L15.6802 71.5172L15.6935 71.4861L15.708 71.4559L15.7267 71.4272L15.7499 71.4019L15.7677 71.3743L15.7799 71.3424L15.8076 71.3206L15.8187 71.2878L15.8363 71.2582L15.8629 71.2356L15.8731 71.2039L15.8929 71.176L15.9161 71.1508L15.9283 71.1188L15.9549 71.0962L15.9617 71.0619L15.9861 71.0375L16.0115 71.014L16.0203 70.9794L16.0382 70.9518L16.0558 70.9222L16.0812 70.8987L16.0968 70.8694L16.1124 70.84L16.1291 70.8116L16.1576 70.7887L16.1679 70.757L16.1911 70.7317L16.2044 70.7007L16.2231 70.6719L16.2432 70.6461L16.263 70.6182L16.2851 70.5921L16.2984 70.561L16.3162 70.5334L16.3372 70.5064L16.3472 70.4727L16.3771 70.4527L16.3904 70.4216L16.4083 70.394L16.4303 70.3679L16.449 70.3392L16.4601 70.3064L16.4825 70.2822L16.4978 70.2509L16.5134 70.2216L16.5411 70.1998L16.5609 70.172L16.5677 70.1376L16.5853 70.108L16.6153 70.088L16.6252 70.0543L16.6529 70.0326L16.6707 70.005L16.6883 69.9754L16.705 69.9469L16.7139 69.9123L16.7359 69.8862L16.7583 69.8621L16.7736 69.8308L16.7926 69.804L16.8113 69.7753L16.8257 69.7451L16.8523 69.7225L16.8679 69.6931L16.8801 69.6611L16.8999 69.6333L16.9197 69.6054L16.9398 69.5796L16.963 69.5543L16.9707 69.5189L16.9908 69.493L17.0118 69.4661L17.0316 69.4382L17.046 69.408L17.0715 69.3845L17.0882 69.356L17.1015 69.3249L17.1247 69.2997L17.1358 69.2668L17.1556 69.239L17.1788 69.2138L17.1955 69.1853L17.2111 69.1559L17.231 69.1281L17.2575 69.1055L17.272 69.0752L17.2884 69.0448L17.3063 69.0172L17.3301 68.9888L17.2985 68.9715L17.2689 68.9539L17.2439 68.9327L17.2135 68.9163L17.1859 68.8985L17.158 68.8786L17.1313 68.8597L17.1037 68.8419L17.0759 68.822L17.0456 68.8076L17.0187 68.7866L16.9919 68.7677L16.9658 68.7456L16.933 68.7345L16.9078 68.7113L16.8802 68.6935L16.8523 68.6737L16.8256 68.6547L16.7969 68.636L16.7634 68.6281L16.7373 68.606L16.7089 68.5893L16.6863 68.5627L16.6499 68.5562L16.6273 68.5296L16.5997 68.5118L16.571 68.4931L16.5382 68.482L16.5114 68.463L16.4845 68.4421L16.4619 68.4155L16.4273 68.4067L16.3988 68.39L16.3762 68.3634L16.3475 68.3447L16.3173 68.3303L16.2923 68.3091L16.2603 68.2969L16.2368 68.2714L16.2073 68.2539L16.1805 68.2349L16.1512 68.2193L16.126 68.1961L16.0972 68.1774L16.0635 68.1675L16.0342 68.1519L16.009 68.1287L15.9814 68.1109L15.9546 68.0919L15.9294 68.0687L15.8992 68.0543L15.8714 68.0345L15.8411 68.02L15.8159 67.9968L15.7874 67.9801L15.7578 67.9626L15.7294 67.9458L15.7024 67.9249L15.6766 67.9048L15.642 67.896L15.6185 67.8706L15.5857 67.8595L15.5596 67.8374L15.5372 67.8128L15.5094 67.793L15.4791 67.7786L15.4513 67.7587L15.4219 67.7432L15.3926 67.7276L15.3621 67.7111L15.3387 67.6857L15.3102 67.669L15.2832 67.648L15.2574 67.628L15.2263 67.6146L15.1934 67.6036L15.1726 67.5747L15.1421 67.5583L15.1084 67.5483L15.0834 67.5271L15.0538 67.5096L15.0262 67.4917L14.9993 67.4708L14.9725 67.4518L14.9482 67.4275L14.9197 67.4108L14.8878 67.3986L14.8617 67.3766L14.8347 67.3556L14.8018 67.3445L14.7734 67.3278L14.7458 67.31L14.7214 67.2857L14.6953 67.2636L14.666 67.248L14.6349 67.2347L14.6053 67.2171L14.5786 67.1982L14.556 67.1716L14.5266 67.156L14.4962 67.1396L14.4729 67.1161L14.4407 67.1019L14.4166 67.0796L14.3864 67.0652L14.3568 67.0476L14.3318 67.0264L14.299 67.0153L14.2729 66.9932L14.2427 66.9788L14.2157 66.9578L14.1881 66.94L14.1637 66.9157L14.1309 66.9046L14.1074 66.8792L14.0772 66.8647L14.0461 66.8514L14.0218 66.8271L13.9913 66.8106L13.9663 66.7894L13.9344 66.7772L13.9074 66.7563L13.8804 66.7353L13.8519 66.7186L13.8209 66.7053L13.7956 66.6821L13.7695 66.66L13.7367 66.649L13.71 66.63L13.6847 66.6068L13.6571 66.589L13.6293 66.5692L13.5965 66.5581L13.5689 66.5403L13.5419 66.5193L13.5141 66.4995L13.4865 66.4817L13.4586 66.4619L13.4345 66.4395L13.4032 66.4242L13.3791 66.4019L13.3454 66.3919L13.3166 66.3732L13.2905 66.3512L13.2638 66.3322L13.2336 66.3178L13.2049 66.2991L13.1781 66.2801L13.1468 66.2648L13.1233 66.2393L13.0922 66.226L13.0688 66.2006L13.0385 66.1861L13.0101 66.1694L12.9848 66.1462L12.9511 66.1363L12.9277 66.1108L12.8983 66.0952L12.8678 66.0788L12.8452 66.0522L12.8098 66.0445L12.7831 66.0256L12.7596 66.0001L12.7259 65.9902L12.7006 65.967L12.673 65.9492L12.6452 65.9293L12.6184 65.9175L12.5953 65.9356L12.5755 65.9635L12.5655 65.9972L12.5488 66.0257L12.52 66.0465L12.5013 66.0753L12.4933 66.1087L12.4723 66.1357L12.4556 66.1642L12.4302 66.1877L12.4104 66.2155L12.3948 66.2449L12.3738 66.2718L12.3639 66.3056L12.3373 66.3282L12.3262 66.361L12.3073 66.3877L12.2874 66.4156L12.2685 66.4423L12.2453 66.4676L12.2342 66.5004L12.2119 66.5245L12.1932 66.5532L12.1832 66.5869L12.1642 66.6137L12.1444 66.6415L12.1178 66.6641L12.1068 66.697L12.0844 66.7211L12.068 66.7516L12.0468 66.7765L12.0292 66.8061L12.017 66.8381L11.998 66.8648L11.9816 66.8953L11.9581 66.9185L11.9428 66.9499L11.9238 66.9766L11.9051 67.0053L11.8873 67.0329L11.863 67.0573L11.8429 67.0832L11.8318 67.116L11.8086 67.1412L11.7888 67.1691L11.7797 67.2017L11.761 67.2304L11.7322 67.2513L11.7188 67.2824L11.6956 67.3076L11.6812 67.3378L11.6614 67.3657L11.6469 67.3959L11.6226 67.4203L11.6047 67.4479L11.5925 67.4798L11.5738 67.5086L11.5549 67.5353L11.5362 67.564L11.5161 67.5899L11.4974 67.6186L11.4829 67.6488L11.4673 67.6782L11.4385 67.699L11.421 67.7286L11.4031 67.7562L11.3943 67.7908L11.3711 67.8161L11.3544 67.8445L11.3345 67.8724L11.3156 67.8991L11.2935 67.9252L11.2836 67.9589L11.2581 67.9824L11.247 68.0153L11.2193 68.037L11.2049 68.0672L11.1848 68.0931L11.1717 68.1262L11.1483 68.1494L11.1307 68.179L11.1162 68.2092L11.0984 68.2368L11.0741 68.2612L11.0652 68.2958L11.0454 68.3236L11.0188 68.3462L11.0055 68.3773L10.991 68.4076L10.9678 68.4328L10.9489 68.4595L10.9333 68.4889L10.9112 68.515L10.8891 68.5411L10.8781 68.5739L10.8614 68.6024L10.8413 68.6283L10.8237 68.6579L10.7994 68.6822L10.7849 68.7124L10.7693 68.7418L10.7473 68.7679L10.7272 68.7937L10.7062 68.8207L10.6985 68.8562L10.6762 68.8803L10.6586 68.9099L10.6332 68.9334L10.6198 68.9645L10.6054 68.9947L10.5799 69.0182L10.5688 69.051L10.549 69.0789L10.5312 69.1065L10.5156 69.1358L10.4879 69.1576L10.4768 69.1904L10.457 69.2183L10.4327 69.2426L10.4182 69.2728L10.4026 69.3022L10.3772 69.3257L10.3695 69.3611L10.3463 69.3864L10.3262 69.4122L10.3097 69.4427L10.2953 69.4729L10.2774 69.5005L10.2576 69.5284L10.2398 69.556L10.2143 69.5795L10.1934 69.6064L10.1823 69.6393L10.1656 69.6678L10.1491 69.6982L10.1203 69.7191L10.1047 69.7485L10.0925 69.7804L10.0727 69.8083L10.0549 69.8359L10.0339 69.8629L10.0195 69.8931L9.99738 69.9192L9.97306 69.9435L9.95523 69.9711L9.94414 70.004L9.92544 70.0327L9.89887 70.0553L9.88778 70.0882L9.86545 70.1123L9.85437 70.1451L9.82892 70.1686L9.81671 70.2006L9.79463 70.2267L9.77705 70.2563L9.75698 70.2821L9.74252 70.3124L9.72044 70.3385L9.70174 70.3672L9.6884 70.3983L9.67057 70.4259L9.65187 70.4546L9.63092 70.4816L9.60747 70.5048L9.59638 70.5377L9.57431 70.5638L9.55448 70.5916L9.54177 70.6196Z" fill="#CDFFFE" stroke="black" stroke-width="2" mask="url(#path-16-inside-1_459_9666)"/>
<path d="M3.21361 72.609L3.2127 72.6288L3.20944 72.651L3.2036 72.6717L3.20418 72.6937L3.19542 72.7148L3.19491 72.7375L3.19457 72.7593L3.18948 72.7811L3.18914 72.8029L3.18405 72.8247L3.18738 72.8472L3.18429 72.8685L3.17736 72.8899L3.17611 72.9115L3.1756 72.9342L3.17251 72.9555L3.17218 72.9773L3.17368 72.9994L3.16583 73.0207L3.16733 73.0429L3.16315 73.0649L3.16098 73.0863L3.1623 73.1094L3.16013 73.1308L3.15796 73.1522L3.15562 73.1746L3.1441 73.1952L3.14744 73.2177L3.14142 73.2393L3.14384 73.2616L3.14075 73.2829L3.13658 73.3049L3.13807 73.327L3.12839 73.348L3.13264 73.3706L3.13047 73.3921L3.12813 73.4144L3.1212 73.4359L3.12361 73.4582L3.12328 73.48L3.11543 73.5013L3.11693 73.5234L3.11476 73.5449L3.106 73.566L3.10933 73.5885L3.1079 73.611L3.10665 73.6326L3.10247 73.6546L3.10122 73.6762L3.09905 73.6977L3.09579 73.7198L3.09362 73.7413L3.08669 73.7628L3.08251 73.7848L3.08217 73.8065L3.078 73.8285L3.07949 73.8507L3.07732 73.8721L3.07773 73.895L3.06713 73.9158L3.06496 73.9372L3.06463 73.959L3.06796 73.9815L3.06286 74.0033L3.05594 74.0248L3.05835 74.0471L3.05142 74.0686L3.05659 74.0914L3.05533 74.113L3.04382 74.1336L3.04624 74.1559L3.04022 74.1776L3.04356 74.2001L3.04322 74.2218L3.03904 74.2438L3.03871 74.2656L3.02994 74.2868L3.02961 74.3085L3.02451 74.3304L3.02509 74.3523L3.02367 74.3749L3.02241 74.3965L3.02208 74.4183L3.01606 74.4399L3.01372 74.4623L3.01063 74.4835L3.00462 74.5052L3.00795 74.5277L3.00102 74.5491L2.99885 74.5706L2.9976 74.5922L3.00093 74.6147L2.994 74.6361L2.99166 74.6585L2.98766 74.6796L2.98824 74.7015L2.98406 74.7235L2.98372 74.7453L2.97588 74.7666L2.98196 74.7896L2.9732 74.8108L2.97836 74.8336L2.97528 74.8549L2.97018 74.8767L2.97076 74.8987L2.96108 74.9196L2.96166 74.9416L2.95565 74.9632L2.95348 74.9847L2.95481 75.0077L2.94805 75.0283L2.94937 75.0513L2.94537 75.0724L2.94119 75.0944L2.94269 75.1165L2.94144 75.1382L2.94001 75.1607L2.93601 75.1818L2.93842 75.2041L2.93058 75.2254L2.93299 75.2477L2.93156 75.2702L2.92097 75.291L2.91971 75.3126L2.91645 75.3348L2.91428 75.3562L2.91945 75.379L2.9171 75.4014L2.90742 75.4224L2.90525 75.4438L2.90859 75.4663L2.90825 75.4881L2.90591 75.5104L2.89439 75.531L2.89681 75.5533L2.89263 75.5753L2.88771 75.5962L2.88903 75.6193L2.89145 75.6416L2.88653 75.6625L2.88235 75.6845L2.88476 75.7068L2.87967 75.7286L2.8709 75.7498L2.87791 75.773L2.87298 75.7939L2.86514 75.8152L2.86572 75.8371L2.85971 75.8588L2.86579 75.8818L2.85611 75.9028L2.86036 75.9254L2.85802 75.9478L2.85218 75.9685L2.84708 75.9903L2.84766 76.0123L2.84348 76.0343L2.84682 76.0568L2.83989 76.0782L2.8368 76.0995L2.83446 76.1219L2.83595 76.144L2.83178 76.166L2.82668 76.1878L2.82818 76.21L2.82308 76.2318L2.81908 76.2529L2.82058 76.275L2.84162 76.2743L2.86328 76.2803L2.88542 76.2788L2.90673 76.2866L2.92922 76.2833L2.95123 76.2875L2.97284 76.2887L2.99485 76.2929L3.01612 76.296L3.03795 76.3011L3.05974 76.3014L3.08123 76.3084L3.10354 76.3059L3.12567 76.3044L3.14681 76.3132L3.16843 76.3145L3.19061 76.3177L3.2124 76.3181L3.23406 76.3241L3.25532 76.3272L3.27798 76.3229L3.29947 76.3298L3.32126 76.3302L3.34379 76.3316L3.36505 76.3347L3.38706 76.3389L3.40833 76.342L3.43086 76.3434L3.45195 76.3474L3.47496 76.3413L3.49575 76.3519L3.51806 76.3495L3.53967 76.3508L3.56099 76.3586L3.58347 76.3553L3.60531 76.3604L3.62762 76.358L3.6491 76.3649L3.6702 76.3689L3.6922 76.3731L3.71399 76.3734L3.73652 76.3748L3.75883 76.3724L3.78015 76.3803L3.80176 76.3815L3.82372 76.3809L3.84486 76.3897L3.8677 76.3845L3.8897 76.3887L3.91114 76.3909L3.93246 76.3987L3.95477 76.3963L3.9766 76.4014L3.99804 76.4036L4.02035 76.4012L4.04219 76.4063L4.06328 76.4103L4.08616 76.4099L4.1069 76.4157L4.12978 76.4153L4.15157 76.4157L4.17266 76.4197L4.19519 76.4211L4.21698 76.4214L4.23812 76.4302L4.26043 76.4278L4.28279 76.4301L4.3044 76.4314L4.32602 76.4326L4.34768 76.4386L4.36934 76.4447L4.39182 76.4413L4.41344 76.4426L4.43457 76.4513L4.45711 76.4528L4.47872 76.454L4.50033 76.4553L4.522 76.4613L4.54413 76.4598L4.56609 76.4592L4.58845 76.4616L4.61011 76.4676L4.63155 76.4697L4.65386 76.4673L4.67483 76.477L4.69731 76.4737L4.71984 76.4751L4.74098 76.4839L4.76255 76.4804L4.78473 76.4836L4.80639 76.4896L4.8287 76.4872L4.84984 76.496L4.87193 76.4897L4.89342 76.4967L4.91473 76.5045L4.93756 76.4994L4.959 76.5015L4.98153 76.503L5.00285 76.5108L5.02464 76.5111L5.04642 76.5115L5.06804 76.5127L5.08992 76.5226L5.11149 76.5191L5.13315 76.5251L5.15528 76.5236L5.17764 76.5259L5.19873 76.53L5.22092 76.5332L5.24275 76.5383L5.26489 76.5368L5.28633 76.539L5.30834 76.5432L5.331 76.5389L5.35161 76.5504L5.37375 76.5489L5.39519 76.5511L5.41702 76.5562L5.43938 76.5585L5.46186 76.5552L5.48261 76.5611L5.50549 76.5607L5.52728 76.561L5.54824 76.5707L5.57042 76.5739L5.59251 76.5677L5.61504 76.5691L5.63566 76.5806L5.65832 76.5764L5.67928 76.5861L5.70072 76.5882L5.72325 76.5897L5.74487 76.5909L5.7677 76.5857L5.78954 76.5908L5.81028 76.5967L5.83316 76.5963L5.85443 76.5994L5.87678 76.6017L5.89875 76.6011L5.91988 76.6099L5.94167 76.6102L5.96398 76.6078L5.98617 76.6111L6.00835 76.6143L6.02944 76.6183L6.0511 76.6244L6.07411 76.6183L6.0952 76.6223L6.11721 76.6265L6.13939 76.6297L6.16135 76.6291L6.18267 76.637L6.20428 76.6382L6.22642 76.6368L6.24808 76.6428L6.27056 76.6394L6.29275 76.6427L6.31441 76.6487L6.33602 76.65L6.35781 76.6503L6.37999 76.6536L6.40113 76.6623L6.42309 76.6617L6.4458 76.6623L6.46724 76.6644L6.49091 76.6699L6.49159 76.6463L6.49302 76.6237L6.49794 76.6028L6.49845 76.5801L6.50062 76.5587L6.50388 76.5365L6.50697 76.5152L6.50914 76.4938L6.5124 76.4716L6.51182 76.4497L6.516 76.4277L6.51908 76.4064L6.52418 76.3846L6.52085 76.3621L6.52686 76.3404L6.52903 76.319L6.53229 76.2968L6.53538 76.2756L6.53772 76.2532L6.53238 76.2313L6.53747 76.2095L6.53873 76.1879L6.54749 76.1667L6.54049 76.1436L6.54925 76.1224L6.55142 76.101L6.55377 76.0786L6.55044 76.0562L6.55352 76.0349L6.5577 76.0129L6.56646 75.9918L6.5613 75.9689L6.56255 75.9473L6.57131 75.9262L6.57366 75.9038L6.57308 75.8819L6.578 75.861L6.57558 75.8387L6.58343 75.8174L6.58486 75.7948L6.58794 75.7736L6.58828 75.7518L6.59429 75.7301L6.59663 75.7078L6.59239 75.6851L6.59272 75.6633L6.59873 75.6417L6.6009 75.6202L6.60399 75.599L6.61 75.5773L6.60942 75.5554L6.61268 75.5332L6.6121 75.5112L6.61811 75.4896L6.61937 75.468L6.62079 75.4454L6.62205 75.4238L6.62622 75.4018L6.63023 75.3807L6.62506 75.3579L6.63291 75.3366L6.62958 75.3141L6.63467 75.2923L6.64234 75.2719L6.6456 75.2497L6.64502 75.2278L6.64828 75.2056L6.64862 75.1838L6.64896 75.162L6.64947 75.1393L6.65731 75.118L6.65857 75.0964L6.66274 75.0744L6.66675 75.0533L6.66525 75.0312L6.66192 75.0087L6.67252 74.9879L6.67302 74.9652L6.66878 74.9426L6.6737 74.9217L6.67512 74.8991L6.67729 74.8777L6.68147 74.8557L6.68456 74.8344L6.69149 74.813L6.69274 74.7913L6.69033 74.769L6.69542 74.7472L6.6996 74.7252L6.69627 74.7027L6.69752 74.6811L6.69969 74.6597L6.70662 74.6382L6.71171 74.6164L6.71205 74.5946L6.71055 74.5725L6.71198 74.5499L6.71507 74.5287L6.72383 74.5075L6.72417 74.4857L6.72468 74.463L6.73143 74.4425L6.73011 74.4194L6.73594 74.3987L6.73536 74.3767L6.73679 74.3542L6.74171 74.3333L6.73838 74.3108L6.74347 74.289L6.74289 74.267L6.74707 74.245L6.74924 74.2236L6.75617 74.2021L6.75284 74.1796L6.76068 74.1583L6.7601 74.1364L6.75861 74.1142L6.76553 74.0928L6.76604 74.0701L6.77097 74.0491L6.76855 74.0268L6.77273 74.0048L6.77691 73.9828L6.77816 73.9612L6.77666 73.9391L6.78267 73.9174L6.78777 73.8956L6.78444 73.8731L6.78752 73.8519L6.79354 73.8302L6.79571 73.8088L6.79897 73.7866L6.79563 73.7641L6.7978 73.7427L6.80198 73.7207L6.80524 73.6985L6.80741 73.6771L6.81067 73.6549L6.81651 73.6341L6.81611 73.6113L6.82194 73.5905L6.81769 73.5679L6.82004 73.5455L6.82513 73.5237L6.82822 73.5024L6.82764 73.4805L6.82998 73.4581L6.83307 73.4369L6.83266 73.414L6.84051 73.3927L6.83901 73.3705L6.84686 73.3492L6.84628 73.3273L6.84753 73.3057L6.85354 73.284L6.84929 73.2614L6.85714 73.2401L6.85747 73.2183L6.85798 73.1956L6.86675 73.1744L6.86066 73.1514L6.86375 73.1302L6.8716 73.1089L6.86735 73.0862L6.87336 73.0646L6.87553 73.0431L6.87879 73.0209L6.87769 73.0017L6.86022 72.9937L6.83804 72.9904L6.81538 72.9947L6.79376 72.9934L6.77297 72.9828L6.75061 72.9805L6.7287 72.9858L6.70669 72.9816L6.68508 72.9804L6.66376 72.9725L6.64158 72.9693L6.61979 72.9689L6.59778 72.9647L6.57512 72.969L6.55399 72.9602L6.5315 72.9636L6.51024 72.9605L6.48805 72.9572L6.46679 72.9541L6.44513 72.9481L6.42264 72.9514L6.4019 72.9456L6.37954 72.9432L6.35688 72.9475L6.33562 72.9444L6.31343 72.9411L6.29229 72.9324L6.26981 72.9357L6.24907 72.9299L6.22636 72.9294L6.20544 72.9244L6.18291 72.923L6.1606 72.9254L6.13933 72.9223L6.11663 72.9218L6.09606 72.9151L6.07318 72.9155L6.05191 72.9124L6.02956 72.91L6.00812 72.9079L5.98663 72.9009L5.96554 72.8969L5.94305 72.9003L5.92139 72.8942L5.89921 72.891L5.87747 72.8954L5.85511 72.8931L5.83432 72.8825L5.81218 72.884L5.79052 72.8779L5.76856 72.8785L5.74638 72.8753L5.72442 72.8758L5.70293 72.8689L5.68149 72.8667L5.65918 72.8692L5.63682 72.8668L5.61556 72.8637L5.5932 72.8614L5.57211 72.8574L5.54975 72.855L5.52779 72.8556L5.506 72.8553L5.48521 72.8447L5.46268 72.8432L5.44124 72.8411L5.4184 72.8462L5.39674 72.8402L5.37513 72.839L5.35295 72.8357L5.33168 72.8326L5.30985 72.8275L5.28719 72.8318L5.26587 72.8239L5.24339 72.8272L5.22243 72.8176L5.20046 72.8181L5.17937 72.8141L5.15614 72.8164L5.13557 72.8096L5.11304 72.8082L5.09108 72.8088L5.06964 72.8066L5.04815 72.7997L5.02532 72.8048L5.00314 72.8016L4.982 72.7928L4.95986 72.7943L4.9379 72.7949L4.91624 72.7889L4.89497 72.7858L4.87319 72.7854L4.85135 72.7804L4.82952 72.7753L4.80703 72.7786L4.78542 72.7773L4.76433 72.7733L4.74179 72.7719L4.72031 72.765L4.69835 72.7655L4.67656 72.7652L4.65472 72.7601L4.63363 72.7561L4.61162 72.7519L4.58861 72.758L4.56787 72.7522L4.54534 72.7507L4.52403 72.7429L4.50189 72.7444L4.47993 72.745L4.45862 72.7371L4.43613 72.7405L4.41395 72.7372L4.39251 72.735L4.37072 72.7347L4.34976 72.725L4.32727 72.7283L4.30509 72.7251L4.2836 72.7181L4.26164 72.7187L4.23985 72.7184L4.21854 72.7105L4.19553 72.7166L4.17387 72.7106L4.15278 72.7066L4.13007 72.7061L4.10811 72.7067L4.08667 72.7045L4.06449 72.7012L4.04305 72.6991L4.02173 72.6912L3.99973 72.687L3.97724 72.6904L3.95563 72.6891L3.93292 72.6886L3.91213 72.678L3.89034 72.6777L3.86803 72.6801L3.84585 72.6768L3.82441 72.6746L3.8024 72.6705L3.78044 72.671L3.7586 72.6659L3.73712 72.659L3.71568 72.6568L3.69319 72.6602L3.67083 72.6578L3.6497 72.6491L3.62721 72.6524L3.60647 72.6466L3.58398 72.6499L3.56267 72.642L3.54036 72.6445L3.51853 72.6394L3.49599 72.6379L3.4749 72.6339L3.45294 72.6345L3.43111 72.6294L3.40875 72.6271L3.38661 72.6286L3.36517 72.6264L3.34281 72.624L3.32081 72.6199L3.30024 72.6131L3.27775 72.6164L3.25592 72.6113L3.23373 72.6081L3.21361 72.609Z" fill="#D9FFEF"/>
<path d="M35.753 121.021L35.7696 121.01L35.7895 121L35.8098 120.993L35.8273 120.979L35.8496 120.974L35.8683 120.961L35.8862 120.949L35.9069 120.94L35.9248 120.928L35.9455 120.919L35.9618 120.904L35.9809 120.894L36.0024 120.887L36.0207 120.875L36.0394 120.862L36.0585 120.852L36.0764 120.84L36.0935 120.826L36.1154 120.82L36.1325 120.806L36.1528 120.796L36.1715 120.786L36.1894 120.771L36.2081 120.76L36.2268 120.75L36.2463 120.738L36.2697 120.736L36.2861 120.72L36.3072 120.712L36.3239 120.697L36.343 120.687L36.3633 120.678L36.3804 120.664L36.403 120.659L36.419 120.643L36.4376 120.632L36.4572 120.621L36.4787 120.614L36.4954 120.599L36.5133 120.587L36.5352 120.581L36.5523 120.566L36.5709 120.556L36.5932 120.551L36.6095 120.535L36.6287 120.523L36.647 120.511L36.6673 120.502L36.6856 120.49L36.7042 120.479L36.7242 120.469L36.7428 120.458L36.7643 120.451L36.7846 120.442L36.8025 120.43L36.8228 120.42L36.8399 120.406L36.8586 120.395L36.877 120.382L36.9 120.378L36.9187 120.367L36.9366 120.355L36.9529 120.339L36.9736 120.331L36.9951 120.324L37.0118 120.309L37.0333 120.302L37.0489 120.284L37.0671 120.273L37.0906 120.27L37.1073 120.255L37.1284 120.247L37.1447 120.232L37.1626 120.219L37.1829 120.21L37.2008 120.197L37.2231 120.192L37.241 120.18L37.2617 120.171L37.2792 120.158L37.2983 120.146L37.3166 120.134L37.3345 120.122L37.3556 120.114L37.3751 120.103L37.3942 120.093L37.4153 120.085L37.4316 120.069L37.4531 120.063L37.4718 120.052L37.4901 120.04L37.5064 120.024L37.5279 120.018L37.5474 120.006L37.5669 119.997L37.5844 119.984L37.6047 119.975L37.6226 119.962L37.6445 119.956L37.6596 119.938L37.6819 119.933L37.6974 119.915L37.7165 119.905L37.7372 119.897L37.7547 119.883L37.7774 119.879L37.7949 119.866L37.816 119.858L37.8347 119.847L37.8526 119.833L37.8733 119.826L37.8912 119.812L37.9107 119.803L37.931 119.793L37.9481 119.779L37.9664 119.767L37.9855 119.756L38.005 119.746L38.0217 119.731L38.0436 119.725L38.0603 119.71L38.0794 119.699L38.1025 119.695L38.1208 119.683L38.1407 119.673L38.1594 119.662L38.1749 119.645L38.1944 119.634L38.2171 119.629L38.2358 119.619L38.2521 119.603L38.27 119.59L38.2895 119.579L38.313 119.577L38.3297 119.562L38.35 119.552L38.3699 119.544L38.3878 119.53L38.4045 119.515L38.4244 119.506L38.4447 119.497L38.4614 119.482L38.4821 119.473L38.5044 119.468L38.5191 119.449L38.539 119.441L38.5609 119.435L38.5784 119.421L38.5995 119.414L38.6146 119.395L38.6373 119.391L38.6532 119.374L38.6727 119.363L38.693 119.356L38.7137 119.347L38.7312 119.334L38.7515 119.325L38.7678 119.309L38.7893 119.302L38.8084 119.292L38.8279 119.281L38.845 119.267L38.8653 119.257L38.886 119.249L38.9032 119.235L38.9239 119.226L38.9433 119.217L38.9604 119.203L38.9475 119.186L38.9398 119.165L38.9257 119.148L38.9196 119.126L38.9038 119.11L38.8944 119.089L38.8828 119.071L38.8733 119.051L38.8635 119.032L38.8549 119.011L38.8424 118.993L38.8355 118.972L38.8206 118.955L38.8064 118.938L38.8012 118.915L38.7897 118.897L38.7794 118.877L38.7669 118.859L38.7592 118.838L38.7493 118.819L38.7326 118.803L38.7257 118.782L38.7133 118.764L38.7013 118.745L38.6914 118.726L38.682 118.705L38.6721 118.686L38.6601 118.667L38.6511 118.648L38.6327 118.632L38.6292 118.609L38.6142 118.593L38.6027 118.574L38.5966 118.553L38.5808 118.536L38.5722 118.515L38.5572 118.499L38.5503 118.477L38.5413 118.458L38.5318 118.437L38.5194 118.42L38.5074 118.4L38.4925 118.384L38.4864 118.362L38.4748 118.344L38.4616 118.326L38.4563 118.304L38.4388 118.288L38.4294 118.268L38.4187 118.249L38.4126 118.227L38.3976 118.211L38.389 118.19L38.3783 118.171L38.3633 118.154L38.3547 118.134L38.3457 118.114L38.332 118.096L38.3247 118.076L38.311 118.057L38.2986 118.039L38.2895 118.02L38.2776 118.001L38.2651 117.983L38.2599 117.961L38.2449 117.944L38.2338 117.924L38.2222 117.906L38.2106 117.888L38.2029 117.867L38.1952 117.846L38.1793 117.829L38.1678 117.811L38.1626 117.789L38.1506 117.77L38.139 117.751L38.1274 117.733L38.1197 117.712L38.1055 117.695L38.0923 117.677L38.0811 117.658L38.0734 117.637L38.0626 117.618L38.0477 117.601L38.0433 117.579L38.0275 117.562L38.0155 117.543L38.0103 117.521L37.9949 117.505L37.9846 117.485L37.9769 117.464L37.9619 117.448L37.9567 117.425L37.9387 117.411L37.9318 117.39L37.9258 117.368L37.9083 117.352L37.8975 117.333L37.8855 117.314L37.8795 117.292L37.8671 117.275L37.8546 117.257L37.843 117.238L37.8383 117.215L37.8229 117.199L37.8151 117.178L37.801 117.161L37.7899 117.142L37.7808 117.122L37.7705 117.102L37.7619 117.081L37.7478 117.064L37.7371 117.046L37.7276 117.025L37.711 117.009L37.7083 116.986L37.6942 116.969L37.6835 116.95L37.6749 116.929L37.6637 116.91L37.6479 116.894L37.6406 116.873L37.6269 116.855L37.6145 116.837L37.6101 116.814L37.5998 116.794L37.5819 116.78L37.5699 116.761L37.5672 116.738L37.5506 116.722L37.5462 116.699L37.5355 116.68L37.5235 116.661L37.5119 116.643L37.4944 116.627L37.4858 116.607L37.4784 116.586L37.4648 116.568L37.4549 116.549L37.4437 116.529L37.4305 116.512L37.4253 116.49L37.4128 116.472L37.3979 116.455L37.3876 116.435L37.3773 116.415L37.3682 116.396L37.3605 116.375L37.3421 116.359L37.3331 116.34L37.3237 116.32L37.3134 116.3L37.3001 116.282L37.294 116.26L37.2825 116.242L37.2683 116.225L37.2606 116.204L37.2448 116.188L37.2345 116.168L37.2267 116.146L37.2152 116.128L37.2027 116.11L37.1924 116.09L37.1872 116.068L37.174 116.051L37.1611 116.032L37.1504 116.013L37.141 115.991L37.1214 116.004L37.1023 116.016L37.0824 116.024L37.0637 116.037L37.045 116.048L37.0251 116.058L37.006 116.068L36.9874 116.079L36.9674 116.089L36.9499 116.102L36.9296 116.112L36.9106 116.121L36.8898 116.13L36.8735 116.146L36.8524 116.154L36.8338 116.164L36.8138 116.175L36.7948 116.185L36.7752 116.196L36.7605 116.213L36.7398 116.221L36.7216 116.233L36.6993 116.238L36.6845 116.257L36.6623 116.263L36.6436 116.273L36.624 116.284L36.6077 116.3L36.5887 116.31L36.5683 116.32L36.5461 116.325L36.5305 116.342L36.5122 116.354L36.49 116.359L36.4704 116.37L36.4529 116.383L36.4331 116.392L36.4164 116.407L36.3945 116.413L36.3754 116.425L36.3563 116.435L36.3384 116.447L36.3173 116.455L36.2978 116.466L36.2818 116.483L36.2639 116.495L36.2428 116.503L36.2242 116.513L36.2051 116.523L36.184 116.531L36.1665 116.544L36.1466 116.555L36.1291 116.568L36.108 116.576L36.0897 116.587L36.0706 116.599L36.0523 116.611L36.032 116.62L36.0125 116.629L35.997 116.647L35.9751 116.653L35.9588 116.669L35.9381 116.677L35.917 116.683L35.8971 116.693L35.8796 116.706L35.8597 116.717L35.8418 116.729L35.8239 116.742L35.8052 116.754L35.7833 116.76L35.765 116.772L35.7447 116.781L35.7252 116.791L35.7081 116.805L35.6918 116.82L35.6687 116.824L35.65 116.837L35.6341 116.853L35.6142 116.862L35.5951 116.874L35.5764 116.884L35.5561 116.894L35.537 116.904L35.5155 116.911L35.4972 116.922L35.4805 116.937L35.4598 116.946L35.4395 116.955L35.4232 116.971L35.4049 116.983L35.3862 116.993L35.3647 117L35.344 117.009L35.3261 117.021L35.309 117.035L35.2899 117.047L35.2708 117.057L35.2485 117.062L35.2306 117.075L35.2119 117.088L35.1912 117.094L35.1733 117.109L35.153 117.116L35.1355 117.129L35.1164 117.141L35.0966 117.149L35.0802 117.165L35.0595 117.174L35.042 117.187L35.0217 117.197L35.003 117.207L34.9815 117.214L34.9652 117.23L34.9433 117.236L34.9258 117.249L34.9087 117.263L34.8872 117.27L34.8685 117.283L34.8486 117.291L34.8319 117.306L34.8116 117.316L34.7913 117.325L34.773 117.337L34.7559 117.351L34.7348 117.359L34.7141 117.367L34.6978 117.383L34.6787 117.393L34.6576 117.401L34.6389 117.411L34.619 117.422L34.6027 117.438L34.584 117.448L34.5637 117.458L34.5438 117.468L34.5251 117.479L34.5052 117.489L34.4849 117.496L34.4666 117.51L34.4463 117.517L34.4304 117.534L34.4109 117.545L34.3902 117.554L34.3711 117.564L34.3536 117.577L34.3341 117.588L34.315 117.598L34.2967 117.612L34.2748 117.618L34.2577 117.632L34.2358 117.638L34.2183 117.651L34.2 117.663L34.1789 117.67L34.163 117.687L34.1411 117.693L34.1232 117.706L34.1045 117.718L34.0822 117.724L34.0671 117.742L34.048 117.752L34.0261 117.758L34.0102 117.775L33.9891 117.782L33.9704 117.793L33.9505 117.803L33.9355 117.815L33.9391 117.834L33.9494 117.854L33.9661 117.87L33.9777 117.888L33.9812 117.912L33.9923 117.931L34.0094 117.946L34.0189 117.966L34.0305 117.984L34.0365 118.006L34.0468 118.026L34.0592 118.044L34.0687 118.064L34.0853 118.08L34.0905 118.103L34.1064 118.119L34.1162 118.138L34.1265 118.158L34.1364 118.177L34.1442 118.198L34.16 118.214L34.1673 118.235L34.1785 118.254L34.1951 118.27L34.205 118.289L34.2153 118.309L34.2205 118.331L34.2363 118.348L34.2437 118.368L34.2565 118.387L34.2647 118.407L34.2767 118.426L34.2917 118.443L34.3015 118.462L34.3144 118.48L34.3209 118.501L34.3345 118.519L34.3444 118.538L34.3556 118.558L34.3663 118.577L34.3732 118.598L34.3822 118.618L34.3981 118.634L34.4058 118.655L34.4161 118.675L34.4324 118.69L34.4435 118.71L34.447 118.733L34.4611 118.75L34.4689 118.771L34.4822 118.788L34.4924 118.808L34.5057 118.826L34.5126 118.847L34.5234 118.866L34.5383 118.883L34.5495 118.902L34.5593 118.921L34.5705 118.941L34.5795 118.96L34.5907 118.98L34.6039 118.997L34.6164 119.015L34.6199 119.038L34.6319 119.057L34.6426 119.076L34.6601 119.092L34.6678 119.113L34.6794 119.131L34.6897 119.151L34.6996 119.17L34.7082 119.191L34.7249 119.207L34.7309 119.229L34.7467 119.245L34.7511 119.268L34.7644 119.285L34.7734 119.305L34.7888 119.322L34.7953 119.343L34.8073 119.362L34.8205 119.379L34.8313 119.398L34.8382 119.42L34.8557 119.435L34.866 119.455L34.8712 119.477L34.8853 119.494L34.8986 119.512L34.9063 119.533L34.9162 119.552L34.9286 119.57L34.9372 119.591L34.9458 119.611L34.9616 119.628L34.9732 119.646L34.9823 119.666L34.9942 119.685L35.0011 119.706L35.0144 119.724L35.0269 119.742L35.0354 119.762L35.0445 119.782L35.0539 119.802L35.0723 119.817L35.0796 119.837L35.0916 119.857L35.0977 119.878L35.1118 119.896L35.1251 119.913L35.1311 119.935L35.1469 119.951L35.1572 119.971L35.168 119.99L35.1804 120.008L35.1848 120.031L35.2006 120.047L35.2109 120.067L35.2178 120.088L35.231 120.106L35.2435 120.124L35.2495 120.146L35.2679 120.161L35.2756 120.182L35.2847 120.201L35.2975 120.22L35.3108 120.238L35.3215 120.256L35.3318 120.276L35.3425 120.295L35.3486 120.317L35.358 120.337L35.3738 120.353L35.3854 120.372L35.3982 120.39L35.4018 120.413L35.4142 120.431L35.4292 120.448L35.4394 120.468L35.4502 120.487L35.4596 120.507L35.4729 120.524L35.4815 120.545L35.4884 120.567L35.4991 120.585L35.5149 120.602L35.5261 120.621L35.5313 120.644L35.5471 120.66L35.5544 120.68L35.5703 120.696L35.5763 120.718L35.5913 120.735L35.5999 120.756L35.6119 120.775L35.6209 120.794L35.6342 120.812L35.6428 120.833L35.6539 120.852L35.668 120.869L35.6788 120.888L35.6899 120.907L35.6993 120.928L35.7058 120.948L35.7216 120.965L35.7302 120.985L35.7405 121.005L35.753 121.021Z" fill="#D9FFEF"/>
<path d="M192.652 140.125L192.682 140.105L192.719 140.086L192.756 140.073L192.788 140.048L192.829 140.039L192.864 140.015L192.897 139.992L192.935 139.976L192.968 139.954L193.006 139.938L193.036 139.909L193.071 139.89L193.111 139.878L193.145 139.856L193.179 139.833L193.214 139.815L193.247 139.792L193.279 139.766L193.319 139.754L193.35 139.728L193.388 139.711L193.422 139.691L193.455 139.665L193.49 139.645L193.524 139.625L193.56 139.605L193.603 139.6L193.633 139.571L193.672 139.556L193.703 139.529L193.738 139.51L193.776 139.493L193.807 139.467L193.849 139.459L193.878 139.428L193.913 139.409L193.948 139.388L193.988 139.375L194.019 139.348L194.052 139.325L194.092 139.314L194.124 139.288L194.158 139.268L194.199 139.258L194.229 139.229L194.264 139.207L194.298 139.186L194.335 139.169L194.369 139.147L194.404 139.127L194.44 139.108L194.475 139.089L194.514 139.076L194.552 139.059L194.585 139.036L194.622 139.018L194.653 138.992L194.688 138.973L194.722 138.947L194.764 138.941L194.799 138.921L194.831 138.898L194.862 138.869L194.9 138.853L194.939 138.841L194.97 138.813L195.01 138.8L195.038 138.768L195.072 138.747L195.115 138.742L195.146 138.714L195.185 138.7L195.215 138.671L195.248 138.648L195.285 138.631L195.318 138.608L195.359 138.598L195.392 138.575L195.43 138.559L195.462 138.535L195.498 138.513L195.531 138.492L195.564 138.469L195.603 138.454L195.639 138.434L195.674 138.416L195.713 138.402L195.743 138.372L195.783 138.36L195.817 138.34L195.851 138.319L195.881 138.289L195.92 138.277L195.956 138.256L195.992 138.24L196.025 138.215L196.062 138.198L196.095 138.175L196.135 138.164L196.163 138.13L196.204 138.12L196.233 138.088L196.268 138.07L196.306 138.054L196.338 138.03L196.38 138.022L196.412 137.997L196.451 137.983L196.485 137.963L196.518 137.936L196.557 137.924L196.59 137.898L196.625 137.881L196.663 137.864L196.694 137.838L196.728 137.816L196.763 137.794L196.799 137.778L196.83 137.75L196.87 137.739L196.901 137.711L196.936 137.689L196.979 137.683L197.012 137.661L197.049 137.642L197.083 137.623L197.112 137.59L197.148 137.57L197.19 137.562L197.224 137.542L197.254 137.513L197.287 137.49L197.323 137.47L197.366 137.465L197.397 137.437L197.435 137.42L197.471 137.405L197.504 137.378L197.535 137.35L197.572 137.335L197.609 137.318L197.64 137.29L197.678 137.275L197.719 137.265L197.746 137.23L197.783 137.215L197.823 137.203L197.855 137.179L197.894 137.165L197.922 137.131L197.964 137.123L197.993 137.092L198.029 137.072L198.066 137.058L198.104 137.042L198.137 137.018L198.174 137L198.204 136.971L198.244 136.959L198.279 136.94L198.315 136.92L198.346 136.894L198.384 136.877L198.422 136.861L198.453 136.835L198.491 136.819L198.527 136.802L198.559 136.776L198.535 136.746L198.521 136.707L198.495 136.675L198.484 136.635L198.454 136.605L198.437 136.567L198.416 136.534L198.398 136.496L198.38 136.461L198.364 136.423L198.341 136.39L198.329 136.35L198.301 136.32L198.275 136.288L198.266 136.247L198.244 136.213L198.225 136.177L198.202 136.144L198.188 136.105L198.17 136.07L198.139 136.04L198.127 136.001L198.104 135.968L198.082 135.933L198.063 135.897L198.046 135.86L198.028 135.825L198.006 135.79L197.989 135.754L197.955 135.726L197.949 135.683L197.921 135.653L197.9 135.619L197.889 135.579L197.86 135.549L197.844 135.51L197.816 135.48L197.803 135.44L197.787 135.404L197.769 135.367L197.747 135.334L197.724 135.299L197.697 135.268L197.686 135.227L197.664 135.194L197.64 135.162L197.63 135.121L197.598 135.092L197.581 135.054L197.561 135.02L197.55 134.98L197.522 134.949L197.506 134.911L197.487 134.876L197.459 134.846L197.443 134.807L197.427 134.772L197.401 134.738L197.388 134.701L197.363 134.667L197.34 134.634L197.323 134.598L197.301 134.563L197.278 134.53L197.269 134.489L197.241 134.458L197.221 134.422L197.199 134.388L197.178 134.355L197.164 134.316L197.149 134.277L197.12 134.247L197.099 134.213L197.089 134.172L197.067 134.137L197.046 134.103L197.025 134.069L197.01 134.031L196.984 133.999L196.96 133.967L196.939 133.931L196.925 133.892L196.905 133.858L196.878 133.827L196.87 133.785L196.841 133.755L196.819 133.72L196.809 133.679L196.781 133.65L196.762 133.613L196.747 133.575L196.72 133.544L196.71 133.503L196.677 133.476L196.664 133.437L196.653 133.396L196.621 133.368L196.601 133.333L196.579 133.298L196.568 133.258L196.545 133.225L196.522 133.192L196.501 133.158L196.492 133.115L196.464 133.086L196.449 133.048L196.423 133.016L196.403 132.98L196.386 132.944L196.367 132.908L196.352 132.869L196.326 132.838L196.306 132.803L196.288 132.766L196.258 132.737L196.253 132.694L196.227 132.662L196.207 132.628L196.191 132.589L196.171 132.553L196.142 132.523L196.128 132.486L196.103 132.452L196.08 132.419L196.072 132.378L196.053 132.341L196.02 132.315L195.998 132.279L195.993 132.236L195.962 132.207L195.954 132.165L195.934 132.131L195.912 132.095L195.891 132.062L195.859 132.033L195.843 131.995L195.829 131.958L195.804 131.924L195.786 131.889L195.765 131.853L195.741 131.82L195.731 131.779L195.709 131.746L195.681 131.716L195.662 131.679L195.643 131.642L195.626 131.606L195.612 131.568L195.578 131.54L195.562 131.504L195.544 131.466L195.525 131.43L195.501 131.397L195.49 131.357L195.468 131.323L195.442 131.292L195.428 131.253L195.399 131.223L195.38 131.186L195.366 131.147L195.344 131.114L195.322 131.081L195.303 131.044L195.293 131.003L195.269 130.971L195.245 130.936L195.225 130.902L195.208 130.861L195.172 130.885L195.137 130.907L195.1 130.922L195.066 130.946L195.031 130.966L194.994 130.984L194.959 131.003L194.925 131.022L194.888 131.041L194.856 131.066L194.819 131.083L194.783 131.101L194.745 131.117L194.715 131.146L194.676 131.161L194.642 131.18L194.605 131.199L194.57 131.218L194.534 131.238L194.507 131.27L194.469 131.285L194.435 131.307L194.394 131.316L194.367 131.352L194.326 131.361L194.292 131.381L194.256 131.402L194.226 131.431L194.191 131.449L194.153 131.466L194.112 131.476L194.084 131.508L194.05 131.529L194.009 131.539L193.973 131.559L193.941 131.584L193.904 131.599L193.873 131.627L193.833 131.638L193.798 131.66L193.763 131.678L193.73 131.701L193.691 131.715L193.655 131.736L193.626 131.766L193.593 131.789L193.554 131.804L193.519 131.823L193.484 131.841L193.445 131.856L193.413 131.88L193.376 131.899L193.344 131.924L193.305 131.938L193.272 131.959L193.236 131.981L193.203 132.003L193.165 132.02L193.13 132.037L193.101 132.069L193.061 132.08L193.031 132.109L192.992 132.125L192.954 132.135L192.917 132.154L192.885 132.179L192.848 132.198L192.815 132.221L192.782 132.243L192.748 132.267L192.707 132.278L192.674 132.3L192.636 132.317L192.6 132.334L192.569 132.36L192.539 132.389L192.496 132.395L192.462 132.419L192.433 132.449L192.396 132.465L192.361 132.487L192.326 132.506L192.289 132.524L192.254 132.542L192.214 132.555L192.181 132.576L192.15 132.604L192.112 132.619L192.074 132.637L192.044 132.666L192.01 132.687L191.976 132.707L191.937 132.72L191.898 132.736L191.865 132.758L191.834 132.784L191.799 132.807L191.764 132.825L191.723 132.834L191.69 132.857L191.655 132.881L191.617 132.893L191.584 132.92L191.547 132.933L191.514 132.958L191.479 132.98L191.443 132.995L191.413 133.024L191.374 133.04L191.342 133.064L191.305 133.081L191.27 133.101L191.231 133.114L191.201 133.143L191.16 133.154L191.128 133.179L191.097 133.205L191.057 133.217L191.023 133.241L190.986 133.256L190.955 133.284L190.918 133.301L190.88 133.318L190.847 133.34L190.815 133.366L190.776 133.38L190.738 133.396L190.708 133.425L190.673 133.443L190.634 133.457L190.6 133.477L190.563 133.496L190.533 133.525L190.499 133.545L190.461 133.562L190.425 133.581L190.39 133.601L190.354 133.62L190.316 133.634L190.282 133.659L190.245 133.672L190.216 133.703L190.18 133.723L190.142 133.739L190.107 133.758L190.074 133.782L190.038 133.802L190.003 133.821L189.969 133.846L189.929 133.857L189.898 133.883L189.857 133.894L189.825 133.919L189.791 133.94L189.753 133.954L189.723 133.985L189.683 133.996L189.65 134.019L189.616 134.043L189.574 134.052L189.547 134.086L189.511 134.104L189.471 134.115L189.442 134.146L189.403 134.16L189.369 134.18L189.332 134.199L189.304 134.221L189.311 134.256L189.33 134.293L189.361 134.322L189.382 134.356L189.388 134.398L189.409 134.434L189.44 134.461L189.458 134.499L189.479 134.532L189.49 134.573L189.509 134.609L189.532 134.642L189.55 134.68L189.58 134.709L189.59 134.75L189.619 134.78L189.637 134.815L189.656 134.852L189.674 134.887L189.689 134.926L189.718 134.956L189.731 134.993L189.752 135.029L189.782 135.059L189.801 135.094L189.82 135.131L189.829 135.172L189.858 135.202L189.872 135.239L189.896 135.273L189.911 135.31L189.933 135.345L189.96 135.376L189.978 135.411L190.002 135.446L190.014 135.484L190.039 135.518L190.057 135.553L190.078 135.589L190.098 135.623L190.11 135.663L190.127 135.699L190.156 135.729L190.17 135.767L190.189 135.804L190.219 135.832L190.24 135.868L190.246 135.91L190.272 135.942L190.287 135.981L190.311 136.013L190.33 136.05L190.354 136.082L190.367 136.122L190.387 136.156L190.415 136.187L190.435 136.223L190.453 136.258L190.474 136.294L190.49 136.33L190.511 136.366L190.535 136.398L190.558 136.431L190.565 136.473L190.587 136.509L190.607 136.543L190.639 136.572L190.653 136.61L190.674 136.644L190.693 136.681L190.712 136.716L190.727 136.754L190.758 136.783L190.769 136.824L190.798 136.854L190.806 136.896L190.831 136.928L190.847 136.964L190.876 136.996L190.888 137.034L190.91 137.069L190.934 137.102L190.954 137.136L190.967 137.176L190.999 137.204L191.018 137.241L191.028 137.282L191.054 137.313L191.078 137.346L191.092 137.385L191.11 137.42L191.133 137.453L191.149 137.491L191.165 137.529L191.194 137.559L191.215 137.593L191.232 137.629L191.254 137.664L191.267 137.703L191.291 137.736L191.314 137.769L191.33 137.807L191.347 137.843L191.364 137.88L191.398 137.908L191.411 137.945L191.434 137.98L191.445 138.021L191.471 138.052L191.495 138.084L191.506 138.125L191.535 138.155L191.554 138.192L191.574 138.226L191.597 138.259L191.605 138.301L191.634 138.331L191.653 138.367L191.666 138.407L191.69 138.439L191.713 138.472L191.724 138.513L191.758 138.54L191.772 138.579L191.789 138.615L191.813 138.65L191.837 138.682L191.857 138.716L191.876 138.753L191.896 138.787L191.907 138.828L191.924 138.865L191.953 138.895L191.975 138.929L191.998 138.963L192.005 139.006L192.028 139.039L192.055 139.07L192.074 139.106L192.094 139.141L192.111 139.178L192.136 139.21L192.152 139.249L192.164 139.288L192.184 139.323L192.213 139.353L192.234 139.389L192.243 139.43L192.272 139.46L192.286 139.497L192.315 139.527L192.326 139.567L192.354 139.598L192.37 139.636L192.392 139.672L192.408 139.707L192.433 139.74L192.449 139.778L192.469 139.814L192.495 139.845L192.515 139.88L192.535 139.916L192.553 139.953L192.565 139.991L192.594 140.021L192.61 140.059L192.629 140.096L192.652 140.125Z" fill="#D9FFEF"/>
<path d="M206.005 133.235C205.965 134.298 205.071 135.127 204.008 135.087C202.944 135.047 202.115 134.153 202.155 133.09C202.195 132.026 203.09 131.197 204.153 131.237C205.216 131.277 206.045 132.172 206.005 133.235Z" fill="#CCFFFE" stroke="black"/>
<path d="M41.0112 128.187C40.9711 129.25 40.0767 130.079 39.0135 130.039C37.9503 129.999 37.121 129.104 37.1611 128.041C37.2012 126.978 38.0956 126.149 39.1588 126.189C40.222 126.229 41.0513 127.123 41.0112 128.187Z" fill="#CCFFFE" stroke="black"/>
<defs>
<linearGradient id="paint0_linear_459_9666" x1="234.559" y1="68.4754" x2="6.11707" y2="56.7386" gradientUnits="userSpaceOnUse">
<stop stop-color="#3EFFFF" stop-opacity="0.9"/>
<stop offset="1" stop-color="#96F2BC" stop-opacity="0.9"/>
</linearGradient>
</defs>
</svg>
