<svg width="246" height="121" viewBox="0 0 246 121" fill="none" xmlns="http://www.w3.org/2000/svg">
<path opacity="0.3" d="M11.767 113.399L11.4374 112.713L11.7721 111.844L11.7386 110.997L11.5397 110.149L11.2713 109.318L11.5045 108.461L11.21 107.594L11.3417 106.748L11.5372 105.915L11.4079 105.049L11.4381 104.214L11.6655 103.387L11.7015 102.522L11.5027 101.674L11.704 100.811L11.8617 100.001L11.8978 99.1364L11.7686 98.2707L11.964 97.4372L11.8986 96.584L11.9346 95.7194L12.2257 94.9044L12.3516 94.0885L12.292 93.2052L12.5831 92.3903L12.422 91.5184L12.745 90.7097L12.7491 89.8389L13.0721 89.0302L13.0705 88.1894L13.3297 87.3683L13.5889 86.5471L13.8742 85.7622L13.974 84.91L13.9782 84.0392L14.3649 83.243L14.7459 82.4767L14.8776 81.6307L15.1628 80.8458L15.454 80.0309L15.3683 79.1114L15.6536 78.3265L16.3156 77.6461L16.4792 76.8063L16.5211 75.9117L16.7426 75.1144L17.3727 74.4278L17.2929 73.4784L17.981 72.8342L18.0229 71.9396L18.4936 71.2219L18.6312 70.3459L19.07 69.6221L19.6625 68.9592L19.8638 68.0957L20.3664 67.3842L20.3764 66.4834L20.7573 65.7172L21.1382 64.9509L21.8524 64.3429L22.1695 63.5642L22.339 62.6944L22.8995 62.0254L23.1906 61.2104L23.841 60.59L24.4015 59.921L24.7245 59.1123L25.2213 58.4308L25.6602 57.7069L25.8354 56.8072L26.4858 56.1868L26.745 55.3657L27.3635 54.739L28.0978 54.1972L28.5685 53.4796L29.0393 52.7619L29.4261 51.9656L29.891 51.2779L30.2458 50.4754L31.0062 49.9698L31.4509 49.216L32.1273 48.6318L32.4822 47.8293L33.2367 47.3537L33.8233 46.7208L34.3259 46.0094L34.8806 45.3703L35.2414 44.5378L35.7961 43.8988L36.5825 43.4294L37.1691 42.7965L37.6977 42.1213L38.2003 41.4098L38.9028 40.8618L39.4894 40.229L40.1339 39.6385L40.6944 38.9695L41.4431 38.5239L42.1195 37.9397L42.6742 37.3006L43.5127 36.9036L44.2093 36.3856L44.738 35.7103L45.2725 35.0051L45.9691 34.4871L46.8597 34.1625L47.4723 33.5658L48.2529 33.1264L48.8453 32.4636L49.3798 31.7584L50.3427 31.5724L50.8772 30.8671L51.5796 30.3191L52.2762 29.8011L53.1089 29.4341L53.9357 29.0971L54.6063 28.5428L55.3029 28.0248L55.8953 27.362L56.8523 27.206L57.4766 26.5494L58.1211 25.9589L59.0782 25.8029L59.8789 25.4297L60.5755 24.9117L61.3763 24.5385L62.1569 24.0991L62.8795 23.6173L63.6282 23.1716L64.3508 22.6898L65.2095 22.359L66.0103 21.9858L66.7792 21.6064L67.5858 21.2032L68.453 20.9986L69.2538 20.6253L70.1066 20.3245L70.8755 19.9451L71.5636 19.3009L72.5233 19.3011L73.3501 18.9641L74.1509 18.5908L74.9314 18.1514L75.7986 17.9468L76.5792 17.5074L77.4406 17.3328L78.253 16.8996L79.1404 16.7611L80.0018 16.5865L80.7941 16.0871L81.7421 16.1473L82.6151 15.9127L83.4621 15.6418L84.2427 15.2024L85.1562 15.1002L86.0521 15.0879L86.8991 14.8171L87.752 14.5163L88.5586 14.1131L89.5124 14.1433L90.3392 13.8063L91.2064 13.6016L92.1571 13.8179L93.0445 13.6795L93.857 13.2463L94.7906 13.2103L95.6664 13.1318L96.5596 12.9634L97.4614 12.9212L98.3371 12.8427L99.2506 12.7405L100.132 12.632L101.014 12.5236L101.915 12.4814L102.766 12.0244L103.656 12.0421L104.56 12.156L105.456 12.1438L106.384 12.1377L107.257 11.9031L108.144 11.7647L109.069 11.9448L109.948 11.6802L110.844 11.6679L111.751 11.938L112.667 11.992L113.566 12.1359L114.468 11.7513L115.352 11.799L116.259 12.0691L117.149 12.0869L118.034 12.1346L118.944 12.2185L119.834 12.2363L120.756 12.2602L121.669 12.158L122.562 12.3319L123.446 12.3796L124.318 12.8296L125.249 12.6374L126.128 12.7152L126.997 13.009L127.902 13.1229L128.783 13.3568L129.664 13.5907L130.548 13.6384L131.482 13.6024L132.357 13.8663L133.267 13.9502L134.076 14.3878L134.986 14.4718L135.902 14.5257L136.71 14.9633L137.597 15.1672L138.525 15.1612L139.327 15.6288L140.214 15.8327L141.119 15.9466L142.017 16.0905L142.837 16.4681L143.634 16.9657L144.605 16.9059L145.37 17.3973L146.239 17.6912L147.193 17.7213L148.013 18.099L148.784 18.5604L149.592 18.998L150.485 19.1719L151.384 19.3158L152.192 19.7534L153.067 20.0173L153.832 20.5087L154.553 21.0538L155.539 21.0902L156.309 21.5516L157.03 22.0967L158.01 22.1631L158.737 22.6783L159.65 22.9184L160.316 23.5773L161.148 23.8949L161.814 24.5538L162.634 24.9315L163.552 25.1416L164.329 25.573L165.149 25.9506L165.919 26.412L166.641 26.9572L167.504 27.281L168.051 28.0413L168.915 28.3651L169.543 29.0478L170.412 29.3417L171.232 29.7193L171.773 30.5096L172.55 30.941L173.494 31.1873L174.128 31.84L174.818 32.3789L175.675 32.7328L176.278 33.3793L176.868 34.0858L177.72 34.4696L178.235 35.2236L179 35.715L179.727 36.2302L180.503 36.6616L181.056 37.3918L181.664 38.0083L182.629 38.3208L183.112 39.0687L183.92 39.5063L184.479 40.2066L185.162 40.7755L185.727 41.4458L186.523 41.9434L187.125 42.5898L187.571 43.3615L188.054 44.1093L188.894 44.5531L189.339 45.3247L190.066 45.8399L190.512 46.6115L191.346 47.0853L191.716 47.9045L192.237 48.6285L193.109 49.0785L193.366 49.969L194.006 50.5918L194.457 51.3334L195.097 51.9561L195.925 52.4599L196.376 53.2015L196.671 54.0682L197.499 54.572L197.724 55.4563L198.44 56.0315L198.847 56.8269L199.525 57.4258L199.932 58.2212L200.314 58.9804L200.986 59.6093L201.217 60.4636L201.813 61.1401L202.119 61.9468L202.608 62.6647L203.053 63.4363L203.391 64.2492L204.101 64.8544L204.187 65.7738L204.934 66.3552L205.379 67.1268L205.502 68.0224L206.061 68.7227L206.19 69.5883L206.743 70.3186L207.049 71.1253L207.538 71.8432L207.984 72.6148L207.968 73.5456L208.558 74.252L208.763 75.0702L209.278 75.8242L209.659 76.5834L209.751 77.4728L210.019 78.3033L210.186 79.1452L210.846 79.8341L211.083 80.6584L211.459 81.4476L211.449 82.3484L211.787 83.1614L212.27 83.9092L212.335 84.7624L212.502 85.6043L212.669 86.4462L213.077 87.2416L213.244 88.0835L213.17 88.9718L213.508 89.7848L213.954 90.5564L214.152 91.4045L213.945 92.298L214.182 93.1223L214.317 93.958L214.82 94.772L214.619 95.6356L214.818 96.4837L215.054 97.308L215.12 98.1612L215.42 98.998L215.187 99.8553L215.652 100.693L215.718 101.546L215.566 102.326L214.708 102.315L213.817 102.639L212.921 102.651L212.034 102.79L211.124 102.706L210.26 102.724L209.346 102.827L208.436 102.743L207.589 103.014L206.65 102.737L205.777 102.972L204.887 102.954L203.991 102.966L203.092 103.165L202.222 103.213L201.277 102.967L200.43 103.238L199.528 103.28L198.649 103.545L197.728 103.178L196.878 103.635L195.947 103.485L195.051 103.497L194.175 103.576L193.274 103.618L192.375 103.474L191.516 103.805L190.592 103.625L189.69 103.667L188.794 103.679L187.944 104.136L187.034 104.052L186.138 104.065L185.265 104.299L184.354 104.215L183.456 104.071L182.562 104.24L181.672 104.222L180.768 104.108L179.889 104.373L179.01 104.637L178.1 104.554L177.21 104.536L176.299 104.452L175.406 104.62L174.527 104.885L173.635 104.711L172.756 104.976L171.845 104.892L170.97 104.97L170.068 105.012L169.172 105.025L168.285 105.163L167.377 105.235L166.501 105.314L165.599 105.356L164.672 105.02L163.791 105.128L162.917 105.363L162.03 105.501L161.097 105.195L160.227 105.586L159.354 105.478L158.435 105.61L157.539 105.622L156.64 105.479L155.77 105.869L154.871 105.725L153.975 105.738L153.073 105.78L152.172 105.822L151.29 105.931L150.392 105.787L149.509 106.237L148.611 106.094L147.686 105.913L146.799 106.052L145.923 106.13L145.007 106.076L144.142 106.437L143.235 106.167L142.354 106.275L141.432 106.252L140.573 106.582L139.663 106.498L138.81 106.799L137.891 106.589L137.006 106.884L136.102 106.77L135.198 106.656L134.307 106.638L133.423 106.933L132.521 106.975L131.628 107.143L130.735 106.97L129.825 106.886L128.948 107.306L128.021 106.97L127.14 107.079L126.272 107.283L125.35 107.259L124.463 107.398L123.596 107.602L122.689 107.332L121.79 107.531L120.908 107.639L119.989 107.429L119.102 107.567L118.209 107.736L117.33 107.658L116.402 107.664L115.535 107.869L114.668 108.073L113.746 108.049L112.864 108.158L111.94 107.978L111.058 108.086L110.154 107.972L109.252 108.014L108.393 108.345L107.5 108.514L106.567 108.207L105.702 108.568L104.812 108.55L103.931 108.659L103.02 108.575L102.121 108.773L101.194 108.437L100.318 108.516L99.4393 108.78L98.5578 108.889L97.6703 109.027L96.7686 109.069L95.8524 109.015L94.9539 108.871L94.0606 109.04L93.1588 109.082L92.2831 109.161L91.3813 109.203L90.5024 109.467L89.5922 109.383L88.6877 109.27L87.829 109.6L86.8959 109.294L86.0058 109.276L85.1067 109.475L84.2368 109.523L83.3233 109.625L82.4476 109.704L81.54 109.776L80.6356 109.662L79.7652 110.053L78.8607 109.939L77.9994 110.114L77.0747 109.934L76.1586 109.88L75.2856 110.114L74.3896 110.127L73.4879 110.169L72.6265 110.343L71.7189 110.416L70.7942 110.236L69.9355 110.566L69.0141 110.2L68.141 110.435L67.2536 110.573L66.3231 110.423L65.4501 110.658L64.5456 110.544L63.6641 110.652L62.7793 110.947L61.8462 110.64L60.9875 110.971L60.1001 111.11L59.1983 111.152L58.2853 110.912L57.3751 110.828L56.4993 110.906L55.6061 111.075L54.7474 111.406L53.8371 111.322L52.9555 111.43L52.0681 111.568L51.1435 111.388L50.239 111.274L49.3543 111.569L48.4297 111.389L47.571 111.72L46.6638 111.45L45.7621 111.492L44.863 111.69L43.9958 111.895L43.1025 112.063L42.1694 111.757L41.2963 111.992L40.4089 112.13L39.5247 112.082L38.6 111.902L37.6924 111.975L36.8279 112.335L35.9032 112.155L35.0562 112.426L34.1257 112.276L33.2154 112.192L32.328 112.33L31.4406 112.469L30.5676 112.703L29.6286 112.427L28.7901 112.824L27.8623 112.83L26.978 112.782L26.0848 112.951L25.1718 112.711L24.3131 113.042L23.3741 112.765L22.484 112.748L21.5993 113.042L20.7002 113.241L19.8245 113.319L18.9142 113.235L17.9895 113.055L17.1223 113.26L16.2062 113.206L15.3246 113.314L14.4085 113.26L13.5153 113.429L12.622 113.597L11.767 113.399Z" fill="url(#paint0_linear_356_9412)"/>
<rect x="32.4112" y="23.016" width="79.5895" height="93.8779" rx="3.5" transform="rotate(-8.4289 32.4112 23.016)" fill="white" stroke="black"/>
<path d="M45.2209 36.8374L60.6826 34.5463" stroke="#080B0E" stroke-linecap="round" stroke-linejoin="round"/>
<path d="M46.657 46.5283L95.0479 39.3576" stroke="#080B0E" stroke-linecap="round" stroke-linejoin="round"/>
<path d="M47.2827 50.7495L105.584 42.1103" stroke="#080B0E" stroke-linecap="round" stroke-linejoin="round"/>
<path d="M123.681 41.8232L138.776 45.879" stroke="#080B0E" stroke-linecap="round" stroke-linejoin="round"/>
<path d="M126.905 23.9261L197.865 39.2171C199.755 39.6243 200.957 41.4862 200.55 43.3758L185.783 111.904L111.401 95.8755C109.511 95.4683 108.309 93.6064 108.717 91.7168L122.746 26.6103C123.153 24.7207 125.015 23.5189 126.905 23.9261Z" fill="white" stroke="black"/>
<path d="M128.551 50.2089L176.372 60.5138" stroke="#080B0E" stroke-linecap="round" stroke-linejoin="round"/>
<path d="M127.651 54.3805L185.267 66.7959" stroke="#080B0E" stroke-linecap="round" stroke-linejoin="round"/>
<rect width="41.5043" height="19.5333" rx="1" transform="matrix(0.976335 0.216263 -0.21667 0.976245 137.442 64.4138)" fill="#D9FFEF"/>
<path d="M170.787 85.198L138.409 78.0258" stroke="white" stroke-linecap="round" stroke-linejoin="round"/>
<path d="M172.178 78.922L139.8 71.7498" stroke="white" stroke-linecap="round" stroke-linejoin="round"/>
<path d="M171.81 77.9293L166.209 84.1836L164.982 75.6265L161.004 79.1568L159.03 74.3081L151.086 80.8338L149.568 76.0968L146.634 78.344L145.096 71.6169L138.763 79.1023" stroke="#86EFCE" stroke-linecap="round" stroke-linejoin="round"/>
<path d="M74.812 36.9834L147.397 36.1742C149.33 36.1527 150.914 37.7021 150.936 39.635L151.756 113.238L72.1717 114.125L71.3512 40.5222C71.3296 38.5893 72.8791 37.0049 74.812 36.9834Z" fill="#080B0E" stroke="black"/>
<path d="M76.5175 37.9166L149.103 37.1122C151.035 37.0908 152.62 38.6403 152.641 40.5732L153.448 113.364L73.8631 114.246L73.0565 41.4551C73.0351 39.5222 74.5846 37.938 76.5175 37.9166Z" fill="white" stroke="black"/>
<rect x="83.0217" y="59.9726" width="63.4931" height="23.8702" rx="2" transform="rotate(-0.634891 83.0217 59.9726)" fill="#080B0E"/>
<path d="M83.8352 53.3862L99.4647 53.213" stroke="#080B0E" stroke-linecap="round" stroke-linejoin="round"/>
<path d="M84.2742 93.008L133.191 92.466" stroke="#080B0E" stroke-linecap="round" stroke-linejoin="round"/>
<path d="M84.3215 97.2752L143.256 96.6221" stroke="#080B0E" stroke-linecap="round" stroke-linejoin="round"/>
<circle cx="95.8487" cy="72.4967" r="5.61629" transform="rotate(-0.634891 95.8487 72.4967)" fill="#86EFCE" stroke="black"/>
<rect x="97.247" y="65.3245" width="6.02197" height="6.02197" transform="rotate(-0.634891 97.247 65.3245)" fill="#D9FFEF" stroke="black"/>
<path d="M208.12 13.7032L208.121 13.6637L208.127 13.6194L208.138 13.5779L208.137 13.5341L208.154 13.4917L208.154 13.4464L208.155 13.403L208.164 13.3593L208.164 13.3158L208.174 13.2722L208.167 13.2274L208.173 13.1849L208.186 13.1419L208.188 13.0987L208.188 13.0534L208.194 13.011L208.194 12.9675L208.191 12.9234L208.206 12.8807L208.203 12.8366L208.21 12.7926L208.214 12.7498L208.211 12.7038L208.215 12.661L208.219 12.6182L208.223 12.5735L208.245 12.5321L208.238 12.4874L208.25 12.444L208.245 12.3996L208.25 12.3571L208.258 12.3131L208.255 12.269L208.273 12.227L208.264 12.1819L208.268 12.139L208.272 12.0944L208.286 12.0514L208.28 12.0069L208.281 11.9635L208.296 11.9208L208.292 11.8767L208.296 11.8338L208.313 11.7915L208.306 11.7467L208.308 11.7017L208.31 11.6586L208.318 11.6146L208.32 11.5715L208.324 11.5287L208.33 11.4843L208.334 11.4415L208.347 11.3985L208.355 11.3545L208.355 11.311L208.363 11.2671L208.36 11.2229L208.364 11.1801L208.362 11.1345L208.383 11.0928L208.387 11.05L208.387 11.0065L208.38 10.9617L208.39 10.9181L208.403 10.8751L208.398 10.8306L208.411 10.7876L208.4 10.7422L208.402 10.699L208.425 10.6577L208.419 10.6132L208.431 10.5699L208.424 10.5251L208.424 10.4816L208.432 10.4376L208.432 10.3942L208.449 10.3518L208.449 10.3083L208.459 10.2647L208.457 10.2209L208.459 10.1759L208.461 10.1328L208.462 10.0893L208.473 10.046L208.477 10.0013L208.483 9.95882L208.495 9.91548L208.487 9.87071L208.501 9.8277L208.505 9.78488L208.507 9.74174L208.499 9.69697L208.513 9.65396L208.517 9.60931L208.524 9.56715L208.523 9.52336L208.531 9.47936L208.531 9.4359L208.546 9.39321L208.533 9.34746L208.55 9.3051L208.54 9.25967L208.545 9.21718L208.555 9.17352L208.553 9.12972L208.572 9.08769L208.57 9.0439L208.582 9.00056L208.586 8.95775L208.583 8.91179L208.596 8.87061L208.593 8.82466L208.6 8.7825L208.608 8.73851L208.604 8.69439L208.606 8.65125L208.609 8.60627L208.616 8.56411L208.611 8.51966L208.626 8.47698L208.621 8.43253L208.623 8.38756L208.644 8.34585L208.646 8.30271L208.652 8.25839L208.656 8.21558L208.645 8.17015L208.649 8.12551L208.668 8.08348L208.672 8.04066L208.665 7.99589L208.665 7.95242L208.669 7.90777L208.692 7.8664L208.686 7.82195L208.694 7.77796L208.703 7.73612L208.7 7.69017L208.695 7.64572L208.704 7.60389L208.712 7.5599L208.707 7.51545L208.717 7.47178L208.734 7.42942L208.719 7.38334L208.728 7.34151L208.744 7.29882L208.742 7.25503L208.753 7.21169L208.741 7.16593L208.76 7.1239L208.751 7.0788L208.755 7.03416L208.766 6.99265L208.776 6.94898L208.774 6.90519L208.782 6.8612L208.775 6.81642L208.788 6.77341L208.794 6.73092L208.798 6.68628L208.794 6.64216L208.802 6.59816L208.812 6.5545L208.808 6.51038L208.818 6.46671L208.826 6.42455L208.822 6.38043L208.78 6.3824L208.737 6.37089L208.693 6.37437L208.65 6.35919L208.605 6.36634L208.561 6.35849L208.518 6.35647L208.474 6.34862L208.432 6.34294L208.388 6.33326L208.344 6.33307L208.301 6.31972L208.257 6.32503L208.213 6.32851L208.17 6.3115L208.127 6.30948L208.083 6.30347L208.04 6.30328L207.996 6.29177L207.954 6.28608L207.909 6.29506L207.866 6.28171L207.822 6.28153L207.777 6.27918L207.735 6.27349L207.691 6.26565L207.648 6.25996L207.603 6.25761L207.561 6.25009L207.515 6.26274L207.473 6.24206L207.429 6.24737L207.386 6.24535L207.343 6.23017L207.298 6.23731L207.255 6.22764L207.21 6.23295L207.167 6.2196L207.125 6.21208L207.081 6.20424L207.038 6.20405L206.993 6.2017L206.948 6.20701L206.905 6.19183L206.862 6.18981L206.818 6.19146L206.776 6.17445L206.731 6.18526L206.687 6.17741L206.644 6.17356L206.601 6.15838L206.557 6.16369L206.513 6.15401L206.47 6.15016L206.426 6.15547L206.382 6.14579L206.34 6.13827L206.294 6.13959L206.253 6.1284L206.207 6.12972L206.164 6.12953L206.121 6.12201L206.076 6.11967L206.033 6.11948L205.991 6.10247L205.946 6.10778L205.902 6.1036L205.858 6.10158L205.815 6.09956L205.772 6.08805L205.729 6.07653L205.684 6.08368L205.641 6.08166L205.598 6.06465L205.553 6.0623L205.51 6.06028L205.467 6.05826L205.424 6.04674L205.379 6.05022L205.336 6.05187L205.291 6.04769L205.248 6.03618L205.205 6.03232L205.16 6.03763L205.118 6.01879L205.074 6.02593L205.029 6.02359L204.986 6.00658L204.943 6.01405L204.899 6.00803L204.856 5.99652L204.811 6.00183L204.769 5.98482L204.725 5.99779L204.682 5.98445L204.639 5.96927L204.594 5.98008L204.551 5.97622L204.506 5.97388L204.463 5.9587L204.42 5.95851L204.376 5.95832L204.333 5.9563L204.289 5.93713L204.246 5.9446L204.203 5.93309L204.159 5.93657L204.114 5.93239L204.072 5.92487L204.028 5.91886L203.984 5.90918L203.94 5.91265L203.897 5.9088L203.853 5.90095L203.808 5.90993L203.766 5.88742L203.722 5.8909L203.679 5.88705L203.636 5.87737L203.591 5.87319L203.546 5.88033L203.505 5.86915L203.459 5.87046L203.416 5.87028L203.374 5.85143L203.329 5.84542L203.285 5.85839L203.24 5.85604L203.199 5.83353L203.154 5.84251L203.112 5.82366L203.069 5.81981L203.024 5.81746L202.981 5.81544L202.936 5.82625L202.892 5.81657L202.85 5.80539L202.805 5.80671L202.762 5.80102L202.718 5.79684L202.674 5.79849L202.631 5.78147L202.588 5.78129L202.543 5.7866L202.499 5.78058L202.455 5.77457L202.413 5.76705L202.369 5.75554L202.323 5.76818L202.281 5.76066L202.237 5.75282L202.193 5.7468L202.149 5.74845L202.106 5.73327L202.063 5.73125L202.019 5.73473L201.976 5.72322L201.931 5.73036L201.887 5.72435L201.843 5.71283L201.8 5.71081L201.757 5.71063L201.712 5.70461L201.67 5.6876L201.626 5.68925L201.581 5.68873L201.538 5.68488L201.491 5.67455L201.49 5.72168L201.488 5.76665L201.478 5.80848L201.478 5.85379L201.474 5.8966L201.468 5.94092L201.462 5.9834L201.458 6.02622L201.452 6.07054L201.454 6.11433L201.446 6.15832L201.44 6.20081L201.431 6.24448L201.438 6.28925L201.426 6.33259L201.423 6.3754L201.417 6.41972L201.411 6.46221L201.407 6.50686L201.418 6.55045L201.408 6.59412L201.406 6.63726L201.389 6.67962L201.404 6.7257L201.387 6.76806L201.383 6.81087L201.379 6.85552L201.386 6.90029L201.38 6.94278L201.372 6.98677L201.355 7.02913L201.366 7.07456L201.364 7.1177L201.347 7.16006L201.343 7.2047L201.344 7.2485L201.335 7.29033L201.34 7.33478L201.325 7.37746L201.323 7.42243L201.317 7.46492L201.317 7.50839L201.305 7.55173L201.301 7.59637L201.31 7.64148L201.31 7.68494L201.299 7.72828L201.295 7.77109L201.289 7.81358L201.278 7.85692L201.279 7.90071L201.273 7.94503L201.275 7.98883L201.263 8.03217L201.261 8.07531L201.259 8.12028L201.257 8.16342L201.249 8.20741L201.242 8.24957L201.252 8.295L201.237 8.33769L201.244 8.38246L201.235 8.42613L201.22 8.46698L201.214 8.5113L201.215 8.55509L201.209 8.59941L201.209 8.64288L201.209 8.68635L201.209 8.73165L201.193 8.77433L201.191 8.81747L201.184 8.86146L201.176 8.90362L201.18 8.94775L201.187 8.99252L201.166 9.03422L201.165 9.07952L201.174 9.12463L201.165 9.16646L201.163 9.21143L201.159 9.25425L201.151 9.29824L201.145 9.34073L201.132 9.38374L201.13 9.42688L201.135 9.47133L201.126 9.51499L201.118 9.55898L201.125 9.60376L201.123 9.6469L201.119 9.68971L201.106 9.73272L201.096 9.77639L201.096 9.81986L201.099 9.86398L201.097 9.90895L201.091 9.95144L201.074 9.9938L201.074 10.0373L201.074 10.0826L201.061 10.1237L201.064 10.1697L201.053 10.2112L201.054 10.255L201.052 10.3L201.043 10.3418L201.05 10.3866L201.04 10.4302L201.042 10.474L201.034 10.518L201.03 10.5608L201.017 10.6039L201.024 10.6486L201.009 10.6913L201.01 10.7351L201.014 10.7792L201 10.8222L201 10.8675L200.991 10.9094L200.996 10.9538L200.988 10.9978L200.98 11.0418L200.978 11.0849L200.982 11.1291L200.97 11.1724L200.96 11.2161L200.968 11.2608L200.962 11.3033L200.95 11.3467L200.947 11.3895L200.941 11.4338L200.948 11.4786L200.944 11.5214L200.936 11.5654L200.93 11.6097L200.926 11.6525L200.92 11.6968L200.909 11.7383L200.91 11.784L200.899 11.8255L200.908 11.8706L200.904 11.9152L200.894 11.9589L200.889 12.0014L200.89 12.0452L200.886 12.0898L200.88 12.1323L200.882 12.1779L200.866 12.2206L200.87 12.2647L200.855 12.3074L200.856 12.3512L200.854 12.3944L200.843 12.4377L200.852 12.4828L200.837 12.5255L200.836 12.569L200.836 12.6143L200.819 12.6566L200.832 12.7024L200.826 12.7449L200.811 12.7875L200.82 12.8326L200.808 12.876L200.804 12.9188L200.798 12.9631L200.801 13.0014L200.836 13.0171L200.88 13.0231L200.925 13.0141L200.969 13.0162L201.01 13.0368L201.055 13.041L201.099 13.0299L201.143 13.0377L201.186 13.0398L201.228 13.0549L201.273 13.0609L201.316 13.0611L201.36 13.069L201.405 13.06L201.448 13.077L201.493 13.0699L201.535 13.0756L201.579 13.0816L201.622 13.0873L201.665 13.0988L201.71 13.0916L201.751 13.1028L201.796 13.107L201.841 13.098L201.884 13.1037L201.928 13.1097L201.97 13.1267L202.015 13.1196L202.057 13.1308L202.102 13.1313L202.144 13.1406L202.189 13.143L202.233 13.1377L202.276 13.1434L202.321 13.1439L202.362 13.1569L202.408 13.1556L202.45 13.1613L202.495 13.1654L202.538 13.1693L202.581 13.1826L202.623 13.1902L202.668 13.183L202.711 13.1945L202.756 13.2005L202.799 13.1912L202.844 13.1954L202.885 13.2161L202.929 13.2126L202.973 13.2241L203.017 13.2225L203.061 13.2285L203.105 13.2268L203.148 13.2402L203.191 13.244L203.235 13.2387L203.28 13.2429L203.322 13.2486L203.367 13.2528L203.409 13.2603L203.454 13.2645L203.497 13.2628L203.541 13.263L203.583 13.2837L203.628 13.286L203.67 13.2899L203.716 13.2791L203.759 13.2906L203.802 13.2926L203.847 13.2986L203.889 13.3043L203.933 13.314L203.978 13.305L204.021 13.3202L204.065 13.3131L204.107 13.3319L204.151 13.3303L204.193 13.3378L204.24 13.3328L204.281 13.3458L204.326 13.3482L204.37 13.3465L204.413 13.3504L204.456 13.3637L204.501 13.3529L204.545 13.3589L204.588 13.3759L204.632 13.3724L204.676 13.3708L204.719 13.3823L204.761 13.388L204.805 13.3882L204.849 13.3979L204.892 13.4075L204.937 13.4004L204.98 13.4024L205.022 13.4099L205.067 13.4123L205.11 13.4256L205.154 13.424L205.198 13.4242L205.241 13.4339L205.284 13.4414L205.328 13.4492L205.373 13.4366L205.415 13.4478L205.46 13.4501L205.503 13.4653L205.547 13.4618L205.59 13.4602L205.633 13.4753L205.678 13.4682L205.722 13.4742L205.765 13.4781L205.809 13.4783L205.851 13.4971L205.895 13.49L205.94 13.496L205.983 13.5093L206.027 13.5077L206.07 13.5079L206.113 13.523L206.158 13.5104L206.202 13.5219L206.244 13.5294L206.289 13.5299L206.333 13.5283L206.376 13.5321L206.42 13.5382L206.463 13.542L206.506 13.5572L206.55 13.565L206.595 13.5579L206.638 13.5599L206.683 13.5604L206.725 13.5811L206.768 13.5813L206.813 13.576L206.857 13.582L206.9 13.5858L206.944 13.5937L206.988 13.592L207.031 13.6017L207.074 13.6151L207.117 13.6189L207.162 13.6118L207.207 13.616L207.249 13.633L207.294 13.6258L207.335 13.637L207.38 13.6299L207.423 13.6451L207.467 13.6397L207.511 13.6494L207.556 13.6518L207.598 13.6593L207.642 13.6576L207.686 13.6673L207.73 13.6715L207.774 13.668L207.817 13.6719L207.862 13.6761L207.906 13.6839L207.947 13.6969L207.992 13.6898L208.035 13.6995L208.08 13.7055L208.12 13.7032Z" fill="#D9FFEF"/>
<mask id="path-23-inside-1_356_9412" fill="white">
<path d="M12.961 22.2948L12.9623 22.2554L12.9683 22.2111L12.9795 22.1695L12.9779 22.1258L12.9949 22.0834L12.9954 22.0381L12.9956 21.9946L13.0053 21.951L13.0054 21.9075L13.0151 21.8638L13.008 21.8191L13.0137 21.7766L13.027 21.7336L13.029 21.6904L13.0295 21.6451L13.0352 21.6026L13.0354 21.5592L13.0319 21.515L13.0471 21.4724L13.0436 21.4282L13.0514 21.3842L13.0553 21.3414L13.0521 21.2955L13.056 21.2527L13.0598 21.2098L13.064 21.1652L13.0865 21.1238L13.0794 21.079L13.0909 21.0357L13.0856 20.9913L13.0913 20.9488L13.0991 20.9048L13.0956 20.8607L13.1145 20.8186L13.1055 20.7735L13.1093 20.7307L13.1135 20.6861L13.1269 20.6431L13.1215 20.5986L13.1217 20.5551L13.1369 20.5125L13.1334 20.4683L13.1373 20.4255L13.1543 20.3832L13.1471 20.3384L13.1495 20.2934L13.1515 20.2503L13.1593 20.2063L13.1614 20.1631L13.1652 20.1203L13.1712 20.076L13.1751 20.0332L13.1884 19.9902L13.1963 19.9462L13.1964 19.9027L13.2043 19.8587L13.2008 19.8146L13.2047 19.7718L13.2033 19.7262L13.224 19.6845L13.2279 19.6417L13.2281 19.5982L13.2209 19.5534L13.2306 19.5097L13.2439 19.4667L13.2386 19.4223L13.252 19.3793L13.2411 19.3338L13.2432 19.2907L13.2657 19.2493L13.2604 19.2049L13.2719 19.1615L13.2647 19.1168L13.2649 19.0733L13.2727 19.0293L13.2729 18.9858L13.2899 18.9435L13.2901 18.9L13.2998 18.8563L13.2982 18.8126L13.3005 18.7676L13.3025 18.7244L13.3027 18.681L13.3142 18.6376L13.3184 18.593L13.3241 18.5505L13.3356 18.5072L13.3284 18.4624L13.3418 18.4194L13.3456 18.3766L13.3476 18.3334L13.3405 18.2886L13.3538 18.2456L13.358 18.201L13.3655 18.1588L13.3639 18.115L13.3717 18.071L13.3719 18.0276L13.3871 17.9849L13.3744 17.9391L13.3915 17.8968L13.3806 17.8513L13.3863 17.8089L13.396 17.7652L13.3944 17.7214L13.4132 17.6794L13.4115 17.6356L13.4231 17.5922L13.4269 17.5494L13.4238 17.5035L13.4368 17.4623L13.4336 17.4163L13.4411 17.3742L13.449 17.3302L13.4455 17.2861L13.4475 17.2429L13.4499 17.1979L13.4574 17.1558L13.4521 17.1113L13.4672 17.0687L13.4619 17.0242L13.4643 16.9792L13.4849 16.9375L13.487 16.8944L13.493 16.8501L13.4968 16.8073L13.486 16.7618L13.4902 16.7172L13.509 16.6751L13.5129 16.6323L13.5057 16.5876L13.5059 16.5441L13.5101 16.4994L13.5326 16.4581L13.5273 16.4136L13.5351 16.3696L13.5445 16.3278L13.5413 16.2818L13.536 16.2374L13.5454 16.1956L13.5532 16.1516L13.5479 16.1071L13.5576 16.0635L13.5746 16.0211L13.5601 15.975L13.5694 15.9332L13.5846 15.8905L13.583 15.8467L13.5945 15.8034L13.5818 15.7576L13.6007 15.7156L13.5917 15.6705L13.5959 15.6258L13.6071 15.5843L13.6167 15.5407L13.6151 15.4969L13.6229 15.4529L13.6158 15.4081L13.6291 15.3651L13.6348 15.3226L13.639 15.278L13.6355 15.2338L13.6434 15.1898L13.653 15.1462L13.6496 15.1021L13.6592 15.0584L13.6667 15.0162L13.6633 14.9721L13.6213 14.9741L13.5779 14.9626L13.5338 14.966L13.4911 14.9509L13.4463 14.958L13.4023 14.9502L13.3592 14.9481L13.3152 14.9403L13.2727 14.9346L13.229 14.9249L13.1855 14.9247L13.1425 14.9114L13.098 14.9167L13.0539 14.9202L13.0116 14.9032L12.9684 14.9012L12.9241 14.8951L12.8806 14.895L12.8372 14.8834L12.7947 14.8778L12.7496 14.8867L12.7066 14.8734L12.6631 14.8732L12.6182 14.8709L12.5757 14.8652L12.5317 14.8573L12.4892 14.8516L12.4442 14.8493L12.402 14.8418L12.3562 14.8544L12.3145 14.8337L12.2701 14.839L12.2269 14.837L12.1842 14.8218L12.1394 14.829L12.0958 14.8193L12.0513 14.8246L12.0083 14.8113L11.9661 14.8038L11.9221 14.7959L11.8786 14.7957L11.8337 14.7934L11.7892 14.7987L11.7465 14.7835L11.7033 14.7815L11.6595 14.7831L11.6172 14.7661L11.5717 14.7769L11.5277 14.7691L11.4849 14.7652L11.4422 14.7501L11.3978 14.7554L11.3541 14.7457L11.3113 14.7418L11.2668 14.7471L11.2231 14.7375L11.181 14.7299L11.1353 14.7313L11.0938 14.7201L11.0482 14.7214L11.0047 14.7212L10.9625 14.7137L10.9175 14.7113L10.8741 14.7112L10.8317 14.6941L10.7872 14.6995L10.7426 14.6953L10.6994 14.6933L10.6563 14.6912L10.6129 14.6797L10.5696 14.6682L10.5248 14.6754L10.4816 14.6733L10.4393 14.6563L10.3943 14.654L10.3511 14.652L10.308 14.6499L10.2646 14.6384L10.2205 14.6419L10.1767 14.6435L10.1321 14.6394L10.0887 14.6279L10.0459 14.624L10.0014 14.6293L9.95938 14.6105L9.9146 14.6176L9.86961 14.6153L9.82724 14.5982L9.78429 14.6057L9.73996 14.5997L9.69662 14.5882L9.65216 14.5935L9.60979 14.5765L9.56586 14.5895L9.52284 14.5761L9.48014 14.5609L9.4347 14.5718L9.39188 14.5679L9.3469 14.5656L9.3042 14.5504L9.26072 14.5502L9.21725 14.55L9.1741 14.548L9.13022 14.5288L9.08727 14.5363L9.04392 14.5248L8.99979 14.5282L8.95513 14.5241L8.91296 14.5165L8.86863 14.5105L8.82496 14.5009L8.78083 14.5043L8.738 14.5005L8.694 14.4926L8.64889 14.5016L8.6075 14.4791L8.56337 14.4826L8.52055 14.4787L8.47687 14.469L8.43222 14.4649L8.38743 14.472L8.34592 14.4608L8.30028 14.4621L8.2568 14.462L8.21476 14.4431L8.17043 14.4371L8.1265 14.4501L8.08152 14.4477L8.04013 14.4252L7.99502 14.4342L7.95297 14.4153L7.91015 14.4115L7.86517 14.4091L7.82202 14.4071L7.77658 14.4179L7.7329 14.4082L7.69139 14.3971L7.64575 14.3984L7.60326 14.3927L7.5586 14.3885L7.51479 14.3902L7.47243 14.3731L7.42895 14.373L7.38449 14.3783L7.34016 14.3723L7.29583 14.3662L7.25366 14.3587L7.21031 14.3472L7.16455 14.3599L7.12238 14.3523L7.07838 14.3445L7.03405 14.3385L6.99024 14.3401L6.94755 14.3249L6.9044 14.3229L6.86027 14.3264L6.81692 14.3149L6.77213 14.322L6.7278 14.316L6.68445 14.3045L6.6413 14.3025L6.59783 14.3023L6.5535 14.2963L6.51113 14.2793L6.46733 14.2809L6.42202 14.2804L6.37919 14.2766L6.33185 14.2662L6.33101 14.3134L6.32867 14.3583L6.31932 14.4002L6.31881 14.4455L6.31495 14.4883L6.30894 14.5326L6.30326 14.5751L6.29941 14.6179L6.2934 14.6622L6.29505 14.706L6.2872 14.75L6.28152 14.7925L6.27184 14.8362L6.27899 14.8809L6.26748 14.9243L6.26363 14.9671L6.25762 15.0114L6.25193 15.0539L6.24775 15.0985L6.2589 15.1421L6.24922 15.1858L6.2472 15.2289L6.23019 15.2713L6.24467 15.3174L6.22766 15.3597L6.22381 15.4025L6.21963 15.4472L6.22678 15.492L6.2211 15.5345L6.21325 15.5784L6.19624 15.6208L6.20706 15.6662L6.20504 15.7094L6.18803 15.7517L6.18385 15.7964L6.1855 15.8402L6.17615 15.882L6.18147 15.9265L6.16629 15.9691L6.16394 16.0141L6.15826 16.0566L6.15807 16.1001L6.14656 16.1434L6.14239 16.188L6.15137 16.2332L6.15118 16.2766L6.13967 16.32L6.13582 16.3628L6.13014 16.4053L6.11863 16.4486L6.12028 16.4924L6.11426 16.5367L6.11591 16.5805L6.1044 16.6238L6.10239 16.667L6.10004 16.712L6.09802 16.7551L6.09018 16.7991L6.08266 16.8412L6.09348 16.8867L6.0783 16.9294L6.08545 16.9741L6.07577 17.0178L6.06092 17.0587L6.05491 17.103L6.05656 17.1468L6.05055 17.1911L6.05036 17.2346L6.05018 17.278L6.04967 17.3233L6.03449 17.366L6.03247 17.4091L6.02463 17.4531L6.01711 17.4953L6.02059 17.5394L6.02774 17.5842L6.00706 17.6259L6.00655 17.6712L6.01554 17.7163L6.00618 17.7581L6.00384 17.8031L5.99999 17.8459L5.99214 17.8899L5.98646 17.9324L5.97312 17.9754L5.9711 18.0186L5.97641 18.063L5.96674 18.1067L5.95889 18.1507L5.96604 18.1954L5.96402 18.2386L5.96017 18.2814L5.94683 18.3244L5.93715 18.3681L5.93697 18.4115L5.94045 18.4557L5.9381 18.5006L5.93242 18.5431L5.91541 18.5855L5.91522 18.6289L5.91471 18.6742L5.9017 18.7154L5.90485 18.7614L5.89367 18.8029L5.89532 18.8467L5.89297 18.8916L5.88362 18.9335L5.89077 18.9783L5.88109 19.0219L5.88274 19.0657L5.8749 19.1097L5.87105 19.1525L5.8577 19.1955L5.86485 19.2403L5.84967 19.283L5.85132 19.3268L5.8548 19.3709L5.84146 19.4139L5.84095 19.4592L5.8316 19.501L5.83691 19.5455L5.82907 19.5895L5.82122 19.6335L5.81921 19.6766L5.82269 19.7207L5.81118 19.7641L5.8015 19.8077L5.80865 19.8525L5.80297 19.895L5.79145 19.9383L5.7876 19.9812L5.78159 20.0255L5.78874 20.0703L5.78489 20.1131L5.77705 20.1571L5.77104 20.2014L5.76718 20.2442L5.76117 20.2885L5.74999 20.33L5.75131 20.3756L5.74013 20.4172L5.74911 20.4623L5.74493 20.5069L5.73525 20.5506L5.72957 20.5931L5.73122 20.6368L5.72704 20.6815L5.72136 20.724L5.72268 20.7696L5.7075 20.8123L5.71098 20.8564L5.69581 20.8991L5.69746 20.9429L5.69544 20.986L5.68393 21.0294L5.69291 21.0745L5.67773 21.1172L5.67755 21.1606L5.67704 21.2059L5.66002 21.2483L5.67267 21.294L5.66699 21.3365L5.65181 21.3792L5.6608 21.4243L5.64928 21.4677L5.64543 21.5105L5.63942 21.5548L5.64205 21.5931L5.67709 21.6088L5.72142 21.6148L5.76653 21.6058L5.80968 21.6078L5.85139 21.6285L5.89605 21.6327L5.93965 21.6216L5.98366 21.6294L6.02681 21.6314L6.0695 21.6466L6.11383 21.6526L6.15731 21.6528L6.20131 21.6607L6.24642 21.6517L6.28879 21.6687L6.33358 21.6615L6.37607 21.6672L6.4204 21.6732L6.4629 21.6789L6.50625 21.6904L6.55103 21.6833L6.59255 21.6945L6.6372 21.6987L6.68231 21.6897L6.72481 21.6954L6.76914 21.7014L6.81151 21.7184L6.85629 21.7113L6.89781 21.7224L6.94312 21.723L6.98496 21.7323L7.02995 21.7347L7.0744 21.7293L7.1169 21.735L7.16221 21.7355L7.2034 21.7486L7.24904 21.7472L7.29153 21.7529L7.33619 21.7571L7.37901 21.761L7.42203 21.7743L7.4642 21.7818L7.50899 21.7747L7.55234 21.7862L7.59667 21.7922L7.63994 21.7829L7.6846 21.7871L7.72632 21.8078L7.77045 21.8043L7.8138 21.8158L7.8576 21.8142L7.90193 21.8202L7.94573 21.8185L7.98875 21.8319L8.03158 21.8357L8.07604 21.8304L8.12069 21.8346L8.16319 21.8403L8.20785 21.8445L8.25001 21.852L8.29467 21.8562L8.33847 21.8545L8.38195 21.8547L8.42367 21.8754L8.46865 21.8777L8.51147 21.8816L8.55691 21.8708L8.60026 21.8823L8.64341 21.8843L8.68774 21.8903L8.73024 21.896L8.77391 21.9057L8.81902 21.8967L8.86172 21.9119L8.9065 21.9047L8.94855 21.9236L8.99235 21.9219L9.03452 21.9295L9.08081 21.9245L9.122 21.9375L9.16698 21.9398L9.21079 21.9382L9.25361 21.942L9.29663 21.9554L9.34207 21.9446L9.3864 21.9506L9.42877 21.9676L9.4729 21.9641L9.5167 21.9625L9.56005 21.974L9.60255 21.9797L9.64602 21.9799L9.6897 21.9895L9.73338 21.9992L9.77816 21.9921L9.82131 21.9941L9.86348 22.0016L9.90846 22.004L9.95148 22.0173L9.99529 22.0157L10.0388 22.0159L10.0824 22.0255L10.1246 22.0331L10.1686 22.0409L10.2144 22.0283L10.2559 22.0394L10.3009 22.0418L10.3436 22.057L10.3877 22.0535L10.4315 22.0518L10.4742 22.067L10.519 22.0599L10.5633 22.0659L10.6061 22.0697L10.6496 22.0699L10.6917 22.0888L10.7364 22.0816L10.7808 22.0876L10.8238 22.101L10.8676 22.0993L10.9111 22.0995L10.9538 22.1147L10.9995 22.1021L11.0429 22.1136L11.0851 22.1211L11.1304 22.1216L11.1742 22.12L11.217 22.1238L11.2613 22.1298L11.3041 22.1337L11.3468 22.1489L11.3908 22.1567L11.4356 22.1496L11.4788 22.1516L11.5241 22.1521L11.5658 22.1728L11.6093 22.173L11.6537 22.1677L11.6981 22.1737L11.7409 22.1775L11.7849 22.1854L11.8287 22.1837L11.8724 22.1934L11.9154 22.2067L11.9582 22.2106L12.003 22.2035L12.0477 22.2076L12.09 22.2247L12.1348 22.2175L12.1763 22.2287L12.2211 22.2215L12.2638 22.2367L12.3083 22.2314L12.3519 22.2411L12.3969 22.2434L12.4391 22.251L12.4829 22.2493L12.5266 22.259L12.5712 22.2632L12.6154 22.2597L12.6582 22.2635L12.7028 22.2677L12.7468 22.2756L12.788 22.2886L12.8328 22.2815L12.8765 22.2911L12.9208 22.2971L12.961 22.2948Z"/>
</mask>
<path d="M12.961 22.2948L12.9623 22.2554L12.9683 22.2111L12.9795 22.1695L12.9779 22.1258L12.9949 22.0834L12.9954 22.0381L12.9956 21.9946L13.0053 21.951L13.0054 21.9075L13.0151 21.8638L13.008 21.8191L13.0137 21.7766L13.027 21.7336L13.029 21.6904L13.0295 21.6451L13.0352 21.6026L13.0354 21.5592L13.0319 21.515L13.0471 21.4724L13.0436 21.4282L13.0514 21.3842L13.0553 21.3414L13.0521 21.2955L13.056 21.2527L13.0598 21.2098L13.064 21.1652L13.0865 21.1238L13.0794 21.079L13.0909 21.0357L13.0856 20.9913L13.0913 20.9488L13.0991 20.9048L13.0956 20.8607L13.1145 20.8186L13.1055 20.7735L13.1093 20.7307L13.1135 20.6861L13.1269 20.6431L13.1215 20.5986L13.1217 20.5551L13.1369 20.5125L13.1334 20.4683L13.1373 20.4255L13.1543 20.3832L13.1471 20.3384L13.1495 20.2934L13.1515 20.2503L13.1593 20.2063L13.1614 20.1631L13.1652 20.1203L13.1712 20.076L13.1751 20.0332L13.1884 19.9902L13.1963 19.9462L13.1964 19.9027L13.2043 19.8587L13.2008 19.8146L13.2047 19.7718L13.2033 19.7262L13.224 19.6845L13.2279 19.6417L13.2281 19.5982L13.2209 19.5534L13.2306 19.5097L13.2439 19.4667L13.2386 19.4223L13.252 19.3793L13.2411 19.3338L13.2432 19.2907L13.2657 19.2493L13.2604 19.2049L13.2719 19.1615L13.2647 19.1168L13.2649 19.0733L13.2727 19.0293L13.2729 18.9858L13.2899 18.9435L13.2901 18.9L13.2998 18.8563L13.2982 18.8126L13.3005 18.7676L13.3025 18.7244L13.3027 18.681L13.3142 18.6376L13.3184 18.593L13.3241 18.5505L13.3356 18.5072L13.3284 18.4624L13.3418 18.4194L13.3456 18.3766L13.3476 18.3334L13.3405 18.2886L13.3538 18.2456L13.358 18.201L13.3655 18.1588L13.3639 18.115L13.3717 18.071L13.3719 18.0276L13.3871 17.9849L13.3744 17.9391L13.3915 17.8968L13.3806 17.8513L13.3863 17.8089L13.396 17.7652L13.3944 17.7214L13.4132 17.6794L13.4115 17.6356L13.4231 17.5922L13.4269 17.5494L13.4238 17.5035L13.4368 17.4623L13.4336 17.4163L13.4411 17.3742L13.449 17.3302L13.4455 17.2861L13.4475 17.2429L13.4499 17.1979L13.4574 17.1558L13.4521 17.1113L13.4672 17.0687L13.4619 17.0242L13.4643 16.9792L13.4849 16.9375L13.487 16.8944L13.493 16.8501L13.4968 16.8073L13.486 16.7618L13.4902 16.7172L13.509 16.6751L13.5129 16.6323L13.5057 16.5876L13.5059 16.5441L13.5101 16.4994L13.5326 16.4581L13.5273 16.4136L13.5351 16.3696L13.5445 16.3278L13.5413 16.2818L13.536 16.2374L13.5454 16.1956L13.5532 16.1516L13.5479 16.1071L13.5576 16.0635L13.5746 16.0211L13.5601 15.975L13.5694 15.9332L13.5846 15.8905L13.583 15.8467L13.5945 15.8034L13.5818 15.7576L13.6007 15.7156L13.5917 15.6705L13.5959 15.6258L13.6071 15.5843L13.6167 15.5407L13.6151 15.4969L13.6229 15.4529L13.6158 15.4081L13.6291 15.3651L13.6348 15.3226L13.639 15.278L13.6355 15.2338L13.6434 15.1898L13.653 15.1462L13.6496 15.1021L13.6592 15.0584L13.6667 15.0162L13.6633 14.9721L13.6213 14.9741L13.5779 14.9626L13.5338 14.966L13.4911 14.9509L13.4463 14.958L13.4023 14.9502L13.3592 14.9481L13.3152 14.9403L13.2727 14.9346L13.229 14.9249L13.1855 14.9247L13.1425 14.9114L13.098 14.9167L13.0539 14.9202L13.0116 14.9032L12.9684 14.9012L12.9241 14.8951L12.8806 14.895L12.8372 14.8834L12.7947 14.8778L12.7496 14.8867L12.7066 14.8734L12.6631 14.8732L12.6182 14.8709L12.5757 14.8652L12.5317 14.8573L12.4892 14.8516L12.4442 14.8493L12.402 14.8418L12.3562 14.8544L12.3145 14.8337L12.2701 14.839L12.2269 14.837L12.1842 14.8218L12.1394 14.829L12.0958 14.8193L12.0513 14.8246L12.0083 14.8113L11.9661 14.8038L11.9221 14.7959L11.8786 14.7957L11.8337 14.7934L11.7892 14.7987L11.7465 14.7835L11.7033 14.7815L11.6595 14.7831L11.6172 14.7661L11.5717 14.7769L11.5277 14.7691L11.4849 14.7652L11.4422 14.7501L11.3978 14.7554L11.3541 14.7457L11.3113 14.7418L11.2668 14.7471L11.2231 14.7375L11.181 14.7299L11.1353 14.7313L11.0938 14.7201L11.0482 14.7214L11.0047 14.7212L10.9625 14.7137L10.9175 14.7113L10.8741 14.7112L10.8317 14.6941L10.7872 14.6995L10.7426 14.6953L10.6994 14.6933L10.6563 14.6912L10.6129 14.6797L10.5696 14.6682L10.5248 14.6754L10.4816 14.6733L10.4393 14.6563L10.3943 14.654L10.3511 14.652L10.308 14.6499L10.2646 14.6384L10.2205 14.6419L10.1767 14.6435L10.1321 14.6394L10.0887 14.6279L10.0459 14.624L10.0014 14.6293L9.95938 14.6105L9.9146 14.6176L9.86961 14.6153L9.82724 14.5982L9.78429 14.6057L9.73996 14.5997L9.69662 14.5882L9.65216 14.5935L9.60979 14.5765L9.56586 14.5895L9.52284 14.5761L9.48014 14.5609L9.4347 14.5718L9.39188 14.5679L9.3469 14.5656L9.3042 14.5504L9.26072 14.5502L9.21725 14.55L9.1741 14.548L9.13022 14.5288L9.08727 14.5363L9.04392 14.5248L8.99979 14.5282L8.95513 14.5241L8.91296 14.5165L8.86863 14.5105L8.82496 14.5009L8.78083 14.5043L8.738 14.5005L8.694 14.4926L8.64889 14.5016L8.6075 14.4791L8.56337 14.4826L8.52055 14.4787L8.47687 14.469L8.43222 14.4649L8.38743 14.472L8.34592 14.4608L8.30028 14.4621L8.2568 14.462L8.21476 14.4431L8.17043 14.4371L8.1265 14.4501L8.08152 14.4477L8.04013 14.4252L7.99502 14.4342L7.95297 14.4153L7.91015 14.4115L7.86517 14.4091L7.82202 14.4071L7.77658 14.4179L7.7329 14.4082L7.69139 14.3971L7.64575 14.3984L7.60326 14.3927L7.5586 14.3885L7.51479 14.3902L7.47243 14.3731L7.42895 14.373L7.38449 14.3783L7.34016 14.3723L7.29583 14.3662L7.25366 14.3587L7.21031 14.3472L7.16455 14.3599L7.12238 14.3523L7.07838 14.3445L7.03405 14.3385L6.99024 14.3401L6.94755 14.3249L6.9044 14.3229L6.86027 14.3264L6.81692 14.3149L6.77213 14.322L6.7278 14.316L6.68445 14.3045L6.6413 14.3025L6.59783 14.3023L6.5535 14.2963L6.51113 14.2793L6.46733 14.2809L6.42202 14.2804L6.37919 14.2766L6.33185 14.2662L6.33101 14.3134L6.32867 14.3583L6.31932 14.4002L6.31881 14.4455L6.31495 14.4883L6.30894 14.5326L6.30326 14.5751L6.29941 14.6179L6.2934 14.6622L6.29505 14.706L6.2872 14.75L6.28152 14.7925L6.27184 14.8362L6.27899 14.8809L6.26748 14.9243L6.26363 14.9671L6.25762 15.0114L6.25193 15.0539L6.24775 15.0985L6.2589 15.1421L6.24922 15.1858L6.2472 15.2289L6.23019 15.2713L6.24467 15.3174L6.22766 15.3597L6.22381 15.4025L6.21963 15.4472L6.22678 15.492L6.2211 15.5345L6.21325 15.5784L6.19624 15.6208L6.20706 15.6662L6.20504 15.7094L6.18803 15.7517L6.18385 15.7964L6.1855 15.8402L6.17615 15.882L6.18147 15.9265L6.16629 15.9691L6.16394 16.0141L6.15826 16.0566L6.15807 16.1001L6.14656 16.1434L6.14239 16.188L6.15137 16.2332L6.15118 16.2766L6.13967 16.32L6.13582 16.3628L6.13014 16.4053L6.11863 16.4486L6.12028 16.4924L6.11426 16.5367L6.11591 16.5805L6.1044 16.6238L6.10239 16.667L6.10004 16.712L6.09802 16.7551L6.09018 16.7991L6.08266 16.8412L6.09348 16.8867L6.0783 16.9294L6.08545 16.9741L6.07577 17.0178L6.06092 17.0587L6.05491 17.103L6.05656 17.1468L6.05055 17.1911L6.05036 17.2346L6.05018 17.278L6.04967 17.3233L6.03449 17.366L6.03247 17.4091L6.02463 17.4531L6.01711 17.4953L6.02059 17.5394L6.02774 17.5842L6.00706 17.6259L6.00655 17.6712L6.01554 17.7163L6.00618 17.7581L6.00384 17.8031L5.99999 17.8459L5.99214 17.8899L5.98646 17.9324L5.97312 17.9754L5.9711 18.0186L5.97641 18.063L5.96674 18.1067L5.95889 18.1507L5.96604 18.1954L5.96402 18.2386L5.96017 18.2814L5.94683 18.3244L5.93715 18.3681L5.93697 18.4115L5.94045 18.4557L5.9381 18.5006L5.93242 18.5431L5.91541 18.5855L5.91522 18.6289L5.91471 18.6742L5.9017 18.7154L5.90485 18.7614L5.89367 18.8029L5.89532 18.8467L5.89297 18.8916L5.88362 18.9335L5.89077 18.9783L5.88109 19.0219L5.88274 19.0657L5.8749 19.1097L5.87105 19.1525L5.8577 19.1955L5.86485 19.2403L5.84967 19.283L5.85132 19.3268L5.8548 19.3709L5.84146 19.4139L5.84095 19.4592L5.8316 19.501L5.83691 19.5455L5.82907 19.5895L5.82122 19.6335L5.81921 19.6766L5.82269 19.7207L5.81118 19.7641L5.8015 19.8077L5.80865 19.8525L5.80297 19.895L5.79145 19.9383L5.7876 19.9812L5.78159 20.0255L5.78874 20.0703L5.78489 20.1131L5.77705 20.1571L5.77104 20.2014L5.76718 20.2442L5.76117 20.2885L5.74999 20.33L5.75131 20.3756L5.74013 20.4172L5.74911 20.4623L5.74493 20.5069L5.73525 20.5506L5.72957 20.5931L5.73122 20.6368L5.72704 20.6815L5.72136 20.724L5.72268 20.7696L5.7075 20.8123L5.71098 20.8564L5.69581 20.8991L5.69746 20.9429L5.69544 20.986L5.68393 21.0294L5.69291 21.0745L5.67773 21.1172L5.67755 21.1606L5.67704 21.2059L5.66002 21.2483L5.67267 21.294L5.66699 21.3365L5.65181 21.3792L5.6608 21.4243L5.64928 21.4677L5.64543 21.5105L5.63942 21.5548L5.64205 21.5931L5.67709 21.6088L5.72142 21.6148L5.76653 21.6058L5.80968 21.6078L5.85139 21.6285L5.89605 21.6327L5.93965 21.6216L5.98366 21.6294L6.02681 21.6314L6.0695 21.6466L6.11383 21.6526L6.15731 21.6528L6.20131 21.6607L6.24642 21.6517L6.28879 21.6687L6.33358 21.6615L6.37607 21.6672L6.4204 21.6732L6.4629 21.6789L6.50625 21.6904L6.55103 21.6833L6.59255 21.6945L6.6372 21.6987L6.68231 21.6897L6.72481 21.6954L6.76914 21.7014L6.81151 21.7184L6.85629 21.7113L6.89781 21.7224L6.94312 21.723L6.98496 21.7323L7.02995 21.7347L7.0744 21.7293L7.1169 21.735L7.16221 21.7355L7.2034 21.7486L7.24904 21.7472L7.29153 21.7529L7.33619 21.7571L7.37901 21.761L7.42203 21.7743L7.4642 21.7818L7.50899 21.7747L7.55234 21.7862L7.59667 21.7922L7.63994 21.7829L7.6846 21.7871L7.72632 21.8078L7.77045 21.8043L7.8138 21.8158L7.8576 21.8142L7.90193 21.8202L7.94573 21.8185L7.98875 21.8319L8.03158 21.8357L8.07604 21.8304L8.12069 21.8346L8.16319 21.8403L8.20785 21.8445L8.25001 21.852L8.29467 21.8562L8.33847 21.8545L8.38195 21.8547L8.42367 21.8754L8.46865 21.8777L8.51147 21.8816L8.55691 21.8708L8.60026 21.8823L8.64341 21.8843L8.68774 21.8903L8.73024 21.896L8.77391 21.9057L8.81902 21.8967L8.86172 21.9119L8.9065 21.9047L8.94855 21.9236L8.99235 21.9219L9.03452 21.9295L9.08081 21.9245L9.122 21.9375L9.16698 21.9398L9.21079 21.9382L9.25361 21.942L9.29663 21.9554L9.34207 21.9446L9.3864 21.9506L9.42877 21.9676L9.4729 21.9641L9.5167 21.9625L9.56005 21.974L9.60255 21.9797L9.64602 21.9799L9.6897 21.9895L9.73338 21.9992L9.77816 21.9921L9.82131 21.9941L9.86348 22.0016L9.90846 22.004L9.95148 22.0173L9.99529 22.0157L10.0388 22.0159L10.0824 22.0255L10.1246 22.0331L10.1686 22.0409L10.2144 22.0283L10.2559 22.0394L10.3009 22.0418L10.3436 22.057L10.3877 22.0535L10.4315 22.0518L10.4742 22.067L10.519 22.0599L10.5633 22.0659L10.6061 22.0697L10.6496 22.0699L10.6917 22.0888L10.7364 22.0816L10.7808 22.0876L10.8238 22.101L10.8676 22.0993L10.9111 22.0995L10.9538 22.1147L10.9995 22.1021L11.0429 22.1136L11.0851 22.1211L11.1304 22.1216L11.1742 22.12L11.217 22.1238L11.2613 22.1298L11.3041 22.1337L11.3468 22.1489L11.3908 22.1567L11.4356 22.1496L11.4788 22.1516L11.5241 22.1521L11.5658 22.1728L11.6093 22.173L11.6537 22.1677L11.6981 22.1737L11.7409 22.1775L11.7849 22.1854L11.8287 22.1837L11.8724 22.1934L11.9154 22.2067L11.9582 22.2106L12.003 22.2035L12.0477 22.2076L12.09 22.2247L12.1348 22.2175L12.1763 22.2287L12.2211 22.2215L12.2638 22.2367L12.3083 22.2314L12.3519 22.2411L12.3969 22.2434L12.4391 22.251L12.4829 22.2493L12.5266 22.259L12.5712 22.2632L12.6154 22.2597L12.6582 22.2635L12.7028 22.2677L12.7468 22.2756L12.788 22.2886L12.8328 22.2815L12.8765 22.2911L12.9208 22.2971L12.961 22.2948Z" fill="#CDFFFE" stroke="black" stroke-width="2" mask="url(#path-23-inside-1_356_9412)"/>
<path d="M19.0126 28.2158L19.0361 28.2048L19.0637 28.1951L19.0913 28.1892L19.1164 28.1752L19.1462 28.1724L19.1728 28.1592L19.1982 28.1464L19.2266 28.139L19.2521 28.1261L19.2804 28.1187L19.3045 28.1012L19.331 28.0918L19.3601 28.0868L19.3859 28.0751L19.4125 28.0618L19.439 28.0525L19.4644 28.0396L19.4891 28.0244L19.5186 28.0205L19.5433 28.0053L19.5713 27.9968L19.5975 27.9862L19.6234 27.9707L19.6495 27.9601L19.6757 27.9496L19.703 27.9387L19.7339 27.9395L19.7579 27.922L19.7866 27.9157L19.811 27.8994L19.8375 27.89L19.8655 27.8815L19.8902 27.8662L19.9204 27.8647L19.9441 27.846L19.9702 27.8355L19.9975 27.8246L20.0266 27.8195L20.051 27.8032L20.0764 27.7903L20.1059 27.7864L20.1306 27.7712L20.1568 27.7607L20.1866 27.758L20.2106 27.7404L20.2375 27.7284L20.2633 27.7167L20.2914 27.7081L20.3172 27.6964L20.3433 27.6859L20.371 27.6761L20.3971 27.6656L20.4262 27.6606L20.4543 27.652L20.4797 27.6391L20.5077 27.6306L20.5325 27.6154L20.5586 27.6049L20.5848 27.5905L20.6154 27.5901L20.6415 27.5796L20.667 27.5667L20.691 27.5491L20.7194 27.5418L20.7485 27.5367L20.7728 27.5203L20.8019 27.5153L20.8252 27.4954L20.851 27.4837L20.8819 27.4845L20.9063 27.4681L20.935 27.4619L20.959 27.4444L20.9844 27.4315L21.0125 27.4229L21.0379 27.4101L21.0677 27.4074L21.0932 27.3945L21.1215 27.3871L21.1466 27.3731L21.1736 27.361L21.1994 27.3493L21.2248 27.3365L21.2536 27.3302L21.2809 27.3193L21.3074 27.31L21.3361 27.3038L21.3601 27.2862L21.3892 27.2812L21.4154 27.2706L21.4412 27.2589L21.4652 27.2414L21.4943 27.2364L21.5216 27.2255L21.5485 27.2173L21.5735 27.2032L21.6016 27.1947L21.627 27.1818L21.6565 27.1779L21.6794 27.1569L21.7092 27.1542L21.7325 27.1343L21.759 27.1249L21.7874 27.1175L21.8125 27.1035L21.8427 27.102L21.8677 27.0879L21.8965 27.0817L21.9226 27.0712L21.9485 27.0556L21.9764 27.0509L22.0023 27.0354L22.0292 27.0272L22.0572 27.0186L22.082 27.0034L22.1077 26.9917L22.1347 26.9796L22.1616 26.9715L22.1859 26.9551L22.2154 26.9512L22.2398 26.9348L22.2667 26.9228L22.2972 26.9224L22.323 26.9107L22.3507 26.901L22.3769 26.8904L22.4002 26.8706L22.4275 26.8597L22.4576 26.8581L22.4838 26.8476L22.5078 26.8301L22.5332 26.8172L22.5605 26.8063L22.5914 26.8071L22.6158 26.7907L22.6438 26.7822L22.671 26.7751L22.6969 26.7596L22.7213 26.7432L22.7485 26.7362L22.7766 26.7276L22.8009 26.7112L22.8293 26.7039L22.8591 26.7011L22.8817 26.6789L22.9089 26.6719L22.9384 26.668L22.9635 26.654L22.9922 26.6478L23.0151 26.6267L23.0453 26.6252L23.069 26.6065L23.0963 26.5956L23.1239 26.5897L23.1522 26.5823L23.1773 26.5683L23.2053 26.5598L23.2294 26.5422L23.2585 26.5372L23.285 26.5278L23.3123 26.5169L23.337 26.5017L23.365 26.4932L23.3934 26.4858L23.4181 26.4706L23.4465 26.4632L23.4734 26.455L23.4981 26.4398L23.4844 26.4159L23.4782 26.3871L23.463 26.3624L23.4591 26.3329L23.4416 26.3089L23.433 26.2809L23.4213 26.2551L23.4128 26.227L23.4034 26.2005L23.396 26.1721L23.3831 26.1467L23.3781 26.1176L23.3617 26.0932L23.3465 26.0685L23.3438 26.0387L23.3321 26.0129L23.3224 25.9852L23.3095 25.9597L23.3033 25.931L23.2939 25.9045L23.2752 25.8808L23.2702 25.8517L23.2573 25.8263L23.2452 25.7993L23.2359 25.7728L23.2273 25.7447L23.2179 25.7182L23.2059 25.6913L23.1977 25.6644L23.1766 25.6414L23.1763 25.6109L23.1599 25.5865L23.1482 25.5607L23.1443 25.5313L23.1268 25.5073L23.1194 25.4789L23.103 25.4545L23.098 25.4254L23.0898 25.3985L23.0812 25.3705L23.0683 25.345L23.0563 25.3181L23.0399 25.2937L23.036 25.2642L23.0243 25.2384L23.0103 25.2134L23.0076 25.1835L22.9877 25.1602L22.9791 25.1322L22.9686 25.106L22.9647 25.0766L22.9483 25.0522L22.941 25.0238L22.9304 24.9977L22.914 24.9733L22.9067 24.9449L22.8985 24.918L22.8841 24.8918L22.8782 24.8642L22.8638 24.8379L22.8509 24.8125L22.8427 24.7856L22.8307 24.7587L22.8178 24.7332L22.8151 24.7034L22.7987 24.679L22.7878 24.6517L22.7761 24.6259L22.7644 24.6001L22.7582 24.5714L22.752 24.5426L22.7345 24.5186L22.7228 24.4928L22.72 24.463L22.708 24.436L22.6963 24.4102L22.6846 24.3844L22.6784 24.3557L22.6632 24.3309L22.6491 24.3058L22.6382 24.2785L22.632 24.2498L22.6215 24.2236L22.6051 24.1992L22.6036 24.1691L22.586 24.145L22.574 24.1181L22.5712 24.0883L22.5541 24.0654L22.5443 24.0377L22.5381 24.009L22.5217 23.9846L22.519 23.9548L22.4983 23.933L22.4933 23.9039L22.4894 23.8744L22.4695 23.8511L22.459 23.825L22.4469 23.798L22.443 23.7686L22.4302 23.7431L22.4173 23.7177L22.4056 23.6919L22.4037 23.6605L22.3865 23.6377L22.3803 23.6089L22.3651 23.5842L22.3542 23.5569L22.346 23.53L22.3363 23.5023L22.3289 23.4739L22.3137 23.4492L22.3032 23.4231L22.2946 23.395L22.2759 23.3714L22.2767 23.3405L22.2615 23.3157L22.2509 23.2896L22.2436 23.2612L22.2327 23.2339L22.2151 23.2098L22.2093 23.1823L22.1949 23.156L22.182 23.1306L22.1804 23.1004L22.1707 23.0727L22.15 23.0509L22.138 23.024L22.1388 22.9931L22.1201 22.9694L22.1185 22.9392L22.108 22.9131L22.0959 22.8861L22.0842 22.8603L22.0643 22.837L22.057 22.8086L22.0511 22.781L22.0367 22.7548L22.0273 22.7283L22.0164 22.701L22.0024 22.6759L21.9997 22.6461L21.9868 22.6206L21.9704 22.5962L21.9607 22.5686L21.951 22.5409L21.9428 22.514L21.9366 22.4853L21.9155 22.4623L21.9073 22.4354L21.8988 22.4074L21.8891 22.3797L21.875 22.3546L21.8711 22.3252L21.8594 22.2994L21.8442 22.2746L21.838 22.2459L21.8205 22.2219L21.8107 22.1942L21.8045 22.1655L21.7928 22.1397L21.78 22.1142L21.7702 22.0865L21.7675 22.0567L21.7535 22.0316L21.7403 22.005L21.7297 21.9789L21.7216 21.9481L21.6939 21.9617L21.6669 21.9738L21.6397 21.9808L21.6131 21.994L21.5869 22.0046L21.5592 22.0143L21.5327 22.0236L21.5066 22.0342L21.4789 22.0439L21.4538 22.0579L21.4258 22.0665L21.3993 22.0758L21.3709 22.0832L21.3469 22.1008L21.3182 22.107L21.292 22.1175L21.2643 22.1272L21.2378 22.1366L21.2105 22.1475L21.1884 22.167L21.16 22.1744L21.1342 22.1861L21.1044 22.1888L21.0818 22.211L21.052 22.2137L21.0259 22.2243L20.9985 22.2352L20.9745 22.2527L20.948 22.2621L20.92 22.2706L20.8902 22.2733L20.8669 22.2932L20.8411 22.3049L20.8113 22.3076L20.784 22.3185L20.7589 22.3326L20.7317 22.3396L20.7073 22.356L20.6778 22.3598L20.6509 22.3719L20.6244 22.3813L20.5989 22.3941L20.5702 22.4003L20.5429 22.4112L20.5192 22.4299L20.4938 22.4428L20.465 22.449L20.4389 22.4596L20.4124 22.4689L20.3837 22.4751L20.3586 22.4892L20.3309 22.4989L20.3058 22.5129L20.2771 22.5191L20.2513 22.5308L20.2243 22.5429L20.1985 22.5546L20.1705 22.5632L20.1436 22.5714L20.1203 22.5912L20.0909 22.5951L20.0669 22.6127L20.0385 22.62L20.0102 22.6236L19.9825 22.6333L19.9574 22.6473L19.9298 22.657L19.9043 22.6699L19.8789 22.6828L19.8523 22.696L19.8228 22.6999L19.7971 22.7116L19.769 22.7201L19.7422 22.7283L19.7174 22.7435L19.6934 22.7611L19.6629 22.7615L19.6363 22.7747L19.6126 22.7934L19.5854 22.8004L19.5585 22.8125L19.5323 22.823L19.5043 22.8316L19.4778 22.8409L19.4487 22.846L19.4229 22.8577L19.3985 22.874L19.3701 22.8814L19.3421 22.89L19.3181 22.9075L19.2923 22.9192L19.2662 22.9298L19.2371 22.9348L19.2087 22.9422L19.1832 22.9551L19.1585 22.9703L19.1316 22.9823L19.105 22.9917L19.0752 22.9944L19.0498 23.0073L19.0232 23.0205L18.9953 23.0252L18.9694 23.0407L18.9418 23.0466L18.9167 23.0606L18.8898 23.0727L18.8625 23.0797L18.8385 23.0973L18.8101 23.1047L18.7851 23.1187L18.757 23.1272L18.7309 23.1378L18.7018 23.1428L18.6778 23.1604L18.6483 23.1642L18.6232 23.1783L18.5985 23.1935L18.5694 23.1985L18.5428 23.2118L18.5156 23.2188L18.4912 23.2352L18.4632 23.2437L18.4352 23.2523L18.4094 23.264L18.3847 23.2792L18.3559 23.2854L18.3275 23.2928L18.3035 23.3103L18.277 23.3197L18.2483 23.3259L18.2221 23.3364L18.1944 23.3462L18.1704 23.3637L18.1443 23.3742L18.1163 23.3828L18.0886 23.3925L18.0624 23.403L18.0348 23.4128L18.0072 23.4186L17.9809 23.433L17.9534 23.4389L17.9297 23.4576L17.9024 23.4685L17.874 23.4759L17.8475 23.4852L17.8224 23.4993L17.7951 23.5101L17.7686 23.5195L17.7423 23.5339L17.7129 23.5378L17.6882 23.553L17.6587 23.5569L17.6336 23.5709L17.6078 23.5826L17.5791 23.5888L17.5554 23.6075L17.526 23.6114L17.5006 23.6243L17.474 23.6375L17.4441 23.6402L17.4212 23.6613L17.3947 23.6706L17.3652 23.6745L17.3416 23.6932L17.3128 23.6994L17.2867 23.71L17.259 23.7197L17.2374 23.7327L17.2387 23.7578L17.2485 23.7855L17.2672 23.8091L17.2789 23.8349L17.2792 23.8655L17.2901 23.8928L17.3097 23.9149L17.3182 23.943L17.3299 23.9688L17.3338 23.9982L17.3435 24.0259L17.3564 24.0513L17.3649 24.0794L17.3837 24.103L17.3864 24.1329L17.4039 24.1569L17.4133 24.1834L17.423 24.2111L17.4324 24.2376L17.4386 24.2663L17.4561 24.2904L17.462 24.3179L17.4729 24.3453L17.4916 24.3689L17.501 24.3954L17.5107 24.4231L17.5134 24.4529L17.5309 24.4769L17.5368 24.5045L17.55 24.5311L17.557 24.5584L17.5691 24.5853L17.5855 24.6097L17.5948 24.6362L17.6081 24.6628L17.6128 24.6908L17.6272 24.717L17.6365 24.7435L17.6474 24.7709L17.658 24.797L17.663 24.8261L17.6712 24.853L17.6887 24.877L17.695 24.9057L17.7047 24.9334L17.723 24.9559L17.7339 24.9832L17.7343 25.0138L17.7495 25.0385L17.7557 25.0673L17.7698 25.0923L17.7795 25.12L17.7935 25.1451L17.7986 25.1742L17.8091 25.2004L17.8255 25.2247L17.8364 25.2521L17.8457 25.2786L17.8566 25.3059L17.8648 25.3328L17.8757 25.3601L17.8898 25.3852L17.9026 25.4106L17.903 25.4412L17.9151 25.4681L17.9256 25.4943L17.9455 25.5176L17.9517 25.5463L17.9634 25.5721L17.9731 25.5998L17.9825 25.6263L17.9899 25.6547L18.0086 25.6784L18.0125 25.7078L18.03 25.7319L18.0316 25.762L18.0456 25.7871L18.0538 25.814L18.0705 25.8395L18.0752 25.8675L18.0873 25.8944L18.1013 25.9195L18.1118 25.9457L18.1169 25.9748L18.1368 25.9981L18.1465 26.0258L18.1492 26.0556L18.1644 26.0803L18.1785 26.1054L18.1847 26.1341L18.194 26.1607L18.2069 26.1861L18.2143 26.2145L18.2217 26.2429L18.2392 26.2669L18.2509 26.2927L18.2591 26.3196L18.2712 26.3465L18.2762 26.3756L18.2903 26.4007L18.3031 26.4262L18.3105 26.4546L18.3187 26.4814L18.3273 26.5095L18.3483 26.5324L18.3542 26.56L18.3662 26.587L18.3701 26.6164L18.3853 26.6412L18.3994 26.6662L18.4033 26.6957L18.4208 26.7197L18.4305 26.7474L18.4411 26.7736L18.4539 26.799L18.4555 26.8292L18.473 26.8532L18.4827 26.8809L18.4878 26.91L18.5018 26.9351L18.5147 26.9605L18.5186 26.99L18.5396 27.0129L18.5458 27.0417L18.554 27.0685L18.5673 27.0951L18.5813 27.1202L18.5918 27.1464L18.6016 27.1741L18.6121 27.2002L18.616 27.2297L18.6245 27.2577L18.6421 27.2817L18.6538 27.3075L18.667 27.3341L18.6674 27.3647L18.6802 27.3901L18.6966 27.4145L18.7063 27.4422L18.7169 27.4683L18.7254 27.4964L18.7395 27.5214L18.7469 27.5498L18.7519 27.5789L18.7624 27.6051L18.78 27.6291L18.7909 27.6564L18.7936 27.6863L18.8111 27.7103L18.817 27.7379L18.8345 27.7619L18.8384 27.7913L18.8548 27.8157L18.8622 27.8441L18.8742 27.8711L18.8824 27.8979L18.8965 27.923L18.9039 27.9514L18.9147 27.9787L18.93 28.0035L18.9405 28.0296L18.9514 28.057L18.9599 28.085L18.9646 28.1129L18.9822 28.1369L18.9896 28.1653L18.9993 28.193L19.0126 28.2158Z" fill="#D9FFEF"/>
<mask id="path-25-inside-2_356_9412" fill="white">
<path d="M214.787 18.5372L214.771 18.5151L214.755 18.4884L214.744 18.4611L214.725 18.4379L214.716 18.4077L214.697 18.3828L214.679 18.359L214.666 18.3312L214.648 18.3074L214.635 18.2795L214.612 18.2581L214.597 18.2326L214.586 18.2035L214.569 18.1792L214.55 18.1543L214.536 18.1287L214.518 18.1049L214.497 18.0824L214.487 18.0527L214.467 18.0301L214.453 18.0029L214.437 17.9779L214.416 17.9542L214.4 17.9292L214.384 17.9043L214.367 17.8782L214.362 17.8462L214.339 17.8248L214.327 17.7963L214.306 17.7743L214.291 17.7488L214.277 17.7215L214.256 17.6989L214.249 17.6681L214.225 17.6473L214.209 17.6223L214.193 17.5962L214.182 17.5672L214.16 17.5452L214.142 17.5214L214.132 17.4918L214.112 17.4692L214.096 17.4443L214.087 17.414L214.065 17.3926L214.047 17.3671L214.03 17.3428L214.016 17.3155L213.999 17.2911L213.983 17.2662L213.967 17.2395L213.951 17.2145L213.94 17.1855L213.926 17.1582L213.908 17.1344L213.894 17.1072L213.873 17.0846L213.857 17.0596L213.837 17.0353L213.831 17.0039L213.815 16.9789L213.797 16.9552L213.774 16.9338L213.761 16.9059L213.75 16.8768L213.729 16.8549L213.718 16.8258L213.693 16.8056L213.676 16.7812L213.671 16.7492L213.649 16.7272L213.637 16.6988L213.614 16.6774L213.596 16.6536L213.582 16.6263L213.564 16.6026L213.555 16.5723L213.537 16.5486L213.524 16.5207L213.505 16.4975L213.487 16.472L213.47 16.4477L213.452 16.4239L213.44 16.3954L213.423 16.3693L213.408 16.3438L213.396 16.3153L213.374 16.2939L213.363 16.2649L213.347 16.2399L213.33 16.2156L213.307 16.1942L213.296 16.1651L213.28 16.139L213.266 16.1129L213.247 16.0897L213.233 16.0624L213.214 16.0387L213.205 16.009L213.179 15.9894L213.17 15.9592L213.145 15.939L213.13 15.9134L213.117 15.8855L213.098 15.8624L213.09 15.8315L213.071 15.8084L213.059 15.7799L213.043 15.7549L213.022 15.7312L213.012 15.7033L212.991 15.6796L212.977 15.6534L212.963 15.6262L212.942 15.6036L212.925 15.5792L212.908 15.5537L212.894 15.5276L212.872 15.5056L212.863 15.476L212.841 15.454L212.823 15.4285L212.817 15.397L212.8 15.3727L212.785 15.346L212.769 15.321L212.744 15.3008L212.727 15.2748L212.72 15.2439L212.704 15.219L212.681 15.1976L212.663 15.1738L212.646 15.1477L212.641 15.1157L212.62 15.0937L212.605 15.0664L212.593 15.0397L212.572 15.016L212.55 14.994L212.538 14.9673L212.523 14.94L212.502 14.918L212.489 14.8901L212.48 14.8599L212.453 14.8409L212.44 14.8141L212.431 14.7845L212.411 14.7613L212.399 14.7328L212.373 14.7132L212.366 14.6824L212.342 14.6616L212.325 14.6355L212.314 14.6082L212.301 14.5803L212.282 14.5571L212.267 14.5299L212.245 14.5085L212.234 14.4794L212.219 14.4539L212.203 14.4278L212.182 14.4052L212.168 14.3779L212.155 14.35L212.134 14.3275L212.121 14.2996L212.107 14.2735L212.087 14.2509L212.065 14.2696L212.036 14.2816L212.014 14.3021L211.984 14.3118L211.963 14.3345L211.936 14.3488L211.911 14.3658L211.884 14.3801L211.858 14.3949L211.83 14.408L211.807 14.4262L211.778 14.437L211.756 14.4586L211.733 14.4791L211.703 14.4876L211.678 14.5047L211.652 14.5201L211.628 14.5383L211.6 14.5503L211.574 14.565L211.553 14.5889L211.524 14.5998L211.5 14.618L211.475 14.6356L211.449 14.6504L211.422 14.6647L211.396 14.6794L211.371 14.6971L211.345 14.7107L211.325 14.7369L211.294 14.7432L211.272 14.7648L211.247 14.7819L211.218 14.7916L211.196 14.8143L211.168 14.8274L211.146 14.849L211.117 14.8599L211.091 14.8735L211.064 14.8878L211.04 14.906L211.015 14.9236L210.993 14.9452L210.963 14.9549L210.939 14.972L210.915 14.9913L210.885 14.9999L210.865 15.0249L210.838 15.0391L210.813 15.0551L210.783 15.0648L210.761 15.0864L210.733 15.0995L210.708 15.1154L210.686 15.137L210.658 15.1501L210.632 15.1638L210.608 15.1837L210.581 15.1951L210.556 15.215L210.533 15.2332L210.506 15.2469L210.481 15.2645L210.457 15.2827L210.427 15.2913L210.405 15.3129L210.379 15.3294L210.354 15.3465L210.33 15.3635L210.302 15.3755L210.273 15.3875L210.252 15.4102L210.227 15.4273L210.197 15.4359L210.172 15.4535L210.147 15.4706L210.123 15.4876L210.094 15.4996L210.072 15.5201L210.049 15.5394L210.023 15.5559L209.994 15.5679L209.969 15.5838L209.947 15.6054L209.916 15.6129L209.895 15.6356L209.869 15.6533L209.839 15.6618L209.819 15.684L209.792 15.6994L209.764 15.7113L209.742 15.733L209.711 15.7415L209.693 15.7671L209.664 15.7779L209.634 15.7876L209.614 15.8126L209.589 15.8286L209.564 15.8462L209.534 15.8559L209.51 15.8741L209.486 15.8923L209.462 15.9094L209.43 15.9174L209.41 15.9395L209.381 15.9515L209.359 15.972L209.333 15.9885L209.306 16.0022L209.28 16.0175L209.252 16.0306L209.229 16.0511L209.204 16.067L209.177 16.0813L209.156 16.1052L209.124 16.1103L209.102 16.1308L209.077 16.1467L209.049 16.1598L209.023 16.1764L209.001 16.1991L208.974 16.2105L208.95 16.2304L208.926 16.2486L208.895 16.256L208.868 16.2714L208.85 16.297L208.824 16.3146L208.792 16.3198L208.772 16.3437L208.741 16.3511L208.716 16.367L208.69 16.3847L208.666 16.4017L208.646 16.4268L208.618 16.4399L208.59 16.4512L208.566 16.4712L208.541 16.486L208.514 16.5025L208.491 16.5218L208.461 16.5304L208.437 16.5486L208.415 16.5702L208.389 16.5856L208.362 16.6009L208.336 16.6146L208.307 16.6266L208.288 16.6527L208.261 16.6664L208.234 16.6806L208.208 16.696L208.184 16.7153L208.155 16.725L208.13 16.7421L208.108 16.7626L208.079 16.7746L208.058 16.7973L208.031 16.8127L208.003 16.8247L207.978 16.8417L207.955 16.8599L207.928 16.8753L207.898 16.8839L207.874 16.9032L207.85 16.922L207.825 16.9379L207.794 16.9522L207.814 16.9782L207.831 17.0037L207.844 17.0305L207.863 17.0554L207.879 17.0803L207.894 17.107L207.909 17.1326L207.925 17.1575L207.94 17.1842L207.959 17.2074L207.974 17.2346L207.989 17.2602L208.002 17.2881L208.024 17.3095L208.036 17.3379L208.052 17.3629L208.068 17.3896L208.082 17.4151L208.099 17.4412L208.123 17.4603L208.136 17.4881L208.154 17.5125L208.162 17.5427L208.189 17.5618L208.198 17.592L208.214 17.617L208.23 17.643L208.253 17.6644L208.268 17.69L208.282 17.7173L208.291 17.7475L208.316 17.7677L208.333 17.7921L208.341 17.8223L208.358 17.8484L208.377 17.8716L208.39 17.8983L208.411 17.9203L208.421 17.9499L208.439 17.9754L208.453 18.001L208.472 18.0248L208.484 18.0532L208.5 18.0793L208.524 18.1001L208.542 18.1239L208.554 18.1523L208.57 18.1773L208.585 18.2028L208.597 18.2313L208.616 18.2545L208.632 18.2812L208.651 18.3043L208.663 18.3328L208.68 18.3572L208.698 18.3826L208.715 18.407L208.729 18.4343L208.743 18.4604L208.768 18.4806L208.777 18.5103L208.8 18.5317L208.813 18.5595L208.822 18.5881L208.838 18.6147L208.857 18.6379L208.872 18.6646L208.89 18.6884L208.909 18.7121L208.927 18.737L208.937 18.7667L208.954 18.791L208.968 18.8183L208.982 18.8445L209.003 18.867L209.025 18.8884L209.032 18.9199L209.05 18.9448L209.074 18.9656L209.087 18.9923L209.104 19.0178L209.12 19.0427L209.135 19.07L209.149 19.0956L209.16 19.1246L209.177 19.149L209.199 19.171L209.212 19.1988L209.226 19.2261L209.249 19.2475L209.266 19.2719L209.282 19.2968L209.293 19.3259L209.306 19.3538L209.324 19.3775L209.345 19.4001L209.362 19.4256L209.377 19.4511L209.386 19.4814L209.404 19.5052L209.423 19.5301L209.433 19.558L209.454 19.5817L209.465 19.609L209.485 19.6322L209.502 19.6577L209.515 19.6844L209.537 19.7058L209.551 19.7337L209.57 19.7569L209.584 19.7841L209.6 19.8091L209.611 19.8381L209.634 19.8595L209.643 19.8892L209.663 19.9124L209.683 19.9349L209.694 19.964L209.713 19.9889L209.725 20.0156L209.747 20.0376L209.761 20.0649L209.775 20.0922L209.792 20.1165L209.813 20.1391L209.825 20.1676L209.838 20.1954L209.861 20.2168L209.876 20.2424L209.888 20.2708L209.903 20.2958L209.919 20.3225L209.942 20.3439L209.957 20.3688L209.972 20.3961L209.987 20.4228L210.003 20.4477L210.018 20.4744L210.03 20.5018L210.05 20.5261L210.061 20.5534L210.085 20.5742L210.101 20.6003L210.115 20.6281L210.129 20.6537L210.149 20.6769L210.165 20.703L210.18 20.7285L210.2 20.7528L210.21 20.7825L210.23 20.805L210.24 20.8347L210.259 20.8579L210.276 20.8822L210.288 20.9107L210.312 20.9315L210.322 20.9611L210.34 20.9849L210.359 21.0098L210.367 21.0401L210.393 21.0597L210.408 21.0852L210.418 21.1149L210.442 21.1357L210.454 21.1641L210.47 21.1891L210.485 21.2158L210.503 21.2355L210.528 21.2293L210.555 21.2139L210.576 21.1901L210.6 21.173L210.632 21.1667L210.658 21.1502L210.677 21.1258L210.704 21.1115L210.728 21.0945L210.758 21.0848L210.785 21.0694L210.809 21.0512L210.836 21.0369L210.857 21.0131L210.887 21.0045L210.908 20.9817L210.934 20.967L210.961 20.9516L210.986 20.9368L211.015 20.9248L211.036 20.9021L211.063 20.8907L211.089 20.8742L211.11 20.8503L211.136 20.8355L211.162 20.8201L211.193 20.8116L211.214 20.7888L211.241 20.7774L211.266 20.7586L211.293 20.7461L211.319 20.7285L211.341 20.7069L211.366 20.6921L211.391 20.6733L211.419 20.663L211.443 20.6431L211.469 20.6283L211.495 20.6118L211.52 20.5959L211.549 20.585L211.575 20.5714L211.596 20.5486L211.625 20.5367L211.652 20.5213L211.671 20.498L211.697 20.4815L211.729 20.4752L211.751 20.4547L211.78 20.4427L211.803 20.4234L211.83 20.408L211.853 20.3887L211.882 20.3779L211.907 20.3619L211.929 20.3403L211.955 20.3238L211.981 20.309L212.007 20.2925L212.033 20.2788L212.059 20.2623L212.082 20.243L212.106 20.2248L212.137 20.2185L212.163 20.2008L212.188 20.1849L212.208 20.1599L212.236 20.1479L212.261 20.1309L212.288 20.1155L212.313 20.1007L212.341 20.0876L212.362 20.0637L212.391 20.054L212.413 20.0313L212.444 20.0238L212.467 20.0045L212.493 19.9908L212.516 19.9686L212.544 19.9584L212.57 19.9407L212.593 19.9214L212.618 19.9055L212.647 19.8946L212.667 19.8696L212.694 19.8542L212.724 19.8457L212.747 19.8252L212.77 19.8059L212.798 19.7939L212.824 19.7791L212.847 19.7609L212.875 19.7478L212.903 19.7347L212.925 19.7119L212.949 19.6949L212.975 19.6812L213.001 19.6636L213.03 19.6527L213.053 19.6334L213.077 19.6152L213.105 19.6021L213.131 19.5884L213.158 19.5742L213.178 19.548L213.205 19.5367L213.23 19.519L213.26 19.5093L213.283 19.4888L213.306 19.4695L213.336 19.4598L213.357 19.4371L213.384 19.4217L213.409 19.4058L213.432 19.3876L213.463 19.3801L213.485 19.3574L213.511 19.342L213.54 19.3312L213.564 19.3118L213.587 19.2936L213.617 19.2839L213.637 19.2578L213.665 19.2458L213.691 19.2321L213.716 19.2134L213.739 19.194L213.764 19.1781L213.791 19.1627L213.816 19.1468L213.846 19.1371L213.873 19.1228L213.894 19.1001L213.919 19.083L213.943 19.0642L213.975 19.058L213.999 19.0398L214.021 19.0181L214.047 19.0028L214.072 18.9868L214.1 18.9726L214.123 18.9533L214.151 18.9401L214.18 18.9293L214.205 18.9134L214.226 18.8906L214.252 18.8741L214.282 18.8656L214.304 18.8428L214.331 18.8314L214.353 18.8087L214.382 18.799L214.404 18.7774L214.432 18.7643L214.458 18.7466L214.484 18.733L214.507 18.7136L214.535 18.7005L214.561 18.684L214.583 18.6635L214.608 18.6476L214.635 18.6311L214.662 18.6168L214.69 18.6066L214.711 18.5838L214.739 18.5707L214.766 18.5554L214.787 18.5372Z"/>
</mask>
<path d="M214.787 18.5372L214.771 18.5151L214.755 18.4884L214.744 18.4611L214.725 18.4379L214.716 18.4077L214.697 18.3828L214.679 18.359L214.666 18.3312L214.648 18.3074L214.635 18.2795L214.612 18.2581L214.597 18.2326L214.586 18.2035L214.569 18.1792L214.55 18.1543L214.536 18.1287L214.518 18.1049L214.497 18.0824L214.487 18.0527L214.467 18.0301L214.453 18.0029L214.437 17.9779L214.416 17.9542L214.4 17.9292L214.384 17.9043L214.367 17.8782L214.362 17.8462L214.339 17.8248L214.327 17.7963L214.306 17.7743L214.291 17.7488L214.277 17.7215L214.256 17.6989L214.249 17.6681L214.225 17.6473L214.209 17.6223L214.193 17.5962L214.182 17.5672L214.16 17.5452L214.142 17.5214L214.132 17.4918L214.112 17.4692L214.096 17.4443L214.087 17.414L214.065 17.3926L214.047 17.3671L214.03 17.3428L214.016 17.3155L213.999 17.2911L213.983 17.2662L213.967 17.2395L213.951 17.2145L213.94 17.1855L213.926 17.1582L213.908 17.1344L213.894 17.1072L213.873 17.0846L213.857 17.0596L213.837 17.0353L213.831 17.0039L213.815 16.9789L213.797 16.9552L213.774 16.9338L213.761 16.9059L213.75 16.8768L213.729 16.8549L213.718 16.8258L213.693 16.8056L213.676 16.7812L213.671 16.7492L213.649 16.7272L213.637 16.6988L213.614 16.6774L213.596 16.6536L213.582 16.6263L213.564 16.6026L213.555 16.5723L213.537 16.5486L213.524 16.5207L213.505 16.4975L213.487 16.472L213.47 16.4477L213.452 16.4239L213.44 16.3954L213.423 16.3693L213.408 16.3438L213.396 16.3153L213.374 16.2939L213.363 16.2649L213.347 16.2399L213.33 16.2156L213.307 16.1942L213.296 16.1651L213.28 16.139L213.266 16.1129L213.247 16.0897L213.233 16.0624L213.214 16.0387L213.205 16.009L213.179 15.9894L213.17 15.9592L213.145 15.939L213.13 15.9134L213.117 15.8855L213.098 15.8624L213.09 15.8315L213.071 15.8084L213.059 15.7799L213.043 15.7549L213.022 15.7312L213.012 15.7033L212.991 15.6796L212.977 15.6534L212.963 15.6262L212.942 15.6036L212.925 15.5792L212.908 15.5537L212.894 15.5276L212.872 15.5056L212.863 15.476L212.841 15.454L212.823 15.4285L212.817 15.397L212.8 15.3727L212.785 15.346L212.769 15.321L212.744 15.3008L212.727 15.2748L212.72 15.2439L212.704 15.219L212.681 15.1976L212.663 15.1738L212.646 15.1477L212.641 15.1157L212.62 15.0937L212.605 15.0664L212.593 15.0397L212.572 15.016L212.55 14.994L212.538 14.9673L212.523 14.94L212.502 14.918L212.489 14.8901L212.48 14.8599L212.453 14.8409L212.44 14.8141L212.431 14.7845L212.411 14.7613L212.399 14.7328L212.373 14.7132L212.366 14.6824L212.342 14.6616L212.325 14.6355L212.314 14.6082L212.301 14.5803L212.282 14.5571L212.267 14.5299L212.245 14.5085L212.234 14.4794L212.219 14.4539L212.203 14.4278L212.182 14.4052L212.168 14.3779L212.155 14.35L212.134 14.3275L212.121 14.2996L212.107 14.2735L212.087 14.2509L212.065 14.2696L212.036 14.2816L212.014 14.3021L211.984 14.3118L211.963 14.3345L211.936 14.3488L211.911 14.3658L211.884 14.3801L211.858 14.3949L211.83 14.408L211.807 14.4262L211.778 14.437L211.756 14.4586L211.733 14.4791L211.703 14.4876L211.678 14.5047L211.652 14.5201L211.628 14.5383L211.6 14.5503L211.574 14.565L211.553 14.5889L211.524 14.5998L211.5 14.618L211.475 14.6356L211.449 14.6504L211.422 14.6647L211.396 14.6794L211.371 14.6971L211.345 14.7107L211.325 14.7369L211.294 14.7432L211.272 14.7648L211.247 14.7819L211.218 14.7916L211.196 14.8143L211.168 14.8274L211.146 14.849L211.117 14.8599L211.091 14.8735L211.064 14.8878L211.04 14.906L211.015 14.9236L210.993 14.9452L210.963 14.9549L210.939 14.972L210.915 14.9913L210.885 14.9999L210.865 15.0249L210.838 15.0391L210.813 15.0551L210.783 15.0648L210.761 15.0864L210.733 15.0995L210.708 15.1154L210.686 15.137L210.658 15.1501L210.632 15.1638L210.608 15.1837L210.581 15.1951L210.556 15.215L210.533 15.2332L210.506 15.2469L210.481 15.2645L210.457 15.2827L210.427 15.2913L210.405 15.3129L210.379 15.3294L210.354 15.3465L210.33 15.3635L210.302 15.3755L210.273 15.3875L210.252 15.4102L210.227 15.4273L210.197 15.4359L210.172 15.4535L210.147 15.4706L210.123 15.4876L210.094 15.4996L210.072 15.5201L210.049 15.5394L210.023 15.5559L209.994 15.5679L209.969 15.5838L209.947 15.6054L209.916 15.6129L209.895 15.6356L209.869 15.6533L209.839 15.6618L209.819 15.684L209.792 15.6994L209.764 15.7113L209.742 15.733L209.711 15.7415L209.693 15.7671L209.664 15.7779L209.634 15.7876L209.614 15.8126L209.589 15.8286L209.564 15.8462L209.534 15.8559L209.51 15.8741L209.486 15.8923L209.462 15.9094L209.43 15.9174L209.41 15.9395L209.381 15.9515L209.359 15.972L209.333 15.9885L209.306 16.0022L209.28 16.0175L209.252 16.0306L209.229 16.0511L209.204 16.067L209.177 16.0813L209.156 16.1052L209.124 16.1103L209.102 16.1308L209.077 16.1467L209.049 16.1598L209.023 16.1764L209.001 16.1991L208.974 16.2105L208.95 16.2304L208.926 16.2486L208.895 16.256L208.868 16.2714L208.85 16.297L208.824 16.3146L208.792 16.3198L208.772 16.3437L208.741 16.3511L208.716 16.367L208.69 16.3847L208.666 16.4017L208.646 16.4268L208.618 16.4399L208.59 16.4512L208.566 16.4712L208.541 16.486L208.514 16.5025L208.491 16.5218L208.461 16.5304L208.437 16.5486L208.415 16.5702L208.389 16.5856L208.362 16.6009L208.336 16.6146L208.307 16.6266L208.288 16.6527L208.261 16.6664L208.234 16.6806L208.208 16.696L208.184 16.7153L208.155 16.725L208.13 16.7421L208.108 16.7626L208.079 16.7746L208.058 16.7973L208.031 16.8127L208.003 16.8247L207.978 16.8417L207.955 16.8599L207.928 16.8753L207.898 16.8839L207.874 16.9032L207.85 16.922L207.825 16.9379L207.794 16.9522L207.814 16.9782L207.831 17.0037L207.844 17.0305L207.863 17.0554L207.879 17.0803L207.894 17.107L207.909 17.1326L207.925 17.1575L207.94 17.1842L207.959 17.2074L207.974 17.2346L207.989 17.2602L208.002 17.2881L208.024 17.3095L208.036 17.3379L208.052 17.3629L208.068 17.3896L208.082 17.4151L208.099 17.4412L208.123 17.4603L208.136 17.4881L208.154 17.5125L208.162 17.5427L208.189 17.5618L208.198 17.592L208.214 17.617L208.23 17.643L208.253 17.6644L208.268 17.69L208.282 17.7173L208.291 17.7475L208.316 17.7677L208.333 17.7921L208.341 17.8223L208.358 17.8484L208.377 17.8716L208.39 17.8983L208.411 17.9203L208.421 17.9499L208.439 17.9754L208.453 18.001L208.472 18.0248L208.484 18.0532L208.5 18.0793L208.524 18.1001L208.542 18.1239L208.554 18.1523L208.57 18.1773L208.585 18.2028L208.597 18.2313L208.616 18.2545L208.632 18.2812L208.651 18.3043L208.663 18.3328L208.68 18.3572L208.698 18.3826L208.715 18.407L208.729 18.4343L208.743 18.4604L208.768 18.4806L208.777 18.5103L208.8 18.5317L208.813 18.5595L208.822 18.5881L208.838 18.6147L208.857 18.6379L208.872 18.6646L208.89 18.6884L208.909 18.7121L208.927 18.737L208.937 18.7667L208.954 18.791L208.968 18.8183L208.982 18.8445L209.003 18.867L209.025 18.8884L209.032 18.9199L209.05 18.9448L209.074 18.9656L209.087 18.9923L209.104 19.0178L209.12 19.0427L209.135 19.07L209.149 19.0956L209.16 19.1246L209.177 19.149L209.199 19.171L209.212 19.1988L209.226 19.2261L209.249 19.2475L209.266 19.2719L209.282 19.2968L209.293 19.3259L209.306 19.3538L209.324 19.3775L209.345 19.4001L209.362 19.4256L209.377 19.4511L209.386 19.4814L209.404 19.5052L209.423 19.5301L209.433 19.558L209.454 19.5817L209.465 19.609L209.485 19.6322L209.502 19.6577L209.515 19.6844L209.537 19.7058L209.551 19.7337L209.57 19.7569L209.584 19.7841L209.6 19.8091L209.611 19.8381L209.634 19.8595L209.643 19.8892L209.663 19.9124L209.683 19.9349L209.694 19.964L209.713 19.9889L209.725 20.0156L209.747 20.0376L209.761 20.0649L209.775 20.0922L209.792 20.1165L209.813 20.1391L209.825 20.1676L209.838 20.1954L209.861 20.2168L209.876 20.2424L209.888 20.2708L209.903 20.2958L209.919 20.3225L209.942 20.3439L209.957 20.3688L209.972 20.3961L209.987 20.4228L210.003 20.4477L210.018 20.4744L210.03 20.5018L210.05 20.5261L210.061 20.5534L210.085 20.5742L210.101 20.6003L210.115 20.6281L210.129 20.6537L210.149 20.6769L210.165 20.703L210.18 20.7285L210.2 20.7528L210.21 20.7825L210.23 20.805L210.24 20.8347L210.259 20.8579L210.276 20.8822L210.288 20.9107L210.312 20.9315L210.322 20.9611L210.34 20.9849L210.359 21.0098L210.367 21.0401L210.393 21.0597L210.408 21.0852L210.418 21.1149L210.442 21.1357L210.454 21.1641L210.47 21.1891L210.485 21.2158L210.503 21.2355L210.528 21.2293L210.555 21.2139L210.576 21.1901L210.6 21.173L210.632 21.1667L210.658 21.1502L210.677 21.1258L210.704 21.1115L210.728 21.0945L210.758 21.0848L210.785 21.0694L210.809 21.0512L210.836 21.0369L210.857 21.0131L210.887 21.0045L210.908 20.9817L210.934 20.967L210.961 20.9516L210.986 20.9368L211.015 20.9248L211.036 20.9021L211.063 20.8907L211.089 20.8742L211.11 20.8503L211.136 20.8355L211.162 20.8201L211.193 20.8116L211.214 20.7888L211.241 20.7774L211.266 20.7586L211.293 20.7461L211.319 20.7285L211.341 20.7069L211.366 20.6921L211.391 20.6733L211.419 20.663L211.443 20.6431L211.469 20.6283L211.495 20.6118L211.52 20.5959L211.549 20.585L211.575 20.5714L211.596 20.5486L211.625 20.5367L211.652 20.5213L211.671 20.498L211.697 20.4815L211.729 20.4752L211.751 20.4547L211.78 20.4427L211.803 20.4234L211.83 20.408L211.853 20.3887L211.882 20.3779L211.907 20.3619L211.929 20.3403L211.955 20.3238L211.981 20.309L212.007 20.2925L212.033 20.2788L212.059 20.2623L212.082 20.243L212.106 20.2248L212.137 20.2185L212.163 20.2008L212.188 20.1849L212.208 20.1599L212.236 20.1479L212.261 20.1309L212.288 20.1155L212.313 20.1007L212.341 20.0876L212.362 20.0637L212.391 20.054L212.413 20.0313L212.444 20.0238L212.467 20.0045L212.493 19.9908L212.516 19.9686L212.544 19.9584L212.57 19.9407L212.593 19.9214L212.618 19.9055L212.647 19.8946L212.667 19.8696L212.694 19.8542L212.724 19.8457L212.747 19.8252L212.77 19.8059L212.798 19.7939L212.824 19.7791L212.847 19.7609L212.875 19.7478L212.903 19.7347L212.925 19.7119L212.949 19.6949L212.975 19.6812L213.001 19.6636L213.03 19.6527L213.053 19.6334L213.077 19.6152L213.105 19.6021L213.131 19.5884L213.158 19.5742L213.178 19.548L213.205 19.5367L213.23 19.519L213.26 19.5093L213.283 19.4888L213.306 19.4695L213.336 19.4598L213.357 19.4371L213.384 19.4217L213.409 19.4058L213.432 19.3876L213.463 19.3801L213.485 19.3574L213.511 19.342L213.54 19.3312L213.564 19.3118L213.587 19.2936L213.617 19.2839L213.637 19.2578L213.665 19.2458L213.691 19.2321L213.716 19.2134L213.739 19.194L213.764 19.1781L213.791 19.1627L213.816 19.1468L213.846 19.1371L213.873 19.1228L213.894 19.1001L213.919 19.083L213.943 19.0642L213.975 19.058L213.999 19.0398L214.021 19.0181L214.047 19.0028L214.072 18.9868L214.1 18.9726L214.123 18.9533L214.151 18.9401L214.18 18.9293L214.205 18.9134L214.226 18.8906L214.252 18.8741L214.282 18.8656L214.304 18.8428L214.331 18.8314L214.353 18.8087L214.382 18.799L214.404 18.7774L214.432 18.7643L214.458 18.7466L214.484 18.733L214.507 18.7136L214.535 18.7005L214.561 18.684L214.583 18.6635L214.608 18.6476L214.635 18.6311L214.662 18.6168L214.69 18.6066L214.711 18.5838L214.739 18.5707L214.766 18.5554L214.787 18.5372Z" fill="#D9FFEF" stroke="black" stroke-width="2" mask="url(#path-25-inside-2_356_9412)"/>
<path d="M125.93 12.6968C143.919 14.6713 149.354 17.5711 158.21 22.8832" stroke="#080B0E" stroke-linecap="round" stroke-linejoin="round"/>
<path d="M24.5671 58.2834C20.7646 66.8613 16.343 72.9631 13.7299 86.1289" stroke="#080B0E" stroke-linecap="round" stroke-linejoin="round"/>
<path d="M211.158 80.922C213.696 87.2044 215.416 98.5957 215.402 99.7579L202.049 100.731" stroke="#080B0E" stroke-linecap="round" stroke-linejoin="round"/>
<path d="M14.8017 92.2581C14.5424 93.7125 13.1531 94.6813 11.6988 94.4219C10.2444 94.1626 9.27564 92.7733 9.53498 91.319C9.79432 89.8646 11.1836 88.8958 12.6379 89.1552C14.0923 89.4145 15.0611 90.8038 14.8017 92.2581Z" fill="#CCFFFE" stroke="black"/>
<path d="M240.598 102.249C241.289 103.554 240.792 105.173 239.486 105.865C238.181 106.557 236.562 106.059 235.87 104.753C235.179 103.448 235.677 101.829 236.982 101.138C238.287 100.446 239.906 100.944 240.598 102.249Z" fill="#CCFFFE" stroke="black"/>
<path d="M245.096 98.0446C245.512 98.8302 245.213 99.8044 244.427 100.221C243.641 100.637 242.667 100.337 242.251 99.5517C241.835 98.7661 242.134 97.7918 242.92 97.3756C243.705 96.9595 244.68 97.2589 245.096 98.0446Z" fill="#CCFFFE"/>
<path d="M6.59114 96.2427C6.4224 97.189 5.51852 97.8193 4.57226 97.6506C3.62601 97.4818 2.9957 96.578 3.16443 95.6317C3.33317 94.6854 4.23705 94.0551 5.18331 94.2239C6.12957 94.3926 6.75987 95.2965 6.59114 96.2427Z" fill="#86EFCE"/>
<path d="M229.143 99.8107L15.8763 113.457L15.7428 120.749L227.019 111.635L229.143 99.8107Z" fill="white"/>
<defs>
<linearGradient id="paint0_linear_356_9412" x1="20.0415" y1="57.7785" x2="216.752" y2="96.2391" gradientUnits="userSpaceOnUse">
<stop stop-color="#3EFFFF" stop-opacity="0.9"/>
<stop offset="1" stop-color="#96F2BC" stop-opacity="0.9"/>
</linearGradient>
</defs>
</svg>
