<svg width="583" height="122" viewBox="0 0 583 122" fill="none" xmlns="http://www.w3.org/2000/svg">
<path d="M30.2341 47.4682C33.6771 47.4682 36.4682 44.6771 36.4682 41.2341C36.4682 37.7911 33.6771 35 30.2341 35C26.7911 35 24 37.7911 24 41.2341C24 44.6771 26.7911 47.4682 30.2341 47.4682Z" fill="#85EFCE"/>
<path d="M510.734 37.4682C515.006 37.4682 518.468 34.0055 518.468 29.7341C518.468 25.4627 515.006 22 510.734 22C506.463 22 503 25.4627 503 29.7341C503 34.0055 506.463 37.4682 510.734 37.4682Z" fill="#AAF9EC"/>
<path d="M169.383 21.5681C165.019 19.104 163.498 13.5334 165.962 9.16955C168.426 4.80569 173.905 3.19548 178.269 5.6596L169.383 21.5681Z" fill="#B7F1C9"/>
<path d="M570.383 112.568C566.019 110.104 564.498 104.533 566.962 100.17C569.426 95.8057 574.905 94.1955 579.269 96.6596L570.383 112.568Z" fill="#B7F1C9"/>
<path d="M107 74L105.953 59L93 66.8879L107 74Z" fill="#A5FDFE"/>
<path d="M413.5 79C415.985 79 418 76.9853 418 74.5C418 72.0147 415.985 70 413.5 70C411.015 70 409 72.0147 409 74.5C409 76.9853 411.015 79 413.5 79Z" fill="#B6F2CE"/>
<path d="M4.5 122C6.98528 122 9 119.985 9 117.5C9 115.015 6.98528 113 4.5 113C2.01472 113 0 115.015 0 117.5C0 119.985 2.01472 122 4.5 122Z" fill="#B6F2CE"/>
<path d="M313 22L311.43 0L292 11.569L313 22Z" fill="#ABF9EB"/>
</svg>
