<svg width="235" height="123" viewBox="0 0 235 123" fill="none" xmlns="http://www.w3.org/2000/svg">
<path d="M230.459 45.295L230.478 45.2826L230.501 45.2708L230.524 45.2624L230.544 45.2472L230.57 45.2413L230.591 45.2266L230.612 45.2124L230.635 45.2025L230.656 45.1883L230.679 45.1785L230.698 45.1604L230.72 45.149L230.745 45.1411L230.766 45.1279L230.787 45.1132L230.809 45.1019L230.829 45.0877L230.849 45.0715L230.874 45.0646L230.894 45.0484L230.917 45.0376L230.938 45.0253L230.959 45.0087L230.98 44.9964L231.001 44.9841L231.024 44.9714L231.051 44.9683L231.069 44.9502L231.094 44.9413L231.113 44.9242L231.134 44.9129L231.158 44.9021L231.177 44.8859L231.203 44.8809L231.221 44.8619L231.243 44.8496L231.265 44.8368L231.29 44.8289L231.309 44.8118L231.329 44.7976L231.355 44.7906L231.374 44.7745L231.395 44.7622L231.421 44.7562L231.44 44.7381L231.462 44.7244L231.482 44.7111L231.506 44.7003L231.527 44.6871L231.548 44.6748L231.571 44.663L231.592 44.6507L231.617 44.6428L231.64 44.632L231.661 44.6178L231.684 44.607L231.703 44.5908L231.725 44.5785L231.746 44.5629L231.772 44.5589L231.794 44.5466L231.814 44.5324L231.833 44.5143L231.856 44.5044L231.881 44.4965L231.9 44.4794L231.925 44.4715L231.943 44.4514L231.964 44.4382L231.99 44.4351L232.01 44.418L232.034 44.4091L232.052 44.391L232.073 44.3768L232.096 44.366L232.117 44.3518L232.142 44.3458L232.163 44.3316L232.186 44.3218L232.206 44.3066L232.228 44.2928L232.249 44.2796L232.27 44.2654L232.294 44.2565L232.316 44.2437L232.338 44.2324L232.362 44.2236L232.381 44.2055L232.405 44.1976L232.427 44.1853L232.448 44.172L232.466 44.1539L232.491 44.146L232.513 44.1333L232.536 44.1229L232.556 44.1077L232.579 44.0969L232.599 44.0827L232.624 44.0758L232.642 44.0547L232.667 44.0488L232.685 44.0287L232.707 44.0174L232.731 44.0076L232.751 43.9924L232.777 43.9874L232.797 43.9722L232.821 43.9633L232.842 43.9511L232.863 43.9344L232.886 43.927L232.907 43.9104L232.929 43.9L232.952 43.8892L232.972 43.8731L232.993 43.8598L233.015 43.8461L233.037 43.8357L233.056 43.8186L233.081 43.8117L233.1 43.7945L233.122 43.7808L233.149 43.7768L233.17 43.7635L233.193 43.7518L233.214 43.7395L233.232 43.7194L233.254 43.7067L233.28 43.7017L233.301 43.6894L233.32 43.6713L233.341 43.6571L233.363 43.6443L233.39 43.6413L233.409 43.6242L233.432 43.6134L233.455 43.604L233.475 43.5874L233.495 43.5702L233.517 43.5608L233.541 43.55L233.56 43.5329L233.583 43.5231L233.609 43.5171L233.626 43.4951L233.648 43.4857L233.674 43.4788L233.694 43.4636L233.718 43.4547L233.735 43.4337L233.761 43.4287L233.779 43.4097L233.802 43.3969L233.825 43.3885L233.848 43.3787L233.869 43.3635L233.892 43.3527L233.91 43.3346L233.935 43.3267L233.957 43.3154L233.979 43.3026L233.999 43.2865L234.022 43.2757L234.046 43.2658L234.065 43.2497L234.089 43.2398L234.111 43.2295L234.131 43.2133L234.116 43.1942L234.107 43.1701L234.091 43.1505L234.084 43.1254L234.066 43.1067L234.055 43.0835L234.042 43.0625L234.031 43.0393L234.02 43.0174L234.01 42.9937L233.996 42.9732L233.988 42.9486L233.971 42.9295L233.955 42.9099L233.949 42.8844L233.935 42.8635L233.924 42.8406L233.909 42.8202L233.901 42.796L233.889 42.7742L233.87 42.7559L233.862 42.7313L233.848 42.7108L233.834 42.6889L233.823 42.6671L233.812 42.6438L233.801 42.622L233.787 42.6001L233.777 42.5778L233.756 42.5604L233.752 42.534L233.735 42.5149L233.721 42.494L233.714 42.4689L233.696 42.4502L233.687 42.4265L233.669 42.4074L233.661 42.3827L233.651 42.3605L233.64 42.3372L233.626 42.3167L233.612 42.2948L233.595 42.2757L233.588 42.2506L233.575 42.2297L233.56 42.2096L233.554 42.1841L233.534 42.1663L233.523 42.1431L233.511 42.1217L233.504 42.0966L233.487 42.0775L233.477 42.0538L233.465 42.0324L233.447 42.0132L233.438 41.9895L233.427 41.9672L233.412 41.9462L233.403 41.923L233.387 41.902L233.373 41.8816L233.363 41.8593L233.349 41.8374L233.335 41.8169L233.329 41.7914L233.312 41.7722L233.299 41.7499L233.286 41.7289L233.273 41.708L233.264 41.6838L233.255 41.6597L233.237 41.641L233.224 41.62L233.218 41.5945L233.204 41.5726L233.191 41.5517L233.177 41.5307L233.168 41.5066L233.152 41.487L233.137 41.467L233.124 41.4446L233.115 41.4204L233.103 41.399L233.086 41.3799L233.081 41.3539L233.063 41.3353L233.049 41.3134L233.043 41.2878L233.026 41.2701L233.014 41.2473L233.005 41.2232L232.988 41.204L232.982 41.1785L232.961 41.1621L232.953 41.1375L232.946 41.1125L232.926 41.0947L232.914 41.0733L232.9 41.0514L232.893 41.0263L232.879 41.0058L232.865 40.9853L232.852 40.9644L232.846 40.9375L232.829 40.9198L232.82 40.8956L232.804 40.876L232.791 40.8537L232.781 40.8314L232.769 40.8086L232.759 40.7848L232.743 40.7653L232.73 40.7439L232.72 40.7206L232.701 40.7024L232.698 40.6755L232.681 40.6559L232.669 40.6345L232.659 40.6108L232.646 40.5885L232.628 40.5698L232.62 40.5466L232.604 40.5256L232.59 40.5051L232.585 40.4791L232.573 40.4563L232.553 40.44L232.539 40.418L232.536 40.3912L232.517 40.3729L232.512 40.347L232.5 40.3256L232.486 40.3037L232.473 40.2828L232.453 40.265L232.443 40.2413L232.434 40.2181L232.419 40.1971L232.407 40.1752L232.395 40.1529L232.379 40.1328L232.373 40.1073L232.359 40.0868L232.342 40.0677L232.33 40.0449L232.319 40.0221L232.308 39.9998L232.299 39.9756L232.278 39.9583L232.268 39.936L232.257 39.9127L232.245 39.8899L232.23 39.8699L232.223 39.8448L232.21 39.8239L232.194 39.8043L232.185 39.7801L232.167 39.7614L232.155 39.7386L232.146 39.7145L232.133 39.6935L232.119 39.6731L232.107 39.6502L232.101 39.6247L232.086 39.6047L232.071 39.5832L232.059 39.5618L232.048 39.5362L232.026 39.5513L232.004 39.565L231.981 39.5744L231.96 39.5891L231.938 39.6014L231.915 39.6132L231.894 39.6245L231.872 39.6368L231.849 39.6485L231.829 39.6637L231.806 39.6746L231.784 39.6859L231.761 39.6957L231.742 39.7138L231.718 39.7227L231.696 39.735L231.674 39.7467L231.652 39.7581L231.629 39.7708L231.613 39.7904L231.589 39.8002L231.568 39.8135L231.542 39.8194L231.526 39.8414L231.5 39.8474L231.479 39.8597L231.456 39.8724L231.438 39.8905L231.416 39.9018L231.392 39.9126L231.367 39.9186L231.349 39.9386L231.328 39.9519L231.303 39.9579L231.28 39.9706L231.26 39.9858L231.238 39.9952L231.219 40.0123L231.193 40.0192L231.172 40.033L231.15 40.0443L231.129 40.0585L231.105 40.0674L231.083 40.0801L231.065 40.0992L231.044 40.1134L231.02 40.1223L230.998 40.1346L230.977 40.1459L230.952 40.1548L230.932 40.17L230.91 40.1817L230.89 40.1969L230.865 40.2058L230.845 40.219L230.823 40.2328L230.802 40.246L230.778 40.2568L230.756 40.2672L230.738 40.2872L230.713 40.2941L230.695 40.3123L230.671 40.3221L230.647 40.3286L230.624 40.3403L230.604 40.3555L230.581 40.3673L230.561 40.3815L230.54 40.3958L230.519 40.4104L230.494 40.4174L230.473 40.4306L230.45 40.4414L230.427 40.4518L230.408 40.4679L230.389 40.4861L230.363 40.4901L230.341 40.5048L230.323 40.5238L230.3 40.5332L230.278 40.5469L230.257 40.5592L230.234 40.57L230.212 40.5813L230.187 40.5892L230.166 40.6025L230.147 40.6196L230.123 40.6295L230.1 40.6403L230.082 40.6584L230.061 40.6716L230.039 40.6839L230.015 40.6918L229.991 40.7016L229.97 40.7159L229.951 40.732L229.929 40.7458L229.907 40.7571L229.882 40.763L229.861 40.7773L229.84 40.7919L229.816 40.7994L229.795 40.816L229.772 40.8244L229.752 40.8396L229.73 40.8533L229.708 40.8627L229.689 40.8808L229.665 40.8906L229.645 40.9058L229.622 40.9166L229.601 40.9289L229.576 40.9368L229.557 40.9549L229.532 40.9619L229.512 40.9771L229.493 40.9932L229.468 41.0011L229.447 41.0158L229.424 41.0252L229.405 41.0423L229.381 41.0531L229.358 41.0639L229.337 41.0772L229.318 41.0934L229.293 41.1022L229.27 41.1121L229.251 41.1302L229.229 41.1415L229.205 41.1503L229.184 41.1626L229.161 41.1744L229.142 41.1925L229.121 41.2048L229.098 41.2156L229.075 41.2274L229.053 41.2397L229.031 41.2514L229.007 41.2599L228.986 41.2755L228.963 41.2839L228.945 41.303L228.923 41.3157L228.899 41.3256L228.877 41.3369L228.857 41.3521L228.835 41.3648L228.813 41.3761L228.792 41.3918L228.767 41.3987L228.747 41.4149L228.722 41.4218L228.702 41.437L228.681 41.4503L228.657 41.4591L228.639 41.4782L228.614 41.4851L228.593 41.4994L228.572 41.514L228.546 41.52L228.529 41.541L228.507 41.5523L228.482 41.5593L228.464 41.5783L228.44 41.5872L228.418 41.5995L228.396 41.6113L228.378 41.6251L228.383 41.6467L228.394 41.6696L228.413 41.6878L228.427 41.7087L228.431 41.7351L228.443 41.7575L228.463 41.7743L228.474 41.7976L228.487 41.8185L228.494 41.8436L228.506 41.8664L228.52 41.8869L228.531 41.9101L228.55 41.9284L228.556 41.9539L228.574 41.9726L228.585 41.9944L228.597 42.0172L228.608 42.0391L228.617 42.0632L228.635 42.0819L228.644 42.1051L228.657 42.1275L228.676 42.1457L228.687 42.1675L228.699 42.1903L228.705 42.2158L228.723 42.2345L228.731 42.2577L228.746 42.2792L228.755 42.3019L228.769 42.3238L228.786 42.343L228.797 42.3648L228.812 42.3863L228.82 42.4099L228.835 42.4309L228.847 42.4528L228.859 42.4751L228.872 42.4965L228.88 42.5211L228.89 42.5434L228.908 42.5621L228.917 42.5863L228.929 42.6091L228.947 42.6263L228.96 42.6487L228.964 42.6751L228.98 42.6947L228.989 42.7188L229.004 42.7389L229.016 42.7617L229.031 42.7817L229.039 42.8063L229.051 42.8277L229.069 42.8469L229.081 42.8692L229.093 42.8911L229.105 42.9134L229.116 42.9357L229.128 42.9581L229.144 42.9781L229.158 42.9986L229.162 43.025L229.176 43.0469L229.188 43.0683L229.208 43.0861L229.217 43.1103L229.23 43.1312L229.242 43.154L229.253 43.1758L229.263 43.1996L229.282 43.2178L229.289 43.2428L229.307 43.2615L229.312 43.2875L229.327 43.3075L229.338 43.3298L229.355 43.3499L229.363 43.3736L229.376 43.3955L229.392 43.4155L229.404 43.4369L229.412 43.4615L229.432 43.4793L229.444 43.5021L229.45 43.5276L229.466 43.5472L229.481 43.5673L229.49 43.5914L229.501 43.6132L229.515 43.6337L229.525 43.6574L229.535 43.6812L229.553 43.6998L229.566 43.7208L229.577 43.7431L229.59 43.765L229.598 43.7896L229.614 43.8096L229.628 43.8301L229.638 43.8538L229.648 43.8761L229.659 43.8994L229.68 43.9167L229.688 43.9399L229.702 43.9618L229.709 43.9869L229.725 44.0065L229.74 44.0265L229.747 44.0516L229.765 44.0702L229.777 44.0931L229.789 44.1144L229.804 44.1349L229.809 44.1609L229.827 44.1796L229.838 44.2024L229.846 44.227L229.862 44.247L229.876 44.2675L229.883 44.2926L229.904 44.3099L229.913 44.3341L229.923 44.3564L229.938 44.3778L229.953 44.3979L229.965 44.4193L229.977 44.4421L229.989 44.4635L229.996 44.4885L230.007 44.5118L230.025 44.5305L230.038 44.5514L230.053 44.5729L230.057 44.5993L230.071 44.6198L230.088 44.6389L230.1 44.6617L230.112 44.6831L230.123 44.7064L230.138 44.7264L230.148 44.7501L230.156 44.7747L230.168 44.7961L230.187 44.8148L230.199 44.8371L230.205 44.8627L230.223 44.8813L230.232 44.9045L230.25 44.9232L230.257 44.9483L230.274 44.9674L230.284 44.9911L230.298 45.013L230.308 45.0353L230.323 45.0554L230.333 45.0791L230.346 45.1014L230.362 45.121L230.374 45.1424L230.387 45.1648L230.398 45.188L230.405 45.2117L230.423 45.2304L230.433 45.2541L230.445 45.2769L230.459 45.295Z" fill="#D9FFEF"/>
<path d="M229.879 52.0726C229.832 53.3297 228.775 54.3104 227.517 54.2629C226.26 54.2155 225.28 53.158 225.327 51.9009C225.375 50.6438 226.432 49.6632 227.689 49.7106C228.946 49.758 229.927 50.8155 229.879 52.0726Z" fill="#CCFFFE" stroke="black"/>
<rect opacity="0.3" x="13.1034" y="15.7742" width="204.489" height="106.69" transform="rotate(-4 13.1034 15.7742)" fill="url(#paint0_linear_585_72729)"/>
<path d="M8.86987 25.5642L9.20947 32.6418L2.94825 29.4554L8.86987 25.5642Z" fill="white" stroke="black" stroke-linejoin="round"/>
<circle cx="2.94824" cy="22.0742" r="2.42603" transform="rotate(75.7596 2.94824 22.0742)" fill="#86EFCE"/>
<path d="M13.2964 21.1258L12.8858 15.612L44.3153 13.5518" stroke="black" stroke-linecap="round"/>
<path d="M65.5378 28.4531L89.7385 21.8542C91.6034 21.3457 93.5275 22.4453 94.036 24.3102L98.4604 40.5362C98.9689 42.4011 97.8693 44.3251 96.0044 44.8337L71.8037 51.4325C69.9388 51.941 68.0147 50.8415 67.5062 48.9765L63.0818 32.7505C62.5733 30.8856 63.6729 28.9616 65.5378 28.4531Z" fill="#090B0E" stroke="black"/>
<circle cx="79.5949" cy="36.404" r="4.44342" transform="rotate(-11.759 79.5949 36.404)" fill="#86EFCE" stroke="#86EFCE"/>
<path d="M81.4672 37.2728C81.4371 37.4502 81.5047 37.6301 81.6442 37.7438C81.7836 37.8575 81.9734 37.8875 82.1411 37.8224L86.8129 36.0083C86.9746 35.9455 87.0922 35.8034 87.1236 35.6328C87.1551 35.4622 87.0958 35.2875 86.9671 35.1712L83.1817 31.7514C83.0462 31.629 82.8549 31.5902 82.6825 31.65C82.5101 31.7099 82.384 31.859 82.3535 32.0389L81.4672 37.2728Z" stroke="white" stroke-linejoin="round"/>
<rect x="0.40407" y="0.577116" width="42.3294" height="20.5851" rx="3.5" transform="matrix(0.985431 0.170074 -0.177292 0.984158 112.053 0.644156)" fill="#080B0E" stroke="black" stroke-linejoin="round"/>
<rect x="0.404069" y="0.577116" width="42.3294" height="20.5851" rx="3.5" transform="matrix(0.985431 0.170074 -0.177292 0.984158 111.596 -0.0595793)" fill="#86EFCE" stroke="black" stroke-linejoin="round"/>
<rect x="0.40407" y="0.577116" width="10.273" height="3.41241" rx="1.7062" transform="matrix(0.985431 0.170074 -0.177292 0.984158 113.345 13.2516)" fill="#D9FFEF" stroke="black"/>
<path d="M115.084 6.24976L147.409 11.8286" stroke="#080B0E" stroke-linecap="round" stroke-linejoin="round"/>
<path d="M114.648 9.67456L135.264 13.2326" stroke="#080B0E" stroke-linecap="round" stroke-linejoin="round"/>
<path d="M221.147 69.9565L224.674 107.825L210.381 109.011" stroke="black" stroke-linecap="round"/>
<mask id="mask0_585_72729" style="mask-type:alpha" maskUnits="userSpaceOnUse" x="50" y="46" width="144" height="74">
<rect x="50.3395" y="55.9915" width="138.892" height="63.9397" transform="rotate(-4 50.3395 55.9915)" fill="url(#paint1_linear_585_72729)"/>
</mask>
<g mask="url(#mask0_585_72729)">
<rect x="60.7052" y="64.2255" width="123.177" height="77.2809" rx="3.5" fill="white" stroke="black"/>
<path d="M60.7052 67.7255C60.7052 65.7925 62.2722 64.2255 64.2052 64.2255H180.382C182.315 64.2255 183.882 65.7925 183.882 67.7255V70.226H60.7052V67.7255Z" fill="#090B0E" stroke="black"/>
<path d="M60.7052 67.7255C60.7052 65.7925 62.2722 64.2255 64.2052 64.2255H89.5559V141.506H64.2052C62.2722 141.506 60.7052 139.939 60.7052 138.006V67.7255Z" fill="#090B0E" stroke="#090B0E"/>
<path d="M65.3077 80.5013H81.383" stroke="white" stroke-linecap="round" stroke-linejoin="round"/>
<path d="M65.3077 84.7943H78.146" stroke="white" stroke-linecap="round" stroke-linejoin="round"/>
<path d="M65.3077 67.2257H73.019" stroke="white" stroke-linecap="round" stroke-linejoin="round"/>
<path d="M97.6454 76.5142H107.343" stroke="#090B0E" stroke-linecap="round" stroke-linejoin="round"/>
<circle cx="178.612" cy="67.2257" r="1.16671" fill="#D9FFEF" stroke="#D9FFEF"/>
</g>
<rect x="116.349" y="42.5503" width="46.3969" height="21.0082" rx="3.5" transform="rotate(9.55644 116.349 42.5503)" fill="#080B0E" stroke="black" stroke-linejoin="round"/>
<rect x="114.884" y="40.8187" width="46.3969" height="21.0082" rx="3.5" transform="rotate(9.55644 114.884 40.8187)" fill="white" stroke="black" stroke-linejoin="round"/>
<circle cx="121.551" cy="50.8006" r="3.35494" transform="rotate(10 121.551 50.8006)" fill="#4BE4B4" stroke="black"/>
<circle cx="121.675" cy="50.0975" r="1.42747" transform="rotate(10 121.675 50.0975)" fill="#090B0E"/>
<path fill-rule="evenodd" clip-rule="evenodd" d="M119.045 52.6871C119.451 51.9777 120.391 51.5743 121.388 51.7502C122.386 51.9261 123.131 52.6265 123.27 53.4318C122.638 53.8897 121.829 54.1009 120.999 53.9547C120.17 53.8085 119.482 53.3333 119.045 52.6871Z" fill="#090B0E"/>
<path d="M128.41 50.5L153.013 54.7316" stroke="#080B0E" stroke-linecap="round" stroke-linejoin="round"/>
<path d="M127.91 54L145.835 57.0177" stroke="#080B0E" stroke-linecap="round" stroke-linejoin="round"/>
<defs>
<linearGradient id="paint0_linear_585_72729" x1="13.0542" y1="68.91" x2="217.634" y2="68.91" gradientUnits="userSpaceOnUse">
<stop stop-color="#96F2BC"/>
<stop offset="0.3029" stop-color="#7FF5CD"/>
<stop offset="0.9355" stop-color="#44FEFA"/>
<stop offset="1" stop-color="#3EFFFF"/>
</linearGradient>
<linearGradient id="paint1_linear_585_72729" x1="50.306" y1="87.836" x2="189.26" y2="87.836" gradientUnits="userSpaceOnUse">
<stop stop-color="#96F2BC"/>
<stop offset="0.3029" stop-color="#7FF5CD"/>
<stop offset="0.9355" stop-color="#44FEFA"/>
<stop offset="1" stop-color="#3EFFFF"/>
</linearGradient>
</defs>
</svg>
