<svg width="426" height="321" viewBox="0 0 426 321" fill="none" xmlns="http://www.w3.org/2000/svg">
<mask id="mask0_113_1288" style="mask-type:alpha" maskUnits="userSpaceOnUse" x="0" y="0" width="426" height="321">
<path d="M150.072 41.7394C171.687 27.6538 243.183 -17.2765 326.297 7.60516C409.412 32.4856 421.503 107.739 423.949 126C428.068 156.756 428.03 222.008 390.715 265.905C353.401 309.802 277.355 322.348 255.165 319.693C240.053 317.884 223.329 312.613 210.186 304.737C194.516 295.345 186.242 279.717 176.324 264.948C159.563 239.988 134.483 240.05 106.927 240.869C68.442 242.014 37.1231 229.838 16.0986 197.25C-11.8892 153.868 -6.02181 64.7523 56.8363 57.3927C71.0834 55.725 84.6577 58.5367 98.7896 58.405" fill="white"/>
</mask>
<g mask="url(#mask0_113_1288)">
<path fill-rule="evenodd" clip-rule="evenodd" d="M150.072 41.7394C134.664 51.7796 117.388 58.2313 98.7896 58.405C84.6577 58.5367 71.0834 55.725 56.8363 57.3927C-6.02181 64.7523 -11.8892 153.868 16.0986 197.25C37.1231 229.838 68.442 242.014 106.927 240.869C134.483 240.05 159.563 239.988 176.324 264.948C186.242 279.717 194.516 295.345 210.186 304.737C223.329 312.613 240.053 317.884 255.165 319.693C277.355 322.348 353.401 309.802 390.715 265.905C428.03 222.008 428.068 156.756 423.949 126C421.503 107.739 409.412 32.4856 326.297 7.60516C243.183 -17.2765 171.687 27.6538 150.072 41.7394Z" fill="url(#paint0_linear_113_1288)"/>
</g>
<path fill-rule="evenodd" clip-rule="evenodd" d="M35.28 288.156H401.718C404.502 288.156 406.758 285.9 406.758 283.116V30.24C406.758 27.4564 404.502 25.2 401.718 25.2H35.28C32.4965 25.2 30.24 27.4564 30.24 30.24V283.116C30.24 285.9 32.4965 288.156 35.28 288.156Z" fill="white" stroke="#CED2D9" stroke-width="0.933344"/>
<path fill-rule="evenodd" clip-rule="evenodd" d="M31.0091 63.4558H405.882V30.24C405.882 27.4564 403.626 25.2 400.842 25.2H36.0491C33.2656 25.2 31.0091 27.4564 31.0091 30.24V63.4558Z" fill="white"/>
<mask id="mask1_113_1288" style="mask-type:alpha" maskUnits="userSpaceOnUse" x="77" y="60" width="33" height="3">
<path d="M80.5957 60.1042C79.0884 60.1042 77.8666 61.3251 77.8666 62.8324H109.248C109.248 61.3251 108.026 60.1042 106.518 60.1042H80.5957Z" fill="white"/>
</mask>
<g mask="url(#mask1_113_1288)">
<path fill-rule="evenodd" clip-rule="evenodd" d="M77.8302 66.3858H116.315V56.553H77.8302V66.3858Z" fill="#00D5A0"/>
</g>
<path d="M30.2403 62.8325H407.146" stroke="#CED2D9" stroke-width="0.758528" stroke-linecap="square"/>
<mask id="mask2_113_1288" style="mask-type:alpha" maskUnits="userSpaceOnUse" x="43" y="36" width="18" height="17">
<path d="M46.6127 36.1145C45.1054 36.1145 43.8845 37.3372 43.8845 38.8436V49.7581C43.8845 51.2664 45.1054 52.4881 46.6127 52.4881H57.5272C59.0346 52.4881 60.2573 51.2664 60.2573 49.7581V38.8436C60.2573 37.3372 59.0346 36.1145 57.5272 36.1145H46.6127Z" fill="white"/>
</mask>
<g mask="url(#mask2_113_1288)">
<path fill-rule="evenodd" clip-rule="evenodd" d="M40.3322 56.0387H63.8086V32.5623H40.3322V56.0387Z" fill="#4ABB8F"/>
</g>
<path fill-rule="evenodd" clip-rule="evenodd" d="M46.613 36.1145H57.5275C59.0349 36.1145 60.2566 37.3372 60.2566 38.8436V49.7581C60.2566 51.2655 59.0349 52.4872 57.5275 52.4872H46.613C45.1056 52.4872 43.8839 51.2655 43.8839 49.7581V38.8436C43.8839 37.3372 45.1056 36.1145 46.613 36.1145Z" fill="#00D5A0"/>
<mask id="mask3_113_1288" style="mask-type:alpha" maskUnits="userSpaceOnUse" x="47" y="40" width="10" height="9">
<path d="M56.1104 40.5498C55.9275 40.5554 55.752 40.6375 55.6241 40.7784C53.8779 42.6339 52.2874 44.4642 50.5906 46.2908L48.443 44.4707C48.2974 44.3475 48.1107 44.2897 47.9241 44.3111C47.7374 44.3335 47.5666 44.4325 47.449 44.5874C47.2054 44.9113 47.2549 45.3835 47.5601 45.6421L50.2098 47.8886C50.4917 48.1285 50.8996 48.1033 51.1534 47.8308C53.0519 45.8129 54.7599 43.8239 56.6294 41.8378C56.8403 41.6212 56.9038 41.2899 56.789 41.0043C56.677 40.7271 56.4203 40.5488 56.1394 40.5488C56.13 40.5488 56.1198 40.5498 56.1104 40.5498Z" fill="white"/>
</mask>
<g mask="url(#mask3_113_1288)">
<path fill-rule="evenodd" clip-rule="evenodd" d="M43.7427 51.6043H60.3973V36.9966H43.7427V51.6043Z" fill="white"/>
</g>
<path fill-rule="evenodd" clip-rule="evenodd" d="M393.216 43.5743L390.549 40.9077L390.032 41.4248L392.699 44.0904L390.032 46.7579L390.549 47.2741L393.216 44.6084L395.881 47.2741L396.399 46.7579L393.732 44.0904L396.399 41.4248L395.881 40.9077L393.216 43.5743Z" fill="#767576"/>
<path fill-rule="evenodd" clip-rule="evenodd" d="M393.216 43.5743L390.549 40.9077L390.032 41.4248L392.699 44.0904L390.032 46.7579L390.549 47.2741L393.216 44.6084L395.881 47.2741L396.399 46.7579L393.732 44.0904L396.399 41.4248L395.881 40.9077L393.216 43.5743Z" fill="#737880"/>
<path fill-rule="evenodd" clip-rule="evenodd" d="M84.9409 161.349H381.658C383.227 161.349 384.499 160.076 384.499 158.507C384.499 156.938 383.227 155.666 381.658 155.666H84.9409C83.3716 155.666 82.0994 156.938 82.0994 158.507C82.0994 160.076 83.3716 161.349 84.9409 161.349Z" fill="#EBEEF2"/>
<path d="M386.82 75.5999H50.4C47.6165 75.5999 45.36 77.8563 45.36 80.6399V107.1C45.36 109.883 47.6165 112.14 50.4 112.14H386.82C389.603 112.14 391.86 109.883 391.86 107.1V80.6399C391.86 77.8563 389.603 75.5999 386.82 75.5999Z" fill="#FFF5CD"/>
<path fill-rule="evenodd" clip-rule="evenodd" d="M88.1661 136.873H379.38C382.73 136.873 385.446 134.157 385.446 130.807C385.446 127.456 382.73 124.74 379.38 124.74H88.1661C84.8155 124.74 82.0994 127.456 82.0994 130.807C82.0994 134.157 84.8155 136.873 88.1661 136.873Z" fill="#EBEEF2"/>
<path fill-rule="evenodd" clip-rule="evenodd" d="M84.9409 182.661H381.658C383.227 182.661 384.499 181.388 384.499 179.819C384.499 178.25 383.227 176.978 381.658 176.978H84.9409C83.3716 176.978 82.0994 178.25 82.0994 179.819C82.0994 181.388 83.3716 182.661 84.9409 182.661Z" fill="#EBEEF2"/>
<path fill-rule="evenodd" clip-rule="evenodd" d="M84.9409 203.263H381.658C383.227 203.263 384.499 201.991 384.499 200.422C384.499 198.852 383.227 197.58 381.658 197.58H84.9409C83.3716 197.58 82.0994 198.852 82.0994 200.422C82.0994 201.991 83.3716 203.263 84.9409 203.263Z" fill="#EBEEF2"/>
<path fill-rule="evenodd" clip-rule="evenodd" d="M84.9409 225.286H288.418C289.987 225.286 291.259 224.014 291.259 222.445C291.259 220.875 289.987 219.603 288.418 219.603H84.9409C83.3716 219.603 82.0994 220.875 82.0994 222.445C82.0994 224.014 83.3716 225.286 84.9409 225.286Z" fill="#EBEEF2"/>
<path d="M60.0635 197.781H43.6908" stroke="#D9DEE5" stroke-width="0.758528" stroke-linecap="square"/>
<path d="M60.0635 168.084H43.6908" stroke="#D9DEE5" stroke-width="0.758528" stroke-linecap="square"/>
<mask id="mask4_113_1288" style="mask-type:alpha" maskUnits="userSpaceOnUse" x="47" y="125" width="11" height="12">
<path d="M51.1058 125.578C50.4786 125.578 49.9681 126.068 49.9681 126.67V133.218C49.9681 133.82 50.4786 134.31 51.1058 134.31H56.7899C57.4171 134.31 57.9267 133.82 57.9267 133.218V126.67C57.9267 126.124 57.3583 125.578 56.7899 125.578H51.1058ZM51.1058 133.218H56.7899V126.67H51.1058V133.218ZM47.6935 127.761V135.402C47.6935 136.004 48.2041 136.493 48.8313 136.493H55.6531V135.402H48.8313V127.761H47.6935Z" fill="white"/>
</mask>
<g mask="url(#mask4_113_1288)">
<path fill-rule="evenodd" clip-rule="evenodd" d="M44.1422 140.045H61.479V122.026H44.1422V140.045Z" fill="#405880"/>
<path fill-rule="evenodd" clip-rule="evenodd" d="M42.4369 141.267H63.0424V120.661H42.4369V141.267Z" fill="#737880"/>
</g>
<mask id="mask5_113_1288" style="mask-type:alpha" maskUnits="userSpaceOnUse" x="46" y="147" width="12" height="12">
<path d="M51.4941 147.974L46.8955 152.571C46.2618 153.207 46.2618 154.238 46.8955 154.871L47.2791 155.256L48.0435 154.488L47.6609 154.106C47.449 153.895 47.449 153.55 47.6609 153.338L52.2604 148.74C52.3621 148.637 52.4984 148.581 52.643 148.581C52.7896 148.581 52.924 148.637 53.0267 148.74L53.4112 149.123L54.1756 148.357L53.7939 147.974C53.4868 147.667 53.0649 147.513 52.643 147.513C52.2212 147.513 51.8002 147.667 51.4941 147.974ZM52.2594 151.806L53.0257 152.573L56.859 148.741L56.0918 147.974L52.2594 151.806ZM55.7081 151.424L56.0918 151.807C56.1954 151.909 56.2514 152.045 56.2514 152.189C56.2514 152.333 56.1944 152.47 56.0918 152.573L51.4941 157.172C51.2888 157.376 50.9313 157.376 50.7269 157.172L50.3442 156.789L49.5779 157.555L49.9606 157.937C50.2686 158.245 50.6765 158.414 51.1105 158.414C51.5454 158.414 51.9533 158.245 52.2604 157.937L56.859 153.339C57.166 153.031 57.334 152.624 57.334 152.189C57.334 151.755 57.166 151.348 56.859 151.041L56.4754 150.658L55.7081 151.424ZM46.8946 157.171L47.6599 157.937L51.4932 154.105L50.7269 153.338L46.8946 157.171Z" fill="white"/>
</mask>
<g mask="url(#mask5_113_1288)">
<path fill-rule="evenodd" clip-rule="evenodd" d="M42.8681 161.966H60.8873V143.961H42.8681V161.966Z" fill="#767576"/>
<path fill-rule="evenodd" clip-rule="evenodd" d="M41.5036 163.202H62.109V142.597H41.5036V163.202Z" fill="#737880"/>
</g>
<mask id="mask6_113_1288" style="mask-type:alpha" maskUnits="userSpaceOnUse" x="46" y="213" width="11" height="3">
<path d="M55.052 213.891C54.6087 214.334 54.6087 215.055 55.052 215.498C55.4972 215.943 56.2168 215.943 56.6611 215.498C57.1054 215.055 57.1054 214.334 56.6611 213.891C56.438 213.669 56.1478 213.558 55.8565 213.558C55.5653 213.558 55.2751 213.669 55.052 213.891ZM51.0741 213.891C50.6289 214.334 50.6289 215.055 51.0741 215.498C51.5174 215.943 52.2361 215.943 52.6813 215.498C53.1256 215.055 53.1256 214.334 52.6813 213.891C52.4592 213.669 52.168 213.558 51.8768 213.558C51.5865 213.558 51.2953 213.669 51.0741 213.891ZM47.0943 213.891C46.6491 214.334 46.6491 215.055 47.0943 215.498C47.5386 215.943 48.2582 215.943 48.7015 215.498C49.1458 215.055 49.1458 214.334 48.7015 213.891C48.4803 213.669 48.1891 213.558 47.8979 213.558C47.6067 213.558 47.3155 213.669 47.0943 213.891Z" fill="white"/>
</mask>
<g mask="url(#mask6_113_1288)">
<path fill-rule="evenodd" clip-rule="evenodd" d="M43.2088 219.384H60.5457V210.006H43.2088V219.384Z" fill="#767576"/>
<path fill-rule="evenodd" clip-rule="evenodd" d="M41.5036 224.926H62.109V204.321H41.5036V224.926Z" fill="#737880"/>
</g>
<mask id="mask7_113_1288" style="mask-type:alpha" maskUnits="userSpaceOnUse" x="45" y="177" width="13" height="11">
<path d="M48.8085 178.687C47.7107 178.687 46.8173 179.567 46.8173 180.647C46.8173 182.844 49.8989 185.356 51.4633 186.401C53.0277 185.356 56.1093 182.844 56.1093 180.647C56.1093 179.567 55.2159 178.687 54.1181 178.687C52.9971 178.687 52.127 179.741 52.127 180.647C52.127 181.008 51.8297 181.301 51.4633 181.301C51.0969 181.301 50.7996 181.008 50.7996 180.647C50.7996 179.741 49.9295 178.687 48.8085 178.687ZM51.4633 187.834C51.3412 187.834 51.2191 187.801 51.1115 187.735C50.8819 187.594 45.4899 184.235 45.4899 180.647C45.4899 178.846 46.9786 177.38 48.8085 177.38C49.8664 177.38 50.8467 177.927 51.4633 178.739C52.0799 177.927 53.0602 177.38 54.1181 177.38C55.948 177.38 57.4367 178.846 57.4367 180.647C57.4367 184.235 52.0447 187.594 51.8151 187.735C51.7075 187.801 51.5854 187.834 51.4633 187.834Z" fill="white"/>
</mask>
<g mask="url(#mask7_113_1288)">
<path d="M48.8085 178.687C47.7107 178.687 46.8173 179.567 46.8173 180.647C46.8173 182.844 49.8989 185.356 51.4633 186.401C53.0277 185.356 56.1093 182.844 56.1093 180.647C56.1093 179.567 55.2159 178.687 54.1181 178.687C52.9971 178.687 52.127 179.741 52.127 180.647C52.127 181.008 51.8297 181.301 51.4633 181.301C51.0969 181.301 50.7996 181.008 50.7996 180.647C50.7996 179.741 49.9295 178.687 48.8085 178.687ZM51.4633 187.834C51.3412 187.834 51.2191 187.801 51.1115 187.735C50.8819 187.594 45.4899 184.235 45.4899 180.647C45.4899 178.846 46.9786 177.38 48.8085 177.38C49.8664 177.38 50.8467 177.927 51.4633 178.739C52.0799 177.927 53.0602 177.38 54.1181 177.38C55.948 177.38 57.4367 178.846 57.4367 180.647C57.4367 184.235 52.0447 187.594 51.8151 187.735C51.7075 187.801 51.5854 187.834 51.4633 187.834Z" fill="#737880"/>
</g>
<path d="M379.42 83.2H327.76C326.368 83.2 325.24 84.3282 325.24 85.72V102.1C325.24 103.492 326.368 104.62 327.76 104.62H379.42C380.812 104.62 381.94 103.492 381.94 102.1V85.72C381.94 84.3282 380.812 83.2 379.42 83.2Z" fill="#FFE067"/>
<path d="M83.0466 47.4311C84.7476 47.4311 85.7808 46.5491 86.4234 45.5411L85.1634 44.8985C84.7602 45.6041 83.9538 46.1207 83.0466 46.1207C81.3834 46.1207 80.1486 44.8481 80.1486 43.0841C80.1486 41.3201 81.3834 40.0475 83.0466 40.0475C83.9538 40.0475 84.7602 40.5767 85.1634 41.2697L86.4234 40.6271C85.7934 39.6191 84.7476 38.7371 83.0466 38.7371C80.5644 38.7371 78.6366 40.5011 78.6366 43.0841C78.6366 45.6671 80.5644 47.4311 83.0466 47.4311ZM89.3214 47.4311C90.1278 47.4311 90.8334 47.1413 91.287 46.6247V47.2799H92.61V43.2479C92.61 41.6099 91.4256 41.0429 90.0774 41.0429C89.1072 41.0429 88.2252 41.3579 87.5196 42.0257L88.0614 42.9455C88.5906 42.4289 89.1828 42.1769 89.8632 42.1769C90.7074 42.1769 91.287 42.6053 91.287 43.3109V44.2181C90.846 43.7015 90.1404 43.4369 89.3214 43.4369C88.326 43.4369 87.2046 44.0165 87.2046 45.4151C87.2046 46.7633 88.326 47.4311 89.3214 47.4311ZM89.838 46.5239C89.0946 46.5239 88.5402 46.0955 88.5402 45.4403C88.5402 44.7725 89.0946 44.3441 89.838 44.3441C90.4176 44.3441 90.9846 44.5583 91.287 44.9741V45.8939C90.9846 46.3097 90.4176 46.5239 89.838 46.5239ZM95.6466 47.2799V43.1345C95.9112 42.7061 96.6546 42.3281 97.209 42.3281C97.3728 42.3281 97.5114 42.3407 97.6248 42.3659V41.0555C96.831 41.0555 96.1002 41.5091 95.6466 42.0887V41.1941H94.3236V47.2799H95.6466ZM101.027 47.4311C101.808 47.4311 102.514 47.0531 102.98 46.4483V47.2799H104.303V38.8757H102.98V42.0383C102.488 41.3957 101.783 41.0429 101.027 41.0429C99.4518 41.0429 98.3178 42.2777 98.3178 44.2433C98.3178 46.2467 99.4644 47.4311 101.027 47.4311ZM101.405 46.2593C100.359 46.2593 99.6912 45.4151 99.6912 44.2433C99.6912 43.0589 100.359 42.2147 101.405 42.2147C102.035 42.2147 102.677 42.5801 102.98 43.0337V45.4529C102.677 45.9065 102.035 46.2593 101.405 46.2593Z" fill="#00D5A0"/>
<path d="M121.036 47.2799C123.644 47.2799 125.345 45.4781 125.345 43.0841C125.345 40.7027 123.644 38.8757 121.036 38.8757H118.163V47.2799H121.036ZM121.036 46.3475H119.209V39.8081H121.036C123.115 39.8081 124.261 41.2697 124.261 43.0841C124.261 44.8859 123.077 46.3475 121.036 46.3475ZM129.692 47.4311C130.687 47.4311 131.506 47.1035 132.111 46.4987L131.657 45.8813C131.179 46.3727 130.473 46.6499 129.78 46.6499C128.47 46.6499 127.663 45.6923 127.588 44.5457H132.514V44.3063C132.514 42.4793 131.431 41.0429 129.591 41.0429C127.852 41.0429 126.592 42.4667 126.592 44.2307C126.592 46.1333 127.89 47.4311 129.692 47.4311ZM131.582 43.8527H127.588C127.638 42.9203 128.281 41.8241 129.578 41.8241C130.964 41.8241 131.569 42.9455 131.582 43.8527ZM135.576 47.4311C136.13 47.4311 136.471 47.2673 136.71 47.0405L136.433 46.3349C136.307 46.4735 136.055 46.5869 135.79 46.5869C135.374 46.5869 135.173 46.2593 135.173 45.8057V42.0257H136.408V41.1941H135.173V39.5309H134.228V41.1941H133.22V42.0257H134.228V46.0073C134.228 46.9145 134.681 47.4311 135.576 47.4311ZM139.532 47.4311C140.351 47.4311 141.044 47.1413 141.548 46.5869V47.2799H142.493V43.0967C142.493 41.6225 141.422 41.0429 140.137 41.0429C139.142 41.0429 138.361 41.3705 137.705 42.0509L138.146 42.7061C138.688 42.1265 139.28 41.8619 140.011 41.8619C140.893 41.8619 141.548 42.3281 141.548 43.1471V44.2433C141.057 43.6763 140.364 43.4117 139.532 43.4117C138.499 43.4117 137.403 44.0543 137.403 45.4151C137.403 46.7381 138.499 47.4311 139.532 47.4311ZM139.873 46.7507C138.991 46.7507 138.373 46.1963 138.373 45.4277C138.373 44.6465 138.991 44.0921 139.873 44.0921C140.54 44.0921 141.183 44.3441 141.548 44.8481V45.9947C141.183 46.4987 140.54 46.7507 139.873 46.7507ZM144.85 40.3247C145.202 40.3247 145.492 40.0475 145.492 39.6947C145.492 39.3419 145.202 39.0521 144.85 39.0521C144.509 39.0521 144.22 39.3419 144.22 39.6947C144.22 40.0475 144.509 40.3247 144.85 40.3247ZM145.328 47.2799V41.1941H144.383V47.2799H145.328ZM148.163 47.2799V38.8757H147.218V47.2799H148.163ZM151.981 47.4311C153.556 47.4311 154.375 46.6121 154.375 45.5915C154.375 43.2227 150.608 44.1047 150.608 42.7691C150.608 42.2273 151.124 41.8115 151.956 41.8115C152.737 41.8115 153.405 42.1391 153.77 42.5801L154.211 41.9249C153.72 41.4335 152.989 41.0429 151.956 41.0429C150.507 41.0429 149.688 41.8493 149.688 42.7943C149.688 45.0497 153.455 44.1425 153.455 45.6167C153.455 46.2215 152.951 46.6625 152.019 46.6625C151.187 46.6625 150.419 46.2593 150.016 45.7931L149.524 46.4735C150.142 47.1287 150.986 47.4311 151.981 47.4311Z" fill="#242C38"/>
<path d="M171.284 47.4311C172.771 47.4311 173.779 46.7255 174.485 45.7679L173.59 45.2765C173.111 45.9947 172.242 46.4987 171.284 46.4987C169.445 46.4987 168.046 45.0749 168.046 43.0841C168.046 41.0807 169.445 39.6695 171.284 39.6695C172.242 39.6695 173.111 40.1861 173.59 40.8917L174.472 40.4003C173.804 39.4553 172.771 38.7371 171.284 38.7371C168.865 38.7371 166.963 40.5011 166.963 43.0841C166.963 45.6671 168.865 47.4311 171.284 47.4311ZM178.441 47.4311C180.293 47.4311 181.453 45.9947 181.453 44.2307C181.453 42.4667 180.293 41.0429 178.441 41.0429C176.589 41.0429 175.43 42.4667 175.43 44.2307C175.43 45.9947 176.589 47.4311 178.441 47.4311ZM178.441 46.5869C177.143 46.5869 176.413 45.4781 176.413 44.2307C176.413 42.9959 177.143 41.8871 178.441 41.8871C179.739 41.8871 180.457 42.9959 180.457 44.2307C180.457 45.4781 179.739 46.5869 178.441 46.5869ZM183.935 47.2799V42.8321C184.262 42.3407 184.918 41.8871 185.535 41.8871C186.329 41.8871 186.656 42.3785 186.656 43.1471V47.2799H187.601V42.8195C187.916 42.3407 188.584 41.8871 189.214 41.8871C189.995 41.8871 190.336 42.3785 190.336 43.1471V47.2799H191.281V42.8825C191.281 41.6603 190.688 41.0429 189.58 41.0429C188.698 41.0429 187.879 41.6225 187.538 42.1769C187.362 41.5469 186.833 41.0429 185.9 41.0429C185.006 41.0429 184.187 41.6855 183.935 42.0761V41.1941H182.99V47.2799H183.935ZM194.116 47.2799V42.8321C194.443 42.3407 195.098 41.8871 195.716 41.8871C196.51 41.8871 196.837 42.3785 196.837 43.1471V47.2799H197.782V42.8195C198.097 42.3407 198.765 41.8871 199.395 41.8871C200.176 41.8871 200.516 42.3785 200.516 43.1471V47.2799H201.461V42.8825C201.461 41.6603 200.869 41.0429 199.76 41.0429C198.878 41.0429 198.059 41.6225 197.719 42.1769C197.543 41.5469 197.014 41.0429 196.081 41.0429C195.187 41.0429 194.368 41.6855 194.116 42.0761V41.1941H193.171V47.2799H194.116ZM206.098 47.4311C207.094 47.4311 207.913 47.1035 208.517 46.4987L208.064 45.8813C207.585 46.3727 206.879 46.6499 206.186 46.6499C204.876 46.6499 204.07 45.6923 203.994 44.5457H208.921V44.3063C208.921 42.4793 207.837 41.0429 205.997 41.0429C204.259 41.0429 202.999 42.4667 202.999 44.2307C202.999 46.1333 204.296 47.4311 206.098 47.4311ZM207.988 43.8527H203.994C204.044 42.9203 204.687 41.8241 205.985 41.8241C207.371 41.8241 207.976 42.9455 207.988 43.8527ZM211.39 47.2799V42.8321C211.743 42.3407 212.449 41.8871 213.192 41.8871C214.011 41.8871 214.553 42.2273 214.553 43.2983V47.2799H215.498V43.0085C215.498 41.6855 214.83 41.0429 213.557 41.0429C212.65 41.0429 211.819 41.5721 211.39 42.0761V41.1941H210.445V47.2799H211.39ZM218.925 47.4311C219.479 47.4311 219.82 47.2673 220.059 47.0405L219.782 46.3349C219.656 46.4735 219.404 46.5869 219.139 46.5869C218.723 46.5869 218.522 46.2593 218.522 45.8057V42.0257H219.757V41.1941H218.522V39.5309H217.577V41.1941H216.569V42.0257H217.577V46.0073C217.577 46.9145 218.03 47.4311 218.925 47.4311ZM223.02 47.4311C224.595 47.4311 225.414 46.6121 225.414 45.5915C225.414 43.2227 221.647 44.1047 221.647 42.7691C221.647 42.2273 222.163 41.8115 222.995 41.8115C223.776 41.8115 224.444 42.1391 224.809 42.5801L225.25 41.9249C224.759 41.4335 224.028 41.0429 222.995 41.0429C221.546 41.0429 220.727 41.8493 220.727 42.7943C220.727 45.0497 224.494 44.1425 224.494 45.6167C224.494 46.2215 223.99 46.6625 223.058 46.6625C222.226 46.6625 221.458 46.2593 221.054 45.7931L220.563 46.4735C221.18 47.1287 222.025 47.4311 223.02 47.4311Z" fill="#242C38"/>
<path fill-rule="evenodd" clip-rule="evenodd" d="M35.5327 287.886H401.311C404.094 287.886 406.351 285.63 406.351 282.846V261.048H30.4927V282.846C30.4927 285.63 32.7492 287.886 35.5327 287.886Z" fill="#F5F7FA"/>
<path fill-rule="evenodd" clip-rule="evenodd" d="M32.7208 278.466L39.7985 285.535H40.9172L32.7208 277.349V278.466ZM32.7208 281.376L36.8844 285.535H38.0032L32.7208 280.26V281.376ZM32.7208 284.288L33.9695 285.535H35.0882L32.7208 283.171V284.288Z" fill="#8E9BB1"/>
<path fill-rule="evenodd" clip-rule="evenodd" d="M31.492 27.5502H405.809C405.094 25.8943 403.463 24.822 401.66 24.822H35.8956C34.0289 24.822 32.3232 25.8788 31.492 27.5502Z" fill="#00D5A0"/>
<path d="M59.473 97.9998V94.4466L62.7742 89.5956H61.552L58.9438 93.5016L56.3356 89.5956H55.1134L58.4272 94.4466V97.9998H59.473ZM64.891 98.151C66.7432 98.151 67.9024 96.7146 67.9024 94.9506C67.9024 93.1866 66.7432 91.7628 64.891 91.7628C63.0388 91.7628 61.8796 93.1866 61.8796 94.9506C61.8796 96.7146 63.0388 98.151 64.891 98.151ZM64.891 97.3068C63.5932 97.3068 62.8624 96.198 62.8624 94.9506C62.8624 93.7158 63.5932 92.607 64.891 92.607C66.1888 92.607 66.907 93.7158 66.907 94.9506C66.907 96.198 66.1888 97.3068 64.891 97.3068ZM71.38 98.151C72.2872 98.151 73.081 97.6722 73.5472 97.143V97.9998H74.4922V91.914H73.5472V96.387C73.1944 96.8784 72.4888 97.3068 71.7454 97.3068C70.9264 97.3068 70.3846 96.9918 70.3846 95.9208V91.914H69.4396V96.2106C69.4396 97.5336 70.1074 98.151 71.38 98.151ZM77.3272 97.9998V93.6906C77.6044 93.1992 78.3982 92.7204 78.9778 92.7204C79.129 92.7204 79.2424 92.733 79.3558 92.7582V91.788C78.5242 91.788 77.8186 92.2542 77.3272 92.8968V91.914H76.3822V97.9998H77.3272ZM85.3282 98.151C85.8826 98.151 86.2228 97.9872 86.4622 97.7604L86.185 97.0548C86.059 97.1934 85.807 97.3068 85.5424 97.3068C85.1266 97.3068 84.925 96.9792 84.925 96.5256V92.7456H86.1598V91.914H84.925V90.2508H83.98V91.914H82.972V92.7456H83.98V96.7272C83.98 97.6344 84.4336 98.151 85.3282 98.151ZM90.2422 98.151C91.2376 98.151 92.0566 97.8234 92.6614 97.2186L92.2078 96.6012C91.729 97.0926 91.0234 97.3698 90.3304 97.3698C89.02 97.3698 88.2136 96.4122 88.138 95.2656H93.0646V95.0262C93.0646 93.1992 91.981 91.7628 90.1414 91.7628C88.4026 91.7628 87.1426 93.1866 87.1426 94.9506C87.1426 96.8532 88.4404 98.151 90.2422 98.151ZM92.1322 94.5726H88.138C88.1884 93.6402 88.831 92.544 90.1288 92.544C91.5148 92.544 92.1196 93.6654 92.1322 94.5726ZM96.3784 98.151C97.1974 98.151 97.8904 97.8612 98.3944 97.3068V97.9998H99.3394V93.8166C99.3394 92.3424 98.2684 91.7628 96.9832 91.7628C95.9878 91.7628 95.2066 92.0904 94.5514 92.7708L94.9924 93.426C95.5342 92.8464 96.1264 92.5818 96.8572 92.5818C97.7392 92.5818 98.3944 93.048 98.3944 93.867V94.9632C97.903 94.3962 97.21 94.1316 96.3784 94.1316C95.3452 94.1316 94.249 94.7742 94.249 96.135C94.249 97.458 95.3452 98.151 96.3784 98.151ZM96.7186 97.4706C95.8366 97.4706 95.2192 96.9162 95.2192 96.1476C95.2192 95.3664 95.8366 94.812 96.7186 94.812C97.3864 94.812 98.029 95.064 98.3944 95.568V96.7146C98.029 97.2186 97.3864 97.4706 96.7186 97.4706ZM102.174 97.9998V93.552C102.502 93.0606 103.157 92.607 103.775 92.607C104.568 92.607 104.896 93.0984 104.896 93.867V97.9998H105.841V93.5394C106.156 93.0606 106.824 92.607 107.454 92.607C108.235 92.607 108.575 93.0984 108.575 93.867V97.9998H109.52V93.6024C109.52 92.3802 108.928 91.7628 107.819 91.7628C106.937 91.7628 106.118 92.3424 105.778 92.8968C105.602 92.2668 105.072 91.7628 104.14 91.7628C103.245 91.7628 102.426 92.4054 102.174 92.796V91.914H101.229V97.9998H102.174ZM115.606 97.9998V93.6906C115.883 93.1992 116.677 92.7204 117.257 92.7204C117.408 92.7204 117.521 92.733 117.635 92.7582V91.788C116.803 91.788 116.097 92.2542 115.606 92.8968V91.914H114.661V97.9998H115.606ZM121.566 98.151C122.561 98.151 123.38 97.8234 123.985 97.2186L123.531 96.6012C123.053 97.0926 122.347 97.3698 121.654 97.3698C120.344 97.3698 119.537 96.4122 119.462 95.2656H124.388V95.0262C124.388 93.1992 123.305 91.7628 121.465 91.7628C119.726 91.7628 118.466 93.1866 118.466 94.9506C118.466 96.8532 119.764 98.151 121.566 98.151ZM123.456 94.5726H119.462C119.512 93.6402 120.155 92.544 121.452 92.544C122.838 92.544 123.443 93.6654 123.456 94.5726ZM131.217 100.318V91.914H130.272V92.8212C129.844 92.2038 129.088 91.7628 128.231 91.7628C126.631 91.7628 125.522 92.9724 125.522 94.9506C125.522 96.9162 126.631 98.151 128.231 98.151C129.05 98.151 129.781 97.7604 130.272 97.08V100.318H131.217ZM128.458 97.3068C127.236 97.3068 126.518 96.2988 126.518 94.9506C126.518 93.6024 127.236 92.607 128.458 92.607C129.214 92.607 129.957 93.048 130.272 93.5772V96.324C129.957 96.8532 129.214 97.3068 128.458 97.3068ZM135.06 98.151C135.968 98.151 136.761 97.6722 137.228 97.143V97.9998H138.173V91.914H137.228V96.387C136.875 96.8784 136.169 97.3068 135.426 97.3068C134.607 97.3068 134.065 96.9918 134.065 95.9208V91.914H133.12V96.2106C133.12 97.5336 133.788 98.151 135.06 98.151ZM142.809 98.151C143.805 98.151 144.624 97.8234 145.229 97.2186L144.775 96.6012C144.296 97.0926 143.591 97.3698 142.898 97.3698C141.587 97.3698 140.781 96.4122 140.705 95.2656H145.632V95.0262C145.632 93.1992 144.548 91.7628 142.709 91.7628C140.97 91.7628 139.71 93.1866 139.71 94.9506C139.71 96.8532 141.008 98.151 142.809 98.151ZM144.699 94.5726H140.705C140.756 93.6402 141.398 92.544 142.696 92.544C144.082 92.544 144.687 93.6654 144.699 94.5726ZM149.084 98.151C150.659 98.151 151.478 97.332 151.478 96.3114C151.478 93.9426 147.711 94.8246 147.711 93.489C147.711 92.9472 148.227 92.5314 149.059 92.5314C149.84 92.5314 150.508 92.859 150.873 93.3L151.314 92.6448C150.823 92.1534 150.092 91.7628 149.059 91.7628C147.61 91.7628 146.791 92.5692 146.791 93.5142C146.791 95.7696 150.558 94.8624 150.558 96.3366C150.558 96.9414 150.054 97.3824 149.122 97.3824C148.29 97.3824 147.522 96.9792 147.119 96.513L146.627 97.1934C147.245 97.8486 148.089 98.151 149.084 98.151ZM154.553 98.151C155.107 98.151 155.447 97.9872 155.687 97.7604L155.409 97.0548C155.283 97.1934 155.031 97.3068 154.767 97.3068C154.351 97.3068 154.149 96.9792 154.149 96.5256V92.7456H155.384V91.914H154.149V90.2508H153.204V91.914H152.196V92.7456H153.204V96.7272C153.204 97.6344 153.658 98.151 154.553 98.151ZM159.467 98.151C160.462 98.151 161.281 97.8234 161.886 97.2186L161.432 96.6012C160.953 97.0926 160.248 97.3698 159.555 97.3698C158.244 97.3698 157.438 96.4122 157.362 95.2656H162.289V95.0262C162.289 93.1992 161.205 91.7628 159.366 91.7628C157.627 91.7628 156.367 93.1866 156.367 94.9506C156.367 96.8532 157.665 98.151 159.467 98.151ZM161.357 94.5726H157.362C157.413 93.6402 158.055 92.544 159.353 92.544C160.739 92.544 161.344 93.6654 161.357 94.5726ZM166.17 98.151C167.027 98.151 167.77 97.71 168.224 97.0926V97.9998H169.169V89.5956H168.224V92.8338C167.732 92.166 166.989 91.7628 166.17 91.7628C164.57 91.7628 163.461 93.0228 163.461 94.9632C163.461 96.9414 164.582 98.151 166.17 98.151ZM166.397 97.3068C165.174 97.3068 164.444 96.3114 164.444 94.9632C164.444 93.615 165.174 92.607 166.397 92.607C167.153 92.607 167.883 93.0606 168.224 93.5898V96.3492C167.883 96.8784 167.153 97.3068 166.397 97.3068ZM175.847 98.151C176.401 98.151 176.741 97.9872 176.981 97.7604L176.703 97.0548C176.577 97.1934 176.325 97.3068 176.061 97.3068C175.645 97.3068 175.443 96.9792 175.443 96.5256V92.7456H176.678V91.914H175.443V90.2508H174.498V91.914H173.49V92.7456H174.498V96.7272C174.498 97.6344 174.952 98.151 175.847 98.151ZM178.959 97.9998V93.552C179.324 93.0606 180.03 92.607 180.761 92.607C181.58 92.607 182.134 92.922 182.134 93.993V97.9998H183.079V93.7032C183.079 92.3802 182.411 91.7628 181.139 91.7628C180.219 91.7628 179.387 92.292 178.959 92.796V89.5956H178.014V97.9998H178.959ZM186.758 98.151C187.577 98.151 188.27 97.8612 188.774 97.3068V97.9998H189.719V93.8166C189.719 92.3424 188.648 91.7628 187.363 91.7628C186.368 91.7628 185.586 92.0904 184.931 92.7708L185.372 93.426C185.914 92.8464 186.506 92.5818 187.237 92.5818C188.119 92.5818 188.774 93.048 188.774 93.867V94.9632C188.283 94.3962 187.59 94.1316 186.758 94.1316C185.725 94.1316 184.629 94.7742 184.629 96.135C184.629 97.458 185.725 98.151 186.758 98.151ZM187.098 97.4706C186.216 97.4706 185.599 96.9162 185.599 96.1476C185.599 95.3664 186.216 94.812 187.098 94.812C187.766 94.812 188.409 95.064 188.774 95.568V96.7146C188.409 97.2186 187.766 97.4706 187.098 97.4706ZM193.146 98.151C193.701 98.151 194.041 97.9872 194.28 97.7604L194.003 97.0548C193.877 97.1934 193.625 97.3068 193.361 97.3068C192.945 97.3068 192.743 96.9792 192.743 96.5256V92.7456H193.978V91.914H192.743V90.2508H191.798V91.914H190.79V92.7456H191.798V96.7272C191.798 97.6344 192.252 98.151 193.146 98.151ZM198.917 100.469C199.724 100.457 200.341 100.117 200.706 99.2346L203.756 91.914H202.722L200.706 96.9036L198.678 91.914H197.657L200.202 98.0628L199.799 98.9826C199.585 99.4866 199.308 99.6252 198.892 99.6252C198.741 99.6252 198.514 99.5874 198.375 99.5244L198.224 100.381C198.401 100.432 198.716 100.469 198.917 100.469ZM207.397 98.151C209.249 98.151 210.408 96.7146 210.408 94.9506C210.408 93.1866 209.249 91.7628 207.397 91.7628C205.545 91.7628 204.386 93.1866 204.386 94.9506C204.386 96.7146 205.545 98.151 207.397 98.151ZM207.397 97.3068C206.099 97.3068 205.368 96.198 205.368 94.9506C205.368 93.7158 206.099 92.607 207.397 92.607C208.695 92.607 209.413 93.7158 209.413 94.9506C209.413 96.198 208.695 97.3068 207.397 97.3068ZM213.886 98.151C214.793 98.151 215.587 97.6722 216.053 97.143V97.9998H216.998V91.914H216.053V96.387C215.7 96.8784 214.995 97.3068 214.251 97.3068C213.432 97.3068 212.891 96.9918 212.891 95.9208V91.914H211.946V96.2106C211.946 97.5336 212.613 98.151 213.886 98.151ZM223.084 97.9998V93.6906C223.361 93.1992 224.155 92.7204 224.735 92.7204C224.886 92.7204 224.999 92.733 225.113 92.7582V91.788C224.281 91.788 223.575 92.2542 223.084 92.8968V91.914H222.139V97.9998H223.084ZM229.044 98.151C230.039 98.151 230.858 97.8234 231.463 97.2186L231.009 96.6012C230.531 97.0926 229.825 97.3698 229.132 97.3698C227.822 97.3698 227.015 96.4122 226.94 95.2656H231.866V95.0262C231.866 93.1992 230.783 91.7628 228.943 91.7628C227.204 91.7628 225.944 93.1866 225.944 94.9506C225.944 96.8532 227.242 98.151 229.044 98.151ZM230.934 94.5726H226.94C226.99 93.6402 227.633 92.544 228.93 92.544C230.316 92.544 230.921 93.6654 230.934 94.5726ZM235.18 98.151C235.999 98.151 236.692 97.8612 237.196 97.3068V97.9998H238.141V93.8166C238.141 92.3424 237.07 91.7628 235.785 91.7628C234.789 91.7628 234.008 92.0904 233.353 92.7708L233.794 93.426C234.336 92.8464 234.928 92.5818 235.659 92.5818C236.541 92.5818 237.196 93.048 237.196 93.867V94.9632C236.705 94.3962 236.012 94.1316 235.18 94.1316C234.147 94.1316 233.051 94.7742 233.051 96.135C233.051 97.458 234.147 98.151 235.18 98.151ZM235.52 97.4706C234.638 97.4706 234.021 96.9162 234.021 96.1476C234.021 95.3664 234.638 94.812 235.52 94.812C236.188 94.812 236.831 95.064 237.196 95.568V96.7146C236.831 97.2186 236.188 97.4706 235.52 97.4706ZM242.387 98.151C243.244 98.151 243.987 97.71 244.441 97.0926V97.9998H245.386V89.5956H244.441V92.8338C243.95 92.166 243.206 91.7628 242.387 91.7628C240.787 91.7628 239.678 93.0228 239.678 94.9632C239.678 96.9414 240.8 98.151 242.387 98.151ZM242.614 97.3068C241.392 97.3068 240.661 96.3114 240.661 94.9632C240.661 93.615 241.392 92.607 242.614 92.607C243.37 92.607 244.101 93.0606 244.441 93.5898V96.3492C244.101 96.8784 243.37 97.3068 242.614 97.3068ZM252.064 98.151C252.618 98.151 252.959 97.9872 253.198 97.7604L252.921 97.0548C252.795 97.1934 252.543 97.3068 252.278 97.3068C251.862 97.3068 251.661 96.9792 251.661 96.5256V92.7456H252.896V91.914H251.661V90.2508H250.716V91.914H249.708V92.7456H250.716V96.7272C250.716 97.6344 251.169 98.151 252.064 98.151ZM255.176 97.9998V93.552C255.542 93.0606 256.247 92.607 256.978 92.607C257.797 92.607 258.351 92.922 258.351 93.993V97.9998H259.296V93.7032C259.296 92.3802 258.629 91.7628 257.356 91.7628C256.436 91.7628 255.605 92.292 255.176 92.796V89.5956H254.231V97.9998H255.176ZM261.653 91.0446C262.005 91.0446 262.295 90.7674 262.295 90.4146C262.295 90.0618 262.005 89.772 261.653 89.772C261.312 89.772 261.023 90.0618 261.023 90.4146C261.023 90.7674 261.312 91.0446 261.653 91.0446ZM262.131 97.9998V91.914H261.186V97.9998H262.131ZM265.949 98.151C267.524 98.151 268.343 97.332 268.343 96.3114C268.343 93.9426 264.576 94.8246 264.576 93.489C264.576 92.9472 265.092 92.5314 265.924 92.5314C266.705 92.5314 267.373 92.859 267.738 93.3L268.179 92.6448C267.688 92.1534 266.957 91.7628 265.924 91.7628C264.475 91.7628 263.656 92.5692 263.656 93.5142C263.656 95.7696 267.423 94.8624 267.423 96.3366C267.423 96.9414 266.919 97.3824 265.987 97.3824C265.155 97.3824 264.387 96.9792 263.984 96.513L263.492 97.1934C264.11 97.8486 264.954 98.151 265.949 98.151ZM277.151 98.151C278.637 98.151 279.645 97.4454 280.351 96.4878L279.456 95.9964C278.978 96.7146 278.108 97.2186 277.151 97.2186C275.311 97.2186 273.912 95.7948 273.912 93.804C273.912 91.8006 275.311 90.3894 277.151 90.3894C278.108 90.3894 278.978 90.906 279.456 91.6116L280.338 91.1202C279.671 90.1752 278.637 89.457 277.151 89.457C274.731 89.457 272.829 91.221 272.829 93.804C272.829 96.387 274.731 98.151 277.151 98.151ZM283.438 98.151C284.257 98.151 284.95 97.8612 285.454 97.3068V97.9998H286.399V93.8166C286.399 92.3424 285.328 91.7628 284.043 91.7628C283.047 91.7628 282.266 92.0904 281.611 92.7708L282.052 93.426C282.594 92.8464 283.186 92.5818 283.917 92.5818C284.799 92.5818 285.454 93.048 285.454 93.867V94.9632C284.963 94.3962 284.27 94.1316 283.438 94.1316C282.405 94.1316 281.309 94.7742 281.309 96.135C281.309 97.458 282.405 98.151 283.438 98.151ZM283.778 97.4706C282.896 97.4706 282.279 96.9162 282.279 96.1476C282.279 95.3664 282.896 94.812 283.778 94.812C284.446 94.812 285.089 95.064 285.454 95.568V96.7146C285.089 97.2186 284.446 97.4706 283.778 97.4706ZM289.234 97.9998V93.6906C289.511 93.1992 290.305 92.7204 290.885 92.7204C291.036 92.7204 291.149 92.733 291.263 92.7582V91.788C290.431 91.788 289.725 92.2542 289.234 92.8968V91.914H288.289V97.9998H289.234ZM294.803 98.151C295.66 98.151 296.403 97.71 296.857 97.0926V97.9998H297.802V89.5956H296.857V92.8338C296.366 92.166 295.622 91.7628 294.803 91.7628C293.203 91.7628 292.094 93.0228 292.094 94.9632C292.094 96.9414 293.216 98.151 294.803 98.151ZM295.03 97.3068C293.808 97.3068 293.077 96.3114 293.077 94.9632C293.077 93.615 293.808 92.607 295.03 92.607C295.786 92.607 296.517 93.0606 296.857 93.5898V96.3492C296.517 96.8784 295.786 97.3068 295.03 97.3068Z" fill="#090B0E"/>
<path d="M333.369 97.9999V89.5957H331.895V97.9999H333.369ZM339.87 97.9999V94.8625H341.332L343.197 97.9999H344.898L342.844 94.6987C343.852 94.5349 344.835 93.7285 344.835 92.2291C344.835 90.6793 343.751 89.5957 342.088 89.5957H338.396V97.9999H339.87ZM341.886 93.5647H339.87V90.8935H341.886C342.718 90.8935 343.323 91.4227 343.323 92.2291C343.323 93.0355 342.718 93.5647 341.886 93.5647ZM348.703 98.1511C349.673 98.1511 350.568 97.8487 351.173 97.2691L350.568 96.3997C350.139 96.8281 349.434 97.0675 348.842 97.0675C347.695 97.0675 347.002 96.3115 346.901 95.3917H351.601V95.0767C351.601 93.1615 350.429 91.7629 348.602 91.7629C346.8 91.7629 345.515 93.1867 345.515 94.9507C345.515 96.8785 346.876 98.1511 348.703 98.1511ZM350.316 94.4593H346.889C346.952 93.7159 347.468 92.8465 348.602 92.8465C349.799 92.8465 350.291 93.7411 350.316 94.4593ZM354.663 98.1511C355.469 98.1511 356.175 97.8613 356.628 97.3447V97.9999H357.951V93.9679C357.951 92.3299 356.767 91.7629 355.419 91.7629C354.449 91.7629 353.567 92.0779 352.861 92.7457L353.403 93.6655C353.932 93.1489 354.524 92.8969 355.205 92.8969C356.049 92.8969 356.628 93.3253 356.628 94.0309V94.9381C356.187 94.4215 355.482 94.1569 354.663 94.1569C353.667 94.1569 352.546 94.7365 352.546 96.1351C352.546 97.4833 353.667 98.1511 354.663 98.1511ZM355.179 97.2439C354.436 97.2439 353.882 96.8155 353.882 96.1603C353.882 95.4925 354.436 95.0641 355.179 95.0641C355.759 95.0641 356.326 95.2783 356.628 95.6941V96.6139C356.326 97.0297 355.759 97.2439 355.179 97.2439ZM361.996 98.1511C362.777 98.1511 363.483 97.7731 363.949 97.1683V97.9999H365.272V89.5957H363.949V92.7583C363.458 92.1157 362.752 91.7629 361.996 91.7629C360.421 91.7629 359.287 92.9977 359.287 94.9633C359.287 96.9667 360.434 98.1511 361.996 98.1511ZM362.374 96.9793C361.328 96.9793 360.66 96.1351 360.66 94.9633C360.66 93.7789 361.328 92.9347 362.374 92.9347C363.004 92.9347 363.647 93.3001 363.949 93.7537V96.1729C363.647 96.6265 363.004 96.9793 362.374 96.9793ZM371.736 97.9999V89.5957H370.262V97.9999H371.736ZM375.314 98.1511C375.932 98.1511 376.322 97.9873 376.562 97.7605L376.247 96.7651C376.146 96.8785 375.906 96.9793 375.654 96.9793C375.276 96.9793 375.075 96.6769 375.075 96.2611V93.0733H376.31V91.9141H375.075V90.2509H373.752V91.9141H372.744V93.0733H373.752V96.5887C373.752 97.5967 374.294 98.1511 375.314 98.1511Z" fill="#090B0E"/>
<rect x="75" y="36" width="164" height="19" fill="white"/>
<rect x="329" y="86" width="49" height="14" fill="#FFE067"/>
<path d="M337.88 98V91.33H336.71V98H337.88Z" fill="black"/>
<path d="M342.886 98V94.71C343.096 94.37 343.686 94.07 344.126 94.07C344.256 94.07 344.366 94.08 344.456 94.1V93.06C343.826 93.06 343.246 93.42 342.886 93.88V93.17H341.836V98H342.886Z" fill="black"/>
<path d="M347.533 98.12C348.303 98.12 349.013 97.88 349.493 97.42L349.013 96.73C348.673 97.07 348.113 97.26 347.643 97.26C346.733 97.26 346.183 96.66 346.103 95.93H349.833V95.68C349.833 94.16 348.903 93.05 347.453 93.05C346.023 93.05 345.003 94.18 345.003 95.58C345.003 97.11 346.083 98.12 347.533 98.12ZM348.813 95.19H346.093C346.143 94.6 346.553 93.91 347.453 93.91C348.403 93.91 348.793 94.62 348.813 95.19Z" fill="black"/>
<path d="M354.869 98V94.8C354.869 93.5 353.929 93.05 352.859 93.05C352.089 93.05 351.389 93.3 350.829 93.83L351.259 94.56C351.679 94.15 352.149 93.95 352.689 93.95C353.359 93.95 353.819 94.29 353.819 94.85V95.57C353.469 95.16 352.909 94.95 352.259 94.95C351.469 94.95 350.579 95.41 350.579 96.52C350.579 97.59 351.469 98.12 352.259 98.12C352.899 98.12 353.459 97.89 353.819 97.48V98H354.869ZM352.669 97.4C352.079 97.4 351.639 97.06 351.639 96.54C351.639 96.01 352.079 95.67 352.669 95.67C353.129 95.67 353.579 95.84 353.819 96.17V96.9C353.579 97.23 353.129 97.4 352.669 97.4Z" fill="black"/>
<path d="M360.681 98V91.33H359.631V93.84C359.241 93.33 358.681 93.05 358.081 93.05C356.831 93.05 355.931 94.03 355.931 95.59C355.931 97.18 356.841 98.12 358.081 98.12C358.701 98.12 359.261 97.82 359.631 97.34V98H360.681ZM358.381 97.19C357.551 97.19 357.021 96.52 357.021 95.59C357.021 94.65 357.551 93.98 358.381 93.98C358.881 93.98 359.391 94.27 359.631 94.63V96.55C359.391 96.91 358.881 97.19 358.381 97.19Z" fill="black"/>
<path d="M365.13 92.58C365.49 92.58 365.78 92.29 365.78 91.93C365.78 91.57 365.49 91.28 365.13 91.28C364.78 91.28 364.48 91.57 364.48 91.93C364.48 92.29 364.78 92.58 365.13 92.58ZM365.66 98V93.17H364.61V98H365.66Z" fill="black"/>
<path d="M368.472 98.12C368.962 98.12 369.272 97.99 369.462 97.81L369.212 97.02C369.132 97.11 368.942 97.19 368.742 97.19C368.442 97.19 368.282 96.95 368.282 96.62V94.09H369.262V93.17H368.282V91.85H367.232V93.17H366.432V94.09H367.232V96.88C367.232 97.68 367.662 98.12 368.472 98.12Z" fill="black"/>
<rect x="81" y="41" width="289" height="9" rx="4.5" fill="#EBEEF2"/>
<defs>
<linearGradient id="paint0_linear_113_1288" x1="190.43" y1="69.8671" x2="203.177" y2="251.082" gradientUnits="userSpaceOnUse">
<stop stop-color="#C6DBFF"/>
<stop offset="0.777924" stop-color="#CADDFE"/>
<stop offset="1" stop-color="#D6E4FC"/>
</linearGradient>
</defs>
</svg>
