<svg width="40" height="40" viewBox="0 0 40 40" fill="none" xmlns="http://www.w3.org/2000/svg">
<rect x="6.38965" y="4.71997" width="33.5719" height="24.6967" transform="rotate(12.8824 6.38965 4.71997)" fill="#D9FFEF"/>
<rect x="11.9569" y="37.5017" width="31" height="20" rx="1.43427" transform="rotate(-96.355 11.9569 37.5017)" fill="white" stroke="#090B0E"/>
<rect x="12.7083" y="38.4523" width="31" height="20" rx="1.43427" transform="rotate(-96.355 12.7083 38.4523)" fill="#090B0E" stroke="#090B0E"/>
<path d="M8.69159 8.18302C8.56933 7.08524 9.36014 6.0962 10.4579 5.97394L26.3596 4.20294C27.4574 4.08067 28.4464 4.87149 28.5687 5.96927L31.6355 33.5057C31.7577 34.6035 30.9669 35.5925 29.8691 35.7148L13.9675 37.4858C12.8697 37.6081 11.8806 36.8173 11.7584 35.7195L8.69159 8.18302Z" fill="white"/>
<path d="M8.69159 8.18302C8.56933 7.08524 9.36014 6.0962 10.4579 5.97394L26.3596 4.20294C27.4574 4.08067 28.4464 4.87149 28.5687 5.96927L29.9529 18.3976L10.0758 20.6114L8.69159 8.18302Z" fill="#4BE4B4"/>
<line x1="9.94466" y1="20.7169" x2="29.8218" y2="18.5032" stroke="black"/>
<circle cx="19.983" cy="17.0097" r="5.41695" transform="rotate(-6.35495 19.983 17.0097)" fill="white" stroke="black"/>
<circle cx="19.8467" cy="15.7881" r="2.45847" transform="rotate(-6.35495 19.8467 15.7881)" fill="#090B0E"/>
<path fill-rule="evenodd" clip-rule="evenodd" d="M16.7547 21.3427C17.0817 19.9737 18.4397 18.8514 20.1734 18.6583C21.9071 18.4652 23.4788 19.2613 24.0989 20.5249C23.2767 21.5879 22.0413 22.3294 20.6002 22.4899C19.159 22.6504 17.7907 22.1989 16.7547 21.3427Z" fill="#090B0E"/>
<rect x="11.9569" y="37.5017" width="31" height="20" rx="1.43427" transform="rotate(-96.355 11.9569 37.5017)" stroke="#090B0E"/>
<path d="M21.0184 6.15002C21.0231 5.9768 20.9377 5.81349 20.7928 5.71843C20.648 5.62336 20.4642 5.6101 20.3071 5.68336L16.2544 7.57423C16.1176 7.63808 16.0169 7.76034 15.9805 7.90689C15.9442 8.05343 15.976 8.20857 16.0671 8.32899L16.8397 9.35031C16.9313 9.47144 17.073 9.54435 17.2249 9.54847L20.4237 9.63519C20.6997 9.64267 20.9296 9.42496 20.9371 9.14892L21.0184 6.15002Z" fill="#090B0E" stroke="black" stroke-linejoin="round"/>
<rect x="16.1151" y="2.51569" width="4" height="6" transform="rotate(1.55286 16.1151 2.51569)" fill="white" stroke="black" stroke-linejoin="round"/>
<line x1="15.4416" y1="26.7761" x2="26.374" y2="25.5585" stroke="black" stroke-linecap="round"/>
<line x1="18.4416" y1="30.2226" x2="24.4047" y2="29.5585" stroke="black" stroke-linecap="round"/>
<circle cx="2.05603" cy="16.0562" r="1.69194" transform="rotate(75.7596 2.05603 16.0562)" fill="#090B0E"/>
<mask id="path-16-inside-1_2986_102508" fill="white">
<rect x="1" y="22.0918" width="4.43896" height="4.43896" rx="0.5" transform="rotate(-44.1482 1 22.0918)"/>
</mask>
<rect x="1" y="22.0918" width="4.43896" height="4.43896" rx="0.5" transform="rotate(-44.1482 1 22.0918)" fill="#4BE4B4" stroke="black" stroke-width="2" mask="url(#path-16-inside-1_2986_102508)"/>
</svg>
