<?xml version="1.0" encoding="UTF-8"?>
<svg width="429px" height="346px" viewBox="0 0 429 346" version="1.1" xmlns="http://www.w3.org/2000/svg" xmlns:xlink="http://www.w3.org/1999/xlink">
    <title>verification</title>
    <defs>
        <path d="M150.072392,41.7394514 C171.686593,27.6538738 243.182542,-17.2764336 326.297486,7.60524477 C409.411796,32.4856507 421.503498,107.738953 423.949302,126.000321 C428.068251,156.755974 428.02965,222.008503 390.715474,265.904884 C353.400666,309.801901 277.355457,322.347724 255.165401,319.692601 C240.052673,317.884343 223.329447,312.613545 210.186018,304.736616 C194.516419,295.344746 186.24245,279.717505 176.324445,264.948582 C159.562618,239.988007 134.483159,240.049724 106.926888,240.86923 C68.4420168,242.014503 37.1230673,229.837712 16.0986437,197.249623 C-11.8892027,153.867979 -6.02180398,64.752427 56.8363122,57.3927796 C71.0833587,55.7251357 84.65773,58.5367794 98.7896054,58.4050731" id="path-1"></path>
        <linearGradient x1="44.7149915%" y1="21.7742935%" x2="50%" y2="78.2257065%" id="linearGradient-3">
            <stop stop-color="#C6DBFF" offset="0%"></stop>
            <stop stop-color="#C8DCFF" offset="75.9944888%"></stop>
            <stop stop-color="#D6E4FC" offset="100%"></stop>
        </linearGradient>
    </defs>
    <g id="verification" stroke="none" stroke-width="1" fill="none" fill-rule="evenodd">
        <g id="Group-12" transform="translate(2.000000, 1.000000)">
            <g id="Group-3" transform="translate(0.000000, 22.760000)">
                <mask id="mask-2" fill="white">
                    <use xlink:href="#path-1"></use>
                </mask>
                <g id="Clip-2"></g>
                <path d="M150.072392,41.7394514 C134.664142,51.7796724 117.388475,58.2313734 98.7896054,58.4050731 C84.65773,58.5367794 71.0833587,55.7251357 56.8363122,57.3927796 C-6.02180398,64.752427 -11.8892027,153.867979 16.0986437,197.249623 C37.1230673,229.837712 68.4420168,242.014503 106.926888,240.86923 C134.483159,240.049724 159.562618,239.988007 176.324445,264.948582 C186.24245,279.717505 194.516419,295.344746 210.186018,304.736616 C223.329447,312.613545 240.052673,317.884343 255.165401,319.692601 C277.355457,322.347724 353.400666,309.801901 390.715474,265.904884 C428.02965,222.008503 428.068251,156.755974 423.949302,126.000321 C421.503498,107.738953 409.411796,32.4856507 326.297486,7.60524477 C243.182542,-17.2764336 171.686593,27.6538738 150.072392,41.7394514 Z" id="Fill-1" fill="url(#linearGradient-3)" mask="url(#mask-2)"></path>
            </g>
            <g id="Group-11" transform="translate(11.520000, 0.000000)">
                <g id="Group-8">
                    <g id="Group-9" transform="translate(61.560000, 52.790000)">
                        <g id="Group-3" transform="translate(71.188314, 83.778891)">
                            <rect id="Rectangle" stroke="#CED2D9" stroke-width="1.54757205" fill="#FFFFFF" x="2.29192665e-12" y="0.514124718" width="257.515974" height="165.899714"></rect>
                            <g id="verification/button/trusted/active" transform="translate(9.983696, 14.776547)">
                                <g id="verification-icon-trusted-copy-12">
                                    <g id="Group-15" fill="#F2FFFB" stroke="#29CC96" stroke-width="0.798695635">
                                        <rect id="Rectangle-3" x="0.399347818" y="0.399347818" width="19.1686956" height="19.1686956" rx="3.19478254"></rect>
                                    </g>
                                    <path d="M14.3191705,5.68683699 C12.1893226,7.94953749 10.2495662,10.1819962 8.17954196,12.4108459 L5.56082883,10.1909499 C5.38243061,10.0392703 5.15438542,9.96967527 4.92717608,9.99644294 C4.69996674,10.0232106 4.49212416,10.1445548 4.34906004,10.3337169 C4.05116957,10.7280941 4.11174724,11.3035795 4.48370102,11.6185376 L7.71508445,14.3594883 C8.05926987,14.6512396 8.55657978,14.6209065 8.86627557,14.2881094 C11.1821004,11.8274209 13.263973,9.40122265 15.544468,6.97890746 C15.8019662,6.71570766 15.87855,6.3115088 15.7380149,5.9626543 C15.5974842,5.61379979 15.2684518,5.39340452 14.911664,5.40857111 C14.6877421,5.41558566 14.4748585,5.51551615 14.3191705,5.68683699 Z" id="Fill-1" fill="#29CC96"></path>
                                </g>
                            </g>
                            <rect id="Rectangle" fill="#EBEEF2" x="14.8566899" y="65.3694356" width="230.278707" height="8.91401394" rx="4.45700697"></rect>
                            <rect id="Rectangle-Copy-2" fill="#EBEEF2" x="42.0939563" y="21.215358" width="203.041441" height="9.90446052" rx="4.95223026"></rect>
                            <rect id="Rectangle-Copy" fill="#EBEEF2" x="14.8566899" y="86.1688014" width="230.278707" height="8.91401394" rx="4.45700697"></rect>
                            <line x1="2.29192665e-12" y1="47.0659936" x2="257.494048" y2="45.7354093" id="Line-Copy-53" stroke="#CED2D9" stroke-width="1.54757205"></line>
                            <path d="M2.29192665e-12,-1.14596332e-12 L252.769699,-1.14596332e-12 C254.757544,-1.15876298e-12 256.583082,1.09713829 257.515974,2.85248446 L257.515974,2.85248446 L257.515974,2.85248446 L2.29192665e-12,2.85248446 L2.29192665e-12,-1.14596332e-12 Z" id="Rectangle-7-Copy-6" fill="#29CC96"></path>
                        </g>
                        <g id="Group-3-Copy">
                            <rect id="Rectangle" stroke="#CED2D9" stroke-width="1.54757205" fill="#FFFFFF" x="1.90993887e-12" y="0.724124718" width="257.515974" height="165.899714"></rect>
                            <g id="verification/button/trusted/active" transform="translate(9.983696, 14.986547)">
                                <g id="verification-icon-trusted-copy-12">
                                    <g id="Group-15" fill="#F2FFFB" stroke="#29CC96" stroke-width="0.798695635">
                                        <rect id="Rectangle-3" x="0.399347818" y="0.399347818" width="19.1686956" height="19.1686956" rx="3.19478254"></rect>
                                    </g>
                                    <path d="M14.3191705,5.68683699 C12.1893226,7.94953749 10.2495662,10.1819962 8.17954196,12.4108459 L5.56082883,10.1909499 C5.38243061,10.0392703 5.15438542,9.96967527 4.92717608,9.99644294 C4.69996674,10.0232106 4.49212416,10.1445548 4.34906004,10.3337169 C4.05116957,10.7280941 4.11174724,11.3035795 4.48370102,11.6185376 L7.71508445,14.3594883 C8.05926987,14.6512396 8.55657978,14.6209065 8.86627557,14.2881094 C11.1821004,11.8274209 13.263973,9.40122265 15.544468,6.97890746 C15.8019662,6.71570766 15.87855,6.3115088 15.7380149,5.9626543 C15.5974842,5.61379979 15.2684518,5.39340452 14.911664,5.40857111 C14.6877421,5.41558566 14.4748585,5.51551615 14.3191705,5.68683699 Z" id="Fill-1" fill="#29CC96"></path>
                                </g>
                            </g>
                            <rect id="Rectangle" fill="#EBEEF2" x="14.8566899" y="65.5794356" width="230.278707" height="8.91401394" rx="4.45700697"></rect>
                            <rect id="Rectangle-Copy-2" fill="#EBEEF2" x="42.0939563" y="21.425358" width="203.041441" height="9.90446052" rx="4.95223026"></rect>
                            <rect id="Rectangle-Copy" fill="#EBEEF2" x="14.8566899" y="86.3788014" width="230.278707" height="8.91401394" rx="4.45700697"></rect>
                            <line x1="1.90993887e-12" y1="47.2759936" x2="257.494048" y2="45.9454093" id="Line-Copy-53" stroke="#CED2D9" stroke-width="1.54757205"></line>
                            <path d="M4.58561993,0.0101714784 L253.002076,0.0101714784 C255.011556,0.0101714784 256.82614,1.21217361 257.609952,3.06248446 L257.609952,3.06248446 L257.609952,3.06248446 L1.90993887e-12,3.06248446 C0.773466492,1.21366852 2.58153141,0.0101714784 4.58561993,0.0101714784 Z" id="Rectangle-7-Copy-6" fill="#29CC96"></path>
                        </g>
                    </g>
                    <g id="Group-10" transform="translate(77.795439, 66.289132) rotate(-15.000000) translate(-77.795439, -66.289132) translate(11.795439, 15.789132)" stroke="#090B0E" stroke-linecap="round" stroke-width="2.41808133">
                        <line x1="46.7632327" y1="21.9250193" x2="35.1394625" y2="2.57981707" id="Path-18"></line>
                        <line x1="70.7327087" y1="-1.83269346e-13" x2="71.0173931" y2="12.9936783" id="Path-20"></line>
                        <line x1="97.0106958" y1="21.8241181" x2="106.398612" y2="3.01855469" id="Path-21"></line>
                        <line x1="25.4179878" y1="40.3925653" x2="16.2909715" y2="34.5925722" id="Path-23"></line>
                        <line x1="19.6298867" y1="68.319199" x2="-1.3745201e-13" y2="66.9492909" id="Path-24"></line>
                        <line x1="121.485802" y1="34.3877968" x2="131.158403" y2="28.5759117" id="Path-22"></line>
                        <line x1="19.2325901" y1="95.8277251" x2="10.9417892" y2="100.809341" id="Path-25"></line>
                    </g>
                </g>
            </g>
        </g>
    </g>
</svg>