<svg width="427" height="322" viewBox="0 0 427 322" fill="none" xmlns="http://www.w3.org/2000/svg">
<mask id="mask0_113_1197" style="mask-type:alpha" maskUnits="userSpaceOnUse" x="1" y="1" width="426" height="321">
<path d="M151.072 42.7394C172.687 28.6538 244.183 -16.2765 327.297 8.60516C410.412 33.4856 422.504 108.739 424.949 127C429.068 157.756 429.03 223.008 391.715 266.905C354.401 310.802 278.355 323.348 256.165 320.693C241.053 318.884 224.329 313.613 211.186 305.737C195.516 296.345 187.242 280.717 177.324 265.948C160.563 240.988 135.483 241.05 107.927 241.869C69.442 243.014 38.1231 230.838 17.0987 198.25C-10.8892 154.868 -5.02179 65.7523 57.8363 58.3927C72.0834 56.725 85.6577 59.5367 99.7896 59.405" fill="white"/>
</mask>
<g mask="url(#mask0_113_1197)">
<path fill-rule="evenodd" clip-rule="evenodd" d="M327.297 8.60516C244.183 -16.2765 172.687 28.6538 151.072 42.7394C135.664 52.7796 118.388 59.2313 99.7896 59.405C85.6577 59.5367 72.0834 56.725 57.8363 58.3927C-5.02179 65.7523 -10.8892 154.868 17.0987 198.25C38.1231 230.838 69.442 243.014 107.927 241.869C135.483 241.05 160.563 240.988 177.324 265.948C187.242 280.717 195.516 296.345 211.186 305.737C224.329 313.613 241.053 318.884 256.165 320.693C278.355 323.348 354.401 310.802 391.715 266.905C429.03 223.008 429.068 157.756 424.949 127C422.504 108.739 410.412 33.4856 327.297 8.60516Z" fill="url(#paint0_linear_113_1197)"/>
</g>
<path fill-rule="evenodd" clip-rule="evenodd" d="M36.28 289.156H402.718C405.502 289.156 407.758 286.9 407.758 284.116V31.24C407.758 28.4564 405.502 26.2 402.718 26.2H36.28C33.4965 26.2 31.24 28.4564 31.24 31.24V284.116C31.24 286.9 33.4965 289.156 36.28 289.156Z" fill="white" stroke="#CED2D9" stroke-width="0.933344"/>
<path fill-rule="evenodd" clip-rule="evenodd" d="M32.0091 64.4558H406.882V31.24C406.882 28.4564 404.626 26.2 401.842 26.2H37.0491C34.2656 26.2 32.0091 28.4564 32.0091 31.24V64.4558Z" fill="white"/>
<path fill-rule="evenodd" clip-rule="evenodd" d="M31.492 28.5502H406.809C406.092 26.8941 404.46 25.822 402.655 25.822H35.9008C34.0328 25.822 32.3255 26.8785 31.492 28.5502Z" fill="#00D5A0"/>
<mask id="mask1_113_1197" style="mask-type:alpha" maskUnits="userSpaceOnUse" x="78" y="61" width="33" height="3">
<path d="M81.5957 61.1042C80.0884 61.1042 78.8666 62.3251 78.8666 63.8324H110.248C110.248 62.3251 109.026 61.1042 107.518 61.1042H81.5957Z" fill="white"/>
</mask>
<g mask="url(#mask1_113_1197)">
<path fill-rule="evenodd" clip-rule="evenodd" d="M78.8303 67.3858H117.315V57.553H78.8303V67.3858Z" fill="#00D5A0"/>
</g>
<path d="M31.2403 63.8325H408.146" stroke="#CED2D9" stroke-width="0.758528" stroke-linecap="square"/>
<mask id="mask2_113_1197" style="mask-type:alpha" maskUnits="userSpaceOnUse" x="44" y="37" width="18" height="17">
<path d="M47.6127 37.1145C46.1053 37.1145 44.8845 38.3372 44.8845 39.8436V50.7581C44.8845 52.2664 46.1053 53.4881 47.6127 53.4881H58.5272C60.0346 53.4881 61.2572 52.2664 61.2572 50.7581V39.8436C61.2572 38.3372 60.0346 37.1145 58.5272 37.1145H47.6127Z" fill="white"/>
</mask>
<g mask="url(#mask2_113_1197)">
<path fill-rule="evenodd" clip-rule="evenodd" d="M41.3322 57.0387H64.8086V33.5623H41.3322V57.0387Z" fill="#4ABB8F"/>
</g>
<path fill-rule="evenodd" clip-rule="evenodd" d="M36.5327 288.886H402.311C405.094 288.886 407.351 286.63 407.351 283.846V262.048H31.4927V283.846C31.4927 286.63 33.7492 288.886 36.5327 288.886Z" fill="#F5F7FA"/>
<path fill-rule="evenodd" clip-rule="evenodd" d="M33.7208 279.466L40.7985 286.535H41.9172L33.7208 278.349V279.466ZM33.7208 282.376L37.8844 286.535H39.0031L33.7208 281.26V282.376ZM33.7208 285.288L34.9694 286.535H36.0881L33.7208 284.171V285.288Z" fill="#8E9BB1"/>
<path fill-rule="evenodd" clip-rule="evenodd" d="M47.613 37.1147H58.5275C60.0349 37.1147 61.2566 38.3374 61.2566 39.8438V50.7584C61.2566 52.2657 60.0349 53.4875 58.5275 53.4875H47.613C46.1057 53.4875 44.8839 52.2657 44.8839 50.7584V39.8438C44.8839 38.3374 46.1057 37.1147 47.613 37.1147Z" fill="#00D5A0"/>
<mask id="mask3_113_1197" style="mask-type:alpha" maskUnits="userSpaceOnUse" x="48" y="41" width="10" height="9">
<path d="M57.1104 41.5498C56.9275 41.5554 56.752 41.6375 56.6241 41.7784C54.8778 43.6339 53.2874 45.4642 51.5906 47.2908L49.443 45.4707C49.2974 45.3475 49.1107 45.2897 48.924 45.3111C48.7374 45.3335 48.5666 45.4325 48.449 45.5874C48.2054 45.9113 48.2548 46.3835 48.56 46.6421L51.2098 48.8886C51.4917 49.1285 51.8995 49.1033 52.1534 48.8308C54.0518 46.8129 55.7598 44.8239 57.6293 42.8378C57.8403 42.6212 57.9037 42.2899 57.7889 42.0043C57.6769 41.7271 57.4203 41.5488 57.1393 41.5488C57.13 41.5488 57.1197 41.5498 57.1104 41.5498Z" fill="white"/>
</mask>
<g mask="url(#mask3_113_1197)">
<path fill-rule="evenodd" clip-rule="evenodd" d="M44.7427 52.6043H61.3973V37.9966H44.7427V52.6043Z" fill="white"/>
</g>
<path fill-rule="evenodd" clip-rule="evenodd" d="M394.216 44.5743L391.549 41.9077L391.032 42.4248L393.698 45.0904L391.032 47.7579L391.549 48.2741L394.216 45.6084L396.881 48.2741L397.399 47.7579L394.732 45.0904L397.399 42.4248L396.881 41.9077L394.216 44.5743Z" fill="#767576"/>
<path fill-rule="evenodd" clip-rule="evenodd" d="M394.216 44.5743L391.549 41.9077L391.032 42.4248L393.698 45.0904L391.032 47.7579L391.549 48.2741L394.216 45.6084L396.881 48.2741L397.399 47.7579L394.732 45.0904L397.399 42.4248L396.881 41.9077L394.216 44.5743Z" fill="#737880"/>
<path fill-rule="evenodd" clip-rule="evenodd" d="M85.9409 135.779H382.658C384.227 135.779 385.499 134.507 385.499 132.937C385.499 131.368 384.227 130.096 382.658 130.096H85.9409C84.3716 130.096 83.0994 131.368 83.0994 132.937C83.0994 134.507 84.3716 135.779 85.9409 135.779Z" fill="#EBEEF2"/>
<path fill-rule="evenodd" clip-rule="evenodd" d="M89.1661 98.7035H380.38C383.73 98.7035 386.446 95.9874 386.446 92.6368C386.446 89.2862 383.73 86.5701 380.38 86.5701H89.1661C85.8155 86.5701 83.0994 89.2862 83.0994 92.6368C83.0994 95.9874 85.8155 98.7035 89.1661 98.7035Z" fill="#EBEEF2"/>
<path fill-rule="evenodd" clip-rule="evenodd" d="M85.9409 157.091H382.658C384.227 157.091 385.499 155.819 385.499 154.249C385.499 152.68 384.227 151.408 382.658 151.408H85.9409C84.3716 151.408 83.0994 152.68 83.0994 154.249C83.0994 155.819 84.3716 157.091 85.9409 157.091Z" fill="#EBEEF2"/>
<path fill-rule="evenodd" clip-rule="evenodd" d="M85.9409 177.693H382.658C384.227 177.693 385.499 176.421 385.499 174.852C385.499 173.282 384.227 172.01 382.658 172.01H85.9409C84.3716 172.01 83.0994 173.282 83.0994 174.852C83.0994 176.421 84.3716 177.693 85.9409 177.693Z" fill="#EBEEF2"/>
<path fill-rule="evenodd" clip-rule="evenodd" d="M85.9409 199.717H289.418C290.987 199.717 292.259 198.444 292.259 196.875C292.259 195.306 290.987 194.033 289.418 194.033H85.9409C84.3716 194.033 83.0994 195.306 83.0994 196.875C83.0994 198.444 84.3716 199.717 85.9409 199.717Z" fill="#EBEEF2"/>
<path d="M61.0635 145.824H44.6908" stroke="#D9DEE5" stroke-width="0.758528" stroke-linecap="square"/>
<path d="M61.0635 116.128H44.6908" stroke="#D9DEE5" stroke-width="0.758528" stroke-linecap="square"/>
<mask id="mask4_113_1197" style="mask-type:alpha" maskUnits="userSpaceOnUse" x="48" y="73" width="11" height="12">
<path d="M52.1058 73.6221C51.4786 73.6221 50.9681 74.1121 50.9681 74.7141V81.2624C50.9681 81.8635 51.4786 82.3535 52.1058 82.3535H57.7899C58.4171 82.3535 58.9267 81.8635 58.9267 81.2624V74.7141C58.9267 74.1681 58.3583 73.6221 57.7899 73.6221H52.1058ZM52.1058 81.2624H57.7899V74.7141H52.1058V81.2624ZM48.6935 75.8052V83.4455C48.6935 84.0475 49.2041 84.5366 49.8313 84.5366H56.6531V83.4455H49.8313V75.8052H48.6935Z" fill="white"/>
</mask>
<g mask="url(#mask4_113_1197)">
<path fill-rule="evenodd" clip-rule="evenodd" d="M45.1422 88.089H62.479V70.0698H45.1422V88.089Z" fill="#405880"/>
<path fill-rule="evenodd" clip-rule="evenodd" d="M43.437 89.3108H64.0424V68.7053H43.437V89.3108Z" fill="#737880"/>
</g>
<mask id="mask5_113_1197" style="mask-type:alpha" maskUnits="userSpaceOnUse" x="47" y="95" width="12" height="12">
<path d="M52.4941 96.0175L47.8955 100.615C47.2618 101.251 47.2618 102.282 47.8955 102.915L48.2791 103.299L49.0435 102.532L48.6609 102.15C48.449 101.939 48.449 101.594 48.6609 101.382L53.2604 96.7838C53.3621 96.6811 53.4984 96.6251 53.6431 96.6251C53.7896 96.6251 53.924 96.6811 54.0267 96.7838L54.4112 97.1674L55.1756 96.4011L54.7939 96.0175C54.4868 95.7114 54.0649 95.5574 53.6431 95.5574C53.2212 95.5574 52.8003 95.7114 52.4941 96.0175ZM53.2595 99.8498L54.0257 100.617L57.859 96.7847L57.0918 96.0175L53.2595 99.8498ZM56.7082 99.4681L57.0918 99.8508C57.1954 99.9534 57.2514 100.089 57.2514 100.233C57.2514 100.377 57.1944 100.514 57.0918 100.617L52.4941 105.216C52.2888 105.42 51.9313 105.42 51.7269 105.216L51.3442 104.833L50.578 105.599L50.9606 105.981C51.2686 106.289 51.6765 106.458 52.1105 106.458C52.5455 106.458 52.9533 106.289 53.2604 105.981L57.859 101.383C58.166 101.075 58.334 100.668 58.334 100.233C58.334 99.7994 58.166 99.3915 57.859 99.0845L57.4754 98.7018L56.7082 99.4681ZM47.8946 105.215L48.6599 105.981L52.4932 102.149L51.7269 101.382L47.8946 105.215Z" fill="white"/>
</mask>
<g mask="url(#mask5_113_1197)">
<path fill-rule="evenodd" clip-rule="evenodd" d="M43.8682 110.01H61.8873V92.0051H43.8682V110.01Z" fill="#767576"/>
<path fill-rule="evenodd" clip-rule="evenodd" d="M42.5036 111.246H63.109V90.6406H42.5036V111.246Z" fill="#737880"/>
</g>
<mask id="mask6_113_1197" style="mask-type:alpha" maskUnits="userSpaceOnUse" x="47" y="161" width="11" height="3">
<path d="M56.052 161.935C55.6086 162.378 55.6086 163.099 56.052 163.542C56.4972 163.986 57.2168 163.986 57.6611 163.542C58.1053 163.099 58.1053 162.378 57.6611 161.935C57.438 161.713 57.1477 161.602 56.8565 161.602C56.5653 161.602 56.275 161.713 56.052 161.935ZM52.0741 161.935C51.6289 162.378 51.6289 163.099 52.0741 163.542C52.5174 163.986 53.2361 163.986 53.6813 163.542C54.1255 163.099 54.1255 162.378 53.6813 161.935C53.4591 161.713 53.1679 161.602 52.8767 161.602C52.5865 161.602 52.2953 161.713 52.0741 161.935ZM48.0943 161.935C47.6491 162.378 47.6491 163.099 48.0943 163.542C48.5386 163.986 49.2582 163.986 49.7015 163.542C50.1458 163.099 50.1458 162.378 49.7015 161.935C49.4803 161.713 49.1891 161.602 48.8979 161.602C48.6067 161.602 48.3155 161.713 48.0943 161.935Z" fill="white"/>
</mask>
<g mask="url(#mask6_113_1197)">
<path fill-rule="evenodd" clip-rule="evenodd" d="M44.2087 167.428H61.5456V158.05H44.2087V167.428Z" fill="#767576"/>
<path fill-rule="evenodd" clip-rule="evenodd" d="M42.5035 172.97H63.109V152.365H42.5035V172.97Z" fill="#090B0E"/>
</g>
<mask id="mask7_113_1197" style="mask-type:alpha" maskUnits="userSpaceOnUse" x="46" y="125" width="13" height="11">
<path d="M49.8084 126.731C48.7106 126.731 47.8173 127.61 47.8173 128.691C47.8173 130.888 50.8989 133.4 52.4633 134.444C54.0276 133.4 57.1092 130.888 57.1092 128.691C57.1092 127.61 56.2159 126.731 55.1181 126.731C53.9971 126.731 53.127 127.785 53.127 128.691C53.127 129.052 52.8296 129.344 52.4633 129.344C52.0969 129.344 51.7996 129.052 51.7996 128.691C51.7996 127.785 50.9294 126.731 49.8084 126.731ZM52.4633 135.878C52.3411 135.878 52.219 135.844 52.1115 135.778C51.8819 135.637 46.4899 132.279 46.4899 128.691C46.4899 126.89 47.9786 125.424 49.8084 125.424C50.8664 125.424 51.8467 125.971 52.4633 126.783C53.0799 125.971 54.0602 125.424 55.1181 125.424C56.948 125.424 58.4367 126.89 58.4367 128.691C58.4367 132.279 53.0447 135.637 52.815 135.778C52.7075 135.844 52.5854 135.878 52.4633 135.878Z" fill="white"/>
</mask>
<g mask="url(#mask7_113_1197)">
<path d="M49.8084 126.731C48.7106 126.731 47.8173 127.61 47.8173 128.691C47.8173 130.888 50.8989 133.4 52.4633 134.444C54.0276 133.4 57.1092 130.888 57.1092 128.691C57.1092 127.61 56.2159 126.731 55.1181 126.731C53.9971 126.731 53.127 127.785 53.127 128.691C53.127 129.052 52.8296 129.344 52.4633 129.344C52.0969 129.344 51.7996 129.052 51.7996 128.691C51.7996 127.785 50.9294 126.731 49.8084 126.731ZM52.4633 135.878C52.3411 135.878 52.219 135.844 52.1115 135.778C51.8819 135.637 46.4899 132.279 46.4899 128.691C46.4899 126.89 47.9786 125.424 49.8084 125.424C50.8664 125.424 51.8467 125.971 52.4633 126.783C53.0799 125.971 54.0602 125.424 55.1181 125.424C56.948 125.424 58.4367 126.89 58.4367 128.691C58.4367 132.279 53.0447 135.637 52.815 135.778C52.7075 135.844 52.5854 135.878 52.4633 135.878Z" fill="#737880"/>
</g>
<g filter="url(#filter0_d_113_1197)">
<path d="M183.747 172.36H50.0934C48.0315 172.36 46.36 174.032 46.36 176.093V271.947C46.36 274.009 48.0315 275.68 50.0934 275.68H183.747C185.809 275.68 187.48 274.009 187.48 271.947V176.093C187.48 174.032 185.809 172.36 183.747 172.36Z" fill="black"/>
</g>
<path d="M183.747 172.36H50.0934C48.0315 172.36 46.36 174.032 46.36 176.093V271.947C46.36 274.009 48.0315 275.68 50.0934 275.68H183.747C185.809 275.68 187.48 274.009 187.48 271.947V176.093C187.48 174.032 185.809 172.36 183.747 172.36Z" fill="white"/>
<path d="M57.1908 186.925V181.58L59.3385 186.242H60.0837L62.2358 181.545V186.925H62.9458V180.751H61.8654L59.7133 185.417L57.5568 180.751H56.4808V186.925H57.1908ZM66.4871 187.009C66.8016 187.009 67.0934 186.954 67.3624 186.843C67.6315 186.733 67.8637 186.581 68.0592 186.387C68.2547 186.193 68.4084 185.963 68.5201 185.697C68.6318 185.431 68.6877 185.143 68.6877 184.835C68.6877 184.526 68.6318 184.239 68.5201 183.975C68.4084 183.71 68.2547 183.481 68.0592 183.287C67.8637 183.093 67.6315 182.941 67.3624 182.83C67.0934 182.72 66.8016 182.665 66.4871 182.665C66.1725 182.665 65.8814 182.72 65.6139 182.83C65.3463 182.941 65.1141 183.093 64.9171 183.287C64.7201 183.481 64.5665 183.71 64.4563 183.975C64.346 184.239 64.2909 184.526 64.2909 184.835C64.2909 185.143 64.346 185.431 64.4563 185.697C64.5665 185.963 64.7201 186.193 64.9171 186.387C65.1141 186.581 65.3463 186.733 65.6139 186.843C65.8814 186.954 66.1725 187.009 66.4871 187.009ZM66.4871 186.391C66.2695 186.391 66.0681 186.352 65.8829 186.275C65.6977 186.197 65.5367 186.089 65.4 185.95C65.2633 185.812 65.156 185.648 65.0781 185.459C65.0002 185.269 64.9612 185.061 64.9612 184.835C64.9612 184.611 65.0002 184.404 65.0781 184.213C65.156 184.022 65.2633 183.858 65.4 183.721C65.5367 183.584 65.6977 183.477 65.8829 183.399C66.0681 183.321 66.2695 183.282 66.4871 183.282C66.7017 183.282 66.9023 183.321 67.089 183.399C67.2757 183.477 67.4374 183.584 67.5741 183.721C67.7108 183.858 67.8181 184.022 67.8961 184.213C67.974 184.404 68.0129 184.611 68.0129 184.835C68.0129 185.061 67.974 185.269 67.8961 185.459C67.8181 185.648 67.7108 185.812 67.5741 185.95C67.4374 186.089 67.2757 186.197 67.089 186.275C66.9023 186.352 66.7017 186.391 66.4871 186.391ZM70.5707 186.925V184.588C70.5707 184.391 70.5987 184.212 70.6545 184.052C70.7104 183.892 70.7875 183.755 70.886 183.642C70.9845 183.529 71.1021 183.441 71.2388 183.379C71.3756 183.318 71.5262 183.287 71.6909 183.287C71.8143 183.287 71.94 183.301 72.0679 183.329C72.1958 183.357 72.3112 183.399 72.4141 183.454L72.5729 182.806C72.4611 182.756 72.3428 182.72 72.2179 182.698C72.0929 182.676 71.9555 182.665 71.8055 182.665C71.5468 182.665 71.3116 182.723 71.0999 182.839C70.8882 182.955 70.7104 183.121 70.5663 183.335V182.749H69.9136V186.925H70.5707ZM75.1924 187.009C75.3453 187.009 75.4967 186.999 75.6466 186.978C75.7966 186.957 75.9428 186.921 76.0854 186.87C76.228 186.818 76.3684 186.751 76.5066 186.667C76.6448 186.583 76.7785 186.48 76.9079 186.356L76.5551 185.906C76.3758 186.071 76.1751 186.2 75.9531 186.292C75.7312 186.385 75.4908 186.431 75.2321 186.431C75.0439 186.431 74.8653 186.402 74.6963 186.345C74.5272 186.288 74.3766 186.202 74.2443 186.087C74.112 185.972 74.0032 185.831 73.9179 185.662C73.8327 185.493 73.7783 185.295 73.7547 185.068H77.1019C77.1108 184.995 77.1152 184.913 77.1152 184.821C77.1122 184.504 77.0615 184.213 76.963 183.948C76.8645 183.684 76.7286 183.457 76.5551 183.267C76.3816 183.077 76.1751 182.93 75.9355 182.824C75.6959 182.718 75.435 182.665 75.1527 182.665C74.8558 182.665 74.5809 182.719 74.328 182.826C74.0752 182.933 73.8562 183.082 73.671 183.274C73.4857 183.465 73.3409 183.693 73.2366 183.959C73.1322 184.225 73.08 184.519 73.08 184.839C73.08 185.163 73.1322 185.457 73.2366 185.723C73.3409 185.989 73.4865 186.218 73.6732 186.409C73.8598 186.6 74.0826 186.748 74.3413 186.852C74.6 186.957 74.8837 187.009 75.1924 187.009ZM76.4448 184.535H73.7636C73.79 184.347 73.8407 184.174 73.9157 184.017C73.9907 183.859 74.0862 183.724 74.2024 183.611C74.3185 183.498 74.4552 183.41 74.6125 183.346C74.7698 183.283 74.9454 183.252 75.1395 183.252C75.3159 183.252 75.4798 183.282 75.6312 183.342C75.7826 183.402 75.9149 183.488 76.0281 183.6C76.1413 183.712 76.2339 183.847 76.3059 184.006C76.378 184.164 76.4243 184.341 76.4448 184.535ZM83.6464 187.013C84.105 187.013 84.5291 186.935 84.9187 186.777C85.3082 186.62 85.6448 186.401 85.9285 186.12C86.2123 185.839 86.4342 185.505 86.5945 185.117C86.7547 184.729 86.8348 184.303 86.8348 183.838C86.8348 183.376 86.7547 182.951 86.5945 182.561C86.4342 182.172 86.2123 181.837 85.9285 181.556C85.6448 181.275 85.3082 181.056 84.9187 180.899C84.5291 180.741 84.105 180.663 83.6464 180.663C83.1877 180.663 82.7636 180.741 82.3741 180.899C81.9845 181.056 81.6479 181.275 81.3642 181.556C81.0805 181.837 80.8585 182.172 80.6983 182.561C80.5381 182.951 80.4579 183.376 80.4579 183.838C80.4579 184.303 80.5381 184.729 80.6983 185.117C80.8585 185.505 81.0805 185.839 81.3642 186.12C81.6479 186.401 81.9845 186.62 82.3741 186.777C82.7636 186.935 83.1877 187.013 83.6464 187.013ZM83.6464 186.33C83.2995 186.33 82.9775 186.269 82.6806 186.149C82.3836 186.028 82.1257 185.859 81.9066 185.642C81.6876 185.424 81.5156 185.162 81.3907 184.855C81.2657 184.547 81.2032 184.208 81.2032 183.838C81.2032 183.468 81.2657 183.129 81.3907 182.822C81.5156 182.514 81.6876 182.252 81.9066 182.034C82.1257 181.817 82.3836 181.648 82.6806 181.527C82.9775 181.407 83.2995 181.346 83.6464 181.346C83.9933 181.346 84.316 181.407 84.6144 181.527C84.9128 181.648 85.1715 181.817 85.3905 182.034C85.6096 182.252 85.7815 182.514 85.9065 182.822C86.0314 183.129 86.0939 183.468 86.0939 183.838C86.0939 184.208 86.0314 184.547 85.9065 184.855C85.7815 185.162 85.6096 185.424 85.3905 185.642C85.1715 185.859 84.9128 186.028 84.6144 186.149C84.316 186.269 83.9933 186.33 83.6464 186.33ZM88.8061 188.689V186.308C88.9737 186.519 89.1824 186.689 89.4323 186.817C89.6822 186.945 89.9806 187.009 90.3275 187.009C90.6215 187.009 90.8949 186.954 91.1478 186.846C91.4006 186.737 91.6211 186.586 91.8093 186.394C91.9974 186.201 92.1452 185.972 92.2525 185.706C92.3598 185.44 92.4135 185.149 92.4135 184.835C92.4135 184.523 92.3598 184.234 92.2525 183.968C92.1452 183.702 91.9974 183.473 91.8093 183.28C91.6211 183.088 91.4006 182.937 91.1478 182.828C90.8949 182.719 90.6215 182.665 90.3275 182.665C89.9806 182.665 89.6822 182.729 89.4323 182.857C89.1824 182.985 88.9737 183.155 88.8061 183.366V182.749H88.1446V188.689H88.8061ZM90.2481 186.391C90.0306 186.391 89.8307 186.352 89.6484 186.272C89.4661 186.193 89.3095 186.084 89.1787 185.946C89.0479 185.808 88.9457 185.643 88.8722 185.452C88.7987 185.261 88.762 185.055 88.762 184.835C88.762 184.614 88.7987 184.409 88.8722 184.22C88.9457 184.03 89.0479 183.866 89.1787 183.728C89.3095 183.59 89.4661 183.481 89.6484 183.401C89.8307 183.322 90.0306 183.282 90.2481 183.282C90.4686 183.282 90.6708 183.323 90.8545 183.404C91.0383 183.485 91.1956 183.595 91.3264 183.737C91.4572 183.878 91.5586 184.042 91.6307 184.231C91.7027 184.419 91.7387 184.62 91.7387 184.835C91.7387 185.052 91.7027 185.255 91.6307 185.443C91.5586 185.631 91.458 185.796 91.3286 185.937C91.1992 186.078 91.0427 186.189 90.8589 186.27C90.6752 186.351 90.4716 186.391 90.2481 186.391ZM95.4034 187.009C95.6622 187.009 95.8937 186.97 96.098 186.892C96.3023 186.814 96.4839 186.715 96.6426 186.594L96.3339 186.096C96.2105 186.184 96.0738 186.255 95.9238 186.31C95.7739 186.364 95.6181 186.391 95.4564 186.391C95.3358 186.391 95.2248 186.373 95.1234 186.336C95.022 186.3 94.9345 186.243 94.861 186.167C94.7875 186.09 94.7302 185.993 94.689 185.875C94.6479 185.758 94.6273 185.617 94.6273 185.452V183.344H96.431V182.749H94.6273V181.421H93.9702V182.749H93.0573V183.344H93.9702V185.465C93.9702 185.727 94.0025 185.955 94.0672 186.149C94.1319 186.343 94.226 186.504 94.3494 186.632C94.4729 186.76 94.6229 186.854 94.7993 186.916C94.9757 186.978 95.1771 187.009 95.4034 187.009ZM97.9215 181.73C97.9862 181.73 98.0472 181.718 98.1046 181.695C98.1619 181.671 98.2111 181.639 98.2523 181.598C98.2935 181.557 98.3265 181.508 98.3515 181.452C98.3765 181.396 98.389 181.335 98.389 181.267C98.389 181.202 98.3765 181.141 98.3515 181.084C98.3265 181.027 98.2935 180.977 98.2523 180.934C98.2111 180.891 98.1619 180.858 98.1046 180.835C98.0472 180.811 97.9862 180.8 97.9215 180.8C97.7892 180.8 97.679 180.844 97.5908 180.934C97.5026 181.024 97.4585 181.135 97.4585 181.267C97.4585 181.399 97.5026 181.51 97.5908 181.598C97.679 181.686 97.7892 181.73 97.9215 181.73ZM98.2523 186.925V182.749H97.5908V186.925H98.2523ZM101.674 187.009C101.989 187.009 102.281 186.954 102.55 186.843C102.819 186.733 103.051 186.581 103.247 186.387C103.442 186.193 103.596 185.963 103.707 185.697C103.819 185.431 103.875 185.143 103.875 184.835C103.875 184.526 103.819 184.239 103.707 183.975C103.596 183.71 103.442 183.481 103.247 183.287C103.051 183.093 102.819 182.941 102.55 182.83C102.281 182.72 101.989 182.665 101.674 182.665C101.36 182.665 101.069 182.72 100.801 182.83C100.534 182.941 100.301 183.093 100.104 183.287C99.9075 183.481 99.7539 183.71 99.6437 183.975C99.5334 184.239 99.4783 184.526 99.4783 184.835C99.4783 185.143 99.5334 185.431 99.6437 185.697C99.7539 185.963 99.9075 186.193 100.104 186.387C100.301 186.581 100.534 186.733 100.801 186.843C101.069 186.954 101.36 187.009 101.674 187.009ZM101.674 186.391C101.457 186.391 101.256 186.352 101.07 186.275C100.885 186.197 100.724 186.089 100.587 185.95C100.451 185.812 100.343 185.648 100.265 185.459C100.188 185.269 100.149 185.061 100.149 184.835C100.149 184.611 100.188 184.404 100.265 184.213C100.343 184.022 100.451 183.858 100.587 183.721C100.724 183.584 100.885 183.477 101.07 183.399C101.256 183.321 101.457 183.282 101.674 183.282C101.889 183.282 102.09 183.321 102.276 183.399C102.463 183.477 102.625 183.584 102.762 183.721C102.898 183.858 103.006 184.022 103.083 184.213C103.161 184.404 103.2 184.611 103.2 184.835C103.2 185.061 103.161 185.269 103.083 185.459C103.006 185.648 102.898 185.812 102.762 185.95C102.625 186.089 102.463 186.197 102.276 186.275C102.09 186.352 101.889 186.391 101.674 186.391ZM105.763 186.925V184.57C105.763 184.373 105.796 184.195 105.864 184.036C105.932 183.878 106.023 183.743 106.14 183.633C106.256 183.523 106.391 183.438 106.545 183.379C106.7 183.321 106.865 183.291 107.041 183.291C107.427 183.291 107.724 183.401 107.932 183.622C108.141 183.842 108.245 184.153 108.245 184.552V186.925H108.902V184.336C108.902 184.084 108.86 183.854 108.775 183.648C108.689 183.443 108.57 183.267 108.417 183.121C108.264 182.976 108.081 182.863 107.868 182.784C107.655 182.705 107.419 182.665 107.16 182.665C107.031 182.665 106.902 182.677 106.772 182.7C106.643 182.724 106.517 182.763 106.393 182.817C106.27 182.872 106.154 182.942 106.045 183.029C105.936 183.116 105.839 183.221 105.754 183.344V182.749H105.101V186.925H105.763ZM111.756 187.004C112.038 187.004 112.292 186.974 112.519 186.914C112.745 186.854 112.938 186.768 113.096 186.656C113.255 186.544 113.378 186.409 113.465 186.25C113.551 186.092 113.595 185.912 113.595 185.712C113.595 185.371 113.472 185.107 113.226 184.919C112.981 184.73 112.636 184.607 112.192 184.548L111.698 184.486C111.422 184.454 111.211 184.392 111.066 184.301C110.92 184.21 110.847 184.076 110.847 183.9C110.847 183.8 110.871 183.709 110.918 183.626C110.965 183.544 111.032 183.475 111.118 183.419C111.205 183.363 111.309 183.32 111.429 183.289C111.55 183.258 111.685 183.243 111.835 183.243C111.976 183.243 112.114 183.254 112.25 183.278C112.385 183.302 112.512 183.332 112.631 183.371C112.75 183.409 112.858 183.451 112.955 183.496C113.052 183.542 113.135 183.588 113.202 183.635L113.489 183.124C113.286 182.988 113.041 182.879 112.755 182.795C112.468 182.711 112.16 182.669 111.831 182.669C111.581 182.669 111.353 182.698 111.147 182.755C110.941 182.813 110.766 182.896 110.62 183.005C110.475 183.113 110.362 183.246 110.283 183.404C110.203 183.561 110.164 183.738 110.164 183.935C110.164 184.247 110.275 184.502 110.499 184.702C110.722 184.902 111.071 185.032 111.544 185.09L112.042 185.148C112.339 185.183 112.559 185.251 112.702 185.353C112.844 185.454 112.916 185.589 112.916 185.756C112.916 185.977 112.812 186.144 112.605 186.259C112.397 186.374 112.117 186.431 111.765 186.431C111.588 186.431 111.429 186.419 111.286 186.396C111.143 186.372 111.013 186.339 110.896 186.297C110.778 186.254 110.672 186.205 110.578 186.151C110.484 186.097 110.397 186.039 110.318 185.977L110.014 186.471C110.146 186.571 110.286 186.655 110.433 186.722C110.58 186.79 110.729 186.845 110.88 186.888C111.032 186.93 111.182 186.96 111.33 186.978C111.479 186.996 111.62 187.004 111.756 187.004Z" fill="#090B0E"/>
<path d="M176.967 198.505H69.8668C68.475 198.505 67.3468 199.633 67.3468 201.025C67.3468 202.417 68.475 203.545 69.8668 203.545H176.967C178.359 203.545 179.487 202.417 179.487 201.025C179.487 199.633 178.359 198.505 176.967 198.505Z" fill="#EBEEF2"/>
<path d="M61.8442 197.572H55.5442V203.872H61.8442V197.572Z" fill="#EBEEF2"/>
<path d="M61.8442 212.68H55.5442V218.98H61.8442V212.68Z" fill="#EBEEF2"/>
<path d="M61.8442 259.3H55.5442V265.6H61.8442V259.3Z" fill="#EBEEF2"/>
<path d="M164.367 213.287H69.8668C68.475 213.287 67.3468 214.415 67.3468 215.807C67.3468 217.199 68.475 218.327 69.8668 218.327H164.367C165.759 218.327 166.887 217.199 166.887 215.807C166.887 214.415 165.759 213.287 164.367 213.287Z" fill="#EBEEF2"/>
<path d="M173.187 260.233H69.8668C68.475 260.233 67.3468 261.362 67.3468 262.753C67.3468 264.145 68.475 265.273 69.8668 265.273H173.187C174.579 265.273 175.707 264.145 175.707 262.753C175.707 261.362 174.579 260.233 173.187 260.233Z" fill="#EBEEF2"/>
<path d="M187.43 226.54H46.31V251.74H187.43V226.54Z" fill="#EBEEF2"/>
<path d="M72.384 242.552C72.7399 242.552 73.077 242.51 73.3951 242.425C73.7133 242.34 73.9913 242.214 74.2291 242.047C74.4669 241.88 74.6551 241.673 74.7937 241.425C74.9323 241.178 75.0016 240.891 75.0016 240.563C75.0016 240.276 74.9449 240.031 74.8315 239.826C74.7181 239.621 74.5669 239.45 74.3779 239.313C74.1889 239.176 73.97 239.069 73.7211 238.992C73.4723 238.915 73.2108 238.859 72.9368 238.824L72.3084 238.749C71.7918 238.689 71.4083 238.572 71.1578 238.399C70.9074 238.226 70.7822 237.985 70.7822 237.676C70.7822 237.49 70.8247 237.323 70.9098 237.175C70.9948 237.027 71.1129 236.902 71.2641 236.8C71.4153 236.697 71.5957 236.619 71.8052 236.563C72.0146 236.508 72.2438 236.481 72.4926 236.481C72.8927 236.481 73.2581 236.538 73.5888 236.653C73.9196 236.768 74.2188 236.917 74.4866 237.1L74.874 236.485C74.7228 236.378 74.5606 236.281 74.3874 236.192C74.2141 236.104 74.0298 236.029 73.8345 235.966C73.6392 235.903 73.4306 235.853 73.2085 235.817C72.9864 235.781 72.7494 235.763 72.4974 235.763C72.1509 235.763 71.8256 235.806 71.5217 235.892C71.2177 235.979 70.9523 236.106 70.7255 236.273C70.4987 236.44 70.3199 236.645 70.1892 236.887C70.0585 237.13 69.9931 237.408 69.9931 237.723C69.9931 237.997 70.0419 238.237 70.1396 238.442C70.2372 238.646 70.3727 238.82 70.5459 238.961C70.7192 239.103 70.9247 239.216 71.1626 239.299C71.4004 239.383 71.661 239.44 71.9445 239.472L72.6108 239.547C73.1337 239.607 73.5314 239.722 73.8038 239.892C74.0763 240.062 74.2125 240.308 74.2125 240.629C74.2125 240.828 74.1653 241.002 74.0708 241.151C73.9763 241.301 73.8464 241.426 73.681 241.527C73.5156 241.628 73.3211 241.704 73.0974 241.756C72.8738 241.808 72.6344 241.834 72.3792 241.834C72.165 241.834 71.9524 241.814 71.7414 241.773C71.5303 241.732 71.3295 241.677 71.1389 241.61C70.9484 241.542 70.7727 241.464 70.6121 241.376C70.4514 241.288 70.3144 241.195 70.201 241.097L69.7852 241.702C69.9396 241.831 70.1175 241.948 70.3191 242.051C70.5207 242.155 70.7342 242.244 70.9594 242.318C71.1846 242.392 71.4185 242.45 71.661 242.491C71.9036 242.532 72.1446 242.552 72.384 242.552ZM78.3705 242.552C78.5343 242.552 78.6966 242.541 78.8572 242.519C79.0179 242.497 79.1746 242.459 79.3274 242.404C79.4801 242.348 79.6305 242.276 79.7786 242.186C79.9266 242.096 80.07 241.985 80.2086 241.853L79.8306 241.371C79.6384 241.547 79.4234 241.685 79.1856 241.785C78.9478 241.884 78.6903 241.933 78.4131 241.933C78.2115 241.933 78.0201 241.903 77.839 241.841C77.6579 241.78 77.4964 241.688 77.3547 241.565C77.2129 241.442 77.0964 241.29 77.005 241.109C76.9137 240.928 76.8554 240.716 76.8302 240.473H80.4165C80.4259 240.395 80.4306 240.306 80.4306 240.209C80.4275 239.869 80.3732 239.557 80.2676 239.273C80.1621 238.99 80.0164 238.746 79.8306 238.543C79.6447 238.34 79.4234 238.182 79.1667 238.068C78.91 237.955 78.6304 237.898 78.328 237.898C78.0099 237.898 77.7153 237.956 77.4444 238.071C77.1735 238.186 76.9389 238.346 76.7404 238.55C76.542 238.755 76.3868 239 76.275 239.285C76.1632 239.57 76.1073 239.884 76.1073 240.228C76.1073 240.574 76.1632 240.89 76.275 241.175C76.3868 241.46 76.5428 241.705 76.7428 241.91C76.9428 242.114 77.1814 242.273 77.4586 242.385C77.7358 242.496 78.0398 242.552 78.3705 242.552ZM79.7124 239.902H76.8396C76.868 239.7 76.9223 239.515 77.0027 239.346C77.083 239.178 77.1854 239.033 77.3098 238.912C77.4342 238.79 77.5807 238.696 77.7492 238.628C77.9177 238.561 78.1059 238.527 78.3138 238.527C78.5028 238.527 78.6785 238.559 78.8407 238.624C79.0029 238.688 79.1447 238.78 79.2659 238.9C79.3872 239.02 79.4864 239.165 79.5636 239.335C79.6408 239.505 79.6904 239.694 79.7124 239.902ZM82.4529 242.463V239.939C82.4529 239.728 82.4892 239.538 82.5616 239.368C82.6341 239.198 82.7325 239.053 82.8569 238.935C82.9814 238.817 83.1263 238.727 83.2916 238.664C83.457 238.601 83.6342 238.569 83.8232 238.569C84.2358 238.569 84.554 238.687 84.7776 238.924C85.0013 239.16 85.1131 239.492 85.1131 239.921V242.463H85.8171V239.689C85.8171 239.418 85.7715 239.172 85.6801 238.952C85.5888 238.731 85.4612 238.543 85.2974 238.387C85.1336 238.231 84.9375 238.111 84.7091 238.026C84.4808 237.941 84.228 237.898 83.9508 237.898C83.8122 237.898 83.6736 237.911 83.535 237.936C83.3964 237.961 83.2609 238.003 83.1286 238.061C82.9963 238.12 82.8719 238.195 82.7553 238.288C82.6388 238.381 82.5348 238.494 82.4435 238.626V237.988H81.7442V242.463H82.4529ZM89.3136 242.552C89.6853 242.552 90.0059 242.484 90.2752 242.347C90.5445 242.21 90.7689 242.026 90.9485 241.796V242.463H91.6525V235.659H90.9485V238.654C90.7689 238.427 90.5445 238.245 90.2752 238.106C90.0059 237.968 89.6853 237.898 89.3136 237.898C88.9986 237.898 88.7049 237.956 88.4324 238.073C88.16 238.19 87.9237 238.351 87.7237 238.557C87.5237 238.764 87.3662 239.009 87.2512 239.294C87.1362 239.58 87.0787 239.889 87.0787 240.223C87.0787 240.56 87.1362 240.871 87.2512 241.156C87.3662 241.441 87.5237 241.687 87.7237 241.893C87.9237 242.1 88.16 242.261 88.4324 242.378C88.7049 242.494 88.9986 242.552 89.3136 242.552ZM89.3987 241.891C89.1624 241.891 88.9459 241.848 88.749 241.761C88.5521 241.674 88.3828 241.555 88.2411 241.404C88.0993 241.253 87.9899 241.077 87.9127 240.875C87.8355 240.673 87.7969 240.456 87.7969 240.223C87.7969 239.993 87.8355 239.777 87.9127 239.576C87.9899 239.374 88.0985 239.198 88.2387 239.046C88.3789 238.895 88.5474 238.776 88.7443 238.69C88.9412 238.603 89.1593 238.56 89.3987 238.56C89.6318 238.56 89.846 238.602 90.0413 238.687C90.2366 238.772 90.4043 238.889 90.5445 239.037C90.6847 239.185 90.7941 239.361 90.8729 239.564C90.9516 239.767 90.991 239.987 90.991 240.223C90.991 240.459 90.9516 240.68 90.8729 240.884C90.7941 241.089 90.6847 241.266 90.5445 241.414C90.4043 241.562 90.2366 241.678 90.0413 241.763C89.846 241.848 89.6318 241.891 89.3987 241.891ZM97.7241 242.552C98.0958 242.552 98.4164 242.484 98.6857 242.347C98.955 242.21 99.1794 242.026 99.359 241.796V242.463H100.063V237.988H99.359V238.654C99.1794 238.427 98.955 238.245 98.6857 238.106C98.4164 237.968 98.0958 237.898 97.7241 237.898C97.4091 237.898 97.1154 237.956 96.8429 238.073C96.5705 238.19 96.3342 238.351 96.1342 238.557C95.9342 238.764 95.7767 239.009 95.6617 239.294C95.5467 239.58 95.4892 239.889 95.4892 240.223C95.4892 240.56 95.5467 240.871 95.6617 241.156C95.7767 241.441 95.9342 241.687 96.1342 241.893C96.3342 242.1 96.5705 242.261 96.8429 242.378C97.1154 242.494 97.4091 242.552 97.7241 242.552ZM97.8092 241.891C97.5729 241.891 97.3564 241.848 97.1595 241.761C96.9626 241.674 96.7933 241.555 96.6516 241.404C96.5098 241.253 96.4004 241.077 96.3232 240.875C96.246 240.673 96.2074 240.456 96.2074 240.223C96.2074 239.993 96.246 239.777 96.3232 239.576C96.4004 239.374 96.509 239.198 96.6492 239.046C96.7894 238.895 96.9579 238.776 97.1548 238.69C97.3517 238.603 97.5698 238.56 97.8092 238.56C98.0423 238.56 98.2565 238.602 98.4518 238.687C98.6471 238.772 98.8148 238.889 98.955 239.037C99.0952 239.185 99.2046 239.361 99.2834 239.564C99.3621 239.767 99.4015 239.987 99.4015 240.223C99.4015 240.459 99.3621 240.68 99.2834 240.884C99.2046 241.089 99.0952 241.266 98.955 241.414C98.8148 241.562 98.6471 241.678 98.4518 241.763C98.2565 241.848 98.0423 241.891 97.8092 241.891ZM105.128 242.463V239.495H105.913L108.823 242.463H109.858L106.546 239.094L109.655 235.848H108.672L105.927 238.777H105.128V235.848H104.367V242.463H105.128ZM111.507 242.463V239.939C111.507 239.728 111.543 239.538 111.616 239.368C111.688 239.198 111.787 239.053 111.911 238.935C112.035 238.817 112.18 238.727 112.346 238.664C112.511 238.601 112.688 238.569 112.877 238.569C113.29 238.569 113.608 238.687 113.832 238.924C114.055 239.16 114.167 239.492 114.167 239.921V242.463H114.871V239.689C114.871 239.418 114.825 239.172 114.734 238.952C114.643 238.731 114.515 238.543 114.351 238.387C114.188 238.231 113.992 238.111 113.763 238.026C113.535 237.941 113.282 237.898 113.005 237.898C112.866 237.898 112.728 237.911 112.589 237.936C112.45 237.961 112.315 238.003 112.183 238.061C112.05 238.12 111.926 238.195 111.809 238.288C111.693 238.381 111.589 238.494 111.498 238.626V237.988H110.798V242.463H111.507ZM118.486 242.552C118.823 242.552 119.135 242.493 119.424 242.375C119.712 242.257 119.961 242.094 120.17 241.886C120.38 241.678 120.544 241.432 120.664 241.147C120.784 240.862 120.844 240.554 120.844 240.223C120.844 239.892 120.784 239.585 120.664 239.302C120.544 239.018 120.38 238.772 120.17 238.564C119.961 238.357 119.712 238.194 119.424 238.075C119.135 237.957 118.823 237.898 118.486 237.898C118.149 237.898 117.837 237.957 117.55 238.075C117.264 238.194 117.015 238.357 116.804 238.564C116.593 238.772 116.428 239.018 116.31 239.302C116.192 239.585 116.133 239.892 116.133 240.223C116.133 240.554 116.192 240.862 116.31 241.147C116.428 241.432 116.593 241.678 116.804 241.886C117.015 242.094 117.264 242.257 117.55 242.375C117.837 242.493 118.149 242.552 118.486 242.552ZM118.486 241.891C118.253 241.891 118.037 241.849 117.838 241.766C117.64 241.682 117.468 241.566 117.321 241.418C117.175 241.27 117.06 241.095 116.976 240.892C116.893 240.688 116.851 240.465 116.851 240.223C116.851 239.984 116.893 239.761 116.976 239.557C117.06 239.352 117.175 239.176 117.321 239.03C117.468 238.883 117.64 238.768 117.838 238.685C118.037 238.601 118.253 238.56 118.486 238.56C118.716 238.56 118.931 238.601 119.131 238.685C119.331 238.768 119.504 238.883 119.651 239.03C119.797 239.176 119.912 239.352 119.995 239.557C120.079 239.761 120.121 239.984 120.121 240.223C120.121 240.465 120.079 240.688 119.995 240.892C119.912 241.095 119.797 241.27 119.651 241.418C119.504 241.566 119.331 241.682 119.131 241.766C118.931 241.849 118.716 241.891 118.486 241.891ZM123.981 242.463L125.313 238.744L126.651 242.463H127.487L129.141 237.988H128.408L127.062 241.73L125.72 237.988H124.926L123.594 241.725L122.256 237.988H121.505L123.159 242.463H123.981ZM130.889 242.463V235.659H130.18V242.463H130.889ZM134.466 242.552C134.63 242.552 134.792 242.541 134.952 242.519C135.113 242.497 135.27 242.459 135.423 242.404C135.575 242.348 135.726 242.276 135.874 242.186C136.022 242.096 136.165 241.985 136.304 241.853L135.926 241.371C135.734 241.547 135.519 241.685 135.281 241.785C135.043 241.884 134.785 241.933 134.508 241.933C134.307 241.933 134.115 241.903 133.934 241.841C133.753 241.78 133.592 241.688 133.45 241.565C133.308 241.442 133.192 241.29 133.1 241.109C133.009 240.928 132.951 240.716 132.925 240.473H136.512C136.521 240.395 136.526 240.306 136.526 240.209C136.523 239.869 136.468 239.557 136.363 239.273C136.257 238.99 136.112 238.746 135.926 238.543C135.74 238.34 135.519 238.182 135.262 238.068C135.005 237.955 134.726 237.898 134.423 237.898C134.105 237.898 133.811 237.956 133.54 238.071C133.269 238.186 133.034 238.346 132.836 238.55C132.637 238.755 132.482 239 132.37 239.285C132.258 239.57 132.202 239.884 132.202 240.228C132.202 240.574 132.258 240.89 132.37 241.175C132.482 241.46 132.638 241.705 132.838 241.91C133.038 242.114 133.277 242.273 133.554 242.385C133.831 242.496 134.135 242.552 134.466 242.552ZM135.808 239.902H132.935C132.963 239.7 133.018 239.515 133.098 239.346C133.178 239.178 133.281 239.033 133.405 238.912C133.529 238.79 133.676 238.696 133.844 238.628C134.013 238.561 134.201 238.527 134.409 238.527C134.598 238.527 134.774 238.559 134.936 238.624C135.098 238.688 135.24 238.78 135.361 238.9C135.482 239.02 135.582 239.165 135.659 239.335C135.736 239.505 135.786 239.694 135.808 239.902ZM139.734 242.552C140.106 242.552 140.426 242.484 140.696 242.347C140.965 242.21 141.189 242.026 141.369 241.796V242.463H142.073V235.659H141.369V238.654C141.189 238.427 140.965 238.245 140.696 238.106C140.426 237.968 140.106 237.898 139.734 237.898C139.419 237.898 139.125 237.956 138.853 238.073C138.58 238.19 138.344 238.351 138.144 238.557C137.944 238.764 137.787 239.009 137.672 239.294C137.557 239.58 137.499 239.889 137.499 240.223C137.499 240.56 137.557 240.871 137.672 241.156C137.787 241.441 137.944 241.687 138.144 241.893C138.344 242.1 138.58 242.261 138.853 242.378C139.125 242.494 139.419 242.552 139.734 242.552ZM139.819 241.891C139.583 241.891 139.366 241.848 139.169 241.761C138.973 241.674 138.803 241.555 138.662 241.404C138.52 241.253 138.41 241.077 138.333 240.875C138.256 240.673 138.217 240.456 138.217 240.223C138.217 239.993 138.256 239.777 138.333 239.576C138.41 239.374 138.519 239.198 138.659 239.046C138.799 238.895 138.968 238.776 139.165 238.69C139.362 238.603 139.58 238.56 139.819 238.56C140.052 238.56 140.266 238.602 140.462 238.687C140.657 238.772 140.825 238.889 140.965 239.037C141.105 239.185 141.215 239.361 141.293 239.564C141.372 239.767 141.411 239.987 141.411 240.223C141.411 240.459 141.372 240.68 141.293 240.884C141.215 241.089 141.105 241.266 140.965 241.414C140.825 241.562 140.657 241.678 140.462 241.763C140.266 241.848 140.052 241.891 139.819 241.891ZM145.541 244.423C145.888 244.423 146.206 244.374 146.496 244.275C146.785 244.175 147.035 244.03 147.245 243.838C147.454 243.645 147.617 243.408 147.734 243.126C147.85 242.845 147.908 242.521 147.908 242.155V237.988H147.2V238.659C147.03 238.426 146.811 238.241 146.545 238.104C146.279 237.967 145.965 237.898 145.603 237.898C145.288 237.898 144.995 237.954 144.726 238.066C144.457 238.178 144.223 238.334 144.024 238.536C143.826 238.738 143.67 238.979 143.557 239.261C143.443 239.543 143.387 239.853 143.387 240.19C143.387 240.53 143.443 240.84 143.557 241.121C143.67 241.401 143.826 241.643 144.024 241.846C144.223 242.049 144.457 242.207 144.726 242.318C144.995 242.43 145.288 242.486 145.603 242.486C145.965 242.486 146.279 242.418 146.545 242.283C146.811 242.148 147.03 241.962 147.2 241.725V242.184C147.2 242.445 147.159 242.675 147.077 242.874C146.995 243.072 146.881 243.239 146.734 243.374C146.588 243.51 146.413 243.612 146.21 243.679C146.007 243.747 145.784 243.781 145.541 243.781C145.236 243.781 144.951 243.734 144.686 243.639C144.421 243.545 144.182 243.417 143.968 243.256L143.656 243.823C143.769 243.918 143.898 244.002 144.041 244.076C144.184 244.15 144.338 244.213 144.502 244.265C144.665 244.317 144.835 244.357 145.01 244.383C145.184 244.41 145.362 244.423 145.541 244.423ZM145.683 241.825C145.447 241.825 145.231 241.782 145.036 241.697C144.84 241.612 144.674 241.496 144.537 241.347C144.4 241.199 144.294 241.026 144.218 240.828C144.143 240.629 144.105 240.417 144.105 240.19C144.105 239.963 144.143 239.751 144.218 239.554C144.294 239.357 144.4 239.185 144.537 239.037C144.674 238.889 144.84 238.772 145.036 238.687C145.231 238.602 145.447 238.56 145.683 238.56C145.913 238.56 146.125 238.601 146.318 238.685C146.512 238.768 146.678 238.883 146.817 239.03C146.955 239.176 147.064 239.349 147.143 239.547C147.222 239.746 147.261 239.96 147.261 240.19C147.261 240.423 147.222 240.639 147.143 240.837C147.064 241.036 146.955 241.208 146.817 241.355C146.678 241.501 146.512 241.616 146.318 241.699C146.125 241.783 145.913 241.825 145.683 241.825ZM151.485 242.552C151.649 242.552 151.811 242.541 151.972 242.519C152.133 242.497 152.289 242.459 152.442 242.404C152.595 242.348 152.745 242.276 152.893 242.186C153.041 242.096 153.185 241.985 153.323 241.853L152.945 241.371C152.753 241.547 152.538 241.685 152.3 241.785C152.062 241.884 151.805 241.933 151.528 241.933C151.326 241.933 151.135 241.903 150.954 241.841C150.773 241.78 150.611 241.688 150.469 241.565C150.328 241.442 150.211 241.29 150.12 241.109C150.028 240.928 149.97 240.716 149.945 240.473H153.531C153.541 240.395 153.545 240.306 153.545 240.209C153.542 239.869 153.488 239.557 153.382 239.273C153.277 238.99 153.131 238.746 152.945 238.543C152.759 238.34 152.538 238.182 152.281 238.068C152.025 237.955 151.745 237.898 151.443 237.898C151.125 237.898 150.83 237.956 150.559 238.071C150.288 238.186 150.054 238.346 149.855 238.55C149.657 238.755 149.501 239 149.39 239.285C149.278 239.57 149.222 239.884 149.222 240.228C149.222 240.574 149.278 240.89 149.39 241.175C149.501 241.46 149.657 241.705 149.857 241.91C150.057 242.114 150.296 242.273 150.573 242.385C150.85 242.496 151.154 242.552 151.485 242.552ZM152.827 239.902H149.954C149.983 239.7 150.037 239.515 150.117 239.346C150.198 239.178 150.3 239.033 150.424 238.912C150.549 238.79 150.695 238.696 150.864 238.628C151.032 238.561 151.221 238.527 151.428 238.527C151.617 238.527 151.793 238.559 151.955 238.624C152.118 238.688 152.259 238.78 152.381 238.9C152.502 239.02 152.601 239.165 152.678 239.335C152.755 239.505 152.805 239.694 152.827 239.902ZM157.373 242.463L158.119 240.62H161.394L162.145 242.463H162.957L160.241 235.848H159.3L156.583 242.463H157.373ZM161.105 239.902H158.412L159.759 236.599L161.105 239.902ZM164.663 242.463V235.659H163.954V242.463H164.663ZM168.24 242.552C168.404 242.552 168.566 242.541 168.727 242.519C168.887 242.497 169.044 242.459 169.197 242.404C169.35 242.348 169.5 242.276 169.648 242.186C169.796 242.096 169.939 241.985 170.078 241.853L169.7 241.371C169.508 241.547 169.293 241.685 169.055 241.785C168.817 241.884 168.56 241.933 168.283 241.933C168.081 241.933 167.89 241.903 167.708 241.841C167.527 241.78 167.366 241.688 167.224 241.565C167.082 241.442 166.966 241.29 166.875 241.109C166.783 240.928 166.725 240.716 166.7 240.473H170.286C170.295 240.395 170.3 240.306 170.3 240.209C170.297 239.869 170.243 239.557 170.137 239.273C170.032 238.99 169.886 238.746 169.7 238.543C169.514 238.34 169.293 238.182 169.036 238.068C168.779 237.955 168.5 237.898 168.198 237.898C167.879 237.898 167.585 237.956 167.314 238.071C167.043 238.186 166.808 238.346 166.61 238.55C166.411 238.755 166.256 239 166.145 239.285C166.033 239.57 165.977 239.884 165.977 240.228C165.977 240.574 166.033 240.89 166.145 241.175C166.256 241.46 166.412 241.705 166.612 241.91C166.812 242.114 167.051 242.273 167.328 242.385C167.605 242.496 167.909 242.552 168.24 242.552ZM169.582 239.902H166.709C166.737 239.7 166.792 239.515 166.872 239.346C166.952 239.178 167.055 239.033 167.179 238.912C167.304 238.79 167.45 238.696 167.619 238.628C167.787 238.561 167.975 238.527 168.183 238.527C168.372 238.527 168.548 238.559 168.71 238.624C168.872 238.688 169.014 238.78 169.135 238.9C169.257 239.02 169.356 239.165 169.433 239.335C169.51 239.505 169.56 239.694 169.582 239.902ZM172.318 242.463V239.958C172.318 239.747 172.348 239.556 172.407 239.384C172.467 239.213 172.55 239.066 172.656 238.945C172.761 238.824 172.887 238.73 173.034 238.664C173.18 238.598 173.341 238.564 173.518 238.564C173.65 238.564 173.785 238.579 173.922 238.609C174.059 238.639 174.183 238.684 174.293 238.744L174.463 238.049C174.343 237.996 174.216 237.957 174.083 237.934C173.949 237.91 173.801 237.898 173.641 237.898C173.364 237.898 173.112 237.96 172.885 238.085C172.658 238.209 172.467 238.386 172.313 238.616V237.988H171.614V242.463H172.318ZM177.567 242.552C177.844 242.552 178.092 242.511 178.311 242.427C178.53 242.344 178.725 242.237 178.895 242.108L178.564 241.574C178.432 241.669 178.285 241.745 178.125 241.803C177.964 241.862 177.797 241.891 177.624 241.891C177.495 241.891 177.376 241.871 177.267 241.832C177.158 241.792 177.065 241.732 176.986 241.65C176.907 241.568 176.846 241.464 176.802 241.338C176.758 241.212 176.736 241.061 176.736 240.884V238.626H178.668V237.988H176.736V236.566H176.032V237.988H175.053V238.626H176.032V240.899C176.032 241.179 176.066 241.423 176.136 241.631C176.205 241.839 176.306 242.011 176.438 242.148C176.57 242.285 176.731 242.387 176.92 242.453C177.109 242.519 177.325 242.552 177.567 242.552Z" fill="#090B0E"/>
<path fill-rule="evenodd" clip-rule="evenodd" d="M62.7122 239.301L61.6719 238.261L60.6317 239.301V234.1H62.7122V239.301Z" fill="#242C38"/>
<path fill-rule="evenodd" clip-rule="evenodd" d="M58.5512 242.207L58.3988 242.054C58.3015 241.957 58.1689 241.902 58.031 241.902H54.9103V236.18H57.8157L58.5512 236.916V242.207ZM63.7525 235.14H63.2323V241.902H60.1116C59.9737 241.902 59.8411 241.957 59.7438 242.054L59.5914 242.207V236.916L60.1116 236.396V235.14C59.9737 235.14 59.8411 235.195 59.7438 235.293L59.0713 235.965L58.3988 235.293C58.3015 235.195 58.1689 235.14 58.031 235.14H54.3901C54.103 235.14 53.87 235.373 53.87 235.66V242.422C53.87 242.709 54.103 242.942 54.3901 242.942H57.8157L58.7036 243.83C58.805 243.931 58.9381 243.982 59.0713 243.982C59.2044 243.982 59.3376 243.931 59.439 243.83L60.3269 242.942H63.7525C64.0396 242.942 64.2726 242.709 64.2726 242.422V235.66C64.2726 235.373 64.0396 235.14 63.7525 235.14Z" fill="#242C38"/>
<path fill-rule="evenodd" clip-rule="evenodd" d="M58.031 237.741H56.4706V236.701H58.031V237.741Z" fill="#242C38"/>
<path fill-rule="evenodd" clip-rule="evenodd" d="M58.031 239.301H55.4304V238.261H58.031V239.301Z" fill="#242C38"/>
<path fill-rule="evenodd" clip-rule="evenodd" d="M58.031 240.862H55.4304V239.821H58.031V240.862Z" fill="#242C38"/>
<path d="M84.0466 48.4311C85.7476 48.4311 86.7808 47.5491 87.4234 46.5411L86.1634 45.8985C85.7602 46.6041 84.9538 47.1207 84.0466 47.1207C82.3834 47.1207 81.1486 45.8481 81.1486 44.0841C81.1486 42.3201 82.3834 41.0475 84.0466 41.0475C84.9538 41.0475 85.7602 41.5767 86.1634 42.2697L87.4234 41.6271C86.7934 40.6191 85.7476 39.7371 84.0466 39.7371C81.5644 39.7371 79.6366 41.5011 79.6366 44.0841C79.6366 46.6671 81.5644 48.4311 84.0466 48.4311ZM90.3214 48.4311C91.1278 48.4311 91.8334 48.1413 92.287 47.6247V48.2799H93.61V44.2479C93.61 42.6099 92.4256 42.0429 91.0774 42.0429C90.1072 42.0429 89.2252 42.3579 88.5196 43.0257L89.0614 43.9455C89.5906 43.4289 90.1828 43.1769 90.8632 43.1769C91.7074 43.1769 92.287 43.6053 92.287 44.3109V45.2181C91.846 44.7015 91.1404 44.4369 90.3214 44.4369C89.326 44.4369 88.2046 45.0165 88.2046 46.4151C88.2046 47.7633 89.326 48.4311 90.3214 48.4311ZM90.838 47.5239C90.0946 47.5239 89.5402 47.0955 89.5402 46.4403C89.5402 45.7725 90.0946 45.3441 90.838 45.3441C91.4176 45.3441 91.9846 45.5583 92.287 45.9741V46.8939C91.9846 47.3097 91.4176 47.5239 90.838 47.5239ZM96.6466 48.2799V44.1345C96.9112 43.7061 97.6546 43.3281 98.209 43.3281C98.3728 43.3281 98.5114 43.3407 98.6248 43.3659V42.0555C97.831 42.0555 97.1002 42.5091 96.6466 43.0887V42.1941H95.3236V48.2799H96.6466ZM102.027 48.4311C102.808 48.4311 103.514 48.0531 103.98 47.4483V48.2799H105.303V39.8757H103.98V43.0383C103.488 42.3957 102.783 42.0429 102.027 42.0429C100.452 42.0429 99.3178 43.2777 99.3178 45.2433C99.3178 47.2467 100.464 48.4311 102.027 48.4311ZM102.405 47.2593C101.359 47.2593 100.691 46.4151 100.691 45.2433C100.691 44.0589 101.359 43.2147 102.405 43.2147C103.035 43.2147 103.677 43.5801 103.98 44.0337V46.4529C103.677 46.9065 103.035 47.2593 102.405 47.2593Z" fill="#00D5A0"/>
<path d="M122.036 48.2799C124.644 48.2799 126.345 46.4781 126.345 44.0841C126.345 41.7027 124.644 39.8757 122.036 39.8757H119.163V48.2799H122.036ZM122.036 47.3475H120.209V40.8081H122.036C124.115 40.8081 125.261 42.2697 125.261 44.0841C125.261 45.8859 124.077 47.3475 122.036 47.3475ZM130.692 48.4311C131.687 48.4311 132.506 48.1035 133.111 47.4987L132.657 46.8813C132.179 47.3727 131.473 47.6499 130.78 47.6499C129.47 47.6499 128.663 46.6923 128.588 45.5457H133.514V45.3063C133.514 43.4793 132.431 42.0429 130.591 42.0429C128.852 42.0429 127.592 43.4667 127.592 45.2307C127.592 47.1333 128.89 48.4311 130.692 48.4311ZM132.582 44.8527H128.588C128.638 43.9203 129.281 42.8241 130.578 42.8241C131.964 42.8241 132.569 43.9455 132.582 44.8527ZM136.576 48.4311C137.13 48.4311 137.471 48.2673 137.71 48.0405L137.433 47.3349C137.307 47.4735 137.055 47.5869 136.79 47.5869C136.374 47.5869 136.173 47.2593 136.173 46.8057V43.0257H137.408V42.1941H136.173V40.5309H135.228V42.1941H134.22V43.0257H135.228V47.0073C135.228 47.9145 135.681 48.4311 136.576 48.4311ZM140.532 48.4311C141.351 48.4311 142.044 48.1413 142.548 47.5869V48.2799H143.493V44.0967C143.493 42.6225 142.422 42.0429 141.137 42.0429C140.142 42.0429 139.361 42.3705 138.705 43.0509L139.146 43.7061C139.688 43.1265 140.28 42.8619 141.011 42.8619C141.893 42.8619 142.548 43.3281 142.548 44.1471V45.2433C142.057 44.6763 141.364 44.4117 140.532 44.4117C139.499 44.4117 138.403 45.0543 138.403 46.4151C138.403 47.7381 139.499 48.4311 140.532 48.4311ZM140.873 47.7507C139.991 47.7507 139.373 47.1963 139.373 46.4277C139.373 45.6465 139.991 45.0921 140.873 45.0921C141.54 45.0921 142.183 45.3441 142.548 45.8481V46.9947C142.183 47.4987 141.54 47.7507 140.873 47.7507ZM145.85 41.3247C146.202 41.3247 146.492 41.0475 146.492 40.6947C146.492 40.3419 146.202 40.0521 145.85 40.0521C145.509 40.0521 145.22 40.3419 145.22 40.6947C145.22 41.0475 145.509 41.3247 145.85 41.3247ZM146.328 48.2799V42.1941H145.383V48.2799H146.328ZM149.163 48.2799V39.8757H148.218V48.2799H149.163ZM152.981 48.4311C154.556 48.4311 155.375 47.6121 155.375 46.5915C155.375 44.2227 151.608 45.1047 151.608 43.7691C151.608 43.2273 152.124 42.8115 152.956 42.8115C153.737 42.8115 154.405 43.1391 154.77 43.5801L155.211 42.9249C154.72 42.4335 153.989 42.0429 152.956 42.0429C151.507 42.0429 150.688 42.8493 150.688 43.7943C150.688 46.0497 154.455 45.1425 154.455 46.6167C154.455 47.2215 153.951 47.6625 153.019 47.6625C152.187 47.6625 151.419 47.2593 151.016 46.7931L150.524 47.4735C151.142 48.1287 151.986 48.4311 152.981 48.4311Z" fill="#242C38"/>
<path d="M172.284 48.4311C173.771 48.4311 174.779 47.7255 175.485 46.7679L174.59 46.2765C174.111 46.9947 173.242 47.4987 172.284 47.4987C170.445 47.4987 169.046 46.0749 169.046 44.0841C169.046 42.0807 170.445 40.6695 172.284 40.6695C173.242 40.6695 174.111 41.1861 174.59 41.8917L175.472 41.4003C174.804 40.4553 173.771 39.7371 172.284 39.7371C169.865 39.7371 167.963 41.5011 167.963 44.0841C167.963 46.6671 169.865 48.4311 172.284 48.4311ZM179.441 48.4311C181.293 48.4311 182.453 46.9947 182.453 45.2307C182.453 43.4667 181.293 42.0429 179.441 42.0429C177.589 42.0429 176.43 43.4667 176.43 45.2307C176.43 46.9947 177.589 48.4311 179.441 48.4311ZM179.441 47.5869C178.143 47.5869 177.413 46.4781 177.413 45.2307C177.413 43.9959 178.143 42.8871 179.441 42.8871C180.739 42.8871 181.457 43.9959 181.457 45.2307C181.457 46.4781 180.739 47.5869 179.441 47.5869ZM184.935 48.2799V43.8321C185.262 43.3407 185.918 42.8871 186.535 42.8871C187.329 42.8871 187.656 43.3785 187.656 44.1471V48.2799H188.601V43.8195C188.916 43.3407 189.584 42.8871 190.214 42.8871C190.995 42.8871 191.336 43.3785 191.336 44.1471V48.2799H192.281V43.8825C192.281 42.6603 191.688 42.0429 190.58 42.0429C189.698 42.0429 188.879 42.6225 188.538 43.1769C188.362 42.5469 187.833 42.0429 186.9 42.0429C186.006 42.0429 185.187 42.6855 184.935 43.0761V42.1941H183.99V48.2799H184.935ZM195.116 48.2799V43.8321C195.443 43.3407 196.098 42.8871 196.716 42.8871C197.51 42.8871 197.837 43.3785 197.837 44.1471V48.2799H198.782V43.8195C199.097 43.3407 199.765 42.8871 200.395 42.8871C201.176 42.8871 201.516 43.3785 201.516 44.1471V48.2799H202.461V43.8825C202.461 42.6603 201.869 42.0429 200.76 42.0429C199.878 42.0429 199.059 42.6225 198.719 43.1769C198.543 42.5469 198.014 42.0429 197.081 42.0429C196.187 42.0429 195.368 42.6855 195.116 43.0761V42.1941H194.171V48.2799H195.116ZM207.098 48.4311C208.094 48.4311 208.913 48.1035 209.517 47.4987L209.064 46.8813C208.585 47.3727 207.879 47.6499 207.186 47.6499C205.876 47.6499 205.07 46.6923 204.994 45.5457H209.921V45.3063C209.921 43.4793 208.837 42.0429 206.997 42.0429C205.259 42.0429 203.999 43.4667 203.999 45.2307C203.999 47.1333 205.296 48.4311 207.098 48.4311ZM208.988 44.8527H204.994C205.044 43.9203 205.687 42.8241 206.985 42.8241C208.371 42.8241 208.976 43.9455 208.988 44.8527ZM212.39 48.2799V43.8321C212.743 43.3407 213.449 42.8871 214.192 42.8871C215.011 42.8871 215.553 43.2273 215.553 44.2983V48.2799H216.498V44.0085C216.498 42.6855 215.83 42.0429 214.557 42.0429C213.65 42.0429 212.819 42.5721 212.39 43.0761V42.1941H211.445V48.2799H212.39ZM219.925 48.4311C220.479 48.4311 220.82 48.2673 221.059 48.0405L220.782 47.3349C220.656 47.4735 220.404 47.5869 220.139 47.5869C219.723 47.5869 219.522 47.2593 219.522 46.8057V43.0257H220.757V42.1941H219.522V40.5309H218.577V42.1941H217.569V43.0257H218.577V47.0073C218.577 47.9145 219.03 48.4311 219.925 48.4311ZM224.02 48.4311C225.595 48.4311 226.414 47.6121 226.414 46.5915C226.414 44.2227 222.647 45.1047 222.647 43.7691C222.647 43.2273 223.163 42.8115 223.995 42.8115C224.776 42.8115 225.444 43.1391 225.809 43.5801L226.25 42.9249C225.759 42.4335 225.028 42.0429 223.995 42.0429C222.546 42.0429 221.727 42.8493 221.727 43.7943C221.727 46.0497 225.494 45.1425 225.494 46.6167C225.494 47.2215 224.99 47.6625 224.058 47.6625C223.226 47.6625 222.458 47.2593 222.054 46.7931L221.563 47.4735C222.18 48.1287 223.025 48.4311 224.02 48.4311Z" fill="#242C38"/>
<rect x="50" y="232" width="133" height="16" fill="#EBEEF2"/>
<path fill-rule="evenodd" clip-rule="evenodd" d="M56.2681 241.729L55.9784 240.567L62.8106 236.906L63.9606 241.519L56.2681 241.729ZM59.1699 243.803L58.3309 243.802L58.0519 242.683L59.6651 242.629L59.1699 243.803ZM62.903 235.21C62.6351 235.277 62.4718 235.547 62.5388 235.816L62.5628 235.912L55.7305 239.573C55.684 239.386 55.4622 239.278 55.2161 239.316L55.1542 239.328C54.8863 239.395 54.7238 239.669 54.7896 239.933L55.5161 242.846C55.578 243.094 55.8146 243.253 56.0641 243.22L56.1219 243.209C56.3692 243.147 56.5273 242.912 56.521 242.759L56.5159 242.723L57.0279 242.71L57.4551 244.423C57.5106 244.645 57.7103 244.802 57.9398 244.802L59.5013 244.803C59.5429 244.803 59.5834 244.798 59.6227 244.788C59.7731 244.751 59.9003 244.645 59.9625 244.497L60.7624 242.601L64.2083 242.512L64.2323 242.608C64.2943 242.857 64.5311 243.016 64.7806 242.983L64.8384 242.972C65.1063 242.906 65.2697 242.636 65.2025 242.366L63.5092 235.575C63.4471 235.326 63.2103 235.167 62.9607 235.199L62.903 235.21Z" fill="#090B0E"/>
<rect x="53" y="177" width="65" height="12" fill="white"/>
<rect x="75" y="36" width="164" height="19" fill="white"/>
<rect x="81" y="41" width="289" height="9" rx="4.5" fill="#EBEEF2"/>
<rect x="54" y="182" width="33" height="6" rx="3" fill="#EBEEF2"/>
<path d="M74.99 243.12C76.79 243.12 77.57 242.17 77.57 241.06C77.57 238.57 73.69 239.34 73.69 238.1C73.69 237.6 74.13 237.27 74.82 237.27C75.52 237.27 76.23 237.51 76.75 238.03L77.42 237.16C76.8 236.56 75.96 236.23 74.92 236.23C73.46 236.23 72.49 237.08 72.49 238.18C72.49 240.64 76.38 239.77 76.38 241.17C76.38 241.61 76 242.08 75.04 242.08C74.11 242.08 73.39 241.65 72.93 241.16L72.28 242.06C72.87 242.69 73.76 243.12 74.99 243.12Z" fill="black"/>
<path d="M80.8475 243.12C81.6175 243.12 82.3275 242.88 82.8075 242.42L82.3275 241.73C81.9875 242.07 81.4275 242.26 80.9575 242.26C80.0475 242.26 79.4975 241.66 79.4175 240.93H83.1475V240.68C83.1475 239.16 82.2175 238.05 80.7675 238.05C79.3375 238.05 78.3175 239.18 78.3175 240.58C78.3175 242.11 79.3975 243.12 80.8475 243.12ZM82.1275 240.19H79.4075C79.4575 239.6 79.8675 238.91 80.7675 238.91C81.7175 238.91 82.1075 239.62 82.1275 240.19Z" fill="black"/>
<path d="M88.4939 243V239.6C88.4939 238.61 87.9739 238.05 86.9339 238.05C86.1739 238.05 85.5539 238.45 85.2339 238.83V238.17H84.1839V243H85.2339V239.63C85.4739 239.3 85.9339 238.98 86.4739 238.98C87.0639 238.98 87.4439 239.23 87.4439 239.98V243H88.4939Z" fill="black"/>
<path d="M94.3078 243V236.33H93.2578V238.84C92.8678 238.33 92.3078 238.05 91.7078 238.05C90.4578 238.05 89.5578 239.03 89.5578 240.59C89.5578 242.18 90.4678 243.12 91.7078 243.12C92.3278 243.12 92.8878 242.82 93.2578 242.34V243H94.3078ZM92.0078 242.19C91.1778 242.19 90.6478 241.52 90.6478 240.59C90.6478 239.65 91.1778 238.98 92.0078 238.98C92.5078 238.98 93.0178 239.27 93.2578 239.63V241.55C93.0178 241.91 92.5078 242.19 92.0078 242.19Z" fill="black"/>
<path d="M102.237 243V239.8C102.237 238.5 101.297 238.05 100.227 238.05C99.4567 238.05 98.7567 238.3 98.1967 238.83L98.6267 239.56C99.0467 239.15 99.5167 238.95 100.057 238.95C100.727 238.95 101.187 239.29 101.187 239.85V240.57C100.837 240.16 100.277 239.95 99.6267 239.95C98.8367 239.95 97.9467 240.41 97.9467 241.52C97.9467 242.59 98.8367 243.12 99.6267 243.12C100.267 243.12 100.827 242.89 101.187 242.48V243H102.237ZM100.037 242.4C99.4467 242.4 99.0067 242.06 99.0067 241.54C99.0067 241.01 99.4467 240.67 100.037 240.67C100.497 240.67 100.947 240.84 101.187 241.17V241.9C100.947 242.23 100.497 242.4 100.037 242.4Z" fill="black"/>
<path d="M107.908 243V239.6C107.908 238.61 107.388 238.05 106.348 238.05C105.588 238.05 104.968 238.45 104.648 238.83V238.17H103.598V243H104.648V239.63C104.888 239.3 105.348 238.98 105.888 238.98C106.478 238.98 106.858 239.23 106.858 239.98V243H107.908Z" fill="black"/>
<path d="M115.84 243V239.8C115.84 238.5 114.9 238.05 113.83 238.05C113.06 238.05 112.36 238.3 111.8 238.83L112.23 239.56C112.65 239.15 113.12 238.95 113.66 238.95C114.33 238.95 114.79 239.29 114.79 239.85V240.57C114.44 240.16 113.88 239.95 113.23 239.95C112.44 239.95 111.55 240.41 111.55 241.52C111.55 242.59 112.44 243.12 113.23 243.12C113.87 243.12 114.43 242.89 114.79 242.48V243H115.84ZM113.64 242.4C113.05 242.4 112.61 242.06 112.61 241.54C112.61 241.01 113.05 240.67 113.64 240.67C114.1 240.67 114.55 240.84 114.79 241.17V241.9C114.55 242.23 114.1 242.4 113.64 242.4Z" fill="black"/>
<path d="M121.512 243V239.6C121.512 238.61 120.992 238.05 119.952 238.05C119.192 238.05 118.572 238.45 118.252 238.83V238.17H117.202V243H118.252V239.63C118.492 239.3 118.952 238.98 119.492 238.98C120.082 238.98 120.462 239.23 120.462 239.98V243H121.512Z" fill="black"/>
<path d="M127.185 243V239.6C127.185 238.61 126.665 238.05 125.625 238.05C124.865 238.05 124.245 238.45 123.925 238.83V238.17H122.875V243H123.925V239.63C124.165 239.3 124.625 238.98 125.165 238.98C125.755 238.98 126.135 239.23 126.135 239.98V243H127.185Z" fill="black"/>
<path d="M130.729 243.12C132.279 243.12 133.219 241.97 133.219 240.58C133.219 239.2 132.279 238.05 130.729 238.05C129.199 238.05 128.249 239.2 128.249 240.58C128.249 241.97 129.199 243.12 130.729 243.12ZM130.729 242.19C129.839 242.19 129.339 241.44 129.339 240.58C129.339 239.73 129.839 238.98 130.729 238.98C131.629 238.98 132.129 239.73 132.129 240.58C132.129 241.44 131.629 242.19 130.729 242.19Z" fill="black"/>
<path d="M138.592 243V238.17H137.542V241.56C137.292 241.89 136.832 242.19 136.302 242.19C135.712 242.19 135.332 241.96 135.332 241.21V238.17H134.282V241.59C134.282 242.58 134.792 243.12 135.832 243.12C136.592 243.12 137.192 242.75 137.542 242.36V243H138.592Z" fill="black"/>
<path d="M144.265 243V239.6C144.265 238.61 143.745 238.05 142.705 238.05C141.945 238.05 141.325 238.45 141.005 238.83V238.17H139.955V243H141.005V239.63C141.245 239.3 141.705 238.98 142.245 238.98C142.835 238.98 143.215 239.23 143.215 239.98V243H144.265Z" fill="black"/>
<path d="M147.829 243.12C148.769 243.12 149.339 242.72 149.679 242.26L148.989 241.62C148.719 241.99 148.349 242.19 147.879 242.19C146.999 242.19 146.419 241.52 146.419 240.58C146.419 239.64 146.999 238.98 147.879 238.98C148.349 238.98 148.719 239.17 148.989 239.55L149.679 238.91C149.339 238.45 148.769 238.05 147.829 238.05C146.359 238.05 145.329 239.12 145.329 240.58C145.329 242.05 146.359 243.12 147.829 243.12Z" fill="black"/>
<path d="M152.83 243.12C153.6 243.12 154.31 242.88 154.79 242.42L154.31 241.73C153.97 242.07 153.41 242.26 152.94 242.26C152.03 242.26 151.48 241.66 151.4 240.93H155.13V240.68C155.13 239.16 154.2 238.05 152.75 238.05C151.32 238.05 150.3 239.18 150.3 240.58C150.3 242.11 151.38 243.12 152.83 243.12ZM154.11 240.19H151.39C151.44 239.6 151.85 238.91 152.75 238.91C153.7 238.91 154.09 239.62 154.11 240.19Z" fill="black"/>
<path d="M163.136 243V239.51C163.136 238.53 162.636 238.05 161.746 238.05C161.026 238.05 160.386 238.5 160.106 238.94C159.946 238.41 159.506 238.05 158.786 238.05C158.056 238.05 157.416 238.53 157.216 238.83V238.17H156.166V243H157.216V239.63C157.436 239.31 157.866 238.98 158.326 238.98C158.896 238.98 159.126 239.33 159.126 239.85V243H160.176V239.62C160.386 239.31 160.826 238.98 161.296 238.98C161.856 238.98 162.086 239.33 162.086 239.85V243H163.136Z" fill="black"/>
<path d="M166.726 243.12C167.496 243.12 168.206 242.88 168.686 242.42L168.206 241.73C167.866 242.07 167.306 242.26 166.836 242.26C165.926 242.26 165.376 241.66 165.296 240.93H169.026V240.68C169.026 239.16 168.096 238.05 166.646 238.05C165.216 238.05 164.196 239.18 164.196 240.58C164.196 242.11 165.276 243.12 166.726 243.12ZM168.006 240.19H165.286C165.336 239.6 165.746 238.91 166.646 238.91C167.596 238.91 167.986 239.62 168.006 240.19Z" fill="black"/>
<path d="M174.373 243V239.6C174.373 238.61 173.853 238.05 172.813 238.05C172.053 238.05 171.433 238.45 171.113 238.83V238.17H170.063V243H171.113V239.63C171.353 239.3 171.813 238.98 172.353 238.98C172.943 238.98 173.323 239.23 173.323 239.98V243H174.373Z" fill="black"/>
<path d="M177.187 243.12C177.677 243.12 177.987 242.99 178.177 242.81L177.927 242.02C177.847 242.11 177.657 242.19 177.457 242.19C177.157 242.19 176.997 241.95 176.997 241.62V239.09H177.977V238.17H176.997V236.85H175.947V238.17H175.147V239.09H175.947V241.88C175.947 242.68 176.377 243.12 177.187 243.12Z" fill="black"/>
<defs>
<filter id="filter0_d_113_1197" x="41.36" y="168.36" width="151.12" height="113.32" filterUnits="userSpaceOnUse" color-interpolation-filters="sRGB">
<feFlood flood-opacity="0" result="BackgroundImageFix"/>
<feColorMatrix in="SourceAlpha" type="matrix" values="0 0 0 0 0 0 0 0 0 0 0 0 0 0 0 0 0 0 127 0" result="hardAlpha"/>
<feOffset dy="1"/>
<feGaussianBlur stdDeviation="2.5"/>
<feColorMatrix type="matrix" values="0 0 0 0 0.538864 0 0 0 0 0.538864 0 0 0 0 0.538864 0 0 0 0.5 0"/>
<feBlend mode="normal" in2="BackgroundImageFix" result="effect1_dropShadow_113_1197"/>
<feBlend mode="normal" in="SourceGraphic" in2="effect1_dropShadow_113_1197" result="shape"/>
</filter>
<linearGradient id="paint0_linear_113_1197" x1="191.43" y1="70.8671" x2="204.177" y2="252.082" gradientUnits="userSpaceOnUse">
<stop stop-color="#C6DBFF"/>
<stop offset="0.777924" stop-color="#CADDFE"/>
<stop offset="1" stop-color="#D6E4FC"/>
</linearGradient>
</defs>
</svg>
