<?xml version="1.0" encoding="UTF-8"?>
<svg width="426px" height="321px" viewBox="0 0 426 321" version="1.1" xmlns="http://www.w3.org/2000/svg" xmlns:xlink="http://www.w3.org/1999/xlink">
    <title>KAinbox</title>
    <defs>
        <path d="M150.072392,41.7394514 C171.686593,27.6538738 243.182542,-17.2764336 326.297486,7.60524477 C409.411796,32.4856507 421.503498,107.738953 423.949302,126.000321 C428.068251,156.755974 428.02965,222.008503 390.715474,265.904884 C353.400666,309.801901 277.355457,322.347724 255.165401,319.692601 C240.052673,317.884343 223.329447,312.613545 210.186018,304.736616 C194.516419,295.344746 186.24245,279.717505 176.324445,264.948582 C159.562618,239.988007 134.483159,240.049724 106.926888,240.86923 C68.4420168,242.014503 37.1230673,229.837712 16.0986437,197.249623 C-11.8892027,153.867979 -6.02180398,64.752427 56.8363122,57.3927796 C71.0833587,55.7251357 84.65773,58.5367794 98.7896054,58.4050731" id="path-1"></path>
        <linearGradient x1="44.7149915%" y1="21.7742935%" x2="50%" y2="78.2257065%" id="linearGradient-3">
            <stop stop-color="#C6DBFF" offset="0%"></stop>
            <stop stop-color="#CADDFE" offset="77.7923903%"></stop>
            <stop stop-color="#D6E4FC" offset="100%"></stop>
        </linearGradient>
        <path d="M2.76549739,-0.000933343704 C1.25814731,-0.000933343704 0.0364004044,1.21988022 0.0364004044,2.7272303 L0.0364004044,2.7272303 L31.4172824,2.7272303 C31.4172824,1.21988022 30.1955355,-0.000933343704 28.6881854,-0.000933343704 L28.6881854,-0.000933343704 L2.76549739,-0.000933343704 Z" id="path-4"></path>
        <path d="M3.54950611,0.276269736 C2.04215602,0.276269736 0.821342459,1.49894999 0.821342459,3.00536673 L0.821342459,3.00536673 L0.821342459,13.919888 C0.821342459,15.4281714 2.04215602,16.6499183 3.54950611,16.6499183 L3.54950611,16.6499183 L14.4640274,16.6499183 C15.9713775,16.6499183 17.1940577,15.4281714 17.1940577,13.919888 L17.1940577,13.919888 L17.1940577,3.00536673 C17.1940577,1.49894999 15.9713775,0.276269736 14.4640274,0.276269736 L14.4640274,0.276269736 L3.54950611,0.276269736 Z" id="path-6"></path>
        <path d="M9.31383682,0.0448004978 C9.13090145,0.05040056 8.95543284,0.132534806 8.82756475,0.273469705 L8.82756475,0.273469705 C7.08127868,2.12895699 5.49086101,3.95924399 3.79404216,5.78579762 L3.79404216,5.78579762 L1.64641829,3.9657774 C1.50081668,3.84257603 1.31414793,3.78470872 1.12747919,3.80617562 L1.12747919,3.80617562 C0.940810453,3.82857587 0.770008556,3.92751031 0.652407249,4.08244536 L0.652407249,4.08244536 C0.408804542,4.40631563 0.458271759,4.87858754 0.76347515,5.13712375 L0.76347515,5.13712375 L3.41323792,7.38368204 C3.69510772,7.62355137 4.10297892,7.59835109 4.35684841,7.32581473 L4.35684841,7.32581473 C6.2552695,5.30792564 7.96328848,3.31897021 9.83277592,1.33281481 L9.83277592,1.33281481 C10.0437116,1.11627907 10.107179,0.784942055 9.99237769,0.499338882 L9.99237769,0.499338882 C9.88037645,0.222135802 9.62370693,0.0438671541 9.34277048,0.0438671541 L9.34277048,0.0438671541 C9.33343704,0.0438671541 9.32317026,0.0448004978 9.31383682,0.0448004978 L9.31383682,0.0448004978 Z" id="path-8"></path>
        <path d="M4.30924788,0.838142646 C3.68204091,0.838142646 3.17150191,1.32814809 3.17150191,1.93015478 L3.17150191,1.93015478 L3.17150191,8.47849421 C3.17150191,9.07956755 3.68204091,9.569573 4.30924788,9.569573 L4.30924788,9.569573 L9.99331104,9.569573 C10.620518,9.569573 11.1301237,9.07956755 11.1301237,8.47849421 L11.1301237,8.47849421 L11.1301237,1.93015478 C11.1301237,1.38414871 10.5617174,0.838142646 9.99331104,0.838142646 L9.99331104,0.838142646 L4.30924788,0.838142646 Z M4.30924788,8.47849421 L9.99331104,8.47849421 L9.99331104,1.93015478 L4.30924788,1.93015478 L4.30924788,8.47849421 Z M0.896943299,3.02123357 L0.896943299,10.6615851 C0.896943299,11.2635918 1.40748231,11.7526639 2.03468927,11.7526639 L2.03468927,11.7526639 L8.85649841,11.7526639 L8.85649841,10.6615851 L2.03468927,10.6615851 L2.03468927,3.02123357 L0.896943299,3.02123357 Z" id="path-10"></path>
        <path d="M5.63086257,0.833475928 L1.03227814,5.43112701 C0.398537762,6.06673407 0.398537762,7.09807887 1.03227814,7.7308859 L1.03227814,7.7308859 L1.4158824,8.1154235 L2.18029089,7.34821498 L1.79761997,6.96554406 C1.58575095,6.75460838 1.58575095,6.41020456 1.79761997,6.19833554 L1.79761997,6.19833554 L6.39713775,1.59975111 C6.49887221,1.4970833 6.63514039,1.44108268 6.77980866,1.44108268 L6.77980866,1.44108268 C6.92634363,1.44108268 7.06074512,1.4970833 7.16341293,1.59975111 L7.16341293,1.59975111 L7.54795053,1.98335537 L8.31235903,1.21708019 L7.93062145,0.833475928 C7.62355137,0.527339193 7.20168002,0.373337482 6.77980866,0.373337482 L6.77980866,0.373337482 C6.35793731,0.373337482 5.9369993,0.527339193 5.63086257,0.833475928 L5.63086257,0.833475928 Z M6.3962044,4.66578518 L7.16247958,5.4329937 L10.9957222,1.60068445 L10.2285137,0.833475928 L6.3962044,4.66578518 Z M9.84490939,4.2840476 L10.2285137,4.66671852 C10.3321148,4.76938633 10.3881154,4.90472116 10.3881154,5.04938944 L10.3881154,5.04938944 C10.3881154,5.19312437 10.3311815,5.33032589 10.2285137,5.4329937 L10.2285137,5.4329937 L5.63086257,10.0315781 C5.42552695,10.2359804 5.06805631,10.2359804 4.86365404,10.0315781 L4.86365404,10.0315781 L4.48098312,9.64890721 L3.71470794,10.4151824 L4.09737886,10.79692 C4.40538228,11.1049234 4.81325348,11.2738586 5.2472583,11.2738586 L5.2472583,11.2738586 C5.68219647,11.2738586 6.09006767,11.1049234 6.39713775,10.79692 L6.39713775,10.79692 L10.9957222,6.19926888 C11.3027923,5.89126546 11.4707941,5.4843276 11.4707941,5.04938944 L11.4707941,5.04938944 C11.4707941,4.61538462 11.3027923,4.20751342 10.9957222,3.90044334 L10.9957222,3.90044334 L10.6121179,3.51777242 L9.84490939,4.2840476 Z M1.03134479,10.0306448 L1.79668663,10.79692 L5.62992922,6.96461072 L4.86365404,6.19833554 L1.03134479,10.0306448 Z" id="path-12"></path>
        <path d="M9.18876876,0.483472039 C8.7454305,0.926810298 8.7454305,1.64735164 9.18876876,2.0906899 L9.18876876,2.0906899 C9.63397371,2.5349615 10.3535817,2.5349615 10.7978533,2.0906899 L10.7978533,2.0906899 C11.2421249,1.64735164 11.2421249,0.926810298 10.7978533,0.483472039 L10.7978533,0.483472039 C10.5747842,0.261336237 10.2845143,0.150268336 9.99331104,0.150268336 L9.99331104,0.150268336 C9.7021078,0.150268336 9.41183791,0.261336237 9.18876876,0.483472039 L9.18876876,0.483472039 Z M5.2108579,0.483472039 C4.76565295,0.926810298 4.76565295,1.64735164 5.2108579,2.0906899 L5.2108579,2.0906899 C5.65419616,2.5349615 6.37287081,2.5349615 6.81807576,2.0906899 L6.81807576,2.0906899 C7.26234736,1.64735164 7.26234736,0.926810298 6.81807576,0.483472039 L6.81807576,0.483472039 C6.59593995,0.261336237 6.30473672,0.150268336 6.01353348,0.150268336 L6.01353348,0.150268336 C5.72326359,0.150268336 5.43206036,0.261336237 5.2108579,0.483472039 L5.2108579,0.483472039 Z M1.23108035,0.483472039 C0.785875399,0.926810298 0.785875399,1.64735164 1.23108035,2.0906899 L1.23108035,2.0906899 C1.67535195,2.5349615 2.39495994,2.5349615 2.8382982,2.0906899 L2.8382982,2.0906899 C3.28256981,1.64735164 3.28256981,0.926810298 2.8382982,0.483472039 L2.8382982,0.483472039 C2.61709575,0.261336237 2.32589251,0.150268336 2.03468927,0.150268336 L2.03468927,0.150268336 C1.74348604,0.150268336 1.4522828,0.261336237 1.23108035,0.483472039 L1.23108035,0.483472039 Z" id="path-14"></path>
        <path d="M3.81190532,1.54670607 C2.71412719,1.54670607 1.82077208,2.42610251 1.82077208,3.50672785 C1.82077208,5.70391227 4.90238262,8.2153535 6.46674963,9.26004511 C8.03111664,8.2153535 11.1127272,5.70391227 11.1127272,3.50672785 C11.1127272,2.42610251 10.2193721,1.54670607 9.12159394,1.54670607 C8.00058593,1.54670607 7.13046071,2.60054445 7.13046071,3.50672785 C7.13046071,3.86737186 6.83311815,4.16006845 6.46674963,4.16006845 C6.10038112,4.16006845 5.80303855,3.86737186 5.80303855,3.50672785 C5.80303855,2.60054445 4.93291333,1.54670607 3.81190532,1.54670607 M6.46674963,10.6934744 C6.34462679,10.6934744 6.22250395,10.660154 6.11498276,10.5941666 C5.88533873,10.453045 0.493349926,7.09422105 0.493349926,3.50672785 C0.493349926,1.70546784 1.98205387,0.240024889 3.81190532,0.240024889 C4.86986078,0.240024889 5.85016204,0.786870965 6.46674963,1.59897332 C7.08333722,0.786870965 8.06363848,0.240024889 9.12159394,0.240024889 C10.9514454,0.240024889 12.4401493,1.70546784 12.4401493,3.50672785 C12.4401493,7.09422105 7.04816054,10.453045 6.8185165,10.5941666 C6.71099531,10.660154 6.58887247,10.6934744 6.46674963,10.6934744" id="path-16"></path>
    </defs>
    <g id="KAinbox" stroke="none" stroke-width="1" fill="none" fill-rule="evenodd">
        <g id="Group">
            <g id="Group-13">
                <g id="Group-9">
                    <g id="Group-89">
                        <g id="Group-3">
                            <mask id="mask-2" fill="white">
                                <use xlink:href="#path-1"></use>
                            </mask>
                            <g id="Clip-2"></g>
                            <path d="M150.072392,41.7394514 C134.664142,51.7796724 117.388475,58.2313734 98.7896054,58.4050731 C84.65773,58.5367794 71.0833587,55.7251357 56.8363122,57.3927796 C-6.02180398,64.752427 -11.8892027,153.867979 16.0986437,197.249623 C37.1230673,229.837712 68.4420168,242.014503 106.926888,240.86923 C134.483159,240.049724 159.562618,239.988007 176.324445,264.948582 C186.24245,279.717505 194.516419,295.344746 210.186018,304.736616 C223.329447,312.613545 240.052673,317.884343 255.165401,319.692601 C277.355457,322.347724 353.400666,309.801901 390.715474,265.904884 C428.02965,222.008503 428.068251,156.755974 423.949302,126.000321 C421.503498,107.738953 409.411796,32.4856507 326.297486,7.60524477 C243.182542,-17.2764336 171.686593,27.6538738 150.072392,41.7394514 Z" id="Fill-1" fill="url(#linearGradient-3)" mask="url(#mask-2)"></path>
                        </g>
                    </g>
                    <g id="Group-18" transform="translate(30.240000, 25.200000)">
                        <g id="Group-15">
                            <path d="M5.04,262.956522 L371.478317,262.956522 C374.261832,262.956522 376.518317,260.700037 376.518317,257.916522 L376.518317,5.04 C376.518317,2.25648486 374.261832,4.22668562e-13 371.478317,4.31173492e-13 L5.04,4.31173492e-13 C2.25648486,4.32572993e-13 -8.33448807e-15,2.25648486 0,5.04 L0,257.916522 C3.12441083e-14,260.700037 2.25648486,262.956522 5.04,262.956522 Z" id="Fill-101" stroke="#CED2D9" stroke-width="0.933343704" fill="#FFFFFF"></path>
                            <path d="M0.769075212,38.2558917 L375.642374,38.2558917 L375.642374,5.04 C375.642374,2.25648486 373.385889,-7.32617504e-14 370.602374,-7.18622486e-14 L5.80907521,-7.18622486e-14 C3.02556007,-7.13509252e-14 0.769075212,2.25648486 0.769075212,5.04 L0.769075212,38.2558917 L0.769075212,38.2558917 Z" id="Fill-104" fill="#FFFFFF"></path>
                            <g id="Group-108" transform="translate(47.590239, 34.905188)">
                                <mask id="mask-5" fill="white">
                                    <use xlink:href="#path-4"></use>
                                </mask>
                                <g id="Clip-107"></g>
                                <polygon id="Fill-106" fill="#00D5A0" mask="url(#mask-5)" points="5.30544471e-14 6.28046978 38.4845609 6.28046978 38.4845609 -3.55230614 5.30544471e-14 -3.55230614"></polygon>
                            </g>
                            <line x1="0.000280003112" y1="37.6325115" x2="376.905935" y2="37.6325115" id="Stroke-109" stroke="#CED2D9" stroke-width="0.758528428" stroke-linecap="square"></line>
                            <g id="Group-113" transform="translate(12.823209, 10.638252)">
                                <mask id="mask-7" fill="white">
                                    <use xlink:href="#path-6"></use>
                                </mask>
                                <g id="Clip-112"></g>
                                <polygon id="Fill-111" fill="#4ABB8F" mask="url(#mask-7)" points="-2.73096368 20.2003578 20.7454305 20.2003578 20.7454305 -3.2760364 -2.73096368 -3.2760364"></polygon>
                            </g>
                            <path d="M16.3729953,10.9146146 L27.2875165,10.9146146 C28.7948666,10.9146146 30.0166135,12.1372949 30.0166135,13.6437116 L30.0166135,24.5582329 C30.0166135,26.065583 28.7948666,27.2873299 27.2875165,27.2873299 L16.3729953,27.2873299 C14.8656452,27.2873299 13.6438983,26.065583 13.6438983,24.5582329 L13.6438983,13.6437116 C13.6438983,12.1372949 14.8656452,10.9146146 16.3729953,10.9146146 Z" id="Stroke-114" fill="#00D5A0"></path>
                            <g id="Group-118" transform="translate(16.556584, 15.304970)">
                                <mask id="mask-9" fill="white">
                                    <use xlink:href="#path-8"></use>
                                </mask>
                                <g id="Clip-117"></g>
                                <polygon id="Fill-116" fill="#FFFFFF" mask="url(#mask-9)" points="-3.0539006 11.0993233 13.6006845 11.0993233 13.6006845 -3.50843898 -3.0539006 -3.50843898"></polygon>
                            </g>
                            <polygon id="Fill-119" fill="#767576" points="362.975593 18.3743642 360.30903 15.7078012 359.791958 16.2248736 362.458521 18.8905032 359.791958 21.5579995 360.30903 22.0741386 362.975593 19.408509 365.641223 22.0741386 366.159228 21.5579995 363.491732 18.8905032 366.159228 16.2248736 365.641223 15.7078012"></polygon>
                            <polygon id="Fill-120" fill="#737880" points="362.975593 18.3743642 360.30903 15.7078012 359.791958 16.2248736 362.458521 18.8905032 359.791958 21.5579995 360.30903 22.0741386 362.975593 19.408509 365.641223 22.0741386 366.159228 21.5579995 363.491732 18.8905032 366.159228 16.2248736 365.641223 15.7078012"></polygon>
                            <path d="M54.7009411,136.14868 L351.417811,136.14868 C352.987164,136.14868 354.259376,134.876468 354.259376,133.307115 C354.259376,131.737762 352.987164,130.46555 351.417811,130.46555 L54.7009411,130.46555 C53.1315882,130.46555 51.8593762,131.737762 51.8593762,133.307115 C51.8593762,134.876468 53.1315882,136.14868 54.7009411,136.14868 Z" id="Fill-138" fill="#EBEEF2"></path>
                            <rect id="Rectangle" fill="#FFF5CD" x="15.12" y="50.4" width="346.5" height="36.54" rx="5.04"></rect>
                            <path d="M57.9261103,111.673468 L349.139613,111.673468 C352.490177,111.673468 355.206347,108.957299 355.206347,105.606734 C355.206347,102.256169 352.490177,99.54 349.139613,99.54 L57.9261103,99.54 C54.5755456,99.54 51.8593762,102.256169 51.8593762,105.606734 C51.8593762,108.957299 54.5755456,111.673468 57.9261103,111.673468 Z" id="Fill-138" fill="#EBEEF2"></path>
                            <path d="M54.7009411,157.46065 L351.417811,157.46065 C352.987164,157.46065 354.259376,156.188438 354.259376,154.619085 C354.259376,153.049732 352.987164,151.77752 351.417811,151.77752 L54.7009411,151.77752 C53.1315882,151.77752 51.8593762,153.049732 51.8593762,154.619085 C51.8593762,156.188438 53.1315882,157.46065 54.7009411,157.46065 Z" id="Fill-139" fill="#EBEEF2"></path>
                            <path d="M54.7009411,178.063279 L351.417811,178.063279 C352.987164,178.063279 354.259376,176.791067 354.259376,175.221714 C354.259376,173.652361 352.987164,172.380149 351.417811,172.380149 L54.7009411,172.380149 C53.1315882,172.380149 51.8593762,173.652361 51.8593762,175.221714 C51.8593762,176.791067 53.1315882,178.063279 54.7009411,178.063279 Z" id="Fill-140" fill="#EBEEF2"></path>
                            <path d="M54.7009411,200.086457 L258.177811,200.086457 C259.747164,200.086457 261.019376,198.814245 261.019376,197.244892 C261.019376,195.675539 259.747164,194.403327 258.177811,194.403327 L54.7009411,194.403327 C53.1315882,194.403327 51.8593762,195.675539 51.8593762,197.244892 C51.8593762,198.814245 53.1315882,200.086457 54.7009411,200.086457 Z" id="Fill-143" fill="#EBEEF2"></path>
                            <g id="Group-154" transform="translate(12.823209, 141.540467)" stroke="#D9DEE5" stroke-linecap="square" stroke-width="0.758528428">
                                <line x1="17.0002956" y1="31.0402116" x2="0.627580306" y2="31.0402116" id="Stroke-148"></line>
                                <line x1="17.0002956" y1="1.3436416" x2="0.627580306" y2="1.3436416" id="Stroke-150"></line>
                            </g>
                            <g id="Group-158" transform="translate(16.556584, 99.540000)">
                                <mask id="mask-11" fill="white">
                                    <use xlink:href="#path-10"></use>
                                </mask>
                                <g id="Clip-156"></g>
                                <polygon id="Fill-155" fill="#405880" mask="url(#mask-11)" points="-2.65442949 15.3049701 14.6824298 15.3049701 14.6824298 -2.71416349 -2.65442949 -2.71416349"></polygon>
                                <polygon id="Fill-157" fill="#737880" mask="url(#mask-11)" points="-4.35964844 16.526717 16.2457805 16.526717 16.2457805 -4.07871199 -4.35964844 -4.07871199"></polygon>
                            </g>
                            <g id="Group-166" transform="translate(15.623240, 121.940249)">
                                <mask id="mask-13" fill="white">
                                    <use xlink:href="#path-12"></use>
                                </mask>
                                <g id="Clip-164"></g>
                                <polygon id="Fill-163" fill="#767576" mask="url(#mask-13)" points="-2.99509995 14.8261647 15.0240336 14.8261647 15.0240336 -3.17896866 -2.99509995 -3.17896866"></polygon>
                                <polygon id="Fill-165" fill="#737880" mask="url(#mask-13)" points="-4.35964844 16.0619118 16.2457805 16.0619118 16.2457805 -4.54351715 -4.35964844 -4.54351715"></polygon>
                            </g>
                            <g id="Group-176" transform="translate(15.623240, 188.207652)">
                                <mask id="mask-15" fill="white">
                                    <use xlink:href="#path-14"></use>
                                </mask>
                                <g id="Clip-174"></g>
                                <polygon id="Fill-173" fill="#767576" mask="url(#mask-15)" points="-2.65442949 5.97619974 14.6824298 5.97619974 14.6824298 -3.4020378 -2.65442949 -3.4020378"></polygon>
                                <polygon id="Fill-175" fill="#737880" mask="url(#mask-15)" points="-4.35964844 11.5183946 16.2457805 11.5183946 16.2457805 -9.0870343 -4.35964844 -9.0870343"></polygon>
                            </g>
                            <g id="favorite/filled" transform="translate(14.756553, 151.940560)">
                                <mask id="mask-17" fill="white">
                                    <use xlink:href="#path-16"></use>
                                </mask>
                                <use id="🎨-Icon-Сolor" fill="#737880" xlink:href="#path-16"></use>
                            </g>
                        </g>
                        <rect id="Rectangle" fill="#FFE067" x="295" y="58" width="56.7" height="21.42" rx="2.52"></rect>
                    </g>
                </g>
                <g id="Group-10" transform="translate(78.120000, 35.280000)" fill="#00D5A0" fill-rule="nonzero">
                    <path d="M4.9266,12.1512 C6.6276,12.1512 7.6608,11.2692 8.3034,10.2612 L7.0434,9.6186 C6.6402,10.3242 5.8338,10.8408 4.9266,10.8408 C3.2634,10.8408 2.0286,9.5682 2.0286,7.8042 C2.0286,6.0402 3.2634,4.7676 4.9266,4.7676 C5.8338,4.7676 6.6402,5.2968 7.0434,5.9898 L8.3034,5.3472 C7.6734,4.3392 6.6276,3.4572 4.9266,3.4572 C2.4444,3.4572 0.5166,5.2212 0.5166,7.8042 C0.5166,10.3872 2.4444,12.1512 4.9266,12.1512 Z M11.2014,12.1512 C12.0078,12.1512 12.7134,11.8614 13.167,11.3448 L13.167,12 L14.49,12 L14.49,7.968 C14.49,6.33 13.3056,5.763 11.9574,5.763 C10.9872,5.763 10.1052,6.078 9.3996,6.7458 L9.9414,7.6656 C10.4706,7.149 11.0628,6.897 11.7432,6.897 C12.5874,6.897 13.167,7.3254 13.167,8.031 L13.167,8.9382 C12.726,8.4216 12.0204,8.157 11.2014,8.157 C10.206,8.157 9.0846,8.7366 9.0846,10.1352 C9.0846,11.4834 10.206,12.1512 11.2014,12.1512 Z M11.718,11.244 C10.9746,11.244 10.4202,10.8156 10.4202,10.1604 C10.4202,9.4926 10.9746,9.0642 11.718,9.0642 C12.2976,9.0642 12.8646,9.2784 13.167,9.6942 L13.167,10.614 C12.8646,11.0298 12.2976,11.244 11.718,11.244 Z M17.5266,12 L17.5266,7.8546 C17.7912,7.4262 18.5346,7.0482 19.089,7.0482 C19.2528,7.0482 19.3914,7.0608 19.5048,7.086 L19.5048,5.7756 C18.711,5.7756 17.9802,6.2292 17.5266,6.8088 L17.5266,5.9142 L16.2036,5.9142 L16.2036,12 L17.5266,12 Z M22.9068,12.1512 C23.688,12.1512 24.3936,11.7732 24.8598,11.1684 L24.8598,12 L26.1828,12 L26.1828,3.5958 L24.8598,3.5958 L24.8598,6.7584 C24.3684,6.1158 23.6628,5.763 22.9068,5.763 C21.3318,5.763 20.1978,6.9978 20.1978,8.9634 C20.1978,10.9668 21.3444,12.1512 22.9068,12.1512 Z M23.2848,10.9794 C22.239,10.9794 21.5712,10.1352 21.5712,8.9634 C21.5712,7.779 22.239,6.9348 23.2848,6.9348 C23.9148,6.9348 24.5574,7.3002 24.8598,7.7538 L24.8598,10.173 C24.5574,10.6266 23.9148,10.9794 23.2848,10.9794 Z" id="Card"></path>
                </g>
                <g id="Group-11" transform="translate(117.180000, 35.280000)" fill="#242C38" fill-rule="nonzero">
                    <g id="Group-9">
                        <path d="M3.8556,12 C6.4638,12 8.1648,10.1982 8.1648,7.8042 C8.1648,5.4228 6.4638,3.5958 3.8556,3.5958 L0.9828,3.5958 L0.9828,12 L3.8556,12 Z M3.8556,11.0676 L2.0286,11.0676 L2.0286,4.5282 L3.8556,4.5282 C5.9346,4.5282 7.0812,5.9898 7.0812,7.8042 C7.0812,9.606 5.8968,11.0676 3.8556,11.0676 Z M12.5118,12.1512 C13.5072,12.1512 14.3262,11.8236 14.931,11.2188 L14.4774,10.6014 C13.9986,11.0928 13.293,11.37 12.6,11.37 C11.2896,11.37 10.4832,10.4124 10.4076,9.2658 L15.3342,9.2658 L15.3342,9.0264 C15.3342,7.1994 14.2506,5.763 12.411,5.763 C10.6722,5.763 9.4122,7.1868 9.4122,8.9508 C9.4122,10.8534 10.71,12.1512 12.5118,12.1512 Z M14.4018,8.5728 L10.4076,8.5728 C10.458,7.6404 11.1006,6.5442 12.3984,6.5442 C13.7844,6.5442 14.3892,7.6656 14.4018,8.5728 Z M18.396,12.1512 C18.9504,12.1512 19.2906,11.9874 19.53,11.7606 L19.2528,11.055 C19.1268,11.1936 18.8748,11.307 18.6102,11.307 C18.1944,11.307 17.9928,10.9794 17.9928,10.5258 L17.9928,6.7458 L19.2276,6.7458 L19.2276,5.9142 L17.9928,5.9142 L17.9928,4.251 L17.0478,4.251 L17.0478,5.9142 L16.0398,5.9142 L16.0398,6.7458 L17.0478,6.7458 L17.0478,10.7274 C17.0478,11.6346 17.5014,12.1512 18.396,12.1512 Z M22.3524,12.1512 C23.1714,12.1512 23.8644,11.8614 24.3684,11.307 L24.3684,12 L25.3134,12 L25.3134,7.8168 C25.3134,6.3426 24.2424,5.763 22.9572,5.763 C21.9618,5.763 21.1806,6.0906 20.5254,6.771 L20.9664,7.4262 C21.5082,6.8466 22.1004,6.582 22.8312,6.582 C23.7132,6.582 24.3684,7.0482 24.3684,7.8672 L24.3684,8.9634 C23.877,8.3964 23.184,8.1318 22.3524,8.1318 C21.3192,8.1318 20.223,8.7744 20.223,10.1352 C20.223,11.4582 21.3192,12.1512 22.3524,12.1512 Z M22.6926,11.4708 C21.8106,11.4708 21.1932,10.9164 21.1932,10.1478 C21.1932,9.3666 21.8106,8.8122 22.6926,8.8122 C23.3604,8.8122 24.003,9.0642 24.3684,9.5682 L24.3684,10.7148 C24.003,11.2188 23.3604,11.4708 22.6926,11.4708 Z M27.6696,5.0448 C28.0224,5.0448 28.3122,4.7676 28.3122,4.4148 C28.3122,4.062 28.0224,3.7722 27.6696,3.7722 C27.3294,3.7722 27.0396,4.062 27.0396,4.4148 C27.0396,4.7676 27.3294,5.0448 27.6696,5.0448 Z M28.1484,12 L28.1484,5.9142 L27.2034,5.9142 L27.2034,12 L28.1484,12 Z M30.9834,12 L30.9834,3.5958 L30.0384,3.5958 L30.0384,12 L30.9834,12 Z M34.8012,12.1512 C36.3762,12.1512 37.1952,11.3322 37.1952,10.3116 C37.1952,7.9428 33.4278,8.8248 33.4278,7.4892 C33.4278,6.9474 33.9444,6.5316 34.776,6.5316 C35.5572,6.5316 36.225,6.8592 36.5904,7.3002 L37.0314,6.645 C36.54,6.1536 35.8092,5.763 34.776,5.763 C33.327,5.763 32.508,6.5694 32.508,7.5144 C32.508,9.7698 36.2754,8.8626 36.2754,10.3368 C36.2754,10.9416 35.7714,11.3826 34.839,11.3826 C34.0074,11.3826 33.2388,10.9794 32.8356,10.5132 L32.3442,11.1936 C32.9616,11.8488 33.8058,12.1512 34.8012,12.1512 Z" id="Details"></path>
                    </g>
                </g>
                <g id="Group-8" transform="translate(166.320000, 35.280000)" fill="#242C38" fill-rule="nonzero">
                    <path d="M4.9644,12.1512 C6.4512,12.1512 7.4592,11.4456 8.1648,10.488 L7.2702,9.9966 C6.7914,10.7148 5.922,11.2188 4.9644,11.2188 C3.1248,11.2188 1.7262,9.795 1.7262,7.8042 C1.7262,5.8008 3.1248,4.3896 4.9644,4.3896 C5.922,4.3896 6.7914,4.9062 7.2702,5.6118 L8.1522,5.1204 C7.4844,4.1754 6.4512,3.4572 4.9644,3.4572 C2.5452,3.4572 0.6426,5.2212 0.6426,7.8042 C0.6426,10.3872 2.5452,12.1512 4.9644,12.1512 Z M12.1212,12.1512 C13.9734,12.1512 15.1326,10.7148 15.1326,8.9508 C15.1326,7.1868 13.9734,5.763 12.1212,5.763 C10.269,5.763 9.1098,7.1868 9.1098,8.9508 C9.1098,10.7148 10.269,12.1512 12.1212,12.1512 Z M12.1212,11.307 C10.8234,11.307 10.0926,10.1982 10.0926,8.9508 C10.0926,7.716 10.8234,6.6072 12.1212,6.6072 C13.419,6.6072 14.1372,7.716 14.1372,8.9508 C14.1372,10.1982 13.419,11.307 12.1212,11.307 Z M17.6148,12 L17.6148,7.5522 C17.9424,7.0608 18.5976,6.6072 19.215,6.6072 C20.0088,6.6072 20.3364,7.0986 20.3364,7.8672 L20.3364,12 L21.2814,12 L21.2814,7.5396 C21.5964,7.0608 22.2642,6.6072 22.8942,6.6072 C23.6754,6.6072 24.0156,7.0986 24.0156,7.8672 L24.0156,12 L24.9606,12 L24.9606,7.6026 C24.9606,6.3804 24.3684,5.763 23.2596,5.763 C22.3776,5.763 21.5586,6.3426 21.2184,6.897 C21.042,6.267 20.5128,5.763 19.5804,5.763 C18.6858,5.763 17.8668,6.4056 17.6148,6.7962 L17.6148,5.9142 L16.6698,5.9142 L16.6698,12 L17.6148,12 Z M27.7956,12 L27.7956,7.5522 C28.1232,7.0608 28.7784,6.6072 29.3958,6.6072 C30.1896,6.6072 30.5172,7.0986 30.5172,7.8672 L30.5172,12 L31.4622,12 L31.4622,7.5396 C31.7772,7.0608 32.445,6.6072 33.075,6.6072 C33.8562,6.6072 34.1964,7.0986 34.1964,7.8672 L34.1964,12 L35.1414,12 L35.1414,7.6026 C35.1414,6.3804 34.5492,5.763 33.4404,5.763 C32.5584,5.763 31.7394,6.3426 31.3992,6.897 C31.2228,6.267 30.6936,5.763 29.7612,5.763 C28.8666,5.763 28.0476,6.4056 27.7956,6.7962 L27.7956,5.9142 L26.8506,5.9142 L26.8506,12 L27.7956,12 Z M39.7782,12.1512 C40.7736,12.1512 41.5926,11.8236 42.1974,11.2188 L41.7438,10.6014 C41.265,11.0928 40.5594,11.37 39.8664,11.37 C38.556,11.37 37.7496,10.4124 37.674,9.2658 L42.6006,9.2658 L42.6006,9.0264 C42.6006,7.1994 41.517,5.763 39.6774,5.763 C37.9386,5.763 36.6786,7.1868 36.6786,8.9508 C36.6786,10.8534 37.9764,12.1512 39.7782,12.1512 Z M41.6682,8.5728 L37.674,8.5728 C37.7244,7.6404 38.367,6.5442 39.6648,6.5442 C41.0508,6.5442 41.6556,7.6656 41.6682,8.5728 Z M45.0702,12 L45.0702,7.5522 C45.423,7.0608 46.1286,6.6072 46.872,6.6072 C47.691,6.6072 48.2328,6.9474 48.2328,8.0184 L48.2328,12 L49.1778,12 L49.1778,7.7286 C49.1778,6.4056 48.51,5.763 47.2374,5.763 C46.3302,5.763 45.4986,6.2922 45.0702,6.7962 L45.0702,5.9142 L44.1252,5.9142 L44.1252,12 L45.0702,12 Z M52.605,12.1512 C53.1594,12.1512 53.4996,11.9874 53.739,11.7606 L53.4618,11.055 C53.3358,11.1936 53.0838,11.307 52.8192,11.307 C52.4034,11.307 52.2018,10.9794 52.2018,10.5258 L52.2018,6.7458 L53.4366,6.7458 L53.4366,5.9142 L52.2018,5.9142 L52.2018,4.251 L51.2568,4.251 L51.2568,5.9142 L50.2488,5.9142 L50.2488,6.7458 L51.2568,6.7458 L51.2568,10.7274 C51.2568,11.6346 51.7104,12.1512 52.605,12.1512 Z M56.7,12.1512 C58.275,12.1512 59.094,11.3322 59.094,10.3116 C59.094,7.9428 55.3266,8.8248 55.3266,7.4892 C55.3266,6.9474 55.8432,6.5316 56.6748,6.5316 C57.456,6.5316 58.1238,6.8592 58.4892,7.3002 L58.9302,6.645 C58.4388,6.1536 57.708,5.763 56.6748,5.763 C55.2258,5.763 54.4068,6.5694 54.4068,7.5144 C54.4068,9.7698 58.1742,8.8626 58.1742,10.3368 C58.1742,10.9416 57.6702,11.3826 56.7378,11.3826 C55.9062,11.3826 55.1376,10.9794 54.7344,10.5132 L54.243,11.1936 C54.8604,11.8488 55.7046,12.1512 56.7,12.1512 Z" id="Comments"></path>
                </g>
                <g id="Group-12" transform="translate(29.988000, 260.190000)">
                    <path d="M5.54467425,27.6964013 L371.322674,27.6964013 C374.106189,27.6964013 376.362674,25.4399165 376.362674,22.6564013 L376.362674,0.858401338 L376.362674,0.858401338 L0.504674247,0.858401338 L0.504674247,22.6564013 C0.504674247,25.4399165 2.76115911,27.6964013 5.54467425,27.6964013 Z" id="Fill-129" fill="#F5F7FA"></path>
                    <path d="M2.73284142,18.2761904 L9.81050909,25.3453356 L10.9292161,25.3453356 L2.73284142,17.158978 L2.73284142,18.2761904 Z M2.73284142,21.1863561 L6.89645022,25.3453356 L8.01515723,25.3453356 L2.73284142,20.070077 L2.73284142,21.1863561 Z M2.73284142,24.0983884 L3.98145676,25.3453356 L5.10016377,25.3453356 L2.73284142,22.981176 L2.73284142,24.0983884 Z" id="Fill-130" fill="#8E9BB1"></path>
                </g>
                <path d="M31.492,27.5501636 L405.808679,27.5501636 C405.093929,25.8943279 403.463089,24.822 401.659576,24.822 L35.895562,24.822 C34.0289116,24.822 32.3231635,25.8787718 31.492,27.5501636 L31.492,27.5501636 L31.492,27.5501636 Z" id="Fill-105" fill="#00D5A0"></path>
            </g>
            <path d="M59.473,98 L59.473,94.4468 L62.7742,89.5958 L61.552,89.5958 L58.9438,93.5018 L56.3356,89.5958 L55.1134,89.5958 L58.4272,94.4468 L58.4272,98 L59.473,98 Z M64.891,98.1512 C66.7432,98.1512 67.9024,96.7148 67.9024,94.9508 C67.9024,93.1868 66.7432,91.763 64.891,91.763 C63.0388,91.763 61.8796,93.1868 61.8796,94.9508 C61.8796,96.7148 63.0388,98.1512 64.891,98.1512 Z M64.891,97.307 C63.5932,97.307 62.8624,96.1982 62.8624,94.9508 C62.8624,93.716 63.5932,92.6072 64.891,92.6072 C66.1888,92.6072 66.907,93.716 66.907,94.9508 C66.907,96.1982 66.1888,97.307 64.891,97.307 Z M71.38,98.1512 C72.2872,98.1512 73.081,97.6724 73.5472,97.1432 L73.5472,98 L74.4922,98 L74.4922,91.9142 L73.5472,91.9142 L73.5472,96.3872 C73.1944,96.8786 72.4888,97.307 71.7454,97.307 C70.9264,97.307 70.3846,96.992 70.3846,95.921 L70.3846,91.9142 L69.4396,91.9142 L69.4396,96.2108 C69.4396,97.5338 70.1074,98.1512 71.38,98.1512 Z M77.3272,98 L77.3272,93.6908 C77.6044,93.1994 78.3982,92.7206 78.9778,92.7206 C79.129,92.7206 79.2424,92.7332 79.3558,92.7584 L79.3558,91.7882 C78.5242,91.7882 77.8186,92.2544 77.3272,92.897 L77.3272,91.9142 L76.3822,91.9142 L76.3822,98 L77.3272,98 Z M85.3282,98.1512 C85.8826,98.1512 86.2228,97.9874 86.4622,97.7606 L86.185,97.055 C86.059,97.1936 85.807,97.307 85.5424,97.307 C85.1266,97.307 84.925,96.9794 84.925,96.5258 L84.925,92.7458 L86.1598,92.7458 L86.1598,91.9142 L84.925,91.9142 L84.925,90.251 L83.98,90.251 L83.98,91.9142 L82.972,91.9142 L82.972,92.7458 L83.98,92.7458 L83.98,96.7274 C83.98,97.6346 84.4336,98.1512 85.3282,98.1512 Z M90.2422,98.1512 C91.2376,98.1512 92.0566,97.8236 92.6614,97.2188 L92.2078,96.6014 C91.729,97.0928 91.0234,97.37 90.3304,97.37 C89.02,97.37 88.2136,96.4124 88.138,95.2658 L93.0646,95.2658 L93.0646,95.0264 C93.0646,93.1994 91.981,91.763 90.1414,91.763 C88.4026,91.763 87.1426,93.1868 87.1426,94.9508 C87.1426,96.8534 88.4404,98.1512 90.2422,98.1512 Z M92.1322,94.5728 L88.138,94.5728 C88.1884,93.6404 88.831,92.5442 90.1288,92.5442 C91.5148,92.5442 92.1196,93.6656 92.1322,94.5728 Z M96.3784,98.1512 C97.1974,98.1512 97.8904,97.8614 98.3944,97.307 L98.3944,98 L99.3394,98 L99.3394,93.8168 C99.3394,92.3426 98.2684,91.763 96.9832,91.763 C95.9878,91.763 95.2066,92.0906 94.5514,92.771 L94.9924,93.4262 C95.5342,92.8466 96.1264,92.582 96.8572,92.582 C97.7392,92.582 98.3944,93.0482 98.3944,93.8672 L98.3944,94.9634 C97.903,94.3964 97.21,94.1318 96.3784,94.1318 C95.3452,94.1318 94.249,94.7744 94.249,96.1352 C94.249,97.4582 95.3452,98.1512 96.3784,98.1512 Z M96.7186,97.4708 C95.8366,97.4708 95.2192,96.9164 95.2192,96.1478 C95.2192,95.3666 95.8366,94.8122 96.7186,94.8122 C97.3864,94.8122 98.029,95.0642 98.3944,95.5682 L98.3944,96.7148 C98.029,97.2188 97.3864,97.4708 96.7186,97.4708 Z M102.1744,98 L102.1744,93.5522 C102.502,93.0608 103.1572,92.6072 103.7746,92.6072 C104.5684,92.6072 104.896,93.0986 104.896,93.8672 L104.896,98 L105.841,98 L105.841,93.5396 C106.156,93.0608 106.8238,92.6072 107.4538,92.6072 C108.235,92.6072 108.5752,93.0986 108.5752,93.8672 L108.5752,98 L109.5202,98 L109.5202,93.6026 C109.5202,92.3804 108.928,91.763 107.8192,91.763 C106.9372,91.763 106.1182,92.3426 105.778,92.897 C105.6016,92.267 105.0724,91.763 104.14,91.763 C103.2454,91.763 102.4264,92.4056 102.1744,92.7962 L102.1744,91.9142 L101.2294,91.9142 L101.2294,98 L102.1744,98 Z M115.606,98 L115.606,93.6908 C115.8832,93.1994 116.677,92.7206 117.2566,92.7206 C117.4078,92.7206 117.5212,92.7332 117.6346,92.7584 L117.6346,91.7882 C116.803,91.7882 116.0974,92.2544 115.606,92.897 L115.606,91.9142 L114.661,91.9142 L114.661,98 L115.606,98 Z M121.5658,98.1512 C122.5612,98.1512 123.3802,97.8236 123.985,97.2188 L123.5314,96.6014 C123.0526,97.0928 122.347,97.37 121.654,97.37 C120.3436,97.37 119.5372,96.4124 119.4616,95.2658 L124.3882,95.2658 L124.3882,95.0264 C124.3882,93.1994 123.3046,91.763 121.465,91.763 C119.7262,91.763 118.4662,93.1868 118.4662,94.9508 C118.4662,96.8534 119.764,98.1512 121.5658,98.1512 Z M123.4558,94.5728 L119.4616,94.5728 C119.512,93.6404 120.1546,92.5442 121.4524,92.5442 C122.8384,92.5442 123.4432,93.6656 123.4558,94.5728 Z M131.2174,100.3184 L131.2174,91.9142 L130.2724,91.9142 L130.2724,92.8214 C129.844,92.204 129.088,91.763 128.2312,91.763 C126.631,91.763 125.5222,92.9726 125.5222,94.9508 C125.5222,96.9164 126.631,98.1512 128.2312,98.1512 C129.0502,98.1512 129.781,97.7606 130.2724,97.0802 L130.2724,100.3184 L131.2174,100.3184 Z M128.458,97.307 C127.2358,97.307 126.5176,96.299 126.5176,94.9508 C126.5176,93.6026 127.2358,92.6072 128.458,92.6072 C129.214,92.6072 129.9574,93.0482 130.2724,93.5774 L130.2724,96.3242 C129.9574,96.8534 129.214,97.307 128.458,97.307 Z M135.0604,98.1512 C135.9676,98.1512 136.7614,97.6724 137.2276,97.1432 L137.2276,98 L138.1726,98 L138.1726,91.9142 L137.2276,91.9142 L137.2276,96.3872 C136.8748,96.8786 136.1692,97.307 135.4258,97.307 C134.6068,97.307 134.065,96.992 134.065,95.921 L134.065,91.9142 L133.12,91.9142 L133.12,96.2108 C133.12,97.5338 133.7878,98.1512 135.0604,98.1512 Z M142.8094,98.1512 C143.8048,98.1512 144.6238,97.8236 145.2286,97.2188 L144.775,96.6014 C144.2962,97.0928 143.5906,97.37 142.8976,97.37 C141.5872,97.37 140.7808,96.4124 140.7052,95.2658 L145.6318,95.2658 L145.6318,95.0264 C145.6318,93.1994 144.5482,91.763 142.7086,91.763 C140.9698,91.763 139.7098,93.1868 139.7098,94.9508 C139.7098,96.8534 141.0076,98.1512 142.8094,98.1512 Z M144.6994,94.5728 L140.7052,94.5728 C140.7556,93.6404 141.3982,92.5442 142.696,92.5442 C144.082,92.5442 144.6868,93.6656 144.6994,94.5728 Z M149.0842,98.1512 C150.6592,98.1512 151.4782,97.3322 151.4782,96.3116 C151.4782,93.9428 147.7108,94.8248 147.7108,93.4892 C147.7108,92.9474 148.2274,92.5316 149.059,92.5316 C149.8402,92.5316 150.508,92.8592 150.8734,93.3002 L151.3144,92.645 C150.823,92.1536 150.0922,91.763 149.059,91.763 C147.61,91.763 146.791,92.5694 146.791,93.5144 C146.791,95.7698 150.5584,94.8626 150.5584,96.3368 C150.5584,96.9416 150.0544,97.3826 149.122,97.3826 C148.2904,97.3826 147.5218,96.9794 147.1186,96.5132 L146.6272,97.1936 C147.2446,97.8488 148.0888,98.1512 149.0842,98.1512 Z M154.5526,98.1512 C155.107,98.1512 155.4472,97.9874 155.6866,97.7606 L155.4094,97.055 C155.2834,97.1936 155.0314,97.307 154.7668,97.307 C154.351,97.307 154.1494,96.9794 154.1494,96.5258 L154.1494,92.7458 L155.3842,92.7458 L155.3842,91.9142 L154.1494,91.9142 L154.1494,90.251 L153.2044,90.251 L153.2044,91.9142 L152.1964,91.9142 L152.1964,92.7458 L153.2044,92.7458 L153.2044,96.7274 C153.2044,97.6346 153.658,98.1512 154.5526,98.1512 Z M159.4666,98.1512 C160.462,98.1512 161.281,97.8236 161.8858,97.2188 L161.4322,96.6014 C160.9534,97.0928 160.2478,97.37 159.5548,97.37 C158.2444,97.37 157.438,96.4124 157.3624,95.2658 L162.289,95.2658 L162.289,95.0264 C162.289,93.1994 161.2054,91.763 159.3658,91.763 C157.627,91.763 156.367,93.1868 156.367,94.9508 C156.367,96.8534 157.6648,98.1512 159.4666,98.1512 Z M161.3566,94.5728 L157.3624,94.5728 C157.4128,93.6404 158.0554,92.5442 159.3532,92.5442 C160.7392,92.5442 161.344,93.6656 161.3566,94.5728 Z M166.1698,98.1512 C167.0266,98.1512 167.77,97.7102 168.2236,97.0928 L168.2236,98 L169.1686,98 L169.1686,89.5958 L168.2236,89.5958 L168.2236,92.834 C167.7322,92.1662 166.9888,91.763 166.1698,91.763 C164.5696,91.763 163.4608,93.023 163.4608,94.9634 C163.4608,96.9416 164.5822,98.1512 166.1698,98.1512 Z M166.3966,97.307 C165.1744,97.307 164.4436,96.3116 164.4436,94.9634 C164.4436,93.6152 165.1744,92.6072 166.3966,92.6072 C167.1526,92.6072 167.8834,93.0608 168.2236,93.59 L168.2236,96.3494 C167.8834,96.8786 167.1526,97.307 166.3966,97.307 Z M175.8466,98.1512 C176.401,98.1512 176.7412,97.9874 176.9806,97.7606 L176.7034,97.055 C176.5774,97.1936 176.3254,97.307 176.0608,97.307 C175.645,97.307 175.4434,96.9794 175.4434,96.5258 L175.4434,92.7458 L176.6782,92.7458 L176.6782,91.9142 L175.4434,91.9142 L175.4434,90.251 L174.4984,90.251 L174.4984,91.9142 L173.4904,91.9142 L173.4904,92.7458 L174.4984,92.7458 L174.4984,96.7274 C174.4984,97.6346 174.952,98.1512 175.8466,98.1512 Z M178.9588,98 L178.9588,93.5522 C179.3242,93.0608 180.0298,92.6072 180.7606,92.6072 C181.5796,92.6072 182.134,92.9222 182.134,93.9932 L182.134,98 L183.079,98 L183.079,93.7034 C183.079,92.3804 182.4112,91.763 181.1386,91.763 C180.2188,91.763 179.3872,92.2922 178.9588,92.7962 L178.9588,89.5958 L178.0138,89.5958 L178.0138,98 L178.9588,98 Z M186.7582,98.1512 C187.5772,98.1512 188.2702,97.8614 188.7742,97.307 L188.7742,98 L189.7192,98 L189.7192,93.8168 C189.7192,92.3426 188.6482,91.763 187.363,91.763 C186.3676,91.763 185.5864,92.0906 184.9312,92.771 L185.3722,93.4262 C185.914,92.8466 186.5062,92.582 187.237,92.582 C188.119,92.582 188.7742,93.0482 188.7742,93.8672 L188.7742,94.9634 C188.2828,94.3964 187.5898,94.1318 186.7582,94.1318 C185.725,94.1318 184.6288,94.7744 184.6288,96.1352 C184.6288,97.4582 185.725,98.1512 186.7582,98.1512 Z M187.0984,97.4708 C186.2164,97.4708 185.599,96.9164 185.599,96.1478 C185.599,95.3666 186.2164,94.8122 187.0984,94.8122 C187.7662,94.8122 188.4088,95.0642 188.7742,95.5682 L188.7742,96.7148 C188.4088,97.2188 187.7662,97.4708 187.0984,97.4708 Z M193.1464,98.1512 C193.7008,98.1512 194.041,97.9874 194.2804,97.7606 L194.0032,97.055 C193.8772,97.1936 193.6252,97.307 193.3606,97.307 C192.9448,97.307 192.7432,96.9794 192.7432,96.5258 L192.7432,92.7458 L193.978,92.7458 L193.978,91.9142 L192.7432,91.9142 L192.7432,90.251 L191.7982,90.251 L191.7982,91.9142 L190.7902,91.9142 L190.7902,92.7458 L191.7982,92.7458 L191.7982,96.7274 C191.7982,97.6346 192.2518,98.1512 193.1464,98.1512 Z M198.9172,100.4696 C199.7236,100.457 200.341,100.1168 200.7064,99.2348 L203.7556,91.9142 L202.7224,91.9142 L200.7064,96.9038 L198.6778,91.9142 L197.6572,91.9142 L200.2024,98.063 L199.7992,98.9828 C199.585,99.4868 199.3078,99.6254 198.892,99.6254 C198.7408,99.6254 198.514,99.5876 198.3754,99.5246 L198.2242,100.3814 C198.4006,100.4318 198.7156,100.4696 198.9172,100.4696 Z M207.397,98.1512 C209.2492,98.1512 210.4084,96.7148 210.4084,94.9508 C210.4084,93.1868 209.2492,91.763 207.397,91.763 C205.5448,91.763 204.3856,93.1868 204.3856,94.9508 C204.3856,96.7148 205.5448,98.1512 207.397,98.1512 Z M207.397,97.307 C206.0992,97.307 205.3684,96.1982 205.3684,94.9508 C205.3684,93.716 206.0992,92.6072 207.397,92.6072 C208.6948,92.6072 209.413,93.716 209.413,94.9508 C209.413,96.1982 208.6948,97.307 207.397,97.307 Z M213.886,98.1512 C214.7932,98.1512 215.587,97.6724 216.0532,97.1432 L216.0532,98 L216.9982,98 L216.9982,91.9142 L216.0532,91.9142 L216.0532,96.3872 C215.7004,96.8786 214.9948,97.307 214.2514,97.307 C213.4324,97.307 212.8906,96.992 212.8906,95.921 L212.8906,91.9142 L211.9456,91.9142 L211.9456,96.2108 C211.9456,97.5338 212.6134,98.1512 213.886,98.1512 Z M223.084,98 L223.084,93.6908 C223.3612,93.1994 224.155,92.7206 224.7346,92.7206 C224.8858,92.7206 224.9992,92.7332 225.1126,92.7584 L225.1126,91.7882 C224.281,91.7882 223.5754,92.2544 223.084,92.897 L223.084,91.9142 L222.139,91.9142 L222.139,98 L223.084,98 Z M229.0438,98.1512 C230.0392,98.1512 230.8582,97.8236 231.463,97.2188 L231.0094,96.6014 C230.5306,97.0928 229.825,97.37 229.132,97.37 C227.8216,97.37 227.0152,96.4124 226.9396,95.2658 L231.8662,95.2658 L231.8662,95.0264 C231.8662,93.1994 230.7826,91.763 228.943,91.763 C227.2042,91.763 225.9442,93.1868 225.9442,94.9508 C225.9442,96.8534 227.242,98.1512 229.0438,98.1512 Z M230.9338,94.5728 L226.9396,94.5728 C226.99,93.6404 227.6326,92.5442 228.9304,92.5442 C230.3164,92.5442 230.9212,93.6656 230.9338,94.5728 Z M235.18,98.1512 C235.999,98.1512 236.692,97.8614 237.196,97.307 L237.196,98 L238.141,98 L238.141,93.8168 C238.141,92.3426 237.07,91.763 235.7848,91.763 C234.7894,91.763 234.0082,92.0906 233.353,92.771 L233.794,93.4262 C234.3358,92.8466 234.928,92.582 235.6588,92.582 C236.5408,92.582 237.196,93.0482 237.196,93.8672 L237.196,94.9634 C236.7046,94.3964 236.0116,94.1318 235.18,94.1318 C234.1468,94.1318 233.0506,94.7744 233.0506,96.1352 C233.0506,97.4582 234.1468,98.1512 235.18,98.1512 Z M235.5202,97.4708 C234.6382,97.4708 234.0208,96.9164 234.0208,96.1478 C234.0208,95.3666 234.6382,94.8122 235.5202,94.8122 C236.188,94.8122 236.8306,95.0642 237.196,95.5682 L237.196,96.7148 C236.8306,97.2188 236.188,97.4708 235.5202,97.4708 Z M242.3872,98.1512 C243.244,98.1512 243.9874,97.7102 244.441,97.0928 L244.441,98 L245.386,98 L245.386,89.5958 L244.441,89.5958 L244.441,92.834 C243.9496,92.1662 243.2062,91.763 242.3872,91.763 C240.787,91.763 239.6782,93.023 239.6782,94.9634 C239.6782,96.9416 240.7996,98.1512 242.3872,98.1512 Z M242.614,97.307 C241.3918,97.307 240.661,96.3116 240.661,94.9634 C240.661,93.6152 241.3918,92.6072 242.614,92.6072 C243.37,92.6072 244.1008,93.0608 244.441,93.59 L244.441,96.3494 C244.1008,96.8786 243.37,97.307 242.614,97.307 Z M252.064,98.1512 C252.6184,98.1512 252.9586,97.9874 253.198,97.7606 L252.9208,97.055 C252.7948,97.1936 252.5428,97.307 252.2782,97.307 C251.8624,97.307 251.6608,96.9794 251.6608,96.5258 L251.6608,92.7458 L252.8956,92.7458 L252.8956,91.9142 L251.6608,91.9142 L251.6608,90.251 L250.7158,90.251 L250.7158,91.9142 L249.7078,91.9142 L249.7078,92.7458 L250.7158,92.7458 L250.7158,96.7274 C250.7158,97.6346 251.1694,98.1512 252.064,98.1512 Z M255.1762,98 L255.1762,93.5522 C255.5416,93.0608 256.2472,92.6072 256.978,92.6072 C257.797,92.6072 258.3514,92.9222 258.3514,93.9932 L258.3514,98 L259.2964,98 L259.2964,93.7034 C259.2964,92.3804 258.6286,91.763 257.356,91.763 C256.4362,91.763 255.6046,92.2922 255.1762,92.7962 L255.1762,89.5958 L254.2312,89.5958 L254.2312,98 L255.1762,98 Z M261.6526,91.0448 C262.0054,91.0448 262.2952,90.7676 262.2952,90.4148 C262.2952,90.062 262.0054,89.7722 261.6526,89.7722 C261.3124,89.7722 261.0226,90.062 261.0226,90.4148 C261.0226,90.7676 261.3124,91.0448 261.6526,91.0448 Z M262.1314,98 L262.1314,91.9142 L261.1864,91.9142 L261.1864,98 L262.1314,98 Z M265.9492,98.1512 C267.5242,98.1512 268.3432,97.3322 268.3432,96.3116 C268.3432,93.9428 264.5758,94.8248 264.5758,93.4892 C264.5758,92.9474 265.0924,92.5316 265.924,92.5316 C266.7052,92.5316 267.373,92.8592 267.7384,93.3002 L268.1794,92.645 C267.688,92.1536 266.9572,91.763 265.924,91.763 C264.475,91.763 263.656,92.5694 263.656,93.5144 C263.656,95.7698 267.4234,94.8626 267.4234,96.3368 C267.4234,96.9416 266.9194,97.3826 265.987,97.3826 C265.1554,97.3826 264.3868,96.9794 263.9836,96.5132 L263.4922,97.1936 C264.1096,97.8488 264.9538,98.1512 265.9492,98.1512 Z M277.1506,98.1512 C278.6374,98.1512 279.6454,97.4456 280.351,96.488 L279.4564,95.9966 C278.9776,96.7148 278.1082,97.2188 277.1506,97.2188 C275.311,97.2188 273.9124,95.795 273.9124,93.8042 C273.9124,91.8008 275.311,90.3896 277.1506,90.3896 C278.1082,90.3896 278.9776,90.9062 279.4564,91.6118 L280.3384,91.1204 C279.6706,90.1754 278.6374,89.4572 277.1506,89.4572 C274.7314,89.4572 272.8288,91.2212 272.8288,93.8042 C272.8288,96.3872 274.7314,98.1512 277.1506,98.1512 Z M283.438,98.1512 C284.257,98.1512 284.95,97.8614 285.454,97.307 L285.454,98 L286.399,98 L286.399,93.8168 C286.399,92.3426 285.328,91.763 284.0428,91.763 C283.0474,91.763 282.2662,92.0906 281.611,92.771 L282.052,93.4262 C282.5938,92.8466 283.186,92.582 283.9168,92.582 C284.7988,92.582 285.454,93.0482 285.454,93.8672 L285.454,94.9634 C284.9626,94.3964 284.2696,94.1318 283.438,94.1318 C282.4048,94.1318 281.3086,94.7744 281.3086,96.1352 C281.3086,97.4582 282.4048,98.1512 283.438,98.1512 Z M283.7782,97.4708 C282.8962,97.4708 282.2788,96.9164 282.2788,96.1478 C282.2788,95.3666 282.8962,94.8122 283.7782,94.8122 C284.446,94.8122 285.0886,95.0642 285.454,95.5682 L285.454,96.7148 C285.0886,97.2188 284.446,97.4708 283.7782,97.4708 Z M289.234,98 L289.234,93.6908 C289.5112,93.1994 290.305,92.7206 290.8846,92.7206 C291.0358,92.7206 291.1492,92.7332 291.2626,92.7584 L291.2626,91.7882 C290.431,91.7882 289.7254,92.2544 289.234,92.897 L289.234,91.9142 L288.289,91.9142 L288.289,98 L289.234,98 Z M294.8032,98.1512 C295.66,98.1512 296.4034,97.7102 296.857,97.0928 L296.857,98 L297.802,98 L297.802,89.5958 L296.857,89.5958 L296.857,92.834 C296.3656,92.1662 295.6222,91.763 294.8032,91.763 C293.203,91.763 292.0942,93.023 292.0942,94.9634 C292.0942,96.9416 293.2156,98.1512 294.8032,98.1512 Z M295.03,97.307 C293.8078,97.307 293.077,96.3116 293.077,94.9634 C293.077,93.6152 293.8078,92.6072 295.03,92.6072 C295.786,92.6072 296.5168,93.0608 296.857,93.59 L296.857,96.3494 C296.5168,96.8786 295.786,97.307 295.03,97.307 Z" id="YourteamrequestedthatyoureadthisCard" fill="#090B0E" fill-rule="nonzero"></path>
            <path d="M333.3688,98 L333.3688,89.5958 L331.8946,89.5958 L331.8946,98 L333.3688,98 Z M339.8704,98 L339.8704,94.8626 L341.332,94.8626 L343.1968,98 L344.8978,98 L342.844,94.6988 C343.852,94.535 344.8348,93.7286 344.8348,92.2292 C344.8348,90.6794 343.7512,89.5958 342.088,89.5958 L338.3962,89.5958 L338.3962,98 L339.8704,98 Z M341.8864,93.5648 L339.8704,93.5648 L339.8704,90.8936 L341.8864,90.8936 C342.718,90.8936 343.3228,91.4228 343.3228,92.2292 C343.3228,93.0356 342.718,93.5648 341.8864,93.5648 Z M348.703,98.1512 C349.6732,98.1512 350.5678,97.8488 351.1726,97.2692 L350.5678,96.3998 C350.1394,96.8282 349.4338,97.0676 348.8416,97.0676 C347.695,97.0676 347.002,96.3116 346.9012,95.3918 L351.601,95.3918 L351.601,95.0768 C351.601,93.1616 350.4292,91.763 348.6022,91.763 C346.8004,91.763 345.5152,93.1868 345.5152,94.9508 C345.5152,96.8786 346.876,98.1512 348.703,98.1512 Z M350.3158,94.4594 L346.8886,94.4594 C346.9516,93.716 347.4682,92.8466 348.6022,92.8466 C349.7992,92.8466 350.2906,93.7412 350.3158,94.4594 Z M354.6628,98.1512 C355.4692,98.1512 356.1748,97.8614 356.6284,97.3448 L356.6284,98 L357.9514,98 L357.9514,93.968 C357.9514,92.33 356.767,91.763 355.4188,91.763 C354.4486,91.763 353.5666,92.078 352.861,92.7458 L353.4028,93.6656 C353.932,93.149 354.5242,92.897 355.2046,92.897 C356.0488,92.897 356.6284,93.3254 356.6284,94.031 L356.6284,94.9382 C356.1874,94.4216 355.4818,94.157 354.6628,94.157 C353.6674,94.157 352.546,94.7366 352.546,96.1352 C352.546,97.4834 353.6674,98.1512 354.6628,98.1512 Z M355.1794,97.244 C354.436,97.244 353.8816,96.8156 353.8816,96.1604 C353.8816,95.4926 354.436,95.0642 355.1794,95.0642 C355.759,95.0642 356.326,95.2784 356.6284,95.6942 L356.6284,96.614 C356.326,97.0298 355.759,97.244 355.1794,97.244 Z M361.996,98.1512 C362.7772,98.1512 363.4828,97.7732 363.949,97.1684 L363.949,98 L365.272,98 L365.272,89.5958 L363.949,89.5958 L363.949,92.7584 C363.4576,92.1158 362.752,91.763 361.996,91.763 C360.421,91.763 359.287,92.9978 359.287,94.9634 C359.287,96.9668 360.4336,98.1512 361.996,98.1512 Z M362.374,96.9794 C361.3282,96.9794 360.6604,96.1352 360.6604,94.9634 C360.6604,93.779 361.3282,92.9348 362.374,92.9348 C363.004,92.9348 363.6466,93.3002 363.949,93.7538 L363.949,96.173 C363.6466,96.6266 363.004,96.9794 362.374,96.9794 Z M371.7358,98 L371.7358,89.5958 L370.2616,89.5958 L370.2616,98 L371.7358,98 Z M375.3142,98.1512 C375.9316,98.1512 376.3222,97.9874 376.5616,97.7606 L376.2466,96.7652 C376.1458,96.8786 375.9064,96.9794 375.6544,96.9794 C375.2764,96.9794 375.0748,96.677 375.0748,96.2612 L375.0748,93.0734 L376.3096,93.0734 L376.3096,91.9142 L375.0748,91.9142 L375.0748,90.251 L373.7518,90.251 L373.7518,91.9142 L372.7438,91.9142 L372.7438,93.0734 L373.7518,93.0734 L373.7518,96.5888 C373.7518,97.5968 374.2936,98.1512 375.3142,98.1512 Z" id="IReadIt" fill="#090B0E" fill-rule="nonzero"></path>
        </g>
    </g>
</svg>