<svg width="378" height="193" viewBox="0 0 378 193" fill="none" xmlns="http://www.w3.org/2000/svg">
<path d="M350.815 0.982223L351.472 2.11836L351.049 3.64914L351.223 5.05132L351.654 6.47935L352.213 7.92035L351.925 9.40178L352.555 10.787L352.459 12.2878L352.236 13.7757L352.602 15.1973L352.642 16.6488L352.418 18.1367L352.457 19.5883L352.888 21.0163L352.664 22.5042L352.511 23.9363L352.615 25.3943L352.911 26.8717L352.687 28.3596L352.989 29.7747L353.022 31.2885L352.613 32.6948L352.524 34.1333L352.756 35.6043L352.34 37.0728L352.764 38.5631L352.29 39.9629L352.451 41.4896L352.042 42.8958L352.145 44.3538L351.793 45.8288L351.512 47.248L351.167 48.6607L351.072 50.1615L351.175 51.6195L350.637 53.0128L350.164 54.4126L350.069 55.9134L349.659 57.3197L349.314 58.7324L349.603 60.272L349.194 61.6783L348.214 62.964L348.061 64.3962L348.094 65.9099L347.87 67.3978L346.897 68.6213L347.18 70.2233L346.078 71.4338L346.175 72.9541L345.509 74.3344L345.35 75.8288L344.69 77.1469L343.846 78.3834L343.622 79.8713L342.905 81.1207L342.995 82.7032L341.92 85.4898L340.826 86.6381L340.416 88.0444L340.257 89.5387L339.412 90.7752L339.002 92.1814L338.029 93.4049L337.184 94.6414L336.775 96.0476L336.058 97.297L335.399 98.6151L335.233 100.172L334.267 101.333L333.915 102.808L332.948 103.969L331.803 104.987L330.484 107.623L329.947 109.016L329.288 110.334L328.75 111.727L327.605 112.745L326.945 114.063L325.921 115.155L325.441 116.617L324.238 117.566L323.393 118.802L322.613 120.045L321.775 121.219L321.294 122.682L320.45 123.918L319.247 124.867L318.344 126.034L317.563 127.277L316.84 128.589L315.759 129.613L314.792 130.774L313.833 131.873L312.988 133.109L311.849 134.064L310.768 135.088L309.923 136.324L308.605 137.136L307.523 138.159L306.743 139.402L305.955 140.707L304.816 141.662L303.441 142.405L302.481 143.504L301.221 144.384L300.383 145.558L299.589 146.925L297.984 147.393L297.132 148.691L296.115 149.722L295.033 150.745L293.658 151.488L292.354 152.174L291.33 153.267L290.248 154.291L289.339 155.521L287.741 155.926L286.832 157.156L285.808 158.248L284.209 158.653L282.962 159.409L281.881 160.433L279.373 162.068L278.235 163.023L277.038 163.909L275.899 164.864L274.531 165.544L273.284 166.3L270.776 167.935L269.363 168.422L268.045 169.233L266.683 169.85L265.436 170.606L264.399 171.823L262.821 172.041L261.516 172.728L260.205 173.477L259.009 174.363L257.532 174.843L256.335 175.73L254.858 176.21L253.605 177.028L252.141 177.383L250.728 177.87L249.525 178.819L247.896 178.906L246.54 179.462L245.178 180.08L243.854 180.953L242.397 181.247L240.889 181.409L238.165 182.645L236.847 183.456L235.275 183.612L233.964 184.361L232.558 184.785L230.891 184.617L229.427 184.973L228.167 185.853L226.659 186.016L225.202 186.309L223.725 186.79L222.275 187.021L220.76 187.246L219.303 187.539L216.376 188.251L214.926 188.482L213.53 189.411L212.029 189.512L210.484 189.419L209.033 189.65L207.532 189.75L206.113 190.3L204.643 190.718L203.104 190.562L201.62 191.105L200.17 191.336L198.587 190.988L197.086 191.088L195.605 191.002L194.159 191.8L192.671 191.776L191.145 191.496L189.637 191.659L188.143 191.697L186.591 191.666L185.147 191.835L183.646 191.935L182.125 192.222L180.58 192.129L179.085 192.167L177.6 191.514L176.123 191.995L174.564 192.026L173.109 191.691L171.628 191.604L170.096 191.387L168.635 191.113L167.14 191.151L165.562 191.37L164.107 191.034L162.613 191.072L161.191 190.425L159.633 190.457L158.138 190.495L156.71 189.91L155.178 189.693L153.67 189.855L152.249 189.209L150.781 188.998L149.236 188.905L147.755 188.818L146.32 188.296L144.905 187.587L143.32 187.867L141.969 187.165L140.521 186.767L138.949 186.923L137.521 186.338L136.164 185.698L134.743 185.051L133.268 184.902L131.723 184.809L130.295 184.225L128.84 183.889L127.49 183.187L126.216 182.366L124.587 182.453L123.23 181.813L121.957 180.992L120.327 181.079L118.99 180.252L117.529 179.979L116.269 179.034L114.827 178.574L113.638 177.573L112.268 177.057L110.736 176.839L109.372 176.261L107.937 175.739L106.58 175.098L105.313 174.215L103.865 173.817L102.824 172.643L101.319 172.176L100.194 171.181L98.7458 170.784L97.3112 170.261L96.2769 169.024L94.9196 168.384L93.3234 168.16L92.2051 167.103L90.996 166.289L89.4905 165.822L88.3721 164.765L87.3179 163.715L85.8832 163.192L84.9064 162.024L83.5624 161.259L82.2826 160.501L80.9253 159.86L79.9418 158.754L78.8167 157.759L77.1698 157.404L76.2637 156.18L74.8423 155.533L73.8522 154.489L72.5856 153.606L71.5954 152.562L70.2448 151.86L69.1198 150.865L68.2845 149.585L67.3784 148.361L65.8862 147.77L65.0509 146.49L63.7711 145.731L62.9357 144.451L61.4502 143.798L60.7498 142.468L59.7729 141.3L58.2808 140.709L57.7285 139.206L56.6034 138.211L55.6907 137.049L54.5657 136.054L53.1509 135.345L52.3023 134.19L51.6793 132.742L50.2645 132.033L49.7123 130.53L48.4457 129.647L47.6744 128.373L46.4787 127.434L44.9362 124.887L43.7405 123.948L43.2456 122.514L42.1913 121.464L41.4909 120.134L40.5781 118.972L39.8069 117.699L39.0998 116.431L37.8399 115.486L37.5507 113.947L36.2267 112.995L35.3847 111.777L35.0888 110.3L34.0412 109.187L33.6813 107.703L32.6977 106.597L32.068 105.212L31.1553 104.05L30.3133 102.832L30.2231 101.249L29.1755 100.137L28.6806 98.7022L27.7679 97.5403L26.9967 96.2667L26.765 94.7958L26.1352 93.4106L25.7687 91.989L24.5862 90.9256L24.0847 89.5534L23.3134 88.2798L23.2232 86.6973L22.5802 85.4366L21.6808 84.1501L21.3782 82.735L20.6451 79.8918L19.8097 78.6117L19.4431 77.1902L19.4745 75.6829L18.774 74.3535L17.9387 73.0734L17.508 71.6453L17.6742 70.0887L17.1727 68.7164L16.8702 67.3013L15.9067 66.0083L16.0729 64.4517L15.6355 63.0859L15.2048 61.6579L14.9023 60.2427L14.3367 58.864L14.5671 57.3138L13.7317 56.0338L13.5 54.5629L13.5822 53.1866L15.09 53.024L16.4587 52.3439L17.9598 52.2435L19.4301 51.8254L20.918 51.8497L22.4324 51.6248L23.8895 51.3312L25.384 51.2932L26.8034 50.7441L28.393 51.0303L29.8125 50.4812L31.3136 50.3808L32.7573 50.2118L34.2409 49.6692L35.6846 49.5001L37.2741 49.7863L38.7002 49.1749L40.1506 48.9436L41.5767 48.3323L43.1463 48.8053L44.5415 47.8761L46.0802 48.0313L47.5239 47.8623L48.9809 47.5687L50.4954 47.3439L52.0407 47.4368L53.416 46.6944L54.9547 46.8496L56.4626 46.6871L57.9062 46.518L59.3015 45.5888L60.796 45.5508L62.3038 45.3882L63.7167 44.9014L65.2112 44.8633L66.7565 44.9563L68.2268 44.5382L69.7347 44.3756L71.2159 44.4621L72.642 43.8507L74.0615 43.3016L75.556 43.2635L77.0572 43.1632L78.6158 43.1316L80.022 42.7071L81.4415 42.1579L82.9801 42.3132L84.4063 41.7018L85.9649 41.6702L87.4219 41.3766L88.8723 41.1453L90.3801 40.9827L91.8438 40.6269L93.3007 40.3333L94.7511 40.102L96.2655 39.8771L97.8418 40.2879L99.3054 39.9321L100.718 39.4452L102.189 39.0271L103.771 39.3756L105.153 38.5709L106.641 38.5951L108.105 38.2393L109.613 38.0767L111.158 38.1697L112.54 37.365L114.021 37.4515L115.529 37.2889L117.044 37.0641L118.494 36.8328L119.951 36.5392L121.496 36.6322L122.891 35.703L124.373 35.7895L125.911 35.9447L127.375 35.5888L128.896 35.3017L130.391 35.2637L131.773 34.459L133.355 34.8075L134.812 34.5139L136.314 34.4136L137.689 33.6712L139.183 33.6332L140.61 33.0218L142.142 33.2393L143.574 32.5657L145.12 32.6586L146.608 32.6828L148.115 32.5202L149.542 31.9089L150.992 31.6776L152.462 31.2595L154.001 31.4147L155.495 31.3766L156.884 30.5097L158.454 30.9827L159.917 30.6269L161.394 30.1465L162.895 30.0462L164.366 29.6281L165.778 29.1412L167.361 29.4897L168.774 29.0029L170.238 28.647L171.77 28.8645L174.71 28.0283L176.205 27.9902L177.706 27.8899L179.119 27.4031L180.596 26.9227L182.097 26.8224L183.561 26.4666L185.099 26.6218L186.563 26.2659L188.044 26.3524L189.559 26.1276L190.934 25.3852L192.404 24.9671L193.987 25.3156L195.363 24.5732L196.864 24.4729L198.327 24.117L199.822 24.079L201.292 23.6608L202.868 24.0716L204.319 23.8403L205.752 23.1666L207.209 22.8731L208.679 22.455L210.129 22.2237L211.688 22.1921L213.169 22.2786L214.639 21.8604L216.147 21.6978L217.611 21.342L219.054 21.173L220.481 20.5616L222.033 20.5923L223.52 20.6165L224.96 19.8806L226.543 20.229L228.044 20.1287L229.457 19.6419L230.907 19.4106L232.364 19.117L233.885 18.8299L235.336 18.5986L236.888 18.6293L238.27 17.8246L239.757 17.8488L241.228 17.4307L242.766 17.586L244.268 17.4856L245.68 16.9988L247.195 16.7739L248.639 16.6049L250.115 16.1245L251.572 15.8309L253.111 15.9862L254.544 15.3125L256.114 15.7855L257.526 15.2987L258.997 14.8806L260.542 14.9735L261.961 14.4244L263.449 14.4486L264.97 14.1615L266.332 13.5437L267.915 13.8922L269.355 13.1563L270.818 12.8004L272.269 12.5691L273.858 12.8553L275.353 12.8173L276.81 12.5237L278.28 12.1056L279.649 11.4255L281.201 11.4562L282.664 11.1003L284.135 10.6822L285.667 10.8997L287.155 10.9239L288.587 10.2502L290.126 10.4055L291.559 9.73182L293.084 10.0116L294.599 9.78671L296.005 9.36215L297.488 8.8195L298.959 8.40139L300.477 8.74342L301.954 8.26304L303.361 7.83844L304.926 7.74461L306.458 7.96208L307.915 7.6685L309.297 6.86386L310.829 7.08134L312.255 6.46998L313.8 6.56292L315.359 6.53132L318.286 5.81967L319.706 5.27054L321.231 5.55027L322.613 4.74563L324.121 4.58305L325.615 4.54503L327.092 4.06465L328.682 4.35087L330.057 3.60847L331.64 3.95697L333.141 3.85666L334.574 3.183L335.98 2.75844L337.444 2.4026L338.996 2.43327L340.535 2.58848L341.947 2.10165L343.449 2.00133L344.97 1.7142L346.464 1.67616L347.934 1.25806L349.411 0.777679L350.815 0.982223Z" fill="#D9FFEF"/>
<g clip-path="url(#clip0_935_5243)">
<path d="M7.06566 94.9084C10.6918 94.9084 13.6313 91.9689 13.6313 88.3428C13.6313 84.7166 10.6918 81.7771 7.06566 81.7771C3.43954 81.7771 0.5 84.7166 0.5 88.3428C0.5 91.9689 3.43954 94.9084 7.06566 94.9084Z" fill="#D9FFEF"/>
</g>
<g clip-path="url(#clip1_935_5243)">
<path d="M27.5303 133.838C29.2039 133.838 30.5606 132.481 30.5606 130.807C30.5606 129.134 29.2039 127.777 27.5303 127.777C25.8567 127.777 24.5 129.134 24.5 130.807C24.5 132.481 25.8567 133.838 27.5303 133.838Z" fill="#85EFCE"/>
</g>
<g clip-path="url(#clip2_935_5243)">
<path d="M332.335 68.8377C334.008 68.8377 335.365 67.481 335.365 65.8074C335.365 64.1338 334.008 62.7771 332.335 62.7771C330.661 62.7771 329.304 64.1338 329.304 65.8074C329.304 67.481 330.661 68.8377 332.335 68.8377Z" fill="#85EFCE"/>
</g>
<rect width="17.1658" height="17.1658" transform="translate(363.37 88.7771) rotate(53.9029)" fill="#D9FFEF"/>
<path d="M39.8664 79.3719L35.0947 74.7771L30.5 79.5488L35.2717 84.1436L39.8664 79.3719Z" fill="#85EFCE"/>
<path d="M377.866 32.3719L373.095 27.7771L368.5 32.5488L373.272 37.1436L377.866 32.3719Z" fill="#85EFCE"/>
<g filter="url(#filter0_d_935_5243)">
<path fill-rule="evenodd" clip-rule="evenodd" d="M94.6597 159.439H295.18C296.674 159.439 297.92 158.191 297.92 156.576V19.3015C297.92 17.6865 296.674 16.4386 295.18 16.4386H94.6597C93.1651 16.4386 91.9197 17.6865 91.9197 19.3015V156.576C91.9197 158.191 93.0821 159.439 94.6597 159.439Z" fill="white"/>
<path fill-rule="evenodd" clip-rule="evenodd" d="M92.0872 40.7002H298.004V19.2778C298.004 17.444 297.504 16.027 296.004 16.027H94.7539C93.2539 16.027 92.0039 17.444 92.0039 19.2778V40.7002H92.0872Z" fill="white"/>
<path fill-rule="evenodd" clip-rule="evenodd" d="M91.5 17.8609H298.333C297.917 16.6105 297.083 15.777 296.083 15.777H93.9167C92.9167 15.777 92 16.6105 91.5 17.8609Z" fill="#61F1CC"/>
</g>
<g clip-path="url(#clip3_935_5243)">
<path d="M78.6097 19.8722C81.2284 24.1225 83.847 28.3729 86.4656 32.6232C86.995 33.4743 87.5228 34.3666 87.5737 35.3832C87.6333 36.3837 87.0902 37.2598 86.2532 37.7731C85.3861 38.3222 84.2801 38.4654 83.3101 38.7051C82.1495 38.9862 81.0014 39.2637 79.8372 39.5323C77.1103 40.1847 74.3833 40.8371 71.6563 41.4895C70.446 41.785 69.9653 39.8885 71.1757 39.593C75.4691 38.5693 79.7786 37.5546 84.0648 36.5058C84.4172 36.4176 84.9834 36.3218 85.3225 36.0474C85.2743 36.0206 85.2297 36.0063 85.1815 35.9796C80.6828 33.3038 75.8979 30.3852 70.5855 29.8443C66.1198 29.3845 60.9351 30.7336 58.421 34.7847C55.6044 39.3303 56.8521 45.0488 58.1386 49.874C58.9087 52.7724 59.7002 55.6511 60.0271 58.6505C60.3 61.1362 60.2933 63.6349 60.0245 66.1144C59.385 71.7948 57.4101 77.2912 54.1683 82.0004C53.4672 83.0307 51.786 82.024 52.4995 80.99C55.4155 76.7414 57.3359 71.8035 58.0028 66.6851C58.3423 64.0766 58.3876 61.4311 58.1034 58.8129C57.7873 55.8511 56.946 52.9869 56.1831 50.1135C54.8166 44.9179 53.7424 38.9592 56.5895 34.052C59.1325 29.6805 64.3111 27.7497 69.1777 27.8223C74.7911 27.9097 79.9083 30.6238 84.673 33.4262C84.63 33.3708 84.5994 33.3118 84.5689 33.2528C83.3556 31.2966 82.1549 29.3368 80.9416 27.3806C79.5974 25.2045 78.2495 23.0159 76.9052 20.8397C76.2535 19.7525 77.9493 18.8011 78.6097 19.8722Z" fill="black" stroke="black" stroke-width="1.61339" stroke-miterlimit="10"/>
</g>
<rect x="120.5" y="74.7771" width="149" height="6.03673" rx="3.01837" fill="#CED2D9"/>
<rect x="120.5" y="55.7771" width="58" height="6.03673" rx="3.01837" fill="#090B0E"/>
<rect x="120.5" y="88.8142" width="149" height="6.03673" rx="3.01837" fill="#CED2D9"/>
<rect x="120.5" y="103.777" width="149" height="6.03673" rx="3.01837" fill="#CED2D9"/>
<path fill-rule="evenodd" clip-rule="evenodd" d="M109 42C108.836 42 108.673 41.9554 108.529 41.867C108.221 41.678 101 37.1796 101 32.375C101 29.9626 102.994 28 105.444 28C106.861 28 108.174 28.7324 109 29.82C109.826 28.7324 111.139 28 112.556 28C115.006 28 117 29.9626 117 32.375C117 37.1796 109.779 41.678 109.471 41.867C109.327 41.9554 109.164 42 109 42" fill="#E81456"/>
<defs>
<filter id="filter0_d_935_5243" x="87.5" y="15.777" width="214.833" height="151.661" filterUnits="userSpaceOnUse" color-interpolation-filters="sRGB">
<feFlood flood-opacity="0" result="BackgroundImageFix"/>
<feColorMatrix in="SourceAlpha" type="matrix" values="0 0 0 0 0 0 0 0 0 0 0 0 0 0 0 0 0 0 127 0" result="hardAlpha"/>
<feOffset dy="4"/>
<feGaussianBlur stdDeviation="2"/>
<feComposite in2="hardAlpha" operator="out"/>
<feColorMatrix type="matrix" values="0 0 0 0 0 0 0 0 0 0 0 0 0 0 0 0 0 0 0.25 0"/>
<feBlend mode="normal" in2="BackgroundImageFix" result="effect1_dropShadow_935_5243"/>
<feBlend mode="normal" in="SourceGraphic" in2="effect1_dropShadow_935_5243" result="shape"/>
</filter>
<clipPath id="clip0_935_5243">
<rect width="13" height="13" fill="white" transform="translate(0.5 81.7771)"/>
</clipPath>
<clipPath id="clip1_935_5243">
<rect width="6" height="6" fill="white" transform="translate(24.5 127.777)"/>
</clipPath>
<clipPath id="clip2_935_5243">
<rect width="6" height="6" fill="white" transform="translate(329.304 62.7771)"/>
</clipPath>
<clipPath id="clip3_935_5243">
<rect width="57.3801" height="50.3179" fill="white" transform="matrix(0.277638 0.960686 0.960686 -0.277638 35.5 29.7473)"/>
</clipPath>
</defs>
</svg>
