<?xml version="1.0" encoding="UTF-8"?>
<svg width="427px" height="322px" viewBox="0 0 427 322" version="1.1" xmlns="http://www.w3.org/2000/svg" xmlns:xlink="http://www.w3.org/1999/xlink">
    <title>KAdelegated</title>
    <defs>
        <path d="M150.072392,41.7394514 C171.686593,27.6538738 243.182542,-17.2764336 326.297486,7.60524477 C409.411796,32.4856507 421.503498,107.738953 423.949302,126.000321 C428.068251,156.755974 428.02965,222.008503 390.715474,265.904884 C353.400666,309.801901 277.355457,322.347724 255.165401,319.692601 C240.052673,317.884343 223.329447,312.613545 210.186018,304.736616 C194.516419,295.344746 186.24245,279.717505 176.324445,264.948582 C159.562618,239.988007 134.483159,240.049724 106.926888,240.86923 C68.4420168,242.014503 37.1230673,229.837712 16.0986437,197.249623 C-11.8892027,153.867979 -6.02180398,64.752427 56.8363122,57.3927796 C71.0833587,55.7251357 84.65773,58.5367794 98.7896054,58.4050731" id="path-1"></path>
        <linearGradient x1="44.7149915%" y1="21.7742935%" x2="50%" y2="78.2257065%" id="linearGradient-3">
            <stop stop-color="#C6DBFF" offset="0%"></stop>
            <stop stop-color="#CADDFE" offset="77.7923903%"></stop>
            <stop stop-color="#D6E4FC" offset="100%"></stop>
        </linearGradient>
        <path d="M2.76549739,-0.000933343704 C1.25814731,-0.000933343704 0.0364004044,1.21988022 0.0364004044,2.7272303 L0.0364004044,2.7272303 L31.4172824,2.7272303 C31.4172824,1.21988022 30.1955355,-0.000933343704 28.6881854,-0.000933343704 L28.6881854,-0.000933343704 L2.76549739,-0.000933343704 Z" id="path-4"></path>
        <path d="M3.54950611,0.276269736 C2.04215602,0.276269736 0.821342459,1.49894999 0.821342459,3.00536673 L0.821342459,3.00536673 L0.821342459,13.919888 C0.821342459,15.4281714 2.04215602,16.6499183 3.54950611,16.6499183 L3.54950611,16.6499183 L14.4640274,16.6499183 C15.9713775,16.6499183 17.1940577,15.4281714 17.1940577,13.919888 L17.1940577,13.919888 L17.1940577,3.00536673 C17.1940577,1.49894999 15.9713775,0.276269736 14.4640274,0.276269736 L14.4640274,0.276269736 L3.54950611,0.276269736 Z" id="path-6"></path>
        <path d="M9.31383682,0.0448004978 C9.13090145,0.05040056 8.95543284,0.132534806 8.82756475,0.273469705 L8.82756475,0.273469705 C7.08127868,2.12895699 5.49086101,3.95924399 3.79404216,5.78579762 L3.79404216,5.78579762 L1.64641829,3.9657774 C1.50081668,3.84257603 1.31414793,3.78470872 1.12747919,3.80617562 L1.12747919,3.80617562 C0.940810453,3.82857587 0.770008556,3.92751031 0.652407249,4.08244536 L0.652407249,4.08244536 C0.408804542,4.40631563 0.458271759,4.87858754 0.76347515,5.13712375 L0.76347515,5.13712375 L3.41323792,7.38368204 C3.69510772,7.62355137 4.10297892,7.59835109 4.35684841,7.32581473 L4.35684841,7.32581473 C6.2552695,5.30792564 7.96328848,3.31897021 9.83277592,1.33281481 L9.83277592,1.33281481 C10.0437116,1.11627907 10.107179,0.784942055 9.99237769,0.499338882 L9.99237769,0.499338882 C9.88037645,0.222135802 9.62370693,0.0438671541 9.34277048,0.0438671541 L9.34277048,0.0438671541 C9.33343704,0.0438671541 9.32317026,0.0448004978 9.31383682,0.0448004978 L9.31383682,0.0448004978 Z" id="path-8"></path>
        <path d="M4.30924788,0.838142646 C3.68204091,0.838142646 3.17150191,1.32814809 3.17150191,1.93015478 L3.17150191,1.93015478 L3.17150191,8.47849421 C3.17150191,9.07956755 3.68204091,9.569573 4.30924788,9.569573 L4.30924788,9.569573 L9.99331104,9.569573 C10.620518,9.569573 11.1301237,9.07956755 11.1301237,8.47849421 L11.1301237,8.47849421 L11.1301237,1.93015478 C11.1301237,1.38414871 10.5617174,0.838142646 9.99331104,0.838142646 L9.99331104,0.838142646 L4.30924788,0.838142646 Z M4.30924788,8.47849421 L9.99331104,8.47849421 L9.99331104,1.93015478 L4.30924788,1.93015478 L4.30924788,8.47849421 Z M0.896943299,3.02123357 L0.896943299,10.6615851 C0.896943299,11.2635918 1.40748231,11.7526639 2.03468927,11.7526639 L2.03468927,11.7526639 L8.85649841,11.7526639 L8.85649841,10.6615851 L2.03468927,10.6615851 L2.03468927,3.02123357 L0.896943299,3.02123357 Z" id="path-10"></path>
        <path d="M5.63086257,0.833475928 L1.03227814,5.43112701 C0.398537762,6.06673407 0.398537762,7.09807887 1.03227814,7.7308859 L1.03227814,7.7308859 L1.4158824,8.1154235 L2.18029089,7.34821498 L1.79761997,6.96554406 C1.58575095,6.75460838 1.58575095,6.41020456 1.79761997,6.19833554 L1.79761997,6.19833554 L6.39713775,1.59975111 C6.49887221,1.4970833 6.63514039,1.44108268 6.77980866,1.44108268 L6.77980866,1.44108268 C6.92634363,1.44108268 7.06074512,1.4970833 7.16341293,1.59975111 L7.16341293,1.59975111 L7.54795053,1.98335537 L8.31235903,1.21708019 L7.93062145,0.833475928 C7.62355137,0.527339193 7.20168002,0.373337482 6.77980866,0.373337482 L6.77980866,0.373337482 C6.35793731,0.373337482 5.9369993,0.527339193 5.63086257,0.833475928 L5.63086257,0.833475928 Z M6.3962044,4.66578518 L7.16247958,5.4329937 L10.9957222,1.60068445 L10.2285137,0.833475928 L6.3962044,4.66578518 Z M9.84490939,4.2840476 L10.2285137,4.66671852 C10.3321148,4.76938633 10.3881154,4.90472116 10.3881154,5.04938944 L10.3881154,5.04938944 C10.3881154,5.19312437 10.3311815,5.33032589 10.2285137,5.4329937 L10.2285137,5.4329937 L5.63086257,10.0315781 C5.42552695,10.2359804 5.06805631,10.2359804 4.86365404,10.0315781 L4.86365404,10.0315781 L4.48098312,9.64890721 L3.71470794,10.4151824 L4.09737886,10.79692 C4.40538228,11.1049234 4.81325348,11.2738586 5.2472583,11.2738586 L5.2472583,11.2738586 C5.68219647,11.2738586 6.09006767,11.1049234 6.39713775,10.79692 L6.39713775,10.79692 L10.9957222,6.19926888 C11.3027923,5.89126546 11.4707941,5.4843276 11.4707941,5.04938944 L11.4707941,5.04938944 C11.4707941,4.61538462 11.3027923,4.20751342 10.9957222,3.90044334 L10.9957222,3.90044334 L10.6121179,3.51777242 L9.84490939,4.2840476 Z M1.03134479,10.0306448 L1.79668663,10.79692 L5.62992922,6.96461072 L4.86365404,6.19833554 L1.03134479,10.0306448 Z" id="path-12"></path>
        <path d="M9.18876876,0.483472039 C8.7454305,0.926810298 8.7454305,1.64735164 9.18876876,2.0906899 L9.18876876,2.0906899 C9.63397371,2.5349615 10.3535817,2.5349615 10.7978533,2.0906899 L10.7978533,2.0906899 C11.2421249,1.64735164 11.2421249,0.926810298 10.7978533,0.483472039 L10.7978533,0.483472039 C10.5747842,0.261336237 10.2845143,0.150268336 9.99331104,0.150268336 L9.99331104,0.150268336 C9.7021078,0.150268336 9.41183791,0.261336237 9.18876876,0.483472039 L9.18876876,0.483472039 Z M5.2108579,0.483472039 C4.76565295,0.926810298 4.76565295,1.64735164 5.2108579,2.0906899 L5.2108579,2.0906899 C5.65419616,2.5349615 6.37287081,2.5349615 6.81807576,2.0906899 L6.81807576,2.0906899 C7.26234736,1.64735164 7.26234736,0.926810298 6.81807576,0.483472039 L6.81807576,0.483472039 C6.59593995,0.261336237 6.30473672,0.150268336 6.01353348,0.150268336 L6.01353348,0.150268336 C5.72326359,0.150268336 5.43206036,0.261336237 5.2108579,0.483472039 L5.2108579,0.483472039 Z M1.23108035,0.483472039 C0.785875399,0.926810298 0.785875399,1.64735164 1.23108035,2.0906899 L1.23108035,2.0906899 C1.67535195,2.5349615 2.39495994,2.5349615 2.8382982,2.0906899 L2.8382982,2.0906899 C3.28256981,1.64735164 3.28256981,0.926810298 2.8382982,0.483472039 L2.8382982,0.483472039 C2.61709575,0.261336237 2.32589251,0.150268336 2.03468927,0.150268336 L2.03468927,0.150268336 C1.74348604,0.150268336 1.4522828,0.261336237 1.23108035,0.483472039 L1.23108035,0.483472039 Z" id="path-14"></path>
        <path d="M3.81190532,1.54670607 C2.71412719,1.54670607 1.82077208,2.42610251 1.82077208,3.50672785 C1.82077208,5.70391227 4.90238262,8.2153535 6.46674963,9.26004511 C8.03111664,8.2153535 11.1127272,5.70391227 11.1127272,3.50672785 C11.1127272,2.42610251 10.2193721,1.54670607 9.12159394,1.54670607 C8.00058593,1.54670607 7.13046071,2.60054445 7.13046071,3.50672785 C7.13046071,3.86737186 6.83311815,4.16006845 6.46674963,4.16006845 C6.10038112,4.16006845 5.80303855,3.86737186 5.80303855,3.50672785 C5.80303855,2.60054445 4.93291333,1.54670607 3.81190532,1.54670607 M6.46674963,10.6934744 C6.34462679,10.6934744 6.22250395,10.660154 6.11498276,10.5941666 C5.88533873,10.453045 0.493349926,7.09422105 0.493349926,3.50672785 C0.493349926,1.70546784 1.98205387,0.240024889 3.81190532,0.240024889 C4.86986078,0.240024889 5.85016204,0.786870965 6.46674963,1.59897332 C7.08333722,0.786870965 8.06363848,0.240024889 9.12159394,0.240024889 C10.9514454,0.240024889 12.4401493,1.70546784 12.4401493,3.50672785 C12.4401493,7.09422105 7.04816054,10.453045 6.8185165,10.5941666 C6.71099531,10.660154 6.58887247,10.6934744 6.46674963,10.6934744" id="path-16"></path>
        <rect id="path-18" x="15.38" y="147.42" width="141.12" height="103.32" rx="3.73337482"></rect>
        <filter x="-5.7%" y="-6.8%" width="111.3%" height="115.5%" filterUnits="objectBoundingBox" id="filter-19">
            <feOffset dx="0" dy="1" in="SourceAlpha" result="shadowOffsetOuter1"></feOffset>
            <feGaussianBlur stdDeviation="2.5" in="shadowOffsetOuter1" result="shadowBlurOuter1"></feGaussianBlur>
            <feColorMatrix values="0 0 0 0 0.538864357   0 0 0 0 0.538864357   0 0 0 0 0.538864357  0 0 0 0.5 0" type="matrix" in="shadowBlurOuter1"></feColorMatrix>
        </filter>
    </defs>
    <g id="KAdelegated" stroke="none" stroke-width="1" fill="none" fill-rule="evenodd">
        <g id="Group-13" transform="translate(1.000000, 1.000000)">
            <g id="Group-89">
                <g id="Group-3">
                    <mask id="mask-2" fill="white">
                        <use xlink:href="#path-1"></use>
                    </mask>
                    <g id="Clip-2"></g>
                    <path d="M326.297486,7.60524477 C243.182542,-17.2764336 171.686593,27.6538738 150.072392,41.7394514 C134.664142,51.7796724 117.388475,58.2313734 98.7896054,58.4050731 C84.65773,58.5367794 71.0833587,55.7251357 56.8363122,57.3927796 C-6.02180398,64.752427 -11.8892027,153.867979 16.0986437,197.249623 C37.1230673,229.837712 68.4420168,242.014503 106.926888,240.86923 C134.483159,240.049724 159.562618,239.988007 176.324445,264.948582 C186.24245,279.717505 194.516419,295.344746 210.186018,304.736616 C223.329447,312.613545 240.052673,317.884343 255.165401,319.692601 C277.355457,322.347724 353.400666,309.801901 390.715474,265.904884 C428.02965,222.008503 428.068251,156.755974 423.949302,126.000321 C421.503498,107.738953 409.411796,32.4856507 326.297486,7.60524477" id="Fill-1" fill="url(#linearGradient-3)" mask="url(#mask-2)"></path>
                </g>
            </g>
            <g id="Group-9" transform="translate(29.980000, 23.940000)">
                <g id="Group-15">
                    <path d="M5.3,264.216522 L371.738317,264.216522 C374.521832,264.216522 376.778317,261.960037 376.778317,259.176522 L376.778317,6.3 C376.778317,3.51648486 374.521832,1.26 371.738317,1.26 L5.3,1.26 C2.51648486,1.26 0.26,3.51648486 0.26,6.3 L0.26,259.176522 C0.26,261.960037 2.51648486,264.216522 5.3,264.216522 Z" id="Fill-101" stroke="#CED2D9" stroke-width="0.933343704" fill="#FFFFFF"></path>
                    <path d="M1.02907521,39.5158917 L375.902374,39.5158917 L375.902374,6.3 C375.902374,3.51648486 373.645889,1.26 370.862374,1.26 L6.06907521,1.26 C3.28556007,1.26 1.02907521,3.51648486 1.02907521,6.3 L1.02907521,39.5158917 L1.02907521,39.5158917 Z" id="Fill-104" fill="#FFFFFF"></path>
                    <path d="M0.512,3.61016365 L375.828679,3.61016365 C375.111895,1.95403986 373.479766,0.882 371.675181,0.882 L4.920802,0.882 C3.05282916,0.882 1.34553245,1.93847403 0.512,3.61016365 L0.512,3.61016365 L0.512,3.61016365 Z" id="Fill-105" fill="#00D5A0"></path>
                    <g id="Group-108" transform="translate(47.850239, 36.165188)">
                        <mask id="mask-5" fill="white">
                            <use xlink:href="#path-4"></use>
                        </mask>
                        <g id="Clip-107"></g>
                        <polygon id="Fill-106" fill="#00D5A0" mask="url(#mask-5)" points="5.30544471e-14 6.28046978 38.4845609 6.28046978 38.4845609 -3.55230614 5.30544471e-14 -3.55230614"></polygon>
                    </g>
                    <line x1="0.260280003" y1="38.8925115" x2="377.165935" y2="38.8925115" id="Stroke-109" stroke="#CED2D9" stroke-width="0.758528428" stroke-linecap="square"></line>
                    <g id="Group-113" transform="translate(13.083209, 11.898252)">
                        <mask id="mask-7" fill="white">
                            <use xlink:href="#path-6"></use>
                        </mask>
                        <g id="Clip-112"></g>
                        <polygon id="Fill-111" fill="#4ABB8F" mask="url(#mask-7)" points="-2.73096368 20.2003578 20.7454305 20.2003578 20.7454305 -3.2760364 -2.73096368 -3.2760364"></polygon>
                    </g>
                    <g id="Group-12" transform="translate(0.008000, 236.250000)">
                        <path d="M5.54467425,27.6964013 L371.322674,27.6964013 C374.106189,27.6964013 376.362674,25.4399165 376.362674,22.6564013 L376.362674,0.858401338 L376.362674,0.858401338 L0.504674247,0.858401338 L0.504674247,22.6564013 C0.504674247,25.4399165 2.76115911,27.6964013 5.54467425,27.6964013 Z" id="Fill-129" fill="#F5F7FA"></path>
                        <path d="M2.73284142,18.2761904 L9.81050909,25.3453356 L10.9292161,25.3453356 L2.73284142,17.158978 L2.73284142,18.2761904 Z M2.73284142,21.1863561 L6.89645022,25.3453356 L8.01515723,25.3453356 L2.73284142,20.070077 L2.73284142,21.1863561 Z M2.73284142,24.0983884 L3.98145676,25.3453356 L5.10016377,25.3453356 L2.73284142,22.981176 L2.73284142,24.0983884 Z" id="Fill-130" fill="#8E9BB1"></path>
                    </g>
                    <path d="M16.6329953,12.1746146 L27.5475165,12.1746146 C29.0548666,12.1746146 30.2766135,13.3972949 30.2766135,14.9037116 L30.2766135,25.8182329 C30.2766135,27.325583 29.0548666,28.5473299 27.5475165,28.5473299 L16.6329953,28.5473299 C15.1256452,28.5473299 13.9038983,27.325583 13.9038983,25.8182329 L13.9038983,14.9037116 C13.9038983,13.3972949 15.1256452,12.1746146 16.6329953,12.1746146 Z" id="Stroke-114" fill="#00D5A0"></path>
                    <g id="Group-118" transform="translate(16.816584, 16.564970)">
                        <mask id="mask-9" fill="white">
                            <use xlink:href="#path-8"></use>
                        </mask>
                        <g id="Clip-117"></g>
                        <polygon id="Fill-116" fill="#FFFFFF" mask="url(#mask-9)" points="-3.0539006 11.0993233 13.6006845 11.0993233 13.6006845 -3.50843898 -3.0539006 -3.50843898"></polygon>
                    </g>
                    <polygon id="Fill-119" fill="#767576" points="363.235593 19.6343642 360.56903 16.9678012 360.051958 17.4848736 362.718521 20.1505032 360.051958 22.8179995 360.56903 23.3341386 363.235593 20.668509 365.901223 23.3341386 366.419228 22.8179995 363.751732 20.1505032 366.419228 17.4848736 365.901223 16.9678012"></polygon>
                    <polygon id="Fill-120" fill="#737880" points="363.235593 19.6343642 360.56903 16.9678012 360.051958 17.4848736 362.718521 20.1505032 360.051958 22.8179995 360.56903 23.3341386 363.235593 20.668509 365.901223 23.3341386 366.419228 22.8179995 363.751732 20.1505032 366.419228 17.4848736 365.901223 16.9678012"></polygon>
                    <path d="M54.9609411,110.838751 L351.677811,110.838751 C353.247164,110.838751 354.519376,109.566539 354.519376,107.997186 C354.519376,106.427833 353.247164,105.155621 351.677811,105.155621 L54.9609411,105.155621 C53.3915882,105.155621 52.1193762,106.427833 52.1193762,107.997186 C52.1193762,109.566539 53.3915882,110.838751 54.9609411,110.838751 Z" id="Fill-138" fill="#EBEEF2"></path>
                    <path d="M58.1861103,73.7635389 L349.399613,73.7635389 C352.750177,73.7635389 355.466347,71.0473696 355.466347,67.6968049 C355.466347,64.3462401 352.750177,61.6300708 349.399613,61.6300708 L58.1861103,61.6300708 C54.8355456,61.6300708 52.1193762,64.3462401 52.1193762,67.6968049 C52.1193762,71.0473696 54.8355456,73.7635389 58.1861103,73.7635389 Z" id="Fill-138" fill="#EBEEF2"></path>
                    <path d="M54.9609411,132.150721 L351.677811,132.150721 C353.247164,132.150721 354.519376,130.878509 354.519376,129.309156 C354.519376,127.739803 353.247164,126.467591 351.677811,126.467591 L54.9609411,126.467591 C53.3915882,126.467591 52.1193762,127.739803 52.1193762,129.309156 C52.1193762,130.878509 53.3915882,132.150721 54.9609411,132.150721 Z" id="Fill-139" fill="#EBEEF2"></path>
                    <path d="M54.9609411,152.75335 L351.677811,152.75335 C353.247164,152.75335 354.519376,151.481138 354.519376,149.911785 C354.519376,148.342432 353.247164,147.07022 351.677811,147.07022 L54.9609411,147.07022 C53.3915882,147.07022 52.1193762,148.342432 52.1193762,149.911785 C52.1193762,151.481138 53.3915882,152.75335 54.9609411,152.75335 Z" id="Fill-140" fill="#EBEEF2"></path>
                    <path d="M54.9609411,174.776528 L258.437811,174.776528 C260.007164,174.776528 261.279376,173.504316 261.279376,171.934963 C261.279376,170.36561 260.007164,169.093398 258.437811,169.093398 L54.9609411,169.093398 C53.3915882,169.093398 52.1193762,170.36561 52.1193762,171.934963 C52.1193762,173.504316 53.3915882,174.776528 54.9609411,174.776528 Z" id="Fill-143" fill="#EBEEF2"></path>
                    <g id="Group-154" transform="translate(13.083209, 89.844300)" stroke="#D9DEE5" stroke-linecap="square" stroke-width="0.758528428">
                        <line x1="17.0002956" y1="31.0402116" x2="0.627580306" y2="31.0402116" id="Stroke-148"></line>
                        <line x1="17.0002956" y1="1.3436416" x2="0.627580306" y2="1.3436416" id="Stroke-150"></line>
                    </g>
                    <g id="Group-158" transform="translate(16.816584, 47.843833)">
                        <mask id="mask-11" fill="white">
                            <use xlink:href="#path-10"></use>
                        </mask>
                        <g id="Clip-156"></g>
                        <polygon id="Fill-155" fill="#405880" mask="url(#mask-11)" points="-2.65442949 15.3049701 14.6824298 15.3049701 14.6824298 -2.71416349 -2.65442949 -2.71416349"></polygon>
                        <polygon id="Fill-157" fill="#737880" mask="url(#mask-11)" points="-4.35964844 16.526717 16.2457805 16.526717 16.2457805 -4.07871199 -4.35964844 -4.07871199"></polygon>
                    </g>
                    <g id="Group-166" transform="translate(15.883240, 70.244082)">
                        <mask id="mask-13" fill="white">
                            <use xlink:href="#path-12"></use>
                        </mask>
                        <g id="Clip-164"></g>
                        <polygon id="Fill-163" fill="#767576" mask="url(#mask-13)" points="-2.99509995 14.8261647 15.0240336 14.8261647 15.0240336 -3.17896866 -2.99509995 -3.17896866"></polygon>
                        <polygon id="Fill-165" fill="#737880" mask="url(#mask-13)" points="-4.35964844 16.0619118 16.2457805 16.0619118 16.2457805 -4.54351715 -4.35964844 -4.54351715"></polygon>
                    </g>
                    <g id="Group-176" transform="translate(15.883240, 136.511485)">
                        <mask id="mask-15" fill="white">
                            <use xlink:href="#path-14"></use>
                        </mask>
                        <g id="Clip-174"></g>
                        <polygon id="Fill-173" fill="#767576" mask="url(#mask-15)" points="-2.65442949 5.97619974 14.6824298 5.97619974 14.6824298 -3.4020378 -2.65442949 -3.4020378"></polygon>
                        <polygon id="Fill-175" fill="#090B0E" mask="url(#mask-15)" points="-4.35964844 11.5183946 16.2457805 11.5183946 16.2457805 -9.0870343 -4.35964844 -9.0870343"></polygon>
                    </g>
                    <g id="favorite/filled" transform="translate(15.016553, 100.244393)">
                        <mask id="mask-17" fill="white">
                            <use xlink:href="#path-16"></use>
                        </mask>
                        <use id="🎨-Icon-Сolor" fill="#737880" xlink:href="#path-16"></use>
                    </g>
                    <g id="Rectangle">
                        <use fill="black" fill-opacity="1" filter="url(#filter-19)" xlink:href="#path-18"></use>
                        <use fill="#FFFFFF" fill-rule="evenodd" xlink:href="#path-18"></use>
                    </g>
                    <path d="M26.2108199,161.985015 L26.2108199,156.640095 L28.3584899,161.301465 L29.1037799,161.301465 L31.2558599,156.604815 L31.2558599,161.985015 L31.9658699,161.985015 L31.9658699,155.811015 L30.8854199,155.811015 L28.7333399,160.476795 L26.5768499,155.811015 L25.5008099,155.811015 L25.5008099,161.985015 L26.2108199,161.985015 Z M35.5070999,162.068805 C35.8216799,162.068805 36.1134749,162.01368 36.3824849,161.90343 C36.6514949,161.79318 36.8837549,161.641035 37.0792649,161.446995 C37.2747749,161.252955 37.4283899,161.0229 37.5401099,160.75683 C37.6518299,160.49076 37.7076899,160.203375 37.7076899,159.894675 C37.7076899,159.585975 37.6518299,159.299325 37.5401099,159.034725 C37.4283899,158.770125 37.2747749,158.540805 37.0792649,158.346765 C36.8837549,158.152725 36.6514949,158.00058 36.3824849,157.89033 C36.1134749,157.78008 35.8216799,157.724955 35.5070999,157.724955 C35.1925199,157.724955 34.9014599,157.78008 34.6339199,157.89033 C34.3663799,158.00058 34.1341199,158.152725 33.9371399,158.346765 C33.7401599,158.540805 33.5865449,158.770125 33.4762949,159.034725 C33.3660449,159.299325 33.3109199,159.585975 33.3109199,159.894675 C33.3109199,160.203375 33.3660449,160.49076 33.4762949,160.75683 C33.5865449,161.0229 33.7401599,161.252955 33.9371399,161.446995 C34.1341199,161.641035 34.3663799,161.79318 34.6339199,161.90343 C34.9014599,162.01368 35.1925199,162.068805 35.5070999,162.068805 Z M35.5070999,161.451405 C35.2895399,161.451405 35.0881499,161.41245 34.9029299,161.33454 C34.7177099,161.25663 34.5567449,161.148585 34.4200349,161.010405 C34.2833249,160.872225 34.1760149,160.70832 34.0981049,160.51869 C34.0201949,160.32906 33.9812399,160.121055 33.9812399,159.894675 C33.9812399,159.671235 34.0201949,159.463965 34.0981049,159.272865 C34.1760149,159.081765 34.2833249,158.91786 34.4200349,158.78115 C34.5567449,158.64444 34.7177099,158.53713 34.9029299,158.45922 C35.0881499,158.38131 35.2895399,158.342355 35.5070999,158.342355 C35.7217199,158.342355 35.9223749,158.38131 36.1090649,158.45922 C36.2957549,158.53713 36.4574549,158.64444 36.5941649,158.78115 C36.7308749,158.91786 36.8381849,159.081765 36.9160949,159.272865 C36.9940049,159.463965 37.0329599,159.671235 37.0329599,159.894675 C37.0329599,160.121055 36.9940049,160.32906 36.9160949,160.51869 C36.8381849,160.70832 36.7308749,160.872225 36.5941649,161.010405 C36.4574549,161.148585 36.2957549,161.25663 36.1090649,161.33454 C35.9223749,161.41245 35.7217199,161.451405 35.5070999,161.451405 Z M39.5907599,161.985015 L39.5907599,159.647715 C39.5907599,159.450735 39.6186899,159.27213 39.6745499,159.1119 C39.7304099,158.95167 39.8075849,158.81496 39.9060749,158.70177 C40.0045649,158.58858 40.1221649,158.501115 40.2588749,158.439375 C40.3955849,158.377635 40.5462599,158.346765 40.7108999,158.346765 C40.8343799,158.346765 40.9600649,158.36073 41.0879549,158.38866 C41.2158449,158.41659 41.3312399,158.458485 41.4341399,158.514345 L41.4341399,158.514345 L41.5928999,157.866075 C41.4811799,157.816095 41.3628449,157.78008 41.2378949,157.75803 C41.1129449,157.73598 40.9754999,157.724955 40.8255599,157.724955 C40.5668399,157.724955 40.3316399,157.78302 40.1199599,157.89915 C39.9082799,158.01528 39.7304099,158.180655 39.5863499,158.395275 L39.5863499,158.395275 L39.5863499,157.808745 L38.9336699,157.808745 L38.9336699,161.985015 L39.5907599,161.985015 Z M44.2124399,162.068805 C44.3653199,162.068805 44.5167299,162.058515 44.6666699,162.037935 C44.8166099,162.017355 44.9628749,161.98134 45.1054649,161.92989 C45.2480549,161.87844 45.3884399,161.81082 45.5266199,161.72703 C45.6647999,161.64324 45.7985699,161.539605 45.9279299,161.416125 L45.9279299,161.416125 L45.5751299,160.966305 C45.3957899,161.130945 45.1951349,161.25957 44.9731649,161.35218 C44.7511949,161.44479 44.5108499,161.491095 44.2521299,161.491095 C44.0639699,161.491095 43.8853649,161.46243 43.7163149,161.4051 C43.5472649,161.34777 43.3965899,161.261775 43.2642899,161.147115 C43.1319899,161.032455 43.0232099,160.8906 42.9379499,160.72155 C42.8526899,160.5525 42.7982999,160.354785 42.7747799,160.128405 L42.7747799,160.128405 L46.1219699,160.128405 C46.1307899,160.054905 46.1351999,159.972585 46.1351999,159.881445 C46.1322599,159.563925 46.0815449,159.272865 45.9830549,159.008265 C45.8845649,158.743665 45.7485899,158.51655 45.5751299,158.32692 C45.4016699,158.13729 45.1951349,157.989555 44.9555249,157.883715 C44.7159149,157.777875 44.4549899,157.724955 44.1727499,157.724955 C43.8758099,157.724955 43.6009199,157.77861 43.3480799,157.88592 C43.0952399,157.99323 42.8762099,158.142435 42.6909899,158.333535 C42.5057699,158.524635 42.3609749,158.75322 42.2566049,159.01929 C42.1522349,159.28536 42.1000499,159.578625 42.1000499,159.899085 C42.1000499,160.222485 42.1522349,160.51722 42.2566049,160.78329 C42.3609749,161.04936 42.5065049,161.277945 42.6931949,161.469045 C42.8798849,161.660145 43.1025899,161.80788 43.3613099,161.91225 C43.6200299,162.01662 43.9037399,162.068805 44.2124399,162.068805 Z M45.4648799,159.594795 L42.7835999,159.594795 C42.8100599,159.406635 42.8607749,159.23391 42.9357449,159.07662 C43.0107149,158.91933 43.1062649,158.78409 43.2223949,158.6709 C43.3385249,158.55771 43.4752349,158.46951 43.6325249,158.4063 C43.7898149,158.34309 43.9654799,158.311485 44.1595199,158.311485 C44.3359199,158.311485 44.4998249,158.34162 44.6512349,158.40189 C44.8026449,158.46216 44.9349449,158.548155 45.0481349,158.659875 C45.1613249,158.771595 45.2539349,158.906835 45.3259649,159.065595 C45.3979949,159.224355 45.4442999,159.400755 45.4648799,159.594795 L45.4648799,159.594795 Z M52.6664099,162.073215 C53.1250499,162.073215 53.5491449,161.99457 53.9386949,161.83728 C54.3282449,161.67999 54.6648749,161.46096 54.9485849,161.18019 C55.2322949,160.89942 55.4542649,160.564995 55.6144949,160.176915 C55.7747249,159.788835 55.8548399,159.362535 55.8548399,158.898015 C55.8548399,158.436435 55.7747249,158.01087 55.6144949,157.62132 C55.4542649,157.23177 55.2322949,156.89661 54.9485849,156.61584 C54.6648749,156.33507 54.3282449,156.11604 53.9386949,155.95875 C53.5491449,155.80146 53.1250499,155.722815 52.6664099,155.722815 C52.2077699,155.722815 51.7836749,155.80146 51.3941249,155.95875 C51.0045749,156.11604 50.6679449,156.33507 50.3842349,156.61584 C50.1005249,156.89661 49.8785549,157.23177 49.7183249,157.62132 C49.5580949,158.01087 49.4779799,158.436435 49.4779799,158.898015 C49.4779799,159.362535 49.5580949,159.788835 49.7183249,160.176915 C49.8785549,160.564995 50.1005249,160.89942 50.3842349,161.18019 C50.6679449,161.46096 51.0045749,161.67999 51.3941249,161.83728 C51.7836749,161.99457 52.2077699,162.073215 52.6664099,162.073215 Z M52.6664099,161.389665 C52.3194899,161.389665 51.9975599,161.329395 51.7006199,161.208855 C51.4036799,161.088315 51.1456949,160.919265 50.9266649,160.701705 C50.7076349,160.484145 50.5356449,160.22175 50.4106949,159.91452 C50.2857449,159.60729 50.2232699,159.268455 50.2232699,158.898015 C50.2232699,158.527575 50.2857449,158.18874 50.4106949,157.88151 C50.5356449,157.57428 50.7076349,157.311885 50.9266649,157.094325 C51.1456949,156.876765 51.4036799,156.707715 51.7006199,156.587175 C51.9975599,156.466635 52.3194899,156.406365 52.6664099,156.406365 C53.0133299,156.406365 53.3359949,156.466635 53.6344049,156.587175 C53.9328149,156.707715 54.1915349,156.876765 54.4105649,157.094325 C54.6295949,157.311885 54.8015849,157.57428 54.9265349,157.88151 C55.0514849,158.18874 55.1139599,158.527575 55.1139599,158.898015 C55.1139599,159.268455 55.0514849,159.60729 54.9265349,159.91452 C54.8015849,160.22175 54.6295949,160.484145 54.4105649,160.701705 C54.1915349,160.919265 53.9328149,161.088315 53.6344049,161.208855 C53.3359949,161.329395 53.0133299,161.389665 52.6664099,161.389665 Z M57.8261099,163.749015 L57.8261099,161.367615 C57.9936899,161.579295 58.2024299,161.74908 58.4523299,161.87697 C58.7022299,162.00486 59.0006399,162.068805 59.3475599,162.068805 C59.6415599,162.068805 59.9149799,162.014415 60.1678199,161.905635 C60.4206599,161.796855 60.6411599,161.64618 60.8293199,161.45361 C61.0174799,161.26104 61.1652149,161.03172 61.2725249,160.76565 C61.3798349,160.49958 61.4334899,160.209255 61.4334899,159.894675 C61.4334899,159.583035 61.3798349,159.29418 61.2725249,159.02811 C61.1652149,158.76204 61.0174799,158.53272 60.8293199,158.34015 C60.6411599,158.14758 60.4206599,157.996905 60.1678199,157.888125 C59.9149799,157.779345 59.6415599,157.724955 59.3475599,157.724955 C59.0006399,157.724955 58.7022299,157.7889 58.4523299,157.91679 C58.2024299,158.04468 57.9936899,158.214465 57.8261099,158.426145 L57.8261099,158.426145 L57.8261099,157.808745 L57.1646099,157.808745 L57.1646099,163.749015 L57.8261099,163.749015 Z M59.2681799,161.451405 C59.0506199,161.451405 58.8506999,161.411715 58.6684199,161.332335 C58.4861399,161.252955 58.3295849,161.144175 58.1987549,161.005995 C58.0679249,160.867815 57.9657599,160.703175 57.8922599,160.512075 C57.8187599,160.320975 57.7820099,160.115175 57.7820099,159.894675 C57.7820099,159.674175 57.8187599,159.46911 57.8922599,159.27948 C57.9657599,159.08985 58.0679249,158.925945 58.1987549,158.787765 C58.3295849,158.649585 58.4861399,158.540805 58.6684199,158.461425 C58.8506999,158.382045 59.0506199,158.342355 59.2681799,158.342355 C59.4886799,158.342355 59.6908049,158.38278 59.8745549,158.46363 C60.0583049,158.54448 60.2155949,158.655465 60.3464249,158.796585 C60.4772549,158.937705 60.5786849,159.102345 60.6507149,159.290505 C60.7227449,159.478665 60.7587599,159.680055 60.7587599,159.894675 C60.7587599,160.112235 60.7227449,160.315095 60.6507149,160.503255 C60.5786849,160.691415 60.4779899,160.856055 60.3486299,160.997175 C60.2192699,161.138295 60.0627149,161.24928 59.8789649,161.33013 C59.6952149,161.41098 59.4916199,161.451405 59.2681799,161.451405 Z M64.4234699,162.068805 C64.6821899,162.068805 64.9137149,162.02985 65.1180449,161.95194 C65.3223749,161.87403 65.5039199,161.774805 65.6626799,161.654265 L65.6626799,161.654265 L65.3539799,161.155935 C65.2304999,161.244135 65.0937899,161.31543 64.9438499,161.36982 C64.7939099,161.42421 64.6380899,161.451405 64.4763899,161.451405 C64.3558499,161.451405 64.2448649,161.43303 64.1434349,161.39628 C64.0420049,161.35953 63.9545399,161.302935 63.8810399,161.226495 C63.8075399,161.150055 63.7502099,161.053035 63.7090499,160.935435 C63.6678899,160.817835 63.6473099,160.676715 63.6473099,160.512075 L63.6473099,160.512075 L63.6473099,158.404095 L65.4509999,158.404095 L65.4509999,157.808745 L63.6473099,157.808745 L63.6473099,156.481335 L62.9902199,156.481335 L62.9902199,157.808745 L62.0773499,157.808745 L62.0773499,158.404095 L62.9902199,158.404095 L62.9902199,160.525305 C62.9902199,160.786965 63.0225599,161.014815 63.0872399,161.208855 C63.1519199,161.402895 63.2459999,161.56386 63.3694799,161.69175 C63.4929599,161.81964 63.6428999,161.914455 63.8192999,161.976195 C63.9956999,162.037935 64.1970899,162.068805 64.4234699,162.068805 Z M66.9415799,156.790035 C67.0062599,156.790035 67.0672649,156.778275 67.1245949,156.754755 C67.1819249,156.731235 67.2311699,156.698895 67.2723299,156.657735 C67.3134899,156.616575 67.3465649,156.568065 67.3715549,156.512205 C67.3965449,156.456345 67.4090399,156.394605 67.4090399,156.326985 C67.4090399,156.262305 67.3965449,156.2013 67.3715549,156.14397 C67.3465649,156.08664 67.3134899,156.03666 67.2723299,155.99403 C67.2311699,155.9514 67.1819249,155.918325 67.1245949,155.894805 C67.0672649,155.871285 67.0062599,155.859525 66.9415799,155.859525 C66.8092799,155.859525 66.6990299,155.90436 66.6108299,155.99403 C66.5226299,156.0837 66.4785299,156.194685 66.4785299,156.326985 C66.4785299,156.459285 66.5226299,156.569535 66.6108299,156.657735 C66.6990299,156.745935 66.8092799,156.790035 66.9415799,156.790035 Z M67.2723299,161.985015 L67.2723299,157.808745 L66.6108299,157.808745 L66.6108299,161.985015 L67.2723299,161.985015 Z M70.6944899,162.068805 C71.0090699,162.068805 71.3008649,162.01368 71.5698749,161.90343 C71.8388849,161.79318 72.0711449,161.641035 72.2666549,161.446995 C72.4621649,161.252955 72.6157799,161.0229 72.7274999,160.75683 C72.8392199,160.49076 72.8950799,160.203375 72.8950799,159.894675 C72.8950799,159.585975 72.8392199,159.299325 72.7274999,159.034725 C72.6157799,158.770125 72.4621649,158.540805 72.2666549,158.346765 C72.0711449,158.152725 71.8388849,158.00058 71.5698749,157.89033 C71.3008649,157.78008 71.0090699,157.724955 70.6944899,157.724955 C70.3799099,157.724955 70.0888499,157.78008 69.8213099,157.89033 C69.5537699,158.00058 69.3215099,158.152725 69.1245299,158.346765 C68.9275499,158.540805 68.7739349,158.770125 68.6636849,159.034725 C68.5534349,159.299325 68.4983099,159.585975 68.4983099,159.894675 C68.4983099,160.203375 68.5534349,160.49076 68.6636849,160.75683 C68.7739349,161.0229 68.9275499,161.252955 69.1245299,161.446995 C69.3215099,161.641035 69.5537699,161.79318 69.8213099,161.90343 C70.0888499,162.01368 70.3799099,162.068805 70.6944899,162.068805 Z M70.6944899,161.451405 C70.4769299,161.451405 70.2755399,161.41245 70.0903199,161.33454 C69.9050999,161.25663 69.7441349,161.148585 69.6074249,161.010405 C69.4707149,160.872225 69.3634049,160.70832 69.2854949,160.51869 C69.2075849,160.32906 69.1686299,160.121055 69.1686299,159.894675 C69.1686299,159.671235 69.2075849,159.463965 69.2854949,159.272865 C69.3634049,159.081765 69.4707149,158.91786 69.6074249,158.78115 C69.7441349,158.64444 69.9050999,158.53713 70.0903199,158.45922 C70.2755399,158.38131 70.4769299,158.342355 70.6944899,158.342355 C70.9091099,158.342355 71.1097649,158.38131 71.2964549,158.45922 C71.4831449,158.53713 71.6448449,158.64444 71.7815549,158.78115 C71.9182649,158.91786 72.0255749,159.081765 72.1034849,159.272865 C72.1813949,159.463965 72.2203499,159.671235 72.2203499,159.894675 C72.2203499,160.121055 72.1813949,160.32906 72.1034849,160.51869 C72.0255749,160.70832 71.9182649,160.872225 71.7815549,161.010405 C71.6448449,161.148585 71.4831449,161.25663 71.2964549,161.33454 C71.1097649,161.41245 70.9091099,161.451405 70.6944899,161.451405 Z M74.7825599,161.985015 L74.7825599,159.630075 C74.7825599,159.433095 74.8163699,159.255225 74.8839899,159.096465 C74.9516099,158.937705 75.0434849,158.8032 75.1596149,158.69295 C75.2757449,158.5827 75.4109849,158.498175 75.5653349,158.439375 C75.7196849,158.380575 75.8850599,158.351175 76.0614599,158.351175 C76.4465999,158.351175 76.7435399,158.461425 76.9522799,158.681925 C77.1610199,158.902425 77.2653899,159.212595 77.2653899,159.612435 L77.2653899,159.612435 L77.2653899,161.985015 L77.9224799,161.985015 L77.9224799,159.396345 C77.9224799,159.143505 77.8798499,158.914185 77.7945899,158.708385 C77.7093299,158.502585 77.5902599,158.32692 77.4373799,158.18139 C77.2844999,158.03586 77.1014849,157.923405 76.8883349,157.844025 C76.6751849,157.764645 76.4392499,157.724955 76.1805299,157.724955 C76.0511699,157.724955 75.9218099,157.736715 75.7924499,157.760235 C75.6630899,157.783755 75.5366699,157.82271 75.4131899,157.8771 C75.2897099,157.93149 75.1735799,158.00205 75.0647999,158.08878 C74.9560199,158.17551 74.8589999,158.280615 74.7737399,158.404095 L74.7737399,158.404095 L74.7737399,157.808745 L74.1210599,157.808745 L74.1210599,161.985015 L74.7825599,161.985015 Z M80.7757499,162.064395 C81.0579899,162.064395 81.3122999,162.03426 81.5386799,161.97399 C81.7650599,161.91372 81.9576299,161.827725 82.1163899,161.716005 C82.2751499,161.604285 82.3978949,161.469045 82.4846249,161.310285 C82.5713549,161.151525 82.6147199,160.972185 82.6147199,160.772265 C82.6147199,160.431225 82.4919749,160.166625 82.2464849,159.978465 C82.0009949,159.790305 81.6562799,159.666825 81.2123399,159.608025 L81.2123399,159.608025 L80.7184199,159.546285 C80.4420599,159.513945 80.2311149,159.452205 80.0855849,159.361065 C79.9400549,159.269925 79.8672899,159.136155 79.8672899,158.959755 C79.8672899,158.859795 79.8908099,158.768655 79.9378499,158.686335 C79.9848899,158.604015 80.0517749,158.534925 80.1385049,158.479065 C80.2252349,158.423205 80.3288699,158.37984 80.4494099,158.34897 C80.5699499,158.3181 80.7051899,158.302665 80.8551299,158.302665 C80.9962499,158.302665 81.1344299,158.314425 81.2696699,158.337945 C81.4049099,158.361465 81.5320649,158.392335 81.6511349,158.430555 C81.7702049,158.468775 81.8782499,158.51067 81.9752699,158.55624 C82.0722899,158.60181 82.1546099,158.648115 82.2222299,158.695155 L82.2222299,158.695155 L82.5088799,158.183595 C82.3060199,158.048355 82.0612649,157.93884 81.7746149,157.85505 C81.4879649,157.77126 81.1799999,157.729365 80.8507199,157.729365 C80.6008199,157.729365 80.3729699,157.75803 80.1671699,157.81536 C79.9613699,157.87269 79.7857049,157.955745 79.6401749,158.064525 C79.4946449,158.173305 79.3821899,158.30634 79.3028099,158.46363 C79.2234299,158.62092 79.1837399,158.798055 79.1837399,158.995035 C79.1837399,159.306675 79.2954599,159.562455 79.5188999,159.762375 C79.7423399,159.962295 80.0907299,160.091655 80.5640699,160.150455 L80.5640699,160.150455 L81.0623999,160.207785 C81.3593399,160.243065 81.5791049,160.31142 81.7216949,160.41285 C81.8642849,160.51428 81.9355799,160.648785 81.9355799,160.816365 C81.9355799,161.036865 81.8319449,161.204445 81.6246749,161.319105 C81.4174049,161.433765 81.1373699,161.491095 80.7845699,161.491095 C80.6081699,161.491095 80.4486749,161.479335 80.3060849,161.455815 C80.1634949,161.432295 80.0333999,161.39922 79.9157999,161.35659 C79.7981999,161.31396 79.6923599,161.26545 79.5982799,161.21106 C79.5041999,161.15667 79.4174699,161.098605 79.3380899,161.036865 L79.3380899,161.036865 L79.0337999,161.530785 C79.1660999,161.630745 79.3057499,161.714535 79.4527499,161.782155 C79.5997499,161.849775 79.7489549,161.9049 79.9003649,161.94753 C80.0517749,161.99016 80.2017149,162.020295 80.3501849,162.037935 C80.4986549,162.055575 80.6405099,162.064395 80.7757499,162.064395 Z" id="MoreOptions" fill="#090B0E" fill-rule="nonzero"></path>
                    <rect id="Rectangle" fill="#EBEEF2" x="36.3668017" y="173.565202" width="112.14" height="5.04" rx="2.52"></rect>
                    <rect id="Rectangle" fill="#EBEEF2" x="24.5642039" y="172.631858" width="6.3" height="6.3"></rect>
                    <rect id="Rectangle" fill="#EBEEF2" x="24.5642039" y="187.74" width="6.3" height="6.3"></rect>
                    <rect id="Rectangle" fill="#EBEEF2" x="24.5642039" y="234.36" width="6.3" height="6.3"></rect>
                    <rect id="Rectangle" fill="#EBEEF2" x="36.3668017" y="188.346687" width="99.54" height="5.04" rx="2.52"></rect>
                    <rect id="Rectangle" fill="#EBEEF2" x="36.3668017" y="235.293344" width="108.36" height="5.04" rx="2.52"></rect>
                    <rect id="Rectangle" fill="#EBEEF2" x="15.33" y="201.6" width="141.12" height="25.2"></rect>
                    <path d="M41.4039641,217.612279 C41.7599141,217.612279 42.0969641,217.569754 42.4151141,217.484704 C42.7332641,217.399654 43.0112516,217.273654 43.2490766,217.106704 C43.4869016,216.939754 43.6751141,216.732642 43.8137141,216.485367 C43.9523141,216.238092 44.0216141,215.950654 44.0216141,215.623054 C44.0216141,215.336404 43.9649141,215.090704 43.8515141,214.885954 C43.7381141,214.681204 43.5869141,214.510317 43.3979141,214.373292 C43.2089141,214.236267 42.9899891,214.129167 42.7411391,214.051992 C42.4922891,213.974817 42.2308391,213.918904 41.9567891,213.884254 L41.9567891,213.884254 L41.3283641,213.808654 C40.8117641,213.748804 40.4282516,213.632254 40.1778266,213.459004 C39.9274016,213.285754 39.8021891,213.044779 39.8021891,212.736079 C39.8021891,212.550229 39.8447141,212.383279 39.9297641,212.235229 C40.0148141,212.087179 40.1329391,211.961967 40.2841391,211.859592 C40.4353391,211.757217 40.6156766,211.678467 40.8251516,211.623342 C41.0346266,211.568217 41.2637891,211.540654 41.5126391,211.540654 C41.9126891,211.540654 42.2780891,211.598142 42.6088391,211.713117 C42.9395891,211.828092 43.2388391,211.976929 43.5065891,212.159629 L43.5065891,212.159629 L43.8940391,211.545379 C43.7428391,211.438279 43.5806141,211.340629 43.4073641,211.252429 C43.2341141,211.164229 43.0498391,211.088629 42.8545391,211.025629 C42.6592391,210.962629 42.4505516,210.913017 42.2284766,210.876792 C42.0064016,210.840567 41.7693641,210.822454 41.5173641,210.822454 C41.1708641,210.822454 40.8456266,210.865767 40.5416516,210.952392 C40.2376766,211.039017 39.9722891,211.165804 39.7454891,211.332754 C39.5186891,211.499704 39.3399266,211.704454 39.2092016,211.947004 C39.0784766,212.189554 39.0131141,212.468329 39.0131141,212.783329 C39.0131141,213.057379 39.0619391,213.296779 39.1595891,213.501529 C39.2572391,213.706279 39.3926891,213.879529 39.5659391,214.021279 C39.7391891,214.163029 39.9447266,214.275642 40.1825516,214.359117 C40.4203766,214.442592 40.6810391,214.500079 40.9645391,214.531579 L40.9645391,214.531579 L41.6307641,214.607179 C42.1536641,214.667029 42.5513516,214.782004 42.8238266,214.952104 C43.0963016,215.122204 43.2325391,215.367904 43.2325391,215.689204 C43.2325391,215.887654 43.1852891,216.061692 43.0907891,216.211317 C42.9962891,216.360942 42.8663516,216.486154 42.7009766,216.586954 C42.5356016,216.687754 42.3410891,216.764142 42.1174391,216.816117 C41.8937891,216.868092 41.6543891,216.894079 41.3992391,216.894079 C41.1850391,216.894079 40.9724141,216.873604 40.7613641,216.832654 C40.5503141,216.791704 40.3495016,216.737367 40.1589266,216.669642 C39.9683516,216.601917 39.7927391,216.523954 39.6320891,216.435754 C39.4714391,216.347554 39.3344141,216.254629 39.2210141,216.156979 L39.2210141,216.156979 L38.8052141,216.761779 C38.9595641,216.890929 39.1375391,217.007479 39.3391391,217.111429 C39.5407391,217.215379 39.7541516,217.304367 39.9793766,217.378392 C40.2046016,217.452417 40.4384891,217.509904 40.6810391,217.550854 C40.9235891,217.591804 41.1645641,217.612279 41.4039641,217.612279 Z M47.3905391,217.612279 C47.5543391,217.612279 47.7165641,217.601254 47.8772141,217.579204 C48.0378641,217.557154 48.1945766,217.518567 48.3473516,217.463442 C48.5001266,217.408317 48.6505391,217.335867 48.7985891,217.246092 C48.9466391,217.156317 49.0899641,217.045279 49.2285641,216.912979 L49.2285641,216.912979 L48.8505641,216.431029 C48.6584141,216.607429 48.4434266,216.745242 48.2056016,216.844467 C47.9677766,216.943692 47.7102641,216.993304 47.4330641,216.993304 C47.2314641,216.993304 47.0401016,216.962592 46.8589766,216.901167 C46.6778516,216.839742 46.5164141,216.747604 46.3746641,216.624754 C46.2329141,216.501904 46.1163641,216.349917 46.0250141,216.168792 C45.9336641,215.987667 45.8753891,215.775829 45.8501891,215.533279 L45.8501891,215.533279 L49.4364641,215.533279 C49.4459141,215.454529 49.4506391,215.366329 49.4506391,215.268679 C49.4474891,214.928479 49.3931516,214.616629 49.2876266,214.333129 C49.1821016,214.049629 49.0364141,213.806292 48.8505641,213.603117 C48.6647141,213.399942 48.4434266,213.241654 48.1867016,213.128254 C47.9299766,213.014854 47.6504141,212.958154 47.3480141,212.958154 C47.0298641,212.958154 46.7353391,213.015642 46.4644391,213.130617 C46.1935391,213.245592 45.9588641,213.405454 45.7604141,213.610204 C45.5619641,213.814954 45.4068266,214.059867 45.2950016,214.344942 C45.1831766,214.630017 45.1272641,214.944229 45.1272641,215.287579 C45.1272641,215.634079 45.1831766,215.949867 45.2950016,216.234942 C45.4068266,216.520017 45.5627516,216.764929 45.7627766,216.969679 C45.9628016,217.174429 46.2014141,217.332717 46.4786141,217.444542 C46.7558141,217.556367 47.0597891,217.612279 47.3905391,217.612279 Z M48.7324391,214.961554 L45.8596391,214.961554 C45.8879891,214.759954 45.9423266,214.574892 46.0226516,214.406367 C46.1029766,214.237842 46.2053516,214.092942 46.3297766,213.971667 C46.4542016,213.850392 46.6006766,213.755892 46.7692016,213.688167 C46.9377266,213.620442 47.1259391,213.586579 47.3338391,213.586579 C47.5228391,213.586579 47.6984516,213.618867 47.8606766,213.683442 C48.0229016,213.748017 48.1646516,213.840154 48.2859266,213.959854 C48.4072016,214.079554 48.5064266,214.224454 48.5836016,214.394554 C48.6607766,214.564654 48.7103891,214.753654 48.7324391,214.961554 L48.7324391,214.961554 Z M51.4729391,217.522504 L51.4729391,214.999354 C51.4729391,214.788304 51.5091641,214.597729 51.5816141,214.427629 C51.6540641,214.257529 51.7525016,214.113417 51.8769266,213.995292 C52.0013516,213.877167 52.1462516,213.786604 52.3116266,213.723604 C52.4770016,213.660604 52.6541891,213.629104 52.8431891,213.629104 C53.2558391,213.629104 53.5739891,213.747229 53.7976391,213.983479 C54.0212891,214.219729 54.1331141,214.552054 54.1331141,214.980454 L54.1331141,214.980454 L54.1331141,217.522504 L54.8371391,217.522504 L54.8371391,214.748929 C54.8371391,214.478029 54.7914641,214.232329 54.7001141,214.011829 C54.6087641,213.791329 54.4811891,213.603117 54.3173891,213.447192 C54.1535891,213.291267 53.9575016,213.170779 53.7291266,213.085729 C53.5007516,213.000679 53.2479641,212.958154 52.9707641,212.958154 C52.8321641,212.958154 52.6935641,212.970754 52.5549641,212.995954 C52.4163641,213.021154 52.2809141,213.062892 52.1486141,213.121167 C52.0163141,213.179442 51.8918891,213.255042 51.7753391,213.347967 C51.6587891,213.440892 51.5548391,213.553504 51.4634891,213.685804 L51.4634891,213.685804 L51.4634891,213.047929 L50.7641891,213.047929 L50.7641891,217.522504 L51.4729391,217.522504 Z M58.3336391,217.612279 C58.7053391,217.612279 59.0258516,217.543767 59.2951766,217.406742 C59.5645016,217.269717 59.7889391,217.086229 59.9684891,216.856279 L59.9684891,216.856279 L59.9684891,217.522504 L60.6725141,217.522504 L60.6725141,210.718504 L59.9684891,210.718504 L59.9684891,213.714154 C59.7889391,213.487354 59.5645016,213.304654 59.2951766,213.166054 C59.0258516,213.027454 58.7053391,212.958154 58.3336391,212.958154 C58.0186391,212.958154 57.7249016,213.016429 57.4524266,213.132979 C57.1799516,213.249529 56.9437016,213.410967 56.7436766,213.617292 C56.5436516,213.823617 56.3861516,214.069317 56.2711766,214.354392 C56.1562016,214.639467 56.0987141,214.948954 56.0987141,215.282854 C56.0987141,215.619904 56.1562016,215.930967 56.2711766,216.216042 C56.3861516,216.501117 56.5436516,216.746817 56.7436766,216.953142 C56.9437016,217.159467 57.1799516,217.320904 57.4524266,217.437454 C57.7249016,217.554004 58.0186391,217.612279 58.3336391,217.612279 Z M58.4186891,216.950779 C58.1824391,216.950779 57.9658766,216.907467 57.7690016,216.820842 C57.5721266,216.734217 57.4028141,216.615304 57.2610641,216.464104 C57.1193141,216.312904 57.0098516,216.136504 56.9326766,215.934904 C56.8555016,215.733304 56.8169141,215.515954 56.8169141,215.282854 C56.8169141,215.052904 56.8555016,214.837129 56.9326766,214.635529 C57.0098516,214.433929 57.1185266,214.257529 57.2587016,214.106329 C57.3988766,213.955129 57.5674016,213.836217 57.7642766,213.749592 C57.9611516,213.662967 58.1792891,213.619654 58.4186891,213.619654 C58.6517891,213.619654 58.8659891,213.662179 59.0612891,213.747229 C59.2565891,213.832279 59.4243266,213.948829 59.5645016,214.096879 C59.7046766,214.244929 59.8141391,214.420542 59.8928891,214.623717 C59.9716391,214.826892 60.0110141,215.046604 60.0110141,215.282854 C60.0110141,215.519104 59.9716391,215.739604 59.8928891,215.944354 C59.8141391,216.149104 59.7046766,216.325504 59.5645016,216.473554 C59.4243266,216.621604 59.2565891,216.738154 59.0612891,216.823204 C58.8659891,216.908254 58.6517891,216.950779 58.4186891,216.950779 Z M66.7441391,217.612279 C67.1158391,217.612279 67.4363516,217.543767 67.7056766,217.406742 C67.9750016,217.269717 68.1994391,217.086229 68.3789891,216.856279 L68.3789891,216.856279 L68.3789891,217.522504 L69.0830141,217.522504 L69.0830141,213.047929 L68.3789891,213.047929 L68.3789891,213.714154 C68.1994391,213.487354 67.9750016,213.304654 67.7056766,213.166054 C67.4363516,213.027454 67.1158391,212.958154 66.7441391,212.958154 C66.4291391,212.958154 66.1354016,213.016429 65.8629266,213.132979 C65.5904516,213.249529 65.3542016,213.410967 65.1541766,213.617292 C64.9541516,213.823617 64.7966516,214.069317 64.6816766,214.354392 C64.5667016,214.639467 64.5092141,214.948954 64.5092141,215.282854 C64.5092141,215.619904 64.5667016,215.930967 64.6816766,216.216042 C64.7966516,216.501117 64.9541516,216.746817 65.1541766,216.953142 C65.3542016,217.159467 65.5904516,217.320904 65.8629266,217.437454 C66.1354016,217.554004 66.4291391,217.612279 66.7441391,217.612279 Z M66.8291891,216.950779 C66.5929391,216.950779 66.3763766,216.907467 66.1795016,216.820842 C65.9826266,216.734217 65.8133141,216.615304 65.6715641,216.464104 C65.5298141,216.312904 65.4203516,216.136504 65.3431766,215.934904 C65.2660016,215.733304 65.2274141,215.515954 65.2274141,215.282854 C65.2274141,215.052904 65.2660016,214.837129 65.3431766,214.635529 C65.4203516,214.433929 65.5290266,214.257529 65.6692016,214.106329 C65.8093766,213.955129 65.9779016,213.836217 66.1747766,213.749592 C66.3716516,213.662967 66.5897891,213.619654 66.8291891,213.619654 C67.0622891,213.619654 67.2764891,213.662179 67.4717891,213.747229 C67.6670891,213.832279 67.8348266,213.948829 67.9750016,214.096879 C68.1151766,214.244929 68.2246391,214.420542 68.3033891,214.623717 C68.3821391,214.826892 68.4215141,215.046604 68.4215141,215.282854 C68.4215141,215.519104 68.3821391,215.739604 68.3033891,215.944354 C68.2246391,216.149104 68.1151766,216.325504 67.9750016,216.473554 C67.8348266,216.621604 67.6670891,216.738154 67.4717891,216.823204 C67.2764891,216.908254 67.0622891,216.950779 66.8291891,216.950779 Z M74.1482141,217.522504 L74.1482141,214.555204 L74.9325641,214.555204 L77.8431641,217.522504 L78.8779391,217.522504 L75.5657141,214.153579 L78.6747641,210.907504 L77.6919641,210.907504 L74.9467391,213.837004 L74.1482141,213.837004 L74.1482141,210.907504 L73.3874891,210.907504 L73.3874891,217.522504 L74.1482141,217.522504 Z M80.5269641,217.522504 L80.5269641,214.999354 C80.5269641,214.788304 80.5631891,214.597729 80.6356391,214.427629 C80.7080891,214.257529 80.8065266,214.113417 80.9309516,213.995292 C81.0553766,213.877167 81.2002766,213.786604 81.3656516,213.723604 C81.5310266,213.660604 81.7082141,213.629104 81.8972141,213.629104 C82.3098641,213.629104 82.6280141,213.747229 82.8516641,213.983479 C83.0753141,214.219729 83.1871391,214.552054 83.1871391,214.980454 L83.1871391,214.980454 L83.1871391,217.522504 L83.8911641,217.522504 L83.8911641,214.748929 C83.8911641,214.478029 83.8454891,214.232329 83.7541391,214.011829 C83.6627891,213.791329 83.5352141,213.603117 83.3714141,213.447192 C83.2076141,213.291267 83.0115266,213.170779 82.7831516,213.085729 C82.5547766,213.000679 82.3019891,212.958154 82.0247891,212.958154 C81.8861891,212.958154 81.7475891,212.970754 81.6089891,212.995954 C81.4703891,213.021154 81.3349391,213.062892 81.2026391,213.121167 C81.0703391,213.179442 80.9459141,213.255042 80.8293641,213.347967 C80.7128141,213.440892 80.6088641,213.553504 80.5175141,213.685804 L80.5175141,213.685804 L80.5175141,213.047929 L79.8182141,213.047929 L79.8182141,217.522504 L80.5269641,217.522504 Z M87.5057891,217.612279 C87.8428391,217.612279 88.1554766,217.553217 88.4437016,217.435092 C88.7319266,217.316967 88.9807766,217.153954 89.1902516,216.946054 C89.3997266,216.738154 89.5643141,216.491667 89.6840141,216.206592 C89.8037141,215.921517 89.8635641,215.613604 89.8635641,215.282854 C89.8635641,214.952104 89.8037141,214.644979 89.6840141,214.361479 C89.5643141,214.077979 89.3997266,213.832279 89.1902516,213.624379 C88.9807766,213.416479 88.7319266,213.253467 88.4437016,213.135342 C88.1554766,213.017217 87.8428391,212.958154 87.5057891,212.958154 C87.1687391,212.958154 86.8568891,213.017217 86.5702391,213.135342 C86.2835891,213.253467 86.0347391,213.416479 85.8236891,213.624379 C85.6126391,213.832279 85.4480516,214.077979 85.3299266,214.361479 C85.2118016,214.644979 85.1527391,214.952104 85.1527391,215.282854 C85.1527391,215.613604 85.2118016,215.921517 85.3299266,216.206592 C85.4480516,216.491667 85.6126391,216.738154 85.8236891,216.946054 C86.0347391,217.153954 86.2835891,217.316967 86.5702391,217.435092 C86.8568891,217.553217 87.1687391,217.612279 87.5057891,217.612279 Z M87.5057891,216.950779 C87.2726891,216.950779 87.0569141,216.909042 86.8584641,216.825567 C86.6600141,216.742092 86.4875516,216.626329 86.3410766,216.478279 C86.1946016,216.330229 86.0796266,216.154617 85.9961516,215.951442 C85.9126766,215.748267 85.8709391,215.525404 85.8709391,215.282854 C85.8709391,215.043454 85.9126766,214.821379 85.9961516,214.616629 C86.0796266,214.411879 86.1946016,214.236267 86.3410766,214.089792 C86.4875516,213.943317 86.6600141,213.828342 86.8584641,213.744867 C87.0569141,213.661392 87.2726891,213.619654 87.5057891,213.619654 C87.7357391,213.619654 87.9507266,213.661392 88.1507516,213.744867 C88.3507766,213.828342 88.5240266,213.943317 88.6705016,214.089792 C88.8169766,214.236267 88.9319516,214.411879 89.0154266,214.616629 C89.0989016,214.821379 89.1406391,215.043454 89.1406391,215.282854 C89.1406391,215.525404 89.0989016,215.748267 89.0154266,215.951442 C88.9319516,216.154617 88.8169766,216.330229 88.6705016,216.478279 C88.5240266,216.626329 88.3507766,216.742092 88.1507516,216.825567 C87.9507266,216.909042 87.7357391,216.950779 87.5057891,216.950779 Z M93.0009641,217.522504 L94.3334141,213.803929 L95.6705891,217.522504 L96.5069141,217.522504 L98.1606641,213.047929 L97.4282891,213.047929 L96.0816641,216.790129 L94.7397641,213.047929 L93.9459641,213.047929 L92.6135141,216.785404 L91.2763391,213.047929 L90.5250641,213.047929 L92.1788141,217.522504 L93.0009641,217.522504 Z M99.9089141,217.522504 L99.9089141,210.718504 L99.2001641,210.718504 L99.2001641,217.522504 L99.9089141,217.522504 Z M103.485739,217.612279 C103.649539,217.612279 103.811764,217.601254 103.972414,217.579204 C104.133064,217.557154 104.289777,217.518567 104.442552,217.463442 C104.595327,217.408317 104.745739,217.335867 104.893789,217.246092 C105.041839,217.156317 105.185164,217.045279 105.323764,216.912979 L105.323764,216.912979 L104.945764,216.431029 C104.753614,216.607429 104.538627,216.745242 104.300802,216.844467 C104.062977,216.943692 103.805464,216.993304 103.528264,216.993304 C103.326664,216.993304 103.135302,216.962592 102.954177,216.901167 C102.773052,216.839742 102.611614,216.747604 102.469864,216.624754 C102.328114,216.501904 102.211564,216.349917 102.120214,216.168792 C102.028864,215.987667 101.970589,215.775829 101.945389,215.533279 L101.945389,215.533279 L105.531664,215.533279 C105.541114,215.454529 105.545839,215.366329 105.545839,215.268679 C105.542689,214.928479 105.488352,214.616629 105.382827,214.333129 C105.277302,214.049629 105.131614,213.806292 104.945764,213.603117 C104.759914,213.399942 104.538627,213.241654 104.281902,213.128254 C104.025177,213.014854 103.745614,212.958154 103.443214,212.958154 C103.125064,212.958154 102.830539,213.015642 102.559639,213.130617 C102.288739,213.245592 102.054064,213.405454 101.855614,213.610204 C101.657164,213.814954 101.502027,214.059867 101.390202,214.344942 C101.278377,214.630017 101.222464,214.944229 101.222464,215.287579 C101.222464,215.634079 101.278377,215.949867 101.390202,216.234942 C101.502027,216.520017 101.657952,216.764929 101.857977,216.969679 C102.058002,217.174429 102.296614,217.332717 102.573814,217.444542 C102.851014,217.556367 103.154989,217.612279 103.485739,217.612279 Z M104.827639,214.961554 L101.954839,214.961554 C101.983189,214.759954 102.037527,214.574892 102.117852,214.406367 C102.198177,214.237842 102.300552,214.092942 102.424977,213.971667 C102.549402,213.850392 102.695877,213.755892 102.864402,213.688167 C103.032927,213.620442 103.221139,213.586579 103.429039,213.586579 C103.618039,213.586579 103.793652,213.618867 103.955877,213.683442 C104.118102,213.748017 104.259852,213.840154 104.381127,213.959854 C104.502402,214.079554 104.601627,214.224454 104.678802,214.394554 C104.755977,214.564654 104.805589,214.753654 104.827639,214.961554 L104.827639,214.961554 Z M108.754114,217.612279 C109.125814,217.612279 109.446327,217.543767 109.715652,217.406742 C109.984977,217.269717 110.209414,217.086229 110.388964,216.856279 L110.388964,216.856279 L110.388964,217.522504 L111.092989,217.522504 L111.092989,210.718504 L110.388964,210.718504 L110.388964,213.714154 C110.209414,213.487354 109.984977,213.304654 109.715652,213.166054 C109.446327,213.027454 109.125814,212.958154 108.754114,212.958154 C108.439114,212.958154 108.145377,213.016429 107.872902,213.132979 C107.600427,213.249529 107.364177,213.410967 107.164152,213.617292 C106.964127,213.823617 106.806627,214.069317 106.691652,214.354392 C106.576677,214.639467 106.519189,214.948954 106.519189,215.282854 C106.519189,215.619904 106.576677,215.930967 106.691652,216.216042 C106.806627,216.501117 106.964127,216.746817 107.164152,216.953142 C107.364177,217.159467 107.600427,217.320904 107.872902,217.437454 C108.145377,217.554004 108.439114,217.612279 108.754114,217.612279 Z M108.839164,216.950779 C108.602914,216.950779 108.386352,216.907467 108.189477,216.820842 C107.992602,216.734217 107.823289,216.615304 107.681539,216.464104 C107.539789,216.312904 107.430327,216.136504 107.353152,215.934904 C107.275977,215.733304 107.237389,215.515954 107.237389,215.282854 C107.237389,215.052904 107.275977,214.837129 107.353152,214.635529 C107.430327,214.433929 107.539002,214.257529 107.679177,214.106329 C107.819352,213.955129 107.987877,213.836217 108.184752,213.749592 C108.381627,213.662967 108.599764,213.619654 108.839164,213.619654 C109.072264,213.619654 109.286464,213.662179 109.481764,213.747229 C109.677064,213.832279 109.844802,213.948829 109.984977,214.096879 C110.125152,214.244929 110.234614,214.420542 110.313364,214.623717 C110.392114,214.826892 110.431489,215.046604 110.431489,215.282854 C110.431489,215.519104 110.392114,215.739604 110.313364,215.944354 C110.234614,216.149104 110.125152,216.325504 109.984977,216.473554 C109.844802,216.621604 109.677064,216.738154 109.481764,216.823204 C109.286464,216.908254 109.072264,216.950779 108.839164,216.950779 Z M114.561139,219.483379 C114.907639,219.483379 115.225789,219.433767 115.515589,219.334542 C115.805389,219.235317 116.055027,219.089629 116.264502,218.897479 C116.473977,218.705329 116.636989,218.468292 116.753539,218.186367 C116.870089,217.904442 116.928364,217.580779 116.928364,217.215379 L116.928364,217.215379 L116.928364,213.047929 L116.219614,213.047929 L116.219614,213.718879 C116.049514,213.485779 115.831377,213.300717 115.565202,213.163692 C115.299027,213.026667 114.984814,212.958154 114.622564,212.958154 C114.307564,212.958154 114.015402,213.014067 113.746077,213.125892 C113.476752,213.237717 113.242864,213.394429 113.044414,213.596029 C112.845964,213.797629 112.690039,214.039392 112.576639,214.321317 C112.463239,214.603242 112.406539,214.912729 112.406539,215.249779 C112.406539,215.589979 112.463239,215.900254 112.576639,216.180604 C112.690039,216.460954 112.845964,216.702717 113.044414,216.905892 C113.242864,217.109067 113.476752,217.266567 113.746077,217.378392 C114.015402,217.490217 114.307564,217.546129 114.622564,217.546129 C114.984814,217.546129 115.299027,217.478404 115.565202,217.342954 C115.831377,217.207504 116.049514,217.021654 116.219614,216.785404 L116.219614,216.785404 L116.219614,217.243729 C116.219614,217.505179 116.178664,217.735129 116.096764,217.933579 C116.014864,218.132029 115.900677,218.298979 115.754202,218.434429 C115.607727,218.569879 115.432902,218.671467 115.229727,218.739192 C115.026552,218.806917 114.803689,218.840779 114.561139,218.840779 C114.255589,218.840779 113.970514,218.793529 113.705914,218.699029 C113.441314,218.604529 113.201914,218.476954 112.987714,218.316304 L112.987714,218.316304 L112.675864,218.883304 C112.789264,218.977804 112.917627,219.062067 113.060952,219.136092 C113.204277,219.210117 113.357839,219.273117 113.521639,219.325092 C113.685439,219.377067 113.854752,219.416442 114.029577,219.443217 C114.204402,219.469992 114.381589,219.483379 114.561139,219.483379 Z M114.702889,216.884629 C114.466639,216.884629 114.250864,216.842104 114.055564,216.757054 C113.860264,216.672004 113.694102,216.555454 113.557077,216.407404 C113.420052,216.259354 113.313739,216.086104 113.238139,215.887654 C113.162539,215.689204 113.124739,215.476579 113.124739,215.249779 C113.124739,215.022979 113.162539,214.811142 113.238139,214.614267 C113.313739,214.417392 113.420052,214.244929 113.557077,214.096879 C113.694102,213.948829 113.860264,213.832279 114.055564,213.747229 C114.250864,213.662179 114.466639,213.619654 114.702889,213.619654 C114.932839,213.619654 115.144677,213.661392 115.338402,213.744867 C115.532127,213.828342 115.698289,213.943317 115.836889,214.089792 C115.975489,214.236267 116.084164,214.408729 116.162914,214.607179 C116.241664,214.805629 116.281039,215.019829 116.281039,215.249779 C116.281039,215.482879 116.241664,215.698654 116.162914,215.897104 C116.084164,216.095554 115.975489,216.268017 115.836889,216.414492 C115.698289,216.560967 115.532127,216.675942 115.338402,216.759417 C115.144677,216.842892 114.932839,216.884629 114.702889,216.884629 Z M120.505189,217.612279 C120.668989,217.612279 120.831214,217.601254 120.991864,217.579204 C121.152514,217.557154 121.309227,217.518567 121.462002,217.463442 C121.614777,217.408317 121.765189,217.335867 121.913239,217.246092 C122.061289,217.156317 122.204614,217.045279 122.343214,216.912979 L122.343214,216.912979 L121.965214,216.431029 C121.773064,216.607429 121.558077,216.745242 121.320252,216.844467 C121.082427,216.943692 120.824914,216.993304 120.547714,216.993304 C120.346114,216.993304 120.154752,216.962592 119.973627,216.901167 C119.792502,216.839742 119.631064,216.747604 119.489314,216.624754 C119.347564,216.501904 119.231014,216.349917 119.139664,216.168792 C119.048314,215.987667 118.990039,215.775829 118.964839,215.533279 L118.964839,215.533279 L122.551114,215.533279 C122.560564,215.454529 122.565289,215.366329 122.565289,215.268679 C122.562139,214.928479 122.507802,214.616629 122.402277,214.333129 C122.296752,214.049629 122.151064,213.806292 121.965214,213.603117 C121.779364,213.399942 121.558077,213.241654 121.301352,213.128254 C121.044627,213.014854 120.765064,212.958154 120.462664,212.958154 C120.144514,212.958154 119.849989,213.015642 119.579089,213.130617 C119.308189,213.245592 119.073514,213.405454 118.875064,213.610204 C118.676614,213.814954 118.521477,214.059867 118.409652,214.344942 C118.297827,214.630017 118.241914,214.944229 118.241914,215.287579 C118.241914,215.634079 118.297827,215.949867 118.409652,216.234942 C118.521477,216.520017 118.677402,216.764929 118.877427,216.969679 C119.077452,217.174429 119.316064,217.332717 119.593264,217.444542 C119.870464,217.556367 120.174439,217.612279 120.505189,217.612279 Z M121.847089,214.961554 L118.974289,214.961554 C119.002639,214.759954 119.056977,214.574892 119.137302,214.406367 C119.217627,214.237842 119.320002,214.092942 119.444427,213.971667 C119.568852,213.850392 119.715327,213.755892 119.883852,213.688167 C120.052377,213.620442 120.240589,213.586579 120.448489,213.586579 C120.637489,213.586579 120.813102,213.618867 120.975327,213.683442 C121.137552,213.748017 121.279302,213.840154 121.400577,213.959854 C121.521852,214.079554 121.621077,214.224454 121.698252,214.394554 C121.775427,214.564654 121.825039,214.753654 121.847089,214.961554 L121.847089,214.961554 Z M126.392539,217.522504 L127.139089,215.679754 L130.413514,215.679754 L131.164789,217.522504 L131.977489,217.522504 L129.260614,210.907504 L128.320339,210.907504 L125.603464,217.522504 L126.392539,217.522504 Z M130.125289,214.961554 L127.432039,214.961554 L128.778664,211.658779 L130.125289,214.961554 Z M133.683214,217.522504 L133.683214,210.718504 L132.974464,210.718504 L132.974464,217.522504 L133.683214,217.522504 Z M137.260039,217.612279 C137.423839,217.612279 137.586064,217.601254 137.746714,217.579204 C137.907364,217.557154 138.064077,217.518567 138.216852,217.463442 C138.369627,217.408317 138.520039,217.335867 138.668089,217.246092 C138.816139,217.156317 138.959464,217.045279 139.098064,216.912979 L139.098064,216.912979 L138.720064,216.431029 C138.527914,216.607429 138.312927,216.745242 138.075102,216.844467 C137.837277,216.943692 137.579764,216.993304 137.302564,216.993304 C137.100964,216.993304 136.909602,216.962592 136.728477,216.901167 C136.547352,216.839742 136.385914,216.747604 136.244164,216.624754 C136.102414,216.501904 135.985864,216.349917 135.894514,216.168792 C135.803164,215.987667 135.744889,215.775829 135.719689,215.533279 L135.719689,215.533279 L139.305964,215.533279 C139.315414,215.454529 139.320139,215.366329 139.320139,215.268679 C139.316989,214.928479 139.262652,214.616629 139.157127,214.333129 C139.051602,214.049629 138.905914,213.806292 138.720064,213.603117 C138.534214,213.399942 138.312927,213.241654 138.056202,213.128254 C137.799477,213.014854 137.519914,212.958154 137.217514,212.958154 C136.899364,212.958154 136.604839,213.015642 136.333939,213.130617 C136.063039,213.245592 135.828364,213.405454 135.629914,213.610204 C135.431464,213.814954 135.276327,214.059867 135.164502,214.344942 C135.052677,214.630017 134.996764,214.944229 134.996764,215.287579 C134.996764,215.634079 135.052677,215.949867 135.164502,216.234942 C135.276327,216.520017 135.432252,216.764929 135.632277,216.969679 C135.832302,217.174429 136.070914,217.332717 136.348114,217.444542 C136.625314,217.556367 136.929289,217.612279 137.260039,217.612279 Z M138.601939,214.961554 L135.729139,214.961554 C135.757489,214.759954 135.811827,214.574892 135.892152,214.406367 C135.972477,214.237842 136.074852,214.092942 136.199277,213.971667 C136.323702,213.850392 136.470177,213.755892 136.638702,213.688167 C136.807227,213.620442 136.995439,213.586579 137.203339,213.586579 C137.392339,213.586579 137.567952,213.618867 137.730177,213.683442 C137.892402,213.748017 138.034152,213.840154 138.155427,213.959854 C138.276702,214.079554 138.375927,214.224454 138.453102,214.394554 C138.530277,214.564654 138.579889,214.753654 138.601939,214.961554 L138.601939,214.961554 Z M141.337714,217.522504 L141.337714,215.018254 C141.337714,214.807204 141.367639,214.615842 141.427489,214.444167 C141.487339,214.272492 141.570027,214.126017 141.675552,214.004742 C141.781077,213.883467 141.907077,213.789754 142.053552,213.723604 C142.200027,213.657454 142.361464,213.624379 142.537864,213.624379 C142.670164,213.624379 142.804827,213.639342 142.941852,213.669267 C143.078877,213.699192 143.202514,213.744079 143.312764,213.803929 L143.312764,213.803929 L143.482864,213.109354 C143.363164,213.055804 143.236377,213.017217 143.102502,212.993592 C142.968627,212.969967 142.821364,212.958154 142.660714,212.958154 C142.383514,212.958154 142.131514,213.020367 141.904714,213.144792 C141.677914,213.269217 141.487339,213.446404 141.332989,213.676354 L141.332989,213.676354 L141.332989,213.047929 L140.633689,213.047929 L140.633689,217.522504 L141.337714,217.522504 Z M146.587189,217.612279 C146.864389,217.612279 147.112452,217.570542 147.331377,217.487067 C147.550302,217.403592 147.744814,217.297279 147.914914,217.168129 L147.914914,217.168129 L147.584164,216.634204 C147.451864,216.728704 147.305389,216.805092 147.144739,216.863367 C146.984089,216.921642 146.817139,216.950779 146.643889,216.950779 C146.514739,216.950779 146.395827,216.931092 146.287152,216.891717 C146.178477,216.852342 146.084764,216.791704 146.006014,216.709804 C145.927264,216.627904 145.865839,216.523954 145.821739,216.397954 C145.777639,216.271954 145.755589,216.120754 145.755589,215.944354 L145.755589,215.944354 L145.755589,213.685804 L147.688114,213.685804 L147.688114,213.047929 L145.755589,213.047929 L145.755589,211.625704 L145.051564,211.625704 L145.051564,213.047929 L144.073489,213.047929 L144.073489,213.685804 L145.051564,213.685804 L145.051564,215.958529 C145.051564,216.238879 145.086214,216.483004 145.155514,216.690904 C145.224814,216.898804 145.325614,217.071267 145.457914,217.208292 C145.590214,217.345317 145.750864,217.446904 145.939864,217.513054 C146.128864,217.579204 146.344639,217.612279 146.587189,217.612279 Z" id="SendaKnowledgeAlert" fill="#090B0E" fill-rule="nonzero"></path>
                    <g id="Group" transform="translate(22.890000, 209.160000)" fill="#242C38">
                        <polygon id="Fill-115" points="8.84220351 5.20129618 7.80194427 4.16103695 6.76168504 5.20129618 6.76168504 0 8.84220351 0"></polygon>
                        <path d="M4.68116656,8.10668822 L4.52876859,7.95429024 C4.43150435,7.857026 4.29887129,7.80189226 4.16103695,7.80189226 L1.04025924,7.80189226 L1.04025924,2.08046646 L3.94570328,2.08046646 L4.68116656,2.81592974 L4.68116656,8.10668822 Z M9.88246275,1.04020722 L9.36233313,1.04020722 L9.36233313,7.80189226 L6.24155542,7.80189226 C6.10372107,7.80189226 5.97108802,7.857026 5.87382378,7.95429024 L5.7214258,8.10668822 L5.7214258,2.81592974 L6.24155542,2.29580012 L6.24155542,1.04020722 C6.10372107,1.04020722 5.97108802,1.09534096 5.87382378,1.1926052 L5.20129618,1.8651328 L4.52876859,1.1926052 C4.43150435,1.09534096 4.29887129,1.04020722 4.16103695,1.04020722 L0.520129618,1.04020722 C0.233018069,1.04020722 0,1.27322529 0,1.56033684 L0,8.32202188 C0,8.60913343 0.233018069,8.8421515 0.520129618,8.8421515 L3.94570328,8.8421515 L4.83356454,9.73001276 C4.93498982,9.83143803 5.068143,9.88241073 5.20129618,9.88241073 C5.33444936,9.88241073 5.46760255,9.83143803 5.56902782,9.73001276 L6.45688908,8.8421515 L9.88246275,8.8421515 C10.1695743,8.8421515 10.4025924,8.60913343 10.4025924,8.32202188 L10.4025924,1.56033684 C10.4025924,1.27322529 10.1695743,1.04020722 9.88246275,1.04020722 L9.88246275,1.04020722 Z" id="Fill-116"></path>
                        <polygon id="Fill-117" points="4.16103695 3.64090733 2.60064809 3.64090733 2.60064809 2.60064809 4.16103695 2.60064809"></polygon>
                        <polygon id="Fill-118" points="4.16103695 5.20129618 1.56038885 5.20129618 1.56038885 4.16103695 4.16103695 4.16103695"></polygon>
                        <polygon id="Fill-119" points="4.16103695 6.76168504 1.56038885 6.76168504 1.56038885 5.7214258 4.16103695 5.7214258"></polygon>
                    </g>
                </g>
            </g>
            <g id="Group-10" transform="translate(78.120000, 35.280000)" fill="#00D5A0" fill-rule="nonzero">
                <path d="M4.9266,12.1512 C6.6276,12.1512 7.6608,11.2692 8.3034,10.2612 L7.0434,9.6186 C6.6402,10.3242 5.8338,10.8408 4.9266,10.8408 C3.2634,10.8408 2.0286,9.5682 2.0286,7.8042 C2.0286,6.0402 3.2634,4.7676 4.9266,4.7676 C5.8338,4.7676 6.6402,5.2968 7.0434,5.9898 L8.3034,5.3472 C7.6734,4.3392 6.6276,3.4572 4.9266,3.4572 C2.4444,3.4572 0.5166,5.2212 0.5166,7.8042 C0.5166,10.3872 2.4444,12.1512 4.9266,12.1512 Z M11.2014,12.1512 C12.0078,12.1512 12.7134,11.8614 13.167,11.3448 L13.167,12 L14.49,12 L14.49,7.968 C14.49,6.33 13.3056,5.763 11.9574,5.763 C10.9872,5.763 10.1052,6.078 9.3996,6.7458 L9.9414,7.6656 C10.4706,7.149 11.0628,6.897 11.7432,6.897 C12.5874,6.897 13.167,7.3254 13.167,8.031 L13.167,8.9382 C12.726,8.4216 12.0204,8.157 11.2014,8.157 C10.206,8.157 9.0846,8.7366 9.0846,10.1352 C9.0846,11.4834 10.206,12.1512 11.2014,12.1512 Z M11.718,11.244 C10.9746,11.244 10.4202,10.8156 10.4202,10.1604 C10.4202,9.4926 10.9746,9.0642 11.718,9.0642 C12.2976,9.0642 12.8646,9.2784 13.167,9.6942 L13.167,10.614 C12.8646,11.0298 12.2976,11.244 11.718,11.244 Z M17.5266,12 L17.5266,7.8546 C17.7912,7.4262 18.5346,7.0482 19.089,7.0482 C19.2528,7.0482 19.3914,7.0608 19.5048,7.086 L19.5048,5.7756 C18.711,5.7756 17.9802,6.2292 17.5266,6.8088 L17.5266,5.9142 L16.2036,5.9142 L16.2036,12 L17.5266,12 Z M22.9068,12.1512 C23.688,12.1512 24.3936,11.7732 24.8598,11.1684 L24.8598,12 L26.1828,12 L26.1828,3.5958 L24.8598,3.5958 L24.8598,6.7584 C24.3684,6.1158 23.6628,5.763 22.9068,5.763 C21.3318,5.763 20.1978,6.9978 20.1978,8.9634 C20.1978,10.9668 21.3444,12.1512 22.9068,12.1512 Z M23.2848,10.9794 C22.239,10.9794 21.5712,10.1352 21.5712,8.9634 C21.5712,7.779 22.239,6.9348 23.2848,6.9348 C23.9148,6.9348 24.5574,7.3002 24.8598,7.7538 L24.8598,10.173 C24.5574,10.6266 23.9148,10.9794 23.2848,10.9794 Z" id="Card"></path>
            </g>
            <g id="Group-11" transform="translate(117.180000, 38.280000)" fill="#242C38" fill-rule="nonzero">
                <g id="Group-9">
                    <path d="M3.8556,9 C6.4638,9 8.1648,7.1982 8.1648,4.8042 C8.1648,2.4228 6.4638,0.5958 3.8556,0.5958 L0.9828,0.5958 L0.9828,9 L3.8556,9 Z M3.8556,8.0676 L2.0286,8.0676 L2.0286,1.5282 L3.8556,1.5282 C5.9346,1.5282 7.0812,2.9898 7.0812,4.8042 C7.0812,6.606 5.8968,8.0676 3.8556,8.0676 Z M12.5118,9.1512 C13.5072,9.1512 14.3262,8.8236 14.931,8.2188 L14.4774,7.6014 C13.9986,8.0928 13.293,8.37 12.6,8.37 C11.2896,8.37 10.4832,7.4124 10.4076,6.2658 L15.3342,6.2658 L15.3342,6.0264 C15.3342,4.1994 14.2506,2.763 12.411,2.763 C10.6722,2.763 9.4122,4.1868 9.4122,5.9508 C9.4122,7.8534 10.71,9.1512 12.5118,9.1512 Z M14.4018,5.5728 L10.4076,5.5728 C10.458,4.6404 11.1006,3.5442 12.3984,3.5442 C13.7844,3.5442 14.3892,4.6656 14.4018,5.5728 Z M18.396,9.1512 C18.9504,9.1512 19.2906,8.9874 19.53,8.7606 L19.2528,8.055 C19.1268,8.1936 18.8748,8.307 18.6102,8.307 C18.1944,8.307 17.9928,7.9794 17.9928,7.5258 L17.9928,3.7458 L19.2276,3.7458 L19.2276,2.9142 L17.9928,2.9142 L17.9928,1.251 L17.0478,1.251 L17.0478,2.9142 L16.0398,2.9142 L16.0398,3.7458 L17.0478,3.7458 L17.0478,7.7274 C17.0478,8.6346 17.5014,9.1512 18.396,9.1512 Z M22.3524,9.1512 C23.1714,9.1512 23.8644,8.8614 24.3684,8.307 L24.3684,9 L25.3134,9 L25.3134,4.8168 C25.3134,3.3426 24.2424,2.763 22.9572,2.763 C21.9618,2.763 21.1806,3.0906 20.5254,3.771 L20.9664,4.4262 C21.5082,3.8466 22.1004,3.582 22.8312,3.582 C23.7132,3.582 24.3684,4.0482 24.3684,4.8672 L24.3684,5.9634 C23.877,5.3964 23.184,5.1318 22.3524,5.1318 C21.3192,5.1318 20.223,5.7744 20.223,7.1352 C20.223,8.4582 21.3192,9.1512 22.3524,9.1512 Z M22.6926,8.4708 C21.8106,8.4708 21.1932,7.9164 21.1932,7.1478 C21.1932,6.3666 21.8106,5.8122 22.6926,5.8122 C23.3604,5.8122 24.003,6.0642 24.3684,6.5682 L24.3684,7.7148 C24.003,8.2188 23.3604,8.4708 22.6926,8.4708 Z M27.6696,2.0448 C28.0224,2.0448 28.3122,1.7676 28.3122,1.4148 C28.3122,1.062 28.0224,0.7722 27.6696,0.7722 C27.3294,0.7722 27.0396,1.062 27.0396,1.4148 C27.0396,1.7676 27.3294,2.0448 27.6696,2.0448 Z M28.1484,9 L28.1484,2.9142 L27.2034,2.9142 L27.2034,9 L28.1484,9 Z M30.9834,9 L30.9834,0.5958 L30.0384,0.5958 L30.0384,9 L30.9834,9 Z M34.8012,9.1512 C36.3762,9.1512 37.1952,8.3322 37.1952,7.3116 C37.1952,4.9428 33.4278,5.8248 33.4278,4.4892 C33.4278,3.9474 33.9444,3.5316 34.776,3.5316 C35.5572,3.5316 36.225,3.8592 36.5904,4.3002 L37.0314,3.645 C36.54,3.1536 35.8092,2.763 34.776,2.763 C33.327,2.763 32.508,3.5694 32.508,4.5144 C32.508,6.7698 36.2754,5.8626 36.2754,7.3368 C36.2754,7.9416 35.7714,8.3826 34.839,8.3826 C34.0074,8.3826 33.2388,7.9794 32.8356,7.5132 L32.3442,8.1936 C32.9616,8.8488 33.8058,9.1512 34.8012,9.1512 Z" id="Details"></path>
                </g>
            </g>
            <g id="Group-8" transform="translate(166.320000, 38.280000)" fill="#242C38" fill-rule="nonzero">
                <path d="M4.9644,9.1512 C6.4512,9.1512 7.4592,8.4456 8.1648,7.488 L7.2702,6.9966 C6.7914,7.7148 5.922,8.2188 4.9644,8.2188 C3.1248,8.2188 1.7262,6.795 1.7262,4.8042 C1.7262,2.8008 3.1248,1.3896 4.9644,1.3896 C5.922,1.3896 6.7914,1.9062 7.2702,2.6118 L8.1522,2.1204 C7.4844,1.1754 6.4512,0.4572 4.9644,0.4572 C2.5452,0.4572 0.6426,2.2212 0.6426,4.8042 C0.6426,7.3872 2.5452,9.1512 4.9644,9.1512 Z M12.1212,9.1512 C13.9734,9.1512 15.1326,7.7148 15.1326,5.9508 C15.1326,4.1868 13.9734,2.763 12.1212,2.763 C10.269,2.763 9.1098,4.1868 9.1098,5.9508 C9.1098,7.7148 10.269,9.1512 12.1212,9.1512 Z M12.1212,8.307 C10.8234,8.307 10.0926,7.1982 10.0926,5.9508 C10.0926,4.716 10.8234,3.6072 12.1212,3.6072 C13.419,3.6072 14.1372,4.716 14.1372,5.9508 C14.1372,7.1982 13.419,8.307 12.1212,8.307 Z M17.6148,9 L17.6148,4.5522 C17.9424,4.0608 18.5976,3.6072 19.215,3.6072 C20.0088,3.6072 20.3364,4.0986 20.3364,4.8672 L20.3364,9 L21.2814,9 L21.2814,4.5396 C21.5964,4.0608 22.2642,3.6072 22.8942,3.6072 C23.6754,3.6072 24.0156,4.0986 24.0156,4.8672 L24.0156,9 L24.9606,9 L24.9606,4.6026 C24.9606,3.3804 24.3684,2.763 23.2596,2.763 C22.3776,2.763 21.5586,3.3426 21.2184,3.897 C21.042,3.267 20.5128,2.763 19.5804,2.763 C18.6858,2.763 17.8668,3.4056 17.6148,3.7962 L17.6148,2.9142 L16.6698,2.9142 L16.6698,9 L17.6148,9 Z M27.7956,9 L27.7956,4.5522 C28.1232,4.0608 28.7784,3.6072 29.3958,3.6072 C30.1896,3.6072 30.5172,4.0986 30.5172,4.8672 L30.5172,9 L31.4622,9 L31.4622,4.5396 C31.7772,4.0608 32.445,3.6072 33.075,3.6072 C33.8562,3.6072 34.1964,4.0986 34.1964,4.8672 L34.1964,9 L35.1414,9 L35.1414,4.6026 C35.1414,3.3804 34.5492,2.763 33.4404,2.763 C32.5584,2.763 31.7394,3.3426 31.3992,3.897 C31.2228,3.267 30.6936,2.763 29.7612,2.763 C28.8666,2.763 28.0476,3.4056 27.7956,3.7962 L27.7956,2.9142 L26.8506,2.9142 L26.8506,9 L27.7956,9 Z M39.7782,9.1512 C40.7736,9.1512 41.5926,8.8236 42.1974,8.2188 L41.7438,7.6014 C41.265,8.0928 40.5594,8.37 39.8664,8.37 C38.556,8.37 37.7496,7.4124 37.674,6.2658 L42.6006,6.2658 L42.6006,6.0264 C42.6006,4.1994 41.517,2.763 39.6774,2.763 C37.9386,2.763 36.6786,4.1868 36.6786,5.9508 C36.6786,7.8534 37.9764,9.1512 39.7782,9.1512 Z M41.6682,5.5728 L37.674,5.5728 C37.7244,4.6404 38.367,3.5442 39.6648,3.5442 C41.0508,3.5442 41.6556,4.6656 41.6682,5.5728 Z M45.0702,9 L45.0702,4.5522 C45.423,4.0608 46.1286,3.6072 46.872,3.6072 C47.691,3.6072 48.2328,3.9474 48.2328,5.0184 L48.2328,9 L49.1778,9 L49.1778,4.7286 C49.1778,3.4056 48.51,2.763 47.2374,2.763 C46.3302,2.763 45.4986,3.2922 45.0702,3.7962 L45.0702,2.9142 L44.1252,2.9142 L44.1252,9 L45.0702,9 Z M52.605,9.1512 C53.1594,9.1512 53.4996,8.9874 53.739,8.7606 L53.4618,8.055 C53.3358,8.1936 53.0838,8.307 52.8192,8.307 C52.4034,8.307 52.2018,7.9794 52.2018,7.5258 L52.2018,3.7458 L53.4366,3.7458 L53.4366,2.9142 L52.2018,2.9142 L52.2018,1.251 L51.2568,1.251 L51.2568,2.9142 L50.2488,2.9142 L50.2488,3.7458 L51.2568,3.7458 L51.2568,7.7274 C51.2568,8.6346 51.7104,9.1512 52.605,9.1512 Z M56.7,9.1512 C58.275,9.1512 59.094,8.3322 59.094,7.3116 C59.094,4.9428 55.3266,5.8248 55.3266,4.4892 C55.3266,3.9474 55.8432,3.5316 56.6748,3.5316 C57.456,3.5316 58.1238,3.8592 58.4892,4.3002 L58.9302,3.645 C58.4388,3.1536 57.708,2.763 56.6748,2.763 C55.2258,2.763 54.4068,3.5694 54.4068,4.5144 C54.4068,6.7698 58.1742,5.8626 58.1742,7.3368 C58.1742,7.9416 57.6702,8.3826 56.7378,8.3826 C55.9062,8.3826 55.1376,7.9794 54.7344,7.5132 L54.243,8.1936 C54.8604,8.8488 55.7046,9.1512 56.7,9.1512 Z" id="Comments"></path>
            </g>
        </g>
    </g>
</svg>