<?xml version="1.0" encoding="UTF-8"?>
<svg width="209px" height="53px" viewBox="0 0 209 53" version="1.1" xmlns="http://www.w3.org/2000/svg" xmlns:xlink="http://www.w3.org/1999/xlink">
    <title>Group 3</title>
    <defs>
        <radialGradient cx="-0.247729149%" cy="-0.139567341%" fx="-0.247729149%" fy="-0.139567341%" r="137.819983%" gradientTransform="translate(-0.002477,-0.001396),scale(1.000000,0.845080),translate(0.002477,0.001396)" id="radialGradient-1">
            <stop stop-color="#000000" offset="0%"></stop>
            <stop stop-color="#000000" offset="100%"></stop>
        </radialGradient>
        <radialGradient cx="-0.363196126%" cy="-16.0120846%" fx="-0.363196126%" fy="-16.0120846%" r="230.871671%" gradientTransform="translate(-0.003632,-0.160121),scale(1.000000,0.499094),translate(0.003632,0.160121)" id="radialGradient-2">
            <stop stop-color="#000000" offset="0%"></stop>
            <stop stop-color="#000000" offset="100%"></stop>
        </radialGradient>
        <radialGradient cx="-0.906892382%" cy="-0.451467269%" fx="-0.906892382%" fy="-0.451467269%" r="380.361174%" gradientTransform="translate(-0.009069,-0.004515),scale(0.267836,1.000000),translate(0.009069,0.004515)" id="radialGradient-3">
            <stop stop-color="#3E2723" offset="0%"></stop>
            <stop stop-color="#3E2723" offset="100%"></stop>
        </radialGradient>
    </defs>
    <g id="Page-1" stroke="none" stroke-width="1" fill="none" fill-rule="evenodd">
        <g id="Dashboard---Ext-Prompt" transform="translate(-1173.000000, -131.000000)">
            <g id="Group-3" transform="translate(1173.000000, 131.000000)">
                <path d="M49.3813274,25.8855833 L46.0013274,13.1295833 C43.4843274,3.61358334 34.0233274,-1.97041666 24.8553274,0.643583336 L12.6003274,4.16758334 C3.47232735,6.78058334 -1.89967265,16.6135833 0.622327352,26.1395833 L3.99632735,38.8925833 C6.51332735,48.4085833 15.9743274,53.9925833 25.1423274,51.3735833 L37.3973274,47.8475833 C46.5253274,45.2445833 51.8973274,35.4025833 49.3813274,25.8855833" id="Fill-1" fill="#000000"></path>
                <path d="M29.8671714,38.996 C28.4011714,39.557 26.8451714,39.847 25.2751714,39.8520053 C24.2271714,39.853 23.1851714,39.713 22.1751714,39.433 C14.6551714,37.209 10.3621714,29.309 12.5871714,21.789 C13.2251714,19.632 14.3671714,17.658 15.9171714,16.028 C18.3491714,13.48 21.7091714,12.027 25.2311714,12 C31.5151714,12.07 35.3011714,16.848 35.4771714,17.035 C35.9151714,17.601 35.8361714,18.411 35.2961714,18.882 C34.7771714,19.323 33.9991714,19.259 33.5581714,18.74 L33.5581714,18.74 L33.5191714,18.692 C31.4231714,16.247 28.4141714,14.77 25.1981714,14.609 L25.0981714,14.609 C22.2901714,14.675 19.6231714,15.856 17.6871714,17.891 C15.6061714,20.05 14.4681714,22.948 14.5251714,25.947 C14.5801714,31.026 17.9501714,35.472 22.8251714,36.898 C24.8681714,37.431 27.0281714,37.302 28.9931714,36.53 C31.5961714,35.588 33.6561714,33.551 34.6271714,30.957 C35.5891714,30.414 36.5151714,29.808 37.3981714,29.143 C37.5361714,33.643 33.7491714,37.521 29.8671714,38.996" id="Fill-3" fill="#FFFFFF"></path>
                <path d="M49.3813274,25.8855833 L46.0013274,13.1295833 C43.4843274,3.61358334 34.0233274,-1.97041666 24.8553274,0.643583336 L12.6003274,4.16758334 C3.47232735,6.78058334 -1.89967265,16.6135833 0.622327352,26.1395833 L3.99632735,38.8925833 C6.51332735,48.4085833 15.9743274,53.9925833 25.1423274,51.3735833 L37.3973274,47.8475833 C46.5253274,45.2445833 51.8973274,35.4015833 49.3813274,25.8855833" id="Fill-5" fill="#000000"></path>
                <path d="M29.8671714,38.996 C28.4011714,39.558 26.8451714,39.848 25.2751714,39.8520211 C24.2271714,39.854 23.1851714,39.714 22.1751714,39.434 C14.6551714,37.21 10.3621714,29.309 12.5871714,21.789 C13.2251714,19.632 14.3671714,17.658 15.9171714,16.028 C18.3491714,13.481 21.7091714,12.027 25.2311714,12 C31.5151714,12.07 35.3011714,16.849 35.4771714,17.036 C35.9151714,17.602 35.8361714,18.412 35.2961714,18.882 C34.7771714,19.323 33.9991714,19.26 33.5581714,18.741 L33.5581714,18.74 L33.5191714,18.692 C31.4231714,16.247 28.4141714,14.771 25.1981714,14.609 L25.0981714,14.609 C22.2901714,14.676 19.6231714,15.856 17.6871714,17.892 C15.6061714,20.051 14.4681714,22.949 14.5251714,25.947 C14.5801714,31.026 17.9501714,35.473 22.8251714,36.898 C24.8681714,37.431 27.0281714,37.302 28.9931714,36.53 C31.5961714,35.588 33.6561714,33.551 34.6271714,30.957 C35.5891714,30.415 36.5151714,29.808 37.3981714,29.144 C37.5361714,33.644 33.7491714,37.521 29.8671714,38.996" id="Fill-7" fill="#FFFFFF"></path>
                <path d="M40.4596144,24.189186 C39.4806144,25.254186 38.4006144,26.221186 37.2326144,27.074186 C36.5086144,27.618186 35.7426144,28.106186 34.9416144,28.529186 C33.3226144,29.453186 31.4936144,29.949186 29.6296144,29.969186 C26.2616144,29.895186 25.0296144,27.955186 25.0026144,26.169186 C24.9666144,25.234186 25.3036144,24.323186 25.9386144,23.636186 C26.9106144,22.716186 28.2246144,22.248186 29.5586144,22.347186 C31.9026144,22.377186 34.1526144,23.276186 35.8716144,24.869186 C36.8556144,24.138186 37.7706144,23.318186 38.6066144,22.422186 C39.0496144,21.912186 39.8216144,21.856186 40.3336144,22.298186 C40.3526144,22.315186 40.3716144,22.332186 40.3886144,22.350186 C40.8946144,22.848186 40.9256144,23.653186 40.4596144,24.189186" id="Fill-9" fill="#FFFFFF"></path>
                <path d="M27.2316894,25.5052772 C27.0616894,25.6922772 26.9786894,25.9432772 27.0046894,26.1952772 C27.0046894,27.1512772 28.1886894,27.3822772 29.1646894,27.4032772 C30.5366894,27.3902772 31.8836894,27.0342772 33.0816894,26.3662772 C31.9006894,25.5322772 30.4996894,25.0662772 29.0536894,25.0272772 C28.4066894,24.9282772 27.7476894,25.1012772 27.2316894,25.5052772" id="Fill-11" fill="#000000"></path>
                <path d="M114.1944,17.6046 C113.7964,17.6046 113.4674,17.2936 113.4454,16.8966 C113.4234,16.4826 113.7394,16.1286 114.1534,16.1056 C114.4694,16.0886 114.7864,16.0766 115.1024,16.0716 L115.6024,16.0666 C115.8024,16.0666 116.0024,16.0666 116.2114,16.0736 C116.6254,16.0826 116.9544,16.4246 116.9464,16.8386 C116.9324,17.2506 116.5924,17.5756 116.1804,17.5726 C115.9884,17.5726 115.7954,17.5666 115.6024,17.5666 L115.1314,17.5666 C114.8314,17.5726 114.5314,17.5826 114.2384,17.5996 L114.1944,17.6046 Z M95.4044,18.1926 L95.3414,18.1926 C94.6874,18.1386 94.0334,18.0996 93.3794,18.0746 C92.9654,18.0596 92.6424,17.7116 92.6574,17.2976 L92.6574,17.2966 C92.6804,16.8856 93.0244,16.5676 93.4354,16.5756 C94.1134,16.6006 94.7904,16.6416 95.4664,16.6986 C95.8794,16.7326 96.1854,17.0956 96.1514,17.5076 L96.1514,17.5086 C96.1174,17.8936 95.7974,18.1886 95.4114,18.1926 L95.4044,18.1926 Z M122.1504,18.2426 C122.1034,18.2426 122.0554,18.2386 122.0094,18.2296 C121.3644,18.1066 120.7184,17.9966 120.0704,17.9046 C119.6604,17.8466 119.3764,17.4666 119.4344,17.0576 L119.4344,17.0566 C119.4924,16.6466 119.8714,16.3616 120.2814,16.4206 C120.9474,16.5166 121.6164,16.6286 122.2874,16.7566 C122.6944,16.8336 122.9634,17.2256 122.8874,17.6336 C122.8204,17.9856 122.5134,18.2406 122.1554,18.2436 L122.1504,18.2426 Z M87.4134,18.2576 C87.0274,18.2576 86.7054,17.9646 86.6684,17.5816 C86.6274,17.1696 86.9274,16.8026 87.3394,16.7616 L87.3394,16.7616 C88.0134,16.6946 88.6894,16.6436 89.3664,16.6066 C89.7794,16.5856 90.1324,16.9026 90.1554,17.3156 C90.1784,17.7286 89.8614,18.0816 89.4484,18.1046 L89.4484,18.1046 C88.7944,18.1396 88.1394,18.1906 87.4874,18.2546 C87.4654,18.2556 87.4424,18.2556 87.4194,18.2546 L87.4134,18.2576 Z M108.3174,18.7266 C107.9984,18.7276 107.7144,18.5266 107.6084,18.2266 C107.4734,17.8346 107.6814,17.4086 108.0724,17.2736 C108.7134,17.0526 109.3834,16.8596 110.0644,16.6976 C110.4664,16.6036 110.8694,16.8526 110.9644,17.2556 C111.0584,17.6576 110.8094,18.0596 110.4074,18.1556 C109.7754,18.3056 109.1534,18.4846 108.5584,18.6896 C108.4824,18.7146 108.4034,18.7276 108.3234,18.7276 L108.3174,18.7266 Z M101.3264,19.1176 C101.2684,19.1176 101.2104,19.1106 101.1534,19.0966 C100.7294,18.9966 100.3044,18.9056 99.8814,18.8226 C99.6654,18.7806 99.4494,18.7396 99.2354,18.7016 C98.8274,18.6286 98.5564,18.2396 98.6284,17.8326 C98.7024,17.4256 99.0904,17.1546 99.4984,17.2256 C99.7224,17.2646 99.9454,17.3056 100.1694,17.3506 C100.6114,17.4376 101.0554,17.5326 101.4984,17.6366 C101.9004,17.7326 102.1484,18.1346 102.0554,18.5366 C101.9774,18.8736 101.6784,19.1126 101.3334,19.1166 L101.3264,19.1176 Z M81.5004,19.2536 C81.1534,19.2526 80.8514,19.0146 80.7714,18.6776 C80.6774,18.2756 80.9254,17.8736 81.3264,17.7776 C81.9864,17.6196 82.6494,17.4776 83.3154,17.3506 C83.7234,17.2736 84.1164,17.5426 84.1934,17.9506 C84.2704,18.3576 84.0034,18.7496 83.5964,18.8266 C83.5954,18.8276 83.5944,18.8276 83.5934,18.8276 C82.9494,18.9516 82.3084,19.0886 81.6714,19.2406 C81.6174,19.2506 81.5624,19.2546 81.5074,19.2536 L81.5004,19.2536 Z M127.9804,19.6536 C127.9124,19.6536 127.8454,19.6446 127.7804,19.6266 C127.1434,19.4496 126.5034,19.2776 125.8624,19.1116 C125.4614,19.0086 125.2194,18.6016 125.3224,18.2006 L125.3224,18.1996 C125.4274,17.7986 125.8354,17.5586 126.2364,17.6606 C126.8864,17.8286 127.5344,18.0026 128.1814,18.1826 C128.5804,18.2926 128.8144,18.7066 128.7034,19.1056 C128.6134,19.4276 128.3214,19.6506 127.9874,19.6526 L127.9804,19.6536 Z M75.7804,21.0396039 C75.4704,21.0406 75.1924,20.8496 75.0804,20.5606 C74.9304,20.1746 75.1214,19.7406 75.5064,19.5906 L75.5074,19.5906 C76.1394,19.3456 76.7764,19.1146 77.4194,18.8976 C77.8124,18.7656 78.2364,18.9776 78.3694,19.3696 C78.5024,19.7616 78.2914,20.1866 77.9004,20.3186 C77.8994,20.3186 77.8994,20.3196 77.8984,20.3196 C77.2774,20.5296 76.6614,20.7526 76.0504,20.9886 C75.9654,21.0216 75.8744,21.0386 75.7824,21.0376 L75.7804,21.0396039 Z M133.7644,21.2466 C133.6994,21.2466 133.6344,21.2386 133.5714,21.2216 C132.9874,21.0656 132.3484,20.8946 131.6374,20.7006 C131.2384,20.5916 131.0024,20.1806 131.1104,19.7816 C131.1104,19.7806 131.1114,19.7796 131.1114,19.7796 C131.2194,19.3806 131.6294,19.1456 132.0284,19.2526 C132.7364,19.4456 133.3714,19.6156 133.9534,19.7706 C134.3534,19.8776 134.5914,20.2886 134.4854,20.6886 C134.3974,21.0126 134.1044,21.2396 133.7684,21.2426 L133.7644,21.2466 Z M103.0994,21.6176075 C102.8774,21.6186 102.6654,21.5196 102.5234,21.3486 C102.2594,21.0286 102.3044,20.5556 102.6234,20.2916 C103.1624,19.8446 103.7304,19.4326 104.3234,19.0596 C104.4394,18.9866 104.5734,18.9466 104.7114,18.9446 C104.9184,18.7896 105.1904,18.7516 105.4314,18.8446 C106.0854,19.0996 106.7214,19.3796 107.3214,19.6766 C107.6924,19.8606 107.8444,20.3106 107.6614,20.6816 C107.4784,21.0496 107.0314,21.2016 106.6614,21.0206 C106.1704,20.7776 105.6524,20.5466 105.1184,20.3316 C104.5864,20.6676 104.0764,21.0386 103.5924,21.4416 C103.4554,21.5566 103.2814,21.6176075 103.1024,21.6146 L103.0994,21.6176075 Z M139.5134,22.9176 C139.4294,22.9176 139.3464,22.9036 139.2674,22.8756 C138.6134,22.6486 138.0084,22.4546 137.3974,22.2756 C137.0024,22.1546 136.7784,21.7376 136.8974,21.3416 C137.0174,20.9456 137.4354,20.7226 137.8314,20.8416 C138.4644,21.0316 139.0874,21.2316 139.7624,21.4656 C140.1524,21.6016 140.3594,22.0286 140.2244,22.4196 C140.1184,22.7196 139.8344,22.9196 139.5164,22.9196 L139.5134,22.9176 Z M70.3574,23.5866 C70.0864,23.5866 69.8354,23.4396 69.7024,23.2036 C69.5004,22.8416 69.6294,22.3846 69.9904,22.1826 C70.5824,21.8496 71.1824,21.5316 71.7904,21.2296 C72.1614,21.0446 72.6114,21.1956 72.7964,21.5656 C72.9814,21.9366 72.8314,22.3866 72.4604,22.5716 C71.8744,22.8656 71.2954,23.1716 70.7244,23.4906 C70.6134,23.5546 70.4884,23.5896 70.3604,23.5906 L70.3574,23.5866 Z M111.7984,24.6176 C111.5884,24.6176 111.3874,24.5296 111.2454,24.3746 C110.8174,23.9096 110.3574,23.4756 109.8694,23.0746 C109.5504,22.8106 109.5054,22.3376 109.7694,22.0186 L109.7694,22.0186 C110.0334,21.6996 110.5064,21.6546 110.8254,21.9176 L110.8254,21.9186 C111.3674,22.3646 111.8784,22.8466 112.3544,23.3626 C112.6324,23.6656 112.6144,24.1366 112.3134,24.4176 C112.1744,24.5436 111.9934,24.6136 111.8064,24.6126 L111.7984,24.6176 Z M99.5134,26.3536 C99.4094,26.3536 99.3074,26.3316 99.2134,26.2896 C98.8344,26.1226 98.6634,25.6796 98.8304,25.3006 C99.1154,24.6556 99.4504,24.0326 99.8304,23.4386 C100.0524,23.0896 100.5154,22.9866 100.8644,23.2096 C101.2124,23.4336 101.3134,23.8966 101.0914,24.2456 C100.7524,24.7746 100.4544,25.3296 100.2014,25.9056 C100.0804,26.1766 99.8114,26.3526 99.5144,26.3526 L99.5134,26.3536 Z M114.5334,29.8626 C114.1774,29.8626 113.8704,29.6116 113.7994,29.2626 C113.6744,28.6536 113.4944,28.0566 113.2624,27.4806 C113.1074,27.0966 113.2924,26.6596 113.6764,26.5046 C114.0594,26.3486 114.4964,26.5326 114.6524,26.9156 C114.9184,27.5766 115.1254,28.2596 115.2684,28.9586 C115.3524,29.3646 115.0904,29.7606 114.6854,29.8436 C114.6844,29.8436 114.6844,29.8436 114.6844,29.8446 C114.6354,29.8546 114.5854,29.8606 114.5354,29.8606 L114.5334,29.8626 Z M98.4984,32.2016 C98.1114,32.2016 97.7894,31.9086 97.7524,31.5236 C97.7184,31.1676 97.7014,30.8106 97.7014,30.4526 C97.7014,30.0946 97.7184,29.7416 97.7504,29.3866 C97.7894,28.9746 98.1524,28.6706 98.5654,28.7076 C98.9774,28.7456 99.2814,29.1106 99.2444,29.5226 C99.2164,29.8326 99.2014,30.1436 99.2014,30.4526 C99.2014,30.7616 99.2164,31.0726 99.2454,31.3796 C99.2854,31.7926 98.9844,32.1586 98.5724,32.1986 L98.5034,32.1986 L98.4984,32.2016 Z M114.0984,35.7666 C114.0044,35.7666 113.9104,35.7486 113.8234,35.7126 C113.4384,35.5616 113.2494,35.1256 113.4014,34.7406 C113.6254,34.1676 113.7874,33.5746 113.8864,32.9666 C113.9554,32.5596 114.3404,32.2846 114.7484,32.3506 C115.1564,32.4176 115.4334,32.8036 115.3664,33.2116 C115.2504,33.9236 115.0594,34.6206 114.7964,35.2916 C114.6834,35.5776 114.4084,35.7646 114.1014,35.7666 L114.0984,35.7666 Z M100.8924,37.5786 C100.6884,37.5786 100.4924,37.4956 100.3514,37.3476 C99.8474,36.8246 99.4074,36.2436 99.0404,35.6176 C98.8314,35.2596 98.9514,34.8006 99.3084,34.5906 C99.6654,34.3826 100.1244,34.5016 100.3344,34.8586 C100.6434,35.3816 101.0124,35.8686 101.4344,36.3066 C101.7214,36.6046 101.7124,37.0786 101.4144,37.3656 C101.2754,37.5006 101.0904,37.5766 100.8964,37.5766 L100.8924,37.5786 Z M110.0464,39.9546039 C109.7364,39.9556 109.4584,39.7656 109.3464,39.4776 C109.1954,39.0926 109.3844,38.6586 109.7694,38.5076 C109.7694,38.5076 109.7704,38.5076 109.7704,38.5066 C110.0604,38.3946 110.3404,38.2576 110.6084,38.1006 C110.8524,37.9586 111.0864,37.7986 111.3084,37.6246 C111.6344,37.3696 112.1054,37.4246 112.3624,37.7496 C112.6184,38.0746 112.5624,38.5446 112.2374,38.8006 C111.9624,39.0186 111.6714,39.2166 111.3684,39.3936 C111.0324,39.5906 110.6814,39.7616 110.3194,39.9036 C110.2334,39.9366 110.1414,39.9546039 110.0494,39.9546039 L110.0464,39.9546039 Z M106.1134,40.3286 C106.0724,40.3286 106.0324,40.3256 105.9924,40.3196 C105.2794,40.2026 104.5814,40.0076 103.9104,39.7386 C103.5264,39.5836 103.3394,39.1476 103.4924,38.7626 L103.4934,38.7626 C103.6474,38.3776 104.0844,38.1916 104.4684,38.3456 C105.0364,38.5746 105.6274,38.7396 106.2314,38.8376 C106.6404,38.9046 106.9184,39.2896 106.8524,39.6986 L106.8524,39.6986 C106.7934,40.0606 106.4804,40.3276 106.1134,40.3286 L106.1134,40.3286 Z" id="Fill-13" fill="#000000"></path>
                <polygon id="Fill-15" fill="#000000" points="137.4131 26.1983 146.2881 24.8703 140.6991 17.8473"></polygon>
                <polygon id="Fill-17" fill="#000000" points="69.5874 17.8472 64.0004 24.8702 72.8754 26.1982"></polygon>
                <g id="Group-2" transform="translate(161.000000, 2.000000)" fill-rule="nonzero">
                    <rect id="Rectangle" fill="#FFFFFF" x="-8.17124146e-14" y="3.55271368e-15" width="47.43" height="47.43" rx="8.82"></rect>
                    <path d="M23.69,23.72 L23.69,23.72 L23.69,14.16 L40.25,14.16 C36.95,7.77 30.79,4.6 23.71,4.6 C16.8824872,4.60451063 10.5766064,8.25307648 7.17,14.17 L15.42,28.5 L23.69,23.72 Z" id="Path" fill="#DB4437"></path>
                    <path d="M23.69,14.16 L23.69,23.72 L23.69,23.72 L31.98,28.5 L23.71,42.84 L23.71,42.84 C34.2696844,42.84 42.83,34.2796844 42.83,23.72 C42.7875006,20.3670926 41.9001408,17.079046 40.25,14.16 L23.69,14.16 Z" id="Path" fill="#FFCD40"></path>
                    <path d="M23.69,23.72 L23.69,23.72 L15.42,28.5 L7.12,14.17 C3.69706181,20.0821678 3.69239954,27.3723308 7.10777292,33.2888719 C10.5231463,39.205413 16.8384423,42.8473267 23.67,42.840011 L31.94,28.5 L23.69,23.72 Z" id="Path" fill="#0F9D58"></path>
                    <g id="Group" opacity="0.4" transform="translate(6.470000, 13.520000)" fill="url(#radialGradient-1)">
                        <g id="Path">
                            <polygon style="mix-blend-mode: multiply;" points="0.68 0.65 12.79 12.77 8.97 14.98"></polygon>
                        </g>
                    </g>
                    <g id="Group" opacity="0.4" transform="translate(23.470000, 25.520000)" fill="url(#radialGradient-2)">
                        <g id="Path">
                            <polygon style="mix-blend-mode: multiply;" points="0.26 17.32 4.7 0.77 8.52 2.98"></polygon>
                        </g>
                    </g>
                    <g id="Group" opacity="0.4" transform="translate(23.470000, 13.520000)" fill="url(#radialGradient-3)">
                        <g id="Path">
                            <polygon style="mix-blend-mode: multiply;" points="16.79 0.62 0.25 5.05 0.25 0.64"></polygon>
                        </g>
                    </g>
                    <circle id="Oval" fill="#F1F1F1" cx="23.72" cy="23.72" r="9.56"></circle>
                    <circle id="Oval" fill="#4285F4" cx="23.72" cy="23.72" r="7.01"></circle>
                    <g id="Group" opacity="0.04" style="mix-blend-mode: multiply;" transform="translate(4.470000, 4.520000)" fill="#000000">
                        <path d="M19.24,0.129989481 C26.9050879,0.131561559 33.8251152,4.71996897 36.81,11.78 C39.8313719,18.9276538 38.2177602,27.1934591 32.73,32.68 C27.2797333,38.1404319 19.0752379,39.7766776 11.9472722,36.8247582 C4.81930649,33.8728388 0.173884972,26.9150299 0.179976383,19.2 C0.172032628,14.1431448 2.18025726,9.2917348 5.76,5.72 C9.33009092,2.13658922 14.1817045,0.124681228 19.24,0.129989481 M19.24,0.13 C11.5021375,0.130026458 4.52714933,4.79389343 1.57069021,11.9446882 C-1.38576892,19.0954829 0.259242251,27.323244 5.73789611,32.7875709 C11.21655,38.2518977 19.4485903,39.875359 26.5916191,36.9001858 C33.7346479,33.9250126 38.380235,26.937836 38.3600658,19.2 C38.3600658,8.64031558 29.7996844,0.08 19.24,0.08 L19.24,0.13 Z" id="Shape"></path>
                    </g>
                </g>
            </g>
        </g>
    </g>
</svg>