<svg width="251" height="173" viewBox="0 0 251 173" fill="none" xmlns="http://www.w3.org/2000/svg">
<path d="M4.1549 151.136L3.69143 150.325L3.98649 149.199L3.85214 148.149L3.52385 147.12L3.11591 146.121L3.29322 145.023L2.85068 143.983L2.91024 142.912L3.04598 141.848L2.79736 140.788L2.73918 139.745L2.913 138.684L2.85831 137.603L2.53003 136.574L2.66925 135.472L2.76341 134.443L2.70872 133.361L2.4601 132.301L2.59584 131.237L2.42339 130.183L2.36869 129.102L2.61869 128.049L2.67477 127.016L2.50581 125.924L2.75581 124.871L2.4691 123.807L2.75719 122.757L2.6644 121.672L2.95249 120.623L2.85622 119.576L3.06813 118.519L3.28004 117.462L3.52656 116.447L3.54803 115.373L3.45525 114.288L3.81951 113.245L4.18028 112.24L4.23985 111.17L4.48636 110.154L4.73636 109.101L4.5328 107.968L4.77931 106.952L5.47938 106.017L5.57703 104.95L5.52582 103.83L5.69616 102.808L6.35814 101.869L6.15807 100.698L6.89274 99.8043L6.84153 98.6849L7.31308 97.7287L7.37613 96.6198L7.80959 95.6601L8.42999 94.756L8.56922 93.654L9.07885 92.7013L8.98956 91.5784L9.35033 90.5736L9.7111 89.5689L10.4804 88.7168L10.765 87.705L10.8661 86.5996L11.4484 85.6919L11.6984 84.6386L12.3915 83.7795L12.9738 82.8718L13.2619 81.822L13.7681 80.9073L14.2015 79.9476L14.3062 78.8041L14.9993 77.945L15.2112 76.8882L15.8662 76.0256L16.6665 75.2532L17.1381 74.297L17.6096 73.3408L17.9739 72.2979L18.442 71.3798L18.7681 70.3334L19.6031 69.6026L20.0401 68.6048L20.7678 67.7873L21.0939 66.7409L21.9254 66.0482L22.5423 65.1822L23.052 64.2295L23.6308 63.3599L23.9605 62.2754L24.5393 61.4059L25.4089 60.7167L26.0258 59.8507L26.57 58.9395L27.0797 57.9868L27.842 57.2109L28.4589 56.3449L29.1485 55.5239L29.7308 54.6163L30.5588 53.9617L31.2865 53.1443L31.8653 52.2747L32.8041 51.6688L33.5629 50.931L34.1071 50.0199L34.6549 49.0706L35.4137 48.3329L36.4216 47.8101L37.0732 46.9857L37.9393 46.3346L38.5597 45.4304L39.1074 44.4812L40.2157 44.1213L40.7634 43.1721L41.5257 42.3962L42.2845 41.6585L43.2198 41.0906L44.1516 40.5609L44.8758 39.7815L45.6346 39.0438L46.255 38.1396L47.3598 37.8179L48.0183 36.9172L48.7079 36.0962L49.8127 35.7745L50.7099 35.2032L51.4687 34.4654L52.3659 33.8941L53.232 33.243L54.0254 32.5469L54.8534 31.8923L55.6468 31.1962L56.6167 30.6699L57.5139 30.0986L58.373 29.5238L59.2737 28.9143L60.2677 28.544L61.1649 27.9727L62.1313 27.4845L62.9905 26.9097L63.7251 26.016L64.8506 25.8883L65.7824 25.3586L66.6796 24.7873L67.5457 24.1362L68.5397 23.7659L69.4058 23.1148L70.3963 22.7827L71.3005 22.1351L72.3257 21.8445L73.3162 21.5123L74.1893 20.785L75.3077 20.7336L76.3052 20.3252L77.2682 19.8752L78.1343 19.2241L79.194 18.9751L80.2433 18.8405L81.2062 18.3905L82.1726 17.9024L83.0733 17.2929L84.1952 17.2034L85.127 16.6736L86.1211 16.3033L87.2602 16.446L88.2853 16.1554L89.1895 15.5078L90.2804 15.3386L91.2985 15.1242L92.3271 14.7956L93.3799 14.6228L94.3981 14.4085L95.4578 14.1595L96.4795 13.907L97.5011 13.6546L98.5539 13.4818L99.4996 12.7996L100.545 12.7031L101.619 12.7245L102.668 12.5898L103.755 12.4587L104.753 12.0503L105.778 11.7597L106.883 11.8608L107.884 11.4142L108.933 11.2796L110.027 11.495L111.107 11.4401L112.177 11.4996L113.192 10.9006L114.235 10.8422L115.329 11.0576L116.374 10.9611L117.417 10.9027L118.494 10.8859L119.539 10.7894L120.623 10.6964L121.683 10.4474L122.749 10.545L123.792 10.4866L124.865 10.9307L125.935 10.5674L126.974 10.5472L128.026 10.7972L129.1 10.8185L130.159 10.9923L131.219 11.1661L132.261 11.1078L133.352 10.9385L134.408 11.1504L135.485 11.1337L136.482 11.5708L137.559 11.554L138.639 11.4991L139.636 11.9363L140.699 12.072L141.786 11.9408L142.78 12.4161L143.843 12.5518L144.916 12.5731L145.986 12.6326L146.99 12.9935L147.98 13.5069L149.112 13.303L150.064 13.8129L151.117 14.0629L152.239 13.9734L153.243 14.3343L154.198 14.8061L155.195 15.2432L156.261 15.3408L157.331 15.4003L158.328 15.8374L159.384 16.0493L160.336 16.5592L161.243 17.1419L162.403 17.0558L163.358 17.5276L164.265 18.1103L165.422 18.0623L166.332 18.6069L167.43 18.7842L168.285 19.5158L169.295 19.8005L170.15 20.5321L171.154 20.893L172.255 21.0322L173.214 21.4659L174.218 21.8268L175.173 22.2986L176.08 22.8812L177.129 23.1694L177.856 24.043L178.905 24.3312L179.718 25.0975L180.771 25.3475L181.775 25.7084L182.498 26.6202L183.456 27.0539L184.592 27.2346L185.409 27.9628L186.278 28.542L187.323 28.8682L188.102 29.5929L188.873 30.3938L189.915 30.7582L190.604 31.6284L191.556 32.1383L192.466 32.6828L193.425 33.1165L194.155 33.952L194.937 34.6386L196.104 34.8991L196.754 35.7657L197.751 36.2029L198.485 37.0003L199.35 37.6176L200.087 38.3769L201.077 38.8903L201.856 39.615L202.465 40.5163L203.115 41.383L204.15 41.8236L204.759 42.7249L205.669 43.2695L206.278 44.1708L207.31 44.6495L207.835 45.6201L208.527 46.4522L209.601 46.8963L210.001 47.9708L210.822 48.6608L211.434 49.524L212.254 50.214L213.282 50.7309L213.895 51.5941L214.337 52.634L215.365 53.1508L215.728 54.2218L216.631 54.8426L217.199 55.7786L218.06 56.434L218.628 57.3699L219.16 58.2643L220.019 58.9578L220.385 59.9907L221.16 60.7534L221.61 61.7171L222.264 62.5456L222.872 63.447L223.36 64.4141L224.26 65.0729L224.464 66.2062L225.405 66.8305L226.014 67.7318L226.259 68.8305L226.992 69.6279L227.241 70.6884L227.971 71.524L228.421 72.4876L229.075 73.3162L229.683 74.2175L229.769 75.3784L230.541 76.1794L230.873 77.1706L231.561 78.0408L232.094 78.9352L232.301 80.0303L232.709 81.0286L232.999 82.0545L233.85 82.8243L234.22 83.819L234.749 84.7515L234.839 85.8743L235.326 86.8414L235.977 87.7081L236.149 88.7617L236.439 89.7876L236.73 90.8135L237.297 91.7495L237.587 92.7754L237.6 93.8913L238.088 94.8584L238.697 95.7597L239.025 96.7891L238.882 97.9291L239.252 98.9239L239.504 99.9463L240.186 100.893L240.046 101.995L240.375 103.024L240.745 104.019L240.917 105.072L241.363 106.074L241.186 107.173L241.826 108.154L241.998 109.207L241.907 110.198L240.9 110.298L239.892 110.821L238.842 110.956L237.817 111.246L236.74 111.263L235.729 111.401L234.669 111.65L233.593 111.667L232.63 112.117L231.498 111.898L230.5 112.306L229.454 112.403L228.405 112.538L227.373 112.904L226.358 113.081L225.223 112.9L224.26 113.35L223.207 113.523L222.206 113.969L221.084 113.636L220.138 114.318L219.03 114.255L217.981 114.39L216.963 114.604L215.91 114.777L214.84 114.717L213.87 115.244L212.766 115.143L211.713 115.315L210.664 115.45L209.718 116.132L208.641 116.149L207.592 116.284L206.594 116.692L205.517 116.709L204.448 116.649L203.419 116.978L202.373 117.074L201.3 117.053L200.299 117.5L199.298 117.946L198.221 117.963L197.175 118.059L196.098 118.076L195.07 118.405L194.069 118.851L193.002 118.754L192.001 119.2L190.924 119.217L189.906 119.432L188.853 119.604L187.804 119.739L186.779 120.03L185.723 120.24L184.704 120.455L183.652 120.627L182.526 120.332L181.505 120.585L180.507 120.993L179.482 121.284L178.354 121.027L177.377 121.629L176.341 121.611L175.278 121.898L174.229 122.033L173.159 121.974L172.182 122.576L171.112 122.517L170.063 122.651L169.01 122.824L167.957 122.997L166.936 123.249L165.866 123.19L164.882 123.869L163.812 123.809L162.707 123.708L161.682 123.999L160.664 124.213L159.584 124.268L158.61 124.832L157.516 124.617L156.495 124.869L155.411 124.962L154.441 125.489L153.364 125.505L152.398 125.993L151.297 125.854L150.292 126.339L149.219 126.318L148.145 126.296L147.099 126.393L146.095 126.877L145.042 127.05L144.014 127.379L142.947 127.281L141.87 127.298L140.89 127.939L139.765 127.644L138.743 127.896L137.749 128.266L136.665 128.359L135.64 128.65L134.646 129.02L133.552 128.805L132.52 129.172L131.498 129.424L130.397 129.285L129.372 129.575L128.343 129.904L127.305 129.924L126.217 130.056L125.223 130.426L124.229 130.796L123.145 130.889L122.124 131.142L121.019 131.041L119.997 131.293L118.924 131.272L117.871 131.444L116.901 131.971L115.873 132.299L114.744 132.042L113.771 132.607L112.725 132.703L111.703 132.956L110.626 132.972L109.594 133.339L108.469 133.044L107.451 133.258L106.45 133.705L105.428 133.957L104.403 134.248L103.35 134.421L102.27 134.476L101.2 134.416L100.171 134.745L99.1187 134.918L98.1005 135.132L97.0478 135.305L96.0468 135.751L94.9699 135.768L93.8964 135.747L92.9265 136.273L91.7979 136.016L90.7521 136.112L89.72 136.479L88.7053 136.656L87.6456 136.904L86.6274 137.119L85.5712 137.33L84.4977 137.308L83.5209 137.911L82.4475 137.889L81.4569 138.222L80.3524 138.121L79.272 138.176L78.2745 138.584L77.2252 138.719L76.1725 138.891L75.1819 139.223L74.1257 139.434L73.0212 139.333L72.0513 139.86L70.9296 139.526L69.9321 139.935L68.9069 140.225L67.7989 140.162L66.8014 140.571L65.728 140.549L64.7063 140.802L63.7019 141.287L62.5732 141.03L61.6033 141.556L60.5782 141.846L59.5254 142.019L58.4278 141.842L57.3509 141.859L56.3328 142.073L55.3042 142.402L54.3343 142.928L53.2574 142.945L52.2357 143.197L51.2106 143.488L50.1061 143.387L49.0326 143.365L48.0282 143.85L46.9236 143.749L45.9537 144.275L44.8597 144.06L43.8069 144.232L42.7748 144.599L41.7808 144.97L40.7522 145.298L39.6235 145.041L38.626 145.45L37.6008 145.74L36.5585 145.799L35.454 145.698L34.3978 145.908L33.4244 146.473L32.3199 146.372L31.3569 146.822L30.2489 146.759L29.172 146.776L28.1469 147.066L27.1218 147.357L26.1242 147.765L24.9921 147.546L24.0533 148.152L22.966 148.283L21.9237 148.342L20.895 148.67L19.7975 148.493L18.8276 149.019L17.6954 148.801L16.6497 148.897L15.6452 149.382L14.6131 149.749L13.5949 149.963L12.518 149.98L11.4135 149.879L10.4194 150.249L9.33905 150.304L8.3174 150.556L7.23701 150.611L6.20839 150.94L5.17976 151.269L4.1549 151.136Z" fill="#F5F7FA"/>
<rect x="49" y="57" width="152" height="97.4359" rx="9.35385" fill="#86EFCE"/>
<rect x="49" y="71.8102" width="152" height="11.6923" fill="#525A66"/>
<rect x="61.4717" y="99.8718" width="73.2718" height="11.6923" rx="3.11795" fill="#D9FFEF"/>
<rect x="61.4717" y="114.682" width="28.841" height="3.89744" rx="1.94872" fill="#D9FFEF"/>
<rect x="162.805" y="141.964" width="28.841" height="3.89744" rx="1.94872" fill="#D9FFEF"/>
<rect x="94.2102" y="114.682" width="59.241" height="3.89744" rx="1.94872" fill="#D9FFEF"/>
<circle cx="207.5" cy="123.713" r="1.05319" fill="black"/>
<rect x="206.447" y="110.723" width="2.10638" height="9.82979" rx="1.05319" fill="black"/>
<path d="M205.666 106.244C206.473 104.817 208.527 104.817 209.334 106.244L220.013 125.134C220.806 126.538 219.792 128.277 218.179 128.277H196.821C195.208 128.277 194.194 126.538 194.987 125.134L205.666 106.244Z" stroke="black" stroke-width="2.10638"/>
</svg>
