<svg width="176px" height="42px" viewBox="0 0 176 42" version="1.1" xmlns="http://www.w3.org/2000/svg" xmlns:xlink="http://www.w3.org/1999/xlink">
    <title>1-PRIMARY_guru-full_logo</title>
    <g id="Flow" stroke="none" stroke-width="1" fill="none" fill-rule="evenodd">
        <g id="Post-Trial---Admin-" transform="translate(-40.000000, -819.000000)">
            <g id="1-PRIMARY_guru-full_logo" transform="translate(40.000000, 820.000000)">
                <path d="M38.9937369,23.1803022 C39.1304167,28.0455115 37.0279604,31.682336 32.8873676,34.0142534 C27.1427976,37.2362463 20.9841684,39.1976345 14.315,38.9841774 C10.7210799,38.9274742 7.41399568,37.006306 5.57955531,33.9095386 C1.8047819,27.8803844 -0.225314553,21.2712714 0.0199050187,14.1144197 C0.148544794,10.3607979 2.08618141,7.40461943 5.24589589,5.46739619 C11.2115655,1.81043424 17.6877742,-0.215393806 24.7428618,0.0182006798 C28.5417552,0.163190361 31.50047,2.12860604 33.5024265,5.326434 C36.9194206,10.7756295 38.5113378,16.8168662 38.9937369,23.1803022 Z" id="Path" fill="#000000" fill-rule="nonzero"></path>
                <path d="M22.7144078,27.6129022 C21.2388558,28.1669576 19.629582,28.2596175 18.1001041,27.8785876 C14.5002927,26.9098576 11.8904295,23.607183 11.8904295,20.0183855 C11.8541903,17.8449642 12.7083442,15.751132 14.254851,14.2223551 C15.7328035,12.7597291 17.7179478,11.9223808 19.7977424,11.884323 L19.8754656,11.884323 C23.6675396,11.9251977 26.0728681,14.7905132 26.0933216,14.8191255 C26.2931146,15.1187872 26.6460829,15.2788194 27.0033423,15.2317196 C27.3606017,15.1846197 27.6599514,14.9385882 27.775124,14.5974026 C27.8902965,14.256217 27.8012397,13.8792795 27.5455182,13.6255846 C27.4268881,13.4825232 24.5797646,10.0490496 19.883647,10 C17.2409147,10.0107444 14.7116225,11.0742944 12.8563995,12.9549093 C11.0011764,14.8355241 9.97327298,17.377856 10.0005285,20.0183855 C10.0005285,24.445114 13.1994518,28.5162327 17.6092207,29.6975112 C18.3670867,29.8997766 19.1483027,30.0014745 19.9327353,30 C21.1040495,29.9959804 22.2656174,29.7870907 23.3648282,29.3827761 C26.2651308,28.3241217 29.0918009,25.5323807 28.9977149,22.3073679 C28.3366188,22.7861566 27.6452105,23.2217007 26.9278233,23.6112704 C26.3592168,25.3811443 24.5756739,26.9343824 22.7144078,27.6129022 Z" id="Path" fill="#FFFFFF" fill-rule="nonzero"></path>
                <path d="M28.4797324,17.2638575 C27.8955908,17.8278107 27.2588938,18.3418315 26.5772127,18.7998074 C25.3621522,17.7964759 23.8021946,17.2361055 22.1823921,17.2210932 C21.0751256,17.2210932 20.2266018,17.4919335 19.6634559,18.0264869 C19.218788,18.4513858 18.979498,19.0284099 19.001379,19.6230195 C19.0204042,20.7420178 19.8765381,21.9501084 22.2204425,22 C23.5174614,21.9899962 24.7917904,21.6802985 25.930356,21.0983867 C26.4862234,20.8334236 27.0192653,20.5284039 27.5246675,20.1860824 C28.3310935,19.652935 29.0815307,19.0491391 29.7658358,18.3828558 C30.0957658,18.0492508 30.0744711,17.5283142 29.7182728,17.2193114 C29.3620744,16.9103086 28.8058575,16.9302525 28.4759274,17.2638575 L28.4797324,17.2638575 Z M22.2622979,20.3535757 C21.5850009,20.3535757 20.7707224,20.1967734 20.7631123,19.5980737 C20.7479779,19.4444642 20.8049177,19.2922836 20.9191189,19.1811221 C21.0408802,19.0635204 21.3719186,18.8639538 22.1861971,18.8639538 C23.1872682,18.8892449 24.1599587,19.1809606 24.9905112,19.7049844 C24.149782,20.1229148 23.2140721,20.3453656 22.2622979,20.3535757 L22.2622979,20.3535757 Z" id="Shape" fill="#FFFFFF" fill-rule="nonzero"></path>
                <path d="M176,21.2731828 L176,9.11881936 C176,8.53653125 175.525358,8.06449348 174.939877,8.06449348 C174.354397,8.06449348 173.879771,8.53653125 173.879771,9.11881936 L173.879771,21.3008243 C173.879771,21.5614442 173.951239,27.6978577 167.034737,27.895297 C160.217497,27.7057553 160.118236,21.9405277 160.118236,21.2731828 L160.118236,9.11881936 C160.142351,8.72746612 159.946114,8.35512821 159.608787,8.1521978 C159.27146,7.9492674 158.848768,7.9492674 158.511441,8.1521978 C158.174114,8.35512821 157.977877,8.72746612 158.001993,9.11881936 L158.001993,21.2494901 C158.001993,21.3363634 157.906702,29.7433289 167.026796,30 C176.087334,29.7433289 176,21.3363634 176,21.2731828 Z" id="Path" fill="#080B0E" fill-rule="nonzero"></path>
                <path d="M147.996036,14.7189176 C147.787363,7.96117836 141.747889,7.98911939 139.741419,8.00109412 C137.843298,8.00109412 131.073469,8.00109412 131.073469,8.00109412 L131.073469,8.00109412 C130.788974,8 130.515822,8.11197013 130.314653,8.31206871 C130.113483,8.5121673 130.000942,8.78386495 130.002014,9.06684508 L130.002014,28.8690567 C129.97764,29.2646508 130.175978,29.6410235 130.516916,29.8461529 C130.857854,30.0512824 131.285071,30.0512824 131.626009,29.8461529 C131.966947,29.6410235 132.165285,29.2646508 132.140911,28.8690567 L132.140911,10.132596 C134.147381,10.132596 138.320838,10.132596 139.765496,10.132596 L139.86582,10.132596 C144.023225,10.132596 145.760828,11.4857405 145.861152,14.7867744 C145.90291,15.9172215 145.466212,17.0132897 144.65727,17.8083979 C143.74926,18.6714842 142.640963,19.2980953 141.430866,19.6325484 L140.544007,18.4350754 C140.142713,17.9321368 139.075271,16.7426469 137.566405,16.6149165 L135.993333,16.6149165 C134.441933,16.6149165 133.184275,17.8658793 133.184275,19.4090201 C133.184275,20.9521609 134.441933,22.2031237 135.993333,22.2031237 L138.373006,22.2031237 C138.633847,22.2031237 138.91074,22.2031237 139.175594,22.1671995 L137.630612,20.0756134 L135.977281,20.0756134 C135.626152,20.0486071 135.355082,19.7573264 135.355082,19.4070243 C135.355082,19.0567222 135.626152,18.7654415 135.977281,18.7384352 L137.401875,18.7384352 C137.985702,18.8886661 138.494804,19.2447001 138.834494,19.740321 L139.067245,20.0476724 L140.544007,22.0274944 L140.544007,22.0274944 L146.061799,29.5037174 C146.420119,29.9524651 147.071054,30.0390312 147.535307,29.6996753 C147.99956,29.3603195 148.110908,28.7165468 147.787363,28.2423792 L142.759149,21.4327494 C144.051197,20.9809064 145.225957,20.2487155 146.198239,19.2892728 C147.406551,18.0782894 148.057286,16.4239938 147.996036,14.7189176 Z" id="Path" fill="#080B0E" fill-rule="nonzero"></path>
                <path d="M119,9.11881936 C119,8.74214497 118.797838,8.39408347 118.469695,8.20574626 C118.141552,8.01740905 117.737263,8.01740905 117.40912,8.20574626 C117.080977,8.39408347 116.878833,8.74214497 116.878833,9.11881936 L116.878833,21.3008243 C116.878833,21.5614442 116.950332,27.6978577 110.030779,27.895297 C103.214503,27.7057553 103.107254,21.972118 103.11917,21.2731828 L103.11917,9.11881936 C103.143297,8.72746612 102.946973,8.35512821 102.609497,8.1521978 C102.272021,7.9492674 101.849142,7.9492674 101.511667,8.1521978 C101.174191,8.35512821 100.977867,8.72746612 101.001993,9.11881936 L101.001993,21.2494901 C101.001993,21.3363634 100.906661,29.7433289 110.030779,30 C119.091342,29.7433289 119,21.3363634 119,21.2731828 L119,9.11881936 Z" id="Path" fill="#080B0E" fill-rule="nonzero"></path>
                <path d="M83.0491304,27.3569912 C81.421584,27.9640575 79.6468532,28.064516 77.9605438,27.6450301 C73.9836177,26.5824002 71.0987805,22.9507748 71.0987805,19.0038637 C71.0556649,16.6122285 72.0007856,14.3076566 73.7135312,12.6280842 C75.3461263,11.0276319 77.5354634,10.113306 79.8276636,10.0746584 L79.9098639,10.0746584 C84.1059907,10.117475 86.7637986,13.270333 86.7872844,13.3014724 C87.1562734,13.7291355 87.8007757,13.786476 88.2402485,13.4307406 C88.6797212,13.0750052 88.7540449,12.4358042 88.4078035,11.9897277 C88.2747174,11.8301386 85.1276223,8.05449384 79.9333497,8 C77.0094881,8.00707883 74.2096796,9.175623 72.156575,11.2457594 C70.1034705,13.3158958 68.9672928,16.1159893 69.0007171,19.0233258 C69.0007171,23.8888474 72.5235848,28.3651273 77.4086279,29.6690871 C78.2447734,29.8916441 79.1069174,30.0029 79.9724926,30 C81.2682668,29.9973823 82.5534824,29.7681271 83.7693611,29.322662 C86.9751706,28.1549368 90.1105228,25.0877119 89.9970082,21.5378274 C89.2647165,22.0614512 88.4999069,22.5385728 87.7071442,22.9663445 C87.1004282,24.9008759 85.1080508,26.6057547 83.0491304,27.3569912 Z" id="Path" fill="#080B0E" fill-rule="nonzero"></path>
                <path d="M92.028916,16.3944514 C91.2879516,17.1828448 90.4801929,17.9019603 89.6151894,18.5432961 C88.1259578,17.0519979 85.7498804,16.3385815 84.034754,16.3385815 C82.6291871,16.3385815 81.5540957,16.7167781 80.8387626,17.4645761 C80.2741525,18.0553762 79.971506,18.8591224 80.0021156,19.6864815 C80.0230317,21.242245 81.1106728,22.931237 84.0891361,23 C85.7348421,22.9847683 87.3514159,22.5522212 88.7952754,21.740777 C89.5004071,21.3738333 90.1760352,20.9498923 90.8157778,20.4729586 C91.8443334,19.7308451 92.8011118,18.8889281 93.6729273,17.9588104 C93.9625267,17.6612162 94.0703388,17.2246411 93.9538591,16.8212033 C93.8373794,16.4177655 93.5152961,16.1121936 93.1145896,16.0249583 C92.7138831,15.937723 92.2988436,16.0828206 92.0330992,16.4030468 L92.028916,16.3944514 Z M84.1309684,20.6921408 C83.269222,20.6921408 82.2401463,20.4729586 82.2275966,19.6349092 C82.2075342,19.4212973 82.2793588,19.2093483 82.4242086,19.0547212 C82.5831715,18.891409 83.001495,18.6249522 84.034754,18.6249522 C85.3060999,18.6588077 86.5414277,19.0659424 87.594687,19.7982214 C86.5266797,20.3785034 85.3390724,20.6879492 84.1309684,20.7007362 L84.1309684,20.6921408 Z" id="Shape" fill="#080B0E" fill-rule="nonzero"></path>
                <line x1="55.5" y1="0" x2="55.5" y2="40" id="Path" stroke="#231F20" stroke-width="1.9" stroke-linecap="round"></line>
            </g>
        </g>
    </g>
</svg>