<svg height="36" viewBox="0 0 100 36" width="100" xmlns="http://www.w3.org/2000/svg"><g fill="none" fill-rule="evenodd"><rect fill="#ebeef2" height="36" rx="4" width="100"/><path d="m50.5 23.8695652c-2.2292308 0-4.0384615-1.8504348-4.0384615-4.1304348s1.8092307-4.1304347 4.0384615-4.1304347 4.0384615 1.8504347 4.0384615 4.1304347-1.8092307 4.1304348-4.0384615 4.1304348m8.4-10.647343h-.8022c-.7959 0-1.5225-.4517778-1.8774-1.1674444l-.9408-1.8873334c-.3549-.71566662-1.0815-1.1674444-1.8774-1.1674444h-5.8044c-.7959 0-1.5225.45177778-1.8774 1.1674444l-.9408 1.8873334c-.3549.7156666-1.0815 1.1674444-1.8774 1.1674444h-.8022c-1.1613 0-2.1.9436667-2.1 2.1111111v10.5555556c0 1.1674444.9387 2.1111111 2.1 2.1111111h16.8c1.1613 0 2.1-.9436667 2.1-2.1111111v-10.5555556c0-1.1674444-.9387-2.1111111-2.1-2.1111111" fill="#ced2d9"/></g></svg>