<svg width="151" height="108" viewBox="0 0 151 108" fill="none" xmlns="http://www.w3.org/2000/svg">
<path opacity="0.3" d="M2.7227 99.8244L2.4195 99.3513L2.57324 98.6744L2.46584 98.0519L2.2402 97.4459L1.96652 96.8602L2.04882 96.2022L1.75296 95.5924L1.76381 94.9535L1.82148 94.317L1.64387 93.6908L1.58328 93.0708L1.66436 92.4356L1.605 91.7929L1.37935 91.1869L1.43824 90.5277L1.47128 89.9127L1.41192 89.27L1.23431 88.6437L1.29197 88.0073L1.16118 87.3836L1.10181 86.7408L1.2297 86.1081L1.23933 85.492L1.10975 84.8455L1.23763 84.2128L1.03662 83.5853L1.18791 82.9538L1.10514 82.3099L1.25643 81.6784L1.17244 81.0572L1.27692 80.4233L1.38139 79.7893L1.50805 79.1794L1.4955 78.5392L1.41274 77.8952L1.61083 77.2663L1.80771 76.6602L1.81856 76.0212L1.94522 75.4113L2.0731 74.7786L1.92135 74.1081L2.04801 73.4982L2.4543 72.9262L2.48856 72.2885L2.43043 71.6229L2.51028 71.0105L2.89317 70.4372L2.74263 69.7439L3.17111 69.1959L3.11298 68.5304L3.37884 67.9508L3.39092 67.2891L3.63338 66.7082L3.99165 66.1565L4.05054 65.4972L4.33981 64.9189L4.25827 64.2521L4.45514 63.646L4.65202 63.0399L5.10268 62.5159L5.25274 61.9073L5.28822 61.2468L5.62308 60.6937L5.75097 60.0611L6.15482 59.5346L6.48967 58.9815L6.64096 58.3501L6.92901 57.7946L7.17147 57.2137L7.20818 56.5305L7.61203 56.004L7.71651 55.37L8.09695 54.8423L8.56857 54.3651L8.83444 53.7856L9.1003 53.206L9.2984 52.5771L9.56304 52.0203L9.73774 51.3901L10.2315 50.937L10.4752 50.3334L10.9013 49.8309L11.0759 49.2007L11.5685 48.7704L11.9256 48.2414L12.2148 47.6631L12.5485 47.1328L12.7244 46.4799L13.058 45.9496L13.574 45.5205L13.931 44.9915L14.2425 44.4372L14.5318 43.8589L14.98 43.3805L15.337 42.8515L15.7397 42.3477L16.0745 41.7947L16.5659 41.3871L16.9919 40.8847L17.3255 40.3544L17.8859 39.9734L18.3329 39.5177L18.6443 38.9634L18.957 38.3864L19.404 37.9307L20.0087 37.5978L20.3879 37.0928L20.9027 36.6865L21.2609 36.1347L21.5736 35.5576L22.2436 35.3195L22.5563 34.7425L23.0045 34.264L23.4515 33.8084L24.0107 33.4501L24.5685 33.1147L24.9934 32.635L25.4403 32.1793L25.7986 31.6275L26.4674 31.4122L26.8491 30.8617L27.2517 30.358L27.9205 30.1427L28.4562 29.7832L28.9032 29.3275L29.4389 28.968L29.9537 28.5617L30.4229 28.1301L30.9142 27.7225L31.3834 27.2909L31.9647 26.9566L32.5004 26.5971L33.0127 26.2364L33.5497 25.8541L34.1495 25.6122L34.6852 25.2527L35.2653 24.9412L35.7776 24.5805L36.2061 24.0325L36.8922 23.9323L37.4501 23.5968L37.9858 23.2373L38.5005 22.8309L39.1004 22.5891L39.6151 22.1828L40.2137 21.9637L40.7519 21.5586L41.3727 21.3635L41.9712 21.1444L42.4884 20.6926L43.1721 20.6379L43.7731 20.3733L44.352 20.0846L44.8668 19.6783L45.5097 19.5073L46.149 19.4046L46.7278 19.1159L47.3079 18.8044L47.8449 18.4222L48.5297 18.3447L49.0876 18.0093L49.6874 17.7674L50.3884 17.8279L51.0092 17.6328L51.5473 17.2278L52.2112 17.1035L52.8296 16.954L53.4516 16.7362L54.0921 16.6107L54.7104 16.4612L55.3533 16.2902L55.9729 16.1179L56.5924 15.9456L57.2329 15.8202L57.7957 15.3936L58.4338 15.3136L59.0916 15.3033L59.7309 15.2006L60.3936 15.0992L60.9946 14.8345L61.6154 14.6395L62.2941 14.6759L62.8964 14.3885L63.5357 14.2858L64.2108 14.3906L64.871 14.3347L65.5276 14.3471L66.1347 13.9686L66.7716 13.9115L67.4466 14.0163L68.0847 13.9363L68.7215 13.8792L69.3806 13.8461L70.0186 13.7661L70.6801 13.6875L71.323 13.5165L71.9784 13.5517L72.6152 13.4945L73.283 13.736L73.9296 13.4966L74.5652 13.4622L75.2157 13.5885L75.8734 13.5782L76.5264 13.659L77.1793 13.7397L77.8161 13.6826L78.48 13.5583L79.1317 13.6619L79.7907 13.6288L80.4116 13.8677L81.0706 13.8346L81.7309 13.7787L82.3518 14.0176L83.0059 14.0756L83.6686 13.9742L84.2883 14.2359L84.9425 14.2938L85.6002 14.2835L86.2568 14.2959L86.8802 14.4893L87.4987 14.7738L88.1872 14.6281L88.7823 14.9113L89.4327 15.0376L90.1176 14.9602L90.741 15.1536L91.3373 15.414L91.9582 15.6529L92.6136 15.6881L93.2701 15.7006L93.8911 15.9395L94.5428 16.043L95.1378 16.3263L95.7071 16.6538L96.4153 16.5776L97.0116 16.8381L97.5809 17.1656L98.2879 17.1122L98.8584 17.4169L99.5347 17.499L100.076 17.9163L100.701 18.0641L101.242 18.4815L101.866 18.6749L102.543 18.7341L103.141 18.9718L103.764 19.1652L104.36 19.4256L104.93 19.7531L105.579 19.9022L106.045 20.4069L106.694 20.556L107.21 20.9949L107.861 21.1212L108.484 21.3145L108.949 21.842L109.546 22.0797L110.246 22.163L110.763 22.5791L111.309 22.9053L111.957 23.0772L112.451 23.492L112.943 23.9524L113.59 24.147L114.032 24.6505L114.627 24.9337L115.198 25.2384L115.795 25.4761L116.262 25.958L116.758 26.3501L117.478 26.4802L117.897 26.9823L118.518 27.2213L118.987 27.6804L119.531 28.0294L120.001 28.4658L120.619 28.7503L121.113 29.1651L121.508 29.6888L121.927 30.191L122.571 30.4312L122.965 30.9549L123.536 31.2596L123.93 31.7833L124.573 32.0463L124.918 32.613L125.362 33.0936L126.03 33.3351L126.301 33.9664L126.82 34.3597L127.215 34.8606L127.734 35.2539L128.376 35.5397L128.772 36.0406L129.067 36.6503L129.709 36.9361L129.957 37.5661L130.525 37.9164L130.895 38.4616L131.438 38.8334L131.808 39.3786L132.155 39.8998L132.698 40.2944L132.947 40.9016L133.44 41.3392L133.738 41.9034L134.158 42.3828L134.553 42.9065L134.874 43.472L135.441 43.8451L135.593 44.5156L136.184 44.8672L136.579 45.3908L136.755 46.0399L137.223 46.499L137.401 47.1252L137.868 47.6072L138.166 48.1714L138.586 48.6508L138.981 49.1745L139.061 49.864L139.553 50.3244L139.78 50.9076L140.222 51.411L140.57 51.9322L140.723 52.58L140.996 53.1657L141.198 53.7704L141.738 54.2106L141.988 54.795L142.335 55.339L142.416 56.0058L142.738 56.5712L143.157 57.0734L143.288 57.6971L143.49 58.3019L143.692 58.9066L144.062 59.4518L144.264 60.0565L144.299 60.7208L144.621 61.2863L145.015 61.81L145.241 62.4159L145.181 63.0979L145.431 63.6824L145.61 64.2859L146.05 64.8349L145.991 65.4941L146.216 66.1001L146.467 66.6846L146.598 67.3083L146.895 67.8953L146.812 68.5532L147.228 69.1237L147.358 69.7475L147.327 70.3396L146.712 70.4208L146.107 70.7538L145.468 70.8565L144.847 71.0515L144.188 71.0847L143.572 71.1886L142.929 71.3596L142.27 71.3928L141.692 71.6814L140.993 71.5754L140.392 71.84L139.754 71.92L139.115 72.0227L138.491 72.2633L137.874 72.39L137.175 72.3067L136.596 72.5954L135.955 72.7209L135.353 73.0083L134.658 72.8339L134.095 73.2605L133.415 73.2468L132.776 73.3495L132.158 73.499L131.517 73.6245L130.861 73.6121L130.279 73.9463L129.601 73.9098L128.96 74.0353L128.321 74.138L127.758 74.5646L127.099 74.5977L126.46 74.7004L125.859 74.965L125.2 74.9982L124.543 74.9857L123.921 75.2036L123.283 75.2835L122.625 75.2938L122.023 75.5812L121.421 75.8687L120.762 75.9018L120.124 75.9817L119.465 76.0148L118.843 76.2327L118.24 76.5201L117.585 76.4849L116.983 76.7723L116.324 76.8054L115.705 76.9549L115.065 77.0804L114.426 77.1831L113.805 77.3781L113.163 77.5264L112.545 77.6759L111.904 77.8014L111.208 77.6498L110.589 77.8221L109.988 78.0867L109.367 78.2818L108.67 78.1529L108.086 78.5327L107.452 78.5443L106.807 78.7381L106.168 78.8408L105.511 78.8284L104.928 79.2082L104.271 79.1957L103.632 79.2984L102.991 79.4239L102.351 79.5494L101.731 79.7217L101.075 79.7092L100.489 80.1345L99.832 80.1221L99.1532 80.0857L98.5325 80.2807L97.9141 80.4302L97.2539 80.4861L96.6714 80.8431L95.9963 80.7383L95.3767 80.9106L94.7153 80.9893L94.134 81.3235L93.4749 81.3566L92.8949 81.6681L92.2173 81.6088L91.6139 81.919L90.9561 81.9294L90.2983 81.9397L89.6602 82.0196L89.0567 82.3298L88.4162 82.4553L87.7942 82.6731L87.1389 82.6379L86.4798 82.671L85.8949 83.0736L85.1988 82.922L84.5793 83.0943L83.9795 83.3361L83.318 83.4148L82.6972 83.6099L82.0974 83.8517L81.4223 83.7469L80.7991 83.9876L80.1796 84.1598L79.502 84.1006L78.8813 84.2957L78.2593 84.5135L77.6236 84.5479L76.961 84.6493L76.3612 84.8912L75.7613 85.133L75.0999 85.2117L74.4803 85.384L73.8016 85.3475L73.182 85.5198L72.5242 85.5301L71.8837 85.6556L71.3024 85.9898L70.6804 86.2077L69.9831 86.0789L69.4006 86.4359L68.7626 86.5158L68.143 86.6881L67.484 86.7212L66.8608 86.9618L66.1647 86.8102L65.5464 86.9597L64.9442 87.2471L64.3246 87.4194L63.7038 87.6145L63.0633 87.7399L62.4031 87.7958L61.7465 87.7834L61.1245 88.0012L60.484 88.1267L59.8657 88.2762L59.2252 88.4017L58.6229 88.6891L57.9639 88.7222L57.3061 88.7326L56.7248 89.0668L56.0275 88.938L55.3895 89.0179L54.7663 89.2585L54.1491 89.3852L53.5062 89.5563L52.8879 89.7058L52.2461 89.854L51.5883 89.8644L51.0046 90.2441L50.3468 90.2545L49.7482 90.4736L49.0695 90.4371L48.4092 90.493L47.8082 90.7576L47.1689 90.8603L46.5284 90.9858L45.9298 91.2049L45.2881 91.3532L44.6093 91.3167L44.028 91.6509L43.3332 91.4765L42.7322 91.7412L42.1114 91.9362L41.4314 91.9226L40.8304 92.1872L40.1726 92.1975L39.553 92.3698L38.9495 92.68L38.2523 92.5512L37.671 92.8854L37.0502 93.0805L36.4097 93.206L35.7334 93.1239L35.0744 93.1571L34.456 93.3066L33.834 93.5244L33.2527 93.8586L32.5937 93.8917L31.9742 94.064L31.3534 94.2591L30.6746 94.2226L30.0168 94.233L29.4134 94.5432L28.7346 94.5067L28.1533 94.8409L27.4782 94.7361L26.8377 94.8616L26.2145 95.1022L25.6147 95.3441L24.9927 95.5619L24.2954 95.4331L23.6944 95.6977L23.0736 95.8928L22.4368 95.9499L21.758 95.9135L21.1163 96.0617L20.5338 96.4187L19.855 96.3822L19.2762 96.6709L18.5962 96.6572L17.9372 96.6903L17.3164 96.8854L16.6956 97.0805L16.0946 97.3451L15.3961 97.2391L14.8357 97.6201L14.1731 97.7215L13.5362 97.7787L12.9142 97.9965L12.2379 97.9145L11.6566 98.2487L10.9581 98.1427L10.3201 98.2226L9.71658 98.5328L9.09336 98.7734L8.47503 98.9229L7.81602 98.956L7.13726 98.9196L6.53745 99.1614L5.87721 99.2173L5.25766 99.3896L4.59742 99.4455L3.97542 99.6633L3.35342 99.8812L2.7227 99.8244Z" fill="url(#paint0_linear_979_26575)"/>
<path d="M127.297 35.2459C136.251 42.5782 141.398 52.66 146.333 66.69" stroke="black" stroke-linecap="round" stroke-linejoin="round"/>
<path d="M3.76356 69.0167C2.11924 76.284 0.367541 90.1282 2.032 99.4668L13.7915 97.5591" stroke="black" stroke-linecap="round" stroke-linejoin="round"/>
<rect x="23.0569" y="5.22034" width="6.27126" height="6.27126" transform="rotate(53.6897 23.0569 5.22034)" fill="#C7F8F6"/>
<rect x="10.5979" y="10.8989" width="4.90941" height="4.90941" transform="rotate(23.1398 10.5979 10.8989)" fill="#DAF5E7"/>
<rect x="9.03789" y="12.895" width="3.90941" height="3.90941" transform="rotate(23.1398 9.03789 12.895)" fill="#DAF5E7" stroke="black" stroke-linejoin="round"/>
<path d="M23.1212 22.5537H117.76C119.693 22.5537 121.26 24.1207 121.26 26.0537V75.9091C121.26 80.0512 117.902 83.4091 113.76 83.4091H27.1212C22.9791 83.4091 19.6212 80.0512 19.6212 75.9091V26.0537C19.6212 24.1207 21.1882 22.5537 23.1212 22.5537Z" fill="#090B0E" stroke="black"/>
<path d="M22.462 23.0375H117.101C119.034 23.0375 120.601 24.6045 120.601 26.5375V76.7911C120.601 80.9332 117.243 84.2911 113.101 84.2911H26.462C22.3199 84.2911 18.962 80.9332 18.962 76.7911V26.5375C18.962 24.6045 20.529 23.0375 22.462 23.0375Z" fill="white" stroke="black"/>
<path d="M21.462 23.2128H118.1C119.481 23.2128 120.6 24.3321 120.6 25.7128V37.7257H18.962V25.7128C18.962 24.3321 20.0813 23.2128 21.462 23.2128Z" fill="#86EFCE" stroke="black"/>
<path d="M30.1536 49.285H82.9355" stroke="black" stroke-linecap="round"/>
<path d="M30.1057 53.955H71.9096" stroke="black" stroke-linecap="round"/>
<path d="M30.1782 63.8643H110.483" stroke="black" stroke-linecap="round"/>
<path d="M30.1057 68.5343H110.484" stroke="black" stroke-linecap="round"/>
<rect x="40.6041" y="29.0587" width="66.1728" height="3.35057" rx="1.5" fill="#090B0E" stroke="black"/>
<rect x="27.2706" y="27.3778" width="7.86121" height="6.71232" rx="1.5" fill="#D9FFEF" stroke="black"/>
<path d="M29.4262 30.8666L30.3876 32.2801L32.9762 29.5944" stroke="black" stroke-linecap="round" stroke-linejoin="round"/>
<circle cx="25.5089" cy="95.3936" r="2.58043" transform="rotate(-136.14 25.5089 95.3936)" fill="#C8F8F5" stroke="black"/>
<circle cx="38.0604" cy="99.5139" r="2.2551" transform="rotate(-136.14 38.0604 99.5139)" fill="#C8F8F5"/>
<circle cx="121.384" cy="5.05693" r="3.29543" transform="rotate(147.253 121.384 5.05693)" fill="#E1FCEE"/>
<circle cx="112.86" cy="11.1242" r="2.61251" transform="rotate(147.253 112.86 11.1242)" fill="#E1FCEE" stroke="black"/>
<defs>
<linearGradient id="paint0_linear_979_26575" x1="3.16179" y1="57.8539" x2="147.576" y2="65.7102" gradientUnits="userSpaceOnUse">
<stop stop-color="#96F2BC" stop-opacity="0.9"/>
<stop offset="1" stop-color="#3EFFFF" stop-opacity="0.9"/>
</linearGradient>
</defs>
</svg>
