<svg width="500px" height="330px" viewBox="0 0 500 330" xmlns="http://www.w3.org/2000/svg" xmlns:xlink="http://www.w3.org/1999/xlink">
    <defs>
        <rect id="path-1" x="204" y="24.360475" width="253" height="236" rx="2.23999996"></rect>
        <filter x="-1.5%" y="-1.2%" width="103.0%" height="103.2%" filterUnits="objectBoundingBox" id="filter-2">
            <feMorphology radius="0.279999995" operator="dilate" in="SourceAlpha" result="shadowSpreadOuter1"></feMorphology>
            <feOffset dx="0" dy="1" in="shadowSpreadOuter1" result="shadowOffsetOuter1"></feOffset>
            <feGaussianBlur stdDeviation="1" in="shadowOffsetOuter1" result="shadowBlurOuter1"></feGaussianBlur>
            <feComposite in="shadowBlurOuter1" in2="SourceAlpha" operator="out" result="shadowBlurOuter1"></feComposite>
            <feColorMatrix values="0 0 0 0 0   0 0 0 0 0   0 0 0 0 0  0 0 0 0.5 0" type="matrix" in="shadowBlurOuter1"></feColorMatrix>
        </filter>
        <path d="M1.875,4.875 C2.08125,4.875 2.248875,5.0415 2.25,5.248125 L2.25,5.248125 L2.254875,6.214875 L3.484875,4.984875 C3.6315,4.83825 3.8685,4.83825 4.015125,4.984875 C4.16175,5.1315 4.16175,5.3685 4.015125,5.515125 L4.015125,5.515125 L2.780625,6.749625 L3.75,6.75 C3.957375,6.75 4.125,6.918 4.125,7.125375 C4.124625,7.332375 3.957,7.5 3.75,7.5 L3.75,7.5 L3.749625,7.5 L1.884,7.498875 C1.67775,7.498875 1.5105,7.332 1.509375,7.12575 L1.509375,7.12575 L1.49999436,5.251875 C1.498875,5.044875 1.666125,4.876125 1.873125,4.875 L1.873125,4.875 Z M5.251725,1.50015 L7.1256,1.509525 C7.33185,1.51065 7.498725,1.6779 7.498725,1.88415 L7.498725,1.88415 L7.49985063,3.749775 C7.500225,3.956775 7.332225,4.12515 7.125225,4.12515 L7.125225,4.12515 C6.91785,4.12515 6.750225,3.95715 6.74985,3.750525 L6.74985,3.750525 L6.7491,2.78115 L5.514975,4.015275 C5.44185,4.0884 5.34585,4.12515 5.24985,4.12515 C5.154225,4.12515 5.058225,4.0884 4.984725,4.015275 C4.838475,3.86865 4.838475,3.631275 4.984725,3.485025 L4.984725,3.485025 L6.214725,2.255025 L5.24835,2.25015 C5.040975,2.249025 4.873725,2.0799 4.87484436,1.873275 C4.875975,1.66665 5.043975,1.50015 5.24985,1.50015 L5.24985,1.50015 L5.251725,1.50015 Z" id="path-3"></path>
        <rect id="path-5" x="74" y="102.360475" width="174" height="201" rx="4"></rect>
        <filter x="-2.2%" y="-1.4%" width="104.5%" height="103.9%" filterUnits="objectBoundingBox" id="filter-6">
            <feMorphology radius="0.4" operator="dilate" in="SourceAlpha" result="shadowSpreadOuter1"></feMorphology>
            <feOffset dx="0" dy="1" in="shadowSpreadOuter1" result="shadowOffsetOuter1"></feOffset>
            <feGaussianBlur stdDeviation="1" in="shadowOffsetOuter1" result="shadowBlurOuter1"></feGaussianBlur>
            <feComposite in="shadowBlurOuter1" in2="SourceAlpha" operator="out" result="shadowBlurOuter1"></feComposite>
            <feColorMatrix values="0 0 0 0 0   0 0 0 0 0   0 0 0 0 0  0 0 0 0.5 0" type="matrix" in="shadowBlurOuter1"></feColorMatrix>
        </filter>
        <polygon id="path-7" points="3.64000006 5.32000003 7 8.67999997 10.3599999 5.32000003"></polygon>
    </defs>
    <g id="Client-Support" stroke="none" stroke-width="1" fill="none" fill-rule="evenodd">
        <path d="M354.092422,0 C277.320194,0.225455336 226.647541,58.1541543 178.509445,73.2299427 C106.323904,95.8359393 37.0596883,72.0862693 7.29817054,154.738195 C2.30105814,168.615996 0.019544079,182.984675 0,197.26727 L0,197.653619 C0.065832687,242.298899 22.1856155,286.072077 52.4470502,311.439902 C68.2283797,324.670031 89.2557514,329.990777 111.88368,330 L112.01226,330 C146.865524,329.983603 185.499025,317.384749 214.647476,301.685884 C271.097977,271.280158 309.671817,283.797028 348.466813,294.710091 C416.799085,313.932208 505.410911,247.762092 499.741071,153.048305 C494.296502,62.0811763 452.541091,10.9786501 373.867944,1.20618605 C367.407083,0.403770011 361.112861,0.0184463457 354.994536,0 L354.092422,0 Z" id="Fill-1-Copy" fill="#F2F7FF"></path>
        <g id="Rectangle">
            <use fill="black" fill-opacity="1" filter="url(#filter-2)" xlink:href="#path-1"></use>
            <use stroke="#E9EBF0" stroke-width="0.55999999" fill="#FFFFFF" xlink:href="#path-1"></use>
        </g>
        <path d="M206,24.360475 L455,24.360475 C456.104569,24.360475 457,25.2559055 457,26.360475 L457,26.360475 L457,26.360475 L204,26.360475 C204,25.2559055 204.895431,24.360475 206,24.360475 Z" id="Rectangle-7-Copy-6" fill="#29CC96"></path>
        <g id="verification/button/trusted/active" transform="translate(212.000000, 32.360475)">
            <g id="verification-icon-trusted-copy-12">
                <g id="Group-15" fill="#F2FFFB" stroke="#29CC96" stroke-width="0.55999999">
                    <rect id="Rectangle-3" x="0.279999995" y="0.279999995" width="13.44" height="13.44" rx="2.23999996"></rect>
                </g>
                <path d="M10.0397886,3.98728692 C8.54646028,5.57376393 7.18641334,7.13903708 5.73502999,8.70177987 L3.89893716,7.14531496 C3.77385447,7.03896581 3.61396214,6.99016973 3.45465586,7.0089377 C3.29534958,7.02770567 3.14962217,7.11278531 3.04931375,7.24541505 C2.84044988,7.52192988 2.8829235,7.92542757 3.14371635,8.14625828 L5.40937877,10.0680572 C5.65070203,10.2726166 5.99938748,10.2513487 6.21652857,10.0180103 C7.8402533,8.29271537 9.29994408,6.59160306 10.8988976,4.8932133 C11.0794407,4.70867257 11.1331369,4.42527129 11.0346017,4.18067434 C10.9360695,3.93607739 10.7053707,3.78154874 10.4552114,3.7921827 C10.2982101,3.7971009 10.1489482,3.86716649 10.0397886,3.98728692 Z" id="Fill-1" fill="#29CC96"></path>
            </g>
        </g>
        <g id="close" transform="translate(442.000000, 35.360475)" fill="#B8BFCC">
            <path d="M5.02875,4.5 L6.64125,2.89125 C6.78829581,2.74420419 6.78829581,2.50579581 6.64125,2.35875 C6.49420419,2.21170419 6.25579581,2.21170419 6.10875,2.35875 L4.5,3.97125 L2.89125,2.35875 C2.74420418,2.21170419 2.50579582,2.21170419 2.35875,2.35875 C2.21170419,2.50579582 2.21170419,2.74420418 2.35875,2.89125 L3.97125,4.5 L2.35875,6.10875 C2.28775776,6.17916247 2.24782563,6.27501092 2.24782563,6.375 C2.24782563,6.47498908 2.28775776,6.57083753 2.35875,6.64125 C2.42916247,6.71224224 2.52501092,6.75217437 2.625,6.75217437 C2.72498908,6.75217437 2.82083753,6.71224224 2.89125,6.64125 L4.5,5.02875 L6.10875,6.64125 C6.17916247,6.71224224 6.27501092,6.75217437 6.375,6.75217437 C6.47498908,6.75217437 6.57083753,6.71224224 6.64125,6.64125 C6.71224224,6.57083753 6.75217437,6.47498908 6.75217437,6.375 C6.75217437,6.27501092 6.71224224,6.17916247 6.64125,6.10875 L5.02875,4.5 Z" id="-Icon-小olor"></path>
        </g>
        <g id="expand-window" transform="translate(429.000000, 35.360475)">
            <mask id="mask-4" fill="white">
                <use xlink:href="#path-3"></use>
            </mask>
            <use id="-Icon-小olor" fill="#B8BFCC" fill-rule="evenodd" xlink:href="#path-3"></use>
        </g>
        <path d="M421,31.360475 L421,45.360475 L421,31.360475 Z" id="Path-2" stroke="#B8BFCC" stroke-width="0.55999999"></path>
        <g id="globe" transform="translate(406.000000, 35.360475)" fill="#B8BFCC">
            <path d="M8.25,4.5 C8.25,3.50543816 7.85491185,2.55161099 7.15165043,1.84834957 C6.44838901,1.14508815 5.49456184,0.75 4.5,0.75 C2.42893219,0.75 0.75,2.42893219 0.75,4.5 C0.75,6.57106781 2.42893219,8.25 4.5,8.25 C6.57106781,8.25 8.25,6.57106781 8.25,4.5 Z M7.47375,4.125 L6.375,4.125 C6.31315234,3.24305352 6.0109749,2.39488165 5.50125,1.6725 C6.56921252,2.0517964 7.33227495,3.00054701 7.47375,4.125 Z M3.405,4.875 L5.625,4.875 C5.52903112,5.80146887 5.13414427,6.67153623 4.5,7.35375 C3.86627643,6.67438658 3.48044693,5.80098487 3.405,4.875 L3.405,4.875 Z M3.405,4.125 C3.49233211,3.20318507 3.87659587,2.33464367 4.5,1.65 C5.13926682,2.32729603 5.5350483,3.19801528 5.625,4.125 L3.405,4.125 Z M3.54,1.66125 C3.0275811,2.3876335 2.72055012,3.23877 2.65125,4.125 L1.52625,4.125 C1.67078837,2.98608776 2.45262785,2.02953554 3.54,1.66125 Z M1.52625,4.875 L2.65125,4.875 C2.71300924,5.76047499 3.0179548,6.6117273 3.5325,7.335 C2.44916128,6.96495666 1.67085708,6.01062478 1.52625,4.875 Z M5.4825,7.33125 C5.99565302,6.60775325 6.30399818,5.75915627 6.375,4.875 L7.48125,4.875 C7.33658452,6.00734451 6.56180804,6.95946195 5.4825,7.33125 L5.4825,7.33125 Z" id="-Icon-小olor"></path>
        </g>
        <path d="M204,235.360475 L457,235.360475 L457,258.120475 C457,259.357593 455.997118,260.360475 454.76,260.360475 L206.24,260.360475 C205.002882,260.360475 204,259.357593 204,258.120475 L204,235.360475 L204,235.360475 Z" id="Rectangle" stroke="#F2F3F5" stroke-width="0.55999999" fill="#F2F3F5"></path>
        <g id="icon-resize" transform="translate(206.000000, 250.360475)" fill="#8F9CB3">
            <path d="M5.69599992,6.71999989 L4.77866659,6.71999989 L6.71999989,4.77866659 L6.71999989,5.69599992 L5.69599992,6.71999989 Z M3.30666661,6.71999989 L2.38933329,6.71999989 L6.71999989,2.38933329 L6.71999989,3.30666661 L3.30666661,6.71999989 Z M0.917333316,6.71999989 L0,6.71999989 L6.71999989,0 L6.71999989,0.917333316 L0.917333316,6.71999989 Z" id="Shape" transform="translate(3.360000, 3.360000) rotate(90.000000) translate(-3.360000, -3.360000) "></path>
        </g>
        <g id="tag" transform="translate(220.000000, 242.360475)" fill="#B8BFCC">
            <path d="M4.67506187,9.625 C4.56946319,9.625 4.46386451,9.584575 4.38342802,9.5041375 L1.49596411,6.6166375 C1.33467863,6.45535 1.33467863,6.19465 1.49596411,6.0333625 L6.03340739,1.4958625 C6.11054393,1.4183125 6.21531762,1.375 6.32504125,1.375 L9.21250516,1.375 C9.4406148,1.375 9.625,1.5593875 9.625,1.7875 L9.625,4.675 C9.625,4.784725 9.58168804,4.8895 9.50413901,4.9666375 L4.96669573,9.5041375 C4.88625923,9.584575 4.78066055,9.625 4.67506187,9.625 Z M8.80001031,4.504225 L8.80001031,2.2 L6.49581411,2.2 L2.37086568,6.325 L4.67506187,8.629225 L8.80001031,4.504225 Z M7.54251057,2.75748349 C7.73581794,2.56417396 8.04923079,2.56417396 8.24253791,2.75748349 C8.43584503,2.95079328 8.43584503,3.26421005 8.24253791,3.45751958 C8.04923055,3.65082912 7.73581769,3.65082912 7.54251057,3.45751958 C7.34920345,3.2642098 7.34920345,2.95079303 7.54251057,2.75748349 L7.54251057,2.75748349 Z" id="-Icon-小olor"></path>
        </g>
        <rect id="Rectangle-12-[4-8]" fill="#FFFFFF" x="241" y="241.360475" width="51" height="11" rx="5.5"></rect>
        <path d="M235.6704,82.360475 L235.6704,79.893275 L237.408,79.893275 C238.7136,79.893275 239.4528,78.990875 239.4528,77.925275 C239.4528,76.859675 238.7232,75.957275 237.408,75.957275 L234.7104,75.957275 L234.7104,82.360475 L235.6704,82.360475 Z M237.2832,79.048475 L235.6704,79.048475 L235.6704,76.802075 L237.2832,76.802075 C237.9744,76.802075 238.464,77.253275 238.464,77.925275 C238.464,78.597275 237.9744,79.048475 237.2832,79.048475 Z M241.2864,82.360475 L241.2864,79.134875 C241.488,78.789275 242.0736,78.462875 242.5056,78.462875 C242.6208,78.462875 242.7168,78.472475 242.8032,78.491675 L242.8032,77.618075 C242.1888,77.618075 241.6416,77.973275 241.2864,78.434075 L241.2864,77.723675 L240.4224,77.723675 L240.4224,82.360475 L241.2864,82.360475 Z M245.7216,82.475675 C247.1712,82.475675 248.064,81.381275 248.064,80.037275 C248.064,78.702875 247.1712,77.608475 245.7216,77.608475 C244.2816,77.608475 243.3792,78.702875 243.3792,80.037275 C243.3792,81.381275 244.2816,82.475675 245.7216,82.475675 Z M245.7216,81.707675 C244.8,81.707675 244.2816,80.920475 244.2816,80.037275 C244.2816,79.163675 244.8,78.376475 245.7216,78.376475 C246.6528,78.376475 247.1616,79.163675 247.1616,80.037275 C247.1616,80.920475 246.6528,81.707675 245.7216,81.707675 Z M250.944,82.475675 C251.5584,82.475675 252.1152,82.158875 252.4608,81.698075 L252.4608,82.360475 L253.3248,82.360475 L253.3248,75.957275 L252.4608,75.957275 L252.4608,78.395675 C252.0864,77.896475 251.5392,77.608475 250.944,77.608475 C249.7344,77.608475 248.8704,78.558875 248.8704,80.046875 C248.8704,81.563675 249.7344,82.475675 250.944,82.475675 Z M251.1744,81.707675 C250.3104,81.707675 249.7728,81.006875 249.7728,80.046875 C249.7728,79.077275 250.3104,78.376475 251.1744,78.376475 C251.7024,78.376475 252.2208,78.683675 252.4608,79.058075 L252.4608,81.035675 C252.2208,81.410075 251.7024,81.707675 251.1744,81.707675 Z M256.1856,82.475675 C256.896,82.475675 257.4816,82.110875 257.8368,81.726875 L257.8368,82.360475 L258.7008,82.360475 L258.7008,77.723675 L257.8368,77.723675 L257.8368,81.054875 C257.5776,81.400475 257.088,81.707675 256.5504,81.707675 C255.9552,81.707675 255.5712,81.477275 255.5712,80.709275 L255.5712,77.723675 L254.7072,77.723675 L254.7072,80.997275 C254.7072,81.976475 255.1968,82.475675 256.1856,82.475675 Z M262.1472,82.475675 C263.0208,82.475675 263.5488,82.110875 263.8848,81.659675 L263.3088,81.131675 C263.0304,81.515675 262.656,81.707675 262.1856,81.707675 C261.2736,81.707675 260.688,80.997275 260.688,80.037275 C260.688,79.077275 261.2736,78.376475 262.1856,78.376475 C262.656,78.376475 263.0304,78.558875 263.3088,78.952475 L263.8848,78.424475 C263.5488,77.973275 263.0208,77.608475 262.1472,77.608475 C260.7456,77.608475 259.7856,78.645275 259.7856,80.037275 C259.7856,81.429275 260.7456,82.475675 262.1472,82.475675 Z M266.112,82.475675 C266.5632,82.475675 266.832,82.350875 267.0144,82.178075 L266.7936,81.525275 C266.7072,81.621275 266.5248,81.707675 266.3232,81.707675 C266.0256,81.707675 265.872,81.467675 265.872,81.141275 L265.872,78.482075 L266.8128,78.482075 L266.8128,77.723675 L265.872,77.723675 L265.872,76.456475 L265.008,76.456475 L265.008,77.723675 L264.24,77.723675 L264.24,78.482075 L265.008,78.482075 L265.008,81.333275 C265.008,82.062875 265.3824,82.475675 266.112,82.475675 Z M271.2288,82.360475 L271.2288,79.518875 L274.5024,79.518875 L274.5024,78.674075 L271.2288,78.674075 L271.2288,76.802075 L274.5696,76.802075 L274.5696,75.957275 L270.2688,75.957275 L270.2688,82.360475 L271.2288,82.360475 Z M276,82.360475 L276.5184,81.035675 L279.6576,81.035675 L280.176,82.360475 L281.232,82.360475 L278.688,75.957275 L277.488,75.957275 L274.944,82.360475 L276,82.360475 Z M279.3792,80.181275 L276.7968,80.181275 L278.0832,76.792475 L279.3792,80.181275 Z M287.2224,82.686875 L287.8848,82.120475 L287.3184,81.496475 C287.8656,80.910875 288.1824,80.094875 288.1824,79.163675 C288.1824,77.262875 286.8672,75.851675 284.9568,75.851675 C283.0464,75.851675 281.7312,77.262875 281.7312,79.163675 C281.7312,81.064475 283.0464,82.475675 284.9568,82.475675 C285.5904,82.475675 286.1568,82.322075 286.6368,82.043675 L287.2224,82.686875 Z M284.9568,81.621275 C283.584,81.621275 282.72,80.565275 282.72,79.163675 C282.72,77.752475 283.584,76.706075 284.9568,76.706075 C286.3104,76.706075 287.1936,77.752475 287.1936,79.163675 C287.1936,79.797275 287.0112,80.363675 286.6848,80.795675 L285.84,79.854875 L285.168,80.421275 L286.0224,81.362075 C285.7152,81.525275 285.36,81.621275 284.9568,81.621275 Z M290.8512,82.475675 C292.0704,82.475675 292.7232,81.851675 292.7232,81.054875 C292.7232,79.989275 291.7632,79.768475 290.9568,79.586075 C290.3808,79.451675 289.8816,79.317275 289.8816,78.914075 C289.8816,78.539675 290.2464,78.309275 290.832,78.309275 C291.4176,78.309275 291.936,78.549275 292.2048,78.875675 L292.5888,78.270875 C292.1952,77.896475 291.6192,77.608475 290.8224,77.608475 C289.6896,77.608475 289.056,78.242075 289.056,78.981275 C289.056,79.979675 289.9776,80.190875 290.7648,80.373275 C291.36,80.507675 291.888,80.661275 291.888,81.122075 C291.888,81.515675 291.5424,81.784475 290.8896,81.784475 C290.2656,81.784475 289.6512,81.467675 289.3344,81.122075 L288.9216,81.755675 C289.392,82.235675 290.0736,82.475675 290.8512,82.475675 Z" id="ProductFAQs" fill="#1F3966" fill-rule="nonzero"></path>
        <path d="M237.7536,43.475675 C238.9152,43.475675 239.6832,42.938075 240.2208,42.208475 L239.5392,41.834075 C239.1744,42.381275 238.512,42.765275 237.7536,42.765275 C236.3808,42.765275 235.3152,41.680475 235.3152,40.163675 C235.3152,38.637275 236.3808,37.562075 237.7536,37.562075 C238.512,37.562075 239.1744,37.955675 239.5392,38.493275 L240.2112,38.118875 C239.7024,37.398875 238.9152,36.851675 237.7536,36.851675 C235.9392,36.851675 234.4896,38.195675 234.4896,40.163675 C234.4896,42.131675 235.9392,43.475675 237.7536,43.475675 Z M241.9296,43.360475 L241.9296,36.957275 L241.2096,36.957275 L241.2096,43.360475 L241.9296,43.360475 Z M243.7248,37.946075 C243.9936,37.946075 244.2144,37.725275 244.2144,37.456475 C244.2144,37.187675 243.9936,36.976475 243.7248,36.976475 C243.4656,36.976475 243.2448,37.187675 243.2448,37.456475 C243.2448,37.725275 243.4656,37.946075 243.7248,37.946075 Z M244.0896,43.360475 L244.0896,38.723675 L243.3696,38.723675 L243.3696,43.360475 L244.0896,43.360475 Z M247.6224,43.475675 C248.3808,43.475675 249.0048,43.226075 249.4656,42.765275 L249.12,42.294875 C248.7552,42.669275 248.2176,42.880475 247.6896,42.880475 C246.6912,42.880475 246.0768,42.150875 246.0192,41.277275 L249.7728,41.277275 L249.7728,41.094875 C249.7728,39.702875 248.9472,38.608475 247.5456,38.608475 C246.2208,38.608475 245.2608,39.693275 245.2608,41.037275 C245.2608,42.486875 246.2496,43.475675 247.6224,43.475675 Z M249.0624,40.749275 L246.0192,40.749275 C246.0576,40.038875 246.5472,39.203675 247.536,39.203675 C248.592,39.203675 249.0528,40.058075 249.0624,40.749275 Z M251.6544,43.360475 L251.6544,39.971675 C251.9232,39.597275 252.4608,39.251675 253.0272,39.251675 C253.6512,39.251675 254.064,39.510875 254.064,40.326875 L254.064,43.360475 L254.784,43.360475 L254.784,40.106075 C254.784,39.098075 254.2752,38.608475 253.3056,38.608475 C252.6144,38.608475 251.9808,39.011675 251.6544,39.395675 L251.6544,38.723675 L250.9344,38.723675 L250.9344,43.360475 L251.6544,43.360475 Z M257.3952,43.475675 C257.8176,43.475675 258.0768,43.350875 258.2592,43.178075 L258.048,42.640475 C257.952,42.746075 257.76,42.832475 257.5584,42.832475 C257.2416,42.832475 257.088,42.582875 257.088,42.237275 L257.088,39.357275 L258.0288,39.357275 L258.0288,38.723675 L257.088,38.723675 L257.088,37.456475 L256.368,37.456475 L256.368,38.723675 L255.6,38.723675 L255.6,39.357275 L256.368,39.357275 L256.368,42.390875 C256.368,43.082075 256.7136,43.475675 257.3952,43.475675 Z M263.6256,43.475675 C265.3536,43.475675 265.9872,42.525275 265.9872,41.594075 C265.9872,40.250075 264.7968,39.923675 263.7504,39.645275 C262.9344,39.424475 262.1952,39.232475 262.1952,38.589275 C262.1952,37.984475 262.7424,37.571675 263.5104,37.571675 C264.2112,37.571675 264.8832,37.811675 265.3632,38.339675 L265.8432,37.754075 C265.3056,37.187675 264.5472,36.861275 263.568,36.861275 C262.3104,36.861275 261.3696,37.581275 261.3696,38.637275 C261.3696,39.894875 262.512,40.182875 263.5392,40.451675 C264.384,40.682075 265.1616,40.893275 265.1616,41.661275 C265.1616,42.150875 264.7968,42.765275 263.6544,42.765275 C262.752,42.765275 262.0608,42.323675 261.6384,41.853275 L261.168,42.458075 C261.696,43.053275 262.512,43.475675 263.6256,43.475675 Z M268.6272,43.475675 C269.3184,43.475675 269.9232,43.110875 270.2784,42.707675 L270.2784,43.360475 L270.9984,43.360475 L270.9984,38.723675 L270.2784,38.723675 L270.2784,42.131675 C270.0096,42.506075 269.472,42.832475 268.9056,42.832475 C268.2816,42.832475 267.8688,42.592475 267.8688,41.776475 L267.8688,38.723675 L267.1488,38.723675 L267.1488,41.997275 C267.1488,43.005275 267.6576,43.475675 268.6272,43.475675 Z M273.1584,45.126875 L273.1584,42.659675 C273.5328,43.178075 274.0896,43.475675 274.7232,43.475675 C275.9424,43.475675 276.7872,42.534875 276.7872,41.037275 C276.7872,39.530075 275.9424,38.608475 274.7232,38.608475 C274.0704,38.608475 273.4944,38.944475 273.1584,39.414875 L273.1584,38.723675 L272.4384,38.723675 L272.4384,45.126875 L273.1584,45.126875 Z M274.5408,42.832475 C273.9744,42.832475 273.408,42.486875 273.1584,42.083675 L273.1584,39.990875 C273.408,39.587675 273.9744,39.251675 274.5408,39.251675 C275.472,39.251675 276.0288,40.010075 276.0288,41.037275 C276.0288,42.064475 275.472,42.832475 274.5408,42.832475 Z M278.6688,45.126875 L278.6688,42.659675 C279.0432,43.178075 279.6,43.475675 280.2336,43.475675 C281.4528,43.475675 282.2976,42.534875 282.2976,41.037275 C282.2976,39.530075 281.4528,38.608475 280.2336,38.608475 C279.5808,38.608475 279.0048,38.944475 278.6688,39.414875 L278.6688,38.723675 L277.9488,38.723675 L277.9488,45.126875 L278.6688,45.126875 Z M280.0512,42.832475 C279.4848,42.832475 278.9184,42.486875 278.6688,42.083675 L278.6688,39.990875 C278.9184,39.587675 279.4848,39.251675 280.0512,39.251675 C280.9824,39.251675 281.5392,40.010075 281.5392,41.037275 C281.5392,42.064475 280.9824,42.832475 280.0512,42.832475 Z M285.4848,43.475675 C286.896,43.475675 287.7792,42.381275 287.7792,41.037275 C287.7792,39.693275 286.896,38.608475 285.4848,38.608475 C284.0736,38.608475 283.1904,39.693275 283.1904,41.037275 C283.1904,42.381275 284.0736,43.475675 285.4848,43.475675 Z M285.4848,42.832475 C284.496,42.832475 283.9392,41.987675 283.9392,41.037275 C283.9392,40.096475 284.496,39.251675 285.4848,39.251675 C286.4736,39.251675 287.0208,40.096475 287.0208,41.037275 C287.0208,41.987675 286.4736,42.832475 285.4848,42.832475 Z M289.6704,43.360475 L289.6704,40.077275 C289.8816,39.702875 290.4864,39.338075 290.928,39.338075 C291.0432,39.338075 291.1296,39.347675 291.216,39.366875 L291.216,38.627675 C290.5824,38.627675 290.0448,38.982875 289.6704,39.472475 L289.6704,38.723675 L288.9504,38.723675 L288.9504,43.360475 L289.6704,43.360475 Z M293.2896,43.475675 C293.712,43.475675 293.9712,43.350875 294.1536,43.178075 L293.9424,42.640475 C293.8464,42.746075 293.6544,42.832475 293.4528,42.832475 C293.136,42.832475 292.9824,42.582875 292.9824,42.237275 L292.9824,39.357275 L293.9232,39.357275 L293.9232,38.723675 L292.9824,38.723675 L292.9824,37.456475 L292.2624,37.456475 L292.2624,38.723675 L291.4944,38.723675 L291.4944,39.357275 L292.2624,39.357275 L292.2624,42.390875 C292.2624,43.082075 292.608,43.475675 293.2896,43.475675 Z" id="ClientSupport" fill="#29CC96" fill-rule="nonzero"></path>
        <rect id="Rectangle" fill="#F2F3F5" x="234" y="95.360475" width="197" height="4"></rect>
        <rect id="Rectangle-Copy" fill="#F2F3F5" x="234" y="104.360475" width="197" height="4"></rect>
        <rect id="Rectangle-Copy-2" fill="#F2F3F5" x="234" y="113.360475" width="197" height="4"></rect>
        <rect id="Rectangle-Copy-3" fill="#F2F3F5" x="234" y="129.360475" width="177" height="88" rx="2.4"></rect>
        <line x1="204" y1="55.860475" x2="457" y2="55.860475" id="Line-Copy-53" stroke="#DADEE6" stroke-width="0.55999999"></line>
        <g id="Rectangle">
            <use fill="black" fill-opacity="1" filter="url(#filter-6)" xlink:href="#path-5"></use>
            <use stroke="#F2F3F5" stroke-width="0.8" fill="#FFFFFF" xlink:href="#path-5"></use>
        </g>
        <rect id="Rectangle-Copy-7" fill="#E9EBF0" x="81" y="214.360475" width="159.157895" height="34" rx="2.4"></rect>
        <g id="verification/dot/trusted/selected" transform="translate(88.578947, 222.860475)">
            <g id="Group" transform="translate(3.368421, 3.400000)">
                <rect id="Rectangle-3" stroke="#29CC96" stroke-width="0.8" fill="#29CC96" x="0" y="0" width="10.1052632" height="10.2" rx="4.8"></rect>
                <path d="M7.2467647,2.90502333 C6.16887359,4.06088515 5.18718557,5.20129844 4.13957052,6.33986819 L2.81427043,5.20587232 C2.72398518,5.12838938 2.60857417,5.09283795 2.49358618,5.10651175 C2.37859819,5.12018556 2.27341149,5.18217215 2.20100842,5.2788024 C2.05024954,5.4802632 2.08090719,5.77424009 2.26914864,5.93513103 L3.904514,7.33529878 C4.07870222,7.48433497 4.33038495,7.46883978 4.48711836,7.29883608 C5.6591302,6.04183548 6.71274159,4.80245366 7.86687344,3.56505541 C7.99719026,3.4306043 8.03594841,3.22412623 7.96482528,3.04591988 C7.89370434,2.86771353 7.72718489,2.75512837 7.54661875,2.76287597 C7.43329447,2.76645923 7.3255566,2.81750701 7.2467647,2.90502333 Z" id="Fill-1" fill="#FFFFFF"></path>
            </g>
        </g>
        <path d="M115.3296,235 L115.3296,232.3232 L117.2336,232.3232 C118.8464,232.3232 119.7424,231.2368 119.7424,229.9376 C119.7424,228.6272 118.8576,227.5296 117.2336,227.5296 L113.7392,227.5296 L113.7392,235 L115.3296,235 Z M117.0208,230.9568 L115.3296,230.9568 L115.3296,228.896 L117.0208,228.896 C117.648,228.896 118.1184,229.3104 118.1184,229.9264 C118.1184,230.5536 117.648,230.9568 117.0208,230.9568 Z M122.1168,235 L122.1168,231.4272 C122.352,231.08 122.9792,230.8112 123.4496,230.8112 C123.6064,230.8112 123.7408,230.8336 123.8416,230.856 L123.8416,229.4672 C123.1696,229.4672 122.4976,229.848 122.1168,230.3296 L122.1168,229.5904 L120.6944,229.5904 L120.6944,235 L122.1168,235 Z M127.2352,235.1344 C129.0272,235.1344 130.1024,233.8352 130.1024,232.2896 C130.1024,230.7552 129.0272,229.456 127.2352,229.456 C125.4544,229.456 124.3792,230.7552 124.3792,232.2896 C124.3792,233.8352 125.4544,235.1344 127.2352,235.1344 Z M127.2352,233.8688 C126.3504,233.8688 125.8576,233.1408 125.8576,232.2896 C125.8576,231.4496 126.3504,230.7216 127.2352,230.7216 C128.12,230.7216 128.624,231.4496 128.624,232.2896 C128.624,233.1408 128.12,233.8688 127.2352,233.8688 Z M133.2048,235.1344 C133.8544,235.1344 134.448,234.8432 134.8736,234.3056 L134.8736,235 L136.3072,235 L136.3072,227.5296 L134.8736,227.5296 L134.8736,230.2848 C134.448,229.736 133.8432,229.456 133.2048,229.456 C131.8272,229.456 130.808,230.5312 130.808,232.3008 C130.808,234.104 131.8384,235.1344 133.2048,235.1344 Z M133.6416,233.8688 C132.8352,233.8688 132.2752,233.2304 132.2752,232.3008 C132.2752,231.36 132.8352,230.7216 133.6416,230.7216 C134.1232,230.7216 134.6384,230.9792 134.8736,231.3376 L134.8736,233.2528 C134.6384,233.6112 134.1232,233.8688 133.6416,233.8688 Z M139.4656,235.1344 C140.3504,235.1344 141,234.7312 141.3696,234.3168 L141.3696,235 L142.792,235 L142.792,229.5904 L141.3696,229.5904 L141.3696,233.2528 C141.1232,233.5664 140.6864,233.8688 140.1376,233.8688 C139.5328,233.8688 139.1408,233.6224 139.1408,232.872 L139.1408,229.5904 L137.7184,229.5904 L137.7184,233.432 C137.7184,234.4848 138.2784,235.1344 139.4656,235.1344 Z M146.7232,235.1344 C147.832,235.1344 148.504,234.6528 148.8624,234.1488 L147.9328,233.2864 C147.6752,233.6448 147.2832,233.8688 146.7904,233.8688 C145.928,233.8688 145.3232,233.2304 145.3232,232.2896 C145.3232,231.3488 145.928,230.7216 146.7904,230.7216 C147.2832,230.7216 147.6752,230.9232 147.9328,231.304 L148.8624,230.4304 C148.504,229.9376 147.832,229.456 146.7232,229.456 C145.0544,229.456 143.856,230.632 143.856,232.2896 C143.856,233.9584 145.0544,235.1344 146.7232,235.1344 Z M151.6064,235.1344 C152.2,235.1344 152.5808,234.9776 152.7936,234.7872 L152.4912,233.712 C152.4128,233.7904 152.2112,233.8688 151.9984,233.8688 C151.6848,233.8688 151.5056,233.6112 151.5056,233.2752 L151.5056,230.8336 L152.6032,230.8336 L152.6032,229.5904 L151.5056,229.5904 L151.5056,228.112 L150.072,228.112 L150.072,229.5904 L149.176,229.5904 L149.176,230.8336 L150.072,230.8336 L150.072,233.656 C150.072,234.6192 150.6096,235.1344 151.6064,235.1344 Z M158.0688,235 L158.0688,231.8864 L161.6864,231.8864 L161.6864,230.52 L158.0688,230.52 L158.0688,228.896 L161.7648,228.896 L161.7648,227.5296 L156.4784,227.5296 L156.4784,235 L158.0688,235 Z M163.8256,235 L164.296,233.712 L167.6336,233.712 L168.104,235 L169.84,235 L166.9616,227.5296 L164.968,227.5296 L162.0784,235 L163.8256,235 Z M167.1968,232.3344 L164.7216,232.3344 L165.9648,228.9072 L167.1968,232.3344 Z M176.448,235.4592 L177.5568,234.552 L177.008,233.9136 C177.624,233.2416 177.9824,232.3232 177.9824,231.2704 C177.9824,229.0192 176.336,227.4064 174.0736,227.4064 C171.8224,227.4064 170.176,229.0192 170.176,231.2704 C170.176,233.5216 171.8224,235.1344 174.0736,235.1344 C174.7232,235.1344 175.328,235 175.8544,234.7536 L176.448,235.4592 Z M174.0736,233.7232 C172.696,233.7232 171.8112,232.6592 171.8112,231.2704 C171.8112,229.8704 172.696,228.8176 174.0736,228.8176 C175.4512,228.8176 176.3472,229.8704 176.3472,231.2704 C176.3472,231.808 176.2128,232.3008 175.9664,232.6928 L175.1152,231.696 L174.0064,232.592 L174.8576,233.5888 C174.6224,233.6784 174.3536,233.7232 174.0736,233.7232 Z M181.0176,235.1344 C182.5184,235.1344 183.3584,234.384 183.3584,233.3984 C183.3584,232.0544 182.1152,231.808 181.1856,231.6288 C180.5808,231.5056 180.1552,231.3824 180.1552,231.0464 C180.1552,230.7328 180.4912,230.5424 181.0064,230.5424 C181.6672,230.5424 182.2832,230.8224 182.608,231.1696 L183.1792,230.1952 C182.6416,229.7696 181.9136,229.456 180.9952,229.456 C179.5728,229.456 178.7776,230.2512 178.7776,231.1584 C178.7776,232.4464 179.976,232.6704 180.9056,232.8496 C181.5216,232.9728 181.992,233.1072 181.992,233.488 C181.992,233.824 181.7008,234.0368 181.0848,234.0368 C180.4128,234.0368 179.6064,233.6672 179.2144,233.2976 L178.5984,234.2944 C179.1696,234.8208 180.0768,235.1344 181.0176,235.1344 Z" id="ProductFAQs" fill="#1F3966" fill-rule="nonzero"></path>
        <g id="verification/dot/trusted/active" transform="translate(89.000000, 152.360475)">
            <g id="Group" transform="translate(3.364948, 3.400000)">
                <rect id="Rectangle-3" stroke="#29CC96" stroke-width="0.8" fill="#F2FFFB" x="0" y="0" width="10.0948454" height="10.2" rx="4.8"></rect>
                <path d="M7.23929381,2.90502333 C6.16251392,4.06088515 5.18183795,5.20129844 4.13530292,6.33986819 L2.81136912,5.20587232 C2.72117695,5.12838938 2.60588492,5.09283795 2.49101548,5.10651175 C2.37614603,5.12018556 2.27106777,5.18217215 2.19873934,5.2788024 C2.04813588,5.4802632 2.07876192,5.77424009 2.26680931,5.93513103 L3.90048873,7.33529878 C4.07449737,7.48433497 4.32592063,7.46883978 4.48249247,7.29883608 C5.65329605,6.04183548 6.70582124,4.80245366 7.85876326,3.56505541 C7.98894573,3.4306043 8.02766393,3.22412623 7.95661412,3.04591988 C7.8855665,2.86771353 7.71921872,2.75512837 7.53883873,2.76287597 C7.42563128,2.76645923 7.31800448,2.81750701 7.23929381,2.90502333 Z" id="Fill-1" fill="#29CC96"></path>
            </g>
        </g>
        <path d="M116.688676,163.794875 C118.704676,163.794875 119.443876,162.686075 119.443876,161.599675 C119.443876,160.031675 118.055076,159.650875 116.834276,159.326075 C115.882276,159.068475 115.019876,158.844475 115.019876,158.094075 C115.019876,157.388475 115.658276,156.906875 116.554276,156.906875 C117.371876,156.906875 118.155876,157.186875 118.715876,157.802875 L119.275876,157.119675 C118.648676,156.458875 117.763876,156.078075 116.621476,156.078075 C115.154276,156.078075 114.056676,156.918075 114.056676,158.150075 C114.056676,159.617275 115.389476,159.953275 116.587876,160.266875 C117.573476,160.535675 118.480676,160.782075 118.480676,161.678075 C118.480676,162.249275 118.055076,162.966075 116.722276,162.966075 C115.669476,162.966075 114.863076,162.450875 114.370276,161.902075 L113.821476,162.607675 C114.437476,163.302075 115.389476,163.794875 116.688676,163.794875 Z M122.523876,163.794875 C123.330276,163.794875 124.035876,163.369275 124.450276,162.898875 L124.450276,163.660475 L125.290276,163.660475 L125.290276,158.250875 L124.450276,158.250875 L124.450276,162.226875 C124.136676,162.663675 123.509476,163.044475 122.848676,163.044475 C122.120676,163.044475 121.639076,162.764475 121.639076,161.812475 L121.639076,158.250875 L120.799076,158.250875 L120.799076,162.070075 C120.799076,163.246075 121.392676,163.794875 122.523876,163.794875 Z M127.810276,165.721275 L127.810276,162.842875 C128.247076,163.447675 128.896676,163.794875 129.635876,163.794875 C131.058276,163.794875 132.043876,162.697275 132.043876,160.950075 C132.043876,159.191675 131.058276,158.116475 129.635876,158.116475 C128.874276,158.116475 128.202276,158.508475 127.810276,159.057275 L127.810276,158.250875 L126.970276,158.250875 L126.970276,165.721275 L127.810276,165.721275 Z M129.423076,163.044475 C128.762276,163.044475 128.101476,162.641275 127.810276,162.170875 L127.810276,159.729275 C128.101476,159.258875 128.762276,158.866875 129.423076,158.866875 C130.509476,158.866875 131.159076,159.751675 131.159076,160.950075 C131.159076,162.148475 130.509476,163.044475 129.423076,163.044475 Z M134.239076,165.721275 L134.239076,162.842875 C134.675876,163.447675 135.325476,163.794875 136.064676,163.794875 C137.487076,163.794875 138.472676,162.697275 138.472676,160.950075 C138.472676,159.191675 137.487076,158.116475 136.064676,158.116475 C135.303076,158.116475 134.631076,158.508475 134.239076,159.057275 L134.239076,158.250875 L133.399076,158.250875 L133.399076,165.721275 L134.239076,165.721275 Z M135.851876,163.044475 C135.191076,163.044475 134.530276,162.641275 134.239076,162.170875 L134.239076,159.729275 C134.530276,159.258875 135.191076,158.866875 135.851876,158.866875 C136.938276,158.866875 137.587876,159.751675 137.587876,160.950075 C137.587876,162.148475 136.938276,163.044475 135.851876,163.044475 Z M142.191076,163.794875 C143.837476,163.794875 144.867876,162.518075 144.867876,160.950075 C144.867876,159.382075 143.837476,158.116475 142.191076,158.116475 C140.544676,158.116475 139.514276,159.382075 139.514276,160.950075 C139.514276,162.518075 140.544676,163.794875 142.191076,163.794875 Z M142.191076,163.044475 C141.037476,163.044475 140.387876,162.058875 140.387876,160.950075 C140.387876,159.852475 141.037476,158.866875 142.191076,158.866875 C143.344676,158.866875 143.983076,159.852475 143.983076,160.950075 C143.983076,162.058875 143.344676,163.044475 142.191076,163.044475 Z M147.074276,163.660475 L147.074276,159.830075 C147.320676,159.393275 148.026276,158.967675 148.541476,158.967675 C148.675876,158.967675 148.776676,158.978875 148.877476,159.001275 L148.877476,158.138875 C148.138276,158.138875 147.511076,158.553275 147.074276,159.124475 L147.074276,158.250875 L146.234276,158.250875 L146.234276,163.660475 L147.074276,163.660475 Z M151.296676,163.794875 C151.789476,163.794875 152.091876,163.649275 152.304676,163.447675 L152.058276,162.820475 C151.946276,162.943675 151.722276,163.044475 151.487076,163.044475 C151.117476,163.044475 150.938276,162.753275 150.938276,162.350075 L150.938276,158.990075 L152.035876,158.990075 L152.035876,158.250875 L150.938276,158.250875 L150.938276,156.772475 L150.098276,156.772475 L150.098276,158.250875 L149.202276,158.250875 L149.202276,158.990075 L150.098276,158.990075 L150.098276,162.529275 C150.098276,163.335675 150.501476,163.794875 151.296676,163.794875 Z M160.547876,163.660475 L160.547876,162.831675 L157.075876,162.831675 L157.075876,156.190075 L156.146276,156.190075 L156.146276,163.660475 L160.547876,163.660475 Z M164.266276,163.794875 C165.151076,163.794875 165.879076,163.503675 166.416676,162.966075 L166.013476,162.417275 C165.587876,162.854075 164.960676,163.100475 164.344676,163.100475 C163.179876,163.100475 162.463076,162.249275 162.395876,161.230075 L166.775076,161.230075 L166.775076,161.017275 C166.775076,159.393275 165.811876,158.116475 164.176676,158.116475 C162.631076,158.116475 161.511076,159.382075 161.511076,160.950075 C161.511076,162.641275 162.664676,163.794875 164.266276,163.794875 Z M165.946276,160.614075 L162.395876,160.614075 C162.440676,159.785275 163.011876,158.810875 164.165476,158.810875 C165.397476,158.810875 165.935076,159.807675 165.946276,160.614075 Z M170.493476,163.660475 L172.744676,158.250875 L171.826276,158.250875 L170.034276,162.686075 L168.231076,158.250875 L167.323876,158.250875 L169.575076,163.660475 L170.493476,163.660475 Z M176.059876,163.794875 C176.944676,163.794875 177.672676,163.503675 178.210276,162.966075 L177.807076,162.417275 C177.381476,162.854075 176.754276,163.100475 176.138276,163.100475 C174.973476,163.100475 174.256676,162.249275 174.189476,161.230075 L178.568676,161.230075 L178.568676,161.017275 C178.568676,159.393275 177.605476,158.116475 175.970276,158.116475 C174.424676,158.116475 173.304676,159.382075 173.304676,160.950075 C173.304676,162.641275 174.458276,163.794875 176.059876,163.794875 Z M177.739876,160.614075 L174.189476,160.614075 C174.234276,159.785275 174.805476,158.810875 175.959076,158.810875 C177.191076,158.810875 177.728676,159.807675 177.739876,160.614075 Z M180.763876,163.660475 L180.763876,156.190075 L179.923876,156.190075 L179.923876,163.660475 L180.763876,163.660475 Z M184.157476,163.794875 C185.557476,163.794875 186.285476,163.066875 186.285476,162.159675 C186.285476,160.961275 185.199076,160.692475 184.258276,160.479675 C183.552676,160.311675 182.936676,160.143675 182.936676,159.617275 C182.936676,159.135675 183.395876,158.799675 184.135076,158.799675 C184.829476,158.799675 185.423076,159.090875 185.747876,159.482875 L186.139876,158.900475 C185.703076,158.463675 185.053476,158.116475 184.135076,158.116475 C182.847076,158.116475 182.119076,158.833275 182.119076,159.673275 C182.119076,160.793275 183.160676,161.039675 184.079076,161.252475 C184.807076,161.431675 185.467876,161.622075 185.467876,162.215675 C185.467876,162.742075 185.019876,163.111675 184.191076,163.111675 C183.451876,163.111675 182.768676,162.753275 182.410276,162.338875 L181.973476,162.943675 C182.522276,163.526075 183.272676,163.794875 184.157476,163.794875 Z" id="SupportLevels" fill="#1F3966" fill-rule="nonzero"></path>
        <g id="verification/dot/trusted/active" transform="translate(89.000000, 186.360475)">
            <g id="Group" transform="translate(3.368421, 3.400000)">
                <rect id="Rectangle-3" stroke="#29CC96" stroke-width="0.8" fill="#F2FFFB" x="0" y="0" width="10.1052632" height="10.2" rx="4.8"></rect>
                <path d="M7.2467647,2.90502333 C6.16887359,4.06088515 5.18718557,5.20129844 4.13957052,6.33986819 L2.81427043,5.20587232 C2.72398518,5.12838938 2.60857417,5.09283795 2.49358618,5.10651175 C2.37859819,5.12018556 2.27341149,5.18217215 2.20100842,5.2788024 C2.05024954,5.4802632 2.08090719,5.77424009 2.26914864,5.93513103 L3.904514,7.33529878 C4.07870222,7.48433497 4.33038495,7.46883978 4.48711836,7.29883608 C5.6591302,6.04183548 6.71274159,4.80245366 7.86687344,3.56505541 C7.99719026,3.4306043 8.03594841,3.22412623 7.96482528,3.04591988 C7.89370434,2.86771353 7.72718489,2.75512837 7.54661875,2.76287597 C7.43329447,2.76645923 7.3255566,2.81750701 7.2467647,2.90502333 Z" id="Fill-1" fill="#29CC96"></path>
            </g>
        </g>
        <path d="M117.800253,197.794875 C119.155453,197.794875 120.051453,197.167675 120.678653,196.316475 L119.883453,195.879675 C119.457853,196.518075 118.685053,196.966075 117.800253,196.966075 C116.198653,196.966075 114.955453,195.700475 114.955453,193.930875 C114.955453,192.150075 116.198653,190.895675 117.800253,190.895675 C118.685053,190.895675 119.457853,191.354875 119.883453,191.982075 L120.667453,191.545275 C120.073853,190.705275 119.155453,190.066875 117.800253,190.066875 C115.683453,190.066875 113.992253,191.634875 113.992253,193.930875 C113.992253,196.226875 115.683453,197.794875 117.800253,197.794875 Z M123.422653,197.794875 C124.150653,197.794875 124.766653,197.537275 125.214653,197.044475 L125.214653,197.660475 L126.054653,197.660475 L126.054653,193.942075 C126.054653,192.631675 125.102653,192.116475 123.960253,192.116475 C123.075453,192.116475 122.381053,192.407675 121.798653,193.012475 L122.190653,193.594875 C122.672253,193.079675 123.198653,192.844475 123.848253,192.844475 C124.632253,192.844475 125.214653,193.258875 125.214653,193.986875 L125.214653,194.961275 C124.777853,194.457275 124.161853,194.222075 123.422653,194.222075 C122.504253,194.222075 121.529853,194.793275 121.529853,196.002875 C121.529853,197.178875 122.504253,197.794875 123.422653,197.794875 Z M123.725053,197.190075 C122.941053,197.190075 122.392253,196.697275 122.392253,196.014075 C122.392253,195.319675 122.941053,194.826875 123.725053,194.826875 C124.318653,194.826875 124.889853,195.050875 125.214653,195.498875 L125.214653,196.518075 C124.889853,196.966075 124.318653,197.190075 123.725053,197.190075 Z M128.574653,197.660475 L128.574653,193.706875 C128.888253,193.270075 129.515453,192.866875 130.176253,192.866875 C130.904253,192.866875 131.385853,193.169275 131.385853,194.121275 L131.385853,197.660475 L132.225853,197.660475 L132.225853,193.863675 C132.225853,192.687675 131.632253,192.116475 130.501053,192.116475 C129.694653,192.116475 128.955453,192.586875 128.574653,193.034875 L128.574653,192.250875 L127.734653,192.250875 L127.734653,197.660475 L128.574653,197.660475 Z M134.745853,197.660475 L134.745853,193.706875 C135.059453,193.270075 135.686653,192.866875 136.347453,192.866875 C137.075453,192.866875 137.557053,193.169275 137.557053,194.121275 L137.557053,197.660475 L138.397053,197.660475 L138.397053,193.863675 C138.397053,192.687675 137.803453,192.116475 136.672253,192.116475 C135.865853,192.116475 135.126653,192.586875 134.745853,193.034875 L134.745853,192.250875 L133.905853,192.250875 L133.905853,197.660475 L134.745853,197.660475 Z M142.518653,197.794875 C143.403453,197.794875 144.131453,197.503675 144.669053,196.966075 L144.265853,196.417275 C143.840253,196.854075 143.213053,197.100475 142.597053,197.100475 C141.432253,197.100475 140.715453,196.249275 140.648253,195.230075 L145.027453,195.230075 L145.027453,195.017275 C145.027453,193.393275 144.064253,192.116475 142.429053,192.116475 C140.883453,192.116475 139.763453,193.382075 139.763453,194.950075 C139.763453,196.641275 140.917053,197.794875 142.518653,197.794875 Z M144.198653,194.614075 L140.648253,194.614075 C140.693053,193.785275 141.264253,192.810875 142.417853,192.810875 C143.649853,192.810875 144.187453,193.807675 144.198653,194.614075 Z M148.477053,197.794875 C149.238653,197.794875 149.899453,197.402875 150.302653,196.854075 L150.302653,197.660475 L151.142653,197.660475 L151.142653,190.190075 L150.302653,190.190075 L150.302653,193.068475 C149.865853,192.474875 149.205053,192.116475 148.477053,192.116475 C147.054653,192.116475 146.069053,193.236475 146.069053,194.961275 C146.069053,196.719675 147.065853,197.794875 148.477053,197.794875 Z M148.678653,197.044475 C147.592253,197.044475 146.942653,196.159675 146.942653,194.961275 C146.942653,193.762875 147.592253,192.866875 148.678653,192.866875 C149.350653,192.866875 150.000253,193.270075 150.302653,193.740475 L150.302653,196.193275 C150.000253,196.663675 149.350653,197.044475 148.678653,197.044475 Z M156.675453,197.660475 L156.675453,194.692475 L158.165053,194.692475 L160.069053,197.660475 L161.166653,197.660475 L159.150653,194.614075 C160.169853,194.524475 161.088253,193.785275 161.088253,192.441275 C161.088253,191.063675 160.113853,190.190075 158.747453,190.190075 L155.745853,190.190075 L155.745853,197.660475 L156.675453,197.660475 Z M158.635453,193.874875 L156.675453,193.874875 L156.675453,191.018875 L158.635453,191.018875 C159.520253,191.018875 160.125053,191.601275 160.125053,192.441275 C160.125053,193.281275 159.520253,193.874875 158.635453,193.874875 Z M164.963453,197.794875 C165.848253,197.794875 166.576253,197.503675 167.113853,196.966075 L166.710653,196.417275 C166.285053,196.854075 165.657853,197.100475 165.041853,197.100475 C163.877053,197.100475 163.160253,196.249275 163.093053,195.230075 L167.472253,195.230075 L167.472253,195.017275 C167.472253,193.393275 166.509053,192.116475 164.873853,192.116475 C163.328253,192.116475 162.208253,193.382075 162.208253,194.950075 C162.208253,196.641275 163.361853,197.794875 164.963453,197.794875 Z M166.643453,194.614075 L163.093053,194.614075 C163.137853,193.785275 163.709053,192.810875 164.862653,192.810875 C166.094653,192.810875 166.632253,193.807675 166.643453,194.614075 Z M170.541053,197.794875 C171.941053,197.794875 172.669053,197.066875 172.669053,196.159675 C172.669053,194.961275 171.582653,194.692475 170.641853,194.479675 C169.936253,194.311675 169.320253,194.143675 169.320253,193.617275 C169.320253,193.135675 169.779453,192.799675 170.518653,192.799675 C171.213053,192.799675 171.806653,193.090875 172.131453,193.482875 L172.523453,192.900475 C172.086653,192.463675 171.437053,192.116475 170.518653,192.116475 C169.230653,192.116475 168.502653,192.833275 168.502653,193.673275 C168.502653,194.793275 169.544253,195.039675 170.462653,195.252475 C171.190653,195.431675 171.851453,195.622075 171.851453,196.215675 C171.851453,196.742075 171.403453,197.111675 170.574653,197.111675 C169.835453,197.111675 169.152253,196.753275 168.793853,196.338875 L168.357053,196.943675 C168.905853,197.526075 169.656253,197.794875 170.541053,197.794875 Z M174.875453,199.721275 L174.875453,196.842875 C175.312253,197.447675 175.961853,197.794875 176.701053,197.794875 C178.123453,197.794875 179.109053,196.697275 179.109053,194.950075 C179.109053,193.191675 178.123453,192.116475 176.701053,192.116475 C175.939453,192.116475 175.267453,192.508475 174.875453,193.057275 L174.875453,192.250875 L174.035453,192.250875 L174.035453,199.721275 L174.875453,199.721275 Z M176.488253,197.044475 C175.827453,197.044475 175.166653,196.641275 174.875453,196.170875 L174.875453,193.729275 C175.166653,193.258875 175.827453,192.866875 176.488253,192.866875 C177.574653,192.866875 178.224253,193.751675 178.224253,194.950075 C178.224253,196.148475 177.574653,197.044475 176.488253,197.044475 Z M182.827453,197.794875 C184.473853,197.794875 185.504253,196.518075 185.504253,194.950075 C185.504253,193.382075 184.473853,192.116475 182.827453,192.116475 C181.181053,192.116475 180.150653,193.382075 180.150653,194.950075 C180.150653,196.518075 181.181053,197.794875 182.827453,197.794875 Z M182.827453,197.044475 C181.673853,197.044475 181.024253,196.058875 181.024253,194.950075 C181.024253,193.852475 181.673853,192.866875 182.827453,192.866875 C183.981053,192.866875 184.619453,193.852475 184.619453,194.950075 C184.619453,196.058875 183.981053,197.044475 182.827453,197.044475 Z M187.710653,197.660475 L187.710653,193.706875 C188.024253,193.270075 188.651453,192.866875 189.312253,192.866875 C190.040253,192.866875 190.521853,193.169275 190.521853,194.121275 L190.521853,197.660475 L191.361853,197.660475 L191.361853,193.863675 C191.361853,192.687675 190.768253,192.116475 189.637053,192.116475 C188.830653,192.116475 188.091453,192.586875 187.710653,193.034875 L187.710653,192.250875 L186.870653,192.250875 L186.870653,197.660475 L187.710653,197.660475 Z M194.755453,197.794875 C196.155453,197.794875 196.883453,197.066875 196.883453,196.159675 C196.883453,194.961275 195.797053,194.692475 194.856253,194.479675 C194.150653,194.311675 193.534653,194.143675 193.534653,193.617275 C193.534653,193.135675 193.993853,192.799675 194.733053,192.799675 C195.427453,192.799675 196.021053,193.090875 196.345853,193.482875 L196.737853,192.900475 C196.301053,192.463675 195.651453,192.116475 194.733053,192.116475 C193.445053,192.116475 192.717053,192.833275 192.717053,193.673275 C192.717053,194.793275 193.758653,195.039675 194.677053,195.252475 C195.405053,195.431675 196.065853,195.622075 196.065853,196.215675 C196.065853,196.742075 195.617853,197.111675 194.789053,197.111675 C194.049853,197.111675 193.366653,196.753275 193.008253,196.338875 L192.571453,196.943675 C193.120253,197.526075 193.870653,197.794875 194.755453,197.794875 Z M200.691453,197.794875 C201.576253,197.794875 202.304253,197.503675 202.841853,196.966075 L202.438653,196.417275 C202.013053,196.854075 201.385853,197.100475 200.769853,197.100475 C199.605053,197.100475 198.888253,196.249275 198.821053,195.230075 L203.200253,195.230075 L203.200253,195.017275 C203.200253,193.393275 202.237053,192.116475 200.601853,192.116475 C199.056253,192.116475 197.936253,193.382075 197.936253,194.950075 C197.936253,196.641275 199.089853,197.794875 200.691453,197.794875 Z M202.371453,194.614075 L198.821053,194.614075 C198.865853,193.785275 199.437053,192.810875 200.590653,192.810875 C201.822653,192.810875 202.360253,193.807675 202.371453,194.614075 Z M206.269053,197.794875 C207.669053,197.794875 208.397053,197.066875 208.397053,196.159675 C208.397053,194.961275 207.310653,194.692475 206.369853,194.479675 C205.664253,194.311675 205.048253,194.143675 205.048253,193.617275 C205.048253,193.135675 205.507453,192.799675 206.246653,192.799675 C206.941053,192.799675 207.534653,193.090875 207.859453,193.482875 L208.251453,192.900475 C207.814653,192.463675 207.165053,192.116475 206.246653,192.116475 C204.958653,192.116475 204.230653,192.833275 204.230653,193.673275 C204.230653,194.793275 205.272253,195.039675 206.190653,195.252475 C206.918653,195.431675 207.579453,195.622075 207.579453,196.215675 C207.579453,196.742075 207.131453,197.111675 206.302653,197.111675 C205.563453,197.111675 204.880253,196.753275 204.521853,196.338875 L204.085053,196.943675 C204.633853,197.526075 205.384253,197.794875 206.269053,197.794875 Z" id="CannedResponses" fill="#1F3966" fill-rule="nonzero"></path>
        <g id="verification/dot/trusted/active" transform="translate(88.000000, 260.360475)">
            <g id="Group" transform="translate(3.383607, 3.400000)">
                <rect id="Rectangle-3" stroke="#29CC96" stroke-width="0.8" fill="#F2FFFB" x="0" y="0" width="10.1508197" height="10.2" rx="4.8"></rect>
                <path d="M7.27943454,2.90502333 C6.19668408,4.06088515 5.21057042,5.20129844 4.15823252,6.33986819 L2.82695771,5.20587232 C2.73626544,5.12838938 2.62033414,5.09283795 2.50482776,5.10651175 C2.38932138,5.12018556 2.28366048,5.18217215 2.210931,5.2788024 C2.05949247,5.4802632 2.09028833,5.77424009 2.27937841,5.93513103 L3.92211632,7.33529878 C4.09708981,7.48433497 4.34990717,7.46883978 4.50734718,7.29883608 C5.68464268,6.04183548 6.74300395,4.80245366 7.90233885,3.56505541 C8.03324316,3.4306043 8.07217605,3.22412623 8.00073228,3.04591988 C7.92929071,2.86771353 7.76202056,2.75512837 7.58064039,2.76287597 C7.46680523,2.76645923 7.35858165,2.81750701 7.27943454,2.90502333 Z" id="Fill-1" fill="#29CC96"></path>
            </g>
        </g>
        <path d="M114.334348,271.660475 L114.334348,268.692475 L116.406348,268.692475 C117.884748,268.692475 118.747148,267.662075 118.747148,266.441275 C118.747148,265.220475 117.907148,264.190075 116.406348,264.190075 L113.404748,264.190075 L113.404748,271.660475 L114.334348,271.660475 Z M116.294348,267.863675 L114.334348,267.863675 L114.334348,265.018875 L116.294348,265.018875 C117.179148,265.018875 117.783948,265.601275 117.783948,266.441275 C117.783948,267.281275 117.179148,267.863675 116.294348,267.863675 Z M121.670348,271.794875 C122.476748,271.794875 123.182348,271.369275 123.596748,270.898875 L123.596748,271.660475 L124.436748,271.660475 L124.436748,266.250875 L123.596748,266.250875 L123.596748,270.226875 C123.283148,270.663675 122.655948,271.044475 121.995148,271.044475 C121.267148,271.044475 120.785548,270.764475 120.785548,269.812475 L120.785548,266.250875 L119.945548,266.250875 L119.945548,270.070075 C119.945548,271.246075 120.539148,271.794875 121.670348,271.794875 Z M128.782348,271.794875 C130.193548,271.794875 131.190348,270.719675 131.190348,268.961275 C131.190348,267.236475 130.193548,266.116475 128.782348,266.116475 C128.043148,266.116475 127.393548,266.474875 126.956748,267.068475 L126.956748,264.190075 L126.116748,264.190075 L126.116748,271.660475 L126.956748,271.660475 L126.956748,270.854075 C127.359948,271.402875 128.020748,271.794875 128.782348,271.794875 Z M128.569548,271.044475 C127.908748,271.044475 127.247948,270.663675 126.956748,270.193275 L126.956748,267.740475 C127.247948,267.270075 127.908748,266.866875 128.569548,266.866875 C129.667148,266.866875 130.316748,267.762875 130.316748,268.961275 C130.316748,270.159675 129.667148,271.044475 128.569548,271.044475 Z M133.396748,271.660475 L133.396748,264.190075 L132.556748,264.190075 L132.556748,271.660475 L133.396748,271.660475 Z M135.491148,265.343675 C135.804748,265.343675 136.062348,265.086075 136.062348,264.772475 C136.062348,264.458875 135.804748,264.212475 135.491148,264.212475 C135.188748,264.212475 134.931148,264.458875 134.931148,264.772475 C134.931148,265.086075 135.188748,265.343675 135.491148,265.343675 Z M135.916748,271.660475 L135.916748,266.250875 L135.076748,266.250875 L135.076748,271.660475 L135.916748,271.660475 Z M139.310348,271.794875 C140.710348,271.794875 141.438348,271.066875 141.438348,270.159675 C141.438348,268.961275 140.351948,268.692475 139.411148,268.479675 C138.705548,268.311675 138.089548,268.143675 138.089548,267.617275 C138.089548,267.135675 138.548748,266.799675 139.287948,266.799675 C139.982348,266.799675 140.575948,267.090875 140.900748,267.482875 L141.292748,266.900475 C140.855948,266.463675 140.206348,266.116475 139.287948,266.116475 C137.999948,266.116475 137.271948,266.833275 137.271948,267.673275 C137.271948,268.793275 138.313548,269.039675 139.231948,269.252475 C139.959948,269.431675 140.620748,269.622075 140.620748,270.215675 C140.620748,270.742075 140.172748,271.111675 139.343948,271.111675 C138.604748,271.111675 137.921548,270.753275 137.563148,270.338875 L137.126348,270.943675 C137.675148,271.526075 138.425548,271.794875 139.310348,271.794875 Z M143.644748,271.660475 L143.644748,267.706875 C143.969548,267.270075 144.596748,266.866875 145.246348,266.866875 C145.974348,266.866875 146.467148,267.146875 146.467148,268.098875 L146.467148,271.660475 L147.307148,271.660475 L147.307148,267.841275 C147.307148,266.665275 146.713548,266.116475 145.582348,266.116475 C144.764748,266.116475 144.025548,266.586875 143.644748,267.034875 L143.644748,264.190075 L142.804748,264.190075 L142.804748,271.660475 L143.644748,271.660475 Z M151.428748,271.794875 C152.313548,271.794875 153.041548,271.503675 153.579148,270.966075 L153.175948,270.417275 C152.750348,270.854075 152.123148,271.100475 151.507148,271.100475 C150.342348,271.100475 149.625548,270.249275 149.558348,269.230075 L153.937548,269.230075 L153.937548,269.017275 C153.937548,267.393275 152.974348,266.116475 151.339148,266.116475 C149.793548,266.116475 148.673548,267.382075 148.673548,268.950075 C148.673548,270.641275 149.827148,271.794875 151.428748,271.794875 Z M153.108748,268.614075 L149.558348,268.614075 C149.603148,267.785275 150.174348,266.810875 151.327948,266.810875 C152.559948,266.810875 153.097548,267.807675 153.108748,268.614075 Z M157.387148,271.794875 C158.148748,271.794875 158.809548,271.402875 159.212748,270.854075 L159.212748,271.660475 L160.052748,271.660475 L160.052748,264.190075 L159.212748,264.190075 L159.212748,267.068475 C158.775948,266.474875 158.115148,266.116475 157.387148,266.116475 C155.964748,266.116475 154.979148,267.236475 154.979148,268.961275 C154.979148,270.719675 155.975948,271.794875 157.387148,271.794875 Z M157.588748,271.044475 C156.502348,271.044475 155.852748,270.159675 155.852748,268.961275 C155.852748,267.762875 156.502348,266.866875 157.588748,266.866875 C158.260748,266.866875 158.910348,267.270075 159.212748,267.740475 L159.212748,270.193275 C158.910348,270.663675 158.260748,271.044475 157.588748,271.044475 Z M165.585548,271.660475 L165.585548,268.233275 L169.953548,268.233275 L169.953548,271.660475 L170.883148,271.660475 L170.883148,264.190075 L169.953548,264.190075 L169.953548,267.404475 L165.585548,267.404475 L165.585548,264.190075 L164.655948,264.190075 L164.655948,271.660475 L165.585548,271.660475 Z M174.959948,271.794875 C176.606348,271.794875 177.636748,270.518075 177.636748,268.950075 C177.636748,267.382075 176.606348,266.116475 174.959948,266.116475 C173.313548,266.116475 172.283148,267.382075 172.283148,268.950075 C172.283148,270.518075 173.313548,271.794875 174.959948,271.794875 Z M174.959948,271.044475 C173.806348,271.044475 173.156748,270.058875 173.156748,268.950075 C173.156748,267.852475 173.806348,266.866875 174.959948,266.866875 C176.113548,266.866875 176.751948,267.852475 176.751948,268.950075 C176.751948,270.058875 176.113548,271.044475 174.959948,271.044475 Z M180.862348,271.660475 L182.273548,267.314875 L183.684748,271.660475 L184.524748,271.660475 L186.249548,266.250875 L185.375948,266.250875 L184.054348,270.562875 L182.631948,266.250875 L181.915148,266.250875 L180.492748,270.562875 L179.171148,266.250875 L178.297548,266.250875 L180.022348,271.660475 L180.862348,271.660475 Z M189.407948,269.319675 L189.407948,268.580475 L186.719948,268.580475 L186.719948,269.319675 L189.407948,269.319675 Z M193.395148,271.660475 L193.395148,265.018875 L195.769548,265.018875 L195.769548,264.190075 L190.102348,264.190075 L190.102348,265.018875 L192.465548,265.018875 L192.465548,271.660475 L193.395148,271.660475 Z M199.331148,271.794875 C200.977548,271.794875 202.007948,270.518075 202.007948,268.950075 C202.007948,267.382075 200.977548,266.116475 199.331148,266.116475 C197.684748,266.116475 196.654348,267.382075 196.654348,268.950075 C196.654348,270.518075 197.684748,271.794875 199.331148,271.794875 Z M199.331148,271.044475 C198.177548,271.044475 197.527948,270.058875 197.527948,268.950075 C197.527948,267.852475 198.177548,266.866875 199.331148,266.866875 C200.484748,266.866875 201.123148,267.852475 201.123148,268.950075 C201.123148,270.058875 200.484748,271.044475 199.331148,271.044475 Z M203.587148,266.620475 C204.102348,266.250875 204.505548,265.612475 204.505548,264.929275 C204.505548,264.380475 204.169548,264.078075 203.799948,264.078075 C203.463948,264.078075 203.206348,264.358075 203.206348,264.682875 C203.206348,265.018875 203.430348,265.254075 203.743948,265.254075 C203.799948,265.254075 203.878348,265.242875 203.900748,265.231675 C203.855948,265.590075 203.531148,266.038075 203.172748,266.273275 L203.587148,266.620475 Z M207.663948,271.794875 C209.063948,271.794875 209.791948,271.066875 209.791948,270.159675 C209.791948,268.961275 208.705548,268.692475 207.764748,268.479675 C207.059148,268.311675 206.443148,268.143675 206.443148,267.617275 C206.443148,267.135675 206.902348,266.799675 207.641548,266.799675 C208.335948,266.799675 208.929548,267.090875 209.254348,267.482875 L209.646348,266.900475 C209.209548,266.463675 208.559948,266.116475 207.641548,266.116475 C206.353548,266.116475 205.625548,266.833275 205.625548,267.673275 C205.625548,268.793275 206.667148,269.039675 207.585548,269.252475 C208.313548,269.431675 208.974348,269.622075 208.974348,270.215675 C208.974348,270.742075 208.526348,271.111675 207.697548,271.111675 C206.958348,271.111675 206.275148,270.753275 205.916748,270.338875 L205.479948,270.943675 C206.028748,271.526075 206.779148,271.794875 207.663948,271.794875 Z" id="PublishedHow-Tos" fill="#1F3966" fill-rule="nonzero"></path>
        <g id="verification/dot/trusted/active" transform="translate(89.000000, 118.360475)">
            <g id="Group" transform="translate(3.364706, 3.400000)">
                <rect id="Rectangle-3" stroke="#29CC96" stroke-width="0.8" fill="#F2FFFB" x="0" y="0" width="10.0941176" height="10.2" rx="4.8"></rect>
                <path d="M7.23877195,2.90502333 C6.16206968,4.06088515 5.18146441,5.20129844 4.13500481,6.33986819 L2.81116645,5.20587232 C2.72098078,5.12838938 2.60569707,5.09283795 2.49083591,5.10651175 C2.37597474,5.12018556 2.27090406,5.18217215 2.19858084,5.2788024 C2.04798823,5.4802632 2.07861207,5.77424009 2.2666459,5.93513103 L3.90020755,7.33529878 C4.07420365,7.48433497 4.32560879,7.46883978 4.48216934,7.29883608 C5.65288852,6.04183548 6.70533784,4.80245366 7.85819674,3.56505541 C7.98836983,3.4306043 8.02708524,3.22412623 7.95604055,3.04591988 C7.88499804,2.86771353 7.71866226,2.75512837 7.53829528,2.76287597 C7.42509599,2.76645923 7.31747695,2.81750701 7.23877195,2.90502333 Z" id="Fill-1" fill="#29CC96"></path>
            </g>
        </g>
        <path d="M116.686918,129.794875 C118.702918,129.794875 119.442118,128.686075 119.442118,127.599675 C119.442118,126.031675 118.053318,125.650875 116.832518,125.326075 C115.880518,125.068475 115.018118,124.844475 115.018118,124.094075 C115.018118,123.388475 115.656518,122.906875 116.552518,122.906875 C117.370118,122.906875 118.154118,123.186875 118.714118,123.802875 L119.274118,123.119675 C118.646918,122.458875 117.762118,122.078075 116.619718,122.078075 C115.152518,122.078075 114.054918,122.918075 114.054918,124.150075 C114.054918,125.617275 115.387718,125.953275 116.586118,126.266875 C117.571718,126.535675 118.478918,126.782075 118.478918,127.678075 C118.478918,128.249275 118.053318,128.966075 116.720518,128.966075 C115.667718,128.966075 114.861318,128.450875 114.368518,127.902075 L113.819718,128.607675 C114.435718,129.302075 115.387718,129.794875 116.686918,129.794875 Z M122.522118,129.794875 C123.328518,129.794875 124.034118,129.369275 124.448518,128.898875 L124.448518,129.660475 L125.288518,129.660475 L125.288518,124.250875 L124.448518,124.250875 L124.448518,128.226875 C124.134918,128.663675 123.507718,129.044475 122.846918,129.044475 C122.118918,129.044475 121.637318,128.764475 121.637318,127.812475 L121.637318,124.250875 L120.797318,124.250875 L120.797318,128.070075 C120.797318,129.246075 121.390918,129.794875 122.522118,129.794875 Z M127.808518,131.721275 L127.808518,128.842875 C128.245318,129.447675 128.894918,129.794875 129.634118,129.794875 C131.056518,129.794875 132.042118,128.697275 132.042118,126.950075 C132.042118,125.191675 131.056518,124.116475 129.634118,124.116475 C128.872518,124.116475 128.200518,124.508475 127.808518,125.057275 L127.808518,124.250875 L126.968518,124.250875 L126.968518,131.721275 L127.808518,131.721275 Z M129.421318,129.044475 C128.760518,129.044475 128.099718,128.641275 127.808518,128.170875 L127.808518,125.729275 C128.099718,125.258875 128.760518,124.866875 129.421318,124.866875 C130.507718,124.866875 131.157318,125.751675 131.157318,126.950075 C131.157318,128.148475 130.507718,129.044475 129.421318,129.044475 Z M134.237318,131.721275 L134.237318,128.842875 C134.674118,129.447675 135.323718,129.794875 136.062918,129.794875 C137.485318,129.794875 138.470918,128.697275 138.470918,126.950075 C138.470918,125.191675 137.485318,124.116475 136.062918,124.116475 C135.301318,124.116475 134.629318,124.508475 134.237318,125.057275 L134.237318,124.250875 L133.397318,124.250875 L133.397318,131.721275 L134.237318,131.721275 Z M135.850118,129.044475 C135.189318,129.044475 134.528518,128.641275 134.237318,128.170875 L134.237318,125.729275 C134.528518,125.258875 135.189318,124.866875 135.850118,124.866875 C136.936518,124.866875 137.586118,125.751675 137.586118,126.950075 C137.586118,128.148475 136.936518,129.044475 135.850118,129.044475 Z M142.189318,129.794875 C143.835718,129.794875 144.866118,128.518075 144.866118,126.950075 C144.866118,125.382075 143.835718,124.116475 142.189318,124.116475 C140.542918,124.116475 139.512518,125.382075 139.512518,126.950075 C139.512518,128.518075 140.542918,129.794875 142.189318,129.794875 Z M142.189318,129.044475 C141.035718,129.044475 140.386118,128.058875 140.386118,126.950075 C140.386118,125.852475 141.035718,124.866875 142.189318,124.866875 C143.342918,124.866875 143.981318,125.852475 143.981318,126.950075 C143.981318,128.058875 143.342918,129.044475 142.189318,129.044475 Z M147.072518,129.660475 L147.072518,125.830075 C147.318918,125.393275 148.024518,124.967675 148.539718,124.967675 C148.674118,124.967675 148.774918,124.978875 148.875718,125.001275 L148.875718,124.138875 C148.136518,124.138875 147.509318,124.553275 147.072518,125.124475 L147.072518,124.250875 L146.232518,124.250875 L146.232518,129.660475 L147.072518,129.660475 Z M151.294918,129.794875 C151.787718,129.794875 152.090118,129.649275 152.302918,129.447675 L152.056518,128.820475 C151.944518,128.943675 151.720518,129.044475 151.485318,129.044475 C151.115718,129.044475 150.936518,128.753275 150.936518,128.350075 L150.936518,124.990075 L152.034118,124.990075 L152.034118,124.250875 L150.936518,124.250875 L150.936518,122.772475 L150.096518,122.772475 L150.096518,124.250875 L149.200518,124.250875 L149.200518,124.990075 L150.096518,124.990075 L150.096518,128.529275 C150.096518,129.335675 150.499718,129.794875 151.294918,129.794875 Z M158.922118,129.660475 L158.922118,123.018875 L161.296518,123.018875 L161.296518,122.190075 L155.629318,122.190075 L155.629318,123.018875 L157.992518,123.018875 L157.992518,129.660475 L158.922118,129.660475 Z M164.936518,129.794875 C165.821318,129.794875 166.549318,129.503675 167.086918,128.966075 L166.683718,128.417275 C166.258118,128.854075 165.630918,129.100475 165.014918,129.100475 C163.850118,129.100475 163.133318,128.249275 163.066118,127.230075 L167.445318,127.230075 L167.445318,127.017275 C167.445318,125.393275 166.482118,124.116475 164.846918,124.116475 C163.301318,124.116475 162.181318,125.382075 162.181318,126.950075 C162.181318,128.641275 163.334918,129.794875 164.936518,129.794875 Z M166.616518,126.614075 L163.066118,126.614075 C163.110918,125.785275 163.682118,124.810875 164.835718,124.810875 C166.067718,124.810875 166.605318,125.807675 166.616518,126.614075 Z M171.186118,129.794875 C172.171718,129.794875 172.754118,129.391675 173.168518,128.854075 L172.608518,128.338875 C172.250118,128.820475 171.790918,129.044475 171.230918,129.044475 C170.077318,129.044475 169.360518,128.148475 169.360518,126.950075 C169.360518,125.751675 170.077318,124.866875 171.230918,124.866875 C171.790918,124.866875 172.250118,125.079675 172.608518,125.572475 L173.168518,125.057275 C172.754118,124.519675 172.171718,124.116475 171.186118,124.116475 C169.573318,124.116475 168.486918,125.348475 168.486918,126.950075 C168.486918,128.562875 169.573318,129.794875 171.186118,129.794875 Z M175.184518,129.660475 L175.184518,125.706875 C175.509318,125.270075 176.136518,124.866875 176.786118,124.866875 C177.514118,124.866875 178.006918,125.146875 178.006918,126.098875 L178.006918,129.660475 L178.846918,129.660475 L178.846918,125.841275 C178.846918,124.665275 178.253318,124.116475 177.122118,124.116475 C176.304518,124.116475 175.565318,124.586875 175.184518,125.034875 L175.184518,122.190075 L174.344518,122.190075 L174.344518,129.660475 L175.184518,129.660475 Z M185.869318,129.794875 C187.885318,129.794875 188.624518,128.686075 188.624518,127.599675 C188.624518,126.031675 187.235718,125.650875 186.014918,125.326075 C185.062918,125.068475 184.200518,124.844475 184.200518,124.094075 C184.200518,123.388475 184.838918,122.906875 185.734918,122.906875 C186.552518,122.906875 187.336518,123.186875 187.896518,123.802875 L188.456518,123.119675 C187.829318,122.458875 186.944518,122.078075 185.802118,122.078075 C184.334918,122.078075 183.237318,122.918075 183.237318,124.150075 C183.237318,125.617275 184.570118,125.953275 185.768518,126.266875 C186.754118,126.535675 187.661318,126.782075 187.661318,127.678075 C187.661318,128.249275 187.235718,128.966075 185.902918,128.966075 C184.850118,128.966075 184.043718,128.450875 183.550918,127.902075 L183.002118,128.607675 C183.618118,129.302075 184.570118,129.794875 185.869318,129.794875 Z M191.346118,129.794875 C191.838918,129.794875 192.141318,129.649275 192.354118,129.447675 L192.107718,128.820475 C191.995718,128.943675 191.771718,129.044475 191.536518,129.044475 C191.166918,129.044475 190.987718,128.753275 190.987718,128.350075 L190.987718,124.990075 L192.085318,124.990075 L192.085318,124.250875 L190.987718,124.250875 L190.987718,122.772475 L190.147718,122.772475 L190.147718,124.250875 L189.251718,124.250875 L189.251718,124.990075 L190.147718,124.990075 L190.147718,128.529275 C190.147718,129.335675 190.550918,129.794875 191.346118,129.794875 Z M194.862918,129.794875 C195.590918,129.794875 196.206918,129.537275 196.654918,129.044475 L196.654918,129.660475 L197.494918,129.660475 L197.494918,125.942075 C197.494918,124.631675 196.542918,124.116475 195.400518,124.116475 C194.515718,124.116475 193.821318,124.407675 193.238918,125.012475 L193.630918,125.594875 C194.112518,125.079675 194.638918,124.844475 195.288518,124.844475 C196.072518,124.844475 196.654918,125.258875 196.654918,125.986875 L196.654918,126.961275 C196.218118,126.457275 195.602118,126.222075 194.862918,126.222075 C193.944518,126.222075 192.970118,126.793275 192.970118,128.002875 C192.970118,129.178875 193.944518,129.794875 194.862918,129.794875 Z M195.165318,129.190075 C194.381318,129.190075 193.832518,128.697275 193.832518,128.014075 C193.832518,127.319675 194.381318,126.826875 195.165318,126.826875 C195.758918,126.826875 196.330118,127.050875 196.654918,127.498875 L196.654918,128.518075 C196.330118,128.966075 195.758918,129.190075 195.165318,129.190075 Z M201.560518,129.794875 C202.546118,129.794875 203.128518,129.391675 203.542918,128.854075 L202.982918,128.338875 C202.624518,128.820475 202.165318,129.044475 201.605318,129.044475 C200.451718,129.044475 199.734918,128.148475 199.734918,126.950075 C199.734918,125.751675 200.451718,124.866875 201.605318,124.866875 C202.165318,124.866875 202.624518,125.079675 202.982918,125.572475 L203.542918,125.057275 C203.128518,124.519675 202.546118,124.116475 201.560518,124.116475 C199.947718,124.116475 198.861318,125.348475 198.861318,126.950075 C198.861318,128.562875 199.947718,129.794875 201.560518,129.794875 Z M205.558918,129.660475 L205.558918,128.114875 L206.454918,127.230075 L208.403718,129.660475 L209.478918,129.660475 L207.070918,126.703675 L209.467718,124.250875 L208.403718,124.250875 L205.558918,127.129275 L205.558918,122.190075 L204.718918,122.190075 L204.718918,129.660475 L205.558918,129.660475 Z" id="SupportTechStack" fill="#1F3966" fill-rule="nonzero"></path>
        <g id="expand-accordion" transform="translate(229.000000, 231.360475) rotate(-90.000000) translate(-229.000000, -231.360475) translate(222.000000, 224.360475)">
            <mask id="mask-8" fill="white">
                <use xlink:href="#path-7"></use>
            </mask>
            <use id="-Icon-小olor" fill="#001C4D" fill-rule="evenodd" xlink:href="#path-7"></use>
        </g>
    </g>
</svg>