<svg width="500px" height="330px" viewBox="0 0 500 330" xmlns="http://www.w3.org/2000/svg" xmlns:xlink="http://www.w3.org/1999/xlink">
    <defs>
        <rect id="path-1" x="204" y="24.360475" width="253" height="236" rx="2.23999996"></rect>
        <filter x="-1.5%" y="-1.2%" width="103.0%" height="103.2%" filterUnits="objectBoundingBox" id="filter-2">
            <feMorphology radius="0.279999995" operator="dilate" in="SourceAlpha" result="shadowSpreadOuter1"></feMorphology>
            <feOffset dx="0" dy="1" in="shadowSpreadOuter1" result="shadowOffsetOuter1"></feOffset>
            <feGaussianBlur stdDeviation="1" in="shadowOffsetOuter1" result="shadowBlurOuter1"></feGaussianBlur>
            <feComposite in="shadowBlurOuter1" in2="SourceAlpha" operator="out" result="shadowBlurOuter1"></feComposite>
            <feColorMatrix values="0 0 0 0 0   0 0 0 0 0   0 0 0 0 0  0 0 0 0.5 0" type="matrix" in="shadowBlurOuter1"></feColorMatrix>
        </filter>
        <path d="M1.875,4.875 C2.08125,4.875 2.248875,5.0415 2.25,5.248125 L2.25,5.248125 L2.254875,6.214875 L3.484875,4.984875 C3.6315,4.83825 3.8685,4.83825 4.015125,4.984875 C4.16175,5.1315 4.16175,5.3685 4.015125,5.515125 L4.015125,5.515125 L2.780625,6.749625 L3.75,6.75 C3.957375,6.75 4.125,6.918 4.125,7.125375 C4.124625,7.332375 3.957,7.5 3.75,7.5 L3.75,7.5 L3.749625,7.5 L1.884,7.498875 C1.67775,7.498875 1.5105,7.332 1.509375,7.12575 L1.509375,7.12575 L1.49999436,5.251875 C1.498875,5.044875 1.666125,4.876125 1.873125,4.875 L1.873125,4.875 Z M5.251725,1.50015 L7.1256,1.509525 C7.33185,1.51065 7.498725,1.6779 7.498725,1.88415 L7.498725,1.88415 L7.49985063,3.749775 C7.500225,3.956775 7.332225,4.12515 7.125225,4.12515 L7.125225,4.12515 C6.91785,4.12515 6.750225,3.95715 6.74985,3.750525 L6.74985,3.750525 L6.7491,2.78115 L5.514975,4.015275 C5.44185,4.0884 5.34585,4.12515 5.24985,4.12515 C5.154225,4.12515 5.058225,4.0884 4.984725,4.015275 C4.838475,3.86865 4.838475,3.631275 4.984725,3.485025 L4.984725,3.485025 L6.214725,2.255025 L5.24835,2.25015 C5.040975,2.249025 4.873725,2.0799 4.87484436,1.873275 C4.875975,1.66665 5.043975,1.50015 5.24985,1.50015 L5.24985,1.50015 L5.251725,1.50015 Z" id="path-3"></path>
        <rect id="path-5" x="74" y="102.360475" width="174" height="201" rx="4"></rect>
        <filter x="-2.2%" y="-1.4%" width="104.5%" height="103.9%" filterUnits="objectBoundingBox" id="filter-6">
            <feMorphology radius="0.4" operator="dilate" in="SourceAlpha" result="shadowSpreadOuter1"></feMorphology>
            <feOffset dx="0" dy="1" in="shadowSpreadOuter1" result="shadowOffsetOuter1"></feOffset>
            <feGaussianBlur stdDeviation="1" in="shadowOffsetOuter1" result="shadowBlurOuter1"></feGaussianBlur>
            <feComposite in="shadowBlurOuter1" in2="SourceAlpha" operator="out" result="shadowBlurOuter1"></feComposite>
            <feColorMatrix values="0 0 0 0 0   0 0 0 0 0   0 0 0 0 0  0 0 0 0.5 0" type="matrix" in="shadowBlurOuter1"></feColorMatrix>
        </filter>
        <polygon id="path-7" points="3.64000006 5.32000003 7 8.67999997 10.3599999 5.32000003"></polygon>
    </defs>
    <g id="Customer-Success-" stroke="none" stroke-width="1" fill="none" fill-rule="evenodd">
        <path d="M354.092422,0 C277.320194,0.225455336 226.647541,58.1541543 178.509445,73.2299427 C106.323904,95.8359393 37.0596883,72.0862693 7.29817054,154.738195 C2.30105814,168.615996 0.019544079,182.984675 0,197.26727 L0,197.653619 C0.065832687,242.298899 22.1856155,286.072077 52.4470502,311.439902 C68.2283797,324.670031 89.2557514,329.990777 111.88368,330 L112.01226,330 C146.865524,329.983603 185.499025,317.384749 214.647476,301.685884 C271.097977,271.280158 309.671817,283.797028 348.466813,294.710091 C416.799085,313.932208 505.410911,247.762092 499.741071,153.048305 C494.296502,62.0811763 452.541091,10.9786501 373.867944,1.20618605 C367.407083,0.403770011 361.112861,0.0184463457 354.994536,0 L354.092422,0 Z" id="Fill-1-Copy" fill="#F2F7FF"></path>
        <g id="Rectangle">
            <use fill="black" fill-opacity="1" filter="url(#filter-2)" xlink:href="#path-1"></use>
            <use stroke="#E9EBF0" stroke-width="0.55999999" fill="#FFFFFF" xlink:href="#path-1"></use>
        </g>
        <path d="M206,24.360475 L455,24.360475 C456.104569,24.360475 457,25.2559055 457,26.360475 L457,26.360475 L457,26.360475 L204,26.360475 C204,25.2559055 204.895431,24.360475 206,24.360475 Z" id="Rectangle-7-Copy-6" fill="#29CC96"></path>
        <g id="verification/button/trusted/active" transform="translate(212.000000, 32.360475)">
            <g id="verification-icon-trusted-copy-12">
                <g id="Group-15" fill="#F2FFFB" stroke="#29CC96" stroke-width="0.55999999">
                    <rect id="Rectangle-3" x="0.279999995" y="0.279999995" width="13.44" height="13.44" rx="2.23999996"></rect>
                </g>
                <path d="M10.0397886,3.98728692 C8.54646028,5.57376393 7.18641334,7.13903708 5.73502999,8.70177987 L3.89893716,7.14531496 C3.77385447,7.03896581 3.61396214,6.99016973 3.45465586,7.0089377 C3.29534958,7.02770567 3.14962217,7.11278531 3.04931375,7.24541505 C2.84044988,7.52192988 2.8829235,7.92542757 3.14371635,8.14625828 L5.40937877,10.0680572 C5.65070203,10.2726166 5.99938748,10.2513487 6.21652857,10.0180103 C7.8402533,8.29271537 9.29994408,6.59160306 10.8988976,4.8932133 C11.0794407,4.70867257 11.1331369,4.42527129 11.0346017,4.18067434 C10.9360695,3.93607739 10.7053707,3.78154874 10.4552114,3.7921827 C10.2982101,3.7971009 10.1489482,3.86716649 10.0397886,3.98728692 Z" id="Fill-1" fill="#29CC96"></path>
            </g>
        </g>
        <g id="close" transform="translate(442.000000, 35.360475)" fill="#B8BFCC">
            <path d="M5.02875,4.5 L6.64125,2.89125 C6.78829581,2.74420419 6.78829581,2.50579581 6.64125,2.35875 C6.49420419,2.21170419 6.25579581,2.21170419 6.10875,2.35875 L4.5,3.97125 L2.89125,2.35875 C2.74420418,2.21170419 2.50579582,2.21170419 2.35875,2.35875 C2.21170419,2.50579582 2.21170419,2.74420418 2.35875,2.89125 L3.97125,4.5 L2.35875,6.10875 C2.28775776,6.17916247 2.24782563,6.27501092 2.24782563,6.375 C2.24782563,6.47498908 2.28775776,6.57083753 2.35875,6.64125 C2.42916247,6.71224224 2.52501092,6.75217437 2.625,6.75217437 C2.72498908,6.75217437 2.82083753,6.71224224 2.89125,6.64125 L4.5,5.02875 L6.10875,6.64125 C6.17916247,6.71224224 6.27501092,6.75217437 6.375,6.75217437 C6.47498908,6.75217437 6.57083753,6.71224224 6.64125,6.64125 C6.71224224,6.57083753 6.75217437,6.47498908 6.75217437,6.375 C6.75217437,6.27501092 6.71224224,6.17916247 6.64125,6.10875 L5.02875,4.5 Z" id="-Icon-小olor"></path>
        </g>
        <g id="expand-window" transform="translate(429.000000, 35.360475)">
            <mask id="mask-4" fill="white">
                <use xlink:href="#path-3"></use>
            </mask>
            <use id="-Icon-小olor" fill="#B8BFCC" fill-rule="evenodd" xlink:href="#path-3"></use>
        </g>
        <path d="M421,31.360475 L421,45.360475 L421,31.360475 Z" id="Path-2" stroke="#B8BFCC" stroke-width="0.55999999"></path>
        <g id="globe" transform="translate(406.000000, 35.360475)" fill="#B8BFCC">
            <path d="M8.25,4.5 C8.25,3.50543816 7.85491185,2.55161099 7.15165043,1.84834957 C6.44838901,1.14508815 5.49456184,0.75 4.5,0.75 C2.42893219,0.75 0.75,2.42893219 0.75,4.5 C0.75,6.57106781 2.42893219,8.25 4.5,8.25 C6.57106781,8.25 8.25,6.57106781 8.25,4.5 Z M7.47375,4.125 L6.375,4.125 C6.31315234,3.24305352 6.0109749,2.39488165 5.50125,1.6725 C6.56921252,2.0517964 7.33227495,3.00054701 7.47375,4.125 Z M3.405,4.875 L5.625,4.875 C5.52903112,5.80146887 5.13414427,6.67153623 4.5,7.35375 C3.86627643,6.67438658 3.48044693,5.80098487 3.405,4.875 L3.405,4.875 Z M3.405,4.125 C3.49233211,3.20318507 3.87659587,2.33464367 4.5,1.65 C5.13926682,2.32729603 5.5350483,3.19801528 5.625,4.125 L3.405,4.125 Z M3.54,1.66125 C3.0275811,2.3876335 2.72055012,3.23877 2.65125,4.125 L1.52625,4.125 C1.67078837,2.98608776 2.45262785,2.02953554 3.54,1.66125 Z M1.52625,4.875 L2.65125,4.875 C2.71300924,5.76047499 3.0179548,6.6117273 3.5325,7.335 C2.44916128,6.96495666 1.67085708,6.01062478 1.52625,4.875 Z M5.4825,7.33125 C5.99565302,6.60775325 6.30399818,5.75915627 6.375,4.875 L7.48125,4.875 C7.33658452,6.00734451 6.56180804,6.95946195 5.4825,7.33125 L5.4825,7.33125 Z" id="-Icon-小olor"></path>
        </g>
        <path d="M204,235.360475 L457,235.360475 L457,258.120475 C457,259.357593 455.997118,260.360475 454.76,260.360475 L206.24,260.360475 C205.002882,260.360475 204,259.357593 204,258.120475 L204,235.360475 L204,235.360475 Z" id="Rectangle" stroke="#F2F3F5" stroke-width="0.55999999" fill="#F2F3F5"></path>
        <g id="icon-resize" transform="translate(206.000000, 250.360475)" fill="#8F9CB3">
            <path d="M5.69599992,6.71999989 L4.77866659,6.71999989 L6.71999989,4.77866659 L6.71999989,5.69599992 L5.69599992,6.71999989 Z M3.30666661,6.71999989 L2.38933329,6.71999989 L6.71999989,2.38933329 L6.71999989,3.30666661 L3.30666661,6.71999989 Z M0.917333316,6.71999989 L0,6.71999989 L6.71999989,0 L6.71999989,0.917333316 L0.917333316,6.71999989 Z" id="Shape" transform="translate(3.360000, 3.360000) rotate(90.000000) translate(-3.360000, -3.360000) "></path>
        </g>
        <g id="tag" transform="translate(220.000000, 242.360475)" fill="#B8BFCC">
            <path d="M4.67506187,9.625 C4.56946319,9.625 4.46386451,9.584575 4.38342802,9.5041375 L1.49596411,6.6166375 C1.33467863,6.45535 1.33467863,6.19465 1.49596411,6.0333625 L6.03340739,1.4958625 C6.11054393,1.4183125 6.21531762,1.375 6.32504125,1.375 L9.21250516,1.375 C9.4406148,1.375 9.625,1.5593875 9.625,1.7875 L9.625,4.675 C9.625,4.784725 9.58168804,4.8895 9.50413901,4.9666375 L4.96669573,9.5041375 C4.88625923,9.584575 4.78066055,9.625 4.67506187,9.625 Z M8.80001031,4.504225 L8.80001031,2.2 L6.49581411,2.2 L2.37086568,6.325 L4.67506187,8.629225 L8.80001031,4.504225 Z M7.54251057,2.75748349 C7.73581794,2.56417396 8.04923079,2.56417396 8.24253791,2.75748349 C8.43584503,2.95079328 8.43584503,3.26421005 8.24253791,3.45751958 C8.04923055,3.65082912 7.73581769,3.65082912 7.54251057,3.45751958 C7.34920345,3.2642098 7.34920345,2.95079303 7.54251057,2.75748349 L7.54251057,2.75748349 Z" id="-Icon-小olor"></path>
        </g>
        <rect id="Rectangle-12-[4-8]" fill="#FFFFFF" x="241" y="241.360475" width="51" height="11" rx="5.5"></rect>
        <path d="M237.7248,82.475675 C238.9824,82.475675 239.76,81.870875 240.2688,81.122075 L239.4528,80.690075 C239.1168,81.227675 238.4832,81.621275 237.7248,81.621275 C236.4288,81.621275 235.4304,80.594075 235.4304,79.163675 C235.4304,77.723675 236.4288,76.706075 237.7248,76.706075 C238.4832,76.706075 239.1168,77.099675 239.4528,77.637275 L240.2688,77.205275 C239.7696,76.456475 238.9824,75.851675 237.7248,75.851675 C235.9008,75.851675 234.4416,77.195675 234.4416,79.163675 C234.4416,81.131675 235.9008,82.475675 237.7248,82.475675 Z M242.5536,82.475675 C243.1776,82.475675 243.7056,82.254875 244.0704,81.851675 L244.0704,82.360475 L244.9344,82.360475 L244.9344,79.230875 C244.9344,78.050075 244.08,77.608475 243.072,77.608475 C242.3232,77.608475 241.6896,77.858075 241.1712,78.366875 L241.5456,78.962075 C241.9584,78.549275 242.4096,78.347675 242.9376,78.347675 C243.6,78.347675 244.0704,78.693275 244.0704,79.269275 L244.0704,80.037275 C243.7152,79.624475 243.1776,79.422875 242.5536,79.422875 C241.776,79.422875 240.9408,79.883675 240.9408,80.939675 C240.9408,81.957275 241.7856,82.475675 242.5536,82.475675 Z M242.88,81.870875 C242.256,81.870875 241.8144,81.496475 241.8144,80.949275 C241.8144,80.402075 242.256,80.027675 242.88,80.027675 C243.36,80.027675 243.8112,80.210075 244.0704,80.555675 L244.0704,81.342875 C243.8112,81.688475 243.36,81.870875 242.88,81.870875 Z M247.1808,82.360475 L247.1808,75.957275 L246.3168,75.957275 L246.3168,82.360475 L247.1808,82.360475 Z M249.4176,82.360475 L249.4176,75.957275 L248.5536,75.957275 L248.5536,82.360475 L249.4176,82.360475 Z M256.2432,82.475675 C258.1536,82.475675 259.4688,81.064475 259.4688,79.163675 C259.4688,77.262875 258.1536,75.851675 256.2432,75.851675 C254.3328,75.851675 253.0176,77.262875 253.0176,79.163675 C253.0176,81.064475 254.3328,82.475675 256.2432,82.475675 Z M256.2432,81.621275 C254.8704,81.621275 254.0064,80.565275 254.0064,79.163675 C254.0064,77.752475 254.8704,76.706075 256.2432,76.706075 C257.5968,76.706075 258.48,77.752475 258.48,79.163675 C258.48,80.565275 257.5968,81.621275 256.2432,81.621275 Z M262.0896,82.475675 C262.8,82.475675 263.3856,82.110875 263.7408,81.726875 L263.7408,82.360475 L264.6048,82.360475 L264.6048,77.723675 L263.7408,77.723675 L263.7408,81.054875 C263.4816,81.400475 262.992,81.707675 262.4544,81.707675 C261.8592,81.707675 261.4752,81.477275 261.4752,80.709275 L261.4752,77.723675 L260.6112,77.723675 L260.6112,80.997275 C260.6112,81.976475 261.1008,82.475675 262.0896,82.475675 Z M267.2544,82.475675 C267.7056,82.475675 267.9744,82.350875 268.1568,82.178075 L267.936,81.525275 C267.8496,81.621275 267.6672,81.707675 267.4656,81.707675 C267.168,81.707675 267.0144,81.467675 267.0144,81.141275 L267.0144,78.482075 L267.9552,78.482075 L267.9552,77.723675 L267.0144,77.723675 L267.0144,76.456475 L266.1504,76.456475 L266.1504,77.723675 L265.3824,77.723675 L265.3824,78.482075 L266.1504,78.482075 L266.1504,81.333275 C266.1504,82.062875 266.5248,82.475675 267.2544,82.475675 Z M269.7792,82.360475 L269.7792,75.957275 L268.9152,75.957275 L268.9152,82.360475 L269.7792,82.360475 Z M271.5744,76.946075 C271.8816,76.946075 272.1312,76.706075 272.1312,76.398875 C272.1312,76.091675 271.8816,75.842075 271.5744,75.842075 C271.2768,75.842075 271.0176,76.091675 271.0176,76.398875 C271.0176,76.706075 271.2768,76.946075 271.5744,76.946075 Z M272.016,82.360475 L272.016,77.723675 L271.152,77.723675 L271.152,82.360475 L272.016,82.360475 Z M274.2528,82.360475 L274.2528,79.048475 C274.5024,78.702875 274.992,78.376475 275.5296,78.376475 C276.1248,78.376475 276.5184,78.626075 276.5184,79.394075 L276.5184,82.360475 L277.3824,82.360475 L277.3824,79.106075 C277.3824,78.126875 276.8736,77.608475 275.8944,77.608475 C275.1744,77.608475 274.56,78.002075 274.2528,78.376475 L274.2528,77.723675 L273.3888,77.723675 L273.3888,82.360475 L274.2528,82.360475 Z M280.8672,82.475675 C281.616,82.475675 282.2688,82.235675 282.7296,81.784475 L282.3264,81.218075 C281.9808,81.573275 281.4432,81.765275 280.9536,81.765275 C280.0224,81.765275 279.4464,81.112475 279.3792,80.325275 L283.0464,80.325275 L283.0464,80.114075 C283.0464,78.693275 282.1824,77.608475 280.7904,77.608475 C279.4368,77.608475 278.4672,78.693275 278.4672,80.037275 C278.4672,81.496475 279.4848,82.475675 280.8672,82.475675 Z M282.2016,79.701275 L279.3696,79.701275 C279.4176,79.067675 279.8592,78.318875 280.7904,78.318875 C281.7696,78.318875 282.1824,79.086875 282.2016,79.701275 Z M284.5728,78.856475 C284.8992,78.856475 285.1776,78.578075 285.1776,78.261275 C285.1776,77.934875 284.8992,77.656475 284.5728,77.656475 C284.2464,77.656475 283.9776,77.934875 283.9776,78.261275 C283.9776,78.578075 284.2464,78.856475 284.5728,78.856475 Z M284.5728,82.466075 C284.8992,82.466075 285.1776,82.187675 285.1776,81.861275 C285.1776,81.534875 284.8992,81.266075 284.5728,81.266075 C284.2464,81.266075 283.9776,81.534875 283.9776,81.861275 C283.9776,82.187675 284.2464,82.466075 284.5728,82.466075 Z M289.872,82.360475 L289.872,79.893275 L291.072,79.893275 L292.5984,82.360475 L293.712,82.360475 L292.0704,79.797275 C292.8864,79.691675 293.664,79.077275 293.664,77.925275 C293.664,76.744475 292.8288,75.957275 291.6096,75.957275 L288.912,75.957275 L288.912,82.360475 L289.872,82.360475 Z M291.4848,79.048475 L289.872,79.048475 L289.872,76.802075 L291.4848,76.802075 C292.176,76.802075 292.6752,77.253275 292.6752,77.925275 C292.6752,78.597275 292.176,79.048475 291.4848,79.048475 Z M296.88,82.475675 C298.3296,82.475675 299.2224,81.381275 299.2224,80.037275 C299.2224,78.702875 298.3296,77.608475 296.88,77.608475 C295.44,77.608475 294.5376,78.702875 294.5376,80.037275 C294.5376,81.381275 295.44,82.475675 296.88,82.475675 Z M296.88,81.707675 C295.9584,81.707675 295.44,80.920475 295.44,80.037275 C295.44,79.163675 295.9584,78.376475 296.88,78.376475 C297.8112,78.376475 298.32,79.163675 298.32,80.037275 C298.32,80.920475 297.8112,81.707675 296.88,81.707675 Z M301.1808,82.360475 L301.1808,75.957275 L300.3168,75.957275 L300.3168,82.360475 L301.1808,82.360475 Z M303.4176,82.360475 L303.4176,75.957275 L302.5536,75.957275 L302.5536,82.360475 L303.4176,82.360475 Z M306.6912,80.411675 L306.6912,79.662875 L304.3872,79.662875 L304.3872,80.411675 L306.6912,80.411675 Z M310.6464,82.475675 C312.5568,82.475675 313.872,81.064475 313.872,79.163675 C313.872,77.262875 312.5568,75.851675 310.6464,75.851675 C308.736,75.851675 307.4208,77.262875 307.4208,79.163675 C307.4208,81.064475 308.736,82.475675 310.6464,82.475675 Z M310.6464,81.621275 C309.2736,81.621275 308.4096,80.565275 308.4096,79.163675 C308.4096,77.752475 309.2736,76.706075 310.6464,76.706075 C312,76.706075 312.8832,77.752475 312.8832,79.163675 C312.8832,80.565275 312,81.621275 310.6464,81.621275 Z M316.4928,82.475675 C317.2032,82.475675 317.7888,82.110875 318.144,81.726875 L318.144,82.360475 L319.008,82.360475 L319.008,77.723675 L318.144,77.723675 L318.144,81.054875 C317.8848,81.400475 317.3952,81.707675 316.8576,81.707675 C316.2624,81.707675 315.8784,81.477275 315.8784,80.709275 L315.8784,77.723675 L315.0144,77.723675 L315.0144,80.997275 C315.0144,81.976475 315.504,82.475675 316.4928,82.475675 Z M321.6576,82.475675 C322.1088,82.475675 322.3776,82.350875 322.56,82.178075 L322.3392,81.525275 C322.2528,81.621275 322.0704,81.707675 321.8688,81.707675 C321.5712,81.707675 321.4176,81.467675 321.4176,81.141275 L321.4176,78.482075 L322.3584,78.482075 L322.3584,77.723675 L321.4176,77.723675 L321.4176,76.456475 L320.5536,76.456475 L320.5536,77.723675 L319.7856,77.723675 L319.7856,78.482075 L320.5536,78.482075 L320.5536,81.333275 C320.5536,82.062875 320.928,82.475675 321.6576,82.475675 Z" id="CallOutline:Roll-Out" fill="#1F3966" fill-rule="nonzero"></path>
        <path d="M237.7536,43.475675 C238.9152,43.475675 239.6832,42.938075 240.2208,42.208475 L239.5392,41.834075 C239.1744,42.381275 238.512,42.765275 237.7536,42.765275 C236.3808,42.765275 235.3152,41.680475 235.3152,40.163675 C235.3152,38.637275 236.3808,37.562075 237.7536,37.562075 C238.512,37.562075 239.1744,37.955675 239.5392,38.493275 L240.2112,38.118875 C239.7024,37.398875 238.9152,36.851675 237.7536,36.851675 C235.9392,36.851675 234.4896,38.195675 234.4896,40.163675 C234.4896,42.131675 235.9392,43.475675 237.7536,43.475675 Z M242.688,43.475675 C243.3792,43.475675 243.984,43.110875 244.3392,42.707675 L244.3392,43.360475 L245.0592,43.360475 L245.0592,38.723675 L244.3392,38.723675 L244.3392,42.131675 C244.0704,42.506075 243.5328,42.832475 242.9664,42.832475 C242.3424,42.832475 241.9296,42.592475 241.9296,41.776475 L241.9296,38.723675 L241.2096,38.723675 L241.2096,41.997275 C241.2096,43.005275 241.7184,43.475675 242.688,43.475675 Z M247.968,43.475675 C249.168,43.475675 249.792,42.851675 249.792,42.074075 C249.792,41.046875 248.8608,40.816475 248.0544,40.634075 C247.4496,40.490075 246.9216,40.346075 246.9216,39.894875 C246.9216,39.482075 247.3152,39.194075 247.9488,39.194075 C248.544,39.194075 249.0528,39.443675 249.3312,39.779675 L249.6672,39.280475 C249.2928,38.906075 248.736,38.608475 247.9488,38.608475 C246.8448,38.608475 246.2208,39.222875 246.2208,39.942875 C246.2208,40.902875 247.1136,41.114075 247.9008,41.296475 C248.5248,41.450075 249.0912,41.613275 249.0912,42.122075 C249.0912,42.573275 248.7072,42.890075 247.9968,42.890075 C247.3632,42.890075 246.7776,42.582875 246.4704,42.227675 L246.096,42.746075 C246.5664,43.245275 247.2096,43.475675 247.968,43.475675 Z M252.1344,43.475675 C252.5568,43.475675 252.816,43.350875 252.9984,43.178075 L252.7872,42.640475 C252.6912,42.746075 252.4992,42.832475 252.2976,42.832475 C251.9808,42.832475 251.8272,42.582875 251.8272,42.237275 L251.8272,39.357275 L252.768,39.357275 L252.768,38.723675 L251.8272,38.723675 L251.8272,37.456475 L251.1072,37.456475 L251.1072,38.723675 L250.3392,38.723675 L250.3392,39.357275 L251.1072,39.357275 L251.1072,42.390875 C251.1072,43.082075 251.4528,43.475675 252.1344,43.475675 Z M255.8112,43.475675 C257.2224,43.475675 258.1056,42.381275 258.1056,41.037275 C258.1056,39.693275 257.2224,38.608475 255.8112,38.608475 C254.4,38.608475 253.5168,39.693275 253.5168,41.037275 C253.5168,42.381275 254.4,43.475675 255.8112,43.475675 Z M255.8112,42.832475 C254.8224,42.832475 254.2656,41.987675 254.2656,41.037275 C254.2656,40.096475 254.8224,39.251675 255.8112,39.251675 C256.8,39.251675 257.3472,40.096475 257.3472,41.037275 C257.3472,41.987675 256.8,42.832475 255.8112,42.832475 Z M259.9968,43.360475 L259.9968,39.971675 C260.2464,39.597275 260.7456,39.251675 261.216,39.251675 C261.8208,39.251675 262.0704,39.626075 262.0704,40.211675 L262.0704,43.360475 L262.7904,43.360475 L262.7904,39.962075 C263.0304,39.597275 263.5392,39.251675 264.0192,39.251675 C264.6144,39.251675 264.8736,39.626075 264.8736,40.211675 L264.8736,43.360475 L265.5936,43.360475 L265.5936,40.010075 C265.5936,39.078875 265.1424,38.608475 264.2976,38.608475 C263.6256,38.608475 263.0016,39.050075 262.7424,39.472475 C262.608,38.992475 262.2048,38.608475 261.4944,38.608475 C260.8128,38.608475 260.1888,39.098075 259.9968,39.395675 L259.9968,38.723675 L259.2768,38.723675 L259.2768,43.360475 L259.9968,43.360475 Z M269.1264,43.475675 C269.8848,43.475675 270.5088,43.226075 270.9696,42.765275 L270.624,42.294875 C270.2592,42.669275 269.7216,42.880475 269.1936,42.880475 C268.1952,42.880475 267.5808,42.150875 267.5232,41.277275 L271.2768,41.277275 L271.2768,41.094875 C271.2768,39.702875 270.4512,38.608475 269.0496,38.608475 C267.7248,38.608475 266.7648,39.693275 266.7648,41.037275 C266.7648,42.486875 267.7536,43.475675 269.1264,43.475675 Z M270.5664,40.749275 L267.5232,40.749275 C267.5616,40.038875 268.0512,39.203675 269.04,39.203675 C270.096,39.203675 270.5568,40.058075 270.5664,40.749275 Z M273.1584,43.360475 L273.1584,40.077275 C273.3696,39.702875 273.9744,39.338075 274.416,39.338075 C274.5312,39.338075 274.6176,39.347675 274.704,39.366875 L274.704,38.627675 C274.0704,38.627675 273.5328,38.982875 273.1584,39.472475 L273.1584,38.723675 L272.4384,38.723675 L272.4384,43.360475 L273.1584,43.360475 Z M280.1856,43.475675 C281.9136,43.475675 282.5472,42.525275 282.5472,41.594075 C282.5472,40.250075 281.3568,39.923675 280.3104,39.645275 C279.4944,39.424475 278.7552,39.232475 278.7552,38.589275 C278.7552,37.984475 279.3024,37.571675 280.0704,37.571675 C280.7712,37.571675 281.4432,37.811675 281.9232,38.339675 L282.4032,37.754075 C281.8656,37.187675 281.1072,36.861275 280.128,36.861275 C278.8704,36.861275 277.9296,37.581275 277.9296,38.637275 C277.9296,39.894875 279.072,40.182875 280.0992,40.451675 C280.944,40.682075 281.7216,40.893275 281.7216,41.661275 C281.7216,42.150875 281.3568,42.765275 280.2144,42.765275 C279.312,42.765275 278.6208,42.323675 278.1984,41.853275 L277.728,42.458075 C278.256,43.053275 279.072,43.475675 280.1856,43.475675 Z M285.1872,43.475675 C285.8784,43.475675 286.4832,43.110875 286.8384,42.707675 L286.8384,43.360475 L287.5584,43.360475 L287.5584,38.723675 L286.8384,38.723675 L286.8384,42.131675 C286.5696,42.506075 286.032,42.832475 285.4656,42.832475 C284.8416,42.832475 284.4288,42.592475 284.4288,41.776475 L284.4288,38.723675 L283.7088,38.723675 L283.7088,41.997275 C283.7088,43.005275 284.2176,43.475675 285.1872,43.475675 Z M291.0432,43.475675 C291.888,43.475675 292.3872,43.130075 292.7424,42.669275 L292.2624,42.227675 C291.9552,42.640475 291.5616,42.832475 291.0816,42.832475 C290.0928,42.832475 289.4784,42.064475 289.4784,41.037275 C289.4784,40.010075 290.0928,39.251675 291.0816,39.251675 C291.5616,39.251675 291.9552,39.434075 292.2624,39.856475 L292.7424,39.414875 C292.3872,38.954075 291.888,38.608475 291.0432,38.608475 C289.6608,38.608475 288.7296,39.664475 288.7296,41.037275 C288.7296,42.419675 289.6608,43.475675 291.0432,43.475675 Z M295.7952,43.475675 C296.64,43.475675 297.1392,43.130075 297.4944,42.669275 L297.0144,42.227675 C296.7072,42.640475 296.3136,42.832475 295.8336,42.832475 C294.8448,42.832475 294.2304,42.064475 294.2304,41.037275 C294.2304,40.010075 294.8448,39.251675 295.8336,39.251675 C296.3136,39.251675 296.7072,39.434075 297.0144,39.856475 L297.4944,39.414875 C297.1392,38.954075 296.64,38.608475 295.7952,38.608475 C294.4128,38.608475 293.4816,39.664475 293.4816,41.037275 C293.4816,42.419675 294.4128,43.475675 295.7952,43.475675 Z M300.5952,43.475675 C301.3536,43.475675 301.9776,43.226075 302.4384,42.765275 L302.0928,42.294875 C301.728,42.669275 301.1904,42.880475 300.6624,42.880475 C299.664,42.880475 299.0496,42.150875 298.992,41.277275 L302.7456,41.277275 L302.7456,41.094875 C302.7456,39.702875 301.92,38.608475 300.5184,38.608475 C299.1936,38.608475 298.2336,39.693275 298.2336,41.037275 C298.2336,42.486875 299.2224,43.475675 300.5952,43.475675 Z M302.0352,40.749275 L298.992,40.749275 C299.0304,40.038875 299.52,39.203675 300.5088,39.203675 C301.5648,39.203675 302.0256,40.058075 302.0352,40.749275 Z M305.376,43.475675 C306.576,43.475675 307.2,42.851675 307.2,42.074075 C307.2,41.046875 306.2688,40.816475 305.4624,40.634075 C304.8576,40.490075 304.3296,40.346075 304.3296,39.894875 C304.3296,39.482075 304.7232,39.194075 305.3568,39.194075 C305.952,39.194075 306.4608,39.443675 306.7392,39.779675 L307.0752,39.280475 C306.7008,38.906075 306.144,38.608475 305.3568,38.608475 C304.2528,38.608475 303.6288,39.222875 303.6288,39.942875 C303.6288,40.902875 304.5216,41.114075 305.3088,41.296475 C305.9328,41.450075 306.4992,41.613275 306.4992,42.122075 C306.4992,42.573275 306.1152,42.890075 305.4048,42.890075 C304.7712,42.890075 304.1856,42.582875 303.8784,42.227675 L303.504,42.746075 C303.9744,43.245275 304.6176,43.475675 305.376,43.475675 Z M309.84,43.475675 C311.04,43.475675 311.664,42.851675 311.664,42.074075 C311.664,41.046875 310.7328,40.816475 309.9264,40.634075 C309.3216,40.490075 308.7936,40.346075 308.7936,39.894875 C308.7936,39.482075 309.1872,39.194075 309.8208,39.194075 C310.416,39.194075 310.9248,39.443675 311.2032,39.779675 L311.5392,39.280475 C311.1648,38.906075 310.608,38.608475 309.8208,38.608475 C308.7168,38.608475 308.0928,39.222875 308.0928,39.942875 C308.0928,40.902875 308.9856,41.114075 309.7728,41.296475 C310.3968,41.450075 310.9632,41.613275 310.9632,42.122075 C310.9632,42.573275 310.5792,42.890075 309.8688,42.890075 C309.2352,42.890075 308.6496,42.582875 308.3424,42.227675 L307.968,42.746075 C308.4384,43.245275 309.0816,43.475675 309.84,43.475675 Z" id="CustomerSuccess" fill="#29CC96" fill-rule="nonzero"></path>
        <rect id="Rectangle" fill="#F2F3F5" x="234" y="95.360475" width="197" height="4"></rect>
        <rect id="Rectangle-Copy" fill="#F2F3F5" x="234" y="104.360475" width="197" height="4"></rect>
        <rect id="Rectangle-Copy-2" fill="#F2F3F5" x="234" y="113.360475" width="197" height="4"></rect>
        <rect id="Rectangle-Copy-3" fill="#F2F3F5" x="234" y="129.360475" width="177" height="88" rx="2.4"></rect>
        <line x1="204" y1="55.860475" x2="457" y2="55.860475" id="Line-Copy-53" stroke="#DADEE6" stroke-width="0.55999999"></line>
        <g id="Rectangle">
            <use fill="black" fill-opacity="1" filter="url(#filter-6)" xlink:href="#path-5"></use>
            <use stroke="#F2F3F5" stroke-width="0.8" fill="#FFFFFF" xlink:href="#path-5"></use>
        </g>
        <rect id="Rectangle-Copy-7" fill="#E9EBF0" x="81" y="214" width="159.157895" height="34" rx="2.4"></rect>
        <g id="verification/dot/trusted/selected" transform="translate(89.000000, 223.000000)">
            <g id="Group" transform="translate(3.368421, 3.400000)">
                <rect id="Rectangle-3" stroke="#29CC96" stroke-width="0.8" fill="#29CC96" x="0" y="0" width="10.1052632" height="10.2" rx="4.8"></rect>
                <path d="M7.2467647,2.90502333 C6.16887359,4.06088515 5.18718557,5.20129844 4.13957052,6.33986819 L2.81427043,5.20587232 C2.72398518,5.12838938 2.60857417,5.09283795 2.49358618,5.10651175 C2.37859819,5.12018556 2.27341149,5.18217215 2.20100842,5.2788024 C2.05024954,5.4802632 2.08090719,5.77424009 2.26914864,5.93513103 L3.904514,7.33529878 C4.07870222,7.48433497 4.33038495,7.46883978 4.48711836,7.29883608 C5.6591302,6.04183548 6.71274159,4.80245366 7.86687344,3.56505541 C7.99719026,3.4306043 8.03594841,3.22412623 7.96482528,3.04591988 C7.89370434,2.86771353 7.72718489,2.75512837 7.54661875,2.76287597 C7.43329447,2.76645923 7.3255566,2.81750701 7.2467647,2.90502333 Z" id="Fill-1" fill="#FFFFFF"></path>
            </g>
        </g>
        <path d="M117.3008,235.1344 C119.0032,235.1344 119.944,234.2272 120.4816,233.2976 L119.1152,232.6368 C118.8016,233.2528 118.1296,233.7232 117.3008,233.7232 C116.0016,233.7232 115.016,232.6816 115.016,231.2704 C115.016,229.8592 116.0016,228.8176 117.3008,228.8176 C118.1296,228.8176 118.8016,229.2992 119.1152,229.904 L120.4816,229.232 C119.9552,228.3024 119.0032,227.4064 117.3008,227.4064 C115.1168,227.4064 113.3808,228.9744 113.3808,231.2704 C113.3808,233.5664 115.1168,235.1344 117.3008,235.1344 Z M122.9344,235.1344 C123.64,235.1344 124.2784,234.8768 124.648,234.44 L124.648,235 L126.0704,235 L126.0704,231.5056 C126.0704,229.9488 124.9392,229.456 123.7072,229.456 C122.856,229.456 122.0048,229.7248 121.344,230.3072 L121.8816,231.2592 C122.3408,230.8336 122.8784,230.6208 123.4608,230.6208 C124.1776,230.6208 124.648,230.9792 124.648,231.528 L124.648,232.2784 C124.2896,231.8416 123.6512,231.6176 122.9344,231.6176 C122.072,231.6176 121.0528,232.0768 121.0528,233.3424 C121.0528,234.552 122.072,235.1344 122.9344,235.1344 Z M123.5056,234.1712 C122.9456,234.1712 122.4864,233.88 122.4864,233.376 C122.4864,232.8496 122.9456,232.5584 123.5056,232.5584 C123.9648,232.5584 124.4128,232.7152 124.648,233.0288 L124.648,233.7008 C124.4128,234.0144 123.9648,234.1712 123.5056,234.1712 Z M128.904,235 L128.904,227.5296 L127.4816,227.5296 L127.4816,235 L128.904,235 Z M131.7376,235 L131.7376,227.5296 L130.3152,227.5296 L130.3152,235 L131.7376,235 Z M139.5888,235.1344 C141.8512,235.1344 143.4976,233.5216 143.4976,231.2704 C143.4976,229.0192 141.8512,227.4064 139.5888,227.4064 C137.3376,227.4064 135.6912,229.0192 135.6912,231.2704 C135.6912,233.5216 137.3376,235.1344 139.5888,235.1344 Z M139.5888,233.7232 C138.2112,233.7232 137.3264,232.6592 137.3264,231.2704 C137.3264,229.8704 138.2112,228.8176 139.5888,228.8176 C140.9664,228.8176 141.8624,229.8704 141.8624,231.2704 C141.8624,232.6592 140.9664,233.7232 139.5888,233.7232 Z M146.3312,235.1344 C147.216,235.1344 147.8656,234.7312 148.2352,234.3168 L148.2352,235 L149.6576,235 L149.6576,229.5904 L148.2352,229.5904 L148.2352,233.2528 C147.9888,233.5664 147.552,233.8688 147.0032,233.8688 C146.3984,233.8688 146.0064,233.6224 146.0064,232.872 L146.0064,229.5904 L144.584,229.5904 L144.584,233.432 C144.584,234.4848 145.144,235.1344 146.3312,235.1344 Z M152.8832,235.1344 C153.4768,235.1344 153.8576,234.9776 154.0704,234.7872 L153.768,233.712 C153.6896,233.7904 153.488,233.8688 153.2752,233.8688 C152.9616,233.8688 152.7824,233.6112 152.7824,233.2752 L152.7824,230.8336 L153.88,230.8336 L153.88,229.5904 L152.7824,229.5904 L152.7824,228.112 L151.3488,228.112 L151.3488,229.5904 L150.4528,229.5904 L150.4528,230.8336 L151.3488,230.8336 L151.3488,233.656 C151.3488,234.6192 151.8864,235.1344 152.8832,235.1344 Z M156.2768,235 L156.2768,227.5296 L154.8544,227.5296 L154.8544,235 L156.2768,235 Z M158.3936,228.7952 C158.864,228.7952 159.2448,228.4144 159.2448,227.944 C159.2448,227.4736 158.864,227.0928 158.3936,227.0928 C157.9344,227.0928 157.5424,227.4736 157.5424,227.944 C157.5424,228.4144 157.9344,228.7952 158.3936,228.7952 Z M159.1104,235 L159.1104,229.5904 L157.688,229.5904 L157.688,235 L159.1104,235 Z M161.944,235 L161.944,231.36 C162.1792,231.0352 162.616,230.7216 163.176,230.7216 C163.7808,230.7216 164.1728,230.9792 164.1728,231.7296 L164.1728,235 L165.5952,235 L165.5952,231.1808 C165.5952,230.128 165.024,229.456 163.8368,229.456 C162.952,229.456 162.2912,229.8816 161.944,230.296 L161.944,229.5904 L160.5216,229.5904 L160.5216,235 L161.944,235 Z M169.5488,235.1344 C170.3888,235.1344 171.24,234.8768 171.7776,234.384 L171.1504,233.4656 C170.8032,233.8016 170.2096,234.0032 169.7056,234.0032 C168.7872,234.0032 168.2384,233.432 168.1488,232.7488 L172.1696,232.7488 L172.1696,232.4352 C172.1696,230.6656 171.072,229.456 169.4592,229.456 C167.8128,229.456 166.6592,230.7216 166.6592,232.2896 C166.6592,234.0256 167.9024,235.1344 169.5488,235.1344 Z M170.792,231.7856 L168.1264,231.7856 C168.1936,231.248 168.5744,230.5872 169.4592,230.5872 C170.4,230.5872 170.7584,231.2704 170.792,231.7856 Z M173.928,231.3264 C174.4208,231.3264 174.8352,230.912 174.8352,230.4192 C174.8352,229.9264 174.4208,229.512 173.928,229.512 C173.4352,229.512 173.0208,229.9264 173.0208,230.4192 C173.0208,230.912 173.4352,231.3264 173.928,231.3264 Z M173.928,235.1232 C174.4208,235.1232 174.8352,234.7088 174.8352,234.216 C174.8352,233.7232 174.4208,233.3088 173.928,233.3088 C173.4352,233.3088 173.0208,233.7232 173.0208,234.216 C173.0208,234.7088 173.4352,235.1232 173.928,235.1232 Z M180.5024,235 L180.5024,232.3232 L181.6672,232.3232 L183.1344,235 L184.96,235 L183.28,232.1552 C184.0864,231.9648 184.9152,231.2592 184.9152,229.9376 C184.9152,228.5488 183.9632,227.5296 182.4064,227.5296 L178.912,227.5296 L178.912,235 L180.5024,235 Z M182.1712,230.9568 L180.5024,230.9568 L180.5024,228.896 L182.1712,228.896 C182.8096,228.896 183.2912,229.2992 183.2912,229.9264 C183.2912,230.5536 182.8096,230.9568 182.1712,230.9568 Z M188.5888,235.1344 C190.3808,235.1344 191.456,233.8352 191.456,232.2896 C191.456,230.7552 190.3808,229.456 188.5888,229.456 C186.808,229.456 185.7328,230.7552 185.7328,232.2896 C185.7328,233.8352 186.808,235.1344 188.5888,235.1344 Z M188.5888,233.8688 C187.704,233.8688 187.2112,233.1408 187.2112,232.2896 C187.2112,231.4496 187.704,230.7216 188.5888,230.7216 C189.4736,230.7216 189.9776,231.4496 189.9776,232.2896 C189.9776,233.1408 189.4736,233.8688 188.5888,233.8688 Z M193.9312,235 L193.9312,227.5296 L192.5088,227.5296 L192.5088,235 L193.9312,235 Z M196.7648,235 L196.7648,227.5296 L195.3424,227.5296 L195.3424,235 L196.7648,235 Z M200.4944,232.8944 L200.4944,231.6848 L197.8064,231.6848 L197.8064,232.8944 L200.4944,232.8944 Z M205.1088,235.1344 C207.3712,235.1344 209.0176,233.5216 209.0176,231.2704 C209.0176,229.0192 207.3712,227.4064 205.1088,227.4064 C202.8576,227.4064 201.2112,229.0192 201.2112,231.2704 C201.2112,233.5216 202.8576,235.1344 205.1088,235.1344 Z M205.1088,233.7232 C203.7312,233.7232 202.8464,232.6592 202.8464,231.2704 C202.8464,229.8704 203.7312,228.8176 205.1088,228.8176 C206.4864,228.8176 207.3824,229.8704 207.3824,231.2704 C207.3824,232.6592 206.4864,233.7232 205.1088,233.7232 Z M211.8512,235.1344 C212.736,235.1344 213.3856,234.7312 213.7552,234.3168 L213.7552,235 L215.1776,235 L215.1776,229.5904 L213.7552,229.5904 L213.7552,233.2528 C213.5088,233.5664 213.072,233.8688 212.5232,233.8688 C211.9184,233.8688 211.5264,233.6224 211.5264,232.872 L211.5264,229.5904 L210.104,229.5904 L210.104,233.432 C210.104,234.4848 210.664,235.1344 211.8512,235.1344 Z M218.4032,235.1344 C218.9968,235.1344 219.3776,234.9776 219.5904,234.7872 L219.288,233.712 C219.2096,233.7904 219.008,233.8688 218.7952,233.8688 C218.4816,233.8688 218.3024,233.6112 218.3024,233.2752 L218.3024,230.8336 L219.4,230.8336 L219.4,229.5904 L218.3024,229.5904 L218.3024,228.112 L216.8688,228.112 L216.8688,229.5904 L215.9728,229.5904 L215.9728,230.8336 L216.8688,230.8336 L216.8688,233.656 C216.8688,234.6192 217.4064,235.1344 218.4032,235.1344 Z" id="CallOutline:Roll-Out" fill="#1F3966" fill-rule="nonzero"></path>
        <g id="verification/dot/trusted/active" transform="translate(89.000000, 152.360475)">
            <g id="Group" transform="translate(3.364948, 3.400000)">
                <rect id="Rectangle-3" stroke="#29CC96" stroke-width="0.8" fill="#F2FFFB" x="0" y="0" width="10.0948454" height="10.2" rx="4.8"></rect>
                <path d="M7.23929381,2.90502333 C6.16251392,4.06088515 5.18183795,5.20129844 4.13530292,6.33986819 L2.81136912,5.20587232 C2.72117695,5.12838938 2.60588492,5.09283795 2.49101548,5.10651175 C2.37614603,5.12018556 2.27106777,5.18217215 2.19873934,5.2788024 C2.04813588,5.4802632 2.07876192,5.77424009 2.26680931,5.93513103 L3.90048873,7.33529878 C4.07449737,7.48433497 4.32592063,7.46883978 4.48249247,7.29883608 C5.65329605,6.04183548 6.70582124,4.80245366 7.85876326,3.56505541 C7.98894573,3.4306043 8.02766393,3.22412623 7.95661412,3.04591988 C7.8855665,2.86771353 7.71921872,2.75512837 7.53883873,2.76287597 C7.42563128,2.76645923 7.31800448,2.81750701 7.23929381,2.90502333 Z" id="Fill-1" fill="#29CC96"></path>
            </g>
        </g>
        <path d="M115.199076,163.660475 L115.199076,160.692475 L117.271076,160.692475 C118.749476,160.692475 119.611876,159.662075 119.611876,158.441275 C119.611876,157.220475 118.771876,156.190075 117.271076,156.190075 L114.269476,156.190075 L114.269476,163.660475 L115.199076,163.660475 Z M117.159076,159.863675 L115.199076,159.863675 L115.199076,157.018875 L117.159076,157.018875 C118.043876,157.018875 118.648676,157.601275 118.648676,158.441275 C118.648676,159.281275 118.043876,159.863675 117.159076,159.863675 Z M121.650276,163.660475 L121.650276,159.830075 C121.896676,159.393275 122.602276,158.967675 123.117476,158.967675 C123.251876,158.967675 123.352676,158.978875 123.453476,159.001275 L123.453476,158.138875 C122.714276,158.138875 122.087076,158.553275 121.650276,159.124475 L121.650276,158.250875 L120.810276,158.250875 L120.810276,163.660475 L121.650276,163.660475 Z M126.869476,163.794875 C128.515876,163.794875 129.546276,162.518075 129.546276,160.950075 C129.546276,159.382075 128.515876,158.116475 126.869476,158.116475 C125.223076,158.116475 124.192676,159.382075 124.192676,160.950075 C124.192676,162.518075 125.223076,163.794875 126.869476,163.794875 Z M126.869476,163.044475 C125.715876,163.044475 125.066276,162.058875 125.066276,160.950075 C125.066276,159.852475 125.715876,158.866875 126.869476,158.866875 C128.023076,158.866875 128.661476,159.852475 128.661476,160.950075 C128.661476,162.058875 128.023076,163.044475 126.869476,163.044475 Z M133.007076,163.794875 C133.768676,163.794875 134.429476,163.402875 134.832676,162.854075 L134.832676,163.660475 L135.672676,163.660475 L135.672676,156.190075 L134.832676,156.190075 L134.832676,159.068475 C134.395876,158.474875 133.735076,158.116475 133.007076,158.116475 C131.584676,158.116475 130.599076,159.236475 130.599076,160.961275 C130.599076,162.719675 131.595876,163.794875 133.007076,163.794875 Z M133.208676,163.044475 C132.122276,163.044475 131.472676,162.159675 131.472676,160.961275 C131.472676,159.762875 132.122276,158.866875 133.208676,158.866875 C133.880676,158.866875 134.530276,159.270075 134.832676,159.740475 L134.832676,162.193275 C134.530276,162.663675 133.880676,163.044475 133.208676,163.044475 Z M139.077476,163.794875 C139.883876,163.794875 140.589476,163.369275 141.003876,162.898875 L141.003876,163.660475 L141.843876,163.660475 L141.843876,158.250875 L141.003876,158.250875 L141.003876,162.226875 C140.690276,162.663675 140.063076,163.044475 139.402276,163.044475 C138.674276,163.044475 138.192676,162.764475 138.192676,161.812475 L138.192676,158.250875 L137.352676,158.250875 L137.352676,162.070075 C137.352676,163.246075 137.946276,163.794875 139.077476,163.794875 Z M145.909476,163.794875 C146.895076,163.794875 147.477476,163.391675 147.891876,162.854075 L147.331876,162.338875 C146.973476,162.820475 146.514276,163.044475 145.954276,163.044475 C144.800676,163.044475 144.083876,162.148475 144.083876,160.950075 C144.083876,159.751675 144.800676,158.866875 145.954276,158.866875 C146.514276,158.866875 146.973476,159.079675 147.331876,159.572475 L147.891876,159.057275 C147.477476,158.519675 146.895076,158.116475 145.909476,158.116475 C144.296676,158.116475 143.210276,159.348475 143.210276,160.950075 C143.210276,162.562875 144.296676,163.794875 145.909476,163.794875 Z M150.434276,163.794875 C150.927076,163.794875 151.229476,163.649275 151.442276,163.447675 L151.195876,162.820475 C151.083876,162.943675 150.859876,163.044475 150.624676,163.044475 C150.255076,163.044475 150.075876,162.753275 150.075876,162.350075 L150.075876,158.990075 L151.173476,158.990075 L151.173476,158.250875 L150.075876,158.250875 L150.075876,156.772475 L149.235876,156.772475 L149.235876,158.250875 L148.339876,158.250875 L148.339876,158.990075 L149.235876,158.990075 L149.235876,162.529275 C149.235876,163.335675 149.639076,163.794875 150.434276,163.794875 Z M158.688676,163.660475 C160.055076,163.660475 160.850276,162.842875 160.850276,161.644475 C160.850276,160.748475 160.189476,159.930875 159.394276,159.807675 C160.077476,159.662075 160.704676,159.034875 160.704676,158.094075 C160.704676,156.974075 159.909476,156.190075 158.610276,156.190075 L155.283876,156.190075 L155.283876,163.660475 L158.688676,163.660475 Z M158.453476,159.426875 L156.213476,159.426875 L156.213476,157.018875 L158.453476,157.018875 C159.293476,157.018875 159.741476,157.556475 159.741476,158.228475 C159.741476,158.911675 159.293476,159.426875 158.453476,159.426875 Z M158.498276,162.831675 L156.213476,162.831675 L156.213476,160.255675 L158.498276,160.255675 C159.416676,160.255675 159.887076,160.860475 159.887076,161.543675 C159.887076,162.338875 159.371876,162.831675 158.498276,162.831675 Z M163.885476,163.794875 C164.613476,163.794875 165.229476,163.537275 165.677476,163.044475 L165.677476,163.660475 L166.517476,163.660475 L166.517476,159.942075 C166.517476,158.631675 165.565476,158.116475 164.423076,158.116475 C163.538276,158.116475 162.843876,158.407675 162.261476,159.012475 L162.653476,159.594875 C163.135076,159.079675 163.661476,158.844475 164.311076,158.844475 C165.095076,158.844475 165.677476,159.258875 165.677476,159.986875 L165.677476,160.961275 C165.240676,160.457275 164.624676,160.222075 163.885476,160.222075 C162.967076,160.222075 161.992676,160.793275 161.992676,162.002875 C161.992676,163.178875 162.967076,163.794875 163.885476,163.794875 Z M164.187876,163.190075 C163.403876,163.190075 162.855076,162.697275 162.855076,162.014075 C162.855076,161.319675 163.403876,160.826875 164.187876,160.826875 C164.781476,160.826875 165.352676,161.050875 165.677476,161.498875 L165.677476,162.518075 C165.352676,162.966075 164.781476,163.190075 164.187876,163.190075 Z M169.911076,163.794875 C171.311076,163.794875 172.039076,163.066875 172.039076,162.159675 C172.039076,160.961275 170.952676,160.692475 170.011876,160.479675 C169.306276,160.311675 168.690276,160.143675 168.690276,159.617275 C168.690276,159.135675 169.149476,158.799675 169.888676,158.799675 C170.583076,158.799675 171.176676,159.090875 171.501476,159.482875 L171.893476,158.900475 C171.456676,158.463675 170.807076,158.116475 169.888676,158.116475 C168.600676,158.116475 167.872676,158.833275 167.872676,159.673275 C167.872676,160.793275 168.914276,161.039675 169.832676,161.252475 C170.560676,161.431675 171.221476,161.622075 171.221476,162.215675 C171.221476,162.742075 170.773476,163.111675 169.944676,163.111675 C169.205476,163.111675 168.522276,162.753275 168.163876,162.338875 L167.727076,162.943675 C168.275876,163.526075 169.026276,163.794875 169.911076,163.794875 Z M173.819876,157.343675 C174.133476,157.343675 174.391076,157.086075 174.391076,156.772475 C174.391076,156.458875 174.133476,156.212475 173.819876,156.212475 C173.517476,156.212475 173.259876,156.458875 173.259876,156.772475 C173.259876,157.086075 173.517476,157.343675 173.819876,157.343675 Z M174.245476,163.660475 L174.245476,158.250875 L173.405476,158.250875 L173.405476,163.660475 L174.245476,163.660475 Z M178.311076,163.794875 C179.296676,163.794875 179.879076,163.391675 180.293476,162.854075 L179.733476,162.338875 C179.375076,162.820475 178.915876,163.044475 178.355876,163.044475 C177.202276,163.044475 176.485476,162.148475 176.485476,160.950075 C176.485476,159.751675 177.202276,158.866875 178.355876,158.866875 C178.915876,158.866875 179.375076,159.079675 179.733476,159.572475 L180.293476,159.057275 C179.879076,158.519675 179.296676,158.116475 178.311076,158.116475 C176.698276,158.116475 175.611876,159.348475 175.611876,160.950075 C175.611876,162.562875 176.698276,163.794875 178.311076,163.794875 Z M183.183076,163.794875 C184.583076,163.794875 185.311076,163.066875 185.311076,162.159675 C185.311076,160.961275 184.224676,160.692475 183.283876,160.479675 C182.578276,160.311675 181.962276,160.143675 181.962276,159.617275 C181.962276,159.135675 182.421476,158.799675 183.160676,158.799675 C183.855076,158.799675 184.448676,159.090875 184.773476,159.482875 L185.165476,158.900475 C184.728676,158.463675 184.079076,158.116475 183.160676,158.116475 C181.872676,158.116475 181.144676,158.833275 181.144676,159.673275 C181.144676,160.793275 182.186276,161.039675 183.104676,161.252475 C183.832676,161.431675 184.493476,161.622075 184.493476,162.215675 C184.493476,162.742075 184.045476,163.111675 183.216676,163.111675 C182.477476,163.111675 181.794276,162.753275 181.435876,162.338875 L180.999076,162.943675 C181.547876,163.526075 182.298276,163.794875 183.183076,163.794875 Z" id="ProductBasics" fill="#1F3966" fill-rule="nonzero"></path>
        <g id="verification/dot/trusted/active" transform="translate(89.000000, 186.360475)">
            <g id="Group" transform="translate(3.368421, 3.400000)">
                <rect id="Rectangle-3" stroke="#29CC96" stroke-width="0.8" fill="#F2FFFB" x="0" y="0" width="10.1052632" height="10.2" rx="4.8"></rect>
                <path d="M7.2467647,2.90502333 C6.16887359,4.06088515 5.18718557,5.20129844 4.13957052,6.33986819 L2.81427043,5.20587232 C2.72398518,5.12838938 2.60857417,5.09283795 2.49358618,5.10651175 C2.37859819,5.12018556 2.27341149,5.18217215 2.20100842,5.2788024 C2.05024954,5.4802632 2.08090719,5.77424009 2.26914864,5.93513103 L3.904514,7.33529878 C4.07870222,7.48433497 4.33038495,7.46883978 4.48711836,7.29883608 C5.6591302,6.04183548 6.71274159,4.80245366 7.86687344,3.56505541 C7.99719026,3.4306043 8.03594841,3.22412623 7.96482528,3.04591988 C7.89370434,2.86771353 7.72718489,2.75512837 7.54661875,2.76287597 C7.43329447,2.76645923 7.3255566,2.81750701 7.2467647,2.90502333 Z" id="Fill-1" fill="#29CC96"></path>
            </g>
        </g>
        <path d="M117.072253,197.660475 L117.072253,191.018875 L119.446653,191.018875 L119.446653,190.190075 L113.779453,190.190075 L113.779453,191.018875 L116.142653,191.018875 L116.142653,197.660475 L117.072253,197.660475 Z M121.059453,191.343675 C121.373053,191.343675 121.630653,191.086075 121.630653,190.772475 C121.630653,190.458875 121.373053,190.212475 121.059453,190.212475 C120.757053,190.212475 120.499453,190.458875 120.499453,190.772475 C120.499453,191.086075 120.757053,191.343675 121.059453,191.343675 Z M121.485053,197.660475 L121.485053,192.250875 L120.645053,192.250875 L120.645053,197.660475 L121.485053,197.660475 Z M124.005053,199.721275 L124.005053,196.842875 C124.441853,197.447675 125.091453,197.794875 125.830653,197.794875 C127.253053,197.794875 128.238653,196.697275 128.238653,194.950075 C128.238653,193.191675 127.253053,192.116475 125.830653,192.116475 C125.069053,192.116475 124.397053,192.508475 124.005053,193.057275 L124.005053,192.250875 L123.165053,192.250875 L123.165053,199.721275 L124.005053,199.721275 Z M125.617853,197.044475 C124.957053,197.044475 124.296253,196.641275 124.005053,196.170875 L124.005053,193.729275 C124.296253,193.258875 124.957053,192.866875 125.617853,192.866875 C126.704253,192.866875 127.353853,193.751675 127.353853,194.950075 C127.353853,196.148475 126.704253,197.044475 125.617853,197.044475 Z M131.307453,197.794875 C132.707453,197.794875 133.435453,197.066875 133.435453,196.159675 C133.435453,194.961275 132.349053,194.692475 131.408253,194.479675 C130.702653,194.311675 130.086653,194.143675 130.086653,193.617275 C130.086653,193.135675 130.545853,192.799675 131.285053,192.799675 C131.979453,192.799675 132.573053,193.090875 132.897853,193.482875 L133.289853,192.900475 C132.853053,192.463675 132.203453,192.116475 131.285053,192.116475 C129.997053,192.116475 129.269053,192.833275 129.269053,193.673275 C129.269053,194.793275 130.310653,195.039675 131.229053,195.252475 C131.957053,195.431675 132.617853,195.622075 132.617853,196.215675 C132.617853,196.742075 132.169853,197.111675 131.341053,197.111675 C130.601853,197.111675 129.918653,196.753275 129.560253,196.338875 L129.123453,196.943675 C129.672253,197.526075 130.422653,197.794875 131.307453,197.794875 Z M138.766653,197.660475 L138.766653,192.990075 L139.864253,192.990075 L139.864253,192.250875 L138.766653,192.250875 L138.766653,191.836475 C138.766653,191.153275 139.069053,190.772475 139.617853,190.772475 C139.808253,190.772475 139.965053,190.817275 140.099453,190.895675 L140.312253,190.268475 C140.099453,190.134075 139.808253,190.078075 139.494653,190.078075 C138.553853,190.078075 137.926653,190.716475 137.926653,191.836475 L137.926653,192.250875 L137.030653,192.250875 L137.030653,192.990075 L137.926653,192.990075 L137.926653,197.660475 L138.766653,197.660475 Z M143.224253,197.794875 C144.870653,197.794875 145.901053,196.518075 145.901053,194.950075 C145.901053,193.382075 144.870653,192.116475 143.224253,192.116475 C141.577853,192.116475 140.547453,193.382075 140.547453,194.950075 C140.547453,196.518075 141.577853,197.794875 143.224253,197.794875 Z M143.224253,197.044475 C142.070653,197.044475 141.421053,196.058875 141.421053,194.950075 C141.421053,193.852475 142.070653,192.866875 143.224253,192.866875 C144.377853,192.866875 145.016253,193.852475 145.016253,194.950075 C145.016253,196.058875 144.377853,197.044475 143.224253,197.044475 Z M148.107453,197.660475 L148.107453,193.830075 C148.353853,193.393275 149.059453,192.967675 149.574653,192.967675 C149.709053,192.967675 149.809853,192.978875 149.910653,193.001275 L149.910653,192.138875 C149.171453,192.138875 148.544253,192.553275 148.107453,193.124475 L148.107453,192.250875 L147.267453,192.250875 L147.267453,197.660475 L148.107453,197.660475 Z M157.392253,197.794875 C158.747453,197.794875 159.643453,197.167675 160.270653,196.316475 L159.475453,195.879675 C159.049853,196.518075 158.277053,196.966075 157.392253,196.966075 C155.790653,196.966075 154.547453,195.700475 154.547453,193.930875 C154.547453,192.150075 155.790653,190.895675 157.392253,190.895675 C158.277053,190.895675 159.049853,191.354875 159.475453,191.982075 L160.259453,191.545275 C159.665853,190.705275 158.747453,190.066875 157.392253,190.066875 C155.275453,190.066875 153.584253,191.634875 153.584253,193.930875 C153.584253,196.226875 155.275453,197.794875 157.392253,197.794875 Z M163.149053,197.794875 C163.955453,197.794875 164.661053,197.369275 165.075453,196.898875 L165.075453,197.660475 L165.915453,197.660475 L165.915453,192.250875 L165.075453,192.250875 L165.075453,196.226875 C164.761853,196.663675 164.134653,197.044475 163.473853,197.044475 C162.745853,197.044475 162.264253,196.764475 162.264253,195.812475 L162.264253,192.250875 L161.424253,192.250875 L161.424253,196.070075 C161.424253,197.246075 162.017853,197.794875 163.149053,197.794875 Z M169.309053,197.794875 C170.709053,197.794875 171.437053,197.066875 171.437053,196.159675 C171.437053,194.961275 170.350653,194.692475 169.409853,194.479675 C168.704253,194.311675 168.088253,194.143675 168.088253,193.617275 C168.088253,193.135675 168.547453,192.799675 169.286653,192.799675 C169.981053,192.799675 170.574653,193.090875 170.899453,193.482875 L171.291453,192.900475 C170.854653,192.463675 170.205053,192.116475 169.286653,192.116475 C167.998653,192.116475 167.270653,192.833275 167.270653,193.673275 C167.270653,194.793275 168.312253,195.039675 169.230653,195.252475 C169.958653,195.431675 170.619453,195.622075 170.619453,196.215675 C170.619453,196.742075 170.171453,197.111675 169.342653,197.111675 C168.603453,197.111675 167.920253,196.753275 167.561853,196.338875 L167.125053,196.943675 C167.673853,197.526075 168.424253,197.794875 169.309053,197.794875 Z M174.169853,197.794875 C174.662653,197.794875 174.965053,197.649275 175.177853,197.447675 L174.931453,196.820475 C174.819453,196.943675 174.595453,197.044475 174.360253,197.044475 C173.990653,197.044475 173.811453,196.753275 173.811453,196.350075 L173.811453,192.990075 L174.909053,192.990075 L174.909053,192.250875 L173.811453,192.250875 L173.811453,190.772475 L172.971453,190.772475 L172.971453,192.250875 L172.075453,192.250875 L172.075453,192.990075 L172.971453,192.990075 L172.971453,196.529275 C172.971453,197.335675 173.374653,197.794875 174.169853,197.794875 Z M178.459453,197.794875 C180.105853,197.794875 181.136253,196.518075 181.136253,194.950075 C181.136253,193.382075 180.105853,192.116475 178.459453,192.116475 C176.813053,192.116475 175.782653,193.382075 175.782653,194.950075 C175.782653,196.518075 176.813053,197.794875 178.459453,197.794875 Z M178.459453,197.044475 C177.305853,197.044475 176.656253,196.058875 176.656253,194.950075 C176.656253,193.852475 177.305853,192.866875 178.459453,192.866875 C179.613053,192.866875 180.251453,193.852475 180.251453,194.950075 C180.251453,196.058875 179.613053,197.044475 178.459453,197.044475 Z M183.342653,197.660475 L183.342653,193.706875 C183.633853,193.270075 184.216253,192.866875 184.765053,192.866875 C185.470653,192.866875 185.761853,193.303675 185.761853,193.986875 L185.761853,197.660475 L186.601853,197.660475 L186.601853,193.695675 C186.881853,193.270075 187.475453,192.866875 188.035453,192.866875 C188.729853,192.866875 189.032253,193.303675 189.032253,193.986875 L189.032253,197.660475 L189.872253,197.660475 L189.872253,193.751675 C189.872253,192.665275 189.345853,192.116475 188.360253,192.116475 C187.576253,192.116475 186.848253,192.631675 186.545853,193.124475 C186.389053,192.564475 185.918653,192.116475 185.089853,192.116475 C184.294653,192.116475 183.566653,192.687675 183.342653,193.034875 L183.342653,192.250875 L182.502653,192.250875 L182.502653,197.660475 L183.342653,197.660475 Z M193.993853,197.794875 C194.878653,197.794875 195.606653,197.503675 196.144253,196.966075 L195.741053,196.417275 C195.315453,196.854075 194.688253,197.100475 194.072253,197.100475 C192.907453,197.100475 192.190653,196.249275 192.123453,195.230075 L196.502653,195.230075 L196.502653,195.017275 C196.502653,193.393275 195.539453,192.116475 193.904253,192.116475 C192.358653,192.116475 191.238653,193.382075 191.238653,194.950075 C191.238653,196.641275 192.392253,197.794875 193.993853,197.794875 Z M195.673853,194.614075 L192.123453,194.614075 C192.168253,193.785275 192.739453,192.810875 193.893053,192.810875 C195.125053,192.810875 195.662653,193.807675 195.673853,194.614075 Z M198.697853,197.660475 L198.697853,193.830075 C198.944253,193.393275 199.649853,192.967675 200.165053,192.967675 C200.299453,192.967675 200.400253,192.978875 200.501053,193.001275 L200.501053,192.138875 C199.761853,192.138875 199.134653,192.553275 198.697853,193.124475 L198.697853,192.250875 L197.857853,192.250875 L197.857853,197.660475 L198.697853,197.660475 Z M207.982653,197.794875 C209.337853,197.794875 210.233853,197.167675 210.861053,196.316475 L210.065853,195.879675 C209.640253,196.518075 208.867453,196.966075 207.982653,196.966075 C206.381053,196.966075 205.137853,195.700475 205.137853,193.930875 C205.137853,192.150075 206.381053,190.895675 207.982653,190.895675 C208.867453,190.895675 209.640253,191.354875 210.065853,191.982075 L210.849853,191.545275 C210.256253,190.705275 209.337853,190.066875 207.982653,190.066875 C205.865853,190.066875 204.174653,191.634875 204.174653,193.930875 C204.174653,196.226875 205.865853,197.794875 207.982653,197.794875 Z M213.605053,197.794875 C214.333053,197.794875 214.949053,197.537275 215.397053,197.044475 L215.397053,197.660475 L216.237053,197.660475 L216.237053,193.942075 C216.237053,192.631675 215.285053,192.116475 214.142653,192.116475 C213.257853,192.116475 212.563453,192.407675 211.981053,193.012475 L212.373053,193.594875 C212.854653,193.079675 213.381053,192.844475 214.030653,192.844475 C214.814653,192.844475 215.397053,193.258875 215.397053,193.986875 L215.397053,194.961275 C214.960253,194.457275 214.344253,194.222075 213.605053,194.222075 C212.686653,194.222075 211.712253,194.793275 211.712253,196.002875 C211.712253,197.178875 212.686653,197.794875 213.605053,197.794875 Z M213.907453,197.190075 C213.123453,197.190075 212.574653,196.697275 212.574653,196.014075 C212.574653,195.319675 213.123453,194.826875 213.907453,194.826875 C214.501053,194.826875 215.072253,195.050875 215.397053,195.498875 L215.397053,196.518075 C215.072253,196.966075 214.501053,197.190075 213.907453,197.190075 Z M218.757053,197.660475 L218.757053,190.190075 L217.917053,190.190075 L217.917053,197.660475 L218.757053,197.660475 Z M221.277053,197.660475 L221.277053,190.190075 L220.437053,190.190075 L220.437053,197.660475 L221.277053,197.660475 Z M224.670653,197.794875 C226.070653,197.794875 226.798653,197.066875 226.798653,196.159675 C226.798653,194.961275 225.712253,194.692475 224.771453,194.479675 C224.065853,194.311675 223.449853,194.143675 223.449853,193.617275 C223.449853,193.135675 223.909053,192.799675 224.648253,192.799675 C225.342653,192.799675 225.936253,193.090875 226.261053,193.482875 L226.653053,192.900475 C226.216253,192.463675 225.566653,192.116475 224.648253,192.116475 C223.360253,192.116475 222.632253,192.833275 222.632253,193.673275 C222.632253,194.793275 223.673853,195.039675 224.592253,195.252475 C225.320253,195.431675 225.981053,195.622075 225.981053,196.215675 C225.981053,196.742075 225.533053,197.111675 224.704253,197.111675 C223.965053,197.111675 223.281853,196.753275 222.923453,196.338875 L222.486653,196.943675 C223.035453,197.526075 223.785853,197.794875 224.670653,197.794875 Z" id="TipsforCustomerCalls" fill="#1F3966" fill-rule="nonzero"></path>
        <g id="verification/dot/trusted/active" transform="translate(88.000000, 260.360475)">
            <g id="Group" transform="translate(3.383607, 3.400000)">
                <rect id="Rectangle-3" stroke="#29CC96" stroke-width="0.8" fill="#F2FFFB" x="0" y="0" width="10.1508197" height="10.2" rx="4.8"></rect>
                <path d="M7.27943454,2.90502333 C6.19668408,4.06088515 5.21057042,5.20129844 4.15823252,6.33986819 L2.82695771,5.20587232 C2.73626544,5.12838938 2.62033414,5.09283795 2.50482776,5.10651175 C2.38932138,5.12018556 2.28366048,5.18217215 2.210931,5.2788024 C2.05949247,5.4802632 2.09028833,5.77424009 2.27937841,5.93513103 L3.92211632,7.33529878 C4.09708981,7.48433497 4.34990717,7.46883978 4.50734718,7.29883608 C5.68464268,6.04183548 6.74300395,4.80245366 7.90233885,3.56505541 C8.03324316,3.4306043 8.07217605,3.22412623 8.00073228,3.04591988 C7.92929071,2.86771353 7.76202056,2.75512837 7.58064039,2.76287597 C7.46680523,2.76645923 7.35858165,2.81750701 7.27943454,2.90502333 Z" id="Fill-1" fill="#29CC96"></path>
            </g>
        </g>
        <path d="M114.334348,271.660475 L114.334348,269.151675 L115.084748,268.300475 L117.918348,271.660475 L119.071948,271.660475 L115.689548,267.740475 L118.803148,264.190075 L117.638348,264.190075 L114.334348,268.054075 L114.334348,264.190075 L113.404748,264.190075 L113.404748,271.660475 L114.334348,271.660475 Z M123.641548,271.794875 C124.996748,271.794875 125.892748,271.167675 126.519948,270.316475 L125.724748,269.879675 C125.299148,270.518075 124.526348,270.966075 123.641548,270.966075 C122.039948,270.966075 120.796748,269.700475 120.796748,267.930875 C120.796748,266.150075 122.039948,264.895675 123.641548,264.895675 C124.526348,264.895675 125.299148,265.354875 125.724748,265.982075 L126.508748,265.545275 C125.915148,264.705275 124.996748,264.066875 123.641548,264.066875 C121.524748,264.066875 119.833548,265.634875 119.833548,267.930875 C119.833548,270.226875 121.524748,271.794875 123.641548,271.794875 Z M130.126348,271.794875 C132.142348,271.794875 132.881548,270.686075 132.881548,269.599675 C132.881548,268.031675 131.492748,267.650875 130.271948,267.326075 C129.319948,267.068475 128.457548,266.844475 128.457548,266.094075 C128.457548,265.388475 129.095948,264.906875 129.991948,264.906875 C130.809548,264.906875 131.593548,265.186875 132.153548,265.802875 L132.713548,265.119675 C132.086348,264.458875 131.201548,264.078075 130.059148,264.078075 C128.591948,264.078075 127.494348,264.918075 127.494348,266.150075 C127.494348,267.617275 128.827148,267.953275 130.025548,268.266875 C131.011148,268.535675 131.918348,268.782075 131.918348,269.678075 C131.918348,270.249275 131.492748,270.966075 130.159948,270.966075 C129.107148,270.966075 128.300748,270.450875 127.807948,269.902075 L127.259148,270.607675 C127.875148,271.302075 128.827148,271.794875 130.126348,271.794875 Z M140.564748,271.794875 C142.771148,271.794875 144.271948,270.137275 144.271948,267.930875 C144.271948,265.724475 142.771148,264.066875 140.564748,264.066875 C138.347148,264.066875 136.857548,265.724475 136.857548,267.930875 C136.857548,270.137275 138.347148,271.794875 140.564748,271.794875 Z M140.564748,270.966075 C138.884748,270.966075 137.820748,269.666875 137.820748,267.930875 C137.820748,266.183675 138.884748,264.895675 140.564748,264.895675 C142.233548,264.895675 143.308748,266.183675 143.308748,267.930875 C143.308748,269.666875 142.233548,270.966075 140.564748,270.966075 Z M148.057548,271.660475 L150.308748,266.250875 L149.390348,266.250875 L147.598348,270.686075 L145.795148,266.250875 L144.887948,266.250875 L147.139148,271.660475 L148.057548,271.660475 Z M153.623948,271.794875 C154.508748,271.794875 155.236748,271.503675 155.774348,270.966075 L155.371148,270.417275 C154.945548,270.854075 154.318348,271.100475 153.702348,271.100475 C152.537548,271.100475 151.820748,270.249275 151.753548,269.230075 L156.132748,269.230075 L156.132748,269.017275 C156.132748,267.393275 155.169548,266.116475 153.534348,266.116475 C151.988748,266.116475 150.868748,267.382075 150.868748,268.950075 C150.868748,270.641275 152.022348,271.794875 153.623948,271.794875 Z M155.303948,268.614075 L151.753548,268.614075 C151.798348,267.785275 152.369548,266.810875 153.523148,266.810875 C154.755148,266.810875 155.292748,267.807675 155.303948,268.614075 Z M158.327948,271.660475 L158.327948,267.830075 C158.574348,267.393275 159.279948,266.967675 159.795148,266.967675 C159.929548,266.967675 160.030348,266.978875 160.131148,267.001275 L160.131148,266.138875 C159.391948,266.138875 158.764748,266.553275 158.327948,267.124475 L158.327948,266.250875 L157.487948,266.250875 L157.487948,271.660475 L158.327948,271.660475 Z M163.547148,271.660475 L165.798348,266.250875 L164.879948,266.250875 L163.087948,270.686075 L161.284748,266.250875 L160.377548,266.250875 L162.628748,271.660475 L163.547148,271.660475 Z M167.086348,265.343675 C167.399948,265.343675 167.657548,265.086075 167.657548,264.772475 C167.657548,264.458875 167.399948,264.212475 167.086348,264.212475 C166.783948,264.212475 166.526348,264.458875 166.526348,264.772475 C166.526348,265.086075 166.783948,265.343675 167.086348,265.343675 Z M167.511948,271.660475 L167.511948,266.250875 L166.671948,266.250875 L166.671948,271.660475 L167.511948,271.660475 Z M171.633548,271.794875 C172.518348,271.794875 173.246348,271.503675 173.783948,270.966075 L173.380748,270.417275 C172.955148,270.854075 172.327948,271.100475 171.711948,271.100475 C170.547148,271.100475 169.830348,270.249275 169.763148,269.230075 L174.142348,269.230075 L174.142348,269.017275 C174.142348,267.393275 173.179148,266.116475 171.543948,266.116475 C169.998348,266.116475 168.878348,267.382075 168.878348,268.950075 C168.878348,270.641275 170.031948,271.794875 171.633548,271.794875 Z M173.313548,268.614075 L169.763148,268.614075 C169.807948,267.785275 170.379148,266.810875 171.532748,266.810875 C172.764748,266.810875 173.302348,267.807675 173.313548,268.614075 Z M177.356748,271.660475 L178.767948,267.314875 L180.179148,271.660475 L181.019148,271.660475 L182.743948,266.250875 L181.870348,266.250875 L180.548748,270.562875 L179.126348,266.250875 L178.409548,266.250875 L176.987148,270.562875 L175.665548,266.250875 L174.791948,266.250875 L176.516748,271.660475 L177.356748,271.660475 Z" id="KCSOverview" fill="#1F3966" fill-rule="nonzero"></path>
        <g id="verification/dot/trusted/active" transform="translate(89.000000, 118.360475)">
            <g id="Group" transform="translate(3.364706, 3.400000)">
                <rect id="Rectangle-3" stroke="#29CC96" stroke-width="0.8" fill="#F2FFFB" x="0" y="0" width="10.0941176" height="10.2" rx="4.8"></rect>
                <path d="M7.23877195,2.90502333 C6.16206968,4.06088515 5.18146441,5.20129844 4.13500481,6.33986819 L2.81116645,5.20587232 C2.72098078,5.12838938 2.60569707,5.09283795 2.49083591,5.10651175 C2.37597474,5.12018556 2.27090406,5.18217215 2.19858084,5.2788024 C2.04798823,5.4802632 2.07861207,5.77424009 2.2666459,5.93513103 L3.90020755,7.33529878 C4.07420365,7.48433497 4.32560879,7.46883978 4.48216934,7.29883608 C5.65288852,6.04183548 6.70533784,4.80245366 7.85819674,3.56505541 C7.98836983,3.4306043 8.02708524,3.22412623 7.95604055,3.04591988 C7.88499804,2.86771353 7.71866226,2.75512837 7.53829528,2.76287597 C7.42509599,2.76645923 7.31747695,2.81750701 7.23877195,2.90502333 Z" id="Fill-1" fill="#29CC96"></path>
            </g>
        </g>
        <path d="M117.773318,129.794875 C119.128518,129.794875 120.024518,129.167675 120.651718,128.316475 L119.856518,127.879675 C119.430918,128.518075 118.658118,128.966075 117.773318,128.966075 C116.171718,128.966075 114.928518,127.700475 114.928518,125.930875 C114.928518,124.150075 116.171718,122.895675 117.773318,122.895675 C118.658118,122.895675 119.430918,123.354875 119.856518,123.982075 L120.640518,123.545275 C120.046918,122.705275 119.128518,122.066875 117.773318,122.066875 C115.656518,122.066875 113.965318,123.634875 113.965318,125.930875 C113.965318,128.226875 115.656518,129.794875 117.773318,129.794875 Z M124.168518,129.794875 C125.814918,129.794875 126.845318,128.518075 126.845318,126.950075 C126.845318,125.382075 125.814918,124.116475 124.168518,124.116475 C122.522118,124.116475 121.491718,125.382075 121.491718,126.950075 C121.491718,128.518075 122.522118,129.794875 124.168518,129.794875 Z M124.168518,129.044475 C123.014918,129.044475 122.365318,128.058875 122.365318,126.950075 C122.365318,125.852475 123.014918,124.866875 124.168518,124.866875 C125.322118,124.866875 125.960518,125.852475 125.960518,126.950075 C125.960518,128.058875 125.322118,129.044475 124.168518,129.044475 Z M129.051718,129.660475 L129.051718,125.706875 C129.342918,125.270075 129.925318,124.866875 130.474118,124.866875 C131.179718,124.866875 131.470918,125.303675 131.470918,125.986875 L131.470918,129.660475 L132.310918,129.660475 L132.310918,125.695675 C132.590918,125.270075 133.184518,124.866875 133.744518,124.866875 C134.438918,124.866875 134.741318,125.303675 134.741318,125.986875 L134.741318,129.660475 L135.581318,129.660475 L135.581318,125.751675 C135.581318,124.665275 135.054918,124.116475 134.069318,124.116475 C133.285318,124.116475 132.557318,124.631675 132.254918,125.124475 C132.098118,124.564475 131.627718,124.116475 130.798918,124.116475 C130.003718,124.116475 129.275718,124.687675 129.051718,125.034875 L129.051718,124.250875 L128.211718,124.250875 L128.211718,129.660475 L129.051718,129.660475 Z M138.101318,131.721275 L138.101318,128.842875 C138.538118,129.447675 139.187718,129.794875 139.926918,129.794875 C141.349318,129.794875 142.334918,128.697275 142.334918,126.950075 C142.334918,125.191675 141.349318,124.116475 139.926918,124.116475 C139.165318,124.116475 138.493318,124.508475 138.101318,125.057275 L138.101318,124.250875 L137.261318,124.250875 L137.261318,131.721275 L138.101318,131.721275 Z M139.714118,129.044475 C139.053318,129.044475 138.392518,128.641275 138.101318,128.170875 L138.101318,125.729275 C138.392518,125.258875 139.053318,124.866875 139.714118,124.866875 C140.800518,124.866875 141.450118,125.751675 141.450118,126.950075 C141.450118,128.148475 140.800518,129.044475 139.714118,129.044475 Z M145.280518,129.794875 C146.008518,129.794875 146.624518,129.537275 147.072518,129.044475 L147.072518,129.660475 L147.912518,129.660475 L147.912518,125.942075 C147.912518,124.631675 146.960518,124.116475 145.818118,124.116475 C144.933318,124.116475 144.238918,124.407675 143.656518,125.012475 L144.048518,125.594875 C144.530118,125.079675 145.056518,124.844475 145.706118,124.844475 C146.490118,124.844475 147.072518,125.258875 147.072518,125.986875 L147.072518,126.961275 C146.635718,126.457275 146.019718,126.222075 145.280518,126.222075 C144.362118,126.222075 143.387718,126.793275 143.387718,128.002875 C143.387718,129.178875 144.362118,129.794875 145.280518,129.794875 Z M145.582918,129.190075 C144.798918,129.190075 144.250118,128.697275 144.250118,128.014075 C144.250118,127.319675 144.798918,126.826875 145.582918,126.826875 C146.176518,126.826875 146.747718,127.050875 147.072518,127.498875 L147.072518,128.518075 C146.747718,128.966075 146.176518,129.190075 145.582918,129.190075 Z M150.432518,129.660475 L150.432518,125.706875 C150.746118,125.270075 151.373318,124.866875 152.034118,124.866875 C152.762118,124.866875 153.243718,125.169275 153.243718,126.121275 L153.243718,129.660475 L154.083718,129.660475 L154.083718,125.863675 C154.083718,124.687675 153.490118,124.116475 152.358918,124.116475 C151.552518,124.116475 150.813318,124.586875 150.432518,125.034875 L150.432518,124.250875 L149.592518,124.250875 L149.592518,129.660475 L150.432518,129.660475 Z M156.077318,131.855675 C156.794118,131.844475 157.342918,131.542075 157.667718,130.758075 L160.378118,124.250875 L159.459718,124.250875 L157.667718,128.686075 L155.864518,124.250875 L154.957318,124.250875 L157.219718,129.716475 L156.861318,130.534075 C156.670918,130.982075 156.424518,131.105275 156.054918,131.105275 C155.920518,131.105275 155.718918,131.071675 155.595718,131.015675 L155.461318,131.777275 C155.618118,131.822075 155.898118,131.855675 156.077318,131.855675 Z M167.557318,129.660475 L170.570118,122.190075 L169.506118,122.190075 L166.986118,128.641275 L164.466118,122.190075 L163.402118,122.190075 L166.403718,129.660475 L167.557318,129.660475 Z M173.101318,129.794875 C173.829318,129.794875 174.445318,129.537275 174.893318,129.044475 L174.893318,129.660475 L175.733318,129.660475 L175.733318,125.942075 C175.733318,124.631675 174.781318,124.116475 173.638918,124.116475 C172.754118,124.116475 172.059718,124.407675 171.477318,125.012475 L171.869318,125.594875 C172.350918,125.079675 172.877318,124.844475 173.526918,124.844475 C174.310918,124.844475 174.893318,125.258875 174.893318,125.986875 L174.893318,126.961275 C174.456518,126.457275 173.840518,126.222075 173.101318,126.222075 C172.182918,126.222075 171.208518,126.793275 171.208518,128.002875 C171.208518,129.178875 172.182918,129.794875 173.101318,129.794875 Z M173.403718,129.190075 C172.619718,129.190075 172.070918,128.697275 172.070918,128.014075 C172.070918,127.319675 172.619718,126.826875 173.403718,126.826875 C173.997318,126.826875 174.568518,127.050875 174.893318,127.498875 L174.893318,128.518075 C174.568518,128.966075 173.997318,129.190075 173.403718,129.190075 Z M178.253318,129.660475 L178.253318,122.190075 L177.413318,122.190075 L177.413318,129.660475 L178.253318,129.660475 Z M181.658118,129.794875 C182.464518,129.794875 183.170118,129.369275 183.584518,128.898875 L183.584518,129.660475 L184.424518,129.660475 L184.424518,124.250875 L183.584518,124.250875 L183.584518,128.226875 C183.270918,128.663675 182.643718,129.044475 181.982918,129.044475 C181.254918,129.044475 180.773318,128.764475 180.773318,127.812475 L180.773318,124.250875 L179.933318,124.250875 L179.933318,128.070075 C179.933318,129.246075 180.526918,129.794875 181.658118,129.794875 Z M188.546118,129.794875 C189.430918,129.794875 190.158918,129.503675 190.696518,128.966075 L190.293318,128.417275 C189.867718,128.854075 189.240518,129.100475 188.624518,129.100475 C187.459718,129.100475 186.742918,128.249275 186.675718,127.230075 L191.054918,127.230075 L191.054918,127.017275 C191.054918,125.393275 190.091718,124.116475 188.456518,124.116475 C186.910918,124.116475 185.790918,125.382075 185.790918,126.950075 C185.790918,128.641275 186.944518,129.794875 188.546118,129.794875 Z M190.226118,126.614075 L186.675718,126.614075 C186.720518,125.785275 187.291718,124.810875 188.445318,124.810875 C189.677318,124.810875 190.214918,125.807675 190.226118,126.614075 Z M194.123718,129.794875 C195.523718,129.794875 196.251718,129.066875 196.251718,128.159675 C196.251718,126.961275 195.165318,126.692475 194.224518,126.479675 C193.518918,126.311675 192.902918,126.143675 192.902918,125.617275 C192.902918,125.135675 193.362118,124.799675 194.101318,124.799675 C194.795718,124.799675 195.389318,125.090875 195.714118,125.482875 L196.106118,124.900475 C195.669318,124.463675 195.019718,124.116475 194.101318,124.116475 C192.813318,124.116475 192.085318,124.833275 192.085318,125.673275 C192.085318,126.793275 193.126918,127.039675 194.045318,127.252475 C194.773318,127.431675 195.434118,127.622075 195.434118,128.215675 C195.434118,128.742075 194.986118,129.111675 194.157318,129.111675 C193.418118,129.111675 192.734918,128.753275 192.376518,128.338875 L191.939718,128.943675 C192.488518,129.526075 193.238918,129.794875 194.123718,129.794875 Z" id="CompanyValues" fill="#1F3966" fill-rule="nonzero"></path>
        <g id="expand-accordion" transform="translate(229.000000, 231.000000) rotate(-90.000000) translate(-229.000000, -231.000000) translate(222.000000, 224.000000)">
            <mask id="mask-8" fill="white">
                <use xlink:href="#path-7"></use>
            </mask>
            <use id="-Icon-小olor" fill="#001C4D" fill-rule="evenodd" xlink:href="#path-7"></use>
        </g>
    </g>
</svg>