<?xml version="1.0" encoding="UTF-8"?>
<svg width="500px" height="330px" viewBox="0 0 500 330" version="1.1" xmlns="http://www.w3.org/2000/svg" xmlns:xlink="http://www.w3.org/1999/xlink">
    <title>Deal Desk</title>
    <defs>
        <filter x="-3.0%" y="-2.7%" width="105.9%" height="105.5%" filterUnits="objectBoundingBox" id="filter-1">
            <feOffset dx="0" dy="1" in="SourceAlpha" result="shadowOffsetOuter1"></feOffset>
            <feGaussianBlur stdDeviation="1" in="shadowOffsetOuter1" result="shadowBlurOuter1"></feGaussianBlur>
            <feColorMatrix values="0 0 0 0 0   0 0 0 0 0   0 0 0 0 0  0 0 0 0.5 0" type="matrix" in="shadowBlurOuter1" result="shadowMatrixOuter1"></feColorMatrix>
            <feMerge>
                <feMergeNode in="shadowMatrixOuter1"></feMergeNode>
                <feMergeNode in="SourceGraphic"></feMergeNode>
            </feMerge>
        </filter>
        <path d="M1.875,4.875 C2.08125,4.875 2.248875,5.0415 2.25,5.248125 L2.25,5.248125 L2.254875,6.214875 L3.484875,4.984875 C3.6315,4.83825 3.8685,4.83825 4.015125,4.984875 C4.16175,5.1315 4.16175,5.3685 4.015125,5.515125 L4.015125,5.515125 L2.780625,6.749625 L3.75,6.75 C3.957375,6.75 4.125,6.918 4.125,7.125375 C4.124625,7.332375 3.957,7.5 3.75,7.5 L3.75,7.5 L3.749625,7.5 L1.884,7.498875 C1.67775,7.498875 1.5105,7.332 1.509375,7.12575 L1.509375,7.12575 L1.49999436,5.251875 C1.498875,5.044875 1.666125,4.876125 1.873125,4.875 L1.873125,4.875 Z M5.251725,1.50015 L7.1256,1.509525 C7.33185,1.51065 7.498725,1.6779 7.498725,1.88415 L7.498725,1.88415 L7.49985063,3.749775 C7.500225,3.956775 7.332225,4.12515 7.125225,4.12515 L7.125225,4.12515 C6.91785,4.12515 6.750225,3.95715 6.74985,3.750525 L6.74985,3.750525 L6.7491,2.78115 L5.514975,4.015275 C5.44185,4.0884 5.34585,4.12515 5.24985,4.12515 C5.154225,4.12515 5.058225,4.0884 4.984725,4.015275 C4.838475,3.86865 4.838475,3.631275 4.984725,3.485025 L4.984725,3.485025 L6.214725,2.255025 L5.24835,2.25015 C5.040975,2.249025 4.873725,2.0799 4.87484436,1.873275 C4.875975,1.66665 5.043975,1.50015 5.24985,1.50015 L5.24985,1.50015 L5.251725,1.50015 Z" id="path-2"></path>
        <rect id="path-4" x="74" y="102.360475" width="174" height="201" rx="4"></rect>
        <filter x="-2.2%" y="-1.4%" width="104.5%" height="103.9%" filterUnits="objectBoundingBox" id="filter-5">
            <feMorphology radius="0.4" operator="dilate" in="SourceAlpha" result="shadowSpreadOuter1"></feMorphology>
            <feOffset dx="0" dy="1" in="shadowSpreadOuter1" result="shadowOffsetOuter1"></feOffset>
            <feGaussianBlur stdDeviation="1" in="shadowOffsetOuter1" result="shadowBlurOuter1"></feGaussianBlur>
            <feComposite in="shadowBlurOuter1" in2="SourceAlpha" operator="out" result="shadowBlurOuter1"></feComposite>
            <feColorMatrix values="0 0 0 0 0   0 0 0 0 0   0 0 0 0 0  0 0 0 0.5 0" type="matrix" in="shadowBlurOuter1"></feColorMatrix>
        </filter>
        <polygon id="path-6" points="3.64000006 5.32000003 7 8.67999997 10.3599999 5.32000003"></polygon>
    </defs>
    <g id="Deal-Desk" stroke="none" stroke-width="1" fill="none" fill-rule="evenodd">
        <path d="M354.092422,0 C277.320194,0.225455336 226.647541,58.1541543 178.509445,73.2299427 C106.323904,95.8359393 37.0596883,72.0862693 7.29817054,154.738195 C2.30105814,168.615996 0.019544079,182.984675 0,197.26727 L0,197.653619 C0.065832687,242.298899 22.1856155,286.072077 52.4470502,311.439902 C68.2283797,324.670031 89.2557514,329.990777 111.88368,330 L112.01226,330 C146.865524,329.983603 185.499025,317.384749 214.647476,301.685884 C271.097977,271.280158 309.671817,283.797028 348.466813,294.710091 C416.799085,313.932208 505.410911,247.762092 499.741071,153.048305 C494.296502,62.0811763 452.541091,10.9786501 373.867944,1.20618605 C367.407083,0.403770011 361.112861,0.0184463457 354.994536,0 L354.092422,0 Z" id="Fill-1-Copy" fill="#F2F7FF"></path>
        <g id="Group-Copy-4" filter="url(#filter-1)" transform="translate(204.000000, 24.000000)">
            <rect id="Rectangle" stroke="#F5F7FA" stroke-width="0.55999999" fill="#FFFFFF" x="0" y="0.360475035" width="253" height="236" rx="2.23999996"></rect>
            <path d="M2,0.360475035 L251,0.360475035 C252.104569,0.360475035 253,1.25590554 253,2.36047503 L253,2.36047503 L253,2.36047503 L0,2.36047503 C-1.3527075e-16,1.25590554 0.8954305,0.360475035 2,0.360475035 Z" id="Rectangle-7-Copy-6" fill="#4BE4B4"></path>
            <g id="verification/button/trusted/active" transform="translate(8.000000, 8.360475)">
                <g id="verification-icon-trusted-copy-12">
                    <g id="Group-15" fill="#F2FFFB" stroke="#4BE4B4" stroke-width="0.55999999">
                        <rect id="Rectangle-3" x="0.279999995" y="0.279999995" width="13.44" height="13.44" rx="2.23999996"></rect>
                    </g>
                    <path d="M10.0397886,3.98728692 C8.54646028,5.57376393 7.18641334,7.13903708 5.73502999,8.70177987 L3.89893716,7.14531496 C3.77385447,7.03896581 3.61396214,6.99016973 3.45465586,7.0089377 C3.29534958,7.02770567 3.14962217,7.11278531 3.04931375,7.24541505 C2.84044988,7.52192988 2.8829235,7.92542757 3.14371635,8.14625828 L5.40937877,10.0680572 C5.65070203,10.2726166 5.99938748,10.2513487 6.21652857,10.0180103 C7.8402533,8.29271537 9.29994408,6.59160306 10.8988976,4.8932133 C11.0794407,4.70867257 11.1331369,4.42527129 11.0346017,4.18067434 C10.9360695,3.93607739 10.7053707,3.78154874 10.4552114,3.7921827 C10.2982101,3.7971009 10.1489482,3.86716649 10.0397886,3.98728692 Z" id="Fill-1" fill="#4BE4B4"></path>
                </g>
            </g>
            <g id="close" transform="translate(238.000000, 11.360475)" fill="#B8BFCC">
                <path d="M5.02875,4.5 L6.64125,2.89125 C6.78829581,2.74420419 6.78829581,2.50579581 6.64125,2.35875 C6.49420419,2.21170419 6.25579581,2.21170419 6.10875,2.35875 L4.5,3.97125 L2.89125,2.35875 C2.74420418,2.21170419 2.50579582,2.21170419 2.35875,2.35875 C2.21170419,2.50579582 2.21170419,2.74420418 2.35875,2.89125 L3.97125,4.5 L2.35875,6.10875 C2.28775776,6.17916247 2.24782563,6.27501092 2.24782563,6.375 C2.24782563,6.47498908 2.28775776,6.57083753 2.35875,6.64125 C2.42916247,6.71224224 2.52501092,6.75217437 2.625,6.75217437 C2.72498908,6.75217437 2.82083753,6.71224224 2.89125,6.64125 L4.5,5.02875 L6.10875,6.64125 C6.17916247,6.71224224 6.27501092,6.75217437 6.375,6.75217437 C6.47498908,6.75217437 6.57083753,6.71224224 6.64125,6.64125 C6.71224224,6.57083753 6.75217437,6.47498908 6.75217437,6.375 C6.75217437,6.27501092 6.71224224,6.17916247 6.64125,6.10875 L5.02875,4.5 Z" id="-Icon-小olor"></path>
            </g>
            <g id="expand-window" transform="translate(225.000000, 11.360475)">
                <mask id="mask-3" fill="white">
                    <use xlink:href="#path-2"></use>
                </mask>
                <use id="-Icon-小olor" fill="#B8BFCC" fill-rule="evenodd" xlink:href="#path-2"></use>
            </g>
            <path d="M217,7.36047503 L217,21.360475 L217,7.36047503 Z" id="Path-2" stroke="#B8BFCC" stroke-width="0.55999999"></path>
            <g id="globe" transform="translate(202.000000, 11.360475)" fill="#B8BFCC">
                <path d="M8.25,4.5 C8.25,3.50543816 7.85491185,2.55161099 7.15165043,1.84834957 C6.44838901,1.14508815 5.49456184,0.75 4.5,0.75 C2.42893219,0.75 0.75,2.42893219 0.75,4.5 C0.75,6.57106781 2.42893219,8.25 4.5,8.25 C6.57106781,8.25 8.25,6.57106781 8.25,4.5 Z M7.47375,4.125 L6.375,4.125 C6.31315234,3.24305352 6.0109749,2.39488165 5.50125,1.6725 C6.56921252,2.0517964 7.33227495,3.00054701 7.47375,4.125 Z M3.405,4.875 L5.625,4.875 C5.52903112,5.80146887 5.13414427,6.67153623 4.5,7.35375 C3.86627643,6.67438658 3.48044693,5.80098487 3.405,4.875 L3.405,4.875 Z M3.405,4.125 C3.49233211,3.20318507 3.87659587,2.33464367 4.5,1.65 C5.13926682,2.32729603 5.5350483,3.19801528 5.625,4.125 L3.405,4.125 Z M3.54,1.66125 C3.0275811,2.3876335 2.72055012,3.23877 2.65125,4.125 L1.52625,4.125 C1.67078837,2.98608776 2.45262785,2.02953554 3.54,1.66125 Z M1.52625,4.875 L2.65125,4.875 C2.71300924,5.76047499 3.0179548,6.6117273 3.5325,7.335 C2.44916128,6.96495666 1.67085708,6.01062478 1.52625,4.875 Z M5.4825,7.33125 C5.99565302,6.60775325 6.30399818,5.75915627 6.375,4.875 L7.48125,4.875 C7.33658452,6.00734451 6.56180804,6.95946195 5.4825,7.33125 L5.4825,7.33125 Z" id="-Icon-小olor"></path>
            </g>
            <path d="M0,211.360475 L253,211.360475 L253,234.120475 C253,235.357593 251.997118,236.360475 250.76,236.360475 L2.23999996,236.360475 C1.00288214,236.360475 -1.18389054e-14,235.357593 0,234.120475 L0,211.360475 L0,211.360475 Z" id="Rectangle" stroke="#F5F7FA" stroke-width="0.55999999" fill="#F5F7FA"></path>
            <g id="icon-resize" transform="translate(2.000000, 226.360475)" fill="#8F9CB3">
                <path d="M5.69599992,6.71999989 L4.77866659,6.71999989 L6.71999989,4.77866659 L6.71999989,5.69599992 L5.69599992,6.71999989 Z M3.30666661,6.71999989 L2.38933329,6.71999989 L6.71999989,2.38933329 L6.71999989,3.30666661 L3.30666661,6.71999989 Z M0.917333316,6.71999989 L0,6.71999989 L6.71999989,0 L6.71999989,0.917333316 L0.917333316,6.71999989 Z" id="Shape" transform="translate(3.360000, 3.360000) rotate(90.000000) translate(-3.360000, -3.360000) "></path>
            </g>
            <g id="tag" transform="translate(16.000000, 218.360475)" fill="#B8BFCC">
                <path d="M4.67506187,9.625 C4.56946319,9.625 4.46386451,9.584575 4.38342802,9.5041375 L1.49596411,6.6166375 C1.33467863,6.45535 1.33467863,6.19465 1.49596411,6.0333625 L6.03340739,1.4958625 C6.11054393,1.4183125 6.21531762,1.375 6.32504125,1.375 L9.21250516,1.375 C9.4406148,1.375 9.625,1.5593875 9.625,1.7875 L9.625,4.675 C9.625,4.784725 9.58168804,4.8895 9.50413901,4.9666375 L4.96669573,9.5041375 C4.88625923,9.584575 4.78066055,9.625 4.67506187,9.625 Z M8.80001031,4.504225 L8.80001031,2.2 L6.49581411,2.2 L2.37086568,6.325 L4.67506187,8.629225 L8.80001031,4.504225 Z M7.54251057,2.75748349 C7.73581794,2.56417396 8.04923079,2.56417396 8.24253791,2.75748349 C8.43584503,2.95079328 8.43584503,3.26421005 8.24253791,3.45751958 C8.04923055,3.65082912 7.73581769,3.65082912 7.54251057,3.45751958 C7.34920345,3.2642098 7.34920345,2.95079303 7.54251057,2.75748349 L7.54251057,2.75748349 Z" id="-Icon-小olor"></path>
            </g>
            <rect id="Rectangle-12-[4-8]" fill="#FFFFFF" x="37" y="217.360475" width="51" height="11" rx="5.5"></rect>
            <path d="M31.6704,58.360475 L31.6704,55.893275 L33.408,55.893275 C34.7136,55.893275 35.4528,54.990875 35.4528,53.925275 C35.4528,52.859675 34.7232,51.957275 33.408,51.957275 L30.7104,51.957275 L30.7104,58.360475 L31.6704,58.360475 Z M33.2832,55.048475 L31.6704,55.048475 L31.6704,52.802075 L33.2832,52.802075 C33.9744,52.802075 34.464,53.253275 34.464,53.925275 C34.464,54.597275 33.9744,55.048475 33.2832,55.048475 Z M37.2864,58.360475 L37.2864,55.134875 C37.488,54.789275 38.0736,54.462875 38.5056,54.462875 C38.6208,54.462875 38.7168,54.472475 38.8032,54.491675 L38.8032,53.618075 C38.1888,53.618075 37.6416,53.973275 37.2864,54.434075 L37.2864,53.723675 L36.4224,53.723675 L36.4224,58.360475 L37.2864,58.360475 Z M40.0896,52.946075 C40.3968,52.946075 40.6464,52.706075 40.6464,52.398875 C40.6464,52.091675 40.3968,51.842075 40.0896,51.842075 C39.792,51.842075 39.5328,52.091675 39.5328,52.398875 C39.5328,52.706075 39.792,52.946075 40.0896,52.946075 Z M40.5312,58.360475 L40.5312,53.723675 L39.6672,53.723675 L39.6672,58.360475 L40.5312,58.360475 Z M44.064,58.360475 L45.9744,53.723675 L45.0432,53.723675 L43.5936,57.362075 L42.144,53.723675 L41.2224,53.723675 L43.1328,58.360475 L44.064,58.360475 Z M48.0192,58.475675 C48.6432,58.475675 49.1712,58.254875 49.536,57.851675 L49.536,58.360475 L50.4,58.360475 L50.4,55.230875 C50.4,54.050075 49.5456,53.608475 48.5376,53.608475 C47.7888,53.608475 47.1552,53.858075 46.6368,54.366875 L47.0112,54.962075 C47.424,54.549275 47.8752,54.347675 48.4032,54.347675 C49.0656,54.347675 49.536,54.693275 49.536,55.269275 L49.536,56.037275 C49.1808,55.624475 48.6432,55.422875 48.0192,55.422875 C47.2416,55.422875 46.4064,55.883675 46.4064,56.939675 C46.4064,57.957275 47.2512,58.475675 48.0192,58.475675 Z M48.3456,57.870875 C47.7216,57.870875 47.28,57.496475 47.28,56.949275 C47.28,56.402075 47.7216,56.027675 48.3456,56.027675 C48.8256,56.027675 49.2768,56.210075 49.536,56.555675 L49.536,57.342875 C49.2768,57.688475 48.8256,57.870875 48.3456,57.870875 Z M53.856,58.475675 C54.7296,58.475675 55.2576,58.110875 55.5936,57.659675 L55.0176,57.131675 C54.7392,57.515675 54.3648,57.707675 53.8944,57.707675 C52.9824,57.707675 52.3968,56.997275 52.3968,56.037275 C52.3968,55.077275 52.9824,54.376475 53.8944,54.376475 C54.3648,54.376475 54.7392,54.558875 55.0176,54.952475 L55.5936,54.424475 C55.2576,53.973275 54.7296,53.608475 53.856,53.608475 C52.4544,53.608475 51.4944,54.645275 51.4944,56.037275 C51.4944,57.429275 52.4544,58.475675 53.856,58.475675 Z M56.8512,60.242075 C57.5232,60.232475 58.032,59.973275 58.3296,59.243675 L60.6144,53.723675 L59.6832,53.723675 L58.2336,57.362075 L56.784,53.723675 L55.8624,53.723675 L57.7728,58.408475 L57.504,59.022875 C57.36,59.368475 57.1488,59.474075 56.832,59.474075 C56.7168,59.474075 56.5536,59.445275 56.448,59.397275 L56.3136,60.174875 C56.448,60.213275 56.7072,60.242075 56.8512,60.242075 Z M64.7712,58.360475 L64.7712,55.893275 L66.5088,55.893275 C67.8144,55.893275 68.5536,54.990875 68.5536,53.925275 C68.5536,52.859675 67.824,51.957275 66.5088,51.957275 L63.8112,51.957275 L63.8112,58.360475 L64.7712,58.360475 Z M66.384,55.048475 L64.7712,55.048475 L64.7712,52.802075 L66.384,52.802075 C67.0752,52.802075 67.5648,53.253275 67.5648,53.925275 C67.5648,54.597275 67.0752,55.048475 66.384,55.048475 Z M71.5776,58.475675 C73.0272,58.475675 73.92,57.381275 73.92,56.037275 C73.92,54.702875 73.0272,53.608475 71.5776,53.608475 C70.1376,53.608475 69.2352,54.702875 69.2352,56.037275 C69.2352,57.381275 70.1376,58.475675 71.5776,58.475675 Z M71.5776,57.707675 C70.656,57.707675 70.1376,56.920475 70.1376,56.037275 C70.1376,55.163675 70.656,54.376475 71.5776,54.376475 C72.5088,54.376475 73.0176,55.163675 73.0176,56.037275 C73.0176,56.920475 72.5088,57.707675 71.5776,57.707675 Z M75.8784,58.360475 L75.8784,51.957275 L75.0144,51.957275 L75.0144,58.360475 L75.8784,58.360475 Z M77.6736,52.946075 C77.9808,52.946075 78.2304,52.706075 78.2304,52.398875 C78.2304,52.091675 77.9808,51.842075 77.6736,51.842075 C77.376,51.842075 77.1168,52.091675 77.1168,52.398875 C77.1168,52.706075 77.376,52.946075 77.6736,52.946075 Z M78.1152,58.360475 L78.1152,53.723675 L77.2512,53.723675 L77.2512,58.360475 L78.1152,58.360475 Z M81.5616,58.475675 C82.4352,58.475675 82.9632,58.110875 83.2992,57.659675 L82.7232,57.131675 C82.4448,57.515675 82.0704,57.707675 81.6,57.707675 C80.688,57.707675 80.1024,56.997275 80.1024,56.037275 C80.1024,55.077275 80.688,54.376475 81.6,54.376475 C82.0704,54.376475 82.4448,54.558875 82.7232,54.952475 L83.2992,54.424475 C82.9632,53.973275 82.4352,53.608475 81.5616,53.608475 C80.16,53.608475 79.2,54.645275 79.2,56.037275 C79.2,57.429275 80.16,58.475675 81.5616,58.475675 Z M84.5568,60.242075 C85.2288,60.232475 85.7376,59.973275 86.0352,59.243675 L88.32,53.723675 L87.3888,53.723675 L85.9392,57.362075 L84.4896,53.723675 L83.568,53.723675 L85.4784,58.408475 L85.2096,59.022875 C85.0656,59.368475 84.8544,59.474075 84.5376,59.474075 C84.4224,59.474075 84.2592,59.445275 84.1536,59.397275 L84.0192,60.174875 C84.1536,60.213275 84.4128,60.242075 84.5568,60.242075 Z" id="PrivacyPolicy" fill="#090B0E" fill-rule="nonzero"></path>
            <path d="M32.9376,19.360475 C34.9248,19.360475 36.2208,17.987675 36.2208,16.163675 C36.2208,14.349275 34.9248,12.957275 32.9376,12.957275 L30.7488,12.957275 L30.7488,19.360475 L32.9376,19.360475 Z M32.9376,18.650075 L31.5456,18.650075 L31.5456,13.667675 L32.9376,13.667675 C34.5216,13.667675 35.3952,14.781275 35.3952,16.163675 C35.3952,17.536475 34.4928,18.650075 32.9376,18.650075 Z M39.5328,19.475675 C40.2912,19.475675 40.9152,19.226075 41.376,18.765275 L41.0304,18.294875 C40.6656,18.669275 40.128,18.880475 39.6,18.880475 C38.6016,18.880475 37.9872,18.150875 37.9296,17.277275 L41.6832,17.277275 L41.6832,17.094875 C41.6832,15.702875 40.8576,14.608475 39.456,14.608475 C38.1312,14.608475 37.1712,15.693275 37.1712,17.037275 C37.1712,18.486875 38.16,19.475675 39.5328,19.475675 Z M40.9728,16.749275 L37.9296,16.749275 C37.968,16.038875 38.4576,15.203675 39.4464,15.203675 C40.5024,15.203675 40.9632,16.058075 40.9728,16.749275 Z M44.208,19.475675 C44.832,19.475675 45.36,19.254875 45.744,18.832475 L45.744,19.360475 L46.464,19.360475 L46.464,16.173275 C46.464,15.050075 45.648,14.608475 44.6688,14.608475 C43.9104,14.608475 43.3152,14.858075 42.816,15.376475 L43.152,15.875675 C43.5648,15.434075 44.016,15.232475 44.5728,15.232475 C45.2448,15.232475 45.744,15.587675 45.744,16.211675 L45.744,17.046875 C45.3696,16.614875 44.8416,16.413275 44.208,16.413275 C43.4208,16.413275 42.5856,16.902875 42.5856,17.939675 C42.5856,18.947675 43.4208,19.475675 44.208,19.475675 Z M44.4672,18.957275 C43.7952,18.957275 43.3248,18.534875 43.3248,17.949275 C43.3248,17.354075 43.7952,16.931675 44.4672,16.931675 C44.976,16.931675 45.4656,17.123675 45.744,17.507675 L45.744,18.381275 C45.4656,18.765275 44.976,18.957275 44.4672,18.957275 Z M48.624,19.360475 L48.624,12.957275 L47.904,12.957275 L47.904,19.360475 L48.624,19.360475 Z M54.7584,19.360475 C56.7456,19.360475 58.0416,17.987675 58.0416,16.163675 C58.0416,14.349275 56.7456,12.957275 54.7584,12.957275 L52.5696,12.957275 L52.5696,19.360475 L54.7584,19.360475 Z M54.7584,18.650075 L53.3664,18.650075 L53.3664,13.667675 L54.7584,13.667675 C56.3424,13.667675 57.216,14.781275 57.216,16.163675 C57.216,17.536475 56.3136,18.650075 54.7584,18.650075 Z M61.3536,19.475675 C62.112,19.475675 62.736,19.226075 63.1968,18.765275 L62.8512,18.294875 C62.4864,18.669275 61.9488,18.880475 61.4208,18.880475 C60.4224,18.880475 59.808,18.150875 59.7504,17.277275 L63.504,17.277275 L63.504,17.094875 C63.504,15.702875 62.6784,14.608475 61.2768,14.608475 C59.952,14.608475 58.992,15.693275 58.992,17.037275 C58.992,18.486875 59.9808,19.475675 61.3536,19.475675 Z M62.7936,16.749275 L59.7504,16.749275 C59.7888,16.038875 60.2784,15.203675 61.2672,15.203675 C62.3232,15.203675 62.784,16.058075 62.7936,16.749275 Z M66.1344,19.475675 C67.3344,19.475675 67.9584,18.851675 67.9584,18.074075 C67.9584,17.046875 67.0272,16.816475 66.2208,16.634075 C65.616,16.490075 65.088,16.346075 65.088,15.894875 C65.088,15.482075 65.4816,15.194075 66.1152,15.194075 C66.7104,15.194075 67.2192,15.443675 67.4976,15.779675 L67.8336,15.280475 C67.4592,14.906075 66.9024,14.608475 66.1152,14.608475 C65.0112,14.608475 64.3872,15.222875 64.3872,15.942875 C64.3872,16.902875 65.28,17.114075 66.0672,17.296475 C66.6912,17.450075 67.2576,17.613275 67.2576,18.122075 C67.2576,18.573275 66.8736,18.890075 66.1632,18.890075 C65.5296,18.890075 64.944,18.582875 64.6368,18.227675 L64.2624,18.746075 C64.7328,19.245275 65.376,19.475675 66.1344,19.475675 Z M69.8496,19.360475 L69.8496,18.035675 L70.6176,17.277275 L72.288,19.360475 L73.2096,19.360475 L71.1456,16.826075 L73.2,14.723675 L72.288,14.723675 L69.8496,17.190875 L69.8496,12.957275 L69.1296,12.957275 L69.1296,19.360475 L69.8496,19.360475 Z" id="DealDesk" fill="#4BE4B4" fill-rule="nonzero"></path>
            <rect id="Rectangle" fill="#F5F7FA" x="30" y="71.360475" width="197" height="4"></rect>
            <rect id="Rectangle-Copy" fill="#F5F7FA" x="30" y="80.360475" width="197" height="4"></rect>
            <rect id="Rectangle-Copy-2" fill="#F5F7FA" x="30" y="89.360475" width="197" height="4"></rect>
            <rect id="Rectangle-Copy-3" fill="#F5F7FA" x="30" y="105.360475" width="177" height="88" rx="2.4"></rect>
            <line x1="0" y1="31.860475" x2="253" y2="31.860475" id="Line-Copy-53" stroke="#DADEE6" stroke-width="0.55999999"></line>
        </g>
        <g id="Rectangle">
            <use fill="black" fill-opacity="1" filter="url(#filter-5)" xlink:href="#path-4"></use>
            <use stroke="#F5F7FA" stroke-width="0.8" fill="#FFFFFF" fill-rule="evenodd" xlink:href="#path-4"></use>
        </g>
        <rect id="Rectangle-Copy-7" fill="#F5F7FA" x="81" y="214.360475" width="159.157895" height="34" rx="2.4"></rect>
        <g id="verification/dot/trusted/selected" transform="translate(88.578947, 222.860475)">
            <g id="Group" transform="translate(3.368421, 3.400000)">
                <rect id="Rectangle-3" stroke="#29CC96" stroke-width="0.8" fill="#29CC96" x="0" y="0" width="10.1052632" height="10.2" rx="4.8"></rect>
                <path d="M7.2467647,2.90502333 C6.16887359,4.06088515 5.18718557,5.20129844 4.13957052,6.33986819 L2.81427043,5.20587232 C2.72398518,5.12838938 2.60857417,5.09283795 2.49358618,5.10651175 C2.37859819,5.12018556 2.27341149,5.18217215 2.20100842,5.2788024 C2.05024954,5.4802632 2.08090719,5.77424009 2.26914864,5.93513103 L3.904514,7.33529878 C4.07870222,7.48433497 4.33038495,7.46883978 4.48711836,7.29883608 C5.6591302,6.04183548 6.71274159,4.80245366 7.86687344,3.56505541 C7.99719026,3.4306043 8.03594841,3.22412623 7.96482528,3.04591988 C7.89370434,2.86771353 7.72718489,2.75512837 7.54661875,2.76287597 C7.43329447,2.76645923 7.3255566,2.81750701 7.2467647,2.90502333 Z" id="Fill-1" fill="#FFFFFF"></path>
            </g>
        </g>
        <path d="M115.3296,235 L115.3296,232.3232 L117.2336,232.3232 C118.8464,232.3232 119.7424,231.2368 119.7424,229.9376 C119.7424,228.6272 118.8576,227.5296 117.2336,227.5296 L113.7392,227.5296 L113.7392,235 L115.3296,235 Z M117.0208,230.9568 L115.3296,230.9568 L115.3296,228.896 L117.0208,228.896 C117.648,228.896 118.1184,229.3104 118.1184,229.9264 C118.1184,230.5536 117.648,230.9568 117.0208,230.9568 Z M122.1168,235 L122.1168,231.4272 C122.352,231.08 122.9792,230.8112 123.4496,230.8112 C123.6064,230.8112 123.7408,230.8336 123.8416,230.856 L123.8416,229.4672 C123.1696,229.4672 122.4976,229.848 122.1168,230.3296 L122.1168,229.5904 L120.6944,229.5904 L120.6944,235 L122.1168,235 Z M125.432,228.7952 C125.9024,228.7952 126.2832,228.4144 126.2832,227.944 C126.2832,227.4736 125.9024,227.0928 125.432,227.0928 C124.9728,227.0928 124.5808,227.4736 124.5808,227.944 C124.5808,228.4144 124.9728,228.7952 125.432,228.7952 Z M126.1488,235 L126.1488,229.5904 L124.7264,229.5904 L124.7264,235 L126.1488,235 Z M130.4944,235 L132.6672,229.5904 L131.1328,229.5904 L129.7216,233.3536 L128.3104,229.5904 L126.7872,229.5904 L128.96,235 L130.4944,235 Z M134.84,235.1344 C135.5456,235.1344 136.184,234.8768 136.5536,234.44 L136.5536,235 L137.976,235 L137.976,231.5056 C137.976,229.9488 136.8448,229.456 135.6128,229.456 C134.7616,229.456 133.9104,229.7248 133.2496,230.3072 L133.7872,231.2592 C134.2464,230.8336 134.784,230.6208 135.3664,230.6208 C136.0832,230.6208 136.5536,230.9792 136.5536,231.528 L136.5536,232.2784 C136.1952,231.8416 135.5568,231.6176 134.84,231.6176 C133.9776,231.6176 132.9584,232.0768 132.9584,233.3424 C132.9584,234.552 133.9776,235.1344 134.84,235.1344 Z M135.4112,234.1712 C134.8512,234.1712 134.392,233.88 134.392,233.376 C134.392,232.8496 134.8512,232.5584 135.4112,232.5584 C135.8704,232.5584 136.3184,232.7152 136.5536,233.0288 L136.5536,233.7008 C136.3184,234.0144 135.8704,234.1712 135.4112,234.1712 Z M141.9072,235.1344 C143.016,235.1344 143.688,234.6528 144.0464,234.1488 L143.1168,233.2864 C142.8592,233.6448 142.4672,233.8688 141.9744,233.8688 C141.112,233.8688 140.5072,233.2304 140.5072,232.2896 C140.5072,231.3488 141.112,230.7216 141.9744,230.7216 C142.4672,230.7216 142.8592,230.9232 143.1168,231.304 L144.0464,230.4304 C143.688,229.9376 143.016,229.456 141.9072,229.456 C140.2384,229.456 139.04,230.632 139.04,232.2896 C139.04,233.9584 140.2384,235.1344 141.9072,235.1344 Z M145.4912,237.1952 C146.4208,237.1728 147.1376,236.904 147.5408,235.8848 L150.0832,229.5904 L148.5488,229.5904 L147.1376,233.3536 L145.7264,229.5904 L144.2032,229.5904 L146.3984,235.0784 L146.1968,235.5376 C146.0624,235.8288 145.816,235.9296 145.4464,235.9296 C145.312,235.9296 145.1216,235.896 144.9984,235.84 L144.7856,237.1168 C144.9648,237.1616 145.3232,237.1952 145.4912,237.1952 Z M155.2128,235 L155.2128,232.3232 L157.1168,232.3232 C158.7296,232.3232 159.6256,231.2368 159.6256,229.9376 C159.6256,228.6272 158.7408,227.5296 157.1168,227.5296 L153.6224,227.5296 L153.6224,235 L155.2128,235 Z M156.904,230.9568 L155.2128,230.9568 L155.2128,228.896 L156.904,228.896 C157.5312,228.896 158.0016,229.3104 158.0016,229.9264 C158.0016,230.5536 157.5312,230.9568 156.904,230.9568 Z M163.0864,235.1344 C164.8784,235.1344 165.9536,233.8352 165.9536,232.2896 C165.9536,230.7552 164.8784,229.456 163.0864,229.456 C161.3056,229.456 160.2304,230.7552 160.2304,232.2896 C160.2304,233.8352 161.3056,235.1344 163.0864,235.1344 Z M163.0864,233.8688 C162.2016,233.8688 161.7088,233.1408 161.7088,232.2896 C161.7088,231.4496 162.2016,230.7216 163.0864,230.7216 C163.9712,230.7216 164.4752,231.4496 164.4752,232.2896 C164.4752,233.1408 163.9712,233.8688 163.0864,233.8688 Z M168.4288,235 L168.4288,227.5296 L167.0064,227.5296 L167.0064,235 L168.4288,235 Z M170.5456,228.7952 C171.016,228.7952 171.3968,228.4144 171.3968,227.944 C171.3968,227.4736 171.016,227.0928 170.5456,227.0928 C170.0864,227.0928 169.6944,227.4736 169.6944,227.944 C169.6944,228.4144 170.0864,228.7952 170.5456,228.7952 Z M171.2624,235 L171.2624,229.5904 L169.84,229.5904 L169.84,235 L171.2624,235 Z M175.1936,235.1344 C176.3024,235.1344 176.9744,234.6528 177.3328,234.1488 L176.4032,233.2864 C176.1456,233.6448 175.7536,233.8688 175.2608,233.8688 C174.3984,233.8688 173.7936,233.2304 173.7936,232.2896 C173.7936,231.3488 174.3984,230.7216 175.2608,230.7216 C175.7536,230.7216 176.1456,230.9232 176.4032,231.304 L177.3328,230.4304 C176.9744,229.9376 176.3024,229.456 175.1936,229.456 C173.5248,229.456 172.3264,230.632 172.3264,232.2896 C172.3264,233.9584 173.5248,235.1344 175.1936,235.1344 Z M178.7776,237.1952 C179.7072,237.1728 180.424,236.904 180.8272,235.8848 L183.3696,229.5904 L181.8352,229.5904 L180.424,233.3536 L179.0128,229.5904 L177.4896,229.5904 L179.6848,235.0784 L179.4832,235.5376 C179.3488,235.8288 179.1024,235.9296 178.7328,235.9296 C178.5984,235.9296 178.408,235.896 178.2848,235.84 L178.072,237.1168 C178.2512,237.1616 178.6096,237.1952 178.7776,237.1952 Z" id="PrivacyPolicy" fill="#090B0E" fill-rule="nonzero"></path>
        <g id="verification/dot/trusted/active" transform="translate(89.000000, 152.360475)">
            <g id="Group" transform="translate(3.364948, 3.400000)">
                <rect id="Rectangle-3" stroke="#29CC96" stroke-width="0.8" fill="#F2FFFB" x="0" y="0" width="10.0948454" height="10.2" rx="4.8"></rect>
                <path d="M7.23929381,2.90502333 C6.16251392,4.06088515 5.18183795,5.20129844 4.13530292,6.33986819 L2.81136912,5.20587232 C2.72117695,5.12838938 2.60588492,5.09283795 2.49101548,5.10651175 C2.37614603,5.12018556 2.27106777,5.18217215 2.19873934,5.2788024 C2.04813588,5.4802632 2.07876192,5.77424009 2.26680931,5.93513103 L3.90048873,7.33529878 C4.07449737,7.48433497 4.32592063,7.46883978 4.48249247,7.29883608 C5.65329605,6.04183548 6.70582124,4.80245366 7.85876326,3.56505541 C7.98894573,3.4306043 8.02766393,3.22412623 7.95661412,3.04591988 C7.8855665,2.86771353 7.71921872,2.75512837 7.53883873,2.76287597 C7.42563128,2.76645923 7.31800448,2.81750701 7.23929381,2.90502333 Z" id="Fill-1" fill="#29CC96"></path>
            </g>
        </g>
        <path d="M116.823076,163.660475 C119.141476,163.660475 120.653476,162.058875 120.653476,159.930875 C120.653476,157.814075 119.141476,156.190075 116.823076,156.190075 L114.269476,156.190075 L114.269476,163.660475 L116.823076,163.660475 Z M116.823076,162.831675 L115.199076,162.831675 L115.199076,157.018875 L116.823076,157.018875 C118.671076,157.018875 119.690276,158.318075 119.690276,159.930875 C119.690276,161.532475 118.637476,162.831675 116.823076,162.831675 Z M123.666276,163.794875 C124.394276,163.794875 125.010276,163.537275 125.458276,163.044475 L125.458276,163.660475 L126.298276,163.660475 L126.298276,159.942075 C126.298276,158.631675 125.346276,158.116475 124.203876,158.116475 C123.319076,158.116475 122.624676,158.407675 122.042276,159.012475 L122.434276,159.594875 C122.915876,159.079675 123.442276,158.844475 124.091876,158.844475 C124.875876,158.844475 125.458276,159.258875 125.458276,159.986875 L125.458276,160.961275 C125.021476,160.457275 124.405476,160.222075 123.666276,160.222075 C122.747876,160.222075 121.773476,160.793275 121.773476,162.002875 C121.773476,163.178875 122.747876,163.794875 123.666276,163.794875 Z M123.968676,163.190075 C123.184676,163.190075 122.635876,162.697275 122.635876,162.014075 C122.635876,161.319675 123.184676,160.826875 123.968676,160.826875 C124.562276,160.826875 125.133476,161.050875 125.458276,161.498875 L125.458276,162.518075 C125.133476,162.966075 124.562276,163.190075 123.968676,163.190075 Z M129.344676,163.794875 C129.837476,163.794875 130.139876,163.649275 130.352676,163.447675 L130.106276,162.820475 C129.994276,162.943675 129.770276,163.044475 129.535076,163.044475 C129.165476,163.044475 128.986276,162.753275 128.986276,162.350075 L128.986276,158.990075 L130.083876,158.990075 L130.083876,158.250875 L128.986276,158.250875 L128.986276,156.772475 L128.146276,156.772475 L128.146276,158.250875 L127.250276,158.250875 L127.250276,158.990075 L128.146276,158.990075 L128.146276,162.529275 C128.146276,163.335675 128.549476,163.794875 129.344676,163.794875 Z M132.861476,163.794875 C133.589476,163.794875 134.205476,163.537275 134.653476,163.044475 L134.653476,163.660475 L135.493476,163.660475 L135.493476,159.942075 C135.493476,158.631675 134.541476,158.116475 133.399076,158.116475 C132.514276,158.116475 131.819876,158.407675 131.237476,159.012475 L131.629476,159.594875 C132.111076,159.079675 132.637476,158.844475 133.287076,158.844475 C134.071076,158.844475 134.653476,159.258875 134.653476,159.986875 L134.653476,160.961275 C134.216676,160.457275 133.600676,160.222075 132.861476,160.222075 C131.943076,160.222075 130.968676,160.793275 130.968676,162.002875 C130.968676,163.178875 131.943076,163.794875 132.861476,163.794875 Z M133.163876,163.190075 C132.379876,163.190075 131.831076,162.697275 131.831076,162.014075 C131.831076,161.319675 132.379876,160.826875 133.163876,160.826875 C133.757476,160.826875 134.328676,161.050875 134.653476,161.498875 L134.653476,162.518075 C134.328676,162.966075 133.757476,163.190075 133.163876,163.190075 Z M141.026276,163.660475 L141.026276,160.692475 L143.098276,160.692475 C144.576676,160.692475 145.439076,159.662075 145.439076,158.441275 C145.439076,157.220475 144.599076,156.190075 143.098276,156.190075 L140.096676,156.190075 L140.096676,163.660475 L141.026276,163.660475 Z M142.986276,159.863675 L141.026276,159.863675 L141.026276,157.018875 L142.986276,157.018875 C143.871076,157.018875 144.475876,157.601275 144.475876,158.441275 C144.475876,159.281275 143.871076,159.863675 142.986276,159.863675 Z M147.477476,163.660475 L147.477476,159.830075 C147.723876,159.393275 148.429476,158.967675 148.944676,158.967675 C149.079076,158.967675 149.179876,158.978875 149.280676,159.001275 L149.280676,158.138875 C148.541476,158.138875 147.914276,158.553275 147.477476,159.124475 L147.477476,158.250875 L146.637476,158.250875 L146.637476,163.660475 L147.477476,163.660475 Z M152.696676,163.794875 C154.343076,163.794875 155.373476,162.518075 155.373476,160.950075 C155.373476,159.382075 154.343076,158.116475 152.696676,158.116475 C151.050276,158.116475 150.019876,159.382075 150.019876,160.950075 C150.019876,162.518075 151.050276,163.794875 152.696676,163.794875 Z M152.696676,163.044475 C151.543076,163.044475 150.893476,162.058875 150.893476,160.950075 C150.893476,159.852475 151.543076,158.866875 152.696676,158.866875 C153.850276,158.866875 154.488676,159.852475 154.488676,160.950075 C154.488676,162.058875 153.850276,163.044475 152.696676,163.044475 Z M158.106276,163.794875 C158.599076,163.794875 158.901476,163.649275 159.114276,163.447675 L158.867876,162.820475 C158.755876,162.943675 158.531876,163.044475 158.296676,163.044475 C157.927076,163.044475 157.747876,162.753275 157.747876,162.350075 L157.747876,158.990075 L158.845476,158.990075 L158.845476,158.250875 L157.747876,158.250875 L157.747876,156.772475 L156.907876,156.772475 L156.907876,158.250875 L156.011876,158.250875 L156.011876,158.990075 L156.907876,158.990075 L156.907876,162.529275 C156.907876,163.335675 157.311076,163.794875 158.106276,163.794875 Z M162.474276,163.794875 C163.359076,163.794875 164.087076,163.503675 164.624676,162.966075 L164.221476,162.417275 C163.795876,162.854075 163.168676,163.100475 162.552676,163.100475 C161.387876,163.100475 160.671076,162.249275 160.603876,161.230075 L164.983076,161.230075 L164.983076,161.017275 C164.983076,159.393275 164.019876,158.116475 162.384676,158.116475 C160.839076,158.116475 159.719076,159.382075 159.719076,160.950075 C159.719076,162.641275 160.872676,163.794875 162.474276,163.794875 Z M164.154276,160.614075 L160.603876,160.614075 C160.648676,159.785275 161.219876,158.810875 162.373476,158.810875 C163.605476,158.810875 164.143076,159.807675 164.154276,160.614075 Z M168.723876,163.794875 C169.709476,163.794875 170.291876,163.391675 170.706276,162.854075 L170.146276,162.338875 C169.787876,162.820475 169.328676,163.044475 168.768676,163.044475 C167.615076,163.044475 166.898276,162.148475 166.898276,160.950075 C166.898276,159.751675 167.615076,158.866875 168.768676,158.866875 C169.328676,158.866875 169.787876,159.079675 170.146276,159.572475 L170.706276,159.057275 C170.291876,158.519675 169.709476,158.116475 168.723876,158.116475 C167.111076,158.116475 166.024676,159.348475 166.024676,160.950075 C166.024676,162.562875 167.111076,163.794875 168.723876,163.794875 Z M173.248676,163.794875 C173.741476,163.794875 174.043876,163.649275 174.256676,163.447675 L174.010276,162.820475 C173.898276,162.943675 173.674276,163.044475 173.439076,163.044475 C173.069476,163.044475 172.890276,162.753275 172.890276,162.350075 L172.890276,158.990075 L173.987876,158.990075 L173.987876,158.250875 L172.890276,158.250875 L172.890276,156.772475 L172.050276,156.772475 L172.050276,158.250875 L171.154276,158.250875 L171.154276,158.990075 L172.050276,158.990075 L172.050276,162.529275 C172.050276,163.335675 172.453476,163.794875 173.248676,163.794875 Z M175.589476,157.343675 C175.903076,157.343675 176.160676,157.086075 176.160676,156.772475 C176.160676,156.458875 175.903076,156.212475 175.589476,156.212475 C175.287076,156.212475 175.029476,156.458875 175.029476,156.772475 C175.029476,157.086075 175.287076,157.343675 175.589476,157.343675 Z M176.015076,163.660475 L176.015076,158.250875 L175.175076,158.250875 L175.175076,163.660475 L176.015076,163.660475 Z M180.058276,163.794875 C181.704676,163.794875 182.735076,162.518075 182.735076,160.950075 C182.735076,159.382075 181.704676,158.116475 180.058276,158.116475 C178.411876,158.116475 177.381476,159.382075 177.381476,160.950075 C177.381476,162.518075 178.411876,163.794875 180.058276,163.794875 Z M180.058276,163.044475 C178.904676,163.044475 178.255076,162.058875 178.255076,160.950075 C178.255076,159.852475 178.904676,158.866875 180.058276,158.866875 C181.211876,158.866875 181.850276,159.852475 181.850276,160.950075 C181.850276,162.058875 181.211876,163.044475 180.058276,163.044475 Z M184.941476,163.660475 L184.941476,159.706875 C185.255076,159.270075 185.882276,158.866875 186.543076,158.866875 C187.271076,158.866875 187.752676,159.169275 187.752676,160.121275 L187.752676,163.660475 L188.592676,163.660475 L188.592676,159.863675 C188.592676,158.687675 187.999076,158.116475 186.867876,158.116475 C186.061476,158.116475 185.322276,158.586875 184.941476,159.034875 L184.941476,158.250875 L184.101476,158.250875 L184.101476,163.660475 L184.941476,163.660475 Z" id="DataProtection" fill="#090B0E" fill-rule="nonzero"></path>
        <g id="verification/dot/trusted/active" transform="translate(89.000000, 186.360475)">
            <g id="Group" transform="translate(3.368421, 3.400000)">
                <rect id="Rectangle-3" stroke="#29CC96" stroke-width="0.8" fill="#F2FFFB" x="0" y="0" width="10.1052632" height="10.2" rx="4.8"></rect>
                <path d="M7.2467647,2.90502333 C6.16887359,4.06088515 5.18718557,5.20129844 4.13957052,6.33986819 L2.81427043,5.20587232 C2.72398518,5.12838938 2.60857417,5.09283795 2.49358618,5.10651175 C2.37859819,5.12018556 2.27341149,5.18217215 2.20100842,5.2788024 C2.05024954,5.4802632 2.08090719,5.77424009 2.26914864,5.93513103 L3.904514,7.33529878 C4.07870222,7.48433497 4.33038495,7.46883978 4.48711836,7.29883608 C5.6591302,6.04183548 6.71274159,4.80245366 7.86687344,3.56505541 C7.99719026,3.4306043 8.03594841,3.22412623 7.96482528,3.04591988 C7.89370434,2.86771353 7.72718489,2.75512837 7.54661875,2.76287597 C7.43329447,2.76645923 7.3255566,2.81750701 7.2467647,2.90502333 Z" id="Fill-1" fill="#29CC96"></path>
            </g>
        </g>
        <path d="M115.224253,197.660475 L115.224253,190.190075 L114.294653,190.190075 L114.294653,197.660475 L115.224253,197.660475 Z M117.777853,197.660475 L117.777853,193.706875 C118.091453,193.270075 118.718653,192.866875 119.379453,192.866875 C120.107453,192.866875 120.589053,193.169275 120.589053,194.121275 L120.589053,197.660475 L121.429053,197.660475 L121.429053,193.863675 C121.429053,192.687675 120.835453,192.116475 119.704253,192.116475 C118.897853,192.116475 118.158653,192.586875 117.777853,193.034875 L117.777853,192.250875 L116.937853,192.250875 L116.937853,197.660475 L117.777853,197.660475 Z M124.822653,197.794875 C126.222653,197.794875 126.950653,197.066875 126.950653,196.159675 C126.950653,194.961275 125.864253,194.692475 124.923453,194.479675 C124.217853,194.311675 123.601853,194.143675 123.601853,193.617275 C123.601853,193.135675 124.061053,192.799675 124.800253,192.799675 C125.494653,192.799675 126.088253,193.090875 126.413053,193.482875 L126.805053,192.900475 C126.368253,192.463675 125.718653,192.116475 124.800253,192.116475 C123.512253,192.116475 122.784253,192.833275 122.784253,193.673275 C122.784253,194.793275 123.825853,195.039675 124.744253,195.252475 C125.472253,195.431675 126.133053,195.622075 126.133053,196.215675 C126.133053,196.742075 125.685053,197.111675 124.856253,197.111675 C124.117053,197.111675 123.433853,196.753275 123.075453,196.338875 L122.638653,196.943675 C123.187453,197.526075 123.937853,197.794875 124.822653,197.794875 Z M130.041853,197.794875 C130.848253,197.794875 131.553853,197.369275 131.968253,196.898875 L131.968253,197.660475 L132.808253,197.660475 L132.808253,192.250875 L131.968253,192.250875 L131.968253,196.226875 C131.654653,196.663675 131.027453,197.044475 130.366653,197.044475 C129.638653,197.044475 129.157053,196.764475 129.157053,195.812475 L129.157053,192.250875 L128.317053,192.250875 L128.317053,196.070075 C128.317053,197.246075 128.910653,197.794875 130.041853,197.794875 Z M135.328253,197.660475 L135.328253,193.830075 C135.574653,193.393275 136.280253,192.967675 136.795453,192.967675 C136.929853,192.967675 137.030653,192.978875 137.131453,193.001275 L137.131453,192.138875 C136.392253,192.138875 135.765053,192.553275 135.328253,193.124475 L135.328253,192.250875 L134.488253,192.250875 L134.488253,197.660475 L135.328253,197.660475 Z M139.774653,197.794875 C140.502653,197.794875 141.118653,197.537275 141.566653,197.044475 L141.566653,197.660475 L142.406653,197.660475 L142.406653,193.942075 C142.406653,192.631675 141.454653,192.116475 140.312253,192.116475 C139.427453,192.116475 138.733053,192.407675 138.150653,193.012475 L138.542653,193.594875 C139.024253,193.079675 139.550653,192.844475 140.200253,192.844475 C140.984253,192.844475 141.566653,193.258875 141.566653,193.986875 L141.566653,194.961275 C141.129853,194.457275 140.513853,194.222075 139.774653,194.222075 C138.856253,194.222075 137.881853,194.793275 137.881853,196.002875 C137.881853,197.178875 138.856253,197.794875 139.774653,197.794875 Z M140.077053,197.190075 C139.293053,197.190075 138.744253,196.697275 138.744253,196.014075 C138.744253,195.319675 139.293053,194.826875 140.077053,194.826875 C140.670653,194.826875 141.241853,195.050875 141.566653,195.498875 L141.566653,196.518075 C141.241853,196.966075 140.670653,197.190075 140.077053,197.190075 Z M144.926653,197.660475 L144.926653,193.706875 C145.240253,193.270075 145.867453,192.866875 146.528253,192.866875 C147.256253,192.866875 147.737853,193.169275 147.737853,194.121275 L147.737853,197.660475 L148.577853,197.660475 L148.577853,193.863675 C148.577853,192.687675 147.984253,192.116475 146.853053,192.116475 C146.046653,192.116475 145.307453,192.586875 144.926653,193.034875 L144.926653,192.250875 L144.086653,192.250875 L144.086653,197.660475 L144.926653,197.660475 Z M152.643453,197.794875 C153.629053,197.794875 154.211453,197.391675 154.625853,196.854075 L154.065853,196.338875 C153.707453,196.820475 153.248253,197.044475 152.688253,197.044475 C151.534653,197.044475 150.817853,196.148475 150.817853,194.950075 C150.817853,193.751675 151.534653,192.866875 152.688253,192.866875 C153.248253,192.866875 153.707453,193.079675 154.065853,193.572475 L154.625853,193.057275 C154.211453,192.519675 153.629053,192.116475 152.643453,192.116475 C151.030653,192.116475 149.944253,193.348475 149.944253,194.950075 C149.944253,196.562875 151.030653,197.794875 152.643453,197.794875 Z M158.243453,197.794875 C159.128253,197.794875 159.856253,197.503675 160.393853,196.966075 L159.990653,196.417275 C159.565053,196.854075 158.937853,197.100475 158.321853,197.100475 C157.157053,197.100475 156.440253,196.249275 156.373053,195.230075 L160.752253,195.230075 L160.752253,195.017275 C160.752253,193.393275 159.789053,192.116475 158.153853,192.116475 C156.608253,192.116475 155.488253,193.382075 155.488253,194.950075 C155.488253,196.641275 156.641853,197.794875 158.243453,197.794875 Z M159.923453,194.614075 L156.373053,194.614075 C156.417853,193.785275 156.989053,192.810875 158.142653,192.810875 C159.374653,192.810875 159.912253,193.807675 159.923453,194.614075 Z M165.960253,197.660475 L165.960253,194.692475 L168.032253,194.692475 C169.510653,194.692475 170.373053,193.662075 170.373053,192.441275 C170.373053,191.220475 169.533053,190.190075 168.032253,190.190075 L165.030653,190.190075 L165.030653,197.660475 L165.960253,197.660475 Z M167.920253,193.863675 L165.960253,193.863675 L165.960253,191.018875 L167.920253,191.018875 C168.805053,191.018875 169.409853,191.601275 169.409853,192.441275 C169.409853,193.281275 168.805053,193.863675 167.920253,193.863675 Z M173.934653,197.794875 C175.581053,197.794875 176.611453,196.518075 176.611453,194.950075 C176.611453,193.382075 175.581053,192.116475 173.934653,192.116475 C172.288253,192.116475 171.257853,193.382075 171.257853,194.950075 C171.257853,196.518075 172.288253,197.794875 173.934653,197.794875 Z M173.934653,197.044475 C172.781053,197.044475 172.131453,196.058875 172.131453,194.950075 C172.131453,193.852475 172.781053,192.866875 173.934653,192.866875 C175.088253,192.866875 175.726653,193.852475 175.726653,194.950075 C175.726653,196.058875 175.088253,197.044475 173.934653,197.044475 Z M178.817853,197.660475 L178.817853,190.190075 L177.977853,190.190075 L177.977853,197.660475 L178.817853,197.660475 Z M180.912253,191.343675 C181.225853,191.343675 181.483453,191.086075 181.483453,190.772475 C181.483453,190.458875 181.225853,190.212475 180.912253,190.212475 C180.609853,190.212475 180.352253,190.458875 180.352253,190.772475 C180.352253,191.086075 180.609853,191.343675 180.912253,191.343675 Z M181.337853,197.660475 L181.337853,192.250875 L180.497853,192.250875 L180.497853,197.660475 L181.337853,197.660475 Z M185.403453,197.794875 C186.389053,197.794875 186.971453,197.391675 187.385853,196.854075 L186.825853,196.338875 C186.467453,196.820475 186.008253,197.044475 185.448253,197.044475 C184.294653,197.044475 183.577853,196.148475 183.577853,194.950075 C183.577853,193.751675 184.294653,192.866875 185.448253,192.866875 C186.008253,192.866875 186.467453,193.079675 186.825853,193.572475 L187.385853,193.057275 C186.971453,192.519675 186.389053,192.116475 185.403453,192.116475 C183.790653,192.116475 182.704253,193.348475 182.704253,194.950075 C182.704253,196.562875 183.790653,197.794875 185.403453,197.794875 Z M188.976253,191.343675 C189.289853,191.343675 189.547453,191.086075 189.547453,190.772475 C189.547453,190.458875 189.289853,190.212475 188.976253,190.212475 C188.673853,190.212475 188.416253,190.458875 188.416253,190.772475 C188.416253,191.086075 188.673853,191.343675 188.976253,191.343675 Z M189.401853,197.660475 L189.401853,192.250875 L188.561853,192.250875 L188.561853,197.660475 L189.401853,197.660475 Z M193.523453,197.794875 C194.408253,197.794875 195.136253,197.503675 195.673853,196.966075 L195.270653,196.417275 C194.845053,196.854075 194.217853,197.100475 193.601853,197.100475 C192.437053,197.100475 191.720253,196.249275 191.653053,195.230075 L196.032253,195.230075 L196.032253,195.017275 C196.032253,193.393275 195.069053,192.116475 193.433853,192.116475 C191.888253,192.116475 190.768253,193.382075 190.768253,194.950075 C190.768253,196.641275 191.921853,197.794875 193.523453,197.794875 Z M195.203453,194.614075 L191.653053,194.614075 C191.697853,193.785275 192.269053,192.810875 193.422653,192.810875 C194.654653,192.810875 195.192253,193.807675 195.203453,194.614075 Z M199.101053,197.794875 C200.501053,197.794875 201.229053,197.066875 201.229053,196.159675 C201.229053,194.961275 200.142653,194.692475 199.201853,194.479675 C198.496253,194.311675 197.880253,194.143675 197.880253,193.617275 C197.880253,193.135675 198.339453,192.799675 199.078653,192.799675 C199.773053,192.799675 200.366653,193.090875 200.691453,193.482875 L201.083453,192.900475 C200.646653,192.463675 199.997053,192.116475 199.078653,192.116475 C197.790653,192.116475 197.062653,192.833275 197.062653,193.673275 C197.062653,194.793275 198.104253,195.039675 199.022653,195.252475 C199.750653,195.431675 200.411453,195.622075 200.411453,196.215675 C200.411453,196.742075 199.963453,197.111675 199.134653,197.111675 C198.395453,197.111675 197.712253,196.753275 197.353853,196.338875 L196.917053,196.943675 C197.465853,197.526075 198.216253,197.794875 199.101053,197.794875 Z" id="InsurancePolicies" fill="#090B0E" fill-rule="nonzero"></path>
        <g id="verification/dot/trusted/active" transform="translate(88.000000, 260.360475)">
            <g id="Group" transform="translate(3.383607, 3.400000)">
                <rect id="Rectangle-3" stroke="#29CC96" stroke-width="0.8" fill="#F2FFFB" x="0" y="0" width="10.1508197" height="10.2" rx="4.8"></rect>
                <path d="M7.27943454,2.90502333 C6.19668408,4.06088515 5.21057042,5.20129844 4.15823252,6.33986819 L2.82695771,5.20587232 C2.73626544,5.12838938 2.62033414,5.09283795 2.50482776,5.10651175 C2.38932138,5.12018556 2.28366048,5.18217215 2.210931,5.2788024 C2.05949247,5.4802632 2.09028833,5.77424009 2.27937841,5.93513103 L3.92211632,7.33529878 C4.09708981,7.48433497 4.34990717,7.46883978 4.50734718,7.29883608 C5.68464268,6.04183548 6.74300395,4.80245366 7.90233885,3.56505541 C8.03324316,3.4306043 8.07217605,3.22412623 8.00073228,3.04591988 C7.92929071,2.86771353 7.76202056,2.75512837 7.58064039,2.76287597 C7.46680523,2.76645923 7.35858165,2.81750701 7.27943454,2.90502333 Z" id="Fill-1" fill="#29CC96"></path>
            </g>
        </g>
        <path d="M114.334348,271.660475 L114.334348,265.634875 L118.691148,271.660475 L119.587148,271.660475 L119.587148,264.190075 L118.657548,264.190075 L118.657548,270.092475 L114.356748,264.190075 L113.404748,264.190075 L113.404748,271.660475 L114.334348,271.660475 Z M123.663948,271.794875 C125.310348,271.794875 126.340748,270.518075 126.340748,268.950075 C126.340748,267.382075 125.310348,266.116475 123.663948,266.116475 C122.017548,266.116475 120.987148,267.382075 120.987148,268.950075 C120.987148,270.518075 122.017548,271.794875 123.663948,271.794875 Z M123.663948,271.044475 C122.510348,271.044475 121.860748,270.058875 121.860748,268.950075 C121.860748,267.852475 122.510348,266.866875 123.663948,266.866875 C124.817548,266.866875 125.455948,267.852475 125.455948,268.950075 C125.455948,270.058875 124.817548,271.044475 123.663948,271.044475 Z M128.547148,271.660475 L128.547148,267.706875 C128.860748,267.270075 129.487948,266.866875 130.148748,266.866875 C130.876748,266.866875 131.358348,267.169275 131.358348,268.121275 L131.358348,271.660475 L132.198348,271.660475 L132.198348,267.863675 C132.198348,266.687675 131.604748,266.116475 130.473548,266.116475 C129.667148,266.116475 128.927948,266.586875 128.547148,267.034875 L128.547148,266.250875 L127.707148,266.250875 L127.707148,271.660475 L128.547148,271.660475 Z M139.355148,271.660475 C141.673548,271.660475 143.185548,270.058875 143.185548,267.930875 C143.185548,265.814075 141.673548,264.190075 139.355148,264.190075 L136.801548,264.190075 L136.801548,271.660475 L139.355148,271.660475 Z M139.355148,270.831675 L137.731148,270.831675 L137.731148,265.018875 L139.355148,265.018875 C141.203148,265.018875 142.222348,266.318075 142.222348,267.930875 C142.222348,269.532475 141.169548,270.831675 139.355148,270.831675 Z M145.022348,265.343675 C145.335948,265.343675 145.593548,265.086075 145.593548,264.772475 C145.593548,264.458875 145.335948,264.212475 145.022348,264.212475 C144.719948,264.212475 144.462348,264.458875 144.462348,264.772475 C144.462348,265.086075 144.719948,265.343675 145.022348,265.343675 Z M145.447948,271.660475 L145.447948,266.250875 L144.607948,266.250875 L144.607948,271.660475 L145.447948,271.660475 Z M148.841548,271.794875 C150.241548,271.794875 150.969548,271.066875 150.969548,270.159675 C150.969548,268.961275 149.883148,268.692475 148.942348,268.479675 C148.236748,268.311675 147.620748,268.143675 147.620748,267.617275 C147.620748,267.135675 148.079948,266.799675 148.819148,266.799675 C149.513548,266.799675 150.107148,267.090875 150.431948,267.482875 L150.823948,266.900475 C150.387148,266.463675 149.737548,266.116475 148.819148,266.116475 C147.531148,266.116475 146.803148,266.833275 146.803148,267.673275 C146.803148,268.793275 147.844748,269.039675 148.763148,269.252475 C149.491148,269.431675 150.151948,269.622075 150.151948,270.215675 C150.151948,270.742075 149.703948,271.111675 148.875148,271.111675 C148.135948,271.111675 147.452748,270.753275 147.094348,270.338875 L146.657548,270.943675 C147.206348,271.526075 147.956748,271.794875 148.841548,271.794875 Z M154.721548,271.794875 C155.707148,271.794875 156.289548,271.391675 156.703948,270.854075 L156.143948,270.338875 C155.785548,270.820475 155.326348,271.044475 154.766348,271.044475 C153.612748,271.044475 152.895948,270.148475 152.895948,268.950075 C152.895948,267.751675 153.612748,266.866875 154.766348,266.866875 C155.326348,266.866875 155.785548,267.079675 156.143948,267.572475 L156.703948,267.057275 C156.289548,266.519675 155.707148,266.116475 154.721548,266.116475 C153.108748,266.116475 152.022348,267.348475 152.022348,268.950075 C152.022348,270.562875 153.108748,271.794875 154.721548,271.794875 Z M158.719948,271.660475 L158.719948,264.190075 L157.879948,264.190075 L157.879948,271.660475 L158.719948,271.660475 Z M162.763148,271.794875 C164.409548,271.794875 165.439948,270.518075 165.439948,268.950075 C165.439948,267.382075 164.409548,266.116475 162.763148,266.116475 C161.116748,266.116475 160.086348,267.382075 160.086348,268.950075 C160.086348,270.518075 161.116748,271.794875 162.763148,271.794875 Z M162.763148,271.044475 C161.609548,271.044475 160.959948,270.058875 160.959948,268.950075 C160.959948,267.852475 161.609548,266.866875 162.763148,266.866875 C163.916748,266.866875 164.555148,267.852475 164.555148,268.950075 C164.555148,270.058875 163.916748,271.044475 162.763148,271.044475 Z M168.519948,271.794875 C169.919948,271.794875 170.647948,271.066875 170.647948,270.159675 C170.647948,268.961275 169.561548,268.692475 168.620748,268.479675 C167.915148,268.311675 167.299148,268.143675 167.299148,267.617275 C167.299148,267.135675 167.758348,266.799675 168.497548,266.799675 C169.191948,266.799675 169.785548,267.090875 170.110348,267.482875 L170.502348,266.900475 C170.065548,266.463675 169.415948,266.116475 168.497548,266.116475 C167.209548,266.116475 166.481548,266.833275 166.481548,267.673275 C166.481548,268.793275 167.523148,269.039675 168.441548,269.252475 C169.169548,269.431675 169.830348,269.622075 169.830348,270.215675 C169.830348,270.742075 169.382348,271.111675 168.553548,271.111675 C167.814348,271.111675 167.131148,270.753275 166.772748,270.338875 L166.335948,270.943675 C166.884748,271.526075 167.635148,271.794875 168.519948,271.794875 Z M173.739148,271.794875 C174.545548,271.794875 175.251148,271.369275 175.665548,270.898875 L175.665548,271.660475 L176.505548,271.660475 L176.505548,266.250875 L175.665548,266.250875 L175.665548,270.226875 C175.351948,270.663675 174.724748,271.044475 174.063948,271.044475 C173.335948,271.044475 172.854348,270.764475 172.854348,269.812475 L172.854348,266.250875 L172.014348,266.250875 L172.014348,270.070075 C172.014348,271.246075 172.607948,271.794875 173.739148,271.794875 Z M179.025548,271.660475 L179.025548,267.830075 C179.271948,267.393275 179.977548,266.967675 180.492748,266.967675 C180.627148,266.967675 180.727948,266.978875 180.828748,267.001275 L180.828748,266.138875 C180.089548,266.138875 179.462348,266.553275 179.025548,267.124475 L179.025548,266.250875 L178.185548,266.250875 L178.185548,271.660475 L179.025548,271.660475 Z M184.323148,271.794875 C185.207948,271.794875 185.935948,271.503675 186.473548,270.966075 L186.070348,270.417275 C185.644748,270.854075 185.017548,271.100475 184.401548,271.100475 C183.236748,271.100475 182.519948,270.249275 182.452748,269.230075 L186.831948,269.230075 L186.831948,269.017275 C186.831948,267.393275 185.868748,266.116475 184.233548,266.116475 C182.687948,266.116475 181.567948,267.382075 181.567948,268.950075 C181.567948,270.641275 182.721548,271.794875 184.323148,271.794875 Z M186.003148,268.614075 L182.452748,268.614075 C182.497548,267.785275 183.068748,266.810875 184.222348,266.810875 C185.454348,266.810875 185.991948,267.807675 186.003148,268.614075 Z M113.662348,284.660475 L114.323148,283.002875 L118.108748,283.002875 L118.769548,284.660475 L119.799948,284.660475 L116.787148,277.190075 L115.633548,277.190075 L112.631948,284.660475 L113.662348,284.660475 Z M117.828748,282.174075 L114.591948,282.174075 L116.215948,278.018875 L117.828748,282.174075 Z M122.913548,286.855675 C124.235148,286.855675 125.489548,286.295675 125.489548,284.503675 L125.489548,279.250875 L124.649548,279.250875 L124.649548,280.068475 C124.212748,279.474875 123.563148,279.116475 122.835148,279.116475 C121.412748,279.116475 120.427148,280.191675 120.427148,281.927675 C120.427148,283.674875 121.423948,284.727675 122.835148,284.727675 C123.596748,284.727675 124.257548,284.313275 124.649548,283.764475 L124.649548,284.537275 C124.649548,285.724475 123.809548,286.161275 122.913548,286.161275 C122.140748,286.161275 121.603148,285.959675 121.155148,285.422075 L120.729548,286.049275 C121.367948,286.676475 121.995148,286.855675 122.913548,286.855675 Z M123.036748,283.988475 C121.950348,283.988475 121.300748,283.114875 121.300748,281.927675 C121.300748,280.729275 121.950348,279.866875 123.036748,279.866875 C123.708748,279.866875 124.358348,280.270075 124.649548,280.740475 L124.649548,283.103675 C124.358348,283.574075 123.708748,283.988475 123.036748,283.988475 Z M128.009548,284.660475 L128.009548,280.830075 C128.255948,280.393275 128.961548,279.967675 129.476748,279.967675 C129.611148,279.967675 129.711948,279.978875 129.812748,280.001275 L129.812748,279.138875 C129.073548,279.138875 128.446348,279.553275 128.009548,280.124475 L128.009548,279.250875 L127.169548,279.250875 L127.169548,284.660475 L128.009548,284.660475 Z M133.307148,284.794875 C134.191948,284.794875 134.919948,284.503675 135.457548,283.966075 L135.054348,283.417275 C134.628748,283.854075 134.001548,284.100475 133.385548,284.100475 C132.220748,284.100475 131.503948,283.249275 131.436748,282.230075 L135.815948,282.230075 L135.815948,282.017275 C135.815948,280.393275 134.852748,279.116475 133.217548,279.116475 C131.671948,279.116475 130.551948,280.382075 130.551948,281.950075 C130.551948,283.641275 131.705548,284.794875 133.307148,284.794875 Z M134.987148,281.614075 L131.436748,281.614075 C131.481548,280.785275 132.052748,279.810875 133.206348,279.810875 C134.438348,279.810875 134.975948,280.807675 134.987148,281.614075 Z M139.612748,284.794875 C140.497548,284.794875 141.225548,284.503675 141.763148,283.966075 L141.359948,283.417275 C140.934348,283.854075 140.307148,284.100475 139.691148,284.100475 C138.526348,284.100475 137.809548,283.249275 137.742348,282.230075 L142.121548,282.230075 L142.121548,282.017275 C142.121548,280.393275 141.158348,279.116475 139.523148,279.116475 C137.977548,279.116475 136.857548,280.382075 136.857548,281.950075 C136.857548,283.641275 138.011148,284.794875 139.612748,284.794875 Z M141.292748,281.614075 L137.742348,281.614075 C137.787148,280.785275 138.358348,279.810875 139.511948,279.810875 C140.743948,279.810875 141.281548,280.807675 141.292748,281.614075 Z M144.316748,284.660475 L144.316748,280.706875 C144.607948,280.270075 145.190348,279.866875 145.739148,279.866875 C146.444748,279.866875 146.735948,280.303675 146.735948,280.986875 L146.735948,284.660475 L147.575948,284.660475 L147.575948,280.695675 C147.855948,280.270075 148.449548,279.866875 149.009548,279.866875 C149.703948,279.866875 150.006348,280.303675 150.006348,280.986875 L150.006348,284.660475 L150.846348,284.660475 L150.846348,280.751675 C150.846348,279.665275 150.319948,279.116475 149.334348,279.116475 C148.550348,279.116475 147.822348,279.631675 147.519948,280.124475 C147.363148,279.564475 146.892748,279.116475 146.063948,279.116475 C145.268748,279.116475 144.540748,279.687675 144.316748,280.034875 L144.316748,279.250875 L143.476748,279.250875 L143.476748,284.660475 L144.316748,284.660475 Z M154.967948,284.794875 C155.852748,284.794875 156.580748,284.503675 157.118348,283.966075 L156.715148,283.417275 C156.289548,283.854075 155.662348,284.100475 155.046348,284.100475 C153.881548,284.100475 153.164748,283.249275 153.097548,282.230075 L157.476748,282.230075 L157.476748,282.017275 C157.476748,280.393275 156.513548,279.116475 154.878348,279.116475 C153.332748,279.116475 152.212748,280.382075 152.212748,281.950075 C152.212748,283.641275 153.366348,284.794875 154.967948,284.794875 Z M156.647948,281.614075 L153.097548,281.614075 C153.142348,280.785275 153.713548,279.810875 154.867148,279.810875 C156.099148,279.810875 156.636748,280.807675 156.647948,281.614075 Z M159.671948,284.660475 L159.671948,280.706875 C159.985548,280.270075 160.612748,279.866875 161.273548,279.866875 C162.001548,279.866875 162.483148,280.169275 162.483148,281.121275 L162.483148,284.660475 L163.323148,284.660475 L163.323148,280.863675 C163.323148,279.687675 162.729548,279.116475 161.598348,279.116475 C160.791948,279.116475 160.052748,279.586875 159.671948,280.034875 L159.671948,279.250875 L158.831948,279.250875 L158.831948,284.660475 L159.671948,284.660475 Z M166.369548,284.794875 C166.862348,284.794875 167.164748,284.649275 167.377548,284.447675 L167.131148,283.820475 C167.019148,283.943675 166.795148,284.044475 166.559948,284.044475 C166.190348,284.044475 166.011148,283.753275 166.011148,283.350075 L166.011148,279.990075 L167.108748,279.990075 L167.108748,279.250875 L166.011148,279.250875 L166.011148,277.772475 L165.171148,277.772475 L165.171148,279.250875 L164.275148,279.250875 L164.275148,279.990075 L165.171148,279.990075 L165.171148,283.529275 C165.171148,284.335675 165.574348,284.794875 166.369548,284.794875 Z M170.009548,284.794875 C171.409548,284.794875 172.137548,284.066875 172.137548,283.159675 C172.137548,281.961275 171.051148,281.692475 170.110348,281.479675 C169.404748,281.311675 168.788748,281.143675 168.788748,280.617275 C168.788748,280.135675 169.247948,279.799675 169.987148,279.799675 C170.681548,279.799675 171.275148,280.090875 171.599948,280.482875 L171.991948,279.900475 C171.555148,279.463675 170.905548,279.116475 169.987148,279.116475 C168.699148,279.116475 167.971148,279.833275 167.971148,280.673275 C167.971148,281.793275 169.012748,282.039675 169.931148,282.252475 C170.659148,282.431675 171.319948,282.622075 171.319948,283.215675 C171.319948,283.742075 170.871948,284.111675 170.043148,284.111675 C169.303948,284.111675 168.620748,283.753275 168.262348,283.338875 L167.825548,283.943675 C168.374348,284.526075 169.124748,284.794875 170.009548,284.794875 Z" id="NonDisclosureAgreements" fill="#090B0E" fill-rule="nonzero"></path>
        <g id="verification/dot/trusted/active" transform="translate(89.000000, 118.360475)">
            <g id="Group" transform="translate(3.364706, 3.400000)">
                <rect id="Rectangle-3" stroke="#29CC96" stroke-width="0.8" fill="#F2FFFB" x="0" y="0" width="10.0941176" height="10.2" rx="4.8"></rect>
                <path d="M7.23877195,2.90502333 C6.16206968,4.06088515 5.18146441,5.20129844 4.13500481,6.33986819 L2.81116645,5.20587232 C2.72098078,5.12838938 2.60569707,5.09283795 2.49083591,5.10651175 C2.37597474,5.12018556 2.27090406,5.18217215 2.19858084,5.2788024 C2.04798823,5.4802632 2.07861207,5.77424009 2.2666459,5.93513103 L3.90020755,7.33529878 C4.07420365,7.48433497 4.32560879,7.46883978 4.48216934,7.29883608 C5.65288852,6.04183548 6.70533784,4.80245366 7.85819674,3.56505541 C7.98836983,3.4306043 8.02708524,3.22412623 7.95604055,3.04591988 C7.88499804,2.86771353 7.71866226,2.75512837 7.53829528,2.76287597 C7.42509599,2.76645923 7.31747695,2.81750701 7.23877195,2.90502333 Z" id="Fill-1" fill="#29CC96"></path>
            </g>
        </g>
        <path d="M117.773318,129.794875 C119.128518,129.794875 120.024518,129.167675 120.651718,128.316475 L119.856518,127.879675 C119.430918,128.518075 118.658118,128.966075 117.773318,128.966075 C116.171718,128.966075 114.928518,127.700475 114.928518,125.930875 C114.928518,124.150075 116.171718,122.895675 117.773318,122.895675 C118.658118,122.895675 119.430918,123.354875 119.856518,123.982075 L120.640518,123.545275 C120.046918,122.705275 119.128518,122.066875 117.773318,122.066875 C115.656518,122.066875 113.965318,123.634875 113.965318,125.930875 C113.965318,128.226875 115.656518,129.794875 117.773318,129.794875 Z M124.168518,129.794875 C125.814918,129.794875 126.845318,128.518075 126.845318,126.950075 C126.845318,125.382075 125.814918,124.116475 124.168518,124.116475 C122.522118,124.116475 121.491718,125.382075 121.491718,126.950075 C121.491718,128.518075 122.522118,129.794875 124.168518,129.794875 Z M124.168518,129.044475 C123.014918,129.044475 122.365318,128.058875 122.365318,126.950075 C122.365318,125.852475 123.014918,124.866875 124.168518,124.866875 C125.322118,124.866875 125.960518,125.852475 125.960518,126.950075 C125.960518,128.058875 125.322118,129.044475 124.168518,129.044475 Z M129.051718,129.660475 L129.051718,125.706875 C129.342918,125.270075 129.925318,124.866875 130.474118,124.866875 C131.179718,124.866875 131.470918,125.303675 131.470918,125.986875 L131.470918,129.660475 L132.310918,129.660475 L132.310918,125.695675 C132.590918,125.270075 133.184518,124.866875 133.744518,124.866875 C134.438918,124.866875 134.741318,125.303675 134.741318,125.986875 L134.741318,129.660475 L135.581318,129.660475 L135.581318,125.751675 C135.581318,124.665275 135.054918,124.116475 134.069318,124.116475 C133.285318,124.116475 132.557318,124.631675 132.254918,125.124475 C132.098118,124.564475 131.627718,124.116475 130.798918,124.116475 C130.003718,124.116475 129.275718,124.687675 129.051718,125.034875 L129.051718,124.250875 L128.211718,124.250875 L128.211718,129.660475 L129.051718,129.660475 Z M138.101318,129.660475 L138.101318,125.706875 C138.392518,125.270075 138.974918,124.866875 139.523718,124.866875 C140.229318,124.866875 140.520518,125.303675 140.520518,125.986875 L140.520518,129.660475 L141.360518,129.660475 L141.360518,125.695675 C141.640518,125.270075 142.234118,124.866875 142.794118,124.866875 C143.488518,124.866875 143.790918,125.303675 143.790918,125.986875 L143.790918,129.660475 L144.630918,129.660475 L144.630918,125.751675 C144.630918,124.665275 144.104518,124.116475 143.118918,124.116475 C142.334918,124.116475 141.606918,124.631675 141.304518,125.124475 C141.147718,124.564475 140.677318,124.116475 139.848518,124.116475 C139.053318,124.116475 138.325318,124.687675 138.101318,125.034875 L138.101318,124.250875 L137.261318,124.250875 L137.261318,129.660475 L138.101318,129.660475 Z M148.752518,129.794875 C149.637318,129.794875 150.365318,129.503675 150.902918,128.966075 L150.499718,128.417275 C150.074118,128.854075 149.446918,129.100475 148.830918,129.100475 C147.666118,129.100475 146.949318,128.249275 146.882118,127.230075 L151.261318,127.230075 L151.261318,127.017275 C151.261318,125.393275 150.298118,124.116475 148.662918,124.116475 C147.117318,124.116475 145.997318,125.382075 145.997318,126.950075 C145.997318,128.641275 147.150918,129.794875 148.752518,129.794875 Z M150.432518,126.614075 L146.882118,126.614075 C146.926918,125.785275 147.498118,124.810875 148.651718,124.810875 C149.883718,124.810875 150.421318,125.807675 150.432518,126.614075 Z M153.456518,129.660475 L153.456518,125.830075 C153.702918,125.393275 154.408518,124.967675 154.923718,124.967675 C155.058118,124.967675 155.158918,124.978875 155.259718,125.001275 L155.259718,124.138875 C154.520518,124.138875 153.893318,124.553275 153.456518,125.124475 L153.456518,124.250875 L152.616518,124.250875 L152.616518,129.660475 L153.456518,129.660475 Z M158.698118,129.794875 C159.683718,129.794875 160.266118,129.391675 160.680518,128.854075 L160.120518,128.338875 C159.762118,128.820475 159.302918,129.044475 158.742918,129.044475 C157.589318,129.044475 156.872518,128.148475 156.872518,126.950075 C156.872518,125.751675 157.589318,124.866875 158.742918,124.866875 C159.302918,124.866875 159.762118,125.079675 160.120518,125.572475 L160.680518,125.057275 C160.266118,124.519675 159.683718,124.116475 158.698118,124.116475 C157.085318,124.116475 155.998918,125.348475 155.998918,126.950075 C155.998918,128.562875 157.085318,129.794875 158.698118,129.794875 Z M162.270918,123.343675 C162.584518,123.343675 162.842118,123.086075 162.842118,122.772475 C162.842118,122.458875 162.584518,122.212475 162.270918,122.212475 C161.968518,122.212475 161.710918,122.458875 161.710918,122.772475 C161.710918,123.086075 161.968518,123.343675 162.270918,123.343675 Z M162.696518,129.660475 L162.696518,124.250875 L161.856518,124.250875 L161.856518,129.660475 L162.696518,129.660475 Z M165.966918,129.794875 C166.694918,129.794875 167.310918,129.537275 167.758918,129.044475 L167.758918,129.660475 L168.598918,129.660475 L168.598918,125.942075 C168.598918,124.631675 167.646918,124.116475 166.504518,124.116475 C165.619718,124.116475 164.925318,124.407675 164.342918,125.012475 L164.734918,125.594875 C165.216518,125.079675 165.742918,124.844475 166.392518,124.844475 C167.176518,124.844475 167.758918,125.258875 167.758918,125.986875 L167.758918,126.961275 C167.322118,126.457275 166.706118,126.222075 165.966918,126.222075 C165.048518,126.222075 164.074118,126.793275 164.074118,128.002875 C164.074118,129.178875 165.048518,129.794875 165.966918,129.794875 Z M166.269318,129.190075 C165.485318,129.190075 164.936518,128.697275 164.936518,128.014075 C164.936518,127.319675 165.485318,126.826875 166.269318,126.826875 C166.862918,126.826875 167.434118,127.050875 167.758918,127.498875 L167.758918,128.518075 C167.434118,128.966075 166.862918,129.190075 166.269318,129.190075 Z M171.118918,129.660475 L171.118918,122.190075 L170.278918,122.190075 L170.278918,129.660475 L171.118918,129.660475 Z M178.499718,129.660475 L178.499718,123.018875 L180.874118,123.018875 L180.874118,122.190075 L175.206918,122.190075 L175.206918,123.018875 L177.570118,123.018875 L177.570118,129.660475 L178.499718,129.660475 Z M184.514118,129.794875 C185.398918,129.794875 186.126918,129.503675 186.664518,128.966075 L186.261318,128.417275 C185.835718,128.854075 185.208518,129.100475 184.592518,129.100475 C183.427718,129.100475 182.710918,128.249275 182.643718,127.230075 L187.022918,127.230075 L187.022918,127.017275 C187.022918,125.393275 186.059718,124.116475 184.424518,124.116475 C182.878918,124.116475 181.758918,125.382075 181.758918,126.950075 C181.758918,128.641275 182.912518,129.794875 184.514118,129.794875 Z M186.194118,126.614075 L182.643718,126.614075 C182.688518,125.785275 183.259718,124.810875 184.413318,124.810875 C185.645318,124.810875 186.182918,125.807675 186.194118,126.614075 Z M189.218118,129.660475 L189.218118,125.830075 C189.464518,125.393275 190.170118,124.967675 190.685318,124.967675 C190.819718,124.967675 190.920518,124.978875 191.021318,125.001275 L191.021318,124.138875 C190.282118,124.138875 189.654918,124.553275 189.218118,125.124475 L189.218118,124.250875 L188.378118,124.250875 L188.378118,129.660475 L189.218118,129.660475 Z M192.914118,129.660475 L192.914118,125.706875 C193.205318,125.270075 193.787718,124.866875 194.336518,124.866875 C195.042118,124.866875 195.333318,125.303675 195.333318,125.986875 L195.333318,129.660475 L196.173318,129.660475 L196.173318,125.695675 C196.453318,125.270075 197.046918,124.866875 197.606918,124.866875 C198.301318,124.866875 198.603718,125.303675 198.603718,125.986875 L198.603718,129.660475 L199.443718,129.660475 L199.443718,125.751675 C199.443718,124.665275 198.917318,124.116475 197.931718,124.116475 C197.147718,124.116475 196.419718,124.631675 196.117318,125.124475 C195.960518,124.564475 195.490118,124.116475 194.661318,124.116475 C193.866118,124.116475 193.138118,124.687675 192.914118,125.034875 L192.914118,124.250875 L192.074118,124.250875 L192.074118,129.660475 L192.914118,129.660475 Z M202.837318,129.794875 C204.237318,129.794875 204.965318,129.066875 204.965318,128.159675 C204.965318,126.961275 203.878918,126.692475 202.938118,126.479675 C202.232518,126.311675 201.616518,126.143675 201.616518,125.617275 C201.616518,125.135675 202.075718,124.799675 202.814918,124.799675 C203.509318,124.799675 204.102918,125.090875 204.427718,125.482875 L204.819718,124.900475 C204.382918,124.463675 203.733318,124.116475 202.814918,124.116475 C201.526918,124.116475 200.798918,124.833275 200.798918,125.673275 C200.798918,126.793275 201.840518,127.039675 202.758918,127.252475 C203.486918,127.431675 204.147718,127.622075 204.147718,128.215675 C204.147718,128.742075 203.699718,129.111675 202.870918,129.111675 C202.131718,129.111675 201.448518,128.753275 201.090118,128.338875 L200.653318,128.943675 C201.202118,129.526075 201.952518,129.794875 202.837318,129.794875 Z" id="CommercialTerms" fill="#090B0E" fill-rule="nonzero"></path>
        <g id="expand-accordion" transform="translate(229.000000, 231.360475) rotate(-90.000000) translate(-229.000000, -231.360475) translate(222.000000, 224.360475)">
            <mask id="mask-7" fill="white">
                <use xlink:href="#path-6"></use>
            </mask>
            <use id="-Icon-小olor" fill="#001C4D" fill-rule="evenodd" xlink:href="#path-6"></use>
        </g>
    </g>
</svg>