<svg width="500px" height="330px" viewBox="0 0 500 330" xmlns="http://www.w3.org/2000/svg" xmlns:xlink="http://www.w3.org/1999/xlink">
    <defs>
        <rect id="path-1" x="204" y="24.360475" width="253" height="236" rx="2.23999996"></rect>
        <filter x="-1.5%" y="-1.2%" width="103.0%" height="103.2%" filterUnits="objectBoundingBox" id="filter-2">
            <feMorphology radius="0.279999995" operator="dilate" in="SourceAlpha" result="shadowSpreadOuter1"></feMorphology>
            <feOffset dx="0" dy="1" in="shadowSpreadOuter1" result="shadowOffsetOuter1"></feOffset>
            <feGaussianBlur stdDeviation="1" in="shadowOffsetOuter1" result="shadowBlurOuter1"></feGaussianBlur>
            <feComposite in="shadowBlurOuter1" in2="SourceAlpha" operator="out" result="shadowBlurOuter1"></feComposite>
            <feColorMatrix values="0 0 0 0 0   0 0 0 0 0   0 0 0 0 0  0 0 0 0.5 0" type="matrix" in="shadowBlurOuter1"></feColorMatrix>
        </filter>
        <path d="M1.875,4.875 C2.08125,4.875 2.248875,5.0415 2.25,5.248125 L2.25,5.248125 L2.254875,6.214875 L3.484875,4.984875 C3.6315,4.83825 3.8685,4.83825 4.015125,4.984875 C4.16175,5.1315 4.16175,5.3685 4.015125,5.515125 L4.015125,5.515125 L2.780625,6.749625 L3.75,6.75 C3.957375,6.75 4.125,6.918 4.125,7.125375 C4.124625,7.332375 3.957,7.5 3.75,7.5 L3.75,7.5 L3.749625,7.5 L1.884,7.498875 C1.67775,7.498875 1.5105,7.332 1.509375,7.12575 L1.509375,7.12575 L1.49999436,5.251875 C1.498875,5.044875 1.666125,4.876125 1.873125,4.875 L1.873125,4.875 Z M5.251725,1.50015 L7.1256,1.509525 C7.33185,1.51065 7.498725,1.6779 7.498725,1.88415 L7.498725,1.88415 L7.49985063,3.749775 C7.500225,3.956775 7.332225,4.12515 7.125225,4.12515 L7.125225,4.12515 C6.91785,4.12515 6.750225,3.95715 6.74985,3.750525 L6.74985,3.750525 L6.7491,2.78115 L5.514975,4.015275 C5.44185,4.0884 5.34585,4.12515 5.24985,4.12515 C5.154225,4.12515 5.058225,4.0884 4.984725,4.015275 C4.838475,3.86865 4.838475,3.631275 4.984725,3.485025 L4.984725,3.485025 L6.214725,2.255025 L5.24835,2.25015 C5.040975,2.249025 4.873725,2.0799 4.87484436,1.873275 C4.875975,1.66665 5.043975,1.50015 5.24985,1.50015 L5.24985,1.50015 L5.251725,1.50015 Z" id="path-3"></path>
        <rect id="path-5" x="74" y="102.360475" width="174" height="201" rx="4"></rect>
        <filter x="-2.2%" y="-1.4%" width="104.5%" height="103.9%" filterUnits="objectBoundingBox" id="filter-6">
            <feMorphology radius="0.4" operator="dilate" in="SourceAlpha" result="shadowSpreadOuter1"></feMorphology>
            <feOffset dx="0" dy="1" in="shadowSpreadOuter1" result="shadowOffsetOuter1"></feOffset>
            <feGaussianBlur stdDeviation="1" in="shadowOffsetOuter1" result="shadowBlurOuter1"></feGaussianBlur>
            <feComposite in="shadowBlurOuter1" in2="SourceAlpha" operator="out" result="shadowBlurOuter1"></feComposite>
            <feColorMatrix values="0 0 0 0 0   0 0 0 0 0   0 0 0 0 0  0 0 0 0.5 0" type="matrix" in="shadowBlurOuter1"></feColorMatrix>
        </filter>
        <polygon id="path-7" points="3.64000006 5.32000003 7 8.67999997 10.3599999 5.32000003"></polygon>
    </defs>
    <g id="Partner-Enablement" stroke="none" stroke-width="1" fill="none" fill-rule="evenodd">
        <path d="M354.092422,0 C277.320194,0.225455336 226.647541,58.1541543 178.509445,73.2299427 C106.323904,95.8359393 37.0596883,72.0862693 7.29817054,154.738195 C2.30105814,168.615996 0.019544079,182.984675 0,197.26727 L0,197.653619 C0.065832687,242.298899 22.1856155,286.072077 52.4470502,311.439902 C68.2283797,324.670031 89.2557514,329.990777 111.88368,330 L112.01226,330 C146.865524,329.983603 185.499025,317.384749 214.647476,301.685884 C271.097977,271.280158 309.671817,283.797028 348.466813,294.710091 C416.799085,313.932208 505.410911,247.762092 499.741071,153.048305 C494.296502,62.0811763 452.541091,10.9786501 373.867944,1.20618605 C367.407083,0.403770011 361.112861,0.0184463457 354.994536,0 L354.092422,0 Z" id="Fill-1-Copy" fill="#F2F7FF"></path>
        <g id="Rectangle">
            <use fill="black" fill-opacity="1" filter="url(#filter-2)" xlink:href="#path-1"></use>
            <use stroke="#E9EBF0" stroke-width="0.55999999" fill="#FFFFFF" xlink:href="#path-1"></use>
        </g>
        <path d="M206,24.360475 L455,24.360475 C456.104569,24.360475 457,25.2559055 457,26.360475 L457,26.360475 L457,26.360475 L204,26.360475 C204,25.2559055 204.895431,24.360475 206,24.360475 Z" id="Rectangle-7-Copy-6" fill="#29CC96"></path>
        <g id="verification/button/trusted/active" transform="translate(212.000000, 32.360475)">
            <g id="verification-icon-trusted-copy-12">
                <g id="Group-15" fill="#F2FFFB" stroke="#29CC96" stroke-width="0.55999999">
                    <rect id="Rectangle-3" x="0.279999995" y="0.279999995" width="13.44" height="13.44" rx="2.23999996"></rect>
                </g>
                <path d="M10.0397886,3.98728692 C8.54646028,5.57376393 7.18641334,7.13903708 5.73502999,8.70177987 L3.89893716,7.14531496 C3.77385447,7.03896581 3.61396214,6.99016973 3.45465586,7.0089377 C3.29534958,7.02770567 3.14962217,7.11278531 3.04931375,7.24541505 C2.84044988,7.52192988 2.8829235,7.92542757 3.14371635,8.14625828 L5.40937877,10.0680572 C5.65070203,10.2726166 5.99938748,10.2513487 6.21652857,10.0180103 C7.8402533,8.29271537 9.29994408,6.59160306 10.8988976,4.8932133 C11.0794407,4.70867257 11.1331369,4.42527129 11.0346017,4.18067434 C10.9360695,3.93607739 10.7053707,3.78154874 10.4552114,3.7921827 C10.2982101,3.7971009 10.1489482,3.86716649 10.0397886,3.98728692 Z" id="Fill-1" fill="#29CC96"></path>
            </g>
        </g>
        <g id="close" transform="translate(442.000000, 35.360475)" fill="#B8BFCC">
            <path d="M5.02875,4.5 L6.64125,2.89125 C6.78829581,2.74420419 6.78829581,2.50579581 6.64125,2.35875 C6.49420419,2.21170419 6.25579581,2.21170419 6.10875,2.35875 L4.5,3.97125 L2.89125,2.35875 C2.74420418,2.21170419 2.50579582,2.21170419 2.35875,2.35875 C2.21170419,2.50579582 2.21170419,2.74420418 2.35875,2.89125 L3.97125,4.5 L2.35875,6.10875 C2.28775776,6.17916247 2.24782563,6.27501092 2.24782563,6.375 C2.24782563,6.47498908 2.28775776,6.57083753 2.35875,6.64125 C2.42916247,6.71224224 2.52501092,6.75217437 2.625,6.75217437 C2.72498908,6.75217437 2.82083753,6.71224224 2.89125,6.64125 L4.5,5.02875 L6.10875,6.64125 C6.17916247,6.71224224 6.27501092,6.75217437 6.375,6.75217437 C6.47498908,6.75217437 6.57083753,6.71224224 6.64125,6.64125 C6.71224224,6.57083753 6.75217437,6.47498908 6.75217437,6.375 C6.75217437,6.27501092 6.71224224,6.17916247 6.64125,6.10875 L5.02875,4.5 Z" id="-Icon-小olor"></path>
        </g>
        <g id="expand-window" transform="translate(429.000000, 35.360475)">
            <mask id="mask-4" fill="white">
                <use xlink:href="#path-3"></use>
            </mask>
            <use id="-Icon-小olor" fill="#B8BFCC" fill-rule="evenodd" xlink:href="#path-3"></use>
        </g>
        <path d="M421,31.360475 L421,45.360475 L421,31.360475 Z" id="Path-2" stroke="#B8BFCC" stroke-width="0.55999999"></path>
        <g id="globe" transform="translate(406.000000, 35.360475)" fill="#B8BFCC">
            <path d="M8.25,4.5 C8.25,3.50543816 7.85491185,2.55161099 7.15165043,1.84834957 C6.44838901,1.14508815 5.49456184,0.75 4.5,0.75 C2.42893219,0.75 0.75,2.42893219 0.75,4.5 C0.75,6.57106781 2.42893219,8.25 4.5,8.25 C6.57106781,8.25 8.25,6.57106781 8.25,4.5 Z M7.47375,4.125 L6.375,4.125 C6.31315234,3.24305352 6.0109749,2.39488165 5.50125,1.6725 C6.56921252,2.0517964 7.33227495,3.00054701 7.47375,4.125 Z M3.405,4.875 L5.625,4.875 C5.52903112,5.80146887 5.13414427,6.67153623 4.5,7.35375 C3.86627643,6.67438658 3.48044693,5.80098487 3.405,4.875 L3.405,4.875 Z M3.405,4.125 C3.49233211,3.20318507 3.87659587,2.33464367 4.5,1.65 C5.13926682,2.32729603 5.5350483,3.19801528 5.625,4.125 L3.405,4.125 Z M3.54,1.66125 C3.0275811,2.3876335 2.72055012,3.23877 2.65125,4.125 L1.52625,4.125 C1.67078837,2.98608776 2.45262785,2.02953554 3.54,1.66125 Z M1.52625,4.875 L2.65125,4.875 C2.71300924,5.76047499 3.0179548,6.6117273 3.5325,7.335 C2.44916128,6.96495666 1.67085708,6.01062478 1.52625,4.875 Z M5.4825,7.33125 C5.99565302,6.60775325 6.30399818,5.75915627 6.375,4.875 L7.48125,4.875 C7.33658452,6.00734451 6.56180804,6.95946195 5.4825,7.33125 L5.4825,7.33125 Z" id="-Icon-小olor"></path>
        </g>
        <path d="M204,235.360475 L457,235.360475 L457,258.120475 C457,259.357593 455.997118,260.360475 454.76,260.360475 L206.24,260.360475 C205.002882,260.360475 204,259.357593 204,258.120475 L204,235.360475 L204,235.360475 Z" id="Rectangle" stroke="#F2F3F5" stroke-width="0.55999999" fill="#F2F3F5"></path>
        <g id="icon-resize" transform="translate(206.000000, 250.360475)" fill="#8F9CB3">
            <path d="M5.69599992,6.71999989 L4.77866659,6.71999989 L6.71999989,4.77866659 L6.71999989,5.69599992 L5.69599992,6.71999989 Z M3.30666661,6.71999989 L2.38933329,6.71999989 L6.71999989,2.38933329 L6.71999989,3.30666661 L3.30666661,6.71999989 Z M0.917333316,6.71999989 L0,6.71999989 L6.71999989,0 L6.71999989,0.917333316 L0.917333316,6.71999989 Z" id="Shape" transform="translate(3.360000, 3.360000) rotate(90.000000) translate(-3.360000, -3.360000) "></path>
        </g>
        <g id="tag" transform="translate(220.000000, 242.360475)" fill="#B8BFCC">
            <path d="M4.67506187,9.625 C4.56946319,9.625 4.46386451,9.584575 4.38342802,9.5041375 L1.49596411,6.6166375 C1.33467863,6.45535 1.33467863,6.19465 1.49596411,6.0333625 L6.03340739,1.4958625 C6.11054393,1.4183125 6.21531762,1.375 6.32504125,1.375 L9.21250516,1.375 C9.4406148,1.375 9.625,1.5593875 9.625,1.7875 L9.625,4.675 C9.625,4.784725 9.58168804,4.8895 9.50413901,4.9666375 L4.96669573,9.5041375 C4.88625923,9.584575 4.78066055,9.625 4.67506187,9.625 Z M8.80001031,4.504225 L8.80001031,2.2 L6.49581411,2.2 L2.37086568,6.325 L4.67506187,8.629225 L8.80001031,4.504225 Z M7.54251057,2.75748349 C7.73581794,2.56417396 8.04923079,2.56417396 8.24253791,2.75748349 C8.43584503,2.95079328 8.43584503,3.26421005 8.24253791,3.45751958 C8.04923055,3.65082912 7.73581769,3.65082912 7.54251057,3.45751958 C7.34920345,3.2642098 7.34920345,2.95079303 7.54251057,2.75748349 L7.54251057,2.75748349 Z" id="-Icon-小olor"></path>
        </g>
        <rect id="Rectangle-12-[4-8]" fill="#FFFFFF" x="241" y="241.360475" width="51" height="11" rx="5.5"></rect>
        <path d="M236.8416,82.475675 C238.5696,82.475675 239.2608,81.544475 239.2608,80.546075 C239.2608,79.182875 238.0416,78.856475 236.9952,78.578075 C236.1984,78.376475 235.5072,78.194075 235.5072,77.618075 C235.5072,77.080475 235.9968,76.715675 236.7072,76.715675 C237.3984,76.715675 238.0704,76.946075 238.56,77.464475 L239.1168,76.754075 C238.5504,76.178075 237.7728,75.861275 236.784,75.861275 C235.4496,75.861275 234.5184,76.629275 234.5184,77.685275 C234.5184,78.990875 235.7088,79.288475 236.736,79.557275 C237.552,79.768475 238.2816,79.960475 238.2816,80.632475 C238.2816,81.093275 237.9168,81.621275 236.88,81.621275 C235.9872,81.621275 235.296,81.198875 234.864,80.718875 L234.3168,81.458075 C234.864,82.062875 235.6992,82.475675 236.8416,82.475675 Z M241.6992,82.475675 C242.3232,82.475675 242.8512,82.254875 243.216,81.851675 L243.216,82.360475 L244.08,82.360475 L244.08,79.230875 C244.08,78.050075 243.2256,77.608475 242.2176,77.608475 C241.4688,77.608475 240.8352,77.858075 240.3168,78.366875 L240.6912,78.962075 C241.104,78.549275 241.5552,78.347675 242.0832,78.347675 C242.7456,78.347675 243.216,78.693275 243.216,79.269275 L243.216,80.037275 C242.8608,79.624475 242.3232,79.422875 241.6992,79.422875 C240.9216,79.422875 240.0864,79.883675 240.0864,80.939675 C240.0864,81.957275 240.9312,82.475675 241.6992,82.475675 Z M242.0256,81.870875 C241.4016,81.870875 240.96,81.496475 240.96,80.949275 C240.96,80.402075 241.4016,80.027675 242.0256,80.027675 C242.5056,80.027675 242.9568,80.210075 243.216,80.555675 L243.216,81.342875 C242.9568,81.688475 242.5056,81.870875 242.0256,81.870875 Z M246.3264,82.360475 L246.3264,75.957275 L245.4624,75.957275 L245.4624,82.360475 L246.3264,82.360475 Z M249.8112,82.475675 C250.56,82.475675 251.2128,82.235675 251.6736,81.784475 L251.2704,81.218075 C250.9248,81.573275 250.3872,81.765275 249.8976,81.765275 C248.9664,81.765275 248.3904,81.112475 248.3232,80.325275 L251.9904,80.325275 L251.9904,80.114075 C251.9904,78.693275 251.1264,77.608475 249.7344,77.608475 C248.3808,77.608475 247.4112,78.693275 247.4112,80.037275 C247.4112,81.496475 248.4288,82.475675 249.8112,82.475675 Z M251.1456,79.701275 L248.3136,79.701275 C248.3616,79.067675 248.8032,78.318875 249.7344,78.318875 C250.7136,78.318875 251.1264,79.086875 251.1456,79.701275 Z M254.6016,82.475675 C255.8208,82.475675 256.4736,81.851675 256.4736,81.054875 C256.4736,79.989275 255.5136,79.768475 254.7072,79.586075 C254.1312,79.451675 253.632,79.317275 253.632,78.914075 C253.632,78.539675 253.9968,78.309275 254.5824,78.309275 C255.168,78.309275 255.6864,78.549275 255.9552,78.875675 L256.3392,78.270875 C255.9456,77.896475 255.3696,77.608475 254.5728,77.608475 C253.44,77.608475 252.8064,78.242075 252.8064,78.981275 C252.8064,79.9271277 253.633542,80.1664628 254.389942,80.3441251 L254.5152,80.373275 C255.1104,80.507675 255.6384,80.661275 255.6384,81.122075 C255.6384,81.515675 255.2928,81.784475 254.64,81.784475 C254.016,81.784475 253.4016,81.467675 253.0848,81.122075 L252.672,81.755675 C253.1424,82.235675 253.824,82.475675 254.6016,82.475675 Z M261.024,82.360475 L261.024,79.893275 L262.7616,79.893275 C264.0672,79.893275 264.8064,78.990875 264.8064,77.925275 C264.8064,76.859675 264.0768,75.957275 262.7616,75.957275 L260.064,75.957275 L260.064,82.360475 L261.024,82.360475 Z M262.6368,79.048475 L261.024,79.048475 L261.024,76.802075 L262.6368,76.802075 C263.328,76.802075 263.8176,77.253275 263.8176,77.925275 C263.8176,78.597275 263.328,79.048475 262.6368,79.048475 Z M266.64,82.360475 L266.64,79.134875 C266.8416,78.789275 267.4272,78.462875 267.8592,78.462875 C267.9744,78.462875 268.0704,78.472475 268.1568,78.491675 L268.1568,77.618075 C267.5424,77.618075 266.9952,77.973275 266.64,78.434075 L266.64,77.723675 L265.776,77.723675 L265.776,82.360475 L266.64,82.360475 Z M271.0752,82.475675 C272.5248,82.475675 273.4176,81.381275 273.4176,80.037275 C273.4176,78.702875 272.5248,77.608475 271.0752,77.608475 C269.6352,77.608475 268.7328,78.702875 268.7328,80.037275 C268.7328,81.381275 269.6352,82.475675 271.0752,82.475675 Z M271.0752,81.707675 C270.1536,81.707675 269.6352,80.920475 269.6352,80.037275 C269.6352,79.163675 270.1536,78.376475 271.0752,78.376475 C272.0064,78.376475 272.5152,79.163675 272.5152,80.037275 C272.5152,80.920475 272.0064,81.707675 271.0752,81.707675 Z M276.5856,82.475675 C277.4592,82.475675 277.9872,82.110875 278.3232,81.659675 L277.7472,81.131675 C277.4688,81.515675 277.0944,81.707675 276.624,81.707675 C275.712,81.707675 275.1264,80.997275 275.1264,80.037275 C275.1264,79.077275 275.712,78.376475 276.624,78.376475 C277.0944,78.376475 277.4688,78.558875 277.7472,78.952475 L278.3232,78.424475 C277.9872,77.973275 277.4592,77.608475 276.5856,77.608475 C275.184,77.608475 274.224,78.645275 274.224,80.037275 C274.224,81.429275 275.184,82.475675 276.5856,82.475675 Z M281.3856,82.475675 C282.1344,82.475675 282.7872,82.235675 283.248,81.784475 L282.8448,81.218075 C282.4992,81.573275 281.9616,81.765275 281.472,81.765275 C280.5408,81.765275 279.9648,81.112475 279.8976,80.325275 L283.5648,80.325275 L283.5648,80.114075 C283.5648,78.693275 282.7008,77.608475 281.3088,77.608475 C279.9552,77.608475 278.9856,78.693275 278.9856,80.037275 C278.9856,81.496475 280.0032,82.475675 281.3856,82.475675 Z M282.72,79.701275 L279.888,79.701275 C279.936,79.067675 280.3776,78.318875 281.3088,78.318875 C282.288,78.318875 282.7008,79.086875 282.72,79.701275 Z M286.176,82.475675 C287.3952,82.475675 288.048,81.851675 288.048,81.054875 C288.048,79.989275 287.088,79.768475 286.2816,79.586075 C285.7056,79.451675 285.2064,79.317275 285.2064,78.914075 C285.2064,78.539675 285.5712,78.309275 286.1568,78.309275 C286.7424,78.309275 287.2608,78.549275 287.5296,78.875675 L287.9136,78.270875 C287.52,77.896475 286.944,77.608475 286.1472,77.608475 C285.0144,77.608475 284.3808,78.242075 284.3808,78.981275 C284.3808,79.979675 285.3024,80.190875 286.0896,80.373275 C286.6848,80.507675 287.2128,80.661275 287.2128,81.122075 C287.2128,81.515675 286.8672,81.784475 286.2144,81.784475 C285.5904,81.784475 284.976,81.467675 284.6592,81.122075 L284.2464,81.755675 C284.7168,82.235675 285.3984,82.475675 286.176,82.475675 Z M290.6688,82.475675 C291.888,82.475675 292.5408,81.851675 292.5408,81.054875 C292.5408,79.989275 291.5808,79.768475 290.7744,79.586075 C290.1984,79.451675 289.6992,79.317275 289.6992,78.914075 C289.6992,78.539675 290.064,78.309275 290.6496,78.309275 C291.2352,78.309275 291.7536,78.549275 292.0224,78.875675 L292.4064,78.270875 C292.0128,77.896475 291.4368,77.608475 290.64,77.608475 C289.5072,77.608475 288.8736,78.242075 288.8736,78.981275 C288.8736,79.979675 289.7952,80.190875 290.5824,80.373275 C291.1776,80.507675 291.7056,80.661275 291.7056,81.122075 C291.7056,81.515675 291.36,81.784475 290.7072,81.784475 C290.0832,81.784475 289.4688,81.467675 289.152,81.122075 L288.7392,81.755675 C289.2096,82.235675 289.8912,82.475675 290.6688,82.475675 Z" id="SalesProcess" fill="#1F3966" fill-rule="nonzero"></path>
        <path d="M235.5456,43.360475 L235.5456,40.816475 L237.3216,40.816475 C238.5888,40.816475 239.328,39.933275 239.328,38.886875 C239.328,37.840475 238.608,36.957275 237.3216,36.957275 L234.7488,36.957275 L234.7488,43.360475 L235.5456,43.360475 Z M237.2256,40.106075 L235.5456,40.106075 L235.5456,37.667675 L237.2256,37.667675 C237.984,37.667675 238.5024,38.166875 238.5024,38.886875 C238.5024,39.606875 237.984,40.106075 237.2256,40.106075 Z M241.7184,43.475675 C242.3424,43.475675 242.8704,43.254875 243.2544,42.832475 L243.2544,43.360475 L243.9744,43.360475 L243.9744,40.173275 C243.9744,39.050075 243.1584,38.608475 242.1792,38.608475 C241.4208,38.608475 240.8256,38.858075 240.3264,39.376475 L240.6624,39.875675 C241.0752,39.434075 241.5264,39.232475 242.0832,39.232475 C242.7552,39.232475 243.2544,39.587675 243.2544,40.211675 L243.2544,41.046875 C242.88,40.614875 242.352,40.413275 241.7184,40.413275 C240.9312,40.413275 240.096,40.902875 240.096,41.939675 C240.096,42.947675 240.9312,43.475675 241.7184,43.475675 Z M241.9776,42.957275 C241.3056,42.957275 240.8352,42.534875 240.8352,41.949275 C240.8352,41.354075 241.3056,40.931675 241.9776,40.931675 C242.4864,40.931675 242.976,41.123675 243.2544,41.507675 L243.2544,42.381275 C242.976,42.765275 242.4864,42.957275 241.9776,42.957275 Z M246.1344,43.360475 L246.1344,40.077275 C246.3456,39.702875 246.9504,39.338075 247.392,39.338075 C247.5072,39.338075 247.5936,39.347675 247.68,39.366875 L247.68,38.627675 C247.0464,38.627675 246.5088,38.982875 246.1344,39.472475 L246.1344,38.723675 L245.4144,38.723675 L245.4144,43.360475 L246.1344,43.360475 Z M249.7536,43.475675 C250.176,43.475675 250.4352,43.350875 250.6176,43.178075 L250.4064,42.640475 C250.3104,42.746075 250.1184,42.832475 249.9168,42.832475 C249.6,42.832475 249.4464,42.582875 249.4464,42.237275 L249.4464,39.357275 L250.3872,39.357275 L250.3872,38.723675 L249.4464,38.723675 L249.4464,37.456475 L248.7264,37.456475 L248.7264,38.723675 L247.9584,38.723675 L247.9584,39.357275 L248.7264,39.357275 L248.7264,42.390875 C248.7264,43.082075 249.072,43.475675 249.7536,43.475675 Z M252.1248,43.360475 L252.1248,39.971675 C252.3936,39.597275 252.9312,39.251675 253.4976,39.251675 C254.1216,39.251675 254.5344,39.510875 254.5344,40.326875 L254.5344,43.360475 L255.2544,43.360475 L255.2544,40.106075 C255.2544,39.098075 254.7456,38.608475 253.776,38.608475 C253.0848,38.608475 252.4512,39.011675 252.1248,39.395675 L252.1248,38.723675 L251.4048,38.723675 L251.4048,43.360475 L252.1248,43.360475 Z M258.7872,43.475675 C259.5456,43.475675 260.1696,43.226075 260.6304,42.765275 L260.2848,42.294875 C259.92,42.669275 259.3824,42.880475 258.8544,42.880475 C257.856,42.880475 257.2416,42.150875 257.184,41.277275 L260.9376,41.277275 L260.9376,41.094875 C260.9376,39.702875 260.112,38.608475 258.7104,38.608475 C257.3856,38.608475 256.4256,39.693275 256.4256,41.037275 C256.4256,42.486875 257.4144,43.475675 258.7872,43.475675 Z M260.2272,40.749275 L257.184,40.749275 C257.2224,40.038875 257.712,39.203675 258.7008,39.203675 C259.7568,39.203675 260.2176,40.058075 260.2272,40.749275 Z M262.8192,43.360475 L262.8192,40.077275 C263.0304,39.702875 263.6352,39.338075 264.0768,39.338075 C264.192,39.338075 264.2784,39.347675 264.3648,39.366875 L264.3648,38.627675 C263.7312,38.627675 263.1936,38.982875 262.8192,39.472475 L262.8192,38.723675 L262.0992,38.723675 L262.0992,43.360475 L262.8192,43.360475 Z M271.968,43.360475 L271.968,42.650075 L268.5696,42.650075 L268.5696,40.442075 L271.9008,40.442075 L271.9008,39.731675 L268.5696,39.731675 L268.5696,37.667675 L271.968,37.667675 L271.968,36.957275 L267.7728,36.957275 L267.7728,43.360475 L271.968,43.360475 Z M273.9264,43.360475 L273.9264,39.971675 C274.1952,39.597275 274.7328,39.251675 275.2992,39.251675 C275.9232,39.251675 276.336,39.510875 276.336,40.326875 L276.336,43.360475 L277.056,43.360475 L277.056,40.106075 C277.056,39.098075 276.5472,38.608475 275.5776,38.608475 C274.8864,38.608475 274.2528,39.011675 273.9264,39.395675 L273.9264,38.723675 L273.2064,38.723675 L273.2064,43.360475 L273.9264,43.360475 Z M279.8592,43.475675 C280.4832,43.475675 281.0112,43.254875 281.3952,42.832475 L281.3952,43.360475 L282.1152,43.360475 L282.1152,40.173275 C282.1152,39.050075 281.2992,38.608475 280.32,38.608475 C279.5616,38.608475 278.9664,38.858075 278.4672,39.376475 L278.8032,39.875675 C279.216,39.434075 279.6672,39.232475 280.224,39.232475 C280.896,39.232475 281.3952,39.587675 281.3952,40.211675 L281.3952,41.046875 C281.0208,40.614875 280.4928,40.413275 279.8592,40.413275 C279.072,40.413275 278.2368,40.902875 278.2368,41.939675 C278.2368,42.947675 279.072,43.475675 279.8592,43.475675 Z M280.1184,42.957275 C279.4464,42.957275 278.976,42.534875 278.976,41.949275 C278.976,41.354075 279.4464,40.931675 280.1184,40.931675 C280.6272,40.931675 281.1168,41.123675 281.3952,41.507675 L281.3952,42.381275 C281.1168,42.765275 280.6272,42.957275 280.1184,42.957275 Z M285.84,43.475675 C287.0496,43.475675 287.904,42.554075 287.904,41.046875 C287.904,39.568475 287.0496,38.608475 285.84,38.608475 C285.2064,38.608475 284.6496,38.915675 284.2752,39.424475 L284.2752,36.957275 L283.5552,36.957275 L283.5552,43.360475 L284.2752,43.360475 L284.2752,42.669275 C284.6208,43.139675 285.1872,43.475675 285.84,43.475675 Z M285.6576,42.832475 C285.0912,42.832475 284.5248,42.506075 284.2752,42.102875 L284.2752,40.000475 C284.5248,39.597275 285.0912,39.251675 285.6576,39.251675 C286.5984,39.251675 287.1552,40.019675 287.1552,41.046875 C287.1552,42.074075 286.5984,42.832475 285.6576,42.832475 Z M289.7952,43.360475 L289.7952,36.957275 L289.0752,36.957275 L289.0752,43.360475 L289.7952,43.360475 Z M293.328,43.475675 C294.0864,43.475675 294.7104,43.226075 295.1712,42.765275 L294.8256,42.294875 C294.4608,42.669275 293.9232,42.880475 293.3952,42.880475 C292.3968,42.880475 291.7824,42.150875 291.7248,41.277275 L295.4784,41.277275 L295.4784,41.094875 C295.4784,39.702875 294.6528,38.608475 293.2512,38.608475 C291.9264,38.608475 290.9664,39.693275 290.9664,41.037275 C290.9664,42.486875 291.9552,43.475675 293.328,43.475675 Z M294.768,40.749275 L291.7248,40.749275 C291.7632,40.038875 292.2528,39.203675 293.2416,39.203675 C294.2976,39.203675 294.7584,40.058075 294.768,40.749275 Z M297.36,43.360475 L297.36,39.971675 C297.6096,39.597275 298.1088,39.251675 298.5792,39.251675 C299.184,39.251675 299.4336,39.626075 299.4336,40.211675 L299.4336,43.360475 L300.1536,43.360475 L300.1536,39.962075 C300.3936,39.597275 300.9024,39.251675 301.3824,39.251675 C301.9776,39.251675 302.2368,39.626075 302.2368,40.211675 L302.2368,43.360475 L302.9568,43.360475 L302.9568,40.010075 C302.9568,39.078875 302.5056,38.608475 301.6608,38.608475 C300.9888,38.608475 300.3648,39.050075 300.1056,39.472475 C299.9712,38.992475 299.568,38.608475 298.8576,38.608475 C298.176,38.608475 297.552,39.098075 297.36,39.395675 L297.36,38.723675 L296.64,38.723675 L296.64,43.360475 L297.36,43.360475 Z M306.4896,43.475675 C307.248,43.475675 307.872,43.226075 308.3328,42.765275 L307.9872,42.294875 C307.6224,42.669275 307.0848,42.880475 306.5568,42.880475 C305.5584,42.880475 304.944,42.150875 304.8864,41.277275 L308.64,41.277275 L308.64,41.094875 C308.64,39.702875 307.8144,38.608475 306.4128,38.608475 C305.088,38.608475 304.128,39.693275 304.128,41.037275 C304.128,42.486875 305.1168,43.475675 306.4896,43.475675 Z M307.9296,40.749275 L304.8864,40.749275 C304.9248,40.038875 305.4144,39.203675 306.4032,39.203675 C307.4592,39.203675 307.92,40.058075 307.9296,40.749275 Z M310.5216,43.360475 L310.5216,39.971675 C310.7904,39.597275 311.328,39.251675 311.8944,39.251675 C312.5184,39.251675 312.9312,39.510875 312.9312,40.326875 L312.9312,43.360475 L313.6512,43.360475 L313.6512,40.106075 C313.6512,39.098075 313.1424,38.608475 312.1728,38.608475 C311.4816,38.608475 310.848,39.011675 310.5216,39.395675 L310.5216,38.723675 L309.8016,38.723675 L309.8016,43.360475 L310.5216,43.360475 Z M316.2624,43.475675 C316.6848,43.475675 316.944,43.350875 317.1264,43.178075 L316.9152,42.640475 C316.8192,42.746075 316.6272,42.832475 316.4256,42.832475 C316.1088,42.832475 315.9552,42.582875 315.9552,42.237275 L315.9552,39.357275 L316.896,39.357275 L316.896,38.723675 L315.9552,38.723675 L315.9552,37.456475 L315.2352,37.456475 L315.2352,38.723675 L314.4672,38.723675 L314.4672,39.357275 L315.2352,39.357275 L315.2352,42.390875 C315.2352,43.082075 315.5808,43.475675 316.2624,43.475675 Z" id="PartnerEnablement" fill="#29CC96" fill-rule="nonzero"></path>
        <rect id="Rectangle" fill="#F2F3F5" x="234" y="95.360475" width="197" height="4"></rect>
        <rect id="Rectangle-Copy" fill="#F2F3F5" x="234" y="104.360475" width="197" height="4"></rect>
        <rect id="Rectangle-Copy-2" fill="#F2F3F5" x="234" y="113.360475" width="197" height="4"></rect>
        <rect id="Rectangle-Copy-3" fill="#F2F3F5" x="234" y="129.360475" width="177" height="88" rx="2.4"></rect>
        <line x1="204" y1="55.860475" x2="457" y2="55.860475" id="Line-Copy-53" stroke="#DADEE6" stroke-width="0.55999999"></line>
        <g id="Rectangle">
            <use fill="black" fill-opacity="1" filter="url(#filter-6)" xlink:href="#path-5"></use>
            <use stroke="#F2F3F5" stroke-width="0.8" fill="#FFFFFF" xlink:href="#path-5"></use>
        </g>
        <rect id="Rectangle-Copy-7" fill="#E9EBF0" x="81" y="214.360475" width="159.157895" height="34" rx="2.4"></rect>
        <g id="verification/dot/trusted/selected" transform="translate(88.578947, 222.860475)">
            <g id="Group" transform="translate(3.368421, 3.400000)">
                <rect id="Rectangle-3" stroke="#29CC96" stroke-width="0.8" fill="#29CC96" x="0" y="0" width="10.1052632" height="10.2" rx="4.8"></rect>
                <path d="M7.2467647,2.90502333 C6.16887359,4.06088515 5.18718557,5.20129844 4.13957052,6.33986819 L2.81427043,5.20587232 C2.72398518,5.12838938 2.60857417,5.09283795 2.49358618,5.10651175 C2.37859819,5.12018556 2.27341149,5.18217215 2.20100842,5.2788024 C2.05024954,5.4802632 2.08090719,5.77424009 2.26914864,5.93513103 L3.904514,7.33529878 C4.07870222,7.48433497 4.33038495,7.46883978 4.48711836,7.29883608 C5.6591302,6.04183548 6.71274159,4.80245366 7.86687344,3.56505541 C7.99719026,3.4306043 8.03594841,3.22412623 7.96482528,3.04591988 C7.89370434,2.86771353 7.72718489,2.75512837 7.54661875,2.76287597 C7.43329447,2.76645923 7.3255566,2.81750701 7.2467647,2.90502333 Z" id="Fill-1" fill="#FFFFFF"></path>
            </g>
        </g>
        <path d="M116.3936,235.1344 C118.4096,235.1344 119.384,234.104 119.384,232.7376 C119.384,231.08 117.816,230.7104 116.584,230.4304 C115.7216,230.2288 115.0944,230.072 115.0944,229.568 C115.0944,229.12 115.4752,228.8064 116.192,228.8064 C116.92,228.8064 117.7264,229.064 118.3312,229.624 L119.216,228.4592 C118.4768,227.776 117.4912,227.4176 116.304,227.4176 C114.5456,227.4176 113.4704,228.4256 113.4704,229.6688 C113.4704,231.3376 115.0384,231.6736 116.2592,231.9536 C117.1216,232.1552 117.7712,232.3456 117.7712,232.9056 C117.7712,233.3312 117.3456,233.7456 116.472,233.7456 C115.4416,233.7456 114.624,233.2864 114.0976,232.7376 L113.224,233.9472 C113.9296,234.6528 114.96,235.1344 116.3936,235.1344 Z M121.96,235.1344 C122.6656,235.1344 123.304,234.8768 123.6736,234.44 L123.6736,235 L125.096,235 L125.096,231.5056 C125.096,229.9488 123.9648,229.456 122.7328,229.456 C121.8816,229.456 121.0304,229.7248 120.3696,230.3072 L120.9072,231.2592 C121.3664,230.8336 121.904,230.6208 122.4864,230.6208 C123.2032,230.6208 123.6736,230.9792 123.6736,231.528 L123.6736,232.2784 C123.3152,231.8416 122.6768,231.6176 121.96,231.6176 C121.0976,231.6176 120.0784,232.0768 120.0784,233.3424 C120.0784,234.552 121.0976,235.1344 121.96,235.1344 Z M122.5312,234.1712 C121.9712,234.1712 121.512,233.88 121.512,233.376 C121.512,232.8496 121.9712,232.5584 122.5312,232.5584 C122.9904,232.5584 123.4384,232.7152 123.6736,233.0288 L123.6736,233.7008 C123.4384,234.0144 122.9904,234.1712 122.5312,234.1712 Z M127.9296,235 L127.9296,227.5296 L126.5072,227.5296 L126.5072,235 L127.9296,235 Z M131.8832,235.1344 C132.7232,235.1344 133.5744,234.8768 134.112,234.384 L133.4848,233.4656 C133.1376,233.8016 132.544,234.0032 132.04,234.0032 C131.1216,234.0032 130.5728,233.432 130.4832,232.7488 L134.504,232.7488 L134.504,232.4352 C134.504,230.6656 133.4064,229.456 131.7936,229.456 C130.1472,229.456 128.9936,230.7216 128.9936,232.2896 C128.9936,234.0256 130.2368,235.1344 131.8832,235.1344 Z M133.1264,231.7856 L130.4608,231.7856 C130.528,231.248 130.9088,230.5872 131.7936,230.5872 C132.7344,230.5872 133.0928,231.2704 133.1264,231.7856 Z M137.4832,235.1344 C138.984,235.1344 139.824,234.384 139.824,233.3984 C139.824,232.0544 138.5808,231.808 137.6512,231.6288 C137.0464,231.5056 136.6208,231.3824 136.6208,231.0464 C136.6208,230.7328 136.9568,230.5424 137.472,230.5424 C138.1328,230.5424 138.7488,230.8224 139.0736,231.1696 L139.6448,230.1952 C139.1072,229.7696 138.3792,229.456 137.4608,229.456 C136.0384,229.456 135.2432,230.2512 135.2432,231.1584 C135.2432,232.4464 136.4416,232.6704 137.3712,232.8496 C137.9872,232.9728 138.4576,233.1072 138.4576,233.488 C138.4576,233.824 138.1664,234.0368 137.5504,234.0368 C136.8784,234.0368 136.072,233.6672 135.68,233.2976 L135.064,234.2944 C135.6352,234.8208 136.5424,235.1344 137.4832,235.1344 Z M145.368,235 L145.368,232.3232 L147.272,232.3232 C148.8848,232.3232 149.7808,231.2368 149.7808,229.9376 C149.7808,228.6272 148.896,227.5296 147.272,227.5296 L143.7776,227.5296 L143.7776,235 L145.368,235 Z M147.0592,230.9568 L145.368,230.9568 L145.368,228.896 L147.0592,228.896 C147.6864,228.896 148.1568,229.3104 148.1568,229.9264 C148.1568,230.5536 147.6864,230.9568 147.0592,230.9568 Z M152.1552,235 L152.1552,231.4272 C152.3904,231.08 153.0176,230.8112 153.488,230.8112 C153.6448,230.8112 153.7792,230.8336 153.88,230.856 L153.88,229.4672 C153.208,229.4672 152.536,229.848 152.1552,230.3296 L152.1552,229.5904 L150.7328,229.5904 L150.7328,235 L152.1552,235 Z M157.2736,235.1344 C159.0656,235.1344 160.1408,233.8352 160.1408,232.2896 C160.1408,230.7552 159.0656,229.456 157.2736,229.456 C155.4928,229.456 154.4176,230.7552 154.4176,232.2896 C154.4176,233.8352 155.4928,235.1344 157.2736,235.1344 Z M157.2736,233.8688 C156.3888,233.8688 155.896,233.1408 155.896,232.2896 C155.896,231.4496 156.3888,230.7216 157.2736,230.7216 C158.1584,230.7216 158.6624,231.4496 158.6624,232.2896 C158.6624,233.1408 158.1584,233.8688 157.2736,233.8688 Z M163.7136,235.1344 C164.8224,235.1344 165.4944,234.6528 165.8528,234.1488 L164.9232,233.2864 C164.6656,233.6448 164.2736,233.8688 163.7808,233.8688 C162.9184,233.8688 162.3136,233.2304 162.3136,232.2896 C162.3136,231.3488 162.9184,230.7216 163.7808,230.7216 C164.2736,230.7216 164.6656,230.9232 164.9232,231.304 L165.8528,230.4304 C165.4944,229.9376 164.8224,229.456 163.7136,229.456 C162.0448,229.456 160.8464,230.632 160.8464,232.2896 C160.8464,233.9584 162.0448,235.1344 163.7136,235.1344 Z M169.3248,235.1344 C170.1648,235.1344 171.016,234.8768 171.5536,234.384 L170.9264,233.4656 C170.5792,233.8016 169.9856,234.0032 169.4816,234.0032 C168.5632,234.0032 168.0144,233.432 167.9248,232.7488 L171.9456,232.7488 L171.9456,232.4352 C171.9456,230.6656 170.848,229.456 169.2352,229.456 C167.5888,229.456 166.4352,230.7216 166.4352,232.2896 C166.4352,234.0256 167.6784,235.1344 169.3248,235.1344 Z M170.568,231.7856 L167.9024,231.7856 C167.9696,231.248 168.3504,230.5872 169.2352,230.5872 C170.176,230.5872 170.5344,231.2704 170.568,231.7856 Z M174.9248,235.1344 C176.4256,235.1344 177.2656,234.384 177.2656,233.3984 C177.2656,232.0544 176.0224,231.808 175.0928,231.6288 C174.488,231.5056 174.0624,231.3824 174.0624,231.0464 C174.0624,230.7328 174.3984,230.5424 174.9136,230.5424 C175.5744,230.5424 176.1904,230.8224 176.5152,231.1696 L177.0864,230.1952 C176.5488,229.7696 175.8208,229.456 174.9024,229.456 C173.48,229.456 172.6848,230.2512 172.6848,231.1584 C172.6848,232.4464 173.8832,232.6704 174.8128,232.8496 C175.4288,232.9728 175.8992,233.1072 175.8992,233.488 C175.8992,233.824 175.608,234.0368 174.992,234.0368 C174.32,234.0368 173.5136,233.6672 173.1216,233.2976 L172.5056,234.2944 C173.0768,234.8208 173.984,235.1344 174.9248,235.1344 Z M180.2672,235.1344 C181.768,235.1344 182.608,234.384 182.608,233.3984 C182.608,232.0544 181.3648,231.808 180.4352,231.6288 C179.8304,231.5056 179.4048,231.3824 179.4048,231.0464 C179.4048,230.7328 179.7408,230.5424 180.256,230.5424 C180.9168,230.5424 181.5328,230.8224 181.8576,231.1696 L182.4288,230.1952 C181.8912,229.7696 181.1632,229.456 180.2448,229.456 C178.8224,229.456 178.0272,230.2512 178.0272,231.1584 C178.0272,232.4464 179.2256,232.6704 180.1552,232.8496 C180.7712,232.9728 181.2416,233.1072 181.2416,233.488 C181.2416,233.824 180.9504,234.0368 180.3344,234.0368 C179.6624,234.0368 178.856,233.6672 178.464,233.2976 L177.848,234.2944 C178.4192,234.8208 179.3264,235.1344 180.2672,235.1344 Z" id="SalesProcess" fill="#1F3966" fill-rule="nonzero"></path>
        <g id="verification/dot/trusted/active" transform="translate(89.000000, 152.360475)">
            <g id="Group" transform="translate(3.364948, 3.400000)">
                <rect id="Rectangle-3" stroke="#29CC96" stroke-width="0.8" fill="#F2FFFB" x="0" y="0" width="10.0948454" height="10.2" rx="4.8"></rect>
                <path d="M7.23929381,2.90502333 C6.16251392,4.06088515 5.18183795,5.20129844 4.13530292,6.33986819 L2.81136912,5.20587232 C2.72117695,5.12838938 2.60588492,5.09283795 2.49101548,5.10651175 C2.37614603,5.12018556 2.27106777,5.18217215 2.19873934,5.2788024 C2.04813588,5.4802632 2.07876192,5.77424009 2.26680931,5.93513103 L3.90048873,7.33529878 C4.07449737,7.48433497 4.32592063,7.46883978 4.48249247,7.29883608 C5.65329605,6.04183548 6.70582124,4.80245366 7.85876326,3.56505541 C7.98894573,3.4306043 8.02766393,3.22412623 7.95661412,3.04591988 C7.8855665,2.86771353 7.71921872,2.75512837 7.53883873,2.76287597 C7.42563128,2.76645923 7.31800448,2.81750701 7.23929381,2.90502333 Z" id="Fill-1" fill="#29CC96"></path>
            </g>
        </g>
        <path d="M116.688676,163.794875 C118.704676,163.794875 119.443876,162.686075 119.443876,161.599675 C119.443876,160.031675 118.055076,159.650875 116.834276,159.326075 C115.882276,159.068475 115.019876,158.844475 115.019876,158.094075 C115.019876,157.388475 115.658276,156.906875 116.554276,156.906875 C117.371876,156.906875 118.155876,157.186875 118.715876,157.802875 L119.275876,157.119675 C118.648676,156.458875 117.763876,156.078075 116.621476,156.078075 C115.154276,156.078075 114.056676,156.918075 114.056676,158.150075 C114.056676,159.617275 115.389476,159.953275 116.587876,160.266875 C117.573476,160.535675 118.480676,160.782075 118.480676,161.678075 C118.480676,162.249275 118.055076,162.966075 116.722276,162.966075 C115.669476,162.966075 114.863076,162.450875 114.370276,161.902075 L113.821476,162.607675 C114.437476,163.302075 115.389476,163.794875 116.688676,163.794875 Z M122.523876,163.794875 C123.330276,163.794875 124.035876,163.369275 124.450276,162.898875 L124.450276,163.660475 L125.290276,163.660475 L125.290276,158.250875 L124.450276,158.250875 L124.450276,162.226875 C124.136676,162.663675 123.509476,163.044475 122.848676,163.044475 C122.120676,163.044475 121.639076,162.764475 121.639076,161.812475 L121.639076,158.250875 L120.799076,158.250875 L120.799076,162.070075 C120.799076,163.246075 121.392676,163.794875 122.523876,163.794875 Z M127.810276,165.721275 L127.810276,162.842875 C128.247076,163.447675 128.896676,163.794875 129.635876,163.794875 C131.058276,163.794875 132.043876,162.697275 132.043876,160.950075 C132.043876,159.191675 131.058276,158.116475 129.635876,158.116475 C128.874276,158.116475 128.202276,158.508475 127.810276,159.057275 L127.810276,158.250875 L126.970276,158.250875 L126.970276,165.721275 L127.810276,165.721275 Z M129.423076,163.044475 C128.762276,163.044475 128.101476,162.641275 127.810276,162.170875 L127.810276,159.729275 C128.101476,159.258875 128.762276,158.866875 129.423076,158.866875 C130.509476,158.866875 131.159076,159.751675 131.159076,160.950075 C131.159076,162.148475 130.509476,163.044475 129.423076,163.044475 Z M134.239076,165.721275 L134.239076,162.842875 C134.675876,163.447675 135.325476,163.794875 136.064676,163.794875 C137.487076,163.794875 138.472676,162.697275 138.472676,160.950075 C138.472676,159.191675 137.487076,158.116475 136.064676,158.116475 C135.303076,158.116475 134.631076,158.508475 134.239076,159.057275 L134.239076,158.250875 L133.399076,158.250875 L133.399076,165.721275 L134.239076,165.721275 Z M135.851876,163.044475 C135.191076,163.044475 134.530276,162.641275 134.239076,162.170875 L134.239076,159.729275 C134.530276,159.258875 135.191076,158.866875 135.851876,158.866875 C136.938276,158.866875 137.587876,159.751675 137.587876,160.950075 C137.587876,162.148475 136.938276,163.044475 135.851876,163.044475 Z M142.191076,163.794875 C143.837476,163.794875 144.867876,162.518075 144.867876,160.950075 C144.867876,159.382075 143.837476,158.116475 142.191076,158.116475 C140.544676,158.116475 139.514276,159.382075 139.514276,160.950075 C139.514276,162.518075 140.544676,163.794875 142.191076,163.794875 Z M142.191076,163.044475 C141.037476,163.044475 140.387876,162.058875 140.387876,160.950075 C140.387876,159.852475 141.037476,158.866875 142.191076,158.866875 C143.344676,158.866875 143.983076,159.852475 143.983076,160.950075 C143.983076,162.058875 143.344676,163.044475 142.191076,163.044475 Z M147.074276,163.660475 L147.074276,159.830075 C147.320676,159.393275 148.026276,158.967675 148.541476,158.967675 C148.675876,158.967675 148.776676,158.978875 148.877476,159.001275 L148.877476,158.138875 C148.138276,158.138875 147.511076,158.553275 147.074276,159.124475 L147.074276,158.250875 L146.234276,158.250875 L146.234276,163.660475 L147.074276,163.660475 Z M151.296676,163.794875 C151.789476,163.794875 152.091876,163.649275 152.304676,163.447675 L152.058276,162.820475 C151.946276,162.943675 151.722276,163.044475 151.487076,163.044475 C151.117476,163.044475 150.938276,162.753275 150.938276,162.350075 L150.938276,158.990075 L152.035876,158.990075 L152.035876,158.250875 L150.938276,158.250875 L150.938276,156.772475 L150.098276,156.772475 L150.098276,158.250875 L149.202276,158.250875 L149.202276,158.990075 L150.098276,158.990075 L150.098276,162.529275 C150.098276,163.335675 150.501476,163.794875 151.296676,163.794875 Z M157.703076,163.794875 C158.431076,163.794875 159.047076,163.537275 159.495076,163.044475 L159.495076,163.660475 L160.335076,163.660475 L160.335076,159.942075 C160.335076,158.631675 159.383076,158.116475 158.240676,158.116475 C157.355876,158.116475 156.661476,158.407675 156.079076,159.012475 L156.471076,159.594875 C156.952676,159.079675 157.479076,158.844475 158.128676,158.844475 C158.912676,158.844475 159.495076,159.258875 159.495076,159.986875 L159.495076,160.961275 C159.058276,160.457275 158.442276,160.222075 157.703076,160.222075 C156.784676,160.222075 155.810276,160.793275 155.810276,162.002875 C155.810276,163.178875 156.784676,163.794875 157.703076,163.794875 Z M158.005476,163.190075 C157.221476,163.190075 156.672676,162.697275 156.672676,162.014075 C156.672676,161.319675 157.221476,160.826875 158.005476,160.826875 C158.599076,160.826875 159.170276,161.050875 159.495076,161.498875 L159.495076,162.518075 C159.170276,162.966075 158.599076,163.190075 158.005476,163.190075 Z M162.855076,163.660475 L162.855076,159.706875 C163.168676,159.270075 163.795876,158.866875 164.456676,158.866875 C165.184676,158.866875 165.666276,159.169275 165.666276,160.121275 L165.666276,163.660475 L166.506276,163.660475 L166.506276,159.863675 C166.506276,158.687675 165.912676,158.116475 164.781476,158.116475 C163.975076,158.116475 163.235876,158.586875 162.855076,159.034875 L162.855076,158.250875 L162.015076,158.250875 L162.015076,163.660475 L162.855076,163.660475 Z M170.280676,163.794875 C171.042276,163.794875 171.703076,163.402875 172.106276,162.854075 L172.106276,163.660475 L172.946276,163.660475 L172.946276,156.190075 L172.106276,156.190075 L172.106276,159.068475 C171.669476,158.474875 171.008676,158.116475 170.280676,158.116475 C168.858276,158.116475 167.872676,159.236475 167.872676,160.961275 C167.872676,162.719675 168.869476,163.794875 170.280676,163.794875 Z M170.482276,163.044475 C169.395876,163.044475 168.746276,162.159675 168.746276,160.961275 C168.746276,159.762875 169.395876,158.866875 170.482276,158.866875 C171.154276,158.866875 171.803876,159.270075 172.106276,159.740475 L172.106276,162.193275 C171.803876,162.663675 171.154276,163.044475 170.482276,163.044475 Z M179.968676,163.794875 C181.984676,163.794875 182.723876,162.686075 182.723876,161.599675 C182.723876,160.031675 181.335076,159.650875 180.114276,159.326075 C179.162276,159.068475 178.299876,158.844475 178.299876,158.094075 C178.299876,157.388475 178.938276,156.906875 179.834276,156.906875 C180.651876,156.906875 181.435876,157.186875 181.995876,157.802875 L182.555876,157.119675 C181.928676,156.458875 181.043876,156.078075 179.901476,156.078075 C178.434276,156.078075 177.336676,156.918075 177.336676,158.150075 C177.336676,159.617275 178.669476,159.953275 179.867876,160.266875 C180.853476,160.535675 181.760676,160.782075 181.760676,161.678075 C181.760676,162.249275 181.335076,162.966075 180.002276,162.966075 C178.949476,162.966075 178.143076,162.450875 177.650276,161.902075 L177.101476,162.607675 C177.717476,163.302075 178.669476,163.794875 179.968676,163.794875 Z M185.803876,163.794875 C186.610276,163.794875 187.315876,163.369275 187.730276,162.898875 L187.730276,163.660475 L188.570276,163.660475 L188.570276,158.250875 L187.730276,158.250875 L187.730276,162.226875 C187.416676,162.663675 186.789476,163.044475 186.128676,163.044475 C185.400676,163.044475 184.919076,162.764475 184.919076,161.812475 L184.919076,158.250875 L184.079076,158.250875 L184.079076,162.070075 C184.079076,163.246075 184.672676,163.794875 185.803876,163.794875 Z M192.635876,163.794875 C193.621476,163.794875 194.203876,163.391675 194.618276,162.854075 L194.058276,162.338875 C193.699876,162.820475 193.240676,163.044475 192.680676,163.044475 C191.527076,163.044475 190.810276,162.148475 190.810276,160.950075 C190.810276,159.751675 191.527076,158.866875 192.680676,158.866875 C193.240676,158.866875 193.699876,159.079675 194.058276,159.572475 L194.618276,159.057275 C194.203876,158.519675 193.621476,158.116475 192.635876,158.116475 C191.023076,158.116475 189.936676,159.348475 189.936676,160.950075 C189.936676,162.562875 191.023076,163.794875 192.635876,163.794875 Z M198.179876,163.794875 C199.165476,163.794875 199.747876,163.391675 200.162276,162.854075 L199.602276,162.338875 C199.243876,162.820475 198.784676,163.044475 198.224676,163.044475 C197.071076,163.044475 196.354276,162.148475 196.354276,160.950075 C196.354276,159.751675 197.071076,158.866875 198.224676,158.866875 C198.784676,158.866875 199.243876,159.079675 199.602276,159.572475 L200.162276,159.057275 C199.747876,158.519675 199.165476,158.116475 198.179876,158.116475 C196.567076,158.116475 195.480676,159.348475 195.480676,160.950075 C195.480676,162.562875 196.567076,163.794875 198.179876,163.794875 Z M203.779876,163.794875 C204.664676,163.794875 205.392676,163.503675 205.930276,162.966075 L205.527076,162.417275 C205.101476,162.854075 204.474276,163.100475 203.858276,163.100475 C202.693476,163.100475 201.976676,162.249275 201.909476,161.230075 L206.288676,161.230075 L206.288676,161.017275 C206.288676,159.393275 205.325476,158.116475 203.690276,158.116475 C202.144676,158.116475 201.024676,159.382075 201.024676,160.950075 C201.024676,162.641275 202.178276,163.794875 203.779876,163.794875 Z M205.459876,160.614075 L201.909476,160.614075 C201.954276,159.785275 202.525476,158.810875 203.679076,158.810875 C204.911076,158.810875 205.448676,159.807675 205.459876,160.614075 Z M209.357476,163.794875 C210.757476,163.794875 211.485476,163.066875 211.485476,162.159675 C211.485476,160.961275 210.399076,160.692475 209.458276,160.479675 C208.752676,160.311675 208.136676,160.143675 208.136676,159.617275 C208.136676,159.135675 208.595876,158.799675 209.335076,158.799675 C210.029476,158.799675 210.623076,159.090875 210.947876,159.482875 L211.339876,158.900475 C210.903076,158.463675 210.253476,158.116475 209.335076,158.116475 C208.047076,158.116475 207.319076,158.833275 207.319076,159.673275 C207.319076,160.793275 208.360676,161.039675 209.279076,161.252475 C210.007076,161.431675 210.667876,161.622075 210.667876,162.215675 C210.667876,162.742075 210.219876,163.111675 209.391076,163.111675 C208.651876,163.111675 207.968676,162.753275 207.610276,162.338875 L207.173476,162.943675 C207.722276,163.526075 208.472676,163.794875 209.357476,163.794875 Z M214.565476,163.794875 C215.965476,163.794875 216.693476,163.066875 216.693476,162.159675 C216.693476,160.961275 215.607076,160.692475 214.666276,160.479675 C213.960676,160.311675 213.344676,160.143675 213.344676,159.617275 C213.344676,159.135675 213.803876,158.799675 214.543076,158.799675 C215.237476,158.799675 215.831076,159.090875 216.155876,159.482875 L216.547876,158.900475 C216.111076,158.463675 215.461476,158.116475 214.543076,158.116475 C213.255076,158.116475 212.527076,158.833275 212.527076,159.673275 C212.527076,160.793275 213.568676,161.039675 214.487076,161.252475 C215.215076,161.431675 215.875876,161.622075 215.875876,162.215675 C215.875876,162.742075 215.427876,163.111675 214.599076,163.111675 C213.859876,163.111675 213.176676,162.753275 212.818276,162.338875 L212.381476,162.943675 C212.930276,163.526075 213.680676,163.794875 214.565476,163.794875 Z" id="SupportandSuccess" fill="#1F3966" fill-rule="nonzero"></path>
        <g id="verification/dot/trusted/active" transform="translate(89.000000, 186.360475)">
            <g id="Group" transform="translate(3.368421, 3.400000)">
                <rect id="Rectangle-3" stroke="#29CC96" stroke-width="0.8" fill="#F2FFFB" x="0" y="0" width="10.1052632" height="10.2" rx="4.8"></rect>
                <path d="M7.2467647,2.90502333 C6.16887359,4.06088515 5.18718557,5.20129844 4.13957052,6.33986819 L2.81427043,5.20587232 C2.72398518,5.12838938 2.60857417,5.09283795 2.49358618,5.10651175 C2.37859819,5.12018556 2.27341149,5.18217215 2.20100842,5.2788024 C2.05024954,5.4802632 2.08090719,5.77424009 2.26914864,5.93513103 L3.904514,7.33529878 C4.07870222,7.48433497 4.33038495,7.46883978 4.48711836,7.29883608 C5.6591302,6.04183548 6.71274159,4.80245366 7.86687344,3.56505541 C7.99719026,3.4306043 8.03594841,3.22412623 7.96482528,3.04591988 C7.89370434,2.86771353 7.72718489,2.75512837 7.54661875,2.76287597 C7.43329447,2.76645923 7.3255566,2.81750701 7.2467647,2.90502333 Z" id="Fill-1" fill="#29CC96"></path>
            </g>
        </g>
        <path d="M115.224253,197.660475 L115.224253,194.692475 L117.296253,194.692475 C118.774653,194.692475 119.637053,193.662075 119.637053,192.441275 C119.637053,191.220475 118.797053,190.190075 117.296253,190.190075 L114.294653,190.190075 L114.294653,197.660475 L115.224253,197.660475 Z M117.184253,193.863675 L115.224253,193.863675 L115.224253,191.018875 L117.184253,191.018875 C118.069053,191.018875 118.673853,191.601275 118.673853,192.441275 C118.673853,193.281275 118.069053,193.863675 117.184253,193.863675 Z M123.277053,197.794875 C124.161853,197.794875 124.889853,197.503675 125.427453,196.966075 L125.024253,196.417275 C124.598653,196.854075 123.971453,197.100475 123.355453,197.100475 C122.190653,197.100475 121.473853,196.249275 121.406653,195.230075 L125.785853,195.230075 L125.785853,195.017275 C125.785853,193.393275 124.822653,192.116475 123.187453,192.116475 C121.641853,192.116475 120.521853,193.382075 120.521853,194.950075 C120.521853,196.641275 121.675453,197.794875 123.277053,197.794875 Z M124.957053,194.614075 L121.406653,194.614075 C121.451453,193.785275 122.022653,192.810875 123.176253,192.810875 C124.408253,192.810875 124.945853,193.807675 124.957053,194.614075 Z M127.981053,197.660475 L127.981053,193.830075 C128.227453,193.393275 128.933053,192.967675 129.448253,192.967675 C129.582653,192.967675 129.683453,192.978875 129.784253,193.001275 L129.784253,192.138875 C129.045053,192.138875 128.417853,192.553275 127.981053,193.124475 L127.981053,192.250875 L127.141053,192.250875 L127.141053,197.660475 L127.981053,197.660475 Z M132.550653,197.794875 C133.950653,197.794875 134.678653,197.066875 134.678653,196.159675 C134.678653,194.961275 133.592253,194.692475 132.651453,194.479675 C131.945853,194.311675 131.329853,194.143675 131.329853,193.617275 C131.329853,193.135675 131.789053,192.799675 132.528253,192.799675 C133.222653,192.799675 133.816253,193.090875 134.141053,193.482875 L134.533053,192.900475 C134.096253,192.463675 133.446653,192.116475 132.528253,192.116475 C131.240253,192.116475 130.512253,192.833275 130.512253,193.673275 C130.512253,194.793275 131.553853,195.039675 132.472253,195.252475 C133.200253,195.431675 133.861053,195.622075 133.861053,196.215675 C133.861053,196.742075 133.413053,197.111675 132.584253,197.111675 C131.845053,197.111675 131.161853,196.753275 130.803453,196.338875 L130.366653,196.943675 C130.915453,197.526075 131.665853,197.794875 132.550653,197.794875 Z M138.408253,197.794875 C140.054653,197.794875 141.085053,196.518075 141.085053,194.950075 C141.085053,193.382075 140.054653,192.116475 138.408253,192.116475 C136.761853,192.116475 135.731453,193.382075 135.731453,194.950075 C135.731453,196.518075 136.761853,197.794875 138.408253,197.794875 Z M138.408253,197.044475 C137.254653,197.044475 136.605053,196.058875 136.605053,194.950075 C136.605053,193.852475 137.254653,192.866875 138.408253,192.866875 C139.561853,192.866875 140.200253,193.852475 140.200253,194.950075 C140.200253,196.058875 139.561853,197.044475 138.408253,197.044475 Z M143.291453,197.660475 L143.291453,193.706875 C143.605053,193.270075 144.232253,192.866875 144.893053,192.866875 C145.621053,192.866875 146.102653,193.169275 146.102653,194.121275 L146.102653,197.660475 L146.942653,197.660475 L146.942653,193.863675 C146.942653,192.687675 146.349053,192.116475 145.217853,192.116475 C144.411453,192.116475 143.672253,192.586875 143.291453,193.034875 L143.291453,192.250875 L142.451453,192.250875 L142.451453,197.660475 L143.291453,197.660475 Z M150.213053,197.794875 C150.941053,197.794875 151.557053,197.537275 152.005053,197.044475 L152.005053,197.660475 L152.845053,197.660475 L152.845053,193.942075 C152.845053,192.631675 151.893053,192.116475 150.750653,192.116475 C149.865853,192.116475 149.171453,192.407675 148.589053,193.012475 L148.981053,193.594875 C149.462653,193.079675 149.989053,192.844475 150.638653,192.844475 C151.422653,192.844475 152.005053,193.258875 152.005053,193.986875 L152.005053,194.961275 C151.568253,194.457275 150.952253,194.222075 150.213053,194.222075 C149.294653,194.222075 148.320253,194.793275 148.320253,196.002875 C148.320253,197.178875 149.294653,197.794875 150.213053,197.794875 Z M150.515453,197.190075 C149.731453,197.190075 149.182653,196.697275 149.182653,196.014075 C149.182653,195.319675 149.731453,194.826875 150.515453,194.826875 C151.109053,194.826875 151.680253,195.050875 152.005053,195.498875 L152.005053,196.518075 C151.680253,196.966075 151.109053,197.190075 150.515453,197.190075 Z M156.238653,197.794875 C157.638653,197.794875 158.366653,197.066875 158.366653,196.159675 C158.366653,194.961275 157.280253,194.692475 156.339453,194.479675 C155.633853,194.311675 155.017853,194.143675 155.017853,193.617275 C155.017853,193.135675 155.477053,192.799675 156.216253,192.799675 C156.910653,192.799675 157.504253,193.090875 157.829053,193.482875 L158.221053,192.900475 C157.784253,192.463675 157.134653,192.116475 156.216253,192.116475 C154.928253,192.116475 154.200253,192.833275 154.200253,193.673275 C154.200253,194.793275 155.241853,195.039675 156.160253,195.252475 C156.888253,195.431675 157.549053,195.622075 157.549053,196.215675 C157.549053,196.742075 157.101053,197.111675 156.272253,197.111675 C155.533053,197.111675 154.849853,196.753275 154.491453,196.338875 L154.054653,196.943675 C154.603453,197.526075 155.353853,197.794875 156.238653,197.794875 Z" id="Personas" fill="#1F3966" fill-rule="nonzero"></path>
        <g id="verification/dot/trusted/active" transform="translate(88.000000, 260.360475)">
            <g id="Group" transform="translate(3.383607, 3.400000)">
                <rect id="Rectangle-3" stroke="#29CC96" stroke-width="0.8" fill="#F2FFFB" x="0" y="0" width="10.1508197" height="10.2" rx="4.8"></rect>
                <path d="M7.27943454,2.90502333 C6.19668408,4.06088515 5.21057042,5.20129844 4.15823252,6.33986819 L2.82695771,5.20587232 C2.73626544,5.12838938 2.62033414,5.09283795 2.50482776,5.10651175 C2.38932138,5.12018556 2.28366048,5.18217215 2.210931,5.2788024 C2.05949247,5.4802632 2.09028833,5.77424009 2.27937841,5.93513103 L3.92211632,7.33529878 C4.09708981,7.48433497 4.34990717,7.46883978 4.50734718,7.29883608 C5.68464268,6.04183548 6.74300395,4.80245366 7.90233885,3.56505541 C8.03324316,3.4306043 8.07217605,3.22412623 8.00073228,3.04591988 C7.92929071,2.86771353 7.76202056,2.75512837 7.58064039,2.76287597 C7.46680523,2.76645923 7.35858165,2.81750701 7.27943454,2.90502333 Z" id="Fill-1" fill="#29CC96"></path>
            </g>
        </g>
        <path d="M116.910348,271.794875 C118.265548,271.794875 119.161548,271.167675 119.788748,270.316475 L118.993548,269.879675 C118.567948,270.518075 117.795148,270.966075 116.910348,270.966075 C115.308748,270.966075 114.065548,269.700475 114.065548,267.930875 C114.065548,266.150075 115.308748,264.895675 116.910348,264.895675 C117.795148,264.895675 118.567948,265.354875 118.993548,265.982075 L119.777548,265.545275 C119.183948,264.705275 118.265548,264.066875 116.910348,264.066875 C114.793548,264.066875 113.102348,265.634875 113.102348,267.930875 C113.102348,270.226875 114.793548,271.794875 116.910348,271.794875 Z M122.667148,271.794875 C123.473548,271.794875 124.179148,271.369275 124.593548,270.898875 L124.593548,271.660475 L125.433548,271.660475 L125.433548,266.250875 L124.593548,266.250875 L124.593548,270.226875 C124.279948,270.663675 123.652748,271.044475 122.991948,271.044475 C122.263948,271.044475 121.782348,270.764475 121.782348,269.812475 L121.782348,266.250875 L120.942348,266.250875 L120.942348,270.070075 C120.942348,271.246075 121.535948,271.794875 122.667148,271.794875 Z M128.827148,271.794875 C130.227148,271.794875 130.955148,271.066875 130.955148,270.159675 C130.955148,268.961275 129.868748,268.692475 128.927948,268.479675 C128.222348,268.311675 127.606348,268.143675 127.606348,267.617275 C127.606348,267.135675 128.065548,266.799675 128.804748,266.799675 C129.499148,266.799675 130.092748,267.090875 130.417548,267.482875 L130.809548,266.900475 C130.372748,266.463675 129.723148,266.116475 128.804748,266.116475 C127.516748,266.116475 126.788748,266.833275 126.788748,267.673275 C126.788748,268.793275 127.830348,269.039675 128.748748,269.252475 C129.476748,269.431675 130.137548,269.622075 130.137548,270.215675 C130.137548,270.742075 129.689548,271.111675 128.860748,271.111675 C128.121548,271.111675 127.438348,270.753275 127.079948,270.338875 L126.643148,270.943675 C127.191948,271.526075 127.942348,271.794875 128.827148,271.794875 Z M133.687948,271.794875 C134.180748,271.794875 134.483148,271.649275 134.695948,271.447675 L134.449548,270.820475 C134.337548,270.943675 134.113548,271.044475 133.878348,271.044475 C133.508748,271.044475 133.329548,270.753275 133.329548,270.350075 L133.329548,266.990075 L134.427148,266.990075 L134.427148,266.250875 L133.329548,266.250875 L133.329548,264.772475 L132.489548,264.772475 L132.489548,266.250875 L131.593548,266.250875 L131.593548,266.990075 L132.489548,266.990075 L132.489548,270.529275 C132.489548,271.335675 132.892748,271.794875 133.687948,271.794875 Z M137.977548,271.794875 C139.623948,271.794875 140.654348,270.518075 140.654348,268.950075 C140.654348,267.382075 139.623948,266.116475 137.977548,266.116475 C136.331148,266.116475 135.300748,267.382075 135.300748,268.950075 C135.300748,270.518075 136.331148,271.794875 137.977548,271.794875 Z M137.977548,271.044475 C136.823948,271.044475 136.174348,270.058875 136.174348,268.950075 C136.174348,267.852475 136.823948,266.866875 137.977548,266.866875 C139.131148,266.866875 139.769548,267.852475 139.769548,268.950075 C139.769548,270.058875 139.131148,271.044475 137.977548,271.044475 Z M142.860748,271.660475 L142.860748,267.706875 C143.151948,267.270075 143.734348,266.866875 144.283148,266.866875 C144.988748,266.866875 145.279948,267.303675 145.279948,267.986875 L145.279948,271.660475 L146.119948,271.660475 L146.119948,267.695675 C146.399948,267.270075 146.993548,266.866875 147.553548,266.866875 C148.247948,266.866875 148.550348,267.303675 148.550348,267.986875 L148.550348,271.660475 L149.390348,271.660475 L149.390348,267.751675 C149.390348,266.665275 148.863948,266.116475 147.878348,266.116475 C147.094348,266.116475 146.366348,266.631675 146.063948,267.124475 C145.907148,266.564475 145.436748,266.116475 144.607948,266.116475 C143.812748,266.116475 143.084748,266.687675 142.860748,267.034875 L142.860748,266.250875 L142.020748,266.250875 L142.020748,271.660475 L142.860748,271.660475 Z M153.511948,271.794875 C154.396748,271.794875 155.124748,271.503675 155.662348,270.966075 L155.259148,270.417275 C154.833548,270.854075 154.206348,271.100475 153.590348,271.100475 C152.425548,271.100475 151.708748,270.249275 151.641548,269.230075 L156.020748,269.230075 L156.020748,269.017275 C156.020748,267.393275 155.057548,266.116475 153.422348,266.116475 C151.876748,266.116475 150.756748,267.382075 150.756748,268.950075 C150.756748,270.641275 151.910348,271.794875 153.511948,271.794875 Z M155.191948,268.614075 L151.641548,268.614075 C151.686348,267.785275 152.257548,266.810875 153.411148,266.810875 C154.643148,266.810875 155.180748,267.807675 155.191948,268.614075 Z M158.215948,271.660475 L158.215948,267.830075 C158.462348,267.393275 159.167948,266.967675 159.683148,266.967675 C159.817548,266.967675 159.918348,266.978875 160.019148,267.001275 L160.019148,266.138875 C159.279948,266.138875 158.652748,266.553275 158.215948,267.124475 L158.215948,266.250875 L157.375948,266.250875 L157.375948,271.660475 L158.215948,271.660475 Z M167.500748,271.794875 C168.855948,271.794875 169.751948,271.167675 170.379148,270.316475 L169.583948,269.879675 C169.158348,270.518075 168.385548,270.966075 167.500748,270.966075 C165.899148,270.966075 164.655948,269.700475 164.655948,267.930875 C164.655948,266.150075 165.899148,264.895675 167.500748,264.895675 C168.385548,264.895675 169.158348,265.354875 169.583948,265.982075 L170.367948,265.545275 C169.774348,264.705275 168.855948,264.066875 167.500748,264.066875 C165.383948,264.066875 163.692748,265.634875 163.692748,267.930875 C163.692748,270.226875 165.383948,271.794875 167.500748,271.794875 Z M173.123148,271.794875 C173.851148,271.794875 174.467148,271.537275 174.915148,271.044475 L174.915148,271.660475 L175.755148,271.660475 L175.755148,267.942075 C175.755148,266.631675 174.803148,266.116475 173.660748,266.116475 C172.775948,266.116475 172.081548,266.407675 171.499148,267.012475 L171.891148,267.594875 C172.372748,267.079675 172.899148,266.844475 173.548748,266.844475 C174.332748,266.844475 174.915148,267.258875 174.915148,267.986875 L174.915148,268.961275 C174.478348,268.457275 173.862348,268.222075 173.123148,268.222075 C172.204748,268.222075 171.230348,268.793275 171.230348,270.002875 C171.230348,271.178875 172.204748,271.794875 173.123148,271.794875 Z M173.425548,271.190075 C172.641548,271.190075 172.092748,270.697275 172.092748,270.014075 C172.092748,269.319675 172.641548,268.826875 173.425548,268.826875 C174.019148,268.826875 174.590348,269.050875 174.915148,269.498875 L174.915148,270.518075 C174.590348,270.966075 174.019148,271.190075 173.425548,271.190075 Z M179.148748,271.794875 C180.548748,271.794875 181.276748,271.066875 181.276748,270.159675 C181.276748,268.961275 180.190348,268.692475 179.249548,268.479675 C178.543948,268.311675 177.927948,268.143675 177.927948,267.617275 C177.927948,267.135675 178.387148,266.799675 179.126348,266.799675 C179.820748,266.799675 180.414348,267.090875 180.739148,267.482875 L181.131148,266.900475 C180.694348,266.463675 180.044748,266.116475 179.126348,266.116475 C177.838348,266.116475 177.110348,266.833275 177.110348,267.673275 C177.110348,268.793275 178.151948,269.039675 179.070348,269.252475 C179.798348,269.431675 180.459148,269.622075 180.459148,270.215675 C180.459148,270.742075 180.011148,271.111675 179.182348,271.111675 C178.443148,271.111675 177.759948,270.753275 177.401548,270.338875 L176.964748,270.943675 C177.513548,271.526075 178.263948,271.794875 179.148748,271.794875 Z M185.084748,271.794875 C185.969548,271.794875 186.697548,271.503675 187.235148,270.966075 L186.831948,270.417275 C186.406348,270.854075 185.779148,271.100475 185.163148,271.100475 C183.998348,271.100475 183.281548,270.249275 183.214348,269.230075 L187.593548,269.230075 L187.593548,269.017275 C187.593548,267.393275 186.630348,266.116475 184.995148,266.116475 C183.449548,266.116475 182.329548,267.382075 182.329548,268.950075 C182.329548,270.641275 183.483148,271.794875 185.084748,271.794875 Z M186.764748,268.614075 L183.214348,268.614075 C183.259148,267.785275 183.830348,266.810875 184.983948,266.810875 C186.215948,266.810875 186.753548,267.807675 186.764748,268.614075 Z M194.291148,271.794875 C196.307148,271.794875 197.046348,270.686075 197.046348,269.599675 C197.046348,268.031675 195.657548,267.650875 194.436748,267.326075 C193.484748,267.068475 192.622348,266.844475 192.622348,266.094075 C192.622348,265.388475 193.260748,264.906875 194.156748,264.906875 C194.974348,264.906875 195.758348,265.186875 196.318348,265.802875 L196.878348,265.119675 C196.251148,264.458875 195.366348,264.078075 194.223948,264.078075 C192.756748,264.078075 191.659148,264.918075 191.659148,266.150075 C191.659148,267.617275 192.991948,267.953275 194.190348,268.266875 C195.175948,268.535675 196.083148,268.782075 196.083148,269.678075 C196.083148,270.249275 195.657548,270.966075 194.324748,270.966075 C193.271948,270.966075 192.465548,270.450875 191.972748,269.902075 L191.423948,270.607675 C192.039948,271.302075 192.991948,271.794875 194.291148,271.794875 Z M199.767948,271.794875 C200.260748,271.794875 200.563148,271.649275 200.775948,271.447675 L200.529548,270.820475 C200.417548,270.943675 200.193548,271.044475 199.958348,271.044475 C199.588748,271.044475 199.409548,270.753275 199.409548,270.350075 L199.409548,266.990075 L200.507148,266.990075 L200.507148,266.250875 L199.409548,266.250875 L199.409548,264.772475 L198.569548,264.772475 L198.569548,266.250875 L197.673548,266.250875 L197.673548,266.990075 L198.569548,266.990075 L198.569548,270.529275 C198.569548,271.335675 198.972748,271.794875 199.767948,271.794875 Z M203.419148,271.794875 C204.225548,271.794875 204.931148,271.369275 205.345548,270.898875 L205.345548,271.660475 L206.185548,271.660475 L206.185548,266.250875 L205.345548,266.250875 L205.345548,270.226875 C205.031948,270.663675 204.404748,271.044475 203.743948,271.044475 C203.015948,271.044475 202.534348,270.764475 202.534348,269.812475 L202.534348,266.250875 L201.694348,266.250875 L201.694348,270.070075 C201.694348,271.246075 202.287948,271.794875 203.419148,271.794875 Z M209.959948,271.794875 C210.721548,271.794875 211.382348,271.402875 211.785548,270.854075 L211.785548,271.660475 L212.625548,271.660475 L212.625548,264.190075 L211.785548,264.190075 L211.785548,267.068475 C211.348748,266.474875 210.687948,266.116475 209.959948,266.116475 C208.537548,266.116475 207.551948,267.236475 207.551948,268.961275 C207.551948,270.719675 208.548748,271.794875 209.959948,271.794875 Z M210.161548,271.044475 C209.075148,271.044475 208.425548,270.159675 208.425548,268.961275 C208.425548,267.762875 209.075148,266.866875 210.161548,266.866875 C210.833548,266.866875 211.483148,267.270075 211.785548,267.740475 L211.785548,270.193275 C211.483148,270.663675 210.833548,271.044475 210.161548,271.044475 Z M214.619148,273.855675 C215.335948,273.844475 215.884748,273.542075 216.209548,272.758075 L218.919948,266.250875 L218.001548,266.250875 L216.209548,270.686075 L214.406348,266.250875 L213.499148,266.250875 L215.761548,271.716475 L215.403148,272.534075 C215.212748,272.982075 214.966348,273.105275 214.596748,273.105275 C214.462348,273.105275 214.260748,273.071675 214.137548,273.015675 L214.003148,273.777275 C214.159948,273.822075 214.439948,273.855675 214.619148,273.855675 Z" id="CustomerCaseStudy" fill="#1F3966" fill-rule="nonzero"></path>
        <g id="verification/dot/trusted/active" transform="translate(89.000000, 118.360475)">
            <g id="Group" transform="translate(3.364706, 3.400000)">
                <rect id="Rectangle-3" stroke="#29CC96" stroke-width="0.8" fill="#F2FFFB" x="0" y="0" width="10.0941176" height="10.2" rx="4.8"></rect>
                <path d="M7.23877195,2.90502333 C6.16206968,4.06088515 5.18146441,5.20129844 4.13500481,6.33986819 L2.81116645,5.20587232 C2.72098078,5.12838938 2.60569707,5.09283795 2.49083591,5.10651175 C2.37597474,5.12018556 2.27090406,5.18217215 2.19858084,5.2788024 C2.04798823,5.4802632 2.07861207,5.77424009 2.2666459,5.93513103 L3.90020755,7.33529878 C4.07420365,7.48433497 4.32560879,7.46883978 4.48216934,7.29883608 C5.65288852,6.04183548 6.70533784,4.80245366 7.85819674,3.56505541 C7.98836983,3.4306043 8.02708524,3.22412623 7.95604055,3.04591988 C7.88499804,2.86771353 7.71866226,2.75512837 7.53829528,2.76287597 C7.42509599,2.76645923 7.31747695,2.81750701 7.23877195,2.90502333 Z" id="Fill-1" fill="#29CC96"></path>
            </g>
        </g>
        <path d="M115.197318,129.660475 L115.197318,122.190075 L114.267718,122.190075 L114.267718,129.660475 L115.197318,129.660475 Z M117.750918,129.660475 L117.750918,125.706875 C118.042118,125.270075 118.624518,124.866875 119.173318,124.866875 C119.878918,124.866875 120.170118,125.303675 120.170118,125.986875 L120.170118,129.660475 L121.010118,129.660475 L121.010118,125.695675 C121.290118,125.270075 121.883718,124.866875 122.443718,124.866875 C123.138118,124.866875 123.440518,125.303675 123.440518,125.986875 L123.440518,129.660475 L124.280518,129.660475 L124.280518,125.751675 C124.280518,124.665275 123.754118,124.116475 122.768518,124.116475 C121.984518,124.116475 121.256518,124.631675 120.954118,125.124475 C120.797318,124.564475 120.326918,124.116475 119.498118,124.116475 C118.702918,124.116475 117.974918,124.687675 117.750918,125.034875 L117.750918,124.250875 L116.910918,124.250875 L116.910918,129.660475 L117.750918,129.660475 Z M126.800518,131.721275 L126.800518,128.842875 C127.237318,129.447675 127.886918,129.794875 128.626118,129.794875 C130.048518,129.794875 131.034118,128.697275 131.034118,126.950075 C131.034118,125.191675 130.048518,124.116475 128.626118,124.116475 C127.864518,124.116475 127.192518,124.508475 126.800518,125.057275 L126.800518,124.250875 L125.960518,124.250875 L125.960518,131.721275 L126.800518,131.721275 Z M128.413318,129.044475 C127.752518,129.044475 127.091718,128.641275 126.800518,128.170875 L126.800518,125.729275 C127.091718,125.258875 127.752518,124.866875 128.413318,124.866875 C129.499718,124.866875 130.149318,125.751675 130.149318,126.950075 C130.149318,128.148475 129.499718,129.044475 128.413318,129.044475 Z M133.229318,129.660475 L133.229318,122.190075 L132.389318,122.190075 L132.389318,129.660475 L133.229318,129.660475 Z M137.350918,129.794875 C138.235718,129.794875 138.963718,129.503675 139.501318,128.966075 L139.098118,128.417275 C138.672518,128.854075 138.045318,129.100475 137.429318,129.100475 C136.264518,129.100475 135.547718,128.249275 135.480518,127.230075 L139.859718,127.230075 L139.859718,127.017275 C139.859718,125.393275 138.896518,124.116475 137.261318,124.116475 C135.715718,124.116475 134.595718,125.382075 134.595718,126.950075 C134.595718,128.641275 135.749318,129.794875 137.350918,129.794875 Z M139.030918,126.614075 L135.480518,126.614075 C135.525318,125.785275 136.096518,124.810875 137.250118,124.810875 C138.482118,124.810875 139.019718,125.807675 139.030918,126.614075 Z M142.054918,129.660475 L142.054918,125.706875 C142.346118,125.270075 142.928518,124.866875 143.477318,124.866875 C144.182918,124.866875 144.474118,125.303675 144.474118,125.986875 L144.474118,129.660475 L145.314118,129.660475 L145.314118,125.695675 C145.594118,125.270075 146.187718,124.866875 146.747718,124.866875 C147.442118,124.866875 147.744518,125.303675 147.744518,125.986875 L147.744518,129.660475 L148.584518,129.660475 L148.584518,125.751675 C148.584518,124.665275 148.058118,124.116475 147.072518,124.116475 C146.288518,124.116475 145.560518,124.631675 145.258118,125.124475 C145.101318,124.564475 144.630918,124.116475 143.802118,124.116475 C143.006918,124.116475 142.278918,124.687675 142.054918,125.034875 L142.054918,124.250875 L141.214918,124.250875 L141.214918,129.660475 L142.054918,129.660475 Z M152.706118,129.794875 C153.590918,129.794875 154.318918,129.503675 154.856518,128.966075 L154.453318,128.417275 C154.027718,128.854075 153.400518,129.100475 152.784518,129.100475 C151.619718,129.100475 150.902918,128.249275 150.835718,127.230075 L155.214918,127.230075 L155.214918,127.017275 C155.214918,125.393275 154.251718,124.116475 152.616518,124.116475 C151.070918,124.116475 149.950918,125.382075 149.950918,126.950075 C149.950918,128.641275 151.104518,129.794875 152.706118,129.794875 Z M154.386118,126.614075 L150.835718,126.614075 C150.880518,125.785275 151.451718,124.810875 152.605318,124.810875 C153.837318,124.810875 154.374918,125.807675 154.386118,126.614075 Z M157.410118,129.660475 L157.410118,125.706875 C157.723718,125.270075 158.350918,124.866875 159.011718,124.866875 C159.739718,124.866875 160.221318,125.169275 160.221318,126.121275 L160.221318,129.660475 L161.061318,129.660475 L161.061318,125.863675 C161.061318,124.687675 160.467718,124.116475 159.336518,124.116475 C158.530118,124.116475 157.790918,124.586875 157.410118,125.034875 L157.410118,124.250875 L156.570118,124.250875 L156.570118,129.660475 L157.410118,129.660475 Z M164.107718,129.794875 C164.600518,129.794875 164.902918,129.649275 165.115718,129.447675 L164.869318,128.820475 C164.757318,128.943675 164.533318,129.044475 164.298118,129.044475 C163.928518,129.044475 163.749318,128.753275 163.749318,128.350075 L163.749318,124.990075 L164.846918,124.990075 L164.846918,124.250875 L163.749318,124.250875 L163.749318,122.772475 L162.909318,122.772475 L162.909318,124.250875 L162.013318,124.250875 L162.013318,124.990075 L162.909318,124.990075 L162.909318,128.529275 C162.909318,129.335675 163.312518,129.794875 164.107718,129.794875 Z M167.624518,129.794875 C168.352518,129.794875 168.968518,129.537275 169.416518,129.044475 L169.416518,129.660475 L170.256518,129.660475 L170.256518,125.942075 C170.256518,124.631675 169.304518,124.116475 168.162118,124.116475 C167.277318,124.116475 166.582918,124.407675 166.000518,125.012475 L166.392518,125.594875 C166.874118,125.079675 167.400518,124.844475 168.050118,124.844475 C168.834118,124.844475 169.416518,125.258875 169.416518,125.986875 L169.416518,126.961275 C168.979718,126.457275 168.363718,126.222075 167.624518,126.222075 C166.706118,126.222075 165.731718,126.793275 165.731718,128.002875 C165.731718,129.178875 166.706118,129.794875 167.624518,129.794875 Z M167.926918,129.190075 C167.142918,129.190075 166.594118,128.697275 166.594118,128.014075 C166.594118,127.319675 167.142918,126.826875 167.926918,126.826875 C168.520518,126.826875 169.091718,127.050875 169.416518,127.498875 L169.416518,128.518075 C169.091718,128.966075 168.520518,129.190075 167.926918,129.190075 Z M173.302918,129.794875 C173.795718,129.794875 174.098118,129.649275 174.310918,129.447675 L174.064518,128.820475 C173.952518,128.943675 173.728518,129.044475 173.493318,129.044475 C173.123718,129.044475 172.944518,128.753275 172.944518,128.350075 L172.944518,124.990075 L174.042118,124.990075 L174.042118,124.250875 L172.944518,124.250875 L172.944518,122.772475 L172.104518,122.772475 L172.104518,124.250875 L171.208518,124.250875 L171.208518,124.990075 L172.104518,124.990075 L172.104518,128.529275 C172.104518,129.335675 172.507718,129.794875 173.302918,129.794875 Z M175.643718,123.343675 C175.957318,123.343675 176.214918,123.086075 176.214918,122.772475 C176.214918,122.458875 175.957318,122.212475 175.643718,122.212475 C175.341318,122.212475 175.083718,122.458875 175.083718,122.772475 C175.083718,123.086075 175.341318,123.343675 175.643718,123.343675 Z M176.069318,129.660475 L176.069318,124.250875 L175.229318,124.250875 L175.229318,129.660475 L176.069318,129.660475 Z M180.112518,129.794875 C181.758918,129.794875 182.789318,128.518075 182.789318,126.950075 C182.789318,125.382075 181.758918,124.116475 180.112518,124.116475 C178.466118,124.116475 177.435718,125.382075 177.435718,126.950075 C177.435718,128.518075 178.466118,129.794875 180.112518,129.794875 Z M180.112518,129.044475 C178.958918,129.044475 178.309318,128.058875 178.309318,126.950075 C178.309318,125.852475 178.958918,124.866875 180.112518,124.866875 C181.266118,124.866875 181.904518,125.852475 181.904518,126.950075 C181.904518,128.058875 181.266118,129.044475 180.112518,129.044475 Z M184.995718,129.660475 L184.995718,125.706875 C185.309318,125.270075 185.936518,124.866875 186.597318,124.866875 C187.325318,124.866875 187.806918,125.169275 187.806918,126.121275 L187.806918,129.660475 L188.646918,129.660475 L188.646918,125.863675 C188.646918,124.687675 188.053318,124.116475 186.922118,124.116475 C186.115718,124.116475 185.376518,124.586875 184.995718,125.034875 L184.995718,124.250875 L184.155718,124.250875 L184.155718,129.660475 L184.995718,129.660475 Z M194.179718,129.660475 L194.179718,126.692475 L196.251718,126.692475 C197.730118,126.692475 198.592518,125.662075 198.592518,124.441275 C198.592518,123.220475 197.752518,122.190075 196.251718,122.190075 L193.250118,122.190075 L193.250118,129.660475 L194.179718,129.660475 Z M196.139718,125.863675 L194.179718,125.863675 L194.179718,123.018875 L196.139718,123.018875 C197.024518,123.018875 197.629318,123.601275 197.629318,124.441275 C197.629318,125.281275 197.024518,125.863675 196.139718,125.863675 Z M200.630918,129.660475 L200.630918,122.190075 L199.790918,122.190075 L199.790918,129.660475 L200.630918,129.660475 Z M203.901318,129.794875 C204.629318,129.794875 205.245318,129.537275 205.693318,129.044475 L205.693318,129.660475 L206.533318,129.660475 L206.533318,125.942075 C206.533318,124.631675 205.581318,124.116475 204.438918,124.116475 C203.554118,124.116475 202.859718,124.407675 202.277318,125.012475 L202.669318,125.594875 C203.150918,125.079675 203.677318,124.844475 204.326918,124.844475 C205.110918,124.844475 205.693318,125.258875 205.693318,125.986875 L205.693318,126.961275 C205.256518,126.457275 204.640518,126.222075 203.901318,126.222075 C202.982918,126.222075 202.008518,126.793275 202.008518,128.002875 C202.008518,129.178875 202.982918,129.794875 203.901318,129.794875 Z M204.203718,129.190075 C203.419718,129.190075 202.870918,128.697275 202.870918,128.014075 C202.870918,127.319675 203.419718,126.826875 204.203718,126.826875 C204.797318,126.826875 205.368518,127.050875 205.693318,127.498875 L205.693318,128.518075 C205.368518,128.966075 204.797318,129.190075 204.203718,129.190075 Z M209.053318,129.660475 L209.053318,125.706875 C209.366918,125.270075 209.994118,124.866875 210.654918,124.866875 C211.382918,124.866875 211.864518,125.169275 211.864518,126.121275 L211.864518,129.660475 L212.704518,129.660475 L212.704518,125.863675 C212.704518,124.687675 212.110918,124.116475 210.979718,124.116475 C210.173318,124.116475 209.434118,124.586875 209.053318,125.034875 L209.053318,124.250875 L208.213318,124.250875 L208.213318,129.660475 L209.053318,129.660475 Z" id="ImplementationPlan" fill="#1F3966" fill-rule="nonzero"></path>
        <g id="expand-accordion" transform="translate(229.000000, 231.360475) rotate(-90.000000) translate(-229.000000, -231.360475) translate(222.000000, 224.360475)">
            <mask id="mask-8" fill="white">
                <use xlink:href="#path-7"></use>
            </mask>
            <use id="-Icon-小olor" fill="#001C4D" fill-rule="evenodd" xlink:href="#path-7"></use>
        </g>
    </g>
</svg>