<svg width="500px" height="330px" viewBox="0 0 500 330" xmlns="http://www.w3.org/2000/svg" xmlns:xlink="http://www.w3.org/1999/xlink">
    <defs>
        <rect id="path-1" x="204" y="24.360475" width="253" height="236" rx="2.23999996"></rect>
        <filter x="-1.5%" y="-1.2%" width="103.0%" height="103.2%" filterUnits="objectBoundingBox" id="filter-2">
            <feMorphology radius="0.279999995" operator="dilate" in="SourceAlpha" result="shadowSpreadOuter1"></feMorphology>
            <feOffset dx="0" dy="1" in="shadowSpreadOuter1" result="shadowOffsetOuter1"></feOffset>
            <feGaussianBlur stdDeviation="1" in="shadowOffsetOuter1" result="shadowBlurOuter1"></feGaussianBlur>
            <feComposite in="shadowBlurOuter1" in2="SourceAlpha" operator="out" result="shadowBlurOuter1"></feComposite>
            <feColorMatrix values="0 0 0 0 0   0 0 0 0 0   0 0 0 0 0  0 0 0 0.5 0" type="matrix" in="shadowBlurOuter1"></feColorMatrix>
        </filter>
        <path d="M1.875,4.875 C2.08125,4.875 2.248875,5.0415 2.25,5.248125 L2.25,5.248125 L2.254875,6.214875 L3.484875,4.984875 C3.6315,4.83825 3.8685,4.83825 4.015125,4.984875 C4.16175,5.1315 4.16175,5.3685 4.015125,5.515125 L4.015125,5.515125 L2.780625,6.749625 L3.75,6.75 C3.957375,6.75 4.125,6.918 4.125,7.125375 C4.124625,7.332375 3.957,7.5 3.75,7.5 L3.75,7.5 L3.749625,7.5 L1.884,7.498875 C1.67775,7.498875 1.5105,7.332 1.509375,7.12575 L1.509375,7.12575 L1.49999436,5.251875 C1.498875,5.044875 1.666125,4.876125 1.873125,4.875 L1.873125,4.875 Z M5.251725,1.50015 L7.1256,1.509525 C7.33185,1.51065 7.498725,1.6779 7.498725,1.88415 L7.498725,1.88415 L7.49985063,3.749775 C7.500225,3.956775 7.332225,4.12515 7.125225,4.12515 L7.125225,4.12515 C6.91785,4.12515 6.750225,3.95715 6.74985,3.750525 L6.74985,3.750525 L6.7491,2.78115 L5.514975,4.015275 C5.44185,4.0884 5.34585,4.12515 5.24985,4.12515 C5.154225,4.12515 5.058225,4.0884 4.984725,4.015275 C4.838475,3.86865 4.838475,3.631275 4.984725,3.485025 L4.984725,3.485025 L6.214725,2.255025 L5.24835,2.25015 C5.040975,2.249025 4.873725,2.0799 4.87484436,1.873275 C4.875975,1.66665 5.043975,1.50015 5.24985,1.50015 L5.24985,1.50015 L5.251725,1.50015 Z" id="path-3"></path>
        <rect id="path-5" x="74" y="102.360475" width="174" height="201" rx="4"></rect>
        <filter x="-2.2%" y="-1.4%" width="104.5%" height="103.9%" filterUnits="objectBoundingBox" id="filter-6">
            <feMorphology radius="0.4" operator="dilate" in="SourceAlpha" result="shadowSpreadOuter1"></feMorphology>
            <feOffset dx="0" dy="1" in="shadowSpreadOuter1" result="shadowOffsetOuter1"></feOffset>
            <feGaussianBlur stdDeviation="1" in="shadowOffsetOuter1" result="shadowBlurOuter1"></feGaussianBlur>
            <feComposite in="shadowBlurOuter1" in2="SourceAlpha" operator="out" result="shadowBlurOuter1"></feComposite>
            <feColorMatrix values="0 0 0 0 0   0 0 0 0 0   0 0 0 0 0  0 0 0 0.5 0" type="matrix" in="shadowBlurOuter1"></feColorMatrix>
        </filter>
        <polygon id="path-7" points="3.64000006 5.32000003 7 8.67999997 10.3599999 5.32000003"></polygon>
    </defs>
    <g id="Company-Knowledge" stroke="none" stroke-width="1" fill="none" fill-rule="evenodd">
        <path d="M354.092422,0 C277.320194,0.225455336 226.647541,58.1541543 178.509445,73.2299427 C106.323904,95.8359393 37.0596883,72.0862693 7.29817054,154.738195 C2.30105814,168.615996 0.019544079,182.984675 0,197.26727 L0,197.653619 C0.065832687,242.298899 22.1856155,286.072077 52.4470502,311.439902 C68.2283797,324.670031 89.2557514,329.990777 111.88368,330 L112.01226,330 C146.865524,329.983603 185.499025,317.384749 214.647476,301.685884 C271.097977,271.280158 309.671817,283.797028 348.466813,294.710091 C416.799085,313.932208 505.410911,247.762092 499.741071,153.048305 C494.296502,62.0811763 452.541091,10.9786501 373.867944,1.20618605 C367.407083,0.403770011 361.112861,0.0184463457 354.994536,0 L354.092422,0 Z" id="Fill-1-Copy" fill="#F2F7FF"></path>
        <g id="Rectangle">
            <use fill="black" fill-opacity="1" filter="url(#filter-2)" xlink:href="#path-1"></use>
            <use stroke="#E9EBF0" stroke-width="0.55999999" fill="#FFFFFF" xlink:href="#path-1"></use>
        </g>
        <path d="M206,24.360475 L455,24.360475 C456.104569,24.360475 457,25.2559055 457,26.360475 L457,26.360475 L457,26.360475 L204,26.360475 C204,25.2559055 204.895431,24.360475 206,24.360475 Z" id="Rectangle-7-Copy-6" fill="#29CC96"></path>
        <g id="verification/button/trusted/active" transform="translate(212.000000, 32.360475)">
            <g id="verification-icon-trusted-copy-12">
                <g id="Group-15" fill="#F2FFFB" stroke="#29CC96" stroke-width="0.55999999">
                    <rect id="Rectangle-3" x="0.279999995" y="0.279999995" width="13.44" height="13.44" rx="2.23999996"></rect>
                </g>
                <path d="M10.0397886,3.98728692 C8.54646028,5.57376393 7.18641334,7.13903708 5.73502999,8.70177987 L3.89893716,7.14531496 C3.77385447,7.03896581 3.61396214,6.99016973 3.45465586,7.0089377 C3.29534958,7.02770567 3.14962217,7.11278531 3.04931375,7.24541505 C2.84044988,7.52192988 2.8829235,7.92542757 3.14371635,8.14625828 L5.40937877,10.0680572 C5.65070203,10.2726166 5.99938748,10.2513487 6.21652857,10.0180103 C7.8402533,8.29271537 9.29994408,6.59160306 10.8988976,4.8932133 C11.0794407,4.70867257 11.1331369,4.42527129 11.0346017,4.18067434 C10.9360695,3.93607739 10.7053707,3.78154874 10.4552114,3.7921827 C10.2982101,3.7971009 10.1489482,3.86716649 10.0397886,3.98728692 Z" id="Fill-1" fill="#29CC96"></path>
            </g>
        </g>
        <g id="close" transform="translate(442.000000, 35.360475)" fill="#B8BFCC">
            <path d="M5.02875,4.5 L6.64125,2.89125 C6.78829581,2.74420419 6.78829581,2.50579581 6.64125,2.35875 C6.49420419,2.21170419 6.25579581,2.21170419 6.10875,2.35875 L4.5,3.97125 L2.89125,2.35875 C2.74420418,2.21170419 2.50579582,2.21170419 2.35875,2.35875 C2.21170419,2.50579582 2.21170419,2.74420418 2.35875,2.89125 L3.97125,4.5 L2.35875,6.10875 C2.28775776,6.17916247 2.24782563,6.27501092 2.24782563,6.375 C2.24782563,6.47498908 2.28775776,6.57083753 2.35875,6.64125 C2.42916247,6.71224224 2.52501092,6.75217437 2.625,6.75217437 C2.72498908,6.75217437 2.82083753,6.71224224 2.89125,6.64125 L4.5,5.02875 L6.10875,6.64125 C6.17916247,6.71224224 6.27501092,6.75217437 6.375,6.75217437 C6.47498908,6.75217437 6.57083753,6.71224224 6.64125,6.64125 C6.71224224,6.57083753 6.75217437,6.47498908 6.75217437,6.375 C6.75217437,6.27501092 6.71224224,6.17916247 6.64125,6.10875 L5.02875,4.5 Z" id="-Icon-小olor"></path>
        </g>
        <g id="expand-window" transform="translate(429.000000, 35.360475)">
            <mask id="mask-4" fill="white">
                <use xlink:href="#path-3"></use>
            </mask>
            <use id="-Icon-小olor" fill="#B8BFCC" fill-rule="evenodd" xlink:href="#path-3"></use>
        </g>
        <path d="M421,31.360475 L421,45.360475 L421,31.360475 Z" id="Path-2" stroke="#B8BFCC" stroke-width="0.55999999"></path>
        <g id="globe" transform="translate(406.000000, 35.360475)" fill="#B8BFCC">
            <path d="M8.25,4.5 C8.25,3.50543816 7.85491185,2.55161099 7.15165043,1.84834957 C6.44838901,1.14508815 5.49456184,0.75 4.5,0.75 C2.42893219,0.75 0.75,2.42893219 0.75,4.5 C0.75,6.57106781 2.42893219,8.25 4.5,8.25 C6.57106781,8.25 8.25,6.57106781 8.25,4.5 Z M7.47375,4.125 L6.375,4.125 C6.31315234,3.24305352 6.0109749,2.39488165 5.50125,1.6725 C6.56921252,2.0517964 7.33227495,3.00054701 7.47375,4.125 Z M3.405,4.875 L5.625,4.875 C5.52903112,5.80146887 5.13414427,6.67153623 4.5,7.35375 C3.86627643,6.67438658 3.48044693,5.80098487 3.405,4.875 L3.405,4.875 Z M3.405,4.125 C3.49233211,3.20318507 3.87659587,2.33464367 4.5,1.65 C5.13926682,2.32729603 5.5350483,3.19801528 5.625,4.125 L3.405,4.125 Z M3.54,1.66125 C3.0275811,2.3876335 2.72055012,3.23877 2.65125,4.125 L1.52625,4.125 C1.67078837,2.98608776 2.45262785,2.02953554 3.54,1.66125 Z M1.52625,4.875 L2.65125,4.875 C2.71300924,5.76047499 3.0179548,6.6117273 3.5325,7.335 C2.44916128,6.96495666 1.67085708,6.01062478 1.52625,4.875 Z M5.4825,7.33125 C5.99565302,6.60775325 6.30399818,5.75915627 6.375,4.875 L7.48125,4.875 C7.33658452,6.00734451 6.56180804,6.95946195 5.4825,7.33125 L5.4825,7.33125 Z" id="-Icon-小olor"></path>
        </g>
        <path d="M204,235.360475 L457,235.360475 L457,258.120475 C457,259.357593 455.997118,260.360475 454.76,260.360475 L206.24,260.360475 C205.002882,260.360475 204,259.357593 204,258.120475 L204,235.360475 L204,235.360475 Z" id="Rectangle" stroke="#F2F3F5" stroke-width="0.55999999" fill="#F2F3F5"></path>
        <g id="icon-resize" transform="translate(206.000000, 250.360475)" fill="#8F9CB3">
            <path d="M5.69599992,6.71999989 L4.77866659,6.71999989 L6.71999989,4.77866659 L6.71999989,5.69599992 L5.69599992,6.71999989 Z M3.30666661,6.71999989 L2.38933329,6.71999989 L6.71999989,2.38933329 L6.71999989,3.30666661 L3.30666661,6.71999989 Z M0.917333316,6.71999989 L0,6.71999989 L6.71999989,0 L6.71999989,0.917333316 L0.917333316,6.71999989 Z" id="Shape" transform="translate(3.360000, 3.360000) rotate(90.000000) translate(-3.360000, -3.360000) "></path>
        </g>
        <g id="tag" transform="translate(220.000000, 242.360475)" fill="#B8BFCC">
            <path d="M4.67506187,9.625 C4.56946319,9.625 4.46386451,9.584575 4.38342802,9.5041375 L1.49596411,6.6166375 C1.33467863,6.45535 1.33467863,6.19465 1.49596411,6.0333625 L6.03340739,1.4958625 C6.11054393,1.4183125 6.21531762,1.375 6.32504125,1.375 L9.21250516,1.375 C9.4406148,1.375 9.625,1.5593875 9.625,1.7875 L9.625,4.675 C9.625,4.784725 9.58168804,4.8895 9.50413901,4.9666375 L4.96669573,9.5041375 C4.88625923,9.584575 4.78066055,9.625 4.67506187,9.625 Z M8.80001031,4.504225 L8.80001031,2.2 L6.49581411,2.2 L2.37086568,6.325 L4.67506187,8.629225 L8.80001031,4.504225 Z M7.54251057,2.75748349 C7.73581794,2.56417396 8.04923079,2.56417396 8.24253791,2.75748349 C8.43584503,2.95079328 8.43584503,3.26421005 8.24253791,3.45751958 C8.04923055,3.65082912 7.73581769,3.65082912 7.54251057,3.45751958 C7.34920345,3.2642098 7.34920345,2.95079303 7.54251057,2.75748349 L7.54251057,2.75748349 Z" id="-Icon-小olor"></path>
        </g>
        <rect id="Rectangle-12-[4-8]" fill="#FFFFFF" x="241" y="241.360475" width="51" height="11" rx="5.5"></rect>
        <path d="M237.2352,82.360475 L237.2352,76.802075 L239.2128,76.802075 L239.2128,75.957275 L234.288,75.957275 L234.288,76.802075 L236.2752,76.802075 L236.2752,82.360475 L237.2352,82.360475 Z M242.304,82.475675 C243.0528,82.475675 243.7056,82.235675 244.1664,81.784475 L243.7632,81.218075 C243.4176,81.573275 242.88,81.765275 242.3904,81.765275 C241.4592,81.765275 240.8832,81.112475 240.816,80.325275 L244.4832,80.325275 L244.4832,80.114075 C244.4832,78.693275 243.6192,77.608475 242.2272,77.608475 C240.8736,77.608475 239.904,78.693275 239.904,80.037275 C239.904,81.496475 240.9216,82.475675 242.304,82.475675 Z M243.6384,79.701275 L240.8064,79.701275 C240.8544,79.067675 241.296,78.318875 242.2272,78.318875 C243.2064,78.318875 243.6192,79.086875 243.6384,79.701275 Z M247.6416,82.475675 C248.5152,82.475675 249.0432,82.110875 249.3792,81.659675 L248.8032,81.131675 C248.5248,81.515675 248.1504,81.707675 247.68,81.707675 C246.768,81.707675 246.1824,80.997275 246.1824,80.037275 C246.1824,79.077275 246.768,78.376475 247.68,78.376475 C248.1504,78.376475 248.5248,78.558875 248.8032,78.952475 L249.3792,78.424475 C249.0432,77.973275 248.5152,77.608475 247.6416,77.608475 C246.24,77.608475 245.28,78.645275 245.28,80.037275 C245.28,81.429275 246.24,82.475675 247.6416,82.475675 Z M251.1936,82.360475 L251.1936,79.048475 C251.4432,78.702875 251.9328,78.376475 252.4704,78.376475 C253.0656,78.376475 253.4592,78.606875 253.4592,79.374875 L253.4592,82.360475 L254.3232,82.360475 L254.3232,79.086875 C254.3232,78.107675 253.824,77.608475 252.8352,77.608475 C252.1248,77.608475 251.5008,78.002075 251.1936,78.376475 L251.1936,75.957275 L250.3296,75.957275 L250.3296,82.360475 L251.1936,82.360475 Z M260.3328,82.475675 C262.0608,82.475675 262.752,81.544475 262.752,80.546075 C262.752,79.182875 261.5328,78.856475 260.4864,78.578075 C259.6896,78.376475 258.9984,78.194075 258.9984,77.618075 C258.9984,77.080475 259.488,76.715675 260.1984,76.715675 C260.8896,76.715675 261.5616,76.946075 262.0512,77.464475 L262.608,76.754075 C262.0416,76.178075 261.264,75.861275 260.2752,75.861275 C258.9408,75.861275 258.0096,76.629275 258.0096,77.685275 C258.0096,78.990875 259.2,79.288475 260.2272,79.557275 C261.0432,79.768475 261.7728,79.960475 261.7728,80.632475 C261.7728,81.093275 261.408,81.621275 260.3712,81.621275 C259.4784,81.621275 258.7872,81.198875 258.3552,80.718875 L257.808,81.458075 C258.3552,82.062875 259.1904,82.475675 260.3328,82.475675 Z M265.1232,82.475675 C265.5744,82.475675 265.8432,82.350875 266.0256,82.178075 L265.8048,81.525275 C265.7184,81.621275 265.536,81.707675 265.3344,81.707675 C265.0368,81.707675 264.8832,81.467675 264.8832,81.141275 L264.8832,78.482075 L265.824,78.482075 L265.824,77.723675 L264.8832,77.723675 L264.8832,76.456475 L264.0192,76.456475 L264.0192,77.723675 L263.2512,77.723675 L263.2512,78.482075 L264.0192,78.482075 L264.0192,81.333275 C264.0192,82.062875 264.3936,82.475675 265.1232,82.475675 Z M268.128,82.475675 C268.752,82.475675 269.28,82.254875 269.6448,81.851675 L269.6448,82.360475 L270.5088,82.360475 L270.5088,79.230875 C270.5088,78.050075 269.6544,77.608475 268.6464,77.608475 C267.8976,77.608475 267.264,77.858075 266.7456,78.366875 L267.12,78.962075 C267.5328,78.549275 267.984,78.347675 268.512,78.347675 C269.1744,78.347675 269.6448,78.693275 269.6448,79.269275 L269.6448,80.037275 C269.2896,79.624475 268.752,79.422875 268.128,79.422875 C267.3504,79.422875 266.5152,79.883675 266.5152,80.939675 C266.5152,81.957275 267.36,82.475675 268.128,82.475675 Z M268.4544,81.870875 C267.8304,81.870875 267.3888,81.496475 267.3888,80.949275 C267.3888,80.402075 267.8304,80.027675 268.4544,80.027675 C268.9344,80.027675 269.3856,80.210075 269.6448,80.555675 L269.6448,81.342875 C269.3856,81.688475 268.9344,81.870875 268.4544,81.870875 Z M273.9648,82.475675 C274.8384,82.475675 275.3664,82.110875 275.7024,81.659675 L275.1264,81.131675 C274.848,81.515675 274.4736,81.707675 274.0032,81.707675 C273.0912,81.707675 272.5056,80.997275 272.5056,80.037275 C272.5056,79.077275 273.0912,78.376475 274.0032,78.376475 C274.4736,78.376475 274.848,78.558875 275.1264,78.952475 L275.7024,78.424475 C275.3664,77.973275 274.8384,77.608475 273.9648,77.608475 C272.5632,77.608475 271.6032,78.645275 271.6032,80.037275 C271.6032,81.429275 272.5632,82.475675 273.9648,82.475675 Z M277.5168,82.360475 L277.5168,81.074075 L278.2176,80.363675 L279.7632,82.360475 L280.8576,82.360475 L278.8416,79.826075 L280.8384,77.723675 L279.7536,77.723675 L277.5168,80.075675 L277.5168,75.957275 L276.6528,75.957275 L276.6528,82.360475 L277.5168,82.360475 Z M286.6656,82.360475 L286.6656,76.802075 L288.6432,76.802075 L288.6432,75.957275 L283.7184,75.957275 L283.7184,76.802075 L285.7056,76.802075 L285.7056,82.360475 L286.6656,82.360475 Z M290.4864,82.360475 L290.4864,79.134875 C290.688,78.789275 291.2736,78.462875 291.7056,78.462875 C291.8208,78.462875 291.9168,78.472475 292.0032,78.491675 L292.0032,77.618075 C291.3888,77.618075 290.8416,77.973275 290.4864,78.434075 L290.4864,77.723675 L289.6224,77.723675 L289.6224,82.360475 L290.4864,82.360475 Z M294.2112,82.475675 C294.8352,82.475675 295.3632,82.254875 295.728,81.851675 L295.728,82.360475 L296.592,82.360475 L296.592,79.230875 C296.592,78.050075 295.7376,77.608475 294.7296,77.608475 C293.9808,77.608475 293.3472,77.858075 292.8288,78.366875 L293.2032,78.962075 C293.616,78.549275 294.0672,78.347675 294.5952,78.347675 C295.2576,78.347675 295.728,78.693275 295.728,79.269275 L295.728,80.037275 C295.3728,79.624475 294.8352,79.422875 294.2112,79.422875 C293.4336,79.422875 292.5984,79.883675 292.5984,80.939675 C292.5984,81.957275 293.4432,82.475675 294.2112,82.475675 Z M294.5376,81.870875 C293.9136,81.870875 293.472,81.496475 293.472,80.949275 C293.472,80.402075 293.9136,80.027675 294.5376,80.027675 C295.0176,80.027675 295.4688,80.210075 295.728,80.555675 L295.728,81.342875 C295.4688,81.688475 295.0176,81.870875 294.5376,81.870875 Z M298.3968,76.946075 C298.704,76.946075 298.9536,76.706075 298.9536,76.398875 C298.9536,76.091675 298.704,75.842075 298.3968,75.842075 C298.0992,75.842075 297.84,76.091675 297.84,76.398875 C297.84,76.706075 298.0992,76.946075 298.3968,76.946075 Z M298.8384,82.360475 L298.8384,77.723675 L297.9744,77.723675 L297.9744,82.360475 L298.8384,82.360475 Z M301.0752,82.360475 L301.0752,79.048475 C301.3248,78.702875 301.8144,78.376475 302.352,78.376475 C302.9472,78.376475 303.3408,78.626075 303.3408,79.394075 L303.3408,82.360475 L304.2048,82.360475 L304.2048,79.106075 C304.2048,78.126875 303.696,77.608475 302.7168,77.608475 C301.9968,77.608475 301.3824,78.002075 301.0752,78.376475 L301.0752,77.723675 L300.2112,77.723675 L300.2112,82.360475 L301.0752,82.360475 Z M306,76.946075 C306.3072,76.946075 306.5568,76.706075 306.5568,76.398875 C306.5568,76.091675 306.3072,75.842075 306,75.842075 C305.7024,75.842075 305.4432,76.091675 305.4432,76.398875 C305.4432,76.706075 305.7024,76.946075 306,76.946075 Z M306.4416,82.360475 L306.4416,77.723675 L305.5776,77.723675 L305.5776,82.360475 L306.4416,82.360475 Z M308.6784,82.360475 L308.6784,79.048475 C308.928,78.702875 309.4176,78.376475 309.9552,78.376475 C310.5504,78.376475 310.944,78.626075 310.944,79.394075 L310.944,82.360475 L311.808,82.360475 L311.808,79.106075 C311.808,78.126875 311.2992,77.608475 310.32,77.608475 C309.6,77.608475 308.9856,78.002075 308.6784,78.376475 L308.6784,77.723675 L307.8144,77.723675 L307.8144,82.360475 L308.6784,82.360475 Z M315.0432,84.242075 C316.1856,84.242075 317.3472,83.771675 317.3472,82.178075 L317.3472,77.723675 L316.4832,77.723675 L316.4832,78.395675 C316.1088,77.896475 315.5616,77.608475 314.9568,77.608475 C313.7568,77.608475 312.8928,78.510875 312.8928,79.998875 C312.8928,81.515675 313.7568,82.398875 314.9568,82.398875 C315.5808,82.398875 316.128,82.062875 316.4832,81.602075 L316.4832,82.206875 C316.4832,83.186075 315.7632,83.531675 315.0432,83.531675 C314.4096,83.531675 313.9392,83.358875 313.5552,82.917275 L313.1424,83.550875 C313.6992,84.078875 314.2656,84.242075 315.0432,84.242075 Z M315.1968,81.630875 C314.3328,81.630875 313.7952,80.958875 313.7952,79.998875 C313.7952,79.048475 314.3328,78.376475 315.1968,78.376475 C315.7152,78.376475 316.2432,78.683675 316.4832,79.058075 L316.4832,80.939675 C316.2432,81.314075 315.7152,81.630875 315.1968,81.630875 Z" id="TechStackTraining" fill="#1F3966" fill-rule="nonzero"></path>
        <path d="M237.7536,43.475675 C238.9152,43.475675 239.6832,42.938075 240.2208,42.208475 L239.5392,41.834075 C239.1744,42.381275 238.512,42.765275 237.7536,42.765275 C236.3808,42.765275 235.3152,41.680475 235.3152,40.163675 C235.3152,38.637275 236.3808,37.562075 237.7536,37.562075 C238.512,37.562075 239.1744,37.955675 239.5392,38.493275 L240.2112,38.118875 C239.7024,37.398875 238.9152,36.851675 237.7536,36.851675 C235.9392,36.851675 234.4896,38.195675 234.4896,40.163675 C234.4896,42.131675 235.9392,43.475675 237.7536,43.475675 Z M243.2352,43.475675 C244.6464,43.475675 245.5296,42.381275 245.5296,41.037275 C245.5296,39.693275 244.6464,38.608475 243.2352,38.608475 C241.824,38.608475 240.9408,39.693275 240.9408,41.037275 C240.9408,42.381275 241.824,43.475675 243.2352,43.475675 Z M243.2352,42.832475 C242.2464,42.832475 241.6896,41.987675 241.6896,41.037275 C241.6896,40.096475 242.2464,39.251675 243.2352,39.251675 C244.224,39.251675 244.7712,40.096475 244.7712,41.037275 C244.7712,41.987675 244.224,42.832475 243.2352,42.832475 Z M247.4208,43.360475 L247.4208,39.971675 C247.6704,39.597275 248.1696,39.251675 248.64,39.251675 C249.2448,39.251675 249.4944,39.626075 249.4944,40.211675 L249.4944,43.360475 L250.2144,43.360475 L250.2144,39.962075 C250.4544,39.597275 250.9632,39.251675 251.4432,39.251675 C252.0384,39.251675 252.2976,39.626075 252.2976,40.211675 L252.2976,43.360475 L253.0176,43.360475 L253.0176,40.010075 C253.0176,39.078875 252.5664,38.608475 251.7216,38.608475 C251.0496,38.608475 250.4256,39.050075 250.1664,39.472475 C250.032,38.992475 249.6288,38.608475 248.9184,38.608475 C248.2368,38.608475 247.6128,39.098075 247.4208,39.395675 L247.4208,38.723675 L246.7008,38.723675 L246.7008,43.360475 L247.4208,43.360475 Z M255.1776,45.126875 L255.1776,42.659675 C255.552,43.178075 256.1088,43.475675 256.7424,43.475675 C257.9616,43.475675 258.8064,42.534875 258.8064,41.037275 C258.8064,39.530075 257.9616,38.608475 256.7424,38.608475 C256.0896,38.608475 255.5136,38.944475 255.1776,39.414875 L255.1776,38.723675 L254.4576,38.723675 L254.4576,45.126875 L255.1776,45.126875 Z M256.56,42.832475 C255.9936,42.832475 255.4272,42.486875 255.1776,42.083675 L255.1776,39.990875 C255.4272,39.587675 255.9936,39.251675 256.56,39.251675 C257.4912,39.251675 258.048,40.010075 258.048,41.037275 C258.048,42.064475 257.4912,42.832475 256.56,42.832475 Z M261.3312,43.475675 C261.9552,43.475675 262.4832,43.254875 262.8672,42.832475 L262.8672,43.360475 L263.5872,43.360475 L263.5872,40.173275 C263.5872,39.050075 262.7712,38.608475 261.792,38.608475 C261.0336,38.608475 260.4384,38.858075 259.9392,39.376475 L260.2752,39.875675 C260.688,39.434075 261.1392,39.232475 261.696,39.232475 C262.368,39.232475 262.8672,39.587675 262.8672,40.211675 L262.8672,41.046875 C262.4928,40.614875 261.9648,40.413275 261.3312,40.413275 C260.544,40.413275 259.7088,40.902875 259.7088,41.939675 C259.7088,42.947675 260.544,43.475675 261.3312,43.475675 Z M261.5904,42.957275 C260.9184,42.957275 260.448,42.534875 260.448,41.949275 C260.448,41.354075 260.9184,40.931675 261.5904,40.931675 C262.0992,40.931675 262.5888,41.123675 262.8672,41.507675 L262.8672,42.381275 C262.5888,42.765275 262.0992,42.957275 261.5904,42.957275 Z M265.7472,43.360475 L265.7472,39.971675 C266.016,39.597275 266.5536,39.251675 267.12,39.251675 C267.744,39.251675 268.1568,39.510875 268.1568,40.326875 L268.1568,43.360475 L268.8768,43.360475 L268.8768,40.106075 C268.8768,39.098075 268.368,38.608475 267.3984,38.608475 C266.7072,38.608475 266.0736,39.011675 265.7472,39.395675 L265.7472,38.723675 L265.0272,38.723675 L265.0272,43.360475 L265.7472,43.360475 Z M270.5856,45.242075 C271.2,45.232475 271.6704,44.973275 271.9488,44.301275 L274.272,38.723675 L273.4848,38.723675 L271.9488,42.525275 L270.4032,38.723675 L269.6256,38.723675 L271.5648,43.408475 L271.2576,44.109275 C271.0944,44.493275 270.8832,44.598875 270.5664,44.598875 C270.4512,44.598875 270.2784,44.570075 270.1728,44.522075 L270.0576,45.174875 C270.192,45.213275 270.432,45.242075 270.5856,45.242075 Z M278.3232,43.360475 L278.3232,41.210075 L278.9664,40.480475 L281.3952,43.360475 L282.384,43.360475 L279.4848,40.000475 L282.1536,36.957275 L281.1552,36.957275 L278.3232,40.269275 L278.3232,36.957275 L277.5264,36.957275 L277.5264,43.360475 L278.3232,43.360475 Z M283.9872,43.360475 L283.9872,39.971675 C284.256,39.597275 284.7936,39.251675 285.36,39.251675 C285.984,39.251675 286.3968,39.510875 286.3968,40.326875 L286.3968,43.360475 L287.1168,43.360475 L287.1168,40.106075 C287.1168,39.098075 286.608,38.608475 285.6384,38.608475 C284.9472,38.608475 284.3136,39.011675 283.9872,39.395675 L283.9872,38.723675 L283.2672,38.723675 L283.2672,43.360475 L283.9872,43.360475 Z M290.5824,43.475675 C291.9936,43.475675 292.8768,42.381275 292.8768,41.037275 C292.8768,39.693275 291.9936,38.608475 290.5824,38.608475 C289.1712,38.608475 288.288,39.693275 288.288,41.037275 C288.288,42.381275 289.1712,43.475675 290.5824,43.475675 Z M290.5824,42.832475 C289.5936,42.832475 289.0368,41.987675 289.0368,41.037275 C289.0368,40.096475 289.5936,39.251675 290.5824,39.251675 C291.5712,39.251675 292.1184,40.096475 292.1184,41.037275 C292.1184,41.987675 291.5712,42.832475 290.5824,42.832475 Z M295.6416,43.360475 L296.8512,39.635675 L298.0608,43.360475 L298.7808,43.360475 L300.2592,38.723675 L299.5104,38.723675 L298.3776,42.419675 L297.1584,38.723675 L296.544,38.723675 L295.3248,42.419675 L294.192,38.723675 L293.4432,38.723675 L294.9216,43.360475 L295.6416,43.360475 Z M301.8144,43.360475 L301.8144,36.957275 L301.0944,36.957275 L301.0944,43.360475 L301.8144,43.360475 Z M305.3472,43.475675 C306.1056,43.475675 306.7296,43.226075 307.1904,42.765275 L306.8448,42.294875 C306.48,42.669275 305.9424,42.880475 305.4144,42.880475 C304.416,42.880475 303.8016,42.150875 303.744,41.277275 L307.4976,41.277275 L307.4976,41.094875 C307.4976,39.702875 306.672,38.608475 305.2704,38.608475 C303.9456,38.608475 302.9856,39.693275 302.9856,41.037275 C302.9856,42.486875 303.9744,43.475675 305.3472,43.475675 Z M306.7872,40.749275 L303.744,40.749275 C303.7824,40.038875 304.272,39.203675 305.2608,39.203675 C306.3168,39.203675 306.7776,40.058075 306.7872,40.749275 Z M310.4544,43.475675 C311.1072,43.475675 311.6736,43.139675 312.0192,42.669275 L312.0192,43.360475 L312.7392,43.360475 L312.7392,36.957275 L312.0192,36.957275 L312.0192,39.424475 C311.6448,38.915675 311.0784,38.608475 310.4544,38.608475 C309.2352,38.608475 308.3904,39.568475 308.3904,41.046875 C308.3904,42.554075 309.2448,43.475675 310.4544,43.475675 Z M310.6272,42.832475 C309.696,42.832475 309.1392,42.074075 309.1392,41.046875 C309.1392,40.019675 309.696,39.251675 310.6272,39.251675 C311.2032,39.251675 311.76,39.597275 312.0192,40.000475 L312.0192,42.102875 C311.76,42.506075 311.2032,42.832475 310.6272,42.832475 Z M316.0416,45.242075 C317.1744,45.242075 318.2496,44.762075 318.2496,43.226075 L318.2496,38.723675 L317.5296,38.723675 L317.5296,39.424475 C317.1552,38.915675 316.5984,38.608475 315.9744,38.608475 C314.7552,38.608475 313.9104,39.530075 313.9104,41.018075 C313.9104,42.515675 314.7648,43.418075 315.9744,43.418075 C316.6272,43.418075 317.1936,43.062875 317.5296,42.592475 L317.5296,43.254875 C317.5296,44.272475 316.8096,44.646875 316.0416,44.646875 C315.3792,44.646875 314.9184,44.474075 314.5344,44.013275 L314.1696,44.550875 C314.7168,45.088475 315.2544,45.242075 316.0416,45.242075 Z M316.1472,42.784475 C315.216,42.784475 314.6592,42.035675 314.6592,41.018075 C314.6592,39.990875 315.216,39.251675 316.1472,39.251675 C316.7232,39.251675 317.28,39.597275 317.5296,40.000475 L317.5296,42.026075 C317.28,42.429275 316.7232,42.784475 316.1472,42.784475 Z M321.7824,43.475675 C322.5408,43.475675 323.1648,43.226075 323.6256,42.765275 L323.28,42.294875 C322.9152,42.669275 322.3776,42.880475 321.8496,42.880475 C320.8512,42.880475 320.2368,42.150875 320.1792,41.277275 L323.9328,41.277275 L323.9328,41.094875 C323.9328,39.702875 323.1072,38.608475 321.7056,38.608475 C320.3808,38.608475 319.4208,39.693275 319.4208,41.037275 C319.4208,42.486875 320.4096,43.475675 321.7824,43.475675 Z M323.2224,40.749275 L320.1792,40.749275 C320.2176,40.038875 320.7072,39.203675 321.696,39.203675 C322.752,39.203675 323.2128,40.058075 323.2224,40.749275 Z" id="CompanyKnowledge" fill="#29CC96" fill-rule="nonzero"></path>
        <rect id="Rectangle" fill="#F2F3F5" x="234" y="95.360475" width="197" height="4"></rect>
        <rect id="Rectangle-Copy" fill="#F2F3F5" x="234" y="104.360475" width="197" height="4"></rect>
        <rect id="Rectangle-Copy-2" fill="#F2F3F5" x="234" y="113.360475" width="197" height="4"></rect>
        <rect id="Rectangle-Copy-3" fill="#F2F3F5" x="234" y="129.360475" width="177" height="88" rx="2.4"></rect>
        <line x1="204" y1="55.860475" x2="457" y2="55.860475" id="Line-Copy-53" stroke="#DADEE6" stroke-width="0.55999999"></line>
        <g id="Rectangle">
            <use fill="black" fill-opacity="1" filter="url(#filter-6)" xlink:href="#path-5"></use>
            <use stroke="#F2F3F5" stroke-width="0.8" fill="#FFFFFF" xlink:href="#path-5"></use>
        </g>
        <rect id="Rectangle-Copy-7" fill="#E9EBF0" x="81" y="214" width="159.157895" height="34" rx="2.4"></rect>
        <g id="verification/dot/trusted/selected" transform="translate(89.000000, 223.000000)">
            <g id="Group" transform="translate(3.368421, 3.400000)">
                <rect id="Rectangle-3" stroke="#29CC96" stroke-width="0.8" fill="#29CC96" x="0" y="0" width="10.1052632" height="10.2" rx="4.8"></rect>
                <path d="M7.2467647,2.90502333 C6.16887359,4.06088515 5.18718557,5.20129844 4.13957052,6.33986819 L2.81427043,5.20587232 C2.72398518,5.12838938 2.60857417,5.09283795 2.49358618,5.10651175 C2.37859819,5.12018556 2.27341149,5.18217215 2.20100842,5.2788024 C2.05024954,5.4802632 2.08090719,5.77424009 2.26914864,5.93513103 L3.904514,7.33529878 C4.07870222,7.48433497 4.33038495,7.46883978 4.48711836,7.29883608 C5.6591302,6.04183548 6.71274159,4.80245366 7.86687344,3.56505541 C7.99719026,3.4306043 8.03594841,3.22412623 7.96482528,3.04591988 C7.89370434,2.86771353 7.72718489,2.75512837 7.54661875,2.76287597 C7.43329447,2.76645923 7.3255566,2.81750701 7.2467647,2.90502333 Z" id="Fill-1" fill="#FFFFFF"></path>
            </g>
        </g>
        <path d="M117.0656,235 L117.0656,228.9296 L119.2384,228.9296 L119.2384,227.5296 L113.28,227.5296 L113.28,228.9296 L115.464,228.9296 L115.464,235 L117.0656,235 Z M122.7664,235.1344 C123.6064,235.1344 124.4576,234.8768 124.9952,234.384 L124.368,233.4656 C124.0208,233.8016 123.4272,234.0032 122.9232,234.0032 C122.0048,234.0032 121.456,233.432 121.3664,232.7488 L125.3872,232.7488 L125.3872,232.4352 C125.3872,230.6656 124.2896,229.456 122.6768,229.456 C121.0304,229.456 119.8768,230.7216 119.8768,232.2896 C119.8768,234.0256 121.12,235.1344 122.7664,235.1344 Z M124.0096,231.7856 L121.344,231.7856 C121.4112,231.248 121.792,230.5872 122.6768,230.5872 C123.6176,230.5872 123.976,231.2704 124.0096,231.7856 Z M128.9376,235.1344 C130.0464,235.1344 130.7184,234.6528 131.0768,234.1488 L130.1472,233.2864 C129.8896,233.6448 129.4976,233.8688 129.0048,233.8688 C128.1424,233.8688 127.5376,233.2304 127.5376,232.2896 C127.5376,231.3488 128.1424,230.7216 129.0048,230.7216 C129.4976,230.7216 129.8896,230.9232 130.1472,231.304 L131.0768,230.4304 C130.7184,229.9376 130.0464,229.456 128.9376,229.456 C127.2688,229.456 126.0704,230.632 126.0704,232.2896 C126.0704,233.9584 127.2688,235.1344 128.9376,235.1344 Z M133.4288,235 L133.4288,231.36 C133.6752,231.0352 134.112,230.7216 134.6608,230.7216 C135.2768,230.7216 135.6688,230.9568 135.6688,231.7072 L135.6688,235 L137.0912,235 L137.0912,231.1584 C137.0912,230.1056 136.52,229.456 135.3328,229.456 C134.448,229.456 133.776,229.8816 133.4288,230.296 L133.4288,227.5296 L132.0064,227.5296 L132.0064,235 L133.4288,235 Z M144.0576,235.1344 C146.0736,235.1344 147.048,234.104 147.048,232.7376 C147.048,231.08 145.48,230.7104 144.248,230.4304 C143.3856,230.2288 142.7584,230.072 142.7584,229.568 C142.7584,229.12 143.1392,228.8064 143.856,228.8064 C144.584,228.8064 145.3904,229.064 145.9952,229.624 L146.88,228.4592 C146.1408,227.776 145.1552,227.4176 143.968,227.4176 C142.2096,227.4176 141.1344,228.4256 141.1344,229.6688 C141.1344,231.3376 142.7024,231.6736 143.9232,231.9536 C144.7856,232.1552 145.4352,232.3456 145.4352,232.9056 C145.4352,233.3312 145.0096,233.7456 144.136,233.7456 C143.1056,233.7456 142.288,233.2864 141.7616,232.7376 L140.888,233.9472 C141.5936,234.6528 142.624,235.1344 144.0576,235.1344 Z M149.904,235.1344 C150.4976,235.1344 150.8784,234.9776 151.0912,234.7872 L150.7888,233.712 C150.7104,233.7904 150.5088,233.8688 150.296,233.8688 C149.9824,233.8688 149.8032,233.6112 149.8032,233.2752 L149.8032,230.8336 L150.9008,230.8336 L150.9008,229.5904 L149.8032,229.5904 L149.8032,228.112 L148.3696,228.112 L148.3696,229.5904 L147.4736,229.5904 L147.4736,230.8336 L148.3696,230.8336 L148.3696,233.656 C148.3696,234.6192 148.9072,235.1344 149.904,235.1344 Z M153.4096,235.1344 C154.1152,235.1344 154.7536,234.8768 155.1232,234.44 L155.1232,235 L156.5456,235 L156.5456,231.5056 C156.5456,229.9488 155.4144,229.456 154.1824,229.456 C153.3312,229.456 152.48,229.7248 151.8192,230.3072 L152.3568,231.2592 C152.816,230.8336 153.3536,230.6208 153.936,230.6208 C154.6528,230.6208 155.1232,230.9792 155.1232,231.528 L155.1232,232.2784 C154.7648,231.8416 154.1264,231.6176 153.4096,231.6176 C152.5472,231.6176 151.528,232.0768 151.528,233.3424 C151.528,234.552 152.5472,235.1344 153.4096,235.1344 Z M153.9808,234.1712 C153.4208,234.1712 152.9616,233.88 152.9616,233.376 C152.9616,232.8496 153.4208,232.5584 153.9808,232.5584 C154.44,232.5584 154.888,232.7152 155.1232,233.0288 L155.1232,233.7008 C154.888,234.0144 154.44,234.1712 153.9808,234.1712 Z M160.4768,235.1344 C161.5856,235.1344 162.2576,234.6528 162.616,234.1488 L161.6864,233.2864 C161.4288,233.6448 161.0368,233.8688 160.544,233.8688 C159.6816,233.8688 159.0768,233.2304 159.0768,232.2896 C159.0768,231.3488 159.6816,230.7216 160.544,230.7216 C161.0368,230.7216 161.4288,230.9232 161.6864,231.304 L162.616,230.4304 C162.2576,229.9376 161.5856,229.456 160.4768,229.456 C158.808,229.456 157.6096,230.632 157.6096,232.2896 C157.6096,233.9584 158.808,235.1344 160.4768,235.1344 Z M164.968,235 L164.968,233.6112 L165.6176,232.9168 L167.0512,235 L168.832,235 L166.6256,232.0432 L168.7648,229.5904 L167.0176,229.5904 L164.968,231.9984 L164.968,227.5296 L163.5456,227.5296 L163.5456,235 L164.968,235 Z M175.7648,235 L175.7648,228.9296 L177.9376,228.9296 L177.9376,227.5296 L171.9792,227.5296 L171.9792,228.9296 L174.1632,228.9296 L174.1632,235 L175.7648,235 Z M180.3456,235 L180.3456,231.4272 C180.5808,231.08 181.208,230.8112 181.6784,230.8112 C181.8352,230.8112 181.9696,230.8336 182.0704,230.856 L182.0704,229.4672 C181.3984,229.4672 180.7264,229.848 180.3456,230.3296 L180.3456,229.5904 L178.9232,229.5904 L178.9232,235 L180.3456,235 Z M184.4896,235.1344 C185.1952,235.1344 185.8336,234.8768 186.2032,234.44 L186.2032,235 L187.6256,235 L187.6256,231.5056 C187.6256,229.9488 186.4944,229.456 185.2624,229.456 C184.4112,229.456 183.56,229.7248 182.8992,230.3072 L183.4368,231.2592 C183.896,230.8336 184.4336,230.6208 185.016,230.6208 C185.7328,230.6208 186.2032,230.9792 186.2032,231.528 L186.2032,232.2784 C185.8448,231.8416 185.2064,231.6176 184.4896,231.6176 C183.6272,231.6176 182.608,232.0768 182.608,233.3424 C182.608,234.552 183.6272,235.1344 184.4896,235.1344 Z M185.0608,234.1712 C184.5008,234.1712 184.0416,233.88 184.0416,233.376 C184.0416,232.8496 184.5008,232.5584 185.0608,232.5584 C185.52,232.5584 185.968,232.7152 186.2032,233.0288 L186.2032,233.7008 C185.968,234.0144 185.52,234.1712 185.0608,234.1712 Z M189.7424,228.7952 C190.2128,228.7952 190.5936,228.4144 190.5936,227.944 C190.5936,227.4736 190.2128,227.0928 189.7424,227.0928 C189.2832,227.0928 188.8912,227.4736 188.8912,227.944 C188.8912,228.4144 189.2832,228.7952 189.7424,228.7952 Z M190.4592,235 L190.4592,229.5904 L189.0368,229.5904 L189.0368,235 L190.4592,235 Z M193.2928,235 L193.2928,231.36 C193.528,231.0352 193.9648,230.7216 194.5248,230.7216 C195.1296,230.7216 195.5216,230.9792 195.5216,231.7296 L195.5216,235 L196.944,235 L196.944,231.1808 C196.944,230.128 196.3728,229.456 195.1856,229.456 C194.3008,229.456 193.64,229.8816 193.2928,230.296 L193.2928,229.5904 L191.8704,229.5904 L191.8704,235 L193.2928,235 Z M199.0608,228.7952 C199.5312,228.7952 199.912,228.4144 199.912,227.944 C199.912,227.4736 199.5312,227.0928 199.0608,227.0928 C198.6016,227.0928 198.2096,227.4736 198.2096,227.944 C198.2096,228.4144 198.6016,228.7952 199.0608,228.7952 Z M199.7776,235 L199.7776,229.5904 L198.3552,229.5904 L198.3552,235 L199.7776,235 Z M202.6112,235 L202.6112,231.36 C202.8464,231.0352 203.2832,230.7216 203.8432,230.7216 C204.448,230.7216 204.84,230.9792 204.84,231.7296 L204.84,235 L206.2624,235 L206.2624,231.1808 C206.2624,230.128 205.6912,229.456 204.504,229.456 C203.6192,229.456 202.9584,229.8816 202.6112,230.296 L202.6112,229.5904 L201.1888,229.5904 L201.1888,235 L202.6112,235 Z M209.8912,237.1952 C211.224,237.1952 212.8144,236.6912 212.8144,234.6304 L212.8144,229.5904 L211.3808,229.5904 L211.3808,230.2848 C210.944,229.736 210.3616,229.456 209.712,229.456 C208.3456,229.456 207.3264,230.4416 207.3264,232.2112 C207.3264,234.0144 208.3568,234.9664 209.712,234.9664 C210.3728,234.9664 210.9552,234.6528 211.3808,234.1152 L211.3808,234.664 C211.3808,235.728 210.5744,236.0304 209.8912,236.0304 C209.208,236.0304 208.6368,235.84 208.2,235.3584 L207.5616,236.3888 C208.2448,236.9824 208.9616,237.1952 209.8912,237.1952 Z M210.16,233.7008 C209.3536,233.7008 208.7936,233.1408 208.7936,232.2112 C208.7936,231.2816 209.3536,230.7216 210.16,230.7216 C210.6304,230.7216 211.1456,230.9792 211.3808,231.3376 L211.3808,233.0848 C211.1456,233.432 210.6304,233.7008 210.16,233.7008 Z" id="TechStackTraining" fill="#1F3966" fill-rule="nonzero"></path>
        <g id="verification/dot/trusted/active" transform="translate(89.000000, 152.360475)">
            <g id="Group" transform="translate(3.364948, 3.400000)">
                <rect id="Rectangle-3" stroke="#29CC96" stroke-width="0.8" fill="#F2FFFB" x="0" y="0" width="10.0948454" height="10.2" rx="4.8"></rect>
                <path d="M7.23929381,2.90502333 C6.16251392,4.06088515 5.18183795,5.20129844 4.13530292,6.33986819 L2.81136912,5.20587232 C2.72117695,5.12838938 2.60588492,5.09283795 2.49101548,5.10651175 C2.37614603,5.12018556 2.27106777,5.18217215 2.19873934,5.2788024 C2.04813588,5.4802632 2.07876192,5.77424009 2.26680931,5.93513103 L3.90048873,7.33529878 C4.07449737,7.48433497 4.32592063,7.46883978 4.48249247,7.29883608 C5.65329605,6.04183548 6.70582124,4.80245366 7.85876326,3.56505541 C7.98894573,3.4306043 8.02766393,3.22412623 7.95661412,3.04591988 C7.8855665,2.86771353 7.71921872,2.75512837 7.53883873,2.76287597 C7.42563128,2.76645923 7.31800448,2.81750701 7.23929381,2.90502333 Z" id="Fill-1" fill="#29CC96"></path>
            </g>
        </g>
        <path d="M117.775076,163.794875 C119.130276,163.794875 120.026276,163.167675 120.653476,162.316475 L119.858276,161.879675 C119.432676,162.518075 118.659876,162.966075 117.775076,162.966075 C116.173476,162.966075 114.930276,161.700475 114.930276,159.930875 C114.930276,158.150075 116.173476,156.895675 117.775076,156.895675 C118.659876,156.895675 119.432676,157.354875 119.858276,157.982075 L120.642276,157.545275 C120.048676,156.705275 119.130276,156.066875 117.775076,156.066875 C115.658276,156.066875 113.967076,157.634875 113.967076,159.930875 C113.967076,162.226875 115.658276,163.794875 117.775076,163.794875 Z M124.170276,163.794875 C125.816676,163.794875 126.847076,162.518075 126.847076,160.950075 C126.847076,159.382075 125.816676,158.116475 124.170276,158.116475 C122.523876,158.116475 121.493476,159.382075 121.493476,160.950075 C121.493476,162.518075 122.523876,163.794875 124.170276,163.794875 Z M124.170276,163.044475 C123.016676,163.044475 122.367076,162.058875 122.367076,160.950075 C122.367076,159.852475 123.016676,158.866875 124.170276,158.866875 C125.323876,158.866875 125.962276,159.852475 125.962276,160.950075 C125.962276,162.058875 125.323876,163.044475 124.170276,163.044475 Z M129.053476,163.660475 L129.053476,159.706875 C129.344676,159.270075 129.927076,158.866875 130.475876,158.866875 C131.181476,158.866875 131.472676,159.303675 131.472676,159.986875 L131.472676,163.660475 L132.312676,163.660475 L132.312676,159.695675 C132.592676,159.270075 133.186276,158.866875 133.746276,158.866875 C134.440676,158.866875 134.743076,159.303675 134.743076,159.986875 L134.743076,163.660475 L135.583076,163.660475 L135.583076,159.751675 C135.583076,158.665275 135.056676,158.116475 134.071076,158.116475 C133.287076,158.116475 132.559076,158.631675 132.256676,159.124475 C132.099876,158.564475 131.629476,158.116475 130.800676,158.116475 C130.005476,158.116475 129.277476,158.687675 129.053476,159.034875 L129.053476,158.250875 L128.213476,158.250875 L128.213476,163.660475 L129.053476,163.660475 Z M138.103076,165.721275 L138.103076,162.842875 C138.539876,163.447675 139.189476,163.794875 139.928676,163.794875 C141.351076,163.794875 142.336676,162.697275 142.336676,160.950075 C142.336676,159.191675 141.351076,158.116475 139.928676,158.116475 C139.167076,158.116475 138.495076,158.508475 138.103076,159.057275 L138.103076,158.250875 L137.263076,158.250875 L137.263076,165.721275 L138.103076,165.721275 Z M139.715876,163.044475 C139.055076,163.044475 138.394276,162.641275 138.103076,162.170875 L138.103076,159.729275 C138.394276,159.258875 139.055076,158.866875 139.715876,158.866875 C140.802276,158.866875 141.451876,159.751675 141.451876,160.950075 C141.451876,162.148475 140.802276,163.044475 139.715876,163.044475 Z M145.282276,163.794875 C146.010276,163.794875 146.626276,163.537275 147.074276,163.044475 L147.074276,163.660475 L147.914276,163.660475 L147.914276,159.942075 C147.914276,158.631675 146.962276,158.116475 145.819876,158.116475 C144.935076,158.116475 144.240676,158.407675 143.658276,159.012475 L144.050276,159.594875 C144.531876,159.079675 145.058276,158.844475 145.707876,158.844475 C146.491876,158.844475 147.074276,159.258875 147.074276,159.986875 L147.074276,160.961275 C146.637476,160.457275 146.021476,160.222075 145.282276,160.222075 C144.363876,160.222075 143.389476,160.793275 143.389476,162.002875 C143.389476,163.178875 144.363876,163.794875 145.282276,163.794875 Z M145.584676,163.190075 C144.800676,163.190075 144.251876,162.697275 144.251876,162.014075 C144.251876,161.319675 144.800676,160.826875 145.584676,160.826875 C146.178276,160.826875 146.749476,161.050875 147.074276,161.498875 L147.074276,162.518075 C146.749476,162.966075 146.178276,163.190075 145.584676,163.190075 Z M150.434276,163.660475 L150.434276,159.706875 C150.747876,159.270075 151.375076,158.866875 152.035876,158.866875 C152.763876,158.866875 153.245476,159.169275 153.245476,160.121275 L153.245476,163.660475 L154.085476,163.660475 L154.085476,159.863675 C154.085476,158.687675 153.491876,158.116475 152.360676,158.116475 C151.554276,158.116475 150.815076,158.586875 150.434276,159.034875 L150.434276,158.250875 L149.594276,158.250875 L149.594276,163.660475 L150.434276,163.660475 Z M156.079076,165.855675 C156.795876,165.844475 157.344676,165.542075 157.669476,164.758075 L160.379876,158.250875 L159.461476,158.250875 L157.669476,162.686075 L155.866276,158.250875 L154.959076,158.250875 L157.221476,163.716475 L156.863076,164.534075 C156.672676,164.982075 156.426276,165.105275 156.056676,165.105275 C155.922276,165.105275 155.720676,165.071675 155.597476,165.015675 L155.463076,165.777275 C155.619876,165.822075 155.899876,165.855675 156.079076,165.855675 Z M167.581476,163.794875 C169.787876,163.794875 171.288676,162.137275 171.288676,159.930875 C171.288676,157.724475 169.787876,156.066875 167.581476,156.066875 C165.363876,156.066875 163.874276,157.724475 163.874276,159.930875 C163.874276,162.137275 165.363876,163.794875 167.581476,163.794875 Z M167.581476,162.966075 C165.901476,162.966075 164.837476,161.666875 164.837476,159.930875 C164.837476,158.183675 165.901476,156.895675 167.581476,156.895675 C169.250276,156.895675 170.325476,158.183675 170.325476,159.930875 C170.325476,161.666875 169.250276,162.966075 167.581476,162.966075 Z M173.551076,163.660475 L173.551076,159.830075 C173.797476,159.393275 174.503076,158.967675 175.018276,158.967675 C175.152676,158.967675 175.253476,158.978875 175.354276,159.001275 L175.354276,158.138875 C174.615076,158.138875 173.987876,158.553275 173.551076,159.124475 L173.551076,158.250875 L172.711076,158.250875 L172.711076,163.660475 L173.551076,163.660475 Z M178.579876,165.855675 C179.901476,165.855675 181.155876,165.295675 181.155876,163.503675 L181.155876,158.250875 L180.315876,158.250875 L180.315876,159.068475 C179.879076,158.474875 179.229476,158.116475 178.501476,158.116475 C177.079076,158.116475 176.093476,159.191675 176.093476,160.927675 C176.093476,162.674875 177.090276,163.727675 178.501476,163.727675 C179.263076,163.727675 179.923876,163.313275 180.315876,162.764475 L180.315876,163.537275 C180.315876,164.724475 179.475876,165.161275 178.579876,165.161275 C177.807076,165.161275 177.269476,164.959675 176.821476,164.422075 L176.395876,165.049275 C177.034276,165.676475 177.661476,165.855675 178.579876,165.855675 Z M178.703076,162.988475 C177.616676,162.988475 176.967076,162.114875 176.967076,160.927675 C176.967076,159.729275 177.616676,158.866875 178.703076,158.866875 C179.375076,158.866875 180.024676,159.270075 180.315876,159.740475 L180.315876,162.103675 C180.024676,162.574075 179.375076,162.988475 178.703076,162.988475 Z M189.264676,163.794875 C190.619876,163.794875 191.515876,163.167675 192.143076,162.316475 L191.347876,161.879675 C190.922276,162.518075 190.149476,162.966075 189.264676,162.966075 C187.663076,162.966075 186.419876,161.700475 186.419876,159.930875 C186.419876,158.150075 187.663076,156.895675 189.264676,156.895675 C190.149476,156.895675 190.922276,157.354875 191.347876,157.982075 L192.131876,157.545275 C191.538276,156.705275 190.619876,156.066875 189.264676,156.066875 C187.147876,156.066875 185.456676,157.634875 185.456676,159.930875 C185.456676,162.226875 187.147876,163.794875 189.264676,163.794875 Z M194.136676,163.660475 L194.136676,159.706875 C194.461476,159.270075 195.088676,158.866875 195.738276,158.866875 C196.466276,158.866875 196.959076,159.146875 196.959076,160.098875 L196.959076,163.660475 L197.799076,163.660475 L197.799076,159.841275 C197.799076,158.665275 197.205476,158.116475 196.074276,158.116475 C195.256676,158.116475 194.517476,158.586875 194.136676,159.034875 L194.136676,156.190075 L193.296676,156.190075 L193.296676,163.660475 L194.136676,163.660475 Z M201.069476,163.794875 C201.797476,163.794875 202.413476,163.537275 202.861476,163.044475 L202.861476,163.660475 L203.701476,163.660475 L203.701476,159.942075 C203.701476,158.631675 202.749476,158.116475 201.607076,158.116475 C200.722276,158.116475 200.027876,158.407675 199.445476,159.012475 L199.837476,159.594875 C200.319076,159.079675 200.845476,158.844475 201.495076,158.844475 C202.279076,158.844475 202.861476,159.258875 202.861476,159.986875 L202.861476,160.961275 C202.424676,160.457275 201.808676,160.222075 201.069476,160.222075 C200.151076,160.222075 199.176676,160.793275 199.176676,162.002875 C199.176676,163.178875 200.151076,163.794875 201.069476,163.794875 Z M201.371876,163.190075 C200.587876,163.190075 200.039076,162.697275 200.039076,162.014075 C200.039076,161.319675 200.587876,160.826875 201.371876,160.826875 C201.965476,160.826875 202.536676,161.050875 202.861476,161.498875 L202.861476,162.518075 C202.536676,162.966075 201.965476,163.190075 201.371876,163.190075 Z M206.221476,163.660475 L206.221476,159.830075 C206.467876,159.393275 207.173476,158.967675 207.688676,158.967675 C207.823076,158.967675 207.923876,158.978875 208.024676,159.001275 L208.024676,158.138875 C207.285476,158.138875 206.658276,158.553275 206.221476,159.124475 L206.221476,158.250875 L205.381476,158.250875 L205.381476,163.660475 L206.221476,163.660475 Z M210.443876,163.794875 C210.936676,163.794875 211.239076,163.649275 211.451876,163.447675 L211.205476,162.820475 C211.093476,162.943675 210.869476,163.044475 210.634276,163.044475 C210.264676,163.044475 210.085476,162.753275 210.085476,162.350075 L210.085476,158.990075 L211.183076,158.990075 L211.183076,158.250875 L210.085476,158.250875 L210.085476,156.772475 L209.245476,156.772475 L209.245476,158.250875 L208.349476,158.250875 L208.349476,158.990075 L209.245476,158.990075 L209.245476,162.529275 C209.245476,163.335675 209.648676,163.794875 210.443876,163.794875 Z" id="CompanyOrgChart" fill="#1F3966" fill-rule="nonzero"></path>
        <g id="verification/dot/trusted/active" transform="translate(89.000000, 186.360475)">
            <g id="Group" transform="translate(3.368421, 3.400000)">
                <rect id="Rectangle-3" stroke="#29CC96" stroke-width="0.8" fill="#F2FFFB" x="0" y="0" width="10.1052632" height="10.2" rx="4.8"></rect>
                <path d="M7.2467647,2.90502333 C6.16887359,4.06088515 5.18718557,5.20129844 4.13957052,6.33986819 L2.81427043,5.20587232 C2.72398518,5.12838938 2.60857417,5.09283795 2.49358618,5.10651175 C2.37859819,5.12018556 2.27341149,5.18217215 2.20100842,5.2788024 C2.05024954,5.4802632 2.08090719,5.77424009 2.26914864,5.93513103 L3.904514,7.33529878 C4.07870222,7.48433497 4.33038495,7.46883978 4.48711836,7.29883608 C5.6591302,6.04183548 6.71274159,4.80245366 7.86687344,3.56505541 C7.99719026,3.4306043 8.03594841,3.22412623 7.96482528,3.04591988 C7.89370434,2.86771353 7.72718489,2.75512837 7.54661875,2.76287597 C7.43329447,2.76645923 7.3255566,2.81750701 7.2467647,2.90502333 Z" id="Fill-1" fill="#29CC96"></path>
            </g>
        </g>
        <path d="M118.696253,197.660475 L118.696253,196.831675 L115.224253,196.831675 L115.224253,190.190075 L114.294653,190.190075 L114.294653,197.660475 L118.696253,197.660475 Z M120.387453,191.343675 C120.701053,191.343675 120.958653,191.086075 120.958653,190.772475 C120.958653,190.458875 120.701053,190.212475 120.387453,190.212475 C120.085053,190.212475 119.827453,190.458875 119.827453,190.772475 C119.827453,191.086075 120.085053,191.343675 120.387453,191.343675 Z M120.813053,197.660475 L120.813053,192.250875 L119.973053,192.250875 L119.973053,197.660475 L120.813053,197.660475 Z M123.568253,197.660475 L123.568253,192.990075 L124.665853,192.990075 L124.665853,192.250875 L123.568253,192.250875 L123.568253,191.836475 C123.568253,191.153275 123.870653,190.772475 124.419453,190.772475 C124.609853,190.772475 124.766653,190.817275 124.901053,190.895675 L125.113853,190.268475 C124.901053,190.134075 124.609853,190.078075 124.296253,190.078075 C123.355453,190.078075 122.728253,190.716475 122.728253,191.836475 L122.728253,192.250875 L121.832253,192.250875 L121.832253,192.990075 L122.728253,192.990075 L122.728253,197.660475 L123.568253,197.660475 Z M128.104253,197.794875 C128.989053,197.794875 129.717053,197.503675 130.254653,196.966075 L129.851453,196.417275 C129.425853,196.854075 128.798653,197.100475 128.182653,197.100475 C127.017853,197.100475 126.301053,196.249275 126.233853,195.230075 L130.613053,195.230075 L130.613053,195.017275 C130.613053,193.393275 129.649853,192.116475 128.014653,192.116475 C126.469053,192.116475 125.349053,193.382075 125.349053,194.950075 C125.349053,196.641275 126.502653,197.794875 128.104253,197.794875 Z M129.784253,194.614075 L126.233853,194.614075 C126.278653,193.785275 126.849853,192.810875 128.003453,192.810875 C129.235453,192.810875 129.773053,193.807675 129.784253,194.614075 Z M137.310653,197.794875 C139.326653,197.794875 140.065853,196.686075 140.065853,195.599675 C140.065853,194.031675 138.677053,193.650875 137.456253,193.326075 C136.504253,193.068475 135.641853,192.844475 135.641853,192.094075 C135.641853,191.388475 136.280253,190.906875 137.176253,190.906875 C137.993853,190.906875 138.777853,191.186875 139.337853,191.802875 L139.897853,191.119675 C139.270653,190.458875 138.385853,190.078075 137.243453,190.078075 C135.776253,190.078075 134.678653,190.918075 134.678653,192.150075 C134.678653,193.617275 136.011453,193.953275 137.209853,194.266875 C138.195453,194.535675 139.102653,194.782075 139.102653,195.678075 C139.102653,196.249275 138.677053,196.966075 137.344253,196.966075 C136.291453,196.966075 135.485053,196.450875 134.992253,195.902075 L134.443453,196.607675 C135.059453,197.302075 136.011453,197.794875 137.310653,197.794875 Z M142.787453,197.794875 C143.280253,197.794875 143.582653,197.649275 143.795453,197.447675 L143.549053,196.820475 C143.437053,196.943675 143.213053,197.044475 142.977853,197.044475 C142.608253,197.044475 142.429053,196.753275 142.429053,196.350075 L142.429053,192.990075 L143.526653,192.990075 L143.526653,192.250875 L142.429053,192.250875 L142.429053,190.772475 L141.589053,190.772475 L141.589053,192.250875 L140.693053,192.250875 L140.693053,192.990075 L141.589053,192.990075 L141.589053,196.529275 C141.589053,197.335675 141.992253,197.794875 142.787453,197.794875 Z M147.077053,197.794875 C148.723453,197.794875 149.753853,196.518075 149.753853,194.950075 C149.753853,193.382075 148.723453,192.116475 147.077053,192.116475 C145.430653,192.116475 144.400253,193.382075 144.400253,194.950075 C144.400253,196.518075 145.430653,197.794875 147.077053,197.794875 Z M147.077053,197.044475 C145.923453,197.044475 145.273853,196.058875 145.273853,194.950075 C145.273853,193.852475 145.923453,192.866875 147.077053,192.866875 C148.230653,192.866875 148.869053,193.852475 148.869053,194.950075 C148.869053,196.058875 148.230653,197.044475 147.077053,197.044475 Z M151.960253,197.660475 L151.960253,193.830075 C152.206653,193.393275 152.912253,192.967675 153.427453,192.967675 C153.561853,192.967675 153.662653,192.978875 153.763453,193.001275 L153.763453,192.138875 C153.024253,192.138875 152.397053,192.553275 151.960253,193.124475 L151.960253,192.250875 L151.120253,192.250875 L151.120253,197.660475 L151.960253,197.660475 Z M155.129853,199.855675 C155.846653,199.844475 156.395453,199.542075 156.720253,198.758075 L159.430653,192.250875 L158.512253,192.250875 L156.720253,196.686075 L154.917053,192.250875 L154.009853,192.250875 L156.272253,197.716475 L155.913853,198.534075 C155.723453,198.982075 155.477053,199.105275 155.107453,199.105275 C154.973053,199.105275 154.771453,199.071675 154.648253,199.015675 L154.513853,199.777275 C154.670653,199.822075 154.950653,199.855675 155.129853,199.855675 Z M166.733053,197.794875 C168.088253,197.794875 168.984253,197.167675 169.611453,196.316475 L168.816253,195.879675 C168.390653,196.518075 167.617853,196.966075 166.733053,196.966075 C165.131453,196.966075 163.888253,195.700475 163.888253,193.930875 C163.888253,192.150075 165.131453,190.895675 166.733053,190.895675 C167.617853,190.895675 168.390653,191.354875 168.816253,191.982075 L169.600253,191.545275 C169.006653,190.705275 168.088253,190.066875 166.733053,190.066875 C164.616253,190.066875 162.925053,191.634875 162.925053,193.930875 C162.925053,196.226875 164.616253,197.794875 166.733053,197.794875 Z M172.355453,197.794875 C173.083453,197.794875 173.699453,197.537275 174.147453,197.044475 L174.147453,197.660475 L174.987453,197.660475 L174.987453,193.942075 C174.987453,192.631675 174.035453,192.116475 172.893053,192.116475 C172.008253,192.116475 171.313853,192.407675 170.731453,193.012475 L171.123453,193.594875 C171.605053,193.079675 172.131453,192.844475 172.781053,192.844475 C173.565053,192.844475 174.147453,193.258875 174.147453,193.986875 L174.147453,194.961275 C173.710653,194.457275 173.094653,194.222075 172.355453,194.222075 C171.437053,194.222075 170.462653,194.793275 170.462653,196.002875 C170.462653,197.178875 171.437053,197.794875 172.355453,197.794875 Z M172.657853,197.190075 C171.873853,197.190075 171.325053,196.697275 171.325053,196.014075 C171.325053,195.319675 171.873853,194.826875 172.657853,194.826875 C173.251453,194.826875 173.822653,195.050875 174.147453,195.498875 L174.147453,196.518075 C173.822653,196.966075 173.251453,197.190075 172.657853,197.190075 Z M177.507453,197.660475 L177.507453,193.830075 C177.753853,193.393275 178.459453,192.967675 178.974653,192.967675 C179.109053,192.967675 179.209853,192.978875 179.310653,193.001275 L179.310653,192.138875 C178.571453,192.138875 177.944253,192.553275 177.507453,193.124475 L177.507453,192.250875 L176.667453,192.250875 L176.667453,197.660475 L177.507453,197.660475 Z M182.457853,197.794875 C183.219453,197.794875 183.880253,197.402875 184.283453,196.854075 L184.283453,197.660475 L185.123453,197.660475 L185.123453,190.190075 L184.283453,190.190075 L184.283453,193.068475 C183.846653,192.474875 183.185853,192.116475 182.457853,192.116475 C181.035453,192.116475 180.049853,193.236475 180.049853,194.961275 C180.049853,196.719675 181.046653,197.794875 182.457853,197.794875 Z M182.659453,197.044475 C181.573053,197.044475 180.923453,196.159675 180.923453,194.961275 C180.923453,193.762875 181.573053,192.866875 182.659453,192.866875 C183.331453,192.866875 183.981053,193.270075 184.283453,193.740475 L184.283453,196.193275 C183.981053,196.663675 183.331453,197.044475 182.659453,197.044475 Z" id="LifeStoryCard" fill="#1F3966" fill-rule="nonzero"></path>
        <g id="verification/dot/trusted/active" transform="translate(88.000000, 260.360475)">
            <g id="Group" transform="translate(3.383607, 3.400000)">
                <rect id="Rectangle-3" stroke="#29CC96" stroke-width="0.8" fill="#F2FFFB" x="0" y="0" width="10.1508197" height="10.2" rx="4.8"></rect>
                <path d="M7.27943454,2.90502333 C6.19668408,4.06088515 5.21057042,5.20129844 4.15823252,6.33986819 L2.82695771,5.20587232 C2.73626544,5.12838938 2.62033414,5.09283795 2.50482776,5.10651175 C2.38932138,5.12018556 2.28366048,5.18217215 2.210931,5.2788024 C2.05949247,5.4802632 2.09028833,5.77424009 2.27937841,5.93513103 L3.92211632,7.33529878 C4.09708981,7.48433497 4.34990717,7.46883978 4.50734718,7.29883608 C5.68464268,6.04183548 6.74300395,4.80245366 7.90233885,3.56505541 C8.03324316,3.4306043 8.07217605,3.22412623 8.00073228,3.04591988 C7.92929071,2.86771353 7.76202056,2.75512837 7.58064039,2.76287597 C7.46680523,2.76645923 7.35858165,2.81750701 7.27943454,2.90502333 Z" id="Fill-1" fill="#29CC96"></path>
            </g>
        </g>
        <path d="M114.334348,271.660475 L114.334348,268.692475 L116.406348,268.692475 C117.884748,268.692475 118.747148,267.662075 118.747148,266.441275 C118.747148,265.220475 117.907148,264.190075 116.406348,264.190075 L113.404748,264.190075 L113.404748,271.660475 L114.334348,271.660475 Z M116.294348,267.863675 L114.334348,267.863675 L114.334348,265.018875 L116.294348,265.018875 C117.179148,265.018875 117.783948,265.601275 117.783948,266.441275 C117.783948,267.281275 117.179148,267.863675 116.294348,267.863675 Z M120.785548,271.660475 L120.785548,267.830075 C121.031948,267.393275 121.737548,266.967675 122.252748,266.967675 C122.387148,266.967675 122.487948,266.978875 122.588748,267.001275 L122.588748,266.138875 C121.849548,266.138875 121.222348,266.553275 120.785548,267.124475 L120.785548,266.250875 L119.945548,266.250875 L119.945548,271.660475 L120.785548,271.660475 Z M126.004748,271.794875 C127.651148,271.794875 128.681548,270.518075 128.681548,268.950075 C128.681548,267.382075 127.651148,266.116475 126.004748,266.116475 C124.358348,266.116475 123.327948,267.382075 123.327948,268.950075 C123.327948,270.518075 124.358348,271.794875 126.004748,271.794875 Z M126.004748,271.044475 C124.851148,271.044475 124.201548,270.058875 124.201548,268.950075 C124.201548,267.852475 124.851148,266.866875 126.004748,266.866875 C127.158348,266.866875 127.796748,267.852475 127.796748,268.950075 C127.796748,270.058875 127.158348,271.044475 126.004748,271.044475 Z M132.142348,271.794875 C132.903948,271.794875 133.564748,271.402875 133.967948,270.854075 L133.967948,271.660475 L134.807948,271.660475 L134.807948,264.190075 L133.967948,264.190075 L133.967948,267.068475 C133.531148,266.474875 132.870348,266.116475 132.142348,266.116475 C130.719948,266.116475 129.734348,267.236475 129.734348,268.961275 C129.734348,270.719675 130.731148,271.794875 132.142348,271.794875 Z M132.343948,271.044475 C131.257548,271.044475 130.607948,270.159675 130.607948,268.961275 C130.607948,267.762875 131.257548,266.866875 132.343948,266.866875 C133.015948,266.866875 133.665548,267.270075 133.967948,267.740475 L133.967948,270.193275 C133.665548,270.663675 133.015948,271.044475 132.343948,271.044475 Z M138.212748,271.794875 C139.019148,271.794875 139.724748,271.369275 140.139148,270.898875 L140.139148,271.660475 L140.979148,271.660475 L140.979148,266.250875 L140.139148,266.250875 L140.139148,270.226875 C139.825548,270.663675 139.198348,271.044475 138.537548,271.044475 C137.809548,271.044475 137.327948,270.764475 137.327948,269.812475 L137.327948,266.250875 L136.487948,266.250875 L136.487948,270.070075 C136.487948,271.246075 137.081548,271.794875 138.212748,271.794875 Z M145.044748,271.794875 C146.030348,271.794875 146.612748,271.391675 147.027148,270.854075 L146.467148,270.338875 C146.108748,270.820475 145.649548,271.044475 145.089548,271.044475 C143.935948,271.044475 143.219148,270.148475 143.219148,268.950075 C143.219148,267.751675 143.935948,266.866875 145.089548,266.866875 C145.649548,266.866875 146.108748,267.079675 146.467148,267.572475 L147.027148,267.057275 C146.612748,266.519675 146.030348,266.116475 145.044748,266.116475 C143.431948,266.116475 142.345548,267.348475 142.345548,268.950075 C142.345548,270.562875 143.431948,271.794875 145.044748,271.794875 Z M149.569548,271.794875 C150.062348,271.794875 150.364748,271.649275 150.577548,271.447675 L150.331148,270.820475 C150.219148,270.943675 149.995148,271.044475 149.759948,271.044475 C149.390348,271.044475 149.211148,270.753275 149.211148,270.350075 L149.211148,266.990075 L150.308748,266.990075 L150.308748,266.250875 L149.211148,266.250875 L149.211148,264.772475 L148.371148,264.772475 L148.371148,266.250875 L147.475148,266.250875 L147.475148,266.990075 L148.371148,266.990075 L148.371148,270.529275 C148.371148,271.335675 148.774348,271.794875 149.569548,271.794875 Z M157.196748,271.660475 L157.196748,265.018875 L159.571148,265.018875 L159.571148,264.190075 L153.903948,264.190075 L153.903948,265.018875 L156.267148,265.018875 L156.267148,271.660475 L157.196748,271.660475 Z M161.609548,271.660475 L161.609548,267.830075 C161.855948,267.393275 162.561548,266.967675 163.076748,266.967675 C163.211148,266.967675 163.311948,266.978875 163.412748,267.001275 L163.412748,266.138875 C162.673548,266.138875 162.046348,266.553275 161.609548,267.124475 L161.609548,266.250875 L160.769548,266.250875 L160.769548,271.660475 L161.609548,271.660475 Z M166.055948,271.794875 C166.783948,271.794875 167.399948,271.537275 167.847948,271.044475 L167.847948,271.660475 L168.687948,271.660475 L168.687948,267.942075 C168.687948,266.631675 167.735948,266.116475 166.593548,266.116475 C165.708748,266.116475 165.014348,266.407675 164.431948,267.012475 L164.823948,267.594875 C165.305548,267.079675 165.831948,266.844475 166.481548,266.844475 C167.265548,266.844475 167.847948,267.258875 167.847948,267.986875 L167.847948,268.961275 C167.411148,268.457275 166.795148,268.222075 166.055948,268.222075 C165.137548,268.222075 164.163148,268.793275 164.163148,270.002875 C164.163148,271.178875 165.137548,271.794875 166.055948,271.794875 Z M166.358348,271.190075 C165.574348,271.190075 165.025548,270.697275 165.025548,270.014075 C165.025548,269.319675 165.574348,268.826875 166.358348,268.826875 C166.951948,268.826875 167.523148,269.050875 167.847948,269.498875 L167.847948,270.518075 C167.523148,270.966075 166.951948,271.190075 166.358348,271.190075 Z M170.782348,265.343675 C171.095948,265.343675 171.353548,265.086075 171.353548,264.772475 C171.353548,264.458875 171.095948,264.212475 170.782348,264.212475 C170.479948,264.212475 170.222348,264.458875 170.222348,264.772475 C170.222348,265.086075 170.479948,265.343675 170.782348,265.343675 Z M171.207948,271.660475 L171.207948,266.250875 L170.367948,266.250875 L170.367948,271.660475 L171.207948,271.660475 Z M173.727948,271.660475 L173.727948,267.706875 C174.041548,267.270075 174.668748,266.866875 175.329548,266.866875 C176.057548,266.866875 176.539148,267.169275 176.539148,268.121275 L176.539148,271.660475 L177.379148,271.660475 L177.379148,267.863675 C177.379148,266.687675 176.785548,266.116475 175.654348,266.116475 C174.847948,266.116475 174.108748,266.586875 173.727948,267.034875 L173.727948,266.250875 L172.887948,266.250875 L172.887948,271.660475 L173.727948,271.660475 Z M179.473548,265.343675 C179.787148,265.343675 180.044748,265.086075 180.044748,264.772475 C180.044748,264.458875 179.787148,264.212475 179.473548,264.212475 C179.171148,264.212475 178.913548,264.458875 178.913548,264.772475 C178.913548,265.086075 179.171148,265.343675 179.473548,265.343675 Z M179.899148,271.660475 L179.899148,266.250875 L179.059148,266.250875 L179.059148,271.660475 L179.899148,271.660475 Z M182.419148,271.660475 L182.419148,267.706875 C182.732748,267.270075 183.359948,266.866875 184.020748,266.866875 C184.748748,266.866875 185.230348,267.169275 185.230348,268.121275 L185.230348,271.660475 L186.070348,271.660475 L186.070348,267.863675 C186.070348,266.687675 185.476748,266.116475 184.345548,266.116475 C183.539148,266.116475 182.799948,266.586875 182.419148,267.034875 L182.419148,266.250875 L181.579148,266.250875 L181.579148,271.660475 L182.419148,271.660475 Z M189.923148,273.855675 C191.244748,273.855675 192.499148,273.295675 192.499148,271.503675 L192.499148,266.250875 L191.659148,266.250875 L191.659148,267.068475 C191.222348,266.474875 190.572748,266.116475 189.844748,266.116475 C188.422348,266.116475 187.436748,267.191675 187.436748,268.927675 C187.436748,270.674875 188.433548,271.727675 189.844748,271.727675 C190.606348,271.727675 191.267148,271.313275 191.659148,270.764475 L191.659148,271.537275 C191.659148,272.724475 190.819148,273.161275 189.923148,273.161275 C189.150348,273.161275 188.612748,272.959675 188.164748,272.422075 L187.739148,273.049275 C188.377548,273.676475 189.004748,273.855675 189.923148,273.855675 Z M190.046348,270.988475 C188.959948,270.988475 188.310348,270.114875 188.310348,268.927675 C188.310348,267.729275 188.959948,266.866875 190.046348,266.866875 C190.718348,266.866875 191.367948,267.270075 191.659148,267.740475 L191.659148,270.103675 C191.367948,270.574075 190.718348,270.988475 190.046348,270.988475 Z" id="ProductTraining" fill="#1F3966" fill-rule="nonzero"></path>
        <g id="verification/dot/trusted/active" transform="translate(89.000000, 118.360475)">
            <g id="Group" transform="translate(3.364706, 3.400000)">
                <rect id="Rectangle-3" stroke="#29CC96" stroke-width="0.8" fill="#F2FFFB" x="0" y="0" width="10.0941176" height="10.2" rx="4.8"></rect>
                <path d="M7.23877195,2.90502333 C6.16206968,4.06088515 5.18146441,5.20129844 4.13500481,6.33986819 L2.81116645,5.20587232 C2.72098078,5.12838938 2.60569707,5.09283795 2.49083591,5.10651175 C2.37597474,5.12018556 2.27090406,5.18217215 2.19858084,5.2788024 C2.04798823,5.4802632 2.07861207,5.77424009 2.2666459,5.93513103 L3.90020755,7.33529878 C4.07420365,7.48433497 4.32560879,7.46883978 4.48216934,7.29883608 C5.65288852,6.04183548 6.70533784,4.80245366 7.85819674,3.56505541 C7.98836983,3.4306043 8.02708524,3.22412623 7.95604055,3.04591988 C7.88499804,2.86771353 7.71866226,2.75512837 7.53829528,2.76287597 C7.42509599,2.76645923 7.31747695,2.81750701 7.23877195,2.90502333 Z" id="Fill-1" fill="#29CC96"></path>
            </g>
        </g>
        <path d="M115.197318,129.660475 L115.197318,123.444475 L117.728518,129.660475 L118.109318,129.660475 L120.651718,123.444475 L120.651718,129.660475 L121.581318,129.660475 L121.581318,122.190075 L120.248518,122.190075 L117.918918,127.879675 L115.600518,122.190075 L114.267718,122.190075 L114.267718,129.660475 L115.197318,129.660475 Z M125.736518,129.794875 C126.621318,129.794875 127.349318,129.503675 127.886918,128.966075 L127.483718,128.417275 C127.058118,128.854075 126.430918,129.100475 125.814918,129.100475 C124.650118,129.100475 123.933318,128.249275 123.866118,127.230075 L128.245318,127.230075 L128.245318,127.017275 C128.245318,125.393275 127.282118,124.116475 125.646918,124.116475 C124.101318,124.116475 122.981318,125.382075 122.981318,126.950075 C122.981318,128.641275 124.134918,129.794875 125.736518,129.794875 Z M127.416518,126.614075 L123.866118,126.614075 C123.910918,125.785275 124.482118,124.810875 125.635718,124.810875 C126.867718,124.810875 127.405318,125.807675 127.416518,126.614075 Z M132.042118,129.794875 C132.926918,129.794875 133.654918,129.503675 134.192518,128.966075 L133.789318,128.417275 C133.363718,128.854075 132.736518,129.100475 132.120518,129.100475 C130.955718,129.100475 130.238918,128.249275 130.171718,127.230075 L134.550918,127.230075 L134.550918,127.017275 C134.550918,125.393275 133.587718,124.116475 131.952518,124.116475 C130.406918,124.116475 129.286918,125.382075 129.286918,126.950075 C129.286918,128.641275 130.440518,129.794875 132.042118,129.794875 Z M133.722118,126.614075 L130.171718,126.614075 C130.216518,125.785275 130.787718,124.810875 131.941318,124.810875 C133.173318,124.810875 133.710918,125.807675 133.722118,126.614075 Z M137.272518,129.794875 C137.765318,129.794875 138.067718,129.649275 138.280518,129.447675 L138.034118,128.820475 C137.922118,128.943675 137.698118,129.044475 137.462918,129.044475 C137.093318,129.044475 136.914118,128.753275 136.914118,128.350075 L136.914118,124.990075 L138.011718,124.990075 L138.011718,124.250875 L136.914118,124.250875 L136.914118,122.772475 L136.074118,122.772475 L136.074118,124.250875 L135.178118,124.250875 L135.178118,124.990075 L136.074118,124.990075 L136.074118,128.529275 C136.074118,129.335675 136.477318,129.794875 137.272518,129.794875 Z M143.454918,129.794875 C143.947718,129.794875 144.250118,129.649275 144.462918,129.447675 L144.216518,128.820475 C144.104518,128.943675 143.880518,129.044475 143.645318,129.044475 C143.275718,129.044475 143.096518,128.753275 143.096518,128.350075 L143.096518,124.990075 L144.194118,124.990075 L144.194118,124.250875 L143.096518,124.250875 L143.096518,122.772475 L142.256518,122.772475 L142.256518,124.250875 L141.360518,124.250875 L141.360518,124.990075 L142.256518,124.990075 L142.256518,128.529275 C142.256518,129.335675 142.659718,129.794875 143.454918,129.794875 Z M146.221318,129.660475 L146.221318,125.706875 C146.546118,125.270075 147.173318,124.866875 147.822918,124.866875 C148.550918,124.866875 149.043718,125.146875 149.043718,126.098875 L149.043718,129.660475 L149.883718,129.660475 L149.883718,125.841275 C149.883718,124.665275 149.290118,124.116475 148.158918,124.116475 C147.341318,124.116475 146.602118,124.586875 146.221318,125.034875 L146.221318,122.190075 L145.381318,122.190075 L145.381318,129.660475 L146.221318,129.660475 Z M154.005318,129.794875 C154.890118,129.794875 155.618118,129.503675 156.155718,128.966075 L155.752518,128.417275 C155.326918,128.854075 154.699718,129.100475 154.083718,129.100475 C152.918918,129.100475 152.202118,128.249275 152.134918,127.230075 L156.514118,127.230075 L156.514118,127.017275 C156.514118,125.393275 155.550918,124.116475 153.915718,124.116475 C152.370118,124.116475 151.250118,125.382075 151.250118,126.950075 C151.250118,128.641275 152.403718,129.794875 154.005318,129.794875 Z M155.685318,126.614075 L152.134918,126.614075 C152.179718,125.785275 152.750918,124.810875 153.904518,124.810875 C155.136518,124.810875 155.674118,125.807675 155.685318,126.614075 Z M163.570118,129.660475 L163.570118,123.018875 L165.944518,123.018875 L165.944518,122.190075 L160.277318,122.190075 L160.277318,123.018875 L162.640518,123.018875 L162.640518,129.660475 L163.570118,129.660475 Z M169.584518,129.794875 C170.469318,129.794875 171.197318,129.503675 171.734918,128.966075 L171.331718,128.417275 C170.906118,128.854075 170.278918,129.100475 169.662918,129.100475 C168.498118,129.100475 167.781318,128.249275 167.714118,127.230075 L172.093318,127.230075 L172.093318,127.017275 C172.093318,125.393275 171.130118,124.116475 169.494918,124.116475 C167.949318,124.116475 166.829318,125.382075 166.829318,126.950075 C166.829318,128.641275 167.982918,129.794875 169.584518,129.794875 Z M171.264518,126.614075 L167.714118,126.614075 C167.758918,125.785275 168.330118,124.810875 169.483718,124.810875 C170.715718,124.810875 171.253318,125.807675 171.264518,126.614075 Z M175.038918,129.794875 C175.766918,129.794875 176.382918,129.537275 176.830918,129.044475 L176.830918,129.660475 L177.670918,129.660475 L177.670918,125.942075 C177.670918,124.631675 176.718918,124.116475 175.576518,124.116475 C174.691718,124.116475 173.997318,124.407675 173.414918,125.012475 L173.806918,125.594875 C174.288518,125.079675 174.814918,124.844475 175.464518,124.844475 C176.248518,124.844475 176.830918,125.258875 176.830918,125.986875 L176.830918,126.961275 C176.394118,126.457275 175.778118,126.222075 175.038918,126.222075 C174.120518,126.222075 173.146118,126.793275 173.146118,128.002875 C173.146118,129.178875 174.120518,129.794875 175.038918,129.794875 Z M175.341318,129.190075 C174.557318,129.190075 174.008518,128.697275 174.008518,128.014075 C174.008518,127.319675 174.557318,126.826875 175.341318,126.826875 C175.934918,126.826875 176.506118,127.050875 176.830918,127.498875 L176.830918,128.518075 C176.506118,128.966075 175.934918,129.190075 175.341318,129.190075 Z M180.190918,129.660475 L180.190918,125.706875 C180.482118,125.270075 181.064518,124.866875 181.613318,124.866875 C182.318918,124.866875 182.610118,125.303675 182.610118,125.986875 L182.610118,129.660475 L183.450118,129.660475 L183.450118,125.695675 C183.730118,125.270075 184.323718,124.866875 184.883718,124.866875 C185.578118,124.866875 185.880518,125.303675 185.880518,125.986875 L185.880518,129.660475 L186.720518,129.660475 L186.720518,125.751675 C186.720518,124.665275 186.194118,124.116475 185.208518,124.116475 C184.424518,124.116475 183.696518,124.631675 183.394118,125.124475 C183.237318,124.564475 182.766918,124.116475 181.938118,124.116475 C181.142918,124.116475 180.414918,124.687675 180.190918,125.034875 L180.190918,124.250875 L179.350918,124.250875 L179.350918,129.660475 L180.190918,129.660475 Z" id="MeettheTeam" fill="#1F3966" fill-rule="nonzero"></path>
        <g id="expand-accordion" transform="translate(229.000000, 231.000000) rotate(-90.000000) translate(-229.000000, -231.000000) translate(222.000000, 224.000000)">
            <mask id="mask-8" fill="white">
                <use xlink:href="#path-7"></use>
            </mask>
            <use id="-Icon-小olor" fill="#001C4D" fill-rule="evenodd" xlink:href="#path-7"></use>
        </g>
    </g>
</svg>