<svg width="500px" height="330px" viewBox="0 0 500 330" xmlns="http://www.w3.org/2000/svg" xmlns:xlink="http://www.w3.org/1999/xlink">
    <defs>
        <rect id="path-1" x="204" y="24.360475" width="253" height="236" rx="2.23999996"></rect>
        <filter x="-1.5%" y="-1.2%" width="103.0%" height="103.2%" filterUnits="objectBoundingBox" id="filter-2">
            <feMorphology radius="0.279999995" operator="dilate" in="SourceAlpha" result="shadowSpreadOuter1"></feMorphology>
            <feOffset dx="0" dy="1" in="shadowSpreadOuter1" result="shadowOffsetOuter1"></feOffset>
            <feGaussianBlur stdDeviation="1" in="shadowOffsetOuter1" result="shadowBlurOuter1"></feGaussianBlur>
            <feComposite in="shadowBlurOuter1" in2="SourceAlpha" operator="out" result="shadowBlurOuter1"></feComposite>
            <feColorMatrix values="0 0 0 0 0   0 0 0 0 0   0 0 0 0 0  0 0 0 0.5 0" type="matrix" in="shadowBlurOuter1"></feColorMatrix>
        </filter>
        <path d="M1.875,4.875 C2.08125,4.875 2.248875,5.0415 2.25,5.248125 L2.25,5.248125 L2.254875,6.214875 L3.484875,4.984875 C3.6315,4.83825 3.8685,4.83825 4.015125,4.984875 C4.16175,5.1315 4.16175,5.3685 4.015125,5.515125 L4.015125,5.515125 L2.780625,6.749625 L3.75,6.75 C3.957375,6.75 4.125,6.918 4.125,7.125375 C4.124625,7.332375 3.957,7.5 3.75,7.5 L3.75,7.5 L3.749625,7.5 L1.884,7.498875 C1.67775,7.498875 1.5105,7.332 1.509375,7.12575 L1.509375,7.12575 L1.49999436,5.251875 C1.498875,5.044875 1.666125,4.876125 1.873125,4.875 L1.873125,4.875 Z M5.251725,1.50015 L7.1256,1.509525 C7.33185,1.51065 7.498725,1.6779 7.498725,1.88415 L7.498725,1.88415 L7.49985063,3.749775 C7.500225,3.956775 7.332225,4.12515 7.125225,4.12515 L7.125225,4.12515 C6.91785,4.12515 6.750225,3.95715 6.74985,3.750525 L6.74985,3.750525 L6.7491,2.78115 L5.514975,4.015275 C5.44185,4.0884 5.34585,4.12515 5.24985,4.12515 C5.154225,4.12515 5.058225,4.0884 4.984725,4.015275 C4.838475,3.86865 4.838475,3.631275 4.984725,3.485025 L4.984725,3.485025 L6.214725,2.255025 L5.24835,2.25015 C5.040975,2.249025 4.873725,2.0799 4.87484436,1.873275 C4.875975,1.66665 5.043975,1.50015 5.24985,1.50015 L5.24985,1.50015 L5.251725,1.50015 Z" id="path-3"></path>
        <rect id="path-5" x="74" y="102.360475" width="174" height="201" rx="4"></rect>
        <filter x="-2.2%" y="-1.4%" width="104.5%" height="103.9%" filterUnits="objectBoundingBox" id="filter-6">
            <feMorphology radius="0.4" operator="dilate" in="SourceAlpha" result="shadowSpreadOuter1"></feMorphology>
            <feOffset dx="0" dy="1" in="shadowSpreadOuter1" result="shadowOffsetOuter1"></feOffset>
            <feGaussianBlur stdDeviation="1" in="shadowOffsetOuter1" result="shadowBlurOuter1"></feGaussianBlur>
            <feComposite in="shadowBlurOuter1" in2="SourceAlpha" operator="out" result="shadowBlurOuter1"></feComposite>
            <feColorMatrix values="0 0 0 0 0   0 0 0 0 0   0 0 0 0 0  0 0 0 0.5 0" type="matrix" in="shadowBlurOuter1"></feColorMatrix>
        </filter>
        <polygon id="path-7" points="3.64000006 5.32000003 7 8.67999997 10.3599999 5.32000003"></polygon>
    </defs>
    <g id="IT-&amp;-Operations" stroke="none" stroke-width="1" fill="none" fill-rule="evenodd">
        <path d="M354.092422,0 C277.320194,0.225455336 226.647541,58.1541543 178.509445,73.2299427 C106.323904,95.8359393 37.0596883,72.0862693 7.29817054,154.738195 C2.30105814,168.615996 0.019544079,182.984675 0,197.26727 L0,197.653619 C0.065832687,242.298899 22.1856155,286.072077 52.4470502,311.439902 C68.2283797,324.670031 89.2557514,329.990777 111.88368,330 L112.01226,330 C146.865524,329.983603 185.499025,317.384749 214.647476,301.685884 C271.097977,271.280158 309.671817,283.797028 348.466813,294.710091 C416.799085,313.932208 505.410911,247.762092 499.741071,153.048305 C494.296502,62.0811763 452.541091,10.9786501 373.867944,1.20618605 C367.407083,0.403770011 361.112861,0.0184463457 354.994536,0 L354.092422,0 Z" id="Fill-1-Copy" fill="#F2F7FF"></path>
        <g id="Rectangle">
            <use fill="black" fill-opacity="1" filter="url(#filter-2)" xlink:href="#path-1"></use>
            <use stroke="#E9EBF0" stroke-width="0.55999999" fill="#FFFFFF" xlink:href="#path-1"></use>
        </g>
        <path d="M206,24.360475 L455,24.360475 C456.104569,24.360475 457,25.2559055 457,26.360475 L457,26.360475 L457,26.360475 L204,26.360475 C204,25.2559055 204.895431,24.360475 206,24.360475 Z" id="Rectangle-7-Copy-6" fill="#29CC96"></path>
        <g id="verification/button/trusted/active" transform="translate(212.000000, 32.360475)">
            <g id="verification-icon-trusted-copy-12">
                <g id="Group-15" fill="#F2FFFB" stroke="#29CC96" stroke-width="0.55999999">
                    <rect id="Rectangle-3" x="0.279999995" y="0.279999995" width="13.44" height="13.44" rx="2.23999996"></rect>
                </g>
                <path d="M10.0397886,3.98728692 C8.54646028,5.57376393 7.18641334,7.13903708 5.73502999,8.70177987 L3.89893716,7.14531496 C3.77385447,7.03896581 3.61396214,6.99016973 3.45465586,7.0089377 C3.29534958,7.02770567 3.14962217,7.11278531 3.04931375,7.24541505 C2.84044988,7.52192988 2.8829235,7.92542757 3.14371635,8.14625828 L5.40937877,10.0680572 C5.65070203,10.2726166 5.99938748,10.2513487 6.21652857,10.0180103 C7.8402533,8.29271537 9.29994408,6.59160306 10.8988976,4.8932133 C11.0794407,4.70867257 11.1331369,4.42527129 11.0346017,4.18067434 C10.9360695,3.93607739 10.7053707,3.78154874 10.4552114,3.7921827 C10.2982101,3.7971009 10.1489482,3.86716649 10.0397886,3.98728692 Z" id="Fill-1" fill="#29CC96"></path>
            </g>
        </g>
        <g id="close" transform="translate(442.000000, 35.360475)" fill="#B8BFCC">
            <path d="M5.02875,4.5 L6.64125,2.89125 C6.78829581,2.74420419 6.78829581,2.50579581 6.64125,2.35875 C6.49420419,2.21170419 6.25579581,2.21170419 6.10875,2.35875 L4.5,3.97125 L2.89125,2.35875 C2.74420418,2.21170419 2.50579582,2.21170419 2.35875,2.35875 C2.21170419,2.50579582 2.21170419,2.74420418 2.35875,2.89125 L3.97125,4.5 L2.35875,6.10875 C2.28775776,6.17916247 2.24782563,6.27501092 2.24782563,6.375 C2.24782563,6.47498908 2.28775776,6.57083753 2.35875,6.64125 C2.42916247,6.71224224 2.52501092,6.75217437 2.625,6.75217437 C2.72498908,6.75217437 2.82083753,6.71224224 2.89125,6.64125 L4.5,5.02875 L6.10875,6.64125 C6.17916247,6.71224224 6.27501092,6.75217437 6.375,6.75217437 C6.47498908,6.75217437 6.57083753,6.71224224 6.64125,6.64125 C6.71224224,6.57083753 6.75217437,6.47498908 6.75217437,6.375 C6.75217437,6.27501092 6.71224224,6.17916247 6.64125,6.10875 L5.02875,4.5 Z" id="-Icon-小olor"></path>
        </g>
        <g id="expand-window" transform="translate(429.000000, 35.360475)">
            <mask id="mask-4" fill="white">
                <use xlink:href="#path-3"></use>
            </mask>
            <use id="-Icon-小olor" fill="#B8BFCC" fill-rule="evenodd" xlink:href="#path-3"></use>
        </g>
        <path d="M421,31.360475 L421,45.360475 L421,31.360475 Z" id="Path-2" stroke="#B8BFCC" stroke-width="0.55999999"></path>
        <g id="globe" transform="translate(406.000000, 35.360475)" fill="#B8BFCC">
            <path d="M8.25,4.5 C8.25,3.50543816 7.85491185,2.55161099 7.15165043,1.84834957 C6.44838901,1.14508815 5.49456184,0.75 4.5,0.75 C2.42893219,0.75 0.75,2.42893219 0.75,4.5 C0.75,6.57106781 2.42893219,8.25 4.5,8.25 C6.57106781,8.25 8.25,6.57106781 8.25,4.5 Z M7.47375,4.125 L6.375,4.125 C6.31315234,3.24305352 6.0109749,2.39488165 5.50125,1.6725 C6.56921252,2.0517964 7.33227495,3.00054701 7.47375,4.125 Z M3.405,4.875 L5.625,4.875 C5.52903112,5.80146887 5.13414427,6.67153623 4.5,7.35375 C3.86627643,6.67438658 3.48044693,5.80098487 3.405,4.875 L3.405,4.875 Z M3.405,4.125 C3.49233211,3.20318507 3.87659587,2.33464367 4.5,1.65 C5.13926682,2.32729603 5.5350483,3.19801528 5.625,4.125 L3.405,4.125 Z M3.54,1.66125 C3.0275811,2.3876335 2.72055012,3.23877 2.65125,4.125 L1.52625,4.125 C1.67078837,2.98608776 2.45262785,2.02953554 3.54,1.66125 Z M1.52625,4.875 L2.65125,4.875 C2.71300924,5.76047499 3.0179548,6.6117273 3.5325,7.335 C2.44916128,6.96495666 1.67085708,6.01062478 1.52625,4.875 Z M5.4825,7.33125 C5.99565302,6.60775325 6.30399818,5.75915627 6.375,4.875 L7.48125,4.875 C7.33658452,6.00734451 6.56180804,6.95946195 5.4825,7.33125 L5.4825,7.33125 Z" id="-Icon-小olor"></path>
        </g>
        <path d="M204,235.360475 L457,235.360475 L457,258.120475 C457,259.357593 455.997118,260.360475 454.76,260.360475 L206.24,260.360475 C205.002882,260.360475 204,259.357593 204,258.120475 L204,235.360475 L204,235.360475 Z" id="Rectangle" stroke="#F2F3F5" stroke-width="0.55999999" fill="#F2F3F5"></path>
        <g id="icon-resize" transform="translate(206.000000, 250.360475)" fill="#8F9CB3">
            <path d="M5.69599992,6.71999989 L4.77866659,6.71999989 L6.71999989,4.77866659 L6.71999989,5.69599992 L5.69599992,6.71999989 Z M3.30666661,6.71999989 L2.38933329,6.71999989 L6.71999989,2.38933329 L6.71999989,3.30666661 L3.30666661,6.71999989 Z M0.917333316,6.71999989 L0,6.71999989 L6.71999989,0 L6.71999989,0.917333316 L0.917333316,6.71999989 Z" id="Shape" transform="translate(3.360000, 3.360000) rotate(90.000000) translate(-3.360000, -3.360000) "></path>
        </g>
        <g id="tag" transform="translate(220.000000, 242.360475)" fill="#B8BFCC">
            <path d="M4.67506187,9.625 C4.56946319,9.625 4.46386451,9.584575 4.38342802,9.5041375 L1.49596411,6.6166375 C1.33467863,6.45535 1.33467863,6.19465 1.49596411,6.0333625 L6.03340739,1.4958625 C6.11054393,1.4183125 6.21531762,1.375 6.32504125,1.375 L9.21250516,1.375 C9.4406148,1.375 9.625,1.5593875 9.625,1.7875 L9.625,4.675 C9.625,4.784725 9.58168804,4.8895 9.50413901,4.9666375 L4.96669573,9.5041375 C4.88625923,9.584575 4.78066055,9.625 4.67506187,9.625 Z M8.80001031,4.504225 L8.80001031,2.2 L6.49581411,2.2 L2.37086568,6.325 L4.67506187,8.629225 L8.80001031,4.504225 Z M7.54251057,2.75748349 C7.73581794,2.56417396 8.04923079,2.56417396 8.24253791,2.75748349 C8.43584503,2.95079328 8.43584503,3.26421005 8.24253791,3.45751958 C8.04923055,3.65082912 7.73581769,3.65082912 7.54251057,3.45751958 C7.34920345,3.2642098 7.34920345,2.95079303 7.54251057,2.75748349 L7.54251057,2.75748349 Z" id="-Icon-小olor"></path>
        </g>
        <rect id="Rectangle-12-[4-8]" fill="#FFFFFF" x="241" y="241.360475" width="51" height="11" rx="5.5"></rect>
        <path d="M236.9952,82.360475 C238.992,82.360475 240.3168,81.016475 240.3168,79.163675 C240.3168,77.320475 238.992,75.957275 236.9952,75.957275 L234.7104,75.957275 L234.7104,82.360475 L236.9952,82.360475 Z M236.9952,81.515675 L235.6704,81.515675 L235.6704,76.802075 L236.9952,76.802075 C238.5024,76.802075 239.328,77.848475 239.328,79.163675 C239.328,80.459675 238.4736,81.515675 236.9952,81.515675 Z M243.5712,82.475675 C244.32,82.475675 244.9728,82.235675 245.4336,81.784475 L245.0304,81.218075 C244.6848,81.573275 244.1472,81.765275 243.6576,81.765275 C242.7264,81.765275 242.1504,81.112475 242.0832,80.325275 L245.7504,80.325275 L245.7504,80.114075 C245.7504,78.693275 244.8864,77.608475 243.4944,77.608475 C242.1408,77.608475 241.1712,78.693275 241.1712,80.037275 C241.1712,81.496475 242.1888,82.475675 243.5712,82.475675 Z M244.9056,79.701275 L242.0736,79.701275 C242.1216,79.067675 242.5632,78.318875 243.4944,78.318875 C244.4736,78.318875 244.8864,79.086875 244.9056,79.701275 Z M248.9952,82.360475 L250.9056,77.723675 L249.9744,77.723675 L248.5248,81.362075 L247.0752,77.723675 L246.1536,77.723675 L248.064,82.360475 L248.9952,82.360475 Z M254.5824,82.475675 C256.4928,82.475675 257.808,81.064475 257.808,79.163675 C257.808,77.262875 256.4928,75.851675 254.5824,75.851675 C252.672,75.851675 251.3568,77.262875 251.3568,79.163675 C251.3568,81.064475 252.672,82.475675 254.5824,82.475675 Z M254.5824,81.621275 C253.2096,81.621275 252.3456,80.565275 252.3456,79.163675 C252.3456,77.752475 253.2096,76.706075 254.5824,76.706075 C255.936,76.706075 256.8192,77.752475 256.8192,79.163675 C256.8192,80.565275 255.936,81.621275 254.5824,81.621275 Z M259.8144,84.126875 L259.8144,81.688475 C260.1888,82.197275 260.7264,82.475675 261.3312,82.475675 C262.5408,82.475675 263.3952,81.554075 263.3952,80.037275 C263.3952,78.520475 262.5408,77.608475 261.3312,77.608475 C260.7072,77.608475 260.1504,77.925275 259.8144,78.386075 L259.8144,77.723675 L258.9504,77.723675 L258.9504,84.126875 L259.8144,84.126875 Z M261.1008,81.707675 C260.5728,81.707675 260.0448,81.390875 259.8144,81.026075 L259.8144,79.058075 C260.0448,78.683675 260.5728,78.376475 261.1008,78.376475 C261.9648,78.376475 262.4928,79.077275 262.4928,80.037275 C262.4928,81.006875 261.9648,81.707675 261.1008,81.707675 Z M266.016,82.475675 C267.2352,82.475675 267.888,81.851675 267.888,81.054875 C267.888,79.989275 266.928,79.768475 266.1216,79.586075 C265.5456,79.451675 265.0464,79.317275 265.0464,78.914075 C265.0464,78.539675 265.4112,78.309275 265.9968,78.309275 C266.5824,78.309275 267.1008,78.549275 267.3696,78.875675 L267.7536,78.270875 C267.36,77.896475 266.784,77.608475 265.9872,77.608475 C264.8544,77.608475 264.2208,78.242075 264.2208,78.981275 C264.2208,79.979675 265.1424,80.190875 265.9296,80.373275 C266.5248,80.507675 267.0528,80.661275 267.0528,81.122075 C267.0528,81.515675 266.7072,81.784475 266.0544,81.784475 C265.4304,81.784475 264.816,81.467675 264.4992,81.122075 L264.0864,81.755675 C264.5568,82.235675 265.2384,82.475675 266.016,82.475675 Z M272.4384,82.360475 L272.4384,79.499675 L275.9808,79.499675 L275.9808,82.360475 L276.9408,82.360475 L276.9408,75.957275 L275.9808,75.957275 L275.9808,78.645275 L272.4384,78.645275 L272.4384,75.957275 L271.4784,75.957275 L271.4784,82.360475 L272.4384,82.360475 Z M279.6864,82.475675 C280.3104,82.475675 280.8384,82.254875 281.2032,81.851675 L281.2032,82.360475 L282.0672,82.360475 L282.0672,79.230875 C282.0672,78.050075 281.2128,77.608475 280.2048,77.608475 C279.456,77.608475 278.8224,77.858075 278.304,78.366875 L278.6784,78.962075 C279.0912,78.549275 279.5424,78.347675 280.0704,78.347675 C280.7328,78.347675 281.2032,78.693275 281.2032,79.269275 L281.2032,80.037275 C280.848,79.624475 280.3104,79.422875 279.6864,79.422875 C278.9088,79.422875 278.0736,79.883675 278.0736,80.939675 C278.0736,81.957275 278.9184,82.475675 279.6864,82.475675 Z M280.0128,81.870875 C279.3888,81.870875 278.9472,81.496475 278.9472,80.949275 C278.9472,80.402075 279.3888,80.027675 280.0128,80.027675 C280.4928,80.027675 280.944,80.210075 281.2032,80.555675 L281.2032,81.342875 C280.944,81.688475 280.4928,81.870875 280.0128,81.870875 Z M284.3136,82.360475 L284.3136,79.048475 C284.5632,78.702875 285.0528,78.376475 285.5904,78.376475 C286.1856,78.376475 286.5792,78.626075 286.5792,79.394075 L286.5792,82.360475 L287.4432,82.360475 L287.4432,79.106075 C287.4432,78.126875 286.9344,77.608475 285.9552,77.608475 C285.2352,77.608475 284.6208,78.002075 284.3136,78.376475 L284.3136,77.723675 L283.4496,77.723675 L283.4496,82.360475 L284.3136,82.360475 Z M290.6016,82.475675 C291.216,82.475675 291.7728,82.158875 292.1184,81.698075 L292.1184,82.360475 L292.9824,82.360475 L292.9824,75.957275 L292.1184,75.957275 L292.1184,78.395675 C291.744,77.896475 291.1968,77.608475 290.6016,77.608475 C289.392,77.608475 288.528,78.558875 288.528,80.046875 C288.528,81.563675 289.392,82.475675 290.6016,82.475675 Z M290.832,81.707675 C289.968,81.707675 289.4304,81.006875 289.4304,80.046875 C289.4304,79.077275 289.968,78.376475 290.832,78.376475 C291.36,78.376475 291.8784,78.683675 292.1184,79.058075 L292.1184,81.035675 C291.8784,81.410075 291.36,81.707675 290.832,81.707675 Z M296.7456,82.475675 C297.9456,82.475675 298.8096,81.563675 298.8096,80.046875 C298.8096,78.558875 297.9552,77.608475 296.7456,77.608475 C296.1408,77.608475 295.5936,77.896475 295.2288,78.395675 L295.2288,75.957275 L294.3648,75.957275 L294.3648,82.360475 L295.2288,82.360475 L295.2288,81.698075 C295.5744,82.158875 296.1216,82.475675 296.7456,82.475675 Z M296.5152,81.707675 C295.9872,81.707675 295.4592,81.410075 295.2288,81.035675 L295.2288,79.067675 C295.4592,78.693275 295.9872,78.376475 296.5152,78.376475 C297.3792,78.376475 297.9168,79.077275 297.9168,80.046875 C297.9168,81.016475 297.3792,81.707675 296.5152,81.707675 Z M301.968,82.475675 C303.4176,82.475675 304.3104,81.381275 304.3104,80.037275 C304.3104,78.702875 303.4176,77.608475 301.968,77.608475 C300.528,77.608475 299.6256,78.702875 299.6256,80.037275 C299.6256,81.381275 300.528,82.475675 301.968,82.475675 Z M301.968,81.707675 C301.0464,81.707675 300.528,80.920475 300.528,80.037275 C300.528,79.163675 301.0464,78.376475 301.968,78.376475 C302.8992,78.376475 303.408,79.163675 303.408,80.037275 C303.408,80.920475 302.8992,81.707675 301.968,81.707675 Z M307.4592,82.475675 C308.9088,82.475675 309.8016,81.381275 309.8016,80.037275 C309.8016,78.702875 308.9088,77.608475 307.4592,77.608475 C306.0192,77.608475 305.1168,78.702875 305.1168,80.037275 C305.1168,81.381275 306.0192,82.475675 307.4592,82.475675 Z M307.4592,81.707675 C306.5376,81.707675 306.0192,80.920475 306.0192,80.037275 C306.0192,79.163675 306.5376,78.376475 307.4592,78.376475 C308.3904,78.376475 308.8992,79.163675 308.8992,80.037275 C308.8992,80.920475 308.3904,81.707675 307.4592,81.707675 Z M311.76,82.360475 L311.76,81.074075 L312.4608,80.363675 L314.0064,82.360475 L315.1008,82.360475 L313.0848,79.826075 L315.0816,77.723675 L313.9968,77.723675 L311.76,80.075675 L311.76,75.957275 L310.896,75.957275 L310.896,82.360475 L311.76,82.360475 Z" id="DevOpsHandbook" fill="#1F3966" fill-rule="nonzero"></path>
        <path d="M235.5456,43.360475 L235.5456,36.957275 L234.7488,36.957275 L234.7488,43.360475 L235.5456,43.360475 Z M239.424,43.360475 L239.424,37.667675 L241.4592,37.667675 L241.4592,36.957275 L236.6016,36.957275 L236.6016,37.667675 L238.6272,37.667675 L238.6272,43.360475 L239.424,43.360475 Z M246.576,43.475675 C247.3536,43.475675 247.9584,43.149275 248.4288,42.688475 C248.688,42.947675 248.9376,43.187675 249.1296,43.360475 L250.1184,43.360475 C249.6576,42.928475 249.2544,42.544475 248.88,42.150875 C249.264,41.613275 249.5328,41.008475 249.744,40.499675 L249.1296,40.230875 C249.0144,40.586075 248.784,41.162075 248.4384,41.690075 C248.1888,41.411675 247.9392,41.133275 247.68,40.835675 C247.4688,40.595675 247.1904,40.278875 246.9408,39.923675 C247.7472,39.501275 248.5728,39.078875 248.5728,38.118875 C248.5728,37.312475 247.9488,36.861275 247.1232,36.861275 C246.2112,36.861275 245.5104,37.494875 245.5104,38.349275 C245.5104,38.800475 245.712,39.290075 246,39.779675 C245.2608,40.182875 244.5888,40.691675 244.5888,41.690075 C244.5888,42.880475 245.4816,43.475675 246.576,43.475675 Z M246.6336,39.462875 C246.4128,39.078875 246.2496,38.694875 246.2496,38.358875 C246.2496,37.811675 246.6528,37.427675 247.152,37.427675 C247.5744,37.427675 247.9008,37.677275 247.9008,38.147675 C247.9008,38.781275 247.3152,39.117275 246.6336,39.462875 Z M246.6528,42.880475 C245.9808,42.880475 245.3664,42.438875 245.3664,41.642075 C245.3664,40.979675 245.7792,40.586075 246.3168,40.259675 C246.5664,40.624475 246.8448,40.970075 247.104,41.277275 C247.2864,41.498075 247.632,41.862875 247.9968,42.246875 C247.632,42.611675 247.1808,42.880475 246.6528,42.880475 Z M256.5408,43.475675 C258.432,43.475675 259.7184,42.054875 259.7184,40.163675 C259.7184,38.272475 258.432,36.851675 256.5408,36.851675 C254.64,36.851675 253.3632,38.272475 253.3632,40.163675 C253.3632,42.054875 254.64,43.475675 256.5408,43.475675 Z M256.5408,42.765275 C255.1008,42.765275 254.1888,41.651675 254.1888,40.163675 C254.1888,38.666075 255.1008,37.562075 256.5408,37.562075 C257.9712,37.562075 258.8928,38.666075 258.8928,40.163675 C258.8928,41.651675 257.9712,42.765275 256.5408,42.765275 Z M261.6576,45.126875 L261.6576,42.659675 C262.032,43.178075 262.5888,43.475675 263.2224,43.475675 C264.4416,43.475675 265.2864,42.534875 265.2864,41.037275 C265.2864,39.530075 264.4416,38.608475 263.2224,38.608475 C262.5696,38.608475 261.9936,38.944475 261.6576,39.414875 L261.6576,38.723675 L260.9376,38.723675 L260.9376,45.126875 L261.6576,45.126875 Z M263.04,42.832475 C262.4736,42.832475 261.9072,42.486875 261.6576,42.083675 L261.6576,39.990875 C261.9072,39.587675 262.4736,39.251675 263.04,39.251675 C263.9712,39.251675 264.528,40.010075 264.528,41.037275 C264.528,42.064475 263.9712,42.832475 263.04,42.832475 Z M268.5408,43.475675 C269.2992,43.475675 269.9232,43.226075 270.384,42.765275 L270.0384,42.294875 C269.6736,42.669275 269.136,42.880475 268.608,42.880475 C267.6096,42.880475 266.9952,42.150875 266.9376,41.277275 L270.6912,41.277275 L270.6912,41.094875 C270.6912,39.702875 269.8656,38.608475 268.464,38.608475 C267.1392,38.608475 266.1792,39.693275 266.1792,41.037275 C266.1792,42.486875 267.168,43.475675 268.5408,43.475675 Z M269.9808,40.749275 L266.9376,40.749275 C266.976,40.038875 267.4656,39.203675 268.4544,39.203675 C269.5104,39.203675 269.9712,40.058075 269.9808,40.749275 Z M272.5728,43.360475 L272.5728,40.077275 C272.784,39.702875 273.3888,39.338075 273.8304,39.338075 C273.9456,39.338075 274.032,39.347675 274.1184,39.366875 L274.1184,38.627675 C273.4848,38.627675 272.9472,38.982875 272.5728,39.472475 L272.5728,38.723675 L271.8528,38.723675 L271.8528,43.360475 L272.5728,43.360475 Z M276.384,43.475675 C277.008,43.475675 277.536,43.254875 277.92,42.832475 L277.92,43.360475 L278.64,43.360475 L278.64,40.173275 C278.64,39.050075 277.824,38.608475 276.8448,38.608475 C276.0864,38.608475 275.4912,38.858075 274.992,39.376475 L275.328,39.875675 C275.7408,39.434075 276.192,39.232475 276.7488,39.232475 C277.4208,39.232475 277.92,39.587675 277.92,40.211675 L277.92,41.046875 C277.5456,40.614875 277.0176,40.413275 276.384,40.413275 C275.5968,40.413275 274.7616,40.902875 274.7616,41.939675 C274.7616,42.947675 275.5968,43.475675 276.384,43.475675 Z M276.6432,42.957275 C275.9712,42.957275 275.5008,42.534875 275.5008,41.949275 C275.5008,41.354075 275.9712,40.931675 276.6432,40.931675 C277.152,40.931675 277.6416,41.123675 277.92,41.507675 L277.92,42.381275 C277.6416,42.765275 277.152,42.957275 276.6432,42.957275 Z M281.2512,43.475675 C281.6736,43.475675 281.9328,43.350875 282.1152,43.178075 L281.904,42.640475 C281.808,42.746075 281.616,42.832475 281.4144,42.832475 C281.0976,42.832475 280.944,42.582875 280.944,42.237275 L280.944,39.357275 L281.8848,39.357275 L281.8848,38.723675 L280.944,38.723675 L280.944,37.456475 L280.224,37.456475 L280.224,38.723675 L279.456,38.723675 L279.456,39.357275 L280.224,39.357275 L280.224,42.390875 C280.224,43.082075 280.5696,43.475675 281.2512,43.475675 Z M283.2576,37.946075 C283.5264,37.946075 283.7472,37.725275 283.7472,37.456475 C283.7472,37.187675 283.5264,36.976475 283.2576,36.976475 C282.9984,36.976475 282.7776,37.187675 282.7776,37.456475 C282.7776,37.725275 282.9984,37.946075 283.2576,37.946075 Z M283.6224,43.360475 L283.6224,38.723675 L282.9024,38.723675 L282.9024,43.360475 L283.6224,43.360475 Z M287.088,43.475675 C288.4992,43.475675 289.3824,42.381275 289.3824,41.037275 C289.3824,39.693275 288.4992,38.608475 287.088,38.608475 C285.6768,38.608475 284.7936,39.693275 284.7936,41.037275 C284.7936,42.381275 285.6768,43.475675 287.088,43.475675 Z M287.088,42.832475 C286.0992,42.832475 285.5424,41.987675 285.5424,41.037275 C285.5424,40.096475 286.0992,39.251675 287.088,39.251675 C288.0768,39.251675 288.624,40.096475 288.624,41.037275 C288.624,41.987675 288.0768,42.832475 287.088,42.832475 Z M291.2736,43.360475 L291.2736,39.971675 C291.5424,39.597275 292.08,39.251675 292.6464,39.251675 C293.2704,39.251675 293.6832,39.510875 293.6832,40.326875 L293.6832,43.360475 L294.4032,43.360475 L294.4032,40.106075 C294.4032,39.098075 293.8944,38.608475 292.9248,38.608475 C292.2336,38.608475 291.6,39.011675 291.2736,39.395675 L291.2736,38.723675 L290.5536,38.723675 L290.5536,43.360475 L291.2736,43.360475 Z M297.312,43.475675 C298.512,43.475675 299.136,42.851675 299.136,42.074075 C299.136,41.046875 298.2048,40.816475 297.3984,40.634075 C296.7936,40.490075 296.2656,40.346075 296.2656,39.894875 C296.2656,39.482075 296.6592,39.194075 297.2928,39.194075 C297.888,39.194075 298.3968,39.443675 298.6752,39.779675 L299.0112,39.280475 C298.6368,38.906075 298.08,38.608475 297.2928,38.608475 C296.1888,38.608475 295.5648,39.222875 295.5648,39.942875 C295.5648,40.902875 296.4576,41.114075 297.2448,41.296475 C297.8688,41.450075 298.4352,41.613275 298.4352,42.122075 C298.4352,42.573275 298.0512,42.890075 297.3408,42.890075 C296.7072,42.890075 296.1216,42.582875 295.8144,42.227675 L295.44,42.746075 C295.9104,43.245275 296.5536,43.475675 297.312,43.475675 Z" id="IT&amp;Operations" fill="#29CC96" fill-rule="nonzero"></path>
        <rect id="Rectangle" fill="#F2F3F5" x="234" y="95.360475" width="197" height="4"></rect>
        <rect id="Rectangle-Copy" fill="#F2F3F5" x="234" y="104.360475" width="197" height="4"></rect>
        <rect id="Rectangle-Copy-2" fill="#F2F3F5" x="234" y="113.360475" width="197" height="4"></rect>
        <rect id="Rectangle-Copy-3" fill="#F2F3F5" x="234" y="129.360475" width="177" height="88" rx="2.4"></rect>
        <line x1="204" y1="55.860475" x2="457" y2="55.860475" id="Line-Copy-53" stroke="#DADEE6" stroke-width="0.55999999"></line>
        <g id="Rectangle">
            <use fill="black" fill-opacity="1" filter="url(#filter-6)" xlink:href="#path-5"></use>
            <use stroke="#F2F3F5" stroke-width="0.8" fill="#FFFFFF" xlink:href="#path-5"></use>
        </g>
        <rect id="Rectangle-Copy-7" fill="#E9EBF0" x="81" y="214" width="159.157895" height="34" rx="2.4"></rect>
        <g id="verification/dot/trusted/selected" transform="translate(89.000000, 223.000000)">
            <g id="Group" transform="translate(3.368421, 3.400000)">
                <rect id="Rectangle-3" stroke="#29CC96" stroke-width="0.8" fill="#29CC96" x="0" y="0" width="10.1052632" height="10.2" rx="4.8"></rect>
                <path d="M7.2467647,2.90502333 C6.16887359,4.06088515 5.18718557,5.20129844 4.13957052,6.33986819 L2.81427043,5.20587232 C2.72398518,5.12838938 2.60857417,5.09283795 2.49358618,5.10651175 C2.37859819,5.12018556 2.27341149,5.18217215 2.20100842,5.2788024 C2.05024954,5.4802632 2.08090719,5.77424009 2.26914864,5.93513103 L3.904514,7.33529878 C4.07870222,7.48433497 4.33038495,7.46883978 4.48711836,7.29883608 C5.6591302,6.04183548 6.71274159,4.80245366 7.86687344,3.56505541 C7.99719026,3.4306043 8.03594841,3.22412623 7.96482528,3.04591988 C7.89370434,2.86771353 7.72718489,2.75512837 7.54661875,2.76287597 C7.43329447,2.76645923 7.3255566,2.81750701 7.2467647,2.90502333 Z" id="Fill-1" fill="#FFFFFF"></path>
            </g>
        </g>
        <path d="M116.6848,235 C119.0256,235 120.6496,233.5216 120.6496,231.2704 C120.6496,229.0192 119.0256,227.5296 116.6848,227.5296 L113.7392,227.5296 L113.7392,235 L116.6848,235 Z M116.6848,233.6 L115.3296,233.6 L115.3296,228.9296 L116.6848,228.9296 C118.2192,228.9296 119.0256,229.9488 119.0256,231.2704 C119.0256,232.536 118.1632,233.6 116.6848,233.6 Z M124.2896,235.1344 C125.1296,235.1344 125.9808,234.8768 126.5184,234.384 L125.8912,233.4656 C125.544,233.8016 124.9504,234.0032 124.4464,234.0032 C123.528,234.0032 122.9792,233.432 122.8896,232.7488 L126.9104,232.7488 L126.9104,232.4352 C126.9104,230.6656 125.8128,229.456 124.2,229.456 C122.5536,229.456 121.4,230.7216 121.4,232.2896 C121.4,234.0256 122.6432,235.1344 124.2896,235.1344 Z M125.5328,231.7856 L122.8672,231.7856 C122.9344,231.248 123.3152,230.5872 124.2,230.5872 C125.1408,230.5872 125.4992,231.2704 125.5328,231.7856 Z M130.8752,235 L133.048,229.5904 L131.5136,229.5904 L130.1024,233.3536 L128.6912,229.5904 L127.168,229.5904 L129.3408,235 L130.8752,235 Z M137.2592,235.1344 C139.5216,235.1344 141.168,233.5216 141.168,231.2704 C141.168,229.0192 139.5216,227.4064 137.2592,227.4064 C135.008,227.4064 133.3616,229.0192 133.3616,231.2704 C133.3616,233.5216 135.008,235.1344 137.2592,235.1344 Z M137.2592,233.7232 C135.8816,233.7232 134.9968,232.6592 134.9968,231.2704 C134.9968,229.8704 135.8816,228.8176 137.2592,228.8176 C138.6368,228.8176 139.5328,229.8704 139.5328,231.2704 C139.5328,232.6592 138.6368,233.7232 137.2592,233.7232 Z M143.6768,237.0608 L143.6768,234.3056 C144.1136,234.8656 144.7072,235.1344 145.3456,235.1344 C146.7344,235.1344 147.7424,234.0928 147.7424,232.2896 C147.7424,230.4864 146.7344,229.456 145.3456,229.456 C144.6848,229.456 144.0912,229.7472 143.6768,230.2736 L143.6768,229.5904 L142.2544,229.5904 L142.2544,237.0608 L143.6768,237.0608 Z M144.8976,233.8688 C144.4384,233.8688 143.912,233.5888 143.6768,233.2528 L143.6768,231.3376 C143.912,230.9904 144.4384,230.7216 144.8976,230.7216 C145.7152,230.7216 146.264,231.36 146.264,232.2896 C146.264,233.2304 145.7152,233.8688 144.8976,233.8688 Z M150.7552,235.1344 C152.256,235.1344 153.096,234.384 153.096,233.3984 C153.096,232.0544 151.8528,231.808 150.9232,231.6288 C150.3184,231.5056 149.8928,231.3824 149.8928,231.0464 C149.8928,230.7328 150.2288,230.5424 150.744,230.5424 C151.4048,230.5424 152.0208,230.8224 152.3456,231.1696 L152.9168,230.1952 C152.3792,229.7696 151.6512,229.456 150.7328,229.456 C149.3104,229.456 148.5152,230.2512 148.5152,231.1584 C148.5152,232.4464 149.7136,232.6704 150.6432,232.8496 C151.2592,232.9728 151.7296,233.1072 151.7296,233.488 C151.7296,233.824 151.4384,234.0368 150.8224,234.0368 C150.1504,234.0368 149.344,233.6672 148.952,233.2976 L148.336,234.2944 C148.9072,234.8208 149.8144,235.1344 150.7552,235.1344 Z M158.64,235 L158.64,231.864 L162.168,231.864 L162.168,235 L163.7696,235 L163.7696,227.5296 L162.168,227.5296 L162.168,230.464 L158.64,230.464 L158.64,227.5296 L157.0496,227.5296 L157.0496,235 L158.64,235 Z M166.7376,235.1344 C167.4432,235.1344 168.0816,234.8768 168.4512,234.44 L168.4512,235 L169.8736,235 L169.8736,231.5056 C169.8736,229.9488 168.7424,229.456 167.5104,229.456 C166.6592,229.456 165.808,229.7248 165.1472,230.3072 L165.6848,231.2592 C166.144,230.8336 166.6816,230.6208 167.264,230.6208 C167.9808,230.6208 168.4512,230.9792 168.4512,231.528 L168.4512,232.2784 C168.0928,231.8416 167.4544,231.6176 166.7376,231.6176 C165.8752,231.6176 164.856,232.0768 164.856,233.3424 C164.856,234.552 165.8752,235.1344 166.7376,235.1344 Z M167.3088,234.1712 C166.7488,234.1712 166.2896,233.88 166.2896,233.376 C166.2896,232.8496 166.7488,232.5584 167.3088,232.5584 C167.768,232.5584 168.216,232.7152 168.4512,233.0288 L168.4512,233.7008 C168.216,234.0144 167.768,234.1712 167.3088,234.1712 Z M172.7072,235 L172.7072,231.36 C172.9424,231.0352 173.3792,230.7216 173.9392,230.7216 C174.544,230.7216 174.936,230.9792 174.936,231.7296 L174.936,235 L176.3584,235 L176.3584,231.1808 C176.3584,230.128 175.7872,229.456 174.6,229.456 C173.7152,229.456 173.0544,229.8816 172.7072,230.296 L172.7072,229.5904 L171.2848,229.5904 L171.2848,235 L172.7072,235 Z M179.8192,235.1344 C180.4688,235.1344 181.0624,234.8432 181.488,234.3056 L181.488,235 L182.9216,235 L182.9216,227.5296 L181.488,227.5296 L181.488,230.2848 C181.0624,229.736 180.4576,229.456 179.8192,229.456 C178.4416,229.456 177.4224,230.5312 177.4224,232.3008 C177.4224,234.104 178.4528,235.1344 179.8192,235.1344 Z M180.256,233.8688 C179.4496,233.8688 178.8896,233.2304 178.8896,232.3008 C178.8896,231.36 179.4496,230.7216 180.256,230.7216 C180.7376,230.7216 181.2528,230.9792 181.488,231.3376 L181.488,233.2528 C181.2528,233.6112 180.7376,233.8688 180.256,233.8688 Z M187.424,235.1344 C188.7904,235.1344 189.8208,234.104 189.8208,232.3008 C189.8208,230.5312 188.8016,229.456 187.424,229.456 C186.7856,229.456 186.1808,229.736 185.7552,230.2848 L185.7552,227.5296 L184.3328,227.5296 L184.3328,235 L185.7552,235 L185.7552,234.3056 C186.1808,234.8432 186.7744,235.1344 187.424,235.1344 Z M186.976,233.8688 C186.5168,233.8688 185.9904,233.6112 185.7552,233.264 L185.7552,231.3488 C185.9904,230.9904 186.5168,230.7216 186.976,230.7216 C187.8048,230.7216 188.3536,231.36 188.3536,232.3008 C188.3536,233.2416 187.8048,233.8688 186.976,233.8688 Z M193.4048,235.1344 C195.1968,235.1344 196.272,233.8352 196.272,232.2896 C196.272,230.7552 195.1968,229.456 193.4048,229.456 C191.624,229.456 190.5488,230.7552 190.5488,232.2896 C190.5488,233.8352 191.624,235.1344 193.4048,235.1344 Z M193.4048,233.8688 C192.52,233.8688 192.0272,233.1408 192.0272,232.2896 C192.0272,231.4496 192.52,230.7216 193.4048,230.7216 C194.2896,230.7216 194.7936,231.4496 194.7936,232.2896 C194.7936,233.1408 194.2896,233.8688 193.4048,233.8688 Z M199.8336,235.1344 C201.6256,235.1344 202.7008,233.8352 202.7008,232.2896 C202.7008,230.7552 201.6256,229.456 199.8336,229.456 C198.0528,229.456 196.9776,230.7552 196.9776,232.2896 C196.9776,233.8352 198.0528,235.1344 199.8336,235.1344 Z M199.8336,233.8688 C198.9488,233.8688 198.456,233.1408 198.456,232.2896 C198.456,231.4496 198.9488,230.7216 199.8336,230.7216 C200.7184,230.7216 201.2224,231.4496 201.2224,232.2896 C201.2224,233.1408 200.7184,233.8688 199.8336,233.8688 Z M205.176,235 L205.176,233.6112 L205.8256,232.9168 L207.2592,235 L209.04,235 L206.8336,232.0432 L208.9728,229.5904 L207.2256,229.5904 L205.176,231.9984 L205.176,227.5296 L203.7536,227.5296 L203.7536,235 L205.176,235 Z" id="DevOpsHandbook" fill="#1F3966" fill-rule="nonzero"></path>
        <g id="verification/dot/trusted/active" transform="translate(89.000000, 152.360475)">
            <g id="Group" transform="translate(3.364948, 3.400000)">
                <rect id="Rectangle-3" stroke="#29CC96" stroke-width="0.8" fill="#F2FFFB" x="0" y="0" width="10.0948454" height="10.2" rx="4.8"></rect>
                <path d="M7.23929381,2.90502333 C6.16251392,4.06088515 5.18183795,5.20129844 4.13530292,6.33986819 L2.81136912,5.20587232 C2.72117695,5.12838938 2.60588492,5.09283795 2.49101548,5.10651175 C2.37614603,5.12018556 2.27106777,5.18217215 2.19873934,5.2788024 C2.04813588,5.4802632 2.07876192,5.77424009 2.26680931,5.93513103 L3.90048873,7.33529878 C4.07449737,7.48433497 4.32592063,7.46883978 4.48249247,7.29883608 C5.65329605,6.04183548 6.70582124,4.80245366 7.85876326,3.56505541 C7.98894573,3.4306043 8.02766393,3.22412623 7.95661412,3.04591988 C7.8855665,2.86771353 7.71921872,2.75512837 7.53883873,2.76287597 C7.42563128,2.76645923 7.31800448,2.81750701 7.23929381,2.90502333 Z" id="Fill-1" fill="#29CC96"></path>
            </g>
        </g>
        <path d="M116.823076,163.660475 C119.141476,163.660475 120.653476,162.058875 120.653476,159.930875 C120.653476,157.814075 119.141476,156.190075 116.823076,156.190075 L114.269476,156.190075 L114.269476,163.660475 L116.823076,163.660475 Z M116.823076,162.831675 L115.199076,162.831675 L115.199076,157.018875 L116.823076,157.018875 C118.671076,157.018875 119.690276,158.318075 119.690276,159.930875 C119.690276,161.532475 118.637476,162.831675 116.823076,162.831675 Z M123.666276,163.794875 C124.394276,163.794875 125.010276,163.537275 125.458276,163.044475 L125.458276,163.660475 L126.298276,163.660475 L126.298276,159.942075 C126.298276,158.631675 125.346276,158.116475 124.203876,158.116475 C123.319076,158.116475 122.624676,158.407675 122.042276,159.012475 L122.434276,159.594875 C122.915876,159.079675 123.442276,158.844475 124.091876,158.844475 C124.875876,158.844475 125.458276,159.258875 125.458276,159.986875 L125.458276,160.961275 C125.021476,160.457275 124.405476,160.222075 123.666276,160.222075 C122.747876,160.222075 121.773476,160.793275 121.773476,162.002875 C121.773476,163.178875 122.747876,163.794875 123.666276,163.794875 Z M123.968676,163.190075 C123.184676,163.190075 122.635876,162.697275 122.635876,162.014075 C122.635876,161.319675 123.184676,160.826875 123.968676,160.826875 C124.562276,160.826875 125.133476,161.050875 125.458276,161.498875 L125.458276,162.518075 C125.133476,162.966075 124.562276,163.190075 123.968676,163.190075 Z M129.344676,163.794875 C129.837476,163.794875 130.139876,163.649275 130.352676,163.447675 L130.106276,162.820475 C129.994276,162.943675 129.770276,163.044475 129.535076,163.044475 C129.165476,163.044475 128.986276,162.753275 128.986276,162.350075 L128.986276,158.990075 L130.083876,158.990075 L130.083876,158.250875 L128.986276,158.250875 L128.986276,156.772475 L128.146276,156.772475 L128.146276,158.250875 L127.250276,158.250875 L127.250276,158.990075 L128.146276,158.990075 L128.146276,162.529275 C128.146276,163.335675 128.549476,163.794875 129.344676,163.794875 Z M132.861476,163.794875 C133.589476,163.794875 134.205476,163.537275 134.653476,163.044475 L134.653476,163.660475 L135.493476,163.660475 L135.493476,159.942075 C135.493476,158.631675 134.541476,158.116475 133.399076,158.116475 C132.514276,158.116475 131.819876,158.407675 131.237476,159.012475 L131.629476,159.594875 C132.111076,159.079675 132.637476,158.844475 133.287076,158.844475 C134.071076,158.844475 134.653476,159.258875 134.653476,159.986875 L134.653476,160.961275 C134.216676,160.457275 133.600676,160.222075 132.861476,160.222075 C131.943076,160.222075 130.968676,160.793275 130.968676,162.002875 C130.968676,163.178875 131.943076,163.794875 132.861476,163.794875 Z M133.163876,163.190075 C132.379876,163.190075 131.831076,162.697275 131.831076,162.014075 C131.831076,161.319675 132.379876,160.826875 133.163876,160.826875 C133.757476,160.826875 134.328676,161.050875 134.653476,161.498875 L134.653476,162.518075 C134.328676,162.966075 133.757476,163.190075 133.163876,163.190075 Z M141.944676,163.794875 C142.851876,163.794875 143.557476,163.414075 144.106276,162.876475 C144.408676,163.178875 144.699876,163.458875 144.923876,163.660475 L146.077476,163.660475 C145.539876,163.156475 145.069476,162.708475 144.632676,162.249275 C145.080676,161.622075 145.394276,160.916475 145.640676,160.322875 L144.923876,160.009275 C144.789476,160.423675 144.520676,161.095675 144.117476,161.711675 C143.826276,161.386875 143.535076,161.062075 143.232676,160.714875 C142.986276,160.434875 142.661476,160.065275 142.370276,159.650875 C143.311076,159.158075 144.274276,158.665275 144.274276,157.545275 C144.274276,156.604475 143.546276,156.078075 142.583076,156.078075 C141.519076,156.078075 140.701476,156.817275 140.701476,157.814075 C140.701476,158.340475 140.936676,158.911675 141.272676,159.482875 C140.410276,159.953275 139.626276,160.546875 139.626276,161.711675 C139.626276,163.100475 140.667876,163.794875 141.944676,163.794875 Z M142.011876,159.113275 C141.754276,158.665275 141.563876,158.217275 141.563876,157.825275 C141.563876,157.186875 142.034276,156.738875 142.616676,156.738875 C143.109476,156.738875 143.490276,157.030075 143.490276,157.578875 C143.490276,158.318075 142.807076,158.710075 142.011876,159.113275 Z M142.034276,163.100475 C141.250276,163.100475 140.533476,162.585275 140.533476,161.655675 C140.533476,160.882875 141.015076,160.423675 141.642276,160.042875 C141.933476,160.468475 142.258276,160.871675 142.560676,161.230075 C142.773476,161.487675 143.176676,161.913275 143.602276,162.361275 C143.176676,162.786875 142.650276,163.100475 142.034276,163.100475 Z M151.095076,163.660475 L151.095076,156.190075 L150.165476,156.190075 L150.165476,163.660475 L151.095076,163.660475 Z M153.648676,163.660475 L153.648676,159.706875 C153.962276,159.270075 154.589476,158.866875 155.250276,158.866875 C155.978276,158.866875 156.459876,159.169275 156.459876,160.121275 L156.459876,163.660475 L157.299876,163.660475 L157.299876,159.863675 C157.299876,158.687675 156.706276,158.116475 155.575076,158.116475 C154.768676,158.116475 154.029476,158.586875 153.648676,159.034875 L153.648676,158.250875 L152.808676,158.250875 L152.808676,163.660475 L153.648676,163.660475 Z M160.693476,163.794875 C162.093476,163.794875 162.821476,163.066875 162.821476,162.159675 C162.821476,160.961275 161.735076,160.692475 160.794276,160.479675 C160.088676,160.311675 159.472676,160.143675 159.472676,159.617275 C159.472676,159.135675 159.931876,158.799675 160.671076,158.799675 C161.365476,158.799675 161.959076,159.090875 162.283876,159.482875 L162.675876,158.900475 C162.239076,158.463675 161.589476,158.116475 160.671076,158.116475 C159.383076,158.116475 158.655076,158.833275 158.655076,159.673275 C158.655076,160.793275 159.696676,161.039675 160.615076,161.252475 C161.343076,161.431675 162.003876,161.622075 162.003876,162.215675 C162.003876,162.742075 161.555876,163.111675 160.727076,163.111675 C159.987876,163.111675 159.304676,162.753275 158.946276,162.338875 L158.509476,162.943675 C159.058276,163.526075 159.808676,163.794875 160.693476,163.794875 Z M164.602276,157.343675 C164.915876,157.343675 165.173476,157.086075 165.173476,156.772475 C165.173476,156.458875 164.915876,156.212475 164.602276,156.212475 C164.299876,156.212475 164.042276,156.458875 164.042276,156.772475 C164.042276,157.086075 164.299876,157.343675 164.602276,157.343675 Z M165.027876,163.660475 L165.027876,158.250875 L164.187876,158.250875 L164.187876,163.660475 L165.027876,163.660475 Z M168.880676,165.855675 C170.202276,165.855675 171.456676,165.295675 171.456676,163.503675 L171.456676,158.250875 L170.616676,158.250875 L170.616676,159.068475 C170.179876,158.474875 169.530276,158.116475 168.802276,158.116475 C167.379876,158.116475 166.394276,159.191675 166.394276,160.927675 C166.394276,162.674875 167.391076,163.727675 168.802276,163.727675 C169.563876,163.727675 170.224676,163.313275 170.616676,162.764475 L170.616676,163.537275 C170.616676,164.724475 169.776676,165.161275 168.880676,165.161275 C168.107876,165.161275 167.570276,164.959675 167.122276,164.422075 L166.696676,165.049275 C167.335076,165.676475 167.962276,165.855675 168.880676,165.855675 Z M169.003876,162.988475 C167.917476,162.988475 167.267876,162.114875 167.267876,160.927675 C167.267876,159.729275 167.917476,158.866875 169.003876,158.866875 C169.675876,158.866875 170.325476,159.270075 170.616676,159.740475 L170.616676,162.103675 C170.325476,162.574075 169.675876,162.988475 169.003876,162.988475 Z M173.976676,163.660475 L173.976676,159.706875 C174.301476,159.270075 174.928676,158.866875 175.578276,158.866875 C176.306276,158.866875 176.799076,159.146875 176.799076,160.098875 L176.799076,163.660475 L177.639076,163.660475 L177.639076,159.841275 C177.639076,158.665275 177.045476,158.116475 175.914276,158.116475 C175.096676,158.116475 174.357476,158.586875 173.976676,159.034875 L173.976676,156.190075 L173.136676,156.190075 L173.136676,163.660475 L173.976676,163.660475 Z M180.685476,163.794875 C181.178276,163.794875 181.480676,163.649275 181.693476,163.447675 L181.447076,162.820475 C181.335076,162.943675 181.111076,163.044475 180.875876,163.044475 C180.506276,163.044475 180.327076,162.753275 180.327076,162.350075 L180.327076,158.990075 L181.424676,158.990075 L181.424676,158.250875 L180.327076,158.250875 L180.327076,156.772475 L179.487076,156.772475 L179.487076,158.250875 L178.591076,158.250875 L178.591076,158.990075 L179.487076,158.990075 L179.487076,162.529275 C179.487076,163.335675 179.890276,163.794875 180.685476,163.794875 Z M184.325476,163.794875 C185.725476,163.794875 186.453476,163.066875 186.453476,162.159675 C186.453476,160.961275 185.367076,160.692475 184.426276,160.479675 C183.720676,160.311675 183.104676,160.143675 183.104676,159.617275 C183.104676,159.135675 183.563876,158.799675 184.303076,158.799675 C184.997476,158.799675 185.591076,159.090875 185.915876,159.482875 L186.307876,158.900475 C185.871076,158.463675 185.221476,158.116475 184.303076,158.116475 C183.015076,158.116475 182.287076,158.833275 182.287076,159.673275 C182.287076,160.793275 183.328676,161.039675 184.247076,161.252475 C184.975076,161.431675 185.635876,161.622075 185.635876,162.215675 C185.635876,162.742075 185.187876,163.111675 184.359076,163.111675 C183.619876,163.111675 182.936676,162.753275 182.578276,162.338875 L182.141476,162.943675 C182.690276,163.526075 183.440676,163.794875 184.325476,163.794875 Z" id="Data&amp;Insights" fill="#1F3966" fill-rule="nonzero"></path>
        <g id="verification/dot/trusted/active" transform="translate(89.000000, 186.360475)">
            <g id="Group" transform="translate(3.368421, 3.400000)">
                <rect id="Rectangle-3" stroke="#29CC96" stroke-width="0.8" fill="#F2FFFB" x="0" y="0" width="10.1052632" height="10.2" rx="4.8"></rect>
                <path d="M7.2467647,2.90502333 C6.16887359,4.06088515 5.18718557,5.20129844 4.13957052,6.33986819 L2.81427043,5.20587232 C2.72398518,5.12838938 2.60857417,5.09283795 2.49358618,5.10651175 C2.37859819,5.12018556 2.27341149,5.18217215 2.20100842,5.2788024 C2.05024954,5.4802632 2.08090719,5.77424009 2.26914864,5.93513103 L3.904514,7.33529878 C4.07870222,7.48433497 4.33038495,7.46883978 4.48711836,7.29883608 C5.6591302,6.04183548 6.71274159,4.80245366 7.86687344,3.56505541 C7.99719026,3.4306043 8.03594841,3.22412623 7.96482528,3.04591988 C7.89370434,2.86771353 7.72718489,2.75512837 7.54661875,2.76287597 C7.43329447,2.76645923 7.3255566,2.81750701 7.2467647,2.90502333 Z" id="Fill-1" fill="#29CC96"></path>
            </g>
        </g>
        <path d="M117.072253,197.660475 L117.072253,191.018875 L119.446653,191.018875 L119.446653,190.190075 L113.779453,190.190075 L113.779453,191.018875 L116.142653,191.018875 L116.142653,197.660475 L117.072253,197.660475 Z M121.485053,197.660475 L121.485053,193.830075 C121.731453,193.393275 122.437053,192.967675 122.952253,192.967675 C123.086653,192.967675 123.187453,192.978875 123.288253,193.001275 L123.288253,192.138875 C122.549053,192.138875 121.921853,192.553275 121.485053,193.124475 L121.485053,192.250875 L120.645053,192.250875 L120.645053,197.660475 L121.485053,197.660475 Z M126.704253,197.794875 C128.350653,197.794875 129.381053,196.518075 129.381053,194.950075 C129.381053,193.382075 128.350653,192.116475 126.704253,192.116475 C125.057853,192.116475 124.027453,193.382075 124.027453,194.950075 C124.027453,196.518075 125.057853,197.794875 126.704253,197.794875 Z M126.704253,197.044475 C125.550653,197.044475 124.901053,196.058875 124.901053,194.950075 C124.901053,193.852475 125.550653,192.866875 126.704253,192.866875 C127.857853,192.866875 128.496253,193.852475 128.496253,194.950075 C128.496253,196.058875 127.857853,197.044475 126.704253,197.044475 Z M132.472253,197.794875 C133.278653,197.794875 133.984253,197.369275 134.398653,196.898875 L134.398653,197.660475 L135.238653,197.660475 L135.238653,192.250875 L134.398653,192.250875 L134.398653,196.226875 C134.085053,196.663675 133.457853,197.044475 132.797053,197.044475 C132.069053,197.044475 131.587453,196.764475 131.587453,195.812475 L131.587453,192.250875 L130.747453,192.250875 L130.747453,196.070075 C130.747453,197.246075 131.341053,197.794875 132.472253,197.794875 Z M139.584253,197.794875 C140.995453,197.794875 141.992253,196.719675 141.992253,194.961275 C141.992253,193.236475 140.995453,192.116475 139.584253,192.116475 C138.845053,192.116475 138.195453,192.474875 137.758653,193.068475 L137.758653,190.190075 L136.918653,190.190075 L136.918653,197.660475 L137.758653,197.660475 L137.758653,196.854075 C138.161853,197.402875 138.822653,197.794875 139.584253,197.794875 Z M139.371453,197.044475 C138.710653,197.044475 138.049853,196.663675 137.758653,196.193275 L137.758653,193.740475 C138.049853,193.270075 138.710653,192.866875 139.371453,192.866875 C140.469053,192.866875 141.118653,193.762875 141.118653,194.961275 C141.118653,196.159675 140.469053,197.044475 139.371453,197.044475 Z M144.198653,197.660475 L144.198653,190.190075 L143.358653,190.190075 L143.358653,197.660475 L144.198653,197.660475 Z M148.320253,197.794875 C149.205053,197.794875 149.933053,197.503675 150.470653,196.966075 L150.067453,196.417275 C149.641853,196.854075 149.014653,197.100475 148.398653,197.100475 C147.233853,197.100475 146.517053,196.249275 146.449853,195.230075 L150.829053,195.230075 L150.829053,195.017275 C150.829053,193.393275 149.865853,192.116475 148.230653,192.116475 C146.685053,192.116475 145.565053,193.382075 145.565053,194.950075 C145.565053,196.641275 146.718653,197.794875 148.320253,197.794875 Z M150.000253,194.614075 L146.449853,194.614075 C146.494653,193.785275 147.065853,192.810875 148.219453,192.810875 C149.451453,192.810875 149.989053,193.807675 150.000253,194.614075 Z M153.897853,197.794875 C155.297853,197.794875 156.025853,197.066875 156.025853,196.159675 C156.025853,194.961275 154.939453,194.692475 153.998653,194.479675 C153.293053,194.311675 152.677053,194.143675 152.677053,193.617275 C152.677053,193.135675 153.136253,192.799675 153.875453,192.799675 C154.569853,192.799675 155.163453,193.090875 155.488253,193.482875 L155.880253,192.900475 C155.443453,192.463675 154.793853,192.116475 153.875453,192.116475 C152.587453,192.116475 151.859453,192.833275 151.859453,193.673275 C151.859453,194.793275 152.901053,195.039675 153.819453,195.252475 C154.547453,195.431675 155.208253,195.622075 155.208253,196.215675 C155.208253,196.742075 154.760253,197.111675 153.931453,197.111675 C153.192253,197.111675 152.509053,196.753275 152.150653,196.338875 L151.713853,196.943675 C152.262653,197.526075 153.013053,197.794875 153.897853,197.794875 Z M158.232253,197.660475 L158.232253,193.706875 C158.557053,193.270075 159.184253,192.866875 159.833853,192.866875 C160.561853,192.866875 161.054653,193.146875 161.054653,194.098875 L161.054653,197.660475 L161.894653,197.660475 L161.894653,193.841275 C161.894653,192.665275 161.301053,192.116475 160.169853,192.116475 C159.352253,192.116475 158.613053,192.586875 158.232253,193.034875 L158.232253,190.190075 L157.392253,190.190075 L157.392253,197.660475 L158.232253,197.660475 Z M165.937853,197.794875 C167.584253,197.794875 168.614653,196.518075 168.614653,194.950075 C168.614653,193.382075 167.584253,192.116475 165.937853,192.116475 C164.291453,192.116475 163.261053,193.382075 163.261053,194.950075 C163.261053,196.518075 164.291453,197.794875 165.937853,197.794875 Z M165.937853,197.044475 C164.784253,197.044475 164.134653,196.058875 164.134653,194.950075 C164.134653,193.852475 164.784253,192.866875 165.937853,192.866875 C167.091453,192.866875 167.729853,193.852475 167.729853,194.950075 C167.729853,196.058875 167.091453,197.044475 165.937853,197.044475 Z M172.344253,197.794875 C173.990653,197.794875 175.021053,196.518075 175.021053,194.950075 C175.021053,193.382075 173.990653,192.116475 172.344253,192.116475 C170.697853,192.116475 169.667453,193.382075 169.667453,194.950075 C169.667453,196.518075 170.697853,197.794875 172.344253,197.794875 Z M172.344253,197.044475 C171.190653,197.044475 170.541053,196.058875 170.541053,194.950075 C170.541053,193.852475 171.190653,192.866875 172.344253,192.866875 C173.497853,192.866875 174.136253,193.852475 174.136253,194.950075 C174.136253,196.058875 173.497853,197.044475 172.344253,197.044475 Z M177.753853,197.794875 C178.246653,197.794875 178.549053,197.649275 178.761853,197.447675 L178.515453,196.820475 C178.403453,196.943675 178.179453,197.044475 177.944253,197.044475 C177.574653,197.044475 177.395453,196.753275 177.395453,196.350075 L177.395453,192.990075 L178.493053,192.990075 L178.493053,192.250875 L177.395453,192.250875 L177.395453,190.772475 L176.555453,190.772475 L176.555453,192.250875 L175.659453,192.250875 L175.659453,192.990075 L176.555453,192.990075 L176.555453,196.529275 C176.555453,197.335675 176.958653,197.794875 177.753853,197.794875 Z M180.094653,191.343675 C180.408253,191.343675 180.665853,191.086075 180.665853,190.772475 C180.665853,190.458875 180.408253,190.212475 180.094653,190.212475 C179.792253,190.212475 179.534653,190.458875 179.534653,190.772475 C179.534653,191.086075 179.792253,191.343675 180.094653,191.343675 Z M180.520253,197.660475 L180.520253,192.250875 L179.680253,192.250875 L179.680253,197.660475 L180.520253,197.660475 Z M183.040253,197.660475 L183.040253,193.706875 C183.353853,193.270075 183.981053,192.866875 184.641853,192.866875 C185.369853,192.866875 185.851453,193.169275 185.851453,194.121275 L185.851453,197.660475 L186.691453,197.660475 L186.691453,193.863675 C186.691453,192.687675 186.097853,192.116475 184.966653,192.116475 C184.160253,192.116475 183.421053,192.586875 183.040253,193.034875 L183.040253,192.250875 L182.200253,192.250875 L182.200253,197.660475 L183.040253,197.660475 Z M190.544253,199.855675 C191.865853,199.855675 193.120253,199.295675 193.120253,197.503675 L193.120253,192.250875 L192.280253,192.250875 L192.280253,193.068475 C191.843453,192.474875 191.193853,192.116475 190.465853,192.116475 C189.043453,192.116475 188.057853,193.191675 188.057853,194.927675 C188.057853,196.674875 189.054653,197.727675 190.465853,197.727675 C191.227453,197.727675 191.888253,197.313275 192.280253,196.764475 L192.280253,197.537275 C192.280253,198.724475 191.440253,199.161275 190.544253,199.161275 C189.771453,199.161275 189.233853,198.959675 188.785853,198.422075 L188.360253,199.049275 C188.998653,199.676475 189.625853,199.855675 190.544253,199.855675 Z M190.667453,196.988475 C189.581053,196.988475 188.931453,196.114875 188.931453,194.927675 C188.931453,193.729275 189.581053,192.866875 190.667453,192.866875 C191.339453,192.866875 191.989053,193.270075 192.280253,193.740475 L192.280253,196.103675 C191.989053,196.574075 191.339453,196.988475 190.667453,196.988475 Z" id="Troubleshooting" fill="#1F3966" fill-rule="nonzero"></path>
        <g id="verification/dot/trusted/active" transform="translate(88.000000, 260.360475)">
            <g id="Group" transform="translate(3.383607, 3.400000)">
                <rect id="Rectangle-3" stroke="#29CC96" stroke-width="0.8" fill="#F2FFFB" x="0" y="0" width="10.1508197" height="10.2" rx="4.8"></rect>
                <path d="M7.27943454,2.90502333 C6.19668408,4.06088515 5.21057042,5.20129844 4.15823252,6.33986819 L2.82695771,5.20587232 C2.73626544,5.12838938 2.62033414,5.09283795 2.50482776,5.10651175 C2.38932138,5.12018556 2.28366048,5.18217215 2.210931,5.2788024 C2.05949247,5.4802632 2.09028833,5.77424009 2.27937841,5.93513103 L3.92211632,7.33529878 C4.09708981,7.48433497 4.34990717,7.46883978 4.50734718,7.29883608 C5.68464268,6.04183548 6.74300395,4.80245366 7.90233885,3.56505541 C8.03324316,3.4306043 8.07217605,3.22412623 8.00073228,3.04591988 C7.92929071,2.86771353 7.76202056,2.75512837 7.58064039,2.76287597 C7.46680523,2.76645923 7.35858165,2.81750701 7.27943454,2.90502333 Z" id="Fill-1" fill="#29CC96"></path>
            </g>
        </g>
        <path d="M116.910348,271.794875 C118.265548,271.794875 119.161548,271.167675 119.788748,270.316475 L118.993548,269.879675 C118.567948,270.518075 117.795148,270.966075 116.910348,270.966075 C115.308748,270.966075 114.065548,269.700475 114.065548,267.930875 C114.065548,266.150075 115.308748,264.895675 116.910348,264.895675 C117.795148,264.895675 118.567948,265.354875 118.993548,265.982075 L119.777548,265.545275 C119.183948,264.705275 118.265548,264.066875 116.910348,264.066875 C114.793548,264.066875 113.102348,265.634875 113.102348,267.930875 C113.102348,270.226875 114.793548,271.794875 116.910348,271.794875 Z M123.305548,271.794875 C124.951948,271.794875 125.982348,270.518075 125.982348,268.950075 C125.982348,267.382075 124.951948,266.116475 123.305548,266.116475 C121.659148,266.116475 120.628748,267.382075 120.628748,268.950075 C120.628748,270.518075 121.659148,271.794875 123.305548,271.794875 Z M123.305548,271.044475 C122.151948,271.044475 121.502348,270.058875 121.502348,268.950075 C121.502348,267.852475 122.151948,266.866875 123.305548,266.866875 C124.459148,266.866875 125.097548,267.852475 125.097548,268.950075 C125.097548,270.058875 124.459148,271.044475 123.305548,271.044475 Z M128.188748,271.660475 L128.188748,267.706875 C128.502348,267.270075 129.129548,266.866875 129.790348,266.866875 C130.518348,266.866875 130.999948,267.169275 130.999948,268.121275 L130.999948,271.660475 L131.839948,271.660475 L131.839948,267.863675 C131.839948,266.687675 131.246348,266.116475 130.115148,266.116475 C129.308748,266.116475 128.569548,266.586875 128.188748,267.034875 L128.188748,266.250875 L127.348748,266.250875 L127.348748,271.660475 L128.188748,271.660475 Z M134.886348,271.794875 C135.379148,271.794875 135.681548,271.649275 135.894348,271.447675 L135.647948,270.820475 C135.535948,270.943675 135.311948,271.044475 135.076748,271.044475 C134.707148,271.044475 134.527948,270.753275 134.527948,270.350075 L134.527948,266.990075 L135.625548,266.990075 L135.625548,266.250875 L134.527948,266.250875 L134.527948,264.772475 L133.687948,264.772475 L133.687948,266.250875 L132.791948,266.250875 L132.791948,266.990075 L133.687948,266.990075 L133.687948,270.529275 C133.687948,271.335675 134.091148,271.794875 134.886348,271.794875 Z M138.403148,271.794875 C139.131148,271.794875 139.747148,271.537275 140.195148,271.044475 L140.195148,271.660475 L141.035148,271.660475 L141.035148,267.942075 C141.035148,266.631675 140.083148,266.116475 138.940748,266.116475 C138.055948,266.116475 137.361548,266.407675 136.779148,267.012475 L137.171148,267.594875 C137.652748,267.079675 138.179148,266.844475 138.828748,266.844475 C139.612748,266.844475 140.195148,267.258875 140.195148,267.986875 L140.195148,268.961275 C139.758348,268.457275 139.142348,268.222075 138.403148,268.222075 C137.484748,268.222075 136.510348,268.793275 136.510348,270.002875 C136.510348,271.178875 137.484748,271.794875 138.403148,271.794875 Z M138.705548,271.190075 C137.921548,271.190075 137.372748,270.697275 137.372748,270.014075 C137.372748,269.319675 137.921548,268.826875 138.705548,268.826875 C139.299148,268.826875 139.870348,269.050875 140.195148,269.498875 L140.195148,270.518075 C139.870348,270.966075 139.299148,271.190075 138.705548,271.190075 Z M145.100748,271.794875 C146.086348,271.794875 146.668748,271.391675 147.083148,270.854075 L146.523148,270.338875 C146.164748,270.820475 145.705548,271.044475 145.145548,271.044475 C143.991948,271.044475 143.275148,270.148475 143.275148,268.950075 C143.275148,267.751675 143.991948,266.866875 145.145548,266.866875 C145.705548,266.866875 146.164748,267.079675 146.523148,267.572475 L147.083148,267.057275 C146.668748,266.519675 146.086348,266.116475 145.100748,266.116475 C143.487948,266.116475 142.401548,267.348475 142.401548,268.950075 C142.401548,270.562875 143.487948,271.794875 145.100748,271.794875 Z M149.625548,271.794875 C150.118348,271.794875 150.420748,271.649275 150.633548,271.447675 L150.387148,270.820475 C150.275148,270.943675 150.051148,271.044475 149.815948,271.044475 C149.446348,271.044475 149.267148,270.753275 149.267148,270.350075 L149.267148,266.990075 L150.364748,266.990075 L150.364748,266.250875 L149.267148,266.250875 L149.267148,264.772475 L148.427148,264.772475 L148.427148,266.250875 L147.531148,266.250875 L147.531148,266.990075 L148.427148,266.990075 L148.427148,270.529275 C148.427148,271.335675 148.830348,271.794875 149.625548,271.794875 Z M157.252748,271.660475 L157.252748,265.018875 L159.627148,265.018875 L159.627148,264.190075 L153.959948,264.190075 L153.959948,265.018875 L156.323148,265.018875 L156.323148,271.660475 L157.252748,271.660475 Z M163.267148,271.794875 C164.151948,271.794875 164.879948,271.503675 165.417548,270.966075 L165.014348,270.417275 C164.588748,270.854075 163.961548,271.100475 163.345548,271.100475 C162.180748,271.100475 161.463948,270.249275 161.396748,269.230075 L165.775948,269.230075 L165.775948,269.017275 C165.775948,267.393275 164.812748,266.116475 163.177548,266.116475 C161.631948,266.116475 160.511948,267.382075 160.511948,268.950075 C160.511948,270.641275 161.665548,271.794875 163.267148,271.794875 Z M164.947148,268.614075 L161.396748,268.614075 C161.441548,267.785275 162.012748,266.810875 163.166348,266.810875 C164.398348,266.810875 164.935948,267.807675 164.947148,268.614075 Z M169.516748,271.794875 C170.502348,271.794875 171.084748,271.391675 171.499148,270.854075 L170.939148,270.338875 C170.580748,270.820475 170.121548,271.044475 169.561548,271.044475 C168.407948,271.044475 167.691148,270.148475 167.691148,268.950075 C167.691148,267.751675 168.407948,266.866875 169.561548,266.866875 C170.121548,266.866875 170.580748,267.079675 170.939148,267.572475 L171.499148,267.057275 C171.084748,266.519675 170.502348,266.116475 169.516748,266.116475 C167.903948,266.116475 166.817548,267.348475 166.817548,268.950075 C166.817548,270.562875 167.903948,271.794875 169.516748,271.794875 Z M173.515148,271.660475 L173.515148,267.706875 C173.839948,267.270075 174.467148,266.866875 175.116748,266.866875 C175.844748,266.866875 176.337548,267.146875 176.337548,268.098875 L176.337548,271.660475 L177.177548,271.660475 L177.177548,267.841275 C177.177548,266.665275 176.583948,266.116475 175.452748,266.116475 C174.635148,266.116475 173.895948,266.586875 173.515148,267.034875 L173.515148,264.190075 L172.675148,264.190075 L172.675148,271.660475 L173.515148,271.660475 Z M184.199948,271.794875 C186.215948,271.794875 186.955148,270.686075 186.955148,269.599675 C186.955148,268.031675 185.566348,267.650875 184.345548,267.326075 C183.393548,267.068475 182.531148,266.844475 182.531148,266.094075 C182.531148,265.388475 183.169548,264.906875 184.065548,264.906875 C184.883148,264.906875 185.667148,265.186875 186.227148,265.802875 L186.787148,265.119675 C186.159948,264.458875 185.275148,264.078075 184.132748,264.078075 C182.665548,264.078075 181.567948,264.918075 181.567948,266.150075 C181.567948,267.617275 182.900748,267.953275 184.099148,268.266875 C185.084748,268.535675 185.991948,268.782075 185.991948,269.678075 C185.991948,270.249275 185.566348,270.966075 184.233548,270.966075 C183.180748,270.966075 182.374348,270.450875 181.881548,269.902075 L181.332748,270.607675 C181.948748,271.302075 182.900748,271.794875 184.199948,271.794875 Z M190.035148,271.794875 C190.841548,271.794875 191.547148,271.369275 191.961548,270.898875 L191.961548,271.660475 L192.801548,271.660475 L192.801548,266.250875 L191.961548,266.250875 L191.961548,270.226875 C191.647948,270.663675 191.020748,271.044475 190.359948,271.044475 C189.631948,271.044475 189.150348,270.764475 189.150348,269.812475 L189.150348,266.250875 L188.310348,266.250875 L188.310348,270.070075 C188.310348,271.246075 188.903948,271.794875 190.035148,271.794875 Z M195.321548,273.721275 L195.321548,270.842875 C195.758348,271.447675 196.407948,271.794875 197.147148,271.794875 C198.569548,271.794875 199.555148,270.697275 199.555148,268.950075 C199.555148,267.191675 198.569548,266.116475 197.147148,266.116475 C196.385548,266.116475 195.713548,266.508475 195.321548,267.057275 L195.321548,266.250875 L194.481548,266.250875 L194.481548,273.721275 L195.321548,273.721275 Z M196.934348,271.044475 C196.273548,271.044475 195.612748,270.641275 195.321548,270.170875 L195.321548,267.729275 C195.612748,267.258875 196.273548,266.866875 196.934348,266.866875 C198.020748,266.866875 198.670348,267.751675 198.670348,268.950075 C198.670348,270.148475 198.020748,271.044475 196.934348,271.044475 Z M201.750348,273.721275 L201.750348,270.842875 C202.187148,271.447675 202.836748,271.794875 203.575948,271.794875 C204.998348,271.794875 205.983948,270.697275 205.983948,268.950075 C205.983948,267.191675 204.998348,266.116475 203.575948,266.116475 C202.814348,266.116475 202.142348,266.508475 201.750348,267.057275 L201.750348,266.250875 L200.910348,266.250875 L200.910348,273.721275 L201.750348,273.721275 Z M203.363148,271.044475 C202.702348,271.044475 202.041548,270.641275 201.750348,270.170875 L201.750348,267.729275 C202.041548,267.258875 202.702348,266.866875 203.363148,266.866875 C204.449548,266.866875 205.099148,267.751675 205.099148,268.950075 C205.099148,270.148475 204.449548,271.044475 203.363148,271.044475 Z M209.702348,271.794875 C211.348748,271.794875 212.379148,270.518075 212.379148,268.950075 C212.379148,267.382075 211.348748,266.116475 209.702348,266.116475 C208.055948,266.116475 207.025548,267.382075 207.025548,268.950075 C207.025548,270.518075 208.055948,271.794875 209.702348,271.794875 Z M209.702348,271.044475 C208.548748,271.044475 207.899148,270.058875 207.899148,268.950075 C207.899148,267.852475 208.548748,266.866875 209.702348,266.866875 C210.855948,266.866875 211.494348,267.852475 211.494348,268.950075 C211.494348,270.058875 210.855948,271.044475 209.702348,271.044475 Z M214.585548,271.660475 L214.585548,267.830075 C214.831948,267.393275 215.537548,266.967675 216.052748,266.967675 C216.187148,266.967675 216.287948,266.978875 216.388748,267.001275 L216.388748,266.138875 C215.649548,266.138875 215.022348,266.553275 214.585548,267.124475 L214.585548,266.250875 L213.745548,266.250875 L213.745548,271.660475 L214.585548,271.660475 Z M218.807948,271.794875 C219.300748,271.794875 219.603148,271.649275 219.815948,271.447675 L219.569548,270.820475 C219.457548,270.943675 219.233548,271.044475 218.998348,271.044475 C218.628748,271.044475 218.449548,270.753275 218.449548,270.350075 L218.449548,266.990075 L219.547148,266.990075 L219.547148,266.250875 L218.449548,266.250875 L218.449548,264.772475 L217.609548,264.772475 L217.609548,266.250875 L216.713548,266.250875 L216.713548,266.990075 L217.609548,266.990075 L217.609548,270.529275 C217.609548,271.335675 218.012748,271.794875 218.807948,271.794875 Z" id="ContactTechSupport" fill="#1F3966" fill-rule="nonzero"></path>
        <g id="verification/dot/trusted/active" transform="translate(89.000000, 118.360475)">
            <g id="Group" transform="translate(3.364706, 3.400000)">
                <rect id="Rectangle-3" stroke="#29CC96" stroke-width="0.8" fill="#F2FFFB" x="0" y="0" width="10.0941176" height="10.2" rx="4.8"></rect>
                <path d="M7.23877195,2.90502333 C6.16206968,4.06088515 5.18146441,5.20129844 4.13500481,6.33986819 L2.81116645,5.20587232 C2.72098078,5.12838938 2.60569707,5.09283795 2.49083591,5.10651175 C2.37597474,5.12018556 2.27090406,5.18217215 2.19858084,5.2788024 C2.04798823,5.4802632 2.07861207,5.77424009 2.2666459,5.93513103 L3.90020755,7.33529878 C4.07420365,7.48433497 4.32560879,7.46883978 4.48216934,7.29883608 C5.65288852,6.04183548 6.70533784,4.80245366 7.85819674,3.56505541 C7.98836983,3.4306043 8.02708524,3.22412623 7.95604055,3.04591988 C7.88499804,2.86771353 7.71866226,2.75512837 7.53829528,2.76287597 C7.42509599,2.76645923 7.31747695,2.81750701 7.23877195,2.90502333 Z" id="Fill-1" fill="#29CC96"></path>
            </g>
        </g>
        <path d="M115.197318,129.660475 L115.197318,126.692475 L117.269318,126.692475 C118.747718,126.692475 119.610118,125.662075 119.610118,124.441275 C119.610118,123.220475 118.770118,122.190075 117.269318,122.190075 L114.267718,122.190075 L114.267718,129.660475 L115.197318,129.660475 Z M117.157318,125.863675 L115.197318,125.863675 L115.197318,123.018875 L117.157318,123.018875 C118.042118,123.018875 118.646918,123.601275 118.646918,124.441275 C118.646918,125.281275 118.042118,125.863675 117.157318,125.863675 Z M122.533318,129.794875 C123.339718,129.794875 124.045318,129.369275 124.459718,128.898875 L124.459718,129.660475 L125.299718,129.660475 L125.299718,124.250875 L124.459718,124.250875 L124.459718,128.226875 C124.146118,128.663675 123.518918,129.044475 122.858118,129.044475 C122.130118,129.044475 121.648518,128.764475 121.648518,127.812475 L121.648518,124.250875 L120.808518,124.250875 L120.808518,128.070075 C120.808518,129.246075 121.402118,129.794875 122.533318,129.794875 Z M127.819718,129.660475 L127.819718,125.830075 C128.066118,125.393275 128.771718,124.967675 129.286918,124.967675 C129.421318,124.967675 129.522118,124.978875 129.622918,125.001275 L129.622918,124.138875 C128.883718,124.138875 128.256518,124.553275 127.819718,125.124475 L127.819718,124.250875 L126.979718,124.250875 L126.979718,129.660475 L127.819718,129.660475 Z M133.061318,129.794875 C134.046918,129.794875 134.629318,129.391675 135.043718,128.854075 L134.483718,128.338875 C134.125318,128.820475 133.666118,129.044475 133.106118,129.044475 C131.952518,129.044475 131.235718,128.148475 131.235718,126.950075 C131.235718,125.751675 131.952518,124.866875 133.106118,124.866875 C133.666118,124.866875 134.125318,125.079675 134.483718,125.572475 L135.043718,125.057275 C134.629318,124.519675 134.046918,124.116475 133.061318,124.116475 C131.448518,124.116475 130.362118,125.348475 130.362118,126.950075 C130.362118,128.562875 131.448518,129.794875 133.061318,129.794875 Z M137.059718,129.660475 L137.059718,125.706875 C137.384518,125.270075 138.011718,124.866875 138.661318,124.866875 C139.389318,124.866875 139.882118,125.146875 139.882118,126.098875 L139.882118,129.660475 L140.722118,129.660475 L140.722118,125.841275 C140.722118,124.665275 140.128518,124.116475 138.997318,124.116475 C138.179718,124.116475 137.440518,124.586875 137.059718,125.034875 L137.059718,122.190075 L136.219718,122.190075 L136.219718,129.660475 L137.059718,129.660475 Z M143.992518,129.794875 C144.720518,129.794875 145.336518,129.537275 145.784518,129.044475 L145.784518,129.660475 L146.624518,129.660475 L146.624518,125.942075 C146.624518,124.631675 145.672518,124.116475 144.530118,124.116475 C143.645318,124.116475 142.950918,124.407675 142.368518,125.012475 L142.760518,125.594875 C143.242118,125.079675 143.768518,124.844475 144.418118,124.844475 C145.202118,124.844475 145.784518,125.258875 145.784518,125.986875 L145.784518,126.961275 C145.347718,126.457275 144.731718,126.222075 143.992518,126.222075 C143.074118,126.222075 142.099718,126.793275 142.099718,128.002875 C142.099718,129.178875 143.074118,129.794875 143.992518,129.794875 Z M144.294918,129.190075 C143.510918,129.190075 142.962118,128.697275 142.962118,128.014075 C142.962118,127.319675 143.510918,126.826875 144.294918,126.826875 C144.888518,126.826875 145.459718,127.050875 145.784518,127.498875 L145.784518,128.518075 C145.459718,128.966075 144.888518,129.190075 144.294918,129.190075 Z M150.018118,129.794875 C151.418118,129.794875 152.146118,129.066875 152.146118,128.159675 C152.146118,126.961275 151.059718,126.692475 150.118918,126.479675 C149.413318,126.311675 148.797318,126.143675 148.797318,125.617275 C148.797318,125.135675 149.256518,124.799675 149.995718,124.799675 C150.690118,124.799675 151.283718,125.090875 151.608518,125.482875 L152.000518,124.900475 C151.563718,124.463675 150.914118,124.116475 149.995718,124.116475 C148.707718,124.116475 147.979718,124.833275 147.979718,125.673275 C147.979718,126.793275 149.021318,127.039675 149.939718,127.252475 C150.667718,127.431675 151.328518,127.622075 151.328518,128.215675 C151.328518,128.742075 150.880518,129.111675 150.051718,129.111675 C149.312518,129.111675 148.629318,128.753275 148.270918,128.338875 L147.834118,128.943675 C148.382918,129.526075 149.133318,129.794875 150.018118,129.794875 Z M155.954118,129.794875 C156.838918,129.794875 157.566918,129.503675 158.104518,128.966075 L157.701318,128.417275 C157.275718,128.854075 156.648518,129.100475 156.032518,129.100475 C154.867718,129.100475 154.150918,128.249275 154.083718,127.230075 L158.462918,127.230075 L158.462918,127.017275 C158.462918,125.393275 157.499718,124.116475 155.864518,124.116475 C154.318918,124.116475 153.198918,125.382075 153.198918,126.950075 C153.198918,128.641275 154.352518,129.794875 155.954118,129.794875 Z M157.634118,126.614075 L154.083718,126.614075 C154.128518,125.785275 154.699718,124.810875 155.853318,124.810875 C157.085318,124.810875 157.622918,125.807675 157.634118,126.614075 Z M165.160518,129.794875 C167.176518,129.794875 167.915718,128.686075 167.915718,127.599675 C167.915718,126.031675 166.526918,125.650875 165.306118,125.326075 C164.354118,125.068475 163.491718,124.844475 163.491718,124.094075 C163.491718,123.388475 164.130118,122.906875 165.026118,122.906875 C165.843718,122.906875 166.627718,123.186875 167.187718,123.802875 L167.747718,123.119675 C167.120518,122.458875 166.235718,122.078075 165.093318,122.078075 C163.626118,122.078075 162.528518,122.918075 162.528518,124.150075 C162.528518,125.617275 163.861318,125.953275 165.059718,126.266875 C166.045318,126.535675 166.952518,126.782075 166.952518,127.678075 C166.952518,128.249275 166.526918,128.966075 165.194118,128.966075 C164.141318,128.966075 163.334918,128.450875 162.842118,127.902075 L162.293318,128.607675 C162.909318,129.302075 163.861318,129.794875 165.160518,129.794875 Z M171.634118,129.794875 C173.280518,129.794875 174.310918,128.518075 174.310918,126.950075 C174.310918,125.382075 173.280518,124.116475 171.634118,124.116475 C169.987718,124.116475 168.957318,125.382075 168.957318,126.950075 C168.957318,128.518075 169.987718,129.794875 171.634118,129.794875 Z M171.634118,129.044475 C170.480518,129.044475 169.830918,128.058875 169.830918,126.950075 C169.830918,125.852475 170.480518,124.866875 171.634118,124.866875 C172.787718,124.866875 173.426118,125.852475 173.426118,126.950075 C173.426118,128.058875 172.787718,129.044475 171.634118,129.044475 Z M176.752518,129.660475 L176.752518,124.990075 L177.850118,124.990075 L177.850118,124.250875 L176.752518,124.250875 L176.752518,123.836475 C176.752518,123.153275 177.054918,122.772475 177.603718,122.772475 C177.794118,122.772475 177.950918,122.817275 178.085318,122.895675 L178.298118,122.268475 C178.085318,122.134075 177.794118,122.078075 177.480518,122.078075 C176.539718,122.078075 175.912518,122.716475 175.912518,123.836475 L175.912518,124.250875 L175.016518,124.250875 L175.016518,124.990075 L175.912518,124.990075 L175.912518,129.660475 L176.752518,129.660475 Z M180.213318,129.794875 C180.706118,129.794875 181.008518,129.649275 181.221318,129.447675 L180.974918,128.820475 C180.862918,128.943675 180.638918,129.044475 180.403718,129.044475 C180.034118,129.044475 179.854918,128.753275 179.854918,128.350075 L179.854918,124.990075 L180.952518,124.990075 L180.952518,124.250875 L179.854918,124.250875 L179.854918,122.772475 L179.014918,122.772475 L179.014918,124.250875 L178.118918,124.250875 L178.118918,124.990075 L179.014918,124.990075 L179.014918,128.529275 C179.014918,129.335675 179.418118,129.794875 180.213318,129.794875 Z M183.998918,129.660475 L185.410118,125.314875 L186.821318,129.660475 L187.661318,129.660475 L189.386118,124.250875 L188.512518,124.250875 L187.190918,128.562875 L185.768518,124.250875 L185.051718,124.250875 L183.629318,128.562875 L182.307718,124.250875 L181.434118,124.250875 L183.158918,129.660475 L183.998918,129.660475 Z M191.950918,129.794875 C192.678918,129.794875 193.294918,129.537275 193.742918,129.044475 L193.742918,129.660475 L194.582918,129.660475 L194.582918,125.942075 C194.582918,124.631675 193.630918,124.116475 192.488518,124.116475 C191.603718,124.116475 190.909318,124.407675 190.326918,125.012475 L190.718918,125.594875 C191.200518,125.079675 191.726918,124.844475 192.376518,124.844475 C193.160518,124.844475 193.742918,125.258875 193.742918,125.986875 L193.742918,126.961275 C193.306118,126.457275 192.690118,126.222075 191.950918,126.222075 C191.032518,126.222075 190.058118,126.793275 190.058118,128.002875 C190.058118,129.178875 191.032518,129.794875 191.950918,129.794875 Z M192.253318,129.190075 C191.469318,129.190075 190.920518,128.697275 190.920518,128.014075 C190.920518,127.319675 191.469318,126.826875 192.253318,126.826875 C192.846918,126.826875 193.418118,127.050875 193.742918,127.498875 L193.742918,128.518075 C193.418118,128.966075 192.846918,129.190075 192.253318,129.190075 Z M197.102918,129.660475 L197.102918,125.830075 C197.349318,125.393275 198.054918,124.967675 198.570118,124.967675 C198.704518,124.967675 198.805318,124.978875 198.906118,125.001275 L198.906118,124.138875 C198.166918,124.138875 197.539718,124.553275 197.102918,125.124475 L197.102918,124.250875 L196.262918,124.250875 L196.262918,129.660475 L197.102918,129.660475 Z M202.400518,129.794875 C203.285318,129.794875 204.013318,129.503675 204.550918,128.966075 L204.147718,128.417275 C203.722118,128.854075 203.094918,129.100475 202.478918,129.100475 C201.314118,129.100475 200.597318,128.249275 200.530118,127.230075 L204.909318,127.230075 L204.909318,127.017275 C204.909318,125.393275 203.946118,124.116475 202.310918,124.116475 C200.765318,124.116475 199.645318,125.382075 199.645318,126.950075 C199.645318,128.641275 200.798918,129.794875 202.400518,129.794875 Z M204.080518,126.614075 L200.530118,126.614075 C200.574918,125.785275 201.146118,124.810875 202.299718,124.810875 C203.531718,124.810875 204.069318,125.807675 204.080518,126.614075 Z" id="PurchaseSoftware" fill="#1F3966" fill-rule="nonzero"></path>
        <g id="expand-accordion" transform="translate(229.000000, 231.000000) rotate(-90.000000) translate(-229.000000, -231.000000) translate(222.000000, 224.000000)">
            <mask id="mask-8" fill="white">
                <use xlink:href="#path-7"></use>
            </mask>
            <use id="-Icon-小olor" fill="#001C4D" fill-rule="evenodd" xlink:href="#path-7"></use>
        </g>
    </g>
</svg>