<?xml version="1.0" encoding="UTF-8"?>
<svg width="500px" height="330px" viewBox="0 0 500 330" version="1.1" xmlns="http://www.w3.org/2000/svg" xmlns:xlink="http://www.w3.org/1999/xlink">
    <title>Sales Engineering </title>
    <defs>
        <rect id="path-1" x="204" y="24.360475" width="253" height="236" rx="2.23999996"></rect>
        <filter x="-1.5%" y="-1.2%" width="103.0%" height="103.2%" filterUnits="objectBoundingBox" id="filter-2">
            <feMorphology radius="0.279999995" operator="dilate" in="SourceAlpha" result="shadowSpreadOuter1"></feMorphology>
            <feOffset dx="0" dy="1" in="shadowSpreadOuter1" result="shadowOffsetOuter1"></feOffset>
            <feGaussianBlur stdDeviation="1" in="shadowOffsetOuter1" result="shadowBlurOuter1"></feGaussianBlur>
            <feComposite in="shadowBlurOuter1" in2="SourceAlpha" operator="out" result="shadowBlurOuter1"></feComposite>
            <feColorMatrix values="0 0 0 0 0   0 0 0 0 0   0 0 0 0 0  0 0 0 0.5 0" type="matrix" in="shadowBlurOuter1"></feColorMatrix>
        </filter>
        <path d="M1.875,4.875 C2.08125,4.875 2.248875,5.0415 2.25,5.248125 L2.25,5.248125 L2.254875,6.214875 L3.484875,4.984875 C3.6315,4.83825 3.8685,4.83825 4.015125,4.984875 C4.16175,5.1315 4.16175,5.3685 4.015125,5.515125 L4.015125,5.515125 L2.780625,6.749625 L3.75,6.75 C3.957375,6.75 4.125,6.918 4.125,7.125375 C4.124625,7.332375 3.957,7.5 3.75,7.5 L3.75,7.5 L3.749625,7.5 L1.884,7.498875 C1.67775,7.498875 1.5105,7.332 1.509375,7.12575 L1.509375,7.12575 L1.49999436,5.251875 C1.498875,5.044875 1.666125,4.876125 1.873125,4.875 L1.873125,4.875 Z M5.251725,1.50015 L7.1256,1.509525 C7.33185,1.51065 7.498725,1.6779 7.498725,1.88415 L7.498725,1.88415 L7.49985063,3.749775 C7.500225,3.956775 7.332225,4.12515 7.125225,4.12515 L7.125225,4.12515 C6.91785,4.12515 6.750225,3.95715 6.74985,3.750525 L6.74985,3.750525 L6.7491,2.78115 L5.514975,4.015275 C5.44185,4.0884 5.34585,4.12515 5.24985,4.12515 C5.154225,4.12515 5.058225,4.0884 4.984725,4.015275 C4.838475,3.86865 4.838475,3.631275 4.984725,3.485025 L4.984725,3.485025 L6.214725,2.255025 L5.24835,2.25015 C5.040975,2.249025 4.873725,2.0799 4.87484436,1.873275 C4.875975,1.66665 5.043975,1.50015 5.24985,1.50015 L5.24985,1.50015 L5.251725,1.50015 Z" id="path-3"></path>
        <rect id="path-5" x="74" y="102.360475" width="174" height="201" rx="4"></rect>
        <filter x="-2.2%" y="-1.4%" width="104.5%" height="103.9%" filterUnits="objectBoundingBox" id="filter-6">
            <feMorphology radius="0.4" operator="dilate" in="SourceAlpha" result="shadowSpreadOuter1"></feMorphology>
            <feOffset dx="0" dy="1" in="shadowSpreadOuter1" result="shadowOffsetOuter1"></feOffset>
            <feGaussianBlur stdDeviation="1" in="shadowOffsetOuter1" result="shadowBlurOuter1"></feGaussianBlur>
            <feComposite in="shadowBlurOuter1" in2="SourceAlpha" operator="out" result="shadowBlurOuter1"></feComposite>
            <feColorMatrix values="0 0 0 0 0   0 0 0 0 0   0 0 0 0 0  0 0 0 0.5 0" type="matrix" in="shadowBlurOuter1"></feColorMatrix>
        </filter>
        <polygon id="path-7" points="3.64000006 5.32000003 7 8.67999997 10.3599999 5.32000003"></polygon>
    </defs>
    <g id="Sales-Engineering-" stroke="none" stroke-width="1" fill="none" fill-rule="evenodd">
        <path d="M354.092422,0 C277.320194,0.225455336 226.647541,58.1541543 178.509445,73.2299427 C106.323904,95.8359393 37.0596883,72.0862693 7.29817054,154.738195 C2.30105814,168.615996 0.019544079,182.984675 0,197.26727 L0,197.653619 C0.065832687,242.298899 22.1856155,286.072077 52.4470502,311.439902 C68.2283797,324.670031 89.2557514,329.990777 111.88368,330 L112.01226,330 C146.865524,329.983603 185.499025,317.384749 214.647476,301.685884 C271.097977,271.280158 309.671817,283.797028 348.466813,294.710091 C416.799085,313.932208 505.410911,247.762092 499.741071,153.048305 C494.296502,62.0811763 452.541091,10.9786501 373.867944,1.20618605 C367.407083,0.403770011 361.112861,0.0184463457 354.994536,0 L354.092422,0 Z" id="Fill-1-Copy" fill="#F2F7FF"></path>
        <g id="Rectangle">
            <use fill="black" fill-opacity="1" filter="url(#filter-2)" xlink:href="#path-1"></use>
            <use stroke="#F5F7FA" stroke-width="0.55999999" fill="#FFFFFF" fill-rule="evenodd" xlink:href="#path-1"></use>
        </g>
        <path d="M206,24.360475 L455,24.360475 C456.104569,24.360475 457,25.2559055 457,26.360475 L457,26.360475 L457,26.360475 L204,26.360475 C204,25.2559055 204.895431,24.360475 206,24.360475 Z" id="Rectangle-7-Copy-6" fill="#4BE4B4"></path>
        <g id="verification/button/trusted/active" transform="translate(212.000000, 32.360475)">
            <g id="verification-icon-trusted-copy-12">
                <g id="Group-15" fill="#F2FFFB" stroke="#4BE4B4" stroke-width="0.55999999">
                    <rect id="Rectangle-3" x="0.279999995" y="0.279999995" width="13.44" height="13.44" rx="2.23999996"></rect>
                </g>
                <path d="M10.0397886,3.98728692 C8.54646028,5.57376393 7.18641334,7.13903708 5.73502999,8.70177987 L3.89893716,7.14531496 C3.77385447,7.03896581 3.61396214,6.99016973 3.45465586,7.0089377 C3.29534958,7.02770567 3.14962217,7.11278531 3.04931375,7.24541505 C2.84044988,7.52192988 2.8829235,7.92542757 3.14371635,8.14625828 L5.40937877,10.0680572 C5.65070203,10.2726166 5.99938748,10.2513487 6.21652857,10.0180103 C7.8402533,8.29271537 9.29994408,6.59160306 10.8988976,4.8932133 C11.0794407,4.70867257 11.1331369,4.42527129 11.0346017,4.18067434 C10.9360695,3.93607739 10.7053707,3.78154874 10.4552114,3.7921827 C10.2982101,3.7971009 10.1489482,3.86716649 10.0397886,3.98728692 Z" id="Fill-1" fill="#4BE4B4"></path>
            </g>
        </g>
        <g id="close" transform="translate(442.000000, 35.360475)" fill="#B8BFCC">
            <path d="M5.02875,4.5 L6.64125,2.89125 C6.78829581,2.74420419 6.78829581,2.50579581 6.64125,2.35875 C6.49420419,2.21170419 6.25579581,2.21170419 6.10875,2.35875 L4.5,3.97125 L2.89125,2.35875 C2.74420418,2.21170419 2.50579582,2.21170419 2.35875,2.35875 C2.21170419,2.50579582 2.21170419,2.74420418 2.35875,2.89125 L3.97125,4.5 L2.35875,6.10875 C2.28775776,6.17916247 2.24782563,6.27501092 2.24782563,6.375 C2.24782563,6.47498908 2.28775776,6.57083753 2.35875,6.64125 C2.42916247,6.71224224 2.52501092,6.75217437 2.625,6.75217437 C2.72498908,6.75217437 2.82083753,6.71224224 2.89125,6.64125 L4.5,5.02875 L6.10875,6.64125 C6.17916247,6.71224224 6.27501092,6.75217437 6.375,6.75217437 C6.47498908,6.75217437 6.57083753,6.71224224 6.64125,6.64125 C6.71224224,6.57083753 6.75217437,6.47498908 6.75217437,6.375 C6.75217437,6.27501092 6.71224224,6.17916247 6.64125,6.10875 L5.02875,4.5 Z" id="-Icon-小olor"></path>
        </g>
        <g id="expand-window" transform="translate(429.000000, 35.360475)">
            <mask id="mask-4" fill="white">
                <use xlink:href="#path-3"></use>
            </mask>
            <use id="-Icon-小olor" fill="#B8BFCC" fill-rule="evenodd" xlink:href="#path-3"></use>
        </g>
        <path d="M421,31.360475 L421,45.360475 L421,31.360475 Z" id="Path-2" stroke="#B8BFCC" stroke-width="0.55999999"></path>
        <g id="globe" transform="translate(406.000000, 35.360475)" fill="#B8BFCC">
            <path d="M8.25,4.5 C8.25,3.50543816 7.85491185,2.55161099 7.15165043,1.84834957 C6.44838901,1.14508815 5.49456184,0.75 4.5,0.75 C2.42893219,0.75 0.75,2.42893219 0.75,4.5 C0.75,6.57106781 2.42893219,8.25 4.5,8.25 C6.57106781,8.25 8.25,6.57106781 8.25,4.5 Z M7.47375,4.125 L6.375,4.125 C6.31315234,3.24305352 6.0109749,2.39488165 5.50125,1.6725 C6.56921252,2.0517964 7.33227495,3.00054701 7.47375,4.125 Z M3.405,4.875 L5.625,4.875 C5.52903112,5.80146887 5.13414427,6.67153623 4.5,7.35375 C3.86627643,6.67438658 3.48044693,5.80098487 3.405,4.875 L3.405,4.875 Z M3.405,4.125 C3.49233211,3.20318507 3.87659587,2.33464367 4.5,1.65 C5.13926682,2.32729603 5.5350483,3.19801528 5.625,4.125 L3.405,4.125 Z M3.54,1.66125 C3.0275811,2.3876335 2.72055012,3.23877 2.65125,4.125 L1.52625,4.125 C1.67078837,2.98608776 2.45262785,2.02953554 3.54,1.66125 Z M1.52625,4.875 L2.65125,4.875 C2.71300924,5.76047499 3.0179548,6.6117273 3.5325,7.335 C2.44916128,6.96495666 1.67085708,6.01062478 1.52625,4.875 Z M5.4825,7.33125 C5.99565302,6.60775325 6.30399818,5.75915627 6.375,4.875 L7.48125,4.875 C7.33658452,6.00734451 6.56180804,6.95946195 5.4825,7.33125 L5.4825,7.33125 Z" id="-Icon-小olor"></path>
        </g>
        <path d="M204,235.360475 L457,235.360475 L457,258.120475 C457,259.357593 455.997118,260.360475 454.76,260.360475 L206.24,260.360475 C205.002882,260.360475 204,259.357593 204,258.120475 L204,235.360475 L204,235.360475 Z" id="Rectangle" stroke="#F5F7FA" stroke-width="0.55999999" fill="#F5F7FA"></path>
        <g id="icon-resize" transform="translate(206.000000, 250.360475)" fill="#8F9CB3">
            <path d="M5.69599992,6.71999989 L4.77866659,6.71999989 L6.71999989,4.77866659 L6.71999989,5.69599992 L5.69599992,6.71999989 Z M3.30666661,6.71999989 L2.38933329,6.71999989 L6.71999989,2.38933329 L6.71999989,3.30666661 L3.30666661,6.71999989 Z M0.917333316,6.71999989 L0,6.71999989 L6.71999989,0 L6.71999989,0.917333316 L0.917333316,6.71999989 Z" id="Shape" transform="translate(3.360000, 3.360000) rotate(90.000000) translate(-3.360000, -3.360000) "></path>
        </g>
        <g id="tag" transform="translate(220.000000, 242.360475)" fill="#B8BFCC">
            <path d="M4.67506187,9.625 C4.56946319,9.625 4.46386451,9.584575 4.38342802,9.5041375 L1.49596411,6.6166375 C1.33467863,6.45535 1.33467863,6.19465 1.49596411,6.0333625 L6.03340739,1.4958625 C6.11054393,1.4183125 6.21531762,1.375 6.32504125,1.375 L9.21250516,1.375 C9.4406148,1.375 9.625,1.5593875 9.625,1.7875 L9.625,4.675 C9.625,4.784725 9.58168804,4.8895 9.50413901,4.9666375 L4.96669573,9.5041375 C4.88625923,9.584575 4.78066055,9.625 4.67506187,9.625 Z M8.80001031,4.504225 L8.80001031,2.2 L6.49581411,2.2 L2.37086568,6.325 L4.67506187,8.629225 L8.80001031,4.504225 Z M7.54251057,2.75748349 C7.73581794,2.56417396 8.04923079,2.56417396 8.24253791,2.75748349 C8.43584503,2.95079328 8.43584503,3.26421005 8.24253791,3.45751958 C8.04923055,3.65082912 7.73581769,3.65082912 7.54251057,3.45751958 C7.34920345,3.2642098 7.34920345,2.95079303 7.54251057,2.75748349 L7.54251057,2.75748349 Z" id="-Icon-小olor"></path>
        </g>
        <rect id="Rectangle-12-[4-8]" fill="#FFFFFF" x="241" y="241.360475" width="51" height="11" rx="5.5"></rect>
        <path d="M235.6704,82.360475 L235.6704,79.893275 L237.408,79.893275 C238.7136,79.893275 239.4528,78.990875 239.4528,77.925275 C239.4528,76.859675 238.7232,75.957275 237.408,75.957275 L234.7104,75.957275 L234.7104,82.360475 L235.6704,82.360475 Z M237.2832,79.048475 L235.6704,79.048475 L235.6704,76.802075 L237.2832,76.802075 C237.9744,76.802075 238.464,77.253275 238.464,77.925275 C238.464,78.597275 237.9744,79.048475 237.2832,79.048475 Z M241.2864,82.360475 L241.2864,79.134875 C241.488,78.789275 242.0736,78.462875 242.5056,78.462875 C242.6208,78.462875 242.7168,78.472475 242.8032,78.491675 L242.8032,77.618075 C242.1888,77.618075 241.6416,77.973275 241.2864,78.434075 L241.2864,77.723675 L240.4224,77.723675 L240.4224,82.360475 L241.2864,82.360475 Z M245.7216,82.475675 C247.1712,82.475675 248.064,81.381275 248.064,80.037275 C248.064,78.702875 247.1712,77.608475 245.7216,77.608475 C244.2816,77.608475 243.3792,78.702875 243.3792,80.037275 C243.3792,81.381275 244.2816,82.475675 245.7216,82.475675 Z M245.7216,81.707675 C244.8,81.707675 244.2816,80.920475 244.2816,80.037275 C244.2816,79.163675 244.8,78.376475 245.7216,78.376475 C246.6528,78.376475 247.1616,79.163675 247.1616,80.037275 C247.1616,80.920475 246.6528,81.707675 245.7216,81.707675 Z M250.944,82.475675 C251.5584,82.475675 252.1152,82.158875 252.4608,81.698075 L252.4608,82.360475 L253.3248,82.360475 L253.3248,75.957275 L252.4608,75.957275 L252.4608,78.395675 C252.0864,77.896475 251.5392,77.608475 250.944,77.608475 C249.7344,77.608475 248.8704,78.558875 248.8704,80.046875 C248.8704,81.563675 249.7344,82.475675 250.944,82.475675 Z M251.1744,81.707675 C250.3104,81.707675 249.7728,81.006875 249.7728,80.046875 C249.7728,79.077275 250.3104,78.376475 251.1744,78.376475 C251.7024,78.376475 252.2208,78.683675 252.4608,79.058075 L252.4608,81.035675 C252.2208,81.410075 251.7024,81.707675 251.1744,81.707675 Z M256.1856,82.475675 C256.896,82.475675 257.4816,82.110875 257.8368,81.726875 L257.8368,82.360475 L258.7008,82.360475 L258.7008,77.723675 L257.8368,77.723675 L257.8368,81.054875 C257.5776,81.400475 257.088,81.707675 256.5504,81.707675 C255.9552,81.707675 255.5712,81.477275 255.5712,80.709275 L255.5712,77.723675 L254.7072,77.723675 L254.7072,80.997275 C254.7072,81.976475 255.1968,82.475675 256.1856,82.475675 Z M262.1472,82.475675 C263.0208,82.475675 263.5488,82.110875 263.8848,81.659675 L263.3088,81.131675 C263.0304,81.515675 262.656,81.707675 262.1856,81.707675 C261.2736,81.707675 260.688,80.997275 260.688,80.037275 C260.688,79.077275 261.2736,78.376475 262.1856,78.376475 C262.656,78.376475 263.0304,78.558875 263.3088,78.952475 L263.8848,78.424475 C263.5488,77.973275 263.0208,77.608475 262.1472,77.608475 C260.7456,77.608475 259.7856,78.645275 259.7856,80.037275 C259.7856,81.429275 260.7456,82.475675 262.1472,82.475675 Z M266.112,82.475675 C266.5632,82.475675 266.832,82.350875 267.0144,82.178075 L266.7936,81.525275 C266.7072,81.621275 266.5248,81.707675 266.3232,81.707675 C266.0256,81.707675 265.872,81.467675 265.872,81.141275 L265.872,78.482075 L266.8128,78.482075 L266.8128,77.723675 L265.872,77.723675 L265.872,76.456475 L265.008,76.456475 L265.008,77.723675 L264.24,77.723675 L264.24,78.482075 L265.008,78.482075 L265.008,81.333275 C265.008,82.062875 265.3824,82.475675 266.112,82.475675 Z M271.2288,82.360475 L271.2288,79.518875 L274.5024,79.518875 L274.5024,78.674075 L271.2288,78.674075 L271.2288,76.802075 L274.5696,76.802075 L274.5696,75.957275 L270.2688,75.957275 L270.2688,82.360475 L271.2288,82.360475 Z M277.6992,82.475675 C278.448,82.475675 279.1008,82.235675 279.5616,81.784475 L279.1584,81.218075 C278.8128,81.573275 278.2752,81.765275 277.7856,81.765275 C276.8544,81.765275 276.2784,81.112475 276.2112,80.325275 L279.8784,80.325275 L279.8784,80.114075 C279.8784,78.693275 279.0144,77.608475 277.6224,77.608475 C276.2688,77.608475 275.2992,78.693275 275.2992,80.037275 C275.2992,81.496475 276.3168,82.475675 277.6992,82.475675 Z M279.0336,79.701275 L276.2016,79.701275 C276.2496,79.067675 276.6912,78.318875 277.6224,78.318875 C278.6016,78.318875 279.0144,79.086875 279.0336,79.701275 Z M282.3072,82.475675 C282.9312,82.475675 283.4592,82.254875 283.824,81.851675 L283.824,82.360475 L284.688,82.360475 L284.688,79.230875 C284.688,78.050075 283.8336,77.608475 282.8256,77.608475 C282.0768,77.608475 281.4432,77.858075 280.9248,78.366875 L281.2992,78.962075 C281.712,78.549275 282.1632,78.347675 282.6912,78.347675 C283.3536,78.347675 283.824,78.693275 283.824,79.269275 L283.824,80.037275 C283.4688,79.624475 282.9312,79.422875 282.3072,79.422875 C281.5296,79.422875 280.6944,79.883675 280.6944,80.939675 C280.6944,81.957275 281.5392,82.475675 282.3072,82.475675 Z M282.6336,81.870875 C282.0096,81.870875 281.568,81.496475 281.568,80.949275 C281.568,80.402075 282.0096,80.027675 282.6336,80.027675 C283.1136,80.027675 283.5648,80.210075 283.824,80.555675 L283.824,81.342875 C283.5648,81.688475 283.1136,81.870875 282.6336,81.870875 Z M287.3472,82.475675 C287.7984,82.475675 288.0672,82.350875 288.2496,82.178075 L288.0288,81.525275 C287.9424,81.621275 287.76,81.707675 287.5584,81.707675 C287.2608,81.707675 287.1072,81.467675 287.1072,81.141275 L287.1072,78.482075 L288.048,78.482075 L288.048,77.723675 L287.1072,77.723675 L287.1072,76.456475 L286.2432,76.456475 L286.2432,77.723675 L285.4752,77.723675 L285.4752,78.482075 L286.2432,78.482075 L286.2432,81.333275 C286.2432,82.062875 286.6176,82.475675 287.3472,82.475675 Z M290.4864,82.475675 C291.1968,82.475675 291.7824,82.110875 292.1376,81.726875 L292.1376,82.360475 L293.0016,82.360475 L293.0016,77.723675 L292.1376,77.723675 L292.1376,81.054875 C291.8784,81.400475 291.3888,81.707675 290.8512,81.707675 C290.256,81.707675 289.872,81.477275 289.872,80.709275 L289.872,77.723675 L289.008,77.723675 L289.008,80.997275 C289.008,81.976475 289.4976,82.475675 290.4864,82.475675 Z M295.2384,82.360475 L295.2384,79.134875 C295.44,78.789275 296.0256,78.462875 296.4576,78.462875 C296.5728,78.462875 296.6688,78.472475 296.7552,78.491675 L296.7552,77.618075 C296.1408,77.618075 295.5936,77.973275 295.2384,78.434075 L295.2384,77.723675 L294.3744,77.723675 L294.3744,82.360475 L295.2384,82.360475 Z M299.7312,82.475675 C300.48,82.475675 301.1328,82.235675 301.5936,81.784475 L301.1904,81.218075 C300.8448,81.573275 300.3072,81.765275 299.8176,81.765275 C298.8864,81.765275 298.3104,81.112475 298.2432,80.325275 L301.9104,80.325275 L301.9104,80.114075 C301.9104,78.693275 301.0464,77.608475 299.6544,77.608475 C298.3008,77.608475 297.3312,78.693275 297.3312,80.037275 C297.3312,81.496475 298.3488,82.475675 299.7312,82.475675 Z M301.0656,79.701275 L298.2336,79.701275 C298.2816,79.067675 298.7232,78.318875 299.6544,78.318875 C300.6336,78.318875 301.0464,79.086875 301.0656,79.701275 Z M304.5216,82.475675 C305.7408,82.475675 306.3936,81.851675 306.3936,81.054875 C306.3936,79.989275 305.4336,79.768475 304.6272,79.586075 C304.0512,79.451675 303.552,79.317275 303.552,78.914075 C303.552,78.539675 303.9168,78.309275 304.5024,78.309275 C305.088,78.309275 305.6064,78.549275 305.8752,78.875675 L306.2592,78.270875 C305.8656,77.896475 305.2896,77.608475 304.4928,77.608475 C303.36,77.608475 302.7264,78.242075 302.7264,78.981275 C302.7264,79.9271277 303.553542,80.1664628 304.309942,80.3441251 L304.4352,80.373275 C305.0304,80.507675 305.5584,80.661275 305.5584,81.122075 C305.5584,81.515675 305.2128,81.784475 304.56,81.784475 C303.936,81.784475 303.3216,81.467675 303.0048,81.122075 L302.592,81.755675 C303.0624,82.235675 303.744,82.475675 304.5216,82.475675 Z" id="ProductFeatures" fill="#090B0E" fill-rule="nonzero"></path>
        <path d="M236.8224,43.475675 C238.5504,43.475675 239.184,42.525275 239.184,41.594075 C239.184,40.250075 237.9936,39.923675 236.9472,39.645275 C236.1312,39.424475 235.392,39.232475 235.392,38.589275 C235.392,37.984475 235.9392,37.571675 236.7072,37.571675 C237.408,37.571675 238.08,37.811675 238.56,38.339675 L239.04,37.754075 C238.5024,37.187675 237.744,36.861275 236.7648,36.861275 C235.5072,36.861275 234.5664,37.581275 234.5664,38.637275 C234.5664,39.894875 235.7088,40.182875 236.736,40.451675 C237.5808,40.682075 238.3584,40.893275 238.3584,41.661275 C238.3584,42.150875 237.9936,42.765275 236.8512,42.765275 C235.9488,42.765275 235.2576,42.323675 234.8352,41.853275 L234.3648,42.458075 C234.8928,43.053275 235.7088,43.475675 236.8224,43.475675 Z M241.7088,43.475675 C242.3328,43.475675 242.8608,43.254875 243.2448,42.832475 L243.2448,43.360475 L243.9648,43.360475 L243.9648,40.173275 C243.9648,39.050075 243.1488,38.608475 242.1696,38.608475 C241.4112,38.608475 240.816,38.858075 240.3168,39.376475 L240.6528,39.875675 C241.0656,39.434075 241.5168,39.232475 242.0736,39.232475 C242.7456,39.232475 243.2448,39.587675 243.2448,40.211675 L243.2448,41.046875 C242.8704,40.614875 242.3424,40.413275 241.7088,40.413275 C240.9216,40.413275 240.0864,40.902875 240.0864,41.939675 C240.0864,42.947675 240.9216,43.475675 241.7088,43.475675 Z M241.968,42.957275 C241.296,42.957275 240.8256,42.534875 240.8256,41.949275 C240.8256,41.354075 241.296,40.931675 241.968,40.931675 C242.4768,40.931675 242.9664,41.123675 243.2448,41.507675 L243.2448,42.381275 C242.9664,42.765275 242.4768,42.957275 241.968,42.957275 Z M246.1248,43.360475 L246.1248,36.957275 L245.4048,36.957275 L245.4048,43.360475 L246.1248,43.360475 Z M249.6576,43.475675 C250.416,43.475675 251.04,43.226075 251.5008,42.765275 L251.1552,42.294875 C250.7904,42.669275 250.2528,42.880475 249.7248,42.880475 C248.7264,42.880475 248.112,42.150875 248.0544,41.277275 L251.808,41.277275 L251.808,41.094875 C251.808,39.702875 250.9824,38.608475 249.5808,38.608475 C248.256,38.608475 247.296,39.693275 247.296,41.037275 C247.296,42.486875 248.2848,43.475675 249.6576,43.475675 Z M251.0976,40.749275 L248.0544,40.749275 C248.0928,40.038875 248.5824,39.203675 249.5712,39.203675 C250.6272,39.203675 251.088,40.058075 251.0976,40.749275 Z M254.4384,43.475675 C255.6384,43.475675 256.2624,42.851675 256.2624,42.074075 C256.2624,41.046875 255.3312,40.816475 254.5248,40.634075 C253.92,40.490075 253.392,40.346075 253.392,39.894875 C253.392,39.482075 253.7856,39.194075 254.4192,39.194075 C255.0144,39.194075 255.5232,39.443675 255.8016,39.779675 L256.1376,39.280475 C255.7632,38.906075 255.2064,38.608475 254.4192,38.608475 C253.3152,38.608475 252.6912,39.222875 252.6912,39.942875 C252.6912,40.902875 253.584,41.114075 254.3712,41.296475 C254.9952,41.450075 255.5616,41.613275 255.5616,42.122075 C255.5616,42.573275 255.1776,42.890075 254.4672,42.890075 C253.8336,42.890075 253.248,42.582875 252.9408,42.227675 L252.5664,42.746075 C253.0368,43.245275 253.68,43.475675 254.4384,43.475675 Z M264.1344,43.360475 L264.1344,42.650075 L260.736,42.650075 L260.736,40.442075 L264.0672,40.442075 L264.0672,39.731675 L260.736,39.731675 L260.736,37.667675 L264.1344,37.667675 L264.1344,36.957275 L259.9392,36.957275 L259.9392,43.360475 L264.1344,43.360475 Z M266.0928,43.360475 L266.0928,39.971675 C266.3616,39.597275 266.8992,39.251675 267.4656,39.251675 C268.0896,39.251675 268.5024,39.510875 268.5024,40.326875 L268.5024,43.360475 L269.2224,43.360475 L269.2224,40.106075 C269.2224,39.098075 268.7136,38.608475 267.744,38.608475 C267.0528,38.608475 266.4192,39.011675 266.0928,39.395675 L266.0928,38.723675 L265.3728,38.723675 L265.3728,43.360475 L266.0928,43.360475 Z M272.5248,45.242075 C273.6576,45.242075 274.7328,44.762075 274.7328,43.226075 L274.7328,38.723675 L274.0128,38.723675 L274.0128,39.424475 C273.6384,38.915675 273.0816,38.608475 272.4576,38.608475 C271.2384,38.608475 270.3936,39.530075 270.3936,41.018075 C270.3936,42.515675 271.248,43.418075 272.4576,43.418075 C273.1104,43.418075 273.6768,43.062875 274.0128,42.592475 L274.0128,43.254875 C274.0128,44.272475 273.2928,44.646875 272.5248,44.646875 C271.8624,44.646875 271.4016,44.474075 271.0176,44.013275 L270.6528,44.550875 C271.2,45.088475 271.7376,45.242075 272.5248,45.242075 Z M272.6304,42.784475 C271.6992,42.784475 271.1424,42.035675 271.1424,41.018075 C271.1424,39.990875 271.6992,39.251675 272.6304,39.251675 C273.2064,39.251675 273.7632,39.597275 274.0128,40.000475 L274.0128,42.026075 C273.7632,42.429275 273.2064,42.784475 272.6304,42.784475 Z M276.528,37.946075 C276.7968,37.946075 277.0176,37.725275 277.0176,37.456475 C277.0176,37.187675 276.7968,36.976475 276.528,36.976475 C276.2688,36.976475 276.048,37.187675 276.048,37.456475 C276.048,37.725275 276.2688,37.946075 276.528,37.946075 Z M276.8928,43.360475 L276.8928,38.723675 L276.1728,38.723675 L276.1728,43.360475 L276.8928,43.360475 Z M279.0528,43.360475 L279.0528,39.971675 C279.3216,39.597275 279.8592,39.251675 280.4256,39.251675 C281.0496,39.251675 281.4624,39.510875 281.4624,40.326875 L281.4624,43.360475 L282.1824,43.360475 L282.1824,40.106075 C282.1824,39.098075 281.6736,38.608475 280.704,38.608475 C280.0128,38.608475 279.3792,39.011675 279.0528,39.395675 L279.0528,38.723675 L278.3328,38.723675 L278.3328,43.360475 L279.0528,43.360475 Z M285.7152,43.475675 C286.4736,43.475675 287.0976,43.226075 287.5584,42.765275 L287.2128,42.294875 C286.848,42.669275 286.3104,42.880475 285.7824,42.880475 C284.784,42.880475 284.1696,42.150875 284.112,41.277275 L287.8656,41.277275 L287.8656,41.094875 C287.8656,39.702875 287.04,38.608475 285.6384,38.608475 C284.3136,38.608475 283.3536,39.693275 283.3536,41.037275 C283.3536,42.486875 284.3424,43.475675 285.7152,43.475675 Z M287.1552,40.749275 L284.112,40.749275 C284.1504,40.038875 284.64,39.203675 285.6288,39.203675 C286.6848,39.203675 287.1456,40.058075 287.1552,40.749275 Z M291.12,43.475675 C291.8784,43.475675 292.5024,43.226075 292.9632,42.765275 L292.6176,42.294875 C292.2528,42.669275 291.7152,42.880475 291.1872,42.880475 C290.1888,42.880475 289.5744,42.150875 289.5168,41.277275 L293.2704,41.277275 L293.2704,41.094875 C293.2704,39.702875 292.4448,38.608475 291.0432,38.608475 C289.7184,38.608475 288.7584,39.693275 288.7584,41.037275 C288.7584,42.486875 289.7472,43.475675 291.12,43.475675 Z M292.56,40.749275 L289.5168,40.749275 C289.5552,40.038875 290.0448,39.203675 291.0336,39.203675 C292.0896,39.203675 292.5504,40.058075 292.56,40.749275 Z M295.152,43.360475 L295.152,40.077275 C295.3632,39.702875 295.968,39.338075 296.4096,39.338075 C296.5248,39.338075 296.6112,39.347675 296.6976,39.366875 L296.6976,38.627675 C296.064,38.627675 295.5264,38.982875 295.152,39.472475 L295.152,38.723675 L294.432,38.723675 L294.432,43.360475 L295.152,43.360475 Z M297.9552,37.946075 C298.224,37.946075 298.4448,37.725275 298.4448,37.456475 C298.4448,37.187675 298.224,36.976475 297.9552,36.976475 C297.696,36.976475 297.4752,37.187675 297.4752,37.456475 C297.4752,37.725275 297.696,37.946075 297.9552,37.946075 Z M298.32,43.360475 L298.32,38.723675 L297.6,38.723675 L297.6,43.360475 L298.32,43.360475 Z M300.48,43.360475 L300.48,39.971675 C300.7488,39.597275 301.2864,39.251675 301.8528,39.251675 C302.4768,39.251675 302.8896,39.510875 302.8896,40.326875 L302.8896,43.360475 L303.6096,43.360475 L303.6096,40.106075 C303.6096,39.098075 303.1008,38.608475 302.1312,38.608475 C301.44,38.608475 300.8064,39.011675 300.48,39.395675 L300.48,38.723675 L299.76,38.723675 L299.76,43.360475 L300.48,43.360475 Z M306.912,45.242075 C308.0448,45.242075 309.12,44.762075 309.12,43.226075 L309.12,38.723675 L308.4,38.723675 L308.4,39.424475 C308.0256,38.915675 307.4688,38.608475 306.8448,38.608475 C305.6256,38.608475 304.7808,39.530075 304.7808,41.018075 C304.7808,42.515675 305.6352,43.418075 306.8448,43.418075 C307.4976,43.418075 308.064,43.062875 308.4,42.592475 L308.4,43.254875 C308.4,44.272475 307.68,44.646875 306.912,44.646875 C306.2496,44.646875 305.7888,44.474075 305.4048,44.013275 L305.04,44.550875 C305.5872,45.088475 306.1248,45.242075 306.912,45.242075 Z M307.0176,42.784475 C306.0864,42.784475 305.5296,42.035675 305.5296,41.018075 C305.5296,39.990875 306.0864,39.251675 307.0176,39.251675 C307.5936,39.251675 308.1504,39.597275 308.4,40.000475 L308.4,42.026075 C308.1504,42.429275 307.5936,42.784475 307.0176,42.784475 Z" id="SalesEngineering" fill="#4BE4B4" fill-rule="nonzero"></path>
        <rect id="Rectangle" fill="#F5F7FA" x="234" y="95.360475" width="197" height="4"></rect>
        <rect id="Rectangle-Copy" fill="#F5F7FA" x="234" y="104.360475" width="197" height="4"></rect>
        <rect id="Rectangle-Copy-2" fill="#F5F7FA" x="234" y="113.360475" width="197" height="4"></rect>
        <rect id="Rectangle-Copy-3" fill="#F5F7FA" x="234" y="129.360475" width="177" height="88" rx="2.4"></rect>
        <line x1="204" y1="55.860475" x2="457" y2="55.860475" id="Line-Copy-53" stroke="#DADEE6" stroke-width="0.55999999"></line>
        <g id="Rectangle">
            <use fill="black" fill-opacity="1" filter="url(#filter-6)" xlink:href="#path-5"></use>
            <use stroke="#F5F7FA" stroke-width="0.8" fill="#FFFFFF" fill-rule="evenodd" xlink:href="#path-5"></use>
        </g>
        <rect id="Rectangle-Copy-7" fill="#F5F7FA" x="81" y="214.360475" width="159.157895" height="34" rx="2.4"></rect>
        <g id="verification/dot/trusted/selected" transform="translate(88.578947, 222.860475)">
            <g id="Group" transform="translate(3.368421, 3.400000)">
                <rect id="Rectangle-3" stroke="#29CC96" stroke-width="0.8" fill="#29CC96" x="0" y="0" width="10.1052632" height="10.2" rx="4.8"></rect>
                <path d="M7.2467647,2.90502333 C6.16887359,4.06088515 5.18718557,5.20129844 4.13957052,6.33986819 L2.81427043,5.20587232 C2.72398518,5.12838938 2.60857417,5.09283795 2.49358618,5.10651175 C2.37859819,5.12018556 2.27341149,5.18217215 2.20100842,5.2788024 C2.05024954,5.4802632 2.08090719,5.77424009 2.26914864,5.93513103 L3.904514,7.33529878 C4.07870222,7.48433497 4.33038495,7.46883978 4.48711836,7.29883608 C5.6591302,6.04183548 6.71274159,4.80245366 7.86687344,3.56505541 C7.99719026,3.4306043 8.03594841,3.22412623 7.96482528,3.04591988 C7.89370434,2.86771353 7.72718489,2.75512837 7.54661875,2.76287597 C7.43329447,2.76645923 7.3255566,2.81750701 7.2467647,2.90502333 Z" id="Fill-1" fill="#FFFFFF"></path>
            </g>
        </g>
        <path d="M115.3296,235 L115.3296,232.3232 L117.2336,232.3232 C118.8464,232.3232 119.7424,231.2368 119.7424,229.9376 C119.7424,228.6272 118.8576,227.5296 117.2336,227.5296 L113.7392,227.5296 L113.7392,235 L115.3296,235 Z M117.0208,230.9568 L115.3296,230.9568 L115.3296,228.896 L117.0208,228.896 C117.648,228.896 118.1184,229.3104 118.1184,229.9264 C118.1184,230.5536 117.648,230.9568 117.0208,230.9568 Z M122.1168,235 L122.1168,231.4272 C122.352,231.08 122.9792,230.8112 123.4496,230.8112 C123.6064,230.8112 123.7408,230.8336 123.8416,230.856 L123.8416,229.4672 C123.1696,229.4672 122.4976,229.848 122.1168,230.3296 L122.1168,229.5904 L120.6944,229.5904 L120.6944,235 L122.1168,235 Z M127.2352,235.1344 C129.0272,235.1344 130.1024,233.8352 130.1024,232.2896 C130.1024,230.7552 129.0272,229.456 127.2352,229.456 C125.4544,229.456 124.3792,230.7552 124.3792,232.2896 C124.3792,233.8352 125.4544,235.1344 127.2352,235.1344 Z M127.2352,233.8688 C126.3504,233.8688 125.8576,233.1408 125.8576,232.2896 C125.8576,231.4496 126.3504,230.7216 127.2352,230.7216 C128.12,230.7216 128.624,231.4496 128.624,232.2896 C128.624,233.1408 128.12,233.8688 127.2352,233.8688 Z M133.2048,235.1344 C133.8544,235.1344 134.448,234.8432 134.8736,234.3056 L134.8736,235 L136.3072,235 L136.3072,227.5296 L134.8736,227.5296 L134.8736,230.2848 C134.448,229.736 133.8432,229.456 133.2048,229.456 C131.8272,229.456 130.808,230.5312 130.808,232.3008 C130.808,234.104 131.8384,235.1344 133.2048,235.1344 Z M133.6416,233.8688 C132.8352,233.8688 132.2752,233.2304 132.2752,232.3008 C132.2752,231.36 132.8352,230.7216 133.6416,230.7216 C134.1232,230.7216 134.6384,230.9792 134.8736,231.3376 L134.8736,233.2528 C134.6384,233.6112 134.1232,233.8688 133.6416,233.8688 Z M139.4656,235.1344 C140.3504,235.1344 141,234.7312 141.3696,234.3168 L141.3696,235 L142.792,235 L142.792,229.5904 L141.3696,229.5904 L141.3696,233.2528 C141.1232,233.5664 140.6864,233.8688 140.1376,233.8688 C139.5328,233.8688 139.1408,233.6224 139.1408,232.872 L139.1408,229.5904 L137.7184,229.5904 L137.7184,233.432 C137.7184,234.4848 138.2784,235.1344 139.4656,235.1344 Z M146.7232,235.1344 C147.832,235.1344 148.504,234.6528 148.8624,234.1488 L147.9328,233.2864 C147.6752,233.6448 147.2832,233.8688 146.7904,233.8688 C145.928,233.8688 145.3232,233.2304 145.3232,232.2896 C145.3232,231.3488 145.928,230.7216 146.7904,230.7216 C147.2832,230.7216 147.6752,230.9232 147.9328,231.304 L148.8624,230.4304 C148.504,229.9376 147.832,229.456 146.7232,229.456 C145.0544,229.456 143.856,230.632 143.856,232.2896 C143.856,233.9584 145.0544,235.1344 146.7232,235.1344 Z M151.6064,235.1344 C152.2,235.1344 152.5808,234.9776 152.7936,234.7872 L152.4912,233.712 C152.4128,233.7904 152.2112,233.8688 151.9984,233.8688 C151.6848,233.8688 151.5056,233.6112 151.5056,233.2752 L151.5056,230.8336 L152.6032,230.8336 L152.6032,229.5904 L151.5056,229.5904 L151.5056,228.112 L150.072,228.112 L150.072,229.5904 L149.176,229.5904 L149.176,230.8336 L150.072,230.8336 L150.072,233.656 C150.072,234.6192 150.6096,235.1344 151.6064,235.1344 Z M158.0688,235 L158.0688,231.8864 L161.6864,231.8864 L161.6864,230.52 L158.0688,230.52 L158.0688,228.896 L161.7648,228.896 L161.7648,227.5296 L156.4784,227.5296 L156.4784,235 L158.0688,235 Z M165.3824,235.1344 C166.2224,235.1344 167.0736,234.8768 167.6112,234.384 L166.984,233.4656 C166.6368,233.8016 166.0432,234.0032 165.5392,234.0032 C164.6208,234.0032 164.072,233.432 163.9824,232.7488 L168.0032,232.7488 L168.0032,232.4352 C168.0032,230.6656 166.9056,229.456 165.2928,229.456 C163.6464,229.456 162.4928,230.7216 162.4928,232.2896 C162.4928,234.0256 163.736,235.1344 165.3824,235.1344 Z M166.6256,231.7856 L163.96,231.7856 C164.0272,231.248 164.408,230.5872 165.2928,230.5872 C166.2336,230.5872 166.592,231.2704 166.6256,231.7856 Z M170.568,235.1344 C171.2736,235.1344 171.912,234.8768 172.2816,234.44 L172.2816,235 L173.704,235 L173.704,231.5056 C173.704,229.9488 172.5728,229.456 171.3408,229.456 C170.4896,229.456 169.6384,229.7248 168.9776,230.3072 L169.5152,231.2592 C169.9744,230.8336 170.512,230.6208 171.0944,230.6208 C171.8112,230.6208 172.2816,230.9792 172.2816,231.528 L172.2816,232.2784 C171.9232,231.8416 171.2848,231.6176 170.568,231.6176 C169.7056,231.6176 168.6864,232.0768 168.6864,233.3424 C168.6864,234.552 169.7056,235.1344 170.568,235.1344 Z M171.1392,234.1712 C170.5792,234.1712 170.12,233.88 170.12,233.376 C170.12,232.8496 170.5792,232.5584 171.1392,232.5584 C171.5984,232.5584 172.0464,232.7152 172.2816,233.0288 L172.2816,233.7008 C172.0464,234.0144 171.5984,234.1712 171.1392,234.1712 Z M176.9296,235.1344 C177.5232,235.1344 177.904,234.9776 178.1168,234.7872 L177.8144,233.712 C177.736,233.7904 177.5344,233.8688 177.3216,233.8688 C177.008,233.8688 176.8288,233.6112 176.8288,233.2752 L176.8288,230.8336 L177.9264,230.8336 L177.9264,229.5904 L176.8288,229.5904 L176.8288,228.112 L175.3952,228.112 L175.3952,229.5904 L174.4992,229.5904 L174.4992,230.8336 L175.3952,230.8336 L175.3952,233.656 C175.3952,234.6192 175.9328,235.1344 176.9296,235.1344 Z M180.648,235.1344 C181.5328,235.1344 182.1824,234.7312 182.552,234.3168 L182.552,235 L183.9744,235 L183.9744,229.5904 L182.552,229.5904 L182.552,233.2528 C182.3056,233.5664 181.8688,233.8688 181.32,233.8688 C180.7152,233.8688 180.3232,233.6224 180.3232,232.872 L180.3232,229.5904 L178.9008,229.5904 L178.9008,233.432 C178.9008,234.4848 179.4608,235.1344 180.648,235.1344 Z M186.808,235 L186.808,231.4272 C187.0432,231.08 187.6704,230.8112 188.1408,230.8112 C188.2976,230.8112 188.432,230.8336 188.5328,230.856 L188.5328,229.4672 C187.8608,229.4672 187.1888,229.848 186.808,230.3296 L186.808,229.5904 L185.3856,229.5904 L185.3856,235 L186.808,235 Z M191.96,235.1344 C192.8,235.1344 193.6512,234.8768 194.1888,234.384 L193.5616,233.4656 C193.2144,233.8016 192.6208,234.0032 192.1168,234.0032 C191.1984,234.0032 190.6496,233.432 190.56,232.7488 L194.5808,232.7488 L194.5808,232.4352 C194.5808,230.6656 193.4832,229.456 191.8704,229.456 C190.224,229.456 189.0704,230.7216 189.0704,232.2896 C189.0704,234.0256 190.3136,235.1344 191.96,235.1344 Z M193.2032,231.7856 L190.5376,231.7856 C190.6048,231.248 190.9856,230.5872 191.8704,230.5872 C192.8112,230.5872 193.1696,231.2704 193.2032,231.7856 Z M197.56,235.1344 C199.0608,235.1344 199.9008,234.384 199.9008,233.3984 C199.9008,232.0544 198.6576,231.808 197.728,231.6288 C197.1232,231.5056 196.6976,231.3824 196.6976,231.0464 C196.6976,230.7328 197.0336,230.5424 197.5488,230.5424 C198.2096,230.5424 198.8256,230.8224 199.1504,231.1696 L199.7216,230.1952 C199.184,229.7696 198.456,229.456 197.5376,229.456 C196.1152,229.456 195.32,230.2512 195.32,231.1584 C195.32,232.4464 196.5184,232.6704 197.448,232.8496 C198.064,232.9728 198.5344,233.1072 198.5344,233.488 C198.5344,233.824 198.2432,234.0368 197.6272,234.0368 C196.9552,234.0368 196.1488,233.6672 195.7568,233.2976 L195.1408,234.2944 C195.712,234.8208 196.6192,235.1344 197.56,235.1344 Z" id="ProductFeatures" fill="#090B0E" fill-rule="nonzero"></path>
        <g id="verification/dot/trusted/active" transform="translate(89.000000, 152.360475)">
            <g id="Group" transform="translate(3.364948, 3.400000)">
                <rect id="Rectangle-3" stroke="#29CC96" stroke-width="0.8" fill="#F2FFFB" x="0" y="0" width="10.0948454" height="10.2" rx="4.8"></rect>
                <path d="M7.23929381,2.90502333 C6.16251392,4.06088515 5.18183795,5.20129844 4.13530292,6.33986819 L2.81136912,5.20587232 C2.72117695,5.12838938 2.60588492,5.09283795 2.49101548,5.10651175 C2.37614603,5.12018556 2.27106777,5.18217215 2.19873934,5.2788024 C2.04813588,5.4802632 2.07876192,5.77424009 2.26680931,5.93513103 L3.90048873,7.33529878 C4.07449737,7.48433497 4.32592063,7.46883978 4.48249247,7.29883608 C5.65329605,6.04183548 6.70582124,4.80245366 7.85876326,3.56505541 C7.98894573,3.4306043 8.02766393,3.22412623 7.95661412,3.04591988 C7.8855665,2.86771353 7.71921872,2.75512837 7.53883873,2.76287597 C7.42563128,2.76645923 7.31800448,2.81750701 7.23929381,2.90502333 Z" id="Fill-1" fill="#29CC96"></path>
            </g>
        </g>
        <path d="M115.199076,163.660475 L115.199076,160.692475 L117.271076,160.692475 C118.749476,160.692475 119.611876,159.662075 119.611876,158.441275 C119.611876,157.220475 118.771876,156.190075 117.271076,156.190075 L114.269476,156.190075 L114.269476,163.660475 L115.199076,163.660475 Z M117.159076,159.863675 L115.199076,159.863675 L115.199076,157.018875 L117.159076,157.018875 C118.043876,157.018875 118.648676,157.601275 118.648676,158.441275 C118.648676,159.281275 118.043876,159.863675 117.159076,159.863675 Z M124.248676,163.794875 C126.455076,163.794875 127.955876,162.137275 127.955876,159.930875 C127.955876,157.724475 126.455076,156.066875 124.248676,156.066875 C122.031076,156.066875 120.541476,157.724475 120.541476,159.930875 C120.541476,162.137275 122.031076,163.794875 124.248676,163.794875 Z M124.248676,162.966075 C122.568676,162.966075 121.504676,161.666875 121.504676,159.930875 C121.504676,158.183675 122.568676,156.895675 124.248676,156.895675 C125.917476,156.895675 126.992676,158.183675 126.992676,159.930875 C126.992676,161.666875 125.917476,162.966075 124.248676,162.966075 Z M132.917476,163.794875 C134.272676,163.794875 135.168676,163.167675 135.795876,162.316475 L135.000676,161.879675 C134.575076,162.518075 133.802276,162.966075 132.917476,162.966075 C131.315876,162.966075 130.072676,161.700475 130.072676,159.930875 C130.072676,158.150075 131.315876,156.895675 132.917476,156.895675 C133.802276,156.895675 134.575076,157.354875 135.000676,157.982075 L135.784676,157.545275 C135.191076,156.705275 134.272676,156.066875 132.917476,156.066875 C130.800676,156.066875 129.109476,157.634875 129.109476,159.930875 C129.109476,162.226875 130.800676,163.794875 132.917476,163.794875 Z M140.802276,163.660475 L140.802276,160.692475 L142.874276,160.692475 C144.352676,160.692475 145.215076,159.662075 145.215076,158.441275 C145.215076,157.220475 144.375076,156.190075 142.874276,156.190075 L139.872676,156.190075 L139.872676,163.660475 L140.802276,163.660475 Z M142.762276,159.863675 L140.802276,159.863675 L140.802276,157.018875 L142.762276,157.018875 C143.647076,157.018875 144.251876,157.601275 144.251876,158.441275 C144.251876,159.281275 143.647076,159.863675 142.762276,159.863675 Z M147.253476,163.660475 L147.253476,159.830075 C147.499876,159.393275 148.205476,158.967675 148.720676,158.967675 C148.855076,158.967675 148.955876,158.978875 149.056676,159.001275 L149.056676,158.138875 C148.317476,158.138875 147.690276,158.553275 147.253476,159.124475 L147.253476,158.250875 L146.413476,158.250875 L146.413476,163.660475 L147.253476,163.660475 Z M152.472676,163.794875 C154.119076,163.794875 155.149476,162.518075 155.149476,160.950075 C155.149476,159.382075 154.119076,158.116475 152.472676,158.116475 C150.826276,158.116475 149.795876,159.382075 149.795876,160.950075 C149.795876,162.518075 150.826276,163.794875 152.472676,163.794875 Z M152.472676,163.044475 C151.319076,163.044475 150.669476,162.058875 150.669476,160.950075 C150.669476,159.852475 151.319076,158.866875 152.472676,158.866875 C153.626276,158.866875 154.264676,159.852475 154.264676,160.950075 C154.264676,162.058875 153.626276,163.044475 152.472676,163.044475 Z M158.901476,163.794875 C159.887076,163.794875 160.469476,163.391675 160.883876,162.854075 L160.323876,162.338875 C159.965476,162.820475 159.506276,163.044475 158.946276,163.044475 C157.792676,163.044475 157.075876,162.148475 157.075876,160.950075 C157.075876,159.751675 157.792676,158.866875 158.946276,158.866875 C159.506276,158.866875 159.965476,159.079675 160.323876,159.572475 L160.883876,159.057275 C160.469476,158.519675 159.887076,158.116475 158.901476,158.116475 C157.288676,158.116475 156.202276,159.348475 156.202276,160.950075 C156.202276,162.562875 157.288676,163.794875 158.901476,163.794875 Z M164.501476,163.794875 C165.386276,163.794875 166.114276,163.503675 166.651876,162.966075 L166.248676,162.417275 C165.823076,162.854075 165.195876,163.100475 164.579876,163.100475 C163.415076,163.100475 162.698276,162.249275 162.631076,161.230075 L167.010276,161.230075 L167.010276,161.017275 C167.010276,159.393275 166.047076,158.116475 164.411876,158.116475 C162.866276,158.116475 161.746276,159.382075 161.746276,160.950075 C161.746276,162.641275 162.899876,163.794875 164.501476,163.794875 Z M166.181476,160.614075 L162.631076,160.614075 C162.675876,159.785275 163.247076,158.810875 164.400676,158.810875 C165.632676,158.810875 166.170276,159.807675 166.181476,160.614075 Z M170.079076,163.794875 C171.479076,163.794875 172.207076,163.066875 172.207076,162.159675 C172.207076,160.961275 171.120676,160.692475 170.179876,160.479675 C169.474276,160.311675 168.858276,160.143675 168.858276,159.617275 C168.858276,159.135675 169.317476,158.799675 170.056676,158.799675 C170.751076,158.799675 171.344676,159.090875 171.669476,159.482875 L172.061476,158.900475 C171.624676,158.463675 170.975076,158.116475 170.056676,158.116475 C168.768676,158.116475 168.040676,158.833275 168.040676,159.673275 C168.040676,160.793275 169.082276,161.039675 170.000676,161.252475 C170.728676,161.431675 171.389476,161.622075 171.389476,162.215675 C171.389476,162.742075 170.941476,163.111675 170.112676,163.111675 C169.373476,163.111675 168.690276,162.753275 168.331876,162.338875 L167.895076,162.943675 C168.443876,163.526075 169.194276,163.794875 170.079076,163.794875 Z M175.287076,163.794875 C176.687076,163.794875 177.415076,163.066875 177.415076,162.159675 C177.415076,160.961275 176.328676,160.692475 175.387876,160.479675 C174.682276,160.311675 174.066276,160.143675 174.066276,159.617275 C174.066276,159.135675 174.525476,158.799675 175.264676,158.799675 C175.959076,158.799675 176.552676,159.090875 176.877476,159.482875 L177.269476,158.900475 C176.832676,158.463675 176.183076,158.116475 175.264676,158.116475 C173.976676,158.116475 173.248676,158.833275 173.248676,159.673275 C173.248676,160.793275 174.290276,161.039675 175.208676,161.252475 C175.936676,161.431675 176.597476,161.622075 176.597476,162.215675 C176.597476,162.742075 176.149476,163.111675 175.320676,163.111675 C174.581476,163.111675 173.898276,162.753275 173.539876,162.338875 L173.103076,162.943675 C173.651876,163.526075 174.402276,163.794875 175.287076,163.794875 Z" id="POCProcess" fill="#090B0E" fill-rule="nonzero"></path>
        <g id="verification/dot/trusted/active" transform="translate(89.000000, 186.360475)">
            <g id="Group" transform="translate(3.368421, 3.400000)">
                <rect id="Rectangle-3" stroke="#29CC96" stroke-width="0.8" fill="#F2FFFB" x="0" y="0" width="10.1052632" height="10.2" rx="4.8"></rect>
                <path d="M7.2467647,2.90502333 C6.16887359,4.06088515 5.18718557,5.20129844 4.13957052,6.33986819 L2.81427043,5.20587232 C2.72398518,5.12838938 2.60857417,5.09283795 2.49358618,5.10651175 C2.37859819,5.12018556 2.27341149,5.18217215 2.20100842,5.2788024 C2.05024954,5.4802632 2.08090719,5.77424009 2.26914864,5.93513103 L3.904514,7.33529878 C4.07870222,7.48433497 4.33038495,7.46883978 4.48711836,7.29883608 C5.6591302,6.04183548 6.71274159,4.80245366 7.86687344,3.56505541 C7.99719026,3.4306043 8.03594841,3.22412623 7.96482528,3.04591988 C7.89370434,2.86771353 7.72718489,2.75512837 7.54661875,2.76287597 C7.43329447,2.76645923 7.3255566,2.81750701 7.2467647,2.90502333 Z" id="Fill-1" fill="#29CC96"></path>
            </g>
        </g>
        <path d="M117.800253,197.794875 C119.155453,197.794875 120.051453,197.167675 120.678653,196.316475 L119.883453,195.879675 C119.457853,196.518075 118.685053,196.966075 117.800253,196.966075 C116.198653,196.966075 114.955453,195.700475 114.955453,193.930875 C114.955453,192.150075 116.198653,190.895675 117.800253,190.895675 C118.685053,190.895675 119.457853,191.354875 119.883453,191.982075 L120.667453,191.545275 C120.073853,190.705275 119.155453,190.066875 117.800253,190.066875 C115.683453,190.066875 113.992253,191.634875 113.992253,193.930875 C113.992253,196.226875 115.683453,197.794875 117.800253,197.794875 Z M124.195453,197.794875 C125.841853,197.794875 126.872253,196.518075 126.872253,194.950075 C126.872253,193.382075 125.841853,192.116475 124.195453,192.116475 C122.549053,192.116475 121.518653,193.382075 121.518653,194.950075 C121.518653,196.518075 122.549053,197.794875 124.195453,197.794875 Z M124.195453,197.044475 C123.041853,197.044475 122.392253,196.058875 122.392253,194.950075 C122.392253,193.852475 123.041853,192.866875 124.195453,192.866875 C125.349053,192.866875 125.987453,193.852475 125.987453,194.950075 C125.987453,196.058875 125.349053,197.044475 124.195453,197.044475 Z M129.078653,197.660475 L129.078653,193.706875 C129.369853,193.270075 129.952253,192.866875 130.501053,192.866875 C131.206653,192.866875 131.497853,193.303675 131.497853,193.986875 L131.497853,197.660475 L132.337853,197.660475 L132.337853,193.695675 C132.617853,193.270075 133.211453,192.866875 133.771453,192.866875 C134.465853,192.866875 134.768253,193.303675 134.768253,193.986875 L134.768253,197.660475 L135.608253,197.660475 L135.608253,193.751675 C135.608253,192.665275 135.081853,192.116475 134.096253,192.116475 C133.312253,192.116475 132.584253,192.631675 132.281853,193.124475 C132.125053,192.564475 131.654653,192.116475 130.825853,192.116475 C130.030653,192.116475 129.302653,192.687675 129.078653,193.034875 L129.078653,192.250875 L128.238653,192.250875 L128.238653,197.660475 L129.078653,197.660475 Z M138.128253,199.721275 L138.128253,196.842875 C138.565053,197.447675 139.214653,197.794875 139.953853,197.794875 C141.376253,197.794875 142.361853,196.697275 142.361853,194.950075 C142.361853,193.191675 141.376253,192.116475 139.953853,192.116475 C139.192253,192.116475 138.520253,192.508475 138.128253,193.057275 L138.128253,192.250875 L137.288253,192.250875 L137.288253,199.721275 L138.128253,199.721275 Z M139.741053,197.044475 C139.080253,197.044475 138.419453,196.641275 138.128253,196.170875 L138.128253,193.729275 C138.419453,193.258875 139.080253,192.866875 139.741053,192.866875 C140.827453,192.866875 141.477053,193.751675 141.477053,194.950075 C141.477053,196.148475 140.827453,197.044475 139.741053,197.044475 Z M144.557053,197.660475 L144.557053,190.190075 L143.717053,190.190075 L143.717053,197.660475 L144.557053,197.660475 Z M146.651453,191.343675 C146.965053,191.343675 147.222653,191.086075 147.222653,190.772475 C147.222653,190.458875 146.965053,190.212475 146.651453,190.212475 C146.349053,190.212475 146.091453,190.458875 146.091453,190.772475 C146.091453,191.086075 146.349053,191.343675 146.651453,191.343675 Z M147.077053,197.660475 L147.077053,192.250875 L146.237053,192.250875 L146.237053,197.660475 L147.077053,197.660475 Z M150.347453,197.794875 C151.075453,197.794875 151.691453,197.537275 152.139453,197.044475 L152.139453,197.660475 L152.979453,197.660475 L152.979453,193.942075 C152.979453,192.631675 152.027453,192.116475 150.885053,192.116475 C150.000253,192.116475 149.305853,192.407675 148.723453,193.012475 L149.115453,193.594875 C149.597053,193.079675 150.123453,192.844475 150.773053,192.844475 C151.557053,192.844475 152.139453,193.258875 152.139453,193.986875 L152.139453,194.961275 C151.702653,194.457275 151.086653,194.222075 150.347453,194.222075 C149.429053,194.222075 148.454653,194.793275 148.454653,196.002875 C148.454653,197.178875 149.429053,197.794875 150.347453,197.794875 Z M150.649853,197.190075 C149.865853,197.190075 149.317053,196.697275 149.317053,196.014075 C149.317053,195.319675 149.865853,194.826875 150.649853,194.826875 C151.243453,194.826875 151.814653,195.050875 152.139453,195.498875 L152.139453,196.518075 C151.814653,196.966075 151.243453,197.190075 150.649853,197.190075 Z M155.499453,197.660475 L155.499453,193.706875 C155.813053,193.270075 156.440253,192.866875 157.101053,192.866875 C157.829053,192.866875 158.310653,193.169275 158.310653,194.121275 L158.310653,197.660475 L159.150653,197.660475 L159.150653,193.863675 C159.150653,192.687675 158.557053,192.116475 157.425853,192.116475 C156.619453,192.116475 155.880253,192.586875 155.499453,193.034875 L155.499453,192.250875 L154.659453,192.250875 L154.659453,197.660475 L155.499453,197.660475 Z M163.216253,197.794875 C164.201853,197.794875 164.784253,197.391675 165.198653,196.854075 L164.638653,196.338875 C164.280253,196.820475 163.821053,197.044475 163.261053,197.044475 C162.107453,197.044475 161.390653,196.148475 161.390653,194.950075 C161.390653,193.751675 162.107453,192.866875 163.261053,192.866875 C163.821053,192.866875 164.280253,193.079675 164.638653,193.572475 L165.198653,193.057275 C164.784253,192.519675 164.201853,192.116475 163.216253,192.116475 C161.603453,192.116475 160.517053,193.348475 160.517053,194.950075 C160.517053,196.562875 161.603453,197.794875 163.216253,197.794875 Z M168.816253,197.794875 C169.701053,197.794875 170.429053,197.503675 170.966653,196.966075 L170.563453,196.417275 C170.137853,196.854075 169.510653,197.100475 168.894653,197.100475 C167.729853,197.100475 167.013053,196.249275 166.945853,195.230075 L171.325053,195.230075 L171.325053,195.017275 C171.325053,193.393275 170.361853,192.116475 168.726653,192.116475 C167.181053,192.116475 166.061053,193.382075 166.061053,194.950075 C166.061053,196.641275 167.214653,197.794875 168.816253,197.794875 Z M170.496253,194.614075 L166.945853,194.614075 C166.990653,193.785275 167.561853,192.810875 168.715453,192.810875 C169.947453,192.810875 170.485053,193.807675 170.496253,194.614075 Z" id="Compliance" fill="#090B0E" fill-rule="nonzero"></path>
        <g id="verification/dot/trusted/active" transform="translate(88.000000, 260.360475)">
            <g id="Group" transform="translate(3.383607, 3.400000)">
                <rect id="Rectangle-3" stroke="#29CC96" stroke-width="0.8" fill="#F2FFFB" x="0" y="0" width="10.1508197" height="10.2" rx="4.8"></rect>
                <path d="M7.27943454,2.90502333 C6.19668408,4.06088515 5.21057042,5.20129844 4.15823252,6.33986819 L2.82695771,5.20587232 C2.73626544,5.12838938 2.62033414,5.09283795 2.50482776,5.10651175 C2.38932138,5.12018556 2.28366048,5.18217215 2.210931,5.2788024 C2.05949247,5.4802632 2.09028833,5.77424009 2.27937841,5.93513103 L3.92211632,7.33529878 C4.09708981,7.48433497 4.34990717,7.46883978 4.50734718,7.29883608 C5.68464268,6.04183548 6.74300395,4.80245366 7.90233885,3.56505541 C8.03324316,3.4306043 8.07217605,3.22412623 8.00073228,3.04591988 C7.92929071,2.86771353 7.76202056,2.75512837 7.58064039,2.76287597 C7.46680523,2.76645923 7.35858165,2.81750701 7.27943454,2.90502333 Z" id="Fill-1" fill="#29CC96"></path>
            </g>
        </g>
        <path d="M115.823948,271.794875 C117.839948,271.794875 118.579148,270.686075 118.579148,269.599675 C118.579148,268.031675 117.190348,267.650875 115.969548,267.326075 C115.017548,267.068475 114.155148,266.844475 114.155148,266.094075 C114.155148,265.388475 114.793548,264.906875 115.689548,264.906875 C116.507148,264.906875 117.291148,265.186875 117.851148,265.802875 L118.411148,265.119675 C117.783948,264.458875 116.899148,264.078075 115.756748,264.078075 C114.289548,264.078075 113.191948,264.918075 113.191948,266.150075 C113.191948,267.617275 114.524748,267.953275 115.723148,268.266875 C116.708748,268.535675 117.615948,268.782075 117.615948,269.678075 C117.615948,270.249275 117.190348,270.966075 115.857548,270.966075 C114.804748,270.966075 113.998348,270.450875 113.505548,269.902075 L112.956748,270.607675 C113.572748,271.302075 114.524748,271.794875 115.823948,271.794875 Z M121.659148,271.794875 C122.465548,271.794875 123.171148,271.369275 123.585548,270.898875 L123.585548,271.660475 L124.425548,271.660475 L124.425548,266.250875 L123.585548,266.250875 L123.585548,270.226875 C123.271948,270.663675 122.644748,271.044475 121.983948,271.044475 C121.255948,271.044475 120.774348,270.764475 120.774348,269.812475 L120.774348,266.250875 L119.934348,266.250875 L119.934348,270.070075 C119.934348,271.246075 120.527948,271.794875 121.659148,271.794875 Z M128.771148,271.794875 C130.182348,271.794875 131.179148,270.719675 131.179148,268.961275 C131.179148,267.236475 130.182348,266.116475 128.771148,266.116475 C128.031948,266.116475 127.382348,266.474875 126.945548,267.068475 L126.945548,264.190075 L126.105548,264.190075 L126.105548,271.660475 L126.945548,271.660475 L126.945548,270.854075 C127.348748,271.402875 128.009548,271.794875 128.771148,271.794875 Z M128.558348,271.044475 C127.897548,271.044475 127.236748,270.663675 126.945548,270.193275 L126.945548,267.740475 C127.236748,267.270075 127.897548,266.866875 128.558348,266.866875 C129.655948,266.866875 130.305548,267.762875 130.305548,268.961275 C130.305548,270.159675 129.655948,271.044475 128.558348,271.044475 Z M133.385548,271.660475 L133.385548,267.706875 C133.676748,267.270075 134.259148,266.866875 134.807948,266.866875 C135.513548,266.866875 135.804748,267.303675 135.804748,267.986875 L135.804748,271.660475 L136.644748,271.660475 L136.644748,267.695675 C136.924748,267.270075 137.518348,266.866875 138.078348,266.866875 C138.772748,266.866875 139.075148,267.303675 139.075148,267.986875 L139.075148,271.660475 L139.915148,271.660475 L139.915148,267.751675 C139.915148,266.665275 139.388748,266.116475 138.403148,266.116475 C137.619148,266.116475 136.891148,266.631675 136.588748,267.124475 C136.431948,266.564475 135.961548,266.116475 135.132748,266.116475 C134.337548,266.116475 133.609548,266.687675 133.385548,267.034875 L133.385548,266.250875 L132.545548,266.250875 L132.545548,271.660475 L133.385548,271.660475 Z M142.009548,265.343675 C142.323148,265.343675 142.580748,265.086075 142.580748,264.772475 C142.580748,264.458875 142.323148,264.212475 142.009548,264.212475 C141.707148,264.212475 141.449548,264.458875 141.449548,264.772475 C141.449548,265.086075 141.707148,265.343675 142.009548,265.343675 Z M142.435148,271.660475 L142.435148,266.250875 L141.595148,266.250875 L141.595148,271.660475 L142.435148,271.660475 Z M145.481548,271.794875 C145.974348,271.794875 146.276748,271.649275 146.489548,271.447675 L146.243148,270.820475 C146.131148,270.943675 145.907148,271.044475 145.671948,271.044475 C145.302348,271.044475 145.123148,270.753275 145.123148,270.350075 L145.123148,266.990075 L146.220748,266.990075 L146.220748,266.250875 L145.123148,266.250875 L145.123148,264.772475 L144.283148,264.772475 L144.283148,266.250875 L143.387148,266.250875 L143.387148,266.990075 L144.283148,266.990075 L144.283148,270.529275 C144.283148,271.335675 144.686348,271.794875 145.481548,271.794875 Z M152.750348,271.794875 C154.766348,271.794875 155.505548,270.686075 155.505548,269.599675 C155.505548,268.031675 154.116748,267.650875 152.895948,267.326075 C151.943948,267.068475 151.081548,266.844475 151.081548,266.094075 C151.081548,265.388475 151.719948,264.906875 152.615948,264.906875 C153.433548,264.906875 154.217548,265.186875 154.777548,265.802875 L155.337548,265.119675 C154.710348,264.458875 153.825548,264.078075 152.683148,264.078075 C151.215948,264.078075 150.118348,264.918075 150.118348,266.150075 C150.118348,267.617275 151.451148,267.953275 152.649548,268.266875 C153.635148,268.535675 154.542348,268.782075 154.542348,269.678075 C154.542348,270.249275 154.116748,270.966075 152.783948,270.966075 C151.731148,270.966075 150.924748,270.450875 150.431948,269.902075 L149.883148,270.607675 C150.499148,271.302075 151.451148,271.794875 152.750348,271.794875 Z M158.585548,271.794875 C159.391948,271.794875 160.097548,271.369275 160.511948,270.898875 L160.511948,271.660475 L161.351948,271.660475 L161.351948,266.250875 L160.511948,266.250875 L160.511948,270.226875 C160.198348,270.663675 159.571148,271.044475 158.910348,271.044475 C158.182348,271.044475 157.700748,270.764475 157.700748,269.812475 L157.700748,266.250875 L156.860748,266.250875 L156.860748,270.070075 C156.860748,271.246075 157.454348,271.794875 158.585548,271.794875 Z M163.871948,273.721275 L163.871948,270.842875 C164.308748,271.447675 164.958348,271.794875 165.697548,271.794875 C167.119948,271.794875 168.105548,270.697275 168.105548,268.950075 C168.105548,267.191675 167.119948,266.116475 165.697548,266.116475 C164.935948,266.116475 164.263948,266.508475 163.871948,267.057275 L163.871948,266.250875 L163.031948,266.250875 L163.031948,273.721275 L163.871948,273.721275 Z M165.484748,271.044475 C164.823948,271.044475 164.163148,270.641275 163.871948,270.170875 L163.871948,267.729275 C164.163148,267.258875 164.823948,266.866875 165.484748,266.866875 C166.571148,266.866875 167.220748,267.751675 167.220748,268.950075 C167.220748,270.148475 166.571148,271.044475 165.484748,271.044475 Z M170.300748,273.721275 L170.300748,270.842875 C170.737548,271.447675 171.387148,271.794875 172.126348,271.794875 C173.548748,271.794875 174.534348,270.697275 174.534348,268.950075 C174.534348,267.191675 173.548748,266.116475 172.126348,266.116475 C171.364748,266.116475 170.692748,266.508475 170.300748,267.057275 L170.300748,266.250875 L169.460748,266.250875 L169.460748,273.721275 L170.300748,273.721275 Z M171.913548,271.044475 C171.252748,271.044475 170.591948,270.641275 170.300748,270.170875 L170.300748,267.729275 C170.591948,267.258875 171.252748,266.866875 171.913548,266.866875 C172.999948,266.866875 173.649548,267.751675 173.649548,268.950075 C173.649548,270.148475 172.999948,271.044475 171.913548,271.044475 Z M178.252748,271.794875 C179.899148,271.794875 180.929548,270.518075 180.929548,268.950075 C180.929548,267.382075 179.899148,266.116475 178.252748,266.116475 C176.606348,266.116475 175.575948,267.382075 175.575948,268.950075 C175.575948,270.518075 176.606348,271.794875 178.252748,271.794875 Z M178.252748,271.044475 C177.099148,271.044475 176.449548,270.058875 176.449548,268.950075 C176.449548,267.852475 177.099148,266.866875 178.252748,266.866875 C179.406348,266.866875 180.044748,267.852475 180.044748,268.950075 C180.044748,270.058875 179.406348,271.044475 178.252748,271.044475 Z M183.135948,271.660475 L183.135948,267.830075 C183.382348,267.393275 184.087948,266.967675 184.603148,266.967675 C184.737548,266.967675 184.838348,266.978875 184.939148,267.001275 L184.939148,266.138875 C184.199948,266.138875 183.572748,266.553275 183.135948,267.124475 L183.135948,266.250875 L182.295948,266.250875 L182.295948,271.660475 L183.135948,271.660475 Z M187.358348,271.794875 C187.851148,271.794875 188.153548,271.649275 188.366348,271.447675 L188.119948,270.820475 C188.007948,270.943675 187.783948,271.044475 187.548748,271.044475 C187.179148,271.044475 186.999948,270.753275 186.999948,270.350075 L186.999948,266.990075 L188.097548,266.990075 L188.097548,266.250875 L186.999948,266.250875 L186.999948,264.772475 L186.159948,264.772475 L186.159948,266.250875 L185.263948,266.250875 L185.263948,266.990075 L186.159948,266.990075 L186.159948,270.529275 C186.159948,271.335675 186.563148,271.794875 187.358348,271.794875 Z M194.985548,271.660475 L194.985548,265.018875 L197.359948,265.018875 L197.359948,264.190075 L191.692748,264.190075 L191.692748,265.018875 L194.055948,265.018875 L194.055948,271.660475 L194.985548,271.660475 Z M198.972748,265.343675 C199.286348,265.343675 199.543948,265.086075 199.543948,264.772475 C199.543948,264.458875 199.286348,264.212475 198.972748,264.212475 C198.670348,264.212475 198.412748,264.458875 198.412748,264.772475 C198.412748,265.086075 198.670348,265.343675 198.972748,265.343675 Z M199.398348,271.660475 L199.398348,266.250875 L198.558348,266.250875 L198.558348,271.660475 L199.398348,271.660475 Z M203.463948,271.794875 C204.449548,271.794875 205.031948,271.391675 205.446348,270.854075 L204.886348,270.338875 C204.527948,270.820475 204.068748,271.044475 203.508748,271.044475 C202.355148,271.044475 201.638348,270.148475 201.638348,268.950075 C201.638348,267.751675 202.355148,266.866875 203.508748,266.866875 C204.068748,266.866875 204.527948,267.079675 204.886348,267.572475 L205.446348,267.057275 C205.031948,266.519675 204.449548,266.116475 203.463948,266.116475 C201.851148,266.116475 200.764748,267.348475 200.764748,268.950075 C200.764748,270.562875 201.851148,271.794875 203.463948,271.794875 Z M207.462348,271.660475 L207.462348,270.114875 L208.358348,269.230075 L210.307148,271.660475 L211.382348,271.660475 L208.974348,268.703675 L211.371148,266.250875 L210.307148,266.250875 L207.462348,269.129275 L207.462348,264.190075 L206.622348,264.190075 L206.622348,271.660475 L207.462348,271.660475 Z M214.820748,271.794875 C215.705548,271.794875 216.433548,271.503675 216.971148,270.966075 L216.567948,270.417275 C216.142348,270.854075 215.515148,271.100475 214.899148,271.100475 C213.734348,271.100475 213.017548,270.249275 212.950348,269.230075 L217.329548,269.230075 L217.329548,269.017275 C217.329548,267.393275 216.366348,266.116475 214.731148,266.116475 C213.185548,266.116475 212.065548,267.382075 212.065548,268.950075 C212.065548,270.641275 213.219148,271.794875 214.820748,271.794875 Z M216.500748,268.614075 L212.950348,268.614075 C212.995148,267.785275 213.566348,266.810875 214.719948,266.810875 C215.951948,266.810875 216.489548,267.807675 216.500748,268.614075 Z M220.051148,271.794875 C220.543948,271.794875 220.846348,271.649275 221.059148,271.447675 L220.812748,270.820475 C220.700748,270.943675 220.476748,271.044475 220.241548,271.044475 C219.871948,271.044475 219.692748,270.753275 219.692748,270.350075 L219.692748,266.990075 L220.790348,266.990075 L220.790348,266.250875 L219.692748,266.250875 L219.692748,264.772475 L218.852748,264.772475 L218.852748,266.250875 L217.956748,266.250875 L217.956748,266.990075 L218.852748,266.990075 L218.852748,270.529275 C218.852748,271.335675 219.255948,271.794875 220.051148,271.794875 Z M223.691148,271.794875 C225.091148,271.794875 225.819148,271.066875 225.819148,270.159675 C225.819148,268.961275 224.732748,268.692475 223.791948,268.479675 C223.086348,268.311675 222.470348,268.143675 222.470348,267.617275 C222.470348,267.135675 222.929548,266.799675 223.668748,266.799675 C224.363148,266.799675 224.956748,267.090875 225.281548,267.482875 L225.673548,266.900475 C225.236748,266.463675 224.587148,266.116475 223.668748,266.116475 C222.380748,266.116475 221.652748,266.833275 221.652748,267.673275 C221.652748,268.793275 222.694348,269.039675 223.612748,269.252475 C224.340748,269.431675 225.001548,269.622075 225.001548,270.215675 C225.001548,270.742075 224.553548,271.111675 223.724748,271.111675 C222.985548,271.111675 222.302348,270.753275 221.943948,270.338875 L221.507148,270.943675 C222.055948,271.526075 222.806348,271.794875 223.691148,271.794875 Z" id="SubmitSupportTickets" fill="#090B0E" fill-rule="nonzero"></path>
        <g id="verification/dot/trusted/active" transform="translate(89.000000, 118.360475)">
            <g id="Group" transform="translate(3.364706, 3.400000)">
                <rect id="Rectangle-3" stroke="#29CC96" stroke-width="0.8" fill="#F2FFFB" x="0" y="0" width="10.0941176" height="10.2" rx="4.8"></rect>
                <path d="M7.23877195,2.90502333 C6.16206968,4.06088515 5.18146441,5.20129844 4.13500481,6.33986819 L2.81116645,5.20587232 C2.72098078,5.12838938 2.60569707,5.09283795 2.49083591,5.10651175 C2.37597474,5.12018556 2.27090406,5.18217215 2.19858084,5.2788024 C2.04798823,5.4802632 2.07861207,5.77424009 2.2666459,5.93513103 L3.90020755,7.33529878 C4.07420365,7.48433497 4.32560879,7.46883978 4.48216934,7.29883608 C5.65288852,6.04183548 6.70533784,4.80245366 7.85819674,3.56505541 C7.98836983,3.4306043 8.02708524,3.22412623 7.95604055,3.04591988 C7.88499804,2.86771353 7.71866226,2.75512837 7.53829528,2.76287597 C7.42509599,2.76645923 7.31747695,2.81750701 7.23877195,2.90502333 Z" id="Fill-1" fill="#29CC96"></path>
            </g>
        </g>
        <path d="M116.821318,129.660475 C119.139718,129.660475 120.651718,128.058875 120.651718,125.930875 C120.651718,123.814075 119.139718,122.190075 116.821318,122.190075 L114.267718,122.190075 L114.267718,129.660475 L116.821318,129.660475 Z M116.821318,128.831675 L115.197318,128.831675 L115.197318,123.018875 L116.821318,123.018875 C118.669318,123.018875 119.688518,124.318075 119.688518,125.930875 C119.688518,127.532475 118.635718,128.831675 116.821318,128.831675 Z M124.515718,129.794875 C125.400518,129.794875 126.128518,129.503675 126.666118,128.966075 L126.262918,128.417275 C125.837318,128.854075 125.210118,129.100475 124.594118,129.100475 C123.429318,129.100475 122.712518,128.249275 122.645318,127.230075 L127.024518,127.230075 L127.024518,127.017275 C127.024518,125.393275 126.061318,124.116475 124.426118,124.116475 C122.880518,124.116475 121.760518,125.382075 121.760518,126.950075 C121.760518,128.641275 122.914118,129.794875 124.515718,129.794875 Z M126.195718,126.614075 L122.645318,126.614075 C122.690118,125.785275 123.261318,124.810875 124.414918,124.810875 C125.646918,124.810875 126.184518,125.807675 126.195718,126.614075 Z M129.219718,129.660475 L129.219718,125.706875 C129.510918,125.270075 130.093318,124.866875 130.642118,124.866875 C131.347718,124.866875 131.638918,125.303675 131.638918,125.986875 L131.638918,129.660475 L132.478918,129.660475 L132.478918,125.695675 C132.758918,125.270075 133.352518,124.866875 133.912518,124.866875 C134.606918,124.866875 134.909318,125.303675 134.909318,125.986875 L134.909318,129.660475 L135.749318,129.660475 L135.749318,125.751675 C135.749318,124.665275 135.222918,124.116475 134.237318,124.116475 C133.453318,124.116475 132.725318,124.631675 132.422918,125.124475 C132.266118,124.564475 131.795718,124.116475 130.966918,124.116475 C130.171718,124.116475 129.443718,124.687675 129.219718,125.034875 L129.219718,124.250875 L128.379718,124.250875 L128.379718,129.660475 L129.219718,129.660475 Z M139.792518,129.794875 C141.438918,129.794875 142.469318,128.518075 142.469318,126.950075 C142.469318,125.382075 141.438918,124.116475 139.792518,124.116475 C138.146118,124.116475 137.115718,125.382075 137.115718,126.950075 C137.115718,128.518075 138.146118,129.794875 139.792518,129.794875 Z M139.792518,129.044475 C138.638918,129.044475 137.989318,128.058875 137.989318,126.950075 C137.989318,125.852475 138.638918,124.866875 139.792518,124.866875 C140.946118,124.866875 141.584518,125.852475 141.584518,126.950075 C141.584518,128.058875 140.946118,129.044475 139.792518,129.044475 Z M149.178118,129.794875 C151.194118,129.794875 151.933318,128.686075 151.933318,127.599675 C151.933318,126.031675 150.544518,125.650875 149.323718,125.326075 C148.371718,125.068475 147.509318,124.844475 147.509318,124.094075 C147.509318,123.388475 148.147718,122.906875 149.043718,122.906875 C149.861318,122.906875 150.645318,123.186875 151.205318,123.802875 L151.765318,123.119675 C151.138118,122.458875 150.253318,122.078075 149.110918,122.078075 C147.643718,122.078075 146.546118,122.918075 146.546118,124.150075 C146.546118,125.617275 147.878918,125.953275 149.077318,126.266875 C150.062918,126.535675 150.970118,126.782075 150.970118,127.678075 C150.970118,128.249275 150.544518,128.966075 149.211718,128.966075 C148.158918,128.966075 147.352518,128.450875 146.859718,127.902075 L146.310918,128.607675 C146.926918,129.302075 147.878918,129.794875 149.178118,129.794875 Z M155.674118,129.794875 C156.659718,129.794875 157.242118,129.391675 157.656518,128.854075 L157.096518,128.338875 C156.738118,128.820475 156.278918,129.044475 155.718918,129.044475 C154.565318,129.044475 153.848518,128.148475 153.848518,126.950075 C153.848518,125.751675 154.565318,124.866875 155.718918,124.866875 C156.278918,124.866875 156.738118,125.079675 157.096518,125.572475 L157.656518,125.057275 C157.242118,124.519675 156.659718,124.116475 155.674118,124.116475 C154.061318,124.116475 152.974918,125.348475 152.974918,126.950075 C152.974918,128.562875 154.061318,129.794875 155.674118,129.794875 Z M161.274118,129.794875 C162.158918,129.794875 162.886918,129.503675 163.424518,128.966075 L163.021318,128.417275 C162.595718,128.854075 161.968518,129.100475 161.352518,129.100475 C160.187718,129.100475 159.470918,128.249275 159.403718,127.230075 L163.782918,127.230075 L163.782918,127.017275 C163.782918,125.393275 162.819718,124.116475 161.184518,124.116475 C159.638918,124.116475 158.518918,125.382075 158.518918,126.950075 C158.518918,128.641275 159.672518,129.794875 161.274118,129.794875 Z M162.954118,126.614075 L159.403718,126.614075 C159.448518,125.785275 160.019718,124.810875 161.173318,124.810875 C162.405318,124.810875 162.942918,125.807675 162.954118,126.614075 Z M165.978118,129.660475 L165.978118,125.706875 C166.291718,125.270075 166.918918,124.866875 167.579718,124.866875 C168.307718,124.866875 168.789318,125.169275 168.789318,126.121275 L168.789318,129.660475 L169.629318,129.660475 L169.629318,125.863675 C169.629318,124.687675 169.035718,124.116475 167.904518,124.116475 C167.098118,124.116475 166.358918,124.586875 165.978118,125.034875 L165.978118,124.250875 L165.138118,124.250875 L165.138118,129.660475 L165.978118,129.660475 Z M172.899718,129.794875 C173.627718,129.794875 174.243718,129.537275 174.691718,129.044475 L174.691718,129.660475 L175.531718,129.660475 L175.531718,125.942075 C175.531718,124.631675 174.579718,124.116475 173.437318,124.116475 C172.552518,124.116475 171.858118,124.407675 171.275718,125.012475 L171.667718,125.594875 C172.149318,125.079675 172.675718,124.844475 173.325318,124.844475 C174.109318,124.844475 174.691718,125.258875 174.691718,125.986875 L174.691718,126.961275 C174.254918,126.457275 173.638918,126.222075 172.899718,126.222075 C171.981318,126.222075 171.006918,126.793275 171.006918,128.002875 C171.006918,129.178875 171.981318,129.794875 172.899718,129.794875 Z M173.202118,129.190075 C172.418118,129.190075 171.869318,128.697275 171.869318,128.014075 C171.869318,127.319675 172.418118,126.826875 173.202118,126.826875 C173.795718,126.826875 174.366918,127.050875 174.691718,127.498875 L174.691718,128.518075 C174.366918,128.966075 173.795718,129.190075 173.202118,129.190075 Z M178.051718,129.660475 L178.051718,125.830075 C178.298118,125.393275 179.003718,124.967675 179.518918,124.967675 C179.653318,124.967675 179.754118,124.978875 179.854918,125.001275 L179.854918,124.138875 C179.115718,124.138875 178.488518,124.553275 178.051718,125.124475 L178.051718,124.250875 L177.211718,124.250875 L177.211718,129.660475 L178.051718,129.660475 Z M181.322118,123.343675 C181.635718,123.343675 181.893318,123.086075 181.893318,122.772475 C181.893318,122.458875 181.635718,122.212475 181.322118,122.212475 C181.019718,122.212475 180.762118,122.458875 180.762118,122.772475 C180.762118,123.086075 181.019718,123.343675 181.322118,123.343675 Z M181.747718,129.660475 L181.747718,124.250875 L180.907718,124.250875 L180.907718,129.660475 L181.747718,129.660475 Z M185.790918,129.794875 C187.437318,129.794875 188.467718,128.518075 188.467718,126.950075 C188.467718,125.382075 187.437318,124.116475 185.790918,124.116475 C184.144518,124.116475 183.114118,125.382075 183.114118,126.950075 C183.114118,128.518075 184.144518,129.794875 185.790918,129.794875 Z M185.790918,129.044475 C184.637318,129.044475 183.987718,128.058875 183.987718,126.950075 C183.987718,125.852475 184.637318,124.866875 185.790918,124.866875 C186.944518,124.866875 187.582918,125.852475 187.582918,126.950075 C187.582918,128.058875 186.944518,129.044475 185.790918,129.044475 Z M194.806918,129.660475 L194.806918,122.190075 L193.989318,122.190075 L192.118918,124.116475 L192.678918,124.687675 L193.877318,123.422075 L193.877318,129.660475 L194.806918,129.660475 Z" id="DemoScenario1" fill="#090B0E" fill-rule="nonzero"></path>
        <g id="expand-accordion" transform="translate(229.000000, 231.360475) rotate(-90.000000) translate(-229.000000, -231.360475) translate(222.000000, 224.360475)">
            <mask id="mask-8" fill="white">
                <use xlink:href="#path-7"></use>
            </mask>
            <use id="-Icon-小olor" fill="#001C4D" fill-rule="evenodd" xlink:href="#path-7"></use>
        </g>
    </g>
</svg>