<svg width="500px" height="330px" viewBox="0 0 500 330" xmlns="http://www.w3.org/2000/svg" xmlns:xlink="http://www.w3.org/1999/xlink">
    <defs>
        <rect id="path-1" x="204" y="24.360475" width="253" height="236" rx="2.23999996"></rect>
        <filter x="-1.5%" y="-1.2%" width="103.0%" height="103.2%" filterUnits="objectBoundingBox" id="filter-2">
            <feMorphology radius="0.279999995" operator="dilate" in="SourceAlpha" result="shadowSpreadOuter1"></feMorphology>
            <feOffset dx="0" dy="1" in="shadowSpreadOuter1" result="shadowOffsetOuter1"></feOffset>
            <feGaussianBlur stdDeviation="1" in="shadowOffsetOuter1" result="shadowBlurOuter1"></feGaussianBlur>
            <feComposite in="shadowBlurOuter1" in2="SourceAlpha" operator="out" result="shadowBlurOuter1"></feComposite>
            <feColorMatrix values="0 0 0 0 0   0 0 0 0 0   0 0 0 0 0  0 0 0 0.5 0" type="matrix" in="shadowBlurOuter1"></feColorMatrix>
        </filter>
        <path d="M1.875,4.875 C2.08125,4.875 2.248875,5.0415 2.25,5.248125 L2.25,5.248125 L2.254875,6.214875 L3.484875,4.984875 C3.6315,4.83825 3.8685,4.83825 4.015125,4.984875 C4.16175,5.1315 4.16175,5.3685 4.015125,5.515125 L4.015125,5.515125 L2.780625,6.749625 L3.75,6.75 C3.957375,6.75 4.125,6.918 4.125,7.125375 C4.124625,7.332375 3.957,7.5 3.75,7.5 L3.75,7.5 L3.749625,7.5 L1.884,7.498875 C1.67775,7.498875 1.5105,7.332 1.509375,7.12575 L1.509375,7.12575 L1.49999436,5.251875 C1.498875,5.044875 1.666125,4.876125 1.873125,4.875 L1.873125,4.875 Z M5.251725,1.50015 L7.1256,1.509525 C7.33185,1.51065 7.498725,1.6779 7.498725,1.88415 L7.498725,1.88415 L7.49985063,3.749775 C7.500225,3.956775 7.332225,4.12515 7.125225,4.12515 L7.125225,4.12515 C6.91785,4.12515 6.750225,3.95715 6.74985,3.750525 L6.74985,3.750525 L6.7491,2.78115 L5.514975,4.015275 C5.44185,4.0884 5.34585,4.12515 5.24985,4.12515 C5.154225,4.12515 5.058225,4.0884 4.984725,4.015275 C4.838475,3.86865 4.838475,3.631275 4.984725,3.485025 L4.984725,3.485025 L6.214725,2.255025 L5.24835,2.25015 C5.040975,2.249025 4.873725,2.0799 4.87484436,1.873275 C4.875975,1.66665 5.043975,1.50015 5.24985,1.50015 L5.24985,1.50015 L5.251725,1.50015 Z" id="path-3"></path>
        <rect id="path-5" x="74" y="102.360475" width="174" height="201" rx="4"></rect>
        <filter x="-2.2%" y="-1.4%" width="104.5%" height="103.9%" filterUnits="objectBoundingBox" id="filter-6">
            <feMorphology radius="0.4" operator="dilate" in="SourceAlpha" result="shadowSpreadOuter1"></feMorphology>
            <feOffset dx="0" dy="1" in="shadowSpreadOuter1" result="shadowOffsetOuter1"></feOffset>
            <feGaussianBlur stdDeviation="1" in="shadowOffsetOuter1" result="shadowBlurOuter1"></feGaussianBlur>
            <feComposite in="shadowBlurOuter1" in2="SourceAlpha" operator="out" result="shadowBlurOuter1"></feComposite>
            <feColorMatrix values="0 0 0 0 0   0 0 0 0 0   0 0 0 0 0  0 0 0 0.5 0" type="matrix" in="shadowBlurOuter1"></feColorMatrix>
        </filter>
        <polygon id="path-7" points="3.64000006 5.32000003 7 8.67999997 10.3599999 5.32000003"></polygon>
    </defs>
    <g id="Sales" stroke="none" stroke-width="1" fill="none" fill-rule="evenodd">
        <path d="M354.092422,0 C277.320194,0.225455336 226.647541,58.1541543 178.509445,73.2299427 C106.323904,95.8359393 37.0596883,72.0862693 7.29817054,154.738195 C2.30105814,168.615996 0.019544079,182.984675 0,197.26727 L0,197.653619 C0.065832687,242.298899 22.1856155,286.072077 52.4470502,311.439902 C68.2283797,324.670031 89.2557514,329.990777 111.88368,330 L112.01226,330 C146.865524,329.983603 185.499025,317.384749 214.647476,301.685884 C271.097977,271.280158 309.671817,283.797028 348.466813,294.710091 C416.799085,313.932208 505.410911,247.762092 499.741071,153.048305 C494.296502,62.0811763 452.541091,10.9786501 373.867944,1.20618605 C367.407083,0.403770011 361.112861,0.0184463457 354.994536,0 L354.092422,0 Z" id="Fill-1-Copy" fill="#F2F7FF"></path>
        <g id="Rectangle">
            <use fill="black" fill-opacity="1" filter="url(#filter-2)" xlink:href="#path-1"></use>
            <use stroke="#E9EBF0" stroke-width="0.55999999" fill="#FFFFFF" xlink:href="#path-1"></use>
        </g>
        <path d="M206,24.360475 L455,24.360475 C456.104569,24.360475 457,25.2559055 457,26.360475 L457,26.360475 L457,26.360475 L204,26.360475 C204,25.2559055 204.895431,24.360475 206,24.360475 Z" id="Rectangle-7-Copy-6" fill="#29CC96"></path>
        <g id="verification/button/trusted/active" transform="translate(212.000000, 32.360475)">
            <g id="verification-icon-trusted-copy-12">
                <g id="Group-15" fill="#F2FFFB" stroke="#29CC96" stroke-width="0.55999999">
                    <rect id="Rectangle-3" x="0.279999995" y="0.279999995" width="13.44" height="13.44" rx="2.23999996"></rect>
                </g>
                <path d="M10.0397886,3.98728692 C8.54646028,5.57376393 7.18641334,7.13903708 5.73502999,8.70177987 L3.89893716,7.14531496 C3.77385447,7.03896581 3.61396214,6.99016973 3.45465586,7.0089377 C3.29534958,7.02770567 3.14962217,7.11278531 3.04931375,7.24541505 C2.84044988,7.52192988 2.8829235,7.92542757 3.14371635,8.14625828 L5.40937877,10.0680572 C5.65070203,10.2726166 5.99938748,10.2513487 6.21652857,10.0180103 C7.8402533,8.29271537 9.29994408,6.59160306 10.8988976,4.8932133 C11.0794407,4.70867257 11.1331369,4.42527129 11.0346017,4.18067434 C10.9360695,3.93607739 10.7053707,3.78154874 10.4552114,3.7921827 C10.2982101,3.7971009 10.1489482,3.86716649 10.0397886,3.98728692 Z" id="Fill-1" fill="#29CC96"></path>
            </g>
        </g>
        <g id="close" transform="translate(442.000000, 35.360475)" fill="#B8BFCC">
            <path d="M5.02875,4.5 L6.64125,2.89125 C6.78829581,2.74420419 6.78829581,2.50579581 6.64125,2.35875 C6.49420419,2.21170419 6.25579581,2.21170419 6.10875,2.35875 L4.5,3.97125 L2.89125,2.35875 C2.74420418,2.21170419 2.50579582,2.21170419 2.35875,2.35875 C2.21170419,2.50579582 2.21170419,2.74420418 2.35875,2.89125 L3.97125,4.5 L2.35875,6.10875 C2.28775776,6.17916247 2.24782563,6.27501092 2.24782563,6.375 C2.24782563,6.47498908 2.28775776,6.57083753 2.35875,6.64125 C2.42916247,6.71224224 2.52501092,6.75217437 2.625,6.75217437 C2.72498908,6.75217437 2.82083753,6.71224224 2.89125,6.64125 L4.5,5.02875 L6.10875,6.64125 C6.17916247,6.71224224 6.27501092,6.75217437 6.375,6.75217437 C6.47498908,6.75217437 6.57083753,6.71224224 6.64125,6.64125 C6.71224224,6.57083753 6.75217437,6.47498908 6.75217437,6.375 C6.75217437,6.27501092 6.71224224,6.17916247 6.64125,6.10875 L5.02875,4.5 Z" id="-Icon-小olor"></path>
        </g>
        <g id="expand-window" transform="translate(429.000000, 35.360475)">
            <mask id="mask-4" fill="white">
                <use xlink:href="#path-3"></use>
            </mask>
            <use id="-Icon-小olor" fill="#B8BFCC" fill-rule="evenodd" xlink:href="#path-3"></use>
        </g>
        <path d="M421,31.360475 L421,45.360475 L421,31.360475 Z" id="Path-2" stroke="#B8BFCC" stroke-width="0.55999999"></path>
        <g id="globe" transform="translate(406.000000, 35.360475)" fill="#B8BFCC">
            <path d="M8.25,4.5 C8.25,3.50543816 7.85491185,2.55161099 7.15165043,1.84834957 C6.44838901,1.14508815 5.49456184,0.75 4.5,0.75 C2.42893219,0.75 0.75,2.42893219 0.75,4.5 C0.75,6.57106781 2.42893219,8.25 4.5,8.25 C6.57106781,8.25 8.25,6.57106781 8.25,4.5 Z M7.47375,4.125 L6.375,4.125 C6.31315234,3.24305352 6.0109749,2.39488165 5.50125,1.6725 C6.56921252,2.0517964 7.33227495,3.00054701 7.47375,4.125 Z M3.405,4.875 L5.625,4.875 C5.52903112,5.80146887 5.13414427,6.67153623 4.5,7.35375 C3.86627643,6.67438658 3.48044693,5.80098487 3.405,4.875 L3.405,4.875 Z M3.405,4.125 C3.49233211,3.20318507 3.87659587,2.33464367 4.5,1.65 C5.13926682,2.32729603 5.5350483,3.19801528 5.625,4.125 L3.405,4.125 Z M3.54,1.66125 C3.0275811,2.3876335 2.72055012,3.23877 2.65125,4.125 L1.52625,4.125 C1.67078837,2.98608776 2.45262785,2.02953554 3.54,1.66125 Z M1.52625,4.875 L2.65125,4.875 C2.71300924,5.76047499 3.0179548,6.6117273 3.5325,7.335 C2.44916128,6.96495666 1.67085708,6.01062478 1.52625,4.875 Z M5.4825,7.33125 C5.99565302,6.60775325 6.30399818,5.75915627 6.375,4.875 L7.48125,4.875 C7.33658452,6.00734451 6.56180804,6.95946195 5.4825,7.33125 L5.4825,7.33125 Z" id="-Icon-小olor"></path>
        </g>
        <path d="M204,235.360475 L457,235.360475 L457,258.120475 C457,259.357593 455.997118,260.360475 454.76,260.360475 L206.24,260.360475 C205.002882,260.360475 204,259.357593 204,258.120475 L204,235.360475 L204,235.360475 Z" id="Rectangle" stroke="#F2F3F5" stroke-width="0.55999999" fill="#F2F3F5"></path>
        <g id="icon-resize" transform="translate(206.000000, 250.360475)" fill="#8F9CB3">
            <path d="M5.69599992,6.71999989 L4.77866659,6.71999989 L6.71999989,4.77866659 L6.71999989,5.69599992 L5.69599992,6.71999989 Z M3.30666661,6.71999989 L2.38933329,6.71999989 L6.71999989,2.38933329 L6.71999989,3.30666661 L3.30666661,6.71999989 Z M0.917333316,6.71999989 L0,6.71999989 L6.71999989,0 L6.71999989,0.917333316 L0.917333316,6.71999989 Z" id="Shape" transform="translate(3.360000, 3.360000) rotate(90.000000) translate(-3.360000, -3.360000) "></path>
        </g>
        <g id="tag" transform="translate(220.000000, 242.360475)" fill="#B8BFCC">
            <path d="M4.67506187,9.625 C4.56946319,9.625 4.46386451,9.584575 4.38342802,9.5041375 L1.49596411,6.6166375 C1.33467863,6.45535 1.33467863,6.19465 1.49596411,6.0333625 L6.03340739,1.4958625 C6.11054393,1.4183125 6.21531762,1.375 6.32504125,1.375 L9.21250516,1.375 C9.4406148,1.375 9.625,1.5593875 9.625,1.7875 L9.625,4.675 C9.625,4.784725 9.58168804,4.8895 9.50413901,4.9666375 L4.96669573,9.5041375 C4.88625923,9.584575 4.78066055,9.625 4.67506187,9.625 Z M8.80001031,4.504225 L8.80001031,2.2 L6.49581411,2.2 L2.37086568,6.325 L4.67506187,8.629225 L8.80001031,4.504225 Z M7.54251057,2.75748349 C7.73581794,2.56417396 8.04923079,2.56417396 8.24253791,2.75748349 C8.43584503,2.95079328 8.43584503,3.26421005 8.24253791,3.45751958 C8.04923055,3.65082912 7.73581769,3.65082912 7.54251057,3.45751958 C7.34920345,3.2642098 7.34920345,2.95079303 7.54251057,2.75748349 L7.54251057,2.75748349 Z" id="-Icon-小olor"></path>
        </g>
        <rect id="Rectangle-12-[4-8]" fill="#FFFFFF" x="241" y="241.360475" width="51" height="11" rx="5.5"></rect>
        <path d="M237.2352,82.360475 L237.2352,76.802075 L239.2128,76.802075 L239.2128,75.957275 L234.288,75.957275 L234.288,76.802075 L236.2752,76.802075 L236.2752,82.360475 L237.2352,82.360475 Z M242.304,82.475675 C243.0528,82.475675 243.7056,82.235675 244.1664,81.784475 L243.7632,81.218075 C243.4176,81.573275 242.88,81.765275 242.3904,81.765275 C241.4592,81.765275 240.8832,81.112475 240.816,80.325275 L244.4832,80.325275 L244.4832,80.114075 C244.4832,78.693275 243.6192,77.608475 242.2272,77.608475 C240.8736,77.608475 239.904,78.693275 239.904,80.037275 C239.904,81.496475 240.9216,82.475675 242.304,82.475675 Z M243.6384,79.701275 L240.8064,79.701275 C240.8544,79.067675 241.296,78.318875 242.2272,78.318875 C243.2064,78.318875 243.6192,79.086875 243.6384,79.701275 Z M247.6416,82.475675 C248.5152,82.475675 249.0432,82.110875 249.3792,81.659675 L248.8032,81.131675 C248.5248,81.515675 248.1504,81.707675 247.68,81.707675 C246.768,81.707675 246.1824,80.997275 246.1824,80.037275 C246.1824,79.077275 246.768,78.376475 247.68,78.376475 C248.1504,78.376475 248.5248,78.558875 248.8032,78.952475 L249.3792,78.424475 C249.0432,77.973275 248.5152,77.608475 247.6416,77.608475 C246.24,77.608475 245.28,78.645275 245.28,80.037275 C245.28,81.429275 246.24,82.475675 247.6416,82.475675 Z M251.1936,82.360475 L251.1936,79.048475 C251.4432,78.702875 251.9328,78.376475 252.4704,78.376475 C253.0656,78.376475 253.4592,78.606875 253.4592,79.374875 L253.4592,82.360475 L254.3232,82.360475 L254.3232,79.086875 C254.3232,78.107675 253.824,77.608475 252.8352,77.608475 C252.1248,77.608475 251.5008,78.002075 251.1936,78.376475 L251.1936,75.957275 L250.3296,75.957275 L250.3296,82.360475 L251.1936,82.360475 Z M260.3328,82.475675 C262.0608,82.475675 262.752,81.544475 262.752,80.546075 C262.752,79.182875 261.5328,78.856475 260.4864,78.578075 C259.6896,78.376475 258.9984,78.194075 258.9984,77.618075 C258.9984,77.080475 259.488,76.715675 260.1984,76.715675 C260.8896,76.715675 261.5616,76.946075 262.0512,77.464475 L262.608,76.754075 C262.0416,76.178075 261.264,75.861275 260.2752,75.861275 C258.9408,75.861275 258.0096,76.629275 258.0096,77.685275 C258.0096,78.990875 259.2,79.288475 260.2272,79.557275 C261.0432,79.768475 261.7728,79.960475 261.7728,80.632475 C261.7728,81.093275 261.408,81.621275 260.3712,81.621275 C259.4784,81.621275 258.7872,81.198875 258.3552,80.718875 L257.808,81.458075 C258.3552,82.062875 259.1904,82.475675 260.3328,82.475675 Z M265.1232,82.475675 C265.5744,82.475675 265.8432,82.350875 266.0256,82.178075 L265.8048,81.525275 C265.7184,81.621275 265.536,81.707675 265.3344,81.707675 C265.0368,81.707675 264.8832,81.467675 264.8832,81.141275 L264.8832,78.482075 L265.824,78.482075 L265.824,77.723675 L264.8832,77.723675 L264.8832,76.456475 L264.0192,76.456475 L264.0192,77.723675 L263.2512,77.723675 L263.2512,78.482075 L264.0192,78.482075 L264.0192,81.333275 C264.0192,82.062875 264.3936,82.475675 265.1232,82.475675 Z M268.128,82.475675 C268.752,82.475675 269.28,82.254875 269.6448,81.851675 L269.6448,82.360475 L270.5088,82.360475 L270.5088,79.230875 C270.5088,78.050075 269.6544,77.608475 268.6464,77.608475 C267.8976,77.608475 267.264,77.858075 266.7456,78.366875 L267.12,78.962075 C267.5328,78.549275 267.984,78.347675 268.512,78.347675 C269.1744,78.347675 269.6448,78.693275 269.6448,79.269275 L269.6448,80.037275 C269.2896,79.624475 268.752,79.422875 268.128,79.422875 C267.3504,79.422875 266.5152,79.883675 266.5152,80.939675 C266.5152,81.957275 267.36,82.475675 268.128,82.475675 Z M268.4544,81.870875 C267.8304,81.870875 267.3888,81.496475 267.3888,80.949275 C267.3888,80.402075 267.8304,80.027675 268.4544,80.027675 C268.9344,80.027675 269.3856,80.210075 269.6448,80.555675 L269.6448,81.342875 C269.3856,81.688475 268.9344,81.870875 268.4544,81.870875 Z M273.9648,82.475675 C274.8384,82.475675 275.3664,82.110875 275.7024,81.659675 L275.1264,81.131675 C274.848,81.515675 274.4736,81.707675 274.0032,81.707675 C273.0912,81.707675 272.5056,80.997275 272.5056,80.037275 C272.5056,79.077275 273.0912,78.376475 274.0032,78.376475 C274.4736,78.376475 274.848,78.558875 275.1264,78.952475 L275.7024,78.424475 C275.3664,77.973275 274.8384,77.608475 273.9648,77.608475 C272.5632,77.608475 271.6032,78.645275 271.6032,80.037275 C271.6032,81.429275 272.5632,82.475675 273.9648,82.475675 Z M277.5168,82.360475 L277.5168,81.074075 L278.2176,80.363675 L279.7632,82.360475 L280.8576,82.360475 L278.8416,79.826075 L280.8384,77.723675 L279.7536,77.723675 L277.5168,80.075675 L277.5168,75.957275 L276.6528,75.957275 L276.6528,82.360475 L277.5168,82.360475 Z" id="TechStack" fill="#1F3966" fill-rule="nonzero"></path>
        <path d="M236.8224,43.475675 C238.5504,43.475675 239.184,42.525275 239.184,41.594075 C239.184,40.250075 237.9936,39.923675 236.9472,39.645275 C236.1312,39.424475 235.392,39.232475 235.392,38.589275 C235.392,37.984475 235.9392,37.571675 236.7072,37.571675 C237.408,37.571675 238.08,37.811675 238.56,38.339675 L239.04,37.754075 C238.5024,37.187675 237.744,36.861275 236.7648,36.861275 C235.5072,36.861275 234.5664,37.581275 234.5664,38.637275 C234.5664,39.894875 235.7088,40.182875 236.736,40.451675 C237.5808,40.682075 238.3584,40.893275 238.3584,41.661275 C238.3584,42.150875 237.9936,42.765275 236.8512,42.765275 C235.9488,42.765275 235.2576,42.323675 234.8352,41.853275 L234.3648,42.458075 C234.8928,43.053275 235.7088,43.475675 236.8224,43.475675 Z M241.7088,43.475675 C242.3328,43.475675 242.8608,43.254875 243.2448,42.832475 L243.2448,43.360475 L243.9648,43.360475 L243.9648,40.173275 C243.9648,39.050075 243.1488,38.608475 242.1696,38.608475 C241.4112,38.608475 240.816,38.858075 240.3168,39.376475 L240.6528,39.875675 C241.0656,39.434075 241.5168,39.232475 242.0736,39.232475 C242.7456,39.232475 243.2448,39.587675 243.2448,40.211675 L243.2448,41.046875 C242.8704,40.614875 242.3424,40.413275 241.7088,40.413275 C240.9216,40.413275 240.0864,40.902875 240.0864,41.939675 C240.0864,42.947675 240.9216,43.475675 241.7088,43.475675 Z M241.968,42.957275 C241.296,42.957275 240.8256,42.534875 240.8256,41.949275 C240.8256,41.354075 241.296,40.931675 241.968,40.931675 C242.4768,40.931675 242.9664,41.123675 243.2448,41.507675 L243.2448,42.381275 C242.9664,42.765275 242.4768,42.957275 241.968,42.957275 Z M246.1248,43.360475 L246.1248,36.957275 L245.4048,36.957275 L245.4048,43.360475 L246.1248,43.360475 Z M249.6576,43.475675 C250.416,43.475675 251.04,43.226075 251.5008,42.765275 L251.1552,42.294875 C250.7904,42.669275 250.2528,42.880475 249.7248,42.880475 C248.7264,42.880475 248.112,42.150875 248.0544,41.277275 L251.808,41.277275 L251.808,41.094875 C251.808,39.702875 250.9824,38.608475 249.5808,38.608475 C248.256,38.608475 247.296,39.693275 247.296,41.037275 C247.296,42.486875 248.2848,43.475675 249.6576,43.475675 Z M251.0976,40.749275 L248.0544,40.749275 C248.0928,40.038875 248.5824,39.203675 249.5712,39.203675 C250.6272,39.203675 251.088,40.058075 251.0976,40.749275 Z M254.4384,43.475675 C255.6384,43.475675 256.2624,42.851675 256.2624,42.074075 C256.2624,41.046875 255.3312,40.816475 254.5248,40.634075 C253.92,40.490075 253.392,40.346075 253.392,39.894875 C253.392,39.482075 253.7856,39.194075 254.4192,39.194075 C255.0144,39.194075 255.5232,39.443675 255.8016,39.779675 L256.1376,39.280475 C255.7632,38.906075 255.2064,38.608475 254.4192,38.608475 C253.3152,38.608475 252.6912,39.222875 252.6912,39.942875 C252.6912,40.902875 253.584,41.114075 254.3712,41.296475 C254.9952,41.450075 255.5616,41.613275 255.5616,42.122075 C255.5616,42.573275 255.1776,42.890075 254.4672,42.890075 C253.8336,42.890075 253.248,42.582875 252.9408,42.227675 L252.5664,42.746075 C253.0368,43.245275 253.68,43.475675 254.4384,43.475675 Z" fill="#29CC96" fill-rule="nonzero"></path>
        <rect id="Rectangle" fill="#F2F3F5" x="234" y="95.360475" width="197" height="4"></rect>
        <rect id="Rectangle-Copy" fill="#F2F3F5" x="234" y="104.360475" width="197" height="4"></rect>
        <rect id="Rectangle-Copy-2" fill="#F2F3F5" x="234" y="113.360475" width="197" height="4"></rect>
        <rect id="Rectangle-Copy-3" fill="#F2F3F5" x="234" y="129.360475" width="177" height="88" rx="2.4"></rect>
        <line x1="204" y1="55.860475" x2="457" y2="55.860475" id="Line-Copy-53" stroke="#DADEE6" stroke-width="0.55999999"></line>
        <g id="Rectangle">
            <use fill="black" fill-opacity="1" filter="url(#filter-6)" xlink:href="#path-5"></use>
            <use stroke="#F2F3F5" stroke-width="0.8" fill="#FFFFFF" xlink:href="#path-5"></use>
        </g>
        <rect id="Rectangle-Copy-7" fill="#E9EBF0" x="81" y="214.360475" width="159.157895" height="34" rx="2.4"></rect>
        <g id="verification/dot/trusted/selected" transform="translate(88.578947, 222.860475)">
            <g id="Group" transform="translate(3.368421, 3.400000)">
                <rect id="Rectangle-3" stroke="#29CC96" stroke-width="0.8" fill="#29CC96" x="0" y="0" width="10.1052632" height="10.2" rx="4.8"></rect>
                <path d="M7.2467647,2.90502333 C6.16887359,4.06088515 5.18718557,5.20129844 4.13957052,6.33986819 L2.81427043,5.20587232 C2.72398518,5.12838938 2.60857417,5.09283795 2.49358618,5.10651175 C2.37859819,5.12018556 2.27341149,5.18217215 2.20100842,5.2788024 C2.05024954,5.4802632 2.08090719,5.77424009 2.26914864,5.93513103 L3.904514,7.33529878 C4.07870222,7.48433497 4.33038495,7.46883978 4.48711836,7.29883608 C5.6591302,6.04183548 6.71274159,4.80245366 7.86687344,3.56505541 C7.99719026,3.4306043 8.03594841,3.22412623 7.96482528,3.04591988 C7.89370434,2.86771353 7.72718489,2.75512837 7.54661875,2.76287597 C7.43329447,2.76645923 7.3255566,2.81750701 7.2467647,2.90502333 Z" id="Fill-1" fill="#FFFFFF"></path>
            </g>
        </g>
        <path d="M117.0656,235 L117.0656,228.9296 L119.2384,228.9296 L119.2384,227.5296 L113.28,227.5296 L113.28,228.9296 L115.464,228.9296 L115.464,235 L117.0656,235 Z M122.7664,235.1344 C123.6064,235.1344 124.4576,234.8768 124.9952,234.384 L124.368,233.4656 C124.0208,233.8016 123.4272,234.0032 122.9232,234.0032 C122.0048,234.0032 121.456,233.432 121.3664,232.7488 L125.3872,232.7488 L125.3872,232.4352 C125.3872,230.6656 124.2896,229.456 122.6768,229.456 C121.0304,229.456 119.8768,230.7216 119.8768,232.2896 C119.8768,234.0256 121.12,235.1344 122.7664,235.1344 Z M124.0096,231.7856 L121.344,231.7856 C121.4112,231.248 121.792,230.5872 122.6768,230.5872 C123.6176,230.5872 123.976,231.2704 124.0096,231.7856 Z M128.9376,235.1344 C130.0464,235.1344 130.7184,234.6528 131.0768,234.1488 L130.1472,233.2864 C129.8896,233.6448 129.4976,233.8688 129.0048,233.8688 C128.1424,233.8688 127.5376,233.2304 127.5376,232.2896 C127.5376,231.3488 128.1424,230.7216 129.0048,230.7216 C129.4976,230.7216 129.8896,230.9232 130.1472,231.304 L131.0768,230.4304 C130.7184,229.9376 130.0464,229.456 128.9376,229.456 C127.2688,229.456 126.0704,230.632 126.0704,232.2896 C126.0704,233.9584 127.2688,235.1344 128.9376,235.1344 Z M133.4288,235 L133.4288,231.36 C133.6752,231.0352 134.112,230.7216 134.6608,230.7216 C135.2768,230.7216 135.6688,230.9568 135.6688,231.7072 L135.6688,235 L137.0912,235 L137.0912,231.1584 C137.0912,230.1056 136.52,229.456 135.3328,229.456 C134.448,229.456 133.776,229.8816 133.4288,230.296 L133.4288,227.5296 L132.0064,227.5296 L132.0064,235 L133.4288,235 Z M144.0576,235.1344 C146.0736,235.1344 147.048,234.104 147.048,232.7376 C147.048,231.08 145.48,230.7104 144.248,230.4304 C143.3856,230.2288 142.7584,230.072 142.7584,229.568 C142.7584,229.12 143.1392,228.8064 143.856,228.8064 C144.584,228.8064 145.3904,229.064 145.9952,229.624 L146.88,228.4592 C146.1408,227.776 145.1552,227.4176 143.968,227.4176 C142.2096,227.4176 141.1344,228.4256 141.1344,229.6688 C141.1344,231.3376 142.7024,231.6736 143.9232,231.9536 C144.7856,232.1552 145.4352,232.3456 145.4352,232.9056 C145.4352,233.3312 145.0096,233.7456 144.136,233.7456 C143.1056,233.7456 142.288,233.2864 141.7616,232.7376 L140.888,233.9472 C141.5936,234.6528 142.624,235.1344 144.0576,235.1344 Z M149.904,235.1344 C150.4976,235.1344 150.8784,234.9776 151.0912,234.7872 L150.7888,233.712 C150.7104,233.7904 150.5088,233.8688 150.296,233.8688 C149.9824,233.8688 149.8032,233.6112 149.8032,233.2752 L149.8032,230.8336 L150.9008,230.8336 L150.9008,229.5904 L149.8032,229.5904 L149.8032,228.112 L148.3696,228.112 L148.3696,229.5904 L147.4736,229.5904 L147.4736,230.8336 L148.3696,230.8336 L148.3696,233.656 C148.3696,234.6192 148.9072,235.1344 149.904,235.1344 Z M153.4096,235.1344 C154.1152,235.1344 154.7536,234.8768 155.1232,234.44 L155.1232,235 L156.5456,235 L156.5456,231.5056 C156.5456,229.9488 155.4144,229.456 154.1824,229.456 C153.3312,229.456 152.48,229.7248 151.8192,230.3072 L152.3568,231.2592 C152.816,230.8336 153.3536,230.6208 153.936,230.6208 C154.6528,230.6208 155.1232,230.9792 155.1232,231.528 L155.1232,232.2784 C154.7648,231.8416 154.1264,231.6176 153.4096,231.6176 C152.5472,231.6176 151.528,232.0768 151.528,233.3424 C151.528,234.552 152.5472,235.1344 153.4096,235.1344 Z M153.9808,234.1712 C153.4208,234.1712 152.9616,233.88 152.9616,233.376 C152.9616,232.8496 153.4208,232.5584 153.9808,232.5584 C154.44,232.5584 154.888,232.7152 155.1232,233.0288 L155.1232,233.7008 C154.888,234.0144 154.44,234.1712 153.9808,234.1712 Z M160.4768,235.1344 C161.5856,235.1344 162.2576,234.6528 162.616,234.1488 L161.6864,233.2864 C161.4288,233.6448 161.0368,233.8688 160.544,233.8688 C159.6816,233.8688 159.0768,233.2304 159.0768,232.2896 C159.0768,231.3488 159.6816,230.7216 160.544,230.7216 C161.0368,230.7216 161.4288,230.9232 161.6864,231.304 L162.616,230.4304 C162.2576,229.9376 161.5856,229.456 160.4768,229.456 C158.808,229.456 157.6096,230.632 157.6096,232.2896 C157.6096,233.9584 158.808,235.1344 160.4768,235.1344 Z M164.968,235 L164.968,233.6112 L165.6176,232.9168 L167.0512,235 L168.832,235 L166.6256,232.0432 L168.7648,229.5904 L167.0176,229.5904 L164.968,231.9984 L164.968,227.5296 L163.5456,227.5296 L163.5456,235 L164.968,235 Z" id="TechStack" fill="#1F3966" fill-rule="nonzero"></path>
        <g id="verification/dot/trusted/active" transform="translate(89.000000, 152.360475)">
            <g id="Group" transform="translate(3.364948, 3.400000)">
                <rect id="Rectangle-3" stroke="#29CC96" stroke-width="0.8" fill="#F2FFFB" x="0" y="0" width="10.0948454" height="10.2" rx="4.8"></rect>
                <path d="M7.23929381,2.90502333 C6.16251392,4.06088515 5.18183795,5.20129844 4.13530292,6.33986819 L2.81136912,5.20587232 C2.72117695,5.12838938 2.60588492,5.09283795 2.49101548,5.10651175 C2.37614603,5.12018556 2.27106777,5.18217215 2.19873934,5.2788024 C2.04813588,5.4802632 2.07876192,5.77424009 2.26680931,5.93513103 L3.90048873,7.33529878 C4.07449737,7.48433497 4.32592063,7.46883978 4.48249247,7.29883608 C5.65329605,6.04183548 6.70582124,4.80245366 7.85876326,3.56505541 C7.98894573,3.4306043 8.02766393,3.22412623 7.95661412,3.04591988 C7.8855665,2.86771353 7.71921872,2.75512837 7.53883873,2.76287597 C7.42563128,2.76645923 7.31800448,2.81750701 7.23929381,2.90502333 Z" id="Fill-1" fill="#29CC96"></path>
            </g>
        </g>
        <path d="M116.823076,163.660475 C119.141476,163.660475 120.653476,162.058875 120.653476,159.930875 C120.653476,157.814075 119.141476,156.190075 116.823076,156.190075 L114.269476,156.190075 L114.269476,163.660475 L116.823076,163.660475 Z M116.823076,162.831675 L115.199076,162.831675 L115.199076,157.018875 L116.823076,157.018875 C118.671076,157.018875 119.690276,158.318075 119.690276,159.930875 C119.690276,161.532475 118.637476,162.831675 116.823076,162.831675 Z M122.490276,157.343675 C122.803876,157.343675 123.061476,157.086075 123.061476,156.772475 C123.061476,156.458875 122.803876,156.212475 122.490276,156.212475 C122.187876,156.212475 121.930276,156.458875 121.930276,156.772475 C121.930276,157.086075 122.187876,157.343675 122.490276,157.343675 Z M122.915876,163.660475 L122.915876,158.250875 L122.075876,158.250875 L122.075876,163.660475 L122.915876,163.660475 Z M126.309476,163.794875 C127.709476,163.794875 128.437476,163.066875 128.437476,162.159675 C128.437476,160.961275 127.351076,160.692475 126.410276,160.479675 C125.704676,160.311675 125.088676,160.143675 125.088676,159.617275 C125.088676,159.135675 125.547876,158.799675 126.287076,158.799675 C126.981476,158.799675 127.575076,159.090875 127.899876,159.482875 L128.291876,158.900475 C127.855076,158.463675 127.205476,158.116475 126.287076,158.116475 C124.999076,158.116475 124.271076,158.833275 124.271076,159.673275 C124.271076,160.793275 125.312676,161.039675 126.231076,161.252475 C126.959076,161.431675 127.619876,161.622075 127.619876,162.215675 C127.619876,162.742075 127.171876,163.111675 126.343076,163.111675 C125.603876,163.111675 124.920676,162.753275 124.562276,162.338875 L124.125476,162.943675 C124.674276,163.526075 125.424676,163.794875 126.309476,163.794875 Z M132.189476,163.794875 C133.175076,163.794875 133.757476,163.391675 134.171876,162.854075 L133.611876,162.338875 C133.253476,162.820475 132.794276,163.044475 132.234276,163.044475 C131.080676,163.044475 130.363876,162.148475 130.363876,160.950075 C130.363876,159.751675 131.080676,158.866875 132.234276,158.866875 C132.794276,158.866875 133.253476,159.079675 133.611876,159.572475 L134.171876,159.057275 C133.757476,158.519675 133.175076,158.116475 132.189476,158.116475 C130.576676,158.116475 129.490276,159.348475 129.490276,160.950075 C129.490276,162.562875 130.576676,163.794875 132.189476,163.794875 Z M137.711076,163.794875 C139.357476,163.794875 140.387876,162.518075 140.387876,160.950075 C140.387876,159.382075 139.357476,158.116475 137.711076,158.116475 C136.064676,158.116475 135.034276,159.382075 135.034276,160.950075 C135.034276,162.518075 136.064676,163.794875 137.711076,163.794875 Z M137.711076,163.044475 C136.557476,163.044475 135.907876,162.058875 135.907876,160.950075 C135.907876,159.852475 136.557476,158.866875 137.711076,158.866875 C138.864676,158.866875 139.503076,159.852475 139.503076,160.950075 C139.503076,162.058875 138.864676,163.044475 137.711076,163.044475 Z M144.117476,163.660475 L146.368676,158.250875 L145.450276,158.250875 L143.658276,162.686075 L141.855076,158.250875 L140.947876,158.250875 L143.199076,163.660475 L144.117476,163.660475 Z M149.683876,163.794875 C150.568676,163.794875 151.296676,163.503675 151.834276,162.966075 L151.431076,162.417275 C151.005476,162.854075 150.378276,163.100475 149.762276,163.100475 C148.597476,163.100475 147.880676,162.249275 147.813476,161.230075 L152.192676,161.230075 L152.192676,161.017275 C152.192676,159.393275 151.229476,158.116475 149.594276,158.116475 C148.048676,158.116475 146.928676,159.382075 146.928676,160.950075 C146.928676,162.641275 148.082276,163.794875 149.683876,163.794875 Z M151.363876,160.614075 L147.813476,160.614075 C147.858276,159.785275 148.429476,158.810875 149.583076,158.810875 C150.815076,158.810875 151.352676,159.807675 151.363876,160.614075 Z M154.387876,163.660475 L154.387876,159.830075 C154.634276,159.393275 155.339876,158.967675 155.855076,158.967675 C155.989476,158.967675 156.090276,158.978875 156.191076,159.001275 L156.191076,158.138875 C155.451876,158.138875 154.824676,158.553275 154.387876,159.124475 L154.387876,158.250875 L153.547876,158.250875 L153.547876,163.660475 L154.387876,163.660475 Z M157.557476,165.855675 C158.274276,165.844475 158.823076,165.542075 159.147876,164.758075 L161.858276,158.250875 L160.939876,158.250875 L159.147876,162.686075 L157.344676,158.250875 L156.437476,158.250875 L158.699876,163.716475 L158.341476,164.534075 C158.151076,164.982075 157.904676,165.105275 157.535076,165.105275 C157.400676,165.105275 157.199076,165.071675 157.075876,165.015675 L156.941476,165.777275 C157.098276,165.822075 157.378276,165.855675 157.557476,165.855675 Z M171.803876,164.007675 L172.453476,163.447675 L171.747876,162.686075 C172.397476,161.991675 172.767076,161.028475 172.767076,159.930875 C172.767076,157.724475 171.266276,156.066875 169.059876,156.066875 C166.842276,156.066875 165.352676,157.724475 165.352676,159.930875 C165.352676,162.137275 166.842276,163.794875 169.059876,163.794875 C169.832676,163.794875 170.515876,163.593275 171.087076,163.234875 L171.803876,164.007675 Z M169.059876,162.966075 C167.379876,162.966075 166.315876,161.666875 166.315876,159.930875 C166.315876,158.183675 167.379876,156.895675 169.059876,156.895675 C170.728676,156.895675 171.803876,158.183675 171.803876,159.930875 C171.803876,160.759675 171.557476,161.487675 171.120676,162.014075 L170.067876,160.882875 L169.418276,161.431675 L170.482276,162.585275 C170.079076,162.831675 169.608676,162.966075 169.059876,162.966075 Z M175.914276,163.794875 C176.720676,163.794875 177.426276,163.369275 177.840676,162.898875 L177.840676,163.660475 L178.680676,163.660475 L178.680676,158.250875 L177.840676,158.250875 L177.840676,162.226875 C177.527076,162.663675 176.899876,163.044475 176.239076,163.044475 C175.511076,163.044475 175.029476,162.764475 175.029476,161.812475 L175.029476,158.250875 L174.189476,158.250875 L174.189476,162.070075 C174.189476,163.246075 174.783076,163.794875 175.914276,163.794875 Z M182.802276,163.794875 C183.687076,163.794875 184.415076,163.503675 184.952676,162.966075 L184.549476,162.417275 C184.123876,162.854075 183.496676,163.100475 182.880676,163.100475 C181.715876,163.100475 180.999076,162.249275 180.931876,161.230075 L185.311076,161.230075 L185.311076,161.017275 C185.311076,159.393275 184.347876,158.116475 182.712676,158.116475 C181.167076,158.116475 180.047076,159.382075 180.047076,160.950075 C180.047076,162.641275 181.200676,163.794875 182.802276,163.794875 Z M184.482276,160.614075 L180.931876,160.614075 C180.976676,159.785275 181.547876,158.810875 182.701476,158.810875 C183.933476,158.810875 184.471076,159.807675 184.482276,160.614075 Z M188.379876,163.794875 C189.779876,163.794875 190.507876,163.066875 190.507876,162.159675 C190.507876,160.961275 189.421476,160.692475 188.480676,160.479675 C187.775076,160.311675 187.159076,160.143675 187.159076,159.617275 C187.159076,159.135675 187.618276,158.799675 188.357476,158.799675 C189.051876,158.799675 189.645476,159.090875 189.970276,159.482875 L190.362276,158.900475 C189.925476,158.463675 189.275876,158.116475 188.357476,158.116475 C187.069476,158.116475 186.341476,158.833275 186.341476,159.673275 C186.341476,160.793275 187.383076,161.039675 188.301476,161.252475 C189.029476,161.431675 189.690276,161.622075 189.690276,162.215675 C189.690276,162.742075 189.242276,163.111675 188.413476,163.111675 C187.674276,163.111675 186.991076,162.753275 186.632676,162.338875 L186.195876,162.943675 C186.744676,163.526075 187.495076,163.794875 188.379876,163.794875 Z M193.240676,163.794875 C193.733476,163.794875 194.035876,163.649275 194.248676,163.447675 L194.002276,162.820475 C193.890276,162.943675 193.666276,163.044475 193.431076,163.044475 C193.061476,163.044475 192.882276,162.753275 192.882276,162.350075 L192.882276,158.990075 L193.979876,158.990075 L193.979876,158.250875 L192.882276,158.250875 L192.882276,156.772475 L192.042276,156.772475 L192.042276,158.250875 L191.146276,158.250875 L191.146276,158.990075 L192.042276,158.990075 L192.042276,162.529275 C192.042276,163.335675 192.445476,163.794875 193.240676,163.794875 Z M195.581476,157.343675 C195.895076,157.343675 196.152676,157.086075 196.152676,156.772475 C196.152676,156.458875 195.895076,156.212475 195.581476,156.212475 C195.279076,156.212475 195.021476,156.458875 195.021476,156.772475 C195.021476,157.086075 195.279076,157.343675 195.581476,157.343675 Z M196.007076,163.660475 L196.007076,158.250875 L195.167076,158.250875 L195.167076,163.660475 L196.007076,163.660475 Z M200.050276,163.794875 C201.696676,163.794875 202.727076,162.518075 202.727076,160.950075 C202.727076,159.382075 201.696676,158.116475 200.050276,158.116475 C198.403876,158.116475 197.373476,159.382075 197.373476,160.950075 C197.373476,162.518075 198.403876,163.794875 200.050276,163.794875 Z M200.050276,163.044475 C198.896676,163.044475 198.247076,162.058875 198.247076,160.950075 C198.247076,159.852475 198.896676,158.866875 200.050276,158.866875 C201.203876,158.866875 201.842276,159.852475 201.842276,160.950075 C201.842276,162.058875 201.203876,163.044475 200.050276,163.044475 Z M204.933476,163.660475 L204.933476,159.706875 C205.247076,159.270075 205.874276,158.866875 206.535076,158.866875 C207.263076,158.866875 207.744676,159.169275 207.744676,160.121275 L207.744676,163.660475 L208.584676,163.660475 L208.584676,159.863675 C208.584676,158.687675 207.991076,158.116475 206.859876,158.116475 C206.053476,158.116475 205.314276,158.586875 204.933476,159.034875 L204.933476,158.250875 L204.093476,158.250875 L204.093476,163.660475 L204.933476,163.660475 Z M211.978276,163.794875 C213.378276,163.794875 214.106276,163.066875 214.106276,162.159675 C214.106276,160.961275 213.019876,160.692475 212.079076,160.479675 C211.373476,160.311675 210.757476,160.143675 210.757476,159.617275 C210.757476,159.135675 211.216676,158.799675 211.955876,158.799675 C212.650276,158.799675 213.243876,159.090875 213.568676,159.482875 L213.960676,158.900475 C213.523876,158.463675 212.874276,158.116475 211.955876,158.116475 C210.667876,158.116475 209.939876,158.833275 209.939876,159.673275 C209.939876,160.793275 210.981476,161.039675 211.899876,161.252475 C212.627876,161.431675 213.288676,161.622075 213.288676,162.215675 C213.288676,162.742075 212.840676,163.111675 212.011876,163.111675 C211.272676,163.111675 210.589476,162.753275 210.231076,162.338875 L209.794276,162.943675 C210.343076,163.526075 211.093476,163.794875 211.978276,163.794875 Z" id="DiscoveryQuestions" fill="#1F3966" fill-rule="nonzero"></path>
        <g id="verification/dot/trusted/active" transform="translate(89.000000, 186.360475)">
            <g id="Group" transform="translate(3.368421, 3.400000)">
                <rect id="Rectangle-3" stroke="#29CC96" stroke-width="0.8" fill="#F2FFFB" x="0" y="0" width="10.1052632" height="10.2" rx="4.8"></rect>
                <path d="M7.2467647,2.90502333 C6.16887359,4.06088515 5.18718557,5.20129844 4.13957052,6.33986819 L2.81427043,5.20587232 C2.72398518,5.12838938 2.60857417,5.09283795 2.49358618,5.10651175 C2.37859819,5.12018556 2.27341149,5.18217215 2.20100842,5.2788024 C2.05024954,5.4802632 2.08090719,5.77424009 2.26914864,5.93513103 L3.904514,7.33529878 C4.07870222,7.48433497 4.33038495,7.46883978 4.48711836,7.29883608 C5.6591302,6.04183548 6.71274159,4.80245366 7.86687344,3.56505541 C7.99719026,3.4306043 8.03594841,3.22412623 7.96482528,3.04591988 C7.89370434,2.86771353 7.72718489,2.75512837 7.54661875,2.76287597 C7.43329447,2.76645923 7.3255566,2.81750701 7.2467647,2.90502333 Z" id="Fill-1" fill="#29CC96"></path>
            </g>
        </g>
        <path d="M117.800253,197.794875 C119.155453,197.794875 120.051453,197.167675 120.678653,196.316475 L119.883453,195.879675 C119.457853,196.518075 118.685053,196.966075 117.800253,196.966075 C116.198653,196.966075 114.955453,195.700475 114.955453,193.930875 C114.955453,192.150075 116.198653,190.895675 117.800253,190.895675 C118.685053,190.895675 119.457853,191.354875 119.883453,191.982075 L120.667453,191.545275 C120.073853,190.705275 119.155453,190.066875 117.800253,190.066875 C115.683453,190.066875 113.992253,191.634875 113.992253,193.930875 C113.992253,196.226875 115.683453,197.794875 117.800253,197.794875 Z M124.195453,197.794875 C125.841853,197.794875 126.872253,196.518075 126.872253,194.950075 C126.872253,193.382075 125.841853,192.116475 124.195453,192.116475 C122.549053,192.116475 121.518653,193.382075 121.518653,194.950075 C121.518653,196.518075 122.549053,197.794875 124.195453,197.794875 Z M124.195453,197.044475 C123.041853,197.044475 122.392253,196.058875 122.392253,194.950075 C122.392253,193.852475 123.041853,192.866875 124.195453,192.866875 C125.349053,192.866875 125.987453,193.852475 125.987453,194.950075 C125.987453,196.058875 125.349053,197.044475 124.195453,197.044475 Z M129.078653,197.660475 L129.078653,193.706875 C129.369853,193.270075 129.952253,192.866875 130.501053,192.866875 C131.206653,192.866875 131.497853,193.303675 131.497853,193.986875 L131.497853,197.660475 L132.337853,197.660475 L132.337853,193.695675 C132.617853,193.270075 133.211453,192.866875 133.771453,192.866875 C134.465853,192.866875 134.768253,193.303675 134.768253,193.986875 L134.768253,197.660475 L135.608253,197.660475 L135.608253,193.751675 C135.608253,192.665275 135.081853,192.116475 134.096253,192.116475 C133.312253,192.116475 132.584253,192.631675 132.281853,193.124475 C132.125053,192.564475 131.654653,192.116475 130.825853,192.116475 C130.030653,192.116475 129.302653,192.687675 129.078653,193.034875 L129.078653,192.250875 L128.238653,192.250875 L128.238653,197.660475 L129.078653,197.660475 Z M138.128253,199.721275 L138.128253,196.842875 C138.565053,197.447675 139.214653,197.794875 139.953853,197.794875 C141.376253,197.794875 142.361853,196.697275 142.361853,194.950075 C142.361853,193.191675 141.376253,192.116475 139.953853,192.116475 C139.192253,192.116475 138.520253,192.508475 138.128253,193.057275 L138.128253,192.250875 L137.288253,192.250875 L137.288253,199.721275 L138.128253,199.721275 Z M139.741053,197.044475 C139.080253,197.044475 138.419453,196.641275 138.128253,196.170875 L138.128253,193.729275 C138.419453,193.258875 139.080253,192.866875 139.741053,192.866875 C140.827453,192.866875 141.477053,193.751675 141.477053,194.950075 C141.477053,196.148475 140.827453,197.044475 139.741053,197.044475 Z M146.158653,197.794875 C147.043453,197.794875 147.771453,197.503675 148.309053,196.966075 L147.905853,196.417275 C147.480253,196.854075 146.853053,197.100475 146.237053,197.100475 C145.072253,197.100475 144.355453,196.249275 144.288253,195.230075 L148.667453,195.230075 L148.667453,195.017275 C148.667453,193.393275 147.704253,192.116475 146.069053,192.116475 C144.523453,192.116475 143.403453,193.382075 143.403453,194.950075 C143.403453,196.641275 144.557053,197.794875 146.158653,197.794875 Z M147.838653,194.614075 L144.288253,194.614075 C144.333053,193.785275 144.904253,192.810875 146.057853,192.810875 C147.289853,192.810875 147.827453,193.807675 147.838653,194.614075 Z M151.389053,197.794875 C151.881853,197.794875 152.184253,197.649275 152.397053,197.447675 L152.150653,196.820475 C152.038653,196.943675 151.814653,197.044475 151.579453,197.044475 C151.209853,197.044475 151.030653,196.753275 151.030653,196.350075 L151.030653,192.990075 L152.128253,192.990075 L152.128253,192.250875 L151.030653,192.250875 L151.030653,190.772475 L150.190653,190.772475 L150.190653,192.250875 L149.294653,192.250875 L149.294653,192.990075 L150.190653,192.990075 L150.190653,196.529275 C150.190653,197.335675 150.593853,197.794875 151.389053,197.794875 Z M153.729853,191.343675 C154.043453,191.343675 154.301053,191.086075 154.301053,190.772475 C154.301053,190.458875 154.043453,190.212475 153.729853,190.212475 C153.427453,190.212475 153.169853,190.458875 153.169853,190.772475 C153.169853,191.086075 153.427453,191.343675 153.729853,191.343675 Z M154.155453,197.660475 L154.155453,192.250875 L153.315453,192.250875 L153.315453,197.660475 L154.155453,197.660475 Z M157.201853,197.794875 C157.694653,197.794875 157.997053,197.649275 158.209853,197.447675 L157.963453,196.820475 C157.851453,196.943675 157.627453,197.044475 157.392253,197.044475 C157.022653,197.044475 156.843453,196.753275 156.843453,196.350075 L156.843453,192.990075 L157.941053,192.990075 L157.941053,192.250875 L156.843453,192.250875 L156.843453,190.772475 L156.003453,190.772475 L156.003453,192.250875 L155.107453,192.250875 L155.107453,192.990075 L156.003453,192.990075 L156.003453,196.529275 C156.003453,197.335675 156.406653,197.794875 157.201853,197.794875 Z M159.542653,191.343675 C159.856253,191.343675 160.113853,191.086075 160.113853,190.772475 C160.113853,190.458875 159.856253,190.212475 159.542653,190.212475 C159.240253,190.212475 158.982653,190.458875 158.982653,190.772475 C158.982653,191.086075 159.240253,191.343675 159.542653,191.343675 Z M159.968253,197.660475 L159.968253,192.250875 L159.128253,192.250875 L159.128253,197.660475 L159.968253,197.660475 Z M164.011453,197.660475 L166.262653,192.250875 L165.344253,192.250875 L163.552253,196.686075 L161.749053,192.250875 L160.841853,192.250875 L163.093053,197.660475 L164.011453,197.660475 Z M169.577853,197.794875 C170.462653,197.794875 171.190653,197.503675 171.728253,196.966075 L171.325053,196.417275 C170.899453,196.854075 170.272253,197.100475 169.656253,197.100475 C168.491453,197.100475 167.774653,196.249275 167.707453,195.230075 L172.086653,195.230075 L172.086653,195.017275 C172.086653,193.393275 171.123453,192.116475 169.488253,192.116475 C167.942653,192.116475 166.822653,193.382075 166.822653,194.950075 C166.822653,196.641275 167.976253,197.794875 169.577853,197.794875 Z M171.257853,194.614075 L167.707453,194.614075 C167.752253,193.785275 168.323453,192.810875 169.477053,192.810875 C170.709053,192.810875 171.246653,193.807675 171.257853,194.614075 Z M177.294653,197.660475 L177.294653,194.692475 L179.366653,194.692475 C180.845053,194.692475 181.707453,193.662075 181.707453,192.441275 C181.707453,191.220475 180.867453,190.190075 179.366653,190.190075 L176.365053,190.190075 L176.365053,197.660475 L177.294653,197.660475 Z M179.254653,193.863675 L177.294653,193.863675 L177.294653,191.018875 L179.254653,191.018875 C180.139453,191.018875 180.744253,191.601275 180.744253,192.441275 C180.744253,193.281275 180.139453,193.863675 179.254653,193.863675 Z M185.269053,197.794875 C186.915453,197.794875 187.945853,196.518075 187.945853,194.950075 C187.945853,193.382075 186.915453,192.116475 185.269053,192.116475 C183.622653,192.116475 182.592253,193.382075 182.592253,194.950075 C182.592253,196.518075 183.622653,197.794875 185.269053,197.794875 Z M185.269053,197.044475 C184.115453,197.044475 183.465853,196.058875 183.465853,194.950075 C183.465853,193.852475 184.115453,192.866875 185.269053,192.866875 C186.422653,192.866875 187.061053,193.852475 187.061053,194.950075 C187.061053,196.058875 186.422653,197.044475 185.269053,197.044475 Z M191.025853,197.794875 C192.425853,197.794875 193.153853,197.066875 193.153853,196.159675 C193.153853,194.961275 192.067453,194.692475 191.126653,194.479675 C190.421053,194.311675 189.805053,194.143675 189.805053,193.617275 C189.805053,193.135675 190.264253,192.799675 191.003453,192.799675 C191.697853,192.799675 192.291453,193.090875 192.616253,193.482875 L193.008253,192.900475 C192.571453,192.463675 191.921853,192.116475 191.003453,192.116475 C189.715453,192.116475 188.987453,192.833275 188.987453,193.673275 C188.987453,194.793275 190.029053,195.039675 190.947453,195.252475 C191.675453,195.431675 192.336253,195.622075 192.336253,196.215675 C192.336253,196.742075 191.888253,197.111675 191.059453,197.111675 C190.320253,197.111675 189.637053,196.753275 189.278653,196.338875 L188.841853,196.943675 C189.390653,197.526075 190.141053,197.794875 191.025853,197.794875 Z M194.934653,191.343675 C195.248253,191.343675 195.505853,191.086075 195.505853,190.772475 C195.505853,190.458875 195.248253,190.212475 194.934653,190.212475 C194.632253,190.212475 194.374653,190.458875 194.374653,190.772475 C194.374653,191.086075 194.632253,191.343675 194.934653,191.343675 Z M195.360253,197.660475 L195.360253,192.250875 L194.520253,192.250875 L194.520253,197.660475 L195.360253,197.660475 Z M198.406653,197.794875 C198.899453,197.794875 199.201853,197.649275 199.414653,197.447675 L199.168253,196.820475 C199.056253,196.943675 198.832253,197.044475 198.597053,197.044475 C198.227453,197.044475 198.048253,196.753275 198.048253,196.350075 L198.048253,192.990075 L199.145853,192.990075 L199.145853,192.250875 L198.048253,192.250875 L198.048253,190.772475 L197.208253,190.772475 L197.208253,192.250875 L196.312253,192.250875 L196.312253,192.990075 L197.208253,192.990075 L197.208253,196.529275 C197.208253,197.335675 197.611453,197.794875 198.406653,197.794875 Z M200.747453,191.343675 C201.061053,191.343675 201.318653,191.086075 201.318653,190.772475 C201.318653,190.458875 201.061053,190.212475 200.747453,190.212475 C200.445053,190.212475 200.187453,190.458875 200.187453,190.772475 C200.187453,191.086075 200.445053,191.343675 200.747453,191.343675 Z M201.173053,197.660475 L201.173053,192.250875 L200.333053,192.250875 L200.333053,197.660475 L201.173053,197.660475 Z M205.216253,197.794875 C206.862653,197.794875 207.893053,196.518075 207.893053,194.950075 C207.893053,193.382075 206.862653,192.116475 205.216253,192.116475 C203.569853,192.116475 202.539453,193.382075 202.539453,194.950075 C202.539453,196.518075 203.569853,197.794875 205.216253,197.794875 Z M205.216253,197.044475 C204.062653,197.044475 203.413053,196.058875 203.413053,194.950075 C203.413053,193.852475 204.062653,192.866875 205.216253,192.866875 C206.369853,192.866875 207.008253,193.852475 207.008253,194.950075 C207.008253,196.058875 206.369853,197.044475 205.216253,197.044475 Z M210.099453,197.660475 L210.099453,193.706875 C210.413053,193.270075 211.040253,192.866875 211.701053,192.866875 C212.429053,192.866875 212.910653,193.169275 212.910653,194.121275 L212.910653,197.660475 L213.750653,197.660475 L213.750653,193.863675 C213.750653,192.687675 213.157053,192.116475 212.025853,192.116475 C211.219453,192.116475 210.480253,192.586875 210.099453,193.034875 L210.099453,192.250875 L209.259453,192.250875 L209.259453,197.660475 L210.099453,197.660475 Z M215.845053,191.343675 C216.158653,191.343675 216.416253,191.086075 216.416253,190.772475 C216.416253,190.458875 216.158653,190.212475 215.845053,190.212475 C215.542653,190.212475 215.285053,190.458875 215.285053,190.772475 C215.285053,191.086075 215.542653,191.343675 215.845053,191.343675 Z M216.270653,197.660475 L216.270653,192.250875 L215.430653,192.250875 L215.430653,197.660475 L216.270653,197.660475 Z M218.790653,197.660475 L218.790653,193.706875 C219.104253,193.270075 219.731453,192.866875 220.392253,192.866875 C221.120253,192.866875 221.601853,193.169275 221.601853,194.121275 L221.601853,197.660475 L222.441853,197.660475 L222.441853,193.863675 C222.441853,192.687675 221.848253,192.116475 220.717053,192.116475 C219.910653,192.116475 219.171453,192.586875 218.790653,193.034875 L218.790653,192.250875 L217.950653,192.250875 L217.950653,197.660475 L218.790653,197.660475 Z M226.294653,199.855675 C227.616253,199.855675 228.870653,199.295675 228.870653,197.503675 L228.870653,192.250875 L228.030653,192.250875 L228.030653,193.068475 C227.593853,192.474875 226.944253,192.116475 226.216253,192.116475 C224.793853,192.116475 223.808253,193.191675 223.808253,194.927675 C223.808253,196.674875 224.805053,197.727675 226.216253,197.727675 C226.977853,197.727675 227.638653,197.313275 228.030653,196.764475 L228.030653,197.537275 C228.030653,198.724475 227.190653,199.161275 226.294653,199.161275 C225.521853,199.161275 224.984253,198.959675 224.536253,198.422075 L224.110653,199.049275 C224.749053,199.676475 225.376253,199.855675 226.294653,199.855675 Z M226.417853,196.988475 C225.331453,196.988475 224.681853,196.114875 224.681853,194.927675 C224.681853,193.729275 225.331453,192.866875 226.417853,192.866875 C227.089853,192.866875 227.739453,193.270075 228.030653,193.740475 L228.030653,196.103675 C227.739453,196.574075 227.089853,196.988475 226.417853,196.988475 Z" id="CompetitivePositioning" fill="#1F3966" fill-rule="nonzero"></path>
        <g id="verification/dot/trusted/active" transform="translate(88.000000, 260.360475)">
            <g id="Group" transform="translate(3.383607, 3.400000)">
                <rect id="Rectangle-3" stroke="#29CC96" stroke-width="0.8" fill="#F2FFFB" x="0" y="0" width="10.1508197" height="10.2" rx="4.8"></rect>
                <path d="M7.27943454,2.90502333 C6.19668408,4.06088515 5.21057042,5.20129844 4.15823252,6.33986819 L2.82695771,5.20587232 C2.73626544,5.12838938 2.62033414,5.09283795 2.50482776,5.10651175 C2.38932138,5.12018556 2.28366048,5.18217215 2.210931,5.2788024 C2.05949247,5.4802632 2.09028833,5.77424009 2.27937841,5.93513103 L3.92211632,7.33529878 C4.09708981,7.48433497 4.34990717,7.46883978 4.50734718,7.29883608 C5.68464268,6.04183548 6.74300395,4.80245366 7.90233885,3.56505541 C8.03324316,3.4306043 8.07217605,3.22412623 8.00073228,3.04591988 C7.92929071,2.86771353 7.76202056,2.75512837 7.58064039,2.76287597 C7.46680523,2.76645923 7.35858165,2.81750701 7.27943454,2.90502333 Z" id="Fill-1" fill="#29CC96"></path>
            </g>
        </g>
        <path d="M114.334348,271.660475 L114.334348,268.692475 L116.406348,268.692475 C117.884748,268.692475 118.747148,267.662075 118.747148,266.441275 C118.747148,265.220475 117.907148,264.190075 116.406348,264.190075 L113.404748,264.190075 L113.404748,271.660475 L114.334348,271.660475 Z M116.294348,267.863675 L114.334348,267.863675 L114.334348,265.018875 L116.294348,265.018875 C117.179148,265.018875 117.783948,265.601275 117.783948,266.441275 C117.783948,267.281275 117.179148,267.863675 116.294348,267.863675 Z M120.785548,271.660475 L120.785548,267.830075 C121.031948,267.393275 121.737548,266.967675 122.252748,266.967675 C122.387148,266.967675 122.487948,266.978875 122.588748,267.001275 L122.588748,266.138875 C121.849548,266.138875 121.222348,266.553275 120.785548,267.124475 L120.785548,266.250875 L119.945548,266.250875 L119.945548,271.660475 L120.785548,271.660475 Z M126.004748,271.794875 C127.651148,271.794875 128.681548,270.518075 128.681548,268.950075 C128.681548,267.382075 127.651148,266.116475 126.004748,266.116475 C124.358348,266.116475 123.327948,267.382075 123.327948,268.950075 C123.327948,270.518075 124.358348,271.794875 126.004748,271.794875 Z M126.004748,271.044475 C124.851148,271.044475 124.201548,270.058875 124.201548,268.950075 C124.201548,267.852475 124.851148,266.866875 126.004748,266.866875 C127.158348,266.866875 127.796748,267.852475 127.796748,268.950075 C127.796748,270.058875 127.158348,271.044475 126.004748,271.044475 Z M132.142348,271.794875 C132.903948,271.794875 133.564748,271.402875 133.967948,270.854075 L133.967948,271.660475 L134.807948,271.660475 L134.807948,264.190075 L133.967948,264.190075 L133.967948,267.068475 C133.531148,266.474875 132.870348,266.116475 132.142348,266.116475 C130.719948,266.116475 129.734348,267.236475 129.734348,268.961275 C129.734348,270.719675 130.731148,271.794875 132.142348,271.794875 Z M132.343948,271.044475 C131.257548,271.044475 130.607948,270.159675 130.607948,268.961275 C130.607948,267.762875 131.257548,266.866875 132.343948,266.866875 C133.015948,266.866875 133.665548,267.270075 133.967948,267.740475 L133.967948,270.193275 C133.665548,270.663675 133.015948,271.044475 132.343948,271.044475 Z M138.212748,271.794875 C139.019148,271.794875 139.724748,271.369275 140.139148,270.898875 L140.139148,271.660475 L140.979148,271.660475 L140.979148,266.250875 L140.139148,266.250875 L140.139148,270.226875 C139.825548,270.663675 139.198348,271.044475 138.537548,271.044475 C137.809548,271.044475 137.327948,270.764475 137.327948,269.812475 L137.327948,266.250875 L136.487948,266.250875 L136.487948,270.070075 C136.487948,271.246075 137.081548,271.794875 138.212748,271.794875 Z M145.044748,271.794875 C146.030348,271.794875 146.612748,271.391675 147.027148,270.854075 L146.467148,270.338875 C146.108748,270.820475 145.649548,271.044475 145.089548,271.044475 C143.935948,271.044475 143.219148,270.148475 143.219148,268.950075 C143.219148,267.751675 143.935948,266.866875 145.089548,266.866875 C145.649548,266.866875 146.108748,267.079675 146.467148,267.572475 L147.027148,267.057275 C146.612748,266.519675 146.030348,266.116475 145.044748,266.116475 C143.431948,266.116475 142.345548,267.348475 142.345548,268.950075 C142.345548,270.562875 143.431948,271.794875 145.044748,271.794875 Z M149.569548,271.794875 C150.062348,271.794875 150.364748,271.649275 150.577548,271.447675 L150.331148,270.820475 C150.219148,270.943675 149.995148,271.044475 149.759948,271.044475 C149.390348,271.044475 149.211148,270.753275 149.211148,270.350075 L149.211148,266.990075 L150.308748,266.990075 L150.308748,266.250875 L149.211148,266.250875 L149.211148,264.772475 L148.371148,264.772475 L148.371148,266.250875 L147.475148,266.250875 L147.475148,266.990075 L148.371148,266.990075 L148.371148,270.529275 C148.371148,271.335675 148.774348,271.794875 149.569548,271.794875 Z M155.348748,271.660475 L155.348748,268.255675 L159.235148,268.255675 L159.235148,267.426875 L155.348748,267.426875 L155.348748,265.018875 L159.313548,265.018875 L159.313548,264.190075 L154.419148,264.190075 L154.419148,271.660475 L155.348748,271.660475 Z M160.836748,271.660475 L161.497548,270.002875 L165.283148,270.002875 L165.943948,271.660475 L166.974348,271.660475 L163.961548,264.190075 L162.807948,264.190075 L159.806348,271.660475 L160.836748,271.660475 Z M165.003148,269.174075 L161.766348,269.174075 L163.390348,265.018875 L165.003148,269.174075 Z M174.097548,272.007675 L174.747148,271.447675 L174.041548,270.686075 C174.691148,269.991675 175.060748,269.028475 175.060748,267.930875 C175.060748,265.724475 173.559948,264.066875 171.353548,264.066875 C169.135948,264.066875 167.646348,265.724475 167.646348,267.930875 C167.646348,270.137275 169.135948,271.794875 171.353548,271.794875 C172.126348,271.794875 172.809548,271.593275 173.380748,271.234875 L174.097548,272.007675 Z M171.353548,270.966075 C169.673548,270.966075 168.609548,269.666875 168.609548,267.930875 C168.609548,266.183675 169.673548,264.895675 171.353548,264.895675 C173.022348,264.895675 174.097548,266.183675 174.097548,267.930875 C174.097548,268.759675 173.851148,269.487675 173.414348,270.014075 L172.361548,268.882875 L171.711948,269.431675 L172.775948,270.585275 C172.372748,270.831675 171.902348,270.966075 171.353548,270.966075 Z M178.196748,271.794875 C179.596748,271.794875 180.324748,271.066875 180.324748,270.159675 C180.324748,268.961275 179.238348,268.692475 178.297548,268.479675 C177.591948,268.311675 176.975948,268.143675 176.975948,267.617275 C176.975948,267.135675 177.435148,266.799675 178.174348,266.799675 C178.868748,266.799675 179.462348,267.090875 179.787148,267.482875 L180.179148,266.900475 C179.742348,266.463675 179.092748,266.116475 178.174348,266.116475 C176.886348,266.116475 176.158348,266.833275 176.158348,267.673275 C176.158348,268.793275 177.199948,269.039675 178.118348,269.252475 C178.846348,269.431675 179.507148,269.622075 179.507148,270.215675 C179.507148,270.742075 179.059148,271.111675 178.230348,271.111675 C177.491148,271.111675 176.807948,270.753275 176.449548,270.338875 L176.012748,270.943675 C176.561548,271.526075 177.311948,271.794875 178.196748,271.794875 Z" id="ProductFAQs" fill="#1F3966" fill-rule="nonzero"></path>
        <g id="verification/dot/trusted/active" transform="translate(89.000000, 118.360475)">
            <g id="Group" transform="translate(3.364706, 3.400000)">
                <rect id="Rectangle-3" stroke="#29CC96" stroke-width="0.8" fill="#F2FFFB" x="0" y="0" width="10.0941176" height="10.2" rx="4.8"></rect>
                <path d="M7.23877195,2.90502333 C6.16206968,4.06088515 5.18146441,5.20129844 4.13500481,6.33986819 L2.81116645,5.20587232 C2.72098078,5.12838938 2.60569707,5.09283795 2.49083591,5.10651175 C2.37597474,5.12018556 2.27090406,5.18217215 2.19858084,5.2788024 C2.04798823,5.4802632 2.07861207,5.77424009 2.2666459,5.93513103 L3.90020755,7.33529878 C4.07420365,7.48433497 4.32560879,7.46883978 4.48216934,7.29883608 C5.65288852,6.04183548 6.70533784,4.80245366 7.85819674,3.56505541 C7.98836983,3.4306043 8.02708524,3.22412623 7.95604055,3.04591988 C7.88499804,2.86771353 7.71866226,2.75512837 7.53829528,2.76287597 C7.42509599,2.76645923 7.31747695,2.81750701 7.23877195,2.90502333 Z" id="Fill-1" fill="#29CC96"></path>
            </g>
        </g>
        <path d="M116.686918,129.794875 C118.702918,129.794875 119.442118,128.686075 119.442118,127.599675 C119.442118,126.031675 118.053318,125.650875 116.832518,125.326075 C115.880518,125.068475 115.018118,124.844475 115.018118,124.094075 C115.018118,123.388475 115.656518,122.906875 116.552518,122.906875 C117.370118,122.906875 118.154118,123.186875 118.714118,123.802875 L119.274118,123.119675 C118.646918,122.458875 117.762118,122.078075 116.619718,122.078075 C115.152518,122.078075 114.054918,122.918075 114.054918,124.150075 C114.054918,125.617275 115.387718,125.953275 116.586118,126.266875 C117.571718,126.535675 118.478918,126.782075 118.478918,127.678075 C118.478918,128.249275 118.053318,128.966075 116.720518,128.966075 C115.667718,128.966075 114.861318,128.450875 114.368518,127.902075 L113.819718,128.607675 C114.435718,129.302075 115.387718,129.794875 116.686918,129.794875 Z M122.387718,129.794875 C123.115718,129.794875 123.731718,129.537275 124.179718,129.044475 L124.179718,129.660475 L125.019718,129.660475 L125.019718,125.942075 C125.019718,124.631675 124.067718,124.116475 122.925318,124.116475 C122.040518,124.116475 121.346118,124.407675 120.763718,125.012475 L121.155718,125.594875 C121.637318,125.079675 122.163718,124.844475 122.813318,124.844475 C123.597318,124.844475 124.179718,125.258875 124.179718,125.986875 L124.179718,126.961275 C123.742918,126.457275 123.126918,126.222075 122.387718,126.222075 C121.469318,126.222075 120.494918,126.793275 120.494918,128.002875 C120.494918,129.178875 121.469318,129.794875 122.387718,129.794875 Z M122.690118,129.190075 C121.906118,129.190075 121.357318,128.697275 121.357318,128.014075 C121.357318,127.319675 121.906118,126.826875 122.690118,126.826875 C123.283718,126.826875 123.854918,127.050875 124.179718,127.498875 L124.179718,128.518075 C123.854918,128.966075 123.283718,129.190075 122.690118,129.190075 Z M127.539718,129.660475 L127.539718,122.190075 L126.699718,122.190075 L126.699718,129.660475 L127.539718,129.660475 Z M131.661318,129.794875 C132.546118,129.794875 133.274118,129.503675 133.811718,128.966075 L133.408518,128.417275 C132.982918,128.854075 132.355718,129.100475 131.739718,129.100475 C130.574918,129.100475 129.858118,128.249275 129.790918,127.230075 L134.170118,127.230075 L134.170118,127.017275 C134.170118,125.393275 133.206918,124.116475 131.571718,124.116475 C130.026118,124.116475 128.906118,125.382075 128.906118,126.950075 C128.906118,128.641275 130.059718,129.794875 131.661318,129.794875 Z M133.341318,126.614075 L129.790918,126.614075 C129.835718,125.785275 130.406918,124.810875 131.560518,124.810875 C132.792518,124.810875 133.330118,125.807675 133.341318,126.614075 Z M137.238918,129.794875 C138.638918,129.794875 139.366918,129.066875 139.366918,128.159675 C139.366918,126.961275 138.280518,126.692475 137.339718,126.479675 C136.634118,126.311675 136.018118,126.143675 136.018118,125.617275 C136.018118,125.135675 136.477318,124.799675 137.216518,124.799675 C137.910918,124.799675 138.504518,125.090875 138.829318,125.482875 L139.221318,124.900475 C138.784518,124.463675 138.134918,124.116475 137.216518,124.116475 C135.928518,124.116475 135.200518,124.833275 135.200518,125.673275 C135.200518,126.793275 136.242118,127.039675 137.160518,127.252475 C137.888518,127.431675 138.549318,127.622075 138.549318,128.215675 C138.549318,128.742075 138.101318,129.111675 137.272518,129.111675 C136.533318,129.111675 135.850118,128.753275 135.491718,128.338875 L135.054918,128.943675 C135.603718,129.526075 136.354118,129.794875 137.238918,129.794875 Z M144.586118,129.660475 L144.586118,126.692475 L146.658118,126.692475 C148.136518,126.692475 148.998918,125.662075 148.998918,124.441275 C148.998918,123.220475 148.158918,122.190075 146.658118,122.190075 L143.656518,122.190075 L143.656518,129.660475 L144.586118,129.660475 Z M146.546118,125.863675 L144.586118,125.863675 L144.586118,123.018875 L146.546118,123.018875 C147.430918,123.018875 148.035718,123.601275 148.035718,124.441275 C148.035718,125.281275 147.430918,125.863675 146.546118,125.863675 Z M151.037318,129.660475 L151.037318,125.830075 C151.283718,125.393275 151.989318,124.967675 152.504518,124.967675 C152.638918,124.967675 152.739718,124.978875 152.840518,125.001275 L152.840518,124.138875 C152.101318,124.138875 151.474118,124.553275 151.037318,125.124475 L151.037318,124.250875 L150.197318,124.250875 L150.197318,129.660475 L151.037318,129.660475 Z M156.256518,129.794875 C157.902918,129.794875 158.933318,128.518075 158.933318,126.950075 C158.933318,125.382075 157.902918,124.116475 156.256518,124.116475 C154.610118,124.116475 153.579718,125.382075 153.579718,126.950075 C153.579718,128.518075 154.610118,129.794875 156.256518,129.794875 Z M156.256518,129.044475 C155.102918,129.044475 154.453318,128.058875 154.453318,126.950075 C154.453318,125.852475 155.102918,124.866875 156.256518,124.866875 C157.410118,124.866875 158.048518,125.852475 158.048518,126.950075 C158.048518,128.058875 157.410118,129.044475 156.256518,129.044475 Z M162.685318,129.794875 C163.670918,129.794875 164.253318,129.391675 164.667718,128.854075 L164.107718,128.338875 C163.749318,128.820475 163.290118,129.044475 162.730118,129.044475 C161.576518,129.044475 160.859718,128.148475 160.859718,126.950075 C160.859718,125.751675 161.576518,124.866875 162.730118,124.866875 C163.290118,124.866875 163.749318,125.079675 164.107718,125.572475 L164.667718,125.057275 C164.253318,124.519675 163.670918,124.116475 162.685318,124.116475 C161.072518,124.116475 159.986118,125.348475 159.986118,126.950075 C159.986118,128.562875 161.072518,129.794875 162.685318,129.794875 Z M168.285318,129.794875 C169.170118,129.794875 169.898118,129.503675 170.435718,128.966075 L170.032518,128.417275 C169.606918,128.854075 168.979718,129.100475 168.363718,129.100475 C167.198918,129.100475 166.482118,128.249275 166.414918,127.230075 L170.794118,127.230075 L170.794118,127.017275 C170.794118,125.393275 169.830918,124.116475 168.195718,124.116475 C166.650118,124.116475 165.530118,125.382075 165.530118,126.950075 C165.530118,128.641275 166.683718,129.794875 168.285318,129.794875 Z M169.965318,126.614075 L166.414918,126.614075 C166.459718,125.785275 167.030918,124.810875 168.184518,124.810875 C169.416518,124.810875 169.954118,125.807675 169.965318,126.614075 Z M173.862918,129.794875 C175.262918,129.794875 175.990918,129.066875 175.990918,128.159675 C175.990918,126.961275 174.904518,126.692475 173.963718,126.479675 C173.258118,126.311675 172.642118,126.143675 172.642118,125.617275 C172.642118,125.135675 173.101318,124.799675 173.840518,124.799675 C174.534918,124.799675 175.128518,125.090875 175.453318,125.482875 L175.845318,124.900475 C175.408518,124.463675 174.758918,124.116475 173.840518,124.116475 C172.552518,124.116475 171.824518,124.833275 171.824518,125.673275 C171.824518,126.793275 172.866118,127.039675 173.784518,127.252475 C174.512518,127.431675 175.173318,127.622075 175.173318,128.215675 C175.173318,128.742075 174.725318,129.111675 173.896518,129.111675 C173.157318,129.111675 172.474118,128.753275 172.115718,128.338875 L171.678918,128.943675 C172.227718,129.526075 172.978118,129.794875 173.862918,129.794875 Z M179.070918,129.794875 C180.470918,129.794875 181.198918,129.066875 181.198918,128.159675 C181.198918,126.961275 180.112518,126.692475 179.171718,126.479675 C178.466118,126.311675 177.850118,126.143675 177.850118,125.617275 C177.850118,125.135675 178.309318,124.799675 179.048518,124.799675 C179.742918,124.799675 180.336518,125.090875 180.661318,125.482875 L181.053318,124.900475 C180.616518,124.463675 179.966918,124.116475 179.048518,124.116475 C177.760518,124.116475 177.032518,124.833275 177.032518,125.673275 C177.032518,126.793275 178.074118,127.039675 178.992518,127.252475 C179.720518,127.431675 180.381318,127.622075 180.381318,128.215675 C180.381318,128.742075 179.933318,129.111675 179.104518,129.111675 C178.365318,129.111675 177.682118,128.753275 177.323718,128.338875 L176.886918,128.943675 C177.435718,129.526075 178.186118,129.794875 179.070918,129.794875 Z M185.006918,129.794875 C185.891718,129.794875 186.619718,129.503675 187.157318,128.966075 L186.754118,128.417275 C186.328518,128.854075 185.701318,129.100475 185.085318,129.100475 C183.920518,129.100475 183.203718,128.249275 183.136518,127.230075 L187.515718,127.230075 L187.515718,127.017275 C187.515718,125.393275 186.552518,124.116475 184.917318,124.116475 C183.371718,124.116475 182.251718,125.382075 182.251718,126.950075 C182.251718,128.641275 183.405318,129.794875 185.006918,129.794875 Z M186.686918,126.614075 L183.136518,126.614075 C183.181318,125.785275 183.752518,124.810875 184.906118,124.810875 C186.138118,124.810875 186.675718,125.807675 186.686918,126.614075 Z M190.584518,129.794875 C191.984518,129.794875 192.712518,129.066875 192.712518,128.159675 C192.712518,126.961275 191.626118,126.692475 190.685318,126.479675 C189.979718,126.311675 189.363718,126.143675 189.363718,125.617275 C189.363718,125.135675 189.822918,124.799675 190.562118,124.799675 C191.256518,124.799675 191.850118,125.090875 192.174918,125.482875 L192.566918,124.900475 C192.130118,124.463675 191.480518,124.116475 190.562118,124.116475 C189.274118,124.116475 188.546118,124.833275 188.546118,125.673275 C188.546118,126.793275 189.587718,127.039675 190.506118,127.252475 C191.234118,127.431675 191.894918,127.622075 191.894918,128.215675 C191.894918,128.742075 191.446918,129.111675 190.618118,129.111675 C189.878918,129.111675 189.195718,128.753275 188.837318,128.338875 L188.400518,128.943675 C188.949318,129.526075 189.699718,129.794875 190.584518,129.794875 Z" id="SalesProcesses" fill="#1F3966" fill-rule="nonzero"></path>
        <g id="expand-accordion" transform="translate(229.000000, 231.360475) rotate(-90.000000) translate(-229.000000, -231.360475) translate(222.000000, 224.360475)">
            <mask id="mask-8" fill="white">
                <use xlink:href="#path-7"></use>
            </mask>
            <use id="-Icon-小olor" fill="#001C4D" fill-rule="evenodd" xlink:href="#path-7"></use>
        </g>
    </g>
</svg>