<?xml version="1.0" encoding="utf-8"?>
<svg version="1.1" id="Layer_1" xmlns="http://www.w3.org/2000/svg" xmlns:xlink="http://www.w3.org/1999/xlink" x="0px" y="0px"
	 viewBox="-101.7 127.5 171.2 161.2" style="enable-background:new -101.7 127.5 171.2 161.2;" xml:space="preserve">
<g>
	<g>
		<path fill="#FFFFFF" d="M34.1,232.3c-0.1,0.8-0.2,1.6-0.5,2.5c-1,4.2-3.1,8.6-6,12.8c-2.4,3.5-5.9,7-10.7,10.8
			c-4,3.2-8.4,5.8-13.1,7.9c-4.7,2.1-9.7,3.7-14.8,4.6c-3.5,0.6-7.2,0.9-10.8,0.9c-34.8,0-63.1-28.6-63.1-63.8s28.3-63.8,63.1-63.8
			c18.7,0,36.3,8.3,48.4,22.9c3,3.6,8.2,4.1,11.8,1.1s4.1-8.2,1.1-11.8C24.3,138,1.9,127.5-21.8,127.5c-44,0-79.9,36.1-79.9,80.6
			c0,44.4,35.8,80.6,79.9,80.6c4.6,0,9.2-0.4,13.7-1.2c6.5-1.1,12.8-3.1,18.9-5.8c5.9-2.6,11.4-6,16.5-10
			c6.1-4.8,10.7-9.6,14.1-14.5c4-5.8,6.9-12.1,8.4-18.2c1.3-5.2,1.5-10.1,0.6-14.8C46,226.8,36.9,231,34.1,232.3"/>
		<path fill="#FFFFFF" d="M67,191c-3.3-3.3-8.6-3.2-11.9,0.1c-5.3,5.4-10.9,9.9-16.7,13.5c-2.4-1.8-5-3.5-8-4.9
			c-4.5-2.2-9.6-3.9-15.2-5c-5.3-1-10.9-1.6-16.7-1.6c-8.3,0-13.4,3.2-16.3,5.8c-3.9,3.6-6.2,8.8-6.2,14.1c0,9.5,7.5,19.6,21.5,19.6
			c22.1,0,43.7-7.8,60.8-21.8c3-2.5,5.9-5.1,8.6-7.9C70.3,199.5,70.3,194.2,67,191 M-2.4,215.7c-2.9,0-4.8-1.1-4.8-2.9
			c0-0.5,0.1-1.1,0.8-1.7c1-0.9,2.7-1.4,4.9-1.4c4.7,0,9.2,0.4,13.4,1.3c2.5,0.5,4.9,1.1,7,1.9C12.3,214.8,5.1,215.7-2.4,215.7"/>
	</g>
</g>
</svg>
